  0
SECTION
  2
HEADER
  9
$ACADVER
  1
AC1018
  9
$ACADMAINTVER
 70
    77
  9
$DWGCODEPAGE
  3
ANSI_936
  9
$INSBASE
 10
0.0
 20
0.0
 30
0.0
  9
$EXTMIN
 10
604.265402843602
 20
1393.36492890725
 30
0.0
  9
$EXTMAX
 10
1800.26550271219
 20
2127.89662893956
 30
0.0
  9
$LIMMIN
 10
0.0
 20
0.0
  9
$LIMMAX
 10
420.0
 20
297.0
  9
$ORTHOMODE
 70
     0
  9
$REGENMODE
 70
     1
  9
$FILLMODE
 70
     1
  9
$QTEXTMODE
 70
     0
  9
$MIRRTEXT
 70
     0
  9
$LTSCALE
 40
1.0
  9
$ATTMODE
 70
     1
  9
$TEXTSIZE
 40
2.5
  9
$TRACEWID
 40
1.0
  9
$TEXTSTYLE
  7
STANDARD
  9
$CLAYER
  8
0
  9
$CELTYPE
  6
ByLayer
  9
$CECOLOR
 62
   256
  9
$CELTSCALE
 40
1.0
  9
$DISPSILH
 70
     0
  9
$DIMSCALE
 40
1.0
  9
$DIMASZ
 40
2.5
  9
$DIMEXO
 40
0.625
  9
$DIMDLI
 40
3.75
  9
$DIMRND
 40
0.0
  9
$DIMDLE
 40
0.0
  9
$DIMEXE
 40
1.25
  9
$DIMTP
 40
0.0
  9
$DIMTM
 40
0.0
  9
$DIMTXT
 40
2.5
  9
$DIMCEN
 40
2.5
  9
$DIMTSZ
 40
0.0
  9
$DIMTOL
 70
     0
  9
$DIMLIM
 70
     0
  9
$DIMTIH
 70
     0
  9
$DIMTOH
 70
     0
  9
$DIMSE1
 70
     0
  9
$DIMSE2
 70
     0
  9
$DIMTAD
 70
     1
  9
$DIMZIN
 70
     8
  9
$DIMBLK
  1

  9
$DIMASO
 70
     1
  9
$DIMSHO
 70
     1
  9
$DIMPOST
  1

  9
$DIMAPOST
  1

  9
$DIMALT
 70
     0
  9
$DIMALTD
 70
     3
  9
$DIMALTF
 40
0.03937007874016
  9
$DIMLFAC
 40
1.0
  9
$DIMTOFL
 70
     1
  9
$DIMTVP
 40
0.0
  9
$DIMTIX
 70
     0
  9
$DIMSOXD
 70
     0
  9
$DIMSAH
 70
     0
  9
$DIMBLK1
  1

  9
$DIMBLK2
  1

  9
$DIMSTYLE
  2
ISO-25
  9
$DIMCLRD
 70
     0
  9
$DIMCLRE
 70
     0
  9
$DIMCLRT
 70
     0
  9
$DIMTFAC
 40
1.0
  9
$DIMGAP
 40
0.625
  9
$DIMJUST
 70
     0
  9
$DIMSD1
 70
     0
  9
$DIMSD2
 70
     0
  9
$DIMTOLJ
 70
     1
  9
$DIMTZIN
 70
     0
  9
$DIMALTZ
 70
     0
  9
$DIMALTTZ
 70
     0
  9
$DIMUPT
 70
     0
  9
$DIMDEC
 70
     4
  9
$DIMTDEC
 70
     4
  9
$DIMALTU
 70
     2
  9
$DIMALTTD
 70
     2
  9
$DIMTXSTY
  7
STANDARD
  9
$DIMAUNIT
 70
     0
  9
$DIMADEC
 70
     0
  9
$DIMALTRND
 40
0.0
  9
$DIMAZIN
 70
     0
  9
$DIMDSEP
 70
    46
  9
$DIMATFIT
 70
     3
  9
$DIMFRAC
 70
     0
  9
$DIMLDRBLK
  1

  9
$DIMLUNIT
 70
     2
  9
$DIMLWD
 70
    -2
  9
$DIMLWE
 70
    -2
  9
$DIMTMOVE
 70
     0
  9
$LUNITS
 70
     2
  9
$LUPREC
 70
     4
  9
$SKETCHINC
 40
1.0
  9
$FILLETRAD
 40
0.0
  9
$AUNITS
 70
     0
  9
$AUPREC
 70
     0
  9
$MENU
  1
.
  9
$ELEVATION
 40
0.0
  9
$PELEVATION
 40
0.0
  9
$THICKNESS
 40
0.0
  9
$LIMCHECK
 70
     0
  9
$CHAMFERA
 40
0.0
  9
$CHAMFERB
 40
0.0
  9
$CHAMFERC
 40
0.0
  9
$CHAMFERD
 40
0.0
  9
$SKPOLY
 70
     0
  9
$TDCREATE
 40
2456997.676706910
  9
$TDUCREATE
 40
2456997.343373576
  9
$TDUPDATE
 40
2456997.680113438
  9
$TDUUPDATE
 40
2456997.346780104
  9
$TDINDWG
 40
0.0010312963
  9
$TDUSRTIMER
 40
0.0010311806
  9
$USRTIMER
 70
     1
  9
$ANGBASE
 50
0.0
  9
$ANGDIR
 70
     0
  9
$PDMODE
 70
     0
  9
$PDSIZE
 40
0.0
  9
$PLINEWID
 40
0.0
  9
$SPLFRAME
 70
     0
  9
$SPLINETYPE
 70
     6
  9
$SPLINESEGS
 70
     8
  9
$HANDSEED
  5
24E0
  9
$SURFTAB1
 70
     6
  9
$SURFTAB2
 70
     6
  9
$SURFTYPE
 70
     6
  9
$SURFU
 70
     6
  9
$SURFV
 70
     6
  9
$UCSBASE
  2

  9
$UCSNAME
  2

  9
$UCSORG
 10
0.0
 20
0.0
 30
0.0
  9
$UCSXDIR
 10
1.0
 20
0.0
 30
0.0
  9
$UCSYDIR
 10
0.0
 20
1.0
 30
0.0
  9
$UCSORTHOREF
  2

  9
$UCSORTHOVIEW
 70
     0
  9
$UCSORGTOP
 10
0.0
 20
0.0
 30
0.0
  9
$UCSORGBOTTOM
 10
0.0
 20
0.0
 30
0.0
  9
$UCSORGLEFT
 10
0.0
 20
0.0
 30
0.0
  9
$UCSORGRIGHT
 10
0.0
 20
0.0
 30
0.0
  9
$UCSORGFRONT
 10
0.0
 20
0.0
 30
0.0
  9
$UCSORGBACK
 10
0.0
 20
0.0
 30
0.0
  9
$PUCSBASE
  2

  9
$PUCSNAME
  2

  9
$PUCSORG
 10
0.0
 20
0.0
 30
0.0
  9
$PUCSXDIR
 10
1.0
 20
0.0
 30
0.0
  9
$PUCSYDIR
 10
0.0
 20
1.0
 30
0.0
  9
$PUCSORTHOREF
  2

  9
$PUCSORTHOVIEW
 70
     0
  9
$PUCSORGTOP
 10
0.0
 20
0.0
 30
0.0
  9
$PUCSORGBOTTOM
 10
0.0
 20
0.0
 30
0.0
  9
$PUCSORGLEFT
 10
0.0
 20
0.0
 30
0.0
  9
$PUCSORGRIGHT
 10
0.0
 20
0.0
 30
0.0
  9
$PUCSORGFRONT
 10
0.0
 20
0.0
 30
0.0
  9
$PUCSORGBACK
 10
0.0
 20
0.0
 30
0.0
  9
$USERI1
 70
     0
  9
$USERI2
 70
     0
  9
$USERI3
 70
     0
  9
$USERI4
 70
     0
  9
$USERI5
 70
     0
  9
$USERR1
 40
0.0
  9
$USERR2
 40
0.0
  9
$USERR3
 40
0.0
  9
$USERR4
 40
0.0
  9
$USERR5
 40
0.0
  9
$WORLDVIEW
 70
     1
  9
$SHADEDGE
 70
     3
  9
$SHADEDIF
 70
    70
  9
$TILEMODE
 70
     1
  9
$MAXACTVP
 70
    64
  9
$PINSBASE
 10
0.0
 20
0.0
 30
0.0
  9
$PLIMCHECK
 70
     0
  9
$PEXTMIN
 10
0.0
 20
0.0
 30
0.0
  9
$PEXTMAX
 10
0.0
 20
0.0
 30
0.0
  9
$PLIMMIN
 10
0.0
 20
0.0
  9
$PLIMMAX
 10
12.0
 20
9.0
  9
$UNITMODE
 70
     0
  9
$VISRETAIN
 70
     1
  9
$PLINEGEN
 70
     0
  9
$PSLTSCALE
 70
     1
  9
$TREEDEPTH
 70
  3020
  9
$CMLSTYLE
  2
Standard
  9
$CMLJUST
 70
     0
  9
$CMLSCALE
 40
1.0
  9
$PROXYGRAPHICS
 70
     1
  9
$MEASUREMENT
 70
     1
  9
$CELWEIGHT
370
    -1
  9
$ENDCAPS
280
     0
  9
$JOINSTYLE
280
     0
  9
$LWDISPLAY
290
     0
  9
$INSUNITS
 70
     0
  9
$HYPERLINKBASE
  1

  9
$STYLESHEET
  1

  9
$XEDIT
290
     1
  9
$CEPSNTYPE
380
     0
  9
$PSTYLEMODE
290
     1
  9
$FINGERPRINTGUID
  2
{1F2D6530-6BF2-4D5E-922F-A9C54F637010}
  9
$VERSIONGUID
  2
{15AD9CB5-51D1-451C-B472-5DB36EFAD6AD}
  9
$EXTNAMES
290
     1
  9
$PSVPSCALE
 40
0.0
  9
$OLESTARTUP
290
     0
  9
$SORTENTS
280
   127
  9
$INDEXCTL
280
     0
  9
$HIDETEXT
280
     0
  9
$XCLIPFRAME
290
     0
  9
$HALOGAP
280
     0
  9
$OBSCOLOR
 70
   257
  9
$OBSLTYPE
280
     0
  9
$INTERSECTIONDISPLAY
280
     0
  9
$INTERSECTIONCOLOR
 70
   257
  9
$DIMASSOC
280
     1
  9
$PROJECTNAME
  1

  0
ENDSEC
  0
SECTION
  2
CLASSES
  0
CLASS
  1
ACDBDICTIONARYWDFLT
  2
AcDbDictionaryWithDefault
  3
ObjectDBX Classes
 90
        0
 91
        1
280
     0
281
     0
  0
CLASS
  1
TABLESTYLE
  2
AcDbTableStyle
  3
ObjectDBX Classes
 90
     2047
 91
        1
280
     0
281
     0
  0
CLASS
  1
DICTIONARYVAR
  2
AcDbDictionaryVar
  3
ObjectDBX Classes
 90
        0
 91
        1
280
     0
281
     0
  0
ENDSEC
  0
SECTION
  2
TABLES
  0
TABLE
  2
VPORT
  5
10D
330
0
100
AcDbSymbolTable
 70
     2
  0
VPORT
  5
137
330
10D
100
AcDbSymbolTableRecord
100
AcDbViewportTableRecord
  2
*Active
 70
     0
 10
0.0
 20
0.0
 11
1.0
 21
1.0
 12
1202.2654527779
 22
1760.63077892341
 13
0.0
 23
0.0
 14
10.0
 24
10.0
 15
10.0
 25
10.0
 16
0.0
 26
0.0
 36
1.0
 17
0.0
 27
0.0
 37
0.0
 40
551.708552688342
 41
2.435135135135135
 42
50.0
 43
0.0
 44
0.0
 50
0.0
 51
0.0
 71
     0
 72
  1000
 73
     1
 74
     3
 75
     0
 76
     0
 77
     0
 78
     0
281
     0
 65
     1
110
0.0
120
0.0
130
0.0
111
1.0
121
0.0
131
0.0
112
0.0
122
1.0
132
0.0
 79
     0
146
0.0
  0
ENDTAB
  0
TABLE
  2
LTYPE
  5
10A
330
0
100
AcDbSymbolTable
 70
     1
  0
LTYPE
  5
118
330
10A
100
AcDbSymbolTableRecord
100
AcDbLinetypeTableRecord
  2
ByBlock
 70
     0
  3

 72
    65
 73
     0
 40
0.0
  0
LTYPE
  5
119
330
10A
100
AcDbSymbolTableRecord
100
AcDbLinetypeTableRecord
  2
ByLayer
 70
     0
  3

 72
    65
 73
     0
 40
0.0
  0
LTYPE
  5
11A
330
10A
100
AcDbSymbolTableRecord
100
AcDbLinetypeTableRecord
  2
CONTINUOUS
 70
     0
  3
Solid line
 72
    65
 73
     0
 40
0.0
  0
ENDTAB
  0
TABLE
  2
LAYER
  5
107
330
0
100
AcDbSymbolTable
 70
     1
  0
LAYER
  5
115
330
107
100
AcDbSymbolTableRecord
100
AcDbLayerTableRecord
  2
0
 70
     0
 62
     7
  6
CONTINUOUS
370
    -3
390
114
  0
ENDTAB
  0
TABLE
  2
STYLE
  5
108
330
0
100
AcDbSymbolTable
 70
     1
  0
STYLE
  5
116
330
108
100
AcDbSymbolTableRecord
100
AcDbTextStyleTableRecord
  2
STANDARD
 70
     0
 40
0.0
 41
1.0
 50
0.0
 71
     0
 42
2.5
  3
txt
  4
gbcbig.shx
  0
ENDTAB
  0
TABLE
  2
VIEW
  5
10B
330
0
100
AcDbSymbolTable
 70
     0
  0
ENDTAB
  0
TABLE
  2
UCS
  5
10C
330
0
100
AcDbSymbolTable
 70
     0
  0
ENDTAB
  0
TABLE
  2
APPID
  5
10E
330
0
100
AcDbSymbolTable
 70
     2
  0
APPID
  5
117
330
10E
100
AcDbSymbolTableRecord
100
AcDbRegAppTableRecord
  2
ACAD
 70
     0
  0
APPID
  5
12C
330
10E
100
AcDbSymbolTableRecord
100
AcDbRegAppTableRecord
  2
ACAD_PSEXT
 70
     0
  0
APPID
  5
112C
330
10E
100
AcDbSymbolTableRecord
100
AcDbRegAppTableRecord
  2
FS_CYPCUT
 70
     0
  0
ENDTAB
  0
TABLE
  2
DIMSTYLE
  5
10F
330
0
100
AcDbSymbolTable
 70
     1
100
AcDbDimStyleTable
 71
     0
  0
DIMSTYLE
105
12D
330
10F
100
AcDbSymbolTableRecord
100
AcDbDimStyleTableRecord
  2
ISO-25
 70
     0
 41
2.5
 42
0.625
 43
3.75
 44
1.25
 73
     0
 74
     0
 77
     1
 78
     8
140
2.5
141
2.5
143
0.03937007874016
147
0.625
171
     3
172
     1
274
     3
279
     2
284
     8
285
     8
286
     8
340
116
  0
ENDTAB
  0
TABLE
  2
BLOCK_RECORD
  5
106
330
0
100
AcDbSymbolTable
 70
     2
  0
BLOCK_RECORD
  5
127
330
106
100
AcDbSymbolTableRecord
100
AcDbBlockTableRecord
  2
*Model_Space
340
12A
  0
BLOCK_RECORD
  5
123
330
106
100
AcDbSymbolTableRecord
100
AcDbBlockTableRecord
  2
*Paper_Space
340
126
  0
BLOCK_RECORD
  5
130
330
106
100
AcDbSymbolTableRecord
100
AcDbBlockTableRecord
  2
$MODEL_SPACE
340
0
  0
BLOCK_RECORD
  5
132
330
106
100
AcDbSymbolTableRecord
100
AcDbBlockTableRecord
  2
$PAPER_SPACE
340
0
       0
BLOCK_RECORD
       5
2000
     330
106
     100
AcDbSymbolTableRecord
     100
AcDbBlockTableRecord
       2
Part
       0
BLOCK_RECORD
       5
2001
     330
106
     100
AcDbSymbolTableRecord
     100
AcDbBlockTableRecord
       2
Part1747968444
       0
BLOCK_RECORD
       5
2002
     330
106
     100
AcDbSymbolTableRecord
     100
AcDbBlockTableRecord
       2
Part318489587
       0
BLOCK_RECORD
       5
2003
     330
106
     100
AcDbSymbolTableRecord
     100
AcDbBlockTableRecord
       2
Part1738942782
       0
BLOCK_RECORD
       5
2004
     330
106
     100
AcDbSymbolTableRecord
     100
AcDbBlockTableRecord
       2
Part178026223
       0
BLOCK_RECORD
       5
2005
     330
106
     100
AcDbSymbolTableRecord
     100
AcDbBlockTableRecord
       2
Part1424624934
       0
BLOCK_RECORD
       5
2006
     330
106
     100
AcDbSymbolTableRecord
     100
AcDbBlockTableRecord
       2
Part1690364360
       0
BLOCK_RECORD
       5
2007
     330
106
     100
AcDbSymbolTableRecord
     100
AcDbBlockTableRecord
       2
Part1597006230
       0
BLOCK_RECORD
       5
2008
     330
106
     100
AcDbSymbolTableRecord
     100
AcDbBlockTableRecord
       2
Part1307450868
       0
BLOCK_RECORD
       5
2009
     330
106
     100
AcDbSymbolTableRecord
     100
AcDbBlockTableRecord
       2
Part2090246085
       0
BLOCK_RECORD
       5
200A
     330
106
     100
AcDbSymbolTableRecord
     100
AcDbBlockTableRecord
       2
Part700082564
       0
BLOCK_RECORD
       5
200B
     330
106
     100
AcDbSymbolTableRecord
     100
AcDbBlockTableRecord
       2
Part2038402109
       0
BLOCK_RECORD
       5
200C
     330
106
     100
AcDbSymbolTableRecord
     100
AcDbBlockTableRecord
       2
Part709488842
       0
BLOCK_RECORD
       5
200D
     330
106
     100
AcDbSymbolTableRecord
     100
AcDbBlockTableRecord
       2
Part79440734
       0
BLOCK_RECORD
       5
200E
     330
106
     100
AcDbSymbolTableRecord
     100
AcDbBlockTableRecord
       2
Part953076824
       0
BLOCK_RECORD
       5
200F
     330
106
     100
AcDbSymbolTableRecord
     100
AcDbBlockTableRecord
       2
Part386783090
       0
BLOCK_RECORD
       5
2010
     330
106
     100
AcDbSymbolTableRecord
     100
AcDbBlockTableRecord
       2
Part1895945434
       0
BLOCK_RECORD
       5
2011
     330
106
     100
AcDbSymbolTableRecord
     100
AcDbBlockTableRecord
       2
Part698766921
       0
BLOCK_RECORD
       5
2012
     330
106
     100
AcDbSymbolTableRecord
     100
AcDbBlockTableRecord
       2
Part1199781597
       0
BLOCK_RECORD
       5
2013
     330
106
     100
AcDbSymbolTableRecord
     100
AcDbBlockTableRecord
       2
Part1710243644
       0
BLOCK_RECORD
       5
2014
     330
106
     100
AcDbSymbolTableRecord
     100
AcDbBlockTableRecord
       2
Part1804624321
       0
BLOCK_RECORD
       5
2015
     330
106
     100
AcDbSymbolTableRecord
     100
AcDbBlockTableRecord
       2
Part859905715
       0
BLOCK_RECORD
       5
2016
     330
106
     100
AcDbSymbolTableRecord
     100
AcDbBlockTableRecord
       2
Part907485242
       0
BLOCK_RECORD
       5
2017
     330
106
     100
AcDbSymbolTableRecord
     100
AcDbBlockTableRecord
       2
Part104379096
       0
BLOCK_RECORD
       5
2018
     330
106
     100
AcDbSymbolTableRecord
     100
AcDbBlockTableRecord
       2
Part747724658
       0
BLOCK_RECORD
       5
2019
     330
106
     100
AcDbSymbolTableRecord
     100
AcDbBlockTableRecord
       2
Part434246320
       0
BLOCK_RECORD
       5
201A
     330
106
     100
AcDbSymbolTableRecord
     100
AcDbBlockTableRecord
       2
Part1077194800
       0
BLOCK_RECORD
       5
201B
     330
106
     100
AcDbSymbolTableRecord
     100
AcDbBlockTableRecord
       2
Part2037184247
  0
ENDTAB
  0
ENDSEC
  0
SECTION
  2
BLOCKS
  0
BLOCK
  5
128
330
127
100
AcDbEntity
  8
0
100
AcDbBlockBegin
  2
*Model_Space
 70
     0
 10
0.0
 20
0.0
 30
0.0
  3
*Model_Space
  1

  0
ENDBLK
  5
129
330
127
100
AcDbEntity
  8
0
100
AcDbBlockEnd
  0
BLOCK
  5
124
330
123
100
AcDbEntity
 67
     1
  8
0
100
AcDbBlockBegin
  2
*Paper_Space
 70
     0
 10
0.0
 20
0.0
 30
0.0
  3
*Paper_Space
  1

  0
ENDBLK
  5
125
330
123
100
AcDbEntity
 67
     1
  8
0
100
AcDbBlockEnd
  0
BLOCK
  5
131
330
130
100
AcDbEntity
  8
0
100
AcDbBlockBegin
  2
$MODEL_SPACE
 70
     0
 10
0.0
 20
0.0
 30
0.0
  3
$MODEL_SPACE
  1

  0
ENDBLK
  5
21
330
130
100
AcDbEntity
  8
0
100
AcDbBlockEnd
  0
BLOCK
  5
133
330
132
100
AcDbEntity
  8
0
100
AcDbBlockBegin
  2
$PAPER_SPACE
 70
     0
 10
0.0
 20
0.0
 30
0.0
  3
$PAPER_SPACE
  1

  0
ENDBLK
  5
D5
330
132
100
AcDbEntity
  8
0
100
AcDbBlockEnd
       0
BLOCK
       5
201C
     330
2000
     100
AcDbEntity
       8
0
     100
AcDbBlockBegin
       2
Part
      70
0
      10
-4.31654712E-13
      20
-423.688767
      30
0
       3
Part
       1

       4
CypCutBlock
       0
SPLINE
       5
201D
     100
AcDbEntity
       8
1
     100
AcDbSpline
      70
0
      71
3
      72
36
      73
32
      74
0
      40
0
      40
0
      40
0
      40
0
      40
0.125
      40
0.125
      40
0.125
      40
0.125
      40
0.25
      40
0.25
      40
0.25
      40
0.25
      40
0.375
      40
0.375
      40
0.375
      40
0.375
      40
0.5
      40
0.5
      40
0.5
      40
0.5
      40
0.625
      40
0.625
      40
0.625
      40
0.625
      40
0.75
      40
0.75
      40
0.75
      40
0.75
      40
0.875
      40
0.875
      40
0.875
      40
0.875
      40
1
      40
1
      40
1
      40
1
      10
209.500990080114
      20
-344.139667525344
      30
0
      10
210.241096464144
      20
-344.136353035906
      30
0
      10
210.974457265438
      20
-344.449076537666
      30
0
      10
211.488253811788
      20
-344.980989591823
      30
0
      10
211.488253811788
      20
-344.980989591823
      30
0
      10
212.023885466391
      20
-345.524600187064
      30
0
      10
212.321263254086
      20
-346.291038187503
      30
0
      10
212.299157177549
      20
-347.053269214874
      30
0
      10
212.299157177549
      20
-347.053269214874
      30
0
      10
212.284386971546
      20
-347.792353403628
      30
0
      10
211.970117489569
      20
-348.521420234255
      30
0
      10
211.437810110072
      20
-349.035395379309
      30
0
      10
211.437810110072
      20
-349.035395379309
      30
0
      10
210.927127071225
      20
-349.537501985415
      30
0
      10
210.215796893305
      20
-349.830066245429
      30
0
      10
209.498991397108
      20
-349.826316909106
      30
0
      10
209.498991397108
      20
-349.826316909106
      30
0
      10
208.758867143109
      20
-349.829854367743
      30
0
      10
208.025567376357
      20
-349.516785861067
      30
0
      10
207.511751064002
      20
-348.984993606704
      30
0
      10
207.511751064002
      20
-348.984993606704
      30
0
      10
206.976103446196
      20
-348.441383670775
      30
0
      10
206.678776474196
      20
-347.674938666804
      30
0
      10
206.700838173071
      20
-346.912712041057
      30
0
      10
206.700838173071
      20
-346.912712041057
      30
0
      10
206.715676658966
      20
-346.173645963424
      30
0
      10
207.029811543095
      20
-345.444521993863
      30
0
      10
207.562191693734
      20
-344.930590724349
      30
0
      10
207.562191693734
      20
-344.930590724349
      30
0
      10
208.072929418854
      20
-344.42865817758
      30
0
      10
208.784145678992
      20
-344.135645866335
      30
0
      10
209.500990080114
      20
-344.139667525344
      30
0
    1001
FS_CYPCUT
    1000
Channel
    1070
1
    1000
LeadIn
    1002
{
    1070
3
    1040
5.49999999999999
    1040
1.5707963267949
    1040
2
    1040
1
    1070
0
    1040
0.5
    1070
0
    1002
}
    1000
LeadOut
    1002
{
    1070
0
    1040
0
    1040
0
    1040
0
    1070
0
    1002
}
    1000
IsFill
    1070
0
    1000
PathStart
    1040
5.49999999999999
    1000
ToolCompensation
    1002
{
    1070
0
    1040
0
    1070
0
    1002
}
       0
SPLINE
       5
201E
     100
AcDbEntity
       8
1
     100
AcDbSpline
      70
0
      71
3
      72
36
      73
32
      74
0
      40
0
      40
0
      40
0
      40
0
      40
0.125
      40
0.125
      40
0.125
      40
0.125
      40
0.25
      40
0.25
      40
0.25
      40
0.25
      40
0.375
      40
0.375
      40
0.375
      40
0.375
      40
0.5
      40
0.5
      40
0.5
      40
0.5
      40
0.625
      40
0.625
      40
0.625
      40
0.625
      40
0.75
      40
0.75
      40
0.75
      40
0.75
      40
0.875
      40
0.875
      40
0.875
      40
0.875
      40
1
      40
1
      40
1
      40
1
      10
209.500990080114
      20
-276.570363635935
      30
0
      10
210.241096464148
      20
-276.567049146488
      30
0
      10
210.974457265431
      20
-276.879772648268
      30
0
      10
211.488253811789
      20
-277.411685702415
      30
0
      10
211.488253811789
      20
-277.411685702415
      30
0
      10
212.023885466391
      20
-277.955296297654
      30
0
      10
212.321263254088
      20
-278.721734298097
      30
0
      10
212.299157177549
      20
-279.483965325465
      30
0
      10
212.299157177549
      20
-279.483965325465
      30
0
      10
212.284386971523
      20
-280.223049514209
      30
0
      10
211.970117489599
      20
-280.952116344865
      30
0
      10
211.437810110072
      20
-281.466091489899
      30
0
      10
211.437810110072
      20
-281.466091489899
      30
0
      10
210.927127071228
      20
-281.968198096006
      30
0
      10
210.215796893306
      20
-282.260762356024
      30
0
      10
209.49899139711
      20
-282.257013019698
      30
0
      10
209.49899139711
      20
-282.257013019698
      30
0
      10
208.75886714311
      20
-282.26055047832
      30
0
      10
208.025567376361
      20
-281.94748197166
      30
0
      10
207.511751064002
      20
-281.415689717295
      30
0
      10
207.511751064002
      20
-281.415689717295
      30
0
      10
206.976103446193
      20
-280.87207978137
      30
0
      10
206.678776474195
      20
-280.105634777393
      30
0
      10
206.700838173071
      20
-279.343408151648
      30
0
      10
206.700838173071
      20
-279.343408151648
      30
0
      10
206.71567665897
      20
-278.604342074014
      30
0
      10
207.029811543095
      20
-277.875218104456
      30
0
      10
207.562191693734
      20
-277.361286834939
      30
0
      10
207.562191693734
      20
-277.361286834939
      30
0
      10
208.072929418847
      20
-276.859354288162
      30
0
      10
208.784145678996
      20
-276.566341976934
      30
0
      10
209.500990080114
      20
-276.570363635935
      30
0
    1001
FS_CYPCUT
    1000
Channel
    1070
1
    1000
LeadIn
    1002
{
    1070
3
    1040
5.50000000000002
    1040
1.5707963267949
    1040
2
    1040
1
    1070
0
    1040
0.5
    1070
0
    1002
}
    1000
LeadOut
    1002
{
    1070
0
    1040
0
    1040
0
    1040
0
    1070
0
    1002
}
    1000
IsFill
    1070
0
    1000
PathStart
    1040
5.50000000000002
    1000
ToolCompensation
    1002
{
    1070
0
    1040
0
    1070
0
    1002
}
       0
SPLINE
       5
201F
     100
AcDbEntity
       8
1
     100
AcDbSpline
      70
0
      71
3
      72
36
      73
32
      74
0
      40
0
      40
0
      40
0
      40
0
      40
0.125
      40
0.125
      40
0.125
      40
0.125
      40
0.25
      40
0.25
      40
0.25
      40
0.25
      40
0.375
      40
0.375
      40
0.375
      40
0.375
      40
0.5
      40
0.5
      40
0.5
      40
0.5
      40
0.625
      40
0.625
      40
0.625
      40
0.625
      40
0.75
      40
0.75
      40
0.75
      40
0.75
      40
0.875
      40
0.875
      40
0.875
      40
0.875
      40
1
      40
1
      40
1
      40
1
      10
209.500990080114
      20
-209.001059746526
      30
0
      10
210.241096509458
      20
-208.997745258142
      30
0
      10
210.974457346393
      20
-209.310468797365
      30
0
      10
211.488253902822
      20
-209.84238190645
      30
0
      10
211.488253902822
      20
-209.84238190645
      30
0
      10
212.023885576497
      20
-210.385992534428
      30
0
      10
212.321263286446
      20
-211.152430682466
      30
0
      10
212.299157184533
      20
-211.914661656801
      30
0
      10
212.299157184533
      20
-211.914661656801
      30
0
      10
212.28438935148
      20
-212.653742749721
      30
0
      10
211.970114731607
      20
-213.382811739589
      30
0
      10
211.437810794419
      20
-213.896789249412
      30
0
      10
211.437810794419
      20
-213.896789249412
      30
0
      10
210.927141818216
      20
-214.398933667883
      30
0
      10
210.215789306498
      20
-214.691423655064
      30
0
      10
209.498992549958
      20
-214.687709411429
      30
0
      10
209.498992549958
      20
-214.687709411429
      30
0
      10
208.758869132065
      20
-214.691240354675
      30
0
      10
208.025566625298
      20
-214.378181833613
      30
0
      10
207.511751339374
      20
-213.846386109293
      30
0
      10
207.511751339374
      20
-213.846386109293
      30
0
      10
206.976103630313
      20
-213.302776211882
      30
0
      10
206.678776521579
      20
-212.536331183468
      30
0
      10
206.700838169194
      20
-211.774104518732
      30
0
      10
206.700838169194
      20
-211.774104518732
      30
0
      10
206.715676589149
      20
-211.035038388928
      30
0
      10
207.029811433403
      20
-210.305914362452
      30
0
      10
207.562191611903
      20
-209.791983028815
      30
0
      10
207.562191611903
      20
-209.791983028815
      30
0
      10
208.072930198786
      20
-209.290049882338
      30
0
      10
208.78414533121
      20
-208.997038317546
      30
0
      10
209.500990080114
      20
-209.001059746526
      30
0
    1001
FS_CYPCUT
    1000
Channel
    1070
1
    1000
LeadIn
    1002
{
    1070
3
    1040
5.5
    1040
1.5707963267949
    1040
2
    1040
1
    1070
0
    1040
0.5
    1070
0
    1002
}
    1000
LeadOut
    1002
{
    1070
0
    1040
0
    1040
0
    1040
0
    1070
0
    1002
}
    1000
IsFill
    1070
0
    1000
PathStart
    1040
5.5
    1000
ToolCompensation
    1002
{
    1070
0
    1040
0
    1070
0
    1002
}
       0
SPLINE
       5
2020
     100
AcDbEntity
       8
1
     100
AcDbSpline
      70
0
      71
3
      72
36
      73
32
      74
0
      40
0
      40
0
      40
0
      40
0
      40
0.125
      40
0.125
      40
0.125
      40
0.125
      40
0.25
      40
0.25
      40
0.25
      40
0.25
      40
0.375
      40
0.375
      40
0.375
      40
0.375
      40
0.5
      40
0.5
      40
0.5
      40
0.5
      40
0.625
      40
0.625
      40
0.625
      40
0.625
      40
0.75
      40
0.75
      40
0.75
      40
0.75
      40
0.875
      40
0.875
      40
0.875
      40
0.875
      40
1
      40
1
      40
1
      40
1
      10
209.500990080114
      20
-141.431755857118
      30
0
      10
210.241096464151
      20
-141.428441367667
      30
0
      10
210.974457265427
      20
-141.741164869457
      30
0
      10
211.488253811789
      20
-142.273077923598
      30
0
      10
211.488253811789
      20
-142.273077923598
      30
0
      10
212.023885466407
      20
-142.816688518828
      30
0
      10
212.321263254069
      20
-143.583126519285
      30
0
      10
212.29915717755
      20
-144.345357546649
      30
0
      10
212.29915717755
      20
-144.345357546649
      30
0
      10
212.284386971542
      20
-145.0844417354
      30
0
      10
211.970117489577
      20
-145.813508566035
      30
0
      10
211.437810110072
      20
-146.327483711084
      30
0
      10
211.437810110072
      20
-146.327483711084
      30
0
      10
210.927127071229
      20
-146.829590317195
      30
0
      10
210.215796893303
      20
-147.122154577198
      30
0
      10
209.498991397108
      20
-147.118405240881
      30
0
      10
209.498991397108
      20
-147.118405240881
      30
0
      10
208.758867143107
      20
-147.121942699509
      30
0
      10
208.025567376361
      20
-146.80887419284
      30
0
      10
207.511751064001
      20
-146.277081938477
      30
0
      10
207.511751064001
      20
-146.277081938477
      30
0
      10
206.976103446182
      20
-145.733472002559
      30
0
      10
206.678776474203
      20
-144.967026998572
      30
0
      10
206.700838173072
      20
-144.204800372831
      30
0
      10
206.700838173072
      20
-144.204800372831
      30
0
      10
206.715676658982
      20
-143.465734295203
      30
0
      10
207.029811543078
      20
-142.736610325628
      30
0
      10
207.562191693734
      20
-142.222679056123
      30
0
      10
207.562191693734
      20
-142.222679056123
      30
0
      10
208.072929418858
      20
-141.720746509363
      30
0
      10
208.784145678989
      20
-141.427734198099
      30
0
      10
209.500990080114
      20
-141.431755857118
      30
0
    1001
FS_CYPCUT
    1000
Channel
    1070
1
    1000
LeadIn
    1002
{
    1070
3
    1040
5.5
    1040
1.5707963267949
    1040
2
    1040
1
    1070
0
    1040
0.5
    1070
0
    1002
}
    1000
LeadOut
    1002
{
    1070
0
    1040
0
    1040
0
    1040
0
    1070
0
    1002
}
    1000
IsFill
    1070
0
    1000
PathStart
    1040
5.5
    1000
ToolCompensation
    1002
{
    1070
0
    1040
0
    1070
0
    1002
}
       0
SPLINE
       5
2021
     100
AcDbEntity
       8
1
     100
AcDbSpline
      70
0
      71
3
      72
36
      73
32
      74
0
      40
0
      40
0
      40
0
      40
0
      40
0.125
      40
0.125
      40
0.125
      40
0.125
      40
0.25
      40
0.25
      40
0.25
      40
0.25
      40
0.375
      40
0.375
      40
0.375
      40
0.375
      40
0.5
      40
0.5
      40
0.5
      40
0.5
      40
0.625
      40
0.625
      40
0.625
      40
0.625
      40
0.75
      40
0.75
      40
0.75
      40
0.75
      40
0.875
      40
0.875
      40
0.875
      40
0.875
      40
1
      40
1
      40
1
      40
1
      10
209.500990080114
      20
-73.8624519677093
      30
0
      10
210.241096464145
      20
-73.8591374782714
      30
0
      10
210.974457265437
      20
-74.1718609800327
      30
0
      10
211.488253811789
      20
-74.7037740341889
      30
0
      10
211.488253811789
      20
-74.7037740341889
      30
0
      10
212.023885466391
      20
-75.2473846294269
      30
0
      10
212.321263254088
      20
-76.0138226298706
      30
0
      10
212.299157177549
      20
-76.7760536572389
      30
0
      10
212.299157177549
      20
-76.7760536572389
      30
0
      10
212.284386971528
      20
-77.5151378459873
      30
0
      10
211.970117489588
      20
-78.2442046766317
      30
0
      10
211.437810110072
      20
-78.7581798216745
      30
0
      10
211.437810110072
      20
-78.7581798216745
      30
0
      10
210.927127071222
      20
-79.2602864277712
      30
0
      10
210.215796893308
      20
-79.552850687811
      30
0
      10
209.498991397109
      20
-79.549101351472
      30
0
      10
209.498991397109
      20
-79.549101351472
      30
0
      10
208.758867143113
      20
-79.552638810089
      30
0
      10
208.025567376353
      20
-79.2395703034447
      30
0
      10
207.511751064002
      20
-78.7077780490698
      30
0
      10
207.511751064002
      20
-78.7077780490698
      30
0
      10
206.976103446206
      20
-78.1641681131341
      30
0
      10
206.678776474186
      20
-77.3977231091726
      30
0
      10
206.700838173071
      20
-76.6354964834221
      30
0
      10
206.700838173071
      20
-76.6354964834221
      30
0
      10
206.715676658984
      20
-75.8964304057985
      30
0
      10
207.029811543066
      20
-75.1673064362101
      30
0
      10
207.562191693734
      20
-74.6533751667171
      30
0
      10
207.562191693734
      20
-74.6533751667171
      30
0
      10
208.072929418859
      20
-74.1514426199528
      30
0
      10
208.784145678989
      20
-73.8584303087
      30
0
      10
209.500990080114
      20
-73.8624519677093
      30
0
    1001
FS_CYPCUT
    1000
Channel
    1070
1
    1000
LeadIn
    1002
{
    1070
3
    1040
5.5
    1040
1.5707963267949
    1040
2
    1040
1
    1070
0
    1040
0.5
    1070
0
    1002
}
    1000
LeadOut
    1002
{
    1070
0
    1040
0
    1040
0
    1040
0
    1070
0
    1002
}
    1000
IsFill
    1070
0
    1000
PathStart
    1040
5.5
    1000
ToolCompensation
    1002
{
    1070
0
    1040
0
    1070
0
    1002
}
       0
LWPOLYLINE
       5
2022
     100
AcDbEntity
       8
1
     100
AcDbPolyline
      90
36
      70
1
      10
240
      20
-35
      42
0
      10
240
      20
-388.6887672131
      42
-0.414213562373097
      10
230
      20
-398.6887672131
      42
0
      10
150
      20
-398.6887672131
      42
0.414213562373093
      10
145
      20
-403.6887672131
      42
0
      10
145
      20
-413.6887672131
      42
-0.414213562373098
      10
135
      20
-423.6887672131
      42
0
      10
129
      20
-423.6887672131
      42
-0.414213562373098
      10
126
      20
-420.6887672131
      42
0
      10
126
      20
-398.6887672131
      42
1.00000000000001
      10
114
      20
-398.6887672131
      42
0
      10
114
      20
-420.6887672131
      42
-0.414213562373081
      10
111
      20
-423.6887672131
      42
0
      10
105
      20
-423.6887672131
      42
-0.414213562373091
      10
95
      20
-413.6887672131
      42
0
      10
95
      20
-403.6887672131
      42
0.414213562373099
      10
90
      20
-398.6887672131
      42
0
      10
10
      20
-398.6887672131
      42
-0.414213562373095
      10
-4.10338429901458E-13
      20
-388.6887672131
      42
0
      10
1.15463194561016E-13
      20
-35
      42
-0.414213562373095
      10
10
      20
-25.0000000000001
      42
0
      10
90
      20
-25.0000000000001
      42
0.414213562373094
      10
95.0000000000001
      20
-20
      42
0
      10
95.0000000000001
      20
-10
      42
-0.414213562373095
      10
105
      20
0
      42
0
      10
111
      20
0
      42
-0.414213562373095
      10
114
      20
-3
      42
0
      10
114
      20
-25
      42
1
      10
126
      20
-25
      42
0
      10
126
      20
-3
      42
-0.414213562373094
      10
129
      20
0
      42
0
      10
135
      20
1.20792265079217E-13
      42
-0.414213562373097
      10
145
      20
-10
      42
0
      10
145
      20
-20
      42
0.414213562373106
      10
150
      20
-25.0000000000001
      42
0
      10
230
      20
-24.9999999999997
      42
-0.414213562373094
    1001
FS_CYPCUT
    1000
Channel
    1070
1
    1000
LeadIn
    1002
{
    1070
3
    1040
0.5
    1040
1.5707963267949
    1040
2
    1040
1
    1070
0
    1040
0.5
    1070
0
    1002
}
    1000
LeadOut
    1002
{
    1070
0
    1040
0
    1040
0
    1040
0
    1070
0
    1002
}
    1000
IsFill
    1070
1
    1000
PathStart
    1040
0.5
    1000
ToolCompensation
    1002
{
    1070
0
    1040
0
    1070
0
    1002
}
    1000
MicroConnect
    1002
{
    1070
4
    1040
0.476735284
    1041
0.8
    1042
0
    1040
9.5
    1041
0.8
    1042
0
    1040
18.4990261
    1041
0.8
    1042
0
    1040
27.5
    1041
0.8
    1042
0
    1002
}
       0
ENDBLK
       5
2023
     330
2000
     100
AcDbEntity
       8
0
     100
AcDbBlockEnd
       0
BLOCK
       5
2024
     330
2001
     100
AcDbEntity
       8
0
     100
AcDbBlockBegin
       2
Part1747968444
      70
0
      10
-52.5
      20
-52.5
      30
0
       3
Part1747968444
       1

       4
CypCutBlock
       0
CIRCLE
       5
2025
     100
AcDbEntity
       8
1
     100
AcDbCircle
      10
-36.8060796608
      20
-21.25
      30
0
      40
4.2
    1001
FS_CYPCUT
    1000
Channel
    1070
1
    1000
LeadIn
    1002
{
    1070
0
    1040
0
    1040
0
    1040
0
    1040
0
    1070
0
    1040
0
    1070
0
    1002
}
    1000
LeadOut
    1002
{
    1070
0
    1040
0
    1040
0
    1040
0
    1070
0
    1002
}
    1000
IsFill
    1070
0
    1000
PathStart
    1040
0
    1000
ToolCompensation
    1002
{
    1070
0
    1040
0
    1070
0
    1002
}
       0
CIRCLE
       5
2026
     100
AcDbEntity
       8
1
     100
AcDbCircle
      10
0
      20
0
      30
0
      40
26
    1001
FS_CYPCUT
    1000
Channel
    1070
1
    1000
LeadIn
    1002
{
    1070
0
    1040
0
    1040
0
    1040
0
    1040
0
    1070
0
    1040
0
    1070
0
    1002
}
    1000
LeadOut
    1002
{
    1070
0
    1040
0
    1040
0
    1040
0
    1070
0
    1002
}
    1000
IsFill
    1070
1
    1000
PathStart
    1040
0
    1000
ToolCompensation
    1002
{
    1070
0
    1040
0
    1070
0
    1002
}
    1000
MicroConnect
    1002
{
    1070
1
    1040
0.265378327
    1041
0.8
    1042
0
    1002
}
       0
CIRCLE
       5
2027
     100
AcDbEntity
       8
2
     100
AcDbCircle
      10
0
      20
0
      30
0
      40
31
    1001
FS_CYPCUT
    1000
Channel
    1070
2
    1000
LeadIn
    1002
{
    1070
0
    1040
0
    1040
0
    1040
0
    1040
0
    1070
0
    1040
0
    1070
0
    1002
}
    1000
LeadOut
    1002
{
    1070
0
    1040
0
    1040
0
    1040
0
    1070
0
    1002
}
    1000
IsFill
    1070
0
    1000
PathStart
    1040
0
    1000
ToolCompensation
    1002
{
    1070
0
    1040
0
    1070
0
    1002
}
       0
CIRCLE
       5
2028
     100
AcDbEntity
       8
1
     100
AcDbCircle
      10
0
      20
42.5
      30
0
      40
4.2
    1001
FS_CYPCUT
    1000
Channel
    1070
1
    1000
LeadIn
    1002
{
    1070
0
    1040
0
    1040
0
    1040
0
    1040
0
    1070
0
    1040
0
    1070
0
    1002
}
    1000
LeadOut
    1002
{
    1070
0
    1040
0
    1040
0
    1040
0
    1070
0
    1002
}
    1000
IsFill
    1070
0
    1000
PathStart
    1040
0
    1000
ToolCompensation
    1002
{
    1070
0
    1040
0
    1070
0
    1002
}
       0
CIRCLE
       5
2029
     100
AcDbEntity
       8
1
     100
AcDbCircle
      10
36.8060796608
      20
-21.25
      30
0
      40
4.2
    1001
FS_CYPCUT
    1000
Channel
    1070
1
    1000
LeadIn
    1002
{
    1070
0
    1040
0
    1040
0
    1040
0
    1040
0
    1070
0
    1040
0
    1070
0
    1002
}
    1000
LeadOut
    1002
{
    1070
0
    1040
0
    1040
0
    1040
0
    1070
0
    1002
}
    1000
IsFill
    1070
0
    1000
PathStart
    1040
0
    1000
ToolCompensation
    1002
{
    1070
0
    1040
0
    1070
0
    1002
}
       0
CIRCLE
       5
202A
     100
AcDbEntity
       8
1
     100
AcDbCircle
      10
0
      20
0
      30
0
      40
52.5
    1001
FS_CYPCUT
    1000
Channel
    1070
1
    1000
LeadIn
    1002
{
    1070
0
    1040
0
    1040
0
    1040
0
    1040
0
    1070
0
    1040
0
    1070
0
    1002
}
    1000
LeadOut
    1002
{
    1070
0
    1040
0
    1040
0
    1040
0
    1070
0
    1002
}
    1000
IsFill
    1070
1
    1000
PathStart
    1040
0
    1000
ToolCompensation
    1002
{
    1070
0
    1040
0
    1070
0
    1002
}
    1000
MicroConnect
    1002
{
    1070
2
    1040
0.26733588
    1041
0.8
    1042
0
    1040
0.754725985
    1041
0.8
    1042
0
    1002
}
       0
ENDBLK
       5
202B
     330
2001
     100
AcDbEntity
       8
0
     100
AcDbBlockEnd
       0
BLOCK
       5
202C
     330
2002
     100
AcDbEntity
       8
0
     100
AcDbBlockBegin
       2
Part318489587
      70
0
      10
0
      20
-6
      30
0
       3
Part318489587
       1

       4
CypCutBlock
       0
LWPOLYLINE
       5
202D
     100
AcDbEntity
       8
1
     100
AcDbPolyline
      90
6
      70
1
      10
84
      20
70.125
      42
0.693000468164478
      10
82.2465753425
      20
70.7825342466
      42
0
      10
41.1193026151661
      20
23.6575342465758
      42
0.643913270326977
      10
41.8727272727
      20
22
      42
0
      10
83
      20
22
      42
0.414213562373103
      10
84
      20
23
      42
0
    1001
FS_CYPCUT
    1000
Channel
    1070
1
    1000
LeadIn
    1002
{
    1070
3
    1040
1.5
    1040
1.5707963267949
    1040
0.5
    1040
0.5
    1070
0
    1040
0.5
    1070
0
    1002
}
    1000
LeadOut
    1002
{
    1070
0
    1040
0
    1040
0
    1040
0
    1070
0
    1002
}
    1000
IsFill
    1070
0
    1000
PathStart
    1040
1.5
    1000
ToolCompensation
    1002
{
    1070
0
    1040
0
    1070
0
    1002
}
    1000
MicroConnect
    1002
{
    1070
1
    1040
1.48880481
    1041
0.5
    1042
0
    1002
}
       0
LWPOLYLINE
       5
202E
     100
AcDbEntity
       8
1
     100
AcDbPolyline
      90
14
      70
1
      10
106
      20
119
      42
0.414213562373103
      10
105
      20
120
      42
0
      10
96.4545454545
      20
120
      42
0.216609194718751
      10
95.7011207969662
      20
119.657534246576
      42
0
      10
0.2465753425
      20
10.2825342466
      42
0.181334581772657
      10
0
      20
9.625
      42
0
      10
0
      20
1
      42
0.414213562373095
      10
1
      20
0
      42
0
      10
41
      20
0
      42
0
      10
41
      20
-6
      42
0
      10
59
      20
-6
      42
0
      10
59
      20
0
      42
0
      10
105
      20
0
      42
0.414213562373106
      10
106
      20
1
      42
0
    1001
FS_CYPCUT
    1000
Channel
    1070
1
    1000
LeadIn
    1002
{
    1070
3
    1040
3.50344422700587
    1040
1.5707963267949
    1040
0.5
    1040
0.5
    1070
0
    1040
0.5
    1070
0
    1002
}
    1000
LeadOut
    1002
{
    1070
0
    1040
0
    1040
0
    1040
0
    1070
0
    1002
}
    1000
IsFill
    1070
1
    1000
PathStart
    1040
3.5
    1000
ToolCompensation
    1002
{
    1070
0
    1040
0
    1070
0
    1002
}
    1000
MicroConnect
    1002
{
    1070
2
    1040
3.5
    1041
0.5
    1042
0
    1040
11.8093319
    1041
0.5
    1042
0
    1002
}
       0
ENDBLK
       5
202F
     330
2002
     100
AcDbEntity
       8
0
     100
AcDbBlockEnd
       0
BLOCK
       5
2030
     330
2003
     100
AcDbEntity
       8
0
     100
AcDbBlockBegin
       2
Part1738942782
      70
0
      10
-25.5
      20
-25.5
      30
0
       3
Part1738942782
       1

       4
CypCutBlock
       0
CIRCLE
       5
2031
     100
AcDbEntity
       8
1
     100
AcDbCircle
      10
0
      20
0
      30
0
      40
17.5
    1001
FS_CYPCUT
    1000
Channel
    1070
1
    1000
LeadIn
    1002
{
    1070
3
    1040
0.0025589425413437
    1040
0.785398163397448
    1040
1
    1040
1
    1070
0
    1040
0.5
    1070
0
    1002
}
    1000
LeadOut
    1002
{
    1070
0
    1040
0
    1040
0
    1040
0
    1070
0
    1002
}
    1000
IsFill
    1070
0
    1000
PathStart
    1040
0
    1000
ToolCompensation
    1002
{
    1070
0
    1040
0
    1070
0
    1002
}
    1000
MicroConnect
    1002
{
    1070
2
    1040
0.498305327
    1041
0.8
    1042
0
    1040
0.995283288
    1041
0.8
    1042
0
    1002
}
       0
CIRCLE
       5
2032
     100
AcDbEntity
       8
1
     100
AcDbCircle
      10
0
      20
0
      30
0
      40
25.5
    1001
FS_CYPCUT
    1000
Channel
    1070
1
    1000
LeadIn
    1002
{
    1070
3
    1040
0.00166883325386347
    1040
0.785398163397448
    1040
1
    1040
1
    1070
0
    1040
0.5
    1070
0
    1002
}
    1000
LeadOut
    1002
{
    1070
0
    1040
0
    1040
0
    1040
0
    1070
0
    1002
}
    1000
IsFill
    1070
1
    1000
PathStart
    1040
0
    1000
ToolCompensation
    1002
{
    1070
0
    1040
0
    1070
0
    1002
}
    1000
MicroConnect
    1002
{
    1070
2
    1040
0.497703875
    1041
0.8
    1042
0
    1040
0.996675737
    1041
0.8
    1042
0
    1002
}
       0
ENDBLK
       5
2033
     330
2003
     100
AcDbEntity
       8
0
     100
AcDbBlockEnd
       0
BLOCK
       5
2034
     330
2004
     100
AcDbEntity
       8
0
     100
AcDbBlockBegin
       2
Part178026223
      70
0
      10
0
      20
-6
      30
0
       3
Part178026223
       1

       4
CypCutBlock
       0
LWPOLYLINE
       5
2035
     100
AcDbEntity
       8
1
     100
AcDbPolyline
      90
6
      70
1
      10
84
      20
70.125
      42
0.693000468164478
      10
82.2465753425
      20
70.7825342466
      42
0
      10
41.1193026151661
      20
23.6575342465758
      42
0.643913270326977
      10
41.8727272727
      20
22
      42
0
      10
83
      20
22
      42
0.414213562373103
      10
84
      20
23
      42
0
    1001
FS_CYPCUT
    1000
Channel
    1070
1
    1000
LeadIn
    1002
{
    1070
3
    1040
1.5
    1040
1.5707963267949
    1040
0.5
    1040
0.5
    1070
0
    1040
0.5
    1070
0
    1002
}
    1000
LeadOut
    1002
{
    1070
0
    1040
0
    1040
0
    1040
0
    1070
0
    1002
}
    1000
IsFill
    1070
0
    1000
PathStart
    1040
1.5
    1000
ToolCompensation
    1002
{
    1070
0
    1040
0
    1070
0
    1002
}
    1000
MicroConnect
    1002
{
    1070
1
    1040
1.48880481
    1041
0.5
    1042
0
    1002
}
       0
LWPOLYLINE
       5
2036
     100
AcDbEntity
       8
1
     100
AcDbPolyline
      90
14
      70
1
      10
106
      20
119
      42
0.414213562373103
      10
105
      20
120
      42
0
      10
96.4545454545
      20
120
      42
0.216609194718751
      10
95.7011207969662
      20
119.657534246576
      42
0
      10
0.2465753425
      20
10.2825342466
      42
0.181334581772657
      10
0
      20
9.625
      42
0
      10
0
      20
1
      42
0.414213562373095
      10
1
      20
0
      42
0
      10
41
      20
0
      42
0
      10
41
      20
-6
      42
0
      10
59
      20
-6
      42
0
      10
59
      20
0
      42
0
      10
105
      20
0
      42
0.414213562373106
      10
106
      20
1
      42
0
    1001
FS_CYPCUT
    1000
Channel
    1070
1
    1000
LeadIn
    1002
{
    1070
3
    1040
3.50344422700587
    1040
1.5707963267949
    1040
0.5
    1040
0.5
    1070
0
    1040
0.5
    1070
0
    1002
}
    1000
LeadOut
    1002
{
    1070
0
    1040
0
    1040
0
    1040
0
    1070
0
    1002
}
    1000
IsFill
    1070
1
    1000
PathStart
    1040
3.5
    1000
ToolCompensation
    1002
{
    1070
0
    1040
0
    1070
0
    1002
}
    1000
MicroConnect
    1002
{
    1070
2
    1040
3.5
    1041
0.5
    1042
0
    1040
11.8093319
    1041
0.5
    1042
0
    1002
}
       0
ENDBLK
       5
2037
     330
2004
     100
AcDbEntity
       8
0
     100
AcDbBlockEnd
       0
BLOCK
       5
2038
     330
2005
     100
AcDbEntity
       8
0
     100
AcDbBlockBegin
       2
Part1424624934
      70
0
      10
-140
      20
-35
      30
0
       3
Part1424624934
       1

       4
CypCutBlock
       0
CIRCLE
       5
2039
     100
AcDbEntity
       8
1
     100
AcDbCircle
      10
-132.75
      20
-11.5
      30
0
      40
2.64999999999998
    1001
FS_CYPCUT
    1000
Channel
    1070
1
    1000
LeadIn
    1002
{
    1070
3
    1040
5.82867087928207E-16
    1040
1.5707963267949
    1040
0.5
    1040
0.3
    1070
0
    1040
0.5
    1070
0
    1002
}
    1000
LeadOut
    1002
{
    1070
0
    1040
0
    1040
0
    1040
0
    1070
0
    1002
}
    1000
IsFill
    1070
0
    1000
PathStart
    1040
5.82867087928207E-16
    1000
ToolCompensation
    1002
{
    1070
0
    1040
0
    1070
0
    1002
}
       0
CIRCLE
       5
203A
     100
AcDbEntity
       8
1
     100
AcDbCircle
      10
-132.75
      20
11.5
      30
0
      40
2.64999999999998
    1001
FS_CYPCUT
    1000
Channel
    1070
1
    1000
LeadIn
    1002
{
    1070
3
    1040
5.82867087928207E-16
    1040
1.5707963267949
    1040
0.5
    1040
0.3
    1070
0
    1040
0.5
    1070
0
    1002
}
    1000
LeadOut
    1002
{
    1070
0
    1040
0
    1040
0
    1040
0
    1070
0
    1002
}
    1000
IsFill
    1070
0
    1000
PathStart
    1040
5.82867087928207E-16
    1000
ToolCompensation
    1002
{
    1070
0
    1040
0
    1070
0
    1002
}
       0
LWPOLYLINE
       5
203B
     100
AcDbEntity
       8
1
     100
AcDbPolyline
      90
8
      70
1
      10
-60.5
      20
4
      42
0
      10
-60.5
      20
-4
      42
-0.414213562373093
      10
-62.5
      20
-6
      42
0
      10
-118.5
      20
-6.00000000000003
      42
-0.414213562373098
      10
-120.5
      20
-4
      42
0
      10
-120.5
      20
4
      42
-0.414213562373098
      10
-118.5
      20
6.00000000000003
      42
0
      10
-62.5
      20
6
      42
-0.414213562373093
    1001
FS_CYPCUT
    1000
Channel
    1070
1
    1000
LeadIn
    1002
{
    1070
3
    1040
2.5
    1040
1.5707963267949
    1040
0.5
    1040
0.3
    1070
0
    1040
0.5
    1070
0
    1002
}
    1000
LeadOut
    1002
{
    1070
0
    1040
0
    1040
0
    1040
0
    1070
0
    1002
}
    1000
IsFill
    1070
0
    1000
PathStart
    1040
2.5
    1000
ToolCompensation
    1002
{
    1070
0
    1040
0
    1070
0
    1002
}
       0
LWPOLYLINE
       5
203C
     100
AcDbEntity
       8
1
     100
AcDbPolyline
      90
4
      70
1
      10
-16.25
      20
-14
      42
0.999999999999999
      10
-23.75
      20
-14
      42
0
      10
-23.75
      20
-26
      42
1
      10
-16.25
      20
-26
      42
0
    1001
FS_CYPCUT
    1000
Channel
    1070
1
    1000
LeadIn
    1002
{
    1070
3
    1040
1.5
    1040
1.5707963267949
    1040
0.5
    1040
0.3
    1070
0
    1040
0.5
    1070
0
    1002
}
    1000
LeadOut
    1002
{
    1070
0
    1040
0
    1040
0
    1040
0
    1070
0
    1002
}
    1000
IsFill
    1070
0
    1000
PathStart
    1040
1.5
    1000
ToolCompensation
    1002
{
    1070
0
    1040
0
    1070
0
    1002
}
       0
LWPOLYLINE
       5
203D
     100
AcDbEntity
       8
1
     100
AcDbPolyline
      90
4
      70
1
      10
-16.25
      20
26
      42
1
      10
-23.75
      20
26
      42
0
      10
-23.75
      20
14
      42
1
      10
-16.25
      20
14
      42
0
    1001
FS_CYPCUT
    1000
Channel
    1070
1
    1000
LeadIn
    1002
{
    1070
3
    1040
1.5
    1040
1.5707963267949
    1040
0.5
    1040
0.3
    1070
0
    1040
0.5
    1070
0
    1002
}
    1000
LeadOut
    1002
{
    1070
0
    1040
0
    1040
0
    1040
0
    1070
0
    1002
}
    1000
IsFill
    1070
0
    1000
PathStart
    1040
1.5
    1000
ToolCompensation
    1002
{
    1070
0
    1040
0
    1070
0
    1002
}
       0
LWPOLYLINE
       5
203E
     100
AcDbEntity
       8
1
     100
AcDbPolyline
      90
4
      70
1
      10
15
      20
7.5
      42
0
      10
15
      20
-7.5
      42
-1
      10
-15
      20
-7.49999999999999
      42
0
      10
-15
      20
7.5
      42
-1
    1001
FS_CYPCUT
    1000
Channel
    1070
1
    1000
LeadIn
    1002
{
    1070
3
    1040
1.5
    1040
1.5707963267949
    1040
0.5
    1040
0.3
    1070
0
    1040
0.5
    1070
0
    1002
}
    1000
LeadOut
    1002
{
    1070
0
    1040
0
    1040
0
    1040
0
    1070
0
    1002
}
    1000
IsFill
    1070
0
    1000
PathStart
    1040
1.5
    1000
ToolCompensation
    1002
{
    1070
0
    1040
0
    1070
0
    1002
}
       0
LWPOLYLINE
       5
203F
     100
AcDbEntity
       8
1
     100
AcDbPolyline
      90
4
      70
1
      10
23.75
      20
-14
      42
0.999999999999999
      10
16.25
      20
-14
      42
0
      10
16.25
      20
-26
      42
1
      10
23.75
      20
-26
      42
0
    1001
FS_CYPCUT
    1000
Channel
    1070
1
    1000
LeadIn
    1002
{
    1070
3
    1040
1.5
    1040
1.5707963267949
    1040
0.5
    1040
0.3
    1070
0
    1040
0.5
    1070
0
    1002
}
    1000
LeadOut
    1002
{
    1070
0
    1040
0
    1040
0
    1040
0
    1070
0
    1002
}
    1000
IsFill
    1070
0
    1000
PathStart
    1040
1.5
    1000
ToolCompensation
    1002
{
    1070
0
    1040
0
    1070
0
    1002
}
       0
LWPOLYLINE
       5
2040
     100
AcDbEntity
       8
1
     100
AcDbPolyline
      90
4
      70
1
      10
23.75
      20
26
      42
1
      10
16.25
      20
26
      42
0
      10
16.25
      20
14
      42
1
      10
23.75
      20
14
      42
0
    1001
FS_CYPCUT
    1000
Channel
    1070
1
    1000
LeadIn
    1002
{
    1070
3
    1040
1.5
    1040
1.5707963267949
    1040
0.5
    1040
0.3
    1070
0
    1040
0.5
    1070
0
    1002
}
    1000
LeadOut
    1002
{
    1070
0
    1040
0
    1040
0
    1040
0
    1070
0
    1002
}
    1000
IsFill
    1070
0
    1000
PathStart
    1040
1.5
    1000
ToolCompensation
    1002
{
    1070
0
    1040
0
    1070
0
    1002
}
       0
LWPOLYLINE
       5
2041
     100
AcDbEntity
       8
1
     100
AcDbPolyline
      90
8
      70
1
      10
120.5
      20
4
      42
0
      10
120.5
      20
-4
      42
-0.414213562373098
      10
118.5
      20
-6
      42
0
      10
62.5
      20
-6
      42
-0.414213562373091
      10
60.5
      20
-4
      42
0
      10
60.5
      20
4
      42
-0.414213562373093
      10
62.5
      20
6
      42
0
      10
118.5
      20
6
      42
-0.414213562373098
    1001
FS_CYPCUT
    1000
Channel
    1070
1
    1000
LeadIn
    1002
{
    1070
3
    1040
2.5
    1040
1.5707963267949
    1040
0.5
    1040
0.3
    1070
0
    1040
0.5
    1070
0
    1002
}
    1000
LeadOut
    1002
{
    1070
0
    1040
0
    1040
0
    1040
0
    1070
0
    1002
}
    1000
IsFill
    1070
0
    1000
PathStart
    1040
2.5
    1000
ToolCompensation
    1002
{
    1070
0
    1040
0
    1070
0
    1002
}
       0
CIRCLE
       5
2042
     100
AcDbEntity
       8
1
     100
AcDbCircle
      10
132.75
      20
-11.5
      30
0
      40
2.64999999999998
    1001
FS_CYPCUT
    1000
Channel
    1070
1
    1000
LeadIn
    1002
{
    1070
3
    1040
5.82867087928207E-16
    1040
1.5707963267949
    1040
0.5
    1040
0.3
    1070
0
    1040
0.5
    1070
0
    1002
}
    1000
LeadOut
    1002
{
    1070
0
    1040
0
    1040
0
    1040
0
    1070
0
    1002
}
    1000
IsFill
    1070
0
    1000
PathStart
    1040
5.82867087928207E-16
    1000
ToolCompensation
    1002
{
    1070
0
    1040
0
    1070
0
    1002
}
       0
CIRCLE
       5
2043
     100
AcDbEntity
       8
1
     100
AcDbCircle
      10
132.75
      20
11.5
      30
0
      40
2.64999999999998
    1001
FS_CYPCUT
    1000
Channel
    1070
1
    1000
LeadIn
    1002
{
    1070
3
    1040
5.82867087928207E-16
    1040
1.5707963267949
    1040
0.5
    1040
0.3
    1070
0
    1040
0.5
    1070
0
    1002
}
    1000
LeadOut
    1002
{
    1070
0
    1040
0
    1040
0
    1040
0
    1070
0
    1002
}
    1000
IsFill
    1070
0
    1000
PathStart
    1040
5.82867087928207E-16
    1000
ToolCompensation
    1002
{
    1070
0
    1040
0
    1070
0
    1002
}
       0
LWPOLYLINE
       5
2044
     100
AcDbEntity
       8
1
     100
AcDbPolyline
      90
32
      70
1
      10
140
      20
19.25
      42
0
      10
140
      20
-19.25
      42
-0.414213562373099
      10
139
      20
-20.25
      42
0
      10
126.5
      20
-20.25
      42
-0.414213562373103
      10
125.5
      20
-19.25
      42
0
      10
125.5
      20
-16.5
      42
0
      10
49.5
      20
-16.5
      42
0
      10
49.5
      20
-25
      42
-0.414213562373095
      10
39.5
      20
-35
      42
0
      10
-39.5
      20
-35
      42
-0.414213562373095
      10
-49.5
      20
-25
      42
0
      10
-49.5
      20
-16.5
      42
0
      10
-125.5
      20
-16.5
      42
0
      10
-125.5
      20
-19.25
      42
-0.414213562373093
      10
-126.5
      20
-20.25
      42
0
      10
-139
      20
-20.25
      42
-0.41421356237311
      10
-140
      20
-19.25
      42
0
      10
-140
      20
19.25
      42
-0.414213562373099
      10
-139
      20
20.25
      42
0
      10
-126.5
      20
20.25
      42
-0.414213562373103
      10
-125.5
      20
19.25
      42
0
      10
-125.5
      20
16.5
      42
0
      10
-49.5
      20
16.5
      42
0
      10
-49.5
      20
25
      42
-0.414213562373095
      10
-39.5
      20
35
      42
0
      10
39.5
      20
35
      42
-0.414213562373095
      10
49.5
      20
25
      42
0
      10
49.5
      20
16.5
      42
0
      10
125.5
      20
16.5
      42
0
      10
125.5
      20
19.25
      42
-0.414213562373093
      10
126.5
      20
20.25
      42
0
      10
139
      20
20.25
      42
-0.41421356237311
    1001
FS_CYPCUT
    1000
Channel
    1070
1
    1000
LeadIn
    1002
{
    1070
3
    1040
8.5
    1040
1.5707963267949
    1040
0.5
    1040
0.3
    1070
0
    1040
0.5
    1070
0
    1002
}
    1000
LeadOut
    1002
{
    1070
0
    1040
0
    1040
0
    1040
0
    1070
0
    1002
}
    1000
IsFill
    1070
1
    1000
PathStart
    1040
8.5
    1000
ToolCompensation
    1002
{
    1070
0
    1040
0
    1070
0
    1002
}
    1000
MicroConnect
    1002
{
    1070
2
    1040
5.50207444
    1041
0.8
    1042
0
    1040
21.4481389
    1041
0.8
    1042
0
    1002
}
       0
ENDBLK
       5
2045
     330
2005
     100
AcDbEntity
       8
0
     100
AcDbBlockEnd
       0
BLOCK
       5
2046
     330
2006
     100
AcDbEntity
       8
0
     100
AcDbBlockBegin
       2
Part1690364360
      70
0
      10
0
      20
-6
      30
0
       3
Part1690364360
       1

       4
CypCutBlock
       0
LWPOLYLINE
       5
2047
     100
AcDbEntity
       8
1
     100
AcDbPolyline
      90
6
      70
1
      10
84
      20
70.125
      42
0.693000468164478
      10
82.2465753425
      20
70.7825342466
      42
0
      10
41.1193026151661
      20
23.6575342465758
      42
0.643913270326977
      10
41.8727272727
      20
22
      42
0
      10
83
      20
22
      42
0.414213562373103
      10
84
      20
23
      42
0
    1001
FS_CYPCUT
    1000
Channel
    1070
1
    1000
LeadIn
    1002
{
    1070
3
    1040
1.5
    1040
1.5707963267949
    1040
0.5
    1040
0.5
    1070
0
    1040
0.5
    1070
0
    1002
}
    1000
LeadOut
    1002
{
    1070
0
    1040
0
    1040
0
    1040
0
    1070
0
    1002
}
    1000
IsFill
    1070
0
    1000
PathStart
    1040
1.5
    1000
ToolCompensation
    1002
{
    1070
0
    1040
0
    1070
0
    1002
}
    1000
MicroConnect
    1002
{
    1070
1
    1040
1.48880481
    1041
0.5
    1042
0
    1002
}
       0
LWPOLYLINE
       5
2048
     100
AcDbEntity
       8
1
     100
AcDbPolyline
      90
14
      70
1
      10
106
      20
119
      42
0.414213562373103
      10
105
      20
120
      42
0
      10
96.4545454545
      20
120
      42
0.216609194718751
      10
95.7011207969662
      20
119.657534246576
      42
0
      10
0.2465753425
      20
10.2825342466
      42
0.181334581772657
      10
0
      20
9.625
      42
0
      10
0
      20
1
      42
0.414213562373095
      10
1
      20
0
      42
0
      10
41
      20
0
      42
0
      10
41
      20
-6
      42
0
      10
59
      20
-6
      42
0
      10
59
      20
0
      42
0
      10
105
      20
0
      42
0.414213562373106
      10
106
      20
1
      42
0
    1001
FS_CYPCUT
    1000
Channel
    1070
1
    1000
LeadIn
    1002
{
    1070
3
    1040
3.50344422700587
    1040
1.5707963267949
    1040
0.5
    1040
0.5
    1070
0
    1040
0.5
    1070
0
    1002
}
    1000
LeadOut
    1002
{
    1070
0
    1040
0
    1040
0
    1040
0
    1070
0
    1002
}
    1000
IsFill
    1070
1
    1000
PathStart
    1040
3.5
    1000
ToolCompensation
    1002
{
    1070
0
    1040
0
    1070
0
    1002
}
    1000
MicroConnect
    1002
{
    1070
2
    1040
3.5
    1041
0.5
    1042
0
    1040
11.8093319
    1041
0.5
    1042
0
    1002
}
       0
ENDBLK
       5
2049
     330
2006
     100
AcDbEntity
       8
0
     100
AcDbBlockEnd
       0
BLOCK
       5
204A
     330
2007
     100
AcDbEntity
       8
0
     100
AcDbBlockBegin
       2
Part1597006230
      70
0
      10
0
      20
-6
      30
0
       3
Part1597006230
       1

       4
CypCutBlock
       0
LWPOLYLINE
       5
204B
     100
AcDbEntity
       8
1
     100
AcDbPolyline
      90
6
      70
1
      10
84
      20
70.125
      42
0.693000468164478
      10
82.2465753425
      20
70.7825342466
      42
0
      10
41.1193026151661
      20
23.6575342465758
      42
0.643913270326977
      10
41.8727272727
      20
22
      42
0
      10
83
      20
22
      42
0.414213562373103
      10
84
      20
23
      42
0
    1001
FS_CYPCUT
    1000
Channel
    1070
1
    1000
LeadIn
    1002
{
    1070
3
    1040
1.5
    1040
1.5707963267949
    1040
0.5
    1040
0.5
    1070
0
    1040
0.5
    1070
0
    1002
}
    1000
LeadOut
    1002
{
    1070
0
    1040
0
    1040
0
    1040
0
    1070
0
    1002
}
    1000
IsFill
    1070
0
    1000
PathStart
    1040
1.5
    1000
ToolCompensation
    1002
{
    1070
0
    1040
0
    1070
0
    1002
}
    1000
MicroConnect
    1002
{
    1070
1
    1040
1.48880481
    1041
0.5
    1042
0
    1002
}
       0
LWPOLYLINE
       5
204C
     100
AcDbEntity
       8
1
     100
AcDbPolyline
      90
14
      70
1
      10
106
      20
119
      42
0.414213562373103
      10
105
      20
120
      42
0
      10
96.4545454545
      20
120
      42
0.216609194718751
      10
95.7011207969662
      20
119.657534246576
      42
0
      10
0.2465753425
      20
10.2825342466
      42
0.181334581772657
      10
0
      20
9.625
      42
0
      10
0
      20
1
      42
0.414213562373095
      10
1
      20
0
      42
0
      10
41
      20
0
      42
0
      10
41
      20
-6
      42
0
      10
59
      20
-6
      42
0
      10
59
      20
0
      42
0
      10
105
      20
0
      42
0.414213562373106
      10
106
      20
1
      42
0
    1001
FS_CYPCUT
    1000
Channel
    1070
1
    1000
LeadIn
    1002
{
    1070
3
    1040
3.50344422700587
    1040
1.5707963267949
    1040
0.5
    1040
0.5
    1070
0
    1040
0.5
    1070
0
    1002
}
    1000
LeadOut
    1002
{
    1070
0
    1040
0
    1040
0
    1040
0
    1070
0
    1002
}
    1000
IsFill
    1070
1
    1000
PathStart
    1040
3.5
    1000
ToolCompensation
    1002
{
    1070
0
    1040
0
    1070
0
    1002
}
    1000
MicroConnect
    1002
{
    1070
2
    1040
3.5
    1041
0.5
    1042
0
    1040
11.8093319
    1041
0.5
    1042
0
    1002
}
       0
ENDBLK
       5
204D
     330
2007
     100
AcDbEntity
       8
0
     100
AcDbBlockEnd
       0
BLOCK
       5
204E
     330
2008
     100
AcDbEntity
       8
0
     100
AcDbBlockBegin
       2
Part1307450868
      70
0
      10
0
      20
-6
      30
0
       3
Part1307450868
       1

       4
CypCutBlock
       0
LWPOLYLINE
       5
204F
     100
AcDbEntity
       8
1
     100
AcDbPolyline
      90
6
      70
1
      10
84
      20
70.125
      42
0.693000468164478
      10
82.2465753425
      20
70.7825342466
      42
0
      10
41.1193026151661
      20
23.6575342465758
      42
0.643913270326977
      10
41.8727272727
      20
22
      42
0
      10
83
      20
22
      42
0.414213562373103
      10
84
      20
23
      42
0
    1001
FS_CYPCUT
    1000
Channel
    1070
1
    1000
LeadIn
    1002
{
    1070
3
    1040
1.5
    1040
1.5707963267949
    1040
0.5
    1040
0.5
    1070
0
    1040
0.5
    1070
0
    1002
}
    1000
LeadOut
    1002
{
    1070
0
    1040
0
    1040
0
    1040
0
    1070
0
    1002
}
    1000
IsFill
    1070
0
    1000
PathStart
    1040
1.5
    1000
ToolCompensation
    1002
{
    1070
0
    1040
0
    1070
0
    1002
}
    1000
MicroConnect
    1002
{
    1070
1
    1040
1.48880481
    1041
0.5
    1042
0
    1002
}
       0
LWPOLYLINE
       5
2050
     100
AcDbEntity
       8
1
     100
AcDbPolyline
      90
14
      70
1
      10
106
      20
119
      42
0.414213562373103
      10
105
      20
120
      42
0
      10
96.4545454545
      20
120
      42
0.216609194718751
      10
95.7011207969662
      20
119.657534246576
      42
0
      10
0.2465753425
      20
10.2825342466
      42
0.181334581772657
      10
0
      20
9.625
      42
0
      10
0
      20
1
      42
0.414213562373095
      10
1
      20
0
      42
0
      10
41
      20
0
      42
0
      10
41
      20
-6
      42
0
      10
59
      20
-6
      42
0
      10
59
      20
0
      42
0
      10
105
      20
0
      42
0.414213562373106
      10
106
      20
1
      42
0
    1001
FS_CYPCUT
    1000
Channel
    1070
1
    1000
LeadIn
    1002
{
    1070
3
    1040
3.50344422700587
    1040
1.5707963267949
    1040
0.5
    1040
0.5
    1070
0
    1040
0.5
    1070
0
    1002
}
    1000
LeadOut
    1002
{
    1070
0
    1040
0
    1040
0
    1040
0
    1070
0
    1002
}
    1000
IsFill
    1070
1
    1000
PathStart
    1040
3.5
    1000
ToolCompensation
    1002
{
    1070
0
    1040
0
    1070
0
    1002
}
    1000
MicroConnect
    1002
{
    1070
2
    1040
3.5
    1041
0.5
    1042
0
    1040
11.8093319
    1041
0.5
    1042
0
    1002
}
       0
ENDBLK
       5
2051
     330
2008
     100
AcDbEntity
       8
0
     100
AcDbBlockEnd
       0
BLOCK
       5
2052
     330
2009
     100
AcDbEntity
       8
0
     100
AcDbBlockBegin
       2
Part2090246085
      70
0
      10
-140
      20
-35
      30
0
       3
Part2090246085
       1

       4
CypCutBlock
       0
CIRCLE
       5
2053
     100
AcDbEntity
       8
1
     100
AcDbCircle
      10
-132.75
      20
-11.5
      30
0
      40
2.64999999999998
    1001
FS_CYPCUT
    1000
Channel
    1070
1
    1000
LeadIn
    1002
{
    1070
3
    1040
5.82867087928207E-16
    1040
1.5707963267949
    1040
0.5
    1040
0.3
    1070
0
    1040
0.5
    1070
0
    1002
}
    1000
LeadOut
    1002
{
    1070
0
    1040
0
    1040
0
    1040
0
    1070
0
    1002
}
    1000
IsFill
    1070
0
    1000
PathStart
    1040
5.82867087928207E-16
    1000
ToolCompensation
    1002
{
    1070
0
    1040
0
    1070
0
    1002
}
       0
CIRCLE
       5
2054
     100
AcDbEntity
       8
1
     100
AcDbCircle
      10
-132.75
      20
11.5
      30
0
      40
2.64999999999998
    1001
FS_CYPCUT
    1000
Channel
    1070
1
    1000
LeadIn
    1002
{
    1070
3
    1040
5.82867087928207E-16
    1040
1.5707963267949
    1040
0.5
    1040
0.3
    1070
0
    1040
0.5
    1070
0
    1002
}
    1000
LeadOut
    1002
{
    1070
0
    1040
0
    1040
0
    1040
0
    1070
0
    1002
}
    1000
IsFill
    1070
0
    1000
PathStart
    1040
5.82867087928207E-16
    1000
ToolCompensation
    1002
{
    1070
0
    1040
0
    1070
0
    1002
}
       0
LWPOLYLINE
       5
2055
     100
AcDbEntity
       8
1
     100
AcDbPolyline
      90
8
      70
1
      10
-60.5
      20
4
      42
0
      10
-60.5
      20
-4
      42
-0.414213562373093
      10
-62.5
      20
-6
      42
0
      10
-118.5
      20
-6.00000000000003
      42
-0.414213562373098
      10
-120.5
      20
-4
      42
0
      10
-120.5
      20
4
      42
-0.414213562373098
      10
-118.5
      20
6.00000000000003
      42
0
      10
-62.5
      20
6
      42
-0.414213562373093
    1001
FS_CYPCUT
    1000
Channel
    1070
1
    1000
LeadIn
    1002
{
    1070
3
    1040
2.5
    1040
1.5707963267949
    1040
0.5
    1040
0.3
    1070
0
    1040
0.5
    1070
0
    1002
}
    1000
LeadOut
    1002
{
    1070
0
    1040
0
    1040
0
    1040
0
    1070
0
    1002
}
    1000
IsFill
    1070
0
    1000
PathStart
    1040
2.5
    1000
ToolCompensation
    1002
{
    1070
0
    1040
0
    1070
0
    1002
}
       0
LWPOLYLINE
       5
2056
     100
AcDbEntity
       8
1
     100
AcDbPolyline
      90
4
      70
1
      10
-16.25
      20
-14
      42
0.999999999999999
      10
-23.75
      20
-14
      42
0
      10
-23.75
      20
-26
      42
1
      10
-16.25
      20
-26
      42
0
    1001
FS_CYPCUT
    1000
Channel
    1070
1
    1000
LeadIn
    1002
{
    1070
3
    1040
1.5
    1040
1.5707963267949
    1040
0.5
    1040
0.3
    1070
0
    1040
0.5
    1070
0
    1002
}
    1000
LeadOut
    1002
{
    1070
0
    1040
0
    1040
0
    1040
0
    1070
0
    1002
}
    1000
IsFill
    1070
0
    1000
PathStart
    1040
1.5
    1000
ToolCompensation
    1002
{
    1070
0
    1040
0
    1070
0
    1002
}
       0
LWPOLYLINE
       5
2057
     100
AcDbEntity
       8
1
     100
AcDbPolyline
      90
4
      70
1
      10
-16.25
      20
26
      42
1
      10
-23.75
      20
26
      42
0
      10
-23.75
      20
14
      42
1
      10
-16.25
      20
14
      42
0
    1001
FS_CYPCUT
    1000
Channel
    1070
1
    1000
LeadIn
    1002
{
    1070
3
    1040
1.5
    1040
1.5707963267949
    1040
0.5
    1040
0.3
    1070
0
    1040
0.5
    1070
0
    1002
}
    1000
LeadOut
    1002
{
    1070
0
    1040
0
    1040
0
    1040
0
    1070
0
    1002
}
    1000
IsFill
    1070
0
    1000
PathStart
    1040
1.5
    1000
ToolCompensation
    1002
{
    1070
0
    1040
0
    1070
0
    1002
}
       0
LWPOLYLINE
       5
2058
     100
AcDbEntity
       8
1
     100
AcDbPolyline
      90
4
      70
1
      10
15
      20
7.5
      42
0
      10
15
      20
-7.5
      42
-1
      10
-15
      20
-7.49999999999999
      42
0
      10
-15
      20
7.5
      42
-1
    1001
FS_CYPCUT
    1000
Channel
    1070
1
    1000
LeadIn
    1002
{
    1070
3
    1040
1.5
    1040
1.5707963267949
    1040
0.5
    1040
0.3
    1070
0
    1040
0.5
    1070
0
    1002
}
    1000
LeadOut
    1002
{
    1070
0
    1040
0
    1040
0
    1040
0
    1070
0
    1002
}
    1000
IsFill
    1070
0
    1000
PathStart
    1040
1.5
    1000
ToolCompensation
    1002
{
    1070
0
    1040
0
    1070
0
    1002
}
       0
LWPOLYLINE
       5
2059
     100
AcDbEntity
       8
1
     100
AcDbPolyline
      90
4
      70
1
      10
23.75
      20
-14
      42
0.999999999999999
      10
16.25
      20
-14
      42
0
      10
16.25
      20
-26
      42
1
      10
23.75
      20
-26
      42
0
    1001
FS_CYPCUT
    1000
Channel
    1070
1
    1000
LeadIn
    1002
{
    1070
3
    1040
1.5
    1040
1.5707963267949
    1040
0.5
    1040
0.3
    1070
0
    1040
0.5
    1070
0
    1002
}
    1000
LeadOut
    1002
{
    1070
0
    1040
0
    1040
0
    1040
0
    1070
0
    1002
}
    1000
IsFill
    1070
0
    1000
PathStart
    1040
1.5
    1000
ToolCompensation
    1002
{
    1070
0
    1040
0
    1070
0
    1002
}
       0
LWPOLYLINE
       5
205A
     100
AcDbEntity
       8
1
     100
AcDbPolyline
      90
4
      70
1
      10
23.75
      20
26
      42
1
      10
16.25
      20
26
      42
0
      10
16.25
      20
14
      42
1
      10
23.75
      20
14
      42
0
    1001
FS_CYPCUT
    1000
Channel
    1070
1
    1000
LeadIn
    1002
{
    1070
3
    1040
1.5
    1040
1.5707963267949
    1040
0.5
    1040
0.3
    1070
0
    1040
0.5
    1070
0
    1002
}
    1000
LeadOut
    1002
{
    1070
0
    1040
0
    1040
0
    1040
0
    1070
0
    1002
}
    1000
IsFill
    1070
0
    1000
PathStart
    1040
1.5
    1000
ToolCompensation
    1002
{
    1070
0
    1040
0
    1070
0
    1002
}
       0
LWPOLYLINE
       5
205B
     100
AcDbEntity
       8
1
     100
AcDbPolyline
      90
8
      70
1
      10
120.5
      20
4
      42
0
      10
120.5
      20
-4
      42
-0.414213562373098
      10
118.5
      20
-6
      42
0
      10
62.5
      20
-6
      42
-0.414213562373091
      10
60.5
      20
-4
      42
0
      10
60.5
      20
4
      42
-0.414213562373093
      10
62.5
      20
6
      42
0
      10
118.5
      20
6
      42
-0.414213562373098
    1001
FS_CYPCUT
    1000
Channel
    1070
1
    1000
LeadIn
    1002
{
    1070
3
    1040
2.5
    1040
1.5707963267949
    1040
0.5
    1040
0.3
    1070
0
    1040
0.5
    1070
0
    1002
}
    1000
LeadOut
    1002
{
    1070
0
    1040
0
    1040
0
    1040
0
    1070
0
    1002
}
    1000
IsFill
    1070
0
    1000
PathStart
    1040
2.5
    1000
ToolCompensation
    1002
{
    1070
0
    1040
0
    1070
0
    1002
}
       0
CIRCLE
       5
205C
     100
AcDbEntity
       8
1
     100
AcDbCircle
      10
132.75
      20
-11.5
      30
0
      40
2.64999999999998
    1001
FS_CYPCUT
    1000
Channel
    1070
1
    1000
LeadIn
    1002
{
    1070
3
    1040
5.82867087928207E-16
    1040
1.5707963267949
    1040
0.5
    1040
0.3
    1070
0
    1040
0.5
    1070
0
    1002
}
    1000
LeadOut
    1002
{
    1070
0
    1040
0
    1040
0
    1040
0
    1070
0
    1002
}
    1000
IsFill
    1070
0
    1000
PathStart
    1040
5.82867087928207E-16
    1000
ToolCompensation
    1002
{
    1070
0
    1040
0
    1070
0
    1002
}
       0
CIRCLE
       5
205D
     100
AcDbEntity
       8
1
     100
AcDbCircle
      10
132.75
      20
11.5
      30
0
      40
2.64999999999998
    1001
FS_CYPCUT
    1000
Channel
    1070
1
    1000
LeadIn
    1002
{
    1070
3
    1040
5.82867087928207E-16
    1040
1.5707963267949
    1040
0.5
    1040
0.3
    1070
0
    1040
0.5
    1070
0
    1002
}
    1000
LeadOut
    1002
{
    1070
0
    1040
0
    1040
0
    1040
0
    1070
0
    1002
}
    1000
IsFill
    1070
0
    1000
PathStart
    1040
5.82867087928207E-16
    1000
ToolCompensation
    1002
{
    1070
0
    1040
0
    1070
0
    1002
}
       0
LWPOLYLINE
       5
205E
     100
AcDbEntity
       8
1
     100
AcDbPolyline
      90
32
      70
1
      10
140
      20
19.25
      42
0
      10
140
      20
-19.25
      42
-0.414213562373099
      10
139
      20
-20.25
      42
0
      10
126.5
      20
-20.25
      42
-0.414213562373103
      10
125.5
      20
-19.25
      42
0
      10
125.5
      20
-16.5
      42
0
      10
49.5
      20
-16.5
      42
0
      10
49.5
      20
-25
      42
-0.414213562373095
      10
39.5
      20
-35
      42
0
      10
-39.5
      20
-35
      42
-0.414213562373095
      10
-49.5
      20
-25
      42
0
      10
-49.5
      20
-16.5
      42
0
      10
-125.5
      20
-16.5
      42
0
      10
-125.5
      20
-19.25
      42
-0.414213562373093
      10
-126.5
      20
-20.25
      42
0
      10
-139
      20
-20.25
      42
-0.41421356237311
      10
-140
      20
-19.25
      42
0
      10
-140
      20
19.25
      42
-0.414213562373099
      10
-139
      20
20.25
      42
0
      10
-126.5
      20
20.25
      42
-0.414213562373103
      10
-125.5
      20
19.25
      42
0
      10
-125.5
      20
16.5
      42
0
      10
-49.5
      20
16.5
      42
0
      10
-49.5
      20
25
      42
-0.414213562373095
      10
-39.5
      20
35
      42
0
      10
39.5
      20
35
      42
-0.414213562373095
      10
49.5
      20
25
      42
0
      10
49.5
      20
16.5
      42
0
      10
125.5
      20
16.5
      42
0
      10
125.5
      20
19.25
      42
-0.414213562373093
      10
126.5
      20
20.25
      42
0
      10
139
      20
20.25
      42
-0.41421356237311
    1001
FS_CYPCUT
    1000
Channel
    1070
1
    1000
LeadIn
    1002
{
    1070
3
    1040
8.5
    1040
1.5707963267949
    1040
0.5
    1040
0.3
    1070
0
    1040
0.5
    1070
0
    1002
}
    1000
LeadOut
    1002
{
    1070
0
    1040
0
    1040
0
    1040
0
    1070
0
    1002
}
    1000
IsFill
    1070
1
    1000
PathStart
    1040
8.5
    1000
ToolCompensation
    1002
{
    1070
0
    1040
0
    1070
0
    1002
}
    1000
MicroConnect
    1002
{
    1070
2
    1040
5.50207444
    1041
0.8
    1042
0
    1040
21.4481389
    1041
0.8
    1042
0
    1002
}
       0
ENDBLK
       5
205F
     330
2009
     100
AcDbEntity
       8
0
     100
AcDbBlockEnd
       0
BLOCK
       5
2060
     330
200A
     100
AcDbEntity
       8
0
     100
AcDbBlockBegin
       2
Part700082564
      70
0
      10
0
      20
-6
      30
0
       3
Part700082564
       1

       4
CypCutBlock
       0
LWPOLYLINE
       5
2061
     100
AcDbEntity
       8
1
     100
AcDbPolyline
      90
6
      70
1
      10
84
      20
70.125
      42
0.693000468164478
      10
82.2465753425
      20
70.7825342466
      42
0
      10
41.1193026151661
      20
23.6575342465758
      42
0.643913270326977
      10
41.8727272727
      20
22
      42
0
      10
83
      20
22
      42
0.414213562373103
      10
84
      20
23
      42
0
    1001
FS_CYPCUT
    1000
Channel
    1070
1
    1000
LeadIn
    1002
{
    1070
3
    1040
1.5
    1040
1.5707963267949
    1040
0.5
    1040
0.5
    1070
0
    1040
0.5
    1070
0
    1002
}
    1000
LeadOut
    1002
{
    1070
0
    1040
0
    1040
0
    1040
0
    1070
0
    1002
}
    1000
IsFill
    1070
0
    1000
PathStart
    1040
1.5
    1000
ToolCompensation
    1002
{
    1070
0
    1040
0
    1070
0
    1002
}
    1000
MicroConnect
    1002
{
    1070
1
    1040
1.48880481
    1041
0.5
    1042
0
    1002
}
       0
LWPOLYLINE
       5
2062
     100
AcDbEntity
       8
1
     100
AcDbPolyline
      90
14
      70
1
      10
106
      20
119
      42
0.414213562373103
      10
105
      20
120
      42
0
      10
96.4545454545
      20
120
      42
0.216609194718751
      10
95.7011207969662
      20
119.657534246576
      42
0
      10
0.2465753425
      20
10.2825342466
      42
0.181334581772657
      10
0
      20
9.625
      42
0
      10
0
      20
1
      42
0.414213562373095
      10
1
      20
0
      42
0
      10
41
      20
0
      42
0
      10
41
      20
-6
      42
0
      10
59
      20
-6
      42
0
      10
59
      20
0
      42
0
      10
105
      20
0
      42
0.414213562373106
      10
106
      20
1
      42
0
    1001
FS_CYPCUT
    1000
Channel
    1070
1
    1000
LeadIn
    1002
{
    1070
3
    1040
3.50344422700587
    1040
1.5707963267949
    1040
0.5
    1040
0.5
    1070
0
    1040
0.5
    1070
0
    1002
}
    1000
LeadOut
    1002
{
    1070
0
    1040
0
    1040
0
    1040
0
    1070
0
    1002
}
    1000
IsFill
    1070
1
    1000
PathStart
    1040
3.5
    1000
ToolCompensation
    1002
{
    1070
0
    1040
0
    1070
0
    1002
}
    1000
MicroConnect
    1002
{
    1070
2
    1040
3.5
    1041
0.5
    1042
0
    1040
11.8093319
    1041
0.5
    1042
0
    1002
}
       0
ENDBLK
       5
2063
     330
200A
     100
AcDbEntity
       8
0
     100
AcDbBlockEnd
       0
BLOCK
       5
2064
     330
200B
     100
AcDbEntity
       8
0
     100
AcDbBlockBegin
       2
Part2038402109
      70
0
      10
-25.5
      20
-25.5
      30
0
       3
Part2038402109
       1

       4
CypCutBlock
       0
CIRCLE
       5
2065
     100
AcDbEntity
       8
1
     100
AcDbCircle
      10
0
      20
0
      30
0
      40
17.5
    1001
FS_CYPCUT
    1000
Channel
    1070
1
    1000
LeadIn
    1002
{
    1070
3
    1040
0.0025589425413437
    1040
0.785398163397448
    1040
1
    1040
1
    1070
0
    1040
0.5
    1070
0
    1002
}
    1000
LeadOut
    1002
{
    1070
0
    1040
0
    1040
0
    1040
0
    1070
0
    1002
}
    1000
IsFill
    1070
0
    1000
PathStart
    1040
0
    1000
ToolCompensation
    1002
{
    1070
0
    1040
0
    1070
0
    1002
}
    1000
MicroConnect
    1002
{
    1070
2
    1040
0.498305327
    1041
0.8
    1042
0
    1040
0.995283288
    1041
0.8
    1042
0
    1002
}
       0
CIRCLE
       5
2066
     100
AcDbEntity
       8
1
     100
AcDbCircle
      10
0
      20
0
      30
0
      40
25.5
    1001
FS_CYPCUT
    1000
Channel
    1070
1
    1000
LeadIn
    1002
{
    1070
3
    1040
0.00166883325386347
    1040
0.785398163397448
    1040
1
    1040
1
    1070
0
    1040
0.5
    1070
0
    1002
}
    1000
LeadOut
    1002
{
    1070
0
    1040
0
    1040
0
    1040
0
    1070
0
    1002
}
    1000
IsFill
    1070
1
    1000
PathStart
    1040
0
    1000
ToolCompensation
    1002
{
    1070
0
    1040
0
    1070
0
    1002
}
    1000
MicroConnect
    1002
{
    1070
2
    1040
0.497703875
    1041
0.8
    1042
0
    1040
0.996675737
    1041
0.8
    1042
0
    1002
}
       0
ENDBLK
       5
2067
     330
200B
     100
AcDbEntity
       8
0
     100
AcDbBlockEnd
       0
BLOCK
       5
2068
     330
200C
     100
AcDbEntity
       8
0
     100
AcDbBlockBegin
       2
Part709488842
      70
0
      10
0
      20
-6
      30
0
       3
Part709488842
       1

       4
CypCutBlock
       0
LWPOLYLINE
       5
2069
     100
AcDbEntity
       8
1
     100
AcDbPolyline
      90
6
      70
1
      10
84
      20
70.125
      42
0.693000468164478
      10
82.2465753425
      20
70.7825342466
      42
0
      10
41.1193026151661
      20
23.6575342465758
      42
0.643913270326977
      10
41.8727272727
      20
22
      42
0
      10
83
      20
22
      42
0.414213562373103
      10
84
      20
23
      42
0
    1001
FS_CYPCUT
    1000
Channel
    1070
1
    1000
LeadIn
    1002
{
    1070
3
    1040
1.5
    1040
1.5707963267949
    1040
0.5
    1040
0.5
    1070
0
    1040
0.5
    1070
0
    1002
}
    1000
LeadOut
    1002
{
    1070
0
    1040
0
    1040
0
    1040
0
    1070
0
    1002
}
    1000
IsFill
    1070
0
    1000
PathStart
    1040
1.5
    1000
ToolCompensation
    1002
{
    1070
0
    1040
0
    1070
0
    1002
}
    1000
MicroConnect
    1002
{
    1070
1
    1040
1.48880481
    1041
0.5
    1042
0
    1002
}
       0
LWPOLYLINE
       5
206A
     100
AcDbEntity
       8
1
     100
AcDbPolyline
      90
14
      70
1
      10
106
      20
119
      42
0.414213562373103
      10
105
      20
120
      42
0
      10
96.4545454545
      20
120
      42
0.216609194718751
      10
95.7011207969662
      20
119.657534246576
      42
0
      10
0.2465753425
      20
10.2825342466
      42
0.181334581772657
      10
0
      20
9.625
      42
0
      10
0
      20
1
      42
0.414213562373095
      10
1
      20
0
      42
0
      10
41
      20
0
      42
0
      10
41
      20
-6
      42
0
      10
59
      20
-6
      42
0
      10
59
      20
0
      42
0
      10
105
      20
0
      42
0.414213562373106
      10
106
      20
1
      42
0
    1001
FS_CYPCUT
    1000
Channel
    1070
1
    1000
LeadIn
    1002
{
    1070
3
    1040
3.50344422700587
    1040
1.5707963267949
    1040
0.5
    1040
0.5
    1070
0
    1040
0.5
    1070
0
    1002
}
    1000
LeadOut
    1002
{
    1070
0
    1040
0
    1040
0
    1040
0
    1070
0
    1002
}
    1000
IsFill
    1070
1
    1000
PathStart
    1040
3.5
    1000
ToolCompensation
    1002
{
    1070
0
    1040
0
    1070
0
    1002
}
    1000
MicroConnect
    1002
{
    1070
2
    1040
3.5
    1041
0.5
    1042
0
    1040
11.8093319
    1041
0.5
    1042
0
    1002
}
       0
ENDBLK
       5
206B
     330
200C
     100
AcDbEntity
       8
0
     100
AcDbBlockEnd
       0
BLOCK
       5
206C
     330
200D
     100
AcDbEntity
       8
0
     100
AcDbBlockBegin
       2
Part79440734
      70
0
      10
-4.31654712E-13
      20
-423.688767
      30
0
       3
Part79440734
       1

       4
CypCutBlock
       0
SPLINE
       5
206D
     100
AcDbEntity
       8
1
     100
AcDbSpline
      70
0
      71
3
      72
36
      73
32
      74
0
      40
0
      40
0
      40
0
      40
0
      40
0.125
      40
0.125
      40
0.125
      40
0.125
      40
0.25
      40
0.25
      40
0.25
      40
0.25
      40
0.375
      40
0.375
      40
0.375
      40
0.375
      40
0.5
      40
0.5
      40
0.5
      40
0.5
      40
0.625
      40
0.625
      40
0.625
      40
0.625
      40
0.75
      40
0.75
      40
0.75
      40
0.75
      40
0.875
      40
0.875
      40
0.875
      40
0.875
      40
1
      40
1
      40
1
      40
1
      10
209.500990080114
      20
-344.139667525344
      30
0
      10
210.241096464144
      20
-344.136353035906
      30
0
      10
210.974457265438
      20
-344.449076537666
      30
0
      10
211.488253811788
      20
-344.980989591823
      30
0
      10
211.488253811788
      20
-344.980989591823
      30
0
      10
212.023885466391
      20
-345.524600187064
      30
0
      10
212.321263254086
      20
-346.291038187503
      30
0
      10
212.299157177549
      20
-347.053269214874
      30
0
      10
212.299157177549
      20
-347.053269214874
      30
0
      10
212.284386971546
      20
-347.792353403628
      30
0
      10
211.970117489569
      20
-348.521420234255
      30
0
      10
211.437810110072
      20
-349.035395379309
      30
0
      10
211.437810110072
      20
-349.035395379309
      30
0
      10
210.927127071225
      20
-349.537501985415
      30
0
      10
210.215796893305
      20
-349.830066245429
      30
0
      10
209.498991397108
      20
-349.826316909106
      30
0
      10
209.498991397108
      20
-349.826316909106
      30
0
      10
208.758867143109
      20
-349.829854367743
      30
0
      10
208.025567376357
      20
-349.516785861067
      30
0
      10
207.511751064002
      20
-348.984993606704
      30
0
      10
207.511751064002
      20
-348.984993606704
      30
0
      10
206.976103446196
      20
-348.441383670775
      30
0
      10
206.678776474196
      20
-347.674938666804
      30
0
      10
206.700838173071
      20
-346.912712041057
      30
0
      10
206.700838173071
      20
-346.912712041057
      30
0
      10
206.715676658966
      20
-346.173645963424
      30
0
      10
207.029811543095
      20
-345.444521993863
      30
0
      10
207.562191693734
      20
-344.930590724349
      30
0
      10
207.562191693734
      20
-344.930590724349
      30
0
      10
208.072929418854
      20
-344.42865817758
      30
0
      10
208.784145678992
      20
-344.135645866335
      30
0
      10
209.500990080114
      20
-344.139667525344
      30
0
    1001
FS_CYPCUT
    1000
Channel
    1070
1
    1000
LeadIn
    1002
{
    1070
3
    1040
5.49999999999999
    1040
1.5707963267949
    1040
2
    1040
1
    1070
0
    1040
0.5
    1070
0
    1002
}
    1000
LeadOut
    1002
{
    1070
0
    1040
0
    1040
0
    1040
0
    1070
0
    1002
}
    1000
IsFill
    1070
0
    1000
PathStart
    1040
5.49999999999999
    1000
ToolCompensation
    1002
{
    1070
0
    1040
0
    1070
0
    1002
}
       0
SPLINE
       5
206E
     100
AcDbEntity
       8
1
     100
AcDbSpline
      70
0
      71
3
      72
36
      73
32
      74
0
      40
0
      40
0
      40
0
      40
0
      40
0.125
      40
0.125
      40
0.125
      40
0.125
      40
0.25
      40
0.25
      40
0.25
      40
0.25
      40
0.375
      40
0.375
      40
0.375
      40
0.375
      40
0.5
      40
0.5
      40
0.5
      40
0.5
      40
0.625
      40
0.625
      40
0.625
      40
0.625
      40
0.75
      40
0.75
      40
0.75
      40
0.75
      40
0.875
      40
0.875
      40
0.875
      40
0.875
      40
1
      40
1
      40
1
      40
1
      10
209.500990080114
      20
-276.570363635935
      30
0
      10
210.241096464148
      20
-276.567049146488
      30
0
      10
210.974457265431
      20
-276.879772648268
      30
0
      10
211.488253811789
      20
-277.411685702415
      30
0
      10
211.488253811789
      20
-277.411685702415
      30
0
      10
212.023885466391
      20
-277.955296297654
      30
0
      10
212.321263254088
      20
-278.721734298097
      30
0
      10
212.299157177549
      20
-279.483965325465
      30
0
      10
212.299157177549
      20
-279.483965325465
      30
0
      10
212.284386971523
      20
-280.223049514209
      30
0
      10
211.970117489599
      20
-280.952116344865
      30
0
      10
211.437810110072
      20
-281.466091489899
      30
0
      10
211.437810110072
      20
-281.466091489899
      30
0
      10
210.927127071228
      20
-281.968198096006
      30
0
      10
210.215796893306
      20
-282.260762356024
      30
0
      10
209.49899139711
      20
-282.257013019698
      30
0
      10
209.49899139711
      20
-282.257013019698
      30
0
      10
208.75886714311
      20
-282.26055047832
      30
0
      10
208.025567376361
      20
-281.94748197166
      30
0
      10
207.511751064002
      20
-281.415689717295
      30
0
      10
207.511751064002
      20
-281.415689717295
      30
0
      10
206.976103446193
      20
-280.87207978137
      30
0
      10
206.678776474195
      20
-280.105634777393
      30
0
      10
206.700838173071
      20
-279.343408151648
      30
0
      10
206.700838173071
      20
-279.343408151648
      30
0
      10
206.71567665897
      20
-278.604342074014
      30
0
      10
207.029811543095
      20
-277.875218104456
      30
0
      10
207.562191693734
      20
-277.361286834939
      30
0
      10
207.562191693734
      20
-277.361286834939
      30
0
      10
208.072929418847
      20
-276.859354288162
      30
0
      10
208.784145678996
      20
-276.566341976934
      30
0
      10
209.500990080114
      20
-276.570363635935
      30
0
    1001
FS_CYPCUT
    1000
Channel
    1070
1
    1000
LeadIn
    1002
{
    1070
3
    1040
5.50000000000002
    1040
1.5707963267949
    1040
2
    1040
1
    1070
0
    1040
0.5
    1070
0
    1002
}
    1000
LeadOut
    1002
{
    1070
0
    1040
0
    1040
0
    1040
0
    1070
0
    1002
}
    1000
IsFill
    1070
0
    1000
PathStart
    1040
5.50000000000002
    1000
ToolCompensation
    1002
{
    1070
0
    1040
0
    1070
0
    1002
}
       0
SPLINE
       5
206F
     100
AcDbEntity
       8
1
     100
AcDbSpline
      70
0
      71
3
      72
36
      73
32
      74
0
      40
0
      40
0
      40
0
      40
0
      40
0.125
      40
0.125
      40
0.125
      40
0.125
      40
0.25
      40
0.25
      40
0.25
      40
0.25
      40
0.375
      40
0.375
      40
0.375
      40
0.375
      40
0.5
      40
0.5
      40
0.5
      40
0.5
      40
0.625
      40
0.625
      40
0.625
      40
0.625
      40
0.75
      40
0.75
      40
0.75
      40
0.75
      40
0.875
      40
0.875
      40
0.875
      40
0.875
      40
1
      40
1
      40
1
      40
1
      10
209.500990080114
      20
-209.001059746526
      30
0
      10
210.241096509458
      20
-208.997745258142
      30
0
      10
210.974457346393
      20
-209.310468797365
      30
0
      10
211.488253902822
      20
-209.84238190645
      30
0
      10
211.488253902822
      20
-209.84238190645
      30
0
      10
212.023885576497
      20
-210.385992534428
      30
0
      10
212.321263286446
      20
-211.152430682466
      30
0
      10
212.299157184533
      20
-211.914661656801
      30
0
      10
212.299157184533
      20
-211.914661656801
      30
0
      10
212.28438935148
      20
-212.653742749721
      30
0
      10
211.970114731607
      20
-213.382811739589
      30
0
      10
211.437810794419
      20
-213.896789249412
      30
0
      10
211.437810794419
      20
-213.896789249412
      30
0
      10
210.927141818216
      20
-214.398933667883
      30
0
      10
210.215789306498
      20
-214.691423655064
      30
0
      10
209.498992549958
      20
-214.687709411429
      30
0
      10
209.498992549958
      20
-214.687709411429
      30
0
      10
208.758869132065
      20
-214.691240354675
      30
0
      10
208.025566625298
      20
-214.378181833613
      30
0
      10
207.511751339374
      20
-213.846386109293
      30
0
      10
207.511751339374
      20
-213.846386109293
      30
0
      10
206.976103630313
      20
-213.302776211882
      30
0
      10
206.678776521579
      20
-212.536331183468
      30
0
      10
206.700838169194
      20
-211.774104518732
      30
0
      10
206.700838169194
      20
-211.774104518732
      30
0
      10
206.715676589149
      20
-211.035038388928
      30
0
      10
207.029811433403
      20
-210.305914362452
      30
0
      10
207.562191611903
      20
-209.791983028815
      30
0
      10
207.562191611903
      20
-209.791983028815
      30
0
      10
208.072930198786
      20
-209.290049882338
      30
0
      10
208.78414533121
      20
-208.997038317546
      30
0
      10
209.500990080114
      20
-209.001059746526
      30
0
    1001
FS_CYPCUT
    1000
Channel
    1070
1
    1000
LeadIn
    1002
{
    1070
3
    1040
5.5
    1040
1.5707963267949
    1040
2
    1040
1
    1070
0
    1040
0.5
    1070
0
    1002
}
    1000
LeadOut
    1002
{
    1070
0
    1040
0
    1040
0
    1040
0
    1070
0
    1002
}
    1000
IsFill
    1070
0
    1000
PathStart
    1040
5.5
    1000
ToolCompensation
    1002
{
    1070
0
    1040
0
    1070
0
    1002
}
       0
SPLINE
       5
2070
     100
AcDbEntity
       8
1
     100
AcDbSpline
      70
0
      71
3
      72
36
      73
32
      74
0
      40
0
      40
0
      40
0
      40
0
      40
0.125
      40
0.125
      40
0.125
      40
0.125
      40
0.25
      40
0.25
      40
0.25
      40
0.25
      40
0.375
      40
0.375
      40
0.375
      40
0.375
      40
0.5
      40
0.5
      40
0.5
      40
0.5
      40
0.625
      40
0.625
      40
0.625
      40
0.625
      40
0.75
      40
0.75
      40
0.75
      40
0.75
      40
0.875
      40
0.875
      40
0.875
      40
0.875
      40
1
      40
1
      40
1
      40
1
      10
209.500990080114
      20
-141.431755857118
      30
0
      10
210.241096464151
      20
-141.428441367667
      30
0
      10
210.974457265427
      20
-141.741164869457
      30
0
      10
211.488253811789
      20
-142.273077923598
      30
0
      10
211.488253811789
      20
-142.273077923598
      30
0
      10
212.023885466407
      20
-142.816688518828
      30
0
      10
212.321263254069
      20
-143.583126519285
      30
0
      10
212.29915717755
      20
-144.345357546649
      30
0
      10
212.29915717755
      20
-144.345357546649
      30
0
      10
212.284386971542
      20
-145.0844417354
      30
0
      10
211.970117489577
      20
-145.813508566035
      30
0
      10
211.437810110072
      20
-146.327483711084
      30
0
      10
211.437810110072
      20
-146.327483711084
      30
0
      10
210.927127071229
      20
-146.829590317195
      30
0
      10
210.215796893303
      20
-147.122154577198
      30
0
      10
209.498991397108
      20
-147.118405240881
      30
0
      10
209.498991397108
      20
-147.118405240881
      30
0
      10
208.758867143107
      20
-147.121942699509
      30
0
      10
208.025567376361
      20
-146.80887419284
      30
0
      10
207.511751064001
      20
-146.277081938477
      30
0
      10
207.511751064001
      20
-146.277081938477
      30
0
      10
206.976103446182
      20
-145.733472002559
      30
0
      10
206.678776474203
      20
-144.967026998572
      30
0
      10
206.700838173072
      20
-144.204800372831
      30
0
      10
206.700838173072
      20
-144.204800372831
      30
0
      10
206.715676658982
      20
-143.465734295203
      30
0
      10
207.029811543078
      20
-142.736610325628
      30
0
      10
207.562191693734
      20
-142.222679056123
      30
0
      10
207.562191693734
      20
-142.222679056123
      30
0
      10
208.072929418858
      20
-141.720746509363
      30
0
      10
208.784145678989
      20
-141.427734198099
      30
0
      10
209.500990080114
      20
-141.431755857118
      30
0
    1001
FS_CYPCUT
    1000
Channel
    1070
1
    1000
LeadIn
    1002
{
    1070
3
    1040
5.5
    1040
1.5707963267949
    1040
2
    1040
1
    1070
0
    1040
0.5
    1070
0
    1002
}
    1000
LeadOut
    1002
{
    1070
0
    1040
0
    1040
0
    1040
0
    1070
0
    1002
}
    1000
IsFill
    1070
0
    1000
PathStart
    1040
5.5
    1000
ToolCompensation
    1002
{
    1070
0
    1040
0
    1070
0
    1002
}
       0
SPLINE
       5
2071
     100
AcDbEntity
       8
1
     100
AcDbSpline
      70
0
      71
3
      72
36
      73
32
      74
0
      40
0
      40
0
      40
0
      40
0
      40
0.125
      40
0.125
      40
0.125
      40
0.125
      40
0.25
      40
0.25
      40
0.25
      40
0.25
      40
0.375
      40
0.375
      40
0.375
      40
0.375
      40
0.5
      40
0.5
      40
0.5
      40
0.5
      40
0.625
      40
0.625
      40
0.625
      40
0.625
      40
0.75
      40
0.75
      40
0.75
      40
0.75
      40
0.875
      40
0.875
      40
0.875
      40
0.875
      40
1
      40
1
      40
1
      40
1
      10
209.500990080114
      20
-73.8624519677093
      30
0
      10
210.241096464145
      20
-73.8591374782714
      30
0
      10
210.974457265437
      20
-74.1718609800327
      30
0
      10
211.488253811789
      20
-74.7037740341889
      30
0
      10
211.488253811789
      20
-74.7037740341889
      30
0
      10
212.023885466391
      20
-75.2473846294269
      30
0
      10
212.321263254088
      20
-76.0138226298706
      30
0
      10
212.299157177549
      20
-76.7760536572389
      30
0
      10
212.299157177549
      20
-76.7760536572389
      30
0
      10
212.284386971528
      20
-77.5151378459873
      30
0
      10
211.970117489588
      20
-78.2442046766317
      30
0
      10
211.437810110072
      20
-78.7581798216745
      30
0
      10
211.437810110072
      20
-78.7581798216745
      30
0
      10
210.927127071222
      20
-79.2602864277712
      30
0
      10
210.215796893308
      20
-79.552850687811
      30
0
      10
209.498991397109
      20
-79.549101351472
      30
0
      10
209.498991397109
      20
-79.549101351472
      30
0
      10
208.758867143113
      20
-79.552638810089
      30
0
      10
208.025567376353
      20
-79.2395703034447
      30
0
      10
207.511751064002
      20
-78.7077780490698
      30
0
      10
207.511751064002
      20
-78.7077780490698
      30
0
      10
206.976103446206
      20
-78.1641681131341
      30
0
      10
206.678776474186
      20
-77.3977231091726
      30
0
      10
206.700838173071
      20
-76.6354964834221
      30
0
      10
206.700838173071
      20
-76.6354964834221
      30
0
      10
206.715676658984
      20
-75.8964304057985
      30
0
      10
207.029811543066
      20
-75.1673064362101
      30
0
      10
207.562191693734
      20
-74.6533751667171
      30
0
      10
207.562191693734
      20
-74.6533751667171
      30
0
      10
208.072929418859
      20
-74.1514426199528
      30
0
      10
208.784145678989
      20
-73.8584303087
      30
0
      10
209.500990080114
      20
-73.8624519677093
      30
0
    1001
FS_CYPCUT
    1000
Channel
    1070
1
    1000
LeadIn
    1002
{
    1070
3
    1040
5.5
    1040
1.5707963267949
    1040
2
    1040
1
    1070
0
    1040
0.5
    1070
0
    1002
}
    1000
LeadOut
    1002
{
    1070
0
    1040
0
    1040
0
    1040
0
    1070
0
    1002
}
    1000
IsFill
    1070
0
    1000
PathStart
    1040
5.5
    1000
ToolCompensation
    1002
{
    1070
0
    1040
0
    1070
0
    1002
}
       0
LWPOLYLINE
       5
2072
     100
AcDbEntity
       8
1
     100
AcDbPolyline
      90
36
      70
1
      10
240
      20
-35
      42
0
      10
240
      20
-388.6887672131
      42
-0.414213562373097
      10
230
      20
-398.6887672131
      42
0
      10
150
      20
-398.6887672131
      42
0.414213562373093
      10
145
      20
-403.6887672131
      42
0
      10
145
      20
-413.6887672131
      42
-0.414213562373098
      10
135
      20
-423.6887672131
      42
0
      10
129
      20
-423.6887672131
      42
-0.414213562373098
      10
126
      20
-420.6887672131
      42
0
      10
126
      20
-398.6887672131
      42
1.00000000000001
      10
114
      20
-398.6887672131
      42
0
      10
114
      20
-420.6887672131
      42
-0.414213562373081
      10
111
      20
-423.6887672131
      42
0
      10
105
      20
-423.6887672131
      42
-0.414213562373091
      10
95
      20
-413.6887672131
      42
0
      10
95
      20
-403.6887672131
      42
0.414213562373099
      10
90
      20
-398.6887672131
      42
0
      10
10
      20
-398.6887672131
      42
-0.414213562373095
      10
-4.10338429901458E-13
      20
-388.6887672131
      42
0
      10
1.15463194561016E-13
      20
-35
      42
-0.414213562373095
      10
10
      20
-25.0000000000001
      42
0
      10
90
      20
-25.0000000000001
      42
0.414213562373094
      10
95.0000000000001
      20
-20
      42
0
      10
95.0000000000001
      20
-10
      42
-0.414213562373095
      10
105
      20
0
      42
0
      10
111
      20
0
      42
-0.414213562373095
      10
114
      20
-3
      42
0
      10
114
      20
-25
      42
1
      10
126
      20
-25
      42
0
      10
126
      20
-3
      42
-0.414213562373094
      10
129
      20
0
      42
0
      10
135
      20
1.20792265079217E-13
      42
-0.414213562373097
      10
145
      20
-10
      42
0
      10
145
      20
-20
      42
0.414213562373106
      10
150
      20
-25.0000000000001
      42
0
      10
230
      20
-24.9999999999997
      42
-0.414213562373094
    1001
FS_CYPCUT
    1000
Channel
    1070
1
    1000
LeadIn
    1002
{
    1070
3
    1040
0.5
    1040
1.5707963267949
    1040
2
    1040
1
    1070
0
    1040
0.5
    1070
0
    1002
}
    1000
LeadOut
    1002
{
    1070
0
    1040
0
    1040
0
    1040
0
    1070
0
    1002
}
    1000
IsFill
    1070
1
    1000
PathStart
    1040
0.5
    1000
ToolCompensation
    1002
{
    1070
0
    1040
0
    1070
0
    1002
}
    1000
MicroConnect
    1002
{
    1070
4
    1040
0.476735284
    1041
0.8
    1042
0
    1040
9.5
    1041
0.8
    1042
0
    1040
18.4990261
    1041
0.8
    1042
0
    1040
27.5
    1041
0.8
    1042
0
    1002
}
       0
ENDBLK
       5
2073
     330
200D
     100
AcDbEntity
       8
0
     100
AcDbBlockEnd
       0
BLOCK
       5
2074
     330
200E
     100
AcDbEntity
       8
0
     100
AcDbBlockBegin
       2
Part953076824
      70
0
      10
-52.5
      20
-52.5
      30
0
       3
Part953076824
       1

       4
CypCutBlock
       0
LWPOLYLINE
       5
2075
     100
AcDbEntity
       8
1
     100
AcDbPolyline
      90
4
      70
1
      10
-27.7316512478498
      20
-26.4167658707002
      42
-0.999999999999999
      10
-33.8137888583502
      20
-32.2105213096998
      42
-0.119322089535575
      10
-44.8020241525075
      20
-13.1783394947193
      42
-1
      10
-36.7434159537708
      20
-10.8079315342134
      42
0.119322089535575
    1001
FS_CYPCUT
    1000
Channel
    1070
1
    1000
LeadIn
    1002
{
    1070
0
    1040
0
    1040
0
    1040
0
    1040
0
    1070
0
    1040
0
    1070
0
    1002
}
    1000
LeadOut
    1002
{
    1070
0
    1040
0
    1040
0
    1040
0
    1070
0
    1002
}
    1000
IsFill
    1070
0
    1000
PathStart
    1040
0
    1000
ToolCompensation
    1002
{
    1070
0
    1040
0
    1070
0
    1002
}
       0
CIRCLE
       5
2076
     100
AcDbEntity
       8
1
     100
AcDbCircle
      10
0
      20
0
      30
0
      40
17.5
    1001
FS_CYPCUT
    1000
Channel
    1070
1
    1000
LeadIn
    1002
{
    1070
0
    1040
0
    1040
0
    1040
0
    1040
0
    1070
0
    1040
0
    1070
0
    1002
}
    1000
LeadOut
    1002
{
    1070
0
    1040
0
    1040
0
    1040
0
    1070
0
    1002
}
    1000
IsFill
    1070
1
    1000
PathStart
    1040
0
    1000
ToolCompensation
    1002
{
    1070
0
    1040
0
    1070
0
    1002
}
    1000
MicroConnect
    1002
{
    1070
1
    1040
0.254789171
    1041
0.8
    1042
0
    1002
}
       0
CIRCLE
       5
2077
     100
AcDbEntity
       8
2
     100
AcDbCircle
      10
0
      20
0
      30
0
      40
31
    1001
FS_CYPCUT
    1000
Channel
    1070
2
    1000
LeadIn
    1002
{
    1070
0
    1040
0
    1040
0
    1040
0
    1040
0
    1070
0
    1040
0
    1070
0
    1002
}
    1000
LeadOut
    1002
{
    1070
0
    1040
0
    1040
0
    1040
0
    1070
0
    1002
}
    1000
IsFill
    1070
0
    1000
PathStart
    1040
0
    1000
ToolCompensation
    1002
{
    1070
0
    1040
0
    1070
0
    1002
}
       0
LWPOLYLINE
       5
2078
     100
AcDbEntity
       8
1
     100
AcDbPolyline
      90
4
      70
1
      10
10.988235294131
      20
45.3888608043951
      42
0.119322089535575
      10
-10.988235294131
      20
45.3888608043951
      42
0.999999999999999
      10
-9.01176470588113
      20
37.2246974048471
      42
-0.119322089535575
      10
9.01176470589348
      20
37.2246974048899
      42
1
    1001
FS_CYPCUT
    1000
Channel
    1070
1
    1000
LeadIn
    1002
{
    1070
0
    1040
0
    1040
0
    1040
0
    1040
0
    1070
0
    1040
0
    1070
0
    1002
}
    1000
LeadOut
    1002
{
    1070
0
    1040
0
    1040
0
    1040
0
    1070
0
    1002
}
    1000
IsFill
    1070
0
    1000
PathStart
    1040
0
    1000
ToolCompensation
    1002
{
    1070
0
    1040
0
    1070
0
    1002
}
       0
LWPOLYLINE
       5
2079
     100
AcDbEntity
       8
1
     100
AcDbPolyline
      90
4
      70
1
      10
44.802024152469
      20
-13.1783394947531
      42
0.999999999999999
      10
36.743415953731
      20
-10.8079315342469
      42
-0.119322089535575
      10
27.7316512478765
      20
-26.4167658706766
      42
1
      10
33.8137888583763
      20
-32.2105213096756
      42
0.119322089535575
    1001
FS_CYPCUT
    1000
Channel
    1070
1
    1000
LeadIn
    1002
{
    1070
0
    1040
0
    1040
0
    1040
0
    1040
0
    1070
0
    1040
0
    1070
0
    1002
}
    1000
LeadOut
    1002
{
    1070
0
    1040
0
    1040
0
    1040
0
    1070
0
    1002
}
    1000
IsFill
    1070
0
    1000
PathStart
    1040
0
    1000
ToolCompensation
    1002
{
    1070
0
    1040
0
    1070
0
    1002
}
       0
CIRCLE
       5
207A
     100
AcDbEntity
       8
1
     100
AcDbCircle
      10
0
      20
0
      30
0
      40
52.5
    1001
FS_CYPCUT
    1000
Channel
    1070
1
    1000
LeadIn
    1002
{
    1070
0
    1040
0
    1040
0
    1040
0
    1040
0
    1070
0
    1040
0
    1070
0
    1002
}
    1000
LeadOut
    1002
{
    1070
0
    1040
0
    1040
0
    1040
0
    1070
0
    1002
}
    1000
IsFill
    1070
1
    1000
PathStart
    1040
0
    1000
ToolCompensation
    1002
{
    1070
0
    1040
0
    1070
0
    1002
}
    1000
MicroConnect
    1002
{
    1070
2
    1040
0.238714823
    1041
0.8
    1042
0
    1040
0.760594652
    1041
0.8
    1042
0
    1002
}
       0
ENDBLK
       5
207B
     330
200E
     100
AcDbEntity
       8
0
     100
AcDbBlockEnd
       0
BLOCK
       5
207C
     330
200F
     100
AcDbEntity
       8
0
     100
AcDbBlockBegin
       2
Part386783090
      70
0
      10
-140
      20
-140
      30
0
       3
Part386783090
       1

       4
CypCutBlock
       0
CIRCLE
       5
207D
     100
AcDbEntity
       8
1
     100
AcDbCircle
      10
-130
      20
-130
      30
0
      40
4
    1001
FS_CYPCUT
    1000
Channel
    1070
1
    1000
LeadIn
    1002
{
    1070
3
    1040
0
    1040
1.5707963267949
    1040
0.5
    1040
0.5
    1070
0
    1040
0.5
    1070
0
    1002
}
    1000
LeadOut
    1002
{
    1070
0
    1040
0
    1040
0
    1040
0
    1070
0
    1002
}
    1000
IsFill
    1070
0
    1000
PathStart
    1040
0
    1000
ToolCompensation
    1002
{
    1070
0
    1040
0
    1070
0
    1002
}
       0
CIRCLE
       5
207E
     100
AcDbEntity
       8
1
     100
AcDbCircle
      10
-85
      20
-130
      30
0
      40
3.99999999999997
    1001
FS_CYPCUT
    1000
Channel
    1070
1
    1000
LeadIn
    1002
{
    1070
3
    1040
0
    1040
1.5707963267949
    1040
0.5
    1040
0.5
    1070
0
    1040
0.5
    1070
0
    1002
}
    1000
LeadOut
    1002
{
    1070
0
    1040
0
    1040
0
    1040
0
    1070
0
    1002
}
    1000
IsFill
    1070
0
    1000
PathStart
    1040
0
    1000
ToolCompensation
    1002
{
    1070
0
    1040
0
    1070
0
    1002
}
       0
CIRCLE
       5
207F
     100
AcDbEntity
       8
1
     100
AcDbCircle
      10
-130
      20
-85
      30
0
      40
3.99999999999999
    1001
FS_CYPCUT
    1000
Channel
    1070
1
    1000
LeadIn
    1002
{
    1070
3
    1040
0
    1040
1.5707963267949
    1040
0.5
    1040
0.5
    1070
0
    1040
0.5
    1070
0
    1002
}
    1000
LeadOut
    1002
{
    1070
0
    1040
0
    1040
0
    1040
0
    1070
0
    1002
}
    1000
IsFill
    1070
0
    1000
PathStart
    1040
0
    1000
ToolCompensation
    1002
{
    1070
0
    1040
0
    1070
0
    1002
}
       0
CIRCLE
       5
2080
     100
AcDbEntity
       8
1
     100
AcDbCircle
      10
-130
      20
85
      30
0
      40
4
    1001
FS_CYPCUT
    1000
Channel
    1070
1
    1000
LeadIn
    1002
{
    1070
3
    1040
0
    1040
1.5707963267949
    1040
0.5
    1040
0.5
    1070
0
    1040
0.5
    1070
0
    1002
}
    1000
LeadOut
    1002
{
    1070
0
    1040
0
    1040
0
    1040
0
    1070
0
    1002
}
    1000
IsFill
    1070
0
    1000
PathStart
    1040
0
    1000
ToolCompensation
    1002
{
    1070
0
    1040
0
    1070
0
    1002
}
       0
CIRCLE
       5
2081
     100
AcDbEntity
       8
1
     100
AcDbCircle
      10
-130
      20
130
      30
0
      40
4.00000000000009
    1001
FS_CYPCUT
    1000
Channel
    1070
1
    1000
LeadIn
    1002
{
    1070
3
    1040
0
    1040
1.5707963267949
    1040
0.5
    1040
0.5
    1070
0
    1040
0.5
    1070
0
    1002
}
    1000
LeadOut
    1002
{
    1070
0
    1040
0
    1040
0
    1040
0
    1070
0
    1002
}
    1000
IsFill
    1070
0
    1000
PathStart
    1040
1
    1000
ToolCompensation
    1002
{
    1070
0
    1040
0
    1070
0
    1002
}
       0
CIRCLE
       5
2082
     100
AcDbEntity
       8
1
     100
AcDbCircle
      10
-85
      20
130
      30
0
      40
4.00000000000006
    1001
FS_CYPCUT
    1000
Channel
    1070
1
    1000
LeadIn
    1002
{
    1070
3
    1040
3.88578058618805E-16
    1040
1.5707963267949
    1040
0.5
    1040
0.5
    1070
0
    1040
0.5
    1070
0
    1002
}
    1000
LeadOut
    1002
{
    1070
0
    1040
0
    1040
0
    1040
0
    1070
0
    1002
}
    1000
IsFill
    1070
0
    1000
PathStart
    1040
3.88578058618805E-16
    1000
ToolCompensation
    1002
{
    1070
0
    1040
0
    1070
0
    1002
}
       0
LWPOLYLINE
       5
2083
     100
AcDbEntity
       8
1
     100
AcDbPolyline
      90
4
      70
1
      10
105
      20
3
      42
0
      10
105
      20
-3
      42
0
      10
102.9563014099
      20
-3
      42
-68.6521004719446
      10
102.9563014099
      20
3
      42
0
    1001
FS_CYPCUT
    1000
Channel
    1070
1
    1000
LeadIn
    1002
{
    1070
3
    1040
0.5
    1040
1.5707963267949
    1040
0.5
    1040
0.5
    1070
0
    1040
0.5
    1070
0
    1002
}
    1000
LeadOut
    1002
{
    1070
0
    1040
0
    1040
0
    1040
0
    1070
0
    1002
}
    1000
IsFill
    1070
0
    1000
PathStart
    1040
0.5
    1000
ToolCompensation
    1002
{
    1070
0
    1040
0
    1070
0
    1002
}
    1000
MicroConnect
    1002
{
    1070
2
    1040
2.36157377
    1041
0.8
    1042
0
    1040
2.85177113
    1041
0.8
    1042
0
    1002
}
       0
CIRCLE
       5
2084
     100
AcDbEntity
       8
1
     100
AcDbCircle
      10
85
      20
-130
      30
0
      40
3.99999999999992
    1001
FS_CYPCUT
    1000
Channel
    1070
1
    1000
LeadIn
    1002
{
    1070
3
    1040
0
    1040
1.5707963267949
    1040
0.5
    1040
0.5
    1070
0
    1040
0.5
    1070
0
    1002
}
    1000
LeadOut
    1002
{
    1070
0
    1040
0
    1040
0
    1040
0
    1070
0
    1002
}
    1000
IsFill
    1070
0
    1000
PathStart
    1040
0
    1000
ToolCompensation
    1002
{
    1070
0
    1040
0
    1070
0
    1002
}
       0
CIRCLE
       5
2085
     100
AcDbEntity
       8
1
     100
AcDbCircle
      10
85
      20
130
      30
0
      40
4.00000000000003
    1001
FS_CYPCUT
    1000
Channel
    1070
1
    1000
LeadIn
    1002
{
    1070
3
    1040
0
    1040
1.5707963267949
    1040
0.5
    1040
0.5
    1070
0
    1040
0.5
    1070
0
    1002
}
    1000
LeadOut
    1002
{
    1070
0
    1040
0
    1040
0
    1040
0
    1070
0
    1002
}
    1000
IsFill
    1070
0
    1000
PathStart
    1040
0
    1000
ToolCompensation
    1002
{
    1070
0
    1040
0
    1070
0
    1002
}
       0
CIRCLE
       5
2086
     100
AcDbEntity
       8
1
     100
AcDbCircle
      10
130
      20
130
      30
0
      40
4.00000000000009
    1001
FS_CYPCUT
    1000
Channel
    1070
1
    1000
LeadIn
    1002
{
    1070
3
    1040
0
    1040
1.5707963267949
    1040
0.5
    1040
0.5
    1070
0
    1040
0.5
    1070
0
    1002
}
    1000
LeadOut
    1002
{
    1070
0
    1040
0
    1040
0
    1040
0
    1070
0
    1002
}
    1000
IsFill
    1070
0
    1000
PathStart
    1040
0
    1000
ToolCompensation
    1002
{
    1070
0
    1040
0
    1070
0
    1002
}
       0
CIRCLE
       5
2087
     100
AcDbEntity
       8
1
     100
AcDbCircle
      10
130
      20
85
      30
0
      40
3.99999999999999
    1001
FS_CYPCUT
    1000
Channel
    1070
1
    1000
LeadIn
    1002
{
    1070
3
    1040
0
    1040
1.5707963267949
    1040
0.5
    1040
0.5
    1070
0
    1040
0.5
    1070
0
    1002
}
    1000
LeadOut
    1002
{
    1070
0
    1040
0
    1040
0
    1040
0
    1070
0
    1002
}
    1000
IsFill
    1070
0
    1000
PathStart
    1040
0
    1000
ToolCompensation
    1002
{
    1070
0
    1040
0
    1070
0
    1002
}
       0
CIRCLE
       5
2088
     100
AcDbEntity
       8
1
     100
AcDbCircle
      10
130
      20
-85
      30
0
      40
3.99999999999999
    1001
FS_CYPCUT
    1000
Channel
    1070
1
    1000
LeadIn
    1002
{
    1070
3
    1040
0
    1040
1.5707963267949
    1040
0.5
    1040
0.5
    1070
0
    1040
0.5
    1070
0
    1002
}
    1000
LeadOut
    1002
{
    1070
0
    1040
0
    1040
0
    1040
0
    1070
0
    1002
}
    1000
IsFill
    1070
0
    1000
PathStart
    1040
0
    1000
ToolCompensation
    1002
{
    1070
0
    1040
0
    1070
0
    1002
}
       0
CIRCLE
       5
2089
     100
AcDbEntity
       8
1
     100
AcDbCircle
      10
130
      20
-130
      30
0
      40
4.00000000000003
    1001
FS_CYPCUT
    1000
Channel
    1070
1
    1000
LeadIn
    1002
{
    1070
3
    1040
0
    1040
1.5707963267949
    1040
0.5
    1040
0.5
    1070
0
    1040
0.5
    1070
0
    1002
}
    1000
LeadOut
    1002
{
    1070
0
    1040
0
    1040
0
    1040
0
    1070
0
    1002
}
    1000
IsFill
    1070
0
    1000
PathStart
    1040
0
    1000
ToolCompensation
    1002
{
    1070
0
    1040
0
    1070
0
    1002
}
       0
LWPOLYLINE
       5
208A
     100
AcDbEntity
       8
1
     100
AcDbPolyline
      90
32
      70
1
      10
140
      20
135
      42
0
      10
140
      20
6
      42
-0.414213562373102
      10
138
      20
4.00000000000003
      42
0
      10
130
      20
4
      42
1
      10
130
      20
-3.99999999999999
      42
0
      10
138
      20
-4
      42
-0.414213562373104
      10
140
      20
-6
      42
0
      10
140
      20
-135
      42
-0.414213562373098
      10
135
      20
-140
      42
0
      10
6
      20
-140
      42
-0.414213562373079
      10
4
      20
-138
      42
0
      10
4
      20
-130
      42
1
      10
-4
      20
-130
      42
0
      10
-4
      20
-138
      42
-0.414213562373101
      10
-6
      20
-140
      42
0
      10
-135
      20
-140
      42
-0.414213562373099
      10
-140
      20
-135
      42
0
      10
-140
      20
-6
      42
-0.414213562373104
      10
-138
      20
-4
      42
0
      10
-130
      20
-4
      42
1
      10
-130
      20
4
      42
0
      10
-138
      20
4
      42
-0.414213562373101
      10
-140
      20
6
      42
0
      10
-140
      20
135
      42
-0.414213562373098
      10
-135
      20
140
      42
0
      10
-6
      20
140
      42
-0.414213562373102
      10
-4
      20
138
      42
0
      10
-4
      20
130
      42
1
      10
4
      20
130
      42
0
      10
4
      20
138
      42
-0.414213562373101
      10
6
      20
140
      42
0
      10
135
      20
140
      42
-0.414213562373098
    1001
FS_CYPCUT
    1000
Channel
    1070
1
    1000
LeadIn
    1002
{
    1070
3
    1040
0.5
    1040
1.5707963267949
    1040
0.5
    1040
0.5
    1070
0
    1040
0.5
    1070
0
    1002
}
    1000
LeadOut
    1002
{
    1070
0
    1040
0
    1040
0
    1040
0
    1070
0
    1002
}
    1000
IsFill
    1070
1
    1000
PathStart
    1040
0.5
    1000
ToolCompensation
    1002
{
    1070
0
    1040
0
    1070
0
    1002
}
    1000
MicroConnect
    1002
{
    1070
2
    1040
0.261234008
    1041
0.8
    1042
0
    1040
16.5753451
    1041
0.8
    1042
0
    1002
}
       0
ENDBLK
       5
208B
     330
200F
     100
AcDbEntity
       8
0
     100
AcDbBlockEnd
       0
BLOCK
       5
208C
     330
2010
     100
AcDbEntity
       8
0
     100
AcDbBlockBegin
       2
Part1895945434
      70
0
      10
-2.84217094E-14
      20
0
      30
0
       3
Part1895945434
       1

       4
CypCutBlock
       0
LWPOLYLINE
       5
208D
     100
AcDbEntity
       8
1
     100
AcDbPolyline
      90
4
      70
1
      10
51.7
      20
43.8726390728
      42
1
      10
38.7
      20
43.8726390728
      42
0
      10
38.7
      20
17.8726390728
      42
1
      10
51.7
      20
17.8726390728
      42
0
    1001
FS_CYPCUT
    1000
Channel
    1070
1
    1000
LeadIn
    1002
{
    1070
3
    1040
1.5
    1040
1.5707963267949
    1040
2
    1040
1
    1070
0
    1040
0.5
    1070
0
    1002
}
    1000
LeadOut
    1002
{
    1070
0
    1040
0
    1040
0
    1040
0
    1070
0
    1002
}
    1000
IsFill
    1070
0
    1000
PathStart
    1040
1.5
    1000
ToolCompensation
    1002
{
    1070
0
    1040
0
    1070
0
    1002
}
       0
LWPOLYLINE
       5
208E
     100
AcDbEntity
       8
1
     100
AcDbPolyline
      90
4
      70
1
      10
201.3
      20
43.8726390728
      42
0
      10
201.3
      20
17.8726390728
      42
-1
      10
188.3
      20
17.8726390728
      42
0
      10
188.3
      20
43.8726390728
      42
-1
    1001
FS_CYPCUT
    1000
Channel
    1070
1
    1000
LeadIn
    1002
{
    1070
3
    1040
0.5
    1040
1.5707963267949
    1040
2
    1040
1
    1070
0
    1040
0.5
    1070
0
    1002
}
    1000
LeadOut
    1002
{
    1070
0
    1040
0
    1040
0
    1040
0
    1070
0
    1002
}
    1000
IsFill
    1070
0
    1000
PathStart
    1040
0.5
    1000
ToolCompensation
    1002
{
    1070
0
    1040
0
    1070
0
    1002
}
       0
CIRCLE
       5
208F
     100
AcDbEntity
       8
1
     100
AcDbCircle
      10
225
      20
186.8726390728
      30
0
      40
6.50000000000003
    1001
FS_CYPCUT
    1000
Channel
    1070
1
    1000
LeadIn
    1002
{
    1070
3
    1040
0
    1040
1.5707963267949
    1040
2
    1040
1
    1070
0
    1040
0.5
    1070
0
    1002
}
    1000
LeadOut
    1002
{
    1070
0
    1040
0
    1040
0
    1040
0
    1070
0
    1002
}
    1000
IsFill
    1070
0
    1000
PathStart
    1040
0
    1000
ToolCompensation
    1002
{
    1070
0
    1040
0
    1070
0
    1002
}
       0
CIRCLE
       5
2090
     100
AcDbEntity
       8
1
     100
AcDbCircle
      10
15
      20
186.8726390728
      30
0
      40
6.5
    1001
FS_CYPCUT
    1000
Channel
    1070
1
    1000
LeadIn
    1002
{
    1070
3
    1040
1.11022302462516E-16
    1040
1.5707963267949
    1040
2
    1040
1
    1070
0
    1040
0.5
    1070
0
    1002
}
    1000
LeadOut
    1002
{
    1070
0
    1040
0
    1040
0
    1040
0
    1070
0
    1002
}
    1000
IsFill
    1070
0
    1000
PathStart
    1040
1.11022302462516E-16
    1000
ToolCompensation
    1002
{
    1070
0
    1040
0
    1070
0
    1002
}
       0
LWPOLYLINE
       5
2091
     100
AcDbEntity
       8
1
     100
AcDbPolyline
      90
4
      70
1
      10
51.6999999999998
      20
355.8726390728
      42
1
      10
38.7
      20
355.8726390728
      42
0
      10
38.7000000000002
      20
329.8726390728
      42
1
      10
51.6999999999998
      20
329.8726390728
      42
0
    1001
FS_CYPCUT
    1000
Channel
    1070
1
    1000
LeadIn
    1002
{
    1070
3
    1040
1.5
    1040
1.5707963267949
    1040
2
    1040
1
    1070
0
    1040
0.5
    1070
0
    1002
}
    1000
LeadOut
    1002
{
    1070
0
    1040
0
    1040
0
    1040
0
    1070
0
    1002
}
    1000
IsFill
    1070
0
    1000
PathStart
    1040
1.5
    1000
ToolCompensation
    1002
{
    1070
0
    1040
0
    1070
0
    1002
}
       0
LWPOLYLINE
       5
2092
     100
AcDbEntity
       8
1
     100
AcDbPolyline
      90
4
      70
1
      10
201.3
      20
355.8726390728
      42
1
      10
188.3
      20
355.8726390728
      42
0
      10
188.3
      20
329.8726390728
      42
1
      10
201.3
      20
329.8726390728
      42
0
    1001
FS_CYPCUT
    1000
Channel
    1070
1
    1000
LeadIn
    1002
{
    1070
3
    1040
1.5
    1040
1.5707963267949
    1040
2
    1040
1
    1070
0
    1040
0.5
    1070
0
    1002
}
    1000
LeadOut
    1002
{
    1070
0
    1040
0
    1040
0
    1040
0
    1070
0
    1002
}
    1000
IsFill
    1070
0
    1000
PathStart
    1040
1.5
    1000
ToolCompensation
    1002
{
    1070
0
    1040
0
    1070
0
    1002
}
       0
LWPOLYLINE
       5
2093
     100
AcDbEntity
       8
1
     100
AcDbPolyline
      90
8
      70
1
      10
240
      20
363.7452781457
      42
0.414213562373098
      10
230
      20
373.7452781457
      42
0
      10
10
      20
373.7452781457
      42
0.4142135623731
      10
0
      20
363.7452781457
      42
0
      10
0
      20
10
      42
0.414213562373095
      10
10
      20
2.8421709430404E-14
      42
0
      10
230
      20
0
      42
0.414213562373095
      10
240
      20
10
      42
0
    1001
FS_CYPCUT
    1000
Channel
    1070
1
    1000
LeadIn
    1002
{
    1070
3
    1040
3.5
    1040
1.5707963267949
    1040
2
    1040
1
    1070
0
    1040
0.5
    1070
0
    1002
}
    1000
LeadOut
    1002
{
    1070
0
    1040
0
    1040
0
    1040
0
    1070
0
    1002
}
    1000
IsFill
    1070
1
    1000
PathStart
    1040
3.5
    1000
ToolCompensation
    1002
{
    1070
0
    1040
0
    1070
0
    1002
}
    1000
MicroConnect
    1002
{
    1070
4
    1040
1.49452567
    1041
0.8
    1042
0
    1040
3.48586554
    1041
0.8
    1042
0
    1040
5.5
    1041
0.8
    1042
0
    1040
7.5
    1041
0.8
    1042
0
    1002
}
       0
ENDBLK
       5
2094
     330
2010
     100
AcDbEntity
       8
0
     100
AcDbBlockEnd
       0
BLOCK
       5
2095
     330
2011
     100
AcDbEntity
       8
0
     100
AcDbBlockBegin
       2
Part698766921
      70
0
      10
-2.84217094E-14
      20
0
      30
0
       3
Part698766921
       1

       4
CypCutBlock
       0
LWPOLYLINE
       5
2096
     100
AcDbEntity
       8
1
     100
AcDbPolyline
      90
4
      70
1
      10
51.7
      20
43.8726390728
      42
1
      10
38.7
      20
43.8726390728
      42
0
      10
38.7
      20
17.8726390728
      42
1
      10
51.7
      20
17.8726390728
      42
0
    1001
FS_CYPCUT
    1000
Channel
    1070
1
    1000
LeadIn
    1002
{
    1070
3
    1040
1.5
    1040
1.5707963267949
    1040
2
    1040
1
    1070
0
    1040
0.5
    1070
0
    1002
}
    1000
LeadOut
    1002
{
    1070
0
    1040
0
    1040
0
    1040
0
    1070
0
    1002
}
    1000
IsFill
    1070
0
    1000
PathStart
    1040
1.5
    1000
ToolCompensation
    1002
{
    1070
0
    1040
0
    1070
0
    1002
}
       0
LWPOLYLINE
       5
2097
     100
AcDbEntity
       8
1
     100
AcDbPolyline
      90
4
      70
1
      10
201.3
      20
43.8726390728
      42
0
      10
201.3
      20
17.8726390728
      42
-1
      10
188.3
      20
17.8726390728
      42
0
      10
188.3
      20
43.8726390728
      42
-1
    1001
FS_CYPCUT
    1000
Channel
    1070
1
    1000
LeadIn
    1002
{
    1070
3
    1040
0.5
    1040
1.5707963267949
    1040
2
    1040
1
    1070
0
    1040
0.5
    1070
0
    1002
}
    1000
LeadOut
    1002
{
    1070
0
    1040
0
    1040
0
    1040
0
    1070
0
    1002
}
    1000
IsFill
    1070
0
    1000
PathStart
    1040
0.5
    1000
ToolCompensation
    1002
{
    1070
0
    1040
0
    1070
0
    1002
}
       0
CIRCLE
       5
2098
     100
AcDbEntity
       8
1
     100
AcDbCircle
      10
225
      20
186.8726390728
      30
0
      40
6.50000000000003
    1001
FS_CYPCUT
    1000
Channel
    1070
1
    1000
LeadIn
    1002
{
    1070
3
    1040
0
    1040
1.5707963267949
    1040
2
    1040
1
    1070
0
    1040
0.5
    1070
0
    1002
}
    1000
LeadOut
    1002
{
    1070
0
    1040
0
    1040
0
    1040
0
    1070
0
    1002
}
    1000
IsFill
    1070
0
    1000
PathStart
    1040
0
    1000
ToolCompensation
    1002
{
    1070
0
    1040
0
    1070
0
    1002
}
       0
CIRCLE
       5
2099
     100
AcDbEntity
       8
1
     100
AcDbCircle
      10
15
      20
186.8726390728
      30
0
      40
6.5
    1001
FS_CYPCUT
    1000
Channel
    1070
1
    1000
LeadIn
    1002
{
    1070
3
    1040
1.11022302462516E-16
    1040
1.5707963267949
    1040
2
    1040
1
    1070
0
    1040
0.5
    1070
0
    1002
}
    1000
LeadOut
    1002
{
    1070
0
    1040
0
    1040
0
    1040
0
    1070
0
    1002
}
    1000
IsFill
    1070
0
    1000
PathStart
    1040
1.11022302462516E-16
    1000
ToolCompensation
    1002
{
    1070
0
    1040
0
    1070
0
    1002
}
       0
LWPOLYLINE
       5
209A
     100
AcDbEntity
       8
1
     100
AcDbPolyline
      90
4
      70
1
      10
51.6999999999998
      20
355.8726390728
      42
1
      10
38.7
      20
355.8726390728
      42
0
      10
38.7000000000002
      20
329.8726390728
      42
1
      10
51.6999999999998
      20
329.8726390728
      42
0
    1001
FS_CYPCUT
    1000
Channel
    1070
1
    1000
LeadIn
    1002
{
    1070
3
    1040
1.5
    1040
1.5707963267949
    1040
2
    1040
1
    1070
0
    1040
0.5
    1070
0
    1002
}
    1000
LeadOut
    1002
{
    1070
0
    1040
0
    1040
0
    1040
0
    1070
0
    1002
}
    1000
IsFill
    1070
0
    1000
PathStart
    1040
1.5
    1000
ToolCompensation
    1002
{
    1070
0
    1040
0
    1070
0
    1002
}
       0
LWPOLYLINE
       5
209B
     100
AcDbEntity
       8
1
     100
AcDbPolyline
      90
4
      70
1
      10
201.3
      20
355.8726390728
      42
1
      10
188.3
      20
355.8726390728
      42
0
      10
188.3
      20
329.8726390728
      42
1
      10
201.3
      20
329.8726390728
      42
0
    1001
FS_CYPCUT
    1000
Channel
    1070
1
    1000
LeadIn
    1002
{
    1070
3
    1040
1.5
    1040
1.5707963267949
    1040
2
    1040
1
    1070
0
    1040
0.5
    1070
0
    1002
}
    1000
LeadOut
    1002
{
    1070
0
    1040
0
    1040
0
    1040
0
    1070
0
    1002
}
    1000
IsFill
    1070
0
    1000
PathStart
    1040
1.5
    1000
ToolCompensation
    1002
{
    1070
0
    1040
0
    1070
0
    1002
}
       0
LWPOLYLINE
       5
209C
     100
AcDbEntity
       8
1
     100
AcDbPolyline
      90
8
      70
1
      10
240
      20
363.7452781457
      42
0.414213562373098
      10
230
      20
373.7452781457
      42
0
      10
10
      20
373.7452781457
      42
0.4142135623731
      10
0
      20
363.7452781457
      42
0
      10
0
      20
10
      42
0.414213562373095
      10
10
      20
2.8421709430404E-14
      42
0
      10
230
      20
0
      42
0.414213562373095
      10
240
      20
10
      42
0
    1001
FS_CYPCUT
    1000
Channel
    1070
1
    1000
LeadIn
    1002
{
    1070
3
    1040
3.5
    1040
1.5707963267949
    1040
2
    1040
1
    1070
0
    1040
0.5
    1070
0
    1002
}
    1000
LeadOut
    1002
{
    1070
0
    1040
0
    1040
0
    1040
0
    1070
0
    1002
}
    1000
IsFill
    1070
1
    1000
PathStart
    1040
3.5
    1000
ToolCompensation
    1002
{
    1070
0
    1040
0
    1070
0
    1002
}
    1000
MicroConnect
    1002
{
    1070
4
    1040
1.49452567
    1041
0.8
    1042
0
    1040
3.48586554
    1041
0.8
    1042
0
    1040
5.5
    1041
0.8
    1042
0
    1040
7.5
    1041
0.8
    1042
0
    1002
}
       0
ENDBLK
       5
209D
     330
2011
     100
AcDbEntity
       8
0
     100
AcDbBlockEnd
       0
BLOCK
       5
209E
     330
2012
     100
AcDbEntity
       8
0
     100
AcDbBlockBegin
       2
Part1199781597
      70
0
      10
-52.5
      20
-52.5
      30
0
       3
Part1199781597
       1

       4
CypCutBlock
       0
LWPOLYLINE
       5
209F
     100
AcDbEntity
       8
1
     100
AcDbPolyline
      90
4
      70
1
      10
-27.7316512478498
      20
-26.4167658707002
      42
-0.999999999999999
      10
-33.8137888583502
      20
-32.2105213096998
      42
-0.119322089535575
      10
-44.8020241525075
      20
-13.1783394947193
      42
-1
      10
-36.7434159537708
      20
-10.8079315342134
      42
0.119322089535575
    1001
FS_CYPCUT
    1000
Channel
    1070
1
    1000
LeadIn
    1002
{
    1070
0
    1040
0
    1040
0
    1040
0
    1040
0
    1070
0
    1040
0
    1070
0
    1002
}
    1000
LeadOut
    1002
{
    1070
0
    1040
0
    1040
0
    1040
0
    1070
0
    1002
}
    1000
IsFill
    1070
0
    1000
PathStart
    1040
0
    1000
ToolCompensation
    1002
{
    1070
0
    1040
0
    1070
0
    1002
}
       0
CIRCLE
       5
20A0
     100
AcDbEntity
       8
1
     100
AcDbCircle
      10
0
      20
0
      30
0
      40
17.5
    1001
FS_CYPCUT
    1000
Channel
    1070
1
    1000
LeadIn
    1002
{
    1070
0
    1040
0
    1040
0
    1040
0
    1040
0
    1070
0
    1040
0
    1070
0
    1002
}
    1000
LeadOut
    1002
{
    1070
0
    1040
0
    1040
0
    1040
0
    1070
0
    1002
}
    1000
IsFill
    1070
1
    1000
PathStart
    1040
0
    1000
ToolCompensation
    1002
{
    1070
0
    1040
0
    1070
0
    1002
}
    1000
MicroConnect
    1002
{
    1070
1
    1040
0.254789171
    1041
0.8
    1042
0
    1002
}
       0
CIRCLE
       5
20A1
     100
AcDbEntity
       8
2
     100
AcDbCircle
      10
0
      20
0
      30
0
      40
31
    1001
FS_CYPCUT
    1000
Channel
    1070
2
    1000
LeadIn
    1002
{
    1070
0
    1040
0
    1040
0
    1040
0
    1040
0
    1070
0
    1040
0
    1070
0
    1002
}
    1000
LeadOut
    1002
{
    1070
0
    1040
0
    1040
0
    1040
0
    1070
0
    1002
}
    1000
IsFill
    1070
0
    1000
PathStart
    1040
0
    1000
ToolCompensation
    1002
{
    1070
0
    1040
0
    1070
0
    1002
}
       0
LWPOLYLINE
       5
20A2
     100
AcDbEntity
       8
1
     100
AcDbPolyline
      90
4
      70
1
      10
10.988235294131
      20
45.3888608043951
      42
0.119322089535575
      10
-10.988235294131
      20
45.3888608043951
      42
0.999999999999999
      10
-9.01176470588113
      20
37.2246974048471
      42
-0.119322089535575
      10
9.01176470589348
      20
37.2246974048899
      42
1
    1001
FS_CYPCUT
    1000
Channel
    1070
1
    1000
LeadIn
    1002
{
    1070
0
    1040
0
    1040
0
    1040
0
    1040
0
    1070
0
    1040
0
    1070
0
    1002
}
    1000
LeadOut
    1002
{
    1070
0
    1040
0
    1040
0
    1040
0
    1070
0
    1002
}
    1000
IsFill
    1070
0
    1000
PathStart
    1040
0
    1000
ToolCompensation
    1002
{
    1070
0
    1040
0
    1070
0
    1002
}
       0
LWPOLYLINE
       5
20A3
     100
AcDbEntity
       8
1
     100
AcDbPolyline
      90
4
      70
1
      10
44.802024152469
      20
-13.1783394947531
      42
0.999999999999999
      10
36.743415953731
      20
-10.8079315342469
      42
-0.119322089535575
      10
27.7316512478765
      20
-26.4167658706766
      42
1
      10
33.8137888583763
      20
-32.2105213096756
      42
0.119322089535575
    1001
FS_CYPCUT
    1000
Channel
    1070
1
    1000
LeadIn
    1002
{
    1070
0
    1040
0
    1040
0
    1040
0
    1040
0
    1070
0
    1040
0
    1070
0
    1002
}
    1000
LeadOut
    1002
{
    1070
0
    1040
0
    1040
0
    1040
0
    1070
0
    1002
}
    1000
IsFill
    1070
0
    1000
PathStart
    1040
0
    1000
ToolCompensation
    1002
{
    1070
0
    1040
0
    1070
0
    1002
}
       0
CIRCLE
       5
20A4
     100
AcDbEntity
       8
1
     100
AcDbCircle
      10
0
      20
0
      30
0
      40
52.5
    1001
FS_CYPCUT
    1000
Channel
    1070
1
    1000
LeadIn
    1002
{
    1070
0
    1040
0
    1040
0
    1040
0
    1040
0
    1070
0
    1040
0
    1070
0
    1002
}
    1000
LeadOut
    1002
{
    1070
0
    1040
0
    1040
0
    1040
0
    1070
0
    1002
}
    1000
IsFill
    1070
1
    1000
PathStart
    1040
0
    1000
ToolCompensation
    1002
{
    1070
0
    1040
0
    1070
0
    1002
}
    1000
MicroConnect
    1002
{
    1070
2
    1040
0.238714823
    1041
0.8
    1042
0
    1040
0.760594652
    1041
0.8
    1042
0
    1002
}
       0
ENDBLK
       5
20A5
     330
2012
     100
AcDbEntity
       8
0
     100
AcDbBlockEnd
       0
BLOCK
       5
20A6
     330
2013
     100
AcDbEntity
       8
0
     100
AcDbBlockBegin
       2
Part1710243644
      70
0
      10
-140
      20
-140
      30
0
       3
Part1710243644
       1

       4
CypCutBlock
       0
CIRCLE
       5
20A7
     100
AcDbEntity
       8
1
     100
AcDbCircle
      10
-130
      20
-130
      30
0
      40
4
    1001
FS_CYPCUT
    1000
Channel
    1070
1
    1000
LeadIn
    1002
{
    1070
3
    1040
0
    1040
1.5707963267949
    1040
0.5
    1040
0.5
    1070
0
    1040
0.5
    1070
0
    1002
}
    1000
LeadOut
    1002
{
    1070
0
    1040
0
    1040
0
    1040
0
    1070
0
    1002
}
    1000
IsFill
    1070
0
    1000
PathStart
    1040
0
    1000
ToolCompensation
    1002
{
    1070
0
    1040
0
    1070
0
    1002
}
       0
CIRCLE
       5
20A8
     100
AcDbEntity
       8
1
     100
AcDbCircle
      10
-85
      20
-130
      30
0
      40
3.99999999999997
    1001
FS_CYPCUT
    1000
Channel
    1070
1
    1000
LeadIn
    1002
{
    1070
3
    1040
0
    1040
1.5707963267949
    1040
0.5
    1040
0.5
    1070
0
    1040
0.5
    1070
0
    1002
}
    1000
LeadOut
    1002
{
    1070
0
    1040
0
    1040
0
    1040
0
    1070
0
    1002
}
    1000
IsFill
    1070
0
    1000
PathStart
    1040
0
    1000
ToolCompensation
    1002
{
    1070
0
    1040
0
    1070
0
    1002
}
       0
CIRCLE
       5
20A9
     100
AcDbEntity
       8
1
     100
AcDbCircle
      10
-130
      20
-85
      30
0
      40
3.99999999999999
    1001
FS_CYPCUT
    1000
Channel
    1070
1
    1000
LeadIn
    1002
{
    1070
3
    1040
0
    1040
1.5707963267949
    1040
0.5
    1040
0.5
    1070
0
    1040
0.5
    1070
0
    1002
}
    1000
LeadOut
    1002
{
    1070
0
    1040
0
    1040
0
    1040
0
    1070
0
    1002
}
    1000
IsFill
    1070
0
    1000
PathStart
    1040
0
    1000
ToolCompensation
    1002
{
    1070
0
    1040
0
    1070
0
    1002
}
       0
CIRCLE
       5
20AA
     100
AcDbEntity
       8
1
     100
AcDbCircle
      10
-130
      20
85
      30
0
      40
4
    1001
FS_CYPCUT
    1000
Channel
    1070
1
    1000
LeadIn
    1002
{
    1070
3
    1040
0
    1040
1.5707963267949
    1040
0.5
    1040
0.5
    1070
0
    1040
0.5
    1070
0
    1002
}
    1000
LeadOut
    1002
{
    1070
0
    1040
0
    1040
0
    1040
0
    1070
0
    1002
}
    1000
IsFill
    1070
0
    1000
PathStart
    1040
0
    1000
ToolCompensation
    1002
{
    1070
0
    1040
0
    1070
0
    1002
}
       0
CIRCLE
       5
20AB
     100
AcDbEntity
       8
1
     100
AcDbCircle
      10
-130
      20
130
      30
0
      40
4.00000000000009
    1001
FS_CYPCUT
    1000
Channel
    1070
1
    1000
LeadIn
    1002
{
    1070
3
    1040
0
    1040
1.5707963267949
    1040
0.5
    1040
0.5
    1070
0
    1040
0.5
    1070
0
    1002
}
    1000
LeadOut
    1002
{
    1070
0
    1040
0
    1040
0
    1040
0
    1070
0
    1002
}
    1000
IsFill
    1070
0
    1000
PathStart
    1040
1
    1000
ToolCompensation
    1002
{
    1070
0
    1040
0
    1070
0
    1002
}
       0
CIRCLE
       5
20AC
     100
AcDbEntity
       8
1
     100
AcDbCircle
      10
-85
      20
130
      30
0
      40
4.00000000000006
    1001
FS_CYPCUT
    1000
Channel
    1070
1
    1000
LeadIn
    1002
{
    1070
3
    1040
3.88578058618805E-16
    1040
1.5707963267949
    1040
0.5
    1040
0.5
    1070
0
    1040
0.5
    1070
0
    1002
}
    1000
LeadOut
    1002
{
    1070
0
    1040
0
    1040
0
    1040
0
    1070
0
    1002
}
    1000
IsFill
    1070
0
    1000
PathStart
    1040
3.88578058618805E-16
    1000
ToolCompensation
    1002
{
    1070
0
    1040
0
    1070
0
    1002
}
       0
LWPOLYLINE
       5
20AD
     100
AcDbEntity
       8
1
     100
AcDbPolyline
      90
4
      70
1
      10
105
      20
3
      42
0
      10
105
      20
-3
      42
0
      10
102.9563014099
      20
-3
      42
-68.6521004719446
      10
102.9563014099
      20
3
      42
0
    1001
FS_CYPCUT
    1000
Channel
    1070
1
    1000
LeadIn
    1002
{
    1070
3
    1040
0.5
    1040
1.5707963267949
    1040
0.5
    1040
0.5
    1070
0
    1040
0.5
    1070
0
    1002
}
    1000
LeadOut
    1002
{
    1070
0
    1040
0
    1040
0
    1040
0
    1070
0
    1002
}
    1000
IsFill
    1070
0
    1000
PathStart
    1040
0.5
    1000
ToolCompensation
    1002
{
    1070
0
    1040
0
    1070
0
    1002
}
    1000
MicroConnect
    1002
{
    1070
2
    1040
2.36157377
    1041
0.8
    1042
0
    1040
2.85177113
    1041
0.8
    1042
0
    1002
}
       0
CIRCLE
       5
20AE
     100
AcDbEntity
       8
1
     100
AcDbCircle
      10
85
      20
-130
      30
0
      40
3.99999999999992
    1001
FS_CYPCUT
    1000
Channel
    1070
1
    1000
LeadIn
    1002
{
    1070
3
    1040
0
    1040
1.5707963267949
    1040
0.5
    1040
0.5
    1070
0
    1040
0.5
    1070
0
    1002
}
    1000
LeadOut
    1002
{
    1070
0
    1040
0
    1040
0
    1040
0
    1070
0
    1002
}
    1000
IsFill
    1070
0
    1000
PathStart
    1040
0
    1000
ToolCompensation
    1002
{
    1070
0
    1040
0
    1070
0
    1002
}
       0
CIRCLE
       5
20AF
     100
AcDbEntity
       8
1
     100
AcDbCircle
      10
85
      20
130
      30
0
      40
4.00000000000003
    1001
FS_CYPCUT
    1000
Channel
    1070
1
    1000
LeadIn
    1002
{
    1070
3
    1040
0
    1040
1.5707963267949
    1040
0.5
    1040
0.5
    1070
0
    1040
0.5
    1070
0
    1002
}
    1000
LeadOut
    1002
{
    1070
0
    1040
0
    1040
0
    1040
0
    1070
0
    1002
}
    1000
IsFill
    1070
0
    1000
PathStart
    1040
0
    1000
ToolCompensation
    1002
{
    1070
0
    1040
0
    1070
0
    1002
}
       0
CIRCLE
       5
20B0
     100
AcDbEntity
       8
1
     100
AcDbCircle
      10
130
      20
130
      30
0
      40
4.00000000000009
    1001
FS_CYPCUT
    1000
Channel
    1070
1
    1000
LeadIn
    1002
{
    1070
3
    1040
0
    1040
1.5707963267949
    1040
0.5
    1040
0.5
    1070
0
    1040
0.5
    1070
0
    1002
}
    1000
LeadOut
    1002
{
    1070
0
    1040
0
    1040
0
    1040
0
    1070
0
    1002
}
    1000
IsFill
    1070
0
    1000
PathStart
    1040
0
    1000
ToolCompensation
    1002
{
    1070
0
    1040
0
    1070
0
    1002
}
       0
CIRCLE
       5
20B1
     100
AcDbEntity
       8
1
     100
AcDbCircle
      10
130
      20
85
      30
0
      40
3.99999999999999
    1001
FS_CYPCUT
    1000
Channel
    1070
1
    1000
LeadIn
    1002
{
    1070
3
    1040
0
    1040
1.5707963267949
    1040
0.5
    1040
0.5
    1070
0
    1040
0.5
    1070
0
    1002
}
    1000
LeadOut
    1002
{
    1070
0
    1040
0
    1040
0
    1040
0
    1070
0
    1002
}
    1000
IsFill
    1070
0
    1000
PathStart
    1040
0
    1000
ToolCompensation
    1002
{
    1070
0
    1040
0
    1070
0
    1002
}
       0
CIRCLE
       5
20B2
     100
AcDbEntity
       8
1
     100
AcDbCircle
      10
130
      20
-85
      30
0
      40
3.99999999999999
    1001
FS_CYPCUT
    1000
Channel
    1070
1
    1000
LeadIn
    1002
{
    1070
3
    1040
0
    1040
1.5707963267949
    1040
0.5
    1040
0.5
    1070
0
    1040
0.5
    1070
0
    1002
}
    1000
LeadOut
    1002
{
    1070
0
    1040
0
    1040
0
    1040
0
    1070
0
    1002
}
    1000
IsFill
    1070
0
    1000
PathStart
    1040
0
    1000
ToolCompensation
    1002
{
    1070
0
    1040
0
    1070
0
    1002
}
       0
CIRCLE
       5
20B3
     100
AcDbEntity
       8
1
     100
AcDbCircle
      10
130
      20
-130
      30
0
      40
4.00000000000003
    1001
FS_CYPCUT
    1000
Channel
    1070
1
    1000
LeadIn
    1002
{
    1070
3
    1040
0
    1040
1.5707963267949
    1040
0.5
    1040
0.5
    1070
0
    1040
0.5
    1070
0
    1002
}
    1000
LeadOut
    1002
{
    1070
0
    1040
0
    1040
0
    1040
0
    1070
0
    1002
}
    1000
IsFill
    1070
0
    1000
PathStart
    1040
0
    1000
ToolCompensation
    1002
{
    1070
0
    1040
0
    1070
0
    1002
}
       0
LWPOLYLINE
       5
20B4
     100
AcDbEntity
       8
1
     100
AcDbPolyline
      90
32
      70
1
      10
140
      20
135
      42
0
      10
140
      20
6
      42
-0.414213562373102
      10
138
      20
4.00000000000003
      42
0
      10
130
      20
4
      42
1
      10
130
      20
-3.99999999999999
      42
0
      10
138
      20
-4
      42
-0.414213562373104
      10
140
      20
-6
      42
0
      10
140
      20
-135
      42
-0.414213562373098
      10
135
      20
-140
      42
0
      10
6
      20
-140
      42
-0.414213562373079
      10
4
      20
-138
      42
0
      10
4
      20
-130
      42
1
      10
-4
      20
-130
      42
0
      10
-4
      20
-138
      42
-0.414213562373101
      10
-6
      20
-140
      42
0
      10
-135
      20
-140
      42
-0.414213562373099
      10
-140
      20
-135
      42
0
      10
-140
      20
-6
      42
-0.414213562373104
      10
-138
      20
-4
      42
0
      10
-130
      20
-4
      42
1
      10
-130
      20
4
      42
0
      10
-138
      20
4
      42
-0.414213562373101
      10
-140
      20
6
      42
0
      10
-140
      20
135
      42
-0.414213562373098
      10
-135
      20
140
      42
0
      10
-6
      20
140
      42
-0.414213562373102
      10
-4
      20
138
      42
0
      10
-4
      20
130
      42
1
      10
4
      20
130
      42
0
      10
4
      20
138
      42
-0.414213562373101
      10
6
      20
140
      42
0
      10
135
      20
140
      42
-0.414213562373098
    1001
FS_CYPCUT
    1000
Channel
    1070
1
    1000
LeadIn
    1002
{
    1070
3
    1040
0.5
    1040
1.5707963267949
    1040
0.5
    1040
0.5
    1070
0
    1040
0.5
    1070
0
    1002
}
    1000
LeadOut
    1002
{
    1070
0
    1040
0
    1040
0
    1040
0
    1070
0
    1002
}
    1000
IsFill
    1070
1
    1000
PathStart
    1040
0.5
    1000
ToolCompensation
    1002
{
    1070
0
    1040
0
    1070
0
    1002
}
    1000
MicroConnect
    1002
{
    1070
2
    1040
0.261234008
    1041
0.8
    1042
0
    1040
16.5753451
    1041
0.8
    1042
0
    1002
}
       0
ENDBLK
       5
20B5
     330
2013
     100
AcDbEntity
       8
0
     100
AcDbBlockEnd
       0
BLOCK
       5
20B6
     330
2014
     100
AcDbEntity
       8
0
     100
AcDbBlockBegin
       2
Part1804624321
      70
0
      10
0
      20
-6
      30
0
       3
Part1804624321
       1

       4
CypCutBlock
       0
LWPOLYLINE
       5
20B7
     100
AcDbEntity
       8
1
     100
AcDbPolyline
      90
6
      70
1
      10
84
      20
70.125
      42
0.693000468164478
      10
82.2465753425
      20
70.7825342466
      42
0
      10
41.1193026151661
      20
23.6575342465758
      42
0.643913270326977
      10
41.8727272727
      20
22
      42
0
      10
83
      20
22
      42
0.414213562373103
      10
84
      20
23
      42
0
    1001
FS_CYPCUT
    1000
Channel
    1070
1
    1000
LeadIn
    1002
{
    1070
3
    1040
1.5
    1040
1.5707963267949
    1040
0.5
    1040
0.5
    1070
0
    1040
0.5
    1070
0
    1002
}
    1000
LeadOut
    1002
{
    1070
0
    1040
0
    1040
0
    1040
0
    1070
0
    1002
}
    1000
IsFill
    1070
0
    1000
PathStart
    1040
1.5
    1000
ToolCompensation
    1002
{
    1070
0
    1040
0
    1070
0
    1002
}
    1000
MicroConnect
    1002
{
    1070
1
    1040
1.48880481
    1041
0.5
    1042
0
    1002
}
       0
LWPOLYLINE
       5
20B8
     100
AcDbEntity
       8
1
     100
AcDbPolyline
      90
14
      70
1
      10
106
      20
119
      42
0.414213562373103
      10
105
      20
120
      42
0
      10
96.4545454545
      20
120
      42
0.216609194718751
      10
95.7011207969662
      20
119.657534246576
      42
0
      10
0.2465753425
      20
10.2825342466
      42
0.181334581772657
      10
0
      20
9.625
      42
0
      10
0
      20
1
      42
0.414213562373095
      10
1
      20
0
      42
0
      10
41
      20
0
      42
0
      10
41
      20
-6
      42
0
      10
59
      20
-6
      42
0
      10
59
      20
0
      42
0
      10
105
      20
0
      42
0.414213562373106
      10
106
      20
1
      42
0
    1001
FS_CYPCUT
    1000
Channel
    1070
1
    1000
LeadIn
    1002
{
    1070
3
    1040
3.50344422700587
    1040
1.5707963267949
    1040
0.5
    1040
0.5
    1070
0
    1040
0.5
    1070
0
    1002
}
    1000
LeadOut
    1002
{
    1070
0
    1040
0
    1040
0
    1040
0
    1070
0
    1002
}
    1000
IsFill
    1070
1
    1000
PathStart
    1040
3.5
    1000
ToolCompensation
    1002
{
    1070
0
    1040
0
    1070
0
    1002
}
    1000
MicroConnect
    1002
{
    1070
2
    1040
3.5
    1041
0.5
    1042
0
    1040
11.8093319
    1041
0.5
    1042
0
    1002
}
       0
ENDBLK
       5
20B9
     330
2014
     100
AcDbEntity
       8
0
     100
AcDbBlockEnd
       0
BLOCK
       5
20BA
     330
2015
     100
AcDbEntity
       8
0
     100
AcDbBlockBegin
       2
Part859905715
      70
0
      10
-52.5
      20
-52.5
      30
0
       3
Part859905715
       1

       4
CypCutBlock
       0
CIRCLE
       5
20BB
     100
AcDbEntity
       8
1
     100
AcDbCircle
      10
-36.8060796608
      20
-21.25
      30
0
      40
4.2
    1001
FS_CYPCUT
    1000
Channel
    1070
1
    1000
LeadIn
    1002
{
    1070
0
    1040
0
    1040
0
    1040
0
    1040
0
    1070
0
    1040
0
    1070
0
    1002
}
    1000
LeadOut
    1002
{
    1070
0
    1040
0
    1040
0
    1040
0
    1070
0
    1002
}
    1000
IsFill
    1070
0
    1000
PathStart
    1040
0
    1000
ToolCompensation
    1002
{
    1070
0
    1040
0
    1070
0
    1002
}
       0
CIRCLE
       5
20BC
     100
AcDbEntity
       8
1
     100
AcDbCircle
      10
0
      20
0
      30
0
      40
26
    1001
FS_CYPCUT
    1000
Channel
    1070
1
    1000
LeadIn
    1002
{
    1070
0
    1040
0
    1040
0
    1040
0
    1040
0
    1070
0
    1040
0
    1070
0
    1002
}
    1000
LeadOut
    1002
{
    1070
0
    1040
0
    1040
0
    1040
0
    1070
0
    1002
}
    1000
IsFill
    1070
1
    1000
PathStart
    1040
0
    1000
ToolCompensation
    1002
{
    1070
0
    1040
0
    1070
0
    1002
}
    1000
MicroConnect
    1002
{
    1070
1
    1040
0.265378327
    1041
0.8
    1042
0
    1002
}
       0
CIRCLE
       5
20BD
     100
AcDbEntity
       8
2
     100
AcDbCircle
      10
0
      20
0
      30
0
      40
31
    1001
FS_CYPCUT
    1000
Channel
    1070
2
    1000
LeadIn
    1002
{
    1070
0
    1040
0
    1040
0
    1040
0
    1040
0
    1070
0
    1040
0
    1070
0
    1002
}
    1000
LeadOut
    1002
{
    1070
0
    1040
0
    1040
0
    1040
0
    1070
0
    1002
}
    1000
IsFill
    1070
0
    1000
PathStart
    1040
0
    1000
ToolCompensation
    1002
{
    1070
0
    1040
0
    1070
0
    1002
}
       0
CIRCLE
       5
20BE
     100
AcDbEntity
       8
1
     100
AcDbCircle
      10
0
      20
42.5
      30
0
      40
4.2
    1001
FS_CYPCUT
    1000
Channel
    1070
1
    1000
LeadIn
    1002
{
    1070
0
    1040
0
    1040
0
    1040
0
    1040
0
    1070
0
    1040
0
    1070
0
    1002
}
    1000
LeadOut
    1002
{
    1070
0
    1040
0
    1040
0
    1040
0
    1070
0
    1002
}
    1000
IsFill
    1070
0
    1000
PathStart
    1040
0
    1000
ToolCompensation
    1002
{
    1070
0
    1040
0
    1070
0
    1002
}
       0
CIRCLE
       5
20BF
     100
AcDbEntity
       8
1
     100
AcDbCircle
      10
36.8060796608
      20
-21.25
      30
0
      40
4.2
    1001
FS_CYPCUT
    1000
Channel
    1070
1
    1000
LeadIn
    1002
{
    1070
0
    1040
0
    1040
0
    1040
0
    1040
0
    1070
0
    1040
0
    1070
0
    1002
}
    1000
LeadOut
    1002
{
    1070
0
    1040
0
    1040
0
    1040
0
    1070
0
    1002
}
    1000
IsFill
    1070
0
    1000
PathStart
    1040
0
    1000
ToolCompensation
    1002
{
    1070
0
    1040
0
    1070
0
    1002
}
       0
CIRCLE
       5
20C0
     100
AcDbEntity
       8
1
     100
AcDbCircle
      10
0
      20
0
      30
0
      40
52.5
    1001
FS_CYPCUT
    1000
Channel
    1070
1
    1000
LeadIn
    1002
{
    1070
0
    1040
0
    1040
0
    1040
0
    1040
0
    1070
0
    1040
0
    1070
0
    1002
}
    1000
LeadOut
    1002
{
    1070
0
    1040
0
    1040
0
    1040
0
    1070
0
    1002
}
    1000
IsFill
    1070
1
    1000
PathStart
    1040
0
    1000
ToolCompensation
    1002
{
    1070
0
    1040
0
    1070
0
    1002
}
    1000
MicroConnect
    1002
{
    1070
2
    1040
0.26733588
    1041
0.8
    1042
0
    1040
0.754725985
    1041
0.8
    1042
0
    1002
}
       0
ENDBLK
       5
20C1
     330
2015
     100
AcDbEntity
       8
0
     100
AcDbBlockEnd
       0
BLOCK
       5
20C2
     330
2016
     100
AcDbEntity
       8
0
     100
AcDbBlockBegin
       2
Part907485242
      70
0
      10
-140
      20
-35
      30
0
       3
Part907485242
       1

       4
CypCutBlock
       0
CIRCLE
       5
20C3
     100
AcDbEntity
       8
1
     100
AcDbCircle
      10
-132.75
      20
-11.5
      30
0
      40
2.64999999999998
    1001
FS_CYPCUT
    1000
Channel
    1070
1
    1000
LeadIn
    1002
{
    1070
3
    1040
5.82867087928207E-16
    1040
1.5707963267949
    1040
0.5
    1040
0.3
    1070
0
    1040
0.5
    1070
0
    1002
}
    1000
LeadOut
    1002
{
    1070
0
    1040
0
    1040
0
    1040
0
    1070
0
    1002
}
    1000
IsFill
    1070
0
    1000
PathStart
    1040
5.82867087928207E-16
    1000
ToolCompensation
    1002
{
    1070
0
    1040
0
    1070
0
    1002
}
       0
CIRCLE
       5
20C4
     100
AcDbEntity
       8
1
     100
AcDbCircle
      10
-132.75
      20
11.5
      30
0
      40
2.64999999999998
    1001
FS_CYPCUT
    1000
Channel
    1070
1
    1000
LeadIn
    1002
{
    1070
3
    1040
5.82867087928207E-16
    1040
1.5707963267949
    1040
0.5
    1040
0.3
    1070
0
    1040
0.5
    1070
0
    1002
}
    1000
LeadOut
    1002
{
    1070
0
    1040
0
    1040
0
    1040
0
    1070
0
    1002
}
    1000
IsFill
    1070
0
    1000
PathStart
    1040
5.82867087928207E-16
    1000
ToolCompensation
    1002
{
    1070
0
    1040
0
    1070
0
    1002
}
       0
LWPOLYLINE
       5
20C5
     100
AcDbEntity
       8
1
     100
AcDbPolyline
      90
8
      70
1
      10
-60.5
      20
4
      42
0
      10
-60.5
      20
-4
      42
-0.414213562373093
      10
-62.5
      20
-6
      42
0
      10
-118.5
      20
-6.00000000000003
      42
-0.414213562373098
      10
-120.5
      20
-4
      42
0
      10
-120.5
      20
4
      42
-0.414213562373098
      10
-118.5
      20
6.00000000000003
      42
0
      10
-62.5
      20
6
      42
-0.414213562373093
    1001
FS_CYPCUT
    1000
Channel
    1070
1
    1000
LeadIn
    1002
{
    1070
3
    1040
2.5
    1040
1.5707963267949
    1040
0.5
    1040
0.3
    1070
0
    1040
0.5
    1070
0
    1002
}
    1000
LeadOut
    1002
{
    1070
0
    1040
0
    1040
0
    1040
0
    1070
0
    1002
}
    1000
IsFill
    1070
0
    1000
PathStart
    1040
2.5
    1000
ToolCompensation
    1002
{
    1070
0
    1040
0
    1070
0
    1002
}
       0
LWPOLYLINE
       5
20C6
     100
AcDbEntity
       8
1
     100
AcDbPolyline
      90
4
      70
1
      10
-16.25
      20
-14
      42
0.999999999999999
      10
-23.75
      20
-14
      42
0
      10
-23.75
      20
-26
      42
1
      10
-16.25
      20
-26
      42
0
    1001
FS_CYPCUT
    1000
Channel
    1070
1
    1000
LeadIn
    1002
{
    1070
3
    1040
1.5
    1040
1.5707963267949
    1040
0.5
    1040
0.3
    1070
0
    1040
0.5
    1070
0
    1002
}
    1000
LeadOut
    1002
{
    1070
0
    1040
0
    1040
0
    1040
0
    1070
0
    1002
}
    1000
IsFill
    1070
0
    1000
PathStart
    1040
1.5
    1000
ToolCompensation
    1002
{
    1070
0
    1040
0
    1070
0
    1002
}
       0
LWPOLYLINE
       5
20C7
     100
AcDbEntity
       8
1
     100
AcDbPolyline
      90
4
      70
1
      10
-16.25
      20
26
      42
1
      10
-23.75
      20
26
      42
0
      10
-23.75
      20
14
      42
1
      10
-16.25
      20
14
      42
0
    1001
FS_CYPCUT
    1000
Channel
    1070
1
    1000
LeadIn
    1002
{
    1070
3
    1040
1.5
    1040
1.5707963267949
    1040
0.5
    1040
0.3
    1070
0
    1040
0.5
    1070
0
    1002
}
    1000
LeadOut
    1002
{
    1070
0
    1040
0
    1040
0
    1040
0
    1070
0
    1002
}
    1000
IsFill
    1070
0
    1000
PathStart
    1040
1.5
    1000
ToolCompensation
    1002
{
    1070
0
    1040
0
    1070
0
    1002
}
       0
LWPOLYLINE
       5
20C8
     100
AcDbEntity
       8
1
     100
AcDbPolyline
      90
4
      70
1
      10
15
      20
7.5
      42
0
      10
15
      20
-7.5
      42
-1
      10
-15
      20
-7.49999999999999
      42
0
      10
-15
      20
7.5
      42
-1
    1001
FS_CYPCUT
    1000
Channel
    1070
1
    1000
LeadIn
    1002
{
    1070
3
    1040
1.5
    1040
1.5707963267949
    1040
0.5
    1040
0.3
    1070
0
    1040
0.5
    1070
0
    1002
}
    1000
LeadOut
    1002
{
    1070
0
    1040
0
    1040
0
    1040
0
    1070
0
    1002
}
    1000
IsFill
    1070
0
    1000
PathStart
    1040
1.5
    1000
ToolCompensation
    1002
{
    1070
0
    1040
0
    1070
0
    1002
}
       0
LWPOLYLINE
       5
20C9
     100
AcDbEntity
       8
1
     100
AcDbPolyline
      90
4
      70
1
      10
23.75
      20
-14
      42
0.999999999999999
      10
16.25
      20
-14
      42
0
      10
16.25
      20
-26
      42
1
      10
23.75
      20
-26
      42
0
    1001
FS_CYPCUT
    1000
Channel
    1070
1
    1000
LeadIn
    1002
{
    1070
3
    1040
1.5
    1040
1.5707963267949
    1040
0.5
    1040
0.3
    1070
0
    1040
0.5
    1070
0
    1002
}
    1000
LeadOut
    1002
{
    1070
0
    1040
0
    1040
0
    1040
0
    1070
0
    1002
}
    1000
IsFill
    1070
0
    1000
PathStart
    1040
1.5
    1000
ToolCompensation
    1002
{
    1070
0
    1040
0
    1070
0
    1002
}
       0
LWPOLYLINE
       5
20CA
     100
AcDbEntity
       8
1
     100
AcDbPolyline
      90
4
      70
1
      10
23.75
      20
26
      42
1
      10
16.25
      20
26
      42
0
      10
16.25
      20
14
      42
1
      10
23.75
      20
14
      42
0
    1001
FS_CYPCUT
    1000
Channel
    1070
1
    1000
LeadIn
    1002
{
    1070
3
    1040
1.5
    1040
1.5707963267949
    1040
0.5
    1040
0.3
    1070
0
    1040
0.5
    1070
0
    1002
}
    1000
LeadOut
    1002
{
    1070
0
    1040
0
    1040
0
    1040
0
    1070
0
    1002
}
    1000
IsFill
    1070
0
    1000
PathStart
    1040
1.5
    1000
ToolCompensation
    1002
{
    1070
0
    1040
0
    1070
0
    1002
}
       0
LWPOLYLINE
       5
20CB
     100
AcDbEntity
       8
1
     100
AcDbPolyline
      90
8
      70
1
      10
120.5
      20
4
      42
0
      10
120.5
      20
-4
      42
-0.414213562373098
      10
118.5
      20
-6
      42
0
      10
62.5
      20
-6
      42
-0.414213562373091
      10
60.5
      20
-4
      42
0
      10
60.5
      20
4
      42
-0.414213562373093
      10
62.5
      20
6
      42
0
      10
118.5
      20
6
      42
-0.414213562373098
    1001
FS_CYPCUT
    1000
Channel
    1070
1
    1000
LeadIn
    1002
{
    1070
3
    1040
2.5
    1040
1.5707963267949
    1040
0.5
    1040
0.3
    1070
0
    1040
0.5
    1070
0
    1002
}
    1000
LeadOut
    1002
{
    1070
0
    1040
0
    1040
0
    1040
0
    1070
0
    1002
}
    1000
IsFill
    1070
0
    1000
PathStart
    1040
2.5
    1000
ToolCompensation
    1002
{
    1070
0
    1040
0
    1070
0
    1002
}
       0
CIRCLE
       5
20CC
     100
AcDbEntity
       8
1
     100
AcDbCircle
      10
132.75
      20
-11.5
      30
0
      40
2.64999999999998
    1001
FS_CYPCUT
    1000
Channel
    1070
1
    1000
LeadIn
    1002
{
    1070
3
    1040
5.82867087928207E-16
    1040
1.5707963267949
    1040
0.5
    1040
0.3
    1070
0
    1040
0.5
    1070
0
    1002
}
    1000
LeadOut
    1002
{
    1070
0
    1040
0
    1040
0
    1040
0
    1070
0
    1002
}
    1000
IsFill
    1070
0
    1000
PathStart
    1040
5.82867087928207E-16
    1000
ToolCompensation
    1002
{
    1070
0
    1040
0
    1070
0
    1002
}
       0
CIRCLE
       5
20CD
     100
AcDbEntity
       8
1
     100
AcDbCircle
      10
132.75
      20
11.5
      30
0
      40
2.64999999999998
    1001
FS_CYPCUT
    1000
Channel
    1070
1
    1000
LeadIn
    1002
{
    1070
3
    1040
5.82867087928207E-16
    1040
1.5707963267949
    1040
0.5
    1040
0.3
    1070
0
    1040
0.5
    1070
0
    1002
}
    1000
LeadOut
    1002
{
    1070
0
    1040
0
    1040
0
    1040
0
    1070
0
    1002
}
    1000
IsFill
    1070
0
    1000
PathStart
    1040
5.82867087928207E-16
    1000
ToolCompensation
    1002
{
    1070
0
    1040
0
    1070
0
    1002
}
       0
LWPOLYLINE
       5
20CE
     100
AcDbEntity
       8
1
     100
AcDbPolyline
      90
32
      70
1
      10
140
      20
19.25
      42
0
      10
140
      20
-19.25
      42
-0.414213562373099
      10
139
      20
-20.25
      42
0
      10
126.5
      20
-20.25
      42
-0.414213562373103
      10
125.5
      20
-19.25
      42
0
      10
125.5
      20
-16.5
      42
0
      10
49.5
      20
-16.5
      42
0
      10
49.5
      20
-25
      42
-0.414213562373095
      10
39.5
      20
-35
      42
0
      10
-39.5
      20
-35
      42
-0.414213562373095
      10
-49.5
      20
-25
      42
0
      10
-49.5
      20
-16.5
      42
0
      10
-125.5
      20
-16.5
      42
0
      10
-125.5
      20
-19.25
      42
-0.414213562373093
      10
-126.5
      20
-20.25
      42
0
      10
-139
      20
-20.25
      42
-0.41421356237311
      10
-140
      20
-19.25
      42
0
      10
-140
      20
19.25
      42
-0.414213562373099
      10
-139
      20
20.25
      42
0
      10
-126.5
      20
20.25
      42
-0.414213562373103
      10
-125.5
      20
19.25
      42
0
      10
-125.5
      20
16.5
      42
0
      10
-49.5
      20
16.5
      42
0
      10
-49.5
      20
25
      42
-0.414213562373095
      10
-39.5
      20
35
      42
0
      10
39.5
      20
35
      42
-0.414213562373095
      10
49.5
      20
25
      42
0
      10
49.5
      20
16.5
      42
0
      10
125.5
      20
16.5
      42
0
      10
125.5
      20
19.25
      42
-0.414213562373093
      10
126.5
      20
20.25
      42
0
      10
139
      20
20.25
      42
-0.41421356237311
    1001
FS_CYPCUT
    1000
Channel
    1070
1
    1000
LeadIn
    1002
{
    1070
3
    1040
8.5
    1040
1.5707963267949
    1040
0.5
    1040
0.3
    1070
0
    1040
0.5
    1070
0
    1002
}
    1000
LeadOut
    1002
{
    1070
0
    1040
0
    1040
0
    1040
0
    1070
0
    1002
}
    1000
IsFill
    1070
1
    1000
PathStart
    1040
8.5
    1000
ToolCompensation
    1002
{
    1070
0
    1040
0
    1070
0
    1002
}
    1000
MicroConnect
    1002
{
    1070
2
    1040
5.50207444
    1041
0.8
    1042
0
    1040
21.4481389
    1041
0.8
    1042
0
    1002
}
       0
ENDBLK
       5
20CF
     330
2016
     100
AcDbEntity
       8
0
     100
AcDbBlockEnd
       0
BLOCK
       5
20D0
     330
2017
     100
AcDbEntity
       8
0
     100
AcDbBlockBegin
       2
Part104379096
      70
0
      10
-140
      20
-35
      30
0
       3
Part104379096
       1

       4
CypCutBlock
       0
CIRCLE
       5
20D1
     100
AcDbEntity
       8
1
     100
AcDbCircle
      10
-132.75
      20
-11.5
      30
0
      40
2.64999999999998
    1001
FS_CYPCUT
    1000
Channel
    1070
1
    1000
LeadIn
    1002
{
    1070
3
    1040
5.82867087928207E-16
    1040
1.5707963267949
    1040
0.5
    1040
0.3
    1070
0
    1040
0.5
    1070
0
    1002
}
    1000
LeadOut
    1002
{
    1070
0
    1040
0
    1040
0
    1040
0
    1070
0
    1002
}
    1000
IsFill
    1070
0
    1000
PathStart
    1040
5.82867087928207E-16
    1000
ToolCompensation
    1002
{
    1070
0
    1040
0
    1070
0
    1002
}
       0
CIRCLE
       5
20D2
     100
AcDbEntity
       8
1
     100
AcDbCircle
      10
-132.75
      20
11.5
      30
0
      40
2.64999999999998
    1001
FS_CYPCUT
    1000
Channel
    1070
1
    1000
LeadIn
    1002
{
    1070
3
    1040
5.82867087928207E-16
    1040
1.5707963267949
    1040
0.5
    1040
0.3
    1070
0
    1040
0.5
    1070
0
    1002
}
    1000
LeadOut
    1002
{
    1070
0
    1040
0
    1040
0
    1040
0
    1070
0
    1002
}
    1000
IsFill
    1070
0
    1000
PathStart
    1040
5.82867087928207E-16
    1000
ToolCompensation
    1002
{
    1070
0
    1040
0
    1070
0
    1002
}
       0
LWPOLYLINE
       5
20D3
     100
AcDbEntity
       8
1
     100
AcDbPolyline
      90
8
      70
1
      10
-60.5
      20
4
      42
0
      10
-60.5
      20
-4
      42
-0.414213562373093
      10
-62.5
      20
-6
      42
0
      10
-118.5
      20
-6.00000000000003
      42
-0.414213562373098
      10
-120.5
      20
-4
      42
0
      10
-120.5
      20
4
      42
-0.414213562373098
      10
-118.5
      20
6.00000000000003
      42
0
      10
-62.5
      20
6
      42
-0.414213562373093
    1001
FS_CYPCUT
    1000
Channel
    1070
1
    1000
LeadIn
    1002
{
    1070
3
    1040
2.5
    1040
1.5707963267949
    1040
0.5
    1040
0.3
    1070
0
    1040
0.5
    1070
0
    1002
}
    1000
LeadOut
    1002
{
    1070
0
    1040
0
    1040
0
    1040
0
    1070
0
    1002
}
    1000
IsFill
    1070
0
    1000
PathStart
    1040
2.5
    1000
ToolCompensation
    1002
{
    1070
0
    1040
0
    1070
0
    1002
}
       0
LWPOLYLINE
       5
20D4
     100
AcDbEntity
       8
1
     100
AcDbPolyline
      90
4
      70
1
      10
-16.25
      20
-14
      42
0.999999999999999
      10
-23.75
      20
-14
      42
0
      10
-23.75
      20
-26
      42
1
      10
-16.25
      20
-26
      42
0
    1001
FS_CYPCUT
    1000
Channel
    1070
1
    1000
LeadIn
    1002
{
    1070
3
    1040
1.5
    1040
1.5707963267949
    1040
0.5
    1040
0.3
    1070
0
    1040
0.5
    1070
0
    1002
}
    1000
LeadOut
    1002
{
    1070
0
    1040
0
    1040
0
    1040
0
    1070
0
    1002
}
    1000
IsFill
    1070
0
    1000
PathStart
    1040
1.5
    1000
ToolCompensation
    1002
{
    1070
0
    1040
0
    1070
0
    1002
}
       0
LWPOLYLINE
       5
20D5
     100
AcDbEntity
       8
1
     100
AcDbPolyline
      90
4
      70
1
      10
-16.25
      20
26
      42
1
      10
-23.75
      20
26
      42
0
      10
-23.75
      20
14
      42
1
      10
-16.25
      20
14
      42
0
    1001
FS_CYPCUT
    1000
Channel
    1070
1
    1000
LeadIn
    1002
{
    1070
3
    1040
1.5
    1040
1.5707963267949
    1040
0.5
    1040
0.3
    1070
0
    1040
0.5
    1070
0
    1002
}
    1000
LeadOut
    1002
{
    1070
0
    1040
0
    1040
0
    1040
0
    1070
0
    1002
}
    1000
IsFill
    1070
0
    1000
PathStart
    1040
1.5
    1000
ToolCompensation
    1002
{
    1070
0
    1040
0
    1070
0
    1002
}
       0
LWPOLYLINE
       5
20D6
     100
AcDbEntity
       8
1
     100
AcDbPolyline
      90
4
      70
1
      10
15
      20
7.5
      42
0
      10
15
      20
-7.5
      42
-1
      10
-15
      20
-7.49999999999999
      42
0
      10
-15
      20
7.5
      42
-1
    1001
FS_CYPCUT
    1000
Channel
    1070
1
    1000
LeadIn
    1002
{
    1070
3
    1040
1.5
    1040
1.5707963267949
    1040
0.5
    1040
0.3
    1070
0
    1040
0.5
    1070
0
    1002
}
    1000
LeadOut
    1002
{
    1070
0
    1040
0
    1040
0
    1040
0
    1070
0
    1002
}
    1000
IsFill
    1070
0
    1000
PathStart
    1040
1.5
    1000
ToolCompensation
    1002
{
    1070
0
    1040
0
    1070
0
    1002
}
       0
LWPOLYLINE
       5
20D7
     100
AcDbEntity
       8
1
     100
AcDbPolyline
      90
4
      70
1
      10
23.75
      20
-14
      42
0.999999999999999
      10
16.25
      20
-14
      42
0
      10
16.25
      20
-26
      42
1
      10
23.75
      20
-26
      42
0
    1001
FS_CYPCUT
    1000
Channel
    1070
1
    1000
LeadIn
    1002
{
    1070
3
    1040
1.5
    1040
1.5707963267949
    1040
0.5
    1040
0.3
    1070
0
    1040
0.5
    1070
0
    1002
}
    1000
LeadOut
    1002
{
    1070
0
    1040
0
    1040
0
    1040
0
    1070
0
    1002
}
    1000
IsFill
    1070
0
    1000
PathStart
    1040
1.5
    1000
ToolCompensation
    1002
{
    1070
0
    1040
0
    1070
0
    1002
}
       0
LWPOLYLINE
       5
20D8
     100
AcDbEntity
       8
1
     100
AcDbPolyline
      90
4
      70
1
      10
23.75
      20
26
      42
1
      10
16.25
      20
26
      42
0
      10
16.25
      20
14
      42
1
      10
23.75
      20
14
      42
0
    1001
FS_CYPCUT
    1000
Channel
    1070
1
    1000
LeadIn
    1002
{
    1070
3
    1040
1.5
    1040
1.5707963267949
    1040
0.5
    1040
0.3
    1070
0
    1040
0.5
    1070
0
    1002
}
    1000
LeadOut
    1002
{
    1070
0
    1040
0
    1040
0
    1040
0
    1070
0
    1002
}
    1000
IsFill
    1070
0
    1000
PathStart
    1040
1.5
    1000
ToolCompensation
    1002
{
    1070
0
    1040
0
    1070
0
    1002
}
       0
LWPOLYLINE
       5
20D9
     100
AcDbEntity
       8
1
     100
AcDbPolyline
      90
8
      70
1
      10
120.5
      20
4
      42
0
      10
120.5
      20
-4
      42
-0.414213562373098
      10
118.5
      20
-6
      42
0
      10
62.5
      20
-6
      42
-0.414213562373091
      10
60.5
      20
-4
      42
0
      10
60.5
      20
4
      42
-0.414213562373093
      10
62.5
      20
6
      42
0
      10
118.5
      20
6
      42
-0.414213562373098
    1001
FS_CYPCUT
    1000
Channel
    1070
1
    1000
LeadIn
    1002
{
    1070
3
    1040
2.5
    1040
1.5707963267949
    1040
0.5
    1040
0.3
    1070
0
    1040
0.5
    1070
0
    1002
}
    1000
LeadOut
    1002
{
    1070
0
    1040
0
    1040
0
    1040
0
    1070
0
    1002
}
    1000
IsFill
    1070
0
    1000
PathStart
    1040
2.5
    1000
ToolCompensation
    1002
{
    1070
0
    1040
0
    1070
0
    1002
}
       0
CIRCLE
       5
20DA
     100
AcDbEntity
       8
1
     100
AcDbCircle
      10
132.75
      20
-11.5
      30
0
      40
2.64999999999998
    1001
FS_CYPCUT
    1000
Channel
    1070
1
    1000
LeadIn
    1002
{
    1070
3
    1040
5.82867087928207E-16
    1040
1.5707963267949
    1040
0.5
    1040
0.3
    1070
0
    1040
0.5
    1070
0
    1002
}
    1000
LeadOut
    1002
{
    1070
0
    1040
0
    1040
0
    1040
0
    1070
0
    1002
}
    1000
IsFill
    1070
0
    1000
PathStart
    1040
5.82867087928207E-16
    1000
ToolCompensation
    1002
{
    1070
0
    1040
0
    1070
0
    1002
}
       0
CIRCLE
       5
20DB
     100
AcDbEntity
       8
1
     100
AcDbCircle
      10
132.75
      20
11.5
      30
0
      40
2.64999999999998
    1001
FS_CYPCUT
    1000
Channel
    1070
1
    1000
LeadIn
    1002
{
    1070
3
    1040
5.82867087928207E-16
    1040
1.5707963267949
    1040
0.5
    1040
0.3
    1070
0
    1040
0.5
    1070
0
    1002
}
    1000
LeadOut
    1002
{
    1070
0
    1040
0
    1040
0
    1040
0
    1070
0
    1002
}
    1000
IsFill
    1070
0
    1000
PathStart
    1040
5.82867087928207E-16
    1000
ToolCompensation
    1002
{
    1070
0
    1040
0
    1070
0
    1002
}
       0
LWPOLYLINE
       5
20DC
     100
AcDbEntity
       8
1
     100
AcDbPolyline
      90
32
      70
1
      10
140
      20
19.25
      42
0
      10
140
      20
-19.25
      42
-0.414213562373099
      10
139
      20
-20.25
      42
0
      10
126.5
      20
-20.25
      42
-0.414213562373103
      10
125.5
      20
-19.25
      42
0
      10
125.5
      20
-16.5
      42
0
      10
49.5
      20
-16.5
      42
0
      10
49.5
      20
-25
      42
-0.414213562373095
      10
39.5
      20
-35
      42
0
      10
-39.5
      20
-35
      42
-0.414213562373095
      10
-49.5
      20
-25
      42
0
      10
-49.5
      20
-16.5
      42
0
      10
-125.5
      20
-16.5
      42
0
      10
-125.5
      20
-19.25
      42
-0.414213562373093
      10
-126.5
      20
-20.25
      42
0
      10
-139
      20
-20.25
      42
-0.41421356237311
      10
-140
      20
-19.25
      42
0
      10
-140
      20
19.25
      42
-0.414213562373099
      10
-139
      20
20.25
      42
0
      10
-126.5
      20
20.25
      42
-0.414213562373103
      10
-125.5
      20
19.25
      42
0
      10
-125.5
      20
16.5
      42
0
      10
-49.5
      20
16.5
      42
0
      10
-49.5
      20
25
      42
-0.414213562373095
      10
-39.5
      20
35
      42
0
      10
39.5
      20
35
      42
-0.414213562373095
      10
49.5
      20
25
      42
0
      10
49.5
      20
16.5
      42
0
      10
125.5
      20
16.5
      42
0
      10
125.5
      20
19.25
      42
-0.414213562373093
      10
126.5
      20
20.25
      42
0
      10
139
      20
20.25
      42
-0.41421356237311
    1001
FS_CYPCUT
    1000
Channel
    1070
1
    1000
LeadIn
    1002
{
    1070
3
    1040
8.5
    1040
1.5707963267949
    1040
0.5
    1040
0.3
    1070
0
    1040
0.5
    1070
0
    1002
}
    1000
LeadOut
    1002
{
    1070
0
    1040
0
    1040
0
    1040
0
    1070
0
    1002
}
    1000
IsFill
    1070
1
    1000
PathStart
    1040
8.5
    1000
ToolCompensation
    1002
{
    1070
0
    1040
0
    1070
0
    1002
}
    1000
MicroConnect
    1002
{
    1070
2
    1040
5.50207444
    1041
0.8
    1042
0
    1040
21.4481389
    1041
0.8
    1042
0
    1002
}
       0
ENDBLK
       5
20DD
     330
2017
     100
AcDbEntity
       8
0
     100
AcDbBlockEnd
       0
BLOCK
       5
20DE
     330
2018
     100
AcDbEntity
       8
0
     100
AcDbBlockBegin
       2
Part747724658
      70
0
      10
-75
      20
-15
      30
0
       3
Part747724658
       1

       4
CypCutBlock
       0
CIRCLE
       5
20DF
     100
AcDbEntity
       8
1
     100
AcDbCircle
      10
-60
      20
0
      30
0
      40
5
    1001
FS_CYPCUT
    1000
Channel
    1070
1
    1000
LeadIn
    1002
{
    1070
3
    1040
0
    1040
1.5707963267949
    1040
1
    1040
1
    1070
0
    1040
0.5
    1070
0
    1002
}
    1000
LeadOut
    1002
{
    1070
0
    1040
0
    1040
0
    1040
0
    1070
0
    1002
}
    1000
IsFill
    1070
0
    1000
PathStart
    1040
0
    1000
ToolCompensation
    1002
{
    1070
0
    1040
0
    1070
0
    1002
}
       0
LWPOLYLINE
       5
20E0
     100
AcDbEntity
       8
1
     100
AcDbPolyline
      90
4
      70
1
      10
-26.65
      20
1.1
      42
0
      10
-36.85
      20
1.1
      42
0
      10
-36.85
      20
-1.1
      42
0
      10
-26.65
      20
-1.1
      42
0
    1001
FS_CYPCUT
    1000
Channel
    1070
1
    1000
LeadIn
    1002
{
    1070
3
    1040
0.5
    1040
1.5707963267949
    1040
1
    1040
1
    1070
0
    1040
0.5
    1070
0
    1002
}
    1000
LeadOut
    1002
{
    1070
0
    1040
0
    1040
0
    1040
0
    1070
0
    1002
}
    1000
IsFill
    1070
0
    1000
PathStart
    1040
0.5
    1000
ToolCompensation
    1002
{
    1070
0
    1040
0
    1070
0
    1002
}
       0
LWPOLYLINE
       5
20E1
     100
AcDbEntity
       8
1
     100
AcDbPolyline
      90
4
      70
1
      10
36.85
      20
1.1
      42
0
      10
26.65
      20
1.1
      42
0
      10
26.65
      20
-1.1
      42
0
      10
36.85
      20
-1.1
      42
0
    1001
FS_CYPCUT
    1000
Channel
    1070
1
    1000
LeadIn
    1002
{
    1070
3
    1040
0.5
    1040
1.5707963267949
    1040
1
    1040
1
    1070
0
    1040
0.5
    1070
0
    1002
}
    1000
LeadOut
    1002
{
    1070
0
    1040
0
    1040
0
    1040
0
    1070
0
    1002
}
    1000
IsFill
    1070
0
    1000
PathStart
    1040
0.5
    1000
ToolCompensation
    1002
{
    1070
0
    1040
0
    1070
0
    1002
}
       0
CIRCLE
       5
20E2
     100
AcDbEntity
       8
1
     100
AcDbCircle
      10
60
      20
0
      30
0
      40
5.00000000000001
    1001
FS_CYPCUT
    1000
Channel
    1070
1
    1000
LeadIn
    1002
{
    1070
3
    1040
0
    1040
1.5707963267949
    1040
1
    1040
1
    1070
0
    1040
0.5
    1070
0
    1002
}
    1000
LeadOut
    1002
{
    1070
0
    1040
0
    1040
0
    1040
0
    1070
0
    1002
}
    1000
IsFill
    1070
0
    1000
PathStart
    1040
1
    1000
ToolCompensation
    1002
{
    1070
0
    1040
0
    1070
0
    1002
}
       0
LWPOLYLINE
       5
20E3
     100
AcDbEntity
       8
1
     100
AcDbPolyline
      90
8
      70
1
      10
75
      20
7
      42
0.414213562373095
      10
67
      20
15
      42
0
      10
-67
      20
15
      42
0.414213562373095
      10
-75
      20
7
      42
0
      10
-75
      20
-7
      42
0.414213562373095
      10
-67
      20
-15
      42
0
      10
67
      20
-15
      42
0.414213562373096
      10
75
      20
-7
      42
0
    1001
FS_CYPCUT
    1000
Channel
    1070
1
    1000
LeadIn
    1002
{
    1070
3
    1040
1.5
    1040
1.5707963267949
    1040
1
    1040
1
    1070
0
    1040
0.5
    1070
0
    1002
}
    1000
LeadOut
    1002
{
    1070
0
    1040
0
    1040
0
    1040
0
    1070
0
    1002
}
    1000
IsFill
    1070
1
    1000
PathStart
    1040
1.5
    1000
ToolCompensation
    1002
{
    1070
0
    1040
0
    1070
0
    1002
}
    1000
MicroConnect
    1002
{
    1070
1
    1040
1.5600346
    1041
0.8
    1042
0
    1002
}
       0
ENDBLK
       5
20E4
     330
2018
     100
AcDbEntity
       8
0
     100
AcDbBlockEnd
       0
BLOCK
       5
20E5
     330
2019
     100
AcDbEntity
       8
0
     100
AcDbBlockBegin
       2
Part434246320
      70
0
      10
-75
      20
-15
      30
0
       3
Part434246320
       1

       4
CypCutBlock
       0
CIRCLE
       5
20E6
     100
AcDbEntity
       8
1
     100
AcDbCircle
      10
-60
      20
0
      30
0
      40
5
    1001
FS_CYPCUT
    1000
Channel
    1070
1
    1000
LeadIn
    1002
{
    1070
3
    1040
0
    1040
1.5707963267949
    1040
1
    1040
1
    1070
0
    1040
0.5
    1070
0
    1002
}
    1000
LeadOut
    1002
{
    1070
0
    1040
0
    1040
0
    1040
0
    1070
0
    1002
}
    1000
IsFill
    1070
0
    1000
PathStart
    1040
0
    1000
ToolCompensation
    1002
{
    1070
0
    1040
0
    1070
0
    1002
}
       0
LWPOLYLINE
       5
20E7
     100
AcDbEntity
       8
1
     100
AcDbPolyline
      90
4
      70
1
      10
-26.65
      20
1.1
      42
0
      10
-36.85
      20
1.1
      42
0
      10
-36.85
      20
-1.1
      42
0
      10
-26.65
      20
-1.1
      42
0
    1001
FS_CYPCUT
    1000
Channel
    1070
1
    1000
LeadIn
    1002
{
    1070
3
    1040
0.5
    1040
1.5707963267949
    1040
1
    1040
1
    1070
0
    1040
0.5
    1070
0
    1002
}
    1000
LeadOut
    1002
{
    1070
0
    1040
0
    1040
0
    1040
0
    1070
0
    1002
}
    1000
IsFill
    1070
0
    1000
PathStart
    1040
0.5
    1000
ToolCompensation
    1002
{
    1070
0
    1040
0
    1070
0
    1002
}
       0
LWPOLYLINE
       5
20E8
     100
AcDbEntity
       8
1
     100
AcDbPolyline
      90
4
      70
1
      10
36.85
      20
1.1
      42
0
      10
26.65
      20
1.1
      42
0
      10
26.65
      20
-1.1
      42
0
      10
36.85
      20
-1.1
      42
0
    1001
FS_CYPCUT
    1000
Channel
    1070
1
    1000
LeadIn
    1002
{
    1070
3
    1040
0.5
    1040
1.5707963267949
    1040
1
    1040
1
    1070
0
    1040
0.5
    1070
0
    1002
}
    1000
LeadOut
    1002
{
    1070
0
    1040
0
    1040
0
    1040
0
    1070
0
    1002
}
    1000
IsFill
    1070
0
    1000
PathStart
    1040
0.5
    1000
ToolCompensation
    1002
{
    1070
0
    1040
0
    1070
0
    1002
}
       0
CIRCLE
       5
20E9
     100
AcDbEntity
       8
1
     100
AcDbCircle
      10
60
      20
0
      30
0
      40
5.00000000000001
    1001
FS_CYPCUT
    1000
Channel
    1070
1
    1000
LeadIn
    1002
{
    1070
3
    1040
0
    1040
1.5707963267949
    1040
1
    1040
1
    1070
0
    1040
0.5
    1070
0
    1002
}
    1000
LeadOut
    1002
{
    1070
0
    1040
0
    1040
0
    1040
0
    1070
0
    1002
}
    1000
IsFill
    1070
0
    1000
PathStart
    1040
1
    1000
ToolCompensation
    1002
{
    1070
0
    1040
0
    1070
0
    1002
}
       0
LWPOLYLINE
       5
20EA
     100
AcDbEntity
       8
1
     100
AcDbPolyline
      90
8
      70
1
      10
75
      20
7
      42
0.414213562373095
      10
67
      20
15
      42
0
      10
-67
      20
15
      42
0.414213562373095
      10
-75
      20
7
      42
0
      10
-75
      20
-7
      42
0.414213562373095
      10
-67
      20
-15
      42
0
      10
67
      20
-15
      42
0.414213562373096
      10
75
      20
-7
      42
0
    1001
FS_CYPCUT
    1000
Channel
    1070
1
    1000
LeadIn
    1002
{
    1070
3
    1040
1.5
    1040
1.5707963267949
    1040
1
    1040
1
    1070
0
    1040
0.5
    1070
0
    1002
}
    1000
LeadOut
    1002
{
    1070
0
    1040
0
    1040
0
    1040
0
    1070
0
    1002
}
    1000
IsFill
    1070
1
    1000
PathStart
    1040
1.5
    1000
ToolCompensation
    1002
{
    1070
0
    1040
0
    1070
0
    1002
}
    1000
MicroConnect
    1002
{
    1070
1
    1040
1.5600346
    1041
0.8
    1042
0
    1002
}
       0
ENDBLK
       5
20EB
     330
2019
     100
AcDbEntity
       8
0
     100
AcDbBlockEnd
       0
BLOCK
       5
20EC
     330
201A
     100
AcDbEntity
       8
0
     100
AcDbBlockBegin
       2
Part1077194800
      70
0
      10
0
      20
-100
      30
0
       3
Part1077194800
       1

       4
CypCutBlock
       0
LWPOLYLINE
       5
20ED
     100
AcDbEntity
       8
1
     100
AcDbPolyline
      90
4
      70
1
      10
75
      20
-45.5
      42
-1
      10
75
      20
-54.5
      42
0
      10
55
      20
-54.5
      42
-1
      10
55
      20
-45.5
      42
0
    1001
FS_CYPCUT
    1000
Channel
    1070
1
    1000
LeadIn
    1002
{
    1070
3
    1040
1.5
    1040
1.5707963267949
    1040
2
    1040
1
    1070
0
    1040
0.5
    1070
0
    1002
}
    1000
LeadOut
    1002
{
    1070
0
    1040
0
    1040
0
    1040
0
    1070
0
    1002
}
    1000
IsFill
    1070
0
    1000
PathStart
    1040
1.5
    1000
ToolCompensation
    1002
{
    1070
0
    1040
0
    1070
0
    1002
}
       0
LWPOLYLINE
       5
20EE
     100
AcDbEntity
       8
1
     100
AcDbPolyline
      90
8
      70
1
      10
75
      20
20
      42
0.414213562373096
      10
70
      20
25
      42
0
      10
25
      20
25
      42
0.414213562373094
      10
20
      20
20
      42
0
      10
20
      20
-20
      42
0.414213562373095
      10
25
      20
-25
      42
0
      10
70
      20
-25
      42
0.414213562373095
      10
75
      20
-20
      42
0
    1001
FS_CYPCUT
    1000
Channel
    1070
1
    1000
LeadIn
    1002
{
    1070
3
    1040
1.5
    1040
1.5707963267949
    1040
2
    1040
1
    1070
0
    1040
0.5
    1070
0
    1002
}
    1000
LeadOut
    1002
{
    1070
0
    1040
0
    1040
0
    1040
0
    1070
0
    1002
}
    1000
IsFill
    1070
0
    1000
PathStart
    1040
1.5
    1000
ToolCompensation
    1002
{
    1070
0
    1040
0
    1070
0
    1002
}
       0
LWPOLYLINE
       5
20EF
     100
AcDbEntity
       8
1
     100
AcDbPolyline
      90
4
      70
1
      10
75
      20
54.5
      42
-1
      10
75
      20
45.5
      42
0
      10
55
      20
45.5
      42
-1
      10
55
      20
54.5
      42
0
    1001
FS_CYPCUT
    1000
Channel
    1070
1
    1000
LeadIn
    1002
{
    1070
3
    1040
1.5
    1040
1.5707963267949
    1040
2
    1040
1
    1070
0
    1040
0.5
    1070
0
    1002
}
    1000
LeadOut
    1002
{
    1070
0
    1040
0
    1040
0
    1040
0
    1070
0
    1002
}
    1000
IsFill
    1070
0
    1000
PathStart
    1040
1.5
    1000
ToolCompensation
    1002
{
    1070
0
    1040
0
    1070
0
    1002
}
       0
LWPOLYLINE
       5
20F0
     100
AcDbEntity
       8
1
     100
AcDbPolyline
      90
8
      70
1
      10
90
      20
85
      42
0.414213562373095
      10
75
      20
100
      42
0
      10
8
      20
100
      42
0.414213562373096
      10
0
      20
92
      42
0
      10
0
      20
-92
      42
0.414213562373094
      10
8
      20
-100
      42
0
      10
75
      20
-100
      42
0.414213562373095
      10
90
      20
-85
      42
0
    1001
FS_CYPCUT
    1000
Channel
    1070
1
    1000
LeadIn
    1002
{
    1070
3
    1040
3.5
    1040
1.5707963267949
    1040
2
    1040
1
    1070
0
    1040
0.5
    1070
0
    1002
}
    1000
LeadOut
    1002
{
    1070
0
    1040
0
    1040
0
    1040
0
    1070
0
    1002
}
    1000
IsFill
    1070
1
    1000
PathStart
    1040
3.5
    1000
ToolCompensation
    1002
{
    1070
0
    1040
0
    1070
0
    1002
}
    1000
MicroConnect
    1002
{
    1070
2
    1040
3.86850477
    1041
0.6
    1042
0
    1040
7.93711143
    1041
0.6
    1042
0
    1002
}
       0
ENDBLK
       5
20F1
     330
201A
     100
AcDbEntity
       8
0
     100
AcDbBlockEnd
       0
BLOCK
       5
20F2
     330
201B
     100
AcDbEntity
       8
0
     100
AcDbBlockBegin
       2
Part2037184247
      70
0
      10
0
      20
-100
      30
0
       3
Part2037184247
       1

       4
CypCutBlock
       0
LWPOLYLINE
       5
20F3
     100
AcDbEntity
       8
1
     100
AcDbPolyline
      90
4
      70
1
      10
75
      20
-45.5
      42
-1
      10
75
      20
-54.5
      42
0
      10
55
      20
-54.5
      42
-1
      10
55
      20
-45.5
      42
0
    1001
FS_CYPCUT
    1000
Channel
    1070
1
    1000
LeadIn
    1002
{
    1070
3
    1040
1.5
    1040
1.5707963267949
    1040
2
    1040
1
    1070
0
    1040
0.5
    1070
0
    1002
}
    1000
LeadOut
    1002
{
    1070
0
    1040
0
    1040
0
    1040
0
    1070
0
    1002
}
    1000
IsFill
    1070
0
    1000
PathStart
    1040
1.5
    1000
ToolCompensation
    1002
{
    1070
0
    1040
0
    1070
0
    1002
}
       0
LWPOLYLINE
       5
20F4
     100
AcDbEntity
       8
1
     100
AcDbPolyline
      90
8
      70
1
      10
75
      20
20
      42
0.414213562373096
      10
70
      20
25
      42
0
      10
25
      20
25
      42
0.414213562373094
      10
20
      20
20
      42
0
      10
20
      20
-20
      42
0.414213562373095
      10
25
      20
-25
      42
0
      10
70
      20
-25
      42
0.414213562373095
      10
75
      20
-20
      42
0
    1001
FS_CYPCUT
    1000
Channel
    1070
1
    1000
LeadIn
    1002
{
    1070
3
    1040
1.5
    1040
1.5707963267949
    1040
2
    1040
1
    1070
0
    1040
0.5
    1070
0
    1002
}
    1000
LeadOut
    1002
{
    1070
0
    1040
0
    1040
0
    1040
0
    1070
0
    1002
}
    1000
IsFill
    1070
0
    1000
PathStart
    1040
1.5
    1000
ToolCompensation
    1002
{
    1070
0
    1040
0
    1070
0
    1002
}
       0
LWPOLYLINE
       5
20F5
     100
AcDbEntity
       8
1
     100
AcDbPolyline
      90
4
      70
1
      10
75
      20
54.5
      42
-1
      10
75
      20
45.5
      42
0
      10
55
      20
45.5
      42
-1
      10
55
      20
54.5
      42
0
    1001
FS_CYPCUT
    1000
Channel
    1070
1
    1000
LeadIn
    1002
{
    1070
3
    1040
1.5
    1040
1.5707963267949
    1040
2
    1040
1
    1070
0
    1040
0.5
    1070
0
    1002
}
    1000
LeadOut
    1002
{
    1070
0
    1040
0
    1040
0
    1040
0
    1070
0
    1002
}
    1000
IsFill
    1070
0
    1000
PathStart
    1040
1.5
    1000
ToolCompensation
    1002
{
    1070
0
    1040
0
    1070
0
    1002
}
       0
LWPOLYLINE
       5
20F6
     100
AcDbEntity
       8
1
     100
AcDbPolyline
      90
8
      70
1
      10
90
      20
85
      42
0.414213562373095
      10
75
      20
100
      42
0
      10
8
      20
100
      42
0.414213562373096
      10
0
      20
92
      42
0
      10
0
      20
-92
      42
0.414213562373094
      10
8
      20
-100
      42
0
      10
75
      20
-100
      42
0.414213562373095
      10
90
      20
-85
      42
0
    1001
FS_CYPCUT
    1000
Channel
    1070
1
    1000
LeadIn
    1002
{
    1070
3
    1040
3.5
    1040
1.5707963267949
    1040
2
    1040
1
    1070
0
    1040
0.5
    1070
0
    1002
}
    1000
LeadOut
    1002
{
    1070
0
    1040
0
    1040
0
    1040
0
    1070
0
    1002
}
    1000
IsFill
    1070
1
    1000
PathStart
    1040
3.5
    1000
ToolCompensation
    1002
{
    1070
0
    1040
0
    1070
0
    1002
}
    1000
MicroConnect
    1002
{
    1070
2
    1040
3.86850477
    1041
0.6
    1042
0
    1040
7.93711143
    1041
0.6
    1042
0
    1002
}
       0
ENDBLK
       5
20F7
     330
201B
     100
AcDbEntity
       8
0
     100
AcDbBlockEnd
       0
ENDSEC
       0
SECTION
       2
ENTITIES
       0
INSERT
       5
20F8
     100
AcDbEntity
       8
1
     100
AcDbBlockReference
       2
Part
      10
604.265402843602
      20
1393.36496172996
      30
0
      41
1
      42
1
      50
0
    1001
FS_CYPCUT
    1000
Channel
    1070
1
    1000
LeadIn
    1002
{
    1070
0
    1040
0
    1040
0
    1040
0
    1040
0
    1070
0
    1040
0
    1070
0
    1002
}
    1000
LeadOut
    1002
{
    1070
0
    1040
0
    1040
0
    1040
0
    1070
0
    1002
}
       0
INSERT
       5
20F9
     100
AcDbEntity
       8
1
     100
AcDbBlockReference
       2
Part1747968444
      10
645.145202843602
      20
1854.05372893995
      30
0
      41
1
      42
1
      50
0
    1001
FS_CYPCUT
    1000
Channel
    1070
1
    1000
LeadIn
    1002
{
    1070
0
    1040
0
    1040
0
    1040
0
    1040
0
    1070
0
    1040
0
    1070
0
    1002
}
    1000
LeadOut
    1002
{
    1070
0
    1040
0
    1040
0
    1040
0
    1070
0
    1002
}
       0
INSERT
       5
20FA
     100
AcDbEntity
       8
1
     100
AcDbBlockReference
       2
Part318489587
      10
710.265502843602
      20
2019.89662893995
      30
0
      41
1
      42
1
      50
180
    1001
FS_CYPCUT
    1000
Channel
    1070
1
    1000
LeadIn
    1002
{
    1070
0
    1040
0
    1040
0
    1040
0
    1040
0
    1070
0
    1040
0
    1070
0
    1002
}
    1000
LeadOut
    1002
{
    1070
0
    1040
0
    1040
0
    1040
0
    1070
0
    1002
}
       0
INSERT
       5
20FB
     100
AcDbEntity
       8
1
     100
AcDbBlockReference
       2
Part1738942782
      10
604.265502843602
      20
1794.04702893995
      30
0
      41
1
      42
1
      50
0
    1001
FS_CYPCUT
    1000
Channel
    1070
1
    1000
LeadIn
    1002
{
    1070
0
    1040
0
    1040
0
    1040
0
    1040
0
    1070
0
    1040
0
    1070
0
    1002
}
    1000
LeadOut
    1002
{
    1070
0
    1040
0
    1040
0
    1040
0
    1070
0
    1002
}
       0
INSERT
       5
20FC
     100
AcDbEntity
       8
1
     100
AcDbBlockReference
       2
Part178026223
      10
604.265502843602
      20
2127.89662894226
      30
0
      41
1
      42
1
      50
269.999999977959
    1001
FS_CYPCUT
    1000
Channel
    1070
1
    1000
LeadIn
    1002
{
    1070
0
    1040
0
    1040
0
    1040
0
    1040
0
    1070
0
    1040
0
    1070
0
    1002
}
    1000
LeadOut
    1002
{
    1070
0
    1040
0
    1040
0
    1040
0
    1070
0
    1002
}
       0
INSERT
       5
20FD
     100
AcDbEntity
       8
1
     100
AcDbBlockReference
       2
Part1424624934
      10
664.106402843602
      20
1800.55372893995
      30
0
      41
1
      42
1
      50
0
    1001
FS_CYPCUT
    1000
Channel
    1070
1
    1000
LeadIn
    1002
{
    1070
0
    1040
0
    1040
0
    1040
0
    1040
0
    1070
0
    1040
0
    1070
0
    1002
}
    1000
LeadOut
    1002
{
    1070
0
    1040
0
    1040
0
    1040
0
    1070
0
    1002
}
       0
INSERT
       5
20FE
     100
AcDbEntity
       8
1
     100
AcDbBlockReference
       2
Part1690364360
      10
846.581502843602
      20
2065.44942893995
      30
0
      41
1
      42
1
      50
180
    1001
FS_CYPCUT
    1000
Channel
    1070
1
    1000
LeadIn
    1002
{
    1070
0
    1040
0
    1040
0
    1040
0
    1040
0
    1070
0
    1040
0
    1070
0
    1002
}
    1000
LeadOut
    1002
{
    1070
0
    1040
0
    1040
0
    1040
0
    1070
0
    1002
}
       0
INSERT
       5
20FF
     100
AcDbEntity
       8
1
     100
AcDbBlockReference
       2
Part1597006230
      10
748.837702843602
      20
1918.41012893995
      30
0
      41
1
      42
1
      50
0
    1001
FS_CYPCUT
    1000
Channel
    1070
1
    1000
LeadIn
    1002
{
    1070
0
    1040
0
    1040
0
    1040
0
    1040
0
    1070
0
    1040
0
    1070
0
    1002
}
    1000
LeadOut
    1002
{
    1070
0
    1040
0
    1040
0
    1040
0
    1070
0
    1002
}
       0
INSERT
       5
2100
     100
AcDbEntity
       8
1
     100
AcDbBlockReference
       2
Part1307450868
      10
962.837802843601
      20
2057.47412893995
      30
0
      41
1
      42
1
      50
180
    1001
FS_CYPCUT
    1000
Channel
    1070
1
    1000
LeadIn
    1002
{
    1070
0
    1040
0
    1040
0
    1040
0
    1040
0
    1070
0
    1040
0
    1070
0
    1002
}
    1000
LeadOut
    1002
{
    1070
0
    1040
0
    1040
0
    1040
0
    1070
0
    1002
}
       0
INSERT
       5
2101
     100
AcDbEntity
       8
1
     100
AcDbBlockReference
       2
Part2090246085
      10
763.874702843602
      20
1857.80372893995
      30
0
      41
1
      42
1
      50
0
    1001
FS_CYPCUT
    1000
Channel
    1070
1
    1000
LeadIn
    1002
{
    1070
0
    1040
0
    1040
0
    1040
0
    1040
0
    1070
0
    1040
0
    1070
0
    1002
}
    1000
LeadOut
    1002
{
    1070
0
    1040
0
    1040
0
    1040
0
    1070
0
    1002
}
       0
INSERT
       5
2102
     100
AcDbEntity
       8
1
     100
AcDbBlockReference
       2
Part700082564
      10
949.374802843602
      20
2021.05372894226
      30
0
      41
1
      42
1
      50
269.999999977959
    1001
FS_CYPCUT
    1000
Channel
    1070
1
    1000
LeadIn
    1002
{
    1070
0
    1040
0
    1040
0
    1040
0
    1040
0
    1070
0
    1040
0
    1070
0
    1002
}
    1000
LeadOut
    1002
{
    1070
0
    1040
0
    1040
0
    1040
0
    1070
0
    1002
}
       0
INSERT
       5
2103
     100
AcDbEntity
       8
1
     100
AcDbBlockReference
       2
Part2038402109
      10
992.123002843602
      20
1794.06022893995
      30
0
      41
1
      42
1
      50
0
    1001
FS_CYPCUT
    1000
Channel
    1070
1
    1000
LeadIn
    1002
{
    1070
0
    1040
0
    1040
0
    1040
0
    1040
0
    1070
0
    1040
0
    1070
0
    1002
}
    1000
LeadOut
    1002
{
    1070
0
    1040
0
    1040
0
    1040
0
    1070
0
    1002
}
       0
INSERT
       5
2104
     100
AcDbEntity
       8
1
     100
AcDbBlockReference
       2
Part709488842
      10
1087.2755028436
      20
1931.28592895918
      30
0
      41
1
      42
1
      50
90.0000001836389
    1001
FS_CYPCUT
    1000
Channel
    1070
1
    1000
LeadIn
    1002
{
    1070
0
    1040
0
    1040
0
    1040
0
    1040
0
    1070
0
    1040
0
    1070
0
    1002
}
    1000
LeadOut
    1002
{
    1070
0
    1040
0
    1040
0
    1040
0
    1070
0
    1002
}
       0
INSERT
       5
2105
     100
AcDbEntity
       8
1
     100
AcDbBlockReference
       2
Part79440734
      10
847.275402843602
      20
1393.36496172996
      30
0
      41
1
      42
1
      50
0
    1001
FS_CYPCUT
    1000
Channel
    1070
1
    1000
LeadIn
    1002
{
    1070
0
    1040
0
    1040
0
    1040
0
    1040
0
    1070
0
    1040
0
    1070
0
    1002
}
    1000
LeadOut
    1002
{
    1070
0
    1040
0
    1040
0
    1040
0
    1070
0
    1002
}
       0
INSERT
       5
2106
     100
AcDbEntity
       8
1
     100
AcDbBlockReference
       2
Part953076824
      10
1172.7944028436
      20
1808.27412893995
      30
0
      41
1
      42
1
      50
0
    1001
FS_CYPCUT
    1000
Channel
    1070
1
    1000
LeadIn
    1002
{
    1070
0
    1040
0
    1040
0
    1040
0
    1040
0
    1070
0
    1040
0
    1070
0
    1002
}
    1000
LeadOut
    1002
{
    1070
0
    1040
0
    1040
0
    1040
0
    1070
0
    1002
}
       0
INSERT
       5
2107
     100
AcDbEntity
       8
1
     100
AcDbBlockReference
       2
Part386783090
      10
1089.2748028436
      20
1769.11022893995
      30
0
      41
1
      42
1
      50
0
    1001
FS_CYPCUT
    1000
Channel
    1070
1
    1000
LeadIn
    1002
{
    1070
0
    1040
0
    1040
0
    1040
0
    1040
0
    1070
0
    1040
0
    1070
0
    1002
}
    1000
LeadOut
    1002
{
    1070
0
    1040
0
    1040
0
    1040
0
    1070
0
    1002
}
       0
INSERT
       5
2108
     100
AcDbEntity
       8
1
     100
AcDbBlockReference
       2
Part1895945434
      10
1330.2854028436
      20
1767.11022893995
      30
0
      41
1
      42
1
      50
180
    1001
FS_CYPCUT
    1000
Channel
    1070
1
    1000
LeadIn
    1002
{
    1070
0
    1040
0
    1040
0
    1040
0
    1040
0
    1070
0
    1040
0
    1070
0
    1002
}
    1000
LeadOut
    1002
{
    1070
0
    1040
0
    1040
0
    1040
0
    1070
0
    1002
}
       0
INSERT
       5
2109
     100
AcDbEntity
       8
1
     100
AcDbBlockReference
       2
Part698766921
      10
1573.2954028436
      20
1767.11022893995
      30
0
      41
1
      42
1
      50
180
    1001
FS_CYPCUT
    1000
Channel
    1070
1
    1000
LeadIn
    1002
{
    1070
0
    1040
0
    1040
0
    1040
0
    1040
0
    1070
0
    1040
0
    1070
0
    1002
}
    1000
LeadOut
    1002
{
    1070
0
    1040
0
    1040
0
    1040
0
    1070
0
    1002
}
       0
INSERT
       5
210A
     100
AcDbEntity
       8
1
     100
AcDbBlockReference
       2
Part1199781597
      10
1454.7944028436
      20
1808.27412893995
      30
0
      41
1
      42
1
      50
0
    1001
FS_CYPCUT
    1000
Channel
    1070
1
    1000
LeadIn
    1002
{
    1070
0
    1040
0
    1040
0
    1040
0
    1040
0
    1070
0
    1040
0
    1070
0
    1002
}
    1000
LeadOut
    1002
{
    1070
0
    1040
0
    1040
0
    1040
0
    1070
0
    1002
}
       0
INSERT
       5
210B
     100
AcDbEntity
       8
1
     100
AcDbBlockReference
       2
Part1710243644
      10
1371.2748028436
      20
1769.11022893995
      30
0
      41
1
      42
1
      50
0
    1001
FS_CYPCUT
    1000
Channel
    1070
1
    1000
LeadIn
    1002
{
    1070
0
    1040
0
    1040
0
    1040
0
    1040
0
    1070
0
    1040
0
    1070
0
    1002
}
    1000
LeadOut
    1002
{
    1070
0
    1040
0
    1040
0
    1040
0
    1070
0
    1002
}
       0
INSERT
       5
210C
     100
AcDbEntity
       8
1
     100
AcDbBlockReference
       2
Part1804624321
      10
1800.2655028436
      20
1919.71502895918
      30
0
      41
1
      42
1
      50
90.0000001836389
    1001
FS_CYPCUT
    1000
Channel
    1070
1
    1000
LeadIn
    1002
{
    1070
0
    1040
0
    1040
0
    1040
0
    1040
0
    1070
0
    1040
0
    1070
0
    1002
}
    1000
LeadOut
    1002
{
    1070
0
    1040
0
    1040
0
    1040
0
    1070
0
    1002
}
       0
INSERT
       5
210D
     100
AcDbEntity
       8
1
     100
AcDbBlockReference
       2
Part859905715
      10
1659.6401028436
      20
1857.82722893995
      30
0
      41
1
      42
1
      50
0
    1001
FS_CYPCUT
    1000
Channel
    1070
1
    1000
LeadIn
    1002
{
    1070
0
    1040
0
    1040
0
    1040
0
    1040
0
    1070
0
    1040
0
    1070
0
    1002
}
    1000
LeadOut
    1002
{
    1070
0
    1040
0
    1040
0
    1040
0
    1070
0
    1002
}
       0
INSERT
       5
210E
     100
AcDbEntity
       8
1
     100
AcDbBlockReference
       2
Part907485242
      10
1783.29290329232
      20
1578.37452905213
      30
0
      41
1
      42
1
      50
90.0000001836389
    1001
FS_CYPCUT
    1000
Channel
    1070
1
    1000
LeadIn
    1002
{
    1070
0
    1040
0
    1040
0
    1040
0
    1040
0
    1070
0
    1040
0
    1070
0
    1002
}
    1000
LeadOut
    1002
{
    1070
0
    1040
0
    1040
0
    1040
0
    1070
0
    1002
}
       0
INSERT
       5
210F
     100
AcDbEntity
       8
1
     100
AcDbBlockReference
       2
Part104379096
      10
1711.29290329232
      20
1578.37452905213
      30
0
      41
1
      42
1
      50
90.0000001836389
    1001
FS_CYPCUT
    1000
Channel
    1070
1
    1000
LeadIn
    1002
{
    1070
0
    1040
0
    1040
0
    1040
0
    1040
0
    1070
0
    1040
0
    1070
0
    1002
}
    1000
LeadOut
    1002
{
    1070
0
    1040
0
    1040
0
    1040
0
    1070
0
    1002
}
       0
INSERT
       5
2110
     100
AcDbEntity
       8
1
     100
AcDbBlockReference
       2
Part747724658
      10
1607.30510287245
      20
1728.37452894572
      30
0
      41
1
      42
1
      50
269.999999977959
    1001
FS_CYPCUT
    1000
Channel
    1070
1
    1000
LeadIn
    1002
{
    1070
0
    1040
0
    1040
0
    1040
0
    1040
0
    1070
0
    1040
0
    1070
0
    1002
}
    1000
LeadOut
    1002
{
    1070
0
    1040
0
    1040
0
    1040
0
    1070
0
    1002
}
       0
INSERT
       5
2111
     100
AcDbEntity
       8
1
     100
AcDbBlockReference
       2
Part434246320
      10
1575.29510287245
      20
1728.37452894572
      30
0
      41
1
      42
1
      50
269.999999977959
    1001
FS_CYPCUT
    1000
Channel
    1070
1
    1000
LeadIn
    1002
{
    1070
0
    1040
0
    1040
0
    1040
0
    1040
0
    1070
0
    1040
0
    1070
0
    1002
}
    1000
LeadOut
    1002
{
    1070
0
    1040
0
    1040
0
    1040
0
    1070
0
    1002
}
       0
INSERT
       5
2112
     100
AcDbEntity
       8
1
     100
AcDbBlockReference
       2
Part1077194800
      10
1775.2955028436
      20
1486.37492926046
      30
0
      41
1
      42
1
      50
90.0000001836389
    1001
FS_CYPCUT
    1000
Channel
    1070
1
    1000
LeadIn
    1002
{
    1070
0
    1040
0
    1040
0
    1040
0
    1040
0
    1070
0
    1040
0
    1070
0
    1002
}
    1000
LeadOut
    1002
{
    1070
0
    1040
0
    1040
0
    1040
0
    1070
0
    1002
}
       0
INSERT
       5
2113
     100
AcDbEntity
       8
1
     100
AcDbBlockReference
       2
Part2037184247
      10
1575.2955028436
      20
1483.36492897842
      30
0
      41
1
      42
1
      50
269.999999977959
    1001
FS_CYPCUT
    1000
Channel
    1070
1
    1000
LeadIn
    1002
{
    1070
0
    1040
0
    1040
0
    1040
0
    1040
0
    1070
0
    1040
0
    1070
0
    1002
}
    1000
LeadOut
    1002
{
    1070
0
    1040
0
    1040
0
    1040
0
    1070
0
    1002
}
       0
ENDSEC
  0
SECTION
  2
OBJECTS
  0
DICTIONARY
  5
111
330
0
100
AcDbDictionary
281
     1
  3
ACAD_COLOR
350
120
  3
ACAD_GROUP
350
112
  3
ACAD_LAYOUT
350
11E
  3
ACAD_MATERIAL
350
11F
  3
ACAD_MLINESTYLE
350
11B
  3
ACAD_PLOTSETTINGS
350
11D
  3
ACAD_PLOTSTYLENAME
350
113
  3
ACAD_TABLESTYLE
350
121
  3
AcDbVariableDictionary
350
135
  0
DICTIONARY
  5
120
102
{ACAD_REACTORS
330
111
102
}
330
111
100
AcDbDictionary
281
     1
  0
DICTIONARY
  5
112
102
{ACAD_REACTORS
330
111
102
}
330
111
100
AcDbDictionary
281
     1
  0
DICTIONARY
  5
11E
102
{ACAD_REACTORS
330
111
102
}
330
111
100
AcDbDictionary
281
     1
  3
Model
350
12A
  3
布局1
350
126
  0
DICTIONARY
  5
11F
102
{ACAD_REACTORS
330
111
102
}
330
111
100
AcDbDictionary
281
     1
  0
DICTIONARY
  5
11B
102
{ACAD_REACTORS
330
111
102
}
330
111
100
AcDbDictionary
281
     1
  3
Standard
350
11C
  0
DICTIONARY
  5
11D
102
{ACAD_REACTORS
330
111
102
}
330
111
100
AcDbDictionary
281
     1
  0
ACDBDICTIONARYWDFLT
  5
113
102
{ACAD_REACTORS
330
111
102
}
330
111
100
AcDbDictionary
281
     1
  3
Normal
350
114
100
AcDbDictionaryWithDefault
340
114
  0
DICTIONARY
  5
121
102
{ACAD_REACTORS
330
111
102
}
330
111
100
AcDbDictionary
281
     1
  3
Standard
350
122
  0
DICTIONARY
  5
135
102
{ACAD_REACTORS
330
111
102
}
330
111
100
AcDbDictionary
281
     1
  3
CTABLESTYLE
350
136
  0
LAYOUT
  5
12A
102
{ACAD_REACTORS
330
11E
102
}
330
11E
100
AcDbPlotSettings
  1

  2
发送至 OneNote 2010
  4

  6

 40
0.0
 41
0.0
 42
0.0
 43
0.0
 44
0.0
 45
0.0
 46
0.0
 47
0.0
 48
0.0
 49
0.0
140
0.0
141
0.0
142
1.0
143
1.0
 70
  1712
 72
     0
 73
     0
 74
     0
  7

 75
     0
147
1.0
 76
     0
 77
     2
 78
   300
148
0.0
149
0.0
100
AcDbLayout
  1
Model
 70
     1
 71
     0
 10
0.0
 20
0.0
 11
12.0
 21
9.0
 12
0.0
 22
0.0
 32
0.0
 14
0.0
 24
0.0
 34
0.0
 15
0.0
 25
0.0
 35
0.0
146
0.0
 13
0.0
 23
0.0
 33
0.0
 16
1.0
 26
0.0
 36
0.0
 17
0.0
 27
1.0
 37
0.0
 76
     0
330
127
  0
LAYOUT
  5
126
102
{ACAD_REACTORS
330
11E
102
}
330
11E
100
AcDbPlotSettings
  1

  2
发送至 OneNote 2010
  4

  6

 40
0.0
 41
0.0
 42
0.0
 43
0.0
 44
0.0
 45
0.0
 46
0.0
 47
0.0
 48
0.0
 49
0.0
140
0.0
141
0.0
142
1.0
143
1.0
 70
   688
 72
     0
 73
     0
 74
     5
  7

 75
    16
147
1.0
 76
     0
 77
     2
 78
   300
148
0.0
149
0.0
100
AcDbLayout
  1
布局1
 70
     1
 71
     1
 10
0.0
 20
0.0
 11
12.0
 21
9.0
 12
0.0
 22
0.0
 32
0.0
 14
0.0
 24
0.0
 34
0.0
 15
0.0
 25
0.0
 35
0.0
146
0.0
 13
0.0
 23
0.0
 33
0.0
 16
1.0
 26
0.0
 36
0.0
 17
0.0
 27
1.0
 37
0.0
 76
     0
330
123
  0
MLINESTYLE
  5
11C
102
{ACAD_REACTORS
330
11B
102
}
330
11B
100
AcDbMlineStyle
  2
STANDARD
 70
     0
  3

 62
   256
 51
90.0
 52
90.0
 71
     2
 49
0.5
 62
   256
  6
BYLAYER
 49
-0.5
 62
   256
  6
BYLAYER
  0
ACDBPLACEHOLDER
  5
114
102
{ACAD_REACTORS
330
113
102
}
330
113
  0
TABLESTYLE
  5
122
102
{ACAD_REACTORS
330
121
102
}
330
121
100
AcDbTableStyle
  3
Standard
 70
     0
 71
     0
 40
0.06
 41
0.06
280
     0
281
     0
  7
STANDARD
140
0.18
170
     2
 62
     0
 63
     7
283
     0
274
    -2
284
     1
 64
     0
275
    -2
285
     1
 65
     0
276
    -2
286
     1
 66
     0
277
    -2
287
     1
 67
     0
278
    -2
288
     1
 68
     0
279
    -2
289
     1
 69
     0
  7
STANDARD
140
0.25
170
     5
 62
     0
 63
     7
283
     0
274
    -2
284
     1
 64
     0
275
    -2
285
     1
 65
     0
276
    -2
286
     1
 66
     0
277
    -2
287
     1
 67
     0
278
    -2
288
     1
 68
     0
279
    -2
289
     1
 69
     0
  7
STANDARD
140
0.18
170
     5
 62
     0
 63
     7
283
     0
274
    -2
284
     1
 64
     0
275
    -2
285
     1
 65
     0
276
    -2
286
     1
 66
     0
277
    -2
287
     1
 67
     0
278
    -2
288
     1
 68
     0
279
    -2
289
     1
 69
     0
  0
DICTIONARYVAR
  5
136
102
{ACAD_REACTORS
330
135
102
}
330
135
100
DictionaryVariables
280
     0
  1
STANDARD
  0
ENDSEC
  0
EOF
