  0
SECTION
  2
HEADER
  9
$ACADVER
  1
AC1018
  9
$ACADMAINTVER
 70
    77
  9
$DWGCODEPAGE
  3
ANSI_936
  9
$INSBASE
 10
0.0
 20
0.0
 30
0.0
  9
$EXTMIN
 10
2308.05687270065
 20
5364.92890897262
 30
0.0
  9
$EXTMAX
 10
3502.26055544114
 20
5682.91195850988
 30
0.0
  9
$LIMMIN
 10
0.0
 20
0.0
  9
$LIMMAX
 10
420.0
 20
297.0
  9
$ORTHOMODE
 70
     0
  9
$REGENMODE
 70
     1
  9
$FILLMODE
 70
     1
  9
$QTEXTMODE
 70
     0
  9
$MIRRTEXT
 70
     0
  9
$LTSCALE
 40
1.0
  9
$ATTMODE
 70
     1
  9
$TEXTSIZE
 40
2.5
  9
$TRACEWID
 40
1.0
  9
$TEXTSTYLE
  7
STANDARD
  9
$CLAYER
  8
0
  9
$CELTYPE
  6
ByLayer
  9
$CECOLOR
 62
   256
  9
$CELTSCALE
 40
1.0
  9
$DISPSILH
 70
     0
  9
$DIMSCALE
 40
1.0
  9
$DIMASZ
 40
2.5
  9
$DIMEXO
 40
0.625
  9
$DIMDLI
 40
3.75
  9
$DIMRND
 40
0.0
  9
$DIMDLE
 40
0.0
  9
$DIMEXE
 40
1.25
  9
$DIMTP
 40
0.0
  9
$DIMTM
 40
0.0
  9
$DIMTXT
 40
2.5
  9
$DIMCEN
 40
2.5
  9
$DIMTSZ
 40
0.0
  9
$DIMTOL
 70
     0
  9
$DIMLIM
 70
     0
  9
$DIMTIH
 70
     0
  9
$DIMTOH
 70
     0
  9
$DIMSE1
 70
     0
  9
$DIMSE2
 70
     0
  9
$DIMTAD
 70
     1
  9
$DIMZIN
 70
     8
  9
$DIMBLK
  1

  9
$DIMASO
 70
     1
  9
$DIMSHO
 70
     1
  9
$DIMPOST
  1

  9
$DIMAPOST
  1

  9
$DIMALT
 70
     0
  9
$DIMALTD
 70
     3
  9
$DIMALTF
 40
0.03937007874016
  9
$DIMLFAC
 40
1.0
  9
$DIMTOFL
 70
     1
  9
$DIMTVP
 40
0.0
  9
$DIMTIX
 70
     0
  9
$DIMSOXD
 70
     0
  9
$DIMSAH
 70
     0
  9
$DIMBLK1
  1

  9
$DIMBLK2
  1

  9
$DIMSTYLE
  2
ISO-25
  9
$DIMCLRD
 70
     0
  9
$DIMCLRE
 70
     0
  9
$DIMCLRT
 70
     0
  9
$DIMTFAC
 40
1.0
  9
$DIMGAP
 40
0.625
  9
$DIMJUST
 70
     0
  9
$DIMSD1
 70
     0
  9
$DIMSD2
 70
     0
  9
$DIMTOLJ
 70
     1
  9
$DIMTZIN
 70
     0
  9
$DIMALTZ
 70
     0
  9
$DIMALTTZ
 70
     0
  9
$DIMUPT
 70
     0
  9
$DIMDEC
 70
     4
  9
$DIMTDEC
 70
     4
  9
$DIMALTU
 70
     2
  9
$DIMALTTD
 70
     2
  9
$DIMTXSTY
  7
STANDARD
  9
$DIMAUNIT
 70
     0
  9
$DIMADEC
 70
     0
  9
$DIMALTRND
 40
0.0
  9
$DIMAZIN
 70
     0
  9
$DIMDSEP
 70
    46
  9
$DIMATFIT
 70
     3
  9
$DIMFRAC
 70
     0
  9
$DIMLDRBLK
  1

  9
$DIMLUNIT
 70
     2
  9
$DIMLWD
 70
    -2
  9
$DIMLWE
 70
    -2
  9
$DIMTMOVE
 70
     0
  9
$LUNITS
 70
     2
  9
$LUPREC
 70
     4
  9
$SKETCHINC
 40
1.0
  9
$FILLETRAD
 40
0.0
  9
$AUNITS
 70
     0
  9
$AUPREC
 70
     0
  9
$MENU
  1
.
  9
$ELEVATION
 40
0.0
  9
$PELEVATION
 40
0.0
  9
$THICKNESS
 40
0.0
  9
$LIMCHECK
 70
     0
  9
$CHAMFERA
 40
0.0
  9
$CHAMFERB
 40
0.0
  9
$CHAMFERC
 40
0.0
  9
$CHAMFERD
 40
0.0
  9
$SKPOLY
 70
     0
  9
$TDCREATE
 40
2456997.676706910
  9
$TDUCREATE
 40
2456997.343373576
  9
$TDUPDATE
 40
2456997.680113438
  9
$TDUUPDATE
 40
2456997.346780104
  9
$TDINDWG
 40
0.0010312963
  9
$TDUSRTIMER
 40
0.0010311806
  9
$USRTIMER
 70
     1
  9
$ANGBASE
 50
0.0
  9
$ANGDIR
 70
     0
  9
$PDMODE
 70
     0
  9
$PDSIZE
 40
0.0
  9
$PLINEWID
 40
0.0
  9
$SPLFRAME
 70
     0
  9
$SPLINETYPE
 70
     6
  9
$SPLINESEGS
 70
     8
  9
$HANDSEED
  5
241D
  9
$SURFTAB1
 70
     6
  9
$SURFTAB2
 70
     6
  9
$SURFTYPE
 70
     6
  9
$SURFU
 70
     6
  9
$SURFV
 70
     6
  9
$UCSBASE
  2

  9
$UCSNAME
  2

  9
$UCSORG
 10
0.0
 20
0.0
 30
0.0
  9
$UCSXDIR
 10
1.0
 20
0.0
 30
0.0
  9
$UCSYDIR
 10
0.0
 20
1.0
 30
0.0
  9
$UCSORTHOREF
  2

  9
$UCSORTHOVIEW
 70
     0
  9
$UCSORGTOP
 10
0.0
 20
0.0
 30
0.0
  9
$UCSORGBOTTOM
 10
0.0
 20
0.0
 30
0.0
  9
$UCSORGLEFT
 10
0.0
 20
0.0
 30
0.0
  9
$UCSORGRIGHT
 10
0.0
 20
0.0
 30
0.0
  9
$UCSORGFRONT
 10
0.0
 20
0.0
 30
0.0
  9
$UCSORGBACK
 10
0.0
 20
0.0
 30
0.0
  9
$PUCSBASE
  2

  9
$PUCSNAME
  2

  9
$PUCSORG
 10
0.0
 20
0.0
 30
0.0
  9
$PUCSXDIR
 10
1.0
 20
0.0
 30
0.0
  9
$PUCSYDIR
 10
0.0
 20
1.0
 30
0.0
  9
$PUCSORTHOREF
  2

  9
$PUCSORTHOVIEW
 70
     0
  9
$PUCSORGTOP
 10
0.0
 20
0.0
 30
0.0
  9
$PUCSORGBOTTOM
 10
0.0
 20
0.0
 30
0.0
  9
$PUCSORGLEFT
 10
0.0
 20
0.0
 30
0.0
  9
$PUCSORGRIGHT
 10
0.0
 20
0.0
 30
0.0
  9
$PUCSORGFRONT
 10
0.0
 20
0.0
 30
0.0
  9
$PUCSORGBACK
 10
0.0
 20
0.0
 30
0.0
  9
$USERI1
 70
     0
  9
$USERI2
 70
     0
  9
$USERI3
 70
     0
  9
$USERI4
 70
     0
  9
$USERI5
 70
     0
  9
$USERR1
 40
0.0
  9
$USERR2
 40
0.0
  9
$USERR3
 40
0.0
  9
$USERR4
 40
0.0
  9
$USERR5
 40
0.0
  9
$WORLDVIEW
 70
     1
  9
$SHADEDGE
 70
     3
  9
$SHADEDIF
 70
    70
  9
$TILEMODE
 70
     1
  9
$MAXACTVP
 70
    64
  9
$PINSBASE
 10
0.0
 20
0.0
 30
0.0
  9
$PLIMCHECK
 70
     0
  9
$PEXTMIN
 10
0.0
 20
0.0
 30
0.0
  9
$PEXTMAX
 10
0.0
 20
0.0
 30
0.0
  9
$PLIMMIN
 10
0.0
 20
0.0
  9
$PLIMMAX
 10
12.0
 20
9.0
  9
$UNITMODE
 70
     0
  9
$VISRETAIN
 70
     1
  9
$PLINEGEN
 70
     0
  9
$PSLTSCALE
 70
     1
  9
$TREEDEPTH
 70
  3020
  9
$CMLSTYLE
  2
Standard
  9
$CMLJUST
 70
     0
  9
$CMLSCALE
 40
1.0
  9
$PROXYGRAPHICS
 70
     1
  9
$MEASUREMENT
 70
     1
  9
$CELWEIGHT
370
    -1
  9
$ENDCAPS
280
     0
  9
$JOINSTYLE
280
     0
  9
$LWDISPLAY
290
     0
  9
$INSUNITS
 70
     0
  9
$HYPERLINKBASE
  1

  9
$STYLESHEET
  1

  9
$XEDIT
290
     1
  9
$CEPSNTYPE
380
     0
  9
$PSTYLEMODE
290
     1
  9
$FINGERPRINTGUID
  2
{1F2D6530-6BF2-4D5E-922F-A9C54F637010}
  9
$VERSIONGUID
  2
{15AD9CB5-51D1-451C-B472-5DB36EFAD6AD}
  9
$EXTNAMES
290
     1
  9
$PSVPSCALE
 40
0.0
  9
$OLESTARTUP
290
     0
  9
$SORTENTS
280
   127
  9
$INDEXCTL
280
     0
  9
$HIDETEXT
280
     0
  9
$XCLIPFRAME
290
     0
  9
$HALOGAP
280
     0
  9
$OBSCOLOR
 70
   257
  9
$OBSLTYPE
280
     0
  9
$INTERSECTIONDISPLAY
280
     0
  9
$INTERSECTIONCOLOR
 70
   257
  9
$DIMASSOC
280
     1
  9
$PROJECTNAME
  1

  0
ENDSEC
  0
SECTION
  2
CLASSES
  0
CLASS
  1
ACDBDICTIONARYWDFLT
  2
AcDbDictionaryWithDefault
  3
ObjectDBX Classes
 90
        0
 91
        1
280
     0
281
     0
  0
CLASS
  1
TABLESTYLE
  2
AcDbTableStyle
  3
ObjectDBX Classes
 90
     2047
 91
        1
280
     0
281
     0
  0
CLASS
  1
DICTIONARYVAR
  2
AcDbDictionaryVar
  3
ObjectDBX Classes
 90
        0
 91
        1
280
     0
281
     0
  0
ENDSEC
  0
SECTION
  2
TABLES
  0
TABLE
  2
VPORT
  5
10D
330
0
100
AcDbSymbolTable
 70
     2
  0
VPORT
  5
137
330
10D
100
AcDbSymbolTableRecord
100
AcDbViewportTableRecord
  2
*Active
 70
     0
 10
0.0
 20
0.0
 11
1.0
 21
1.0
 12
2905.1587140709
 22
5523.92043374125
 13
0.0
 23
0.0
 14
10.0
 24
10.0
 15
10.0
 25
10.0
 16
0.0
 26
0.0
 36
1.0
 17
0.0
 27
0.0
 37
0.0
 40
551.708552688342
 41
2.435135135135135
 42
50.0
 43
0.0
 44
0.0
 50
0.0
 51
0.0
 71
     0
 72
  1000
 73
     1
 74
     3
 75
     0
 76
     0
 77
     0
 78
     0
281
     0
 65
     1
110
0.0
120
0.0
130
0.0
111
1.0
121
0.0
131
0.0
112
0.0
122
1.0
132
0.0
 79
     0
146
0.0
  0
ENDTAB
  0
TABLE
  2
LTYPE
  5
10A
330
0
100
AcDbSymbolTable
 70
     1
  0
LTYPE
  5
118
330
10A
100
AcDbSymbolTableRecord
100
AcDbLinetypeTableRecord
  2
ByBlock
 70
     0
  3

 72
    65
 73
     0
 40
0.0
  0
LTYPE
  5
119
330
10A
100
AcDbSymbolTableRecord
100
AcDbLinetypeTableRecord
  2
ByLayer
 70
     0
  3

 72
    65
 73
     0
 40
0.0
  0
LTYPE
  5
11A
330
10A
100
AcDbSymbolTableRecord
100
AcDbLinetypeTableRecord
  2
CONTINUOUS
 70
     0
  3
Solid line
 72
    65
 73
     0
 40
0.0
  0
ENDTAB
  0
TABLE
  2
LAYER
  5
107
330
0
100
AcDbSymbolTable
 70
     1
  0
LAYER
  5
115
330
107
100
AcDbSymbolTableRecord
100
AcDbLayerTableRecord
  2
0
 70
     0
 62
     7
  6
CONTINUOUS
370
    -3
390
114
  0
ENDTAB
  0
TABLE
  2
STYLE
  5
108
330
0
100
AcDbSymbolTable
 70
     1
  0
STYLE
  5
116
330
108
100
AcDbSymbolTableRecord
100
AcDbTextStyleTableRecord
  2
STANDARD
 70
     0
 40
0.0
 41
1.0
 50
0.0
 71
     0
 42
2.5
  3
txt
  4
gbcbig.shx
  0
ENDTAB
  0
TABLE
  2
VIEW
  5
10B
330
0
100
AcDbSymbolTable
 70
     0
  0
ENDTAB
  0
TABLE
  2
UCS
  5
10C
330
0
100
AcDbSymbolTable
 70
     0
  0
ENDTAB
  0
TABLE
  2
APPID
  5
10E
330
0
100
AcDbSymbolTable
 70
     2
  0
APPID
  5
117
330
10E
100
AcDbSymbolTableRecord
100
AcDbRegAppTableRecord
  2
ACAD
 70
     0
  0
APPID
  5
12C
330
10E
100
AcDbSymbolTableRecord
100
AcDbRegAppTableRecord
  2
ACAD_PSEXT
 70
     0
  0
APPID
  5
112C
330
10E
100
AcDbSymbolTableRecord
100
AcDbRegAppTableRecord
  2
FS_CYPCUT
 70
     0
  0
ENDTAB
  0
TABLE
  2
DIMSTYLE
  5
10F
330
0
100
AcDbSymbolTable
 70
     1
100
AcDbDimStyleTable
 71
     0
  0
DIMSTYLE
105
12D
330
10F
100
AcDbSymbolTableRecord
100
AcDbDimStyleTableRecord
  2
ISO-25
 70
     0
 41
2.5
 42
0.625
 43
3.75
 44
1.25
 73
     0
 74
     0
 77
     1
 78
     8
140
2.5
141
2.5
143
0.03937007874016
147
0.625
171
     3
172
     1
274
     3
279
     2
284
     8
285
     8
286
     8
340
116
  0
ENDTAB
  0
TABLE
  2
BLOCK_RECORD
  5
106
330
0
100
AcDbSymbolTable
 70
     2
  0
BLOCK_RECORD
  5
127
330
106
100
AcDbSymbolTableRecord
100
AcDbBlockTableRecord
  2
*Model_Space
340
12A
  0
BLOCK_RECORD
  5
123
330
106
100
AcDbSymbolTableRecord
100
AcDbBlockTableRecord
  2
*Paper_Space
340
126
  0
BLOCK_RECORD
  5
130
330
106
100
AcDbSymbolTableRecord
100
AcDbBlockTableRecord
  2
$MODEL_SPACE
340
0
  0
BLOCK_RECORD
  5
132
330
106
100
AcDbSymbolTableRecord
100
AcDbBlockTableRecord
  2
$PAPER_SPACE
340
0
       0
BLOCK_RECORD
       5
2000
     330
106
     100
AcDbSymbolTableRecord
     100
AcDbBlockTableRecord
       2
Part
       0
BLOCK_RECORD
       5
2001
     330
106
     100
AcDbSymbolTableRecord
     100
AcDbBlockTableRecord
       2
Part817119642
       0
BLOCK_RECORD
       5
2002
     330
106
     100
AcDbSymbolTableRecord
     100
AcDbBlockTableRecord
       2
Part334207057
       0
BLOCK_RECORD
       5
2003
     330
106
     100
AcDbSymbolTableRecord
     100
AcDbBlockTableRecord
       2
Part642053443
  0
ENDTAB
  0
ENDSEC
  0
SECTION
  2
BLOCKS
  0
BLOCK
  5
128
330
127
100
AcDbEntity
  8
0
100
AcDbBlockBegin
  2
*Model_Space
 70
     0
 10
0.0
 20
0.0
 30
0.0
  3
*Model_Space
  1

  0
ENDBLK
  5
129
330
127
100
AcDbEntity
  8
0
100
AcDbBlockEnd
  0
BLOCK
  5
124
330
123
100
AcDbEntity
 67
     1
  8
0
100
AcDbBlockBegin
  2
*Paper_Space
 70
     0
 10
0.0
 20
0.0
 30
0.0
  3
*Paper_Space
  1

  0
ENDBLK
  5
125
330
123
100
AcDbEntity
 67
     1
  8
0
100
AcDbBlockEnd
  0
BLOCK
  5
131
330
130
100
AcDbEntity
  8
0
100
AcDbBlockBegin
  2
$MODEL_SPACE
 70
     0
 10
0.0
 20
0.0
 30
0.0
  3
$MODEL_SPACE
  1

  0
ENDBLK
  5
21
330
130
100
AcDbEntity
  8
0
100
AcDbBlockEnd
  0
BLOCK
  5
133
330
132
100
AcDbEntity
  8
0
100
AcDbBlockBegin
  2
$PAPER_SPACE
 70
     0
 10
0.0
 20
0.0
 30
0.0
  3
$PAPER_SPACE
  1

  0
ENDBLK
  5
D5
330
132
100
AcDbEntity
  8
0
100
AcDbBlockEnd
       0
BLOCK
       5
2004
     330
2000
     100
AcDbEntity
       8
0
     100
AcDbBlockBegin
       2
Part
      70
0
      10
0
      20
-168.732713
      30
0
       3
Part
       1

       4
CypCutBlock
       0
LWPOLYLINE
       5
2005
     100
AcDbEntity
       8
1
     100
AcDbPolyline
      90
4
      70
1
      10
30.2
      20
11.0790823624
      42
0
      10
30.2
      20
7.5790823624
      42
0
      10
9.8
      20
7.5790823624
      42
0
      10
9.8
      20
11.0790823624
      42
0
    1001
FS_CYPCUT
    1000
Channel
    1070
1
    1000
LeadIn
    1002
{
    1070
3
    1040
1.5
    1040
1.5707963267949
    1040
0.5
    1040
0.3
    1070
0
    1040
0.5
    1070
0
    1002
}
    1000
LeadOut
    1002
{
    1070
0
    1040
0
    1040
0
    1040
0
    1070
0
    1002
}
    1000
IsFill
    1070
0
    1000
PathStart
    1040
1.5
    1000
ToolCompensation
    1002
{
    1070
0
    1040
0
    1070
0
    1002
}
       0
CIRCLE
       5
2006
     100
AcDbEntity
       8
1
     100
AcDbCircle
      10
50
      20
101.3017953589
      30
0
      40
20
    1001
FS_CYPCUT
    1000
Channel
    1070
1
    1000
LeadIn
    1002
{
    1070
3
    1040
0
    1040
1.5707963267949
    1040
0.5
    1040
0.3
    1070
0
    1040
0.5
    1070
0
    1002
}
    1000
LeadOut
    1002
{
    1070
0
    1040
0
    1040
0
    1040
0
    1070
0
    1002
}
    1000
IsFill
    1070
0
    1000
PathStart
    1040
0
    1000
ToolCompensation
    1002
{
    1070
0
    1040
0
    1070
0
    1002
}
       0
CIRCLE
       5
2007
     100
AcDbEntity
       8
1
     100
AcDbCircle
      10
162.5
      20
101.3017953589
      30
0
      40
19.9999999999999
    1001
FS_CYPCUT
    1000
Channel
    1070
1
    1000
LeadIn
    1002
{
    1070
3
    1040
0
    1040
1.5707963267949
    1040
0.5
    1040
0.3
    1070
0
    1040
0.5
    1070
0
    1002
}
    1000
LeadOut
    1002
{
    1070
0
    1040
0
    1040
0
    1040
0
    1070
0
    1002
}
    1000
IsFill
    1070
0
    1000
PathStart
    1040
0
    1000
ToolCompensation
    1002
{
    1070
0
    1040
0
    1070
0
    1002
}
       0
CIRCLE
       5
2008
     100
AcDbEntity
       8
1
     100
AcDbCircle
      10
275
      20
101.3017953589
      30
0
      40
19.9999999999997
    1001
FS_CYPCUT
    1000
Channel
    1070
1
    1000
LeadIn
    1002
{
    1070
3
    1040
0
    1040
1.5707963267949
    1040
0.5
    1040
0.3
    1070
0
    1040
0.5
    1070
0
    1002
}
    1000
LeadOut
    1002
{
    1070
0
    1040
0
    1040
0
    1040
0
    1070
0
    1002
}
    1000
IsFill
    1070
0
    1000
PathStart
    1040
1
    1000
ToolCompensation
    1002
{
    1070
0
    1040
0
    1070
0
    1002
}
       0
CIRCLE
       5
2009
     100
AcDbEntity
       8
1
     100
AcDbCircle
      10
387.5
      20
101.3017953589
      30
0
      40
20.0000000000002
    1001
FS_CYPCUT
    1000
Channel
    1070
1
    1000
LeadIn
    1002
{
    1070
3
    1040
0
    1040
1.5707963267949
    1040
0.5
    1040
0.3
    1070
0
    1040
0.5
    1070
0
    1002
}
    1000
LeadOut
    1002
{
    1070
0
    1040
0
    1040
0
    1040
0
    1070
0
    1002
}
    1000
IsFill
    1070
0
    1000
PathStart
    1040
1
    1000
ToolCompensation
    1002
{
    1070
0
    1040
0
    1070
0
    1002
}
       0
LINE
       5
200A
     100
AcDbEntity
       8
2
     100
AcDbLine
      10
550
      20
132.2861610571
      30
0
      11
0
      21
132.2861610571
      31
0
    1001
FS_CYPCUT
    1000
Channel
    1070
2
    1000
LeadIn
    1002
{
    1070
3
    1040
0
    1040
1.5707963267949
    1040
0.5
    1040
0.3
    1070
0
    1040
0.5
    1070
0
    1002
}
    1000
LeadOut
    1002
{
    1070
0
    1040
0
    1040
0
    1040
0
    1070
0
    1002
}
    1000
IsFill
    1070
0
    1000
PathStart
    1040
0
    1000
ToolCompensation
    1002
{
    1070
0
    1040
0
    1070
0
    1002
}
       0
LINE
       5
200B
     100
AcDbEntity
       8
2
     100
AcDbLine
      10
0
      20
21.4145411812
      30
0
      11
550
      21
21.4145411812
      31
0
    1001
FS_CYPCUT
    1000
Channel
    1070
2
    1000
LeadIn
    1002
{
    1070
3
    1040
0
    1040
1.5707963267949
    1040
0.5
    1040
0.3
    1070
0
    1040
0.5
    1070
0
    1002
}
    1000
LeadOut
    1002
{
    1070
0
    1040
0
    1040
0
    1040
0
    1070
0
    1002
}
    1000
IsFill
    1070
0
    1000
PathStart
    1040
0
    1000
ToolCompensation
    1002
{
    1070
0
    1040
0
    1070
0
    1002
}
       0
CIRCLE
       5
200C
     100
AcDbEntity
       8
1
     100
AcDbCircle
      10
354
      20
-57.1709176376
      30
0
      40
17.5000000000002
    1001
FS_CYPCUT
    1000
Channel
    1070
1
    1000
LeadIn
    1002
{
    1070
3
    1040
1.38777878078145E-16
    1040
1.5707963267949
    1040
0.5
    1040
0.3
    1070
0
    1040
0.5
    1070
0
    1002
}
    1000
LeadOut
    1002
{
    1070
0
    1040
0
    1040
0
    1040
0
    1070
0
    1002
}
    1000
IsFill
    1070
0
    1000
PathStart
    1040
1.38777878078145E-16
    1000
ToolCompensation
    1002
{
    1070
0
    1040
0
    1070
0
    1002
}
       0
LWPOLYLINE
       5
200D
     100
AcDbEntity
       8
1
     100
AcDbPolyline
      90
4
      70
1
      10
285.2
      20
11.0790823624
      42
0
      10
264.8
      20
11.0790823624
      42
0
      10
264.8
      20
7.5790823624
      42
0
      10
285.2
      20
7.5790823624
      42
0
    1001
FS_CYPCUT
    1000
Channel
    1070
1
    1000
LeadIn
    1002
{
    1070
3
    1040
0.5
    1040
1.5707963267949
    1040
0.5
    1040
0.3
    1070
0
    1040
0.5
    1070
0
    1002
}
    1000
LeadOut
    1002
{
    1070
0
    1040
0
    1040
0
    1040
0
    1070
0
    1002
}
    1000
IsFill
    1070
0
    1000
PathStart
    1040
0.5
    1000
ToolCompensation
    1002
{
    1070
0
    1040
0
    1070
0
    1002
}
       0
CIRCLE
       5
200E
     100
AcDbEntity
       8
1
     100
AcDbCircle
      10
370
      20
-145.1709176376
      30
0
      40
8
    1001
FS_CYPCUT
    1000
Channel
    1070
1
    1000
LeadIn
    1002
{
    1070
3
    1040
0
    1040
1.5707963267949
    1040
0.5
    1040
0.3
    1070
0
    1040
0.5
    1070
0
    1002
}
    1000
LeadOut
    1002
{
    1070
0
    1040
0
    1040
0
    1040
0
    1070
0
    1002
}
    1000
IsFill
    1070
0
    1000
PathStart
    1040
0
    1000
ToolCompensation
    1002
{
    1070
0
    1040
0
    1070
0
    1002
}
       0
LWPOLYLINE
       5
200F
     100
AcDbEntity
       8
1
     100
AcDbPolyline
      90
4
      70
1
      10
540.2
      20
11.0790823624
      42
0
      10
540.2
      20
7.5790823624
      42
0
      10
519.8
      20
7.5790823624
      42
0
      10
519.8
      20
11.0790823624
      42
0
    1001
FS_CYPCUT
    1000
Channel
    1070
1
    1000
LeadIn
    1002
{
    1070
3
    1040
1.5
    1040
1.5707963267949
    1040
0.5
    1040
0.3
    1070
0
    1040
0.5
    1070
0
    1002
}
    1000
LeadOut
    1002
{
    1070
0
    1040
0
    1040
0
    1040
0
    1070
0
    1002
}
    1000
IsFill
    1070
0
    1000
PathStart
    1040
1.5
    1000
ToolCompensation
    1002
{
    1070
0
    1040
0
    1070
0
    1002
}
       0
CIRCLE
       5
2010
     100
AcDbEntity
       8
1
     100
AcDbCircle
      10
500
      20
101.3017953589
      30
0
      40
19.9999999999998
    1001
FS_CYPCUT
    1000
Channel
    1070
1
    1000
LeadIn
    1002
{
    1070
3
    1040
0
    1040
1.5707963267949
    1040
0.5
    1040
0.3
    1070
0
    1040
0.5
    1070
0
    1002
}
    1000
LeadOut
    1002
{
    1070
0
    1040
0
    1040
0
    1040
0
    1070
0
    1002
}
    1000
IsFill
    1070
0
    1000
PathStart
    1040
1
    1000
ToolCompensation
    1002
{
    1070
0
    1040
0
    1070
0
    1002
}
       0
LWPOLYLINE
       5
2011
     100
AcDbEntity
       8
1
     100
AcDbPolyline
      90
12
      70
1
      10
550
      20
138.4503444875
      42
0
      10
550
      20
-7.1709176376
      42
-0.41421356237309
      10
540
      20
-17.1709176376005
      42
0.388238212672573
      10
399.999999999994
      20
-145.170917637673
      42
-0.734601493429989
      10
338.9692612889
      20
-147.4179038624
      42
0
      10
298.7289461144
      20
-33.8231121428
      42
0.317668227934919
      10
275.1638417561
      20
-17.1709176376
      42
0
      10
10
      20
-17.1709176376
      42
-0.414213562373095
      10
0
      20
-7.1709176376
      42
0
      10
0
      20
142.4503444875
      42
-0.4142135623731
      10
6
      20
148.4503444875
      42
0
      10
540
      20
148.4503444875
      42
-0.414213562373095
    1001
FS_CYPCUT
    1000
Channel
    1070
1
    1000
LeadIn
    1002
{
    1070
3
    1040
10.5
    1040
1.5707963267949
    1040
0.5
    1040
0.3
    1070
0
    1040
0.5
    1070
0
    1002
}
    1000
LeadOut
    1002
{
    1070
0
    1040
0
    1040
0
    1040
0
    1070
0
    1002
}
    1000
IsFill
    1070
1
    1000
PathStart
    1040
10.5
    1000
ToolCompensation
    1002
{
    1070
0
    1040
0
    1070
0
    1002
}
    1000
MicroConnect
    1002
{
    1070
4
    1040
2.5
    1041
0.6
    1042
0
    1040
6.4139313
    1041
0.6
    1042
0
    1040
10.2666379
    1041
0.6
    1042
0
    1040
10.7311946
    1041
0.6
    1042
0
    1002
}
       0
ENDBLK
       5
2012
     330
2000
     100
AcDbEntity
       8
0
     100
AcDbBlockEnd
       0
BLOCK
       5
2013
     330
2001
     100
AcDbEntity
       8
0
     100
AcDbBlockBegin
       2
Part817119642
      70
0
      10
-23
      20
-35
      30
0
       3
Part817119642
       1

       4
CypCutBlock
       0
CIRCLE
       5
2014
     100
AcDbEntity
       8
1
     100
AcDbCircle
      10
0
      20
-30
      30
0
      40
2.5
    1001
FS_CYPCUT
    1000
Channel
    1070
1
    1000
LeadIn
    1002
{
    1070
3
    1040
0
    1040
1.5707963267949
    1040
0.5
    1040
0.5
    1070
0
    1040
0.5
    1070
0
    1002
}
    1000
LeadOut
    1002
{
    1070
0
    1040
0
    1040
0
    1040
0
    1070
0
    1002
}
    1000
IsFill
    1070
0
    1000
PathStart
    1040
0
    1000
ToolCompensation
    1002
{
    1070
0
    1040
0
    1070
0
    1002
}
       0
CIRCLE
       5
2015
     100
AcDbEntity
       8
1
     100
AcDbCircle
      10
0
      20
0
      30
0
      40
16.5
    1001
FS_CYPCUT
    1000
Channel
    1070
1
    1000
LeadIn
    1002
{
    1070
3
    1040
0
    1040
1.5707963267949
    1040
0.5
    1040
0.5
    1070
0
    1040
0.5
    1070
0
    1002
}
    1000
LeadOut
    1002
{
    1070
0
    1040
0
    1040
0
    1040
0
    1070
0
    1002
}
    1000
IsFill
    1070
0
    1000
PathStart
    1040
0
    1000
ToolCompensation
    1002
{
    1070
0
    1040
0
    1070
0
    1002
}
       0
CIRCLE
       5
2016
     100
AcDbEntity
       8
1
     100
AcDbCircle
      10
0
      20
30
      30
0
      40
2.5
    1001
FS_CYPCUT
    1000
Channel
    1070
1
    1000
LeadIn
    1002
{
    1070
3
    1040
0
    1040
1.5707963267949
    1040
0.5
    1040
0.5
    1070
0
    1040
0.5
    1070
0
    1002
}
    1000
LeadOut
    1002
{
    1070
0
    1040
0
    1040
0
    1040
0
    1070
0
    1002
}
    1000
IsFill
    1070
0
    1000
PathStart
    1040
0
    1000
ToolCompensation
    1002
{
    1070
0
    1040
0
    1070
0
    1002
}
       0
LWPOLYLINE
       5
2017
     100
AcDbEntity
       8
1
     100
AcDbPolyline
      90
8
      70
1
      10
18.4
      20
13.8
      42
0
      10
4.00000000000231
      20
32.9999999999969
      42
0.500000000000479
      10
-4
      20
33
      42
0
      10
-18.4
      20
13.8
      42
0.333333333332906
      10
-18.4000000000106
      20
-13.7999999999859
      42
0
      10
-4.00000000000231
      20
-32.9999999999969
      42
0.500000000000479
      10
4
      20
-33
      42
0
      10
18.4
      20
-13.8
      42
0.333333333332906
    1001
FS_CYPCUT
    1000
Channel
    1070
1
    1000
LeadIn
    1002
{
    1070
3
    1040
3.5
    1040
1.5707963267949
    1040
0.5
    1040
0.5
    1070
0
    1040
0.5
    1070
0
    1002
}
    1000
LeadOut
    1002
{
    1070
0
    1040
0
    1040
0
    1040
0
    1070
0
    1002
}
    1000
IsFill
    1070
1
    1000
PathStart
    1040
3.5
    1000
ToolCompensation
    1002
{
    1070
0
    1040
0
    1070
0
    1002
}
    1000
MicroConnect
    1002
{
    1070
2
    1040
0.397425474
    1041
0.6
    1042
0
    1040
4.43441734
    1041
0.6
    1042
0
    1002
}
       0
ENDBLK
       5
2018
     330
2001
     100
AcDbEntity
       8
0
     100
AcDbBlockEnd
       0
BLOCK
       5
2019
     330
2002
     100
AcDbEntity
       8
0
     100
AcDbBlockBegin
       2
Part334207057
      70
0
      10
-23
      20
-35
      30
0
       3
Part334207057
       1

       4
CypCutBlock
       0
CIRCLE
       5
201A
     100
AcDbEntity
       8
1
     100
AcDbCircle
      10
0
      20
-30
      30
0
      40
2.5
    1001
FS_CYPCUT
    1000
Channel
    1070
1
    1000
LeadIn
    1002
{
    1070
3
    1040
0
    1040
1.5707963267949
    1040
0.5
    1040
0.5
    1070
0
    1040
0.5
    1070
0
    1002
}
    1000
LeadOut
    1002
{
    1070
0
    1040
0
    1040
0
    1040
0
    1070
0
    1002
}
    1000
IsFill
    1070
0
    1000
PathStart
    1040
0
    1000
ToolCompensation
    1002
{
    1070
0
    1040
0
    1070
0
    1002
}
       0
CIRCLE
       5
201B
     100
AcDbEntity
       8
1
     100
AcDbCircle
      10
0
      20
0
      30
0
      40
16.5
    1001
FS_CYPCUT
    1000
Channel
    1070
1
    1000
LeadIn
    1002
{
    1070
3
    1040
0
    1040
1.5707963267949
    1040
0.5
    1040
0.5
    1070
0
    1040
0.5
    1070
0
    1002
}
    1000
LeadOut
    1002
{
    1070
0
    1040
0
    1040
0
    1040
0
    1070
0
    1002
}
    1000
IsFill
    1070
0
    1000
PathStart
    1040
0
    1000
ToolCompensation
    1002
{
    1070
0
    1040
0
    1070
0
    1002
}
       0
CIRCLE
       5
201C
     100
AcDbEntity
       8
1
     100
AcDbCircle
      10
0
      20
30
      30
0
      40
2.5
    1001
FS_CYPCUT
    1000
Channel
    1070
1
    1000
LeadIn
    1002
{
    1070
3
    1040
0
    1040
1.5707963267949
    1040
0.5
    1040
0.5
    1070
0
    1040
0.5
    1070
0
    1002
}
    1000
LeadOut
    1002
{
    1070
0
    1040
0
    1040
0
    1040
0
    1070
0
    1002
}
    1000
IsFill
    1070
0
    1000
PathStart
    1040
0
    1000
ToolCompensation
    1002
{
    1070
0
    1040
0
    1070
0
    1002
}
       0
LWPOLYLINE
       5
201D
     100
AcDbEntity
       8
1
     100
AcDbPolyline
      90
8
      70
1
      10
18.4
      20
13.8
      42
0
      10
4.00000000000231
      20
32.9999999999969
      42
0.500000000000479
      10
-4
      20
33
      42
0
      10
-18.4
      20
13.8
      42
0.333333333332906
      10
-18.4000000000106
      20
-13.7999999999859
      42
0
      10
-4.00000000000231
      20
-32.9999999999969
      42
0.500000000000479
      10
4
      20
-33
      42
0
      10
18.4
      20
-13.8
      42
0.333333333332906
    1001
FS_CYPCUT
    1000
Channel
    1070
1
    1000
LeadIn
    1002
{
    1070
3
    1040
3.5
    1040
1.5707963267949
    1040
0.5
    1040
0.5
    1070
0
    1040
0.5
    1070
0
    1002
}
    1000
LeadOut
    1002
{
    1070
0
    1040
0
    1040
0
    1040
0
    1070
0
    1002
}
    1000
IsFill
    1070
1
    1000
PathStart
    1040
3.5
    1000
ToolCompensation
    1002
{
    1070
0
    1040
0
    1070
0
    1002
}
    1000
MicroConnect
    1002
{
    1070
2
    1040
0.397425474
    1041
0.6
    1042
0
    1040
4.43441734
    1041
0.6
    1042
0
    1002
}
       0
ENDBLK
       5
201E
     330
2002
     100
AcDbEntity
       8
0
     100
AcDbBlockEnd
       0
BLOCK
       5
201F
     330
2003
     100
AcDbEntity
       8
0
     100
AcDbBlockBegin
       2
Part642053443
      70
0
      10
-9.05941988E-14
      20
-168.604434
      30
0
       3
Part642053443
       1

       4
CypCutBlock
       0
LWPOLYLINE
       5
2020
     100
AcDbEntity
       8
1
     100
AcDbPolyline
      90
4
      70
1
      10
30.15
      20
11.0790823624
      42
0
      10
30.15
      20
7.5790823624
      42
0
      10
9.85
      20
7.5790823624
      42
0
      10
9.85
      20
11.0790823624
      42
0
    1001
FS_CYPCUT
    1000
Channel
    1070
1
    1000
LeadIn
    1002
{
    1070
3
    1040
1.5
    1040
1.5707963267949
    1040
0.5
    1040
0.3
    1070
0
    1040
0.5
    1070
0
    1002
}
    1000
LeadOut
    1002
{
    1070
0
    1040
0
    1040
0
    1040
0
    1070
0
    1002
}
    1000
IsFill
    1070
0
    1000
PathStart
    1040
1.5
    1000
ToolCompensation
    1002
{
    1070
0
    1040
0
    1070
0
    1002
}
       0
CIRCLE
       5
2021
     100
AcDbEntity
       8
1
     100
AcDbCircle
      10
50
      20
101.3017953589
      30
0
      40
20
    1001
FS_CYPCUT
    1000
Channel
    1070
1
    1000
LeadIn
    1002
{
    1070
3
    1040
0
    1040
1.5707963267949
    1040
0.5
    1040
0.3
    1070
0
    1040
0.5
    1070
0
    1002
}
    1000
LeadOut
    1002
{
    1070
0
    1040
0
    1040
0
    1040
0
    1070
0
    1002
}
    1000
IsFill
    1070
0
    1000
PathStart
    1040
1
    1000
ToolCompensation
    1002
{
    1070
0
    1040
0
    1070
0
    1002
}
       0
LINE
       5
2022
     100
AcDbEntity
       8
2
     100
AcDbLine
      10
0
      20
132.2861610571
      30
0
      11
550
      21
132.2861610571
      31
0
    1001
FS_CYPCUT
    1000
Channel
    1070
2
    1000
LeadIn
    1002
{
    1070
3
    1040
0
    1040
1.5707963267949
    1040
0.5
    1040
0.3
    1070
0
    1040
0.5
    1070
0
    1002
}
    1000
LeadOut
    1002
{
    1070
0
    1040
0
    1040
0
    1040
0
    1070
0
    1002
}
    1000
IsFill
    1070
0
    1000
PathStart
    1040
0
    1000
ToolCompensation
    1002
{
    1070
0
    1040
0
    1070
0
    1002
}
       0
CIRCLE
       5
2023
     100
AcDbEntity
       8
1
     100
AcDbCircle
      10
275
      20
101.3017953589
      30
0
      40
19.9999999999998
    1001
FS_CYPCUT
    1000
Channel
    1070
1
    1000
LeadIn
    1002
{
    1070
3
    1040
0
    1040
1.5707963267949
    1040
0.5
    1040
0.3
    1070
0
    1040
0.5
    1070
0
    1002
}
    1000
LeadOut
    1002
{
    1070
0
    1040
0
    1040
0
    1040
0
    1070
0
    1002
}
    1000
IsFill
    1070
0
    1000
PathStart
    1040
1
    1000
ToolCompensation
    1002
{
    1070
0
    1040
0
    1070
0
    1002
}
       0
CIRCLE
       5
2024
     100
AcDbEntity
       8
1
     100
AcDbCircle
      10
162.5
      20
101.3017953589
      30
0
      40
19.9999999999999
    1001
FS_CYPCUT
    1000
Channel
    1070
1
    1000
LeadIn
    1002
{
    1070
3
    1040
0
    1040
1.5707963267949
    1040
0.5
    1040
0.3
    1070
0
    1040
0.5
    1070
0
    1002
}
    1000
LeadOut
    1002
{
    1070
0
    1040
0
    1040
0
    1040
0
    1070
0
    1002
}
    1000
IsFill
    1070
0
    1000
PathStart
    1040
0
    1000
ToolCompensation
    1002
{
    1070
0
    1040
0
    1070
0
    1002
}
       0
LWPOLYLINE
       5
2025
     100
AcDbEntity
       8
1
     100
AcDbPolyline
      90
4
      70
1
      10
285.15
      20
11.0790823624
      42
0
      10
285.15
      20
7.5790823624
      42
0
      10
264.85
      20
7.5790823624
      42
0
      10
264.85
      20
11.0790823624
      42
0
    1001
FS_CYPCUT
    1000
Channel
    1070
1
    1000
LeadIn
    1002
{
    1070
3
    1040
1.5
    1040
1.5707963267949
    1040
0.5
    1040
0.3
    1070
0
    1040
0.5
    1070
0
    1002
}
    1000
LeadOut
    1002
{
    1070
0
    1040
0
    1040
0
    1040
0
    1070
0
    1002
}
    1000
IsFill
    1070
0
    1000
PathStart
    1040
1.5
    1000
ToolCompensation
    1002
{
    1070
0
    1040
0
    1070
0
    1002
}
       0
CIRCLE
       5
2026
     100
AcDbEntity
       8
1
     100
AcDbCircle
      10
196
      20
-57.1709176376
      30
0
      40
17.5
    1001
FS_CYPCUT
    1000
Channel
    1070
1
    1000
LeadIn
    1002
{
    1070
3
    1040
5.55111512312578E-17
    1040
1.5707963267949
    1040
0.5
    1040
0.3
    1070
0
    1040
0.5
    1070
0
    1002
}
    1000
LeadOut
    1002
{
    1070
0
    1040
0
    1040
0
    1040
0
    1070
0
    1002
}
    1000
IsFill
    1070
0
    1000
PathStart
    1040
5.55111512312578E-17
    1000
ToolCompensation
    1002
{
    1070
0
    1040
0
    1070
0
    1002
}
       0
LINE
       5
2027
     100
AcDbEntity
       8
2
     100
AcDbLine
      10
0
      20
21.4145411812
      30
0
      11
550
      21
21.4145411812
      31
0
    1001
FS_CYPCUT
    1000
Channel
    1070
2
    1000
LeadIn
    1002
{
    1070
3
    1040
0
    1040
1.5707963267949
    1040
0.5
    1040
0.3
    1070
0
    1040
0.5
    1070
0
    1002
}
    1000
LeadOut
    1002
{
    1070
0
    1040
0
    1040
0
    1040
0
    1070
0
    1002
}
    1000
IsFill
    1070
0
    1000
PathStart
    1040
0
    1000
ToolCompensation
    1002
{
    1070
0
    1040
0
    1070
0
    1002
}
       0
CIRCLE
       5
2028
     100
AcDbEntity
       8
1
     100
AcDbCircle
      10
180
      20
-145.1709176376
      30
0
      40
8
    1001
FS_CYPCUT
    1000
Channel
    1070
1
    1000
LeadIn
    1002
{
    1070
3
    1040
0
    1040
1.5707963267949
    1040
0.5
    1040
0.3
    1070
0
    1040
0.5
    1070
0
    1002
}
    1000
LeadOut
    1002
{
    1070
0
    1040
0
    1040
0
    1040
0
    1070
0
    1002
}
    1000
IsFill
    1070
0
    1000
PathStart
    1040
0
    1000
ToolCompensation
    1002
{
    1070
0
    1040
0
    1070
0
    1002
}
       0
CIRCLE
       5
2029
     100
AcDbEntity
       8
1
     100
AcDbCircle
      10
387.5
      20
101.3017953589
      30
0
      40
20.0000000000002
    1001
FS_CYPCUT
    1000
Channel
    1070
1
    1000
LeadIn
    1002
{
    1070
3
    1040
0
    1040
1.5707963267949
    1040
0.5
    1040
0.3
    1070
0
    1040
0.5
    1070
0
    1002
}
    1000
LeadOut
    1002
{
    1070
0
    1040
0
    1040
0
    1040
0
    1070
0
    1002
}
    1000
IsFill
    1070
0
    1000
PathStart
    1040
1
    1000
ToolCompensation
    1002
{
    1070
0
    1040
0
    1070
0
    1002
}
       0
CIRCLE
       5
202A
     100
AcDbEntity
       8
1
     100
AcDbCircle
      10
500
      20
101.3017953589
      30
0
      40
19.9999999999998
    1001
FS_CYPCUT
    1000
Channel
    1070
1
    1000
LeadIn
    1002
{
    1070
3
    1040
0
    1040
1.5707963267949
    1040
0.5
    1040
0.3
    1070
0
    1040
0.5
    1070
0
    1002
}
    1000
LeadOut
    1002
{
    1070
0
    1040
0
    1040
0
    1040
0
    1070
0
    1002
}
    1000
IsFill
    1070
0
    1000
PathStart
    1040
1
    1000
ToolCompensation
    1002
{
    1070
0
    1040
0
    1070
0
    1002
}
       0
LWPOLYLINE
       5
202B
     100
AcDbEntity
       8
1
     100
AcDbPolyline
      90
4
      70
1
      10
540.15
      20
11.0790823624
      42
0
      10
540.15
      20
7.5790823624
      42
0
      10
519.85
      20
7.5790823624
      42
0
      10
519.85
      20
11.0790823624
      42
0
    1001
FS_CYPCUT
    1000
Channel
    1070
1
    1000
LeadIn
    1002
{
    1070
3
    1040
1.5
    1040
1.5707963267949
    1040
0.5
    1040
0.3
    1070
0
    1040
0.5
    1070
0
    1002
}
    1000
LeadOut
    1002
{
    1070
0
    1040
0
    1040
0
    1040
0
    1070
0
    1002
}
    1000
IsFill
    1070
0
    1000
PathStart
    1040
1.5
    1000
ToolCompensation
    1002
{
    1070
0
    1040
0
    1070
0
    1002
}
       0
LWPOLYLINE
       5
202C
     100
AcDbEntity
       8
1
     100
AcDbPolyline
      90
12
      70
1
      10
550
      20
142.4503444875
      42
0
      10
550
      20
-7.1709176376
      42
-0.41421356237309
      10
540
      20
-17.1709176376
      42
0
      10
273.5984616842
      20
-17.1709176376002
      42
0.320176759019478
      10
249.958305962213
      20
-34.0380806516395
      42
0
      10
211.0914502229
      20
-147.0144656067
      42
-0.736508372965274
      10
149.999999999972
      20
-145.170917637604
      42
0.388238212672573
      10
10
      20
-17.1709176376003
      42
-0.414213562373095
      10
-1.95399252334028E-14
      20
-7.1709176376
      42
0
      10
-9.05941988094128E-14
      20
138.4503444875
      42
-0.414213562373095
      10
10
      20
148.4503444875
      42
0
      10
544
      20
148.4503444875
      42
-0.41421356237308
    1001
FS_CYPCUT
    1000
Channel
    1070
1
    1000
LeadIn
    1002
{
    1070
3
    1040
10.5
    1040
1.5707963267949
    1040
0.5
    1040
0.3
    1070
0
    1040
0.5
    1070
0
    1002
}
    1000
LeadOut
    1002
{
    1070
0
    1040
0
    1040
0
    1040
0
    1070
0
    1002
}
    1000
IsFill
    1070
1
    1000
PathStart
    1040
10.5
    1000
ToolCompensation
    1002
{
    1070
0
    1040
0
    1070
0
    1002
}
    1000
MicroConnect
    1002
{
    1070
4
    1040
2.58351222
    1041
0.6
    1042
0
    1040
6.53749968
    1041
0.6
    1042
0
    1040
10.2939984
    1041
0.6
    1042
0
    1040
10.7390587
    1041
0.6
    1042
0
    1002
}
       0
ENDBLK
       5
202D
     330
2003
     100
AcDbEntity
       8
0
     100
AcDbBlockEnd
       0
ENDSEC
       0
SECTION
       2
ENTITIES
       0
SPLINE
       5
202E
     100
AcDbEntity
       8
1
     100
AcDbSpline
      70
0
      71
3
      72
136
      73
132
      74
0
      40
0
      40
0
      40
0
      40
0
      40
0.0303030303030303
      40
0.0303030303030303
      40
0.0303030303030303
      40
0.0303030303030303
      40
0.0606060606060606
      40
0.0606060606060606
      40
0.0606060606060606
      40
0.0606060606060606
      40
0.0909090909090909
      40
0.0909090909090909
      40
0.0909090909090909
      40
0.0909090909090909
      40
0.121212121212121
      40
0.121212121212121
      40
0.121212121212121
      40
0.121212121212121
      40
0.151515151515152
      40
0.151515151515152
      40
0.151515151515152
      40
0.151515151515152
      40
0.181818181818182
      40
0.181818181818182
      40
0.181818181818182
      40
0.181818181818182
      40
0.212121212121212
      40
0.212121212121212
      40
0.212121212121212
      40
0.212121212121212
      40
0.242424242424242
      40
0.242424242424242
      40
0.242424242424242
      40
0.242424242424242
      40
0.272727272727273
      40
0.272727272727273
      40
0.272727272727273
      40
0.272727272727273
      40
0.303030303030303
      40
0.303030303030303
      40
0.303030303030303
      40
0.303030303030303
      40
0.333333333333333
      40
0.333333333333333
      40
0.333333333333333
      40
0.333333333333333
      40
0.363636363636364
      40
0.363636363636364
      40
0.363636363636364
      40
0.363636363636364
      40
0.393939393939394
      40
0.393939393939394
      40
0.393939393939394
      40
0.393939393939394
      40
0.424242424242424
      40
0.424242424242424
      40
0.424242424242424
      40
0.424242424242424
      40
0.454545454545455
      40
0.454545454545455
      40
0.454545454545455
      40
0.454545454545455
      40
0.484848484848485
      40
0.484848484848485
      40
0.484848484848485
      40
0.484848484848485
      40
0.515151515151515
      40
0.515151515151515
      40
0.515151515151515
      40
0.515151515151515
      40
0.545454545454545
      40
0.545454545454545
      40
0.545454545454545
      40
0.545454545454545
      40
0.575757575757576
      40
0.575757575757576
      40
0.575757575757576
      40
0.575757575757576
      40
0.606060606060606
      40
0.606060606060606
      40
0.606060606060606
      40
0.606060606060606
      40
0.636363636363636
      40
0.636363636363636
      40
0.636363636363636
      40
0.636363636363636
      40
0.666666666666667
      40
0.666666666666667
      40
0.666666666666667
      40
0.666666666666667
      40
0.696969696969697
      40
0.696969696969697
      40
0.696969696969697
      40
0.696969696969697
      40
0.727272727272727
      40
0.727272727272727
      40
0.727272727272727
      40
0.727272727272727
      40
0.757575757575758
      40
0.757575757575758
      40
0.757575757575758
      40
0.757575757575758
      40
0.787878787878788
      40
0.787878787878788
      40
0.787878787878788
      40
0.787878787878788
      40
0.818181818181818
      40
0.818181818181818
      40
0.818181818181818
      40
0.818181818181818
      40
0.848484848484849
      40
0.848484848484849
      40
0.848484848484849
      40
0.848484848484849
      40
0.878787878787879
      40
0.878787878787879
      40
0.878787878787879
      40
0.878787878787879
      40
0.909090909090909
      40
0.909090909090909
      40
0.909090909090909
      40
0.909090909090909
      40
0.939393939393939
      40
0.939393939393939
      40
0.939393939393939
      40
0.939393939393939
      40
0.96969696969697
      40
0.96969696969697
      40
0.96969696969697
      40
0.96969696969697
      40
1
      40
1
      40
1
      40
1
      10
2369.84405929935
      20
5584.31254735267
      30
0
      10
2375.26887706318
      20
5584.93124477053
      30
0
      10
2380.69369482701
      20
5585.5499421884
      30
0
      10
2386.11851259085
      20
5586.16863960627
      30
0
      10
2386.11851259085
      20
5586.16863960627
      30
0
      10
2387.14732880172
      20
5581.20931667415
      30
0
      10
2387.21356763914
      20
5576.21694306987
      30
0
      10
2386.32723127642
      20
5571.22611611838
      30
0
      10
2386.32723127642
      20
5571.22611611838
      30
0
      10
2385.62590858345
      20
5567.27965508853
      30
0
      10
2384.32817525327
      20
5563.50150837825
      30
0
      10
2382.45050459159
      20
5559.90584895044
      30
0
      10
2382.45050459159
      20
5559.90584895044
      30
0
      10
2380.59358163078
      20
5556.3508463802
      30
0
      10
2378.22266396803
      20
5553.13932289582
      30
0
      10
2375.35617380658
      20
5550.27926173692
      30
0
      10
2375.35617380658
      20
5550.27926173692
      30
0
      10
2372.52133962537
      20
5547.45107918273
      30
0
      10
2369.28669031221
      20
5545.09238322268
      30
0
      10
2365.69640681568
      20
5543.22580712558
      30
0
      10
2365.69640681568
      20
5543.22580712558
      30
0
      10
2362.14498583918
      20
5541.38004866631
      30
0
      10
2358.34923086224
      20
5540.10325969206
      30
0
      10
2354.35556513614
      20
5539.40078491158
      30
0
      10
2354.35556513614
      20
5539.40078491158
      30
0
      10
2350.40719428199
      20
5538.70693644356
      30
0
      10
2346.41323063039
      20
5538.63135635416
      30
0
      10
2342.39518075844
      20
5539.16293165731
      30
0
      10
2342.39518075844
      20
5539.16293165731
      30
0
      10
2338.42170664493
      20
5539.6889341523
      30
0
      10
2334.58811688648
      20
5540.81572072627
      30
0
      10
2330.92009167457
      20
5542.52690983425
      30
0
      10
2330.92009167457
      20
5542.52690983425
      30
0
      10
2327.07344765406
      20
5544.31981699786
      30
0
      10
2323.53857995177
      20
5546.74333790362
      30
0
      10
2320.43272721764
      20
5549.69831952103
      30
0
      10
2320.43272721764
      20
5549.69831952103
      30
0
      10
2317.72070389706
      20
5552.27964475655
      30
0
      10
2315.40193044368
      20
5555.23885862264
      30
0
      10
2313.50136475831
      20
5558.52855739717
      30
0
      10
2313.50136475831
      20
5558.52855739717
      30
0
      10
2311.49667524302
      20
5561.99963480579
      30
0
      10
2310.05662596564
      20
5565.72658691441
      30
0
      10
2309.17879808011
      20
5569.68360287529
      30
0
      10
2309.17879808011
      20
5569.68360287529
      30
0
      10
2308.31103009772
      20
5573.59697436411
      30
0
      10
2308.05561619647
      20
5577.58383167627
      30
0
      10
2308.40601899705
      20
5581.61649126331
      30
0
      10
2308.40601899705
      20
5581.61649126331
      30
0
      10
2308.75281852868
      20
5585.60304172025
      30
0
      10
2309.71011249162
      20
5589.49472314935
      30
0
      10
2311.25607544714
      20
5593.23780915912
      30
0
      10
2311.25607544714
      20
5593.23780915912
      30
0
      10
2312.78572341724
      20
5596.93978131087
      30
0
      10
2314.86600033728
      20
5600.35604908876
      30
0
      10
2317.47122691011
      20
5603.46619231622
      30
0
      10
2317.47122691011
      20
5603.46619231622
      30
0
      10
2320.04839631682
      20
5606.54191632783
      30
0
      10
2323.04918881998
      20
5609.1664625242
      30
0
      10
2326.46710097963
      20
5611.34837043204
      30
0
      10
2326.46710097963
      20
5611.34837043204
      30
0
      10
2331.50955825568
      20
5614.57496634886
      30
0
      10
2337.31271956049
      20
5616.60675696463
      30
0
      10
2343.30734978131
      20
5617.27542195939
      30
0
      10
2343.30734978131
      20
5617.27542195939
      30
0
      10
2344.29902067832
      20
5617.38514394284
      30
0
      10
2345.2910312094
      20
5617.45595444309
      30
0
      10
2346.28338137454
      20
5617.48785346011
      30
0
      10
2346.28338137454
      20
5617.48785346011
      30
0
      10
2345.96938514898
      20
5612.03690486043
      30
0
      10
2345.65538892341
      20
5606.5859562608
      30
0
      10
2345.34139269785
      20
5601.13500766117
      30
0
      10
2345.34139269785
      20
5601.13500766117
      30
0
      10
2345.00569975741
      20
5601.09215617318
      30
0
      10
2344.67000681694
      20
5601.04930468518
      30
0
      10
2344.33431387646
      20
5601.00645319719
      30
0
      10
2344.33431387646
      20
5601.00645319719
      30
0
      10
2344.08857620425
      20
5600.96867192448
      30
0
      10
2343.84283853203
      20
5600.93089065178
      30
0
      10
2343.59710085981
      20
5600.89310937907
      30
0
      10
2343.59710085981
      20
5600.89310937907
      30
0
      10
2342.61985050217
      20
5600.72139150861
      30
0
      10
2341.56799094204
      20
5600.46312291145
      30
0
      10
2340.60681840183
      20
5600.15699584596
      30
0
      10
2340.60681840183
      20
5600.15699584596
      30
0
      10
2337.10152724123
      20
5599.04886369631
      30
0
      10
2333.89387090049
      20
5597.09628497771
      30
0
      10
2331.28567894632
      20
5594.49162255606
      30
0
      10
2331.28567894632
      20
5594.49162255606
      30
0
      10
2328.80277232557
      20
5592.01657989951
      30
0
      10
2326.87353652309
      20
5588.92816531904
      30
0
      10
2325.75021124016
      20
5585.60601609123
      30
0
      10
2325.75021124016
      20
5585.60601609123
      30
0
      10
2324.65384997592
      20
5582.3907512576
      30
0
      10
2324.28404879469
      20
5578.9863434023
      30
0
      10
2324.65769288637
      20
5575.60923270994
      30
0
      10
2324.65769288637
      20
5575.60923270994
      30
0
      10
2325.05589531684
      20
5571.97946984678
      30
0
      10
2326.35355980623
      20
5568.4063870174
      30
0
      10
2328.38515831649
      20
5565.36980903687
      30
0
      10
2328.38515831649
      20
5565.36980903687
      30
0
      10
2330.26703033837
      20
5562.5418394462
      30
0
      10
2332.74170995989
      20
5560.17460843921
      30
0
      10
2335.64748671072
      20
5558.41379885942
      30
0
      10
2335.64748671072
      20
5558.41379885942
      30
0
      10
2338.7685794682
      20
5556.51852900894
      30
0
      10
2342.39284885725
      20
5555.37102939945
      30
0
      10
2346.03851229752
      20
5555.13243082871
      30
0
      10
2346.03851229752
      20
5555.13243082871
      30
0
      10
2349.42751222911
      20
5554.90216450533
      30
0
      10
2352.81234135667
      20
5555.42271605046
      30
0
      10
2355.97884753847
      20
5556.65452970805
      30
0
      10
2355.97884753847
      20
5556.65452970805
      30
0
      10
2359.38304855193
      20
5557.97513778332
      30
0
      10
2362.50103192215
      20
5560.15039581717
      30
0
      10
2364.91100327766
      20
5562.89627548375
      30
0
      10
2364.91100327766
      20
5562.89627548375
      30
0
      10
2367.15785105758
      20
5565.44360710401
      30
0
      10
2368.80661882446
      20
5568.44450927027
      30
0
      10
2369.75915322197
      20
5571.70687263452
      30
0
      10
2369.75915322197
      20
5571.70687263452
      30
0
      10
2370.58035265446
      20
5574.50746252971
      30
0
      10
2370.85684407144
      20
5577.50321995454
      30
0
      10
2370.56777010383
      20
5580.41484302958
      30
0
      10
2370.56777010383
      20
5580.41484302958
      30
0
      10
2370.52477519184
      20
5580.85108083353
      30
0
      10
2370.46566303798
      20
5581.31688029241
      30
0
      10
2370.3984894394
      20
5581.74709340585
      30
0
      10
2370.3984894394
      20
5581.74709340585
      30
0
      10
2370.22930149811
      20
5582.78680173983
      30
0
      10
2370.15485716406
      20
5583.07222902936
      30
0
      10
2369.84405929938
      20
5584.31254735271
      30
0
    1001
FS_CYPCUT
    1000
Channel
    1070
1
    1000
LeadIn
    1002
{
    1070
3
    1040
15.5
    1040
1.5707963267949
    1040
0.5
    1040
0.5
    1070
0
    1040
0.5
    1070
0
    1002
}
    1000
LeadOut
    1002
{
    1070
0
    1040
0
    1040
0
    1040
0
    1070
0
    1002
}
    1000
IsFill
    1070
1
    1000
PathStart
    1040
15.5
    1000
ToolCompensation
    1002
{
    1070
0
    1040
0
    1070
0
    1002
}
    1000
MicroConnect
    1002
{
    1070
3
    1040
8.3593235
    1041
0.4
    1042
0
    1040
23
    1041
0.4
    1042
0
    1040
29
    1041
0.4
    1042
0
    1002
}
       0
INSERT
       5
202F
     100
AcDbEntity
       8
1
     100
AcDbBlockReference
       2
Part
      10
2858.35687270065
      20
5682.91196646012
      30
0
      41
1
      42
1
      50
180
    1001
FS_CYPCUT
    1000
Channel
    1070
1
    1000
LeadIn
    1002
{
    1070
0
    1040
0
    1040
0
    1040
0
    1040
0
    1070
0
    1040
0
    1070
0
    1002
}
    1000
LeadOut
    1002
{
    1070
0
    1040
0
    1040
0
    1040
0
    1070
0
    1002
}
       0
INSERT
       5
2030
     100
AcDbEntity
       8
1
     100
AcDbBlockReference
       2
Part817119642
      10
2644.59287277437
      20
5563.51535357229
      30
0
      41
1
      42
1
      50
90.0000001836389
    1001
FS_CYPCUT
    1000
Channel
    1070
1
    1000
LeadIn
    1002
{
    1070
0
    1040
0
    1040
0
    1040
0
    1040
0
    1070
0
    1040
0
    1070
0
    1002
}
    1000
LeadOut
    1002
{
    1070
0
    1040
0
    1040
0
    1040
0
    1070
0
    1002
}
       0
LWPOLYLINE
       5
2031
     100
AcDbEntity
       8
1
     100
AcDbPolyline
      90
28
      70
1
      10
3122.08717270065
      20
5558.38445346011
      42
0
      10
3122.08717270065
      20
5537.38445346011
      42
0
      10
3112.08717270065
      20
5537.38445346011
      42
0
      10
3112.08717270065
      20
5534.38445346011
      42
0
      10
3092.08717270065
      20
5534.38445346011
      42
0
      10
3092.08717270065
      20
5537.38445346011
      42
0
      10
2857.08717270065
      20
5537.38445346011
      42
0
      10
2857.08717270065
      20
5534.38445346011
      42
0
      10
2837.08717270065
      20
5534.38445346011
      42
0
      10
2837.08717270065
      20
5537.38445346011
      42
0
      10
2602.08717270065
      20
5537.38445346011
      42
0
      10
2602.08717270065
      20
5534.38445346011
      42
0
      10
2582.08717270065
      20
5534.38445346011
      42
0
      10
2582.08717270065
      20
5537.38445346011
      42
0
      10
2572.08717270065
      20
5537.38445346011
      42
0
      10
2572.08717270065
      20
5558.38445346011
      42
0
      10
2582.08717270065
      20
5558.38445346011
      42
0
      10
2582.08717270065
      20
5561.38445346011
      42
0
      10
2602.08717270065
      20
5561.38445346011
      42
0
      10
2602.08717270065
      20
5558.38445346011
      42
0
      10
2837.08717270065
      20
5558.38445346011
      42
0
      10
2837.08717270065
      20
5561.38445346011
      42
0
      10
2857.08717270065
      20
5561.38445346011
      42
0
      10
2857.08717270065
      20
5558.38445346011
      42
0
      10
3092.08717270065
      20
5558.38445346011
      42
0
      10
3092.08717270065
      20
5561.38445346011
      42
0
      10
3112.08717270065
      20
5561.38445346011
      42
0
      10
3112.08717270065
      20
5558.38445346011
      42
0
    1001
FS_CYPCUT
    1000
Channel
    1070
1
    1000
LeadIn
    1002
{
    1070
3
    1040
5.5
    1040
1.5707963267949
    1040
0.5
    1040
0.5
    1070
0
    1040
0.5
    1070
0
    1002
}
    1000
LeadOut
    1002
{
    1070
0
    1040
0
    1040
0
    1040
0
    1070
0
    1002
}
    1000
IsFill
    1070
1
    1000
PathStart
    1040
5.5
    1000
ToolCompensation
    1002
{
    1070
0
    1040
0
    1070
0
    1002
}
    1000
MicroConnect
    1002
{
    1070
2
    1040
9.49356324
    1041
0.6
    1042
0
    1040
23.5286881
    1041
0.6
    1042
0
    1002
}
       0
INSERT
       5
2032
     100
AcDbEntity
       8
1
     100
AcDbBlockReference
       2
Part334207057
      10
3165.98987270065
      20
5609.09035346011
      30
0
      41
1
      42
1
      50
180
    1001
FS_CYPCUT
    1000
Channel
    1070
1
    1000
LeadIn
    1002
{
    1070
0
    1040
0
    1040
0
    1040
0
    1040
0
    1070
0
    1040
0
    1070
0
    1002
}
    1000
LeadOut
    1002
{
    1070
0
    1040
0
    1040
0
    1040
0
    1070
0
    1002
}
       0
INSERT
       5
2033
     100
AcDbEntity
       8
1
     100
AcDbBlockReference
       2
Part642053443
      10
3411.55697270065
      20
5682.78368746012
      30
0
      41
1
      42
1
      50
180
    1001
FS_CYPCUT
    1000
Channel
    1070
1
    1000
LeadIn
    1002
{
    1070
0
    1040
0
    1040
0
    1040
0
    1040
0
    1070
0
    1040
0
    1070
0
    1002
}
    1000
LeadOut
    1002
{
    1070
0
    1040
0
    1040
0
    1040
0
    1070
0
    1002
}
       0
SPLINE
       5
2034
     100
AcDbEntity
       8
1
     100
AcDbSpline
      70
0
      71
3
      72
136
      73
132
      74
0
      40
0
      40
0
      40
0
      40
0
      40
0.0303030303030303
      40
0.0303030303030303
      40
0.0303030303030303
      40
0.0303030303030303
      40
0.0606060606060606
      40
0.0606060606060606
      40
0.0606060606060606
      40
0.0606060606060606
      40
0.0909090909090909
      40
0.0909090909090909
      40
0.0909090909090909
      40
0.0909090909090909
      40
0.121212121212121
      40
0.121212121212121
      40
0.121212121212121
      40
0.121212121212121
      40
0.151515151515152
      40
0.151515151515152
      40
0.151515151515152
      40
0.151515151515152
      40
0.181818181818182
      40
0.181818181818182
      40
0.181818181818182
      40
0.181818181818182
      40
0.212121212121212
      40
0.212121212121212
      40
0.212121212121212
      40
0.212121212121212
      40
0.242424242424242
      40
0.242424242424242
      40
0.242424242424242
      40
0.242424242424242
      40
0.272727272727273
      40
0.272727272727273
      40
0.272727272727273
      40
0.272727272727273
      40
0.303030303030303
      40
0.303030303030303
      40
0.303030303030303
      40
0.303030303030303
      40
0.333333333333333
      40
0.333333333333333
      40
0.333333333333333
      40
0.333333333333333
      40
0.363636363636364
      40
0.363636363636364
      40
0.363636363636364
      40
0.363636363636364
      40
0.393939393939394
      40
0.393939393939394
      40
0.393939393939394
      40
0.393939393939394
      40
0.424242424242424
      40
0.424242424242424
      40
0.424242424242424
      40
0.424242424242424
      40
0.454545454545455
      40
0.454545454545455
      40
0.454545454545455
      40
0.454545454545455
      40
0.484848484848485
      40
0.484848484848485
      40
0.484848484848485
      40
0.484848484848485
      40
0.515151515151515
      40
0.515151515151515
      40
0.515151515151515
      40
0.515151515151515
      40
0.545454545454545
      40
0.545454545454545
      40
0.545454545454545
      40
0.545454545454545
      40
0.575757575757576
      40
0.575757575757576
      40
0.575757575757576
      40
0.575757575757576
      40
0.606060606060606
      40
0.606060606060606
      40
0.606060606060606
      40
0.606060606060606
      40
0.636363636363636
      40
0.636363636363636
      40
0.636363636363636
      40
0.636363636363636
      40
0.666666666666667
      40
0.666666666666667
      40
0.666666666666667
      40
0.666666666666667
      40
0.696969696969697
      40
0.696969696969697
      40
0.696969696969697
      40
0.696969696969697
      40
0.727272727272727
      40
0.727272727272727
      40
0.727272727272727
      40
0.727272727272727
      40
0.757575757575758
      40
0.757575757575758
      40
0.757575757575758
      40
0.757575757575758
      40
0.787878787878788
      40
0.787878787878788
      40
0.787878787878788
      40
0.787878787878788
      40
0.818181818181818
      40
0.818181818181818
      40
0.818181818181818
      40
0.818181818181818
      40
0.848484848484849
      40
0.848484848484849
      40
0.848484848484849
      40
0.848484848484849
      40
0.878787878787879
      40
0.878787878787879
      40
0.878787878787879
      40
0.878787878787879
      40
0.909090909090909
      40
0.909090909090909
      40
0.909090909090909
      40
0.909090909090909
      40
0.939393939393939
      40
0.939393939393939
      40
0.939393939393939
      40
0.939393939393939
      40
0.96969696969697
      40
0.96969696969697
      40
0.96969696969697
      40
0.96969696969697
      40
1
      40
1
      40
1
      40
1
      10
3391.78535929935
      20
5585.20514735267
      30
0
      10
3397.21017706318
      20
5585.82384477053
      30
0
      10
3402.63499482701
      20
5586.4425421884
      30
0
      10
3408.05981259085
      20
5587.06123960627
      30
0
      10
3408.05981259085
      20
5587.06123960627
      30
0
      10
3409.08862880172
      20
5582.10191667415
      30
0
      10
3409.15486763914
      20
5577.10954306987
      30
0
      10
3408.26853127642
      20
5572.11871611838
      30
0
      10
3408.26853127642
      20
5572.11871611838
      30
0
      10
3407.56720858345
      20
5568.17225508853
      30
0
      10
3406.26947525327
      20
5564.39410837825
      30
0
      10
3404.39180459159
      20
5560.79844895044
      30
0
      10
3404.39180459159
      20
5560.79844895044
      30
0
      10
3402.53488163078
      20
5557.2434463802
      30
0
      10
3400.16396396803
      20
5554.03192289582
      30
0
      10
3397.29747380658
      20
5551.17186173692
      30
0
      10
3397.29747380658
      20
5551.17186173692
      30
0
      10
3394.46263962537
      20
5548.34367918273
      30
0
      10
3391.22799031221
      20
5545.98498322268
      30
0
      10
3387.63770681568
      20
5544.11840712558
      30
0
      10
3387.63770681568
      20
5544.11840712558
      30
0
      10
3384.08628583918
      20
5542.27264866631
      30
0
      10
3380.29053086224
      20
5540.99585969206
      30
0
      10
3376.29686513614
      20
5540.29338491158
      30
0
      10
3376.29686513614
      20
5540.29338491158
      30
0
      10
3372.34849428199
      20
5539.59953644356
      30
0
      10
3368.35453063039
      20
5539.52395635416
      30
0
      10
3364.33648075844
      20
5540.05553165731
      30
0
      10
3364.33648075844
      20
5540.05553165731
      30
0
      10
3360.36300664493
      20
5540.5815341523
      30
0
      10
3356.52941688648
      20
5541.70832072627
      30
0
      10
3352.86139167458
      20
5543.41950983425
      30
0
      10
3352.86139167458
      20
5543.41950983425
      30
0
      10
3349.01474765406
      20
5545.21241699786
      30
0
      10
3345.47987995177
      20
5547.63593790362
      30
0
      10
3342.37402721764
      20
5550.59091952103
      30
0
      10
3342.37402721764
      20
5550.59091952103
      30
0
      10
3339.66200389706
      20
5553.17224475655
      30
0
      10
3337.34323044368
      20
5556.13145862264
      30
0
      10
3335.44266475831
      20
5559.42115739717
      30
0
      10
3335.44266475831
      20
5559.42115739717
      30
0
      10
3333.43797524302
      20
5562.89223480579
      30
0
      10
3331.99792596564
      20
5566.61918691441
      30
0
      10
3331.12009808011
      20
5570.57620287529
      30
0
      10
3331.12009808011
      20
5570.57620287529
      30
0
      10
3330.25233009772
      20
5574.48957436411
      30
0
      10
3329.99691619648
      20
5578.47643167627
      30
0
      10
3330.34731899705
      20
5582.50909126331
      30
0
      10
3330.34731899705
      20
5582.50909126331
      30
0
      10
3330.69411852868
      20
5586.49564172025
      30
0
      10
3331.65141249162
      20
5590.38732314935
      30
0
      10
3333.19737544714
      20
5594.13040915912
      30
0
      10
3333.19737544714
      20
5594.13040915912
      30
0
      10
3334.72702341724
      20
5597.83238131087
      30
0
      10
3336.80730033728
      20
5601.24864908876
      30
0
      10
3339.41252691011
      20
5604.35879231622
      30
0
      10
3339.41252691011
      20
5604.35879231622
      30
0
      10
3341.98969631682
      20
5607.43451632783
      30
0
      10
3344.99048881998
      20
5610.0590625242
      30
0
      10
3348.40840097963
      20
5612.24097043204
      30
0
      10
3348.40840097963
      20
5612.24097043204
      30
0
      10
3353.45085825568
      20
5615.46756634886
      30
0
      10
3359.25401956049
      20
5617.49935696463
      30
0
      10
3365.24864978131
      20
5618.16802195939
      30
0
      10
3365.24864978131
      20
5618.16802195939
      30
0
      10
3366.24032067832
      20
5618.27774394284
      30
0
      10
3367.2323312094
      20
5618.34855444309
      30
0
      10
3368.22468137454
      20
5618.38045346011
      30
0
      10
3368.22468137454
      20
5618.38045346011
      30
0
      10
3367.91068514898
      20
5612.92950486043
      30
0
      10
3367.59668892342
      20
5607.4785562608
      30
0
      10
3367.28269269785
      20
5602.02760766117
      30
0
      10
3367.28269269785
      20
5602.02760766117
      30
0
      10
3366.94699975742
      20
5601.98475617318
      30
0
      10
3366.61130681694
      20
5601.94190468518
      30
0
      10
3366.27561387646
      20
5601.89905319719
      30
0
      10
3366.27561387646
      20
5601.89905319719
      30
0
      10
3366.02987620425
      20
5601.86127192448
      30
0
      10
3365.78413853203
      20
5601.82349065178
      30
0
      10
3365.53840085981
      20
5601.78570937907
      30
0
      10
3365.53840085981
      20
5601.78570937907
      30
0
      10
3364.56115050217
      20
5601.61399150861
      30
0
      10
3363.50929094204
      20
5601.35572291145
      30
0
      10
3362.54811840183
      20
5601.04959584596
      30
0
      10
3362.54811840183
      20
5601.04959584596
      30
0
      10
3359.04282724123
      20
5599.94146369631
      30
0
      10
3355.83517090049
      20
5597.98888497771
      30
0
      10
3353.22697894632
      20
5595.38422255606
      30
0
      10
3353.22697894632
      20
5595.38422255606
      30
0
      10
3350.74407232557
      20
5592.90917989951
      30
0
      10
3348.81483652309
      20
5589.82076531904
      30
0
      10
3347.69151124016
      20
5586.49861609123
      30
0
      10
3347.69151124016
      20
5586.49861609123
      30
0
      10
3346.59514997592
      20
5583.2833512576
      30
0
      10
3346.22534879469
      20
5579.8789434023
      30
0
      10
3346.59899288637
      20
5576.50183270994
      30
0
      10
3346.59899288637
      20
5576.50183270994
      30
0
      10
3346.99719531684
      20
5572.87206984678
      30
0
      10
3348.29485980623
      20
5569.2989870174
      30
0
      10
3350.32645831649
      20
5566.26240903687
      30
0
      10
3350.32645831649
      20
5566.26240903687
      30
0
      10
3352.20833033837
      20
5563.4344394462
      30
0
      10
3354.68300995989
      20
5561.06720843921
      30
0
      10
3357.58878671072
      20
5559.30639885942
      30
0
      10
3357.58878671072
      20
5559.30639885942
      30
0
      10
3360.7098794682
      20
5557.41112900894
      30
0
      10
3364.33414885725
      20
5556.26362939945
      30
0
      10
3367.97981229752
      20
5556.02503082871
      30
0
      10
3367.97981229752
      20
5556.02503082871
      30
0
      10
3371.36881222911
      20
5555.79476450533
      30
0
      10
3374.75364135667
      20
5556.31531605046
      30
0
      10
3377.92014753847
      20
5557.54712970805
      30
0
      10
3377.92014753847
      20
5557.54712970805
      30
0
      10
3381.32434855193
      20
5558.86773778332
      30
0
      10
3384.44233192215
      20
5561.04299581717
      30
0
      10
3386.85230327766
      20
5563.78887548375
      30
0
      10
3386.85230327766
      20
5563.78887548375
      30
0
      10
3389.09915105758
      20
5566.33620710401
      30
0
      10
3390.74791882446
      20
5569.33710927027
      30
0
      10
3391.70045322197
      20
5572.59947263452
      30
0
      10
3391.70045322197
      20
5572.59947263452
      30
0
      10
3392.52165265446
      20
5575.40006252971
      30
0
      10
3392.79814407144
      20
5578.39581995454
      30
0
      10
3392.50907010383
      20
5581.30744302958
      30
0
      10
3392.50907010383
      20
5581.30744302958
      30
0
      10
3392.46607519184
      20
5581.74368083353
      30
0
      10
3392.40696303798
      20
5582.20948029241
      30
0
      10
3392.3397894394
      20
5582.63969340585
      30
0
      10
3392.3397894394
      20
5582.63969340585
      30
0
      10
3392.17060149811
      20
5583.67940173983
      30
0
      10
3392.09615716406
      20
5583.96482902936
      30
0
      10
3391.78535929938
      20
5585.20514735271
      30
0
    1001
FS_CYPCUT
    1000
Channel
    1070
1
    1000
LeadIn
    1002
{
    1070
3
    1040
15.5
    1040
1.5707963267949
    1040
0.5
    1040
0.5
    1070
0
    1040
0.5
    1070
0
    1002
}
    1000
LeadOut
    1002
{
    1070
0
    1040
0
    1040
0
    1040
0
    1070
0
    1002
}
    1000
IsFill
    1070
1
    1000
PathStart
    1040
15.5
    1000
ToolCompensation
    1002
{
    1070
0
    1040
0
    1070
0
    1002
}
    1000
MicroConnect
    1002
{
    1070
3
    1040
8.3593235
    1041
0.4
    1042
0
    1040
23
    1041
0.4
    1042
0
    1040
29
    1041
0.4
    1042
0
    1002
}
       0
SPLINE
       5
2035
     100
AcDbEntity
       8
1
     100
AcDbSpline
      70
0
      71
3
      72
136
      73
132
      74
0
      40
0
      40
0
      40
0
      40
0
      40
0.0303030303030303
      40
0.0303030303030303
      40
0.0303030303030303
      40
0.0303030303030303
      40
0.0606060606060606
      40
0.0606060606060606
      40
0.0606060606060606
      40
0.0606060606060606
      40
0.0909090909090909
      40
0.0909090909090909
      40
0.0909090909090909
      40
0.0909090909090909
      40
0.121212121212121
      40
0.121212121212121
      40
0.121212121212121
      40
0.121212121212121
      40
0.151515151515152
      40
0.151515151515152
      40
0.151515151515152
      40
0.151515151515152
      40
0.181818181818182
      40
0.181818181818182
      40
0.181818181818182
      40
0.181818181818182
      40
0.212121212121212
      40
0.212121212121212
      40
0.212121212121212
      40
0.212121212121212
      40
0.242424242424242
      40
0.242424242424242
      40
0.242424242424242
      40
0.242424242424242
      40
0.272727272727273
      40
0.272727272727273
      40
0.272727272727273
      40
0.272727272727273
      40
0.303030303030303
      40
0.303030303030303
      40
0.303030303030303
      40
0.303030303030303
      40
0.333333333333333
      40
0.333333333333333
      40
0.333333333333333
      40
0.333333333333333
      40
0.363636363636364
      40
0.363636363636364
      40
0.363636363636364
      40
0.363636363636364
      40
0.393939393939394
      40
0.393939393939394
      40
0.393939393939394
      40
0.393939393939394
      40
0.424242424242424
      40
0.424242424242424
      40
0.424242424242424
      40
0.424242424242424
      40
0.454545454545455
      40
0.454545454545455
      40
0.454545454545455
      40
0.454545454545455
      40
0.484848484848485
      40
0.484848484848485
      40
0.484848484848485
      40
0.484848484848485
      40
0.515151515151515
      40
0.515151515151515
      40
0.515151515151515
      40
0.515151515151515
      40
0.545454545454545
      40
0.545454545454545
      40
0.545454545454545
      40
0.545454545454545
      40
0.575757575757576
      40
0.575757575757576
      40
0.575757575757576
      40
0.575757575757576
      40
0.606060606060606
      40
0.606060606060606
      40
0.606060606060606
      40
0.606060606060606
      40
0.636363636363636
      40
0.636363636363636
      40
0.636363636363636
      40
0.636363636363636
      40
0.666666666666667
      40
0.666666666666667
      40
0.666666666666667
      40
0.666666666666667
      40
0.696969696969697
      40
0.696969696969697
      40
0.696969696969697
      40
0.696969696969697
      40
0.727272727272727
      40
0.727272727272727
      40
0.727272727272727
      40
0.727272727272727
      40
0.757575757575758
      40
0.757575757575758
      40
0.757575757575758
      40
0.757575757575758
      40
0.787878787878788
      40
0.787878787878788
      40
0.787878787878788
      40
0.787878787878788
      40
0.818181818181818
      40
0.818181818181818
      40
0.818181818181818
      40
0.818181818181818
      40
0.848484848484849
      40
0.848484848484849
      40
0.848484848484849
      40
0.848484848484849
      40
0.878787878787879
      40
0.878787878787879
      40
0.878787878787879
      40
0.878787878787879
      40
0.909090909090909
      40
0.909090909090909
      40
0.909090909090909
      40
0.909090909090909
      40
0.939393939393939
      40
0.939393939393939
      40
0.939393939393939
      40
0.939393939393939
      40
0.96969696969697
      40
0.96969696969697
      40
0.96969696969697
      40
0.96969696969697
      40
1
      40
1
      40
1
      40
1
      10
3485.15985929935
      20
5534.83484735267
      30
0
      10
3490.58467706318
      20
5535.45354477053
      30
0
      10
3496.00949482701
      20
5536.0722421884
      30
0
      10
3501.43431259085
      20
5536.69093960627
      30
0
      10
3501.43431259085
      20
5536.69093960627
      30
0
      10
3502.46312880172
      20
5531.73161667414
      30
0
      10
3502.52936763914
      20
5526.73924306987
      30
0
      10
3501.64303127642
      20
5521.74841611838
      30
0
      10
3501.64303127642
      20
5521.74841611838
      30
0
      10
3500.94170858345
      20
5517.80195508853
      30
0
      10
3499.64397525327
      20
5514.02380837825
      30
0
      10
3497.76630459159
      20
5510.42814895044
      30
0
      10
3497.76630459159
      20
5510.42814895044
      30
0
      10
3495.90938163078
      20
5506.8731463802
      30
0
      10
3493.53846396803
      20
5503.66162289582
      30
0
      10
3490.67197380658
      20
5500.80156173692
      30
0
      10
3490.67197380658
      20
5500.80156173692
      30
0
      10
3487.83713962537
      20
5497.97337918273
      30
0
      10
3484.60249031221
      20
5495.61468322268
      30
0
      10
3481.01220681568
      20
5493.74810712558
      30
0
      10
3481.01220681568
      20
5493.74810712558
      30
0
      10
3477.46078583918
      20
5491.90234866631
      30
0
      10
3473.66503086224
      20
5490.62555969206
      30
0
      10
3469.67136513614
      20
5489.92308491158
      30
0
      10
3469.67136513614
      20
5489.92308491158
      30
0
      10
3465.72299428199
      20
5489.22923644356
      30
0
      10
3461.72903063039
      20
5489.15365635416
      30
0
      10
3457.71098075844
      20
5489.68523165731
      30
0
      10
3457.71098075844
      20
5489.68523165731
      30
0
      10
3453.73750664493
      20
5490.2112341523
      30
0
      10
3449.90391688648
      20
5491.33802072627
      30
0
      10
3446.23589167458
      20
5493.04920983425
      30
0
      10
3446.23589167458
      20
5493.04920983425
      30
0
      10
3442.38924765406
      20
5494.84211699786
      30
0
      10
3438.85437995177
      20
5497.26563790362
      30
0
      10
3435.74852721764
      20
5500.22061952103
      30
0
      10
3435.74852721764
      20
5500.22061952103
      30
0
      10
3433.03650389706
      20
5502.80194475655
      30
0
      10
3430.71773044368
      20
5505.76115862264
      30
0
      10
3428.81716475831
      20
5509.05085739717
      30
0
      10
3428.81716475831
      20
5509.05085739717
      30
0
      10
3426.81247524302
      20
5512.52193480579
      30
0
      10
3425.37242596564
      20
5516.24888691441
      30
0
      10
3424.49459808011
      20
5520.20590287528
      30
0
      10
3424.49459808011
      20
5520.20590287528
      30
0
      10
3423.62683009772
      20
5524.11927436411
      30
0
      10
3423.37141619648
      20
5528.10613167627
      30
0
      10
3423.72181899705
      20
5532.13879126331
      30
0
      10
3423.72181899705
      20
5532.13879126331
      30
0
      10
3424.06861852868
      20
5536.12534172025
      30
0
      10
3425.02591249162
      20
5540.01702314935
      30
0
      10
3426.57187544714
      20
5543.76010915912
      30
0
      10
3426.57187544714
      20
5543.76010915912
      30
0
      10
3428.10152341724
      20
5547.46208131087
      30
0
      10
3430.18180033728
      20
5550.87834908877
      30
0
      10
3432.78702691011
      20
5553.98849231622
      30
0
      10
3432.78702691011
      20
5553.98849231622
      30
0
      10
3435.36419631682
      20
5557.06421632784
      30
0
      10
3438.36498881998
      20
5559.6887625242
      30
0
      10
3441.78290097963
      20
5561.87067043204
      30
0
      10
3441.78290097963
      20
5561.87067043204
      30
0
      10
3446.82535825568
      20
5565.09726634886
      30
0
      10
3452.62851956049
      20
5567.12905696463
      30
0
      10
3458.62314978131
      20
5567.79772195939
      30
0
      10
3458.62314978131
      20
5567.79772195939
      30
0
      10
3459.61482067832
      20
5567.90744394284
      30
0
      10
3460.6068312094
      20
5567.97825444309
      30
0
      10
3461.59918137454
      20
5568.01015346012
      30
0
      10
3461.59918137454
      20
5568.01015346012
      30
0
      10
3461.28518514898
      20
5562.55920486043
      30
0
      10
3460.97118892341
      20
5557.1082562608
      30
0
      10
3460.65719269785
      20
5551.65730766117
      30
0
      10
3460.65719269785
      20
5551.65730766117
      30
0
      10
3460.32149975742
      20
5551.61445617318
      30
0
      10
3459.98580681694
      20
5551.57160468518
      30
0
      10
3459.65011387646
      20
5551.52875319719
      30
0
      10
3459.65011387646
      20
5551.52875319719
      30
0
      10
3459.40437620425
      20
5551.49097192448
      30
0
      10
3459.15863853203
      20
5551.45319065178
      30
0
      10
3458.91290085981
      20
5551.41540937907
      30
0
      10
3458.91290085981
      20
5551.41540937907
      30
0
      10
3457.93565050217
      20
5551.24369150861
      30
0
      10
3456.88379094204
      20
5550.98542291145
      30
0
      10
3455.92261840183
      20
5550.67929584596
      30
0
      10
3455.92261840183
      20
5550.67929584596
      30
0
      10
3452.41732724123
      20
5549.57116369631
      30
0
      10
3449.20967090049
      20
5547.61858497771
      30
0
      10
3446.60147894632
      20
5545.01392255606
      30
0
      10
3446.60147894632
      20
5545.01392255606
      30
0
      10
3444.11857232557
      20
5542.53887989951
      30
0
      10
3442.18933652309
      20
5539.45046531904
      30
0
      10
3441.06601124016
      20
5536.12831609123
      30
0
      10
3441.06601124016
      20
5536.12831609123
      30
0
      10
3439.96964997592
      20
5532.9130512576
      30
0
      10
3439.59984879469
      20
5529.5086434023
      30
0
      10
3439.97349288637
      20
5526.13153270994
      30
0
      10
3439.97349288637
      20
5526.13153270994
      30
0
      10
3440.37169531684
      20
5522.50176984678
      30
0
      10
3441.66935980623
      20
5518.9286870174
      30
0
      10
3443.70095831649
      20
5515.89210903687
      30
0
      10
3443.70095831649
      20
5515.89210903687
      30
0
      10
3445.58283033837
      20
5513.0641394462
      30
0
      10
3448.05750995989
      20
5510.69690843921
      30
0
      10
3450.96328671072
      20
5508.93609885942
      30
0
      10
3450.96328671072
      20
5508.93609885942
      30
0
      10
3454.0843794682
      20
5507.04082900894
      30
0
      10
3457.70864885724
      20
5505.89332939945
      30
0
      10
3461.35431229752
      20
5505.65473082871
      30
0
      10
3461.35431229752
      20
5505.65473082871
      30
0
      10
3464.74331222911
      20
5505.42446450533
      30
0
      10
3468.12814135667
      20
5505.94501605046
      30
0
      10
3471.29464753847
      20
5507.17682970805
      30
0
      10
3471.29464753847
      20
5507.17682970805
      30
0
      10
3474.69884855193
      20
5508.49743778332
      30
0
      10
3477.81683192214
      20
5510.67269581717
      30
0
      10
3480.22680327766
      20
5513.41857548375
      30
0
      10
3480.22680327766
      20
5513.41857548375
      30
0
      10
3482.47365105758
      20
5515.96590710401
      30
0
      10
3484.12241882446
      20
5518.96680927027
      30
0
      10
3485.07495322197
      20
5522.22917263452
      30
0
      10
3485.07495322197
      20
5522.22917263452
      30
0
      10
3485.89615265446
      20
5525.02976252971
      30
0
      10
3486.17264407144
      20
5528.02551995454
      30
0
      10
3485.88357010383
      20
5530.93714302958
      30
0
      10
3485.88357010383
      20
5530.93714302958
      30
0
      10
3485.84057519184
      20
5531.37338083353
      30
0
      10
3485.78146303798
      20
5531.83918029241
      30
0
      10
3485.7142894394
      20
5532.26939340585
      30
0
      10
3485.7142894394
      20
5532.26939340585
      30
0
      10
3485.54510149811
      20
5533.30910173983
      30
0
      10
3485.47065716406
      20
5533.59452902936
      30
0
      10
3485.15985929938
      20
5534.83484735271
      30
0
    1001
FS_CYPCUT
    1000
Channel
    1070
1
    1000
LeadIn
    1002
{
    1070
3
    1040
15.5
    1040
1.5707963267949
    1040
0.5
    1040
0.5
    1070
0
    1040
0.5
    1070
0
    1002
}
    1000
LeadOut
    1002
{
    1070
0
    1040
0
    1040
0
    1040
0
    1070
0
    1002
}
    1000
IsFill
    1070
1
    1000
PathStart
    1040
15.5
    1000
ToolCompensation
    1002
{
    1070
0
    1040
0
    1070
0
    1002
}
    1000
MicroConnect
    1002
{
    1070
3
    1040
8.3593235
    1041
0.4
    1042
0
    1040
23
    1041
0.4
    1042
0
    1040
29
    1041
0.4
    1042
0
    1002
}
       0
SPLINE
       5
2036
     100
AcDbEntity
       8
1
     100
AcDbSpline
      70
0
      71
3
      72
136
      73
132
      74
0
      40
0
      40
0
      40
0
      40
0
      40
0.0303030303030303
      40
0.0303030303030303
      40
0.0303030303030303
      40
0.0303030303030303
      40
0.0606060606060606
      40
0.0606060606060606
      40
0.0606060606060606
      40
0.0606060606060606
      40
0.0909090909090909
      40
0.0909090909090909
      40
0.0909090909090909
      40
0.0909090909090909
      40
0.121212121212121
      40
0.121212121212121
      40
0.121212121212121
      40
0.121212121212121
      40
0.151515151515152
      40
0.151515151515152
      40
0.151515151515152
      40
0.151515151515152
      40
0.181818181818182
      40
0.181818181818182
      40
0.181818181818182
      40
0.181818181818182
      40
0.212121212121212
      40
0.212121212121212
      40
0.212121212121212
      40
0.212121212121212
      40
0.242424242424242
      40
0.242424242424242
      40
0.242424242424242
      40
0.242424242424242
      40
0.272727272727273
      40
0.272727272727273
      40
0.272727272727273
      40
0.272727272727273
      40
0.303030303030303
      40
0.303030303030303
      40
0.303030303030303
      40
0.303030303030303
      40
0.333333333333333
      40
0.333333333333333
      40
0.333333333333333
      40
0.333333333333333
      40
0.363636363636364
      40
0.363636363636364
      40
0.363636363636364
      40
0.363636363636364
      40
0.393939393939394
      40
0.393939393939394
      40
0.393939393939394
      40
0.393939393939394
      40
0.424242424242424
      40
0.424242424242424
      40
0.424242424242424
      40
0.424242424242424
      40
0.454545454545455
      40
0.454545454545455
      40
0.454545454545455
      40
0.454545454545455
      40
0.484848484848485
      40
0.484848484848485
      40
0.484848484848485
      40
0.484848484848485
      40
0.515151515151515
      40
0.515151515151515
      40
0.515151515151515
      40
0.515151515151515
      40
0.545454545454545
      40
0.545454545454545
      40
0.545454545454545
      40
0.545454545454545
      40
0.575757575757576
      40
0.575757575757576
      40
0.575757575757576
      40
0.575757575757576
      40
0.606060606060606
      40
0.606060606060606
      40
0.606060606060606
      40
0.606060606060606
      40
0.636363636363636
      40
0.636363636363636
      40
0.636363636363636
      40
0.636363636363636
      40
0.666666666666667
      40
0.666666666666667
      40
0.666666666666667
      40
0.666666666666667
      40
0.696969696969697
      40
0.696969696969697
      40
0.696969696969697
      40
0.696969696969697
      40
0.727272727272727
      40
0.727272727272727
      40
0.727272727272727
      40
0.727272727272727
      40
0.757575757575758
      40
0.757575757575758
      40
0.757575757575758
      40
0.757575757575758
      40
0.787878787878788
      40
0.787878787878788
      40
0.787878787878788
      40
0.787878787878788
      40
0.818181818181818
      40
0.818181818181818
      40
0.818181818181818
      40
0.818181818181818
      40
0.848484848484849
      40
0.848484848484849
      40
0.848484848484849
      40
0.848484848484849
      40
0.878787878787879
      40
0.878787878787879
      40
0.878787878787879
      40
0.878787878787879
      40
0.909090909090909
      40
0.909090909090909
      40
0.909090909090909
      40
0.909090909090909
      40
0.939393939393939
      40
0.939393939393939
      40
0.939393939393939
      40
0.939393939393939
      40
0.96969696969697
      40
0.96969696969697
      40
0.96969696969697
      40
0.96969696969697
      40
1
      40
1
      40
1
      40
1
      10
3425.02778610195
      20
5547.90315956756
      30
0
      10
3419.60296833812
      20
5547.2844621497
      30
0
      10
3414.17815057429
      20
5546.66576473183
      30
0
      10
3408.75333281045
      20
5546.04706731396
      30
0
      10
3408.75333281045
      20
5546.04706731396
      30
0
      10
3407.72451659958
      20
5551.00639024609
      30
0
      10
3407.65827776216
      20
5555.99876385036
      30
0
      10
3408.54461412488
      20
5560.98959080185
      30
0
      10
3408.54461412488
      20
5560.98959080185
      30
0
      10
3409.24593681785
      20
5564.9360518317
      30
0
      10
3410.54367014803
      20
5568.71419854198
      30
0
      10
3412.42134080971
      20
5572.30985796979
      30
0
      10
3412.42134080971
      20
5572.30985796979
      30
0
      10
3414.27826377052
      20
5575.86486054003
      30
0
      10
3416.64918143327
      20
5579.07638402441
      30
0
      10
3419.51567159472
      20
5581.93644518331
      30
0
      10
3419.51567159472
      20
5581.93644518331
      30
0
      10
3422.35050577593
      20
5584.7646277375
      30
0
      10
3425.58515508909
      20
5587.12332369755
      30
0
      10
3429.17543858562
      20
5588.98989979465
      30
0
      10
3429.17543858562
      20
5588.98989979465
      30
0
      10
3432.72685956213
      20
5590.83565825392
      30
0
      10
3436.52261453906
      20
5592.11244722817
      30
0
      10
3440.51628026516
      20
5592.81492200865
      30
0
      10
3440.51628026516
      20
5592.81492200865
      30
0
      10
3444.46465111931
      20
5593.50877047667
      30
0
      10
3448.45861477091
      20
5593.58435056607
      30
0
      10
3452.47666464286
      20
5593.05277526292
      30
0
      10
3452.47666464286
      20
5593.05277526292
      30
0
      10
3456.45013875637
      20
5592.52677276793
      30
0
      10
3460.28372851482
      20
5591.39998619396
      30
0
      10
3463.95175372673
      20
5589.68879708598
      30
0
      10
3463.95175372673
      20
5589.68879708598
      30
0
      10
3467.79839774724
      20
5587.89588992237
      30
0
      10
3471.33326544953
      20
5585.47236901661
      30
0
      10
3474.43911818366
      20
5582.5173873992
      30
0
      10
3474.43911818366
      20
5582.5173873992
      30
0
      10
3477.15114150424
      20
5579.93606216368
      30
0
      10
3479.46991495762
      20
5576.97684829759
      30
0
      10
3481.37048064299
      20
5573.68714952306
      30
0
      10
3481.37048064299
      20
5573.68714952306
      30
0
      10
3483.37517015828
      20
5570.21607211444
      30
0
      10
3484.81521943566
      20
5566.48912000582
      30
0
      10
3485.69304732119
      20
5562.53210404495
      30
0
      10
3485.69304732119
      20
5562.53210404495
      30
0
      10
3486.56081530358
      20
5558.61873255612
      30
0
      10
3486.81622920483
      20
5554.63187524396
      30
0
      10
3486.46582640425
      20
5550.59921565692
      30
0
      10
3486.46582640425
      20
5550.59921565692
      30
0
      10
3486.11902687262
      20
5546.61266519998
      30
0
      10
3485.16173290968
      20
5542.72098377088
      30
0
      10
3483.61576995416
      20
5538.97789776111
      30
0
      10
3483.61576995416
      20
5538.97789776111
      30
0
      10
3482.08612198406
      20
5535.27592560936
      30
0
      10
3480.00584506402
      20
5531.85965783146
      30
0
      10
3477.40061849119
      20
5528.74951460401
      30
0
      10
3477.40061849119
      20
5528.74951460401
      30
0
      10
3474.82344908448
      20
5525.67379059239
      30
0
      10
3471.82265658132
      20
5523.04924439603
      30
0
      10
3468.40474442167
      20
5520.86733648819
      30
0
      10
3468.40474442167
      20
5520.86733648819
      30
0
      10
3463.36228714562
      20
5517.64074057137
      30
0
      10
3457.55912584081
      20
5515.6089499556
      30
0
      10
3451.56449562
      20
5514.94028496084
      30
0
      10
3451.56449562
      20
5514.94028496084
      30
0
      10
3450.57282472298
      20
5514.83056297739
      30
0
      10
3449.5808141919
      20
5514.75975247714
      30
0
      10
3448.58846402676
      20
5514.72785346011
      30
0
      10
3448.58846402676
      20
5514.72785346011
      30
0
      10
3448.90246025232
      20
5520.1788020598
      30
0
      10
3449.21645647789
      20
5525.62975065943
      30
0
      10
3449.53045270345
      20
5531.08069925906
      30
0
      10
3449.53045270345
      20
5531.08069925906
      30
0
      10
3449.86614564389
      20
5531.12355074705
      30
0
      10
3450.20183858436
      20
5531.16640223505
      30
0
      10
3450.53753152484
      20
5531.20925372304
      30
0
      10
3450.53753152484
      20
5531.20925372304
      30
0
      10
3450.78326919705
      20
5531.24703499575
      30
0
      10
3451.02900686927
      20
5531.28481626845
      30
0
      10
3451.27474454149
      20
5531.32259754116
      30
0
      10
3451.27474454149
      20
5531.32259754116
      30
0
      10
3452.25199489913
      20
5531.49431541162
      30
0
      10
3453.30385445926
      20
5531.75258400877
      30
0
      10
3454.26502699947
      20
5532.05871107427
      30
0
      10
3454.26502699947
      20
5532.05871107427
      30
0
      10
3457.77031816007
      20
5533.16684322392
      30
0
      10
3460.97797450081
      20
5535.11942194252
      30
0
      10
3463.58616645498
      20
5537.72408436417
      30
0
      10
3463.58616645498
      20
5537.72408436417
      30
0
      10
3466.06907307573
      20
5540.19912702072
      30
0
      10
3467.99830887821
      20
5543.28754160119
      30
0
      10
3469.12163416114
      20
5546.609690829
      30
0
      10
3469.12163416114
      20
5546.609690829
      30
0
      10
3470.21799542538
      20
5549.82495566263
      30
0
      10
3470.58779660662
      20
5553.22936351793
      30
0
      10
3470.21415251493
      20
5556.60647421029
      30
0
      10
3470.21415251493
      20
5556.60647421029
      30
0
      10
3469.81595008446
      20
5560.23623707345
      30
0
      10
3468.51828559507
      20
5563.80931990283
      30
0
      10
3466.48668708481
      20
5566.84589788336
      30
0
      10
3466.48668708481
      20
5566.84589788336
      30
0
      10
3464.60481506293
      20
5569.67386747403
      30
0
      10
3462.13013544141
      20
5572.04109848102
      30
0
      10
3459.22435869058
      20
5573.80190806081
      30
0
      10
3459.22435869058
      20
5573.80190806081
      30
0
      10
3456.1032659331
      20
5575.69717791129
      30
0
      10
3452.47899654406
      20
5576.84467752078
      30
0
      10
3448.83333310378
      20
5577.08327609152
      30
0
      10
3448.83333310378
      20
5577.08327609152
      30
0
      10
3445.44433317219
      20
5577.3135424149
      30
0
      10
3442.05950404464
      20
5576.79299086977
      30
0
      10
3438.89299786283
      20
5575.56117721218
      30
0
      10
3438.89299786283
      20
5575.56117721218
      30
0
      10
3435.48879684937
      20
5574.24056913691
      30
0
      10
3432.37081347916
      20
5572.06531110306
      30
0
      10
3429.96084212364
      20
5569.31943143648
      30
0
      10
3429.96084212364
      20
5569.31943143648
      30
0
      10
3427.71399434372
      20
5566.77209981622
      30
0
      10
3426.06522657684
      20
5563.77119764996
      30
0
      10
3425.11269217933
      20
5560.50883428571
      30
0
      10
3425.11269217933
      20
5560.50883428571
      30
0
      10
3424.29149274684
      20
5557.70824439052
      30
0
      10
3424.01500132986
      20
5554.71248696569
      30
0
      10
3424.30407529747
      20
5551.80086389065
      30
0
      10
3424.30407529747
      20
5551.80086389065
      30
0
      10
3424.34707020946
      20
5551.3646260867
      30
0
      10
3424.40618236332
      20
5550.89882662782
      30
0
      10
3424.4733559619
      20
5550.46861351438
      30
0
      10
3424.4733559619
      20
5550.46861351438
      30
0
      10
3424.64254390319
      20
5549.4289051804
      30
0
      10
3424.71698823724
      20
5549.14347789087
      30
0
      10
3425.02778610192
      20
5547.90315956752
      30
0
    1001
FS_CYPCUT
    1000
Channel
    1070
1
    1000
LeadIn
    1002
{
    1070
3
    1040
15.5
    1040
1.5707963267949
    1040
0.5
    1040
0.5
    1070
0
    1040
0.5
    1070
0
    1002
}
    1000
LeadOut
    1002
{
    1070
0
    1040
0
    1040
0
    1040
0
    1070
0
    1002
}
    1000
IsFill
    1070
1
    1000
PathStart
    1040
15.5
    1000
ToolCompensation
    1002
{
    1070
0
    1040
0
    1070
0
    1002
}
    1000
MicroConnect
    1002
{
    1070
3
    1040
8.3593235
    1041
0.4
    1042
0
    1040
23
    1041
0.4
    1042
0
    1040
29
    1041
0.4
    1042
0
    1002
}
       0
SPLINE
       5
2037
     100
AcDbEntity
       8
1
     100
AcDbSpline
      70
0
      71
3
      72
136
      73
132
      74
0
      40
0
      40
0
      40
0
      40
0
      40
0.0303030303030303
      40
0.0303030303030303
      40
0.0303030303030303
      40
0.0303030303030303
      40
0.0606060606060606
      40
0.0606060606060606
      40
0.0606060606060606
      40
0.0606060606060606
      40
0.0909090909090909
      40
0.0909090909090909
      40
0.0909090909090909
      40
0.0909090909090909
      40
0.121212121212121
      40
0.121212121212121
      40
0.121212121212121
      40
0.121212121212121
      40
0.151515151515152
      40
0.151515151515152
      40
0.151515151515152
      40
0.151515151515152
      40
0.181818181818182
      40
0.181818181818182
      40
0.181818181818182
      40
0.181818181818182
      40
0.212121212121212
      40
0.212121212121212
      40
0.212121212121212
      40
0.212121212121212
      40
0.242424242424242
      40
0.242424242424242
      40
0.242424242424242
      40
0.242424242424242
      40
0.272727272727273
      40
0.272727272727273
      40
0.272727272727273
      40
0.272727272727273
      40
0.303030303030303
      40
0.303030303030303
      40
0.303030303030303
      40
0.303030303030303
      40
0.333333333333333
      40
0.333333333333333
      40
0.333333333333333
      40
0.333333333333333
      40
0.363636363636364
      40
0.363636363636364
      40
0.363636363636364
      40
0.363636363636364
      40
0.393939393939394
      40
0.393939393939394
      40
0.393939393939394
      40
0.393939393939394
      40
0.424242424242424
      40
0.424242424242424
      40
0.424242424242424
      40
0.424242424242424
      40
0.454545454545455
      40
0.454545454545455
      40
0.454545454545455
      40
0.454545454545455
      40
0.484848484848485
      40
0.484848484848485
      40
0.484848484848485
      40
0.484848484848485
      40
0.515151515151515
      40
0.515151515151515
      40
0.515151515151515
      40
0.515151515151515
      40
0.545454545454545
      40
0.545454545454545
      40
0.545454545454545
      40
0.545454545454545
      40
0.575757575757576
      40
0.575757575757576
      40
0.575757575757576
      40
0.575757575757576
      40
0.606060606060606
      40
0.606060606060606
      40
0.606060606060606
      40
0.606060606060606
      40
0.636363636363636
      40
0.636363636363636
      40
0.636363636363636
      40
0.636363636363636
      40
0.666666666666667
      40
0.666666666666667
      40
0.666666666666667
      40
0.666666666666667
      40
0.696969696969697
      40
0.696969696969697
      40
0.696969696969697
      40
0.696969696969697
      40
0.727272727272727
      40
0.727272727272727
      40
0.727272727272727
      40
0.727272727272727
      40
0.757575757575758
      40
0.757575757575758
      40
0.757575757575758
      40
0.757575757575758
      40
0.787878787878788
      40
0.787878787878788
      40
0.787878787878788
      40
0.787878787878788
      40
0.818181818181818
      40
0.818181818181818
      40
0.818181818181818
      40
0.818181818181818
      40
0.848484848484849
      40
0.848484848484849
      40
0.848484848484849
      40
0.848484848484849
      40
0.878787878787879
      40
0.878787878787879
      40
0.878787878787879
      40
0.878787878787879
      40
0.909090909090909
      40
0.909090909090909
      40
0.909090909090909
      40
0.909090909090909
      40
0.939393939393939
      40
0.939393939393939
      40
0.939393939393939
      40
0.939393939393939
      40
0.96969696969697
      40
0.96969696969697
      40
0.96969696969697
      40
0.96969696969697
      40
1
      40
1
      40
1
      40
1
      10
3476.14425929935
      20
5411.21914735267
      30
0
      10
3481.56907706318
      20
5411.83784477053
      30
0
      10
3486.99389482701
      20
5412.4565421884
      30
0
      10
3492.41871259085
      20
5413.07523960627
      30
0
      10
3492.41871259085
      20
5413.07523960627
      30
0
      10
3493.44752880172
      20
5408.11591667415
      30
0
      10
3493.51376763914
      20
5403.12354306987
      30
0
      10
3492.62743127642
      20
5398.13271611838
      30
0
      10
3492.62743127642
      20
5398.13271611838
      30
0
      10
3491.92610858345
      20
5394.18625508853
      30
0
      10
3490.62837525327
      20
5390.40810837825
      30
0
      10
3488.75070459159
      20
5386.81244895044
      30
0
      10
3488.75070459159
      20
5386.81244895044
      30
0
      10
3486.89378163078
      20
5383.2574463802
      30
0
      10
3484.52286396803
      20
5380.04592289582
      30
0
      10
3481.65637380658
      20
5377.18586173692
      30
0
      10
3481.65637380658
      20
5377.18586173692
      30
0
      10
3478.82153962537
      20
5374.35767918273
      30
0
      10
3475.58689031221
      20
5371.99898322268
      30
0
      10
3471.99660681568
      20
5370.13240712558
      30
0
      10
3471.99660681568
      20
5370.13240712558
      30
0
      10
3468.44518583918
      20
5368.28664866631
      30
0
      10
3464.64943086224
      20
5367.00985969206
      30
0
      10
3460.65576513614
      20
5366.30738491158
      30
0
      10
3460.65576513614
      20
5366.30738491158
      30
0
      10
3456.70739428199
      20
5365.61353644356
      30
0
      10
3452.71343063039
      20
5365.53795635416
      30
0
      10
3448.69538075844
      20
5366.06953165731
      30
0
      10
3448.69538075844
      20
5366.06953165731
      30
0
      10
3444.72190664493
      20
5366.5955341523
      30
0
      10
3440.88831688648
      20
5367.72232072627
      30
0
      10
3437.22029167457
      20
5369.43350983425
      30
0
      10
3437.22029167457
      20
5369.43350983425
      30
0
      10
3433.37364765406
      20
5371.22641699786
      30
0
      10
3429.83877995177
      20
5373.64993790362
      30
0
      10
3426.73292721764
      20
5376.60491952103
      30
0
      10
3426.73292721764
      20
5376.60491952103
      30
0
      10
3424.02090389706
      20
5379.18624475655
      30
0
      10
3421.70213044368
      20
5382.14545862264
      30
0
      10
3419.80156475831
      20
5385.43515739717
      30
0
      10
3419.80156475831
      20
5385.43515739717
      30
0
      10
3417.79687524302
      20
5388.90623480579
      30
0
      10
3416.35682596564
      20
5392.63318691441
      30
0
      10
3415.47899808011
      20
5396.59020287529
      30
0
      10
3415.47899808011
      20
5396.59020287529
      30
0
      10
3414.61123009772
      20
5400.50357436411
      30
0
      10
3414.35581619648
      20
5404.49043167627
      30
0
      10
3414.70621899705
      20
5408.52309126331
      30
0
      10
3414.70621899705
      20
5408.52309126331
      30
0
      10
3415.05301852868
      20
5412.50964172025
      30
0
      10
3416.01031249162
      20
5416.40132314935
      30
0
      10
3417.55627544714
      20
5420.14440915912
      30
0
      10
3417.55627544714
      20
5420.14440915912
      30
0
      10
3419.08592341724
      20
5423.84638131087
      30
0
      10
3421.16620033728
      20
5427.26264908877
      30
0
      10
3423.77142691011
      20
5430.37279231622
      30
0
      10
3423.77142691011
      20
5430.37279231622
      30
0
      10
3426.34859631682
      20
5433.44851632784
      30
0
      10
3429.34938881998
      20
5436.0730625242
      30
0
      10
3432.76730097963
      20
5438.25497043204
      30
0
      10
3432.76730097963
      20
5438.25497043204
      30
0
      10
3437.80975825568
      20
5441.48156634886
      30
0
      10
3443.61291956049
      20
5443.51335696463
      30
0
      10
3449.60754978131
      20
5444.18202195939
      30
0
      10
3449.60754978131
      20
5444.18202195939
      30
0
      10
3450.59922067832
      20
5444.29174394284
      30
0
      10
3451.5912312094
      20
5444.36255444309
      30
0
      10
3452.58358137454
      20
5444.39445346012
      30
0
      10
3452.58358137454
      20
5444.39445346012
      30
0
      10
3452.26958514898
      20
5438.94350486043
      30
0
      10
3451.95558892341
      20
5433.4925562608
      30
0
      10
3451.64159269785
      20
5428.04160766117
      30
0
      10
3451.64159269785
      20
5428.04160766117
      30
0
      10
3451.30589975741
      20
5427.99875617318
      30
0
      10
3450.97020681694
      20
5427.95590468518
      30
0
      10
3450.63451387646
      20
5427.91305319719
      30
0
      10
3450.63451387646
      20
5427.91305319719
      30
0
      10
3450.38877620425
      20
5427.87527192448
      30
0
      10
3450.14303853203
      20
5427.83749065178
      30
0
      10
3449.89730085981
      20
5427.79970937907
      30
0
      10
3449.89730085981
      20
5427.79970937907
      30
0
      10
3448.92005050217
      20
5427.62799150861
      30
0
      10
3447.86819094204
      20
5427.36972291146
      30
0
      10
3446.90701840183
      20
5427.06359584596
      30
0
      10
3446.90701840183
      20
5427.06359584596
      30
0
      10
3443.40172724123
      20
5425.95546369631
      30
0
      10
3440.19407090049
      20
5424.00288497771
      30
0
      10
3437.58587894632
      20
5421.39822255606
      30
0
      10
3437.58587894632
      20
5421.39822255606
      30
0
      10
3435.10297232557
      20
5418.92317989951
      30
0
      10
3433.17373652309
      20
5415.83476531904
      30
0
      10
3432.05041124016
      20
5412.51261609123
      30
0
      10
3432.05041124016
      20
5412.51261609123
      30
0
      10
3430.95404997592
      20
5409.2973512576
      30
0
      10
3430.58424879469
      20
5405.8929434023
      30
0
      10
3430.95789288637
      20
5402.51583270994
      30
0
      10
3430.95789288637
      20
5402.51583270994
      30
0
      10
3431.35609531684
      20
5398.88606984678
      30
0
      10
3432.65375980624
      20
5395.3129870174
      30
0
      10
3434.68535831649
      20
5392.27640903687
      30
0
      10
3434.68535831649
      20
5392.27640903687
      30
0
      10
3436.56723033837
      20
5389.4484394462
      30
0
      10
3439.04190995989
      20
5387.08120843921
      30
0
      10
3441.94768671072
      20
5385.32039885942
      30
0
      10
3441.94768671072
      20
5385.32039885942
      30
0
      10
3445.0687794682
      20
5383.42512900894
      30
0
      10
3448.69304885725
      20
5382.27762939945
      30
0
      10
3452.33871229752
      20
5382.03903082871
      30
0
      10
3452.33871229752
      20
5382.03903082871
      30
0
      10
3455.72771222911
      20
5381.80876450533
      30
0
      10
3459.11254135667
      20
5382.32931605046
      30
0
      10
3462.27904753847
      20
5383.56112970805
      30
0
      10
3462.27904753847
      20
5383.56112970805
      30
0
      10
3465.68324855193
      20
5384.88173778332
      30
0
      10
3468.80123192215
      20
5387.05699581717
      30
0
      10
3471.21120327766
      20
5389.80287548375
      30
0
      10
3471.21120327766
      20
5389.80287548375
      30
0
      10
3473.45805105758
      20
5392.35020710401
      30
0
      10
3475.10681882446
      20
5395.35110927027
      30
0
      10
3476.05935322197
      20
5398.61347263452
      30
0
      10
3476.05935322197
      20
5398.61347263452
      30
0
      10
3476.88055265446
      20
5401.41406252971
      30
0
      10
3477.15704407144
      20
5404.40981995454
      30
0
      10
3476.86797010383
      20
5407.32144302958
      30
0
      10
3476.86797010383
      20
5407.32144302958
      30
0
      10
3476.82497519184
      20
5407.75768083353
      30
0
      10
3476.76586303798
      20
5408.22348029241
      30
0
      10
3476.6986894394
      20
5408.65369340585
      30
0
      10
3476.6986894394
      20
5408.65369340585
      30
0
      10
3476.52950149811
      20
5409.69340173983
      30
0
      10
3476.45505716406
      20
5409.97882902936
      30
0
      10
3476.14425929938
      20
5411.21914735271
      30
0
    1001
FS_CYPCUT
    1000
Channel
    1070
1
    1000
LeadIn
    1002
{
    1070
3
    1040
15.5
    1040
1.5707963267949
    1040
0.5
    1040
0.5
    1070
0
    1040
0.5
    1070
0
    1002
}
    1000
LeadOut
    1002
{
    1070
0
    1040
0
    1040
0
    1040
0
    1070
0
    1002
}
    1000
IsFill
    1070
1
    1000
PathStart
    1040
15.5
    1000
ToolCompensation
    1002
{
    1070
0
    1040
0
    1070
0
    1002
}
    1000
MicroConnect
    1002
{
    1070
3
    1040
8.3593235
    1041
0.4
    1042
0
    1040
23
    1041
0.4
    1042
0
    1040
29
    1041
0.4
    1042
0
    1002
}
       0
SPLINE
       5
2038
     100
AcDbEntity
       8
1
     100
AcDbSpline
      70
0
      71
3
      72
136
      73
132
      74
0
      40
0
      40
0
      40
0
      40
0
      40
0.0303030303030303
      40
0.0303030303030303
      40
0.0303030303030303
      40
0.0303030303030303
      40
0.0606060606060606
      40
0.0606060606060606
      40
0.0606060606060606
      40
0.0606060606060606
      40
0.0909090909090909
      40
0.0909090909090909
      40
0.0909090909090909
      40
0.0909090909090909
      40
0.121212121212121
      40
0.121212121212121
      40
0.121212121212121
      40
0.121212121212121
      40
0.151515151515152
      40
0.151515151515152
      40
0.151515151515152
      40
0.151515151515152
      40
0.181818181818182
      40
0.181818181818182
      40
0.181818181818182
      40
0.181818181818182
      40
0.212121212121212
      40
0.212121212121212
      40
0.212121212121212
      40
0.212121212121212
      40
0.242424242424242
      40
0.242424242424242
      40
0.242424242424242
      40
0.242424242424242
      40
0.272727272727273
      40
0.272727272727273
      40
0.272727272727273
      40
0.272727272727273
      40
0.303030303030303
      40
0.303030303030303
      40
0.303030303030303
      40
0.303030303030303
      40
0.333333333333333
      40
0.333333333333333
      40
0.333333333333333
      40
0.333333333333333
      40
0.363636363636364
      40
0.363636363636364
      40
0.363636363636364
      40
0.363636363636364
      40
0.393939393939394
      40
0.393939393939394
      40
0.393939393939394
      40
0.393939393939394
      40
0.424242424242424
      40
0.424242424242424
      40
0.424242424242424
      40
0.424242424242424
      40
0.454545454545455
      40
0.454545454545455
      40
0.454545454545455
      40
0.454545454545455
      40
0.484848484848485
      40
0.484848484848485
      40
0.484848484848485
      40
0.484848484848485
      40
0.515151515151515
      40
0.515151515151515
      40
0.515151515151515
      40
0.515151515151515
      40
0.545454545454545
      40
0.545454545454545
      40
0.545454545454545
      40
0.545454545454545
      40
0.575757575757576
      40
0.575757575757576
      40
0.575757575757576
      40
0.575757575757576
      40
0.606060606060606
      40
0.606060606060606
      40
0.606060606060606
      40
0.606060606060606
      40
0.636363636363636
      40
0.636363636363636
      40
0.636363636363636
      40
0.636363636363636
      40
0.666666666666667
      40
0.666666666666667
      40
0.666666666666667
      40
0.666666666666667
      40
0.696969696969697
      40
0.696969696969697
      40
0.696969696969697
      40
0.696969696969697
      40
0.727272727272727
      40
0.727272727272727
      40
0.727272727272727
      40
0.727272727272727
      40
0.757575757575758
      40
0.757575757575758
      40
0.757575757575758
      40
0.757575757575758
      40
0.787878787878788
      40
0.787878787878788
      40
0.787878787878788
      40
0.787878787878788
      40
0.818181818181818
      40
0.818181818181818
      40
0.818181818181818
      40
0.818181818181818
      40
0.848484848484849
      40
0.848484848484849
      40
0.848484848484849
      40
0.848484848484849
      40
0.878787878787879
      40
0.878787878787879
      40
0.878787878787879
      40
0.878787878787879
      40
0.909090909090909
      40
0.909090909090909
      40
0.909090909090909
      40
0.909090909090909
      40
0.939393939393939
      40
0.939393939393939
      40
0.939393939393939
      40
0.939393939393939
      40
0.96969696969697
      40
0.96969696969697
      40
0.96969696969697
      40
0.96969696969697
      40
1
      40
1
      40
1
      40
1
      10
3431.65408610195
      20
5441.39235956756
      30
0
      10
3426.22926833812
      20
5440.7736621497
      30
0
      10
3420.80445057429
      20
5440.15496473183
      30
0
      10
3415.37963281045
      20
5439.53626731396
      30
0
      10
3415.37963281045
      20
5439.53626731396
      30
0
      10
3414.35081659958
      20
5444.49559024609
      30
0
      10
3414.28457776216
      20
5449.48796385036
      30
0
      10
3415.17091412488
      20
5454.47879080185
      30
0
      10
3415.17091412488
      20
5454.47879080185
      30
0
      10
3415.87223681785
      20
5458.4252518317
      30
0
      10
3417.16997014803
      20
5462.20339854198
      30
0
      10
3419.04764080971
      20
5465.79905796979
      30
0
      10
3419.04764080971
      20
5465.79905796979
      30
0
      10
3420.90456377052
      20
5469.35406054003
      30
0
      10
3423.27548143327
      20
5472.56558402441
      30
0
      10
3426.14197159472
      20
5475.42564518331
      30
0
      10
3426.14197159472
      20
5475.42564518331
      30
0
      10
3428.97680577593
      20
5478.2538277375
      30
0
      10
3432.21145508909
      20
5480.61252369755
      30
0
      10
3435.80173858562
      20
5482.47909979465
      30
0
      10
3435.80173858562
      20
5482.47909979465
      30
0
      10
3439.35315956213
      20
5484.32485825392
      30
0
      10
3443.14891453906
      20
5485.60164722817
      30
0
      10
3447.14258026516
      20
5486.30412200865
      30
0
      10
3447.14258026516
      20
5486.30412200865
      30
0
      10
3451.09095111931
      20
5486.99797047667
      30
0
      10
3455.08491477091
      20
5487.07355056607
      30
0
      10
3459.10296464286
      20
5486.54197526292
      30
0
      10
3459.10296464286
      20
5486.54197526292
      30
0
      10
3463.07643875637
      20
5486.01597276793
      30
0
      10
3466.91002851482
      20
5484.88918619396
      30
0
      10
3470.57805372673
      20
5483.17799708598
      30
0
      10
3470.57805372673
      20
5483.17799708598
      30
0
      10
3474.42469774724
      20
5481.38508992237
      30
0
      10
3477.95956544953
      20
5478.96156901661
      30
0
      10
3481.06541818366
      20
5476.0065873992
      30
0
      10
3481.06541818366
      20
5476.0065873992
      30
0
      10
3483.77744150424
      20
5473.42526216368
      30
0
      10
3486.09621495762
      20
5470.46604829759
      30
0
      10
3487.99678064299
      20
5467.17634952306
      30
0
      10
3487.99678064299
      20
5467.17634952306
      30
0
      10
3490.00147015828
      20
5463.70527211444
      30
0
      10
3491.44151943566
      20
5459.97832000582
      30
0
      10
3492.31934732119
      20
5456.02130404495
      30
0
      10
3492.31934732119
      20
5456.02130404495
      30
0
      10
3493.18711530358
      20
5452.10793255612
      30
0
      10
3493.44252920483
      20
5448.12107524396
      30
0
      10
3493.09212640425
      20
5444.08841565692
      30
0
      10
3493.09212640425
      20
5444.08841565692
      30
0
      10
3492.74532687262
      20
5440.10186519998
      30
0
      10
3491.78803290968
      20
5436.21018377088
      30
0
      10
3490.24206995416
      20
5432.46709776111
      30
0
      10
3490.24206995416
      20
5432.46709776111
      30
0
      10
3488.71242198406
      20
5428.76512560936
      30
0
      10
3486.63214506402
      20
5425.34885783146
      30
0
      10
3484.02691849119
      20
5422.23871460401
      30
0
      10
3484.02691849119
      20
5422.23871460401
      30
0
      10
3481.44974908448
      20
5419.16299059239
      30
0
      10
3478.44895658132
      20
5416.53844439603
      30
0
      10
3475.03104442167
      20
5414.35653648819
      30
0
      10
3475.03104442167
      20
5414.35653648819
      30
0
      10
3469.98858714562
      20
5411.12994057137
      30
0
      10
3464.18542584081
      20
5409.0981499556
      30
0
      10
3458.19079562
      20
5408.42948496084
      30
0
      10
3458.19079562
      20
5408.42948496084
      30
0
      10
3457.19912472298
      20
5408.31976297739
      30
0
      10
3456.2071141919
      20
5408.24895247714
      30
0
      10
3455.21476402676
      20
5408.21705346011
      30
0
      10
3455.21476402676
      20
5408.21705346011
      30
0
      10
3455.52876025232
      20
5413.6680020598
      30
0
      10
3455.84275647789
      20
5419.11895065943
      30
0
      10
3456.15675270345
      20
5424.56989925906
      30
0
      10
3456.15675270345
      20
5424.56989925906
      30
0
      10
3456.49244564389
      20
5424.61275074705
      30
0
      10
3456.82813858436
      20
5424.65560223505
      30
0
      10
3457.16383152484
      20
5424.69845372304
      30
0
      10
3457.16383152484
      20
5424.69845372304
      30
0
      10
3457.40956919705
      20
5424.73623499575
      30
0
      10
3457.65530686927
      20
5424.77401626845
      30
0
      10
3457.90104454149
      20
5424.81179754116
      30
0
      10
3457.90104454149
      20
5424.81179754116
      30
0
      10
3458.87829489913
      20
5424.98351541162
      30
0
      10
3459.93015445926
      20
5425.24178400878
      30
0
      10
3460.89132699947
      20
5425.54791107427
      30
0
      10
3460.89132699947
      20
5425.54791107427
      30
0
      10
3464.39661816007
      20
5426.65604322392
      30
0
      10
3467.60427450081
      20
5428.60862194252
      30
0
      10
3470.21246645498
      20
5431.21328436417
      30
0
      10
3470.21246645498
      20
5431.21328436417
      30
0
      10
3472.69537307573
      20
5433.68832702072
      30
0
      10
3474.62460887821
      20
5436.77674160119
      30
0
      10
3475.74793416114
      20
5440.098890829
      30
0
      10
3475.74793416114
      20
5440.098890829
      30
0
      10
3476.84429542538
      20
5443.31415566263
      30
0
      10
3477.21409660662
      20
5446.71856351793
      30
0
      10
3476.84045251493
      20
5450.09567421029
      30
0
      10
3476.84045251493
      20
5450.09567421029
      30
0
      10
3476.44225008446
      20
5453.72543707345
      30
0
      10
3475.14458559507
      20
5457.29851990283
      30
0
      10
3473.11298708481
      20
5460.33509788336
      30
0
      10
3473.11298708481
      20
5460.33509788336
      30
0
      10
3471.23111506293
      20
5463.16306747403
      30
0
      10
3468.75643544141
      20
5465.53029848102
      30
0
      10
3465.85065869058
      20
5467.29110806081
      30
0
      10
3465.85065869058
      20
5467.29110806081
      30
0
      10
3462.7295659331
      20
5469.18637791129
      30
0
      10
3459.10529654406
      20
5470.33387752078
      30
0
      10
3455.45963310378
      20
5470.57247609152
      30
0
      10
3455.45963310378
      20
5470.57247609152
      30
0
      10
3452.07063317219
      20
5470.8027424149
      30
0
      10
3448.68580404464
      20
5470.28219086977
      30
0
      10
3445.51929786283
      20
5469.05037721218
      30
0
      10
3445.51929786283
      20
5469.05037721218
      30
0
      10
3442.11509684937
      20
5467.72976913691
      30
0
      10
3438.99711347916
      20
5465.55451110306
      30
0
      10
3436.58714212364
      20
5462.80863143648
      30
0
      10
3436.58714212364
      20
5462.80863143648
      30
0
      10
3434.34029434372
      20
5460.26129981622
      30
0
      10
3432.69152657684
      20
5457.26039764996
      30
0
      10
3431.73899217933
      20
5453.99803428571
      30
0
      10
3431.73899217933
      20
5453.99803428571
      30
0
      10
3430.91779274684
      20
5451.19744439052
      30
0
      10
3430.64130132986
      20
5448.20168696569
      30
0
      10
3430.93037529747
      20
5445.29006389065
      30
0
      10
3430.93037529747
      20
5445.29006389065
      30
0
      10
3430.97337020946
      20
5444.8538260867
      30
0
      10
3431.03248236332
      20
5444.38802662782
      30
0
      10
3431.0996559619
      20
5443.95781351438
      30
0
      10
3431.0996559619
      20
5443.95781351438
      30
0
      10
3431.26884390319
      20
5442.9181051804
      30
0
      10
3431.34328823724
      20
5442.63267789087
      30
0
      10
3431.65408610192
      20
5441.39235956752
      30
0
    1001
FS_CYPCUT
    1000
Channel
    1070
1
    1000
LeadIn
    1002
{
    1070
3
    1040
15.5
    1040
1.5707963267949
    1040
0.5
    1040
0.5
    1070
0
    1040
0.5
    1070
0
    1002
}
    1000
LeadOut
    1002
{
    1070
0
    1040
0
    1040
0
    1040
0
    1070
0
    1002
}
    1000
IsFill
    1070
1
    1000
PathStart
    1040
15.5
    1000
ToolCompensation
    1002
{
    1070
0
    1040
0
    1070
0
    1002
}
    1000
MicroConnect
    1002
{
    1070
3
    1040
8.3593235
    1041
0.4
    1042
0
    1040
23
    1041
0.4
    1042
0
    1040
29
    1041
0.4
    1042
0
    1002
}
       0
ENDSEC
  0
SECTION
  2
OBJECTS
  0
DICTIONARY
  5
111
330
0
100
AcDbDictionary
281
     1
  3
ACAD_COLOR
350
120
  3
ACAD_GROUP
350
112
  3
ACAD_LAYOUT
350
11E
  3
ACAD_MATERIAL
350
11F
  3
ACAD_MLINESTYLE
350
11B
  3
ACAD_PLOTSETTINGS
350
11D
  3
ACAD_PLOTSTYLENAME
350
113
  3
ACAD_TABLESTYLE
350
121
  3
AcDbVariableDictionary
350
135
  0
DICTIONARY
  5
120
102
{ACAD_REACTORS
330
111
102
}
330
111
100
AcDbDictionary
281
     1
  0
DICTIONARY
  5
112
102
{ACAD_REACTORS
330
111
102
}
330
111
100
AcDbDictionary
281
     1
  0
DICTIONARY
  5
11E
102
{ACAD_REACTORS
330
111
102
}
330
111
100
AcDbDictionary
281
     1
  3
Model
350
12A
  3
布局1
350
126
  0
DICTIONARY
  5
11F
102
{ACAD_REACTORS
330
111
102
}
330
111
100
AcDbDictionary
281
     1
  0
DICTIONARY
  5
11B
102
{ACAD_REACTORS
330
111
102
}
330
111
100
AcDbDictionary
281
     1
  3
Standard
350
11C
  0
DICTIONARY
  5
11D
102
{ACAD_REACTORS
330
111
102
}
330
111
100
AcDbDictionary
281
     1
  0
ACDBDICTIONARYWDFLT
  5
113
102
{ACAD_REACTORS
330
111
102
}
330
111
100
AcDbDictionary
281
     1
  3
Normal
350
114
100
AcDbDictionaryWithDefault
340
114
  0
DICTIONARY
  5
121
102
{ACAD_REACTORS
330
111
102
}
330
111
100
AcDbDictionary
281
     1
  3
Standard
350
122
  0
DICTIONARY
  5
135
102
{ACAD_REACTORS
330
111
102
}
330
111
100
AcDbDictionary
281
     1
  3
CTABLESTYLE
350
136
  0
LAYOUT
  5
12A
102
{ACAD_REACTORS
330
11E
102
}
330
11E
100
AcDbPlotSettings
  1

  2
发送至 OneNote 2010
  4

  6

 40
0.0
 41
0.0
 42
0.0
 43
0.0
 44
0.0
 45
0.0
 46
0.0
 47
0.0
 48
0.0
 49
0.0
140
0.0
141
0.0
142
1.0
143
1.0
 70
  1712
 72
     0
 73
     0
 74
     0
  7

 75
     0
147
1.0
 76
     0
 77
     2
 78
   300
148
0.0
149
0.0
100
AcDbLayout
  1
Model
 70
     1
 71
     0
 10
0.0
 20
0.0
 11
12.0
 21
9.0
 12
0.0
 22
0.0
 32
0.0
 14
0.0
 24
0.0
 34
0.0
 15
0.0
 25
0.0
 35
0.0
146
0.0
 13
0.0
 23
0.0
 33
0.0
 16
1.0
 26
0.0
 36
0.0
 17
0.0
 27
1.0
 37
0.0
 76
     0
330
127
  0
LAYOUT
  5
126
102
{ACAD_REACTORS
330
11E
102
}
330
11E
100
AcDbPlotSettings
  1

  2
发送至 OneNote 2010
  4

  6

 40
0.0
 41
0.0
 42
0.0
 43
0.0
 44
0.0
 45
0.0
 46
0.0
 47
0.0
 48
0.0
 49
0.0
140
0.0
141
0.0
142
1.0
143
1.0
 70
   688
 72
     0
 73
     0
 74
     5
  7

 75
    16
147
1.0
 76
     0
 77
     2
 78
   300
148
0.0
149
0.0
100
AcDbLayout
  1
布局1
 70
     1
 71
     1
 10
0.0
 20
0.0
 11
12.0
 21
9.0
 12
0.0
 22
0.0
 32
0.0
 14
0.0
 24
0.0
 34
0.0
 15
0.0
 25
0.0
 35
0.0
146
0.0
 13
0.0
 23
0.0
 33
0.0
 16
1.0
 26
0.0
 36
0.0
 17
0.0
 27
1.0
 37
0.0
 76
     0
330
123
  0
MLINESTYLE
  5
11C
102
{ACAD_REACTORS
330
11B
102
}
330
11B
100
AcDbMlineStyle
  2
STANDARD
 70
     0
  3

 62
   256
 51
90.0
 52
90.0
 71
     2
 49
0.5
 62
   256
  6
BYLAYER
 49
-0.5
 62
   256
  6
BYLAYER
  0
ACDBPLACEHOLDER
  5
114
102
{ACAD_REACTORS
330
113
102
}
330
113
  0
TABLESTYLE
  5
122
102
{ACAD_REACTORS
330
121
102
}
330
121
100
AcDbTableStyle
  3
Standard
 70
     0
 71
     0
 40
0.06
 41
0.06
280
     0
281
     0
  7
STANDARD
140
0.18
170
     2
 62
     0
 63
     7
283
     0
274
    -2
284
     1
 64
     0
275
    -2
285
     1
 65
     0
276
    -2
286
     1
 66
     0
277
    -2
287
     1
 67
     0
278
    -2
288
     1
 68
     0
279
    -2
289
     1
 69
     0
  7
STANDARD
140
0.25
170
     5
 62
     0
 63
     7
283
     0
274
    -2
284
     1
 64
     0
275
    -2
285
     1
 65
     0
276
    -2
286
     1
 66
     0
277
    -2
287
     1
 67
     0
278
    -2
288
     1
 68
     0
279
    -2
289
     1
 69
     0
  7
STANDARD
140
0.18
170
     5
 62
     0
 63
     7
283
     0
274
    -2
284
     1
 64
     0
275
    -2
285
     1
 65
     0
276
    -2
286
     1
 66
     0
277
    -2
287
     1
 67
     0
278
    -2
288
     1
 68
     0
279
    -2
289
     1
 69
     0
  0
DICTIONARYVAR
  5
136
102
{ACAD_REACTORS
330
135
102
}
330
135
100
DictionaryVariables
280
     0
  1
STANDARD
  0
ENDSEC
  0
EOF
