  0
SECTION
  2
HEADER
  9
$ACADVER
  1
AC1018
  9
$ACADMAINTVER
 70
    77
  9
$DWGCODEPAGE
  3
ANSI_936
  9
$INSBASE
 10
0.0
 20
0.0
 30
0.0
  9
$EXTMIN
 10
2965.08540878213
 20
7391.59349206506
 30
0.0
  9
$EXTMAX
 10
4157.1221110866
 20
9290.60349239519
 30
0.0
  9
$LIMMIN
 10
0.0
 20
0.0
  9
$LIMMAX
 10
420.0
 20
297.0
  9
$ORTHOMODE
 70
     0
  9
$REGENMODE
 70
     1
  9
$FILLMODE
 70
     1
  9
$QTEXTMODE
 70
     0
  9
$MIRRTEXT
 70
     0
  9
$LTSCALE
 40
1.0
  9
$ATTMODE
 70
     1
  9
$TEXTSIZE
 40
2.5
  9
$TRACEWID
 40
1.0
  9
$TEXTSTYLE
  7
STANDARD
  9
$CLAYER
  8
0
  9
$CELTYPE
  6
ByLayer
  9
$CECOLOR
 62
   256
  9
$CELTSCALE
 40
1.0
  9
$DISPSILH
 70
     0
  9
$DIMSCALE
 40
1.0
  9
$DIMASZ
 40
2.5
  9
$DIMEXO
 40
0.625
  9
$DIMDLI
 40
3.75
  9
$DIMRND
 40
0.0
  9
$DIMDLE
 40
0.0
  9
$DIMEXE
 40
1.25
  9
$DIMTP
 40
0.0
  9
$DIMTM
 40
0.0
  9
$DIMTXT
 40
2.5
  9
$DIMCEN
 40
2.5
  9
$DIMTSZ
 40
0.0
  9
$DIMTOL
 70
     0
  9
$DIMLIM
 70
     0
  9
$DIMTIH
 70
     0
  9
$DIMTOH
 70
     0
  9
$DIMSE1
 70
     0
  9
$DIMSE2
 70
     0
  9
$DIMTAD
 70
     1
  9
$DIMZIN
 70
     8
  9
$DIMBLK
  1

  9
$DIMASO
 70
     1
  9
$DIMSHO
 70
     1
  9
$DIMPOST
  1

  9
$DIMAPOST
  1

  9
$DIMALT
 70
     0
  9
$DIMALTD
 70
     3
  9
$DIMALTF
 40
0.03937007874016
  9
$DIMLFAC
 40
1.0
  9
$DIMTOFL
 70
     1
  9
$DIMTVP
 40
0.0
  9
$DIMTIX
 70
     0
  9
$DIMSOXD
 70
     0
  9
$DIMSAH
 70
     0
  9
$DIMBLK1
  1

  9
$DIMBLK2
  1

  9
$DIMSTYLE
  2
ISO-25
  9
$DIMCLRD
 70
     0
  9
$DIMCLRE
 70
     0
  9
$DIMCLRT
 70
     0
  9
$DIMTFAC
 40
1.0
  9
$DIMGAP
 40
0.625
  9
$DIMJUST
 70
     0
  9
$DIMSD1
 70
     0
  9
$DIMSD2
 70
     0
  9
$DIMTOLJ
 70
     1
  9
$DIMTZIN
 70
     0
  9
$DIMALTZ
 70
     0
  9
$DIMALTTZ
 70
     0
  9
$DIMUPT
 70
     0
  9
$DIMDEC
 70
     4
  9
$DIMTDEC
 70
     4
  9
$DIMALTU
 70
     2
  9
$DIMALTTD
 70
     2
  9
$DIMTXSTY
  7
STANDARD
  9
$DIMAUNIT
 70
     0
  9
$DIMADEC
 70
     0
  9
$DIMALTRND
 40
0.0
  9
$DIMAZIN
 70
     0
  9
$DIMDSEP
 70
    46
  9
$DIMATFIT
 70
     3
  9
$DIMFRAC
 70
     0
  9
$DIMLDRBLK
  1

  9
$DIMLUNIT
 70
     2
  9
$DIMLWD
 70
    -2
  9
$DIMLWE
 70
    -2
  9
$DIMTMOVE
 70
     0
  9
$LUNITS
 70
     2
  9
$LUPREC
 70
     4
  9
$SKETCHINC
 40
1.0
  9
$FILLETRAD
 40
0.0
  9
$AUNITS
 70
     0
  9
$AUPREC
 70
     0
  9
$MENU
  1
.
  9
$ELEVATION
 40
0.0
  9
$PELEVATION
 40
0.0
  9
$THICKNESS
 40
0.0
  9
$LIMCHECK
 70
     0
  9
$CHAMFERA
 40
0.0
  9
$CHAMFERB
 40
0.0
  9
$CHAMFERC
 40
0.0
  9
$CHAMFERD
 40
0.0
  9
$SKPOLY
 70
     0
  9
$TDCREATE
 40
2456997.676706910
  9
$TDUCREATE
 40
2456997.343373576
  9
$TDUPDATE
 40
2456997.680113438
  9
$TDUUPDATE
 40
2456997.346780104
  9
$TDINDWG
 40
0.0010312963
  9
$TDUSRTIMER
 40
0.0010311806
  9
$USRTIMER
 70
     1
  9
$ANGBASE
 50
0.0
  9
$ANGDIR
 70
     0
  9
$PDMODE
 70
     0
  9
$PDSIZE
 40
0.0
  9
$PLINEWID
 40
0.0
  9
$SPLFRAME
 70
     0
  9
$SPLINETYPE
 70
     6
  9
$SPLINESEGS
 70
     8
  9
$HANDSEED
  5
2462
  9
$SURFTAB1
 70
     6
  9
$SURFTAB2
 70
     6
  9
$SURFTYPE
 70
     6
  9
$SURFU
 70
     6
  9
$SURFV
 70
     6
  9
$UCSBASE
  2

  9
$UCSNAME
  2

  9
$UCSORG
 10
0.0
 20
0.0
 30
0.0
  9
$UCSXDIR
 10
1.0
 20
0.0
 30
0.0
  9
$UCSYDIR
 10
0.0
 20
1.0
 30
0.0
  9
$UCSORTHOREF
  2

  9
$UCSORTHOVIEW
 70
     0
  9
$UCSORGTOP
 10
0.0
 20
0.0
 30
0.0
  9
$UCSORGBOTTOM
 10
0.0
 20
0.0
 30
0.0
  9
$UCSORGLEFT
 10
0.0
 20
0.0
 30
0.0
  9
$UCSORGRIGHT
 10
0.0
 20
0.0
 30
0.0
  9
$UCSORGFRONT
 10
0.0
 20
0.0
 30
0.0
  9
$UCSORGBACK
 10
0.0
 20
0.0
 30
0.0
  9
$PUCSBASE
  2

  9
$PUCSNAME
  2

  9
$PUCSORG
 10
0.0
 20
0.0
 30
0.0
  9
$PUCSXDIR
 10
1.0
 20
0.0
 30
0.0
  9
$PUCSYDIR
 10
0.0
 20
1.0
 30
0.0
  9
$PUCSORTHOREF
  2

  9
$PUCSORTHOVIEW
 70
     0
  9
$PUCSORGTOP
 10
0.0
 20
0.0
 30
0.0
  9
$PUCSORGBOTTOM
 10
0.0
 20
0.0
 30
0.0
  9
$PUCSORGLEFT
 10
0.0
 20
0.0
 30
0.0
  9
$PUCSORGRIGHT
 10
0.0
 20
0.0
 30
0.0
  9
$PUCSORGFRONT
 10
0.0
 20
0.0
 30
0.0
  9
$PUCSORGBACK
 10
0.0
 20
0.0
 30
0.0
  9
$USERI1
 70
     0
  9
$USERI2
 70
     0
  9
$USERI3
 70
     0
  9
$USERI4
 70
     0
  9
$USERI5
 70
     0
  9
$USERR1
 40
0.0
  9
$USERR2
 40
0.0
  9
$USERR3
 40
0.0
  9
$USERR4
 40
0.0
  9
$USERR5
 40
0.0
  9
$WORLDVIEW
 70
     1
  9
$SHADEDGE
 70
     3
  9
$SHADEDIF
 70
    70
  9
$TILEMODE
 70
     1
  9
$MAXACTVP
 70
    64
  9
$PINSBASE
 10
0.0
 20
0.0
 30
0.0
  9
$PLIMCHECK
 70
     0
  9
$PEXTMIN
 10
0.0
 20
0.0
 30
0.0
  9
$PEXTMAX
 10
0.0
 20
0.0
 30
0.0
  9
$PLIMMIN
 10
0.0
 20
0.0
  9
$PLIMMAX
 10
12.0
 20
9.0
  9
$UNITMODE
 70
     0
  9
$VISRETAIN
 70
     1
  9
$PLINEGEN
 70
     0
  9
$PSLTSCALE
 70
     1
  9
$TREEDEPTH
 70
  3020
  9
$CMLSTYLE
  2
Standard
  9
$CMLJUST
 70
     0
  9
$CMLSCALE
 40
1.0
  9
$PROXYGRAPHICS
 70
     1
  9
$MEASUREMENT
 70
     1
  9
$CELWEIGHT
370
    -1
  9
$ENDCAPS
280
     0
  9
$JOINSTYLE
280
     0
  9
$LWDISPLAY
290
     0
  9
$INSUNITS
 70
     0
  9
$HYPERLINKBASE
  1

  9
$STYLESHEET
  1

  9
$XEDIT
290
     1
  9
$CEPSNTYPE
380
     0
  9
$PSTYLEMODE
290
     1
  9
$FINGERPRINTGUID
  2
{1F2D6530-6BF2-4D5E-922F-A9C54F637010}
  9
$VERSIONGUID
  2
{15AD9CB5-51D1-451C-B472-5DB36EFAD6AD}
  9
$EXTNAMES
290
     1
  9
$PSVPSCALE
 40
0.0
  9
$OLESTARTUP
290
     0
  9
$SORTENTS
280
   127
  9
$INDEXCTL
280
     0
  9
$HIDETEXT
280
     0
  9
$XCLIPFRAME
290
     0
  9
$HALOGAP
280
     0
  9
$OBSCOLOR
 70
   257
  9
$OBSLTYPE
280
     0
  9
$INTERSECTIONDISPLAY
280
     0
  9
$INTERSECTIONCOLOR
 70
   257
  9
$DIMASSOC
280
     1
  9
$PROJECTNAME
  1

  0
ENDSEC
  0
SECTION
  2
CLASSES
  0
CLASS
  1
ACDBDICTIONARYWDFLT
  2
AcDbDictionaryWithDefault
  3
ObjectDBX Classes
 90
        0
 91
        1
280
     0
281
     0
  0
CLASS
  1
TABLESTYLE
  2
AcDbTableStyle
  3
ObjectDBX Classes
 90
     2047
 91
        1
280
     0
281
     0
  0
CLASS
  1
DICTIONARYVAR
  2
AcDbDictionaryVar
  3
ObjectDBX Classes
 90
        0
 91
        1
280
     0
281
     0
  0
ENDSEC
  0
SECTION
  2
TABLES
  0
TABLE
  2
VPORT
  5
10D
330
0
100
AcDbSymbolTable
 70
     2
  0
VPORT
  5
137
330
10D
100
AcDbSymbolTableRecord
100
AcDbViewportTableRecord
  2
*Active
 70
     0
 10
0.0
 20
0.0
 11
1.0
 21
1.0
 12
3561.10375993436
 22
8341.09849223013
 13
0.0
 23
0.0
 14
10.0
 24
10.0
 15
10.0
 25
10.0
 16
0.0
 26
0.0
 36
1.0
 17
0.0
 27
0.0
 37
0.0
 40
551.708552688342
 41
2.435135135135135
 42
50.0
 43
0.0
 44
0.0
 50
0.0
 51
0.0
 71
     0
 72
  1000
 73
     1
 74
     3
 75
     0
 76
     0
 77
     0
 78
     0
281
     0
 65
     1
110
0.0
120
0.0
130
0.0
111
1.0
121
0.0
131
0.0
112
0.0
122
1.0
132
0.0
 79
     0
146
0.0
  0
ENDTAB
  0
TABLE
  2
LTYPE
  5
10A
330
0
100
AcDbSymbolTable
 70
     1
  0
LTYPE
  5
118
330
10A
100
AcDbSymbolTableRecord
100
AcDbLinetypeTableRecord
  2
ByBlock
 70
     0
  3

 72
    65
 73
     0
 40
0.0
  0
LTYPE
  5
119
330
10A
100
AcDbSymbolTableRecord
100
AcDbLinetypeTableRecord
  2
ByLayer
 70
     0
  3

 72
    65
 73
     0
 40
0.0
  0
LTYPE
  5
11A
330
10A
100
AcDbSymbolTableRecord
100
AcDbLinetypeTableRecord
  2
CONTINUOUS
 70
     0
  3
Solid line
 72
    65
 73
     0
 40
0.0
  0
ENDTAB
  0
TABLE
  2
LAYER
  5
107
330
0
100
AcDbSymbolTable
 70
     1
  0
LAYER
  5
115
330
107
100
AcDbSymbolTableRecord
100
AcDbLayerTableRecord
  2
0
 70
     0
 62
     7
  6
CONTINUOUS
370
    -3
390
114
  0
ENDTAB
  0
TABLE
  2
STYLE
  5
108
330
0
100
AcDbSymbolTable
 70
     1
  0
STYLE
  5
116
330
108
100
AcDbSymbolTableRecord
100
AcDbTextStyleTableRecord
  2
STANDARD
 70
     0
 40
0.0
 41
1.0
 50
0.0
 71
     0
 42
2.5
  3
txt
  4
gbcbig.shx
  0
ENDTAB
  0
TABLE
  2
VIEW
  5
10B
330
0
100
AcDbSymbolTable
 70
     0
  0
ENDTAB
  0
TABLE
  2
UCS
  5
10C
330
0
100
AcDbSymbolTable
 70
     0
  0
ENDTAB
  0
TABLE
  2
APPID
  5
10E
330
0
100
AcDbSymbolTable
 70
     2
  0
APPID
  5
117
330
10E
100
AcDbSymbolTableRecord
100
AcDbRegAppTableRecord
  2
ACAD
 70
     0
  0
APPID
  5
12C
330
10E
100
AcDbSymbolTableRecord
100
AcDbRegAppTableRecord
  2
ACAD_PSEXT
 70
     0
  0
APPID
  5
112C
330
10E
100
AcDbSymbolTableRecord
100
AcDbRegAppTableRecord
  2
FS_CYPCUT
 70
     0
  0
ENDTAB
  0
TABLE
  2
DIMSTYLE
  5
10F
330
0
100
AcDbSymbolTable
 70
     1
100
AcDbDimStyleTable
 71
     0
  0
DIMSTYLE
105
12D
330
10F
100
AcDbSymbolTableRecord
100
AcDbDimStyleTableRecord
  2
ISO-25
 70
     0
 41
2.5
 42
0.625
 43
3.75
 44
1.25
 73
     0
 74
     0
 77
     1
 78
     8
140
2.5
141
2.5
143
0.03937007874016
147
0.625
171
     3
172
     1
274
     3
279
     2
284
     8
285
     8
286
     8
340
116
  0
ENDTAB
  0
TABLE
  2
BLOCK_RECORD
  5
106
330
0
100
AcDbSymbolTable
 70
     2
  0
BLOCK_RECORD
  5
127
330
106
100
AcDbSymbolTableRecord
100
AcDbBlockTableRecord
  2
*Model_Space
340
12A
  0
BLOCK_RECORD
  5
123
330
106
100
AcDbSymbolTableRecord
100
AcDbBlockTableRecord
  2
*Paper_Space
340
126
  0
BLOCK_RECORD
  5
130
330
106
100
AcDbSymbolTableRecord
100
AcDbBlockTableRecord
  2
$MODEL_SPACE
340
0
  0
BLOCK_RECORD
  5
132
330
106
100
AcDbSymbolTableRecord
100
AcDbBlockTableRecord
  2
$PAPER_SPACE
340
0
       0
BLOCK_RECORD
       5
2000
     330
106
     100
AcDbSymbolTableRecord
     100
AcDbBlockTableRecord
       2
CommonPart332502236
       0
BLOCK_RECORD
       5
2001
     330
106
     100
AcDbSymbolTableRecord
     100
AcDbBlockTableRecord
       2
Part1015224108
       0
BLOCK_RECORD
       5
2002
     330
106
     100
AcDbSymbolTableRecord
     100
AcDbBlockTableRecord
       2
Part1743431648
       0
BLOCK_RECORD
       5
2003
     330
106
     100
AcDbSymbolTableRecord
     100
AcDbBlockTableRecord
       2
Part1533690529
       0
BLOCK_RECORD
       5
2004
     330
106
     100
AcDbSymbolTableRecord
     100
AcDbBlockTableRecord
       2
Part1372564409
       0
BLOCK_RECORD
       5
2005
     330
106
     100
AcDbSymbolTableRecord
     100
AcDbBlockTableRecord
       2
Part129810315
       0
BLOCK_RECORD
       5
2006
     330
106
     100
AcDbSymbolTableRecord
     100
AcDbBlockTableRecord
       2
Part2126355022
       0
BLOCK_RECORD
       5
2007
     330
106
     100
AcDbSymbolTableRecord
     100
AcDbBlockTableRecord
       2
Part435900714
       0
BLOCK_RECORD
       5
2008
     330
106
     100
AcDbSymbolTableRecord
     100
AcDbBlockTableRecord
       2
Part2031796694
       0
BLOCK_RECORD
       5
2009
     330
106
     100
AcDbSymbolTableRecord
     100
AcDbBlockTableRecord
       2
Part1310810887
       0
BLOCK_RECORD
       5
200A
     330
106
     100
AcDbSymbolTableRecord
     100
AcDbBlockTableRecord
       2
Part1362201959
       0
BLOCK_RECORD
       5
200B
     330
106
     100
AcDbSymbolTableRecord
     100
AcDbBlockTableRecord
       2
CommonPart1621163152
       0
BLOCK_RECORD
       5
200C
     330
106
     100
AcDbSymbolTableRecord
     100
AcDbBlockTableRecord
       2
Part1978686477
       0
BLOCK_RECORD
       5
200D
     330
106
     100
AcDbSymbolTableRecord
     100
AcDbBlockTableRecord
       2
Part1949624117
  0
ENDTAB
  0
ENDSEC
  0
SECTION
  2
BLOCKS
  0
BLOCK
  5
128
330
127
100
AcDbEntity
  8
0
100
AcDbBlockBegin
  2
*Model_Space
 70
     0
 10
0.0
 20
0.0
 30
0.0
  3
*Model_Space
  1

  0
ENDBLK
  5
129
330
127
100
AcDbEntity
  8
0
100
AcDbBlockEnd
  0
BLOCK
  5
124
330
123
100
AcDbEntity
 67
     1
  8
0
100
AcDbBlockBegin
  2
*Paper_Space
 70
     0
 10
0.0
 20
0.0
 30
0.0
  3
*Paper_Space
  1

  0
ENDBLK
  5
125
330
123
100
AcDbEntity
 67
     1
  8
0
100
AcDbBlockEnd
  0
BLOCK
  5
131
330
130
100
AcDbEntity
  8
0
100
AcDbBlockBegin
  2
$MODEL_SPACE
 70
     0
 10
0.0
 20
0.0
 30
0.0
  3
$MODEL_SPACE
  1

  0
ENDBLK
  5
21
330
130
100
AcDbEntity
  8
0
100
AcDbBlockEnd
  0
BLOCK
  5
133
330
132
100
AcDbEntity
  8
0
100
AcDbBlockBegin
  2
$PAPER_SPACE
 70
     0
 10
0.0
 20
0.0
 30
0.0
  3
$PAPER_SPACE
  1

  0
ENDBLK
  5
D5
330
132
100
AcDbEntity
  8
0
100
AcDbBlockEnd
       0
BLOCK
       5
200E
     330
2000
     100
AcDbEntity
       8
0
     100
AcDbBlockBegin
       2
CommonPart332502236
      70
0
      10
598.286823
      20
27.5187
      30
0
       3
CommonPart332502236
       1

       4
CypCutBlock
       0
CIRCLE
       5
200F
     100
AcDbEntity
       8
1
     100
AcDbCircle
      10
610.4012
      20
58.0187
      30
0
      40
3.39999999999998
    1001
FS_CYPCUT
    1000
Channel
    1070
1
    1000
LeadIn
    1002
{
    1070
3
    1040
0
    1040
1.5707963267949
    1040
2
    1040
1
    1070
0
    1040
0.5
    1070
0
    1002
}
    1000
LeadOut
    1002
{
    1070
0
    1040
0
    1040
0
    1040
0
    1070
0
    1002
}
    1000
IsFill
    1070
0
    1000
PathStart
    1040
0
    1000
ToolCompensation
    1002
{
    1070
0
    1040
0
    1070
0
    1002
}
       0
CIRCLE
       5
2010
     100
AcDbEntity
       8
1
     100
AcDbCircle
      10
655.4012
      20
58.0187
      30
0
      40
15
    1001
FS_CYPCUT
    1000
Channel
    1070
1
    1000
LeadIn
    1002
{
    1070
3
    1040
0
    1040
1.5707963267949
    1040
2
    1040
1
    1070
0
    1040
0.5
    1070
0
    1002
}
    1000
LeadOut
    1002
{
    1070
0
    1040
0
    1040
0
    1040
0
    1070
0
    1002
}
    1000
IsFill
    1070
0
    1000
PathStart
    1040
0
    1000
ToolCompensation
    1002
{
    1070
0
    1040
0
    1070
0
    1002
}
       0
CIRCLE
       5
2011
     100
AcDbEntity
       8
1
     100
AcDbCircle
      10
700.4012
      20
58.0187
      30
0
      40
3.39999999999998
    1001
FS_CYPCUT
    1000
Channel
    1070
1
    1000
LeadIn
    1002
{
    1070
3
    1040
0
    1040
1.5707963267949
    1040
2
    1040
1
    1070
0
    1040
0.5
    1070
0
    1002
}
    1000
LeadOut
    1002
{
    1070
0
    1040
0
    1040
0
    1040
0
    1070
0
    1002
}
    1000
IsFill
    1070
0
    1000
PathStart
    1040
0
    1000
ToolCompensation
    1002
{
    1070
0
    1040
0
    1070
0
    1002
}
       0
LWPOLYLINE
       5
2012
     100
AcDbEntity
       8
1
     100
AcDbPolyline
      90
8
      70
0
      10
705.350802187009
      20
69.0758048856415
      42
-0.647980510288466
      10
705.350763743202
      20
46.9615779054537
      42
0
      10
667.862566695415
      20
30.1805186642448
      42
-0.213605676592767
      10
642.9398333046
      20
30.1805186642
      42
0
      10
605.451636256799
      20
46.9615779054537
      42
-0.647981744461725
      10
605.451636256799
      20
69.0758220945462
      42
0
      10
642.9398333046
      20
85.8568813358
      42
-0.213605676592767
      10
667.862566695415
      20
85.8568813357551
      42
0
    1001
FS_CYPCUT
    1000
Channel
    1070
1
    1000
LeadIn
    1002
{
    1070
0
    1040
0.00358926601830976
    1040
1.5707963267949
    1040
2
    1040
1
    1070
0
    1040
0.5
    1070
0
    1002
}
    1000
LeadOut
    1002
{
    1070
0
    1040
0
    1040
0
    1040
0
    1070
0
    1002
}
    1000
IsFill
    1070
1
    1000
PathStart
    1040
0
    1000
ToolCompensation
    1002
{
    1070
0
    1040
0
    1070
0
    1002
}
    1000
MicroConnect
    1002
{
    1070
1
    1040
0
    1041
0.1
    1042
0
    1002
}
       0
CIRCLE
       5
2013
     100
AcDbEntity
       8
1
     100
AcDbCircle
      10
672.8122
      20
96.9140999999999
      30
0
      40
3.39999999999998
    1001
FS_CYPCUT
    1000
Channel
    1070
1
    1000
LeadIn
    1002
{
    1070
3
    1040
0
    1040
1.5707963267949
    1040
2
    1040
1
    1070
0
    1040
0.5
    1070
0
    1002
}
    1000
LeadOut
    1002
{
    1070
0
    1040
0
    1040
0
    1040
0
    1070
0
    1002
}
    1000
IsFill
    1070
0
    1000
PathStart
    1040
0
    1000
ToolCompensation
    1002
{
    1070
0
    1040
0
    1070
0
    1002
}
       0
CIRCLE
       5
2014
     100
AcDbEntity
       8
1
     100
AcDbCircle
      10
717.8122
      20
96.9140999999999
      30
0
      40
15
    1001
FS_CYPCUT
    1000
Channel
    1070
1
    1000
LeadIn
    1002
{
    1070
3
    1040
0
    1040
1.5707963267949
    1040
2
    1040
1
    1070
0
    1040
0.5
    1070
0
    1002
}
    1000
LeadOut
    1002
{
    1070
0
    1040
0
    1040
0
    1040
0
    1070
0
    1002
}
    1000
IsFill
    1070
0
    1000
PathStart
    1040
0
    1000
ToolCompensation
    1002
{
    1070
0
    1040
0
    1070
0
    1002
}
       0
CIRCLE
       5
2015
     100
AcDbEntity
       8
1
     100
AcDbCircle
      10
762.8122
      20
96.9140999999999
      30
0
      40
3.39999999999998
    1001
FS_CYPCUT
    1000
Channel
    1070
1
    1000
LeadIn
    1002
{
    1070
3
    1040
0
    1040
1.5707963267949
    1040
2
    1040
1
    1070
0
    1040
0.5
    1070
0
    1002
}
    1000
LeadOut
    1002
{
    1070
0
    1040
0
    1040
0
    1040
0
    1070
0
    1002
}
    1000
IsFill
    1070
0
    1000
PathStart
    1040
0
    1000
ToolCompensation
    1002
{
    1070
0
    1040
0
    1070
0
    1002
}
       0
LWPOLYLINE
       5
2016
     100
AcDbEntity
       8
1
     100
AcDbPolyline
      90
8
      70
1
      10
705.3508333046
      20
69.0759186642
      42
0
      10
667.862636256799
      20
85.8569779054536
      42
-0.647981744461725
      10
667.862636256799
      20
107.971222094546
      42
0
      10
705.3508333046
      20
124.7522813358
      42
-0.213605676592767
      10
730.273566695415
      20
124.752281335755
      42
0
      10
767.761763743201
      20
107.971222094546
      42
-0.647981744461725
      10
767.761763743202
      20
85.8569779054537
      42
0
      10
730.273566695415
      20
69.0759186642448
      42
-0.213605676592767
    1001
FS_CYPCUT
    1000
Channel
    1070
1
    1000
LeadIn
    1002
{
    1070
0
    1040
0
    1040
0
    1040
0
    1040
0
    1070
0
    1040
0
    1070
0
    1002
}
    1000
LeadOut
    1002
{
    1070
0
    1040
0
    1040
0
    1040
0
    1070
0
    1002
}
    1000
IsFill
    1070
1
    1000
PathStart
    1040
0
    1000
ToolCompensation
    1002
{
    1070
0
    1040
0
    1070
0
    1002
}
       0
ENDBLK
       5
2017
     330
2000
     100
AcDbEntity
       8
0
     100
AcDbBlockEnd
       0
BLOCK
       5
2018
     330
2001
     100
AcDbEntity
       8
0
     100
AcDbBlockBegin
       2
Part1015224108
      70
0
      10
-182.5
      20
-172.5
      30
0
       3
Part1015224108
       1

       4
CypCutBlock
       0
CIRCLE
       5
2019
     100
AcDbEntity
       8
1
     100
AcDbCircle
      10
-175
      20
-165
      30
0
      40
4.5
    1001
FS_CYPCUT
    1000
Channel
    1070
1
    1000
LeadIn
    1002
{
    1070
3
    1040
0
    1040
1.5707963267949
    1040
2
    1040
1
    1070
0
    1040
0.5
    1070
0
    1002
}
    1000
LeadOut
    1002
{
    1070
0
    1040
0
    1040
0
    1040
0
    1070
0
    1002
}
    1000
IsFill
    1070
0
    1000
PathStart
    1040
0
    1000
ToolCompensation
    1002
{
    1070
0
    1040
0
    1070
0
    1002
}
       0
CIRCLE
       5
201A
     100
AcDbEntity
       8
1
     100
AcDbCircle
      10
-175
      20
165
      30
0
      40
4.5
    1001
FS_CYPCUT
    1000
Channel
    1070
1
    1000
LeadIn
    1002
{
    1070
3
    1040
0
    1040
1.5707963267949
    1040
2
    1040
1
    1070
0
    1040
0.5
    1070
0
    1002
}
    1000
LeadOut
    1002
{
    1070
0
    1040
0
    1040
0
    1040
0
    1070
0
    1002
}
    1000
IsFill
    1070
0
    1000
PathStart
    1040
0
    1000
ToolCompensation
    1002
{
    1070
0
    1040
0
    1070
0
    1002
}
       0
LWPOLYLINE
       5
201B
     100
AcDbEntity
       8
1
     100
AcDbPolyline
      90
8
      70
1
      10
150.668510313199
      20
10.0000000000783
      42
0.935829256603263
      10
-150.668510313199
      20
10.0000000000783
      42
0
      10
-148
      20
10
      42
0
      10
-148
      20
-10
      42
0
      10
-150.6685103132
      20
-10
      42
0.935829256603263
      10
150.668510313199
      20
-10.0000000000784
      42
0
      10
148
      20
-10
      42
0
      10
148
      20
10
      42
0
    1001
FS_CYPCUT
    1000
Channel
    1070
1
    1000
LeadIn
    1002
{
    1070
3
    1040
0.5
    1040
1.5707963267949
    1040
2
    1040
1
    1070
0
    1040
0.5
    1070
0
    1002
}
    1000
LeadOut
    1002
{
    1070
0
    1040
0
    1040
0
    1040
0
    1070
0
    1002
}
    1000
IsFill
    1070
0
    1000
PathStart
    1040
0.5
    1000
ToolCompensation
    1002
{
    1070
0
    1040
0
    1070
0
    1002
}
    1000
MicroConnect
    1002
{
    1070
4
    1040
0.44474901
    1041
0.8
    1042
0
    1040
2.50952273
    1041
0.8
    1042
0
    1040
4.37288996
    1041
0.8
    1042
0
    1040
6.50168365
    1041
0.8
    1042
0
    1002
}
       0
CIRCLE
       5
201C
     100
AcDbEntity
       8
1
     100
AcDbCircle
      10
175
      20
165
      30
0
      40
4.5
    1001
FS_CYPCUT
    1000
Channel
    1070
1
    1000
LeadIn
    1002
{
    1070
3
    1040
0
    1040
1.5707963267949
    1040
2
    1040
1
    1070
0
    1040
0.5
    1070
0
    1002
}
    1000
LeadOut
    1002
{
    1070
0
    1040
0
    1040
0
    1040
0
    1070
0
    1002
}
    1000
IsFill
    1070
0
    1000
PathStart
    1040
0
    1000
ToolCompensation
    1002
{
    1070
0
    1040
0
    1070
0
    1002
}
       0
CIRCLE
       5
201D
     100
AcDbEntity
       8
1
     100
AcDbCircle
      10
175
      20
-165
      30
0
      40
4.5
    1001
FS_CYPCUT
    1000
Channel
    1070
1
    1000
LeadIn
    1002
{
    1070
3
    1040
0
    1040
1.5707963267949
    1040
2
    1040
1
    1070
0
    1040
0.5
    1070
0
    1002
}
    1000
LeadOut
    1002
{
    1070
0
    1040
0
    1040
0
    1040
0
    1070
0
    1002
}
    1000
IsFill
    1070
0
    1000
PathStart
    1040
0
    1000
ToolCompensation
    1002
{
    1070
0
    1040
0
    1070
0
    1002
}
       0
LWPOLYLINE
       5
201E
     100
AcDbEntity
       8
1
     100
AcDbPolyline
      90
8
      70
1
      10
182.5
      20
167.5
      42
0.414213562373098
      10
177.5
      20
172.5
      42
0
      10
-177.5
      20
172.5
      42
0.414213562373098
      10
-182.5
      20
167.5
      42
0
      10
-182.5
      20
-167.5
      42
0.414213562373098
      10
-177.5
      20
-172.5
      42
0
      10
177.5
      20
-172.5
      42
0.414213562373098
      10
182.5
      20
-167.5
      42
0
    1001
FS_CYPCUT
    1000
Channel
    1070
1
    1000
LeadIn
    1002
{
    1070
3
    1040
1.5
    1040
1.5707963267949
    1040
2
    1040
1
    1070
0
    1040
0.5
    1070
0
    1002
}
    1000
LeadOut
    1002
{
    1070
0
    1040
0
    1040
0
    1040
0
    1070
0
    1002
}
    1000
IsFill
    1070
1
    1000
PathStart
    1040
1.5
    1000
ToolCompensation
    1002
{
    1070
0
    1040
0
    1070
0
    1002
}
    1000
MicroConnect
    1002
{
    1070
4
    1040
1.8334793
    1041
0.8
    1042
0
    1040
3.80398376
    1041
0.8
    1042
0
    1040
5.78131314
    1041
0.8
    1042
0
    1040
7.85295697
    1041
0.8
    1042
0
    1002
}
       0
ENDBLK
       5
201F
     330
2001
     100
AcDbEntity
       8
0
     100
AcDbBlockEnd
       0
BLOCK
       5
2020
     330
2002
     100
AcDbEntity
       8
0
     100
AcDbBlockBegin
       2
Part1743431648
      70
0
      10
-182.5
      20
-172.5
      30
0
       3
Part1743431648
       1

       4
CypCutBlock
       0
CIRCLE
       5
2021
     100
AcDbEntity
       8
1
     100
AcDbCircle
      10
-175
      20
-165
      30
0
      40
4.5
    1001
FS_CYPCUT
    1000
Channel
    1070
1
    1000
LeadIn
    1002
{
    1070
3
    1040
0
    1040
1.5707963267949
    1040
2
    1040
1
    1070
0
    1040
0.5
    1070
0
    1002
}
    1000
LeadOut
    1002
{
    1070
0
    1040
0
    1040
0
    1040
0
    1070
0
    1002
}
    1000
IsFill
    1070
0
    1000
PathStart
    1040
0
    1000
ToolCompensation
    1002
{
    1070
0
    1040
0
    1070
0
    1002
}
       0
CIRCLE
       5
2022
     100
AcDbEntity
       8
1
     100
AcDbCircle
      10
-175
      20
165
      30
0
      40
4.5
    1001
FS_CYPCUT
    1000
Channel
    1070
1
    1000
LeadIn
    1002
{
    1070
3
    1040
0
    1040
1.5707963267949
    1040
2
    1040
1
    1070
0
    1040
0.5
    1070
0
    1002
}
    1000
LeadOut
    1002
{
    1070
0
    1040
0
    1040
0
    1040
0
    1070
0
    1002
}
    1000
IsFill
    1070
0
    1000
PathStart
    1040
0
    1000
ToolCompensation
    1002
{
    1070
0
    1040
0
    1070
0
    1002
}
       0
CIRCLE
       5
2023
     100
AcDbEntity
       8
1
     100
AcDbCircle
      10
0
      20
0
      30
0
      40
135
    1001
FS_CYPCUT
    1000
Channel
    1070
1
    1000
LeadIn
    1002
{
    1070
3
    1040
0
    1040
1.5707963267949
    1040
2
    1040
1
    1070
0
    1040
0.5
    1070
0
    1002
}
    1000
LeadOut
    1002
{
    1070
0
    1040
0
    1040
0
    1040
0
    1070
0
    1002
}
    1000
IsFill
    1070
0
    1000
PathStart
    1040
0
    1000
ToolCompensation
    1002
{
    1070
0
    1040
0
    1070
0
    1002
}
    1000
MicroConnect
    1002
{
    1070
4
    1040
0.125
    1041
0.8
    1042
0
    1040
0.375
    1041
0.8
    1042
0
    1040
0.625
    1041
0.8
    1042
0
    1040
0.875
    1041
0.8
    1042
0
    1002
}
       0
CIRCLE
       5
2024
     100
AcDbEntity
       8
1
     100
AcDbCircle
      10
175
      20
165
      30
0
      40
4.5
    1001
FS_CYPCUT
    1000
Channel
    1070
1
    1000
LeadIn
    1002
{
    1070
3
    1040
0
    1040
1.5707963267949
    1040
2
    1040
1
    1070
0
    1040
0.5
    1070
0
    1002
}
    1000
LeadOut
    1002
{
    1070
0
    1040
0
    1040
0
    1040
0
    1070
0
    1002
}
    1000
IsFill
    1070
0
    1000
PathStart
    1040
0
    1000
ToolCompensation
    1002
{
    1070
0
    1040
0
    1070
0
    1002
}
       0
CIRCLE
       5
2025
     100
AcDbEntity
       8
1
     100
AcDbCircle
      10
175
      20
-165
      30
0
      40
4.5
    1001
FS_CYPCUT
    1000
Channel
    1070
1
    1000
LeadIn
    1002
{
    1070
3
    1040
0
    1040
1.5707963267949
    1040
2
    1040
1
    1070
0
    1040
0.5
    1070
0
    1002
}
    1000
LeadOut
    1002
{
    1070
0
    1040
0
    1040
0
    1040
0
    1070
0
    1002
}
    1000
IsFill
    1070
0
    1000
PathStart
    1040
0
    1000
ToolCompensation
    1002
{
    1070
0
    1040
0
    1070
0
    1002
}
       0
LWPOLYLINE
       5
2026
     100
AcDbEntity
       8
1
     100
AcDbPolyline
      90
8
      70
1
      10
182.5
      20
167.5
      42
0.414213562373098
      10
177.5
      20
172.5
      42
0
      10
-177.5
      20
172.5
      42
0.414213562373098
      10
-182.5
      20
167.5
      42
0
      10
-182.5
      20
-167.5
      42
0.414213562373099
      10
-177.5
      20
-172.5
      42
0
      10
177.5
      20
-172.5
      42
0.414213562373098
      10
182.5
      20
-167.5
      42
0
    1001
FS_CYPCUT
    1000
Channel
    1070
1
    1000
LeadIn
    1002
{
    1070
3
    1040
1.5
    1040
1.5707963267949
    1040
2
    1040
1
    1070
0
    1040
0.5
    1070
0
    1002
}
    1000
LeadOut
    1002
{
    1070
0
    1040
0
    1040
0
    1040
0
    1070
0
    1002
}
    1000
IsFill
    1070
1
    1000
PathStart
    1040
1.5
    1000
ToolCompensation
    1002
{
    1070
0
    1040
0
    1070
0
    1002
}
    1000
MicroConnect
    1002
{
    1070
4
    1040
1.45825568
    1041
0.8
    1042
0
    1040
3.49759864
    1041
0.8
    1042
0
    1040
5.50107542
    1041
0.8
    1042
0
    1040
7.4997865
    1041
0.8
    1042
0
    1002
}
       0
ENDBLK
       5
2027
     330
2002
     100
AcDbEntity
       8
0
     100
AcDbBlockEnd
       0
BLOCK
       5
2028
     330
2003
     100
AcDbEntity
       8
0
     100
AcDbBlockBegin
       2
Part1533690529
      70
0
      10
0
      20
-30
      30
0
       3
Part1533690529
       1

       4
CypCutBlock
       0
LWPOLYLINE
       5
2029
     100
AcDbEntity
       8
1
     100
AcDbPolyline
      90
4
      70
1
      10
127.499999999992
      20
51.6143782777058
      42
0.333333333332905
      10
112.500000000008
      20
51.6143782777058
      42
0
      10
112.5
      20
34.2659090493
      42
0.420204102886657
      10
127.499999999999
      20
34.2659090493496
      42
0
    1001
FS_CYPCUT
    1000
Channel
    1070
1
    1000
LeadIn
    1002
{
    1070
3
    1040
1.5
    1040
1.5707963267949
    1040
2
    1040
1
    1070
0
    1040
0.5
    1070
0
    1002
}
    1000
LeadOut
    1002
{
    1070
0
    1040
0
    1040
0
    1040
0
    1070
0
    1002
}
    1000
IsFill
    1070
0
    1000
PathStart
    1040
1.5
    1000
ToolCompensation
    1002
{
    1070
0
    1040
0
    1070
0
    1002
}
       0
LWPOLYLINE
       5
202A
     100
AcDbEntity
       8
1
     100
AcDbPolyline
      90
4
      70
1
      10
427.499999999992
      20
51.6143782777057
      42
0.333333333332911
      10
412.5
      20
51.6143782777
      42
0
      10
412.5
      20
34.2659090493
      42
0.420204102886659
      10
427.499999999999
      20
34.2659090493496
      42
0
    1001
FS_CYPCUT
    1000
Channel
    1070
1
    1000
LeadIn
    1002
{
    1070
3
    1040
1.5
    1040
1.5707963267949
    1040
2
    1040
1
    1070
0
    1040
0.5
    1070
0
    1002
}
    1000
LeadOut
    1002
{
    1070
0
    1040
0
    1040
0
    1040
0
    1070
0
    1002
}
    1000
IsFill
    1070
0
    1000
PathStart
    1040
1.5
    1000
ToolCompensation
    1002
{
    1070
0
    1040
0
    1070
0
    1002
}
       0
LWPOLYLINE
       5
202B
     100
AcDbEntity
       8
1
     100
AcDbPolyline
      90
4
      70
1
      10
727.5
      20
51.6143782777
      42
0
      10
727.5
      20
34.2659090493
      42
-0.420204102886652
      10
712.500000000001
      20
34.2659090493495
      42
0
      10
712.500000000008
      20
51.6143782777058
      42
-0.333333333332918
    1001
FS_CYPCUT
    1000
Channel
    1070
1
    1000
LeadIn
    1002
{
    1070
3
    1040
0.5
    1040
1.5707963267949
    1040
2
    1040
1
    1070
0
    1040
0.5
    1070
0
    1002
}
    1000
LeadOut
    1002
{
    1070
0
    1040
0
    1040
0
    1040
0
    1070
0
    1002
}
    1000
IsFill
    1070
0
    1000
PathStart
    1040
0.5
    1000
ToolCompensation
    1002
{
    1070
0
    1040
0
    1070
0
    1002
}
       0
LWPOLYLINE
       5
202C
     100
AcDbEntity
       8
1
     100
AcDbPolyline
      90
4
      70
1
      10
1027.49999999999
      20
51.6143782777057
      42
0.333333333332918
      10
1012.50000000001
      20
51.6143782777057
      42
0
      10
1012.5
      20
34.2659090493
      42
0.420204102886652
      10
1027.5
      20
34.2659090493495
      42
0
    1001
FS_CYPCUT
    1000
Channel
    1070
1
    1000
LeadIn
    1002
{
    1070
3
    1040
1.5
    1040
1.5707963267949
    1040
2
    1040
1
    1070
0
    1040
0.5
    1070
0
    1002
}
    1000
LeadOut
    1002
{
    1070
0
    1040
0
    1040
0
    1040
0
    1070
0
    1002
}
    1000
IsFill
    1070
0
    1000
PathStart
    1040
1.5
    1000
ToolCompensation
    1002
{
    1070
0
    1040
0
    1070
0
    1002
}
       0
LWPOLYLINE
       5
202D
     100
AcDbEntity
       8
1
     100
AcDbPolyline
      90
4
      70
1
      10
1327.5
      20
51.6143782777
      42
0
      10
1327.5
      20
34.2659090493
      42
-0.420204102886652
      10
1312.5
      20
34.2659090493
      42
0
      10
1312.5
      20
51.6143782777
      42
-0.333333333332918
    1001
FS_CYPCUT
    1000
Channel
    1070
1
    1000
LeadIn
    1002
{
    1070
3
    1040
0.5
    1040
1.5707963267949
    1040
2
    1040
1
    1070
0
    1040
0.5
    1070
0
    1002
}
    1000
LeadOut
    1002
{
    1070
0
    1040
0
    1040
0
    1040
0
    1070
0
    1002
}
    1000
IsFill
    1070
0
    1000
PathStart
    1040
0.5
    1000
ToolCompensation
    1002
{
    1070
0
    1040
0
    1070
0
    1002
}
       0
LWPOLYLINE
       5
202E
     100
AcDbEntity
       8
1
     100
AcDbPolyline
      90
48
      70
1
      10
1440
      20
65
      42
0
      10
1440
      20
32.15
      42
0
      10
1435
      20
32.15
      42
0
      10
1435
      20
11.85
      42
0
      10
1440
      20
11.85
      42
0
      10
1440
      20
5
      42
-0.414213562373038
      10
1435
      20
0
      42
0
      10
1391
      20
0
      42
0.414213562373163
      10
1389
      20
-2
      42
0
      10
1389
      20
-25
      42
-0.414213562373073
      10
1384
      20
-30
      42
0
      10
1125.5
      20
-30
      42
-0.414213562373074
      10
1120.5
      20
-25
      42
0
      10
1120.5
      20
-12
      42
0.414213562373163
      10
1118.5
      20
-10
      42
0
      10
1091.5
      20
-10
      42
0.414213562373088
      10
1089.5
      20
-12
      42
0
      10
1089.5
      20
-25
      42
-0.414213562373073
      10
1084.5
      20
-30
      42
0
      10
740.5
      20
-30
      42
-0.414213562373097
      10
735.5
      20
-25
      42
0
      10
735.5
      20
-12
      42
0.414213562373101
      10
733.5
      20
-10
      42
0
      10
706.5
      20
-10
      42
0.414213562373101
      10
704.5
      20
-12
      42
0
      10
704.5
      20
-25
      42
-0.41421356237312
      10
699.5
      20
-30
      42
0
      10
355.5
      20
-30
      42
-0.414213562373094
      10
350.5
      20
-25
      42
0
      10
350.5
      20
-12
      42
0.414213562373108
      10
348.5
      20
-9.99999999999977
      42
0
      10
321.5
      20
-10
      42
0.414213562373108
      10
319.5
      20
-12
      42
0
      10
319.5
      20
-25
      42
-0.414213562373094
      10
314.5
      20
-30
      42
0
      10
56
      20
-30
      42
-0.414213562373094
      10
51
      20
-25
      42
0
      10
51
      20
-2
      42
0.414213562373093
      10
49
      20
7.105427357601E-15
      42
0
      10
5
      20
0
      42
-0.414213562373095
      10
0
      20
5
      42
0
      10
0
      20
11.85
      42
0
      10
5
      20
11.85
      42
0
      10
5
      20
32.15
      42
0
      10
0
      20
32.15
      42
0
      10
0
      20
65
      42
-0.414213562373094
      10
20
      20
85
      42
0
      10
1420
      20
85
      42
-0.414213562373095
    1001
FS_CYPCUT
    1000
Channel
    1070
1
    1000
LeadIn
    1002
{
    1070
3
    1040
46.5
    1040
1.5707963267949
    1040
2
    1040
1
    1070
0
    1040
0.5
    1070
0
    1002
}
    1000
LeadOut
    1002
{
    1070
0
    1040
0
    1040
0
    1040
0
    1070
0
    1002
}
    1000
IsFill
    1070
1
    1000
PathStart
    1040
46.5
    1000
ToolCompensation
    1002
{
    1070
0
    1040
0
    1070
0
    1002
}
    1000
MicroConnect
    1002
{
    1070
6
    1040
10.408188
    1041
0.8
    1042
0
    1040
22.5
    1041
0.8
    1042
0
    1040
34.5522106
    1041
0.8
    1042
0
    1040
46.1051456
    1041
0.8
    1042
0
    1040
46.4891672
    1041
0.8
    1042
0
    1040
46.902979
    1041
0.8
    1042
0
    1002
}
       0
ENDBLK
       5
202F
     330
2003
     100
AcDbEntity
       8
0
     100
AcDbBlockEnd
       0
BLOCK
       5
2030
     330
2004
     100
AcDbEntity
       8
0
     100
AcDbBlockBegin
       2
Part1372564409
      70
0
      10
0
      20
-30
      30
0
       3
Part1372564409
       1

       4
CypCutBlock
       0
LWPOLYLINE
       5
2031
     100
AcDbEntity
       8
1
     100
AcDbPolyline
      90
4
      70
1
      10
127.499999999992
      20
51.6143782777058
      42
0.333333333332905
      10
112.500000000008
      20
51.6143782777058
      42
0
      10
112.5
      20
34.2659090493
      42
0.420204102886657
      10
127.499999999999
      20
34.2659090493496
      42
0
    1001
FS_CYPCUT
    1000
Channel
    1070
1
    1000
LeadIn
    1002
{
    1070
3
    1040
1.5
    1040
1.5707963267949
    1040
2
    1040
1
    1070
0
    1040
0.5
    1070
0
    1002
}
    1000
LeadOut
    1002
{
    1070
0
    1040
0
    1040
0
    1040
0
    1070
0
    1002
}
    1000
IsFill
    1070
0
    1000
PathStart
    1040
1.5
    1000
ToolCompensation
    1002
{
    1070
0
    1040
0
    1070
0
    1002
}
       0
LWPOLYLINE
       5
2032
     100
AcDbEntity
       8
1
     100
AcDbPolyline
      90
4
      70
1
      10
427.499999999992
      20
51.6143782777057
      42
0.333333333332911
      10
412.5
      20
51.6143782777
      42
0
      10
412.5
      20
34.2659090493
      42
0.420204102886659
      10
427.499999999999
      20
34.2659090493496
      42
0
    1001
FS_CYPCUT
    1000
Channel
    1070
1
    1000
LeadIn
    1002
{
    1070
3
    1040
1.5
    1040
1.5707963267949
    1040
2
    1040
1
    1070
0
    1040
0.5
    1070
0
    1002
}
    1000
LeadOut
    1002
{
    1070
0
    1040
0
    1040
0
    1040
0
    1070
0
    1002
}
    1000
IsFill
    1070
0
    1000
PathStart
    1040
1.5
    1000
ToolCompensation
    1002
{
    1070
0
    1040
0
    1070
0
    1002
}
       0
LWPOLYLINE
       5
2033
     100
AcDbEntity
       8
1
     100
AcDbPolyline
      90
4
      70
1
      10
727.5
      20
51.6143782777
      42
0
      10
727.5
      20
34.2659090493
      42
-0.420204102886652
      10
712.500000000001
      20
34.2659090493495
      42
0
      10
712.500000000008
      20
51.6143782777058
      42
-0.333333333332918
    1001
FS_CYPCUT
    1000
Channel
    1070
1
    1000
LeadIn
    1002
{
    1070
3
    1040
0.5
    1040
1.5707963267949
    1040
2
    1040
1
    1070
0
    1040
0.5
    1070
0
    1002
}
    1000
LeadOut
    1002
{
    1070
0
    1040
0
    1040
0
    1040
0
    1070
0
    1002
}
    1000
IsFill
    1070
0
    1000
PathStart
    1040
0.5
    1000
ToolCompensation
    1002
{
    1070
0
    1040
0
    1070
0
    1002
}
       0
LWPOLYLINE
       5
2034
     100
AcDbEntity
       8
1
     100
AcDbPolyline
      90
4
      70
1
      10
1027.49999999999
      20
51.6143782777057
      42
0.333333333332918
      10
1012.50000000001
      20
51.6143782777057
      42
0
      10
1012.5
      20
34.2659090493
      42
0.420204102886652
      10
1027.5
      20
34.2659090493495
      42
0
    1001
FS_CYPCUT
    1000
Channel
    1070
1
    1000
LeadIn
    1002
{
    1070
3
    1040
1.5
    1040
1.5707963267949
    1040
2
    1040
1
    1070
0
    1040
0.5
    1070
0
    1002
}
    1000
LeadOut
    1002
{
    1070
0
    1040
0
    1040
0
    1040
0
    1070
0
    1002
}
    1000
IsFill
    1070
0
    1000
PathStart
    1040
1.5
    1000
ToolCompensation
    1002
{
    1070
0
    1040
0
    1070
0
    1002
}
       0
LWPOLYLINE
       5
2035
     100
AcDbEntity
       8
1
     100
AcDbPolyline
      90
4
      70
1
      10
1327.5
      20
51.6143782777
      42
0
      10
1327.5
      20
34.2659090493
      42
-0.420204102886652
      10
1312.5
      20
34.2659090493
      42
0
      10
1312.5
      20
51.6143782777
      42
-0.333333333332918
    1001
FS_CYPCUT
    1000
Channel
    1070
1
    1000
LeadIn
    1002
{
    1070
3
    1040
0.5
    1040
1.5707963267949
    1040
2
    1040
1
    1070
0
    1040
0.5
    1070
0
    1002
}
    1000
LeadOut
    1002
{
    1070
0
    1040
0
    1040
0
    1040
0
    1070
0
    1002
}
    1000
IsFill
    1070
0
    1000
PathStart
    1040
0.5
    1000
ToolCompensation
    1002
{
    1070
0
    1040
0
    1070
0
    1002
}
       0
LWPOLYLINE
       5
2036
     100
AcDbEntity
       8
1
     100
AcDbPolyline
      90
48
      70
1
      10
1440
      20
65
      42
0
      10
1440
      20
32.15
      42
0
      10
1435
      20
32.15
      42
0
      10
1435
      20
11.85
      42
0
      10
1440
      20
11.85
      42
0
      10
1440
      20
5
      42
-0.414213562373038
      10
1435
      20
0
      42
0
      10
1391
      20
0
      42
0.414213562373163
      10
1389
      20
-2
      42
0
      10
1389
      20
-25
      42
-0.414213562373073
      10
1384
      20
-30
      42
0
      10
1125.5
      20
-30
      42
-0.414213562373074
      10
1120.5
      20
-25
      42
0
      10
1120.5
      20
-12
      42
0.414213562373163
      10
1118.5
      20
-10
      42
0
      10
1091.5
      20
-10
      42
0.414213562373088
      10
1089.5
      20
-12
      42
0
      10
1089.5
      20
-25
      42
-0.414213562373073
      10
1084.5
      20
-30
      42
0
      10
740.5
      20
-30
      42
-0.414213562373097
      10
735.5
      20
-25
      42
0
      10
735.5
      20
-12
      42
0.414213562373101
      10
733.5
      20
-10
      42
0
      10
706.5
      20
-10
      42
0.414213562373101
      10
704.5
      20
-12
      42
0
      10
704.5
      20
-25
      42
-0.41421356237312
      10
699.5
      20
-30
      42
0
      10
355.5
      20
-30
      42
-0.414213562373094
      10
350.5
      20
-25
      42
0
      10
350.5
      20
-12
      42
0.414213562373108
      10
348.5
      20
-9.99999999999977
      42
0
      10
321.5
      20
-10
      42
0.414213562373108
      10
319.5
      20
-12
      42
0
      10
319.5
      20
-25
      42
-0.414213562373094
      10
314.5
      20
-30
      42
0
      10
56
      20
-30
      42
-0.414213562373094
      10
51
      20
-25
      42
0
      10
51
      20
-2
      42
0.414213562373093
      10
49
      20
7.105427357601E-15
      42
0
      10
5
      20
0
      42
-0.414213562373095
      10
0
      20
5
      42
0
      10
0
      20
11.85
      42
0
      10
5
      20
11.85
      42
0
      10
5
      20
32.15
      42
0
      10
0
      20
32.15
      42
0
      10
0
      20
65
      42
-0.414213562373094
      10
20
      20
85
      42
0
      10
1420
      20
85
      42
-0.414213562373095
    1001
FS_CYPCUT
    1000
Channel
    1070
1
    1000
LeadIn
    1002
{
    1070
3
    1040
46.5
    1040
1.5707963267949
    1040
2
    1040
1
    1070
0
    1040
0.5
    1070
0
    1002
}
    1000
LeadOut
    1002
{
    1070
0
    1040
0
    1040
0
    1040
0
    1070
0
    1002
}
    1000
IsFill
    1070
1
    1000
PathStart
    1040
46.5
    1000
ToolCompensation
    1002
{
    1070
0
    1040
0
    1070
0
    1002
}
    1000
MicroConnect
    1002
{
    1070
6
    1040
10.408188
    1041
0.8
    1042
0
    1040
22.5
    1041
0.8
    1042
0
    1040
34.5522106
    1041
0.8
    1042
0
    1040
46.1051456
    1041
0.8
    1042
0
    1040
46.4891672
    1041
0.8
    1042
0
    1040
46.902979
    1041
0.8
    1042
0
    1002
}
       0
ENDBLK
       5
2037
     330
2004
     100
AcDbEntity
       8
0
     100
AcDbBlockEnd
       0
BLOCK
       5
2038
     330
2005
     100
AcDbEntity
       8
0
     100
AcDbBlockBegin
       2
Part129810315
      70
0
      10
0
      20
-30
      30
0
       3
Part129810315
       1

       4
CypCutBlock
       0
LWPOLYLINE
       5
2039
     100
AcDbEntity
       8
1
     100
AcDbPolyline
      90
4
      70
1
      10
127.499999999992
      20
51.6143782777058
      42
0.333333333332905
      10
112.500000000008
      20
51.6143782777058
      42
0
      10
112.5
      20
34.2659090493
      42
0.420204102886657
      10
127.499999999999
      20
34.2659090493496
      42
0
    1001
FS_CYPCUT
    1000
Channel
    1070
1
    1000
LeadIn
    1002
{
    1070
3
    1040
1.5
    1040
1.5707963267949
    1040
2
    1040
1
    1070
0
    1040
0.5
    1070
0
    1002
}
    1000
LeadOut
    1002
{
    1070
0
    1040
0
    1040
0
    1040
0
    1070
0
    1002
}
    1000
IsFill
    1070
0
    1000
PathStart
    1040
1.5
    1000
ToolCompensation
    1002
{
    1070
0
    1040
0
    1070
0
    1002
}
       0
LWPOLYLINE
       5
203A
     100
AcDbEntity
       8
1
     100
AcDbPolyline
      90
4
      70
1
      10
427.499999999992
      20
51.6143782777057
      42
0.333333333332911
      10
412.5
      20
51.6143782777
      42
0
      10
412.5
      20
34.2659090493
      42
0.420204102886659
      10
427.499999999999
      20
34.2659090493496
      42
0
    1001
FS_CYPCUT
    1000
Channel
    1070
1
    1000
LeadIn
    1002
{
    1070
3
    1040
1.5
    1040
1.5707963267949
    1040
2
    1040
1
    1070
0
    1040
0.5
    1070
0
    1002
}
    1000
LeadOut
    1002
{
    1070
0
    1040
0
    1040
0
    1040
0
    1070
0
    1002
}
    1000
IsFill
    1070
0
    1000
PathStart
    1040
1.5
    1000
ToolCompensation
    1002
{
    1070
0
    1040
0
    1070
0
    1002
}
       0
LWPOLYLINE
       5
203B
     100
AcDbEntity
       8
1
     100
AcDbPolyline
      90
4
      70
1
      10
727.5
      20
51.6143782777
      42
0
      10
727.5
      20
34.2659090493
      42
-0.420204102886652
      10
712.500000000001
      20
34.2659090493495
      42
0
      10
712.500000000008
      20
51.6143782777058
      42
-0.333333333332918
    1001
FS_CYPCUT
    1000
Channel
    1070
1
    1000
LeadIn
    1002
{
    1070
3
    1040
0.5
    1040
1.5707963267949
    1040
2
    1040
1
    1070
0
    1040
0.5
    1070
0
    1002
}
    1000
LeadOut
    1002
{
    1070
0
    1040
0
    1040
0
    1040
0
    1070
0
    1002
}
    1000
IsFill
    1070
0
    1000
PathStart
    1040
0.5
    1000
ToolCompensation
    1002
{
    1070
0
    1040
0
    1070
0
    1002
}
       0
LWPOLYLINE
       5
203C
     100
AcDbEntity
       8
1
     100
AcDbPolyline
      90
4
      70
1
      10
1027.49999999999
      20
51.6143782777057
      42
0.333333333332918
      10
1012.50000000001
      20
51.6143782777057
      42
0
      10
1012.5
      20
34.2659090493
      42
0.420204102886652
      10
1027.5
      20
34.2659090493495
      42
0
    1001
FS_CYPCUT
    1000
Channel
    1070
1
    1000
LeadIn
    1002
{
    1070
3
    1040
1.5
    1040
1.5707963267949
    1040
2
    1040
1
    1070
0
    1040
0.5
    1070
0
    1002
}
    1000
LeadOut
    1002
{
    1070
0
    1040
0
    1040
0
    1040
0
    1070
0
    1002
}
    1000
IsFill
    1070
0
    1000
PathStart
    1040
1.5
    1000
ToolCompensation
    1002
{
    1070
0
    1040
0
    1070
0
    1002
}
       0
LWPOLYLINE
       5
203D
     100
AcDbEntity
       8
1
     100
AcDbPolyline
      90
4
      70
1
      10
1327.5
      20
51.6143782777
      42
0
      10
1327.5
      20
34.2659090493
      42
-0.420204102886652
      10
1312.5
      20
34.2659090493
      42
0
      10
1312.5
      20
51.6143782777
      42
-0.333333333332918
    1001
FS_CYPCUT
    1000
Channel
    1070
1
    1000
LeadIn
    1002
{
    1070
3
    1040
0.5
    1040
1.5707963267949
    1040
2
    1040
1
    1070
0
    1040
0.5
    1070
0
    1002
}
    1000
LeadOut
    1002
{
    1070
0
    1040
0
    1040
0
    1040
0
    1070
0
    1002
}
    1000
IsFill
    1070
0
    1000
PathStart
    1040
0.5
    1000
ToolCompensation
    1002
{
    1070
0
    1040
0
    1070
0
    1002
}
       0
LWPOLYLINE
       5
203E
     100
AcDbEntity
       8
1
     100
AcDbPolyline
      90
48
      70
1
      10
1440
      20
65
      42
0
      10
1440
      20
32.15
      42
0
      10
1435
      20
32.15
      42
0
      10
1435
      20
11.85
      42
0
      10
1440
      20
11.85
      42
0
      10
1440
      20
5
      42
-0.414213562373038
      10
1435
      20
0
      42
0
      10
1391
      20
0
      42
0.414213562373163
      10
1389
      20
-2
      42
0
      10
1389
      20
-25
      42
-0.414213562373073
      10
1384
      20
-30
      42
0
      10
1125.5
      20
-30
      42
-0.414213562373074
      10
1120.5
      20
-25
      42
0
      10
1120.5
      20
-12
      42
0.414213562373163
      10
1118.5
      20
-10
      42
0
      10
1091.5
      20
-10
      42
0.414213562373088
      10
1089.5
      20
-12
      42
0
      10
1089.5
      20
-25
      42
-0.414213562373073
      10
1084.5
      20
-30
      42
0
      10
740.5
      20
-30
      42
-0.414213562373097
      10
735.5
      20
-25
      42
0
      10
735.5
      20
-12
      42
0.414213562373101
      10
733.5
      20
-10
      42
0
      10
706.5
      20
-10
      42
0.414213562373101
      10
704.5
      20
-12
      42
0
      10
704.5
      20
-25
      42
-0.41421356237312
      10
699.5
      20
-30
      42
0
      10
355.5
      20
-30
      42
-0.414213562373094
      10
350.5
      20
-25
      42
0
      10
350.5
      20
-12
      42
0.414213562373108
      10
348.5
      20
-9.99999999999977
      42
0
      10
321.5
      20
-10
      42
0.414213562373108
      10
319.5
      20
-12
      42
0
      10
319.5
      20
-25
      42
-0.414213562373094
      10
314.5
      20
-30
      42
0
      10
56
      20
-30
      42
-0.414213562373094
      10
51
      20
-25
      42
0
      10
51
      20
-2
      42
0.414213562373093
      10
49
      20
7.105427357601E-15
      42
0
      10
5
      20
0
      42
-0.414213562373095
      10
0
      20
5
      42
0
      10
0
      20
11.85
      42
0
      10
5
      20
11.85
      42
0
      10
5
      20
32.15
      42
0
      10
0
      20
32.15
      42
0
      10
0
      20
65
      42
-0.414213562373094
      10
20
      20
85
      42
0
      10
1420
      20
85
      42
-0.414213562373095
    1001
FS_CYPCUT
    1000
Channel
    1070
1
    1000
LeadIn
    1002
{
    1070
3
    1040
46.5
    1040
1.5707963267949
    1040
2
    1040
1
    1070
0
    1040
0.5
    1070
0
    1002
}
    1000
LeadOut
    1002
{
    1070
0
    1040
0
    1040
0
    1040
0
    1070
0
    1002
}
    1000
IsFill
    1070
1
    1000
PathStart
    1040
46.5
    1000
ToolCompensation
    1002
{
    1070
0
    1040
0
    1070
0
    1002
}
    1000
MicroConnect
    1002
{
    1070
6
    1040
10.408188
    1041
0.8
    1042
0
    1040
22.5
    1041
0.8
    1042
0
    1040
34.5522106
    1041
0.8
    1042
0
    1040
46.1051456
    1041
0.8
    1042
0
    1040
46.4891672
    1041
0.8
    1042
0
    1040
46.902979
    1041
0.8
    1042
0
    1002
}
       0
ENDBLK
       5
203F
     330
2005
     100
AcDbEntity
       8
0
     100
AcDbBlockEnd
       0
BLOCK
       5
2040
     330
2006
     100
AcDbEntity
       8
0
     100
AcDbBlockBegin
       2
Part2126355022
      70
0
      10
0
      20
-30
      30
0
       3
Part2126355022
       1

       4
CypCutBlock
       0
LWPOLYLINE
       5
2041
     100
AcDbEntity
       8
1
     100
AcDbPolyline
      90
4
      70
1
      10
127.499999999992
      20
51.6143782777058
      42
0.333333333332905
      10
112.500000000008
      20
51.6143782777058
      42
0
      10
112.5
      20
34.2659090493
      42
0.420204102886657
      10
127.499999999999
      20
34.2659090493496
      42
0
    1001
FS_CYPCUT
    1000
Channel
    1070
1
    1000
LeadIn
    1002
{
    1070
3
    1040
1.5
    1040
1.5707963267949
    1040
2
    1040
1
    1070
0
    1040
0.5
    1070
0
    1002
}
    1000
LeadOut
    1002
{
    1070
0
    1040
0
    1040
0
    1040
0
    1070
0
    1002
}
    1000
IsFill
    1070
0
    1000
PathStart
    1040
1.5
    1000
ToolCompensation
    1002
{
    1070
0
    1040
0
    1070
0
    1002
}
       0
LWPOLYLINE
       5
2042
     100
AcDbEntity
       8
1
     100
AcDbPolyline
      90
4
      70
1
      10
427.499999999992
      20
51.6143782777057
      42
0.333333333332911
      10
412.5
      20
51.6143782777
      42
0
      10
412.5
      20
34.2659090493
      42
0.420204102886659
      10
427.499999999999
      20
34.2659090493496
      42
0
    1001
FS_CYPCUT
    1000
Channel
    1070
1
    1000
LeadIn
    1002
{
    1070
3
    1040
1.5
    1040
1.5707963267949
    1040
2
    1040
1
    1070
0
    1040
0.5
    1070
0
    1002
}
    1000
LeadOut
    1002
{
    1070
0
    1040
0
    1040
0
    1040
0
    1070
0
    1002
}
    1000
IsFill
    1070
0
    1000
PathStart
    1040
1.5
    1000
ToolCompensation
    1002
{
    1070
0
    1040
0
    1070
0
    1002
}
       0
LWPOLYLINE
       5
2043
     100
AcDbEntity
       8
1
     100
AcDbPolyline
      90
4
      70
1
      10
727.5
      20
51.6143782777
      42
0
      10
727.5
      20
34.2659090493
      42
-0.420204102886652
      10
712.500000000001
      20
34.2659090493495
      42
0
      10
712.500000000008
      20
51.6143782777058
      42
-0.333333333332918
    1001
FS_CYPCUT
    1000
Channel
    1070
1
    1000
LeadIn
    1002
{
    1070
3
    1040
0.5
    1040
1.5707963267949
    1040
2
    1040
1
    1070
0
    1040
0.5
    1070
0
    1002
}
    1000
LeadOut
    1002
{
    1070
0
    1040
0
    1040
0
    1040
0
    1070
0
    1002
}
    1000
IsFill
    1070
0
    1000
PathStart
    1040
0.5
    1000
ToolCompensation
    1002
{
    1070
0
    1040
0
    1070
0
    1002
}
       0
LWPOLYLINE
       5
2044
     100
AcDbEntity
       8
1
     100
AcDbPolyline
      90
4
      70
1
      10
1027.49999999999
      20
51.6143782777057
      42
0.333333333332918
      10
1012.50000000001
      20
51.6143782777057
      42
0
      10
1012.5
      20
34.2659090493
      42
0.420204102886652
      10
1027.5
      20
34.2659090493495
      42
0
    1001
FS_CYPCUT
    1000
Channel
    1070
1
    1000
LeadIn
    1002
{
    1070
3
    1040
1.5
    1040
1.5707963267949
    1040
2
    1040
1
    1070
0
    1040
0.5
    1070
0
    1002
}
    1000
LeadOut
    1002
{
    1070
0
    1040
0
    1040
0
    1040
0
    1070
0
    1002
}
    1000
IsFill
    1070
0
    1000
PathStart
    1040
1.5
    1000
ToolCompensation
    1002
{
    1070
0
    1040
0
    1070
0
    1002
}
       0
LWPOLYLINE
       5
2045
     100
AcDbEntity
       8
1
     100
AcDbPolyline
      90
4
      70
1
      10
1327.5
      20
51.6143782777
      42
0
      10
1327.5
      20
34.2659090493
      42
-0.420204102886652
      10
1312.5
      20
34.2659090493
      42
0
      10
1312.5
      20
51.6143782777
      42
-0.333333333332918
    1001
FS_CYPCUT
    1000
Channel
    1070
1
    1000
LeadIn
    1002
{
    1070
3
    1040
0.5
    1040
1.5707963267949
    1040
2
    1040
1
    1070
0
    1040
0.5
    1070
0
    1002
}
    1000
LeadOut
    1002
{
    1070
0
    1040
0
    1040
0
    1040
0
    1070
0
    1002
}
    1000
IsFill
    1070
0
    1000
PathStart
    1040
0.5
    1000
ToolCompensation
    1002
{
    1070
0
    1040
0
    1070
0
    1002
}
       0
LWPOLYLINE
       5
2046
     100
AcDbEntity
       8
1
     100
AcDbPolyline
      90
48
      70
1
      10
1440
      20
65
      42
0
      10
1440
      20
32.15
      42
0
      10
1435
      20
32.15
      42
0
      10
1435
      20
11.85
      42
0
      10
1440
      20
11.85
      42
0
      10
1440
      20
5
      42
-0.414213562373038
      10
1435
      20
0
      42
0
      10
1391
      20
0
      42
0.414213562373163
      10
1389
      20
-2
      42
0
      10
1389
      20
-25
      42
-0.414213562373073
      10
1384
      20
-30
      42
0
      10
1125.5
      20
-30
      42
-0.414213562373074
      10
1120.5
      20
-25
      42
0
      10
1120.5
      20
-12
      42
0.414213562373163
      10
1118.5
      20
-10
      42
0
      10
1091.5
      20
-10
      42
0.414213562373088
      10
1089.5
      20
-12
      42
0
      10
1089.5
      20
-25
      42
-0.414213562373073
      10
1084.5
      20
-30
      42
0
      10
740.5
      20
-30
      42
-0.414213562373097
      10
735.5
      20
-25
      42
0
      10
735.5
      20
-12
      42
0.414213562373101
      10
733.5
      20
-10
      42
0
      10
706.5
      20
-10
      42
0.414213562373101
      10
704.5
      20
-12
      42
0
      10
704.5
      20
-25
      42
-0.41421356237312
      10
699.5
      20
-30
      42
0
      10
355.5
      20
-30
      42
-0.414213562373094
      10
350.5
      20
-25
      42
0
      10
350.5
      20
-12
      42
0.414213562373108
      10
348.5
      20
-9.99999999999977
      42
0
      10
321.5
      20
-10
      42
0.414213562373108
      10
319.5
      20
-12
      42
0
      10
319.5
      20
-25
      42
-0.414213562373094
      10
314.5
      20
-30
      42
0
      10
56
      20
-30
      42
-0.414213562373094
      10
51
      20
-25
      42
0
      10
51
      20
-2
      42
0.414213562373093
      10
49
      20
7.105427357601E-15
      42
0
      10
5
      20
0
      42
-0.414213562373095
      10
0
      20
5
      42
0
      10
0
      20
11.85
      42
0
      10
5
      20
11.85
      42
0
      10
5
      20
32.15
      42
0
      10
0
      20
32.15
      42
0
      10
0
      20
65
      42
-0.414213562373094
      10
20
      20
85
      42
0
      10
1420
      20
85
      42
-0.414213562373095
    1001
FS_CYPCUT
    1000
Channel
    1070
1
    1000
LeadIn
    1002
{
    1070
3
    1040
46.5
    1040
1.5707963267949
    1040
2
    1040
1
    1070
0
    1040
0.5
    1070
0
    1002
}
    1000
LeadOut
    1002
{
    1070
0
    1040
0
    1040
0
    1040
0
    1070
0
    1002
}
    1000
IsFill
    1070
1
    1000
PathStart
    1040
46.5
    1000
ToolCompensation
    1002
{
    1070
0
    1040
0
    1070
0
    1002
}
    1000
MicroConnect
    1002
{
    1070
6
    1040
10.408188
    1041
0.8
    1042
0
    1040
22.5
    1041
0.8
    1042
0
    1040
34.5522106
    1041
0.8
    1042
0
    1040
46.1051456
    1041
0.8
    1042
0
    1040
46.4891672
    1041
0.8
    1042
0
    1040
46.902979
    1041
0.8
    1042
0
    1002
}
       0
ENDBLK
       5
2047
     330
2006
     100
AcDbEntity
       8
0
     100
AcDbBlockEnd
       0
BLOCK
       5
2048
     330
2007
     100
AcDbEntity
       8
0
     100
AcDbBlockBegin
       2
Part435900714
      70
0
      10
-101.323725
      20
0
      30
0
       3
Part435900714
       1

       4
CypCutBlock
       0
LINE
       5
2049
     100
AcDbEntity
       8
2
     100
AcDbLine
      10
4.3381376828
      20
0
      30
0
      11
4.3381376828
      21
30
      31
0
    1001
FS_CYPCUT
    1000
Channel
    1070
2
    1000
LeadIn
    1002
{
    1070
0
    1040
0
    1040
0
    1040
0
    1040
0
    1070
0
    1040
0
    1070
0
    1002
}
    1000
LeadOut
    1002
{
    1070
0
    1040
0
    1040
0
    1040
0
    1070
0
    1002
}
    1000
IsFill
    1070
0
    1000
PathStart
    1040
0
    1000
ToolCompensation
    1002
{
    1070
0
    1040
0
    1070
0
    1002
}
       0
LWPOLYLINE
       5
204A
     100
AcDbEntity
       8
1
     100
AcDbPolyline
      90
8
      70
1
      10
300
      20
25
      42
0.414213562373084
      10
295
      20
30.0000000000001
      42
0
      10
-96.3237246344
      20
30
      42
0.414213562373098
      10
-101.3237246344
      20
25
      42
0
      10
-101.3237246344
      20
5
      42
0.414213562373095
      10
-96.3237246344
      20
0
      42
0
      10
295
      20
0
      42
0.414213562373095
      10
300
      20
5
      42
0
    1001
FS_CYPCUT
    1000
Channel
    1070
1
    1000
LeadIn
    1002
{
    1070
3
    1040
1.5
    1040
1.5707963267949
    1040
2
    1040
1
    1070
0
    1040
0.5
    1070
0
    1002
}
    1000
LeadOut
    1002
{
    1070
0
    1040
0
    1040
0
    1040
0
    1070
0
    1002
}
    1000
IsFill
    1070
1
    1000
PathStart
    1040
1.5
    1000
ToolCompensation
    1002
{
    1070
0
    1040
0
    1070
0
    1002
}
    1000
MicroConnect
    1002
{
    1070
2
    1040
1.25232283
    1041
0.8
    1042
0
    1040
5.20107928
    1041
0.8
    1042
0
    1002
}
       0
ENDBLK
       5
204B
     330
2007
     100
AcDbEntity
       8
0
     100
AcDbBlockEnd
       0
BLOCK
       5
204C
     330
2008
     100
AcDbEntity
       8
0
     100
AcDbBlockBegin
       2
Part2031796694
      70
0
      10
-101.323725
      20
0
      30
0
       3
Part2031796694
       1

       4
CypCutBlock
       0
LINE
       5
204D
     100
AcDbEntity
       8
2
     100
AcDbLine
      10
4.3381376828
      20
0
      30
0
      11
4.3381376828
      21
30
      31
0
    1001
FS_CYPCUT
    1000
Channel
    1070
2
    1000
LeadIn
    1002
{
    1070
0
    1040
0
    1040
0
    1040
0
    1040
0
    1070
0
    1040
0
    1070
0
    1002
}
    1000
LeadOut
    1002
{
    1070
0
    1040
0
    1040
0
    1040
0
    1070
0
    1002
}
    1000
IsFill
    1070
0
    1000
PathStart
    1040
0
    1000
ToolCompensation
    1002
{
    1070
0
    1040
0
    1070
0
    1002
}
       0
LWPOLYLINE
       5
204E
     100
AcDbEntity
       8
1
     100
AcDbPolyline
      90
8
      70
1
      10
300
      20
25
      42
0.414213562373084
      10
295
      20
30.0000000000001
      42
0
      10
-96.3237246344
      20
30
      42
0.414213562373098
      10
-101.3237246344
      20
25
      42
0
      10
-101.3237246344
      20
5
      42
0.414213562373095
      10
-96.3237246344
      20
0
      42
0
      10
295
      20
0
      42
0.414213562373095
      10
300
      20
5
      42
0
    1001
FS_CYPCUT
    1000
Channel
    1070
1
    1000
LeadIn
    1002
{
    1070
3
    1040
1.5
    1040
1.5707963267949
    1040
2
    1040
1
    1070
0
    1040
0.5
    1070
0
    1002
}
    1000
LeadOut
    1002
{
    1070
0
    1040
0
    1040
0
    1040
0
    1070
0
    1002
}
    1000
IsFill
    1070
1
    1000
PathStart
    1040
1.5
    1000
ToolCompensation
    1002
{
    1070
0
    1040
0
    1070
0
    1002
}
    1000
MicroConnect
    1002
{
    1070
2
    1040
1.25232283
    1041
0.8
    1042
0
    1040
5.20107928
    1041
0.8
    1042
0
    1002
}
       0
ENDBLK
       5
204F
     330
2008
     100
AcDbEntity
       8
0
     100
AcDbBlockEnd
       0
BLOCK
       5
2050
     330
2009
     100
AcDbEntity
       8
0
     100
AcDbBlockBegin
       2
Part1310810887
      70
0
      10
-601.5
      20
-27.5
      30
0
       3
Part1310810887
       1

       4
CypCutBlock
       0
LWPOLYLINE
       5
2051
     100
AcDbEntity
       8
1
     100
AcDbPolyline
      90
4
      70
1
      10
-197.12
      20
17
      42
0
      10
-197.12
      20
6
      42
0
      10
-202.12
      20
6
      42
0
      10
-202.12
      20
17
      42
0
    1001
FS_CYPCUT
    1000
Channel
    1070
1
    1000
LeadIn
    1002
{
    1070
3
    1040
0.5
    1040
1.5707963267949
    1040
2
    1040
1
    1070
0
    1040
0.5
    1070
0
    1002
}
    1000
LeadOut
    1002
{
    1070
0
    1040
0
    1040
0
    1040
0
    1070
0
    1002
}
    1000
IsFill
    1070
0
    1000
PathStart
    1040
0.5
    1000
ToolCompensation
    1002
{
    1070
0
    1040
0
    1070
0
    1002
}
       0
LWPOLYLINE
       5
2052
     100
AcDbEntity
       8
1
     100
AcDbPolyline
      90
4
      70
1
      10
202.12
      20
17
      42
0
      10
197.12
      20
17
      42
0
      10
197.12
      20
6
      42
0
      10
202.12
      20
6
      42
0
    1001
FS_CYPCUT
    1000
Channel
    1070
1
    1000
LeadIn
    1002
{
    1070
3
    1040
1.5
    1040
1.5707963267949
    1040
2
    1040
1
    1070
0
    1040
0.5
    1070
0
    1002
}
    1000
LeadOut
    1002
{
    1070
0
    1040
0
    1040
0
    1040
0
    1070
0
    1002
}
    1000
IsFill
    1070
0
    1000
PathStart
    1040
1.5
    1000
ToolCompensation
    1002
{
    1070
0
    1040
0
    1070
0
    1002
}
       0
LWPOLYLINE
       5
2053
     100
AcDbEntity
       8
1
     100
AcDbPolyline
      90
20
      70
1
      10
601.5
      20
4.5
      42
0
      10
596
      20
4.5
      42
0
      10
596
      20
27.5
      42
0
      10
-596
      20
27.5
      42
0
      10
-596
      20
4.5
      42
0
      10
-601.5
      20
4.5
      42
0
      10
-601.5
      20
-15.5
      42
0
      10
-596
      20
-15.5
      42
0
      10
-596
      20
-27.5
      42
0
      10
-202.12
      20
-27.5
      42
0
      10
-202.12
      20
-17
      42
0
      10
-197.12
      20
-17
      42
0
      10
-197.12
      20
-27.5
      42
0
      10
197.12
      20
-27.5
      42
0
      10
197.12
      20
-17
      42
0
      10
202.12
      20
-17
      42
0
      10
202.12
      20
-27.5
      42
0
      10
596
      20
-27.5
      42
0
      10
596
      20
-15.5
      42
0
      10
601.5
      20
-15.5
      42
0
    1001
FS_CYPCUT
    1000
Channel
    1070
1
    1000
LeadIn
    1002
{
    1070
3
    1040
2.5
    1040
1.5707963267949
    1040
2
    1040
1
    1070
0
    1040
0.5
    1070
0
    1002
}
    1000
LeadOut
    1002
{
    1070
0
    1040
0
    1040
0
    1040
0
    1070
0
    1002
}
    1000
IsFill
    1070
1
    1000
PathStart
    1040
2.5
    1000
ToolCompensation
    1002
{
    1070
0
    1040
0
    1070
0
    1002
}
    1000
MicroConnect
    1002
{
    1070
6
    1040
2.12134013
    1041
0.8
    1042
0
    1040
2.49481453
    1041
0.8
    1042
0
    1040
2.87786269
    1041
0.8
    1042
0
    1040
8.38409947
    1041
0.8
    1042
0
    1040
12.5120515
    1041
0.8
    1042
0
    1040
16.6352006
    1041
0.8
    1042
0
    1002
}
       0
ENDBLK
       5
2054
     330
2009
     100
AcDbEntity
       8
0
     100
AcDbBlockEnd
       0
BLOCK
       5
2055
     330
200A
     100
AcDbEntity
       8
0
     100
AcDbBlockBegin
       2
Part1362201959
      70
0
      10
-601.5
      20
-50
      30
0
       3
Part1362201959
       1

       4
CypCutBlock
       0
CIRCLE
       5
2056
     100
AcDbEntity
       8
1
     100
AcDbCircle
      10
-450
      20
30
      30
0
      40
4.5
    1001
FS_CYPCUT
    1000
Channel
    1070
1
    1000
LeadIn
    1002
{
    1070
3
    1040
0
    1040
1.5707963267949
    1040
2
    1040
1
    1070
0
    1040
0.5
    1070
0
    1002
}
    1000
LeadOut
    1002
{
    1070
0
    1040
0
    1040
0
    1040
0
    1070
0
    1002
}
    1000
IsFill
    1070
0
    1000
PathStart
    1040
0.999999999999999
    1000
ToolCompensation
    1002
{
    1070
0
    1040
0
    1070
0
    1002
}
       0
LWPOLYLINE
       5
2057
     100
AcDbEntity
       8
1
     100
AcDbPolyline
      90
4
      70
1
      10
-197.12
      20
-5.5
      42
0
      10
-202.12
      20
-5.5
      42
0
      10
-202.12
      20
-16.5
      42
0
      10
-197.12
      20
-16.5
      42
0
    1001
FS_CYPCUT
    1000
Channel
    1070
1
    1000
LeadIn
    1002
{
    1070
3
    1040
1.5
    1040
1.5707963267949
    1040
2
    1040
1
    1070
0
    1040
0.5
    1070
0
    1002
}
    1000
LeadOut
    1002
{
    1070
0
    1040
0
    1040
0
    1040
0
    1070
0
    1002
}
    1000
IsFill
    1070
0
    1000
PathStart
    1040
1.5
    1000
ToolCompensation
    1002
{
    1070
0
    1040
0
    1070
0
    1002
}
       0
CIRCLE
       5
2058
     100
AcDbEntity
       8
1
     100
AcDbCircle
      10
-130
      20
-5
      30
0
      40
2.5
    1001
FS_CYPCUT
    1000
Channel
    1070
1
    1000
LeadIn
    1002
{
    1070
3
    1040
6.38378239159465E-16
    1040
1.5707963267949
    1040
2
    1040
1
    1070
0
    1040
0.5
    1070
0
    1002
}
    1000
LeadOut
    1002
{
    1070
0
    1040
0
    1040
0
    1040
0
    1070
0
    1002
}
    1000
IsFill
    1070
0
    1000
PathStart
    1040
6.38378239159465E-16
    1000
ToolCompensation
    1002
{
    1070
0
    1040
0
    1070
0
    1002
}
       0
CIRCLE
       5
2059
     100
AcDbEntity
       8
1
     100
AcDbCircle
      10
0
      20
30
      30
0
      40
4.5
    1001
FS_CYPCUT
    1000
Channel
    1070
1
    1000
LeadIn
    1002
{
    1070
3
    1040
0
    1040
1.5707963267949
    1040
2
    1040
1
    1070
0
    1040
0.5
    1070
0
    1002
}
    1000
LeadOut
    1002
{
    1070
0
    1040
0
    1040
0
    1040
0
    1070
0
    1002
}
    1000
IsFill
    1070
0
    1000
PathStart
    1040
1
    1000
ToolCompensation
    1002
{
    1070
0
    1040
0
    1070
0
    1002
}
       0
CIRCLE
       5
205A
     100
AcDbEntity
       8
1
     100
AcDbCircle
      10
130
      20
-5
      30
0
      40
2.5
    1001
FS_CYPCUT
    1000
Channel
    1070
1
    1000
LeadIn
    1002
{
    1070
3
    1040
6.38378239159465E-16
    1040
1.5707963267949
    1040
2
    1040
1
    1070
0
    1040
0.5
    1070
0
    1002
}
    1000
LeadOut
    1002
{
    1070
0
    1040
0
    1040
0
    1040
0
    1070
0
    1002
}
    1000
IsFill
    1070
0
    1000
PathStart
    1040
6.38378239159465E-16
    1000
ToolCompensation
    1002
{
    1070
0
    1040
0
    1070
0
    1002
}
       0
LWPOLYLINE
       5
205B
     100
AcDbEntity
       8
1
     100
AcDbPolyline
      90
4
      70
1
      10
202.12
      20
-5.5
      42
0
      10
202.12
      20
-16.5
      42
0
      10
197.12
      20
-16.5
      42
0
      10
197.12
      20
-5.5
      42
0
    1001
FS_CYPCUT
    1000
Channel
    1070
1
    1000
LeadIn
    1002
{
    1070
3
    1040
0.5
    1040
1.5707963267949
    1040
2
    1040
1
    1070
0
    1040
0.5
    1070
0
    1002
}
    1000
LeadOut
    1002
{
    1070
0
    1040
0
    1040
0
    1040
0
    1070
0
    1002
}
    1000
IsFill
    1070
0
    1000
PathStart
    1040
0.5
    1000
ToolCompensation
    1002
{
    1070
0
    1040
0
    1070
0
    1002
}
       0
CIRCLE
       5
205C
     100
AcDbEntity
       8
1
     100
AcDbCircle
      10
450
      20
30
      30
0
      40
4.5
    1001
FS_CYPCUT
    1000
Channel
    1070
1
    1000
LeadIn
    1002
{
    1070
3
    1040
0
    1040
1.5707963267949
    1040
2
    1040
1
    1070
0
    1040
0.5
    1070
0
    1002
}
    1000
LeadOut
    1002
{
    1070
0
    1040
0
    1040
0
    1040
0
    1070
0
    1002
}
    1000
IsFill
    1070
0
    1000
PathStart
    1040
0.999999999999999
    1000
ToolCompensation
    1002
{
    1070
0
    1040
0
    1070
0
    1002
}
       0
LWPOLYLINE
       5
205D
     100
AcDbEntity
       8
1
     100
AcDbPolyline
      90
28
      70
1
      10
601.5
      20
-18
      42
0
      10
596
      20
-18
      42
0
      10
596
      20
15
      42
0
      10
531.9807621135
      20
15
      42
-0.131652497587388
      10
521.9807621135
      20
17.6794919243112
      42
0
      10
470.6410161514
      20
47.3205080757
      42
0.131652497587395
      10
460.6410161514
      20
50
      42
0
      10
-460.6410161514
      20
50.0000000000001
      42
0.1316524975874
      10
-470.6410161514
      20
47.3205080756888
      42
0
      10
-521.9807621135
      20
17.6794919243
      42
-0.131652497587389
      10
-531.9807621135
      20
15
      42
0
      10
-596
      20
15
      42
0
      10
-596
      20
-18
      42
0
      10
-601.5
      20
-18
      42
0
      10
-601.5
      20
-38
      42
0
      10
-596
      20
-38
      42
0
      10
-596
      20
-50
      42
0
      10
-202.12
      20
-50
      42
0
      10
-202.12
      20
-39.5
      42
0
      10
-197.12
      20
-39.5
      42
0
      10
-197.12
      20
-50
      42
0
      10
197.12
      20
-50
      42
0
      10
197.12
      20
-39.5
      42
0
      10
202.12
      20
-39.5
      42
0
      10
202.12
      20
-50
      42
0
      10
596
      20
-50
      42
0
      10
596
      20
-38
      42
0
      10
601.5
      20
-38
      42
0
    1001
FS_CYPCUT
    1000
Channel
    1070
1
    1000
LeadIn
    1002
{
    1070
3
    1040
6.5
    1040
1.5707963267949
    1040
2
    1040
1
    1070
0
    1040
0.5
    1070
0
    1002
}
    1000
LeadOut
    1002
{
    1070
0
    1040
0
    1040
0
    1040
0
    1070
0
    1002
}
    1000
IsFill
    1070
1
    1000
PathStart
    1040
6.5
    1000
ToolCompensation
    1002
{
    1070
0
    1040
0
    1070
0
    1002
}
    1000
MicroConnect
    1002
{
    1070
6
    1040
6.06582242
    1041
0.8
    1042
0
    1040
6.48840728
    1041
0.8
    1042
0
    1040
6.95199509
    1041
0.8
    1042
0
    1040
16.4583753
    1041
0.8
    1042
0
    1040
20.5
    1041
0.8
    1042
0
    1040
24.5643363
    1041
0.8
    1042
0
    1002
}
       0
ENDBLK
       5
205E
     330
200A
     100
AcDbEntity
       8
0
     100
AcDbBlockEnd
       0
BLOCK
       5
205F
     330
200B
     100
AcDbEntity
       8
0
     100
AcDbBlockBegin
       2
CommonPart1621163152
      70
0
      10
636.9967
      20
699.01
      30
0
       3
CommonPart1621163152
       1

       4
CypCutBlock
       0
CIRCLE
       5
2060
     100
AcDbEntity
       8
1
     100
AcDbCircle
      10
656.9967
      20
850.51
      30
0
      40
4.5
    1001
FS_CYPCUT
    1000
Channel
    1070
1
    1000
LeadIn
    1002
{
    1070
3
    1040
9.99200722162641E-16
    1040
1.5707963267949
    1040
2
    1040
1
    1070
0
    1040
0.5
    1070
0
    1002
}
    1000
LeadOut
    1002
{
    1070
0
    1040
0
    1040
0
    1040
0
    1070
0
    1002
}
    1000
IsFill
    1070
0
    1000
PathStart
    1040
9.99200722162641E-16
    1000
ToolCompensation
    1002
{
    1070
0
    1040
0
    1070
0
    1002
}
       0
LWPOLYLINE
       5
2061
     100
AcDbEntity
       8
1
     100
AcDbPolyline
      90
4
      70
1
      10
692.4967
      20
1103.39
      42
0
      10
703.4967
      20
1103.39
      42
0
      10
703.4967
      20
1098.39
      42
0
      10
692.4967
      20
1098.39
      42
0
    1001
FS_CYPCUT
    1000
Channel
    1070
1
    1000
LeadIn
    1002
{
    1070
3
    1040
2.5
    1040
1.5707963267949
    1040
2
    1040
1
    1070
0
    1040
0.5
    1070
0
    1002
}
    1000
LeadOut
    1002
{
    1070
0
    1040
0
    1040
0
    1040
0
    1070
0
    1002
}
    1000
IsFill
    1070
0
    1000
PathStart
    1040
2.5
    1000
ToolCompensation
    1002
{
    1070
0
    1040
0
    1070
0
    1002
}
       0
CIRCLE
       5
2062
     100
AcDbEntity
       8
1
     100
AcDbCircle
      10
691.9967
      20
1170.51
      30
0
      40
2.5
    1001
FS_CYPCUT
    1000
Channel
    1070
1
    1000
LeadIn
    1002
{
    1070
3
    1040
6.38378239159465E-16
    1040
1.5707963267949
    1040
2
    1040
1
    1070
0
    1040
0.5
    1070
0
    1002
}
    1000
LeadOut
    1002
{
    1070
0
    1040
0
    1040
0
    1040
0
    1070
0
    1002
}
    1000
IsFill
    1070
0
    1000
PathStart
    1040
6.38378239159465E-16
    1000
ToolCompensation
    1002
{
    1070
0
    1040
0
    1070
0
    1002
}
       0
CIRCLE
       5
2063
     100
AcDbEntity
       8
1
     100
AcDbCircle
      10
656.9967
      20
1300.51
      30
0
      40
4.5
    1001
FS_CYPCUT
    1000
Channel
    1070
1
    1000
LeadIn
    1002
{
    1070
3
    1040
0
    1040
1.5707963267949
    1040
2
    1040
1
    1070
0
    1040
0.5
    1070
0
    1002
}
    1000
LeadOut
    1002
{
    1070
0
    1040
0
    1040
0
    1040
0
    1070
0
    1002
}
    1000
IsFill
    1070
0
    1000
PathStart
    1040
0
    1000
ToolCompensation
    1002
{
    1070
0
    1040
0
    1070
0
    1002
}
       0
CIRCLE
       5
2064
     100
AcDbEntity
       8
1
     100
AcDbCircle
      10
691.9967
      20
1430.51
      30
0
      40
2.5
    1001
FS_CYPCUT
    1000
Channel
    1070
1
    1000
LeadIn
    1002
{
    1070
3
    1040
6.38378239159465E-16
    1040
1.5707963267949
    1040
2
    1040
1
    1070
0
    1040
0.5
    1070
0
    1002
}
    1000
LeadOut
    1002
{
    1070
0
    1040
0
    1040
0
    1040
0
    1070
0
    1002
}
    1000
IsFill
    1070
0
    1000
PathStart
    1040
6.38378239159465E-16
    1000
ToolCompensation
    1002
{
    1070
0
    1040
0
    1070
0
    1002
}
       0
LWPOLYLINE
       5
2065
     100
AcDbEntity
       8
1
     100
AcDbPolyline
      90
4
      70
1
      10
692.4967
      20
1502.63
      42
0
      10
703.4967
      20
1502.63
      42
0
      10
703.4967
      20
1497.63
      42
0
      10
692.4967
      20
1497.63
      42
0
    1001
FS_CYPCUT
    1000
Channel
    1070
1
    1000
LeadIn
    1002
{
    1070
3
    1040
0.5
    1040
1.5707963267949
    1040
2
    1040
1
    1070
0
    1040
0.5
    1070
0
    1002
}
    1000
LeadOut
    1002
{
    1070
0
    1040
0
    1040
0
    1040
0
    1070
0
    1002
}
    1000
IsFill
    1070
0
    1000
PathStart
    1040
0.5
    1000
ToolCompensation
    1002
{
    1070
0
    1040
0
    1070
0
    1002
}
       0
CIRCLE
       5
2066
     100
AcDbEntity
       8
1
     100
AcDbCircle
      10
656.9967
      20
1750.51
      30
0
      40
4.5
    1001
FS_CYPCUT
    1000
Channel
    1070
1
    1000
LeadIn
    1002
{
    1070
3
    1040
9.99200722162641E-16
    1040
1.5707963267949
    1040
2
    1040
1
    1070
0
    1040
0.5
    1070
0
    1002
}
    1000
LeadOut
    1002
{
    1070
0
    1040
0
    1040
0
    1040
0
    1070
0
    1002
}
    1000
IsFill
    1070
0
    1000
PathStart
    1040
9.99200722162641E-16
    1000
ToolCompensation
    1002
{
    1070
0
    1040
0
    1070
0
    1002
}
       0
LWPOLYLINE
       5
2067
     100
AcDbEntity
       8
1
     100
AcDbPolyline
      90
4
      70
0
      10
736.9967
      20
1502.63
      42
0
      10
726.4967
      20
1502.63
      42
0
      10
726.4967
      20
1497.63
      42
0
      10
736.9967
      20
1497.63
      42
0
    1001
FS_CYPCUT
    1000
Channel
    1070
1
    1000
LeadIn
    1002
{
    1070
0
    1040
0.00952380952380952
    1040
1.5707963267949
    1040
2
    1040
1
    1070
0
    1040
0.5
    1070
0
    1002
}
    1000
LeadOut
    1002
{
    1070
0
    1040
-0.1
    1040
0
    1040
0
    1070
0
    1002
}
    1000
IsFill
    1070
1
    1000
PathStart
    1040
0
    1000
ToolCompensation
    1002
{
    1070
0
    1040
0
    1070
0
    1002
}
    1000
MicroConnect
    1002
{
    1070
1
    1040
0
    1041
0.1
    1042
0
    1002
}
       0
LWPOLYLINE
       5
2068
     100
AcDbEntity
       8
1
     100
AcDbPolyline
      90
4
      70
0
      10
736.9967
      20
1103.39
      42
0
      10
726.4967
      20
1103.39
      42
0
      10
726.4967
      20
1098.39
      42
0
      10
736.9967
      20
1098.39
      42
0
    1001
FS_CYPCUT
    1000
Channel
    1070
1
    1000
LeadIn
    1002
{
    1070
0
    1040
0.00952380952380952
    1040
1.5707963267949
    1040
2
    1040
1
    1070
0
    1040
0.5
    1070
0
    1002
}
    1000
LeadOut
    1002
{
    1070
0
    1040
-0.1
    1040
0
    1040
0
    1070
0
    1002
}
    1000
IsFill
    1070
1
    1000
PathStart
    1040
0
    1000
ToolCompensation
    1002
{
    1070
0
    1040
0
    1070
0
    1002
}
    1000
MicroConnect
    1002
{
    1070
1
    1040
0
    1041
0.1
    1042
0
    1002
}
       0
LWPOLYLINE
       5
2069
     100
AcDbEntity
       8
1
     100
AcDbPolyline
      90
20
      70
0
      10
736.9967
      20
704.51
      42
0
      10
724.9967
      20
704.51
      42
0
      10
724.9967
      20
699.01
      42
0
      10
704.9967
      20
699.01
      42
0
      10
704.9967
      20
704.51
      42
0
      10
671.9967
      20
704.51
      42
0
      10
671.9967
      20
768.5292378865
      42
0.131652497587389
      10
669.3172080757
      20
778.5292378865
      42
0
      10
639.676191924311
      20
829.8689838486
      42
-0.1316524975874
      10
636.9967
      20
839.8689838486
      42
0
      10
636.9967
      20
1761.1510161514
      42
-0.131652497587395
      10
639.6761919243
      20
1771.1510161514
      42
0
      10
669.317208075689
      20
1822.4907621135
      42
0.131652497587388
      10
671.9967
      20
1832.4907621135
      42
0
      10
671.9967
      20
1896.51
      42
0
      10
704.9967
      20
1896.51
      42
0
      10
704.9967
      20
1902.01
      42
0
      10
724.9967
      20
1902.01
      42
0
      10
724.9967
      20
1896.51
      42
0
      10
736.9967
      20
1896.51
      42
0
    1001
FS_CYPCUT
    1000
Channel
    1070
1
    1000
LeadIn
    1002
{
    1070
0
    1040
0.00833333333333333
    1040
1.5707963267949
    1040
2
    1040
1
    1070
0
    1040
0.5
    1070
0
    1002
}
    1000
LeadOut
    1002
{
    1070
0
    1040
0
    1040
0
    1040
0
    1070
0
    1002
}
    1000
IsFill
    1070
1
    1000
PathStart
    1040
0
    1000
ToolCompensation
    1002
{
    1070
0
    1040
0
    1070
0
    1002
}
    1000
MicroConnect
    1002
{
    1070
1
    1040
0
    1041
0.1
    1042
0
    1002
}
       0
LWPOLYLINE
       5
206A
     100
AcDbEntity
       8
1
     100
AcDbPolyline
      90
4
      70
1
      10
781.4968
      20
1497.63
      42
0
      10
770.4968
      20
1497.63
      42
0
      10
770.4968
      20
1502.63
      42
0
      10
781.4968
      20
1502.63
      42
0
    1001
FS_CYPCUT
    1000
Channel
    1070
1
    1000
LeadIn
    1002
{
    1070
3
    1040
0.5
    1040
1.5707963267949
    1040
2
    1040
1
    1070
0
    1040
0.5
    1070
0
    1002
}
    1000
LeadOut
    1002
{
    1070
0
    1040
0
    1040
0
    1040
0
    1070
0
    1002
}
    1000
IsFill
    1070
0
    1000
PathStart
    1040
0.5
    1000
ToolCompensation
    1002
{
    1070
0
    1040
0
    1070
0
    1002
}
       0
LWPOLYLINE
       5
206B
     100
AcDbEntity
       8
1
     100
AcDbPolyline
      90
4
      70
1
      10
781.4968
      20
1098.39
      42
0
      10
770.4968
      20
1098.39
      42
0
      10
770.4968
      20
1103.39
      42
0
      10
781.4968
      20
1103.39
      42
0
    1001
FS_CYPCUT
    1000
Channel
    1070
1
    1000
LeadIn
    1002
{
    1070
3
    1040
2.5
    1040
1.5707963267949
    1040
2
    1040
1
    1070
0
    1040
0.5
    1070
0
    1002
}
    1000
LeadOut
    1002
{
    1070
0
    1040
0
    1040
0
    1040
0
    1070
0
    1002
}
    1000
IsFill
    1070
0
    1000
PathStart
    1040
2.5
    1000
ToolCompensation
    1002
{
    1070
0
    1040
0
    1070
0
    1002
}
       0
LWPOLYLINE
       5
206C
     100
AcDbEntity
       8
1
     100
AcDbPolyline
      90
20
      70
1
      10
736.9968
      20
1896.51
      42
0
      10
748.9968
      20
1896.51
      42
0
      10
748.9968
      20
1902.01
      42
0
      10
768.9968
      20
1902.01
      42
0
      10
768.9968
      20
1896.51
      42
0
      10
791.9968
      20
1896.51
      42
0
      10
791.9968
      20
704.51
      42
0
      10
768.9968
      20
704.51
      42
0
      10
768.9968
      20
699.01
      42
0
      10
748.9968
      20
699.01
      42
0
      10
748.9968
      20
704.51
      42
0
      10
736.9968
      20
704.51
      42
0
      10
736.9968
      20
1098.39
      42
0
      10
747.4968
      20
1098.39
      42
0
      10
747.4968
      20
1103.39
      42
0
      10
736.9968
      20
1103.39
      42
0
      10
736.9968
      20
1497.63
      42
0
      10
747.4968
      20
1497.63
      42
0
      10
747.4968
      20
1502.63
      42
0
      10
736.9968
      20
1502.63
      42
0
    1001
FS_CYPCUT
    1000
Channel
    1070
1
    1000
LeadIn
    1002
{
    1070
0
    1040
11
    1040
1.5707963267949
    1040
2
    1040
1
    1070
0
    1040
0.5
    1070
0
    1002
}
    1000
LeadOut
    1002
{
    1070
0
    1040
0
    1040
0
    1040
0
    1070
0
    1002
}
    1000
IsFill
    1070
1
    1000
PathStart
    1040
11
    1000
ToolCompensation
    1002
{
    1070
0
    1040
0
    1070
0
    1002
}
       0
ENDBLK
       5
206D
     330
200B
     100
AcDbEntity
       8
0
     100
AcDbBlockEnd
       0
BLOCK
       5
206E
     330
200C
     100
AcDbEntity
       8
0
     100
AcDbBlockBegin
       2
Part1978686477
      70
0
      10
-101.323725
      20
0
      30
0
       3
Part1978686477
       1

       4
CypCutBlock
       0
LINE
       5
206F
     100
AcDbEntity
       8
2
     100
AcDbLine
      10
4.3381376828
      20
0
      30
0
      11
4.3381376828
      21
30
      31
0
    1001
FS_CYPCUT
    1000
Channel
    1070
2
    1000
LeadIn
    1002
{
    1070
0
    1040
0
    1040
0
    1040
0
    1040
0
    1070
0
    1040
0
    1070
0
    1002
}
    1000
LeadOut
    1002
{
    1070
0
    1040
0
    1040
0
    1040
0
    1070
0
    1002
}
    1000
IsFill
    1070
0
    1000
PathStart
    1040
0
    1000
ToolCompensation
    1002
{
    1070
0
    1040
0
    1070
0
    1002
}
       0
LWPOLYLINE
       5
2070
     100
AcDbEntity
       8
1
     100
AcDbPolyline
      90
8
      70
1
      10
300
      20
25
      42
0.414213562373084
      10
295
      20
30.0000000000001
      42
0
      10
-96.3237246344
      20
30
      42
0.414213562373098
      10
-101.3237246344
      20
25
      42
0
      10
-101.3237246344
      20
5
      42
0.414213562373095
      10
-96.3237246344
      20
0
      42
0
      10
295
      20
0
      42
0.414213562373095
      10
300
      20
5
      42
0
    1001
FS_CYPCUT
    1000
Channel
    1070
1
    1000
LeadIn
    1002
{
    1070
3
    1040
1.5
    1040
1.5707963267949
    1040
2
    1040
1
    1070
0
    1040
0.5
    1070
0
    1002
}
    1000
LeadOut
    1002
{
    1070
0
    1040
0
    1040
0
    1040
0
    1070
0
    1002
}
    1000
IsFill
    1070
1
    1000
PathStart
    1040
1.5
    1000
ToolCompensation
    1002
{
    1070
0
    1040
0
    1070
0
    1002
}
    1000
MicroConnect
    1002
{
    1070
2
    1040
1.25232283
    1041
0.8
    1042
0
    1040
5.20107928
    1041
0.8
    1042
0
    1002
}
       0
ENDBLK
       5
2071
     330
200C
     100
AcDbEntity
       8
0
     100
AcDbBlockEnd
       0
BLOCK
       5
2072
     330
200D
     100
AcDbEntity
       8
0
     100
AcDbBlockBegin
       2
Part1949624117
      70
0
      10
-101.323725
      20
0
      30
0
       3
Part1949624117
       1

       4
CypCutBlock
       0
LINE
       5
2073
     100
AcDbEntity
       8
2
     100
AcDbLine
      10
4.3381376828
      20
0
      30
0
      11
4.3381376828
      21
30
      31
0
    1001
FS_CYPCUT
    1000
Channel
    1070
2
    1000
LeadIn
    1002
{
    1070
0
    1040
0
    1040
0
    1040
0
    1040
0
    1070
0
    1040
0
    1070
0
    1002
}
    1000
LeadOut
    1002
{
    1070
0
    1040
0
    1040
0
    1040
0
    1070
0
    1002
}
    1000
IsFill
    1070
0
    1000
PathStart
    1040
0
    1000
ToolCompensation
    1002
{
    1070
0
    1040
0
    1070
0
    1002
}
       0
LWPOLYLINE
       5
2074
     100
AcDbEntity
       8
1
     100
AcDbPolyline
      90
8
      70
1
      10
300
      20
25
      42
0.414213562373084
      10
295
      20
30.0000000000001
      42
0
      10
-96.3237246344
      20
30
      42
0.414213562373098
      10
-101.3237246344
      20
25
      42
0
      10
-101.3237246344
      20
5
      42
0.414213562373095
      10
-96.3237246344
      20
0
      42
0
      10
295
      20
0
      42
0.414213562373095
      10
300
      20
5
      42
0
    1001
FS_CYPCUT
    1000
Channel
    1070
1
    1000
LeadIn
    1002
{
    1070
3
    1040
1.5
    1040
1.5707963267949
    1040
2
    1040
1
    1070
0
    1040
0.5
    1070
0
    1002
}
    1000
LeadOut
    1002
{
    1070
0
    1040
0
    1040
0
    1040
0
    1070
0
    1002
}
    1000
IsFill
    1070
1
    1000
PathStart
    1040
1.5
    1000
ToolCompensation
    1002
{
    1070
0
    1040
0
    1070
0
    1002
}
    1000
MicroConnect
    1002
{
    1070
2
    1040
1.25232283
    1041
0.8
    1042
0
    1040
5.20107928
    1041
0.8
    1042
0
    1002
}
       0
ENDBLK
       5
2075
     330
200D
     100
AcDbEntity
       8
0
     100
AcDbBlockEnd
       0
ENDSEC
       0
SECTION
       2
ENTITIES
       0
INSERT
       5
2076
     100
AcDbEntity
       8
1
     100
AcDbBlockReference
       2
CommonPart332502236
      10
3563.3722340866
      20
7416.1121922734
      30
0
      41
1
      42
1
      50
0
    1001
FS_CYPCUT
    1000
Channel
    1070
1
    1000
LeadIn
    1002
{
    1070
0
    1040
0
    1040
0
    1040
0
    1040
0
    1070
0
    1040
0
    1070
0
    1002
}
    1000
LeadOut
    1002
{
    1070
0
    1040
0
    1040
0
    1040
0
    1070
0
    1002
}
       0
INSERT
       5
2077
     100
AcDbEntity
       8
1
     100
AcDbBlockReference
       2
Part1015224108
      10
3440.0822110866
      20
7391.5934922734
      30
0
      41
1
      42
1
      50
0
    1001
FS_CYPCUT
    1000
Channel
    1070
1
    1000
LeadIn
    1002
{
    1070
0
    1040
0
    1040
0
    1040
0
    1040
0
    1070
0
    1040
0
    1070
0
    1002
}
    1000
LeadOut
    1002
{
    1070
0
    1040
0
    1040
0
    1040
0
    1070
0
    1002
}
       0
INSERT
       5
2078
     100
AcDbEntity
       8
1
     100
AcDbBlockReference
       2
Part1743431648
      10
3440.0821110866
      20
7739.6034922734
      30
0
      41
1
      42
1
      50
0
    1001
FS_CYPCUT
    1000
Channel
    1070
1
    1000
LeadIn
    1002
{
    1070
0
    1040
0
    1040
0
    1040
0
    1040
0
    1070
0
    1040
0
    1070
0
    1002
}
    1000
LeadOut
    1002
{
    1070
0
    1040
0
    1040
0
    1040
0
    1070
0
    1002
}
       0
LWPOLYLINE
       5
2079
     100
AcDbEntity
       8
1
     100
AcDbPolyline
      90
84
      70
1
      10
3882.0921110866
      20
7391.5934922734
      42
0
      10
3872.0921110866
      20
7391.5934922734
      42
0
      10
3872.0921110866
      20
7396.5934922734
      42
0
      10
3848.0921110866
      20
7396.5934922734
      42
0
      10
3848.0921110866
      20
7391.5934922734
      42
0
      10
3838.0921110866
      20
7391.5934922734
      42
0
      10
3838.0921110866
      20
7440.5934922734
      42
0.414213562373089
      10
3836.0921110866
      20
7442.5934922734
      42
0
      10
3813.0921110866
      20
7442.5934922734
      42
-0.414213562373143
      10
3808.0921110866
      20
7447.5934922734
      42
0
      10
3808.0921110866
      20
7706.0934922734
      42
-0.4142135623731
      10
3813.0921110866
      20
7711.0934922734
      42
0
      10
3826.0921110866
      20
7711.0934922734
      42
0.414213562373164
      10
3828.0921110866
      20
7713.0934922734
      42
0
      10
3828.0921110866
      20
7740.0934922734
      42
0.414213562373233
      10
3826.0921110866
      20
7742.0934922734
      42
0
      10
3813.0921110866
      20
7742.0934922734
      42
-0.414213562373143
      10
3808.0921110866
      20
7747.0934922734
      42
0
      10
3808.0921110866
      20
8091.0934922734
      42
-0.414213562373121
      10
3813.0921110866
      20
8096.0934922734
      42
0
      10
3826.0921110866
      20
8096.0934922734
      42
0.4142135623731
      10
3828.0921110866
      20
8098.0934922734
      42
0
      10
3828.0921110866
      20
8125.0934922734
      42
0.414213562373101
      10
3826.0921110866
      20
8127.0934922734
      42
0
      10
3813.0921110866
      20
8127.0934922734
      42
-0.414213562373072
      10
3808.0921110866
      20
8132.0934922734
      42
0
      10
3808.0921110866
      20
8476.0934922734
      42
-0.414213562373091
      10
3813.0921110866
      20
8481.0934922734
      42
0
      10
3826.0921110866
      20
8481.0934922734
      42
0.4142135623731
      10
3828.0921110866
      20
8483.0934922734
      42
0
      10
3828.0921110866
      20
8510.0934922734
      42
0.4142135623731
      10
3826.0921110866
      20
8512.0934922734
      42
0
      10
3813.0921110866
      20
8512.0934922734
      42
-0.414213562373089
      10
3808.0921110866
      20
8517.0934922734
      42
0
      10
3808.0921110866
      20
8775.5934922734
      42
-0.414213562373094
      10
3813.0921110866
      20
8780.5934922734
      42
0
      10
3836.0921110866
      20
8780.5934922734
      42
0.414213562373097
      10
3838.0921110866
      20
8782.5934922734
      42
0
      10
3838.0921110866
      20
8831.5934922734
      42
0
      10
3848.0921110866
      20
8831.5934922734
      42
0
      10
3848.0921110866
      20
8826.5934922734
      42
0
      10
3872.0921110866
      20
8826.5934922734
      42
0
      10
3872.0921110866
      20
8831.5934922734
      42
0
      10
3882.0921110866
      20
8831.5934922734
      42
0
      10
3882.0921110866
      20
8826.5934922734
      42
0
      10
3893.0921110866
      20
8826.5934922734
      42
0
      10
3893.0921110866
      20
8719.0934922734
      42
0
      10
3873.0921110866
      20
8719.0934922734
      42
0.420204102886657
      10
3873.0921110866
      20
8704.0934922734
      42
0
      10
3893.0921110866
      20
8704.0934922734
      42
0
      10
3893.0921110866
      20
8569.0934922734
      42
0
      10
3873.09211108655
      20
8569.0934922734
      42
0.420204102886659
      10
3873.0921110866
      20
8554.0934922734
      42
0
      10
3893.0921110866
      20
8554.0934922734
      42
0
      10
3893.0921110866
      20
8419.0934922734
      42
0
      10
3873.09211108655
      20
8419.0934922734
      42
0.420204102886659
      10
3873.0921110866
      20
8404.0934922734
      42
0
      10
3893.0921110866
      20
8404.0934922734
      42
0
      10
3893.0921110866
      20
8269.0934922734
      42
0
      10
3873.0921110866
      20
8269.0934922734
      42
0.420204102886652
      10
3873.0921110866
      20
8254.0934922734
      42
0
      10
3893.0921110866
      20
8254.0934922734
      42
0
      10
3893.0921110866
      20
8119.0934922734
      42
0
      10
3873.0921110866
      20
8119.0934922734
      42
0.420204102886652
      10
3873.0921110866
      20
8104.0934922734
      42
0
      10
3893.0921110866
      20
8104.0934922734
      42
0
      10
3893.0921110866
      20
7969.0934922734
      42
0
      10
3873.0921110866
      20
7969.0934922734
      42
0.420204102886652
      10
3873.0921110866
      20
7954.0934922734
      42
0
      10
3893.0921110866
      20
7954.0934922734
      42
0
      10
3893.0921110866
      20
7819.0934922734
      42
0
      10
3873.0921110866
      20
7819.0934922734
      42
0.420204102886652
      10
3873.0921110866
      20
7804.0934922734
      42
0
      10
3893.0921110866
      20
7804.0934922734
      42
0
      10
3893.0921110866
      20
7669.0934922734
      42
0
      10
3873.0921110866
      20
7669.0934922734
      42
0.420204102886652
      10
3873.0921110866
      20
7654.0934922734
      42
0
      10
3893.0921110866
      20
7654.0934922734
      42
0
      10
3893.0921110866
      20
7519.0934922734
      42
0
      10
3873.09211108655
      20
7519.0934922734
      42
0.420204102886652
      10
3873.0921110866
      20
7504.0934922734
      42
0
      10
3893.0921110866
      20
7504.0934922734
      42
0
      10
3893.0921110866
      20
7396.5934922734
      42
0
      10
3882.0921110866
      20
7396.5934922734
      42
0
    1001
FS_CYPCUT
    1000
Channel
    1070
1
    1000
LeadIn
    1002
{
    1070
3
    1040
17.5
    1040
1.5707963267949
    1040
2
    1040
1
    1070
0
    1040
0.5
    1070
0
    1002
}
    1000
LeadOut
    1002
{
    1070
0
    1040
0
    1040
0
    1040
0
    1070
0
    1002
}
    1000
IsFill
    1070
1
    1000
PathStart
    1040
17.5
    1000
ToolCompensation
    1002
{
    1070
0
    1040
0
    1070
0
    1002
}
    1000
MicroConnect
    1002
{
    1070
6
    1040
9.34658575
    1041
0.8
    1042
0
    1040
21.4578726
    1041
0.8
    1042
0
    1040
33.5258097
    1041
0.8
    1042
0
    1040
49.4373354
    1041
0.8
    1042
0
    1040
61.7101106
    1041
0.8
    1042
0
    1040
77.6132175
    1041
0.8
    1042
0
    1002
}
       0
LWPOLYLINE
       5
207A
     100
AcDbEntity
       8
1
     100
AcDbPolyline
      90
84
      70
1
      10
3970.1021110866
      20
7391.5934922734
      42
0
      10
3960.1021110866
      20
7391.5934922734
      42
0
      10
3960.1021110866
      20
7396.5934922734
      42
0
      10
3936.1021110866
      20
7396.5934922734
      42
0
      10
3936.1021110866
      20
7391.5934922734
      42
0
      10
3926.1021110866
      20
7391.5934922734
      42
0
      10
3926.1021110866
      20
7440.5934922734
      42
0.414213562373089
      10
3924.1021110866
      20
7442.5934922734
      42
0
      10
3901.1021110866
      20
7442.5934922734
      42
-0.414213562373143
      10
3896.1021110866
      20
7447.5934922734
      42
0
      10
3896.1021110866
      20
7706.0934922734
      42
-0.4142135623731
      10
3901.1021110866
      20
7711.0934922734
      42
0
      10
3914.1021110866
      20
7711.0934922734
      42
0.414213562373164
      10
3916.1021110866
      20
7713.0934922734
      42
0
      10
3916.1021110866
      20
7740.0934922734
      42
0.414213562373233
      10
3914.1021110866
      20
7742.0934922734
      42
0
      10
3901.1021110866
      20
7742.0934922734
      42
-0.414213562373143
      10
3896.1021110866
      20
7747.0934922734
      42
0
      10
3896.1021110866
      20
8091.0934922734
      42
-0.414213562373121
      10
3901.1021110866
      20
8096.0934922734
      42
0
      10
3914.1021110866
      20
8096.0934922734
      42
0.4142135623731
      10
3916.1021110866
      20
8098.0934922734
      42
0
      10
3916.1021110866
      20
8125.0934922734
      42
0.414213562373101
      10
3914.1021110866
      20
8127.0934922734
      42
0
      10
3901.1021110866
      20
8127.0934922734
      42
-0.414213562373072
      10
3896.1021110866
      20
8132.0934922734
      42
0
      10
3896.1021110866
      20
8476.0934922734
      42
-0.414213562373091
      10
3901.1021110866
      20
8481.0934922734
      42
0
      10
3914.1021110866
      20
8481.0934922734
      42
0.4142135623731
      10
3916.1021110866
      20
8483.0934922734
      42
0
      10
3916.1021110866
      20
8510.0934922734
      42
0.4142135623731
      10
3914.1021110866
      20
8512.0934922734
      42
0
      10
3901.1021110866
      20
8512.0934922734
      42
-0.414213562373089
      10
3896.1021110866
      20
8517.0934922734
      42
0
      10
3896.1021110866
      20
8775.5934922734
      42
-0.414213562373094
      10
3901.1021110866
      20
8780.5934922734
      42
0
      10
3924.1021110866
      20
8780.5934922734
      42
0.414213562373097
      10
3926.1021110866
      20
8782.5934922734
      42
0
      10
3926.1021110866
      20
8831.5934922734
      42
0
      10
3936.1021110866
      20
8831.5934922734
      42
0
      10
3936.1021110866
      20
8826.5934922734
      42
0
      10
3960.1021110866
      20
8826.5934922734
      42
0
      10
3960.1021110866
      20
8831.5934922734
      42
0
      10
3970.1021110866
      20
8831.5934922734
      42
0
      10
3970.1021110866
      20
8826.5934922734
      42
0
      10
3981.1021110866
      20
8826.5934922734
      42
0
      10
3981.1021110866
      20
8719.0934922734
      42
0
      10
3961.1021110866
      20
8719.0934922734
      42
0.420204102886657
      10
3961.1021110866
      20
8704.0934922734
      42
0
      10
3981.1021110866
      20
8704.0934922734
      42
0
      10
3981.1021110866
      20
8569.0934922734
      42
0
      10
3961.10211108655
      20
8569.0934922734
      42
0.420204102886659
      10
3961.1021110866
      20
8554.0934922734
      42
0
      10
3981.1021110866
      20
8554.0934922734
      42
0
      10
3981.1021110866
      20
8419.0934922734
      42
0
      10
3961.10211108655
      20
8419.0934922734
      42
0.420204102886659
      10
3961.1021110866
      20
8404.0934922734
      42
0
      10
3981.1021110866
      20
8404.0934922734
      42
0
      10
3981.1021110866
      20
8269.0934922734
      42
0
      10
3961.1021110866
      20
8269.0934922734
      42
0.420204102886652
      10
3961.1021110866
      20
8254.0934922734
      42
0
      10
3981.1021110866
      20
8254.0934922734
      42
0
      10
3981.1021110866
      20
8119.0934922734
      42
0
      10
3961.1021110866
      20
8119.0934922734
      42
0.420204102886652
      10
3961.1021110866
      20
8104.0934922734
      42
0
      10
3981.1021110866
      20
8104.0934922734
      42
0
      10
3981.1021110866
      20
7969.0934922734
      42
0
      10
3961.1021110866
      20
7969.0934922734
      42
0.420204102886652
      10
3961.1021110866
      20
7954.0934922734
      42
0
      10
3981.1021110866
      20
7954.0934922734
      42
0
      10
3981.1021110866
      20
7819.0934922734
      42
0
      10
3961.1021110866
      20
7819.0934922734
      42
0.420204102886652
      10
3961.1021110866
      20
7804.0934922734
      42
0
      10
3981.1021110866
      20
7804.0934922734
      42
0
      10
3981.1021110866
      20
7669.0934922734
      42
0
      10
3961.1021110866
      20
7669.0934922734
      42
0.420204102886652
      10
3961.1021110866
      20
7654.0934922734
      42
0
      10
3981.1021110866
      20
7654.0934922734
      42
0
      10
3981.1021110866
      20
7519.0934922734
      42
0
      10
3961.10211108655
      20
7519.0934922734
      42
0.420204102886652
      10
3961.1021110866
      20
7504.0934922734
      42
0
      10
3981.1021110866
      20
7504.0934922734
      42
0
      10
3981.1021110866
      20
7396.5934922734
      42
0
      10
3970.1021110866
      20
7396.5934922734
      42
0
    1001
FS_CYPCUT
    1000
Channel
    1070
1
    1000
LeadIn
    1002
{
    1070
3
    1040
17.5
    1040
1.5707963267949
    1040
2
    1040
1
    1070
0
    1040
0.5
    1070
0
    1002
}
    1000
LeadOut
    1002
{
    1070
0
    1040
0
    1040
0
    1040
0
    1070
0
    1002
}
    1000
IsFill
    1070
1
    1000
PathStart
    1040
17.5
    1000
ToolCompensation
    1002
{
    1070
0
    1040
0
    1070
0
    1002
}
    1000
MicroConnect
    1002
{
    1070
6
    1040
9.34658575
    1041
0.8
    1042
0
    1040
21.4578726
    1041
0.8
    1042
0
    1040
33.5258097
    1041
0.8
    1042
0
    1040
49.4373354
    1041
0.8
    1042
0
    1040
61.7101106
    1041
0.8
    1042
0
    1040
77.6132175
    1041
0.8
    1042
0
    1002
}
       0
LWPOLYLINE
       5
207B
     100
AcDbEntity
       8
1
     100
AcDbPolyline
      90
84
      70
1
      10
4058.1121110866
      20
7391.5934922734
      42
0
      10
4048.1121110866
      20
7391.5934922734
      42
0
      10
4048.1121110866
      20
7396.5934922734
      42
0
      10
4024.1121110866
      20
7396.5934922734
      42
0
      10
4024.1121110866
      20
7391.5934922734
      42
0
      10
4014.1121110866
      20
7391.5934922734
      42
0
      10
4014.1121110866
      20
7440.5934922734
      42
0.414213562373089
      10
4012.1121110866
      20
7442.5934922734
      42
0
      10
3989.1121110866
      20
7442.5934922734
      42
-0.414213562373143
      10
3984.1121110866
      20
7447.5934922734
      42
0
      10
3984.1121110866
      20
7706.0934922734
      42
-0.4142135623731
      10
3989.1121110866
      20
7711.0934922734
      42
0
      10
4002.1121110866
      20
7711.0934922734
      42
0.414213562373164
      10
4004.1121110866
      20
7713.0934922734
      42
0
      10
4004.1121110866
      20
7740.0934922734
      42
0.414213562373233
      10
4002.1121110866
      20
7742.0934922734
      42
0
      10
3989.1121110866
      20
7742.0934922734
      42
-0.414213562373143
      10
3984.1121110866
      20
7747.0934922734
      42
0
      10
3984.1121110866
      20
8091.0934922734
      42
-0.414213562373121
      10
3989.1121110866
      20
8096.0934922734
      42
0
      10
4002.1121110866
      20
8096.0934922734
      42
0.4142135623731
      10
4004.1121110866
      20
8098.0934922734
      42
0
      10
4004.1121110866
      20
8125.0934922734
      42
0.414213562373101
      10
4002.1121110866
      20
8127.0934922734
      42
0
      10
3989.1121110866
      20
8127.0934922734
      42
-0.414213562373072
      10
3984.1121110866
      20
8132.0934922734
      42
0
      10
3984.1121110866
      20
8476.0934922734
      42
-0.414213562373091
      10
3989.1121110866
      20
8481.0934922734
      42
0
      10
4002.1121110866
      20
8481.0934922734
      42
0.4142135623731
      10
4004.1121110866
      20
8483.0934922734
      42
0
      10
4004.1121110866
      20
8510.0934922734
      42
0.4142135623731
      10
4002.1121110866
      20
8512.0934922734
      42
0
      10
3989.1121110866
      20
8512.0934922734
      42
-0.414213562373089
      10
3984.1121110866
      20
8517.0934922734
      42
0
      10
3984.1121110866
      20
8775.5934922734
      42
-0.414213562373094
      10
3989.1121110866
      20
8780.5934922734
      42
0
      10
4012.1121110866
      20
8780.5934922734
      42
0.414213562373097
      10
4014.1121110866
      20
8782.5934922734
      42
0
      10
4014.1121110866
      20
8831.5934922734
      42
0
      10
4024.1121110866
      20
8831.5934922734
      42
0
      10
4024.1121110866
      20
8826.5934922734
      42
0
      10
4048.1121110866
      20
8826.5934922734
      42
0
      10
4048.1121110866
      20
8831.5934922734
      42
0
      10
4058.1121110866
      20
8831.5934922734
      42
0
      10
4058.1121110866
      20
8826.5934922734
      42
0
      10
4069.1121110866
      20
8826.5934922734
      42
0
      10
4069.1121110866
      20
8719.0934922734
      42
0
      10
4049.1121110866
      20
8719.0934922734
      42
0.420204102886657
      10
4049.1121110866
      20
8704.0934922734
      42
0
      10
4069.1121110866
      20
8704.0934922734
      42
0
      10
4069.1121110866
      20
8569.0934922734
      42
0
      10
4049.11211108655
      20
8569.0934922734
      42
0.420204102886659
      10
4049.1121110866
      20
8554.0934922734
      42
0
      10
4069.1121110866
      20
8554.0934922734
      42
0
      10
4069.1121110866
      20
8419.0934922734
      42
0
      10
4049.11211108655
      20
8419.0934922734
      42
0.420204102886659
      10
4049.1121110866
      20
8404.0934922734
      42
0
      10
4069.1121110866
      20
8404.0934922734
      42
0
      10
4069.1121110866
      20
8269.0934922734
      42
0
      10
4049.1121110866
      20
8269.0934922734
      42
0.420204102886652
      10
4049.1121110866
      20
8254.0934922734
      42
0
      10
4069.1121110866
      20
8254.0934922734
      42
0
      10
4069.1121110866
      20
8119.0934922734
      42
0
      10
4049.1121110866
      20
8119.0934922734
      42
0.420204102886652
      10
4049.1121110866
      20
8104.0934922734
      42
0
      10
4069.1121110866
      20
8104.0934922734
      42
0
      10
4069.1121110866
      20
7969.0934922734
      42
0
      10
4049.1121110866
      20
7969.0934922734
      42
0.420204102886652
      10
4049.1121110866
      20
7954.0934922734
      42
0
      10
4069.1121110866
      20
7954.0934922734
      42
0
      10
4069.1121110866
      20
7819.0934922734
      42
0
      10
4049.1121110866
      20
7819.0934922734
      42
0.420204102886652
      10
4049.1121110866
      20
7804.0934922734
      42
0
      10
4069.1121110866
      20
7804.0934922734
      42
0
      10
4069.1121110866
      20
7669.0934922734
      42
0
      10
4049.1121110866
      20
7669.0934922734
      42
0.420204102886652
      10
4049.1121110866
      20
7654.0934922734
      42
0
      10
4069.1121110866
      20
7654.0934922734
      42
0
      10
4069.1121110866
      20
7519.0934922734
      42
0
      10
4049.11211108655
      20
7519.0934922734
      42
0.420204102886652
      10
4049.1121110866
      20
7504.0934922734
      42
0
      10
4069.1121110866
      20
7504.0934922734
      42
0
      10
4069.1121110866
      20
7396.5934922734
      42
0
      10
4058.1121110866
      20
7396.5934922734
      42
0
    1001
FS_CYPCUT
    1000
Channel
    1070
1
    1000
LeadIn
    1002
{
    1070
3
    1040
17.5
    1040
1.5707963267949
    1040
2
    1040
1
    1070
0
    1040
0.5
    1070
0
    1002
}
    1000
LeadOut
    1002
{
    1070
0
    1040
0
    1040
0
    1040
0
    1070
0
    1002
}
    1000
IsFill
    1070
1
    1000
PathStart
    1040
17.5
    1000
ToolCompensation
    1002
{
    1070
0
    1040
0
    1070
0
    1002
}
    1000
MicroConnect
    1002
{
    1070
6
    1040
9.34658575
    1041
0.8
    1042
0
    1040
21.4578726
    1041
0.8
    1042
0
    1040
33.5258097
    1041
0.8
    1042
0
    1040
49.4373354
    1041
0.8
    1042
0
    1040
61.7101106
    1041
0.8
    1042
0
    1040
77.6132175
    1041
0.8
    1042
0
    1002
}
       0
LWPOLYLINE
       5
207C
     100
AcDbEntity
       8
1
     100
AcDbPolyline
      90
84
      70
1
      10
4146.1221110866
      20
7391.5934922734
      42
0
      10
4136.1221110866
      20
7391.5934922734
      42
0
      10
4136.1221110866
      20
7396.5934922734
      42
0
      10
4112.1221110866
      20
7396.5934922734
      42
0
      10
4112.1221110866
      20
7391.5934922734
      42
0
      10
4102.1221110866
      20
7391.5934922734
      42
0
      10
4102.1221110866
      20
7440.5934922734
      42
0.414213562373089
      10
4100.1221110866
      20
7442.5934922734
      42
0
      10
4077.1221110866
      20
7442.5934922734
      42
-0.414213562373143
      10
4072.1221110866
      20
7447.5934922734
      42
0
      10
4072.1221110866
      20
7706.0934922734
      42
-0.4142135623731
      10
4077.1221110866
      20
7711.0934922734
      42
0
      10
4090.1221110866
      20
7711.0934922734
      42
0.414213562373164
      10
4092.12211108659
      20
7713.0934922734
      42
0
      10
4092.12211108659
      20
7740.0934922734
      42
0.414213562373233
      10
4090.1221110866
      20
7742.0934922734
      42
0
      10
4077.1221110866
      20
7742.0934922734
      42
-0.414213562373143
      10
4072.1221110866
      20
7747.0934922734
      42
0
      10
4072.1221110866
      20
8091.0934922734
      42
-0.414213562373121
      10
4077.1221110866
      20
8096.0934922734
      42
0
      10
4090.1221110866
      20
8096.0934922734
      42
0.4142135623731
      10
4092.12211108659
      20
8098.0934922734
      42
0
      10
4092.12211108659
      20
8125.0934922734
      42
0.414213562373101
      10
4090.1221110866
      20
8127.0934922734
      42
0
      10
4077.1221110866
      20
8127.0934922734
      42
-0.414213562373072
      10
4072.1221110866
      20
8132.0934922734
      42
0
      10
4072.1221110866
      20
8476.0934922734
      42
-0.414213562373091
      10
4077.1221110866
      20
8481.0934922734
      42
0
      10
4090.1221110866
      20
8481.0934922734
      42
0.4142135623731
      10
4092.12211108659
      20
8483.0934922734
      42
0
      10
4092.12211108659
      20
8510.0934922734
      42
0.4142135623731
      10
4090.1221110866
      20
8512.0934922734
      42
0
      10
4077.1221110866
      20
8512.0934922734
      42
-0.414213562373089
      10
4072.1221110866
      20
8517.0934922734
      42
0
      10
4072.1221110866
      20
8775.5934922734
      42
-0.414213562373094
      10
4077.1221110866
      20
8780.5934922734
      42
0
      10
4100.1221110866
      20
8780.5934922734
      42
0.414213562373097
      10
4102.1221110866
      20
8782.5934922734
      42
0
      10
4102.1221110866
      20
8831.5934922734
      42
0
      10
4112.1221110866
      20
8831.5934922734
      42
0
      10
4112.1221110866
      20
8826.5934922734
      42
0
      10
4136.1221110866
      20
8826.5934922734
      42
0
      10
4136.1221110866
      20
8831.5934922734
      42
0
      10
4146.1221110866
      20
8831.5934922734
      42
0
      10
4146.1221110866
      20
8826.5934922734
      42
0
      10
4157.1221110866
      20
8826.5934922734
      42
0
      10
4157.1221110866
      20
8719.0934922734
      42
0
      10
4137.1221110866
      20
8719.0934922734
      42
0.420204102886657
      10
4137.1221110866
      20
8704.0934922734
      42
0
      10
4157.1221110866
      20
8704.0934922734
      42
0
      10
4157.1221110866
      20
8569.0934922734
      42
0
      10
4137.12211108654
      20
8569.0934922734
      42
0.420204102886659
      10
4137.1221110866
      20
8554.0934922734
      42
0
      10
4157.1221110866
      20
8554.0934922734
      42
0
      10
4157.1221110866
      20
8419.0934922734
      42
0
      10
4137.12211108654
      20
8419.0934922734
      42
0.420204102886659
      10
4137.1221110866
      20
8404.0934922734
      42
0
      10
4157.1221110866
      20
8404.0934922734
      42
0
      10
4157.1221110866
      20
8269.0934922734
      42
0
      10
4137.1221110866
      20
8269.0934922734
      42
0.420204102886652
      10
4137.1221110866
      20
8254.0934922734
      42
0
      10
4157.1221110866
      20
8254.0934922734
      42
0
      10
4157.1221110866
      20
8119.0934922734
      42
0
      10
4137.1221110866
      20
8119.0934922734
      42
0.420204102886652
      10
4137.1221110866
      20
8104.0934922734
      42
0
      10
4157.1221110866
      20
8104.0934922734
      42
0
      10
4157.1221110866
      20
7969.0934922734
      42
0
      10
4137.1221110866
      20
7969.0934922734
      42
0.420204102886652
      10
4137.1221110866
      20
7954.0934922734
      42
0
      10
4157.1221110866
      20
7954.0934922734
      42
0
      10
4157.1221110866
      20
7819.0934922734
      42
0
      10
4137.1221110866
      20
7819.0934922734
      42
0.420204102886652
      10
4137.1221110866
      20
7804.0934922734
      42
0
      10
4157.1221110866
      20
7804.0934922734
      42
0
      10
4157.1221110866
      20
7669.0934922734
      42
0
      10
4137.1221110866
      20
7669.0934922734
      42
0.420204102886652
      10
4137.1221110866
      20
7654.0934922734
      42
0
      10
4157.1221110866
      20
7654.0934922734
      42
0
      10
4157.1221110866
      20
7519.0934922734
      42
0
      10
4137.12211108654
      20
7519.0934922734
      42
0.420204102886652
      10
4137.1221110866
      20
7504.0934922734
      42
0
      10
4157.1221110866
      20
7504.0934922734
      42
0
      10
4157.1221110866
      20
7396.5934922734
      42
0
      10
4146.1221110866
      20
7396.5934922734
      42
0
    1001
FS_CYPCUT
    1000
Channel
    1070
1
    1000
LeadIn
    1002
{
    1070
3
    1040
17.5
    1040
1.5707963267949
    1040
2
    1040
1
    1070
0
    1040
0.5
    1070
0
    1002
}
    1000
LeadOut
    1002
{
    1070
0
    1040
0
    1040
0
    1040
0
    1070
0
    1002
}
    1000
IsFill
    1070
1
    1000
PathStart
    1040
17.5
    1000
ToolCompensation
    1002
{
    1070
0
    1040
0
    1070
0
    1002
}
    1000
MicroConnect
    1002
{
    1070
6
    1040
9.34658575
    1041
0.8
    1042
0
    1040
21.4578726
    1041
0.8
    1042
0
    1040
33.5258097
    1041
0.8
    1042
0
    1040
49.4373354
    1041
0.8
    1042
0
    1040
61.7101106
    1041
0.8
    1042
0
    1040
77.6132175
    1041
0.8
    1042
0
    1002
}
       0
INSERT
       5
207D
     100
AcDbEntity
       8
1
     100
AcDbBlockReference
       2
Part1533690529
      10
3437.0821110866
      20
7391.59349236955
      30
0
      41
1
      42
1
      50
90.0000001836389
    1001
FS_CYPCUT
    1000
Channel
    1070
1
    1000
LeadIn
    1002
{
    1070
0
    1040
0
    1040
0
    1040
0
    1040
0
    1070
0
    1040
0
    1070
0
    1002
}
    1000
LeadOut
    1002
{
    1070
0
    1040
0
    1040
0
    1040
0
    1070
0
    1002
}
       0
INSERT
       5
207E
     100
AcDbEntity
       8
1
     100
AcDbBlockReference
       2
Part1372564409
      10
3319.0832110866
      20
7391.59349236955
      30
0
      41
1
      42
1
      50
90.0000001836389
    1001
FS_CYPCUT
    1000
Channel
    1070
1
    1000
LeadIn
    1002
{
    1070
0
    1040
0
    1040
0
    1040
0
    1040
0
    1070
0
    1040
0
    1070
0
    1002
}
    1000
LeadOut
    1002
{
    1070
0
    1040
0
    1040
0
    1040
0
    1070
0
    1002
}
       0
INSERT
       5
207F
     100
AcDbEntity
       8
1
     100
AcDbBlockReference
       2
Part129810315
      10
3201.0843110866
      20
7391.59349236955
      30
0
      41
1
      42
1
      50
90.0000001836389
    1001
FS_CYPCUT
    1000
Channel
    1070
1
    1000
LeadIn
    1002
{
    1070
0
    1040
0
    1040
0
    1040
0
    1040
0
    1070
0
    1040
0
    1070
0
    1002
}
    1000
LeadOut
    1002
{
    1070
0
    1040
0
    1040
0
    1040
0
    1070
0
    1002
}
       0
INSERT
       5
2080
     100
AcDbEntity
       8
1
     100
AcDbBlockReference
       2
Part2126355022
      10
3083.0854110866
      20
7391.59349236955
      30
0
      41
1
      42
1
      50
90.0000001836389
    1001
FS_CYPCUT
    1000
Channel
    1070
1
    1000
LeadIn
    1002
{
    1070
0
    1040
0
    1040
0
    1040
0
    1040
0
    1070
0
    1040
0
    1070
0
    1002
}
    1000
LeadOut
    1002
{
    1070
0
    1040
0
    1040
0
    1040
0
    1070
0
    1002
}
       0
INSERT
       5
2081
     100
AcDbEntity
       8
2
     100
AcDbBlockReference
       2
Part435900714
      10
3790.18231141135
      20
8087.6033672734
      30
0
      41
1
      42
1
      50
90.0000001836389
    1001
FS_CYPCUT
    1000
Channel
    1070
2
    1000
LeadIn
    1002
{
    1070
0
    1040
0
    1040
0
    1040
0
    1040
0
    1070
0
    1040
0
    1070
0
    1002
}
    1000
LeadOut
    1002
{
    1070
0
    1040
0
    1040
0
    1040
0
    1070
0
    1002
}
       0
INSERT
       5
2082
     100
AcDbEntity
       8
2
     100
AcDbBlockReference
       2
Part2031796694
      10
3790.18231141135
      20
8491.9270672734
      30
0
      41
1
      42
1
      50
90.0000001836389
    1001
FS_CYPCUT
    1000
Channel
    1070
2
    1000
LeadIn
    1002
{
    1070
0
    1040
0
    1040
0
    1040
0
    1040
0
    1070
0
    1040
0
    1070
0
    1002
}
    1000
LeadOut
    1002
{
    1070
0
    1040
0
    1040
0
    1040
0
    1070
0
    1002
}
       0
INSERT
       5
2083
     100
AcDbEntity
       8
1
     100
AcDbBlockReference
       2
Part1310810887
      10
3440.08221131799
      20
9290.60179228397
      30
0
      41
1
      42
1
      50
269.999999977959
    1001
FS_CYPCUT
    1000
Channel
    1070
1
    1000
LeadIn
    1002
{
    1070
0
    1040
0
    1040
0
    1040
0
    1040
0
    1070
0
    1040
0
    1070
0
    1002
}
    1000
LeadOut
    1002
{
    1070
0
    1040
0
    1040
0
    1040
0
    1070
0
    1002
}
       0
INSERT
       5
2084
     100
AcDbEntity
       8
1
     100
AcDbBlockReference
       2
Part1362201959
      10
3599.07211301447
      20
8087.60349243365
      30
0
      41
1
      42
1
      50
90.0000001836389
    1001
FS_CYPCUT
    1000
Channel
    1070
1
    1000
LeadIn
    1002
{
    1070
0
    1040
0
    1040
0
    1040
0
    1040
0
    1070
0
    1040
0
    1070
0
    1002
}
    1000
LeadOut
    1002
{
    1070
0
    1040
0
    1040
0
    1040
0
    1070
0
    1002
}
       0
INSERT
       5
2085
     100
AcDbEntity
       8
1
     100
AcDbBlockReference
       2
CommonPart1621163152
      10
3602.0821110866
      20
8087.60349227338
      30
0
      41
1
      42
1
      50
0
    1001
FS_CYPCUT
    1000
Channel
    1070
1
    1000
LeadIn
    1002
{
    1070
0
    1040
0
    1040
0
    1040
0
    1040
0
    1070
0
    1040
0
    1070
0
    1002
}
    1000
LeadOut
    1002
{
    1070
0
    1040
0
    1040
0
    1040
0
    1070
0
    1002
}
       0
INSERT
       5
2086
     100
AcDbEntity
       8
2
     100
AcDbBlockReference
       2
Part1978686477
      10
3370.9519360866
      20
8897.6934922734
      30
0
      41
1
      42
1
      50
180
    1001
FS_CYPCUT
    1000
Channel
    1070
2
    1000
LeadIn
    1002
{
    1070
0
    1040
0
    1040
0
    1040
0
    1040
0
    1070
0
    1040
0
    1070
0
    1002
}
    1000
LeadOut
    1002
{
    1070
0
    1040
0
    1040
0
    1040
0
    1070
0
    1002
}
       0
INSERT
       5
2087
     100
AcDbEntity
       8
2
     100
AcDbBlockReference
       2
Part1949624117
      10
3369.4092360866
      20
8864.5934922734
      30
0
      41
1
      42
1
      50
180
    1001
FS_CYPCUT
    1000
Channel
    1070
2
    1000
LeadIn
    1002
{
    1070
0
    1040
0
    1040
0
    1040
0
    1040
0
    1070
0
    1040
0
    1070
0
    1002
}
    1000
LeadOut
    1002
{
    1070
0
    1040
0
    1040
0
    1040
0
    1070
0
    1002
}
       0
ENDSEC
  0
SECTION
  2
OBJECTS
  0
DICTIONARY
  5
111
330
0
100
AcDbDictionary
281
     1
  3
ACAD_COLOR
350
120
  3
ACAD_GROUP
350
112
  3
ACAD_LAYOUT
350
11E
  3
ACAD_MATERIAL
350
11F
  3
ACAD_MLINESTYLE
350
11B
  3
ACAD_PLOTSETTINGS
350
11D
  3
ACAD_PLOTSTYLENAME
350
113
  3
ACAD_TABLESTYLE
350
121
  3
AcDbVariableDictionary
350
135
  0
DICTIONARY
  5
120
102
{ACAD_REACTORS
330
111
102
}
330
111
100
AcDbDictionary
281
     1
  0
DICTIONARY
  5
112
102
{ACAD_REACTORS
330
111
102
}
330
111
100
AcDbDictionary
281
     1
  0
DICTIONARY
  5
11E
102
{ACAD_REACTORS
330
111
102
}
330
111
100
AcDbDictionary
281
     1
  3
Model
350
12A
  3
布局1
350
126
  0
DICTIONARY
  5
11F
102
{ACAD_REACTORS
330
111
102
}
330
111
100
AcDbDictionary
281
     1
  0
DICTIONARY
  5
11B
102
{ACAD_REACTORS
330
111
102
}
330
111
100
AcDbDictionary
281
     1
  3
Standard
350
11C
  0
DICTIONARY
  5
11D
102
{ACAD_REACTORS
330
111
102
}
330
111
100
AcDbDictionary
281
     1
  0
ACDBDICTIONARYWDFLT
  5
113
102
{ACAD_REACTORS
330
111
102
}
330
111
100
AcDbDictionary
281
     1
  3
Normal
350
114
100
AcDbDictionaryWithDefault
340
114
  0
DICTIONARY
  5
121
102
{ACAD_REACTORS
330
111
102
}
330
111
100
AcDbDictionary
281
     1
  3
Standard
350
122
  0
DICTIONARY
  5
135
102
{ACAD_REACTORS
330
111
102
}
330
111
100
AcDbDictionary
281
     1
  3
CTABLESTYLE
350
136
  0
LAYOUT
  5
12A
102
{ACAD_REACTORS
330
11E
102
}
330
11E
100
AcDbPlotSettings
  1

  2
发送至 OneNote 2010
  4

  6

 40
0.0
 41
0.0
 42
0.0
 43
0.0
 44
0.0
 45
0.0
 46
0.0
 47
0.0
 48
0.0
 49
0.0
140
0.0
141
0.0
142
1.0
143
1.0
 70
  1712
 72
     0
 73
     0
 74
     0
  7

 75
     0
147
1.0
 76
     0
 77
     2
 78
   300
148
0.0
149
0.0
100
AcDbLayout
  1
Model
 70
     1
 71
     0
 10
0.0
 20
0.0
 11
12.0
 21
9.0
 12
0.0
 22
0.0
 32
0.0
 14
0.0
 24
0.0
 34
0.0
 15
0.0
 25
0.0
 35
0.0
146
0.0
 13
0.0
 23
0.0
 33
0.0
 16
1.0
 26
0.0
 36
0.0
 17
0.0
 27
1.0
 37
0.0
 76
     0
330
127
  0
LAYOUT
  5
126
102
{ACAD_REACTORS
330
11E
102
}
330
11E
100
AcDbPlotSettings
  1

  2
发送至 OneNote 2010
  4

  6

 40
0.0
 41
0.0
 42
0.0
 43
0.0
 44
0.0
 45
0.0
 46
0.0
 47
0.0
 48
0.0
 49
0.0
140
0.0
141
0.0
142
1.0
143
1.0
 70
   688
 72
     0
 73
     0
 74
     5
  7

 75
    16
147
1.0
 76
     0
 77
     2
 78
   300
148
0.0
149
0.0
100
AcDbLayout
  1
布局1
 70
     1
 71
     1
 10
0.0
 20
0.0
 11
12.0
 21
9.0
 12
0.0
 22
0.0
 32
0.0
 14
0.0
 24
0.0
 34
0.0
 15
0.0
 25
0.0
 35
0.0
146
0.0
 13
0.0
 23
0.0
 33
0.0
 16
1.0
 26
0.0
 36
0.0
 17
0.0
 27
1.0
 37
0.0
 76
     0
330
123
  0
MLINESTYLE
  5
11C
102
{ACAD_REACTORS
330
11B
102
}
330
11B
100
AcDbMlineStyle
  2
STANDARD
 70
     0
  3

 62
   256
 51
90.0
 52
90.0
 71
     2
 49
0.5
 62
   256
  6
BYLAYER
 49
-0.5
 62
   256
  6
BYLAYER
  0
ACDBPLACEHOLDER
  5
114
102
{ACAD_REACTORS
330
113
102
}
330
113
  0
TABLESTYLE
  5
122
102
{ACAD_REACTORS
330
121
102
}
330
121
100
AcDbTableStyle
  3
Standard
 70
     0
 71
     0
 40
0.06
 41
0.06
280
     0
281
     0
  7
STANDARD
140
0.18
170
     2
 62
     0
 63
     7
283
     0
274
    -2
284
     1
 64
     0
275
    -2
285
     1
 65
     0
276
    -2
286
     1
 66
     0
277
    -2
287
     1
 67
     0
278
    -2
288
     1
 68
     0
279
    -2
289
     1
 69
     0
  7
STANDARD
140
0.25
170
     5
 62
     0
 63
     7
283
     0
274
    -2
284
     1
 64
     0
275
    -2
285
     1
 65
     0
276
    -2
286
     1
 66
     0
277
    -2
287
     1
 67
     0
278
    -2
288
     1
 68
     0
279
    -2
289
     1
 69
     0
  7
STANDARD
140
0.18
170
     5
 62
     0
 63
     7
283
     0
274
    -2
284
     1
 64
     0
275
    -2
285
     1
 65
     0
276
    -2
286
     1
 66
     0
277
    -2
287
     1
 67
     0
278
    -2
288
     1
 68
     0
279
    -2
289
     1
 69
     0
  0
DICTIONARYVAR
  5
136
102
{ACAD_REACTORS
330
135
102
}
330
135
100
DictionaryVariables
280
     0
  1
STANDARD
  0
ENDSEC
  0
EOF
