  0
SECTION
  2
HEADER
  9
$ACADVER
  1
AC1018
  9
$ACADMAINTVER
 70
    77
  9
$DWGCODEPAGE
  3
ANSI_936
  9
$INSBASE
 10
0.0
 20
0.0
 30
0.0
  9
$EXTMIN
 10
3704.42190167352
 20
8638.03898969043
 30
0.0
  9
$EXTMAX
 10
4893.82540167352
 20
11420.3131736754
 30
0.0
  9
$LIMMIN
 10
0.0
 20
0.0
  9
$LIMMAX
 10
420.0
 20
297.0
  9
$ORTHOMODE
 70
     0
  9
$REGENMODE
 70
     1
  9
$FILLMODE
 70
     1
  9
$QTEXTMODE
 70
     0
  9
$MIRRTEXT
 70
     0
  9
$LTSCALE
 40
1.0
  9
$ATTMODE
 70
     1
  9
$TEXTSIZE
 40
2.5
  9
$TRACEWID
 40
1.0
  9
$TEXTSTYLE
  7
STANDARD
  9
$CLAYER
  8
0
  9
$CELTYPE
  6
ByLayer
  9
$CECOLOR
 62
   256
  9
$CELTSCALE
 40
1.0
  9
$DISPSILH
 70
     0
  9
$DIMSCALE
 40
1.0
  9
$DIMASZ
 40
2.5
  9
$DIMEXO
 40
0.625
  9
$DIMDLI
 40
3.75
  9
$DIMRND
 40
0.0
  9
$DIMDLE
 40
0.0
  9
$DIMEXE
 40
1.25
  9
$DIMTP
 40
0.0
  9
$DIMTM
 40
0.0
  9
$DIMTXT
 40
2.5
  9
$DIMCEN
 40
2.5
  9
$DIMTSZ
 40
0.0
  9
$DIMTOL
 70
     0
  9
$DIMLIM
 70
     0
  9
$DIMTIH
 70
     0
  9
$DIMTOH
 70
     0
  9
$DIMSE1
 70
     0
  9
$DIMSE2
 70
     0
  9
$DIMTAD
 70
     1
  9
$DIMZIN
 70
     8
  9
$DIMBLK
  1

  9
$DIMASO
 70
     1
  9
$DIMSHO
 70
     1
  9
$DIMPOST
  1

  9
$DIMAPOST
  1

  9
$DIMALT
 70
     0
  9
$DIMALTD
 70
     3
  9
$DIMALTF
 40
0.03937007874016
  9
$DIMLFAC
 40
1.0
  9
$DIMTOFL
 70
     1
  9
$DIMTVP
 40
0.0
  9
$DIMTIX
 70
     0
  9
$DIMSOXD
 70
     0
  9
$DIMSAH
 70
     0
  9
$DIMBLK1
  1

  9
$DIMBLK2
  1

  9
$DIMSTYLE
  2
ISO-25
  9
$DIMCLRD
 70
     0
  9
$DIMCLRE
 70
     0
  9
$DIMCLRT
 70
     0
  9
$DIMTFAC
 40
1.0
  9
$DIMGAP
 40
0.625
  9
$DIMJUST
 70
     0
  9
$DIMSD1
 70
     0
  9
$DIMSD2
 70
     0
  9
$DIMTOLJ
 70
     1
  9
$DIMTZIN
 70
     0
  9
$DIMALTZ
 70
     0
  9
$DIMALTTZ
 70
     0
  9
$DIMUPT
 70
     0
  9
$DIMDEC
 70
     4
  9
$DIMTDEC
 70
     4
  9
$DIMALTU
 70
     2
  9
$DIMALTTD
 70
     2
  9
$DIMTXSTY
  7
STANDARD
  9
$DIMAUNIT
 70
     0
  9
$DIMADEC
 70
     0
  9
$DIMALTRND
 40
0.0
  9
$DIMAZIN
 70
     0
  9
$DIMDSEP
 70
    46
  9
$DIMATFIT
 70
     3
  9
$DIMFRAC
 70
     0
  9
$DIMLDRBLK
  1

  9
$DIMLUNIT
 70
     2
  9
$DIMLWD
 70
    -2
  9
$DIMLWE
 70
    -2
  9
$DIMTMOVE
 70
     0
  9
$LUNITS
 70
     2
  9
$LUPREC
 70
     4
  9
$SKETCHINC
 40
1.0
  9
$FILLETRAD
 40
0.0
  9
$AUNITS
 70
     0
  9
$AUPREC
 70
     0
  9
$MENU
  1
.
  9
$ELEVATION
 40
0.0
  9
$PELEVATION
 40
0.0
  9
$THICKNESS
 40
0.0
  9
$LIMCHECK
 70
     0
  9
$CHAMFERA
 40
0.0
  9
$CHAMFERB
 40
0.0
  9
$CHAMFERC
 40
0.0
  9
$CHAMFERD
 40
0.0
  9
$SKPOLY
 70
     0
  9
$TDCREATE
 40
2456997.676706910
  9
$TDUCREATE
 40
2456997.343373576
  9
$TDUPDATE
 40
2456997.680113438
  9
$TDUUPDATE
 40
2456997.346780104
  9
$TDINDWG
 40
0.0010312963
  9
$TDUSRTIMER
 40
0.0010311806
  9
$USRTIMER
 70
     1
  9
$ANGBASE
 50
0.0
  9
$ANGDIR
 70
     0
  9
$PDMODE
 70
     0
  9
$PDSIZE
 40
0.0
  9
$PLINEWID
 40
0.0
  9
$SPLFRAME
 70
     0
  9
$SPLINETYPE
 70
     6
  9
$SPLINESEGS
 70
     8
  9
$HANDSEED
  5
24FC
  9
$SURFTAB1
 70
     6
  9
$SURFTAB2
 70
     6
  9
$SURFTYPE
 70
     6
  9
$SURFU
 70
     6
  9
$SURFV
 70
     6
  9
$UCSBASE
  2

  9
$UCSNAME
  2

  9
$UCSORG
 10
0.0
 20
0.0
 30
0.0
  9
$UCSXDIR
 10
1.0
 20
0.0
 30
0.0
  9
$UCSYDIR
 10
0.0
 20
1.0
 30
0.0
  9
$UCSORTHOREF
  2

  9
$UCSORTHOVIEW
 70
     0
  9
$UCSORGTOP
 10
0.0
 20
0.0
 30
0.0
  9
$UCSORGBOTTOM
 10
0.0
 20
0.0
 30
0.0
  9
$UCSORGLEFT
 10
0.0
 20
0.0
 30
0.0
  9
$UCSORGRIGHT
 10
0.0
 20
0.0
 30
0.0
  9
$UCSORGFRONT
 10
0.0
 20
0.0
 30
0.0
  9
$UCSORGBACK
 10
0.0
 20
0.0
 30
0.0
  9
$PUCSBASE
  2

  9
$PUCSNAME
  2

  9
$PUCSORG
 10
0.0
 20
0.0
 30
0.0
  9
$PUCSXDIR
 10
1.0
 20
0.0
 30
0.0
  9
$PUCSYDIR
 10
0.0
 20
1.0
 30
0.0
  9
$PUCSORTHOREF
  2

  9
$PUCSORTHOVIEW
 70
     0
  9
$PUCSORGTOP
 10
0.0
 20
0.0
 30
0.0
  9
$PUCSORGBOTTOM
 10
0.0
 20
0.0
 30
0.0
  9
$PUCSORGLEFT
 10
0.0
 20
0.0
 30
0.0
  9
$PUCSORGRIGHT
 10
0.0
 20
0.0
 30
0.0
  9
$PUCSORGFRONT
 10
0.0
 20
0.0
 30
0.0
  9
$PUCSORGBACK
 10
0.0
 20
0.0
 30
0.0
  9
$USERI1
 70
     0
  9
$USERI2
 70
     0
  9
$USERI3
 70
     0
  9
$USERI4
 70
     0
  9
$USERI5
 70
     0
  9
$USERR1
 40
0.0
  9
$USERR2
 40
0.0
  9
$USERR3
 40
0.0
  9
$USERR4
 40
0.0
  9
$USERR5
 40
0.0
  9
$WORLDVIEW
 70
     1
  9
$SHADEDGE
 70
     3
  9
$SHADEDIF
 70
    70
  9
$TILEMODE
 70
     1
  9
$MAXACTVP
 70
    64
  9
$PINSBASE
 10
0.0
 20
0.0
 30
0.0
  9
$PLIMCHECK
 70
     0
  9
$PEXTMIN
 10
0.0
 20
0.0
 30
0.0
  9
$PEXTMAX
 10
0.0
 20
0.0
 30
0.0
  9
$PLIMMIN
 10
0.0
 20
0.0
  9
$PLIMMAX
 10
12.0
 20
9.0
  9
$UNITMODE
 70
     0
  9
$VISRETAIN
 70
     1
  9
$PLINEGEN
 70
     0
  9
$PSLTSCALE
 70
     1
  9
$TREEDEPTH
 70
  3020
  9
$CMLSTYLE
  2
Standard
  9
$CMLJUST
 70
     0
  9
$CMLSCALE
 40
1.0
  9
$PROXYGRAPHICS
 70
     1
  9
$MEASUREMENT
 70
     1
  9
$CELWEIGHT
370
    -1
  9
$ENDCAPS
280
     0
  9
$JOINSTYLE
280
     0
  9
$LWDISPLAY
290
     0
  9
$INSUNITS
 70
     0
  9
$HYPERLINKBASE
  1

  9
$STYLESHEET
  1

  9
$XEDIT
290
     1
  9
$CEPSNTYPE
380
     0
  9
$PSTYLEMODE
290
     1
  9
$FINGERPRINTGUID
  2
{1F2D6530-6BF2-4D5E-922F-A9C54F637010}
  9
$VERSIONGUID
  2
{15AD9CB5-51D1-451C-B472-5DB36EFAD6AD}
  9
$EXTNAMES
290
     1
  9
$PSVPSCALE
 40
0.0
  9
$OLESTARTUP
290
     0
  9
$SORTENTS
280
   127
  9
$INDEXCTL
280
     0
  9
$HIDETEXT
280
     0
  9
$XCLIPFRAME
290
     0
  9
$HALOGAP
280
     0
  9
$OBSCOLOR
 70
   257
  9
$OBSLTYPE
280
     0
  9
$INTERSECTIONDISPLAY
280
     0
  9
$INTERSECTIONCOLOR
 70
   257
  9
$DIMASSOC
280
     1
  9
$PROJECTNAME
  1

  0
ENDSEC
  0
SECTION
  2
CLASSES
  0
CLASS
  1
ACDBDICTIONARYWDFLT
  2
AcDbDictionaryWithDefault
  3
ObjectDBX Classes
 90
        0
 91
        1
280
     0
281
     0
  0
CLASS
  1
TABLESTYLE
  2
AcDbTableStyle
  3
ObjectDBX Classes
 90
     2047
 91
        1
280
     0
281
     0
  0
CLASS
  1
DICTIONARYVAR
  2
AcDbDictionaryVar
  3
ObjectDBX Classes
 90
        0
 91
        1
280
     0
281
     0
  0
ENDSEC
  0
SECTION
  2
TABLES
  0
TABLE
  2
VPORT
  5
10D
330
0
100
AcDbSymbolTable
 70
     2
  0
VPORT
  5
137
330
10D
100
AcDbSymbolTableRecord
100
AcDbViewportTableRecord
  2
*Active
 70
     0
 10
0.0
 20
0.0
 11
1.0
 21
1.0
 12
4299.12365167352
 22
10029.1760816829
 13
0.0
 23
0.0
 14
10.0
 24
10.0
 15
10.0
 25
10.0
 16
0.0
 26
0.0
 36
1.0
 17
0.0
 27
0.0
 37
0.0
 40
551.708552688342
 41
2.435135135135135
 42
50.0
 43
0.0
 44
0.0
 50
0.0
 51
0.0
 71
     0
 72
  1000
 73
     1
 74
     3
 75
     0
 76
     0
 77
     0
 78
     0
281
     0
 65
     1
110
0.0
120
0.0
130
0.0
111
1.0
121
0.0
131
0.0
112
0.0
122
1.0
132
0.0
 79
     0
146
0.0
  0
ENDTAB
  0
TABLE
  2
LTYPE
  5
10A
330
0
100
AcDbSymbolTable
 70
     1
  0
LTYPE
  5
118
330
10A
100
AcDbSymbolTableRecord
100
AcDbLinetypeTableRecord
  2
ByBlock
 70
     0
  3

 72
    65
 73
     0
 40
0.0
  0
LTYPE
  5
119
330
10A
100
AcDbSymbolTableRecord
100
AcDbLinetypeTableRecord
  2
ByLayer
 70
     0
  3

 72
    65
 73
     0
 40
0.0
  0
LTYPE
  5
11A
330
10A
100
AcDbSymbolTableRecord
100
AcDbLinetypeTableRecord
  2
CONTINUOUS
 70
     0
  3
Solid line
 72
    65
 73
     0
 40
0.0
  0
ENDTAB
  0
TABLE
  2
LAYER
  5
107
330
0
100
AcDbSymbolTable
 70
     1
  0
LAYER
  5
115
330
107
100
AcDbSymbolTableRecord
100
AcDbLayerTableRecord
  2
0
 70
     0
 62
     7
  6
CONTINUOUS
370
    -3
390
114
  0
ENDTAB
  0
TABLE
  2
STYLE
  5
108
330
0
100
AcDbSymbolTable
 70
     1
  0
STYLE
  5
116
330
108
100
AcDbSymbolTableRecord
100
AcDbTextStyleTableRecord
  2
STANDARD
 70
     0
 40
0.0
 41
1.0
 50
0.0
 71
     0
 42
2.5
  3
txt
  4
gbcbig.shx
  0
ENDTAB
  0
TABLE
  2
VIEW
  5
10B
330
0
100
AcDbSymbolTable
 70
     0
  0
ENDTAB
  0
TABLE
  2
UCS
  5
10C
330
0
100
AcDbSymbolTable
 70
     0
  0
ENDTAB
  0
TABLE
  2
APPID
  5
10E
330
0
100
AcDbSymbolTable
 70
     2
  0
APPID
  5
117
330
10E
100
AcDbSymbolTableRecord
100
AcDbRegAppTableRecord
  2
ACAD
 70
     0
  0
APPID
  5
12C
330
10E
100
AcDbSymbolTableRecord
100
AcDbRegAppTableRecord
  2
ACAD_PSEXT
 70
     0
  0
APPID
  5
112C
330
10E
100
AcDbSymbolTableRecord
100
AcDbRegAppTableRecord
  2
FS_CYPCUT
 70
     0
  0
ENDTAB
  0
TABLE
  2
DIMSTYLE
  5
10F
330
0
100
AcDbSymbolTable
 70
     1
100
AcDbDimStyleTable
 71
     0
  0
DIMSTYLE
105
12D
330
10F
100
AcDbSymbolTableRecord
100
AcDbDimStyleTableRecord
  2
ISO-25
 70
     0
 41
2.5
 42
0.625
 43
3.75
 44
1.25
 73
     0
 74
     0
 77
     1
 78
     8
140
2.5
141
2.5
143
0.03937007874016
147
0.625
171
     3
172
     1
274
     3
279
     2
284
     8
285
     8
286
     8
340
116
  0
ENDTAB
  0
TABLE
  2
BLOCK_RECORD
  5
106
330
0
100
AcDbSymbolTable
 70
     2
  0
BLOCK_RECORD
  5
127
330
106
100
AcDbSymbolTableRecord
100
AcDbBlockTableRecord
  2
*Model_Space
340
12A
  0
BLOCK_RECORD
  5
123
330
106
100
AcDbSymbolTableRecord
100
AcDbBlockTableRecord
  2
*Paper_Space
340
126
  0
BLOCK_RECORD
  5
130
330
106
100
AcDbSymbolTableRecord
100
AcDbBlockTableRecord
  2
$MODEL_SPACE
340
0
  0
BLOCK_RECORD
  5
132
330
106
100
AcDbSymbolTableRecord
100
AcDbBlockTableRecord
  2
$PAPER_SPACE
340
0
       0
BLOCK_RECORD
       5
2000
     330
106
     100
AcDbSymbolTableRecord
     100
AcDbBlockTableRecord
       2
Part2104807321
       0
BLOCK_RECORD
       5
2001
     330
106
     100
AcDbSymbolTableRecord
     100
AcDbBlockTableRecord
       2
CommonPart684855918
       0
BLOCK_RECORD
       5
2002
     330
106
     100
AcDbSymbolTableRecord
     100
AcDbBlockTableRecord
       2
CommonPart657407696
       0
BLOCK_RECORD
       5
2003
     330
106
     100
AcDbSymbolTableRecord
     100
AcDbBlockTableRecord
       2
Part2036665471
       0
BLOCK_RECORD
       5
2004
     330
106
     100
AcDbSymbolTableRecord
     100
AcDbBlockTableRecord
       2
Part396623188
       0
BLOCK_RECORD
       5
2005
     330
106
     100
AcDbSymbolTableRecord
     100
AcDbBlockTableRecord
       2
Part326599846
       0
BLOCK_RECORD
       5
2006
     330
106
     100
AcDbSymbolTableRecord
     100
AcDbBlockTableRecord
       2
Part1593029442
       0
BLOCK_RECORD
       5
2007
     330
106
     100
AcDbSymbolTableRecord
     100
AcDbBlockTableRecord
       2
Part836667496
       0
BLOCK_RECORD
       5
2008
     330
106
     100
AcDbSymbolTableRecord
     100
AcDbBlockTableRecord
       2
CommonPart
       0
BLOCK_RECORD
       5
2009
     330
106
     100
AcDbSymbolTableRecord
     100
AcDbBlockTableRecord
       2
Part1636236885
       0
BLOCK_RECORD
       5
200A
     330
106
     100
AcDbSymbolTableRecord
     100
AcDbBlockTableRecord
       2
Part628576174
       0
BLOCK_RECORD
       5
200B
     330
106
     100
AcDbSymbolTableRecord
     100
AcDbBlockTableRecord
       2
Part961367633
       0
BLOCK_RECORD
       5
200C
     330
106
     100
AcDbSymbolTableRecord
     100
AcDbBlockTableRecord
       2
Part2133309444
       0
BLOCK_RECORD
       5
200D
     330
106
     100
AcDbSymbolTableRecord
     100
AcDbBlockTableRecord
       2
Part1634697346
       0
BLOCK_RECORD
       5
200E
     330
106
     100
AcDbSymbolTableRecord
     100
AcDbBlockTableRecord
       2
Part1123470860
       0
BLOCK_RECORD
       5
200F
     330
106
     100
AcDbSymbolTableRecord
     100
AcDbBlockTableRecord
       2
Part25759375
       0
BLOCK_RECORD
       5
2010
     330
106
     100
AcDbSymbolTableRecord
     100
AcDbBlockTableRecord
       2
Part1836907587
       0
BLOCK_RECORD
       5
2011
     330
106
     100
AcDbSymbolTableRecord
     100
AcDbBlockTableRecord
       2
Part1590766616
       0
BLOCK_RECORD
       5
2012
     330
106
     100
AcDbSymbolTableRecord
     100
AcDbBlockTableRecord
       2
Part1637810815
       0
BLOCK_RECORD
       5
2013
     330
106
     100
AcDbSymbolTableRecord
     100
AcDbBlockTableRecord
       2
Part598427341
       0
BLOCK_RECORD
       5
2014
     330
106
     100
AcDbSymbolTableRecord
     100
AcDbBlockTableRecord
       2
Part460024123
       0
BLOCK_RECORD
       5
2015
     330
106
     100
AcDbSymbolTableRecord
     100
AcDbBlockTableRecord
       2
Part1242848288
       0
BLOCK_RECORD
       5
2016
     330
106
     100
AcDbSymbolTableRecord
     100
AcDbBlockTableRecord
       2
Part405112923
       0
BLOCK_RECORD
       5
2017
     330
106
     100
AcDbSymbolTableRecord
     100
AcDbBlockTableRecord
       2
CommonPart635717239
       0
BLOCK_RECORD
       5
2018
     330
106
     100
AcDbSymbolTableRecord
     100
AcDbBlockTableRecord
       2
Part782166238
       0
BLOCK_RECORD
       5
2019
     330
106
     100
AcDbSymbolTableRecord
     100
AcDbBlockTableRecord
       2
Part692754950
       0
BLOCK_RECORD
       5
201A
     330
106
     100
AcDbSymbolTableRecord
     100
AcDbBlockTableRecord
       2
CommonPart515188085
       0
BLOCK_RECORD
       5
201B
     330
106
     100
AcDbSymbolTableRecord
     100
AcDbBlockTableRecord
       2
CommonPart663984093
       0
BLOCK_RECORD
       5
201C
     330
106
     100
AcDbSymbolTableRecord
     100
AcDbBlockTableRecord
       2
CommonPart635333186
       0
BLOCK_RECORD
       5
201D
     330
106
     100
AcDbSymbolTableRecord
     100
AcDbBlockTableRecord
       2
Part1525600420
       0
BLOCK_RECORD
       5
201E
     330
106
     100
AcDbSymbolTableRecord
     100
AcDbBlockTableRecord
       2
Part356253228
       0
BLOCK_RECORD
       5
201F
     330
106
     100
AcDbSymbolTableRecord
     100
AcDbBlockTableRecord
       2
Part1910953929
       0
BLOCK_RECORD
       5
2020
     330
106
     100
AcDbSymbolTableRecord
     100
AcDbBlockTableRecord
       2
CommonPart491284103
  0
ENDTAB
  0
ENDSEC
  0
SECTION
  2
BLOCKS
  0
BLOCK
  5
128
330
127
100
AcDbEntity
  8
0
100
AcDbBlockBegin
  2
*Model_Space
 70
     0
 10
0.0
 20
0.0
 30
0.0
  3
*Model_Space
  1

  0
ENDBLK
  5
129
330
127
100
AcDbEntity
  8
0
100
AcDbBlockEnd
  0
BLOCK
  5
124
330
123
100
AcDbEntity
 67
     1
  8
0
100
AcDbBlockBegin
  2
*Paper_Space
 70
     0
 10
0.0
 20
0.0
 30
0.0
  3
*Paper_Space
  1

  0
ENDBLK
  5
125
330
123
100
AcDbEntity
 67
     1
  8
0
100
AcDbBlockEnd
  0
BLOCK
  5
131
330
130
100
AcDbEntity
  8
0
100
AcDbBlockBegin
  2
$MODEL_SPACE
 70
     0
 10
0.0
 20
0.0
 30
0.0
  3
$MODEL_SPACE
  1

  0
ENDBLK
  5
21
330
130
100
AcDbEntity
  8
0
100
AcDbBlockEnd
  0
BLOCK
  5
133
330
132
100
AcDbEntity
  8
0
100
AcDbBlockBegin
  2
$PAPER_SPACE
 70
     0
 10
0.0
 20
0.0
 30
0.0
  3
$PAPER_SPACE
  1

  0
ENDBLK
  5
D5
330
132
100
AcDbEntity
  8
0
100
AcDbBlockEnd
       0
BLOCK
       5
2021
     330
2000
     100
AcDbEntity
       8
0
     100
AcDbBlockBegin
       2
Part2104807321
      70
0
      10
-72.855
      20
-25
      30
0
       3
Part2104807321
       1

       4
CypCutBlock
       0
CIRCLE
       5
2022
     100
AcDbEntity
       8
1
     100
AcDbCircle
      10
-62.855
      20
0
      30
0
      40
5
    1001
FS_CYPCUT
    1000
Channel
    1070
1
    1000
LeadIn
    1002
{
    1070
3
    1040
0
    1040
1.5707963267949
    1040
1
    1040
1
    1070
0
    1040
0.5
    1070
0
    1002
}
    1000
LeadOut
    1002
{
    1070
0
    1040
0
    1040
0
    1040
0
    1070
0
    1002
}
    1000
IsFill
    1070
0
    1000
PathStart
    1040
1
    1000
ToolCompensation
    1002
{
    1070
0
    1040
0
    1070
0
    1002
}
       0
CIRCLE
       5
2023
     100
AcDbEntity
       8
1
     100
AcDbCircle
      10
62.855
      20
0
      30
0
      40
4.99999999999996
    1001
FS_CYPCUT
    1000
Channel
    1070
1
    1000
LeadIn
    1002
{
    1070
3
    1040
1.38777878078145E-16
    1040
1.5707963267949
    1040
1
    1040
1
    1070
0
    1040
0.5
    1070
0
    1002
}
    1000
LeadOut
    1002
{
    1070
0
    1040
0
    1040
0
    1040
0
    1070
0
    1002
}
    1000
IsFill
    1070
0
    1000
PathStart
    1040
1.38777878078145E-16
    1000
ToolCompensation
    1002
{
    1070
0
    1040
0
    1070
0
    1002
}
       0
LWPOLYLINE
       5
2024
     100
AcDbEntity
       8
1
     100
AcDbPolyline
      90
8
      70
1
      10
72.855
      20
20
      42
0
      10
72.855
      20
-20
      42
-0.414213562373095
      10
67.855
      20
-25
      42
0
      10
-67.855
      20
-25
      42
-0.414213562373095
      10
-72.855
      20
-20
      42
0
      10
-72.855
      20
20
      42
-0.414213562373095
      10
-67.855
      20
25
      42
0
      10
67.855
      20
25
      42
-0.414213562373093
    1001
FS_CYPCUT
    1000
Channel
    1070
1
    1000
LeadIn
    1002
{
    1070
3
    1040
2.5
    1040
1.5707963267949
    1040
1
    1040
1
    1070
0
    1040
0.5
    1070
0
    1002
}
    1000
LeadOut
    1002
{
    1070
0
    1040
0
    1040
0
    1040
0
    1070
0
    1002
}
    1000
IsFill
    1070
1
    1000
PathStart
    1040
2.5
    1000
ToolCompensation
    1002
{
    1070
0
    1040
0
    1070
0
    1002
}
       0
ENDBLK
       5
2025
     330
2000
     100
AcDbEntity
       8
0
     100
AcDbBlockEnd
       0
BLOCK
       5
2026
     330
2001
     100
AcDbEntity
       8
0
     100
AcDbBlockBegin
       2
CommonPart684855918
      70
0
      10
250.3425
      20
3
      30
0
       3
CommonPart684855918
       1

       4
CypCutBlock
       0
LWPOLYLINE
       5
2027
     100
AcDbEntity
       8
1
     100
AcDbPolyline
      90
4
      70
1
      10
273.8475
      20
30
      42
-1
      10
273.8475
      20
20
      42
0
      10
263.8475
      20
20
      42
-1
      10
263.8475
      20
30
      42
0
    1001
FS_CYPCUT
    1000
Channel
    1070
1
    1000
LeadIn
    1002
{
    1070
3
    1040
3.5
    1040
1.5707963267949
    1040
1
    1040
1
    1070
0
    1040
0.5
    1070
0
    1002
}
    1000
LeadOut
    1002
{
    1070
0
    1040
0
    1040
0
    1040
0
    1070
0
    1002
}
    1000
IsFill
    1070
0
    1000
PathStart
    1040
3.5
    1000
ToolCompensation
    1002
{
    1070
0
    1040
0
    1070
0
    1002
}
       0
LWPOLYLINE
       5
2028
     100
AcDbEntity
       8
1
     100
AcDbPolyline
      90
4
      70
1
      10
346.8375
      20
30
      42
-1
      10
346.8375
      20
20
      42
0
      10
336.8375
      20
20
      42
-1
      10
336.8375
      20
30
      42
0
    1001
FS_CYPCUT
    1000
Channel
    1070
1
    1000
LeadIn
    1002
{
    1070
3
    1040
0.5
    1040
1.5707963267949
    1040
1
    1040
1
    1070
0
    1040
0.5
    1070
0
    1002
}
    1000
LeadOut
    1002
{
    1070
0
    1040
0
    1040
0
    1040
0
    1070
0
    1002
}
    1000
IsFill
    1070
0
    1000
PathStart
    1040
0.5
    1000
ToolCompensation
    1002
{
    1070
0
    1040
0
    1070
0
    1002
}
       0
LWPOLYLINE
       5
2029
     100
AcDbEntity
       8
1
     100
AcDbPolyline
      90
8
      70
0
      10
360.3425
      20
42
      42
0.414213562373094
      10
355.3425
      20
47
      42
0
      10
255.3425
      20
47
      42
0.414213562373095
      10
250.3425
      20
42
      42
0
      10
250.3425
      20
7.99999999999999
      42
0.414213562373096
      10
255.3425
      20
2.99999999999998
      42
0
      10
355.3425
      20
2.99999999999998
      42
0.414213562373095
      10
360.3425
      20
7.99999999999998
      42
0
    1001
FS_CYPCUT
    1000
Channel
    1070
1
    1000
LeadIn
    1002
{
    1070
0
    1040
0
    1040
0
    1040
0
    1040
0
    1070
0
    1040
0
    1070
0
    1002
}
    1000
LeadOut
    1002
{
    1070
0
    1040
0
    1040
0
    1040
0
    1070
0
    1002
}
    1000
IsFill
    1070
1
    1000
PathStart
    1040
0
    1000
ToolCompensation
    1002
{
    1070
0
    1040
0
    1070
0
    1002
}
    1000
MicroConnect
    1002
{
    1070
1
    1040
0
    1041
0
    1042
0
    1002
}
       0
LWPOLYLINE
       5
202A
     100
AcDbEntity
       8
1
     100
AcDbPolyline
      90
4
      70
1
      10
383.8476
      20
30
      42
-1
      10
383.8476
      20
20
      42
0
      10
373.8476
      20
20
      42
-1
      10
373.8476
      20
30
      42
0
    1001
FS_CYPCUT
    1000
Channel
    1070
1
    1000
LeadIn
    1002
{
    1070
3
    1040
3.5
    1040
1.5707963267949
    1040
1
    1040
1
    1070
0
    1040
0.5
    1070
0
    1002
}
    1000
LeadOut
    1002
{
    1070
0
    1040
0
    1040
0
    1040
0
    1070
0
    1002
}
    1000
IsFill
    1070
0
    1000
PathStart
    1040
3.5
    1000
ToolCompensation
    1002
{
    1070
0
    1040
0
    1070
0
    1002
}
       0
LWPOLYLINE
       5
202B
     100
AcDbEntity
       8
1
     100
AcDbPolyline
      90
4
      70
1
      10
456.8376
      20
30
      42
-1
      10
456.8376
      20
20
      42
0
      10
446.8376
      20
20
      42
-1
      10
446.8376
      20
30
      42
0
    1001
FS_CYPCUT
    1000
Channel
    1070
1
    1000
LeadIn
    1002
{
    1070
3
    1040
0.5
    1040
1.5707963267949
    1040
1
    1040
1
    1070
0
    1040
0.5
    1070
0
    1002
}
    1000
LeadOut
    1002
{
    1070
0
    1040
0
    1040
0
    1040
0
    1070
0
    1002
}
    1000
IsFill
    1070
0
    1000
PathStart
    1040
0.5
    1000
ToolCompensation
    1002
{
    1070
0
    1040
0
    1070
0
    1002
}
       0
LWPOLYLINE
       5
202C
     100
AcDbEntity
       8
1
     100
AcDbPolyline
      90
8
      70
1
      10
360.3426
      20
42
      42
-0.414213562373095
      10
365.3426
      20
47
      42
0
      10
465.3426
      20
47
      42
-0.414213562373094
      10
470.3426
      20
42
      42
0
      10
470.3426
      20
7.99999999999998
      42
-0.414213562373095
      10
465.3426
      20
2.99999999999998
      42
0
      10
365.3426
      20
2.99999999999998
      42
-0.414213562373096
      10
360.3426
      20
7.99999999999999
      42
0
    1001
FS_CYPCUT
    1000
Channel
    1070
1
    1000
LeadIn
    1002
{
    1070
0
    1040
7
    1040
1.5707963267949
    1040
1
    1040
1
    1070
0
    1040
0.5
    1070
0
    1002
}
    1000
LeadOut
    1002
{
    1070
0
    1040
0
    1040
0
    1040
0
    1070
0
    1002
}
    1000
IsFill
    1070
1
    1000
PathStart
    1040
7
    1000
ToolCompensation
    1002
{
    1070
0
    1040
0
    1070
0
    1002
}
       0
ENDBLK
       5
202D
     330
2001
     100
AcDbEntity
       8
0
     100
AcDbBlockEnd
       0
BLOCK
       5
202E
     330
2002
     100
AcDbEntity
       8
0
     100
AcDbBlockBegin
       2
CommonPart657407696
      70
0
      10
608.4234
      20
3
      30
0
       3
CommonPart657407696
       1

       4
CypCutBlock
       0
CIRCLE
       5
202F
     100
AcDbEntity
       8
1
     100
AcDbCircle
      10
744.1334
      20
28
      30
0
      40
5
    1001
FS_CYPCUT
    1000
Channel
    1070
1
    1000
LeadIn
    1002
{
    1070
3
    1040
0
    1040
1.5707963267949
    1040
1
    1040
1
    1070
0
    1040
0.5
    1070
0
    1002
}
    1000
LeadOut
    1002
{
    1070
0
    1040
0
    1040
0
    1040
0
    1070
0
    1002
}
    1000
IsFill
    1070
0
    1000
PathStart
    1040
0
    1000
ToolCompensation
    1002
{
    1070
0
    1040
0
    1070
0
    1002
}
       0
CIRCLE
       5
2030
     100
AcDbEntity
       8
1
     100
AcDbCircle
      10
618.4234
      20
28
      30
0
      40
4.99999999999989
    1001
FS_CYPCUT
    1000
Channel
    1070
1
    1000
LeadIn
    1002
{
    1070
3
    1040
1.38777878078145E-16
    1040
1.5707963267949
    1040
1
    1040
1
    1070
0
    1040
0.5
    1070
0
    1002
}
    1000
LeadOut
    1002
{
    1070
0
    1040
0
    1040
0
    1040
0
    1070
0
    1002
}
    1000
IsFill
    1070
0
    1000
PathStart
    1040
1.38777878078145E-16
    1000
ToolCompensation
    1002
{
    1070
0
    1040
0
    1070
0
    1002
}
       0
LWPOLYLINE
       5
2031
     100
AcDbEntity
       8
1
     100
AcDbPolyline
      90
8
      70
0
      10
754.1334
      20
7.99999999999995
      42
-0.414213562373095
      10
749.1334
      20
2.99999999999995
      42
0
      10
613.4234
      20
2.99999999999997
      42
-0.414213562373093
      10
608.4234
      20
7.99999999999997
      42
0
      10
608.4234
      20
48
      42
-0.414213562373095
      10
613.4234
      20
53
      42
0
      10
749.1334
      20
53
      42
-0.414213562373095
      10
754.1334
      20
48
      42
0
    1001
FS_CYPCUT
    1000
Channel
    1070
1
    1000
LeadIn
    1002
{
    1070
0
    1040
0
    1040
0
    1040
0
    1040
0
    1070
0
    1040
0
    1070
0
    1002
}
    1000
LeadOut
    1002
{
    1070
0
    1040
0
    1040
0
    1040
0
    1070
0
    1002
}
    1000
IsFill
    1070
1
    1000
PathStart
    1040
0
    1000
ToolCompensation
    1002
{
    1070
0
    1040
0
    1070
0
    1002
}
    1000
MicroConnect
    1002
{
    1070
1
    1040
0
    1041
0
    1042
0
    1002
}
       0
CIRCLE
       5
2032
     100
AcDbEntity
       8
1
     100
AcDbCircle
      10
889.8435
      20
27.9999999999999
      30
0
      40
5
    1001
FS_CYPCUT
    1000
Channel
    1070
1
    1000
LeadIn
    1002
{
    1070
3
    1040
0
    1040
1.5707963267949
    1040
1
    1040
1
    1070
0
    1040
0.5
    1070
0
    1002
}
    1000
LeadOut
    1002
{
    1070
0
    1040
0
    1040
0
    1040
0
    1070
0
    1002
}
    1000
IsFill
    1070
0
    1000
PathStart
    1040
0
    1000
ToolCompensation
    1002
{
    1070
0
    1040
0
    1070
0
    1002
}
       0
CIRCLE
       5
2033
     100
AcDbEntity
       8
1
     100
AcDbCircle
      10
764.1335
      20
28
      30
0
      40
4.99999999999989
    1001
FS_CYPCUT
    1000
Channel
    1070
1
    1000
LeadIn
    1002
{
    1070
3
    1040
1.38777878078145E-16
    1040
1.5707963267949
    1040
1
    1040
1
    1070
0
    1040
0.5
    1070
0
    1002
}
    1000
LeadOut
    1002
{
    1070
0
    1040
0
    1040
0
    1040
0
    1070
0
    1002
}
    1000
IsFill
    1070
0
    1000
PathStart
    1040
1.38777878078145E-16
    1000
ToolCompensation
    1002
{
    1070
0
    1040
0
    1070
0
    1002
}
       0
LWPOLYLINE
       5
2034
     100
AcDbEntity
       8
1
     100
AcDbPolyline
      90
8
      70
1
      10
754.1335
      20
48
      42
-0.414213562373095
      10
759.1335
      20
53
      42
0
      10
894.8435
      20
52.9999999999999
      42
-0.414213562373095
      10
899.8435
      20
47.9999999999999
      42
0
      10
899.8435
      20
7.99999999999994
      42
-0.414213562373095
      10
894.8435
      20
2.99999999999994
      42
0
      10
759.1335
      20
2.99999999999996
      42
-0.414213562373093
      10
754.1335
      20
7.99999999999994
      42
0
    1001
FS_CYPCUT
    1000
Channel
    1070
1
    1000
LeadIn
    1002
{
    1070
0
    1040
7
    1040
1.5707963267949
    1040
1
    1040
1
    1070
0
    1040
0.5
    1070
0
    1002
}
    1000
LeadOut
    1002
{
    1070
0
    1040
0
    1040
0
    1040
0
    1070
0
    1002
}
    1000
IsFill
    1070
1
    1000
PathStart
    1040
7
    1000
ToolCompensation
    1002
{
    1070
0
    1040
0
    1070
0
    1002
}
       0
ENDBLK
       5
2035
     330
2002
     100
AcDbEntity
       8
0
     100
AcDbBlockEnd
       0
BLOCK
       5
2036
     330
2003
     100
AcDbEntity
       8
0
     100
AcDbBlockBegin
       2
Part2036665471
      70
0
      10
-55
      20
-22
      30
0
       3
Part2036665471
       1

       4
CypCutBlock
       0
LWPOLYLINE
       5
2037
     100
AcDbEntity
       8
1
     100
AcDbPolyline
      90
4
      70
1
      10
-31.495
      20
5
      42
0
      10
-41.495
      20
5
      42
1
      10
-41.495
      20
-5
      42
0
      10
-31.495
      20
-5
      42
1
    1001
FS_CYPCUT
    1000
Channel
    1070
1
    1000
LeadIn
    1002
{
    1070
3
    1040
0.5
    1040
1.5707963267949
    1040
1
    1040
1
    1070
0
    1040
0.5
    1070
0
    1002
}
    1000
LeadOut
    1002
{
    1070
0
    1040
0
    1040
0
    1040
0
    1070
0
    1002
}
    1000
IsFill
    1070
0
    1000
PathStart
    1040
0.5
    1000
ToolCompensation
    1002
{
    1070
0
    1040
0
    1070
0
    1002
}
       0
LWPOLYLINE
       5
2038
     100
AcDbEntity
       8
1
     100
AcDbPolyline
      90
4
      70
1
      10
41.495
      20
5.00000000000001
      42
-1
      10
41.495
      20
-5.00000000000001
      42
0
      10
31.495
      20
-5
      42
-1
      10
31.495
      20
5
      42
0
    1001
FS_CYPCUT
    1000
Channel
    1070
1
    1000
LeadIn
    1002
{
    1070
3
    1040
0.5
    1040
1.5707963267949
    1040
1
    1040
1
    1070
0
    1040
0.5
    1070
0
    1002
}
    1000
LeadOut
    1002
{
    1070
0
    1040
0
    1040
0
    1040
0
    1070
0
    1002
}
    1000
IsFill
    1070
0
    1000
PathStart
    1040
0.5
    1000
ToolCompensation
    1002
{
    1070
0
    1040
0
    1070
0
    1002
}
       0
LWPOLYLINE
       5
2039
     100
AcDbEntity
       8
1
     100
AcDbPolyline
      90
8
      70
1
      10
55
      20
17
      42
0
      10
55
      20
-17
      42
-0.414213562373095
      10
50
      20
-22
      42
0
      10
-50
      20
-22
      42
-0.414213562373096
      10
-55
      20
-17
      42
0
      10
-55
      20
17
      42
-0.414213562373095
      10
-50
      20
22
      42
0
      10
50
      20
22
      42
-0.414213562373094
    1001
FS_CYPCUT
    1000
Channel
    1070
1
    1000
LeadIn
    1002
{
    1070
3
    1040
2.5
    1040
1.5707963267949
    1040
1
    1040
1
    1070
0
    1040
0.5
    1070
0
    1002
}
    1000
LeadOut
    1002
{
    1070
0
    1040
0
    1040
0
    1040
0
    1070
0
    1002
}
    1000
IsFill
    1070
1
    1000
PathStart
    1040
2.5
    1000
ToolCompensation
    1002
{
    1070
0
    1040
0
    1070
0
    1002
}
    1000
MicroConnect
    1002
{
    1070
2
    1040
0.436207116
    1041
0.6
    1042
0
    1040
4.5
    1041
0.6
    1042
0
    1002
}
       0
ENDBLK
       5
203A
     330
2003
     100
AcDbEntity
       8
0
     100
AcDbBlockEnd
       0
BLOCK
       5
203B
     330
2004
     100
AcDbEntity
       8
0
     100
AcDbBlockBegin
       2
Part396623188
      70
0
      10
-25.5
      20
-173
      30
0
       3
Part396623188
       1

       4
CypCutBlock
       0
CIRCLE
       5
203C
     100
AcDbEntity
       8
1
     100
AcDbCircle
      10
0
      20
-151.5
      30
0
      40
5.00000000000003
    1001
FS_CYPCUT
    1000
Channel
    1070
1
    1000
LeadIn
    1002
{
    1070
3
    1040
2.22044604925031E-16
    1040
1.5707963267949
    1040
1
    1040
1
    1070
0
    1040
0.5
    1070
0
    1002
}
    1000
LeadOut
    1002
{
    1070
0
    1040
0
    1040
0
    1040
0
    1070
0
    1002
}
    1000
IsFill
    1070
0
    1000
PathStart
    1040
2.22044604925031E-16
    1000
ToolCompensation
    1002
{
    1070
0
    1040
0
    1070
0
    1002
}
       0
CIRCLE
       5
203D
     100
AcDbEntity
       8
1
     100
AcDbCircle
      10
0
      20
-86.5
      30
0
      40
4.99999999999996
    1001
FS_CYPCUT
    1000
Channel
    1070
1
    1000
LeadIn
    1002
{
    1070
3
    1040
5.55111512312578E-17
    1040
1.5707963267949
    1040
1
    1040
1
    1070
0
    1040
0.5
    1070
0
    1002
}
    1000
LeadOut
    1002
{
    1070
0
    1040
0
    1040
0
    1040
0
    1070
0
    1002
}
    1000
IsFill
    1070
0
    1000
PathStart
    1040
5.55111512312578E-17
    1000
ToolCompensation
    1002
{
    1070
0
    1040
0
    1070
0
    1002
}
       0
CIRCLE
       5
203E
     100
AcDbEntity
       8
1
     100
AcDbCircle
      10
0
      20
-21.5
      30
0
      40
4.99999999999999
    1001
FS_CYPCUT
    1000
Channel
    1070
1
    1000
LeadIn
    1002
{
    1070
3
    1040
0
    1040
1.5707963267949
    1040
1
    1040
1
    1070
0
    1040
0.5
    1070
0
    1002
}
    1000
LeadOut
    1002
{
    1070
0
    1040
0
    1040
0
    1040
0
    1070
0
    1002
}
    1000
IsFill
    1070
0
    1000
PathStart
    1040
1
    1000
ToolCompensation
    1002
{
    1070
0
    1040
0
    1070
0
    1002
}
       0
LINE
       5
203F
     100
AcDbEntity
       8
2
     100
AcDbLine
      10
25.5
      20
-2.812655126
      30
0
      11
-25.5
      21
-2.812655126
      31
0
    1001
FS_CYPCUT
    1000
Channel
    1070
2
    1000
LeadIn
    1002
{
    1070
3
    1040
0
    1040
1.5707963267949
    1040
1
    1040
1
    1070
0
    1040
0.5
    1070
0
    1002
}
    1000
LeadOut
    1002
{
    1070
0
    1040
0
    1040
0
    1040
0
    1070
0
    1002
}
    1000
IsFill
    1070
0
    1000
PathStart
    1040
0
    1000
ToolCompensation
    1002
{
    1070
0
    1040
0
    1070
0
    1002
}
       0
LWPOLYLINE
       5
2040
     100
AcDbEntity
       8
1
     100
AcDbPolyline
      90
32
      70
1
      10
25.5
      20
125.374689748
      42
0
      10
25.5
      20
117.244689748
      42
0
      10
22.4
      20
117.244689748
      42
0
      10
22.4
      20
105.044689748
      42
0
      10
25.5
      20
105.044689748
      42
0
      10
25.5
      20
84.984689748
      42
0
      10
22.4
      20
84.984689748
      42
0
      10
22.4
      20
72.784689748
      42
0
      10
25.5
      20
72.784689748
      42
0
      10
25.5
      20
52.724689748
      42
0
      10
22.4
      20
52.724689748
      42
0
      10
22.4
      20
40.524689748
      42
0
      10
25.5
      20
40.524689748
      42
0
      10
25.5
      20
20.464689748
      42
0
      10
22.4
      20
20.464689748
      42
0
      10
22.4
      20
8.264689748
      42
0
      10
25.5
      20
8.264689748
      42
0
      10
25.5000000000001
      20
-168
      42
-0.414213562373088
      10
20.5
      20
-173
      42
0
      10
-20.5
      20
-173
      42
-0.414213562373098
      10
-25.5000000000001
      20
-168
      42
0
      10
-25.5
      20
80.764689748
      42
0
      10
-22.4
      20
80.764689748
      42
0
      10
-22.4
      20
92.964689748
      42
0
      10
-25.5
      20
92.964689748
      42
0
      10
-25.5
      20
105.044689748
      42
0
      10
-22.4
      20
105.044689748
      42
0
      10
-22.4
      20
117.244689748
      42
0
      10
-25.5
      20
117.244689748
      42
0
      10
-25.5
      20
125.374689748
      42
-0.414213562373091
      10
-20.5
      20
130.374689748
      42
0
      10
20.5
      20
130.374689748
      42
-0.414213562373093
    1001
FS_CYPCUT
    1000
Channel
    1070
1
    1000
LeadIn
    1002
{
    1070
3
    1040
20.5
    1040
1.5707963267949
    1040
1
    1040
1
    1070
0
    1040
0.5
    1070
0
    1002
}
    1000
LeadOut
    1002
{
    1070
0
    1040
0
    1040
0
    1040
0
    1070
0
    1002
}
    1000
IsFill
    1070
1
    1000
PathStart
    1040
20.5
    1000
ToolCompensation
    1002
{
    1070
0
    1040
0
    1070
0
    1002
}
    1000
MicroConnect
    1002
{
    1070
3
    1040
16.2812987
    1041
0.6
    1042
0
    1040
18.5
    1041
0.6
    1042
0
    1040
20.8420158
    1041
0.6
    1042
0
    1002
}
       0
ENDBLK
       5
2041
     330
2004
     100
AcDbEntity
       8
0
     100
AcDbBlockEnd
       0
BLOCK
       5
2042
     330
2005
     100
AcDbEntity
       8
0
     100
AcDbBlockBegin
       2
Part326599846
      70
0
      10
-25.5
      20
-173
      30
0
       3
Part326599846
       1

       4
CypCutBlock
       0
CIRCLE
       5
2043
     100
AcDbEntity
       8
1
     100
AcDbCircle
      10
0
      20
-151.5
      30
0
      40
5.00000000000003
    1001
FS_CYPCUT
    1000
Channel
    1070
1
    1000
LeadIn
    1002
{
    1070
3
    1040
2.22044604925031E-16
    1040
1.5707963267949
    1040
1
    1040
1
    1070
0
    1040
0.5
    1070
0
    1002
}
    1000
LeadOut
    1002
{
    1070
0
    1040
0
    1040
0
    1040
0
    1070
0
    1002
}
    1000
IsFill
    1070
0
    1000
PathStart
    1040
2.22044604925031E-16
    1000
ToolCompensation
    1002
{
    1070
0
    1040
0
    1070
0
    1002
}
       0
CIRCLE
       5
2044
     100
AcDbEntity
       8
1
     100
AcDbCircle
      10
0
      20
-86.5
      30
0
      40
4.99999999999996
    1001
FS_CYPCUT
    1000
Channel
    1070
1
    1000
LeadIn
    1002
{
    1070
3
    1040
5.55111512312578E-17
    1040
1.5707963267949
    1040
1
    1040
1
    1070
0
    1040
0.5
    1070
0
    1002
}
    1000
LeadOut
    1002
{
    1070
0
    1040
0
    1040
0
    1040
0
    1070
0
    1002
}
    1000
IsFill
    1070
0
    1000
PathStart
    1040
5.55111512312578E-17
    1000
ToolCompensation
    1002
{
    1070
0
    1040
0
    1070
0
    1002
}
       0
CIRCLE
       5
2045
     100
AcDbEntity
       8
1
     100
AcDbCircle
      10
0
      20
-21.5
      30
0
      40
4.99999999999999
    1001
FS_CYPCUT
    1000
Channel
    1070
1
    1000
LeadIn
    1002
{
    1070
3
    1040
0
    1040
1.5707963267949
    1040
1
    1040
1
    1070
0
    1040
0.5
    1070
0
    1002
}
    1000
LeadOut
    1002
{
    1070
0
    1040
0
    1040
0
    1040
0
    1070
0
    1002
}
    1000
IsFill
    1070
0
    1000
PathStart
    1040
1
    1000
ToolCompensation
    1002
{
    1070
0
    1040
0
    1070
0
    1002
}
       0
LINE
       5
2046
     100
AcDbEntity
       8
2
     100
AcDbLine
      10
25.5
      20
-2.812655126
      30
0
      11
-25.5
      21
-2.812655126
      31
0
    1001
FS_CYPCUT
    1000
Channel
    1070
2
    1000
LeadIn
    1002
{
    1070
3
    1040
0
    1040
1.5707963267949
    1040
1
    1040
1
    1070
0
    1040
0.5
    1070
0
    1002
}
    1000
LeadOut
    1002
{
    1070
0
    1040
0
    1040
0
    1040
0
    1070
0
    1002
}
    1000
IsFill
    1070
0
    1000
PathStart
    1040
0
    1000
ToolCompensation
    1002
{
    1070
0
    1040
0
    1070
0
    1002
}
       0
LWPOLYLINE
       5
2047
     100
AcDbEntity
       8
1
     100
AcDbPolyline
      90
32
      70
1
      10
25.5
      20
125.374689748
      42
0
      10
25.5
      20
117.244689748
      42
0
      10
22.4
      20
117.244689748
      42
0
      10
22.4
      20
105.044689748
      42
0
      10
25.5
      20
105.044689748
      42
0
      10
25.5
      20
84.984689748
      42
0
      10
22.4
      20
84.984689748
      42
0
      10
22.4
      20
72.784689748
      42
0
      10
25.5
      20
72.784689748
      42
0
      10
25.5
      20
52.724689748
      42
0
      10
22.4
      20
52.724689748
      42
0
      10
22.4
      20
40.524689748
      42
0
      10
25.5
      20
40.524689748
      42
0
      10
25.5
      20
20.464689748
      42
0
      10
22.4
      20
20.464689748
      42
0
      10
22.4
      20
8.264689748
      42
0
      10
25.5
      20
8.264689748
      42
0
      10
25.5000000000001
      20
-168
      42
-0.414213562373088
      10
20.5
      20
-173
      42
0
      10
-20.5
      20
-173
      42
-0.414213562373098
      10
-25.5000000000001
      20
-168
      42
0
      10
-25.5
      20
80.764689748
      42
0
      10
-22.4
      20
80.764689748
      42
0
      10
-22.4
      20
92.964689748
      42
0
      10
-25.5
      20
92.964689748
      42
0
      10
-25.5
      20
105.044689748
      42
0
      10
-22.4
      20
105.044689748
      42
0
      10
-22.4
      20
117.244689748
      42
0
      10
-25.5
      20
117.244689748
      42
0
      10
-25.5
      20
125.374689748
      42
-0.414213562373091
      10
-20.5
      20
130.374689748
      42
0
      10
20.5
      20
130.374689748
      42
-0.414213562373093
    1001
FS_CYPCUT
    1000
Channel
    1070
1
    1000
LeadIn
    1002
{
    1070
3
    1040
20.5
    1040
1.5707963267949
    1040
1
    1040
1
    1070
0
    1040
0.5
    1070
0
    1002
}
    1000
LeadOut
    1002
{
    1070
0
    1040
0
    1040
0
    1040
0
    1070
0
    1002
}
    1000
IsFill
    1070
1
    1000
PathStart
    1040
20.5
    1000
ToolCompensation
    1002
{
    1070
0
    1040
0
    1070
0
    1002
}
    1000
MicroConnect
    1002
{
    1070
3
    1040
16.2812987
    1041
0.6
    1042
0
    1040
18.5
    1041
0.6
    1042
0
    1040
20.8420158
    1041
0.6
    1042
0
    1002
}
       0
ENDBLK
       5
2048
     330
2005
     100
AcDbEntity
       8
0
     100
AcDbBlockEnd
       0
BLOCK
       5
2049
     330
2006
     100
AcDbEntity
       8
0
     100
AcDbBlockBegin
       2
Part1593029442
      70
0
      10
-25.5
      20
-173
      30
0
       3
Part1593029442
       1

       4
CypCutBlock
       0
CIRCLE
       5
204A
     100
AcDbEntity
       8
1
     100
AcDbCircle
      10
0
      20
-151.5
      30
0
      40
5.00000000000003
    1001
FS_CYPCUT
    1000
Channel
    1070
1
    1000
LeadIn
    1002
{
    1070
3
    1040
2.22044604925031E-16
    1040
1.5707963267949
    1040
1
    1040
1
    1070
0
    1040
0.5
    1070
0
    1002
}
    1000
LeadOut
    1002
{
    1070
0
    1040
0
    1040
0
    1040
0
    1070
0
    1002
}
    1000
IsFill
    1070
0
    1000
PathStart
    1040
2.22044604925031E-16
    1000
ToolCompensation
    1002
{
    1070
0
    1040
0
    1070
0
    1002
}
       0
CIRCLE
       5
204B
     100
AcDbEntity
       8
1
     100
AcDbCircle
      10
0
      20
-86.5
      30
0
      40
4.99999999999996
    1001
FS_CYPCUT
    1000
Channel
    1070
1
    1000
LeadIn
    1002
{
    1070
3
    1040
5.55111512312578E-17
    1040
1.5707963267949
    1040
1
    1040
1
    1070
0
    1040
0.5
    1070
0
    1002
}
    1000
LeadOut
    1002
{
    1070
0
    1040
0
    1040
0
    1040
0
    1070
0
    1002
}
    1000
IsFill
    1070
0
    1000
PathStart
    1040
5.55111512312578E-17
    1000
ToolCompensation
    1002
{
    1070
0
    1040
0
    1070
0
    1002
}
       0
CIRCLE
       5
204C
     100
AcDbEntity
       8
1
     100
AcDbCircle
      10
0
      20
-21.5
      30
0
      40
4.99999999999999
    1001
FS_CYPCUT
    1000
Channel
    1070
1
    1000
LeadIn
    1002
{
    1070
3
    1040
0
    1040
1.5707963267949
    1040
1
    1040
1
    1070
0
    1040
0.5
    1070
0
    1002
}
    1000
LeadOut
    1002
{
    1070
0
    1040
0
    1040
0
    1040
0
    1070
0
    1002
}
    1000
IsFill
    1070
0
    1000
PathStart
    1040
1
    1000
ToolCompensation
    1002
{
    1070
0
    1040
0
    1070
0
    1002
}
       0
LINE
       5
204D
     100
AcDbEntity
       8
2
     100
AcDbLine
      10
25.5
      20
-2.812655126
      30
0
      11
-25.5
      21
-2.812655126
      31
0
    1001
FS_CYPCUT
    1000
Channel
    1070
2
    1000
LeadIn
    1002
{
    1070
3
    1040
0
    1040
1.5707963267949
    1040
1
    1040
1
    1070
0
    1040
0.5
    1070
0
    1002
}
    1000
LeadOut
    1002
{
    1070
0
    1040
0
    1040
0
    1040
0
    1070
0
    1002
}
    1000
IsFill
    1070
0
    1000
PathStart
    1040
0
    1000
ToolCompensation
    1002
{
    1070
0
    1040
0
    1070
0
    1002
}
       0
LWPOLYLINE
       5
204E
     100
AcDbEntity
       8
1
     100
AcDbPolyline
      90
32
      70
1
      10
25.5
      20
125.374689748
      42
0
      10
25.5
      20
117.244689748
      42
0
      10
22.4
      20
117.244689748
      42
0
      10
22.4
      20
105.044689748
      42
0
      10
25.5
      20
105.044689748
      42
0
      10
25.5
      20
84.984689748
      42
0
      10
22.4
      20
84.984689748
      42
0
      10
22.4
      20
72.784689748
      42
0
      10
25.5
      20
72.784689748
      42
0
      10
25.5
      20
52.724689748
      42
0
      10
22.4
      20
52.724689748
      42
0
      10
22.4
      20
40.524689748
      42
0
      10
25.5
      20
40.524689748
      42
0
      10
25.5
      20
20.464689748
      42
0
      10
22.4
      20
20.464689748
      42
0
      10
22.4
      20
8.264689748
      42
0
      10
25.5
      20
8.264689748
      42
0
      10
25.5000000000001
      20
-168
      42
-0.414213562373088
      10
20.5
      20
-173
      42
0
      10
-20.5
      20
-173
      42
-0.414213562373098
      10
-25.5000000000001
      20
-168
      42
0
      10
-25.5
      20
80.764689748
      42
0
      10
-22.4
      20
80.764689748
      42
0
      10
-22.4
      20
92.964689748
      42
0
      10
-25.5
      20
92.964689748
      42
0
      10
-25.5
      20
105.044689748
      42
0
      10
-22.4
      20
105.044689748
      42
0
      10
-22.4
      20
117.244689748
      42
0
      10
-25.5
      20
117.244689748
      42
0
      10
-25.5
      20
125.374689748
      42
-0.414213562373091
      10
-20.5
      20
130.374689748
      42
0
      10
20.5
      20
130.374689748
      42
-0.414213562373093
    1001
FS_CYPCUT
    1000
Channel
    1070
1
    1000
LeadIn
    1002
{
    1070
3
    1040
20.5
    1040
1.5707963267949
    1040
1
    1040
1
    1070
0
    1040
0.5
    1070
0
    1002
}
    1000
LeadOut
    1002
{
    1070
0
    1040
0
    1040
0
    1040
0
    1070
0
    1002
}
    1000
IsFill
    1070
1
    1000
PathStart
    1040
20.5
    1000
ToolCompensation
    1002
{
    1070
0
    1040
0
    1070
0
    1002
}
    1000
MicroConnect
    1002
{
    1070
3
    1040
16.2812987
    1041
0.6
    1042
0
    1040
18.5
    1041
0.6
    1042
0
    1040
20.8420158
    1041
0.6
    1042
0
    1002
}
       0
ENDBLK
       5
204F
     330
2006
     100
AcDbEntity
       8
0
     100
AcDbBlockEnd
       0
BLOCK
       5
2050
     330
2007
     100
AcDbEntity
       8
0
     100
AcDbBlockBegin
       2
Part836667496
      70
0
      10
-1001.13708
      20
-187.249379
      30
0
       3
Part836667496
       1

       4
CypCutBlock
       0
LWPOLYLINE
       5
2051
     100
AcDbEntity
       8
1
     100
AcDbPolyline
      90
4
      70
1
      10
-878.5663056034
      20
-132.374689748
      42
0
      10
-890.5663056034
      20
-132.374689748
      42
-1
      10
-890.5663056034
      20
-122.374689748
      42
0
      10
-878.5663056034
      20
-122.374689748
      42
-1
    1001
FS_CYPCUT
    1000
Channel
    1070
1
    1000
LeadIn
    1002
{
    1070
3
    1040
0.5
    1040
1.5707963267949
    1040
1
    1040
1
    1070
0
    1040
0.5
    1070
0
    1002
}
    1000
LeadOut
    1002
{
    1070
0
    1040
0
    1040
0
    1040
0
    1070
0
    1002
}
    1000
IsFill
    1070
0
    1000
PathStart
    1040
0.5
    1000
ToolCompensation
    1002
{
    1070
0
    1040
0
    1070
0
    1002
}
       0
LWPOLYLINE
       5
2052
     100
AcDbEntity
       8
1
     100
AcDbPolyline
      90
4
      70
1
      10
-752.8563056034
      20
-132.374689748
      42
1
      10
-752.8563056034
      20
-122.374689748
      42
0
      10
-764.8563056034
      20
-122.374689748
      42
1
      10
-764.8563056034
      20
-132.374689748
      42
0
    1001
FS_CYPCUT
    1000
Channel
    1070
1
    1000
LeadIn
    1002
{
    1070
3
    1040
1.5
    1040
1.5707963267949
    1040
1
    1040
1
    1070
0
    1040
0.5
    1070
0
    1002
}
    1000
LeadOut
    1002
{
    1070
0
    1040
0
    1040
0
    1040
0
    1070
0
    1002
}
    1000
IsFill
    1070
0
    1000
PathStart
    1040
1.5
    1000
ToolCompensation
    1002
{
    1070
0
    1040
0
    1070
0
    1002
}
       0
LINE
       5
2053
     100
AcDbEntity
       8
2
     100
AcDbLine
      10
-911.3463056034
      20
-150.0620346219
      30
0
      11
885.93
      21
-150.0620346219
      31
0
    1001
FS_CYPCUT
    1000
Channel
    1070
2
    1000
LeadIn
    1002
{
    1070
3
    1040
0
    1040
1.5707963267949
    1040
0.020024722542023
    1040
1
    1070
0
    1040
0.5
    1070
0
    1002
}
    1000
LeadOut
    1002
{
    1070
0
    1040
0
    1040
0
    1040
0
    1070
0
    1002
}
    1000
IsFill
    1070
0
    1000
PathStart
    1040
0
    1000
ToolCompensation
    1002
{
    1070
0
    1040
0
    1070
0
    1002
}
       0
LINE
       5
2054
     100
AcDbEntity
       8
2
     100
AcDbLine
      10
885.93
      20
-104.687344874
      30
0
      11
-911.3463056034
      21
-104.687344874
      31
0
    1001
FS_CYPCUT
    1000
Channel
    1070
2
    1000
LeadIn
    1002
{
    1070
3
    1040
0
    1040
1.5707963267949
    1040
0.0200247225255695
    1040
1
    1070
0
    1040
0.5
    1070
0
    1002
}
    1000
LeadOut
    1002
{
    1070
0
    1040
0
    1040
0
    1040
0
    1070
0
    1002
}
    1000
IsFill
    1070
0
    1000
PathStart
    1040
0
    1000
ToolCompensation
    1002
{
    1070
0
    1040
0
    1070
0
    1002
}
       0
LINE
       5
2055
     100
AcDbEntity
       8
2
     100
AcDbLine
      10
-885.93
      20
104.687344874
      30
0
      11
911.3463056034
      21
104.687344874
      31
0
    1001
FS_CYPCUT
    1000
Channel
    1070
2
    1000
LeadIn
    1002
{
    1070
3
    1040
0
    1040
1.5707963267949
    1040
0.0200247225255695
    1040
1
    1070
0
    1040
0.5
    1070
0
    1002
}
    1000
LeadOut
    1002
{
    1070
0
    1040
0
    1040
0
    1040
0
    1070
0
    1002
}
    1000
IsFill
    1070
0
    1000
PathStart
    1040
0
    1000
ToolCompensation
    1002
{
    1070
0
    1040
0
    1070
0
    1002
}
       0
LINE
       5
2056
     100
AcDbEntity
       8
2
     100
AcDbLine
      10
911.3463056034
      20
150.0620346219
      30
0
      11
-885.93
      21
150.0620346219
      31
0
    1001
FS_CYPCUT
    1000
Channel
    1070
2
    1000
LeadIn
    1002
{
    1070
3
    1040
0
    1040
1.5707963267949
    1040
0.020024722542023
    1040
1
    1070
0
    1040
0.5
    1070
0
    1002
}
    1000
LeadOut
    1002
{
    1070
0
    1040
0
    1040
0
    1040
0
    1070
0
    1002
}
    1000
IsFill
    1070
0
    1000
PathStart
    1040
0
    1000
ToolCompensation
    1002
{
    1070
0
    1040
0
    1070
0
    1002
}
       0
LWPOLYLINE
       5
2057
     100
AcDbEntity
       8
1
     100
AcDbPolyline
      90
4
      70
1
      10
543.4336943966
      20
-132.374689748
      42
1
      10
543.4336943966
      20
-122.374689748
      42
0
      10
531.4336943966
      20
-122.374689748
      42
1
      10
531.4336943966
      20
-132.374689748
      42
0
    1001
FS_CYPCUT
    1000
Channel
    1070
1
    1000
LeadIn
    1002
{
    1070
3
    1040
1.5
    1040
1.5707963267949
    1040
1
    1040
1
    1070
0
    1040
0.5
    1070
0
    1002
}
    1000
LeadOut
    1002
{
    1070
0
    1040
0
    1040
0
    1040
0
    1070
0
    1002
}
    1000
IsFill
    1070
0
    1000
PathStart
    1040
1.5
    1000
ToolCompensation
    1002
{
    1070
0
    1040
0
    1070
0
    1002
}
       0
LWPOLYLINE
       5
2058
     100
AcDbEntity
       8
1
     100
AcDbPolyline
      90
4
      70
1
      10
669.1436943966
      20
-132.374689748
      42
1
      10
669.1436943966
      20
-122.374689748
      42
0
      10
657.1436943966
      20
-122.374689748
      42
1
      10
657.1436943966
      20
-132.374689748
      42
0
    1001
FS_CYPCUT
    1000
Channel
    1070
1
    1000
LeadIn
    1002
{
    1070
3
    1040
1.5
    1040
1.5707963267949
    1040
1
    1040
1
    1070
0
    1040
0.5
    1070
0
    1002
}
    1000
LeadOut
    1002
{
    1070
0
    1040
0
    1040
0
    1040
0
    1070
0
    1002
}
    1000
IsFill
    1070
0
    1000
PathStart
    1040
1.5
    1000
ToolCompensation
    1002
{
    1070
0
    1040
0
    1070
0
    1002
}
       0
LWPOLYLINE
       5
2059
     100
AcDbEntity
       8
1
     100
AcDbPolyline
      90
72
      70
1
      10
999.6726188958
      20
9.1726188958
      42
0
      10
888.86
      20
-101.64
      42
0
      10
883
      20
-107.734689748
      42
0
      10
883
      20
-147.014689748
      42
0
      10
888.86
      20
-153.1093794959
      42
0
      10
923
      20
-187.2493794959
      42
0
      10
-948.4163056034
      20
-187.2493794959
      42
0
      10
-944.1736649163
      20
-183.0067388088
      42
0
      10
-946.2949852599
      20
-180.8854184652
      42
0
      10
-937.8097038856
      20
-172.400137091
      42
0
      10
-935.6883835421
      20
-174.5214574346
      42
0
      10
-927.0051122691
      20
-165.8381861616
      42
0
      10
-929.1264326127
      20
-163.716865818
      42
0
      10
-920.6411512384
      20
-155.2315844438
      42
0
      10
-918.5198308949
      20
-157.3529047874
      42
0
      10
-914.2763056034
      20
-153.1093794959
      42
0
      10
-908.4163056034
      20
-147.014689748
      42
0
      10
-908.4163056034
      20
-107.734689748
      42
0
      10
-914.2763056034
      20
-101.64
      42
0
      10
-918.5109025512
      20
-97.4054030522
      42
0
      10
-920.6322228948
      20
-99.5267233958
      42
0
      10
-929.117504269
      20
-91.0414420216
      42
0
      10
-926.9961839254
      20
-88.920121678
      42
0
      10
-941.3221673123
      20
-74.5941382912
      42
0
      10
-943.4434876558
      20
-76.7154586347
      42
0
      10
-951.9287690301
      20
-68.2301772605
      42
0
      10
-949.8074486865
      20
-66.1088569169
      42
0
      10
-964.1334320733
      20
-51.7828735301
      42
0
      10
-966.2547524169
      20
-53.9041938736
      42
0
      10
-974.7400337911
      20
-45.4189124994
      42
0
      10
-972.6187134476
      20
-43.2975921558
      42
0
      10
-986.9446968344
      20
-28.971608769
      42
0
      10
-989.066017178
      20
-31.0929291126
      42
0
      10
-997.5512985522
      20
-22.6076477383
      42
0
      10
-995.4299782087
      20
-20.4863273948
      42
0
      10
-999.672618895733
      20
-16.2436867076331
      42
-0.414213562373104
      10
-999.672618895733
      20
-9.1726188957669
      42
0
      10
-888.86
      20
101.64
      42
0
      10
-883
      20
107.734689748
      42
0
      10
-883
      20
147.014689748
      42
0
      10
-888.86
      20
153.1093794959
      42
0
      10
-923
      20
187.2493794959
      42
0
      10
948.4163056034
      20
187.2493794959
      42
0
      10
944.1736649163
      20
183.0067388088
      42
0
      10
946.2949852599
      20
180.8854184652
      42
0
      10
937.8097038856
      20
172.400137091
      42
0
      10
935.6883835421
      20
174.5214574346
      42
0
      10
927.0051122691
      20
165.8381861616
      42
0
      10
929.1264326127
      20
163.716865818
      42
0
      10
920.6411512384
      20
155.2315844438
      42
0
      10
918.5198308949
      20
157.3529047874
      42
0
      10
914.2763056034
      20
153.1093794959
      42
0
      10
908.4163056034
      20
147.014689748
      42
0
      10
908.4163056034
      20
107.734689748
      42
0
      10
914.2763056034
      20
101.64
      42
0
      10
918.5109025512
      20
97.4054030522
      42
0
      10
920.6322228948
      20
99.5267233958
      42
0
      10
929.117504269
      20
91.0414420216
      42
0
      10
926.9961839254
      20
88.920121678
      42
0
      10
941.3221673123
      20
74.5941382912
      42
0
      10
943.4434876558
      20
76.7154586347
      42
0
      10
951.9287690301
      20
68.2301772605
      42
0
      10
949.8074486865
      20
66.1088569169
      42
0
      10
964.1334320733
      20
51.7828735301
      42
0
      10
966.2547524169
      20
53.9041938736
      42
0
      10
974.7400337911
      20
45.4189124994
      42
0
      10
972.6187134476
      20
43.2975921558
      42
0
      10
986.9446968344
      20
28.971608769
      42
0
      10
989.066017178
      20
31.0929291126
      42
0
      10
997.5512985522
      20
22.6076477383
      42
0
      10
995.4299782087
      20
20.4863273948
      42
0
      10
999.6726188958
      20
16.2436867076
      42
-0.414213562373084
    1001
FS_CYPCUT
    1000
Channel
    1070
1
    1000
LeadIn
    1002
{
    1070
3
    1040
5.5
    1040
1.5707963267949
    1040
1
    1040
1
    1070
0
    1040
0.5
    1070
0
    1002
}
    1000
LeadOut
    1002
{
    1070
0
    1040
0
    1040
0
    1040
0
    1070
0
    1002
}
    1000
IsFill
    1070
1
    1000
PathStart
    1040
5.5
    1000
ToolCompensation
    1002
{
    1070
0
    1040
0
    1070
0
    1002
}
    1000
MicroConnect
    1002
{
    1070
6
    1040
5.12060546
    1041
0.6
    1042
0
    1040
5.54872819
    1041
0.6
    1042
0
    1040
5.94839564
    1041
0.6
    1042
0
    1040
41.1078678
    1041
0.6
    1042
0
    1040
41.4958945
    1041
0.6
    1042
0
    1040
41.8502922
    1041
0.6
    1042
0
    1002
}
       0
ENDBLK
       5
205A
     330
2007
     100
AcDbEntity
       8
0
     100
AcDbBlockEnd
       0
BLOCK
       5
205B
     330
2008
     100
AcDbEntity
       8
0
     100
AcDbBlockBegin
       2
CommonPart
      70
0
      10
1135.5967
      20
922.12411
      30
0
       3
CommonPart
       1

       4
CypCutBlock
       0
LINE
       5
205C
     100
AcDbEntity
       8
2
     100
AcDbLine
      10
1186.5967
      20
1092.311455126
      30
0
      11
1135.5967
      21
1092.311455126
      31
0
    1001
FS_CYPCUT
    1000
Channel
    1070
2
    1000
LeadIn
    1002
{
    1070
3
    1040
0
    1040
1.5707963267949
    1040
1
    1040
1
    1070
0
    1040
0.5
    1070
0
    1002
}
    1000
LeadOut
    1002
{
    1070
0
    1040
0
    1040
0
    1040
0
    1070
0
    1002
}
    1000
IsFill
    1070
0
    1000
PathStart
    1040
0
    1000
ToolCompensation
    1002
{
    1070
0
    1040
0
    1070
0
    1002
}
       0
CIRCLE
       5
205D
     100
AcDbEntity
       8
1
     100
AcDbCircle
      10
1161.0967
      20
1073.624110252
      30
0
      40
5
    1001
FS_CYPCUT
    1000
Channel
    1070
1
    1000
LeadIn
    1002
{
    1070
3
    1040
0
    1040
1.5707963267949
    1040
1
    1040
1
    1070
0
    1040
0.5
    1070
0
    1002
}
    1000
LeadOut
    1002
{
    1070
0
    1040
0
    1040
0
    1040
0
    1070
0
    1002
}
    1000
IsFill
    1070
0
    1000
PathStart
    1040
0
    1000
ToolCompensation
    1002
{
    1070
0
    1040
0
    1070
0
    1002
}
       0
CIRCLE
       5
205E
     100
AcDbEntity
       8
1
     100
AcDbCircle
      10
1161.0967
      20
1008.624110252
      30
0
      40
5
    1001
FS_CYPCUT
    1000
Channel
    1070
1
    1000
LeadIn
    1002
{
    1070
3
    1040
5.55111512312578E-17
    1040
1.5707963267949
    1040
1
    1040
1
    1070
0
    1040
0.5
    1070
0
    1002
}
    1000
LeadOut
    1002
{
    1070
0
    1040
0
    1040
0
    1040
0
    1070
0
    1002
}
    1000
IsFill
    1070
0
    1000
PathStart
    1040
5.55111512312578E-17
    1000
ToolCompensation
    1002
{
    1070
0
    1040
0
    1070
0
    1002
}
       0
CIRCLE
       5
205F
     100
AcDbEntity
       8
1
     100
AcDbCircle
      10
1161.0967
      20
943.624110252
      30
0
      40
5
    1001
FS_CYPCUT
    1000
Channel
    1070
1
    1000
LeadIn
    1002
{
    1070
3
    1040
2.22044604925031E-16
    1040
1.5707963267949
    1040
1
    1040
1
    1070
0
    1040
0.5
    1070
0
    1002
}
    1000
LeadOut
    1002
{
    1070
0
    1040
0
    1040
0
    1040
0
    1070
0
    1002
}
    1000
IsFill
    1070
0
    1000
PathStart
    1040
2.22044604925031E-16
    1000
ToolCompensation
    1002
{
    1070
0
    1040
0
    1070
0
    1002
}
       0
LWPOLYLINE
       5
2060
     100
AcDbEntity
       8
1
     100
AcDbPolyline
      90
32
      70
0
      10
1140.5967
      20
1225.4988
      42
0.414213562373093
      10
1135.5967
      20
1220.4988
      42
0
      10
1135.5967
      20
1212.3688
      42
0
      10
1138.6967
      20
1212.3688
      42
0
      10
1138.6967
      20
1200.1688
      42
0
      10
1135.5967
      20
1200.1688
      42
0
      10
1135.5967
      20
1180.1088
      42
0
      10
1138.6967
      20
1180.1088
      42
0
      10
1138.6967
      20
1167.9088
      42
0
      10
1135.5967
      20
1167.9088
      42
0
      10
1135.5967
      20
1147.8488
      42
0
      10
1138.6967
      20
1147.8488
      42
0
      10
1138.6967
      20
1135.6488
      42
0
      10
1135.5967
      20
1135.6488
      42
0
      10
1135.5967
      20
1115.5888
      42
0
      10
1138.6967
      20
1115.5888
      42
0
      10
1138.6967
      20
1103.3888
      42
0
      10
1135.5967
      20
1103.3888
      42
0
      10
1135.5967
      20
927.124110252
      42
0.414213562373088
      10
1140.5967
      20
922.124110252
      42
0
      10
1181.5967
      20
922.124110252
      42
0.414213562373098
      10
1186.5967
      20
927.124110252
      42
0
      10
1186.5967
      20
1175.8888
      42
0
      10
1183.4967
      20
1175.8888
      42
0
      10
1183.4967
      20
1188.0888
      42
0
      10
1186.5967
      20
1188.0888
      42
0
      10
1186.5967
      20
1200.1688
      42
0
      10
1183.4967
      20
1200.1688
      42
0
      10
1183.4967
      20
1212.3688
      42
0
      10
1186.5967
      20
1212.3688
      42
0
      10
1186.5967
      20
1220.4988
      42
0.414213562373091
      10
1181.5967
      20
1225.4988
      42
0
    1001
FS_CYPCUT
    1000
Channel
    1070
1
    1000
LeadIn
    1002
{
    1070
0
    1040
0
    1040
0
    1040
0
    1040
0
    1070
0
    1040
0
    1070
0
    1002
}
    1000
LeadOut
    1002
{
    1070
0
    1040
0
    1040
0
    1040
0
    1070
0
    1002
}
    1000
IsFill
    1070
1
    1000
PathStart
    1040
0
    1000
ToolCompensation
    1002
{
    1070
0
    1040
0
    1070
0
    1002
}
    1000
MicroConnect
    1002
{
    1070
1
    1040
0
    1041
0
    1042
0
    1002
}
       0
LINE
       5
2061
     100
AcDbEntity
       8
2
     100
AcDbLine
      10
1186.5967
      20
1395.686255126
      30
0
      11
1135.5967
      21
1395.686255126
      31
0
    1001
FS_CYPCUT
    1000
Channel
    1070
2
    1000
LeadIn
    1002
{
    1070
3
    1040
0
    1040
1.5707963267949
    1040
1
    1040
1
    1070
0
    1040
0.5
    1070
0
    1002
}
    1000
LeadOut
    1002
{
    1070
0
    1040
0
    1040
0
    1040
0
    1070
0
    1002
}
    1000
IsFill
    1070
0
    1000
PathStart
    1040
0
    1000
ToolCompensation
    1002
{
    1070
0
    1040
0
    1070
0
    1002
}
       0
CIRCLE
       5
2062
     100
AcDbEntity
       8
1
     100
AcDbCircle
      10
1161.0967
      20
1376.998910252
      30
0
      40
5
    1001
FS_CYPCUT
    1000
Channel
    1070
1
    1000
LeadIn
    1002
{
    1070
3
    1040
0
    1040
1.5707963267949
    1040
1
    1040
1
    1070
0
    1040
0.5
    1070
0
    1002
}
    1000
LeadOut
    1002
{
    1070
0
    1040
0
    1040
0
    1040
0
    1070
0
    1002
}
    1000
IsFill
    1070
0
    1000
PathStart
    1040
0
    1000
ToolCompensation
    1002
{
    1070
0
    1040
0
    1070
0
    1002
}
       0
CIRCLE
       5
2063
     100
AcDbEntity
       8
1
     100
AcDbCircle
      10
1161.0967
      20
1311.998910252
      30
0
      40
5
    1001
FS_CYPCUT
    1000
Channel
    1070
1
    1000
LeadIn
    1002
{
    1070
3
    1040
5.55111512312578E-17
    1040
1.5707963267949
    1040
1
    1040
1
    1070
0
    1040
0.5
    1070
0
    1002
}
    1000
LeadOut
    1002
{
    1070
0
    1040
0
    1040
0
    1040
0
    1070
0
    1002
}
    1000
IsFill
    1070
0
    1000
PathStart
    1040
5.55111512312578E-17
    1000
ToolCompensation
    1002
{
    1070
0
    1040
0
    1070
0
    1002
}
       0
CIRCLE
       5
2064
     100
AcDbEntity
       8
1
     100
AcDbCircle
      10
1161.0967
      20
1246.998910252
      30
0
      40
5
    1001
FS_CYPCUT
    1000
Channel
    1070
1
    1000
LeadIn
    1002
{
    1070
3
    1040
2.22044604925031E-16
    1040
1.5707963267949
    1040
1
    1040
1
    1070
0
    1040
0.5
    1070
0
    1002
}
    1000
LeadOut
    1002
{
    1070
0
    1040
0
    1040
0
    1040
0
    1070
0
    1002
}
    1000
IsFill
    1070
0
    1000
PathStart
    1040
2.22044604925031E-16
    1000
ToolCompensation
    1002
{
    1070
0
    1040
0
    1070
0
    1002
}
       0
LWPOLYLINE
       5
2065
     100
AcDbEntity
       8
1
     100
AcDbPolyline
      90
32
      70
1
      10
1181.5967
      20
1225.498910252
      42
0
      10
1140.5967
      20
1225.498910252
      42
-0.414213562373088
      10
1135.5967
      20
1230.498910252
      42
0
      10
1135.5967
      20
1406.7636
      42
0
      10
1138.6967
      20
1406.7636
      42
0
      10
1138.6967
      20
1418.9636
      42
0
      10
1135.5967
      20
1418.9636
      42
0
      10
1135.5967
      20
1439.0236
      42
0
      10
1138.6967
      20
1439.0236
      42
0
      10
1138.6967
      20
1451.2236
      42
0
      10
1135.5967
      20
1451.2236
      42
0
      10
1135.5967
      20
1471.2836
      42
0
      10
1138.6967
      20
1471.2836
      42
0
      10
1138.6967
      20
1483.4836
      42
0
      10
1135.5967
      20
1483.4836
      42
0
      10
1135.5967
      20
1503.5436
      42
0
      10
1138.6967
      20
1503.5436
      42
0
      10
1138.6967
      20
1515.7436
      42
0
      10
1135.5967
      20
1515.7436
      42
0
      10
1135.5967
      20
1523.8736
      42
-0.414213562373093
      10
1140.5967
      20
1528.8736
      42
0
      10
1181.5967
      20
1528.8736
      42
-0.414213562373091
      10
1186.5967
      20
1523.8736
      42
0
      10
1186.5967
      20
1515.7436
      42
0
      10
1183.4967
      20
1515.7436
      42
0
      10
1183.4967
      20
1503.5436
      42
0
      10
1186.5967
      20
1503.5436
      42
0
      10
1186.5967
      20
1491.4636
      42
0
      10
1183.4967
      20
1491.4636
      42
0
      10
1183.4967
      20
1479.2636
      42
0
      10
1186.5967
      20
1479.2636
      42
0
      10
1186.5967
      20
1230.498910252
      42
-0.414213562373098
    1001
FS_CYPCUT
    1000
Channel
    1070
1
    1000
LeadIn
    1002
{
    1070
0
    1040
1.00000000000001
    1040
1.5707963267949
    1040
1
    1040
1
    1070
0
    1040
0.5
    1070
0
    1002
}
    1000
LeadOut
    1002
{
    1070
0
    1040
0
    1040
0
    1040
0
    1070
0
    1002
}
    1000
IsFill
    1070
1
    1000
PathStart
    1040
1.00000000000001
    1000
ToolCompensation
    1002
{
    1070
0
    1040
0
    1070
0
    1002
}
       0
ENDBLK
       5
2066
     330
2008
     100
AcDbEntity
       8
0
     100
AcDbBlockEnd
       0
BLOCK
       5
2067
     330
2009
     100
AcDbEntity
       8
0
     100
AcDbBlockBegin
       2
Part1636236885
      70
0
      10
-1391.13708
      20
-187.249379
      30
0
       3
Part1636236885
       1

       4
CypCutBlock
       0
LWPOLYLINE
       5
2068
     100
AcDbEntity
       8
1
     100
AcDbPolyline
      90
4
      70
1
      10
-1268.5636943966
      20
132.374689748
      42
0
      10
-1280.5636943966
      20
132.374689748
      42
1
      10
-1280.5636943966
      20
122.374689748
      42
0
      10
-1268.5636943966
      20
122.374689748
      42
1
    1001
FS_CYPCUT
    1000
Channel
    1070
1
    1000
LeadIn
    1002
{
    1070
3
    1040
0.5
    1040
1.5707963267949
    1040
1
    1040
1
    1070
0
    1040
0.5
    1070
0
    1002
}
    1000
LeadOut
    1002
{
    1070
0
    1040
0
    1040
0
    1040
0
    1070
0
    1002
}
    1000
IsFill
    1070
0
    1000
PathStart
    1040
0.5
    1000
ToolCompensation
    1002
{
    1070
0
    1040
0
    1070
0
    1002
}
       0
LWPOLYLINE
       5
2069
     100
AcDbEntity
       8
1
     100
AcDbPolyline
      90
4
      70
1
      10
-1142.8536943966
      20
132.374689748
      42
-1
      10
-1142.8536943966
      20
122.374689748
      42
0
      10
-1154.8536943966
      20
122.374689748
      42
-1
      10
-1154.8536943966
      20
132.374689748
      42
0
    1001
FS_CYPCUT
    1000
Channel
    1070
1
    1000
LeadIn
    1002
{
    1070
3
    1040
1.5
    1040
1.5707963267949
    1040
1
    1040
1
    1070
0
    1040
0.5
    1070
0
    1002
}
    1000
LeadOut
    1002
{
    1070
0
    1040
0
    1040
0
    1040
0
    1070
0
    1002
}
    1000
IsFill
    1070
0
    1000
PathStart
    1040
1.5
    1000
ToolCompensation
    1002
{
    1070
0
    1040
0
    1070
0
    1002
}
       0
LINE
       5
206A
     100
AcDbEntity
       8
2
     100
AcDbLine
      10
-1301.3463056034
      20
150.0620346219
      30
0
      11
1301.3463056034
      21
150.0620346219
      31
0
    1001
FS_CYPCUT
    1000
Channel
    1070
2
    1000
LeadIn
    1002
{
    1070
3
    1040
0
    1040
1.5707963267949
    1040
0.0200247225420426
    1040
1
    1070
0
    1040
0.5
    1070
0
    1002
}
    1000
LeadOut
    1002
{
    1070
0
    1040
0
    1040
0
    1040
0
    1070
0
    1002
}
    1000
IsFill
    1070
0
    1000
PathStart
    1040
0
    1000
ToolCompensation
    1002
{
    1070
0
    1040
0
    1070
0
    1002
}
       0
LINE
       5
206B
     100
AcDbEntity
       8
2
     100
AcDbLine
      10
1301.3463056034
      20
104.687344874
      30
0
      11
-1301.3463056034
      21
104.687344874
      31
0
    1001
FS_CYPCUT
    1000
Channel
    1070
2
    1000
LeadIn
    1002
{
    1070
3
    1040
0
    1040
1.5707963267949
    1040
0.0200247225255889
    1040
1
    1070
0
    1040
0.5
    1070
0
    1002
}
    1000
LeadOut
    1002
{
    1070
0
    1040
0
    1040
0
    1040
0
    1070
0
    1002
}
    1000
IsFill
    1070
0
    1000
PathStart
    1040
0
    1000
ToolCompensation
    1002
{
    1070
0
    1040
0
    1070
0
    1002
}
       0
LWPOLYLINE
       5
206C
     100
AcDbEntity
       8
1
     100
AcDbPolyline
      90
4
      70
1
      10
-56.8536943966
      20
132.374689748
      42
-0.999999999999999
      10
-56.8536943966
      20
122.374689748
      42
0
      10
-68.8536943966
      20
122.374689748
      42
-0.999999999999997
      10
-68.8536943966
      20
132.374689748
      42
0
    1001
FS_CYPCUT
    1000
Channel
    1070
1
    1000
LeadIn
    1002
{
    1070
3
    1040
1.5
    1040
1.5707963267949
    1040
1
    1040
1
    1070
0
    1040
0.5
    1070
0
    1002
}
    1000
LeadOut
    1002
{
    1070
0
    1040
0
    1040
0
    1040
0
    1070
0
    1002
}
    1000
IsFill
    1070
0
    1000
PathStart
    1040
1.5
    1000
ToolCompensation
    1002
{
    1070
0
    1040
0
    1070
0
    1002
}
       0
LWPOLYLINE
       5
206D
     100
AcDbEntity
       8
1
     100
AcDbPolyline
      90
4
      70
1
      10
68.8563056034
      20
132.374689748
      42
0
      10
56.8563056034
      20
132.374689748
      42
0.999999999999997
      10
56.8563056034
      20
122.374689748
      42
0
      10
68.8563056034
      20
122.374689748
      42
1
    1001
FS_CYPCUT
    1000
Channel
    1070
1
    1000
LeadIn
    1002
{
    1070
3
    1040
0.5
    1040
1.5707963267949
    1040
1
    1040
1
    1070
0
    1040
0.5
    1070
0
    1002
}
    1000
LeadOut
    1002
{
    1070
0
    1040
0
    1040
0
    1040
0
    1070
0
    1002
}
    1000
IsFill
    1070
0
    1000
PathStart
    1040
0.5
    1000
ToolCompensation
    1002
{
    1070
0
    1040
0
    1070
0
    1002
}
       0
LINE
       5
206E
     100
AcDbEntity
       8
2
     100
AcDbLine
      10
1275.93
      20
-104.687344874
      30
0
      11
-1275.93
      21
-104.687344874
      31
0
    1001
FS_CYPCUT
    1000
Channel
    1070
2
    1000
LeadIn
    1002
{
    1070
3
    1040
0
    1040
1.5707963267949
    1040
1
    1040
1
    1070
0
    1040
0.5
    1070
0
    1002
}
    1000
LeadOut
    1002
{
    1070
0
    1040
0
    1040
0
    1040
0
    1070
0
    1002
}
    1000
IsFill
    1070
0
    1000
PathStart
    1040
0
    1000
ToolCompensation
    1002
{
    1070
0
    1040
0
    1070
0
    1002
}
       0
LINE
       5
206F
     100
AcDbEntity
       8
2
     100
AcDbLine
      10
-1275.93
      20
-150.0620346219
      30
0
      11
1275.93
      21
-150.0620346219
      31
0
    1001
FS_CYPCUT
    1000
Channel
    1070
2
    1000
LeadIn
    1002
{
    1070
3
    1040
0
    1040
1.5707963267949
    1040
1
    1040
1
    1070
0
    1040
0.5
    1070
0
    1002
}
    1000
LeadOut
    1002
{
    1070
0
    1040
0
    1040
0
    1040
0
    1070
0
    1002
}
    1000
IsFill
    1070
0
    1000
PathStart
    1040
0
    1000
ToolCompensation
    1002
{
    1070
0
    1040
0
    1070
0
    1002
}
       0
LWPOLYLINE
       5
2070
     100
AcDbEntity
       8
1
     100
AcDbPolyline
      90
4
      70
1
      10
1154.8563056034
      20
132.374689748
      42
0
      10
1142.8563056034
      20
132.374689748
      42
1
      10
1142.8563056034
      20
122.374689748
      42
0
      10
1154.8563056034
      20
122.374689748
      42
1
    1001
FS_CYPCUT
    1000
Channel
    1070
1
    1000
LeadIn
    1002
{
    1070
3
    1040
0.5
    1040
1.5707963267949
    1040
1
    1040
1
    1070
0
    1040
0.5
    1070
0
    1002
}
    1000
LeadOut
    1002
{
    1070
0
    1040
0
    1040
0
    1040
0
    1070
0
    1002
}
    1000
IsFill
    1070
0
    1000
PathStart
    1040
0.5
    1000
ToolCompensation
    1002
{
    1070
0
    1040
0
    1070
0
    1002
}
       0
LWPOLYLINE
       5
2071
     100
AcDbEntity
       8
1
     100
AcDbPolyline
      90
4
      70
1
      10
1280.5663056034
      20
132.374689748
      42
0
      10
1268.5663056034
      20
132.374689748
      42
1
      10
1268.5663056034
      20
122.374689748
      42
0
      10
1280.5663056034
      20
122.374689748
      42
1
    1001
FS_CYPCUT
    1000
Channel
    1070
1
    1000
LeadIn
    1002
{
    1070
3
    1040
0.5
    1040
1.5707963267949
    1040
1
    1040
1
    1070
0
    1040
0.5
    1070
0
    1002
}
    1000
LeadOut
    1002
{
    1070
0
    1040
0
    1040
0
    1040
0
    1070
0
    1002
}
    1000
IsFill
    1070
0
    1000
PathStart
    1040
0.5
    1000
ToolCompensation
    1002
{
    1070
0
    1040
0
    1070
0
    1002
}
       0
LWPOLYLINE
       5
2072
     100
AcDbEntity
       8
1
     100
AcDbPolyline
      90
72
      70
1
      10
1389.6726188958
      20
16.2436867076
      42
0
      10
1385.4299782087
      20
20.4863273948
      42
0
      10
1387.5512985522
      20
22.6076477383
      42
0
      10
1379.066017178
      20
31.0929291126
      42
0
      10
1376.9446968344
      20
28.971608769
      42
0
      10
1362.6187134476
      20
43.2975921558
      42
0
      10
1364.7400337911
      20
45.4189124994
      42
0
      10
1356.2547524169
      20
53.9041938736
      42
0
      10
1354.1334320733
      20
51.7828735301
      42
0
      10
1339.8074486865
      20
66.1088569169
      42
0
      10
1341.9287690301
      20
68.2301772605
      42
0
      10
1333.4434876558
      20
76.7154586347
      42
0
      10
1331.3221673123
      20
74.5941382912
      42
0
      10
1316.9961839254
      20
88.920121678
      42
0
      10
1319.117504269
      20
91.0414420216
      42
0
      10
1310.6322228948
      20
99.5267233958
      42
0
      10
1308.5109025512
      20
97.4054030522
      42
0
      10
1304.2763056034
      20
101.64
      42
0
      10
1298.4163056034
      20
107.734689748
      42
0
      10
1298.4163056034
      20
147.014689748
      42
0
      10
1304.2763056034
      20
153.1093794959
      42
0
      10
1308.5198308949
      20
157.3529047874
      42
0
      10
1310.6411512384
      20
155.2315844438
      42
0
      10
1319.1264326127
      20
163.716865818
      42
0
      10
1317.0051122691
      20
165.8381861616
      42
0
      10
1325.6883835421
      20
174.5214574346
      42
0
      10
1327.8097038856
      20
172.400137091
      42
0
      10
1336.2949852599
      20
180.8854184652
      42
0
      10
1334.1736649163
      20
183.0067388088
      42
0
      10
1338.4163056034
      20
187.2493794959
      42
0
      10
-1338.4163056034
      20
187.2493794959
      42
0
      10
-1334.1736649163
      20
183.0067388088
      42
0
      10
-1336.2949852599
      20
180.8854184652
      42
0
      10
-1327.8097038856
      20
172.400137091
      42
0
      10
-1325.6883835421
      20
174.5214574346
      42
0
      10
-1317.0051122691
      20
165.8381861616
      42
0
      10
-1319.1264326127
      20
163.716865818
      42
0
      10
-1310.6411512384
      20
155.2315844438
      42
0
      10
-1308.5198308949
      20
157.3529047874
      42
0
      10
-1304.2763056034
      20
153.1093794959
      42
0
      10
-1298.4163056034
      20
147.014689748
      42
0
      10
-1298.4163056034
      20
107.734689748
      42
0
      10
-1304.2763056034
      20
101.64
      42
0
      10
-1308.5109025512
      20
97.4054030522
      42
0
      10
-1310.6322228947
      20
99.5267233958
      42
0
      10
-1319.117504269
      20
91.0414420216
      42
0
      10
-1316.9961839254
      20
88.920121678
      42
0
      10
-1331.3221673123
      20
74.5941382912
      42
0
      10
-1333.4434876558
      20
76.7154586347
      42
0
      10
-1341.9287690301
      20
68.2301772605
      42
0
      10
-1339.8074486865
      20
66.1088569169
      42
0
      10
-1354.1334320733
      20
51.7828735301
      42
0
      10
-1356.2547524169
      20
53.9041938736
      42
0
      10
-1364.7400337911
      20
45.4189124994
      42
0
      10
-1362.6187134476
      20
43.2975921558
      42
0
      10
-1376.9446968344
      20
28.971608769
      42
0
      10
-1379.066017178
      20
31.0929291126
      42
0
      10
-1387.5512985522
      20
22.6076477383
      42
0
      10
-1385.4299782087
      20
20.4863273948
      42
0
      10
-1389.6726188958
      20
16.2436867076
      42
0.414213562373106
      10
-1389.67261889573
      20
9.17261889576722
      42
0
      10
-1278.86
      20
-101.64
      42
0
      10
-1273
      20
-107.734689748
      42
0
      10
-1273
      20
-147.014689748
      42
0
      10
-1278.86
      20
-153.1093794959
      42
0
      10
-1313
      20
-187.2493794959
      42
0
      10
1313
      20
-187.2493794959
      42
0
      10
1278.86
      20
-153.1093794959
      42
0
      10
1273
      20
-147.014689748
      42
0
      10
1273
      20
-107.734689748
      42
0
      10
1278.86
      20
-101.64
      42
0
      10
1389.6726188958
      20
9.1726188958
      42
0.414213562373108
    1001
FS_CYPCUT
    1000
Channel
    1070
1
    1000
LeadIn
    1002
{
    1070
3
    1040
29.5
    1040
1.5707963267949
    1040
1
    1040
1
    1070
0
    1040
0.5
    1070
0
    1002
}
    1000
LeadOut
    1002
{
    1070
0
    1040
0
    1040
0
    1040
0
    1070
0
    1002
}
    1000
IsFill
    1070
1
    1000
PathStart
    1040
29.5
    1000
ToolCompensation
    1002
{
    1070
0
    1040
0
    1070
0
    1002
}
    1000
MicroConnect
    1002
{
    1070
6
    1040
29.0738235
    1041
0.6
    1042
0
    1040
29.524664
    1041
0.6
    1042
0
    1040
29.947689
    1041
0.6
    1042
0
    1040
65.0684077
    1041
0.6
    1042
0
    1040
65.4840681
    1041
0.6
    1042
0
    1040
65.9275023
    1041
0.6
    1042
0
    1002
}
       0
ENDBLK
       5
2073
     330
2009
     100
AcDbEntity
       8
0
     100
AcDbBlockEnd
       0
BLOCK
       5
2074
     330
200A
     100
AcDbEntity
       8
0
     100
AcDbBlockBegin
       2
Part628576174
      70
0
      10
-1391.13708
      20
-187.249379
      30
0
       3
Part628576174
       1

       4
CypCutBlock
       0
LWPOLYLINE
       5
2075
     100
AcDbEntity
       8
1
     100
AcDbPolyline
      90
4
      70
1
      10
-1268.5636943966
      20
132.374689748
      42
0
      10
-1280.5636943966
      20
132.374689748
      42
1
      10
-1280.5636943966
      20
122.374689748
      42
0
      10
-1268.5636943966
      20
122.374689748
      42
1
    1001
FS_CYPCUT
    1000
Channel
    1070
1
    1000
LeadIn
    1002
{
    1070
3
    1040
0.5
    1040
1.5707963267949
    1040
1
    1040
1
    1070
0
    1040
0.5
    1070
0
    1002
}
    1000
LeadOut
    1002
{
    1070
0
    1040
0
    1040
0
    1040
0
    1070
0
    1002
}
    1000
IsFill
    1070
0
    1000
PathStart
    1040
0.5
    1000
ToolCompensation
    1002
{
    1070
0
    1040
0
    1070
0
    1002
}
       0
LWPOLYLINE
       5
2076
     100
AcDbEntity
       8
1
     100
AcDbPolyline
      90
4
      70
1
      10
-1142.8536943966
      20
132.374689748
      42
-1
      10
-1142.8536943966
      20
122.374689748
      42
0
      10
-1154.8536943966
      20
122.374689748
      42
-1
      10
-1154.8536943966
      20
132.374689748
      42
0
    1001
FS_CYPCUT
    1000
Channel
    1070
1
    1000
LeadIn
    1002
{
    1070
3
    1040
1.5
    1040
1.5707963267949
    1040
1
    1040
1
    1070
0
    1040
0.5
    1070
0
    1002
}
    1000
LeadOut
    1002
{
    1070
0
    1040
0
    1040
0
    1040
0
    1070
0
    1002
}
    1000
IsFill
    1070
0
    1000
PathStart
    1040
1.5
    1000
ToolCompensation
    1002
{
    1070
0
    1040
0
    1070
0
    1002
}
       0
LINE
       5
2077
     100
AcDbEntity
       8
2
     100
AcDbLine
      10
-1301.3463056034
      20
150.0620346219
      30
0
      11
1301.3463056034
      21
150.0620346219
      31
0
    1001
FS_CYPCUT
    1000
Channel
    1070
2
    1000
LeadIn
    1002
{
    1070
3
    1040
0
    1040
1.5707963267949
    1040
0.0200247225420426
    1040
1
    1070
0
    1040
0.5
    1070
0
    1002
}
    1000
LeadOut
    1002
{
    1070
0
    1040
0
    1040
0
    1040
0
    1070
0
    1002
}
    1000
IsFill
    1070
0
    1000
PathStart
    1040
0
    1000
ToolCompensation
    1002
{
    1070
0
    1040
0
    1070
0
    1002
}
       0
LINE
       5
2078
     100
AcDbEntity
       8
2
     100
AcDbLine
      10
1301.3463056034
      20
104.687344874
      30
0
      11
-1301.3463056034
      21
104.687344874
      31
0
    1001
FS_CYPCUT
    1000
Channel
    1070
2
    1000
LeadIn
    1002
{
    1070
3
    1040
0
    1040
1.5707963267949
    1040
0.0200247225255889
    1040
1
    1070
0
    1040
0.5
    1070
0
    1002
}
    1000
LeadOut
    1002
{
    1070
0
    1040
0
    1040
0
    1040
0
    1070
0
    1002
}
    1000
IsFill
    1070
0
    1000
PathStart
    1040
0
    1000
ToolCompensation
    1002
{
    1070
0
    1040
0
    1070
0
    1002
}
       0
LWPOLYLINE
       5
2079
     100
AcDbEntity
       8
1
     100
AcDbPolyline
      90
4
      70
1
      10
-56.8536943966
      20
132.374689748
      42
-0.999999999999999
      10
-56.8536943966
      20
122.374689748
      42
0
      10
-68.8536943966
      20
122.374689748
      42
-0.999999999999997
      10
-68.8536943966
      20
132.374689748
      42
0
    1001
FS_CYPCUT
    1000
Channel
    1070
1
    1000
LeadIn
    1002
{
    1070
3
    1040
1.5
    1040
1.5707963267949
    1040
1
    1040
1
    1070
0
    1040
0.5
    1070
0
    1002
}
    1000
LeadOut
    1002
{
    1070
0
    1040
0
    1040
0
    1040
0
    1070
0
    1002
}
    1000
IsFill
    1070
0
    1000
PathStart
    1040
1.5
    1000
ToolCompensation
    1002
{
    1070
0
    1040
0
    1070
0
    1002
}
       0
LWPOLYLINE
       5
207A
     100
AcDbEntity
       8
1
     100
AcDbPolyline
      90
4
      70
1
      10
68.8563056034
      20
132.374689748
      42
0
      10
56.8563056034
      20
132.374689748
      42
0.999999999999997
      10
56.8563056034
      20
122.374689748
      42
0
      10
68.8563056034
      20
122.374689748
      42
1
    1001
FS_CYPCUT
    1000
Channel
    1070
1
    1000
LeadIn
    1002
{
    1070
3
    1040
0.5
    1040
1.5707963267949
    1040
1
    1040
1
    1070
0
    1040
0.5
    1070
0
    1002
}
    1000
LeadOut
    1002
{
    1070
0
    1040
0
    1040
0
    1040
0
    1070
0
    1002
}
    1000
IsFill
    1070
0
    1000
PathStart
    1040
0.5
    1000
ToolCompensation
    1002
{
    1070
0
    1040
0
    1070
0
    1002
}
       0
LINE
       5
207B
     100
AcDbEntity
       8
2
     100
AcDbLine
      10
1275.93
      20
-104.687344874
      30
0
      11
-1275.93
      21
-104.687344874
      31
0
    1001
FS_CYPCUT
    1000
Channel
    1070
2
    1000
LeadIn
    1002
{
    1070
3
    1040
0
    1040
1.5707963267949
    1040
1
    1040
1
    1070
0
    1040
0.5
    1070
0
    1002
}
    1000
LeadOut
    1002
{
    1070
0
    1040
0
    1040
0
    1040
0
    1070
0
    1002
}
    1000
IsFill
    1070
0
    1000
PathStart
    1040
0
    1000
ToolCompensation
    1002
{
    1070
0
    1040
0
    1070
0
    1002
}
       0
LINE
       5
207C
     100
AcDbEntity
       8
2
     100
AcDbLine
      10
-1275.93
      20
-150.0620346219
      30
0
      11
1275.93
      21
-150.0620346219
      31
0
    1001
FS_CYPCUT
    1000
Channel
    1070
2
    1000
LeadIn
    1002
{
    1070
3
    1040
0
    1040
1.5707963267949
    1040
1
    1040
1
    1070
0
    1040
0.5
    1070
0
    1002
}
    1000
LeadOut
    1002
{
    1070
0
    1040
0
    1040
0
    1040
0
    1070
0
    1002
}
    1000
IsFill
    1070
0
    1000
PathStart
    1040
0
    1000
ToolCompensation
    1002
{
    1070
0
    1040
0
    1070
0
    1002
}
       0
LWPOLYLINE
       5
207D
     100
AcDbEntity
       8
1
     100
AcDbPolyline
      90
4
      70
1
      10
1154.8563056034
      20
132.374689748
      42
0
      10
1142.8563056034
      20
132.374689748
      42
1
      10
1142.8563056034
      20
122.374689748
      42
0
      10
1154.8563056034
      20
122.374689748
      42
1
    1001
FS_CYPCUT
    1000
Channel
    1070
1
    1000
LeadIn
    1002
{
    1070
3
    1040
0.5
    1040
1.5707963267949
    1040
1
    1040
1
    1070
0
    1040
0.5
    1070
0
    1002
}
    1000
LeadOut
    1002
{
    1070
0
    1040
0
    1040
0
    1040
0
    1070
0
    1002
}
    1000
IsFill
    1070
0
    1000
PathStart
    1040
0.5
    1000
ToolCompensation
    1002
{
    1070
0
    1040
0
    1070
0
    1002
}
       0
LWPOLYLINE
       5
207E
     100
AcDbEntity
       8
1
     100
AcDbPolyline
      90
4
      70
1
      10
1280.5663056034
      20
132.374689748
      42
0
      10
1268.5663056034
      20
132.374689748
      42
1
      10
1268.5663056034
      20
122.374689748
      42
0
      10
1280.5663056034
      20
122.374689748
      42
1
    1001
FS_CYPCUT
    1000
Channel
    1070
1
    1000
LeadIn
    1002
{
    1070
3
    1040
0.5
    1040
1.5707963267949
    1040
1
    1040
1
    1070
0
    1040
0.5
    1070
0
    1002
}
    1000
LeadOut
    1002
{
    1070
0
    1040
0
    1040
0
    1040
0
    1070
0
    1002
}
    1000
IsFill
    1070
0
    1000
PathStart
    1040
0.5
    1000
ToolCompensation
    1002
{
    1070
0
    1040
0
    1070
0
    1002
}
       0
LWPOLYLINE
       5
207F
     100
AcDbEntity
       8
1
     100
AcDbPolyline
      90
72
      70
1
      10
1389.6726188958
      20
16.2436867076
      42
0
      10
1385.4299782087
      20
20.4863273948
      42
0
      10
1387.5512985522
      20
22.6076477383
      42
0
      10
1379.066017178
      20
31.0929291126
      42
0
      10
1376.9446968344
      20
28.971608769
      42
0
      10
1362.6187134476
      20
43.2975921558
      42
0
      10
1364.7400337911
      20
45.4189124994
      42
0
      10
1356.2547524169
      20
53.9041938736
      42
0
      10
1354.1334320733
      20
51.7828735301
      42
0
      10
1339.8074486865
      20
66.1088569169
      42
0
      10
1341.9287690301
      20
68.2301772605
      42
0
      10
1333.4434876558
      20
76.7154586347
      42
0
      10
1331.3221673123
      20
74.5941382912
      42
0
      10
1316.9961839254
      20
88.920121678
      42
0
      10
1319.117504269
      20
91.0414420216
      42
0
      10
1310.6322228948
      20
99.5267233958
      42
0
      10
1308.5109025512
      20
97.4054030522
      42
0
      10
1304.2763056034
      20
101.64
      42
0
      10
1298.4163056034
      20
107.734689748
      42
0
      10
1298.4163056034
      20
147.014689748
      42
0
      10
1304.2763056034
      20
153.1093794959
      42
0
      10
1308.5198308949
      20
157.3529047874
      42
0
      10
1310.6411512384
      20
155.2315844438
      42
0
      10
1319.1264326127
      20
163.716865818
      42
0
      10
1317.0051122691
      20
165.8381861616
      42
0
      10
1325.6883835421
      20
174.5214574346
      42
0
      10
1327.8097038856
      20
172.400137091
      42
0
      10
1336.2949852599
      20
180.8854184652
      42
0
      10
1334.1736649163
      20
183.0067388088
      42
0
      10
1338.4163056034
      20
187.2493794959
      42
0
      10
-1338.4163056034
      20
187.2493794959
      42
0
      10
-1334.1736649163
      20
183.0067388088
      42
0
      10
-1336.2949852599
      20
180.8854184652
      42
0
      10
-1327.8097038856
      20
172.400137091
      42
0
      10
-1325.6883835421
      20
174.5214574346
      42
0
      10
-1317.0051122691
      20
165.8381861616
      42
0
      10
-1319.1264326127
      20
163.716865818
      42
0
      10
-1310.6411512384
      20
155.2315844438
      42
0
      10
-1308.5198308949
      20
157.3529047874
      42
0
      10
-1304.2763056034
      20
153.1093794959
      42
0
      10
-1298.4163056034
      20
147.014689748
      42
0
      10
-1298.4163056034
      20
107.734689748
      42
0
      10
-1304.2763056034
      20
101.64
      42
0
      10
-1308.5109025512
      20
97.4054030522
      42
0
      10
-1310.6322228947
      20
99.5267233958
      42
0
      10
-1319.117504269
      20
91.0414420216
      42
0
      10
-1316.9961839254
      20
88.920121678
      42
0
      10
-1331.3221673123
      20
74.5941382912
      42
0
      10
-1333.4434876558
      20
76.7154586347
      42
0
      10
-1341.9287690301
      20
68.2301772605
      42
0
      10
-1339.8074486865
      20
66.1088569169
      42
0
      10
-1354.1334320733
      20
51.7828735301
      42
0
      10
-1356.2547524169
      20
53.9041938736
      42
0
      10
-1364.7400337911
      20
45.4189124994
      42
0
      10
-1362.6187134476
      20
43.2975921558
      42
0
      10
-1376.9446968344
      20
28.971608769
      42
0
      10
-1379.066017178
      20
31.0929291126
      42
0
      10
-1387.5512985522
      20
22.6076477383
      42
0
      10
-1385.4299782087
      20
20.4863273948
      42
0
      10
-1389.6726188958
      20
16.2436867076
      42
0.414213562373106
      10
-1389.67261889573
      20
9.17261889576722
      42
0
      10
-1278.86
      20
-101.64
      42
0
      10
-1273
      20
-107.734689748
      42
0
      10
-1273
      20
-147.014689748
      42
0
      10
-1278.86
      20
-153.1093794959
      42
0
      10
-1313
      20
-187.2493794959
      42
0
      10
1313
      20
-187.2493794959
      42
0
      10
1278.86
      20
-153.1093794959
      42
0
      10
1273
      20
-147.014689748
      42
0
      10
1273
      20
-107.734689748
      42
0
      10
1278.86
      20
-101.64
      42
0
      10
1389.6726188958
      20
9.1726188958
      42
0.414213562373108
    1001
FS_CYPCUT
    1000
Channel
    1070
1
    1000
LeadIn
    1002
{
    1070
3
    1040
29.5
    1040
1.5707963267949
    1040
1
    1040
1
    1070
0
    1040
0.5
    1070
0
    1002
}
    1000
LeadOut
    1002
{
    1070
0
    1040
0
    1040
0
    1040
0
    1070
0
    1002
}
    1000
IsFill
    1070
1
    1000
PathStart
    1040
29.5
    1000
ToolCompensation
    1002
{
    1070
0
    1040
0
    1070
0
    1002
}
    1000
MicroConnect
    1002
{
    1070
6
    1040
29.0738235
    1041
0.6
    1042
0
    1040
29.524664
    1041
0.6
    1042
0
    1040
29.947689
    1041
0.6
    1042
0
    1040
65.0684077
    1041
0.6
    1042
0
    1040
65.4840681
    1041
0.6
    1042
0
    1040
65.9275023
    1041
0.6
    1042
0
    1002
}
       0
ENDBLK
       5
2080
     330
200A
     100
AcDbEntity
       8
0
     100
AcDbBlockEnd
       0
BLOCK
       5
2081
     330
200B
     100
AcDbEntity
       8
0
     100
AcDbBlockBegin
       2
Part961367633
      70
0
      10
-25.5
      20
-173
      30
0
       3
Part961367633
       1

       4
CypCutBlock
       0
LINE
       5
2082
     100
AcDbEntity
       8
2
     100
AcDbLine
      10
-25.5
      20
-39.812655126
      30
0
      11
25.5
      21
-39.812655126
      31
0
    1001
FS_CYPCUT
    1000
Channel
    1070
2
    1000
LeadIn
    1002
{
    1070
3
    1040
0
    1040
1.5707963267949
    1040
1
    1040
1
    1070
0
    1040
0.5
    1070
0
    1002
}
    1000
LeadOut
    1002
{
    1070
0
    1040
0
    1040
0
    1040
0
    1070
0
    1002
}
    1000
IsFill
    1070
0
    1000
PathStart
    1040
0
    1000
ToolCompensation
    1002
{
    1070
0
    1040
0
    1070
0
    1002
}
       0
CIRCLE
       5
2083
     100
AcDbEntity
       8
1
     100
AcDbCircle
      10
0
      20
-21.125310252
      30
0
      40
4.99999999999999
    1001
FS_CYPCUT
    1000
Channel
    1070
1
    1000
LeadIn
    1002
{
    1070
3
    1040
0
    1040
1.5707963267949
    1040
1
    1040
1
    1070
0
    1040
0.5
    1070
0
    1002
}
    1000
LeadOut
    1002
{
    1070
0
    1040
0
    1040
0
    1040
0
    1070
0
    1002
}
    1000
IsFill
    1070
0
    1000
PathStart
    1040
1
    1000
ToolCompensation
    1002
{
    1070
0
    1040
0
    1070
0
    1002
}
       0
CIRCLE
       5
2084
     100
AcDbEntity
       8
1
     100
AcDbCircle
      10
0
      20
43.874689748
      30
0
      40
4.99999999999996
    1001
FS_CYPCUT
    1000
Channel
    1070
1
    1000
LeadIn
    1002
{
    1070
3
    1040
5.55111512312578E-17
    1040
1.5707963267949
    1040
1
    1040
1
    1070
0
    1040
0.5
    1070
0
    1002
}
    1000
LeadOut
    1002
{
    1070
0
    1040
0
    1040
0
    1040
0
    1070
0
    1002
}
    1000
IsFill
    1070
0
    1000
PathStart
    1040
5.55111512312578E-17
    1000
ToolCompensation
    1002
{
    1070
0
    1040
0
    1070
0
    1002
}
       0
CIRCLE
       5
2085
     100
AcDbEntity
       8
1
     100
AcDbCircle
      10
0
      20
108.874689748
      30
0
      40
5.00000000000003
    1001
FS_CYPCUT
    1000
Channel
    1070
1
    1000
LeadIn
    1002
{
    1070
3
    1040
2.22044604925031E-16
    1040
1.5707963267949
    1040
1
    1040
1
    1070
0
    1040
0.5
    1070
0
    1002
}
    1000
LeadOut
    1002
{
    1070
0
    1040
0
    1040
0
    1040
0
    1070
0
    1002
}
    1000
IsFill
    1070
0
    1000
PathStart
    1040
2.22044604925031E-16
    1000
ToolCompensation
    1002
{
    1070
0
    1040
0
    1070
0
    1002
}
       0
LWPOLYLINE
       5
2086
     100
AcDbEntity
       8
1
     100
AcDbPolyline
      90
32
      70
1
      10
25.5
      20
-168
      42
0
      10
25.5
      20
-159.87
      42
0
      10
22.4
      20
-159.87
      42
0
      10
22.4
      20
-147.67
      42
0
      10
25.5
      20
-147.67
      42
0
      10
25.5
      20
-127.61
      42
0
      10
22.4
      20
-127.61
      42
0
      10
22.4
      20
-115.41
      42
0
      10
25.5
      20
-115.41
      42
0
      10
25.5
      20
-95.3500000000001
      42
0
      10
22.4
      20
-95.3500000000001
      42
0
      10
22.4
      20
-83.15
      42
0
      10
25.5
      20
-83.15
      42
0
      10
25.5
      20
-63.09
      42
0
      10
22.4
      20
-63.09
      42
0
      10
22.4
      20
-50.8900000000001
      42
0
      10
25.5
      20
-50.8900000000001
      42
0
      10
25.5000000000001
      20
125.374689748
      42
0.414213562373088
      10
20.5
      20
130.374689748
      42
0
      10
-20.5
      20
130.374689748
      42
0.414213562373098
      10
-25.5000000000001
      20
125.374689748
      42
0
      10
-25.5
      20
-123.39
      42
0
      10
-22.4
      20
-123.39
      42
0
      10
-22.4
      20
-135.59
      42
0
      10
-25.5
      20
-135.59
      42
0
      10
-25.5
      20
-147.67
      42
0
      10
-22.4
      20
-147.67
      42
0
      10
-22.4
      20
-159.87
      42
0
      10
-25.5
      20
-159.87
      42
0
      10
-25.5
      20
-168
      42
0.414213562373091
      10
-20.5
      20
-173
      42
0
      10
20.5
      20
-173
      42
0.414213562373093
    1001
FS_CYPCUT
    1000
Channel
    1070
1
    1000
LeadIn
    1002
{
    1070
3
    1040
20.5
    1040
1.5707963267949
    1040
1
    1040
1
    1070
0
    1040
0.5
    1070
0
    1002
}
    1000
LeadOut
    1002
{
    1070
0
    1040
0
    1040
0
    1040
0
    1070
0
    1002
}
    1000
IsFill
    1070
1
    1000
PathStart
    1040
20.5
    1000
ToolCompensation
    1002
{
    1070
0
    1040
0
    1070
0
    1002
}
    1000
MicroConnect
    1002
{
    1070
3
    1040
16.2812987
    1041
0.6
    1042
0
    1040
18.5
    1041
0.6
    1042
0
    1040
20.8420158
    1041
0.6
    1042
0
    1002
}
       0
ENDBLK
       5
2087
     330
200B
     100
AcDbEntity
       8
0
     100
AcDbBlockEnd
       0
BLOCK
       5
2088
     330
200C
     100
AcDbEntity
       8
0
     100
AcDbBlockBegin
       2
Part2133309444
      70
0
      10
-72.855
      20
-25
      30
0
       3
Part2133309444
       1

       4
CypCutBlock
       0
CIRCLE
       5
2089
     100
AcDbEntity
       8
1
     100
AcDbCircle
      10
-62.855
      20
0
      30
0
      40
5
    1001
FS_CYPCUT
    1000
Channel
    1070
1
    1000
LeadIn
    1002
{
    1070
3
    1040
0
    1040
1.5707963267949
    1040
1
    1040
1
    1070
0
    1040
0.5
    1070
0
    1002
}
    1000
LeadOut
    1002
{
    1070
0
    1040
0
    1040
0
    1040
0
    1070
0
    1002
}
    1000
IsFill
    1070
0
    1000
PathStart
    1040
1
    1000
ToolCompensation
    1002
{
    1070
0
    1040
0
    1070
0
    1002
}
       0
CIRCLE
       5
208A
     100
AcDbEntity
       8
1
     100
AcDbCircle
      10
62.855
      20
0
      30
0
      40
4.99999999999996
    1001
FS_CYPCUT
    1000
Channel
    1070
1
    1000
LeadIn
    1002
{
    1070
3
    1040
1.38777878078145E-16
    1040
1.5707963267949
    1040
1
    1040
1
    1070
0
    1040
0.5
    1070
0
    1002
}
    1000
LeadOut
    1002
{
    1070
0
    1040
0
    1040
0
    1040
0
    1070
0
    1002
}
    1000
IsFill
    1070
0
    1000
PathStart
    1040
1.38777878078145E-16
    1000
ToolCompensation
    1002
{
    1070
0
    1040
0
    1070
0
    1002
}
       0
LWPOLYLINE
       5
208B
     100
AcDbEntity
       8
1
     100
AcDbPolyline
      90
8
      70
1
      10
72.855
      20
20
      42
0
      10
72.855
      20
-20
      42
-0.414213562373095
      10
67.855
      20
-25
      42
0
      10
-67.855
      20
-25
      42
-0.414213562373095
      10
-72.855
      20
-20
      42
0
      10
-72.855
      20
20
      42
-0.414213562373095
      10
-67.855
      20
25
      42
0
      10
67.855
      20
25
      42
-0.414213562373093
    1001
FS_CYPCUT
    1000
Channel
    1070
1
    1000
LeadIn
    1002
{
    1070
3
    1040
2.5
    1040
1.5707963267949
    1040
1
    1040
1
    1070
0
    1040
0.5
    1070
0
    1002
}
    1000
LeadOut
    1002
{
    1070
0
    1040
0
    1040
0
    1040
0
    1070
0
    1002
}
    1000
IsFill
    1070
1
    1000
PathStart
    1040
2.5
    1000
ToolCompensation
    1002
{
    1070
0
    1040
0
    1070
0
    1002
}
       0
ENDBLK
       5
208C
     330
200C
     100
AcDbEntity
       8
0
     100
AcDbBlockEnd
       0
BLOCK
       5
208D
     330
200D
     100
AcDbEntity
       8
0
     100
AcDbBlockBegin
       2
Part1634697346
      70
0
      10
-55
      20
-22
      30
0
       3
Part1634697346
       1

       4
CypCutBlock
       0
LWPOLYLINE
       5
208E
     100
AcDbEntity
       8
1
     100
AcDbPolyline
      90
4
      70
1
      10
-31.495
      20
5
      42
0
      10
-41.495
      20
5
      42
1
      10
-41.495
      20
-5
      42
0
      10
-31.495
      20
-5
      42
1
    1001
FS_CYPCUT
    1000
Channel
    1070
1
    1000
LeadIn
    1002
{
    1070
3
    1040
0.5
    1040
1.5707963267949
    1040
1
    1040
1
    1070
0
    1040
0.5
    1070
0
    1002
}
    1000
LeadOut
    1002
{
    1070
0
    1040
0
    1040
0
    1040
0
    1070
0
    1002
}
    1000
IsFill
    1070
0
    1000
PathStart
    1040
0.5
    1000
ToolCompensation
    1002
{
    1070
0
    1040
0
    1070
0
    1002
}
       0
LWPOLYLINE
       5
208F
     100
AcDbEntity
       8
1
     100
AcDbPolyline
      90
4
      70
1
      10
41.495
      20
5.00000000000001
      42
-1
      10
41.495
      20
-5.00000000000001
      42
0
      10
31.495
      20
-5
      42
-1
      10
31.495
      20
5
      42
0
    1001
FS_CYPCUT
    1000
Channel
    1070
1
    1000
LeadIn
    1002
{
    1070
3
    1040
0.5
    1040
1.5707963267949
    1040
1
    1040
1
    1070
0
    1040
0.5
    1070
0
    1002
}
    1000
LeadOut
    1002
{
    1070
0
    1040
0
    1040
0
    1040
0
    1070
0
    1002
}
    1000
IsFill
    1070
0
    1000
PathStart
    1040
0.5
    1000
ToolCompensation
    1002
{
    1070
0
    1040
0
    1070
0
    1002
}
       0
LWPOLYLINE
       5
2090
     100
AcDbEntity
       8
1
     100
AcDbPolyline
      90
8
      70
1
      10
55
      20
17
      42
0
      10
55
      20
-17
      42
-0.414213562373095
      10
50
      20
-22
      42
0
      10
-50
      20
-22
      42
-0.414213562373096
      10
-55
      20
-17
      42
0
      10
-55
      20
17
      42
-0.414213562373095
      10
-50
      20
22
      42
0
      10
50
      20
22
      42
-0.414213562373094
    1001
FS_CYPCUT
    1000
Channel
    1070
1
    1000
LeadIn
    1002
{
    1070
3
    1040
2.5
    1040
1.5707963267949
    1040
1
    1040
1
    1070
0
    1040
0.5
    1070
0
    1002
}
    1000
LeadOut
    1002
{
    1070
0
    1040
0
    1040
0
    1040
0
    1070
0
    1002
}
    1000
IsFill
    1070
1
    1000
PathStart
    1040
2.5
    1000
ToolCompensation
    1002
{
    1070
0
    1040
0
    1070
0
    1002
}
    1000
MicroConnect
    1002
{
    1070
2
    1040
0.436207116
    1041
0.6
    1042
0
    1040
4.5
    1041
0.6
    1042
0
    1002
}
       0
ENDBLK
       5
2091
     330
200D
     100
AcDbEntity
       8
0
     100
AcDbBlockEnd
       0
BLOCK
       5
2092
     330
200E
     100
AcDbEntity
       8
0
     100
AcDbBlockBegin
       2
Part1123470860
      70
0
      10
-173
      20
-25.5
      30
0
       3
Part1123470860
       1

       4
CypCutBlock
       0
CIRCLE
       5
2093
     100
AcDbEntity
       8
1
     100
AcDbCircle
      10
-151.5
      20
0
      30
0
      40
8.50000000000004
    1001
FS_CYPCUT
    1000
Channel
    1070
1
    1000
LeadIn
    1002
{
    1070
3
    1040
1.11022302462516E-16
    1040
1.5707963267949
    1040
1
    1040
1
    1070
0
    1040
0.5
    1070
0
    1002
}
    1000
LeadOut
    1002
{
    1070
0
    1040
0
    1040
0
    1040
0
    1070
0
    1002
}
    1000
IsFill
    1070
0
    1000
PathStart
    1040
1.11022302462516E-16
    1000
ToolCompensation
    1002
{
    1070
0
    1040
0
    1070
0
    1002
}
       0
CIRCLE
       5
2094
     100
AcDbEntity
       8
1
     100
AcDbCircle
      10
-86.5
      20
0
      30
0
      40
8.5
    1001
FS_CYPCUT
    1000
Channel
    1070
1
    1000
LeadIn
    1002
{
    1070
3
    1040
0
    1040
1.5707963267949
    1040
1
    1040
1
    1070
0
    1040
0.5
    1070
0
    1002
}
    1000
LeadOut
    1002
{
    1070
0
    1040
0
    1040
0
    1040
0
    1070
0
    1002
}
    1000
IsFill
    1070
0
    1000
PathStart
    1040
1
    1000
ToolCompensation
    1002
{
    1070
0
    1040
0
    1070
0
    1002
}
       0
CIRCLE
       5
2095
     100
AcDbEntity
       8
1
     100
AcDbCircle
      10
-21.5
      20
0
      30
0
      40
8.49999999999997
    1001
FS_CYPCUT
    1000
Channel
    1070
1
    1000
LeadIn
    1002
{
    1070
3
    1040
0
    1040
1.5707963267949
    1040
1
    1040
1
    1070
0
    1040
0.5
    1070
0
    1002
}
    1000
LeadOut
    1002
{
    1070
0
    1040
0
    1040
0
    1040
0
    1070
0
    1002
}
    1000
IsFill
    1070
0
    1000
PathStart
    1040
0
    1000
ToolCompensation
    1002
{
    1070
0
    1040
0
    1070
0
    1002
}
       0
LINE
       5
2096
     100
AcDbEntity
       8
2
     100
AcDbLine
      10
-2.812655126
      20
25.5
      30
0
      11
-2.812655126
      21
-25.5
      31
0
    1001
FS_CYPCUT
    1000
Channel
    1070
2
    1000
LeadIn
    1002
{
    1070
3
    1040
0
    1040
1.5707963267949
    1040
1
    1040
1
    1070
0
    1040
0.5
    1070
0
    1002
}
    1000
LeadOut
    1002
{
    1070
0
    1040
0
    1040
0
    1040
0
    1070
0
    1002
}
    1000
IsFill
    1070
0
    1000
PathStart
    1040
0
    1000
ToolCompensation
    1002
{
    1070
0
    1040
0
    1070
0
    1002
}
       0
LWPOLYLINE
       5
2097
     100
AcDbEntity
       8
1
     100
AcDbPolyline
      90
32
      70
1
      10
130.374689748
      20
20.5
      42
0.414213562373095
      10
125.374689748
      20
25.5
      42
0
      10
117.244689748
      20
25.5
      42
0
      10
117.244689748
      20
22.4
      42
0
      10
105.044689748
      20
22.4
      42
0
      10
105.044689748
      20
25.5
      42
0
      10
92.964689748
      20
25.5
      42
0
      10
92.964689748
      20
22.4
      42
0
      10
80.764689748
      20
22.4
      42
0
      10
80.764689748
      20
25.5
      42
0
      10
-168
      20
25.5
      42
0.414213562373098
      10
-173
      20
20.5
      42
0
      10
-173
      20
-20.5
      42
0.414213562373088
      10
-168
      20
-25.5
      42
0
      10
8.264689748
      20
-25.5
      42
0
      10
8.264689748
      20
-22.4
      42
0
      10
20.464689748
      20
-22.4
      42
0
      10
20.464689748
      20
-25.5
      42
0
      10
40.524689748
      20
-25.5
      42
0
      10
40.524689748
      20
-22.4
      42
0
      10
52.724689748
      20
-22.4
      42
0
      10
52.724689748
      20
-25.5
      42
0
      10
72.784689748
      20
-25.5
      42
0
      10
72.784689748
      20
-22.4
      42
0
      10
84.984689748
      20
-22.4
      42
0
      10
84.984689748
      20
-25.5
      42
0
      10
105.044689748
      20
-25.5
      42
0
      10
105.044689748
      20
-22.4
      42
0
      10
117.244689748
      20
-22.4
      42
0
      10
117.244689748
      20
-25.5
      42
0
      10
125.374689748
      20
-25.5
      42
0.414213562373093
      10
130.374689748
      20
-20.5
      42
0
    1001
FS_CYPCUT
    1000
Channel
    1070
1
    1000
LeadIn
    1002
{
    1070
3
    1040
9.5
    1040
1.5707963267949
    1040
1
    1040
1
    1070
0
    1040
0.5
    1070
0
    1002
}
    1000
LeadOut
    1002
{
    1070
0
    1040
0
    1040
0
    1040
0
    1070
0
    1002
}
    1000
IsFill
    1070
1
    1000
PathStart
    1040
9.5
    1000
ToolCompensation
    1002
{
    1070
0
    1040
0
    1070
0
    1002
}
    1000
MicroConnect
    1002
{
    1070
3
    1040
9.1092542
    1041
0.6
    1042
0
    1040
11.4430585
    1041
0.6
    1042
0
    1040
13.7810953
    1041
0.6
    1042
0
    1002
}
       0
ENDBLK
       5
2098
     330
200E
     100
AcDbEntity
       8
0
     100
AcDbBlockEnd
       0
BLOCK
       5
2099
     330
200F
     100
AcDbEntity
       8
0
     100
AcDbBlockBegin
       2
Part25759375
      70
0
      10
-55
      20
-22
      30
0
       3
Part25759375
       1

       4
CypCutBlock
       0
LWPOLYLINE
       5
209A
     100
AcDbEntity
       8
1
     100
AcDbPolyline
      90
4
      70
1
      10
-31.495
      20
5
      42
0
      10
-41.495
      20
5
      42
1
      10
-41.495
      20
-5
      42
0
      10
-31.495
      20
-5
      42
1
    1001
FS_CYPCUT
    1000
Channel
    1070
1
    1000
LeadIn
    1002
{
    1070
3
    1040
0.5
    1040
1.5707963267949
    1040
1
    1040
1
    1070
0
    1040
0.5
    1070
0
    1002
}
    1000
LeadOut
    1002
{
    1070
0
    1040
0
    1040
0
    1040
0
    1070
0
    1002
}
    1000
IsFill
    1070
0
    1000
PathStart
    1040
0.5
    1000
ToolCompensation
    1002
{
    1070
0
    1040
0
    1070
0
    1002
}
       0
LWPOLYLINE
       5
209B
     100
AcDbEntity
       8
1
     100
AcDbPolyline
      90
4
      70
1
      10
41.495
      20
5.00000000000001
      42
-1
      10
41.495
      20
-5.00000000000001
      42
0
      10
31.495
      20
-5
      42
-1
      10
31.495
      20
5
      42
0
    1001
FS_CYPCUT
    1000
Channel
    1070
1
    1000
LeadIn
    1002
{
    1070
3
    1040
0.5
    1040
1.5707963267949
    1040
1
    1040
1
    1070
0
    1040
0.5
    1070
0
    1002
}
    1000
LeadOut
    1002
{
    1070
0
    1040
0
    1040
0
    1040
0
    1070
0
    1002
}
    1000
IsFill
    1070
0
    1000
PathStart
    1040
0.5
    1000
ToolCompensation
    1002
{
    1070
0
    1040
0
    1070
0
    1002
}
       0
LWPOLYLINE
       5
209C
     100
AcDbEntity
       8
1
     100
AcDbPolyline
      90
8
      70
1
      10
55
      20
17
      42
0
      10
55
      20
-17
      42
-0.414213562373095
      10
50
      20
-22
      42
0
      10
-50
      20
-22
      42
-0.414213562373096
      10
-55
      20
-17
      42
0
      10
-55
      20
17
      42
-0.414213562373095
      10
-50
      20
22
      42
0
      10
50
      20
22
      42
-0.414213562373094
    1001
FS_CYPCUT
    1000
Channel
    1070
1
    1000
LeadIn
    1002
{
    1070
3
    1040
2.5
    1040
1.5707963267949
    1040
1
    1040
1
    1070
0
    1040
0.5
    1070
0
    1002
}
    1000
LeadOut
    1002
{
    1070
0
    1040
0
    1040
0
    1040
0
    1070
0
    1002
}
    1000
IsFill
    1070
1
    1000
PathStart
    1040
2.5
    1000
ToolCompensation
    1002
{
    1070
0
    1040
0
    1070
0
    1002
}
    1000
MicroConnect
    1002
{
    1070
2
    1040
0.436207116
    1041
0.6
    1042
0
    1040
4.5
    1041
0.6
    1042
0
    1002
}
       0
ENDBLK
       5
209D
     330
200F
     100
AcDbEntity
       8
0
     100
AcDbBlockEnd
       0
BLOCK
       5
209E
     330
2010
     100
AcDbEntity
       8
0
     100
AcDbBlockBegin
       2
Part1836907587
      70
0
      10
-173
      20
-25.5
      30
0
       3
Part1836907587
       1

       4
CypCutBlock
       0
CIRCLE
       5
209F
     100
AcDbEntity
       8
1
     100
AcDbCircle
      10
-151.5
      20
3.5527136788005E-15
      30
0
      40
8.50000000000003
    1001
FS_CYPCUT
    1000
Channel
    1070
1
    1000
LeadIn
    1002
{
    1070
3
    1040
1.11022302462516E-16
    1040
1.5707963267949
    1040
1
    1040
1
    1070
0
    1040
0.5
    1070
0
    1002
}
    1000
LeadOut
    1002
{
    1070
0
    1040
0
    1040
0
    1040
0
    1070
0
    1002
}
    1000
IsFill
    1070
0
    1000
PathStart
    1040
1.11022302462516E-16
    1000
ToolCompensation
    1002
{
    1070
0
    1040
0
    1070
0
    1002
}
       0
CIRCLE
       5
20A0
     100
AcDbEntity
       8
1
     100
AcDbCircle
      10
-86.5
      20
3.5527136788005E-15
      30
0
      40
8.5
    1001
FS_CYPCUT
    1000
Channel
    1070
1
    1000
LeadIn
    1002
{
    1070
3
    1040
0
    1040
1.5707963267949
    1040
1
    1040
1
    1070
0
    1040
0.5
    1070
0
    1002
}
    1000
LeadOut
    1002
{
    1070
0
    1040
0
    1040
0
    1040
0
    1070
0
    1002
}
    1000
IsFill
    1070
0
    1000
PathStart
    1040
1
    1000
ToolCompensation
    1002
{
    1070
0
    1040
0
    1070
0
    1002
}
       0
CIRCLE
       5
20A1
     100
AcDbEntity
       8
1
     100
AcDbCircle
      10
-21.5
      20
3.5527136788005E-15
      30
0
      40
8.49999999999997
    1001
FS_CYPCUT
    1000
Channel
    1070
1
    1000
LeadIn
    1002
{
    1070
3
    1040
0
    1040
1.5707963267949
    1040
1
    1040
1
    1070
0
    1040
0.5
    1070
0
    1002
}
    1000
LeadOut
    1002
{
    1070
0
    1040
0
    1040
0
    1040
0
    1070
0
    1002
}
    1000
IsFill
    1070
0
    1000
PathStart
    1040
0
    1000
ToolCompensation
    1002
{
    1070
0
    1040
0
    1070
0
    1002
}
       0
LINE
       5
20A2
     100
AcDbEntity
       8
2
     100
AcDbLine
      10
-2.812655126
      20
25.5
      30
0
      11
-2.812655126
      21
-25.5
      31
0
    1001
FS_CYPCUT
    1000
Channel
    1070
2
    1000
LeadIn
    1002
{
    1070
3
    1040
0
    1040
1.5707963267949
    1040
1
    1040
1
    1070
0
    1040
0.5
    1070
0
    1002
}
    1000
LeadOut
    1002
{
    1070
0
    1040
0
    1040
0
    1040
0
    1070
0
    1002
}
    1000
IsFill
    1070
0
    1000
PathStart
    1040
0
    1000
ToolCompensation
    1002
{
    1070
0
    1040
0
    1070
0
    1002
}
       0
LWPOLYLINE
       5
20A3
     100
AcDbEntity
       8
1
     100
AcDbPolyline
      90
32
      70
1
      10
130.374689748
      20
-20.5
      42
-0.414213562373095
      10
125.374689748
      20
-25.5
      42
0
      10
117.244689748
      20
-25.5
      42
0
      10
117.244689748
      20
-22.4
      42
0
      10
105.044689748
      20
-22.4
      42
0
      10
105.044689748
      20
-25.5
      42
0
      10
92.964689748
      20
-25.5
      42
0
      10
92.964689748
      20
-22.4
      42
0
      10
80.764689748
      20
-22.4
      42
0
      10
80.764689748
      20
-25.5
      42
0
      10
-168
      20
-25.5
      42
-0.414213562373098
      10
-173
      20
-20.5
      42
0
      10
-173
      20
20.5
      42
-0.414213562373088
      10
-168
      20
25.5
      42
0
      10
8.264689748
      20
25.5
      42
0
      10
8.264689748
      20
22.4
      42
0
      10
20.464689748
      20
22.4
      42
0
      10
20.464689748
      20
25.5
      42
0
      10
40.524689748
      20
25.5
      42
0
      10
40.524689748
      20
22.4
      42
0
      10
52.724689748
      20
22.4
      42
0
      10
52.724689748
      20
25.5
      42
0
      10
72.784689748
      20
25.5
      42
0
      10
72.784689748
      20
22.4
      42
0
      10
84.984689748
      20
22.4
      42
0
      10
84.984689748
      20
25.5
      42
0
      10
105.044689748
      20
25.5
      42
0
      10
105.044689748
      20
22.4
      42
0
      10
117.244689748
      20
22.4
      42
0
      10
117.244689748
      20
25.5
      42
0
      10
125.374689748
      20
25.5
      42
-0.414213562373093
      10
130.374689748
      20
20.5
      42
0
    1001
FS_CYPCUT
    1000
Channel
    1070
1
    1000
LeadIn
    1002
{
    1070
3
    1040
9.5
    1040
1.5707963267949
    1040
1
    1040
1
    1070
0
    1040
0.5
    1070
0
    1002
}
    1000
LeadOut
    1002
{
    1070
0
    1040
0
    1040
0
    1040
0
    1070
0
    1002
}
    1000
IsFill
    1070
1
    1000
PathStart
    1040
9.5
    1000
ToolCompensation
    1002
{
    1070
0
    1040
0
    1070
0
    1002
}
    1000
MicroConnect
    1002
{
    1070
3
    1040
9.1092542
    1041
0.6
    1042
0
    1040
11.4430585
    1041
0.6
    1042
0
    1040
13.7810953
    1041
0.6
    1042
0
    1002
}
       0
ENDBLK
       5
20A4
     330
2010
     100
AcDbEntity
       8
0
     100
AcDbBlockEnd
       0
BLOCK
       5
20A5
     330
2011
     100
AcDbEntity
       8
0
     100
AcDbBlockBegin
       2
Part1590766616
      70
0
      10
-72.855
      20
-25
      30
0
       3
Part1590766616
       1

       4
CypCutBlock
       0
CIRCLE
       5
20A6
     100
AcDbEntity
       8
1
     100
AcDbCircle
      10
-62.855
      20
0
      30
0
      40
5
    1001
FS_CYPCUT
    1000
Channel
    1070
1
    1000
LeadIn
    1002
{
    1070
3
    1040
0
    1040
1.5707963267949
    1040
1
    1040
1
    1070
0
    1040
0.5
    1070
0
    1002
}
    1000
LeadOut
    1002
{
    1070
0
    1040
0
    1040
0
    1040
0
    1070
0
    1002
}
    1000
IsFill
    1070
0
    1000
PathStart
    1040
1
    1000
ToolCompensation
    1002
{
    1070
0
    1040
0
    1070
0
    1002
}
       0
CIRCLE
       5
20A7
     100
AcDbEntity
       8
1
     100
AcDbCircle
      10
62.855
      20
0
      30
0
      40
4.99999999999996
    1001
FS_CYPCUT
    1000
Channel
    1070
1
    1000
LeadIn
    1002
{
    1070
3
    1040
1.38777878078145E-16
    1040
1.5707963267949
    1040
1
    1040
1
    1070
0
    1040
0.5
    1070
0
    1002
}
    1000
LeadOut
    1002
{
    1070
0
    1040
0
    1040
0
    1040
0
    1070
0
    1002
}
    1000
IsFill
    1070
0
    1000
PathStart
    1040
1.38777878078145E-16
    1000
ToolCompensation
    1002
{
    1070
0
    1040
0
    1070
0
    1002
}
       0
LWPOLYLINE
       5
20A8
     100
AcDbEntity
       8
1
     100
AcDbPolyline
      90
8
      70
1
      10
72.855
      20
20
      42
0
      10
72.855
      20
-20
      42
-0.414213562373095
      10
67.855
      20
-25
      42
0
      10
-67.855
      20
-25
      42
-0.414213562373095
      10
-72.855
      20
-20
      42
0
      10
-72.855
      20
20
      42
-0.414213562373095
      10
-67.855
      20
25
      42
0
      10
67.855
      20
25
      42
-0.414213562373093
    1001
FS_CYPCUT
    1000
Channel
    1070
1
    1000
LeadIn
    1002
{
    1070
3
    1040
2.5
    1040
1.5707963267949
    1040
1
    1040
1
    1070
0
    1040
0.5
    1070
0
    1002
}
    1000
LeadOut
    1002
{
    1070
0
    1040
0
    1040
0
    1040
0
    1070
0
    1002
}
    1000
IsFill
    1070
1
    1000
PathStart
    1040
2.5
    1000
ToolCompensation
    1002
{
    1070
0
    1040
0
    1070
0
    1002
}
       0
ENDBLK
       5
20A9
     330
2011
     100
AcDbEntity
       8
0
     100
AcDbBlockEnd
       0
BLOCK
       5
20AA
     330
2012
     100
AcDbEntity
       8
0
     100
AcDbBlockBegin
       2
Part1637810815
      70
0
      10
-72.855
      20
-25
      30
0
       3
Part1637810815
       1

       4
CypCutBlock
       0
CIRCLE
       5
20AB
     100
AcDbEntity
       8
1
     100
AcDbCircle
      10
-62.855
      20
0
      30
0
      40
5
    1001
FS_CYPCUT
    1000
Channel
    1070
1
    1000
LeadIn
    1002
{
    1070
3
    1040
0
    1040
1.5707963267949
    1040
1
    1040
1
    1070
0
    1040
0.5
    1070
0
    1002
}
    1000
LeadOut
    1002
{
    1070
0
    1040
0
    1040
0
    1040
0
    1070
0
    1002
}
    1000
IsFill
    1070
0
    1000
PathStart
    1040
1
    1000
ToolCompensation
    1002
{
    1070
0
    1040
0
    1070
0
    1002
}
       0
CIRCLE
       5
20AC
     100
AcDbEntity
       8
1
     100
AcDbCircle
      10
62.855
      20
0
      30
0
      40
4.99999999999996
    1001
FS_CYPCUT
    1000
Channel
    1070
1
    1000
LeadIn
    1002
{
    1070
3
    1040
1.38777878078145E-16
    1040
1.5707963267949
    1040
1
    1040
1
    1070
0
    1040
0.5
    1070
0
    1002
}
    1000
LeadOut
    1002
{
    1070
0
    1040
0
    1040
0
    1040
0
    1070
0
    1002
}
    1000
IsFill
    1070
0
    1000
PathStart
    1040
1.38777878078145E-16
    1000
ToolCompensation
    1002
{
    1070
0
    1040
0
    1070
0
    1002
}
       0
LWPOLYLINE
       5
20AD
     100
AcDbEntity
       8
1
     100
AcDbPolyline
      90
8
      70
1
      10
72.855
      20
20
      42
0
      10
72.855
      20
-20
      42
-0.414213562373095
      10
67.855
      20
-25
      42
0
      10
-67.855
      20
-25
      42
-0.414213562373095
      10
-72.855
      20
-20
      42
0
      10
-72.855
      20
20
      42
-0.414213562373095
      10
-67.855
      20
25
      42
0
      10
67.855
      20
25
      42
-0.414213562373093
    1001
FS_CYPCUT
    1000
Channel
    1070
1
    1000
LeadIn
    1002
{
    1070
3
    1040
2.5
    1040
1.5707963267949
    1040
1
    1040
1
    1070
0
    1040
0.5
    1070
0
    1002
}
    1000
LeadOut
    1002
{
    1070
0
    1040
0
    1040
0
    1040
0
    1070
0
    1002
}
    1000
IsFill
    1070
1
    1000
PathStart
    1040
2.5
    1000
ToolCompensation
    1002
{
    1070
0
    1040
0
    1070
0
    1002
}
       0
ENDBLK
       5
20AE
     330
2012
     100
AcDbEntity
       8
0
     100
AcDbBlockEnd
       0
BLOCK
       5
20AF
     330
2013
     100
AcDbEntity
       8
0
     100
AcDbBlockBegin
       2
Part598427341
      70
0
      10
-55
      20
-22
      30
0
       3
Part598427341
       1

       4
CypCutBlock
       0
LWPOLYLINE
       5
20B0
     100
AcDbEntity
       8
1
     100
AcDbPolyline
      90
4
      70
1
      10
-31.495
      20
5
      42
0
      10
-41.495
      20
5
      42
1
      10
-41.495
      20
-5
      42
0
      10
-31.495
      20
-5
      42
1
    1001
FS_CYPCUT
    1000
Channel
    1070
1
    1000
LeadIn
    1002
{
    1070
3
    1040
0.5
    1040
1.5707963267949
    1040
1
    1040
1
    1070
0
    1040
0.5
    1070
0
    1002
}
    1000
LeadOut
    1002
{
    1070
0
    1040
0
    1040
0
    1040
0
    1070
0
    1002
}
    1000
IsFill
    1070
0
    1000
PathStart
    1040
0.5
    1000
ToolCompensation
    1002
{
    1070
0
    1040
0
    1070
0
    1002
}
       0
LWPOLYLINE
       5
20B1
     100
AcDbEntity
       8
1
     100
AcDbPolyline
      90
4
      70
1
      10
41.495
      20
5.00000000000001
      42
-1
      10
41.495
      20
-5.00000000000001
      42
0
      10
31.495
      20
-5
      42
-1
      10
31.495
      20
5
      42
0
    1001
FS_CYPCUT
    1000
Channel
    1070
1
    1000
LeadIn
    1002
{
    1070
3
    1040
0.5
    1040
1.5707963267949
    1040
1
    1040
1
    1070
0
    1040
0.5
    1070
0
    1002
}
    1000
LeadOut
    1002
{
    1070
0
    1040
0
    1040
0
    1040
0
    1070
0
    1002
}
    1000
IsFill
    1070
0
    1000
PathStart
    1040
0.5
    1000
ToolCompensation
    1002
{
    1070
0
    1040
0
    1070
0
    1002
}
       0
LWPOLYLINE
       5
20B2
     100
AcDbEntity
       8
1
     100
AcDbPolyline
      90
8
      70
1
      10
55
      20
17
      42
0
      10
55
      20
-17
      42
-0.414213562373095
      10
50
      20
-22
      42
0
      10
-50
      20
-22
      42
-0.414213562373096
      10
-55
      20
-17
      42
0
      10
-55
      20
17
      42
-0.414213562373095
      10
-50
      20
22
      42
0
      10
50
      20
22
      42
-0.414213562373094
    1001
FS_CYPCUT
    1000
Channel
    1070
1
    1000
LeadIn
    1002
{
    1070
3
    1040
2.5
    1040
1.5707963267949
    1040
1
    1040
1
    1070
0
    1040
0.5
    1070
0
    1002
}
    1000
LeadOut
    1002
{
    1070
0
    1040
0
    1040
0
    1040
0
    1070
0
    1002
}
    1000
IsFill
    1070
1
    1000
PathStart
    1040
2.5
    1000
ToolCompensation
    1002
{
    1070
0
    1040
0
    1070
0
    1002
}
    1000
MicroConnect
    1002
{
    1070
2
    1040
0.436207116
    1041
0.6
    1042
0
    1040
4.5
    1041
0.6
    1042
0
    1002
}
       0
ENDBLK
       5
20B3
     330
2013
     100
AcDbEntity
       8
0
     100
AcDbBlockEnd
       0
BLOCK
       5
20B4
     330
2014
     100
AcDbEntity
       8
0
     100
AcDbBlockBegin
       2
Part460024123
      70
0
      10
-55
      20
-22
      30
0
       3
Part460024123
       1

       4
CypCutBlock
       0
LWPOLYLINE
       5
20B5
     100
AcDbEntity
       8
1
     100
AcDbPolyline
      90
4
      70
1
      10
-31.495
      20
5
      42
0
      10
-41.495
      20
5
      42
1
      10
-41.495
      20
-5
      42
0
      10
-31.495
      20
-5
      42
1
    1001
FS_CYPCUT
    1000
Channel
    1070
1
    1000
LeadIn
    1002
{
    1070
3
    1040
0.5
    1040
1.5707963267949
    1040
1
    1040
1
    1070
0
    1040
0.5
    1070
0
    1002
}
    1000
LeadOut
    1002
{
    1070
0
    1040
0
    1040
0
    1040
0
    1070
0
    1002
}
    1000
IsFill
    1070
0
    1000
PathStart
    1040
0.5
    1000
ToolCompensation
    1002
{
    1070
0
    1040
0
    1070
0
    1002
}
       0
LWPOLYLINE
       5
20B6
     100
AcDbEntity
       8
1
     100
AcDbPolyline
      90
4
      70
1
      10
41.495
      20
5.00000000000001
      42
-1
      10
41.495
      20
-5.00000000000001
      42
0
      10
31.495
      20
-5
      42
-1
      10
31.495
      20
5
      42
0
    1001
FS_CYPCUT
    1000
Channel
    1070
1
    1000
LeadIn
    1002
{
    1070
3
    1040
0.5
    1040
1.5707963267949
    1040
1
    1040
1
    1070
0
    1040
0.5
    1070
0
    1002
}
    1000
LeadOut
    1002
{
    1070
0
    1040
0
    1040
0
    1040
0
    1070
0
    1002
}
    1000
IsFill
    1070
0
    1000
PathStart
    1040
0.5
    1000
ToolCompensation
    1002
{
    1070
0
    1040
0
    1070
0
    1002
}
       0
LWPOLYLINE
       5
20B7
     100
AcDbEntity
       8
1
     100
AcDbPolyline
      90
8
      70
1
      10
55
      20
17
      42
0
      10
55
      20
-17
      42
-0.414213562373095
      10
50
      20
-22
      42
0
      10
-50
      20
-22
      42
-0.414213562373096
      10
-55
      20
-17
      42
0
      10
-55
      20
17
      42
-0.414213562373095
      10
-50
      20
22
      42
0
      10
50
      20
22
      42
-0.414213562373094
    1001
FS_CYPCUT
    1000
Channel
    1070
1
    1000
LeadIn
    1002
{
    1070
3
    1040
2.5
    1040
1.5707963267949
    1040
1
    1040
1
    1070
0
    1040
0.5
    1070
0
    1002
}
    1000
LeadOut
    1002
{
    1070
0
    1040
0
    1040
0
    1040
0
    1070
0
    1002
}
    1000
IsFill
    1070
1
    1000
PathStart
    1040
2.5
    1000
ToolCompensation
    1002
{
    1070
0
    1040
0
    1070
0
    1002
}
    1000
MicroConnect
    1002
{
    1070
2
    1040
0.436207116
    1041
0.6
    1042
0
    1040
4.5
    1041
0.6
    1042
0
    1002
}
       0
ENDBLK
       5
20B8
     330
2014
     100
AcDbEntity
       8
0
     100
AcDbBlockEnd
       0
BLOCK
       5
20B9
     330
2015
     100
AcDbEntity
       8
0
     100
AcDbBlockBegin
       2
Part1242848288
      70
0
      10
-55
      20
-22
      30
0
       3
Part1242848288
       1

       4
CypCutBlock
       0
LWPOLYLINE
       5
20BA
     100
AcDbEntity
       8
1
     100
AcDbPolyline
      90
4
      70
1
      10
-31.495
      20
5
      42
0
      10
-41.495
      20
5
      42
1
      10
-41.495
      20
-5
      42
0
      10
-31.495
      20
-5
      42
1
    1001
FS_CYPCUT
    1000
Channel
    1070
1
    1000
LeadIn
    1002
{
    1070
3
    1040
0.5
    1040
1.5707963267949
    1040
1
    1040
1
    1070
0
    1040
0.5
    1070
0
    1002
}
    1000
LeadOut
    1002
{
    1070
0
    1040
0
    1040
0
    1040
0
    1070
0
    1002
}
    1000
IsFill
    1070
0
    1000
PathStart
    1040
0.5
    1000
ToolCompensation
    1002
{
    1070
0
    1040
0
    1070
0
    1002
}
       0
LWPOLYLINE
       5
20BB
     100
AcDbEntity
       8
1
     100
AcDbPolyline
      90
4
      70
1
      10
41.495
      20
5.00000000000001
      42
-1
      10
41.495
      20
-5.00000000000001
      42
0
      10
31.495
      20
-5
      42
-1
      10
31.495
      20
5
      42
0
    1001
FS_CYPCUT
    1000
Channel
    1070
1
    1000
LeadIn
    1002
{
    1070
3
    1040
0.5
    1040
1.5707963267949
    1040
1
    1040
1
    1070
0
    1040
0.5
    1070
0
    1002
}
    1000
LeadOut
    1002
{
    1070
0
    1040
0
    1040
0
    1040
0
    1070
0
    1002
}
    1000
IsFill
    1070
0
    1000
PathStart
    1040
0.5
    1000
ToolCompensation
    1002
{
    1070
0
    1040
0
    1070
0
    1002
}
       0
LWPOLYLINE
       5
20BC
     100
AcDbEntity
       8
1
     100
AcDbPolyline
      90
8
      70
1
      10
55
      20
17
      42
0
      10
55
      20
-17
      42
-0.414213562373095
      10
50
      20
-22
      42
0
      10
-50
      20
-22
      42
-0.414213562373096
      10
-55
      20
-17
      42
0
      10
-55
      20
17
      42
-0.414213562373095
      10
-50
      20
22
      42
0
      10
50
      20
22
      42
-0.414213562373094
    1001
FS_CYPCUT
    1000
Channel
    1070
1
    1000
LeadIn
    1002
{
    1070
3
    1040
2.5
    1040
1.5707963267949
    1040
1
    1040
1
    1070
0
    1040
0.5
    1070
0
    1002
}
    1000
LeadOut
    1002
{
    1070
0
    1040
0
    1040
0
    1040
0
    1070
0
    1002
}
    1000
IsFill
    1070
1
    1000
PathStart
    1040
2.5
    1000
ToolCompensation
    1002
{
    1070
0
    1040
0
    1070
0
    1002
}
    1000
MicroConnect
    1002
{
    1070
2
    1040
0.436207116
    1041
0.6
    1042
0
    1040
4.5
    1041
0.6
    1042
0
    1002
}
       0
ENDBLK
       5
20BD
     330
2015
     100
AcDbEntity
       8
0
     100
AcDbBlockEnd
       0
BLOCK
       5
20BE
     330
2016
     100
AcDbEntity
       8
0
     100
AcDbBlockBegin
       2
Part405112923
      70
0
      10
-35
      20
-35
      30
0
       3
Part405112923
       1

       4
CypCutBlock
       0
CIRCLE
       5
20BF
     100
AcDbEntity
       8
1
     100
AcDbCircle
      10
-25
      20
-20
      30
0
      40
5.00000000000002
    1001
FS_CYPCUT
    1000
Channel
    1070
1
    1000
LeadIn
    1002
{
    1070
3
    1040
0
    1040
1.5707963267949
    1040
1
    1040
1
    1070
0
    1040
0.5
    1070
0
    1002
}
    1000
LeadOut
    1002
{
    1070
0
    1040
0
    1040
0
    1040
0
    1070
0
    1002
}
    1000
IsFill
    1070
0
    1000
PathStart
    1040
0
    1000
ToolCompensation
    1002
{
    1070
0
    1040
0
    1070
0
    1002
}
       0
CIRCLE
       5
20C0
     100
AcDbEntity
       8
1
     100
AcDbCircle
      10
-25
      20
6
      30
0
      40
5.00000000000001
    1001
FS_CYPCUT
    1000
Channel
    1070
1
    1000
LeadIn
    1002
{
    1070
3
    1040
0
    1040
1.5707963267949
    1040
1
    1040
1
    1070
0
    1040
0.5
    1070
0
    1002
}
    1000
LeadOut
    1002
{
    1070
0
    1040
0
    1040
0
    1040
0
    1070
0
    1002
}
    1000
IsFill
    1070
0
    1000
PathStart
    1040
0
    1000
ToolCompensation
    1002
{
    1070
0
    1040
0
    1070
0
    1002
}
       0
CIRCLE
       5
20C1
     100
AcDbEntity
       8
1
     100
AcDbCircle
      10
-6
      20
25
      30
0
      40
4.99999999999999
    1001
FS_CYPCUT
    1000
Channel
    1070
1
    1000
LeadIn
    1002
{
    1070
3
    1040
2.77555756156289E-17
    1040
1.5707963267949
    1040
1
    1040
1
    1070
0
    1040
0.5
    1070
0
    1002
}
    1000
LeadOut
    1002
{
    1070
0
    1040
0
    1040
0
    1040
0
    1070
0
    1002
}
    1000
IsFill
    1070
0
    1000
PathStart
    1040
2.77555756156289E-17
    1000
ToolCompensation
    1002
{
    1070
0
    1040
0
    1070
0
    1002
}
       0
CIRCLE
       5
20C2
     100
AcDbEntity
       8
1
     100
AcDbCircle
      10
20
      20
25
      30
0
      40
5
    1001
FS_CYPCUT
    1000
Channel
    1070
1
    1000
LeadIn
    1002
{
    1070
3
    1040
0
    1040
1.5707963267949
    1040
1
    1040
1
    1070
0
    1040
0.5
    1070
0
    1002
}
    1000
LeadOut
    1002
{
    1070
0
    1040
0
    1040
0
    1040
0
    1070
0
    1002
}
    1000
IsFill
    1070
0
    1000
PathStart
    1040
0
    1000
ToolCompensation
    1002
{
    1070
0
    1040
0
    1070
0
    1002
}
       0
LWPOLYLINE
       5
20C3
     100
AcDbEntity
       8
1
     100
AcDbPolyline
      90
12
      70
1
      10
35
      20
30
      42
0
      10
35
      20
-32
      42
-0.414213562373094
      10
32
      20
-35
      42
0
      10
-30
      20
-35
      42
-0.414213562373095
      10
-35
      20
-30
      42
0
      10
-35
      20
16
      42
-0.414213562373094
      10
-30
      20
21
      42
0
      10
-26
      20
21
      42
0.414213562373095
      10
-21
      20
26
      42
0
      10
-21
      20
30
      42
-0.414213562373096
      10
-16
      20
35
      42
0
      10
30
      20
35
      42
-0.414213562373097
    1001
FS_CYPCUT
    1000
Channel
    1070
1
    1000
LeadIn
    1002
{
    1070
3
    1040
0.5
    1040
1.5707963267949
    1040
1
    1040
1
    1070
0
    1040
0.5
    1070
0
    1002
}
    1000
LeadOut
    1002
{
    1070
0
    1040
0
    1040
0
    1040
0
    1070
0
    1002
}
    1000
IsFill
    1070
1
    1000
PathStart
    1040
0.5
    1000
ToolCompensation
    1002
{
    1070
0
    1040
0
    1070
0
    1002
}
    1000
MicroConnect
    1002
{
    1070
4
    1040
0.403225806
    1041
0.6
    1042
0
    1040
2.53804595
    1041
0.6
    1042
0
    1040
4.49492972
    1041
0.6
    1042
0
    1040
10.4821957
    1041
0.6
    1042
0
    1002
}
       0
ENDBLK
       5
20C4
     330
2016
     100
AcDbEntity
       8
0
     100
AcDbBlockEnd
       0
BLOCK
       5
20C5
     330
2017
     100
AcDbEntity
       8
0
     100
AcDbBlockBegin
       2
CommonPart635717239
      70
0
      10
1027.9949
      20
2302.1939
      30
0
       3
CommonPart635717239
       1

       4
CypCutBlock
       0
CIRCLE
       5
20C6
     100
AcDbEntity
       8
1
     100
AcDbCircle
      10
1087.9949
      20
2427.194
      30
0
      40
5
    1001
FS_CYPCUT
    1000
Channel
    1070
1
    1000
LeadIn
    1002
{
    1070
3
    1040
0
    1040
1.5707963267949
    1040
1
    1040
1
    1070
0
    1040
0.5
    1070
0
    1002
}
    1000
LeadOut
    1002
{
    1070
0
    1040
0
    1040
0
    1040
0
    1070
0
    1002
}
    1000
IsFill
    1070
0
    1000
PathStart
    1040
0
    1000
ToolCompensation
    1002
{
    1070
0
    1040
0
    1070
0
    1002
}
       0
CIRCLE
       5
20C7
     100
AcDbEntity
       8
1
     100
AcDbCircle
      10
1087.9949
      20
2401.194
      30
0
      40
5
    1001
FS_CYPCUT
    1000
Channel
    1070
1
    1000
LeadIn
    1002
{
    1070
3
    1040
0
    1040
1.5707963267949
    1040
1
    1040
1
    1070
0
    1040
0.5
    1070
0
    1002
}
    1000
LeadOut
    1002
{
    1070
0
    1040
0
    1040
0
    1040
0
    1070
0
    1002
}
    1000
IsFill
    1070
0
    1000
PathStart
    1040
0
    1000
ToolCompensation
    1002
{
    1070
0
    1040
0
    1070
0
    1002
}
       0
CIRCLE
       5
20C8
     100
AcDbEntity
       8
1
     100
AcDbCircle
      10
1068.9949
      20
2382.194
      30
0
      40
5
    1001
FS_CYPCUT
    1000
Channel
    1070
1
    1000
LeadIn
    1002
{
    1070
3
    1040
2.77555756156289E-17
    1040
1.5707963267949
    1040
1
    1040
1
    1070
0
    1040
0.5
    1070
0
    1002
}
    1000
LeadOut
    1002
{
    1070
0
    1040
0
    1040
0
    1040
0
    1070
0
    1002
}
    1000
IsFill
    1070
0
    1000
PathStart
    1040
2.77555756156289E-17
    1000
ToolCompensation
    1002
{
    1070
0
    1040
0
    1070
0
    1002
}
       0
CIRCLE
       5
20C9
     100
AcDbEntity
       8
1
     100
AcDbCircle
      10
1042.9949
      20
2382.194
      30
0
      40
5
    1001
FS_CYPCUT
    1000
Channel
    1070
1
    1000
LeadIn
    1002
{
    1070
3
    1040
0
    1040
1.5707963267949
    1040
1
    1040
1
    1070
0
    1040
0.5
    1070
0
    1002
}
    1000
LeadOut
    1002
{
    1070
0
    1040
0
    1040
0
    1040
0
    1070
0
    1002
}
    1000
IsFill
    1070
0
    1000
PathStart
    1040
0
    1000
ToolCompensation
    1002
{
    1070
0
    1040
0
    1070
0
    1002
}
       0
LWPOLYLINE
       5
20CA
     100
AcDbEntity
       8
1
     100
AcDbPolyline
      90
12
      70
0
      10
1032.9949
      20
2372.194
      42
-0.414213562373097
      10
1027.9949
      20
2377.194
      42
0
      10
1027.9949
      20
2439.194
      42
-0.414213562373094
      10
1030.9949
      20
2442.194
      42
0
      10
1092.9949
      20
2442.194
      42
-0.414213562373095
      10
1097.9949
      20
2437.194
      42
0
      10
1097.9949
      20
2391.194
      42
-0.414213562373094
      10
1092.9949
      20
2386.194
      42
0
      10
1088.9949
      20
2386.194
      42
0.414213562373095
      10
1083.9949
      20
2381.194
      42
0
      10
1083.9949
      20
2377.194
      42
-0.414213562373096
      10
1078.9949
      20
2372.194
      42
0
    1001
FS_CYPCUT
    1000
Channel
    1070
1
    1000
LeadIn
    1002
{
    1070
0
    1040
0
    1040
0
    1040
0
    1040
0
    1070
0
    1040
0
    1070
0
    1002
}
    1000
LeadOut
    1002
{
    1070
0
    1040
0
    1040
0
    1040
0
    1070
0
    1002
}
    1000
IsFill
    1070
1
    1000
PathStart
    1040
0
    1000
ToolCompensation
    1002
{
    1070
0
    1040
0
    1070
0
    1002
}
    1000
MicroConnect
    1002
{
    1070
1
    1040
0
    1041
0
    1042
0
    1002
}
       0
CIRCLE
       5
20CB
     100
AcDbEntity
       8
1
     100
AcDbCircle
      10
1042.9949
      20
2362.1939
      30
0
      40
5
    1001
FS_CYPCUT
    1000
Channel
    1070
1
    1000
LeadIn
    1002
{
    1070
3
    1040
0
    1040
1.5707963267949
    1040
1
    1040
1
    1070
0
    1040
0.5
    1070
0
    1002
}
    1000
LeadOut
    1002
{
    1070
0
    1040
0
    1040
0
    1040
0
    1070
0
    1002
}
    1000
IsFill
    1070
0
    1000
PathStart
    1040
0
    1000
ToolCompensation
    1002
{
    1070
0
    1040
0
    1070
0
    1002
}
       0
CIRCLE
       5
20CC
     100
AcDbEntity
       8
1
     100
AcDbCircle
      10
1068.9949
      20
2362.1939
      30
0
      40
5
    1001
FS_CYPCUT
    1000
Channel
    1070
1
    1000
LeadIn
    1002
{
    1070
3
    1040
0
    1040
1.5707963267949
    1040
1
    1040
1
    1070
0
    1040
0.5
    1070
0
    1002
}
    1000
LeadOut
    1002
{
    1070
0
    1040
0
    1040
0
    1040
0
    1070
0
    1002
}
    1000
IsFill
    1070
0
    1000
PathStart
    1040
0
    1000
ToolCompensation
    1002
{
    1070
0
    1040
0
    1070
0
    1002
}
       0
CIRCLE
       5
20CD
     100
AcDbEntity
       8
1
     100
AcDbCircle
      10
1087.9949
      20
2343.1939
      30
0
      40
5
    1001
FS_CYPCUT
    1000
Channel
    1070
1
    1000
LeadIn
    1002
{
    1070
3
    1040
2.77555756156289E-17
    1040
1.5707963267949
    1040
1
    1040
1
    1070
0
    1040
0.5
    1070
0
    1002
}
    1000
LeadOut
    1002
{
    1070
0
    1040
0
    1040
0
    1040
0
    1070
0
    1002
}
    1000
IsFill
    1070
0
    1000
PathStart
    1040
2.77555756156289E-17
    1000
ToolCompensation
    1002
{
    1070
0
    1040
0
    1070
0
    1002
}
       0
CIRCLE
       5
20CE
     100
AcDbEntity
       8
1
     100
AcDbCircle
      10
1087.9949
      20
2317.1939
      30
0
      40
5
    1001
FS_CYPCUT
    1000
Channel
    1070
1
    1000
LeadIn
    1002
{
    1070
3
    1040
0
    1040
1.5707963267949
    1040
1
    1040
1
    1070
0
    1040
0.5
    1070
0
    1002
}
    1000
LeadOut
    1002
{
    1070
0
    1040
0
    1040
0
    1040
0
    1070
0
    1002
}
    1000
IsFill
    1070
0
    1000
PathStart
    1040
0
    1000
ToolCompensation
    1002
{
    1070
0
    1040
0
    1070
0
    1002
}
       0
LWPOLYLINE
       5
20CF
     100
AcDbEntity
       8
1
     100
AcDbPolyline
      90
12
      70
1
      10
1078.9949
      20
2372.1939
      42
0
      10
1032.9949
      20
2372.1939
      42
0.414213562373095
      10
1027.9949
      20
2367.1939
      42
0
      10
1027.9949
      20
2305.1939
      42
0.414213562373094
      10
1030.9949
      20
2302.1939
      42
0
      10
1092.9949
      20
2302.1939
      42
0.414213562373097
      10
1097.9949
      20
2307.1939
      42
0
      10
1097.9949
      20
2353.1939
      42
0.414213562373096
      10
1092.9949
      20
2358.1939
      42
0
      10
1088.9949
      20
2358.1939
      42
-0.414213562373095
      10
1083.9949
      20
2363.1939
      42
0
      10
1083.9949
      20
2367.1939
      42
0.414213562373094
    1001
FS_CYPCUT
    1000
Channel
    1070
1
    1000
LeadIn
    1002
{
    1070
0
    1040
0
    1040
0
    1040
0
    1040
0
    1070
0
    1040
0
    1070
0
    1002
}
    1000
LeadOut
    1002
{
    1070
0
    1040
0
    1040
0
    1040
0
    1070
0
    1002
}
    1000
IsFill
    1070
1
    1000
PathStart
    1040
0
    1000
ToolCompensation
    1002
{
    1070
0
    1040
0
    1070
0
    1002
}
       0
ENDBLK
       5
20D0
     330
2017
     100
AcDbEntity
       8
0
     100
AcDbBlockEnd
       0
BLOCK
       5
20D1
     330
2018
     100
AcDbEntity
       8
0
     100
AcDbBlockBegin
       2
Part782166238
      70
0
      10
-35
      20
-35
      30
0
       3
Part782166238
       1

       4
CypCutBlock
       0
CIRCLE
       5
20D2
     100
AcDbEntity
       8
1
     100
AcDbCircle
      10
-25
      20
-20
      30
0
      40
5.00000000000002
    1001
FS_CYPCUT
    1000
Channel
    1070
1
    1000
LeadIn
    1002
{
    1070
3
    1040
0
    1040
1.5707963267949
    1040
1
    1040
1
    1070
0
    1040
0.5
    1070
0
    1002
}
    1000
LeadOut
    1002
{
    1070
0
    1040
0
    1040
0
    1040
0
    1070
0
    1002
}
    1000
IsFill
    1070
0
    1000
PathStart
    1040
0
    1000
ToolCompensation
    1002
{
    1070
0
    1040
0
    1070
0
    1002
}
       0
CIRCLE
       5
20D3
     100
AcDbEntity
       8
1
     100
AcDbCircle
      10
-25
      20
6
      30
0
      40
5.00000000000001
    1001
FS_CYPCUT
    1000
Channel
    1070
1
    1000
LeadIn
    1002
{
    1070
3
    1040
0
    1040
1.5707963267949
    1040
1
    1040
1
    1070
0
    1040
0.5
    1070
0
    1002
}
    1000
LeadOut
    1002
{
    1070
0
    1040
0
    1040
0
    1040
0
    1070
0
    1002
}
    1000
IsFill
    1070
0
    1000
PathStart
    1040
0
    1000
ToolCompensation
    1002
{
    1070
0
    1040
0
    1070
0
    1002
}
       0
CIRCLE
       5
20D4
     100
AcDbEntity
       8
1
     100
AcDbCircle
      10
-6
      20
25
      30
0
      40
4.99999999999999
    1001
FS_CYPCUT
    1000
Channel
    1070
1
    1000
LeadIn
    1002
{
    1070
3
    1040
2.77555756156289E-17
    1040
1.5707963267949
    1040
1
    1040
1
    1070
0
    1040
0.5
    1070
0
    1002
}
    1000
LeadOut
    1002
{
    1070
0
    1040
0
    1040
0
    1040
0
    1070
0
    1002
}
    1000
IsFill
    1070
0
    1000
PathStart
    1040
2.77555756156289E-17
    1000
ToolCompensation
    1002
{
    1070
0
    1040
0
    1070
0
    1002
}
       0
CIRCLE
       5
20D5
     100
AcDbEntity
       8
1
     100
AcDbCircle
      10
20
      20
25
      30
0
      40
5
    1001
FS_CYPCUT
    1000
Channel
    1070
1
    1000
LeadIn
    1002
{
    1070
3
    1040
0
    1040
1.5707963267949
    1040
1
    1040
1
    1070
0
    1040
0.5
    1070
0
    1002
}
    1000
LeadOut
    1002
{
    1070
0
    1040
0
    1040
0
    1040
0
    1070
0
    1002
}
    1000
IsFill
    1070
0
    1000
PathStart
    1040
0
    1000
ToolCompensation
    1002
{
    1070
0
    1040
0
    1070
0
    1002
}
       0
LWPOLYLINE
       5
20D6
     100
AcDbEntity
       8
1
     100
AcDbPolyline
      90
12
      70
1
      10
35
      20
30
      42
0
      10
35
      20
-32
      42
-0.414213562373094
      10
32
      20
-35
      42
0
      10
-30
      20
-35
      42
-0.414213562373095
      10
-35
      20
-30
      42
0
      10
-35
      20
16
      42
-0.414213562373094
      10
-30
      20
21
      42
0
      10
-26
      20
21
      42
0.414213562373095
      10
-21
      20
26
      42
0
      10
-21
      20
30
      42
-0.414213562373096
      10
-16
      20
35
      42
0
      10
30
      20
35
      42
-0.414213562373097
    1001
FS_CYPCUT
    1000
Channel
    1070
1
    1000
LeadIn
    1002
{
    1070
3
    1040
0.5
    1040
1.5707963267949
    1040
1
    1040
1
    1070
0
    1040
0.5
    1070
0
    1002
}
    1000
LeadOut
    1002
{
    1070
0
    1040
0
    1040
0
    1040
0
    1070
0
    1002
}
    1000
IsFill
    1070
1
    1000
PathStart
    1040
0.5
    1000
ToolCompensation
    1002
{
    1070
0
    1040
0
    1070
0
    1002
}
    1000
MicroConnect
    1002
{
    1070
4
    1040
0.403225806
    1041
0.6
    1042
0
    1040
2.53804595
    1041
0.6
    1042
0
    1040
4.49492972
    1041
0.6
    1042
0
    1040
10.4821957
    1041
0.6
    1042
0
    1002
}
       0
ENDBLK
       5
20D7
     330
2018
     100
AcDbEntity
       8
0
     100
AcDbBlockEnd
       0
BLOCK
       5
20D8
     330
2019
     100
AcDbEntity
       8
0
     100
AcDbBlockBegin
       2
Part692754950
      70
0
      10
-55
      20
-22
      30
0
       3
Part692754950
       1

       4
CypCutBlock
       0
LWPOLYLINE
       5
20D9
     100
AcDbEntity
       8
1
     100
AcDbPolyline
      90
4
      70
1
      10
-31.495
      20
5
      42
0
      10
-41.495
      20
5
      42
1
      10
-41.495
      20
-5
      42
0
      10
-31.495
      20
-5
      42
1
    1001
FS_CYPCUT
    1000
Channel
    1070
1
    1000
LeadIn
    1002
{
    1070
3
    1040
0.5
    1040
1.5707963267949
    1040
1
    1040
1
    1070
0
    1040
0.5
    1070
0
    1002
}
    1000
LeadOut
    1002
{
    1070
0
    1040
0
    1040
0
    1040
0
    1070
0
    1002
}
    1000
IsFill
    1070
0
    1000
PathStart
    1040
0.5
    1000
ToolCompensation
    1002
{
    1070
0
    1040
0
    1070
0
    1002
}
       0
LWPOLYLINE
       5
20DA
     100
AcDbEntity
       8
1
     100
AcDbPolyline
      90
4
      70
1
      10
41.495
      20
5.00000000000001
      42
-1
      10
41.495
      20
-5.00000000000001
      42
0
      10
31.495
      20
-5
      42
-1
      10
31.495
      20
5
      42
0
    1001
FS_CYPCUT
    1000
Channel
    1070
1
    1000
LeadIn
    1002
{
    1070
3
    1040
0.5
    1040
1.5707963267949
    1040
1
    1040
1
    1070
0
    1040
0.5
    1070
0
    1002
}
    1000
LeadOut
    1002
{
    1070
0
    1040
0
    1040
0
    1040
0
    1070
0
    1002
}
    1000
IsFill
    1070
0
    1000
PathStart
    1040
0.5
    1000
ToolCompensation
    1002
{
    1070
0
    1040
0
    1070
0
    1002
}
       0
LWPOLYLINE
       5
20DB
     100
AcDbEntity
       8
1
     100
AcDbPolyline
      90
8
      70
1
      10
55
      20
17
      42
0
      10
55
      20
-17
      42
-0.414213562373095
      10
50
      20
-22
      42
0
      10
-50
      20
-22
      42
-0.414213562373096
      10
-55
      20
-17
      42
0
      10
-55
      20
17
      42
-0.414213562373095
      10
-50
      20
22
      42
0
      10
50
      20
22
      42
-0.414213562373094
    1001
FS_CYPCUT
    1000
Channel
    1070
1
    1000
LeadIn
    1002
{
    1070
3
    1040
2.5
    1040
1.5707963267949
    1040
1
    1040
1
    1070
0
    1040
0.5
    1070
0
    1002
}
    1000
LeadOut
    1002
{
    1070
0
    1040
0
    1040
0
    1040
0
    1070
0
    1002
}
    1000
IsFill
    1070
1
    1000
PathStart
    1040
2.5
    1000
ToolCompensation
    1002
{
    1070
0
    1040
0
    1070
0
    1002
}
    1000
MicroConnect
    1002
{
    1070
2
    1040
0.436207116
    1041
0.6
    1042
0
    1040
4.5
    1041
0.6
    1042
0
    1002
}
       0
ENDBLK
       5
20DC
     330
2019
     100
AcDbEntity
       8
0
     100
AcDbBlockEnd
       0
BLOCK
       5
20DD
     330
201A
     100
AcDbEntity
       8
0
     100
AcDbBlockBegin
       2
CommonPart515188085
      70
0
      10
757.9978
      20
2166.4856
      30
0
       3
CommonPart515188085
       1

       4
CypCutBlock
       0
CIRCLE
       5
20DE
     100
AcDbEntity
       8
1
     100
AcDbCircle
      10
767.9978
      20
2191.4856
      30
0
      40
5
    1001
FS_CYPCUT
    1000
Channel
    1070
1
    1000
LeadIn
    1002
{
    1070
3
    1040
0
    1040
1.5707963267949
    1040
1
    1040
1
    1070
0
    1040
0.5
    1070
0
    1002
}
    1000
LeadOut
    1002
{
    1070
0
    1040
0
    1040
0
    1040
0
    1070
0
    1002
}
    1000
IsFill
    1070
0
    1000
PathStart
    1040
0
    1000
ToolCompensation
    1002
{
    1070
0
    1040
0
    1070
0
    1002
}
       0
CIRCLE
       5
20DF
     100
AcDbEntity
       8
1
     100
AcDbCircle
      10
893.7078
      20
2191.4856
      30
0
      40
4.99999999999989
    1001
FS_CYPCUT
    1000
Channel
    1070
1
    1000
LeadIn
    1002
{
    1070
3
    1040
1.38777878078145E-16
    1040
1.5707963267949
    1040
1
    1040
1
    1070
0
    1040
0.5
    1070
0
    1002
}
    1000
LeadOut
    1002
{
    1070
0
    1040
0
    1040
0
    1040
0
    1070
0
    1002
}
    1000
IsFill
    1070
0
    1000
PathStart
    1040
1.38777878078145E-16
    1000
ToolCompensation
    1002
{
    1070
0
    1040
0
    1070
0
    1002
}
       0
LWPOLYLINE
       5
20E0
     100
AcDbEntity
       8
1
     100
AcDbPolyline
      90
8
      70
0
      10
903.7078
      20
2211.4856
      42
0.414213562373093
      10
898.7078
      20
2216.4856
      42
0
      10
762.9978
      20
2216.4856
      42
0.414213562373095
      10
757.9978
      20
2211.4856
      42
0
      10
757.9978
      20
2171.4856
      42
0.414213562373095
      10
762.9978
      20
2166.4856
      42
0
      10
898.7078
      20
2166.4856
      42
0.414213562373095
      10
903.7078
      20
2171.4856
      42
0
    1001
FS_CYPCUT
    1000
Channel
    1070
1
    1000
LeadIn
    1002
{
    1070
0
    1040
0
    1040
0
    1040
0
    1040
0
    1070
0
    1040
0
    1070
0
    1002
}
    1000
LeadOut
    1002
{
    1070
0
    1040
0
    1040
0
    1040
0
    1070
0
    1002
}
    1000
IsFill
    1070
1
    1000
PathStart
    1040
0
    1000
ToolCompensation
    1002
{
    1070
0
    1040
0
    1070
0
    1002
}
    1000
MicroConnect
    1002
{
    1070
1
    1040
0
    1041
0
    1042
0
    1002
}
       0
CIRCLE
       5
20E1
     100
AcDbEntity
       8
1
     100
AcDbCircle
      10
913.7079
      20
2191.4856
      30
0
      40
5
    1001
FS_CYPCUT
    1000
Channel
    1070
1
    1000
LeadIn
    1002
{
    1070
3
    1040
0
    1040
1.5707963267949
    1040
1
    1040
1
    1070
0
    1040
0.5
    1070
0
    1002
}
    1000
LeadOut
    1002
{
    1070
0
    1040
0
    1040
0
    1040
0
    1070
0
    1002
}
    1000
IsFill
    1070
0
    1000
PathStart
    1040
0
    1000
ToolCompensation
    1002
{
    1070
0
    1040
0
    1070
0
    1002
}
       0
CIRCLE
       5
20E2
     100
AcDbEntity
       8
1
     100
AcDbCircle
      10
1039.4179
      20
2191.4856
      30
0
      40
5
    1001
FS_CYPCUT
    1000
Channel
    1070
1
    1000
LeadIn
    1002
{
    1070
3
    1040
1.38777878078145E-16
    1040
1.5707963267949
    1040
1
    1040
1
    1070
0
    1040
0.5
    1070
0
    1002
}
    1000
LeadOut
    1002
{
    1070
0
    1040
0
    1040
0
    1040
0
    1070
0
    1002
}
    1000
IsFill
    1070
0
    1000
PathStart
    1040
1.38777878078145E-16
    1000
ToolCompensation
    1002
{
    1070
0
    1040
0
    1070
0
    1002
}
       0
LWPOLYLINE
       5
20E3
     100
AcDbEntity
       8
1
     100
AcDbPolyline
      90
8
      70
1
      10
903.7079
      20
2211.4856
      42
0
      10
903.7079
      20
2171.4856
      42
0.414213562373095
      10
908.7079
      20
2166.4856
      42
0
      10
1044.4179
      20
2166.4856
      42
0.414213562373095
      10
1049.4179
      20
2171.4856
      42
0
      10
1049.4179
      20
2211.4856
      42
0.414213562373093
      10
1044.4179
      20
2216.4856
      42
0
      10
908.7079
      20
2216.4856
      42
0.414213562373095
    1001
FS_CYPCUT
    1000
Channel
    1070
1
    1000
LeadIn
    1002
{
    1070
0
    1040
0
    1040
0
    1040
0
    1040
0
    1070
0
    1040
0
    1070
0
    1002
}
    1000
LeadOut
    1002
{
    1070
0
    1040
0
    1040
0
    1040
0
    1070
0
    1002
}
    1000
IsFill
    1070
1
    1000
PathStart
    1040
0
    1000
ToolCompensation
    1002
{
    1070
0
    1040
0
    1070
0
    1002
}
       0
ENDBLK
       5
20E4
     330
201A
     100
AcDbEntity
       8
0
     100
AcDbBlockEnd
       0
BLOCK
       5
20E5
     330
201B
     100
AcDbEntity
       8
0
     100
AcDbBlockBegin
       2
CommonPart663984093
      70
0
      10
757.9978
      20
2113.4856
      30
0
       3
CommonPart663984093
       1

       4
CypCutBlock
       0
CIRCLE
       5
20E6
     100
AcDbEntity
       8
1
     100
AcDbCircle
      10
767.9978
      20
2138.4856
      30
0
      40
5
    1001
FS_CYPCUT
    1000
Channel
    1070
1
    1000
LeadIn
    1002
{
    1070
3
    1040
0
    1040
1.5707963267949
    1040
1
    1040
1
    1070
0
    1040
0.5
    1070
0
    1002
}
    1000
LeadOut
    1002
{
    1070
0
    1040
0
    1040
0
    1040
0
    1070
0
    1002
}
    1000
IsFill
    1070
0
    1000
PathStart
    1040
0
    1000
ToolCompensation
    1002
{
    1070
0
    1040
0
    1070
0
    1002
}
       0
CIRCLE
       5
20E7
     100
AcDbEntity
       8
1
     100
AcDbCircle
      10
893.7078
      20
2138.4856
      30
0
      40
4.99999999999989
    1001
FS_CYPCUT
    1000
Channel
    1070
1
    1000
LeadIn
    1002
{
    1070
3
    1040
1.38777878078145E-16
    1040
1.5707963267949
    1040
1
    1040
1
    1070
0
    1040
0.5
    1070
0
    1002
}
    1000
LeadOut
    1002
{
    1070
0
    1040
0
    1040
0
    1040
0
    1070
0
    1002
}
    1000
IsFill
    1070
0
    1000
PathStart
    1040
1.38777878078145E-16
    1000
ToolCompensation
    1002
{
    1070
0
    1040
0
    1070
0
    1002
}
       0
LWPOLYLINE
       5
20E8
     100
AcDbEntity
       8
1
     100
AcDbPolyline
      90
8
      70
0
      10
903.7078
      20
2158.4856
      42
0.414213562373093
      10
898.7078
      20
2163.4856
      42
0
      10
762.9978
      20
2163.4856
      42
0.414213562373095
      10
757.9978
      20
2158.4856
      42
0
      10
757.9978
      20
2118.4856
      42
0.414213562373095
      10
762.9978
      20
2113.4856
      42
0
      10
898.7078
      20
2113.4856
      42
0.414213562373095
      10
903.7078
      20
2118.4856
      42
0
    1001
FS_CYPCUT
    1000
Channel
    1070
1
    1000
LeadIn
    1002
{
    1070
0
    1040
0
    1040
0
    1040
0
    1040
0
    1070
0
    1040
0
    1070
0
    1002
}
    1000
LeadOut
    1002
{
    1070
0
    1040
0
    1040
0
    1040
0
    1070
0
    1002
}
    1000
IsFill
    1070
1
    1000
PathStart
    1040
0
    1000
ToolCompensation
    1002
{
    1070
0
    1040
0
    1070
0
    1002
}
    1000
MicroConnect
    1002
{
    1070
1
    1040
0
    1041
0
    1042
0
    1002
}
       0
CIRCLE
       5
20E9
     100
AcDbEntity
       8
1
     100
AcDbCircle
      10
913.7079
      20
2138.4856
      30
0
      40
5
    1001
FS_CYPCUT
    1000
Channel
    1070
1
    1000
LeadIn
    1002
{
    1070
3
    1040
0
    1040
1.5707963267949
    1040
1
    1040
1
    1070
0
    1040
0.5
    1070
0
    1002
}
    1000
LeadOut
    1002
{
    1070
0
    1040
0
    1040
0
    1040
0
    1070
0
    1002
}
    1000
IsFill
    1070
0
    1000
PathStart
    1040
0
    1000
ToolCompensation
    1002
{
    1070
0
    1040
0
    1070
0
    1002
}
       0
CIRCLE
       5
20EA
     100
AcDbEntity
       8
1
     100
AcDbCircle
      10
1039.4179
      20
2138.4856
      30
0
      40
5
    1001
FS_CYPCUT
    1000
Channel
    1070
1
    1000
LeadIn
    1002
{
    1070
3
    1040
1.38777878078145E-16
    1040
1.5707963267949
    1040
1
    1040
1
    1070
0
    1040
0.5
    1070
0
    1002
}
    1000
LeadOut
    1002
{
    1070
0
    1040
0
    1040
0
    1040
0
    1070
0
    1002
}
    1000
IsFill
    1070
0
    1000
PathStart
    1040
1.38777878078145E-16
    1000
ToolCompensation
    1002
{
    1070
0
    1040
0
    1070
0
    1002
}
       0
LWPOLYLINE
       5
20EB
     100
AcDbEntity
       8
1
     100
AcDbPolyline
      90
8
      70
1
      10
903.7079
      20
2158.4856
      42
0
      10
903.7079
      20
2118.4856
      42
0.414213562373095
      10
908.7079
      20
2113.4856
      42
0
      10
1044.4179
      20
2113.4856
      42
0.414213562373095
      10
1049.4179
      20
2118.4856
      42
0
      10
1049.4179
      20
2158.4856
      42
0.414213562373093
      10
1044.4179
      20
2163.4856
      42
0
      10
908.7079
      20
2163.4856
      42
0.414213562373095
    1001
FS_CYPCUT
    1000
Channel
    1070
1
    1000
LeadIn
    1002
{
    1070
0
    1040
0
    1040
0
    1040
0
    1040
0
    1070
0
    1040
0
    1070
0
    1002
}
    1000
LeadOut
    1002
{
    1070
0
    1040
0
    1040
0
    1040
0
    1070
0
    1002
}
    1000
IsFill
    1070
1
    1000
PathStart
    1040
0
    1000
ToolCompensation
    1002
{
    1070
0
    1040
0
    1070
0
    1002
}
       0
ENDBLK
       5
20EC
     330
201B
     100
AcDbEntity
       8
0
     100
AcDbBlockEnd
       0
BLOCK
       5
20ED
     330
201C
     100
AcDbEntity
       8
0
     100
AcDbBlockBegin
       2
CommonPart635333186
      70
0
      10
757.9978
      20
2219.4856
      30
0
       3
CommonPart635333186
       1

       4
CypCutBlock
       0
LWPOLYLINE
       5
20EE
     100
AcDbEntity
       8
1
     100
AcDbPolyline
      90
4
      70
1
      10
781.5028
      20
2246.4856
      42
-1
      10
781.5028
      20
2236.4856
      42
0
      10
771.5028
      20
2236.4856
      42
-1
      10
771.5028
      20
2246.4856
      42
0
    1001
FS_CYPCUT
    1000
Channel
    1070
1
    1000
LeadIn
    1002
{
    1070
3
    1040
3.5
    1040
1.5707963267949
    1040
1
    1040
1
    1070
0
    1040
0.5
    1070
0
    1002
}
    1000
LeadOut
    1002
{
    1070
0
    1040
0
    1040
0
    1040
0
    1070
0
    1002
}
    1000
IsFill
    1070
0
    1000
PathStart
    1040
3.5
    1000
ToolCompensation
    1002
{
    1070
0
    1040
0
    1070
0
    1002
}
       0
LWPOLYLINE
       5
20EF
     100
AcDbEntity
       8
1
     100
AcDbPolyline
      90
4
      70
1
      10
854.4928
      20
2246.4856
      42
-1
      10
854.4928
      20
2236.4856
      42
0
      10
844.4928
      20
2236.4856
      42
-1
      10
844.4928
      20
2246.4856
      42
0
    1001
FS_CYPCUT
    1000
Channel
    1070
1
    1000
LeadIn
    1002
{
    1070
3
    1040
0.5
    1040
1.5707963267949
    1040
1
    1040
1
    1070
0
    1040
0.5
    1070
0
    1002
}
    1000
LeadOut
    1002
{
    1070
0
    1040
0
    1040
0
    1040
0
    1070
0
    1002
}
    1000
IsFill
    1070
0
    1000
PathStart
    1040
0.5
    1000
ToolCompensation
    1002
{
    1070
0
    1040
0
    1070
0
    1002
}
       0
LWPOLYLINE
       5
20F0
     100
AcDbEntity
       8
1
     100
AcDbPolyline
      90
8
      70
0
      10
867.9978
      20
2258.4856
      42
0.414213562373094
      10
862.9978
      20
2263.4856
      42
0
      10
762.9978
      20
2263.4856
      42
0.414213562373095
      10
757.9978
      20
2258.4856
      42
0
      10
757.9978
      20
2224.4856
      42
0.414213562373096
      10
762.9978
      20
2219.4856
      42
0
      10
862.9978
      20
2219.4856
      42
0.414213562373095
      10
867.9978
      20
2224.4856
      42
0
    1001
FS_CYPCUT
    1000
Channel
    1070
1
    1000
LeadIn
    1002
{
    1070
0
    1040
0
    1040
0
    1040
0
    1040
0
    1070
0
    1040
0
    1070
0
    1002
}
    1000
LeadOut
    1002
{
    1070
0
    1040
0
    1040
0
    1040
0
    1070
0
    1002
}
    1000
IsFill
    1070
1
    1000
PathStart
    1040
0
    1000
ToolCompensation
    1002
{
    1070
0
    1040
0
    1070
0
    1002
}
    1000
MicroConnect
    1002
{
    1070
1
    1040
0
    1041
0
    1042
0
    1002
}
       0
LWPOLYLINE
       5
20F1
     100
AcDbEntity
       8
1
     100
AcDbPolyline
      90
4
      70
1
      10
891.5029
      20
2246.4856
      42
-1
      10
891.5029
      20
2236.4856
      42
0
      10
881.5029
      20
2236.4856
      42
-1
      10
881.5029
      20
2246.4856
      42
0
    1001
FS_CYPCUT
    1000
Channel
    1070
1
    1000
LeadIn
    1002
{
    1070
3
    1040
3.5
    1040
1.5707963267949
    1040
1
    1040
1
    1070
0
    1040
0.5
    1070
0
    1002
}
    1000
LeadOut
    1002
{
    1070
0
    1040
0
    1040
0
    1040
0
    1070
0
    1002
}
    1000
IsFill
    1070
0
    1000
PathStart
    1040
3.5
    1000
ToolCompensation
    1002
{
    1070
0
    1040
0
    1070
0
    1002
}
       0
LWPOLYLINE
       5
20F2
     100
AcDbEntity
       8
1
     100
AcDbPolyline
      90
4
      70
1
      10
964.4929
      20
2246.4856
      42
-1
      10
964.4929
      20
2236.4856
      42
0
      10
954.4929
      20
2236.4856
      42
-1
      10
954.4929
      20
2246.4856
      42
0
    1001
FS_CYPCUT
    1000
Channel
    1070
1
    1000
LeadIn
    1002
{
    1070
3
    1040
0.5
    1040
1.5707963267949
    1040
1
    1040
1
    1070
0
    1040
0.5
    1070
0
    1002
}
    1000
LeadOut
    1002
{
    1070
0
    1040
0
    1040
0
    1040
0
    1070
0
    1002
}
    1000
IsFill
    1070
0
    1000
PathStart
    1040
0.5
    1000
ToolCompensation
    1002
{
    1070
0
    1040
0
    1070
0
    1002
}
       0
LWPOLYLINE
       5
20F3
     100
AcDbEntity
       8
1
     100
AcDbPolyline
      90
8
      70
1
      10
867.9979
      20
2258.4856
      42
-0.414213562373095
      10
872.9979
      20
2263.4856
      42
0
      10
972.9979
      20
2263.4856
      42
-0.414213562373094
      10
977.9979
      20
2258.4856
      42
0
      10
977.9979
      20
2224.4856
      42
-0.414213562373095
      10
972.9979
      20
2219.4856
      42
0
      10
872.9979
      20
2219.4856
      42
-0.414213562373096
      10
867.9979
      20
2224.4856
      42
0
    1001
FS_CYPCUT
    1000
Channel
    1070
1
    1000
LeadIn
    1002
{
    1070
0
    1040
7
    1040
1.5707963267949
    1040
1
    1040
1
    1070
0
    1040
0.5
    1070
0
    1002
}
    1000
LeadOut
    1002
{
    1070
0
    1040
0
    1040
0
    1040
0
    1070
0
    1002
}
    1000
IsFill
    1070
1
    1000
PathStart
    1040
7
    1000
ToolCompensation
    1002
{
    1070
0
    1040
0
    1070
0
    1002
}
       0
ENDBLK
       5
20F4
     330
201C
     100
AcDbEntity
       8
0
     100
AcDbBlockEnd
       0
BLOCK
       5
20F5
     330
201D
     100
AcDbEntity
       8
0
     100
AcDbBlockBegin
       2
Part1525600420
      70
0
      10
-55
      20
-22
      30
0
       3
Part1525600420
       1

       4
CypCutBlock
       0
LWPOLYLINE
       5
20F6
     100
AcDbEntity
       8
1
     100
AcDbPolyline
      90
4
      70
1
      10
-31.495
      20
5
      42
0
      10
-41.495
      20
5
      42
1
      10
-41.495
      20
-5
      42
0
      10
-31.495
      20
-5
      42
1
    1001
FS_CYPCUT
    1000
Channel
    1070
1
    1000
LeadIn
    1002
{
    1070
3
    1040
0.5
    1040
1.5707963267949
    1040
1
    1040
1
    1070
0
    1040
0.5
    1070
0
    1002
}
    1000
LeadOut
    1002
{
    1070
0
    1040
0
    1040
0
    1040
0
    1070
0
    1002
}
    1000
IsFill
    1070
0
    1000
PathStart
    1040
0.5
    1000
ToolCompensation
    1002
{
    1070
0
    1040
0
    1070
0
    1002
}
       0
LWPOLYLINE
       5
20F7
     100
AcDbEntity
       8
1
     100
AcDbPolyline
      90
4
      70
1
      10
41.495
      20
5.00000000000001
      42
-1
      10
41.495
      20
-5.00000000000001
      42
0
      10
31.495
      20
-5
      42
-1
      10
31.495
      20
5
      42
0
    1001
FS_CYPCUT
    1000
Channel
    1070
1
    1000
LeadIn
    1002
{
    1070
3
    1040
0.5
    1040
1.5707963267949
    1040
1
    1040
1
    1070
0
    1040
0.5
    1070
0
    1002
}
    1000
LeadOut
    1002
{
    1070
0
    1040
0
    1040
0
    1040
0
    1070
0
    1002
}
    1000
IsFill
    1070
0
    1000
PathStart
    1040
0.5
    1000
ToolCompensation
    1002
{
    1070
0
    1040
0
    1070
0
    1002
}
       0
LWPOLYLINE
       5
20F8
     100
AcDbEntity
       8
1
     100
AcDbPolyline
      90
8
      70
1
      10
55
      20
17
      42
0
      10
55
      20
-17
      42
-0.414213562373095
      10
50
      20
-22
      42
0
      10
-50
      20
-22
      42
-0.414213562373096
      10
-55
      20
-17
      42
0
      10
-55
      20
17
      42
-0.414213562373095
      10
-50
      20
22
      42
0
      10
50
      20
22
      42
-0.414213562373094
    1001
FS_CYPCUT
    1000
Channel
    1070
1
    1000
LeadIn
    1002
{
    1070
3
    1040
2.5
    1040
1.5707963267949
    1040
1
    1040
1
    1070
0
    1040
0.5
    1070
0
    1002
}
    1000
LeadOut
    1002
{
    1070
0
    1040
0
    1040
0
    1040
0
    1070
0
    1002
}
    1000
IsFill
    1070
1
    1000
PathStart
    1040
2.5
    1000
ToolCompensation
    1002
{
    1070
0
    1040
0
    1070
0
    1002
}
    1000
MicroConnect
    1002
{
    1070
2
    1040
0.436207116
    1041
0.6
    1042
0
    1040
4.5
    1041
0.6
    1042
0
    1002
}
       0
ENDBLK
       5
20F9
     330
201D
     100
AcDbEntity
       8
0
     100
AcDbBlockEnd
       0
BLOCK
       5
20FA
     330
201E
     100
AcDbEntity
       8
0
     100
AcDbBlockBegin
       2
Part356253228
      70
0
      10
-35
      20
-35
      30
0
       3
Part356253228
       1

       4
CypCutBlock
       0
CIRCLE
       5
20FB
     100
AcDbEntity
       8
1
     100
AcDbCircle
      10
-25
      20
-20
      30
0
      40
5.00000000000002
    1001
FS_CYPCUT
    1000
Channel
    1070
1
    1000
LeadIn
    1002
{
    1070
3
    1040
0
    1040
1.5707963267949
    1040
1
    1040
1
    1070
0
    1040
0.5
    1070
0
    1002
}
    1000
LeadOut
    1002
{
    1070
0
    1040
0
    1040
0
    1040
0
    1070
0
    1002
}
    1000
IsFill
    1070
0
    1000
PathStart
    1040
0
    1000
ToolCompensation
    1002
{
    1070
0
    1040
0
    1070
0
    1002
}
       0
CIRCLE
       5
20FC
     100
AcDbEntity
       8
1
     100
AcDbCircle
      10
-25
      20
6
      30
0
      40
5.00000000000001
    1001
FS_CYPCUT
    1000
Channel
    1070
1
    1000
LeadIn
    1002
{
    1070
3
    1040
0
    1040
1.5707963267949
    1040
1
    1040
1
    1070
0
    1040
0.5
    1070
0
    1002
}
    1000
LeadOut
    1002
{
    1070
0
    1040
0
    1040
0
    1040
0
    1070
0
    1002
}
    1000
IsFill
    1070
0
    1000
PathStart
    1040
0
    1000
ToolCompensation
    1002
{
    1070
0
    1040
0
    1070
0
    1002
}
       0
CIRCLE
       5
20FD
     100
AcDbEntity
       8
1
     100
AcDbCircle
      10
-6
      20
25
      30
0
      40
4.99999999999999
    1001
FS_CYPCUT
    1000
Channel
    1070
1
    1000
LeadIn
    1002
{
    1070
3
    1040
2.77555756156289E-17
    1040
1.5707963267949
    1040
1
    1040
1
    1070
0
    1040
0.5
    1070
0
    1002
}
    1000
LeadOut
    1002
{
    1070
0
    1040
0
    1040
0
    1040
0
    1070
0
    1002
}
    1000
IsFill
    1070
0
    1000
PathStart
    1040
2.77555756156289E-17
    1000
ToolCompensation
    1002
{
    1070
0
    1040
0
    1070
0
    1002
}
       0
CIRCLE
       5
20FE
     100
AcDbEntity
       8
1
     100
AcDbCircle
      10
20
      20
25
      30
0
      40
5
    1001
FS_CYPCUT
    1000
Channel
    1070
1
    1000
LeadIn
    1002
{
    1070
3
    1040
0
    1040
1.5707963267949
    1040
1
    1040
1
    1070
0
    1040
0.5
    1070
0
    1002
}
    1000
LeadOut
    1002
{
    1070
0
    1040
0
    1040
0
    1040
0
    1070
0
    1002
}
    1000
IsFill
    1070
0
    1000
PathStart
    1040
0
    1000
ToolCompensation
    1002
{
    1070
0
    1040
0
    1070
0
    1002
}
       0
LWPOLYLINE
       5
20FF
     100
AcDbEntity
       8
1
     100
AcDbPolyline
      90
12
      70
1
      10
35
      20
30
      42
0
      10
35
      20
-32
      42
-0.414213562373094
      10
32
      20
-35
      42
0
      10
-30
      20
-35
      42
-0.414213562373095
      10
-35
      20
-30
      42
0
      10
-35
      20
16
      42
-0.414213562373094
      10
-30
      20
21
      42
0
      10
-26
      20
21
      42
0.414213562373095
      10
-21
      20
26
      42
0
      10
-21
      20
30
      42
-0.414213562373096
      10
-16
      20
35
      42
0
      10
30
      20
35
      42
-0.414213562373097
    1001
FS_CYPCUT
    1000
Channel
    1070
1
    1000
LeadIn
    1002
{
    1070
3
    1040
0.5
    1040
1.5707963267949
    1040
1
    1040
1
    1070
0
    1040
0.5
    1070
0
    1002
}
    1000
LeadOut
    1002
{
    1070
0
    1040
0
    1040
0
    1040
0
    1070
0
    1002
}
    1000
IsFill
    1070
1
    1000
PathStart
    1040
0.5
    1000
ToolCompensation
    1002
{
    1070
0
    1040
0
    1070
0
    1002
}
    1000
MicroConnect
    1002
{
    1070
4
    1040
0.403225806
    1041
0.6
    1042
0
    1040
2.53804595
    1041
0.6
    1042
0
    1040
4.49492972
    1041
0.6
    1042
0
    1040
10.4821957
    1041
0.6
    1042
0
    1002
}
       0
ENDBLK
       5
2100
     330
201E
     100
AcDbEntity
       8
0
     100
AcDbBlockEnd
       0
BLOCK
       5
2101
     330
201F
     100
AcDbEntity
       8
0
     100
AcDbBlockBegin
       2
Part1910953929
      70
0
      10
-35
      20
-35
      30
0
       3
Part1910953929
       1

       4
CypCutBlock
       0
CIRCLE
       5
2102
     100
AcDbEntity
       8
1
     100
AcDbCircle
      10
-25
      20
-20
      30
0
      40
5.00000000000002
    1001
FS_CYPCUT
    1000
Channel
    1070
1
    1000
LeadIn
    1002
{
    1070
3
    1040
0
    1040
1.5707963267949
    1040
1
    1040
1
    1070
0
    1040
0.5
    1070
0
    1002
}
    1000
LeadOut
    1002
{
    1070
0
    1040
0
    1040
0
    1040
0
    1070
0
    1002
}
    1000
IsFill
    1070
0
    1000
PathStart
    1040
0
    1000
ToolCompensation
    1002
{
    1070
0
    1040
0
    1070
0
    1002
}
       0
CIRCLE
       5
2103
     100
AcDbEntity
       8
1
     100
AcDbCircle
      10
-25
      20
6
      30
0
      40
5.00000000000001
    1001
FS_CYPCUT
    1000
Channel
    1070
1
    1000
LeadIn
    1002
{
    1070
3
    1040
0
    1040
1.5707963267949
    1040
1
    1040
1
    1070
0
    1040
0.5
    1070
0
    1002
}
    1000
LeadOut
    1002
{
    1070
0
    1040
0
    1040
0
    1040
0
    1070
0
    1002
}
    1000
IsFill
    1070
0
    1000
PathStart
    1040
0
    1000
ToolCompensation
    1002
{
    1070
0
    1040
0
    1070
0
    1002
}
       0
CIRCLE
       5
2104
     100
AcDbEntity
       8
1
     100
AcDbCircle
      10
-6
      20
25
      30
0
      40
4.99999999999999
    1001
FS_CYPCUT
    1000
Channel
    1070
1
    1000
LeadIn
    1002
{
    1070
3
    1040
2.77555756156289E-17
    1040
1.5707963267949
    1040
1
    1040
1
    1070
0
    1040
0.5
    1070
0
    1002
}
    1000
LeadOut
    1002
{
    1070
0
    1040
0
    1040
0
    1040
0
    1070
0
    1002
}
    1000
IsFill
    1070
0
    1000
PathStart
    1040
2.77555756156289E-17
    1000
ToolCompensation
    1002
{
    1070
0
    1040
0
    1070
0
    1002
}
       0
CIRCLE
       5
2105
     100
AcDbEntity
       8
1
     100
AcDbCircle
      10
20
      20
25
      30
0
      40
5
    1001
FS_CYPCUT
    1000
Channel
    1070
1
    1000
LeadIn
    1002
{
    1070
3
    1040
0
    1040
1.5707963267949
    1040
1
    1040
1
    1070
0
    1040
0.5
    1070
0
    1002
}
    1000
LeadOut
    1002
{
    1070
0
    1040
0
    1040
0
    1040
0
    1070
0
    1002
}
    1000
IsFill
    1070
0
    1000
PathStart
    1040
0
    1000
ToolCompensation
    1002
{
    1070
0
    1040
0
    1070
0
    1002
}
       0
LWPOLYLINE
       5
2106
     100
AcDbEntity
       8
1
     100
AcDbPolyline
      90
12
      70
1
      10
35
      20
30
      42
0
      10
35
      20
-32
      42
-0.414213562373094
      10
32
      20
-35
      42
0
      10
-30
      20
-35
      42
-0.414213562373095
      10
-35
      20
-30
      42
0
      10
-35
      20
16
      42
-0.414213562373094
      10
-30
      20
21
      42
0
      10
-26
      20
21
      42
0.414213562373095
      10
-21
      20
26
      42
0
      10
-21
      20
30
      42
-0.414213562373096
      10
-16
      20
35
      42
0
      10
30
      20
35
      42
-0.414213562373097
    1001
FS_CYPCUT
    1000
Channel
    1070
1
    1000
LeadIn
    1002
{
    1070
3
    1040
0.5
    1040
1.5707963267949
    1040
1
    1040
1
    1070
0
    1040
0.5
    1070
0
    1002
}
    1000
LeadOut
    1002
{
    1070
0
    1040
0
    1040
0
    1040
0
    1070
0
    1002
}
    1000
IsFill
    1070
1
    1000
PathStart
    1040
0.5
    1000
ToolCompensation
    1002
{
    1070
0
    1040
0
    1070
0
    1002
}
    1000
MicroConnect
    1002
{
    1070
4
    1040
0.403225806
    1041
0.6
    1042
0
    1040
2.53804595
    1041
0.6
    1042
0
    1040
4.49492972
    1041
0.6
    1042
0
    1040
10.4821957
    1041
0.6
    1042
0
    1002
}
       0
ENDBLK
       5
2107
     330
201F
     100
AcDbEntity
       8
0
     100
AcDbBlockEnd
       0
BLOCK
       5
2108
     330
2020
     100
AcDbEntity
       8
0
     100
AcDbBlockBegin
       2
CommonPart491284103
      70
0
      10
870.9961
      20
2266.4849
      30
0
       3
CommonPart491284103
       1

       4
CypCutBlock
       0
CIRCLE
       5
2109
     100
AcDbEntity
       8
1
     100
AcDbCircle
      10
930.9961
      20
2391.485
      30
0
      40
5
    1001
FS_CYPCUT
    1000
Channel
    1070
1
    1000
LeadIn
    1002
{
    1070
3
    1040
0
    1040
1.5707963267949
    1040
1
    1040
1
    1070
0
    1040
0.5
    1070
0
    1002
}
    1000
LeadOut
    1002
{
    1070
0
    1040
0
    1040
0
    1040
0
    1070
0
    1002
}
    1000
IsFill
    1070
0
    1000
PathStart
    1040
0
    1000
ToolCompensation
    1002
{
    1070
0
    1040
0
    1070
0
    1002
}
       0
CIRCLE
       5
210A
     100
AcDbEntity
       8
1
     100
AcDbCircle
      10
930.9961
      20
2365.485
      30
0
      40
5
    1001
FS_CYPCUT
    1000
Channel
    1070
1
    1000
LeadIn
    1002
{
    1070
3
    1040
0
    1040
1.5707963267949
    1040
1
    1040
1
    1070
0
    1040
0.5
    1070
0
    1002
}
    1000
LeadOut
    1002
{
    1070
0
    1040
0
    1040
0
    1040
0
    1070
0
    1002
}
    1000
IsFill
    1070
0
    1000
PathStart
    1040
0
    1000
ToolCompensation
    1002
{
    1070
0
    1040
0
    1070
0
    1002
}
       0
CIRCLE
       5
210B
     100
AcDbEntity
       8
1
     100
AcDbCircle
      10
911.9961
      20
2346.485
      30
0
      40
5
    1001
FS_CYPCUT
    1000
Channel
    1070
1
    1000
LeadIn
    1002
{
    1070
3
    1040
2.77555756156289E-17
    1040
1.5707963267949
    1040
1
    1040
1
    1070
0
    1040
0.5
    1070
0
    1002
}
    1000
LeadOut
    1002
{
    1070
0
    1040
0
    1040
0
    1040
0
    1070
0
    1002
}
    1000
IsFill
    1070
0
    1000
PathStart
    1040
2.77555756156289E-17
    1000
ToolCompensation
    1002
{
    1070
0
    1040
0
    1070
0
    1002
}
       0
CIRCLE
       5
210C
     100
AcDbEntity
       8
1
     100
AcDbCircle
      10
885.9961
      20
2346.485
      30
0
      40
5
    1001
FS_CYPCUT
    1000
Channel
    1070
1
    1000
LeadIn
    1002
{
    1070
3
    1040
0
    1040
1.5707963267949
    1040
1
    1040
1
    1070
0
    1040
0.5
    1070
0
    1002
}
    1000
LeadOut
    1002
{
    1070
0
    1040
0
    1040
0
    1040
0
    1070
0
    1002
}
    1000
IsFill
    1070
0
    1000
PathStart
    1040
0
    1000
ToolCompensation
    1002
{
    1070
0
    1040
0
    1070
0
    1002
}
       0
LWPOLYLINE
       5
210D
     100
AcDbEntity
       8
1
     100
AcDbPolyline
      90
12
      70
0
      10
875.9961
      20
2336.485
      42
-0.414213562373097
      10
870.9961
      20
2341.485
      42
0
      10
870.9961
      20
2403.485
      42
-0.414213562373094
      10
873.9961
      20
2406.485
      42
0
      10
935.9961
      20
2406.485
      42
-0.414213562373095
      10
940.9961
      20
2401.485
      42
0
      10
940.9961
      20
2355.485
      42
-0.414213562373094
      10
935.9961
      20
2350.485
      42
0
      10
931.9961
      20
2350.485
      42
0.414213562373095
      10
926.9961
      20
2345.485
      42
0
      10
926.9961
      20
2341.485
      42
-0.414213562373096
      10
921.9961
      20
2336.485
      42
0
    1001
FS_CYPCUT
    1000
Channel
    1070
1
    1000
LeadIn
    1002
{
    1070
0
    1040
0
    1040
0
    1040
0
    1040
0
    1070
0
    1040
0
    1070
0
    1002
}
    1000
LeadOut
    1002
{
    1070
0
    1040
0
    1040
0
    1040
0
    1070
0
    1002
}
    1000
IsFill
    1070
1
    1000
PathStart
    1040
0
    1000
ToolCompensation
    1002
{
    1070
0
    1040
0
    1070
0
    1002
}
    1000
MicroConnect
    1002
{
    1070
1
    1040
0
    1041
0
    1042
0
    1002
}
       0
CIRCLE
       5
210E
     100
AcDbEntity
       8
1
     100
AcDbCircle
      10
885.9961
      20
2326.4849
      30
0
      40
5
    1001
FS_CYPCUT
    1000
Channel
    1070
1
    1000
LeadIn
    1002
{
    1070
3
    1040
0
    1040
1.5707963267949
    1040
1
    1040
1
    1070
0
    1040
0.5
    1070
0
    1002
}
    1000
LeadOut
    1002
{
    1070
0
    1040
0
    1040
0
    1040
0
    1070
0
    1002
}
    1000
IsFill
    1070
0
    1000
PathStart
    1040
0
    1000
ToolCompensation
    1002
{
    1070
0
    1040
0
    1070
0
    1002
}
       0
CIRCLE
       5
210F
     100
AcDbEntity
       8
1
     100
AcDbCircle
      10
911.9961
      20
2326.4849
      30
0
      40
5
    1001
FS_CYPCUT
    1000
Channel
    1070
1
    1000
LeadIn
    1002
{
    1070
3
    1040
0
    1040
1.5707963267949
    1040
1
    1040
1
    1070
0
    1040
0.5
    1070
0
    1002
}
    1000
LeadOut
    1002
{
    1070
0
    1040
0
    1040
0
    1040
0
    1070
0
    1002
}
    1000
IsFill
    1070
0
    1000
PathStart
    1040
0
    1000
ToolCompensation
    1002
{
    1070
0
    1040
0
    1070
0
    1002
}
       0
CIRCLE
       5
2110
     100
AcDbEntity
       8
1
     100
AcDbCircle
      10
930.9961
      20
2307.4849
      30
0
      40
5
    1001
FS_CYPCUT
    1000
Channel
    1070
1
    1000
LeadIn
    1002
{
    1070
3
    1040
2.77555756156289E-17
    1040
1.5707963267949
    1040
1
    1040
1
    1070
0
    1040
0.5
    1070
0
    1002
}
    1000
LeadOut
    1002
{
    1070
0
    1040
0
    1040
0
    1040
0
    1070
0
    1002
}
    1000
IsFill
    1070
0
    1000
PathStart
    1040
2.77555756156289E-17
    1000
ToolCompensation
    1002
{
    1070
0
    1040
0
    1070
0
    1002
}
       0
CIRCLE
       5
2111
     100
AcDbEntity
       8
1
     100
AcDbCircle
      10
930.9961
      20
2281.4849
      30
0
      40
5
    1001
FS_CYPCUT
    1000
Channel
    1070
1
    1000
LeadIn
    1002
{
    1070
3
    1040
0
    1040
1.5707963267949
    1040
1
    1040
1
    1070
0
    1040
0.5
    1070
0
    1002
}
    1000
LeadOut
    1002
{
    1070
0
    1040
0
    1040
0
    1040
0
    1070
0
    1002
}
    1000
IsFill
    1070
0
    1000
PathStart
    1040
0
    1000
ToolCompensation
    1002
{
    1070
0
    1040
0
    1070
0
    1002
}
       0
LWPOLYLINE
       5
2112
     100
AcDbEntity
       8
1
     100
AcDbPolyline
      90
12
      70
1
      10
921.9961
      20
2336.4849
      42
0
      10
875.9961
      20
2336.4849
      42
0.414213562373095
      10
870.9961
      20
2331.4849
      42
0
      10
870.9961
      20
2269.4849
      42
0.414213562373094
      10
873.9961
      20
2266.4849
      42
0
      10
935.9961
      20
2266.4849
      42
0.414213562373097
      10
940.9961
      20
2271.4849
      42
0
      10
940.9961
      20
2317.4849
      42
0.414213562373096
      10
935.9961
      20
2322.4849
      42
0
      10
931.9961
      20
2322.4849
      42
-0.414213562373095
      10
926.9961
      20
2327.4849
      42
0
      10
926.9961
      20
2331.4849
      42
0.414213562373094
    1001
FS_CYPCUT
    1000
Channel
    1070
1
    1000
LeadIn
    1002
{
    1070
0
    1040
0
    1040
0
    1040
0
    1040
0
    1070
0
    1040
0
    1070
0
    1002
}
    1000
LeadOut
    1002
{
    1070
0
    1040
0
    1040
0
    1040
0
    1070
0
    1002
}
    1000
IsFill
    1070
1
    1000
PathStart
    1040
0
    1000
ToolCompensation
    1002
{
    1070
0
    1040
0
    1070
0
    1002
}
       0
ENDBLK
       5
2113
     330
2020
     100
AcDbEntity
       8
0
     100
AcDbBlockEnd
       0
ENDSEC
       0
SECTION
       2
ENTITIES
       0
INSERT
       5
2114
     100
AcDbEntity
       8
1
     100
AcDbBlockReference
       2
Part2104807321
      10
3704.42190167352
      20
8638.03898969043
      30
0
      41
1
      42
1
      50
0
    1001
FS_CYPCUT
    1000
Channel
    1070
1
    1000
LeadIn
    1002
{
    1070
0
    1040
0
    1040
0
    1040
0
    1040
0
    1070
0
    1040
0
    1070
0
    1002
}
    1000
LeadOut
    1002
{
    1070
0
    1040
0
    1040
0
    1040
0
    1070
0
    1002
}
       0
INSERT
       5
2115
     100
AcDbEntity
       8
1
     100
AcDbBlockReference
       2
CommonPart684855918
      10
3951.76430167352
      20
8638.03898969043
      30
0
      41
1
      42
1
      50
0
    1001
FS_CYPCUT
    1000
Channel
    1070
1
    1000
LeadIn
    1002
{
    1070
0
    1040
0
    1040
0
    1040
0
    1040
0
    1070
0
    1040
0
    1070
0
    1002
}
    1000
LeadOut
    1002
{
    1070
0
    1040
0
    1040
0
    1040
0
    1070
0
    1002
}
       0
INSERT
       5
2116
     100
AcDbEntity
       8
1
     100
AcDbBlockReference
       2
CommonPart657407696
      10
4309.84520167351
      20
8638.03898969043
      30
0
      41
1
      42
1
      50
0
    1001
FS_CYPCUT
    1000
Channel
    1070
1
    1000
LeadIn
    1002
{
    1070
0
    1040
0
    1040
0
    1040
0
    1040
0
    1070
0
    1040
0
    1070
0
    1002
}
    1000
LeadOut
    1002
{
    1070
0
    1040
0
    1040
0
    1040
0
    1070
0
    1002
}
       0
INSERT
       5
2117
     100
AcDbEntity
       8
1
     100
AcDbBlockReference
       2
Part2036665471
      10
4706.76200167352
      20
8638.03898969043
      30
0
      41
1
      42
1
      50
0
    1001
FS_CYPCUT
    1000
Channel
    1070
1
    1000
LeadIn
    1002
{
    1070
0
    1040
0
    1040
0
    1040
0
    1040
0
    1070
0
    1040
0
    1070
0
    1002
}
    1000
LeadOut
    1002
{
    1070
0
    1040
0
    1040
0
    1040
0
    1070
0
    1002
}
       0
INSERT
       5
2118
     100
AcDbEntity
       8
1
     100
AcDbBlockReference
       2
Part396623188
      10
4837.01850167352
      20
8638.03898969043
      30
0
      41
1
      42
1
      50
0
    1001
FS_CYPCUT
    1000
Channel
    1070
1
    1000
LeadIn
    1002
{
    1070
0
    1040
0
    1040
0
    1040
0
    1040
0
    1070
0
    1040
0
    1070
0
    1002
}
    1000
LeadOut
    1002
{
    1070
0
    1040
0
    1040
0
    1040
0
    1070
0
    1002
}
       0
INSERT
       5
2119
     100
AcDbEntity
       8
1
     100
AcDbBlockReference
       2
Part326599846
      10
4837.01850167352
      20
8944.41368969043
      30
0
      41
1
      42
1
      50
0
    1001
FS_CYPCUT
    1000
Channel
    1070
1
    1000
LeadIn
    1002
{
    1070
0
    1040
0
    1040
0
    1040
0
    1040
0
    1070
0
    1040
0
    1070
0
    1002
}
    1000
LeadOut
    1002
{
    1070
0
    1040
0
    1040
0
    1040
0
    1070
0
    1002
}
       0
INSERT
       5
211A
     100
AcDbEntity
       8
1
     100
AcDbBlockReference
       2
Part1593029442
      10
4837.01850167352
      20
9250.78838969043
      30
0
      41
1
      42
1
      50
0
    1001
FS_CYPCUT
    1000
Channel
    1070
1
    1000
LeadIn
    1002
{
    1070
0
    1040
0
    1040
0
    1040
0
    1040
0
    1070
0
    1040
0
    1070
0
    1002
}
    1000
LeadOut
    1002
{
    1070
0
    1040
0
    1040
0
    1040
0
    1070
0
    1002
}
       0
INSERT
       5
211B
     100
AcDbEntity
       8
1
     100
AcDbBlockReference
       2
Part836667496
      10
4833.91837888227
      20
8638.03901029058
      30
0
      41
1
      42
1
      50
90.0000001836389
    1001
FS_CYPCUT
    1000
Channel
    1070
1
    1000
LeadIn
    1002
{
    1070
0
    1040
0
    1040
0
    1040
0
    1040
0
    1070
0
    1040
0
    1070
0
    1002
}
    1000
LeadOut
    1002
{
    1070
0
    1040
0
    1040
0
    1040
0
    1070
0
    1002
}
       0
INSERT
       5
211C
     100
AcDbEntity
       8
2
     100
AcDbBlockReference
       2
CommonPart
      10
4837.01850167352
      20
9557.16309969043
      30
0
      41
1
      42
1
      50
0
    1001
FS_CYPCUT
    1000
Channel
    1070
2
    1000
LeadIn
    1002
{
    1070
0
    1040
0
    1040
0
    1040
0
    1040
0
    1070
0
    1040
0
    1070
0
    1002
}
    1000
LeadOut
    1002
{
    1070
0
    1040
0
    1040
0
    1040
0
    1070
0
    1002
}
       0
INSERT
       5
211D
     100
AcDbEntity
       8
1
     100
AcDbBlockReference
       2
Part1636236885
      10
4456.41948013226
      20
8638.03900929058
      30
0
      41
1
      42
1
      50
90.0000001836389
    1001
FS_CYPCUT
    1000
Channel
    1070
1
    1000
LeadIn
    1002
{
    1070
0
    1040
0
    1040
0
    1040
0
    1040
0
    1070
0
    1040
0
    1070
0
    1002
}
    1000
LeadOut
    1002
{
    1070
0
    1040
0
    1040
0
    1040
0
    1070
0
    1002
}
       0
INSERT
       5
211E
     100
AcDbEntity
       8
1
     100
AcDbBlockReference
       2
Part628576174
      10
3704.42192320868
      20
11420.3131687625
      30
0
      41
1
      42
1
      50
269.999999977959
    1001
FS_CYPCUT
    1000
Channel
    1070
1
    1000
LeadIn
    1002
{
    1070
0
    1040
0
    1040
0
    1040
0
    1040
0
    1070
0
    1040
0
    1070
0
    1002
}
    1000
LeadOut
    1002
{
    1070
0
    1040
0
    1040
0
    1040
0
    1070
0
    1002
}
       0
INSERT
       5
211F
     100
AcDbEntity
       8
1
     100
AcDbBlockReference
       2
Part961367633
      10
4888.01850167352
      20
10470.2872896904
      30
0
      41
1
      42
1
      50
180
    1001
FS_CYPCUT
    1000
Channel
    1070
1
    1000
LeadIn
    1002
{
    1070
0
    1040
0
    1040
0
    1040
0
    1040
0
    1070
0
    1040
0
    1070
0
    1002
}
    1000
LeadOut
    1002
{
    1070
0
    1040
0
    1040
0
    1040
0
    1070
0
    1002
}
       0
INSERT
       5
2120
     100
AcDbEntity
       8
1
     100
AcDbBlockReference
       2
Part2133309444
      10
4836.91850170155
      20
10618.9972897
      30
0
      41
1
      42
1
      50
269.999999977959
    1001
FS_CYPCUT
    1000
Channel
    1070
1
    1000
LeadIn
    1002
{
    1070
0
    1040
0
    1040
0
    1040
0
    1040
0
    1070
0
    1040
0
    1070
0
    1002
}
    1000
LeadOut
    1002
{
    1070
0
    1040
0
    1040
0
    1040
0
    1070
0
    1002
}
       0
INSERT
       5
2121
     100
AcDbEntity
       8
1
     100
AcDbBlockReference
       2
Part1634697346
      10
4719.04340167352
      20
10558.6146896904
      30
0
      41
1
      42
1
      50
0
    1001
FS_CYPCUT
    1000
Channel
    1070
1
    1000
LeadIn
    1002
{
    1070
0
    1040
0
    1040
0
    1040
0
    1040
0
    1070
0
    1040
0
    1070
0
    1002
}
    1000
LeadOut
    1002
{
    1070
0
    1040
0
    1040
0
    1040
0
    1070
0
    1002
}
       0
INSERT
       5
2122
     100
AcDbEntity
       8
1
     100
AcDbBlockReference
       2
Part1123470860
      10
4893.82540167352
      20
10691.5245896904
      30
0
      41
1
      42
1
      50
180
    1001
FS_CYPCUT
    1000
Channel
    1070
1
    1000
LeadIn
    1002
{
    1070
0
    1040
0
    1040
0
    1040
0
    1040
0
    1070
0
    1040
0
    1070
0
    1002
}
    1000
LeadOut
    1002
{
    1070
0
    1040
0
    1040
0
    1040
0
    1070
0
    1002
}
       0
INSERT
       5
2123
     100
AcDbEntity
       8
1
     100
AcDbBlockReference
       2
Part25759375
      10
4497.29450169468
      20
10661.3485896989
      30
0
      41
1
      42
1
      50
269.999999977959
    1001
FS_CYPCUT
    1000
Channel
    1070
1
    1000
LeadIn
    1002
{
    1070
0
    1040
0
    1040
0
    1040
0
    1040
0
    1070
0
    1040
0
    1070
0
    1002
}
    1000
LeadOut
    1002
{
    1070
0
    1040
0
    1040
0
    1040
0
    1070
0
    1002
}
       0
INSERT
       5
2124
     100
AcDbEntity
       8
1
     100
AcDbBlockReference
       2
Part1836907587
      10
4467.09610167352
      20
10694.5245896904
      30
0
      41
1
      42
1
      50
0
    1001
FS_CYPCUT
    1000
Channel
    1070
1
    1000
LeadIn
    1002
{
    1070
0
    1040
0
    1040
0
    1040
0
    1040
0
    1070
0
    1040
0
    1070
0
    1002
}
    1000
LeadOut
    1002
{
    1070
0
    1040
0
    1040
0
    1040
0
    1070
0
    1002
}
       0
INSERT
       5
2125
     100
AcDbEntity
       8
1
     100
AcDbBlockReference
       2
Part1590766616
      10
4773.47080170155
      20
10840.2339897
      30
0
      41
1
      42
1
      50
269.999999977959
    1001
FS_CYPCUT
    1000
Channel
    1070
1
    1000
LeadIn
    1002
{
    1070
0
    1040
0
    1040
0
    1040
0
    1040
0
    1070
0
    1040
0
    1070
0
    1002
}
    1000
LeadOut
    1002
{
    1070
0
    1040
0
    1040
0
    1040
0
    1070
0
    1002
}
       0
INSERT
       5
2126
     100
AcDbEntity
       8
1
     100
AcDbBlockReference
       2
Part1637810815
      10
4826.47080170155
      20
10840.2339897
      30
0
      41
1
      42
1
      50
269.999999977959
    1001
FS_CYPCUT
    1000
Channel
    1070
1
    1000
LeadIn
    1002
{
    1070
0
    1040
0
    1040
0
    1040
0
    1040
0
    1070
0
    1040
0
    1070
0
    1002
}
    1000
LeadOut
    1002
{
    1070
0
    1040
0
    1040
0
    1040
0
    1070
0
    1002
}
       0
INSERT
       5
2127
     100
AcDbEntity
       8
1
     100
AcDbBlockReference
       2
Part598427341
      10
4753.71620167352
      20
10843.2339896904
      30
0
      41
1
      42
1
      50
0
    1001
FS_CYPCUT
    1000
Channel
    1070
1
    1000
LeadIn
    1002
{
    1070
0
    1040
0
    1040
0
    1040
0
    1040
0
    1070
0
    1040
0
    1070
0
    1002
}
    1000
LeadOut
    1002
{
    1070
0
    1040
0
    1040
0
    1040
0
    1070
0
    1002
}
       0
INSERT
       5
2128
     100
AcDbEntity
       8
1
     100
AcDbBlockReference
       2
Part460024123
      10
4842.41580169468
      20
11000.2339896989
      30
0
      41
1
      42
1
      50
269.999999977959
    1001
FS_CYPCUT
    1000
Channel
    1070
1
    1000
LeadIn
    1002
{
    1070
0
    1040
0
    1040
0
    1040
0
    1040
0
    1070
0
    1040
0
    1070
0
    1002
}
    1000
LeadOut
    1002
{
    1070
0
    1040
0
    1040
0
    1040
0
    1070
0
    1002
}
       0
INSERT
       5
2129
     100
AcDbEntity
       8
1
     100
AcDbBlockReference
       2
Part1242848288
      10
4729.41750167352
      20
10890.2335896904
      30
0
      41
1
      42
1
      50
0
    1001
FS_CYPCUT
    1000
Channel
    1070
1
    1000
LeadIn
    1002
{
    1070
0
    1040
0
    1040
0
    1040
0
    1040
0
    1070
0
    1040
0
    1070
0
    1002
}
    1000
LeadOut
    1002
{
    1070
0
    1040
0
    1040
0
    1040
0
    1070
0
    1002
}
       0
INSERT
       5
212A
     100
AcDbEntity
       8
1
     100
AcDbBlockReference
       2
Part405112923
      10
4802.41680168699
      20
11073.2332897039
      30
0
      41
1
      42
1
      50
269.999999977959
    1001
FS_CYPCUT
    1000
Channel
    1070
1
    1000
LeadIn
    1002
{
    1070
0
    1040
0
    1040
0
    1040
0
    1040
0
    1070
0
    1040
0
    1070
0
    1002
}
    1000
LeadOut
    1002
{
    1070
0
    1040
0
    1040
0
    1040
0
    1070
0
    1002
}
       0
INSERT
       5
212B
     100
AcDbEntity
       8
1
     100
AcDbBlockReference
       2
CommonPart635717239
      10
4729.41670167353
      20
10937.2328896904
      30
0
      41
1
      42
1
      50
0
    1001
FS_CYPCUT
    1000
Channel
    1070
1
    1000
LeadIn
    1002
{
    1070
0
    1040
0
    1040
0
    1040
0
    1040
0
    1070
0
    1040
0
    1070
0
    1002
}
    1000
LeadOut
    1002
{
    1070
0
    1040
0
    1040
0
    1040
0
    1070
0
    1002
}
       0
INSERT
       5
212C
     100
AcDbEntity
       8
1
     100
AcDbBlockReference
       2
Part782166238
      10
4645.41800168698
      20
11037.5236897039
      30
0
      41
1
      42
1
      50
269.999999977959
    1001
FS_CYPCUT
    1000
Channel
    1070
1
    1000
LeadIn
    1002
{
    1070
0
    1040
0
    1040
0
    1040
0
    1040
0
    1070
0
    1040
0
    1070
0
    1002
}
    1000
LeadOut
    1002
{
    1070
0
    1040
0
    1040
0
    1040
0
    1070
0
    1002
}
       0
INSERT
       5
212D
     100
AcDbEntity
       8
1
     100
AcDbBlockReference
       2
Part692754950
      10
4682.41800169468
      20
10964.5242896989
      30
0
      41
1
      42
1
      50
269.999999977959
    1001
FS_CYPCUT
    1000
Channel
    1070
1
    1000
LeadIn
    1002
{
    1070
0
    1040
0
    1040
0
    1040
0
    1040
0
    1070
0
    1040
0
    1070
0
    1002
}
    1000
LeadOut
    1002
{
    1070
0
    1040
0
    1040
0
    1040
0
    1070
0
    1002
}
       0
INSERT
       5
212E
     100
AcDbEntity
       8
1
     100
AcDbBlockReference
       2
CommonPart515188085
      10
4459.41960167351
      20
10801.5245896904
      30
0
      41
1
      42
1
      50
0
    1001
FS_CYPCUT
    1000
Channel
    1070
1
    1000
LeadIn
    1002
{
    1070
0
    1040
0
    1040
0
    1040
0
    1040
0
    1070
0
    1040
0
    1070
0
    1002
}
    1000
LeadOut
    1002
{
    1070
0
    1040
0
    1040
0
    1040
0
    1070
0
    1002
}
       0
INSERT
       5
212F
     100
AcDbEntity
       8
1
     100
AcDbBlockReference
       2
CommonPart663984093
      10
4459.41960167351
      20
10748.5245896904
      30
0
      41
1
      42
1
      50
0
    1001
FS_CYPCUT
    1000
Channel
    1070
1
    1000
LeadIn
    1002
{
    1070
0
    1040
0
    1040
0
    1040
0
    1040
0
    1070
0
    1040
0
    1070
0
    1002
}
    1000
LeadOut
    1002
{
    1070
0
    1040
0
    1040
0
    1040
0
    1070
0
    1002
}
       0
INSERT
       5
2130
     100
AcDbEntity
       8
1
     100
AcDbBlockReference
       2
CommonPart635333186
      10
4459.41960167351
      20
10854.5245896904
      30
0
      41
1
      42
1
      50
0
    1001
FS_CYPCUT
    1000
Channel
    1070
1
    1000
LeadIn
    1002
{
    1070
0
    1040
0
    1040
0
    1040
0
    1040
0
    1070
0
    1040
0
    1070
0
    1002
}
    1000
LeadOut
    1002
{
    1070
0
    1040
0
    1040
0
    1040
0
    1070
0
    1002
}
       0
INSERT
       5
2131
     100
AcDbEntity
       8
1
     100
AcDbBlockReference
       2
Part1525600420
      10
4459.41960167352
      20
10901.5245896904
      30
0
      41
1
      42
1
      50
0
    1001
FS_CYPCUT
    1000
Channel
    1070
1
    1000
LeadIn
    1002
{
    1070
0
    1040
0
    1040
0
    1040
0
    1040
0
    1070
0
    1040
0
    1070
0
    1002
}
    1000
LeadOut
    1002
{
    1070
0
    1040
0
    1040
0
    1040
0
    1070
0
    1002
}
       0
INSERT
       5
2132
     100
AcDbEntity
       8
1
     100
AcDbBlockReference
       2
Part356253228
      10
4459.41960168699
      20
11018.5238897039
      30
0
      41
1
      42
1
      50
269.999999977959
    1001
FS_CYPCUT
    1000
Channel
    1070
1
    1000
LeadIn
    1002
{
    1070
0
    1040
0
    1040
0
    1040
0
    1040
0
    1070
0
    1040
0
    1070
0
    1002
}
    1000
LeadOut
    1002
{
    1070
0
    1040
0
    1040
0
    1040
0
    1070
0
    1002
}
       0
INSERT
       5
2133
     100
AcDbEntity
       8
1
     100
AcDbBlockReference
       2
Part1910953929
      10
4459.41960168699
      20
11091.5238897039
      30
0
      41
1
      42
1
      50
269.999999977959
    1001
FS_CYPCUT
    1000
Channel
    1070
1
    1000
LeadIn
    1002
{
    1070
0
    1040
0
    1040
0
    1040
0
    1040
0
    1070
0
    1040
0
    1070
0
    1002
}
    1000
LeadOut
    1002
{
    1070
0
    1040
0
    1040
0
    1040
0
    1070
0
    1002
}
       0
INSERT
       5
2134
     100
AcDbEntity
       8
1
     100
AcDbBlockReference
       2
CommonPart491284103
      10
4572.41790167354
      20
10901.5238896904
      30
0
      41
1
      42
1
      50
0
    1001
FS_CYPCUT
    1000
Channel
    1070
1
    1000
LeadIn
    1002
{
    1070
0
    1040
0
    1040
0
    1040
0
    1040
0
    1070
0
    1040
0
    1070
0
    1002
}
    1000
LeadOut
    1002
{
    1070
0
    1040
0
    1040
0
    1040
0
    1070
0
    1002
}
       0
ENDSEC
  0
SECTION
  2
OBJECTS
  0
DICTIONARY
  5
111
330
0
100
AcDbDictionary
281
     1
  3
ACAD_COLOR
350
120
  3
ACAD_GROUP
350
112
  3
ACAD_LAYOUT
350
11E
  3
ACAD_MATERIAL
350
11F
  3
ACAD_MLINESTYLE
350
11B
  3
ACAD_PLOTSETTINGS
350
11D
  3
ACAD_PLOTSTYLENAME
350
113
  3
ACAD_TABLESTYLE
350
121
  3
AcDbVariableDictionary
350
135
  0
DICTIONARY
  5
120
102
{ACAD_REACTORS
330
111
102
}
330
111
100
AcDbDictionary
281
     1
  0
DICTIONARY
  5
112
102
{ACAD_REACTORS
330
111
102
}
330
111
100
AcDbDictionary
281
     1
  0
DICTIONARY
  5
11E
102
{ACAD_REACTORS
330
111
102
}
330
111
100
AcDbDictionary
281
     1
  3
Model
350
12A
  3
布局1
350
126
  0
DICTIONARY
  5
11F
102
{ACAD_REACTORS
330
111
102
}
330
111
100
AcDbDictionary
281
     1
  0
DICTIONARY
  5
11B
102
{ACAD_REACTORS
330
111
102
}
330
111
100
AcDbDictionary
281
     1
  3
Standard
350
11C
  0
DICTIONARY
  5
11D
102
{ACAD_REACTORS
330
111
102
}
330
111
100
AcDbDictionary
281
     1
  0
ACDBDICTIONARYWDFLT
  5
113
102
{ACAD_REACTORS
330
111
102
}
330
111
100
AcDbDictionary
281
     1
  3
Normal
350
114
100
AcDbDictionaryWithDefault
340
114
  0
DICTIONARY
  5
121
102
{ACAD_REACTORS
330
111
102
}
330
111
100
AcDbDictionary
281
     1
  3
Standard
350
122
  0
DICTIONARY
  5
135
102
{ACAD_REACTORS
330
111
102
}
330
111
100
AcDbDictionary
281
     1
  3
CTABLESTYLE
350
136
  0
LAYOUT
  5
12A
102
{ACAD_REACTORS
330
11E
102
}
330
11E
100
AcDbPlotSettings
  1

  2
发送至 OneNote 2010
  4

  6

 40
0.0
 41
0.0
 42
0.0
 43
0.0
 44
0.0
 45
0.0
 46
0.0
 47
0.0
 48
0.0
 49
0.0
140
0.0
141
0.0
142
1.0
143
1.0
 70
  1712
 72
     0
 73
     0
 74
     0
  7

 75
     0
147
1.0
 76
     0
 77
     2
 78
   300
148
0.0
149
0.0
100
AcDbLayout
  1
Model
 70
     1
 71
     0
 10
0.0
 20
0.0
 11
12.0
 21
9.0
 12
0.0
 22
0.0
 32
0.0
 14
0.0
 24
0.0
 34
0.0
 15
0.0
 25
0.0
 35
0.0
146
0.0
 13
0.0
 23
0.0
 33
0.0
 16
1.0
 26
0.0
 36
0.0
 17
0.0
 27
1.0
 37
0.0
 76
     0
330
127
  0
LAYOUT
  5
126
102
{ACAD_REACTORS
330
11E
102
}
330
11E
100
AcDbPlotSettings
  1

  2
发送至 OneNote 2010
  4

  6

 40
0.0
 41
0.0
 42
0.0
 43
0.0
 44
0.0
 45
0.0
 46
0.0
 47
0.0
 48
0.0
 49
0.0
140
0.0
141
0.0
142
1.0
143
1.0
 70
   688
 72
     0
 73
     0
 74
     5
  7

 75
    16
147
1.0
 76
     0
 77
     2
 78
   300
148
0.0
149
0.0
100
AcDbLayout
  1
布局1
 70
     1
 71
     1
 10
0.0
 20
0.0
 11
12.0
 21
9.0
 12
0.0
 22
0.0
 32
0.0
 14
0.0
 24
0.0
 34
0.0
 15
0.0
 25
0.0
 35
0.0
146
0.0
 13
0.0
 23
0.0
 33
0.0
 16
1.0
 26
0.0
 36
0.0
 17
0.0
 27
1.0
 37
0.0
 76
     0
330
123
  0
MLINESTYLE
  5
11C
102
{ACAD_REACTORS
330
11B
102
}
330
11B
100
AcDbMlineStyle
  2
STANDARD
 70
     0
  3

 62
   256
 51
90.0
 52
90.0
 71
     2
 49
0.5
 62
   256
  6
BYLAYER
 49
-0.5
 62
   256
  6
BYLAYER
  0
ACDBPLACEHOLDER
  5
114
102
{ACAD_REACTORS
330
113
102
}
330
113
  0
TABLESTYLE
  5
122
102
{ACAD_REACTORS
330
121
102
}
330
121
100
AcDbTableStyle
  3
Standard
 70
     0
 71
     0
 40
0.06
 41
0.06
280
     0
281
     0
  7
STANDARD
140
0.18
170
     2
 62
     0
 63
     7
283
     0
274
    -2
284
     1
 64
     0
275
    -2
285
     1
 65
     0
276
    -2
286
     1
 66
     0
277
    -2
287
     1
 67
     0
278
    -2
288
     1
 68
     0
279
    -2
289
     1
 69
     0
  7
STANDARD
140
0.25
170
     5
 62
     0
 63
     7
283
     0
274
    -2
284
     1
 64
     0
275
    -2
285
     1
 65
     0
276
    -2
286
     1
 66
     0
277
    -2
287
     1
 67
     0
278
    -2
288
     1
 68
     0
279
    -2
289
     1
 69
     0
  7
STANDARD
140
0.18
170
     5
 62
     0
 63
     7
283
     0
274
    -2
284
     1
 64
     0
275
    -2
285
     1
 65
     0
276
    -2
286
     1
 66
     0
277
    -2
287
     1
 67
     0
278
    -2
288
     1
 68
     0
279
    -2
289
     1
 69
     0
  0
DICTIONARYVAR
  5
136
102
{ACAD_REACTORS
330
135
102
}
330
135
100
DictionaryVariables
280
     0
  1
STANDARD
  0
ENDSEC
  0
EOF
