  0
SECTION
  2
HEADER
  9
$ACADVER
  1
AC1018
  9
$ACADMAINTVER
 70
    77
  9
$DWGCODEPAGE
  3
ANSI_936
  9
$INSBASE
 10
0.0
 20
0.0
 30
0.0
  9
$EXTMIN
 10
4898.73469822698
 20
10547.9915963317
 30
0.0
  9
$EXTMAX
 10
6060.52027163088
 20
10858.9906964118
 30
0.0
  9
$LIMMIN
 10
0.0
 20
0.0
  9
$LIMMAX
 10
420.0
 20
297.0
  9
$ORTHOMODE
 70
     0
  9
$REGENMODE
 70
     1
  9
$FILLMODE
 70
     1
  9
$QTEXTMODE
 70
     0
  9
$MIRRTEXT
 70
     0
  9
$LTSCALE
 40
1.0
  9
$ATTMODE
 70
     1
  9
$TEXTSIZE
 40
2.5
  9
$TRACEWID
 40
1.0
  9
$TEXTSTYLE
  7
STANDARD
  9
$CLAYER
  8
0
  9
$CELTYPE
  6
ByLayer
  9
$CECOLOR
 62
   256
  9
$CELTSCALE
 40
1.0
  9
$DISPSILH
 70
     0
  9
$DIMSCALE
 40
1.0
  9
$DIMASZ
 40
2.5
  9
$DIMEXO
 40
0.625
  9
$DIMDLI
 40
3.75
  9
$DIMRND
 40
0.0
  9
$DIMDLE
 40
0.0
  9
$DIMEXE
 40
1.25
  9
$DIMTP
 40
0.0
  9
$DIMTM
 40
0.0
  9
$DIMTXT
 40
2.5
  9
$DIMCEN
 40
2.5
  9
$DIMTSZ
 40
0.0
  9
$DIMTOL
 70
     0
  9
$DIMLIM
 70
     0
  9
$DIMTIH
 70
     0
  9
$DIMTOH
 70
     0
  9
$DIMSE1
 70
     0
  9
$DIMSE2
 70
     0
  9
$DIMTAD
 70
     1
  9
$DIMZIN
 70
     8
  9
$DIMBLK
  1

  9
$DIMASO
 70
     1
  9
$DIMSHO
 70
     1
  9
$DIMPOST
  1

  9
$DIMAPOST
  1

  9
$DIMALT
 70
     0
  9
$DIMALTD
 70
     3
  9
$DIMALTF
 40
0.03937007874016
  9
$DIMLFAC
 40
1.0
  9
$DIMTOFL
 70
     1
  9
$DIMTVP
 40
0.0
  9
$DIMTIX
 70
     0
  9
$DIMSOXD
 70
     0
  9
$DIMSAH
 70
     0
  9
$DIMBLK1
  1

  9
$DIMBLK2
  1

  9
$DIMSTYLE
  2
ISO-25
  9
$DIMCLRD
 70
     0
  9
$DIMCLRE
 70
     0
  9
$DIMCLRT
 70
     0
  9
$DIMTFAC
 40
1.0
  9
$DIMGAP
 40
0.625
  9
$DIMJUST
 70
     0
  9
$DIMSD1
 70
     0
  9
$DIMSD2
 70
     0
  9
$DIMTOLJ
 70
     1
  9
$DIMTZIN
 70
     0
  9
$DIMALTZ
 70
     0
  9
$DIMALTTZ
 70
     0
  9
$DIMUPT
 70
     0
  9
$DIMDEC
 70
     4
  9
$DIMTDEC
 70
     4
  9
$DIMALTU
 70
     2
  9
$DIMALTTD
 70
     2
  9
$DIMTXSTY
  7
STANDARD
  9
$DIMAUNIT
 70
     0
  9
$DIMADEC
 70
     0
  9
$DIMALTRND
 40
0.0
  9
$DIMAZIN
 70
     0
  9
$DIMDSEP
 70
    46
  9
$DIMATFIT
 70
     3
  9
$DIMFRAC
 70
     0
  9
$DIMLDRBLK
  1

  9
$DIMLUNIT
 70
     2
  9
$DIMLWD
 70
    -2
  9
$DIMLWE
 70
    -2
  9
$DIMTMOVE
 70
     0
  9
$LUNITS
 70
     2
  9
$LUPREC
 70
     4
  9
$SKETCHINC
 40
1.0
  9
$FILLETRAD
 40
0.0
  9
$AUNITS
 70
     0
  9
$AUPREC
 70
     0
  9
$MENU
  1
.
  9
$ELEVATION
 40
0.0
  9
$PELEVATION
 40
0.0
  9
$THICKNESS
 40
0.0
  9
$LIMCHECK
 70
     0
  9
$CHAMFERA
 40
0.0
  9
$CHAMFERB
 40
0.0
  9
$CHAMFERC
 40
0.0
  9
$CHAMFERD
 40
0.0
  9
$SKPOLY
 70
     0
  9
$TDCREATE
 40
2456997.676706910
  9
$TDUCREATE
 40
2456997.343373576
  9
$TDUPDATE
 40
2456997.680113438
  9
$TDUUPDATE
 40
2456997.346780104
  9
$TDINDWG
 40
0.0010312963
  9
$TDUSRTIMER
 40
0.0010311806
  9
$USRTIMER
 70
     1
  9
$ANGBASE
 50
0.0
  9
$ANGDIR
 70
     0
  9
$PDMODE
 70
     0
  9
$PDSIZE
 40
0.0
  9
$PLINEWID
 40
0.0
  9
$SPLFRAME
 70
     0
  9
$SPLINETYPE
 70
     6
  9
$SPLINESEGS
 70
     8
  9
$HANDSEED
  5
2431
  9
$SURFTAB1
 70
     6
  9
$SURFTAB2
 70
     6
  9
$SURFTYPE
 70
     6
  9
$SURFU
 70
     6
  9
$SURFV
 70
     6
  9
$UCSBASE
  2

  9
$UCSNAME
  2

  9
$UCSORG
 10
0.0
 20
0.0
 30
0.0
  9
$UCSXDIR
 10
1.0
 20
0.0
 30
0.0
  9
$UCSYDIR
 10
0.0
 20
1.0
 30
0.0
  9
$UCSORTHOREF
  2

  9
$UCSORTHOVIEW
 70
     0
  9
$UCSORGTOP
 10
0.0
 20
0.0
 30
0.0
  9
$UCSORGBOTTOM
 10
0.0
 20
0.0
 30
0.0
  9
$UCSORGLEFT
 10
0.0
 20
0.0
 30
0.0
  9
$UCSORGRIGHT
 10
0.0
 20
0.0
 30
0.0
  9
$UCSORGFRONT
 10
0.0
 20
0.0
 30
0.0
  9
$UCSORGBACK
 10
0.0
 20
0.0
 30
0.0
  9
$PUCSBASE
  2

  9
$PUCSNAME
  2

  9
$PUCSORG
 10
0.0
 20
0.0
 30
0.0
  9
$PUCSXDIR
 10
1.0
 20
0.0
 30
0.0
  9
$PUCSYDIR
 10
0.0
 20
1.0
 30
0.0
  9
$PUCSORTHOREF
  2

  9
$PUCSORTHOVIEW
 70
     0
  9
$PUCSORGTOP
 10
0.0
 20
0.0
 30
0.0
  9
$PUCSORGBOTTOM
 10
0.0
 20
0.0
 30
0.0
  9
$PUCSORGLEFT
 10
0.0
 20
0.0
 30
0.0
  9
$PUCSORGRIGHT
 10
0.0
 20
0.0
 30
0.0
  9
$PUCSORGFRONT
 10
0.0
 20
0.0
 30
0.0
  9
$PUCSORGBACK
 10
0.0
 20
0.0
 30
0.0
  9
$USERI1
 70
     0
  9
$USERI2
 70
     0
  9
$USERI3
 70
     0
  9
$USERI4
 70
     0
  9
$USERI5
 70
     0
  9
$USERR1
 40
0.0
  9
$USERR2
 40
0.0
  9
$USERR3
 40
0.0
  9
$USERR4
 40
0.0
  9
$USERR5
 40
0.0
  9
$WORLDVIEW
 70
     1
  9
$SHADEDGE
 70
     3
  9
$SHADEDIF
 70
    70
  9
$TILEMODE
 70
     1
  9
$MAXACTVP
 70
    64
  9
$PINSBASE
 10
0.0
 20
0.0
 30
0.0
  9
$PLIMCHECK
 70
     0
  9
$PEXTMIN
 10
0.0
 20
0.0
 30
0.0
  9
$PEXTMAX
 10
0.0
 20
0.0
 30
0.0
  9
$PLIMMIN
 10
0.0
 20
0.0
  9
$PLIMMAX
 10
12.0
 20
9.0
  9
$UNITMODE
 70
     0
  9
$VISRETAIN
 70
     1
  9
$PLINEGEN
 70
     0
  9
$PSLTSCALE
 70
     1
  9
$TREEDEPTH
 70
  3020
  9
$CMLSTYLE
  2
Standard
  9
$CMLJUST
 70
     0
  9
$CMLSCALE
 40
1.0
  9
$PROXYGRAPHICS
 70
     1
  9
$MEASUREMENT
 70
     1
  9
$CELWEIGHT
370
    -1
  9
$ENDCAPS
280
     0
  9
$JOINSTYLE
280
     0
  9
$LWDISPLAY
290
     0
  9
$INSUNITS
 70
     0
  9
$HYPERLINKBASE
  1

  9
$STYLESHEET
  1

  9
$XEDIT
290
     1
  9
$CEPSNTYPE
380
     0
  9
$PSTYLEMODE
290
     1
  9
$FINGERPRINTGUID
  2
{1F2D6530-6BF2-4D5E-922F-A9C54F637010}
  9
$VERSIONGUID
  2
{15AD9CB5-51D1-451C-B472-5DB36EFAD6AD}
  9
$EXTNAMES
290
     1
  9
$PSVPSCALE
 40
0.0
  9
$OLESTARTUP
290
     0
  9
$SORTENTS
280
   127
  9
$INDEXCTL
280
     0
  9
$HIDETEXT
280
     0
  9
$XCLIPFRAME
290
     0
  9
$HALOGAP
280
     0
  9
$OBSCOLOR
 70
   257
  9
$OBSLTYPE
280
     0
  9
$INTERSECTIONDISPLAY
280
     0
  9
$INTERSECTIONCOLOR
 70
   257
  9
$DIMASSOC
280
     1
  9
$PROJECTNAME
  1

  0
ENDSEC
  0
SECTION
  2
CLASSES
  0
CLASS
  1
ACDBDICTIONARYWDFLT
  2
AcDbDictionaryWithDefault
  3
ObjectDBX Classes
 90
        0
 91
        1
280
     0
281
     0
  0
CLASS
  1
TABLESTYLE
  2
AcDbTableStyle
  3
ObjectDBX Classes
 90
     2047
 91
        1
280
     0
281
     0
  0
CLASS
  1
DICTIONARYVAR
  2
AcDbDictionaryVar
  3
ObjectDBX Classes
 90
        0
 91
        1
280
     0
281
     0
  0
ENDSEC
  0
SECTION
  2
TABLES
  0
TABLE
  2
VPORT
  5
10D
330
0
100
AcDbSymbolTable
 70
     2
  0
VPORT
  5
137
330
10D
100
AcDbSymbolTableRecord
100
AcDbViewportTableRecord
  2
*Active
 70
     0
 10
0.0
 20
0.0
 11
1.0
 21
1.0
 12
5479.62748492893
 22
10703.4911463718
 13
0.0
 23
0.0
 14
10.0
 24
10.0
 15
10.0
 25
10.0
 16
0.0
 26
0.0
 36
1.0
 17
0.0
 27
0.0
 37
0.0
 40
551.708552688342
 41
2.435135135135135
 42
50.0
 43
0.0
 44
0.0
 50
0.0
 51
0.0
 71
     0
 72
  1000
 73
     1
 74
     3
 75
     0
 76
     0
 77
     0
 78
     0
281
     0
 65
     1
110
0.0
120
0.0
130
0.0
111
1.0
121
0.0
131
0.0
112
0.0
122
1.0
132
0.0
 79
     0
146
0.0
  0
ENDTAB
  0
TABLE
  2
LTYPE
  5
10A
330
0
100
AcDbSymbolTable
 70
     1
  0
LTYPE
  5
118
330
10A
100
AcDbSymbolTableRecord
100
AcDbLinetypeTableRecord
  2
ByBlock
 70
     0
  3

 72
    65
 73
     0
 40
0.0
  0
LTYPE
  5
119
330
10A
100
AcDbSymbolTableRecord
100
AcDbLinetypeTableRecord
  2
ByLayer
 70
     0
  3

 72
    65
 73
     0
 40
0.0
  0
LTYPE
  5
11A
330
10A
100
AcDbSymbolTableRecord
100
AcDbLinetypeTableRecord
  2
CONTINUOUS
 70
     0
  3
Solid line
 72
    65
 73
     0
 40
0.0
  0
ENDTAB
  0
TABLE
  2
LAYER
  5
107
330
0
100
AcDbSymbolTable
 70
     1
  0
LAYER
  5
115
330
107
100
AcDbSymbolTableRecord
100
AcDbLayerTableRecord
  2
0
 70
     0
 62
     7
  6
CONTINUOUS
370
    -3
390
114
  0
ENDTAB
  0
TABLE
  2
STYLE
  5
108
330
0
100
AcDbSymbolTable
 70
     1
  0
STYLE
  5
116
330
108
100
AcDbSymbolTableRecord
100
AcDbTextStyleTableRecord
  2
STANDARD
 70
     0
 40
0.0
 41
1.0
 50
0.0
 71
     0
 42
2.5
  3
txt
  4
gbcbig.shx
  0
ENDTAB
  0
TABLE
  2
VIEW
  5
10B
330
0
100
AcDbSymbolTable
 70
     0
  0
ENDTAB
  0
TABLE
  2
UCS
  5
10C
330
0
100
AcDbSymbolTable
 70
     0
  0
ENDTAB
  0
TABLE
  2
APPID
  5
10E
330
0
100
AcDbSymbolTable
 70
     2
  0
APPID
  5
117
330
10E
100
AcDbSymbolTableRecord
100
AcDbRegAppTableRecord
  2
ACAD
 70
     0
  0
APPID
  5
12C
330
10E
100
AcDbSymbolTableRecord
100
AcDbRegAppTableRecord
  2
ACAD_PSEXT
 70
     0
  0
APPID
  5
112C
330
10E
100
AcDbSymbolTableRecord
100
AcDbRegAppTableRecord
  2
FS_CYPCUT
 70
     0
  0
ENDTAB
  0
TABLE
  2
DIMSTYLE
  5
10F
330
0
100
AcDbSymbolTable
 70
     1
100
AcDbDimStyleTable
 71
     0
  0
DIMSTYLE
105
12D
330
10F
100
AcDbSymbolTableRecord
100
AcDbDimStyleTableRecord
  2
ISO-25
 70
     0
 41
2.5
 42
0.625
 43
3.75
 44
1.25
 73
     0
 74
     0
 77
     1
 78
     8
140
2.5
141
2.5
143
0.03937007874016
147
0.625
171
     3
172
     1
274
     3
279
     2
284
     8
285
     8
286
     8
340
116
  0
ENDTAB
  0
TABLE
  2
BLOCK_RECORD
  5
106
330
0
100
AcDbSymbolTable
 70
     2
  0
BLOCK_RECORD
  5
127
330
106
100
AcDbSymbolTableRecord
100
AcDbBlockTableRecord
  2
*Model_Space
340
12A
  0
BLOCK_RECORD
  5
123
330
106
100
AcDbSymbolTableRecord
100
AcDbBlockTableRecord
  2
*Paper_Space
340
126
  0
BLOCK_RECORD
  5
130
330
106
100
AcDbSymbolTableRecord
100
AcDbBlockTableRecord
  2
$MODEL_SPACE
340
0
  0
BLOCK_RECORD
  5
132
330
106
100
AcDbSymbolTableRecord
100
AcDbBlockTableRecord
  2
$PAPER_SPACE
340
0
       0
BLOCK_RECORD
       5
2000
     330
106
     100
AcDbSymbolTableRecord
     100
AcDbBlockTableRecord
       2
Part46678921
       0
BLOCK_RECORD
       5
2001
     330
106
     100
AcDbSymbolTableRecord
     100
AcDbBlockTableRecord
       2
Part385167922
       0
BLOCK_RECORD
       5
2002
     330
106
     100
AcDbSymbolTableRecord
     100
AcDbBlockTableRecord
       2
Part956839855
       0
BLOCK_RECORD
       5
2003
     330
106
     100
AcDbSymbolTableRecord
     100
AcDbBlockTableRecord
       2
Part519503028
       0
BLOCK_RECORD
       5
2004
     330
106
     100
AcDbSymbolTableRecord
     100
AcDbBlockTableRecord
       2
Part1574064265
       0
BLOCK_RECORD
       5
2005
     330
106
     100
AcDbSymbolTableRecord
     100
AcDbBlockTableRecord
       2
Part392156784
  0
ENDTAB
  0
ENDSEC
  0
SECTION
  2
BLOCKS
  0
BLOCK
  5
128
330
127
100
AcDbEntity
  8
0
100
AcDbBlockBegin
  2
*Model_Space
 70
     0
 10
0.0
 20
0.0
 30
0.0
  3
*Model_Space
  1

  0
ENDBLK
  5
129
330
127
100
AcDbEntity
  8
0
100
AcDbBlockEnd
  0
BLOCK
  5
124
330
123
100
AcDbEntity
 67
     1
  8
0
100
AcDbBlockBegin
  2
*Paper_Space
 70
     0
 10
0.0
 20
0.0
 30
0.0
  3
*Paper_Space
  1

  0
ENDBLK
  5
125
330
123
100
AcDbEntity
 67
     1
  8
0
100
AcDbBlockEnd
  0
BLOCK
  5
131
330
130
100
AcDbEntity
  8
0
100
AcDbBlockBegin
  2
$MODEL_SPACE
 70
     0
 10
0.0
 20
0.0
 30
0.0
  3
$MODEL_SPACE
  1

  0
ENDBLK
  5
21
330
130
100
AcDbEntity
  8
0
100
AcDbBlockEnd
  0
BLOCK
  5
133
330
132
100
AcDbEntity
  8
0
100
AcDbBlockBegin
  2
$PAPER_SPACE
 70
     0
 10
0.0
 20
0.0
 30
0.0
  3
$PAPER_SPACE
  1

  0
ENDBLK
  5
D5
330
132
100
AcDbEntity
  8
0
100
AcDbBlockEnd
       0
BLOCK
       5
2006
     330
2000
     100
AcDbEntity
       8
0
     100
AcDbBlockBegin
       2
Part46678921
      70
0
      10
-153.178097
      20
0
      30
0
       3
Part46678921
       1

       4
CypCutBlock
       0
LWPOLYLINE
       5
2007
     100
AcDbEntity
       8
1
     100
AcDbPolyline
      90
4
      70
1
      10
-130.9280972451
      20
87.5
      42
0
      10
-130.9280972451
      20
72.5
      42
-1
      10
-137.4280972451
      20
72.5
      42
0
      10
-137.4280972451
      20
87.5
      42
-1
    1001
FS_CYPCUT
    1000
Channel
    1070
1
    1000
LeadIn
    1002
{
    1070
3
    1040
0.5
    1040
1.5707963267949
    1040
2
    1040
1
    1070
0
    1040
0.5
    1070
0
    1002
}
    1000
LeadOut
    1002
{
    1070
0
    1040
0
    1040
0
    1040
0
    1070
0
    1002
}
    1000
IsFill
    1070
0
    1000
PathStart
    1040
0.5
    1000
ToolCompensation
    1002
{
    1070
0
    1040
0
    1070
0
    1002
}
       0
LWPOLYLINE
       5
2008
     100
AcDbEntity
       8
1
     100
AcDbPolyline
      90
4
      70
1
      10
-96.1780972451
      20
26
      42
0
      10
-96.1780972451
      20
11
      42
-1
      10
-102.6780972451
      20
11
      42
0
      10
-102.6780972451
      20
26
      42
-1
    1001
FS_CYPCUT
    1000
Channel
    1070
1
    1000
LeadIn
    1002
{
    1070
3
    1040
0.5
    1040
1.5707963267949
    1040
2
    1040
1
    1070
0
    1040
0.5
    1070
0
    1002
}
    1000
LeadOut
    1002
{
    1070
0
    1040
0
    1040
0
    1040
0
    1070
0
    1002
}
    1000
IsFill
    1070
0
    1000
PathStart
    1040
0.5
    1000
ToolCompensation
    1002
{
    1070
0
    1040
0
    1070
0
    1002
}
       0
LINE
       5
2009
     100
AcDbEntity
       8
2
     100
AcDbLine
      10
-53.0890486225
      20
0
      30
0
      11
-53.0890486225
      21
99.8308309341
      31
0
    1001
FS_CYPCUT
    1000
Channel
    1070
2
    1000
LeadIn
    1002
{
    1070
0
    1040
0
    1040
0
    1040
0
    1040
0
    1070
0
    1040
0
    1070
0
    1002
}
    1000
LeadOut
    1002
{
    1070
0
    1040
0
    1040
0
    1040
0
    1070
0
    1002
}
    1000
IsFill
    1070
0
    1000
PathStart
    1040
0
    1000
ToolCompensation
    1002
{
    1070
0
    1040
0
    1070
0
    1002
}
       0
CIRCLE
       5
200A
     100
AcDbEntity
       8
1
     100
AcDbCircle
      10
-28
      20
70
      30
0
      40
3.49999999999997
    1001
FS_CYPCUT
    1000
Channel
    1070
1
    1000
LeadIn
    1002
{
    1070
3
    1040
0
    1040
1.5707963267949
    1040
2
    1040
1
    1070
0
    1040
0.5
    1070
0
    1002
}
    1000
LeadOut
    1002
{
    1070
0
    1040
0
    1040
0
    1040
0
    1070
0
    1002
}
    1000
IsFill
    1070
0
    1000
PathStart
    1040
1
    1000
ToolCompensation
    1002
{
    1070
0
    1040
0
    1070
0
    1002
}
       0
CIRCLE
       5
200B
     100
AcDbEntity
       8
1
     100
AcDbCircle
      10
28
      20
70
      30
0
      40
3.49999999999997
    1001
FS_CYPCUT
    1000
Channel
    1070
1
    1000
LeadIn
    1002
{
    1070
3
    1040
0
    1040
1.5707963267949
    1040
2
    1040
1
    1070
0
    1040
0.5
    1070
0
    1002
}
    1000
LeadOut
    1002
{
    1070
0
    1040
0
    1040
0
    1040
0
    1070
0
    1002
}
    1000
IsFill
    1070
0
    1000
PathStart
    1040
1
    1000
ToolCompensation
    1002
{
    1070
0
    1040
0
    1070
0
    1002
}
       0
LINE
       5
200C
     100
AcDbEntity
       8
2
     100
AcDbLine
      10
53.0890486225
      20
99.8304037406
      30
0
      11
53.0890486225
      21
0
      31
0
    1001
FS_CYPCUT
    1000
Channel
    1070
2
    1000
LeadIn
    1002
{
    1070
0
    1040
0
    1040
0
    1040
0
    1040
0
    1070
0
    1040
0
    1070
0
    1002
}
    1000
LeadOut
    1002
{
    1070
0
    1040
0
    1040
0
    1040
0
    1070
0
    1002
}
    1000
IsFill
    1070
0
    1000
PathStart
    1040
0
    1000
ToolCompensation
    1002
{
    1070
0
    1040
0
    1070
0
    1002
}
       0
LWPOLYLINE
       5
200D
     100
AcDbEntity
       8
1
     100
AcDbPolyline
      90
4
      70
1
      10
102.6780972451
      20
26
      42
1
      10
96.1780972451
      20
26
      42
0
      10
96.1780972451
      20
11
      42
1
      10
102.6780972451
      20
11
      42
0
    1001
FS_CYPCUT
    1000
Channel
    1070
1
    1000
LeadIn
    1002
{
    1070
3
    1040
1.5
    1040
1.5707963267949
    1040
2
    1040
1
    1070
0
    1040
0.5
    1070
0
    1002
}
    1000
LeadOut
    1002
{
    1070
0
    1040
0
    1040
0
    1040
0
    1070
0
    1002
}
    1000
IsFill
    1070
0
    1000
PathStart
    1040
1.5
    1000
ToolCompensation
    1002
{
    1070
0
    1040
0
    1070
0
    1002
}
       0
LWPOLYLINE
       5
200E
     100
AcDbEntity
       8
1
     100
AcDbPolyline
      90
4
      70
1
      10
137.4280972451
      20
87.5
      42
1
      10
130.9280972451
      20
87.5
      42
0
      10
130.9280972451
      20
72.5
      42
1
      10
137.4280972451
      20
72.5
      42
0
    1001
FS_CYPCUT
    1000
Channel
    1070
1
    1000
LeadIn
    1002
{
    1070
3
    1040
1.5
    1040
1.5707963267949
    1040
2
    1040
1
    1070
0
    1040
0.5
    1070
0
    1002
}
    1000
LeadOut
    1002
{
    1070
0
    1040
0
    1040
0
    1040
0
    1070
0
    1002
}
    1000
IsFill
    1070
0
    1000
PathStart
    1040
1.5
    1000
ToolCompensation
    1002
{
    1070
0
    1040
0
    1070
0
    1002
}
       0
SPLINE
       5
200F
     100
AcDbEntity
       8
1
     100
AcDbSpline
      70
0
      71
3
      72
148
      73
144
      74
0
      40
0
      40
0
      40
0
      40
0
      40
0.0277777777777778
      40
0.0277777777777778
      40
0.0277777777777778
      40
0.0277777777777778
      40
0.0555555555555556
      40
0.0555555555555556
      40
0.0555555555555556
      40
0.0555555555555556
      40
0.0833333333333333
      40
0.0833333333333333
      40
0.0833333333333333
      40
0.0833333333333333
      40
0.111111111111111
      40
0.111111111111111
      40
0.111111111111111
      40
0.111111111111111
      40
0.138888888888889
      40
0.138888888888889
      40
0.138888888888889
      40
0.138888888888889
      40
0.166666666666667
      40
0.166666666666667
      40
0.166666666666667
      40
0.166666666666667
      40
0.194444444444444
      40
0.194444444444444
      40
0.194444444444444
      40
0.194444444444444
      40
0.222222222222222
      40
0.222222222222222
      40
0.222222222222222
      40
0.222222222222222
      40
0.25
      40
0.25
      40
0.25
      40
0.25
      40
0.277777777777778
      40
0.277777777777778
      40
0.277777777777778
      40
0.277777777777778
      40
0.305555555555556
      40
0.305555555555556
      40
0.305555555555556
      40
0.305555555555556
      40
0.333333333333333
      40
0.333333333333333
      40
0.333333333333333
      40
0.333333333333333
      40
0.361111111111111
      40
0.361111111111111
      40
0.361111111111111
      40
0.361111111111111
      40
0.388888888888889
      40
0.388888888888889
      40
0.388888888888889
      40
0.388888888888889
      40
0.416666666666667
      40
0.416666666666667
      40
0.416666666666667
      40
0.416666666666667
      40
0.444444444444444
      40
0.444444444444444
      40
0.444444444444444
      40
0.444444444444444
      40
0.472222222222222
      40
0.472222222222222
      40
0.472222222222222
      40
0.472222222222222
      40
0.5
      40
0.5
      40
0.5
      40
0.5
      40
0.527777777777778
      40
0.527777777777778
      40
0.527777777777778
      40
0.527777777777778
      40
0.555555555555556
      40
0.555555555555556
      40
0.555555555555556
      40
0.555555555555556
      40
0.583333333333333
      40
0.583333333333333
      40
0.583333333333333
      40
0.583333333333333
      40
0.611111111111111
      40
0.611111111111111
      40
0.611111111111111
      40
0.611111111111111
      40
0.638888888888889
      40
0.638888888888889
      40
0.638888888888889
      40
0.638888888888889
      40
0.666666666666667
      40
0.666666666666667
      40
0.666666666666667
      40
0.666666666666667
      40
0.694444444444444
      40
0.694444444444444
      40
0.694444444444444
      40
0.694444444444444
      40
0.722222222222222
      40
0.722222222222222
      40
0.722222222222222
      40
0.722222222222222
      40
0.75
      40
0.75
      40
0.75
      40
0.75
      40
0.777777777777778
      40
0.777777777777778
      40
0.777777777777778
      40
0.777777777777778
      40
0.805555555555556
      40
0.805555555555556
      40
0.805555555555556
      40
0.805555555555556
      40
0.833333333333333
      40
0.833333333333333
      40
0.833333333333333
      40
0.833333333333333
      40
0.861111111111111
      40
0.861111111111111
      40
0.861111111111111
      40
0.861111111111111
      40
0.888888888888889
      40
0.888888888888889
      40
0.888888888888889
      40
0.888888888888889
      40
0.916666666666667
      40
0.916666666666667
      40
0.916666666666667
      40
0.916666666666667
      40
0.944444444444444
      40
0.944444444444444
      40
0.944444444444444
      40
0.944444444444444
      40
0.972222222222222
      40
0.972222222222222
      40
0.972222222222222
      40
0.972222222222222
      40
1
      40
1
      40
1
      40
1
      10
153.1780972451
      20
95
      30
0
      10
153.1780972451
      20
93.6707630673
      30
0
      10
153.1780972451
      20
92.3415261346
      30
0
      10
153.1780972451
      20
91.0122892019
      30
0
      10
153.1780972451
      20
91.0122892019
      30
0
      10
153.178097245094
      20
90.6790830967732
      30
0
      10
153.144789352546
      20
90.3467098916231
      30
0
      10
153.078670631722
      20
90.020129697413
      30
0
      10
153.078670631722
      20
90.020129697413
      30
0
      10
153.012551910897
      20
89.693549503203
      30
0
      10
152.913952909647
      20
89.3743949949155
      30
0
      10
152.7843450522
      20
89.0674290167
      30
0
      10
152.7843450522
      20
89.0674290167
      30
0
      10
141.108894397706
      20
61.4150458876681
      30
0
      10
129.433443743211
      20
33.7626627586361
      30
0
      10
117.757993088717
      20
6.11027962960414
      30
0
      10
117.757993088717
      20
6.11027962960414
      30
0
      10
117.250173751059
      20
4.90754961935924
      30
0
      10
116.51170265995
      20
3.81582544698584
      30
0
      10
115.584359511137
      20
2.89687243317449
      30
0
      10
115.584359511137
      20
2.89687243317449
      30
0
      10
114.657016362324
      20
1.97791941936315
      30
0
      10
113.558625739957
      20
1.24940088037848
      30
0
      10
112.351330125397
      20
0.752533436982455
      30
0
      10
112.351330125397
      20
0.752533436982455
      30
0
      10
111.144034510837
      20
0.255665993586433
      30
0
      10
109.851039491252
      20
1.77635683940025E-15
      30
0
      10
108.5454974746
      20
1.77635683940025E-15
      30
0
      10
108.5454974746
      20
1.77635683940025E-15
      30
0
      10
36.1818324915333
      20
3.37507799486048E-14
      30
0
      10
-36.1818324915333
      20
6.75015598972095E-14
      30
0
      10
-108.5454974746
      20
1.01252339845814E-13
      30
0
      10
-108.5454974746
      20
1.01252339845814E-13
      30
0
      10
-109.85103949125
      20
7.97584220890712E-13
      30
0
      10
-111.144034510833
      20
0.255665993587538
      30
0
      10
-112.351330125391
      20
0.752533436983461
      30
0
      10
-112.351330125391
      20
0.752533436983461
      30
0
      10
-113.558625739949
      20
1.24940088037939
      30
0
      10
-114.657016362314
      20
1.97791941936355
      30
0
      10
-115.584359511125
      20
2.89687243317401
      30
0
      10
-115.584359511125
      20
2.89687243317401
      30
0
      10
-116.511702659936
      20
3.81582544698448
      30
0
      10
-117.250173751044
      20
4.90754961935663
      30
0
      10
-117.7579930887
      20
6.1102796296
      30
0
      10
-117.7579930887
      20
6.1102796296
      30
0
      10
-129.4334437432
      20
33.7626627586333
      30
0
      10
-141.1088943977
      20
61.4150458876667
      30
0
      10
-152.7843450522
      20
89.0674290167
      30
0
      10
-152.7843450522
      20
89.0674290167
      30
0
      10
-152.913952909659
      20
89.3743949949113
      30
0
      10
-153.012551910916
      20
89.6935495031981
      30
0
      10
-153.078670631741
      20
90.0201296974092
      30
0
      10
-153.078670631741
      20
90.0201296974092
      30
0
      10
-153.144789352565
      20
90.3467098916202
      30
0
      10
-153.178097245107
      20
90.6790830967722
      30
0
      10
-153.1780972451
      20
91.0122892019
      30
0
      10
-153.1780972451
      20
91.0122892019
      30
0
      10
-153.1780972451
      20
92.3415261346
      30
0
      10
-153.1780972451
      20
93.6707630673
      30
0
      10
-153.1780972451
      20
95
      30
0
      10
-153.1780972451
      20
95
      30
0
      10
-153.1780972451
      20
95.6565939840369
      30
0
      10
-153.048762547138
      20
96.3068034188037
      30
0
      10
-152.797494907656
      20
96.9134171618255
      30
0
      10
-152.797494907656
      20
96.9134171618255
      30
0
      10
-152.546227268175
      20
97.5200309048472
      30
0
      10
-152.177913209632
      20
98.071251847334
      30
0
      10
-151.713631151033
      20
98.5355339059328
      30
0
      10
-151.713631151033
      20
98.5355339059328
      30
0
      10
-151.249349092434
      20
98.9998159645316
      30
0
      10
-150.698128149947
      20
99.3681300230749
      30
0
      10
-150.091514406925
      20
99.6193976625565
      30
0
      10
-150.091514406925
      20
99.6193976625565
      30
0
      10
-149.484900663904
      20
99.870665302038
      30
0
      10
-148.834691229137
      20
100
      30
0
      10
-148.1780972451
      20
100
      30
0
      10
-148.1780972451
      20
100
      30
0
      10
-116.593138017733
      20
100
      30
0
      10
-85.0081787903667
      20
100
      30
0
      10
-53.423219563
      20
100
      30
0
      10
-53.423219563
      20
100
      30
0
      10
-53.4232195630019
      20
99.9889758778094
      30
0
      10
-53.4232195630037
      20
99.9779517556188
      30
0
      10
-53.4232195630056
      20
99.9669276334282
      30
0
      10
-53.4232195630056
      20
99.9669276334282
      30
0
      10
-53.2721827888439
      20
99.9268017773147
      30
0
      10
-53.1103242854255
      20
99.8518113436963
      30
0
      10
-52.9376440527508
      20
99.7419563325712
      30
0
      10
-52.9376440527508
      20
99.7419563325712
      30
0
      10
-52.8554735729051
      20
99.6896814494666
      30
0
      10
-52.7335118536288
      20
99.6036328953692
      30
0
      10
-52.5717588949214
      20
99.4838106702796
      30
0
      10
-52.5717588949214
      20
99.4838106702796
      30
0
      10
-52.5478392632809
      20
99.4660039509608
      30
0
      10
-52.5239196316405
      20
99.448197231642
      30
0
      10
-52.5
      20
99.4303905123232
      30
0
      10
-52.5
      20
99.4303905123232
      30
0
      10
-35.7077848534852
      20
93.1562755563576
      30
0
      10
-17.9260427313322
      20
89.9428454763021
      30
0
      10
-2.57077887623466E-14
      20
89.9428454763021
      30
0
      10
-2.57077887623466E-14
      20
89.9428454763021
      30
0
      10
17.9260427313322
      20
89.9428454763021
      30
0
      10
35.7077848534851
      20
93.1562755563576
      30
0
      10
52.4999999999437
      20
99.4303905123172
      30
0
      10
52.4999999999437
      20
99.4303905123172
      30
0
      10
52.5242624710592
      20
99.4484430547009
      30
0
      10
52.5485249421184
      20
99.4664955970786
      30
0
      10
52.5727874131776
      20
99.4845481394563
      30
0
      10
52.5727874131776
      20
99.4845481394563
      30
0
      10
52.7248964992097
      20
99.5971811156106
      30
0
      10
52.8406252421991
      20
99.6792085213094
      30
0
      10
52.9199736421462
      20
99.730630356553
      30
0
      10
52.9199736421462
      20
99.730630356553
      30
0
      10
52.9418395480568
      20
99.7447395294752
      30
0
      10
52.9474753370007
      20
99.748165990185
      30
0
      10
52.9695374385277
      20
99.761835126469
      30
0
      10
52.9695374385277
      20
99.761835126469
      30
0
      10
53.1285130497777
      20
99.8593023559468
      30
0
      10
53.2797404246039
      20
99.9276665249331
      30
0
      10
53.4232195630055
      20
99.9669276334282
      30
0
      10
53.4232195630055
      20
99.9669276334282
      30
0
      10
53.4232195630037
      20
99.9779517556188
      30
0
      10
53.4232195630018
      20
99.9889758778094
      30
0
      10
53.423219563
      20
100
      30
0
      10
53.423219563
      20
100
      30
0
      10
85.0081787903667
      20
100
      30
0
      10
116.593138017733
      20
100
      30
0
      10
148.1780972451
      20
100
      30
0
      10
148.1780972451
      20
100
      30
0
      10
148.834691229137
      20
100
      30
0
      10
149.484900663904
      20
99.870665302038
      30
0
      10
150.091514406925
      20
99.6193976625564
      30
0
      10
150.091514406925
      20
99.6193976625564
      30
0
      10
150.698128149947
      20
99.3681300230749
      30
0
      10
151.249349092434
      20
98.9998159645315
      30
0
      10
151.713631151033
      20
98.5355339059328
      30
0
      10
151.713631151033
      20
98.5355339059328
      30
0
      10
152.177913209632
      20
98.0712518473339
      30
0
      10
152.546227268175
      20
97.5200309048472
      30
0
      10
152.797494907656
      20
96.9134171618254
      30
0
      10
152.797494907656
      20
96.9134171618254
      30
0
      10
153.048762547138
      20
96.3068034188037
      30
0
      10
153.1780972451
      20
95.6565939840369
      30
0
      10
153.1780972451
      20
95
      30
0
    1001
FS_CYPCUT
    1000
Channel
    1070
1
    1000
LeadIn
    1002
{
    1070
3
    1040
7.5
    1040
1.5707963267949
    1040
2
    1040
1
    1070
0
    1040
0.5
    1070
0
    1002
}
    1000
LeadOut
    1002
{
    1070
0
    1040
0
    1040
0
    1040
0
    1070
0
    1002
}
    1000
IsFill
    1070
1
    1000
PathStart
    1040
7.5
    1000
ToolCompensation
    1002
{
    1070
0
    1040
0
    1070
0
    1002
}
    1000
MicroConnect
    1002
{
    1070
2
    1040
7.84927137
    1041
0.5
    1042
0
    1040
31.4915502
    1041
0.5
    1042
0
    1002
}
       0
ENDBLK
       5
2010
     330
2000
     100
AcDbEntity
       8
0
     100
AcDbBlockEnd
       0
BLOCK
       5
2011
     330
2001
     100
AcDbEntity
       8
0
     100
AcDbBlockBegin
       2
Part385167922
      70
0
      10
-28.7065613
      20
-25
      30
0
       3
Part385167922
       1

       4
CypCutBlock
       0
LWPOLYLINE
       5
2012
     100
AcDbEntity
       8
1
     100
AcDbPolyline
      90
4
      70
1
      10
43
      20
-10
      42
1
      10
37
      20
-10
      42
0
      10
37
      20
-20
      42
1
      10
43
      20
-20
      42
0
    1001
FS_CYPCUT
    1000
Channel
    1070
1
    1000
LeadIn
    1002
{
    1070
3
    1040
1.5
    1040
1.5707963267949
    1040
2
    1040
1
    1070
0
    1040
0.5
    1070
0
    1002
}
    1000
LeadOut
    1002
{
    1070
0
    1040
0
    1040
0
    1040
0
    1070
0
    1002
}
    1000
IsFill
    1070
0
    1000
PathStart
    1040
1.5
    1000
ToolCompensation
    1002
{
    1070
0
    1040
0
    1070
0
    1002
}
       0
LWPOLYLINE
       5
2013
     100
AcDbEntity
       8
1
     100
AcDbPolyline
      90
4
      70
1
      10
43
      20
20
      42
0
      10
43
      20
10
      42
-1
      10
37
      20
10
      42
0
      10
37
      20
20
      42
-0.999999999999999
    1001
FS_CYPCUT
    1000
Channel
    1070
1
    1000
LeadIn
    1002
{
    1070
3
    1040
0.5
    1040
1.5707963267949
    1040
2
    1040
1
    1070
0
    1040
0.5
    1070
0
    1002
}
    1000
LeadOut
    1002
{
    1070
0
    1040
0
    1040
0
    1040
0
    1070
0
    1002
}
    1000
IsFill
    1070
0
    1000
PathStart
    1040
0.5
    1000
ToolCompensation
    1002
{
    1070
0
    1040
0
    1070
0
    1002
}
       0
LWPOLYLINE
       5
2014
     100
AcDbEntity
       8
1
     100
AcDbPolyline
      90
8
      70
1
      10
55
      20
0
      42
0
      10
55
      20
-25
      42
0
      10
35
      20
-25
      42
-0.414213562373095
      10
30
      20
-20
      42
0
      10
30
      20
0
      42
0.443740785641996
      10
-2.98754024318614
      20
29.8508727392575
      42
-0.248008739809053
      10
-20.3001226010796
      20
36.8957023716692
      42
0
      10
-28.7065613394306
      20
46.9141059391043
      42
-0.585889178701296
    1001
FS_CYPCUT
    1000
Channel
    1070
1
    1000
LeadIn
    1002
{
    1070
3
    1040
7.5
    1040
1.5707963267949
    1040
2
    1040
1
    1070
0
    1040
0.5
    1070
0
    1002
}
    1000
LeadOut
    1002
{
    1070
0
    1040
0
    1040
0
    1040
0
    1070
0
    1002
}
    1000
IsFill
    1070
1
    1000
PathStart
    1040
7.5
    1000
ToolCompensation
    1002
{
    1070
0
    1040
0
    1070
0
    1002
}
    1000
MicroConnect
    1002
{
    1070
2
    1040
1.34266403
    1041
0.6
    1042
0
    1040
7.08574035
    1041
0.6
    1042
0
    1002
}
       0
ENDBLK
       5
2015
     330
2001
     100
AcDbEntity
       8
0
     100
AcDbBlockEnd
       0
BLOCK
       5
2016
     330
2002
     100
AcDbEntity
       8
0
     100
AcDbBlockBegin
       2
Part956839855
      70
0
      10
-153.178097
      20
0
      30
0
       3
Part956839855
       1

       4
CypCutBlock
       0
LWPOLYLINE
       5
2017
     100
AcDbEntity
       8
1
     100
AcDbPolyline
      90
4
      70
1
      10
-130.9280972451
      20
87.5
      42
0
      10
-130.9280972451
      20
72.5
      42
-1
      10
-137.4280972451
      20
72.5
      42
0
      10
-137.4280972451
      20
87.5
      42
-1
    1001
FS_CYPCUT
    1000
Channel
    1070
1
    1000
LeadIn
    1002
{
    1070
3
    1040
0.5
    1040
1.5707963267949
    1040
2
    1040
1
    1070
0
    1040
0.5
    1070
0
    1002
}
    1000
LeadOut
    1002
{
    1070
0
    1040
0
    1040
0
    1040
0
    1070
0
    1002
}
    1000
IsFill
    1070
0
    1000
PathStart
    1040
0.5
    1000
ToolCompensation
    1002
{
    1070
0
    1040
0
    1070
0
    1002
}
       0
LWPOLYLINE
       5
2018
     100
AcDbEntity
       8
1
     100
AcDbPolyline
      90
4
      70
1
      10
-96.1780972451
      20
26
      42
0
      10
-96.1780972451
      20
11
      42
-1
      10
-102.6780972451
      20
11
      42
0
      10
-102.6780972451
      20
26
      42
-1
    1001
FS_CYPCUT
    1000
Channel
    1070
1
    1000
LeadIn
    1002
{
    1070
3
    1040
0.5
    1040
1.5707963267949
    1040
2
    1040
1
    1070
0
    1040
0.5
    1070
0
    1002
}
    1000
LeadOut
    1002
{
    1070
0
    1040
0
    1040
0
    1040
0
    1070
0
    1002
}
    1000
IsFill
    1070
0
    1000
PathStart
    1040
0.5
    1000
ToolCompensation
    1002
{
    1070
0
    1040
0
    1070
0
    1002
}
       0
LINE
       5
2019
     100
AcDbEntity
       8
2
     100
AcDbLine
      10
-53.0890486225
      20
0
      30
0
      11
-53.0890486225
      21
99.8308309341
      31
0
    1001
FS_CYPCUT
    1000
Channel
    1070
2
    1000
LeadIn
    1002
{
    1070
0
    1040
0
    1040
0
    1040
0
    1040
0
    1070
0
    1040
0
    1070
0
    1002
}
    1000
LeadOut
    1002
{
    1070
0
    1040
0
    1040
0
    1040
0
    1070
0
    1002
}
    1000
IsFill
    1070
0
    1000
PathStart
    1040
0
    1000
ToolCompensation
    1002
{
    1070
0
    1040
0
    1070
0
    1002
}
       0
CIRCLE
       5
201A
     100
AcDbEntity
       8
1
     100
AcDbCircle
      10
-28
      20
70
      30
0
      40
3.49999999999997
    1001
FS_CYPCUT
    1000
Channel
    1070
1
    1000
LeadIn
    1002
{
    1070
3
    1040
0
    1040
1.5707963267949
    1040
2
    1040
1
    1070
0
    1040
0.5
    1070
0
    1002
}
    1000
LeadOut
    1002
{
    1070
0
    1040
0
    1040
0
    1040
0
    1070
0
    1002
}
    1000
IsFill
    1070
0
    1000
PathStart
    1040
1
    1000
ToolCompensation
    1002
{
    1070
0
    1040
0
    1070
0
    1002
}
       0
CIRCLE
       5
201B
     100
AcDbEntity
       8
1
     100
AcDbCircle
      10
28
      20
70
      30
0
      40
3.49999999999997
    1001
FS_CYPCUT
    1000
Channel
    1070
1
    1000
LeadIn
    1002
{
    1070
3
    1040
0
    1040
1.5707963267949
    1040
2
    1040
1
    1070
0
    1040
0.5
    1070
0
    1002
}
    1000
LeadOut
    1002
{
    1070
0
    1040
0
    1040
0
    1040
0
    1070
0
    1002
}
    1000
IsFill
    1070
0
    1000
PathStart
    1040
1
    1000
ToolCompensation
    1002
{
    1070
0
    1040
0
    1070
0
    1002
}
       0
LINE
       5
201C
     100
AcDbEntity
       8
2
     100
AcDbLine
      10
53.0890486225
      20
99.8304037406
      30
0
      11
53.0890486225
      21
0
      31
0
    1001
FS_CYPCUT
    1000
Channel
    1070
2
    1000
LeadIn
    1002
{
    1070
0
    1040
0
    1040
0
    1040
0
    1040
0
    1070
0
    1040
0
    1070
0
    1002
}
    1000
LeadOut
    1002
{
    1070
0
    1040
0
    1040
0
    1040
0
    1070
0
    1002
}
    1000
IsFill
    1070
0
    1000
PathStart
    1040
0
    1000
ToolCompensation
    1002
{
    1070
0
    1040
0
    1070
0
    1002
}
       0
LWPOLYLINE
       5
201D
     100
AcDbEntity
       8
1
     100
AcDbPolyline
      90
4
      70
1
      10
102.6780972451
      20
26
      42
1
      10
96.1780972451
      20
26
      42
0
      10
96.1780972451
      20
11
      42
1
      10
102.6780972451
      20
11
      42
0
    1001
FS_CYPCUT
    1000
Channel
    1070
1
    1000
LeadIn
    1002
{
    1070
3
    1040
1.5
    1040
1.5707963267949
    1040
2
    1040
1
    1070
0
    1040
0.5
    1070
0
    1002
}
    1000
LeadOut
    1002
{
    1070
0
    1040
0
    1040
0
    1040
0
    1070
0
    1002
}
    1000
IsFill
    1070
0
    1000
PathStart
    1040
1.5
    1000
ToolCompensation
    1002
{
    1070
0
    1040
0
    1070
0
    1002
}
       0
LWPOLYLINE
       5
201E
     100
AcDbEntity
       8
1
     100
AcDbPolyline
      90
4
      70
1
      10
137.4280972451
      20
87.5
      42
1
      10
130.9280972451
      20
87.5
      42
0
      10
130.9280972451
      20
72.5
      42
1
      10
137.4280972451
      20
72.5
      42
0
    1001
FS_CYPCUT
    1000
Channel
    1070
1
    1000
LeadIn
    1002
{
    1070
3
    1040
1.5
    1040
1.5707963267949
    1040
2
    1040
1
    1070
0
    1040
0.5
    1070
0
    1002
}
    1000
LeadOut
    1002
{
    1070
0
    1040
0
    1040
0
    1040
0
    1070
0
    1002
}
    1000
IsFill
    1070
0
    1000
PathStart
    1040
1.5
    1000
ToolCompensation
    1002
{
    1070
0
    1040
0
    1070
0
    1002
}
       0
SPLINE
       5
201F
     100
AcDbEntity
       8
1
     100
AcDbSpline
      70
0
      71
3
      72
148
      73
144
      74
0
      40
0
      40
0
      40
0
      40
0
      40
0.0277777777777778
      40
0.0277777777777778
      40
0.0277777777777778
      40
0.0277777777777778
      40
0.0555555555555556
      40
0.0555555555555556
      40
0.0555555555555556
      40
0.0555555555555556
      40
0.0833333333333333
      40
0.0833333333333333
      40
0.0833333333333333
      40
0.0833333333333333
      40
0.111111111111111
      40
0.111111111111111
      40
0.111111111111111
      40
0.111111111111111
      40
0.138888888888889
      40
0.138888888888889
      40
0.138888888888889
      40
0.138888888888889
      40
0.166666666666667
      40
0.166666666666667
      40
0.166666666666667
      40
0.166666666666667
      40
0.194444444444444
      40
0.194444444444444
      40
0.194444444444444
      40
0.194444444444444
      40
0.222222222222222
      40
0.222222222222222
      40
0.222222222222222
      40
0.222222222222222
      40
0.25
      40
0.25
      40
0.25
      40
0.25
      40
0.277777777777778
      40
0.277777777777778
      40
0.277777777777778
      40
0.277777777777778
      40
0.305555555555556
      40
0.305555555555556
      40
0.305555555555556
      40
0.305555555555556
      40
0.333333333333333
      40
0.333333333333333
      40
0.333333333333333
      40
0.333333333333333
      40
0.361111111111111
      40
0.361111111111111
      40
0.361111111111111
      40
0.361111111111111
      40
0.388888888888889
      40
0.388888888888889
      40
0.388888888888889
      40
0.388888888888889
      40
0.416666666666667
      40
0.416666666666667
      40
0.416666666666667
      40
0.416666666666667
      40
0.444444444444444
      40
0.444444444444444
      40
0.444444444444444
      40
0.444444444444444
      40
0.472222222222222
      40
0.472222222222222
      40
0.472222222222222
      40
0.472222222222222
      40
0.5
      40
0.5
      40
0.5
      40
0.5
      40
0.527777777777778
      40
0.527777777777778
      40
0.527777777777778
      40
0.527777777777778
      40
0.555555555555556
      40
0.555555555555556
      40
0.555555555555556
      40
0.555555555555556
      40
0.583333333333333
      40
0.583333333333333
      40
0.583333333333333
      40
0.583333333333333
      40
0.611111111111111
      40
0.611111111111111
      40
0.611111111111111
      40
0.611111111111111
      40
0.638888888888889
      40
0.638888888888889
      40
0.638888888888889
      40
0.638888888888889
      40
0.666666666666667
      40
0.666666666666667
      40
0.666666666666667
      40
0.666666666666667
      40
0.694444444444444
      40
0.694444444444444
      40
0.694444444444444
      40
0.694444444444444
      40
0.722222222222222
      40
0.722222222222222
      40
0.722222222222222
      40
0.722222222222222
      40
0.75
      40
0.75
      40
0.75
      40
0.75
      40
0.777777777777778
      40
0.777777777777778
      40
0.777777777777778
      40
0.777777777777778
      40
0.805555555555556
      40
0.805555555555556
      40
0.805555555555556
      40
0.805555555555556
      40
0.833333333333333
      40
0.833333333333333
      40
0.833333333333333
      40
0.833333333333333
      40
0.861111111111111
      40
0.861111111111111
      40
0.861111111111111
      40
0.861111111111111
      40
0.888888888888889
      40
0.888888888888889
      40
0.888888888888889
      40
0.888888888888889
      40
0.916666666666667
      40
0.916666666666667
      40
0.916666666666667
      40
0.916666666666667
      40
0.944444444444444
      40
0.944444444444444
      40
0.944444444444444
      40
0.944444444444444
      40
0.972222222222222
      40
0.972222222222222
      40
0.972222222222222
      40
0.972222222222222
      40
1
      40
1
      40
1
      40
1
      10
153.1780972451
      20
95
      30
0
      10
153.1780972451
      20
93.6707630673
      30
0
      10
153.1780972451
      20
92.3415261346
      30
0
      10
153.1780972451
      20
91.0122892019
      30
0
      10
153.1780972451
      20
91.0122892019
      30
0
      10
153.178097245094
      20
90.6790830967732
      30
0
      10
153.144789352546
      20
90.3467098916231
      30
0
      10
153.078670631722
      20
90.020129697413
      30
0
      10
153.078670631722
      20
90.020129697413
      30
0
      10
153.012551910897
      20
89.693549503203
      30
0
      10
152.913952909647
      20
89.3743949949155
      30
0
      10
152.7843450522
      20
89.0674290167
      30
0
      10
152.7843450522
      20
89.0674290167
      30
0
      10
141.108894397706
      20
61.4150458876681
      30
0
      10
129.433443743211
      20
33.7626627586361
      30
0
      10
117.757993088717
      20
6.11027962960414
      30
0
      10
117.757993088717
      20
6.11027962960414
      30
0
      10
117.250173751059
      20
4.90754961935924
      30
0
      10
116.51170265995
      20
3.81582544698584
      30
0
      10
115.584359511137
      20
2.89687243317449
      30
0
      10
115.584359511137
      20
2.89687243317449
      30
0
      10
114.657016362324
      20
1.97791941936315
      30
0
      10
113.558625739957
      20
1.24940088037848
      30
0
      10
112.351330125397
      20
0.752533436982455
      30
0
      10
112.351330125397
      20
0.752533436982455
      30
0
      10
111.144034510837
      20
0.255665993586433
      30
0
      10
109.851039491252
      20
1.77635683940025E-15
      30
0
      10
108.5454974746
      20
1.77635683940025E-15
      30
0
      10
108.5454974746
      20
1.77635683940025E-15
      30
0
      10
36.1818324915333
      20
3.37507799486048E-14
      30
0
      10
-36.1818324915333
      20
6.75015598972095E-14
      30
0
      10
-108.5454974746
      20
1.01252339845814E-13
      30
0
      10
-108.5454974746
      20
1.01252339845814E-13
      30
0
      10
-109.85103949125
      20
7.97584220890712E-13
      30
0
      10
-111.144034510833
      20
0.255665993587538
      30
0
      10
-112.351330125391
      20
0.752533436983461
      30
0
      10
-112.351330125391
      20
0.752533436983461
      30
0
      10
-113.558625739949
      20
1.24940088037939
      30
0
      10
-114.657016362314
      20
1.97791941936355
      30
0
      10
-115.584359511125
      20
2.89687243317401
      30
0
      10
-115.584359511125
      20
2.89687243317401
      30
0
      10
-116.511702659936
      20
3.81582544698448
      30
0
      10
-117.250173751044
      20
4.90754961935663
      30
0
      10
-117.7579930887
      20
6.1102796296
      30
0
      10
-117.7579930887
      20
6.1102796296
      30
0
      10
-129.4334437432
      20
33.7626627586333
      30
0
      10
-141.1088943977
      20
61.4150458876667
      30
0
      10
-152.7843450522
      20
89.0674290167
      30
0
      10
-152.7843450522
      20
89.0674290167
      30
0
      10
-152.913952909659
      20
89.3743949949113
      30
0
      10
-153.012551910916
      20
89.6935495031981
      30
0
      10
-153.078670631741
      20
90.0201296974092
      30
0
      10
-153.078670631741
      20
90.0201296974092
      30
0
      10
-153.144789352565
      20
90.3467098916202
      30
0
      10
-153.178097245107
      20
90.6790830967722
      30
0
      10
-153.1780972451
      20
91.0122892019
      30
0
      10
-153.1780972451
      20
91.0122892019
      30
0
      10
-153.1780972451
      20
92.3415261346
      30
0
      10
-153.1780972451
      20
93.6707630673
      30
0
      10
-153.1780972451
      20
95
      30
0
      10
-153.1780972451
      20
95
      30
0
      10
-153.1780972451
      20
95.6565939840369
      30
0
      10
-153.048762547138
      20
96.3068034188037
      30
0
      10
-152.797494907656
      20
96.9134171618255
      30
0
      10
-152.797494907656
      20
96.9134171618255
      30
0
      10
-152.546227268175
      20
97.5200309048472
      30
0
      10
-152.177913209632
      20
98.071251847334
      30
0
      10
-151.713631151033
      20
98.5355339059328
      30
0
      10
-151.713631151033
      20
98.5355339059328
      30
0
      10
-151.249349092434
      20
98.9998159645316
      30
0
      10
-150.698128149947
      20
99.3681300230749
      30
0
      10
-150.091514406925
      20
99.6193976625565
      30
0
      10
-150.091514406925
      20
99.6193976625565
      30
0
      10
-149.484900663904
      20
99.870665302038
      30
0
      10
-148.834691229137
      20
100
      30
0
      10
-148.1780972451
      20
100
      30
0
      10
-148.1780972451
      20
100
      30
0
      10
-116.593138017733
      20
100
      30
0
      10
-85.0081787903667
      20
100
      30
0
      10
-53.423219563
      20
100
      30
0
      10
-53.423219563
      20
100
      30
0
      10
-53.4232195630019
      20
99.9889758778094
      30
0
      10
-53.4232195630037
      20
99.9779517556188
      30
0
      10
-53.4232195630056
      20
99.9669276334282
      30
0
      10
-53.4232195630056
      20
99.9669276334282
      30
0
      10
-53.2721827888439
      20
99.9268017773147
      30
0
      10
-53.1103242854255
      20
99.8518113436963
      30
0
      10
-52.9376440527508
      20
99.7419563325712
      30
0
      10
-52.9376440527508
      20
99.7419563325712
      30
0
      10
-52.8554735729051
      20
99.6896814494666
      30
0
      10
-52.7335118536288
      20
99.6036328953692
      30
0
      10
-52.5717588949214
      20
99.4838106702796
      30
0
      10
-52.5717588949214
      20
99.4838106702796
      30
0
      10
-52.5478392632809
      20
99.4660039509608
      30
0
      10
-52.5239196316405
      20
99.448197231642
      30
0
      10
-52.5
      20
99.4303905123232
      30
0
      10
-52.5
      20
99.4303905123232
      30
0
      10
-35.7077848534852
      20
93.1562755563576
      30
0
      10
-17.9260427313322
      20
89.9428454763021
      30
0
      10
-2.57077887623466E-14
      20
89.9428454763021
      30
0
      10
-2.57077887623466E-14
      20
89.9428454763021
      30
0
      10
17.9260427313322
      20
89.9428454763021
      30
0
      10
35.7077848534851
      20
93.1562755563576
      30
0
      10
52.4999999999437
      20
99.4303905123172
      30
0
      10
52.4999999999437
      20
99.4303905123172
      30
0
      10
52.5242624710592
      20
99.4484430547009
      30
0
      10
52.5485249421184
      20
99.4664955970786
      30
0
      10
52.5727874131776
      20
99.4845481394563
      30
0
      10
52.5727874131776
      20
99.4845481394563
      30
0
      10
52.7248964992097
      20
99.5971811156106
      30
0
      10
52.8406252421991
      20
99.6792085213094
      30
0
      10
52.9199736421462
      20
99.730630356553
      30
0
      10
52.9199736421462
      20
99.730630356553
      30
0
      10
52.9418395480568
      20
99.7447395294752
      30
0
      10
52.9474753370007
      20
99.748165990185
      30
0
      10
52.9695374385277
      20
99.761835126469
      30
0
      10
52.9695374385277
      20
99.761835126469
      30
0
      10
53.1285130497777
      20
99.8593023559468
      30
0
      10
53.2797404246039
      20
99.9276665249331
      30
0
      10
53.4232195630055
      20
99.9669276334282
      30
0
      10
53.4232195630055
      20
99.9669276334282
      30
0
      10
53.4232195630037
      20
99.9779517556188
      30
0
      10
53.4232195630018
      20
99.9889758778094
      30
0
      10
53.423219563
      20
100
      30
0
      10
53.423219563
      20
100
      30
0
      10
85.0081787903667
      20
100
      30
0
      10
116.593138017733
      20
100
      30
0
      10
148.1780972451
      20
100
      30
0
      10
148.1780972451
      20
100
      30
0
      10
148.834691229137
      20
100
      30
0
      10
149.484900663904
      20
99.870665302038
      30
0
      10
150.091514406925
      20
99.6193976625564
      30
0
      10
150.091514406925
      20
99.6193976625564
      30
0
      10
150.698128149947
      20
99.3681300230749
      30
0
      10
151.249349092434
      20
98.9998159645315
      30
0
      10
151.713631151033
      20
98.5355339059328
      30
0
      10
151.713631151033
      20
98.5355339059328
      30
0
      10
152.177913209632
      20
98.0712518473339
      30
0
      10
152.546227268175
      20
97.5200309048472
      30
0
      10
152.797494907656
      20
96.9134171618254
      30
0
      10
152.797494907656
      20
96.9134171618254
      30
0
      10
153.048762547138
      20
96.3068034188037
      30
0
      10
153.1780972451
      20
95.6565939840369
      30
0
      10
153.1780972451
      20
95
      30
0
    1001
FS_CYPCUT
    1000
Channel
    1070
1
    1000
LeadIn
    1002
{
    1070
3
    1040
7.5
    1040
1.5707963267949
    1040
2
    1040
1
    1070
0
    1040
0.5
    1070
0
    1002
}
    1000
LeadOut
    1002
{
    1070
0
    1040
0
    1040
0
    1040
0
    1070
0
    1002
}
    1000
IsFill
    1070
1
    1000
PathStart
    1040
7.5
    1000
ToolCompensation
    1002
{
    1070
0
    1040
0
    1070
0
    1002
}
    1000
MicroConnect
    1002
{
    1070
2
    1040
7.84927137
    1041
0.5
    1042
0
    1040
31.4915502
    1041
0.5
    1042
0
    1002
}
       0
ENDBLK
       5
2020
     330
2002
     100
AcDbEntity
       8
0
     100
AcDbBlockEnd
       0
BLOCK
       5
2021
     330
2003
     100
AcDbEntity
       8
0
     100
AcDbBlockBegin
       2
Part519503028
      70
0
      10
-142.5
      20
-50
      30
0
       3
Part519503028
       1

       4
CypCutBlock
       0
CIRCLE
       5
2022
     100
AcDbEntity
       8
1
     100
AcDbCircle
      10
-130
      20
-35
      30
0
      40
3.5
    1001
FS_CYPCUT
    1000
Channel
    1070
1
    1000
LeadIn
    1002
{
    1070
3
    1040
0
    1040
1.5707963267949
    1040
2
    1040
1
    1070
0
    1040
0.5
    1070
0
    1002
}
    1000
LeadOut
    1002
{
    1070
0
    1040
0
    1040
0
    1040
0
    1070
0
    1002
}
    1000
IsFill
    1070
0
    1000
PathStart
    1040
1
    1000
ToolCompensation
    1002
{
    1070
0
    1040
0
    1070
0
    1002
}
       0
CIRCLE
       5
2023
     100
AcDbEntity
       8
1
     100
AcDbCircle
      10
-130
      20
35
      30
0
      40
3.5
    1001
FS_CYPCUT
    1000
Channel
    1070
1
    1000
LeadIn
    1002
{
    1070
3
    1040
0
    1040
1.5707963267949
    1040
2
    1040
1
    1070
0
    1040
0.5
    1070
0
    1002
}
    1000
LeadOut
    1002
{
    1070
0
    1040
0
    1040
0
    1040
0
    1070
0
    1002
}
    1000
IsFill
    1070
0
    1000
PathStart
    1040
1
    1000
ToolCompensation
    1002
{
    1070
0
    1040
0
    1070
0
    1002
}
       0
CIRCLE
       5
2024
     100
AcDbEntity
       8
1
     100
AcDbCircle
      10
130
      20
35
      30
0
      40
3.5
    1001
FS_CYPCUT
    1000
Channel
    1070
1
    1000
LeadIn
    1002
{
    1070
3
    1040
2.22044604925031E-16
    1040
1.5707963267949
    1040
2
    1040
1
    1070
0
    1040
0.5
    1070
0
    1002
}
    1000
LeadOut
    1002
{
    1070
0
    1040
0
    1040
0
    1040
0
    1070
0
    1002
}
    1000
IsFill
    1070
0
    1000
PathStart
    1040
2.22044604925031E-16
    1000
ToolCompensation
    1002
{
    1070
0
    1040
0
    1070
0
    1002
}
       0
CIRCLE
       5
2025
     100
AcDbEntity
       8
1
     100
AcDbCircle
      10
130
      20
-35
      30
0
      40
3.5
    1001
FS_CYPCUT
    1000
Channel
    1070
1
    1000
LeadIn
    1002
{
    1070
3
    1040
2.22044604925031E-16
    1040
1.5707963267949
    1040
2
    1040
1
    1070
0
    1040
0.5
    1070
0
    1002
}
    1000
LeadOut
    1002
{
    1070
0
    1040
0
    1040
0
    1040
0
    1070
0
    1002
}
    1000
IsFill
    1070
0
    1000
PathStart
    1040
2.22044604925031E-16
    1000
ToolCompensation
    1002
{
    1070
0
    1040
0
    1070
0
    1002
}
       0
LWPOLYLINE
       5
2026
     100
AcDbEntity
       8
1
     100
AcDbPolyline
      90
8
      70
1
      10
142.5
      20
45
      42
0.4142135623731
      10
137.5
      20
50
      42
0
      10
-137.5
      20
50
      42
0.4142135623731
      10
-142.5
      20
45
      42
0
      10
-142.5
      20
-45
      42
0.414213562373097
      10
-137.5
      20
-50
      42
0
      10
137.5
      20
-50
      42
0.4142135623731
      10
142.5
      20
-45
      42
0
    1001
FS_CYPCUT
    1000
Channel
    1070
1
    1000
LeadIn
    1002
{
    1070
3
    1040
1.5
    1040
1.5707963267949
    1040
2
    1040
1
    1070
0
    1040
0.5
    1070
0
    1002
}
    1000
LeadOut
    1002
{
    1070
0
    1040
0
    1040
0
    1040
0
    1070
0
    1002
}
    1000
IsFill
    1070
1
    1000
PathStart
    1040
1.5
    1000
ToolCompensation
    1002
{
    1070
0
    1040
0
    1070
0
    1002
}
    1000
MicroConnect
    1002
{
    1070
2
    1040
1.22554661
    1041
0.5
    1042
0
    1040
5.23245109
    1041
0.5
    1042
0
    1002
}
       0
ENDBLK
       5
2027
     330
2003
     100
AcDbEntity
       8
0
     100
AcDbBlockEnd
       0
BLOCK
       5
2028
     330
2004
     100
AcDbEntity
       8
0
     100
AcDbBlockBegin
       2
Part1574064265
      70
0
      10
-142.5
      20
-50
      30
0
       3
Part1574064265
       1

       4
CypCutBlock
       0
CIRCLE
       5
2029
     100
AcDbEntity
       8
1
     100
AcDbCircle
      10
-130
      20
-35
      30
0
      40
3.5
    1001
FS_CYPCUT
    1000
Channel
    1070
1
    1000
LeadIn
    1002
{
    1070
3
    1040
0
    1040
1.5707963267949
    1040
2
    1040
1
    1070
0
    1040
0.5
    1070
0
    1002
}
    1000
LeadOut
    1002
{
    1070
0
    1040
0
    1040
0
    1040
0
    1070
0
    1002
}
    1000
IsFill
    1070
0
    1000
PathStart
    1040
1
    1000
ToolCompensation
    1002
{
    1070
0
    1040
0
    1070
0
    1002
}
       0
CIRCLE
       5
202A
     100
AcDbEntity
       8
1
     100
AcDbCircle
      10
-130
      20
35
      30
0
      40
3.5
    1001
FS_CYPCUT
    1000
Channel
    1070
1
    1000
LeadIn
    1002
{
    1070
3
    1040
0
    1040
1.5707963267949
    1040
2
    1040
1
    1070
0
    1040
0.5
    1070
0
    1002
}
    1000
LeadOut
    1002
{
    1070
0
    1040
0
    1040
0
    1040
0
    1070
0
    1002
}
    1000
IsFill
    1070
0
    1000
PathStart
    1040
1
    1000
ToolCompensation
    1002
{
    1070
0
    1040
0
    1070
0
    1002
}
       0
CIRCLE
       5
202B
     100
AcDbEntity
       8
1
     100
AcDbCircle
      10
130
      20
35
      30
0
      40
3.5
    1001
FS_CYPCUT
    1000
Channel
    1070
1
    1000
LeadIn
    1002
{
    1070
3
    1040
2.22044604925031E-16
    1040
1.5707963267949
    1040
2
    1040
1
    1070
0
    1040
0.5
    1070
0
    1002
}
    1000
LeadOut
    1002
{
    1070
0
    1040
0
    1040
0
    1040
0
    1070
0
    1002
}
    1000
IsFill
    1070
0
    1000
PathStart
    1040
2.22044604925031E-16
    1000
ToolCompensation
    1002
{
    1070
0
    1040
0
    1070
0
    1002
}
       0
CIRCLE
       5
202C
     100
AcDbEntity
       8
1
     100
AcDbCircle
      10
130
      20
-35
      30
0
      40
3.5
    1001
FS_CYPCUT
    1000
Channel
    1070
1
    1000
LeadIn
    1002
{
    1070
3
    1040
2.22044604925031E-16
    1040
1.5707963267949
    1040
2
    1040
1
    1070
0
    1040
0.5
    1070
0
    1002
}
    1000
LeadOut
    1002
{
    1070
0
    1040
0
    1040
0
    1040
0
    1070
0
    1002
}
    1000
IsFill
    1070
0
    1000
PathStart
    1040
2.22044604925031E-16
    1000
ToolCompensation
    1002
{
    1070
0
    1040
0
    1070
0
    1002
}
       0
LWPOLYLINE
       5
202D
     100
AcDbEntity
       8
1
     100
AcDbPolyline
      90
8
      70
1
      10
142.5
      20
45
      42
0.4142135623731
      10
137.5
      20
50
      42
0
      10
-137.5
      20
50
      42
0.4142135623731
      10
-142.5
      20
45
      42
0
      10
-142.5
      20
-45
      42
0.414213562373097
      10
-137.5
      20
-50
      42
0
      10
137.5
      20
-50
      42
0.4142135623731
      10
142.5
      20
-45
      42
0
    1001
FS_CYPCUT
    1000
Channel
    1070
1
    1000
LeadIn
    1002
{
    1070
3
    1040
1.5
    1040
1.5707963267949
    1040
2
    1040
1
    1070
0
    1040
0.5
    1070
0
    1002
}
    1000
LeadOut
    1002
{
    1070
0
    1040
0
    1040
0
    1040
0
    1070
0
    1002
}
    1000
IsFill
    1070
1
    1000
PathStart
    1040
1.5
    1000
ToolCompensation
    1002
{
    1070
0
    1040
0
    1070
0
    1002
}
    1000
MicroConnect
    1002
{
    1070
2
    1040
1.22554661
    1041
0.5
    1042
0
    1040
5.23245109
    1041
0.5
    1042
0
    1002
}
       0
ENDBLK
       5
202E
     330
2004
     100
AcDbEntity
       8
0
     100
AcDbBlockEnd
       0
BLOCK
       5
202F
     330
2005
     100
AcDbEntity
       8
0
     100
AcDbBlockBegin
       2
Part392156784
      70
0
      10
0
      20
-25
      30
0
       3
Part392156784
       1

       4
CypCutBlock
       0
SPLINE
       5
2030
     100
AcDbEntity
       8
1
     100
AcDbSpline
      70
0
      71
3
      72
60
      73
56
      74
0
      40
0
      40
0
      40
0
      40
0
      40
0.0714285714285714
      40
0.0714285714285714
      40
0.0714285714285714
      40
0.0714285714285714
      40
0.142857142857143
      40
0.142857142857143
      40
0.142857142857143
      40
0.142857142857143
      40
0.214285714285714
      40
0.214285714285714
      40
0.214285714285714
      40
0.214285714285714
      40
0.285714285714286
      40
0.285714285714286
      40
0.285714285714286
      40
0.285714285714286
      40
0.357142857142857
      40
0.357142857142857
      40
0.357142857142857
      40
0.357142857142857
      40
0.428571428571429
      40
0.428571428571429
      40
0.428571428571429
      40
0.428571428571429
      40
0.5
      40
0.5
      40
0.5
      40
0.5
      40
0.571428571428571
      40
0.571428571428571
      40
0.571428571428571
      40
0.571428571428571
      40
0.642857142857143
      40
0.642857142857143
      40
0.642857142857143
      40
0.642857142857143
      40
0.714285714285714
      40
0.714285714285714
      40
0.714285714285714
      40
0.714285714285714
      40
0.785714285714286
      40
0.785714285714286
      40
0.785714285714286
      40
0.785714285714286
      40
0.857142857142857
      40
0.857142857142857
      40
0.857142857142857
      40
0.857142857142857
      40
0.928571428571429
      40
0.928571428571429
      40
0.928571428571429
      40
0.928571428571429
      40
1
      40
1
      40
1
      40
1
      10
22.5
      20
93.0546360777352
      30
0
      10
22.4985750327546
      20
93.1084704605868
      30
0
      10
22.4971500655093
      20
93.1623048434384
      30
0
      10
22.4957250982639
      20
93.2161392262901
      30
0
      10
22.4957250982639
      20
93.2161392262901
      30
0
      10
22.4672203133868
      20
94.6699306207993
      30
0
      10
21.9480089441158
      20
96.1089138938828
      30
0
      10
21.045077207117
      20
97.2519115765762
      30
0
      10
21.045077207117
      20
97.2519115765762
      30
0
      10
20.2787865513454
      20
98.2273353184275
      30
0
      10
19.2372300876063
      20
98.9859867308647
      30
0
      10
18.0634710728157
      20
99.393118269552
      30
0
      10
18.0634710728157
      20
99.393118269552
      30
0
      10
16.6392208624797
      20
99.8973350956835
      30
0
      10
15.030399407812
      20
99.8556792760142
      30
0
      10
13.6339856978174
      20
99.2784668839016
      30
0
      10
13.6339856978174
      20
99.2784668839016
      30
0
      10
12.2812173732959
      20
98.7330549721245
      30
0
      10
11.1375812182683
      20
97.710205749997
      30
0
      10
10.4108895808679
      20
96.4493662519401
      30
0
      10
10.4108895808679
      20
96.4493662519401
      30
0
      10
9.81461324793543
      20
95.4215908410016
      30
0
      10
9.50642477802415
      20
94.239401363818
      30
0
      10
9.5
      20
93.0546360777352
      30
0
      10
9.5
      20
93.0546360777352
      30
0
      10
9.5
      20
65.0006637505
      30
0
      10
9.5
      20
36.9466914233
      30
0
      10
9.5
      20
8.8927190961
      30
0
      10
9.5
      20
8.8927190961
      30
0
      10
9.50172440725051
      20
8.83986471990439
      30
0
      10
9.50344881450102
      20
8.78701034375057
      30
0
      10
9.50517322175153
      20
8.73415596759675
      30
0
      10
9.50517322175153
      20
8.73415596759675
      30
0
      10
9.52803347268907
      20
7.83581186682063
      30
0
      10
9.73575088749898
      20
6.94132479265587
      30
0
      10
10.1248632344849
      20
6.12984991463893
      30
0
      10
10.1248632344849
      20
6.12984991463893
      30
0
      10
10.8056931217471
      20
4.69211096033305
      30
0
      10
12.0466981382143
      20
3.53518488770405
      30
0
      10
13.5216528488352
      20
2.94353157437309
      30
0
      10
13.5216528488352
      20
2.94353157437309
      30
0
      10
15.0902668989034
      20
2.29869509770382
      30
0
      10
16.9102627613599
      20
2.29867341161138
      30
0
      10
18.478813608696
      20
2.94372022676073
      30
0
      10
18.478813608696
      20
2.94372022676073
      30
0
      10
19.8550873541966
      20
3.49668182256855
      30
0
      10
21.0286557574358
      20
4.53974073408825
      30
0
      10
21.7315307647981
      20
5.84713184933723
      30
0
      10
21.7315307647981
      20
5.84713184933723
      30
0
      10
22.2384899076683
      20
6.77851773519672
      30
0
      10
22.4932632820663
      20
7.8354167785977
      30
0
      10
22.5
      20
8.89271909605822
      30
0
      10
22.5
      20
8.89271909605822
      30
0
      10
22.5
      20
36.9466914232721
      30
0
      10
22.5
      20
65.0006637504861
      30
0
      10
22.5
      20
93.0546360777
      30
0
    1001
FS_CYPCUT
    1000
Channel
    1070
1
    1000
LeadIn
    1002
{
    1070
3
    1040
6.5
    1040
1.5707963267949
    1040
2
    1040
1
    1070
0
    1040
0.5
    1070
0
    1002
}
    1000
LeadOut
    1002
{
    1070
0
    1040
0
    1040
0
    1040
0
    1070
0
    1002
}
    1000
IsFill
    1070
0
    1000
PathStart
    1040
6.5
    1000
ToolCompensation
    1002
{
    1070
0
    1040
0
    1070
0
    1002
}
       0
SPLINE
       5
2031
     100
AcDbEntity
       8
1
     100
AcDbSpline
      70
0
      71
3
      72
96
      73
92
      74
0
      40
0
      40
0
      40
0
      40
0
      40
0.0434782608695652
      40
0.0434782608695652
      40
0.0434782608695652
      40
0.0434782608695652
      40
0.0869565217391304
      40
0.0869565217391304
      40
0.0869565217391304
      40
0.0869565217391304
      40
0.130434782608696
      40
0.130434782608696
      40
0.130434782608696
      40
0.130434782608696
      40
0.173913043478261
      40
0.173913043478261
      40
0.173913043478261
      40
0.173913043478261
      40
0.217391304347826
      40
0.217391304347826
      40
0.217391304347826
      40
0.217391304347826
      40
0.260869565217391
      40
0.260869565217391
      40
0.260869565217391
      40
0.260869565217391
      40
0.304347826086957
      40
0.304347826086957
      40
0.304347826086957
      40
0.304347826086957
      40
0.347826086956522
      40
0.347826086956522
      40
0.347826086956522
      40
0.347826086956522
      40
0.391304347826087
      40
0.391304347826087
      40
0.391304347826087
      40
0.391304347826087
      40
0.434782608695652
      40
0.434782608695652
      40
0.434782608695652
      40
0.434782608695652
      40
0.478260869565217
      40
0.478260869565217
      40
0.478260869565217
      40
0.478260869565217
      40
0.521739130434783
      40
0.521739130434783
      40
0.521739130434783
      40
0.521739130434783
      40
0.565217391304348
      40
0.565217391304348
      40
0.565217391304348
      40
0.565217391304348
      40
0.608695652173913
      40
0.608695652173913
      40
0.608695652173913
      40
0.608695652173913
      40
0.652173913043478
      40
0.652173913043478
      40
0.652173913043478
      40
0.652173913043478
      40
0.695652173913043
      40
0.695652173913043
      40
0.695652173913043
      40
0.695652173913043
      40
0.739130434782609
      40
0.739130434782609
      40
0.739130434782609
      40
0.739130434782609
      40
0.782608695652174
      40
0.782608695652174
      40
0.782608695652174
      40
0.782608695652174
      40
0.826086956521739
      40
0.826086956521739
      40
0.826086956521739
      40
0.826086956521739
      40
0.869565217391304
      40
0.869565217391304
      40
0.869565217391304
      40
0.869565217391304
      40
0.91304347826087
      40
0.91304347826087
      40
0.91304347826087
      40
0.91304347826087
      40
0.956521739130435
      40
0.956521739130435
      40
0.956521739130435
      40
0.956521739130435
      40
1
      40
1
      40
1
      40
1
      10
40
      20
109.243849134724
      30
0
      10
39.9989696616053
      20
109.284742234731
      30
0
      10
39.9979393232105
      20
109.325635334738
      30
0
      10
39.9969089848158
      20
109.366528434744
      30
0
      10
39.9969089848158
      20
109.366528434744
      30
0
      10
39.9952736865968
      20
109.407395904653
      30
0
      10
39.9936383883778
      20
109.448263374562
      30
0
      10
39.9920030901588
      20
109.489130844471
      30
0
      10
39.9920030901588
      20
109.489130844471
      30
0
      10
39.9908037569513
      20
109.509547241855
      30
0
      10
39.9896044237438
      20
109.529963639239
      30
0
      10
39.9884050905363
      20
109.550380036623
      30
0
      10
39.9884050905363
      20
109.550380036623
      30
0
      10
39.9885336460233
      20
109.560626861258
      30
0
      10
39.9732825776853
      20
109.754401849641
      30
0
      10
39.95975444639
      20
109.855800062067
      30
0
      10
39.95975444639
      20
109.855800062067
      30
0
      10
39.939979764887
      20
110.01821522851
      30
0
      10
39.9125886136199
      20
110.179724915352
      30
0
      10
39.8774596780173
      20
110.339530915299
      30
0
      10
39.8774596780173
      20
110.339530915299
      30
0
      10
39.8160156258221
      20
110.61920279012
      30
0
      10
39.7304062565559
      20
110.893576410518
      30
0
      10
39.6212282281329
      20
111.158303992308
      30
0
      10
39.6212282281329
      20
111.158303992308
      30
0
      10
39.5835413065362
      20
111.253437971563
      30
0
      10
39.500970819114
      20
111.42968061357
      30
0
      10
39.4957698112813
      20
111.438543785835
      30
0
      10
39.4957698112813
      20
111.438543785835
      30
0
      10
39.3083730243318
      20
111.825877437289
      30
0
      10
39.0700030736477
      20
112.188557007345
      30
0
      10
38.7886934118391
      20
112.513903507195
      30
0
      10
38.7886934118391
      20
112.513903507195
      30
0
      10
38.628065227292
      20
112.699960252934
      30
0
      10
38.4539194519651
      20
112.874407128512
      30
0
      10
38.268131073967
      20
113.035359696712
      30
0
      10
38.268131073967
      20
113.035359696712
      30
0
      10
37.9586772746555
      20
113.303800957115
      30
0
      10
37.6154884667586
      20
113.533351579612
      30
0
      10
37.2490897152499
      20
113.716949243366
      30
0
      10
37.2490897152499
      20
113.716949243366
      30
0
      10
37.10261910948
      20
113.790477852463
      30
0
      10
36.9526246697767
      20
113.8568331111
      30
0
      10
36.7999531899995
      20
113.915756598627
      30
0
      10
36.7999531899995
      20
113.915756598627
      30
0
      10
36.5709876115676
      20
114.004148669102
      30
0
      10
36.3354046966031
      20
114.075608232271
      30
0
      10
36.0957660228477
      20
114.128815747994
      30
0
      10
36.0957660228477
      20
114.128815747994
      30
0
      10
35.9759626666931
      20
114.155441003929
      30
0
      10
35.8551754851529
      20
114.177634293271
      30
0
      10
35.7337433487652
      20
114.195744207984
      30
0
      10
35.7337433487652
      20
114.195744207984
      30
0
      10
35.6123109989789
      20
114.213828135401
      30
0
      10
35.4902319994842
      20
114.227588549191
      30
0
      10
35.3678339178453
      20
114.235881018403
      30
0
      10
35.3678339178453
      20
114.235881018403
      30
0
      10
35.245435785767
      20
114.244212793173
      30
0
      10
35.1227178928835
      20
114.247605478987
      30
0
      10
35
      20
114.250998164801
      30
0
      10
35
      20
114.250998164801
      30
0
      10
23.3333333333333
      20
114.250998164801
      30
0
      10
11.6666666666667
      20
114.2509981648
      30
0
      10
0
      20
114.2509981648
      30
0
      10
0
      20
114.2509981648
      30
0
      10
0
      20
67.8339987765333
      30
0
      10
0
      20
21.4169993882667
      30
0
      10
0
      20
-25
      30
0
      10
0
      20
-25
      30
0
      10
11.6666666666667
      20
-25
      30
0
      10
23.3333333333333
      20
-25
      30
0
      10
35
      20
-25
      30
0
      10
35
      20
-25
      30
0
      10
35.6565939840369
      20
-25
      30
0
      10
36.3068034188037
      20
-24.8706653020379
      30
0
      10
36.9134171618254
      20
-24.6193976625564
      30
0
      10
36.9134171618254
      20
-24.6193976625564
      30
0
      10
37.5200309048472
      20
-24.3681300230749
      30
0
      10
38.0712518473339
      20
-23.9998159645315
      30
0
      10
38.5355339059327
      20
-23.5355339059327
      30
0
      10
38.5355339059327
      20
-23.5355339059327
      30
0
      10
38.9998159645315
      20
-23.0712518473339
      30
0
      10
39.3681300230749
      20
-22.5200309048472
      30
0
      10
39.6193976625564
      20
-21.9134171618254
      30
0
      10
39.6193976625564
      20
-21.9134171618254
      30
0
      10
39.8706653020379
      20
-21.3068034188037
      30
0
      10
40
      20
-20.6565939840369
      30
0
      10
40
      20
-20
      30
0
      10
40
      20
-20
      30
0
      10
40
      20
23.0812830449
      30
0
      10
40
      20
66.1625660898
      30
0
      10
40
      20
109.2438491347
      30
0
    1001
FS_CYPCUT
    1000
Channel
    1070
1
    1000
LeadIn
    1002
{
    1070
3
    1040
16.5
    1040
1.5707963267949
    1040
2
    1040
1
    1070
0
    1040
0.5
    1070
0
    1002
}
    1000
LeadOut
    1002
{
    1070
0
    1040
0
    1040
0
    1040
0
    1070
0
    1002
}
    1000
IsFill
    1070
1
    1000
PathStart
    1040
16.5
    1000
ToolCompensation
    1002
{
    1070
0
    1040
0
    1070
0
    1002
}
    1000
MicroConnect
    1002
{
    1070
2
    1040
16.4569106
    1041
0.6
    1042
0
    1040
22.5000277
    1041
0.6
    1042
0
    1002
}
       0
ENDBLK
       5
2032
     330
2005
     100
AcDbEntity
       8
0
     100
AcDbBlockEnd
       0
ENDSEC
       0
SECTION
       2
ENTITIES
       0
INSERT
       5
2033
     100
AcDbEntity
       8
1
     100
AcDbBlockReference
       2
Part46678921
      10
5205.09089247208
      20
10830.9906963317
      30
0
      41
1
      42
1
      50
180
    1001
FS_CYPCUT
    1000
Channel
    1070
1
    1000
LeadIn
    1002
{
    1070
0
    1040
0
    1040
0
    1040
0
    1040
0
    1070
0
    1040
0
    1070
0
    1002
}
    1000
LeadOut
    1002
{
    1070
0
    1040
0
    1040
0
    1040
0
    1070
0
    1002
}
       0
INSERT
       5
2034
     100
AcDbEntity
       8
1
     100
AcDbBlockReference
       2
Part385167922
      10
5266.44479611409
      20
10775.2841351118
      30
0
      41
1
      42
1
      50
90.0000001836389
    1001
FS_CYPCUT
    1000
Channel
    1070
1
    1000
LeadIn
    1002
{
    1070
0
    1040
0
    1040
0
    1040
0
    1040
0
    1070
0
    1040
0
    1070
0
    1002
}
    1000
LeadOut
    1002
{
    1070
0
    1040
0
    1040
0
    1040
0
    1070
0
    1002
}
       0
INSERT
       5
2035
     100
AcDbEntity
       8
1
     100
AcDbBlockReference
       2
Part956839855
      10
5514.44699272208
      20
10830.9906963317
      30
0
      41
1
      42
1
      50
180
    1001
FS_CYPCUT
    1000
Channel
    1070
1
    1000
LeadIn
    1002
{
    1070
0
    1040
0
    1040
0
    1040
0
    1040
0
    1070
0
    1040
0
    1070
0
    1002
}
    1000
LeadOut
    1002
{
    1070
0
    1040
0
    1040
0
    1040
0
    1070
0
    1002
}
       0
LWPOLYLINE
       5
2036
     100
AcDbEntity
       8
1
     100
AcDbPolyline
      90
4
      70
1
      10
4920.88478614868
      20
10571.6416203821
      42
0
      10
4920.88478614868
      20
10564.3416203821
      42
0
      10
4913.58478614868
      20
10564.3416203821
      42
0
      10
4913.58478614868
      20
10571.6416203821
      42
0
    1001
FS_CYPCUT
    1000
Channel
    1070
1
    1000
LeadIn
    1002
{
    1070
3
    1040
0.5
    1040
1.5707963267949
    1040
2
    1040
1
    1070
0
    1040
0.5
    1070
0
    1002
}
    1000
LeadOut
    1002
{
    1070
0
    1040
0
    1040
0
    1040
0
    1070
0
    1002
}
    1000
IsFill
    1070
0
    1000
PathStart
    1040
0.5
    1000
ToolCompensation
    1002
{
    1070
0
    1040
0
    1070
0
    1002
}
       0
LWPOLYLINE
       5
2037
     100
AcDbEntity
       8
1
     100
AcDbPolyline
      90
4
      70
1
      10
4920.88478614868
      20
10711.6416203821
      42
0
      10
4920.88478614868
      20
10704.3416203821
      42
0
      10
4913.58478614868
      20
10704.3416203821
      42
0
      10
4913.58478614868
      20
10711.6416203821
      42
0
    1001
FS_CYPCUT
    1000
Channel
    1070
1
    1000
LeadIn
    1002
{
    1070
3
    1040
0.5
    1040
1.5707963267949
    1040
2
    1040
1
    1070
0
    1040
0.5
    1070
0
    1002
}
    1000
LeadOut
    1002
{
    1070
0
    1040
0
    1040
0
    1040
0
    1070
0
    1002
}
    1000
IsFill
    1070
0
    1000
PathStart
    1040
0.5
    1000
ToolCompensation
    1002
{
    1070
0
    1040
0
    1070
0
    1002
}
       0
LWPOLYLINE
       5
2038
     100
AcDbEntity
       8
1
     100
AcDbPolyline
      90
4
      70
1
      10
5298.88478614868
      20
10571.6416203821
      42
0
      10
5298.88478614868
      20
10564.3416203821
      42
0
      10
5291.58478614868
      20
10564.3416203821
      42
0
      10
5291.58478614868
      20
10571.6416203821
      42
0
    1001
FS_CYPCUT
    1000
Channel
    1070
1
    1000
LeadIn
    1002
{
    1070
3
    1040
0.5
    1040
1.5707963267949
    1040
2
    1040
1
    1070
0
    1040
0.5
    1070
0
    1002
}
    1000
LeadOut
    1002
{
    1070
0
    1040
0
    1040
0
    1040
0
    1070
0
    1002
}
    1000
IsFill
    1070
0
    1000
PathStart
    1040
0.5
    1000
ToolCompensation
    1002
{
    1070
0
    1040
0
    1070
0
    1002
}
       0
LWPOLYLINE
       5
2039
     100
AcDbEntity
       8
1
     100
AcDbPolyline
      90
4
      70
1
      10
5298.88478614868
      20
10711.6416203821
      42
0
      10
5298.88478614868
      20
10704.3416203821
      42
0
      10
5291.58478614868
      20
10704.3416203821
      42
0
      10
5291.58478614868
      20
10711.6416203821
      42
0
    1001
FS_CYPCUT
    1000
Channel
    1070
1
    1000
LeadIn
    1002
{
    1070
3
    1040
3.5
    1040
1.5707963267949
    1040
2
    1040
1
    1070
0
    1040
0.5
    1070
0
    1002
}
    1000
LeadOut
    1002
{
    1070
0
    1040
0
    1040
0
    1040
0
    1070
0
    1002
}
    1000
IsFill
    1070
0
    1000
PathStart
    1040
3.5
    1000
ToolCompensation
    1002
{
    1070
0
    1040
0
    1070
0
    1002
}
       0
LWPOLYLINE
       5
203A
     100
AcDbEntity
       8
1
     100
AcDbPolyline
      90
8
      70
0
      10
5313.73478614868
      20
10717.9916203821
      42
0.414213562373095
      10
5303.73478614868
      20
10727.9916203821
      42
0
      10
4908.73478614868
      20
10727.9916203821
      42
0.414213562373095
      10
4898.73478614868
      20
10717.9916203821
      42
0
      10
4898.73478614868
      20
10557.9916203821
      42
0.414213562373096
      10
4908.73478614868
      20
10547.9916203821
      42
0
      10
5303.73478614868
      20
10547.9916203821
      42
0.414213562373095
      10
5313.73478614868
      20
10557.9916203821
      42
0
    1001
FS_CYPCUT
    1000
Channel
    1070
1
    1000
LeadIn
    1002
{
    1070
0
    1040
0.00636619772367582
    1040
1.5707963267949
    1040
2
    1040
1
    1070
0
    1040
0.5
    1070
0
    1002
}
    1000
LeadOut
    1002
{
    1070
0
    1040
0
    1040
0
    1040
0
    1070
0
    1002
}
    1000
IsFill
    1070
1
    1000
PathStart
    1040
0
    1000
ToolCompensation
    1002
{
    1070
0
    1040
0
    1070
0
    1002
}
    1000
MicroConnect
    1002
{
    1070
1
    1040
0
    1041
0.1
    1042
0
    1002
}
       0
LWPOLYLINE
       5
203B
     100
AcDbEntity
       8
1
     100
AcDbPolyline
      90
4
      70
1
      10
5335.88488614868
      20
10571.6416203821
      42
0
      10
5335.88488614868
      20
10564.3416203821
      42
0
      10
5328.58488614868
      20
10564.3416203821
      42
0
      10
5328.58488614868
      20
10571.6416203821
      42
0
    1001
FS_CYPCUT
    1000
Channel
    1070
1
    1000
LeadIn
    1002
{
    1070
3
    1040
0.5
    1040
1.5707963267949
    1040
2
    1040
1
    1070
0
    1040
0.5
    1070
0
    1002
}
    1000
LeadOut
    1002
{
    1070
0
    1040
0
    1040
0
    1040
0
    1070
0
    1002
}
    1000
IsFill
    1070
0
    1000
PathStart
    1040
0.5
    1000
ToolCompensation
    1002
{
    1070
0
    1040
0
    1070
0
    1002
}
       0
LWPOLYLINE
       5
203C
     100
AcDbEntity
       8
1
     100
AcDbPolyline
      90
4
      70
1
      10
5335.88488614868
      20
10711.6416203821
      42
0
      10
5335.88488614868
      20
10704.3416203821
      42
0
      10
5328.58488614868
      20
10704.3416203821
      42
0
      10
5328.58488614868
      20
10711.6416203821
      42
0
    1001
FS_CYPCUT
    1000
Channel
    1070
1
    1000
LeadIn
    1002
{
    1070
3
    1040
0.5
    1040
1.5707963267949
    1040
2
    1040
1
    1070
0
    1040
0.5
    1070
0
    1002
}
    1000
LeadOut
    1002
{
    1070
0
    1040
0
    1040
0
    1040
0
    1070
0
    1002
}
    1000
IsFill
    1070
0
    1000
PathStart
    1040
0.5
    1000
ToolCompensation
    1002
{
    1070
0
    1040
0
    1070
0
    1002
}
       0
LWPOLYLINE
       5
203D
     100
AcDbEntity
       8
1
     100
AcDbPolyline
      90
4
      70
1
      10
5713.88488614868
      20
10571.6416203821
      42
0
      10
5713.88488614868
      20
10564.3416203821
      42
0
      10
5706.58488614868
      20
10564.3416203821
      42
0
      10
5706.58488614868
      20
10571.6416203821
      42
0
    1001
FS_CYPCUT
    1000
Channel
    1070
1
    1000
LeadIn
    1002
{
    1070
3
    1040
0.5
    1040
1.5707963267949
    1040
2
    1040
1
    1070
0
    1040
0.5
    1070
0
    1002
}
    1000
LeadOut
    1002
{
    1070
0
    1040
0
    1040
0
    1040
0
    1070
0
    1002
}
    1000
IsFill
    1070
0
    1000
PathStart
    1040
0.5
    1000
ToolCompensation
    1002
{
    1070
0
    1040
0
    1070
0
    1002
}
       0
LWPOLYLINE
       5
203E
     100
AcDbEntity
       8
1
     100
AcDbPolyline
      90
4
      70
1
      10
5713.88488614868
      20
10711.6416203821
      42
0
      10
5713.88488614868
      20
10704.3416203821
      42
0
      10
5706.58488614868
      20
10704.3416203821
      42
0
      10
5706.58488614868
      20
10711.6416203821
      42
0
    1001
FS_CYPCUT
    1000
Channel
    1070
1
    1000
LeadIn
    1002
{
    1070
3
    1040
3.5
    1040
1.5707963267949
    1040
2
    1040
1
    1070
0
    1040
0.5
    1070
0
    1002
}
    1000
LeadOut
    1002
{
    1070
0
    1040
0
    1040
0
    1040
0
    1070
0
    1002
}
    1000
IsFill
    1070
0
    1000
PathStart
    1040
3.5
    1000
ToolCompensation
    1002
{
    1070
0
    1040
0
    1070
0
    1002
}
       0
LWPOLYLINE
       5
203F
     100
AcDbEntity
       8
1
     100
AcDbPolyline
      90
8
      70
1
      10
5313.73488614868
      20
10717.9916203821
      42
0
      10
5313.73488614871
      20
10557.9915963317
      42
0.41421285795269
      10
5323.73488614868
      20
10547.9916203821
      42
0
      10
5718.73488614868
      20
10547.9916203821
      42
0.414213562373095
      10
5728.73488614868
      20
10557.9916203821
      42
0
      10
5728.73488614868
      20
10717.9916203821
      42
0.414213562373095
      10
5718.73488614868
      20
10727.9916203821
      42
0
      10
5323.73488614868
      20
10727.9916203821
      42
0.414213562373095
    1001
FS_CYPCUT
    1000
Channel
    1070
1
    1000
LeadIn
    1002
{
    1070
0
    1040
0
    1040
0
    1040
0
    1040
0
    1070
0
    1040
0
    1070
0
    1002
}
    1000
LeadOut
    1002
{
    1070
0
    1040
0
    1040
0
    1040
0
    1070
0
    1002
}
    1000
IsFill
    1070
1
    1000
PathStart
    1040
0
    1000
ToolCompensation
    1002
{
    1070
0
    1040
0
    1070
0
    1002
}
       0
CIRCLE
       5
2040
     100
AcDbEntity
       8
1
     100
AcDbCircle
      10
5518.02017163088
      20
10764.0001136082
      30
0
      40
3.25
    1001
FS_CYPCUT
    1000
Channel
    1070
1
    1000
LeadIn
    1002
{
    1070
3
    1040
0
    1040
1.5707963267949
    1040
2
    1040
1
    1070
0
    1040
0.5
    1070
0
    1002
}
    1000
LeadOut
    1002
{
    1070
0
    1040
0
    1040
0
    1040
0
    1070
0
    1002
}
    1000
IsFill
    1070
0
    1000
PathStart
    1040
0
    1000
ToolCompensation
    1002
{
    1070
0
    1040
0
    1070
0
    1002
}
       0
CIRCLE
       5
2041
     100
AcDbEntity
       8
1
     100
AcDbCircle
      10
5518.02017163088
      20
10834.0001136082
      30
0
      40
3.25
    1001
FS_CYPCUT
    1000
Channel
    1070
1
    1000
LeadIn
    1002
{
    1070
3
    1040
0
    1040
1.5707963267949
    1040
2
    1040
1
    1070
0
    1040
0.5
    1070
0
    1002
}
    1000
LeadOut
    1002
{
    1070
0
    1040
0
    1040
0
    1040
0
    1070
0
    1002
}
    1000
IsFill
    1070
0
    1000
PathStart
    1040
0
    1000
ToolCompensation
    1002
{
    1070
0
    1040
0
    1070
0
    1002
}
       0
SPLINE
       5
2042
     100
AcDbEntity
       8
1
     100
AcDbSpline
      70
0
      71
3
      72
36
      73
32
      74
0
      40
0
      40
0
      40
0
      40
0
      40
0.125
      40
0.125
      40
0.125
      40
0.125
      40
0.25
      40
0.25
      40
0.25
      40
0.25
      40
0.375
      40
0.375
      40
0.375
      40
0.375
      40
0.5
      40
0.5
      40
0.5
      40
0.5
      40
0.625
      40
0.625
      40
0.625
      40
0.625
      40
0.75
      40
0.75
      40
0.75
      40
0.75
      40
0.875
      40
0.875
      40
0.875
      40
0.875
      40
1
      40
1
      40
1
      40
1
      10
5677.07460674655
      20
10806.2908215583
      30
0
      10
5679.86519419456
      20
10812.4033198726
      30
0
      10
5678.09876003494
      20
10817.743453237
      30
0
      10
5672.09160969931
      20
10821.3549939994
      30
0
      10
5672.09160969931
      20
10821.3549939994
      30
0
      10
5666.08445936368
      20
10824.9665347619
      30
0
      10
5656.21790840607
      20
10826.6202333465
      30
0
      10
5644.25870462306
      20
10826.0199712472
      30
0
      10
5644.25870462306
      20
10826.0199712472
      30
0
      10
5632.29950084006
      20
10825.4197091479
      30
0
      10
5619.00677795754
      20
10822.6035891691
      30
0
      10
5606.76078911202
      20
10818.0758780793
      30
0
      10
5606.76078911202
      20
10818.0758780793
      30
0
      10
5594.5148002665
      20
10813.5481669895
      30
0
      10
5584.09288342362
      20
10807.5962700585
      30
0
      10
5577.36123262555
      20
10801.2859600015
      30
0
      10
5577.36123262555
      20
10801.2859600015
      30
0
      10
5583.3591995132
      20
10810.2245635983
      30
0
      10
5594.23681334546
      20
10819.0171333769
      30
0
      10
5607.62628053028
      20
10825.749739435
      30
0
      10
5607.62628053028
      20
10825.749739435
      30
0
      10
5621.0157477151
      20
10832.482345493
      30
0
      10
5635.86953993858
      20
10836.6282607117
      30
0
      10
5648.95434568712
      20
10837.2850195652
      30
0
      10
5648.95434568712
      20
10837.2850195652
      30
0
      10
5662.03915143565
      20
10837.9417784186
      30
0
      10
5672.33127765901
      20
10835.0579992136
      30
0
      10
5677.59037726488
      20
10829.261410975
      30
0
      10
5677.59037726488
      20
10829.261410975
      30
0
      10
5682.84947687076
      20
10823.4648227363
      30
0
      10
5682.66410288619
      20
10815.2089229945
      30
0
      10
5677.07460674666
      20
10806.2908215576
      30
0
    1001
FS_CYPCUT
    1000
Channel
    1070
1
    1000
LeadIn
    1002
{
    1070
3
    1040
5.5
    1040
1.5707963267949
    1040
2
    1040
1
    1070
0
    1040
0.5
    1070
0
    1002
}
    1000
LeadOut
    1002
{
    1070
0
    1040
0
    1040
0
    1040
0
    1070
0
    1002
}
    1000
IsFill
    1070
0
    1000
PathStart
    1040
5.5
    1000
ToolCompensation
    1002
{
    1070
0
    1040
0
    1070
0
    1002
}
       0
CIRCLE
       5
2043
     100
AcDbEntity
       8
1
     100
AcDbCircle
      10
5778.02017163088
      20
10764.0001136082
      30
0
      40
3.25
    1001
FS_CYPCUT
    1000
Channel
    1070
1
    1000
LeadIn
    1002
{
    1070
3
    1040
2.4980018054066E-16
    1040
1.5707963267949
    1040
2
    1040
1
    1070
0
    1040
0.5
    1070
0
    1002
}
    1000
LeadOut
    1002
{
    1070
0
    1040
0
    1040
0
    1040
0
    1070
0
    1002
}
    1000
IsFill
    1070
0
    1000
PathStart
    1040
2.4980018054066E-16
    1000
ToolCompensation
    1002
{
    1070
0
    1040
0
    1070
0
    1002
}
       0
CIRCLE
       5
2044
     100
AcDbEntity
       8
1
     100
AcDbCircle
      10
5778.02017163088
      20
10834.0001136082
      30
0
      40
3.25
    1001
FS_CYPCUT
    1000
Channel
    1070
1
    1000
LeadIn
    1002
{
    1070
3
    1040
3.60822483003176E-16
    1040
1.5707963267949
    1040
2
    1040
1
    1070
0
    1040
0.5
    1070
0
    1002
}
    1000
LeadOut
    1002
{
    1070
0
    1040
0
    1040
0
    1040
0
    1070
0
    1002
}
    1000
IsFill
    1070
0
    1000
PathStart
    1040
3.60822483003176E-16
    1000
ToolCompensation
    1002
{
    1070
0
    1040
0
    1070
0
    1002
}
       0
LWPOLYLINE
       5
2045
     100
AcDbEntity
       8
1
     100
AcDbPolyline
      90
8
      70
0
      10
5785.52017163088
      20
10839.0001136082
      42
0.414213562373097
      10
5780.52017163088
      20
10844.0001136082
      42
0
      10
5515.52017163088
      20
10844.0001136082
      42
0.414213562373097
      10
5510.52017163088
      20
10839.0001136082
      42
0
      10
5510.52017163088
      20
10759.0001136082
      42
0.414213562373099
      10
5515.52017163088
      20
10754.0001136082
      42
0
      10
5780.52017163088
      20
10754.0001136082
      42
0.414213562373097
      10
5785.52017163088
      20
10759.0001136082
      42
0
    1001
FS_CYPCUT
    1000
Channel
    1070
1
    1000
LeadIn
    1002
{
    1070
0
    1040
0.0127323954473516
    1040
1.5707963267949
    1040
2
    1040
1
    1070
0
    1040
0.5
    1070
0
    1002
}
    1000
LeadOut
    1002
{
    1070
0
    1040
0
    1040
0
    1040
0
    1070
0
    1002
}
    1000
IsFill
    1070
1
    1000
PathStart
    1040
0
    1000
ToolCompensation
    1002
{
    1070
0
    1040
0
    1070
0
    1002
}
    1000
MicroConnect
    1002
{
    1070
1
    1040
0
    1041
0.1
    1042
0
    1002
}
       0
CIRCLE
       5
2046
     100
AcDbEntity
       8
1
     100
AcDbCircle
      10
5793.02027163088
      20
10764.0001136082
      30
0
      40
3.25
    1001
FS_CYPCUT
    1000
Channel
    1070
1
    1000
LeadIn
    1002
{
    1070
3
    1040
0
    1040
1.5707963267949
    1040
2
    1040
1
    1070
0
    1040
0.5
    1070
0
    1002
}
    1000
LeadOut
    1002
{
    1070
0
    1040
0
    1040
0
    1040
0
    1070
0
    1002
}
    1000
IsFill
    1070
0
    1000
PathStart
    1040
0
    1000
ToolCompensation
    1002
{
    1070
0
    1040
0
    1070
0
    1002
}
       0
CIRCLE
       5
2047
     100
AcDbEntity
       8
1
     100
AcDbCircle
      10
5793.02027163088
      20
10834.0001136082
      30
0
      40
3.25
    1001
FS_CYPCUT
    1000
Channel
    1070
1
    1000
LeadIn
    1002
{
    1070
3
    1040
0
    1040
1.5707963267949
    1040
2
    1040
1
    1070
0
    1040
0.5
    1070
0
    1002
}
    1000
LeadOut
    1002
{
    1070
0
    1040
0
    1040
0
    1040
0
    1070
0
    1002
}
    1000
IsFill
    1070
0
    1000
PathStart
    1040
0
    1000
ToolCompensation
    1002
{
    1070
0
    1040
0
    1070
0
    1002
}
       0
SPLINE
       5
2048
     100
AcDbEntity
       8
1
     100
AcDbSpline
      70
0
      71
3
      72
36
      73
32
      74
0
      40
0
      40
0
      40
0
      40
0
      40
0.125
      40
0.125
      40
0.125
      40
0.125
      40
0.25
      40
0.25
      40
0.25
      40
0.25
      40
0.375
      40
0.375
      40
0.375
      40
0.375
      40
0.5
      40
0.5
      40
0.5
      40
0.5
      40
0.625
      40
0.625
      40
0.625
      40
0.625
      40
0.75
      40
0.75
      40
0.75
      40
0.75
      40
0.875
      40
0.875
      40
0.875
      40
0.875
      40
1
      40
1
      40
1
      40
1
      10
5952.07470674655
      20
10806.2908215583
      30
0
      10
5954.86529419456
      20
10812.4033198726
      30
0
      10
5953.09886003494
      20
10817.743453237
      30
0
      10
5947.09170969931
      20
10821.3549939994
      30
0
      10
5947.09170969931
      20
10821.3549939994
      30
0
      10
5941.08455936368
      20
10824.9665347619
      30
0
      10
5931.21800840607
      20
10826.6202333465
      30
0
      10
5919.25880462306
      20
10826.0199712472
      30
0
      10
5919.25880462306
      20
10826.0199712472
      30
0
      10
5907.29960084006
      20
10825.4197091479
      30
0
      10
5894.00687795754
      20
10822.6035891691
      30
0
      10
5881.76088911202
      20
10818.0758780793
      30
0
      10
5881.76088911202
      20
10818.0758780793
      30
0
      10
5869.5149002665
      20
10813.5481669895
      30
0
      10
5859.09298342362
      20
10807.5962700585
      30
0
      10
5852.36133262555
      20
10801.2859600015
      30
0
      10
5852.36133262555
      20
10801.2859600015
      30
0
      10
5858.35929951319
      20
10810.2245635983
      30
0
      10
5869.23691334546
      20
10819.0171333769
      30
0
      10
5882.62638053028
      20
10825.749739435
      30
0
      10
5882.62638053028
      20
10825.749739435
      30
0
      10
5896.0158477151
      20
10832.482345493
      30
0
      10
5910.86963993858
      20
10836.6282607117
      30
0
      10
5923.95444568712
      20
10837.2850195652
      30
0
      10
5923.95444568712
      20
10837.2850195652
      30
0
      10
5937.03925143565
      20
10837.9417784186
      30
0
      10
5947.33137765901
      20
10835.0579992136
      30
0
      10
5952.59047726488
      20
10829.261410975
      30
0
      10
5952.59047726488
      20
10829.261410975
      30
0
      10
5957.84957687076
      20
10823.4648227363
      30
0
      10
5957.66420288619
      20
10815.2089229945
      30
0
      10
5952.07470674666
      20
10806.2908215576
      30
0
    1001
FS_CYPCUT
    1000
Channel
    1070
1
    1000
LeadIn
    1002
{
    1070
3
    1040
5.5
    1040
1.5707963267949
    1040
2
    1040
1
    1070
0
    1040
0.5
    1070
0
    1002
}
    1000
LeadOut
    1002
{
    1070
0
    1040
0
    1040
0
    1040
0
    1070
0
    1002
}
    1000
IsFill
    1070
0
    1000
PathStart
    1040
5.5
    1000
ToolCompensation
    1002
{
    1070
0
    1040
0
    1070
0
    1002
}
       0
CIRCLE
       5
2049
     100
AcDbEntity
       8
1
     100
AcDbCircle
      10
6053.02027163088
      20
10764.0001136082
      30
0
      40
3.25
    1001
FS_CYPCUT
    1000
Channel
    1070
1
    1000
LeadIn
    1002
{
    1070
3
    1040
2.4980018054066E-16
    1040
1.5707963267949
    1040
2
    1040
1
    1070
0
    1040
0.5
    1070
0
    1002
}
    1000
LeadOut
    1002
{
    1070
0
    1040
0
    1040
0
    1040
0
    1070
0
    1002
}
    1000
IsFill
    1070
0
    1000
PathStart
    1040
2.4980018054066E-16
    1000
ToolCompensation
    1002
{
    1070
0
    1040
0
    1070
0
    1002
}
       0
CIRCLE
       5
204A
     100
AcDbEntity
       8
1
     100
AcDbCircle
      10
6053.02027163088
      20
10834.0001136082
      30
0
      40
3.25
    1001
FS_CYPCUT
    1000
Channel
    1070
1
    1000
LeadIn
    1002
{
    1070
3
    1040
3.60822483003176E-16
    1040
1.5707963267949
    1040
2
    1040
1
    1070
0
    1040
0.5
    1070
0
    1002
}
    1000
LeadOut
    1002
{
    1070
0
    1040
0
    1040
0
    1040
0
    1070
0
    1002
}
    1000
IsFill
    1070
0
    1000
PathStart
    1040
3.60822483003176E-16
    1000
ToolCompensation
    1002
{
    1070
0
    1040
0
    1070
0
    1002
}
       0
LWPOLYLINE
       5
204B
     100
AcDbEntity
       8
1
     100
AcDbPolyline
      90
8
      70
1
      10
5785.52027163088
      20
10839.0001136082
      42
0
      10
5785.52027163091
      20
10759.0000963316
      42
0.414212550334642
      10
5790.52027163088
      20
10754.0001136082
      42
0
      10
6055.52027163088
      20
10754.0001136082
      42
0.414213562373097
      10
6060.52027163088
      20
10759.0001136082
      42
0
      10
6060.52027163088
      20
10839.0001136082
      42
0.414213562373097
      10
6055.52027163088
      20
10844.0001136082
      42
0
      10
5790.52027163088
      20
10844.0001136082
      42
0.414213562373097
    1001
FS_CYPCUT
    1000
Channel
    1070
1
    1000
LeadIn
    1002
{
    1070
0
    1040
0
    1040
0
    1040
0
    1040
0
    1070
0
    1040
0
    1070
0
    1002
}
    1000
LeadOut
    1002
{
    1070
0
    1040
0
    1040
0
    1040
0
    1070
0
    1002
}
    1000
IsFill
    1070
1
    1000
PathStart
    1040
0
    1000
ToolCompensation
    1002
{
    1070
0
    1040
0
    1070
0
    1002
}
       0
INSERT
       5
204C
     100
AcDbEntity
       8
1
     100
AcDbBlockReference
       2
Part519503028
      10
6016.73409572208
      20
10751.0015963317
      30
0
      41
1
      42
1
      50
180
    1001
FS_CYPCUT
    1000
Channel
    1070
1
    1000
LeadIn
    1002
{
    1070
0
    1040
0
    1040
0
    1040
0
    1040
0
    1070
0
    1040
0
    1070
0
    1002
}
    1000
LeadOut
    1002
{
    1070
0
    1040
0
    1040
0
    1040
0
    1070
0
    1002
}
       0
INSERT
       5
204D
     100
AcDbEntity
       8
1
     100
AcDbBlockReference
       2
Part1574064265
      10
5731.73409572208
      20
10547.9915963317
      30
0
      41
1
      42
1
      50
0
    1001
FS_CYPCUT
    1000
Channel
    1070
1
    1000
LeadIn
    1002
{
    1070
0
    1040
0
    1040
0
    1040
0
    1040
0
    1070
0
    1040
0
    1070
0
    1002
}
    1000
LeadOut
    1002
{
    1070
0
    1040
0
    1040
0
    1040
0
    1070
0
    1002
}
       0
INSERT
       5
204E
     100
AcDbEntity
       8
1
     100
AcDbBlockReference
       2
Part392156784
      10
6019.74419572208
      20
10547.9915963317
      30
0
      41
1
      42
1
      50
0
    1001
FS_CYPCUT
    1000
Channel
    1070
1
    1000
LeadIn
    1002
{
    1070
0
    1040
0
    1040
0
    1040
0
    1040
0
    1070
0
    1040
0
    1070
0
    1002
}
    1000
LeadOut
    1002
{
    1070
0
    1040
0
    1040
0
    1040
0
    1070
0
    1002
}
       0
ENDSEC
  0
SECTION
  2
OBJECTS
  0
DICTIONARY
  5
111
330
0
100
AcDbDictionary
281
     1
  3
ACAD_COLOR
350
120
  3
ACAD_GROUP
350
112
  3
ACAD_LAYOUT
350
11E
  3
ACAD_MATERIAL
350
11F
  3
ACAD_MLINESTYLE
350
11B
  3
ACAD_PLOTSETTINGS
350
11D
  3
ACAD_PLOTSTYLENAME
350
113
  3
ACAD_TABLESTYLE
350
121
  3
AcDbVariableDictionary
350
135
  0
DICTIONARY
  5
120
102
{ACAD_REACTORS
330
111
102
}
330
111
100
AcDbDictionary
281
     1
  0
DICTIONARY
  5
112
102
{ACAD_REACTORS
330
111
102
}
330
111
100
AcDbDictionary
281
     1
  0
DICTIONARY
  5
11E
102
{ACAD_REACTORS
330
111
102
}
330
111
100
AcDbDictionary
281
     1
  3
Model
350
12A
  3
布局1
350
126
  0
DICTIONARY
  5
11F
102
{ACAD_REACTORS
330
111
102
}
330
111
100
AcDbDictionary
281
     1
  0
DICTIONARY
  5
11B
102
{ACAD_REACTORS
330
111
102
}
330
111
100
AcDbDictionary
281
     1
  3
Standard
350
11C
  0
DICTIONARY
  5
11D
102
{ACAD_REACTORS
330
111
102
}
330
111
100
AcDbDictionary
281
     1
  0
ACDBDICTIONARYWDFLT
  5
113
102
{ACAD_REACTORS
330
111
102
}
330
111
100
AcDbDictionary
281
     1
  3
Normal
350
114
100
AcDbDictionaryWithDefault
340
114
  0
DICTIONARY
  5
121
102
{ACAD_REACTORS
330
111
102
}
330
111
100
AcDbDictionary
281
     1
  3
Standard
350
122
  0
DICTIONARY
  5
135
102
{ACAD_REACTORS
330
111
102
}
330
111
100
AcDbDictionary
281
     1
  3
CTABLESTYLE
350
136
  0
LAYOUT
  5
12A
102
{ACAD_REACTORS
330
11E
102
}
330
11E
100
AcDbPlotSettings
  1

  2
发送至 OneNote 2010
  4

  6

 40
0.0
 41
0.0
 42
0.0
 43
0.0
 44
0.0
 45
0.0
 46
0.0
 47
0.0
 48
0.0
 49
0.0
140
0.0
141
0.0
142
1.0
143
1.0
 70
  1712
 72
     0
 73
     0
 74
     0
  7

 75
     0
147
1.0
 76
     0
 77
     2
 78
   300
148
0.0
149
0.0
100
AcDbLayout
  1
Model
 70
     1
 71
     0
 10
0.0
 20
0.0
 11
12.0
 21
9.0
 12
0.0
 22
0.0
 32
0.0
 14
0.0
 24
0.0
 34
0.0
 15
0.0
 25
0.0
 35
0.0
146
0.0
 13
0.0
 23
0.0
 33
0.0
 16
1.0
 26
0.0
 36
0.0
 17
0.0
 27
1.0
 37
0.0
 76
     0
330
127
  0
LAYOUT
  5
126
102
{ACAD_REACTORS
330
11E
102
}
330
11E
100
AcDbPlotSettings
  1

  2
发送至 OneNote 2010
  4

  6

 40
0.0
 41
0.0
 42
0.0
 43
0.0
 44
0.0
 45
0.0
 46
0.0
 47
0.0
 48
0.0
 49
0.0
140
0.0
141
0.0
142
1.0
143
1.0
 70
   688
 72
     0
 73
     0
 74
     5
  7

 75
    16
147
1.0
 76
     0
 77
     2
 78
   300
148
0.0
149
0.0
100
AcDbLayout
  1
布局1
 70
     1
 71
     1
 10
0.0
 20
0.0
 11
12.0
 21
9.0
 12
0.0
 22
0.0
 32
0.0
 14
0.0
 24
0.0
 34
0.0
 15
0.0
 25
0.0
 35
0.0
146
0.0
 13
0.0
 23
0.0
 33
0.0
 16
1.0
 26
0.0
 36
0.0
 17
0.0
 27
1.0
 37
0.0
 76
     0
330
123
  0
MLINESTYLE
  5
11C
102
{ACAD_REACTORS
330
11B
102
}
330
11B
100
AcDbMlineStyle
  2
STANDARD
 70
     0
  3

 62
   256
 51
90.0
 52
90.0
 71
     2
 49
0.5
 62
   256
  6
BYLAYER
 49
-0.5
 62
   256
  6
BYLAYER
  0
ACDBPLACEHOLDER
  5
114
102
{ACAD_REACTORS
330
113
102
}
330
113
  0
TABLESTYLE
  5
122
102
{ACAD_REACTORS
330
121
102
}
330
121
100
AcDbTableStyle
  3
Standard
 70
     0
 71
     0
 40
0.06
 41
0.06
280
     0
281
     0
  7
STANDARD
140
0.18
170
     2
 62
     0
 63
     7
283
     0
274
    -2
284
     1
 64
     0
275
    -2
285
     1
 65
     0
276
    -2
286
     1
 66
     0
277
    -2
287
     1
 67
     0
278
    -2
288
     1
 68
     0
279
    -2
289
     1
 69
     0
  7
STANDARD
140
0.25
170
     5
 62
     0
 63
     7
283
     0
274
    -2
284
     1
 64
     0
275
    -2
285
     1
 65
     0
276
    -2
286
     1
 66
     0
277
    -2
287
     1
 67
     0
278
    -2
288
     1
 68
     0
279
    -2
289
     1
 69
     0
  7
STANDARD
140
0.18
170
     5
 62
     0
 63
     7
283
     0
274
    -2
284
     1
 64
     0
275
    -2
285
     1
 65
     0
276
    -2
286
     1
 66
     0
277
    -2
287
     1
 67
     0
278
    -2
288
     1
 68
     0
279
    -2
289
     1
 69
     0
  0
DICTIONARYVAR
  5
136
102
{ACAD_REACTORS
330
135
102
}
330
135
100
DictionaryVariables
280
     0
  1
STANDARD
  0
ENDSEC
  0
EOF
