  0
SECTION
  2
HEADER
  9
$ACADVER
  1
AC1018
  9
$ACADMAINTVER
 70
    77
  9
$DWGCODEPAGE
  3
ANSI_936
  9
$INSBASE
 10
0.0
 20
0.0
 30
0.0
  9
$EXTMIN
 10
1223.3791473885
 20
2671.24641144242
 30
0.0
  9
$EXTMAX
 10
2419.37914746513
 20
3027.78121144242
 30
0.0
  9
$LIMMIN
 10
0.0
 20
0.0
  9
$LIMMAX
 10
420.0
 20
297.0
  9
$ORTHOMODE
 70
     0
  9
$REGENMODE
 70
     1
  9
$FILLMODE
 70
     1
  9
$QTEXTMODE
 70
     0
  9
$MIRRTEXT
 70
     0
  9
$LTSCALE
 40
1.0
  9
$ATTMODE
 70
     1
  9
$TEXTSIZE
 40
2.5
  9
$TRACEWID
 40
1.0
  9
$TEXTSTYLE
  7
STANDARD
  9
$CLAYER
  8
0
  9
$CELTYPE
  6
ByLayer
  9
$CECOLOR
 62
   256
  9
$CELTSCALE
 40
1.0
  9
$DISPSILH
 70
     0
  9
$DIMSCALE
 40
1.0
  9
$DIMASZ
 40
2.5
  9
$DIMEXO
 40
0.625
  9
$DIMDLI
 40
3.75
  9
$DIMRND
 40
0.0
  9
$DIMDLE
 40
0.0
  9
$DIMEXE
 40
1.25
  9
$DIMTP
 40
0.0
  9
$DIMTM
 40
0.0
  9
$DIMTXT
 40
2.5
  9
$DIMCEN
 40
2.5
  9
$DIMTSZ
 40
0.0
  9
$DIMTOL
 70
     0
  9
$DIMLIM
 70
     0
  9
$DIMTIH
 70
     0
  9
$DIMTOH
 70
     0
  9
$DIMSE1
 70
     0
  9
$DIMSE2
 70
     0
  9
$DIMTAD
 70
     1
  9
$DIMZIN
 70
     8
  9
$DIMBLK
  1

  9
$DIMASO
 70
     1
  9
$DIMSHO
 70
     1
  9
$DIMPOST
  1

  9
$DIMAPOST
  1

  9
$DIMALT
 70
     0
  9
$DIMALTD
 70
     3
  9
$DIMALTF
 40
0.03937007874016
  9
$DIMLFAC
 40
1.0
  9
$DIMTOFL
 70
     1
  9
$DIMTVP
 40
0.0
  9
$DIMTIX
 70
     0
  9
$DIMSOXD
 70
     0
  9
$DIMSAH
 70
     0
  9
$DIMBLK1
  1

  9
$DIMBLK2
  1

  9
$DIMSTYLE
  2
ISO-25
  9
$DIMCLRD
 70
     0
  9
$DIMCLRE
 70
     0
  9
$DIMCLRT
 70
     0
  9
$DIMTFAC
 40
1.0
  9
$DIMGAP
 40
0.625
  9
$DIMJUST
 70
     0
  9
$DIMSD1
 70
     0
  9
$DIMSD2
 70
     0
  9
$DIMTOLJ
 70
     1
  9
$DIMTZIN
 70
     0
  9
$DIMALTZ
 70
     0
  9
$DIMALTTZ
 70
     0
  9
$DIMUPT
 70
     0
  9
$DIMDEC
 70
     4
  9
$DIMTDEC
 70
     4
  9
$DIMALTU
 70
     2
  9
$DIMALTTD
 70
     2
  9
$DIMTXSTY
  7
STANDARD
  9
$DIMAUNIT
 70
     0
  9
$DIMADEC
 70
     0
  9
$DIMALTRND
 40
0.0
  9
$DIMAZIN
 70
     0
  9
$DIMDSEP
 70
    46
  9
$DIMATFIT
 70
     3
  9
$DIMFRAC
 70
     0
  9
$DIMLDRBLK
  1

  9
$DIMLUNIT
 70
     2
  9
$DIMLWD
 70
    -2
  9
$DIMLWE
 70
    -2
  9
$DIMTMOVE
 70
     0
  9
$LUNITS
 70
     2
  9
$LUPREC
 70
     4
  9
$SKETCHINC
 40
1.0
  9
$FILLETRAD
 40
0.0
  9
$AUNITS
 70
     0
  9
$AUPREC
 70
     0
  9
$MENU
  1
.
  9
$ELEVATION
 40
0.0
  9
$PELEVATION
 40
0.0
  9
$THICKNESS
 40
0.0
  9
$LIMCHECK
 70
     0
  9
$CHAMFERA
 40
0.0
  9
$CHAMFERB
 40
0.0
  9
$CHAMFERC
 40
0.0
  9
$CHAMFERD
 40
0.0
  9
$SKPOLY
 70
     0
  9
$TDCREATE
 40
2456997.676706910
  9
$TDUCREATE
 40
2456997.343373576
  9
$TDUPDATE
 40
2456997.680113438
  9
$TDUUPDATE
 40
2456997.346780104
  9
$TDINDWG
 40
0.0010312963
  9
$TDUSRTIMER
 40
0.0010311806
  9
$USRTIMER
 70
     1
  9
$ANGBASE
 50
0.0
  9
$ANGDIR
 70
     0
  9
$PDMODE
 70
     0
  9
$PDSIZE
 40
0.0
  9
$PLINEWID
 40
0.0
  9
$SPLFRAME
 70
     0
  9
$SPLINETYPE
 70
     6
  9
$SPLINESEGS
 70
     8
  9
$HANDSEED
  5
24E6
  9
$SURFTAB1
 70
     6
  9
$SURFTAB2
 70
     6
  9
$SURFTYPE
 70
     6
  9
$SURFU
 70
     6
  9
$SURFV
 70
     6
  9
$UCSBASE
  2

  9
$UCSNAME
  2

  9
$UCSORG
 10
0.0
 20
0.0
 30
0.0
  9
$UCSXDIR
 10
1.0
 20
0.0
 30
0.0
  9
$UCSYDIR
 10
0.0
 20
1.0
 30
0.0
  9
$UCSORTHOREF
  2

  9
$UCSORTHOVIEW
 70
     0
  9
$UCSORGTOP
 10
0.0
 20
0.0
 30
0.0
  9
$UCSORGBOTTOM
 10
0.0
 20
0.0
 30
0.0
  9
$UCSORGLEFT
 10
0.0
 20
0.0
 30
0.0
  9
$UCSORGRIGHT
 10
0.0
 20
0.0
 30
0.0
  9
$UCSORGFRONT
 10
0.0
 20
0.0
 30
0.0
  9
$UCSORGBACK
 10
0.0
 20
0.0
 30
0.0
  9
$PUCSBASE
  2

  9
$PUCSNAME
  2

  9
$PUCSORG
 10
0.0
 20
0.0
 30
0.0
  9
$PUCSXDIR
 10
1.0
 20
0.0
 30
0.0
  9
$PUCSYDIR
 10
0.0
 20
1.0
 30
0.0
  9
$PUCSORTHOREF
  2

  9
$PUCSORTHOVIEW
 70
     0
  9
$PUCSORGTOP
 10
0.0
 20
0.0
 30
0.0
  9
$PUCSORGBOTTOM
 10
0.0
 20
0.0
 30
0.0
  9
$PUCSORGLEFT
 10
0.0
 20
0.0
 30
0.0
  9
$PUCSORGRIGHT
 10
0.0
 20
0.0
 30
0.0
  9
$PUCSORGFRONT
 10
0.0
 20
0.0
 30
0.0
  9
$PUCSORGBACK
 10
0.0
 20
0.0
 30
0.0
  9
$USERI1
 70
     0
  9
$USERI2
 70
     0
  9
$USERI3
 70
     0
  9
$USERI4
 70
     0
  9
$USERI5
 70
     0
  9
$USERR1
 40
0.0
  9
$USERR2
 40
0.0
  9
$USERR3
 40
0.0
  9
$USERR4
 40
0.0
  9
$USERR5
 40
0.0
  9
$WORLDVIEW
 70
     1
  9
$SHADEDGE
 70
     3
  9
$SHADEDIF
 70
    70
  9
$TILEMODE
 70
     1
  9
$MAXACTVP
 70
    64
  9
$PINSBASE
 10
0.0
 20
0.0
 30
0.0
  9
$PLIMCHECK
 70
     0
  9
$PEXTMIN
 10
0.0
 20
0.0
 30
0.0
  9
$PEXTMAX
 10
0.0
 20
0.0
 30
0.0
  9
$PLIMMIN
 10
0.0
 20
0.0
  9
$PLIMMAX
 10
12.0
 20
9.0
  9
$UNITMODE
 70
     0
  9
$VISRETAIN
 70
     1
  9
$PLINEGEN
 70
     0
  9
$PSLTSCALE
 70
     1
  9
$TREEDEPTH
 70
  3020
  9
$CMLSTYLE
  2
Standard
  9
$CMLJUST
 70
     0
  9
$CMLSCALE
 40
1.0
  9
$PROXYGRAPHICS
 70
     1
  9
$MEASUREMENT
 70
     1
  9
$CELWEIGHT
370
    -1
  9
$ENDCAPS
280
     0
  9
$JOINSTYLE
280
     0
  9
$LWDISPLAY
290
     0
  9
$INSUNITS
 70
     0
  9
$HYPERLINKBASE
  1

  9
$STYLESHEET
  1

  9
$XEDIT
290
     1
  9
$CEPSNTYPE
380
     0
  9
$PSTYLEMODE
290
     1
  9
$FINGERPRINTGUID
  2
{1F2D6530-6BF2-4D5E-922F-A9C54F637010}
  9
$VERSIONGUID
  2
{15AD9CB5-51D1-451C-B472-5DB36EFAD6AD}
  9
$EXTNAMES
290
     1
  9
$PSVPSCALE
 40
0.0
  9
$OLESTARTUP
290
     0
  9
$SORTENTS
280
   127
  9
$INDEXCTL
280
     0
  9
$HIDETEXT
280
     0
  9
$XCLIPFRAME
290
     0
  9
$HALOGAP
280
     0
  9
$OBSCOLOR
 70
   257
  9
$OBSLTYPE
280
     0
  9
$INTERSECTIONDISPLAY
280
     0
  9
$INTERSECTIONCOLOR
 70
   257
  9
$DIMASSOC
280
     1
  9
$PROJECTNAME
  1

  0
ENDSEC
  0
SECTION
  2
CLASSES
  0
CLASS
  1
ACDBDICTIONARYWDFLT
  2
AcDbDictionaryWithDefault
  3
ObjectDBX Classes
 90
        0
 91
        1
280
     0
281
     0
  0
CLASS
  1
TABLESTYLE
  2
AcDbTableStyle
  3
ObjectDBX Classes
 90
     2047
 91
        1
280
     0
281
     0
  0
CLASS
  1
DICTIONARYVAR
  2
AcDbDictionaryVar
  3
ObjectDBX Classes
 90
        0
 91
        1
280
     0
281
     0
  0
ENDSEC
  0
SECTION
  2
TABLES
  0
TABLE
  2
VPORT
  5
10D
330
0
100
AcDbSymbolTable
 70
     2
  0
VPORT
  5
137
330
10D
100
AcDbSymbolTableRecord
100
AcDbViewportTableRecord
  2
*Active
 70
     0
 10
0.0
 20
0.0
 11
1.0
 21
1.0
 12
1821.37914742681
 22
2849.51381144242
 13
0.0
 23
0.0
 14
10.0
 24
10.0
 15
10.0
 25
10.0
 16
0.0
 26
0.0
 36
1.0
 17
0.0
 27
0.0
 37
0.0
 40
551.708552688342
 41
2.435135135135135
 42
50.0
 43
0.0
 44
0.0
 50
0.0
 51
0.0
 71
     0
 72
  1000
 73
     1
 74
     3
 75
     0
 76
     0
 77
     0
 78
     0
281
     0
 65
     1
110
0.0
120
0.0
130
0.0
111
1.0
121
0.0
131
0.0
112
0.0
122
1.0
132
0.0
 79
     0
146
0.0
  0
ENDTAB
  0
TABLE
  2
LTYPE
  5
10A
330
0
100
AcDbSymbolTable
 70
     1
  0
LTYPE
  5
118
330
10A
100
AcDbSymbolTableRecord
100
AcDbLinetypeTableRecord
  2
ByBlock
 70
     0
  3

 72
    65
 73
     0
 40
0.0
  0
LTYPE
  5
119
330
10A
100
AcDbSymbolTableRecord
100
AcDbLinetypeTableRecord
  2
ByLayer
 70
     0
  3

 72
    65
 73
     0
 40
0.0
  0
LTYPE
  5
11A
330
10A
100
AcDbSymbolTableRecord
100
AcDbLinetypeTableRecord
  2
CONTINUOUS
 70
     0
  3
Solid line
 72
    65
 73
     0
 40
0.0
  0
ENDTAB
  0
TABLE
  2
LAYER
  5
107
330
0
100
AcDbSymbolTable
 70
     1
  0
LAYER
  5
115
330
107
100
AcDbSymbolTableRecord
100
AcDbLayerTableRecord
  2
0
 70
     0
 62
     7
  6
CONTINUOUS
370
    -3
390
114
  0
ENDTAB
  0
TABLE
  2
STYLE
  5
108
330
0
100
AcDbSymbolTable
 70
     1
  0
STYLE
  5
116
330
108
100
AcDbSymbolTableRecord
100
AcDbTextStyleTableRecord
  2
STANDARD
 70
     0
 40
0.0
 41
1.0
 50
0.0
 71
     0
 42
2.5
  3
txt
  4
gbcbig.shx
  0
ENDTAB
  0
TABLE
  2
VIEW
  5
10B
330
0
100
AcDbSymbolTable
 70
     0
  0
ENDTAB
  0
TABLE
  2
UCS
  5
10C
330
0
100
AcDbSymbolTable
 70
     0
  0
ENDTAB
  0
TABLE
  2
APPID
  5
10E
330
0
100
AcDbSymbolTable
 70
     2
  0
APPID
  5
117
330
10E
100
AcDbSymbolTableRecord
100
AcDbRegAppTableRecord
  2
ACAD
 70
     0
  0
APPID
  5
12C
330
10E
100
AcDbSymbolTableRecord
100
AcDbRegAppTableRecord
  2
ACAD_PSEXT
 70
     0
  0
APPID
  5
112C
330
10E
100
AcDbSymbolTableRecord
100
AcDbRegAppTableRecord
  2
FS_CYPCUT
 70
     0
  0
ENDTAB
  0
TABLE
  2
DIMSTYLE
  5
10F
330
0
100
AcDbSymbolTable
 70
     1
100
AcDbDimStyleTable
 71
     0
  0
DIMSTYLE
105
12D
330
10F
100
AcDbSymbolTableRecord
100
AcDbDimStyleTableRecord
  2
ISO-25
 70
     0
 41
2.5
 42
0.625
 43
3.75
 44
1.25
 73
     0
 74
     0
 77
     1
 78
     8
140
2.5
141
2.5
143
0.03937007874016
147
0.625
171
     3
172
     1
274
     3
279
     2
284
     8
285
     8
286
     8
340
116
  0
ENDTAB
  0
TABLE
  2
BLOCK_RECORD
  5
106
330
0
100
AcDbSymbolTable
 70
     2
  0
BLOCK_RECORD
  5
127
330
106
100
AcDbSymbolTableRecord
100
AcDbBlockTableRecord
  2
*Model_Space
340
12A
  0
BLOCK_RECORD
  5
123
330
106
100
AcDbSymbolTableRecord
100
AcDbBlockTableRecord
  2
*Paper_Space
340
126
  0
BLOCK_RECORD
  5
130
330
106
100
AcDbSymbolTableRecord
100
AcDbBlockTableRecord
  2
$MODEL_SPACE
340
0
  0
BLOCK_RECORD
  5
132
330
106
100
AcDbSymbolTableRecord
100
AcDbBlockTableRecord
  2
$PAPER_SPACE
340
0
       0
BLOCK_RECORD
       5
2000
     330
106
     100
AcDbSymbolTableRecord
     100
AcDbBlockTableRecord
       2
Part534993938
       0
BLOCK_RECORD
       5
2001
     330
106
     100
AcDbSymbolTableRecord
     100
AcDbBlockTableRecord
       2
Part2025711485
       0
BLOCK_RECORD
       5
2002
     330
106
     100
AcDbSymbolTableRecord
     100
AcDbBlockTableRecord
       2
Part2123354015
       0
BLOCK_RECORD
       5
2003
     330
106
     100
AcDbSymbolTableRecord
     100
AcDbBlockTableRecord
       2
Part295969117
       0
BLOCK_RECORD
       5
2004
     330
106
     100
AcDbSymbolTableRecord
     100
AcDbBlockTableRecord
       2
Part474160460
       0
BLOCK_RECORD
       5
2005
     330
106
     100
AcDbSymbolTableRecord
     100
AcDbBlockTableRecord
       2
Part462043415
       0
BLOCK_RECORD
       5
2006
     330
106
     100
AcDbSymbolTableRecord
     100
AcDbBlockTableRecord
       2
Part1996930936
       0
BLOCK_RECORD
       5
2007
     330
106
     100
AcDbSymbolTableRecord
     100
AcDbBlockTableRecord
       2
Part156562793
       0
BLOCK_RECORD
       5
2008
     330
106
     100
AcDbSymbolTableRecord
     100
AcDbBlockTableRecord
       2
Part551669794
       0
BLOCK_RECORD
       5
2009
     330
106
     100
AcDbSymbolTableRecord
     100
AcDbBlockTableRecord
       2
Part1884609747
       0
BLOCK_RECORD
       5
200A
     330
106
     100
AcDbSymbolTableRecord
     100
AcDbBlockTableRecord
       2
Part1290249168
       0
BLOCK_RECORD
       5
200B
     330
106
     100
AcDbSymbolTableRecord
     100
AcDbBlockTableRecord
       2
Part2049286179
       0
BLOCK_RECORD
       5
200C
     330
106
     100
AcDbSymbolTableRecord
     100
AcDbBlockTableRecord
       2
Part752032943
       0
BLOCK_RECORD
       5
200D
     330
106
     100
AcDbSymbolTableRecord
     100
AcDbBlockTableRecord
       2
Part1853026998
       0
BLOCK_RECORD
       5
200E
     330
106
     100
AcDbSymbolTableRecord
     100
AcDbBlockTableRecord
       2
Part1333679708
       0
BLOCK_RECORD
       5
200F
     330
106
     100
AcDbSymbolTableRecord
     100
AcDbBlockTableRecord
       2
Part476450157
       0
BLOCK_RECORD
       5
2010
     330
106
     100
AcDbSymbolTableRecord
     100
AcDbBlockTableRecord
       2
Part1987865876
       0
BLOCK_RECORD
       5
2011
     330
106
     100
AcDbSymbolTableRecord
     100
AcDbBlockTableRecord
       2
Part319573354
       0
BLOCK_RECORD
       5
2012
     330
106
     100
AcDbSymbolTableRecord
     100
AcDbBlockTableRecord
       2
Part140180262
       0
BLOCK_RECORD
       5
2013
     330
106
     100
AcDbSymbolTableRecord
     100
AcDbBlockTableRecord
       2
Part72699077
       0
BLOCK_RECORD
       5
2014
     330
106
     100
AcDbSymbolTableRecord
     100
AcDbBlockTableRecord
       2
Part1762298473
       0
BLOCK_RECORD
       5
2015
     330
106
     100
AcDbSymbolTableRecord
     100
AcDbBlockTableRecord
       2
Part1993278590
       0
BLOCK_RECORD
       5
2016
     330
106
     100
AcDbSymbolTableRecord
     100
AcDbBlockTableRecord
       2
Part544915904
       0
BLOCK_RECORD
       5
2017
     330
106
     100
AcDbSymbolTableRecord
     100
AcDbBlockTableRecord
       2
Part291343841
       0
BLOCK_RECORD
       5
2018
     330
106
     100
AcDbSymbolTableRecord
     100
AcDbBlockTableRecord
       2
Part870815066
       0
BLOCK_RECORD
       5
2019
     330
106
     100
AcDbSymbolTableRecord
     100
AcDbBlockTableRecord
       2
Part1868617414
       0
BLOCK_RECORD
       5
201A
     330
106
     100
AcDbSymbolTableRecord
     100
AcDbBlockTableRecord
       2
Part594302427
       0
BLOCK_RECORD
       5
201B
     330
106
     100
AcDbSymbolTableRecord
     100
AcDbBlockTableRecord
       2
Part743740027
       0
BLOCK_RECORD
       5
201C
     330
106
     100
AcDbSymbolTableRecord
     100
AcDbBlockTableRecord
       2
Part1474526583
       0
BLOCK_RECORD
       5
201D
     330
106
     100
AcDbSymbolTableRecord
     100
AcDbBlockTableRecord
       2
Part232722405
       0
BLOCK_RECORD
       5
201E
     330
106
     100
AcDbSymbolTableRecord
     100
AcDbBlockTableRecord
       2
Part991762835
  0
ENDTAB
  0
ENDSEC
  0
SECTION
  2
BLOCKS
  0
BLOCK
  5
128
330
127
100
AcDbEntity
  8
0
100
AcDbBlockBegin
  2
*Model_Space
 70
     0
 10
0.0
 20
0.0
 30
0.0
  3
*Model_Space
  1

  0
ENDBLK
  5
129
330
127
100
AcDbEntity
  8
0
100
AcDbBlockEnd
  0
BLOCK
  5
124
330
123
100
AcDbEntity
 67
     1
  8
0
100
AcDbBlockBegin
  2
*Paper_Space
 70
     0
 10
0.0
 20
0.0
 30
0.0
  3
*Paper_Space
  1

  0
ENDBLK
  5
125
330
123
100
AcDbEntity
 67
     1
  8
0
100
AcDbBlockEnd
  0
BLOCK
  5
131
330
130
100
AcDbEntity
  8
0
100
AcDbBlockBegin
  2
$MODEL_SPACE
 70
     0
 10
0.0
 20
0.0
 30
0.0
  3
$MODEL_SPACE
  1

  0
ENDBLK
  5
21
330
130
100
AcDbEntity
  8
0
100
AcDbBlockEnd
  0
BLOCK
  5
133
330
132
100
AcDbEntity
  8
0
100
AcDbBlockBegin
  2
$PAPER_SPACE
 70
     0
 10
0.0
 20
0.0
 30
0.0
  3
$PAPER_SPACE
  1

  0
ENDBLK
  5
D5
330
132
100
AcDbEntity
  8
0
100
AcDbBlockEnd
       0
BLOCK
       5
201F
     330
2000
     100
AcDbEntity
       8
0
     100
AcDbBlockBegin
       2
Part534993938
      70
0
      10
0
      20
-2.9
      30
0
       3
Part534993938
       1

       4
CypCutBlock
       0
LWPOLYLINE
       5
2020
     100
AcDbEntity
       8
1
     100
AcDbPolyline
      90
8
      70
1
      10
93.4211731144
      20
18.9528565868
      42
0
      10
23.3021254954035
      20
34.4528565867722
      42
0.0544422224400925
      10
22.8704414078
      20
34.4999999999974
      42
0
      10
17
      20
34.5
      42
0.414213562373097
      10
15
      20
32.5
      42
0
      10
15
      20
17
      42
0.414213562373096
      10
17
      20
15
      42
0
      10
92.9894890268
      20
15
      42
0.896737400529895
    1001
FS_CYPCUT
    1000
Channel
    1070
1
    1000
LeadIn
    1002
{
    1070
3
    1040
6.5
    1040
1.5707963267949
    1040
0.5
    1040
0.3
    1070
0
    1040
0.5
    1070
0
    1002
}
    1000
LeadOut
    1002
{
    1070
0
    1040
0
    1040
0
    1040
0
    1070
0
    1002
}
    1000
IsFill
    1070
0
    1000
PathStart
    1040
6.5
    1000
ToolCompensation
    1002
{
    1070
0
    1040
0
    1070
0
    1002
}
       0
LWPOLYLINE
       5
2021
     100
AcDbEntity
       8
1
     100
AcDbPolyline
      90
13
      70
1
      10
215
      20
1.969118864
      42
0.351837163189236
      10
207.158420438
      20
11.7334017979
      42
0
      10
26.0663391087
      20
51.7642829339
      42
0.0544422224400963
      10
23.9079186706
      20
52.000000000001
      42
0
      10
0
      20
52
      42
0
      10
0
      20
0
      42
0
      10
105
      20
0
      42
0
      10
105
      20
-1.9
      42
0.41421356237311
      10
106
      20
-2.9
      42
0
      10
124
      20
-2.9
      42
0.414213562373104
      10
125
      20
-1.9
      42
0
      10
125
      20
0
      42
0
      10
215
      20
0
      42
0
    1001
FS_CYPCUT
    1000
Channel
    1070
1
    1000
LeadIn
    1002
{
    1070
3
    1040
1.5
    1040
1.5707963267949
    1040
0.5
    1040
0.3
    1070
0
    1040
0.5
    1070
0
    1002
}
    1000
LeadOut
    1002
{
    1070
0
    1040
0
    1040
0
    1040
0
    1070
0
    1002
}
    1000
IsFill
    1070
1
    1000
PathStart
    1040
1.5
    1000
ToolCompensation
    1002
{
    1070
0
    1040
0
    1070
0
    1002
}
    1000
MicroConnect
    1002
{
    1070
2
    1040
3.43083314
    1041
0.6
    1042
0
    1040
8.48519506
    1041
0.6
    1042
0
    1002
}
       0
ENDBLK
       5
2022
     330
2000
     100
AcDbEntity
       8
0
     100
AcDbBlockEnd
       0
BLOCK
       5
2023
     330
2001
     100
AcDbEntity
       8
0
     100
AcDbBlockBegin
       2
Part2025711485
      70
0
      10
-29.1398669
      20
-20
      30
0
       3
Part2025711485
       1

       4
CypCutBlock
       0
LWPOLYLINE
       5
2024
     100
AcDbEntity
       8
1
     100
AcDbPolyline
      90
4
      70
1
      10
-6.0098669272
      20
2.6
      42
0
      10
-23.1398669272
      20
2.6
      42
1
      10
-23.1398669272
      20
-2.6
      42
0
      10
-6.0098669272
      20
-2.6
      42
1
    1001
FS_CYPCUT
    1000
Channel
    1070
1
    1000
LeadIn
    1002
{
    1070
3
    1040
0.5
    1040
1.5707963267949
    1040
0.5
    1040
0.3
    1070
0
    1040
0.5
    1070
0
    1002
}
    1000
LeadOut
    1002
{
    1070
0
    1040
0
    1040
0
    1040
0
    1070
0
    1002
}
    1000
IsFill
    1070
0
    1000
PathStart
    1040
0.5
    1000
ToolCompensation
    1002
{
    1070
0
    1040
0
    1070
0
    1002
}
       0
LINE
       5
2025
     100
AcDbEntity
       8
2
     100
AcDbLine
      10
1.9300665364
      20
20
      30
0
      11
1.9300665364
      21
-20
      31
0
    1001
FS_CYPCUT
    1000
Channel
    1070
2
    1000
LeadIn
    1002
{
    1070
3
    1040
0
    1040
1.5707963267949
    1040
0.5
    1040
0.3
    1070
0
    1040
0.5
    1070
0
    1002
}
    1000
LeadOut
    1002
{
    1070
0
    1040
0
    1040
0
    1040
0
    1070
0
    1002
}
    1000
IsFill
    1070
0
    1000
PathStart
    1040
0
    1000
ToolCompensation
    1002
{
    1070
0
    1040
0
    1070
0
    1002
}
       0
LWPOLYLINE
       5
2026
     100
AcDbEntity
       8
1
     100
AcDbPolyline
      90
4
      70
1
      10
35
      20
3.1
      42
0
      10
15
      20
3.1
      42
1
      10
15
      20
-3.1
      42
0
      10
35
      20
-3.1
      42
1
    1001
FS_CYPCUT
    1000
Channel
    1070
1
    1000
LeadIn
    1002
{
    1070
3
    1040
0.5
    1040
1.5707963267949
    1040
0.5
    1040
0.3
    1070
0
    1040
0.5
    1070
0
    1002
}
    1000
LeadOut
    1002
{
    1070
0
    1040
0
    1040
0
    1040
0
    1070
0
    1002
}
    1000
IsFill
    1070
0
    1000
PathStart
    1040
0.5
    1000
ToolCompensation
    1002
{
    1070
0
    1040
0
    1070
0
    1002
}
       0
LWPOLYLINE
       5
2027
     100
AcDbEntity
       8
1
     100
AcDbPolyline
      90
8
      70
1
      10
45
      20
15
      42
0
      10
45
      20
-15
      42
-0.414213562373096
      10
40
      20
-20
      42
0
      10
-24.1398669272
      20
-20
      42
-0.414213562373095
      10
-29.1398669272
      20
-15
      42
0
      10
-29.1398669272
      20
15
      42
-0.414213562373096
      10
-24.1398669272
      20
20
      42
0
      10
40
      20
20
      42
-0.414213562373096
    1001
FS_CYPCUT
    1000
Channel
    1070
1
    1000
LeadIn
    1002
{
    1070
3
    1040
2.50152388635854
    1040
1.5707963267949
    1040
0.5
    1040
0.3
    1070
0
    1040
0.5
    1070
0
    1002
}
    1000
LeadOut
    1002
{
    1070
0
    1040
0
    1040
0
    1040
0
    1070
0
    1002
}
    1000
IsFill
    1070
1
    1000
PathStart
    1040
2.5
    1000
ToolCompensation
    1002
{
    1070
0
    1040
0
    1070
0
    1002
}
    1000
MicroConnect
    1002
{
    1070
2
    1040
2.49216933
    1041
0.6
    1042
0
    1040
6.50560467
    1041
0.6
    1042
0
    1002
}
       0
ENDBLK
       5
2028
     330
2001
     100
AcDbEntity
       8
0
     100
AcDbBlockEnd
       0
BLOCK
       5
2029
     330
2002
     100
AcDbEntity
       8
0
     100
AcDbBlockBegin
       2
Part2123354015
      70
0
      10
-100
      20
-94.9463107
      30
0
       3
Part2123354015
       1

       4
CypCutBlock
       0
LWPOLYLINE
       5
202A
     100
AcDbEntity
       8
1
     100
AcDbPolyline
      90
4
      70
1
      10
-17.4
      20
-59.9463106734
      42
1
      10
-22.6
      20
-59.9463106734
      42
0
      10
-22.6
      20
-79.9463106734
      42
1
      10
-17.4
      20
-79.9463106734
      42
0
    1001
FS_CYPCUT
    1000
Channel
    1070
1
    1000
LeadIn
    1002
{
    1070
0
    1040
0
    1040
0
    1040
0
    1040
0
    1070
0
    1040
0
    1070
0
    1002
}
    1000
LeadOut
    1002
{
    1070
0
    1040
0
    1040
0
    1040
0
    1070
0
    1002
}
    1000
IsFill
    1070
0
    1000
PathStart
    1040
0
    1000
ToolCompensation
    1002
{
    1070
0
    1040
0
    1070
0
    1002
}
       0
LWPOLYLINE
       5
202B
     100
AcDbEntity
       8
1
     100
AcDbPolyline
      90
4
      70
1
      10
22.6
      20
-59.9463106734
      42
1
      10
17.4
      20
-59.9463106734
      42
0
      10
17.4
      20
-79.9463106734
      42
1.00000000000001
      10
22.6
      20
-79.9463106734
      42
0
    1001
FS_CYPCUT
    1000
Channel
    1070
1
    1000
LeadIn
    1002
{
    1070
0
    1040
0
    1040
0
    1040
0
    1040
0
    1070
0
    1040
0
    1070
0
    1002
}
    1000
LeadOut
    1002
{
    1070
0
    1040
0
    1040
0
    1040
0
    1070
0
    1002
}
    1000
IsFill
    1070
0
    1000
PathStart
    1040
0
    1000
ToolCompensation
    1002
{
    1070
0
    1040
0
    1070
0
    1002
}
       0
LWPOLYLINE
       5
202C
     100
AcDbEntity
       8
1
     100
AcDbPolyline
      90
12
      70
1
      10
10
      20
-19.9463106734
      42
0
      10
10
      20
-73.9463106734
      42
-0.414213562373095
      10
7
      20
-76.9463106734
      42
0
      10
1.05
      20
-76.9463106734
      42
0
      10
1.05
      20
-82.0463106734
      42
0
      10
-1.05
      20
-82.0463106734
      42
0
      10
-1.05
      20
-76.9463106734
      42
0
      10
-7
      20
-76.9463106734
      42
-0.414213562373092
      10
-10
      20
-73.9463106734
      42
0
      10
-10
      20
-19.9463106734
      42
-0.414213562373095
      10
-7
      20
-16.9463106734
      42
0
      10
7
      20
-16.9463106734
      42
-0.414213562373093
    1001
FS_CYPCUT
    1000
Channel
    1070
1
    1000
LeadIn
    1002
{
    1070
0
    1040
0
    1040
0
    1040
0
    1040
0
    1070
0
    1040
0
    1070
0
    1002
}
    1000
LeadOut
    1002
{
    1070
0
    1040
0
    1040
0
    1040
0
    1070
0
    1002
}
    1000
IsFill
    1070
0
    1000
PathStart
    1040
0
    1000
ToolCompensation
    1002
{
    1070
0
    1040
0
    1070
0
    1002
}
       0
LWPOLYLINE
       5
202D
     100
AcDbEntity
       8
1
     100
AcDbPolyline
      90
4
      70
1
      10
22.6
      20
-9.9463106734
      42
0
      10
22.6
      20
-29.9463106734
      42
-1
      10
17.4
      20
-29.9463106734
      42
0
      10
17.4
      20
-9.9463106734
      42
-0.999999999999999
    1001
FS_CYPCUT
    1000
Channel
    1070
1
    1000
LeadIn
    1002
{
    1070
0
    1040
0
    1040
0
    1040
0
    1040
0
    1070
0
    1040
0
    1070
0
    1002
}
    1000
LeadOut
    1002
{
    1070
0
    1040
0
    1040
0
    1040
0
    1070
0
    1002
}
    1000
IsFill
    1070
0
    1000
PathStart
    1040
0
    1000
ToolCompensation
    1002
{
    1070
0
    1040
0
    1070
0
    1002
}
       0
LWPOLYLINE
       5
202E
     100
AcDbEntity
       8
1
     100
AcDbPolyline
      90
4
      70
1
      10
-17.4
      20
-9.9463106734
      42
0
      10
-17.4
      20
-29.9463106734
      42
-1
      10
-22.6
      20
-29.9463106734
      42
0
      10
-22.6
      20
-9.9463106734
      42
-0.999999999999999
    1001
FS_CYPCUT
    1000
Channel
    1070
1
    1000
LeadIn
    1002
{
    1070
0
    1040
0
    1040
0
    1040
0
    1040
0
    1070
0
    1040
0
    1070
0
    1002
}
    1000
LeadOut
    1002
{
    1070
0
    1040
0
    1040
0
    1040
0
    1070
0
    1002
}
    1000
IsFill
    1070
0
    1000
PathStart
    1040
0
    1000
ToolCompensation
    1002
{
    1070
0
    1040
0
    1070
0
    1002
}
       0
LINE
       5
202F
     100
AcDbEntity
       8
2
     100
AcDbLine
      10
-25
      20
0.5268446633
      30
0
      11
25
      21
0.5268446633
      31
0
    1001
FS_CYPCUT
    1000
Channel
    1070
2
    1000
LeadIn
    1002
{
    1070
3
    1040
0
    1040
1.5707963267949
    1040
0.5
    1040
0.3
    1070
0
    1040
0.5
    1070
0
    1002
}
    1000
LeadOut
    1002
{
    1070
0
    1040
0
    1040
0
    1040
0
    1070
0
    1002
}
    1000
IsFill
    1070
0
    1000
PathStart
    1040
0
    1000
ToolCompensation
    1002
{
    1070
0
    1040
0
    1070
0
    1002
}
       0
LWPOLYLINE
       5
2030
     100
AcDbEntity
       8
1
     100
AcDbPolyline
      90
8
      70
1
      10
10
      20
85.0874605552
      42
0.414213562373095
      10
7
      20
88.0874605552
      42
0
      10
-7
      20
88.0874605552
      42
0.414213562373098
      10
-10
      20
85.0874605552
      42
0
      10
-10
      20
26.0874605552
      42
0.414213562373096
      10
-7
      20
23.0874605552
      42
0
      10
7
      20
23.0874605552
      42
0.414213562373095
      10
10
      20
26.0874605552
      42
0
    1001
FS_CYPCUT
    1000
Channel
    1070
1
    1000
LeadIn
    1002
{
    1070
0
    1040
0
    1040
0
    1040
0
    1040
0
    1070
0
    1040
0
    1070
0
    1002
}
    1000
LeadOut
    1002
{
    1070
0
    1040
0
    1040
0
    1040
0
    1070
0
    1002
}
    1000
IsFill
    1070
0
    1000
PathStart
    1040
0
    1000
ToolCompensation
    1002
{
    1070
0
    1040
0
    1070
0
    1002
}
       0
LINE
       5
2031
     100
AcDbEntity
       8
2
     100
AcDbLine
      10
25
      20
110.9144907105
      30
0
      11
-25
      21
110.9144907105
      31
0
    1001
FS_CYPCUT
    1000
Channel
    1070
2
    1000
LeadIn
    1002
{
    1070
3
    1040
0
    1040
1.5707963267949
    1040
0.5
    1040
0.3
    1070
0
    1040
0.5
    1070
0
    1002
}
    1000
LeadOut
    1002
{
    1070
0
    1040
0
    1040
0
    1040
0
    1070
0
    1002
}
    1000
IsFill
    1070
0
    1000
PathStart
    1040
0
    1000
ToolCompensation
    1002
{
    1070
0
    1040
0
    1070
0
    1002
}
       0
LWPOLYLINE
       5
2032
     100
AcDbEntity
       8
1
     100
AcDbPolyline
      90
4
      70
1
      10
-31.4
      20
136.8909846979
      42
0
      10
-46.6
      20
136.8909846979
      42
0
      10
-46.6
      20
135.2909846979
      42
0
      10
-31.4
      20
135.2909846979
      42
0
    1001
FS_CYPCUT
    1000
Channel
    1070
1
    1000
LeadIn
    1002
{
    1070
0
    1040
0
    1040
0
    1040
0
    1040
0
    1070
0
    1040
0
    1070
0
    1002
}
    1000
LeadOut
    1002
{
    1070
0
    1040
0
    1040
0
    1040
0
    1070
0
    1002
}
    1000
IsFill
    1070
0
    1000
PathStart
    1040
0
    1000
ToolCompensation
    1002
{
    1070
0
    1040
0
    1070
0
    1002
}
       0
LWPOLYLINE
       5
2033
     100
AcDbEntity
       8
1
     100
AcDbPolyline
      90
4
      70
1
      10
1.55
      20
143.6909846979
      42
0
      10
1.55
      20
128.4909846979
      42
0
      10
-1.55
      20
128.4909846979
      42
0
      10
-1.55
      20
143.6909846979
      42
0
    1001
FS_CYPCUT
    1000
Channel
    1070
1
    1000
LeadIn
    1002
{
    1070
0
    1040
0
    1040
0
    1040
0
    1040
0
    1070
0
    1040
0
    1070
0
    1002
}
    1000
LeadOut
    1002
{
    1070
0
    1040
0
    1040
0
    1040
0
    1070
0
    1002
}
    1000
IsFill
    1070
0
    1000
PathStart
    1040
0
    1000
ToolCompensation
    1002
{
    1070
0
    1040
0
    1070
0
    1002
}
       0
LWPOLYLINE
       5
2034
     100
AcDbEntity
       8
1
     100
AcDbPolyline
      90
4
      70
1
      10
46.6
      20
136.8909846979
      42
0
      10
46.6
      20
135.2909846979
      42
0
      10
31.4
      20
135.2909846979
      42
0
      10
31.4
      20
136.8909846979
      42
0
    1001
FS_CYPCUT
    1000
Channel
    1070
1
    1000
LeadIn
    1002
{
    1070
0
    1040
0
    1040
0
    1040
0
    1040
0
    1070
0
    1040
0
    1070
0
    1002
}
    1000
LeadOut
    1002
{
    1070
0
    1040
0
    1040
0
    1040
0
    1070
0
    1002
}
    1000
IsFill
    1070
0
    1000
PathStart
    1040
0
    1000
ToolCompensation
    1002
{
    1070
0
    1040
0
    1070
0
    1002
}
       0
LWPOLYLINE
       5
2035
     100
AcDbEntity
       8
1
     100
AcDbPolyline
      90
20
      70
1
      10
100
      20
152.1643048218
      42
0
      10
100
      20
120.017664574
      42
-0.414213562373096
      10
92
      20
112.017664574
      42
0
      10
25
      20
112.017664574
      42
0
      10
25
      20
-0.3099149368
      42
0
      10
26
      20
-0.3099149368
      42
-0.414213562373095
      10
30
      20
-4.3099149368
      42
0
      10
30
      20
-90.9463106734
      42
-0.414213562373096
      10
26
      20
-94.9463106734
      42
0
      10
-26
      20
-94.9463106733999
      42
-0.414213562373097
      10
-30
      20
-90.9463106734
      42
0
      10
-30
      20
-4.3099149368
      42
-0.414213562373095
      10
-26
      20
-0.3099149368
      42
0
      10
-25
      20
-0.3099149368
      42
0
      10
-25
      20
112.017664574
      42
0
      10
-92
      20
112.017664574
      42
-0.414213562373097
      10
-100
      20
120.017664574
      42
0
      10
-100
      20
152.1643048218
      42
-0.414213562373098
      10
-92
      20
160.1643048218
      42
0
      10
92
      20
160.1643048218
      42
-0.414213562373099
    1001
FS_CYPCUT
    1000
Channel
    1070
1
    1000
LeadIn
    1002
{
    1070
0
    1040
0
    1040
0
    1040
0
    1040
0
    1070
0
    1040
0
    1070
0
    1002
}
    1000
LeadOut
    1002
{
    1070
0
    1040
0
    1040
0
    1040
0
    1070
0
    1002
}
    1000
IsFill
    1070
1
    1000
PathStart
    1040
0
    1000
ToolCompensation
    1002
{
    1070
0
    1040
0
    1070
0
    1002
}
    1000
MicroConnect
    1002
{
    1070
3
    1040
0.486657342
    1041
0.6
    1042
0
    1040
8.54387456
    1041
0.6
    1042
0
    1040
16.4746312
    1041
0.6
    1042
0
    1002
}
       0
ENDBLK
       5
2036
     330
2002
     100
AcDbEntity
       8
0
     100
AcDbBlockEnd
       0
BLOCK
       5
2037
     330
2003
     100
AcDbEntity
       8
0
     100
AcDbBlockBegin
       2
Part295969117
      70
0
      10
-60
      20
-2.39808173E-14
      30
0
       3
Part295969117
       1

       4
CypCutBlock
       0
LWPOLYLINE
       5
2038
     100
AcDbEntity
       8
1
     100
AcDbPolyline
      90
4
      70
1
      10
-15
      20
18.1
      42
0
      10
-45
      20
18.1
      42
1
      10
-45
      20
11.9
      42
0
      10
-15
      20
11.9
      42
1
    1001
FS_CYPCUT
    1000
Channel
    1070
1
    1000
LeadIn
    1002
{
    1070
3
    1040
0.5
    1040
1.5707963267949
    1040
0.5
    1040
0.3
    1070
0
    1040
0.5
    1070
0
    1002
}
    1000
LeadOut
    1002
{
    1070
0
    1040
0
    1040
0
    1040
0
    1070
0
    1002
}
    1000
IsFill
    1070
0
    1000
PathStart
    1040
0.5
    1000
ToolCompensation
    1002
{
    1070
0
    1040
0
    1070
0
    1002
}
       0
LWPOLYLINE
       5
2039
     100
AcDbEntity
       8
1
     100
AcDbPolyline
      90
4
      70
1
      10
-7.4
      20
65
      42
1
      10
-12.6
      20
65
      42
0
      10
-12.6
      20
40
      42
1
      10
-7.4
      20
40
      42
0
    1001
FS_CYPCUT
    1000
Channel
    1070
1
    1000
LeadIn
    1002
{
    1070
3
    1040
1.5
    1040
1.5707963267949
    1040
0.5
    1040
0.3
    1070
0
    1040
0.5
    1070
0
    1002
}
    1000
LeadOut
    1002
{
    1070
0
    1040
0
    1040
0
    1040
0
    1070
0
    1002
}
    1000
IsFill
    1070
0
    1000
PathStart
    1040
1.5
    1000
ToolCompensation
    1002
{
    1070
0
    1040
0
    1070
0
    1002
}
       0
LWPOLYLINE
       5
203A
     100
AcDbEntity
       8
1
     100
AcDbPolyline
      90
12
      70
1
      10
8.88178419700125E-16
      20
76
      42
0.414213562373093
      10
-4
      20
80
      42
0
      10
-16
      20
80
      42
0.414213562373096
      10
-20
      20
76
      42
0
      10
-20
      20
34
      42
-0.414213562373097
      10
-24
      20
30
      42
0
      10
-56
      20
30
      42
0.414213562373096
      10
-60
      20
26
      42
0
      10
-60
      20
4
      42
0.414213562373096
      10
-56
      20
-2.1316282072803E-14
      42
0
      10
-4
      20
0
      42
0.414213562373095
      10
8.88178419700125E-15
      20
4
      42
0
    1001
FS_CYPCUT
    1000
Channel
    1070
1
    1000
LeadIn
    1002
{
    1070
3
    1040
11.5049170333333
    1040
1.5707963267949
    1040
0.5
    1040
0.3
    1070
0
    1040
0.5
    1070
0
    1002
}
    1000
LeadOut
    1002
{
    1070
0
    1040
0
    1040
0
    1040
0
    1070
0
    1002
}
    1000
IsFill
    1070
1
    1000
PathStart
    1040
11.5
    1000
ToolCompensation
    1002
{
    1070
0
    1040
0
    1070
0
    1002
}
    1000
MicroConnect
    1002
{
    1070
2
    1040
5.40030832
    1041
0.6
    1042
0
    1040
11.4965837
    1041
0.6
    1042
0
    1002
}
       0
ENDBLK
       5
203B
     330
2003
     100
AcDbEntity
       8
0
     100
AcDbBlockEnd
       0
BLOCK
       5
203C
     330
2004
     100
AcDbEntity
       8
0
     100
AcDbBlockBegin
       2
Part474160460
      70
0
      10
-180
      20
-2.6503244E-12
      30
0
       3
Part474160460
       1

       4
CypCutBlock
       0
LWPOLYLINE
       5
203D
     100
AcDbEntity
       8
1
     100
AcDbPolyline
      90
8
      70
1
      10
-24.9999999999999
      20
39.6475563158
      42
0.226276898255001
      10
-27.2240776537
      20
44.3104320846
      42
0
      10
-91.873961497
      20
96.6628757687
      42
0.171831426830125
      10
-95.6498838433
      20
98
      42
0
      10
-134.8752237754
      20
98
      42
0.762385691884524
      10
-136.4075046171
      20
92.4208304782
      42
0
      10
-29.5322808416622
      20
28.926416305682
      42
0.581514482680806
      10
-25
      20
31.5055858275
      42
0
    1001
FS_CYPCUT
    1000
Channel
    1070
1
    1000
LeadIn
    1002
{
    1070
3
    1040
5.5
    1040
1.5707963267949
    1040
0.5
    1040
0.3
    1070
0
    1040
0.5
    1070
0
    1002
}
    1000
LeadOut
    1002
{
    1070
0
    1040
0
    1040
0
    1040
0
    1070
0
    1002
}
    1000
IsFill
    1070
0
    1000
PathStart
    1040
5.5
    1000
ToolCompensation
    1002
{
    1070
0
    1040
0
    1070
0
    1002
}
       0
LWPOLYLINE
       5
203E
     100
AcDbEntity
       8
1
     100
AcDbPolyline
      90
22
      70
1
      10
2
      20
30.25
      42
0
      10
2
      20
17.25
      42
-0.414213562373091
      10
1
      20
16.25
      42
0
      10
0
      20
16.25
      42
0
      10
0
      20
0
      42
0
      10
-17.2535682315
      20
-2.65032440438517E-12
      42
-0.134825372907676
      10
-22.3611710370419
      20
1.40276826060427
      42
0
      10
-175.107602805541
      20
92.1492000291059
      42
-0.264610613372207
      10
-180.000000000001
      20
100.7464317685
      42
0
      10
-180
      20
118
      42
0
      10
-168
      20
118
      42
0
      10
-168
      20
119
      42
-0.414213562373108
      10
-167
      20
120
      42
0
      10
-164
      20
120
      42
-0.414213562373078
      10
-163
      20
119
      42
0
      10
-163
      20
118
      42
0
      10
-87.4555800749
      20
118
      42
-0.17183142683013
      10
-85.6557237565
      20
117.3626374498
      42
0
      10
-1.0601436816
      20
48.8584874263
      42
-0.226276898255
      10
0
      20
46.6358499765
      42
0
      10
0
      20
31.25
      42
0
      10
1
      20
31.25
      42
-0.414213562373099
    1001
FS_CYPCUT
    1000
Channel
    1070
1
    1000
LeadIn
    1002
{
    1070
3
    1040
6.50158161025857
    1040
1.5707963267949
    1040
0.5
    1040
0.3
    1070
0
    1040
0.5
    1070
0
    1002
}
    1000
LeadOut
    1002
{
    1070
0
    1040
0
    1040
0
    1040
0
    1070
0
    1002
}
    1000
IsFill
    1070
1
    1000
PathStart
    1040
6.5
    1000
ToolCompensation
    1002
{
    1070
0
    1040
0
    1070
0
    1002
}
    1000
MicroConnect
    1002
{
    1070
3
    1040
0.483271947
    1041
0.6
    1042
0
    1040
6.49820455
    1041
0.6
    1042
0
    1040
12.4185486
    1041
0.6
    1042
0
    1002
}
       0
ENDBLK
       5
203F
     330
2004
     100
AcDbEntity
       8
0
     100
AcDbBlockEnd
       0
BLOCK
       5
2040
     330
2005
     100
AcDbEntity
       8
0
     100
AcDbBlockBegin
       2
Part462043415
      70
0
      10
-42
      20
-30
      30
0
       3
Part462043415
       1

       4
CypCutBlock
       0
LWPOLYLINE
       5
2041
     100
AcDbEntity
       8
1
     100
AcDbPolyline
      90
4
      70
1
      10
-11.9
      20
16
      42
0
      10
-11.9
      20
-16
      42
-1
      10
-30.1
      20
-16
      42
0
      10
-30.1
      20
16
      42
-1
    1001
FS_CYPCUT
    1000
Channel
    1070
1
    1000
LeadIn
    1002
{
    1070
3
    1040
0.5
    1040
1.5707963267949
    1040
0.5
    1040
0.3
    1070
0
    1040
0.5
    1070
0
    1002
}
    1000
LeadOut
    1002
{
    1070
0
    1040
0
    1040
0
    1040
0
    1070
0
    1002
}
    1000
IsFill
    1070
0
    1000
PathStart
    1040
0.5
    1000
ToolCompensation
    1002
{
    1070
0
    1040
0
    1070
0
    1002
}
       0
LINE
       5
2042
     100
AcDbEntity
       8
2
     100
AcDbLine
      10
-1.9300665364
      20
30
      30
0
      11
-1.9300665364
      21
-30
      31
0
    1001
FS_CYPCUT
    1000
Channel
    1070
2
    1000
LeadIn
    1002
{
    1070
3
    1040
0
    1040
1.5707963267949
    1040
0.5
    1040
0.3
    1070
0
    1040
0.5
    1070
0
    1002
}
    1000
LeadOut
    1002
{
    1070
0
    1040
0
    1040
0
    1040
0
    1070
0
    1002
}
    1000
IsFill
    1070
0
    1000
PathStart
    1040
0
    1000
ToolCompensation
    1002
{
    1070
0
    1040
0
    1070
0
    1002
}
       0
LWPOLYLINE
       5
2043
     100
AcDbEntity
       8
1
     100
AcDbPolyline
      90
14
      70
1
      10
20.1398669272
      20
6.5
      42
0
      10
20.1398669272
      20
-6.5
      42
-0.414213562373096
      10
19.1398669272
      20
-7.5
      42
0
      10
18.1398669272
      20
-7.5
      42
0
      10
18.1398669272
      20
-29
      42
-0.41421356237309
      10
17.1398669272
      20
-30
      42
0
      10
-34
      20
-30
      42
-0.414213562373095
      10
-42
      20
-22
      42
0
      10
-42
      20
22
      42
-0.414213562373096
      10
-34
      20
30
      42
0
      10
17.1398669272
      20
30
      42
-0.414213562373102
      10
18.1398669272
      20
29
      42
0
      10
18.1398669272
      20
7.5
      42
0
      10
19.1398669272
      20
7.5
      42
-0.414213562373093
    1001
FS_CYPCUT
    1000
Channel
    1070
1
    1000
LeadIn
    1002
{
    1070
3
    1040
5.5
    1040
1.5707963267949
    1040
0.5
    1040
0.3
    1070
0
    1040
0.5
    1070
0
    1002
}
    1000
LeadOut
    1002
{
    1070
0
    1040
0
    1040
0
    1040
0
    1070
0
    1002
}
    1000
IsFill
    1070
1
    1000
PathStart
    1040
5.5
    1000
ToolCompensation
    1002
{
    1070
0
    1040
0
    1070
0
    1002
}
    1000
MicroConnect
    1002
{
    1070
2
    1040
0.496247655
    1041
0.6
    1042
0
    1040
7.50554324
    1041
0.6
    1042
0
    1002
}
       0
ENDBLK
       5
2044
     330
2005
     100
AcDbEntity
       8
0
     100
AcDbBlockEnd
       0
BLOCK
       5
2045
     330
2006
     100
AcDbEntity
       8
0
     100
AcDbBlockBegin
       2
Part1996930936
      70
0
      10
-29.1398669
      20
-20
      30
0
       3
Part1996930936
       1

       4
CypCutBlock
       0
LWPOLYLINE
       5
2046
     100
AcDbEntity
       8
1
     100
AcDbPolyline
      90
4
      70
1
      10
-6.0098669272
      20
2.6
      42
0
      10
-23.1398669272
      20
2.6
      42
1
      10
-23.1398669272
      20
-2.6
      42
0
      10
-6.0098669272
      20
-2.6
      42
1
    1001
FS_CYPCUT
    1000
Channel
    1070
1
    1000
LeadIn
    1002
{
    1070
3
    1040
0.5
    1040
1.5707963267949
    1040
0.5
    1040
0.3
    1070
0
    1040
0.5
    1070
0
    1002
}
    1000
LeadOut
    1002
{
    1070
0
    1040
0
    1040
0
    1040
0
    1070
0
    1002
}
    1000
IsFill
    1070
0
    1000
PathStart
    1040
0.5
    1000
ToolCompensation
    1002
{
    1070
0
    1040
0
    1070
0
    1002
}
       0
LINE
       5
2047
     100
AcDbEntity
       8
2
     100
AcDbLine
      10
1.9300665364
      20
20
      30
0
      11
1.9300665364
      21
-20
      31
0
    1001
FS_CYPCUT
    1000
Channel
    1070
2
    1000
LeadIn
    1002
{
    1070
3
    1040
0
    1040
1.5707963267949
    1040
0.5
    1040
0.3
    1070
0
    1040
0.5
    1070
0
    1002
}
    1000
LeadOut
    1002
{
    1070
0
    1040
0
    1040
0
    1040
0
    1070
0
    1002
}
    1000
IsFill
    1070
0
    1000
PathStart
    1040
0
    1000
ToolCompensation
    1002
{
    1070
0
    1040
0
    1070
0
    1002
}
       0
LWPOLYLINE
       5
2048
     100
AcDbEntity
       8
1
     100
AcDbPolyline
      90
4
      70
1
      10
35
      20
3.1
      42
0
      10
15
      20
3.1
      42
1
      10
15
      20
-3.1
      42
0
      10
35
      20
-3.1
      42
1
    1001
FS_CYPCUT
    1000
Channel
    1070
1
    1000
LeadIn
    1002
{
    1070
3
    1040
0.5
    1040
1.5707963267949
    1040
0.5
    1040
0.3
    1070
0
    1040
0.5
    1070
0
    1002
}
    1000
LeadOut
    1002
{
    1070
0
    1040
0
    1040
0
    1040
0
    1070
0
    1002
}
    1000
IsFill
    1070
0
    1000
PathStart
    1040
0.5
    1000
ToolCompensation
    1002
{
    1070
0
    1040
0
    1070
0
    1002
}
       0
LWPOLYLINE
       5
2049
     100
AcDbEntity
       8
1
     100
AcDbPolyline
      90
8
      70
1
      10
45
      20
15
      42
0
      10
45
      20
-15
      42
-0.414213562373096
      10
40
      20
-20
      42
0
      10
-24.1398669272
      20
-20
      42
-0.414213562373095
      10
-29.1398669272
      20
-15
      42
0
      10
-29.1398669272
      20
15
      42
-0.414213562373096
      10
-24.1398669272
      20
20
      42
0
      10
40
      20
20
      42
-0.414213562373096
    1001
FS_CYPCUT
    1000
Channel
    1070
1
    1000
LeadIn
    1002
{
    1070
3
    1040
2.50152388635854
    1040
1.5707963267949
    1040
0.5
    1040
0.3
    1070
0
    1040
0.5
    1070
0
    1002
}
    1000
LeadOut
    1002
{
    1070
0
    1040
0
    1040
0
    1040
0
    1070
0
    1002
}
    1000
IsFill
    1070
1
    1000
PathStart
    1040
2.5
    1000
ToolCompensation
    1002
{
    1070
0
    1040
0
    1070
0
    1002
}
    1000
MicroConnect
    1002
{
    1070
2
    1040
2.49216933
    1041
0.6
    1042
0
    1040
6.50560467
    1041
0.6
    1042
0
    1002
}
       0
ENDBLK
       5
204A
     330
2006
     100
AcDbEntity
       8
0
     100
AcDbBlockEnd
       0
BLOCK
       5
204B
     330
2007
     100
AcDbEntity
       8
0
     100
AcDbBlockBegin
       2
Part156562793
      70
0
      10
-9.32587341E-15
      20
-57.5
      30
0
       3
Part156562793
       1

       4
CypCutBlock
       0
LWPOLYLINE
       5
204C
     100
AcDbEntity
       8
1
     100
AcDbPolyline
      90
4
      70
1
      10
14
      20
-41.4
      42
0
      10
6
      20
-41.4
      42
1
      10
6
      20
-46.6
      42
0
      10
14
      20
-46.6
      42
1
    1001
FS_CYPCUT
    1000
Channel
    1070
1
    1000
LeadIn
    1002
{
    1070
3
    1040
0.5
    1040
1.5707963267949
    1040
0.5
    1040
0.3
    1070
0
    1040
0.5
    1070
0
    1002
}
    1000
LeadOut
    1002
{
    1070
0
    1040
0
    1040
0
    1040
0
    1070
0
    1002
}
    1000
IsFill
    1070
0
    1000
PathStart
    1040
0.5
    1000
ToolCompensation
    1002
{
    1070
0
    1040
0
    1070
0
    1002
}
       0
LWPOLYLINE
       5
204D
     100
AcDbEntity
       8
1
     100
AcDbPolyline
      90
15
      70
1
      10
38
      20
-3
      42
0
      10
38
      20
-23
      42
-0.414213562373095
      10
35
      20
-26
      42
0
      10
23
      20
-26
      42
0.414213562373095
      10
20
      20
-29
      42
0
      10
20
      20
-54.5
      42
-0.414213562373096
      10
17
      20
-57.5
      42
0
      10
3
      20
-57.5
      42
-0.414213562373092
      10
-7.105427357601E-15
      20
-54.5
      42
0
      10
0
      20
-27
      42
-0.414213562373096
      10
1
      20
-26
      42
0.414213562373096
      10
2
      20
-25
      42
0
      10
2
      20
-3
      42
-0.414213562373095
      10
5
      20
8.88178419700125E-16
      42
0
      10
35
      20
0
      42
-0.414213562373098
    1001
FS_CYPCUT
    1000
Channel
    1070
1
    1000
LeadIn
    1002
{
    1070
3
    1040
13.5103485
    1040
1.5707963267949
    1040
0.5
    1040
0.3
    1070
0
    1040
0.5
    1070
0
    1002
}
    1000
LeadOut
    1002
{
    1070
0
    1040
0
    1040
0
    1040
0
    1070
0
    1002
}
    1000
IsFill
    1070
1
    1000
PathStart
    1040
13.5
    1000
ToolCompensation
    1002
{
    1070
0
    1040
0
    1070
0
    1002
}
    1000
MicroConnect
    1002
{
    1070
2
    1040
6.53498839
    1041
0.6
    1042
0
    1040
13.4903485
    1041
0.6
    1042
0
    1002
}
       0
ENDBLK
       5
204E
     330
2007
     100
AcDbEntity
       8
0
     100
AcDbBlockEnd
       0
BLOCK
       5
204F
     330
2008
     100
AcDbEntity
       8
0
     100
AcDbBlockBegin
       2
Part551669794
      70
0
      10
-155.009867
      20
-85.2563256
      30
0
       3
Part551669794
       1

       4
CypCutBlock
       0
LWPOLYLINE
       5
2050
     100
AcDbEntity
       8
1
     100
AcDbPolyline
      90
4
      70
1
      10
-148.2098669272
      20
-28
      42
-1
      10
-139.8098669272
      20
-28
      42
0
      10
-139.8098669272
      20
-56
      42
-1
      10
-148.2098669272
      20
-56
      42
0
    1001
FS_CYPCUT
    1000
Channel
    1070
1
    1000
LeadIn
    1002
{
    1070
3
    1040
1.5
    1040
1.5707963267949
    1040
0.5
    1040
0.3
    1070
0
    1040
0.5
    1070
0
    1002
}
    1000
LeadOut
    1002
{
    1070
0
    1040
0
    1040
0
    1040
0
    1070
0
    1002
}
    1000
IsFill
    1070
0
    1000
PathStart
    1040
1.5
    1000
ToolCompensation
    1002
{
    1070
0
    1040
0
    1070
0
    1002
}
       0
LINE
       5
2051
     100
AcDbEntity
       8
2
     100
AcDbLine
      10
-125.0098669272
      20
-45.6466444879
      30
0
      11
-40.0098669272
      21
-45.6466444879
      31
0
    1001
FS_CYPCUT
    1000
Channel
    1070
2
    1000
LeadIn
    1002
{
    1070
3
    1040
0
    1040
1.5707963267949
    1040
0.173322243949998
    1040
0.3
    1070
0
    1040
0.5
    1070
0
    1002
}
    1000
LeadOut
    1002
{
    1070
0
    1040
0
    1040
0
    1040
0
    1070
0
    1002
}
    1000
IsFill
    1070
0
    1000
PathStart
    1040
0
    1000
ToolCompensation
    1002
{
    1070
0
    1040
0
    1070
0
    1002
}
       0
LINE
       5
2052
     100
AcDbEntity
       8
2
     100
AcDbLine
      10
-38.0699334636
      20
-45
      30
0
      11
-38.0699334636
      21
45
      31
0
    1001
FS_CYPCUT
    1000
Channel
    1070
2
    1000
LeadIn
    1002
{
    1070
3
    1040
0
    1040
1.5707963267949
    1040
0.5
    1040
0.3
    1070
0
    1040
0.5
    1070
0
    1002
}
    1000
LeadOut
    1002
{
    1070
0
    1040
0
    1040
0
    1040
0
    1070
0
    1002
}
    1000
IsFill
    1070
0
    1000
PathStart
    1040
0
    1000
ToolCompensation
    1002
{
    1070
0
    1040
0
    1070
0
    1002
}
       0
LWPOLYLINE
       5
2053
     100
AcDbEntity
       8
1
     100
AcDbPolyline
      90
4
      70
1
      10
-30.765
      20
54
      42
-1.00000000000001
      10
-26.365
      20
54
      42
0
      10
-26.365
      20
24
      42
-0.999999999999997
      10
-30.765
      20
24
      42
0
    1001
FS_CYPCUT
    1000
Channel
    1070
1
    1000
LeadIn
    1002
{
    1070
3
    1040
1.5
    1040
1.5707963267949
    1040
0.5
    1040
0.3
    1070
0
    1040
0.5
    1070
0
    1002
}
    1000
LeadOut
    1002
{
    1070
0
    1040
0
    1040
0
    1040
0
    1070
0
    1002
}
    1000
IsFill
    1070
0
    1000
PathStart
    1040
1.5
    1000
ToolCompensation
    1002
{
    1070
0
    1040
0
    1070
0
    1002
}
       0
LWPOLYLINE
       5
2054
     100
AcDbEntity
       8
1
     100
AcDbPolyline
      90
4
      70
1
      10
-9.76499999999999
      20
54
      42
0
      10
-9.76499999999999
      20
24
      42
0.999999999999993
      10
-5.36499999999998
      20
24
      42
0
      10
-5.36499999999998
      20
54
      42
0.999999999999993
    1001
FS_CYPCUT
    1000
Channel
    1070
1
    1000
LeadIn
    1002
{
    1070
3
    1040
0.5
    1040
1.5707963267949
    1040
0.5
    1040
0.3
    1070
0
    1040
0.5
    1070
0
    1002
}
    1000
LeadOut
    1002
{
    1070
0
    1040
0
    1040
0
    1040
0
    1070
0
    1002
}
    1000
IsFill
    1070
0
    1000
PathStart
    1040
0.5
    1000
ToolCompensation
    1002
{
    1070
0
    1040
0
    1070
0
    1002
}
       0
LWPOLYLINE
       5
2055
     100
AcDbEntity
       8
1
     100
AcDbPolyline
      90
12
      70
1
      10
-95.0098669272
      20
10.1
      42
0
      10
-95.0098669272
      20
-5.1
      42
0
      10
-93.0098669272
      20
-5.1
      42
0
      10
-93.0098669272
      20
-21
      42
0.414213562373095
      10
-89.0098669272
      20
-25
      42
0
      10
-59.0098669272
      20
-25
      42
0.414213562373096
      10
-55.0098669272
      20
-21
      42
0
      10
-55.0098669272
      20
26
      42
0.414213562373094
      10
-59.0098669272
      20
30
      42
0
      10
-89.0098669272
      20
30
      42
0.414213562373096
      10
-93.0098669272
      20
26
      42
0
      10
-93.0098669272
      20
10.1
      42
0
    1001
FS_CYPCUT
    1000
Channel
    1070
1
    1000
LeadIn
    1002
{
    1070
3
    1040
6.5
    1040
1.5707963267949
    1040
0.5
    1040
0.3
    1070
0
    1040
0.5
    1070
0
    1002
}
    1000
LeadOut
    1002
{
    1070
0
    1040
0
    1040
0
    1040
0
    1070
0
    1002
}
    1000
IsFill
    1070
0
    1000
PathStart
    1040
6.5
    1000
ToolCompensation
    1002
{
    1070
0
    1040
0
    1070
0
    1002
}
       0
LWPOLYLINE
       5
2056
     100
AcDbEntity
       8
1
     100
AcDbPolyline
      90
4
      70
1
      10
-148.2098669272
      20
36
      42
0
      10
-148.2098669272
      20
8
      42
1
      10
-139.8098669272
      20
8
      42
0
      10
-139.8098669272
      20
36
      42
1
    1001
FS_CYPCUT
    1000
Channel
    1070
1
    1000
LeadIn
    1002
{
    1070
3
    1040
0.5
    1040
1.5707963267949
    1040
0.5
    1040
0.3
    1070
0
    1040
0.5
    1070
0
    1002
}
    1000
LeadOut
    1002
{
    1070
0
    1040
0
    1040
0
    1040
0
    1070
0
    1002
}
    1000
IsFill
    1070
0
    1000
PathStart
    1040
0.5
    1000
ToolCompensation
    1002
{
    1070
0
    1040
0
    1070
0
    1002
}
       0
LWPOLYLINE
       5
2057
     100
AcDbEntity
       8
1
     100
AcDbPolyline
      90
4
      70
1
      10
-30.765
      20
110
      42
-1
      10
-26.365
      20
110
      42
0
      10
-26.365
      20
80
      42
-1
      10
-30.765
      20
80
      42
0
    1001
FS_CYPCUT
    1000
Channel
    1070
1
    1000
LeadIn
    1002
{
    1070
3
    1040
1.5
    1040
1.5707963267949
    1040
0.5
    1040
0.3
    1070
0
    1040
0.5
    1070
0
    1002
}
    1000
LeadOut
    1002
{
    1070
0
    1040
0
    1040
0
    1040
0
    1070
0
    1002
}
    1000
IsFill
    1070
0
    1000
PathStart
    1040
1.5
    1000
ToolCompensation
    1002
{
    1070
0
    1040
0
    1070
0
    1002
}
       0
LWPOLYLINE
       5
2058
     100
AcDbEntity
       8
1
     100
AcDbPolyline
      90
4
      70
1
      10
-9.76499999999999
      20
110
      42
0
      10
-9.76499999999999
      20
80
      42
1
      10
-5.36499999999998
      20
80
      42
0
      10
-5.36499999999998
      20
110
      42
0.999999999999993
    1001
FS_CYPCUT
    1000
Channel
    1070
1
    1000
LeadIn
    1002
{
    1070
3
    1040
0.5
    1040
1.5707963267949
    1040
0.5
    1040
0.3
    1070
0
    1040
0.5
    1070
0
    1002
}
    1000
LeadOut
    1002
{
    1070
0
    1040
0
    1040
0
    1040
0
    1070
0
    1002
}
    1000
IsFill
    1070
0
    1000
PathStart
    1040
0.5
    1000
ToolCompensation
    1002
{
    1070
0
    1040
0
    1070
0
    1002
}
       0
LWPOLYLINE
       5
2059
     100
AcDbEntity
       8
1
     100
AcDbPolyline
      90
22
      70
1
      10
-155.0098669272
      20
35
      42
0
      10
-155.0098669272
      20
-60
      42
0.414213562373095
      10
-145.0098669272
      20
-70
      42
0
      10
-135.0098669272
      20
-70
      42
0.414213562373095
      10
-130.0098669272
      20
-65
      42
0
      10
-130.0098669272
      20
-45
      42
0
      10
-125.0098669272
      20
-45
      42
0
      10
-125.0098669272
      20
-75.256325601
      42
0.414213562373095
      10
-115.0098669272
      20
-85.256325601
      42
0
      10
-50.0098669272
      20
-85.256325601
      42
0.414213562373094
      10
-40.0098669272
      20
-75.256325601
      42
0
      10
-40.0098669272
      20
-45
      42
0
      10
-29.1421356237
      20
-45.0000000000001
      42
0.198912367379658
      10
-22.0710678119
      20
-42.0710678119
      42
0
      10
-2.92893218813458
      20
-22.9289321881654
      42
0.198912367379657
      10
0
      20
-15.8578643763
      42
0
      10
0
      20
117
      42
0.414213562373099
      10
-3
      20
120
      42
0
      10
-33.13
      20
120
      42
0.414213562373092
      10
-36.13
      20
117
      42
0
      10
-36.13
      20
45
      42
0
      10
-145.0098669272
      20
45
      42
0.414213562373095
    1001
FS_CYPCUT
    1000
Channel
    1070
1
    1000
LeadIn
    1002
{
    1070
3
    1040
15.5026095045062
    1040
1.5707963267949
    1040
0.5
    1040
0.3
    1070
0
    1040
0.5
    1070
0
    1002
}
    1000
LeadOut
    1002
{
    1070
0
    1040
0
    1040
0
    1040
0
    1070
0
    1002
}
    1000
IsFill
    1070
1
    1000
PathStart
    1040
15.5
    1000
ToolCompensation
    1002
{
    1070
0
    1040
0
    1070
0
    1002
}
    1000
MicroConnect
    1002
{
    1070
3
    1040
8.51795088
    1041
0.6
    1042
0
    1040
15.4980934
    1041
0.6
    1042
0
    1040
20.6850033
    1041
0.6
    1042
0
    1002
}
       0
ENDBLK
       5
205A
     330
2008
     100
AcDbEntity
       8
0
     100
AcDbBlockEnd
       0
BLOCK
       5
205B
     330
2009
     100
AcDbEntity
       8
0
     100
AcDbBlockBegin
       2
Part1884609747
      70
0
      10
-60
      20
-2.39808173E-14
      30
0
       3
Part1884609747
       1

       4
CypCutBlock
       0
LWPOLYLINE
       5
205C
     100
AcDbEntity
       8
1
     100
AcDbPolyline
      90
4
      70
1
      10
-15
      20
18.1
      42
0
      10
-45
      20
18.1
      42
1
      10
-45
      20
11.9
      42
0
      10
-15
      20
11.9
      42
1
    1001
FS_CYPCUT
    1000
Channel
    1070
1
    1000
LeadIn
    1002
{
    1070
3
    1040
0.5
    1040
1.5707963267949
    1040
0.5
    1040
0.3
    1070
0
    1040
0.5
    1070
0
    1002
}
    1000
LeadOut
    1002
{
    1070
0
    1040
0
    1040
0
    1040
0
    1070
0
    1002
}
    1000
IsFill
    1070
0
    1000
PathStart
    1040
0.5
    1000
ToolCompensation
    1002
{
    1070
0
    1040
0
    1070
0
    1002
}
       0
LWPOLYLINE
       5
205D
     100
AcDbEntity
       8
1
     100
AcDbPolyline
      90
4
      70
1
      10
-7.4
      20
65
      42
1
      10
-12.6
      20
65
      42
0
      10
-12.6
      20
40
      42
1
      10
-7.4
      20
40
      42
0
    1001
FS_CYPCUT
    1000
Channel
    1070
1
    1000
LeadIn
    1002
{
    1070
3
    1040
1.5
    1040
1.5707963267949
    1040
0.5
    1040
0.3
    1070
0
    1040
0.5
    1070
0
    1002
}
    1000
LeadOut
    1002
{
    1070
0
    1040
0
    1040
0
    1040
0
    1070
0
    1002
}
    1000
IsFill
    1070
0
    1000
PathStart
    1040
1.5
    1000
ToolCompensation
    1002
{
    1070
0
    1040
0
    1070
0
    1002
}
       0
LWPOLYLINE
       5
205E
     100
AcDbEntity
       8
1
     100
AcDbPolyline
      90
12
      70
1
      10
8.88178419700125E-16
      20
76
      42
0.414213562373093
      10
-4
      20
80
      42
0
      10
-16
      20
80
      42
0.414213562373096
      10
-20
      20
76
      42
0
      10
-20
      20
34
      42
-0.414213562373097
      10
-24
      20
30
      42
0
      10
-56
      20
30
      42
0.414213562373096
      10
-60
      20
26
      42
0
      10
-60
      20
4
      42
0.414213562373096
      10
-56
      20
-2.1316282072803E-14
      42
0
      10
-4
      20
0
      42
0.414213562373095
      10
8.88178419700125E-15
      20
4
      42
0
    1001
FS_CYPCUT
    1000
Channel
    1070
1
    1000
LeadIn
    1002
{
    1070
3
    1040
11.5049170333333
    1040
1.5707963267949
    1040
0.5
    1040
0.3
    1070
0
    1040
0.5
    1070
0
    1002
}
    1000
LeadOut
    1002
{
    1070
0
    1040
0
    1040
0
    1040
0
    1070
0
    1002
}
    1000
IsFill
    1070
1
    1000
PathStart
    1040
11.5
    1000
ToolCompensation
    1002
{
    1070
0
    1040
0
    1070
0
    1002
}
    1000
MicroConnect
    1002
{
    1070
2
    1040
5.40030832
    1041
0.6
    1042
0
    1040
11.4965837
    1041
0.6
    1042
0
    1002
}
       0
ENDBLK
       5
205F
     330
2009
     100
AcDbEntity
       8
0
     100
AcDbBlockEnd
       0
BLOCK
       5
2060
     330
200A
     100
AcDbEntity
       8
0
     100
AcDbBlockBegin
       2
Part1290249168
      70
0
      10
-42
      20
-30
      30
0
       3
Part1290249168
       1

       4
CypCutBlock
       0
LWPOLYLINE
       5
2061
     100
AcDbEntity
       8
1
     100
AcDbPolyline
      90
4
      70
1
      10
-11.9
      20
16
      42
0
      10
-11.9
      20
-16
      42
-1
      10
-30.1
      20
-16
      42
0
      10
-30.1
      20
16
      42
-1
    1001
FS_CYPCUT
    1000
Channel
    1070
1
    1000
LeadIn
    1002
{
    1070
3
    1040
0.5
    1040
1.5707963267949
    1040
0.5
    1040
0.3
    1070
0
    1040
0.5
    1070
0
    1002
}
    1000
LeadOut
    1002
{
    1070
0
    1040
0
    1040
0
    1040
0
    1070
0
    1002
}
    1000
IsFill
    1070
0
    1000
PathStart
    1040
0.5
    1000
ToolCompensation
    1002
{
    1070
0
    1040
0
    1070
0
    1002
}
       0
LINE
       5
2062
     100
AcDbEntity
       8
2
     100
AcDbLine
      10
-1.9300665364
      20
30
      30
0
      11
-1.9300665364
      21
-30
      31
0
    1001
FS_CYPCUT
    1000
Channel
    1070
2
    1000
LeadIn
    1002
{
    1070
3
    1040
0
    1040
1.5707963267949
    1040
0.5
    1040
0.3
    1070
0
    1040
0.5
    1070
0
    1002
}
    1000
LeadOut
    1002
{
    1070
0
    1040
0
    1040
0
    1040
0
    1070
0
    1002
}
    1000
IsFill
    1070
0
    1000
PathStart
    1040
0
    1000
ToolCompensation
    1002
{
    1070
0
    1040
0
    1070
0
    1002
}
       0
LWPOLYLINE
       5
2063
     100
AcDbEntity
       8
1
     100
AcDbPolyline
      90
14
      70
1
      10
20.1398669272
      20
6.5
      42
0
      10
20.1398669272
      20
-6.5
      42
-0.414213562373096
      10
19.1398669272
      20
-7.5
      42
0
      10
18.1398669272
      20
-7.5
      42
0
      10
18.1398669272
      20
-29
      42
-0.41421356237309
      10
17.1398669272
      20
-30
      42
0
      10
-34
      20
-30
      42
-0.414213562373095
      10
-42
      20
-22
      42
0
      10
-42
      20
22
      42
-0.414213562373096
      10
-34
      20
30
      42
0
      10
17.1398669272
      20
30
      42
-0.414213562373102
      10
18.1398669272
      20
29
      42
0
      10
18.1398669272
      20
7.5
      42
0
      10
19.1398669272
      20
7.5
      42
-0.414213562373093
    1001
FS_CYPCUT
    1000
Channel
    1070
1
    1000
LeadIn
    1002
{
    1070
3
    1040
5.5
    1040
1.5707963267949
    1040
0.5
    1040
0.3
    1070
0
    1040
0.5
    1070
0
    1002
}
    1000
LeadOut
    1002
{
    1070
0
    1040
0
    1040
0
    1040
0
    1070
0
    1002
}
    1000
IsFill
    1070
1
    1000
PathStart
    1040
5.5
    1000
ToolCompensation
    1002
{
    1070
0
    1040
0
    1070
0
    1002
}
    1000
MicroConnect
    1002
{
    1070
2
    1040
0.496247655
    1041
0.6
    1042
0
    1040
7.50554324
    1041
0.6
    1042
0
    1002
}
       0
ENDBLK
       5
2064
     330
200A
     100
AcDbEntity
       8
0
     100
AcDbBlockEnd
       0
BLOCK
       5
2065
     330
200B
     100
AcDbEntity
       8
0
     100
AcDbBlockBegin
       2
Part2049286179
      70
0
      10
-17.5
      20
-21.1398669
      30
0
       3
Part2049286179
       1

       4
CypCutBlock
       0
CIRCLE
       5
2066
     100
AcDbEntity
       8
1
     100
AcDbCircle
      10
0
      20
-11.1398669272
      30
0
      40
3.50000000000001
    1001
FS_CYPCUT
    1000
Channel
    1070
1
    1000
LeadIn
    1002
{
    1070
3
    1040
0
    1040
1.5707963267949
    1040
0.5
    1040
0.3
    1070
0
    1040
0.5
    1070
0
    1002
}
    1000
LeadOut
    1002
{
    1070
0
    1040
0
    1040
0
    1040
0
    1070
0
    1002
}
    1000
IsFill
    1070
0
    1000
PathStart
    1040
1
    1000
ToolCompensation
    1002
{
    1070
0
    1040
0
    1070
0
    1002
}
       0
LINE
       5
2067
     100
AcDbEntity
       8
2
     100
AcDbLine
      10
17.5
      20
1.9300665364
      30
0
      11
-17.5
      21
1.9300665364
      31
0
    1001
FS_CYPCUT
    1000
Channel
    1070
2
    1000
LeadIn
    1002
{
    1070
3
    1040
0
    1040
1.5707963267949
    1040
0.5
    1040
0.3
    1070
0
    1040
0.5
    1070
0
    1002
}
    1000
LeadOut
    1002
{
    1070
0
    1040
0
    1040
0
    1040
0
    1070
0
    1002
}
    1000
IsFill
    1070
0
    1000
PathStart
    1040
0
    1000
ToolCompensation
    1002
{
    1070
0
    1040
0
    1070
0
    1002
}
       0
LWPOLYLINE
       5
2068
     100
AcDbEntity
       8
1
     100
AcDbPolyline
      90
4
      70
1
      10
6.2
      20
38
      42
1
      10
-6.2
      20
38
      42
0
      10
-6.2
      20
15.87
      42
1
      10
6.2
      20
15.87
      42
0
    1001
FS_CYPCUT
    1000
Channel
    1070
1
    1000
LeadIn
    1002
{
    1070
3
    1040
1.5
    1040
1.5707963267949
    1040
0.5
    1040
0.3
    1070
0
    1040
0.5
    1070
0
    1002
}
    1000
LeadOut
    1002
{
    1070
0
    1040
0
    1040
0
    1040
0
    1070
0
    1002
}
    1000
IsFill
    1070
0
    1000
PathStart
    1040
1.5
    1000
ToolCompensation
    1002
{
    1070
0
    1040
0
    1070
0
    1002
}
       0
LWPOLYLINE
       5
2069
     100
AcDbEntity
       8
1
     100
AcDbPolyline
      90
8
      70
1
      10
17.5
      20
42
      42
0.414213562373095
      10
9.5
      20
50
      42
0
      10
-9.5
      20
50
      42
0.414213562373095
      10
-17.5
      20
42
      42
0
      10
-17.5
      20
-13.1398669272
      42
0.414213562373095
      10
-9.5
      20
-21.1398669272
      42
0
      10
9.5
      20
-21.1398669272
      42
0.414213562373095
      10
17.5
      20
-13.1398669272
      42
0
    1001
FS_CYPCUT
    1000
Channel
    1070
1
    1000
LeadIn
    1002
{
    1070
3
    1040
3.5
    1040
1.5707963267949
    1040
0.5
    1040
0.3
    1070
0
    1040
0.5
    1070
0
    1002
}
    1000
LeadOut
    1002
{
    1070
0
    1040
0
    1040
0
    1040
0
    1070
0
    1002
}
    1000
IsFill
    1070
1
    1000
PathStart
    1040
3.5
    1000
ToolCompensation
    1002
{
    1070
0
    1040
0
    1070
0
    1002
}
    1000
MicroConnect
    1002
{
    1070
1
    1040
7.53461435
    1041
0.6
    1042
0
    1002
}
       0
ENDBLK
       5
206A
     330
200B
     100
AcDbEntity
       8
0
     100
AcDbBlockEnd
       0
BLOCK
       5
206B
     330
200C
     100
AcDbEntity
       8
0
     100
AcDbBlockBegin
       2
Part752032943
      70
0
      10
-155.009867
      20
-85.2563256
      30
0
       3
Part752032943
       1

       4
CypCutBlock
       0
LINE
       5
206C
     100
AcDbEntity
       8
2
     100
AcDbLine
      10
-115
      20
-45.6466444879
      30
0
      11
-30
      21
-45.6466444879
      31
0
    1001
FS_CYPCUT
    1000
Channel
    1070
2
    1000
LeadIn
    1002
{
    1070
3
    1040
0
    1040
1.5707963267949
    1040
0.173322243949998
    1040
0.3
    1070
0
    1040
0.5
    1070
0
    1002
}
    1000
LeadOut
    1002
{
    1070
0
    1040
0
    1040
0
    1040
0
    1070
0
    1002
}
    1000
IsFill
    1070
0
    1000
PathStart
    1040
0
    1000
ToolCompensation
    1002
{
    1070
0
    1040
0
    1070
0
    1002
}
       0
LWPOLYLINE
       5
206D
     100
AcDbEntity
       8
1
     100
AcDbPolyline
      90
4
      70
1
      10
-6.8
      20
-28
      42
1
      10
-15.2
      20
-28
      42
0
      10
-15.2
      20
-56
      42
1
      10
-6.8
      20
-56
      42
0
    1001
FS_CYPCUT
    1000
Channel
    1070
1
    1000
LeadIn
    1002
{
    1070
3
    1040
1.5
    1040
1.5707963267949
    1040
0.5
    1040
0.3
    1070
0
    1040
0.5
    1070
0
    1002
}
    1000
LeadOut
    1002
{
    1070
0
    1040
0
    1040
0
    1040
0
    1070
0
    1002
}
    1000
IsFill
    1070
0
    1000
PathStart
    1040
1.5
    1000
ToolCompensation
    1002
{
    1070
0
    1040
0
    1070
0
    1002
}
       0
LWPOLYLINE
       5
206E
     100
AcDbEntity
       8
1
     100
AcDbPolyline
      90
4
      70
1
      10
-6.8
      20
36
      42
0
      10
-6.8
      20
8
      42
-1
      10
-15.2
      20
8
      42
0
      10
-15.2
      20
36
      42
-1
    1001
FS_CYPCUT
    1000
Channel
    1070
1
    1000
LeadIn
    1002
{
    1070
3
    1040
0.5
    1040
1.5707963267949
    1040
0.5
    1040
0.3
    1070
0
    1040
0.5
    1070
0
    1002
}
    1000
LeadOut
    1002
{
    1070
0
    1040
0
    1040
0
    1040
0
    1070
0
    1002
}
    1000
IsFill
    1070
0
    1000
PathStart
    1040
0.5
    1000
ToolCompensation
    1002
{
    1070
0
    1040
0
    1070
0
    1002
}
       0
LWPOLYLINE
       5
206F
     100
AcDbEntity
       8
1
     100
AcDbPolyline
      90
12
      70
1
      10
-60
      20
10.1
      42
0
      10
-60
      20
-5.1
      42
0
      10
-62
      20
-5.1
      42
0
      10
-62
      20
-21
      42
-0.414213562373095
      10
-66
      20
-25
      42
0
      10
-96
      20
-25
      42
-0.414213562373096
      10
-100
      20
-21
      42
0
      10
-100
      20
26
      42
-0.414213562373094
      10
-96
      20
30
      42
0
      10
-66
      20
30
      42
-0.414213562373096
      10
-62
      20
26
      42
0
      10
-62
      20
10.1
      42
0
    1001
FS_CYPCUT
    1000
Channel
    1070
1
    1000
LeadIn
    1002
{
    1070
3
    1040
6.5
    1040
1.5707963267949
    1040
0.5
    1040
0.3
    1070
0
    1040
0.5
    1070
0
    1002
}
    1000
LeadOut
    1002
{
    1070
0
    1040
0
    1040
0
    1040
0
    1070
0
    1002
}
    1000
IsFill
    1070
0
    1000
PathStart
    1040
6.5
    1000
ToolCompensation
    1002
{
    1070
0
    1040
0
    1070
0
    1002
}
       0
LWPOLYLINE
       5
2070
     100
AcDbEntity
       8
1
     100
AcDbPolyline
      90
4
      70
1
      10
-145.2448669272
      20
54
      42
0
      10
-145.2448669272
      20
24
      42
-0.999999999999993
      10
-149.6448669272
      20
24
      42
0
      10
-149.6448669272
      20
54
      42
-0.999999999999993
    1001
FS_CYPCUT
    1000
Channel
    1070
1
    1000
LeadIn
    1002
{
    1070
3
    1040
0.5
    1040
1.5707963267949
    1040
0.5
    1040
0.3
    1070
0
    1040
0.5
    1070
0
    1002
}
    1000
LeadOut
    1002
{
    1070
0
    1040
0
    1040
0
    1040
0
    1070
0
    1002
}
    1000
IsFill
    1070
0
    1000
PathStart
    1040
0.5
    1000
ToolCompensation
    1002
{
    1070
0
    1040
0
    1070
0
    1002
}
       0
LWPOLYLINE
       5
2071
     100
AcDbEntity
       8
1
     100
AcDbPolyline
      90
4
      70
1
      10
-124.2448669272
      20
54
      42
1.00000000000001
      10
-128.6448669272
      20
54
      42
0
      10
-128.6448669272
      20
24
      42
0.999999999999997
      10
-124.2448669272
      20
24
      42
0
    1001
FS_CYPCUT
    1000
Channel
    1070
1
    1000
LeadIn
    1002
{
    1070
3
    1040
1.5
    1040
1.5707963267949
    1040
0.5
    1040
0.3
    1070
0
    1040
0.5
    1070
0
    1002
}
    1000
LeadOut
    1002
{
    1070
0
    1040
0
    1040
0
    1040
0
    1070
0
    1002
}
    1000
IsFill
    1070
0
    1000
PathStart
    1040
1.5
    1000
ToolCompensation
    1002
{
    1070
0
    1040
0
    1070
0
    1002
}
       0
LINE
       5
2072
     100
AcDbEntity
       8
2
     100
AcDbLine
      10
-116.9399334636
      20
45
      30
0
      11
-116.9399334636
      21
-45
      31
0
    1001
FS_CYPCUT
    1000
Channel
    1070
2
    1000
LeadIn
    1002
{
    1070
3
    1040
0
    1040
1.5707963267949
    1040
0.5
    1040
0.3
    1070
0
    1040
0.5
    1070
0
    1002
}
    1000
LeadOut
    1002
{
    1070
0
    1040
0
    1040
0
    1040
0
    1070
0
    1002
}
    1000
IsFill
    1070
0
    1000
PathStart
    1040
0
    1000
ToolCompensation
    1002
{
    1070
0
    1040
0
    1070
0
    1002
}
       0
LWPOLYLINE
       5
2073
     100
AcDbEntity
       8
1
     100
AcDbPolyline
      90
4
      70
1
      10
-124.2448669272
      20
110
      42
1
      10
-128.6448669272
      20
110
      42
0
      10
-128.6448669272
      20
80
      42
1
      10
-124.2448669272
      20
80
      42
0
    1001
FS_CYPCUT
    1000
Channel
    1070
1
    1000
LeadIn
    1002
{
    1070
3
    1040
1.5
    1040
1.5707963267949
    1040
0.5
    1040
0.3
    1070
0
    1040
0.5
    1070
0
    1002
}
    1000
LeadOut
    1002
{
    1070
0
    1040
0
    1040
0
    1040
0
    1070
0
    1002
}
    1000
IsFill
    1070
0
    1000
PathStart
    1040
1.5
    1000
ToolCompensation
    1002
{
    1070
0
    1040
0
    1070
0
    1002
}
       0
LWPOLYLINE
       5
2074
     100
AcDbEntity
       8
1
     100
AcDbPolyline
      90
4
      70
1
      10
-145.2448669272
      20
110
      42
0
      10
-145.2448669272
      20
80
      42
-1
      10
-149.6448669272
      20
80
      42
0
      10
-149.6448669272
      20
110
      42
-0.999999999999993
    1001
FS_CYPCUT
    1000
Channel
    1070
1
    1000
LeadIn
    1002
{
    1070
3
    1040
0.5
    1040
1.5707963267949
    1040
0.5
    1040
0.3
    1070
0
    1040
0.5
    1070
0
    1002
}
    1000
LeadOut
    1002
{
    1070
0
    1040
0
    1040
0
    1040
0
    1070
0
    1002
}
    1000
IsFill
    1070
0
    1000
PathStart
    1040
0.5
    1000
ToolCompensation
    1002
{
    1070
0
    1040
0
    1070
0
    1002
}
       0
LWPOLYLINE
       5
2075
     100
AcDbEntity
       8
1
     100
AcDbPolyline
      90
22
      70
1
      10
0
      20
35
      42
0
      10
0
      20
-60
      42
-0.414213562373095
      10
-10
      20
-70
      42
0
      10
-20
      20
-70
      42
-0.414213562373095
      10
-25
      20
-65
      42
0
      10
-25
      20
-45
      42
0
      10
-30
      20
-45
      42
0
      10
-30
      20
-75.256325601
      42
-0.414213562373095
      10
-40
      20
-85.256325601
      42
0
      10
-105
      20
-85.256325601
      42
-0.414213562373094
      10
-115
      20
-75.256325601
      42
0
      10
-115
      20
-45
      42
0
      10
-125.8677313035
      20
-45.0000000000001
      42
-0.198912367379658
      10
-132.9387991153
      20
-42.0710678119
      42
0
      10
-152.080934739065
      20
-22.9289321881654
      42
-0.198912367379657
      10
-155.0098669272
      20
-15.8578643763
      42
0
      10
-155.0098669272
      20
117
      42
-0.414213562373099
      10
-152.0098669272
      20
120
      42
0
      10
-121.8798669272
      20
120
      42
-0.414213562373092
      10
-118.8798669272
      20
117
      42
0
      10
-118.8798669272
      20
45
      42
0
      10
-10
      20
45
      42
-0.414213562373095
    1001
FS_CYPCUT
    1000
Channel
    1070
1
    1000
LeadIn
    1002
{
    1070
3
    1040
15.5026095045062
    1040
1.5707963267949
    1040
0.5
    1040
0.3
    1070
0
    1040
0.5
    1070
0
    1002
}
    1000
LeadOut
    1002
{
    1070
0
    1040
0
    1040
0
    1040
0
    1070
0
    1002
}
    1000
IsFill
    1070
1
    1000
PathStart
    1040
15.5
    1000
ToolCompensation
    1002
{
    1070
0
    1040
0
    1070
0
    1002
}
    1000
MicroConnect
    1002
{
    1070
3
    1040
8.51795088
    1041
0.6
    1042
0
    1040
15.4980934
    1041
0.6
    1042
0
    1040
20.6850033
    1041
0.6
    1042
0
    1002
}
       0
ENDBLK
       5
2076
     330
200C
     100
AcDbEntity
       8
0
     100
AcDbBlockEnd
       0
BLOCK
       5
2077
     330
200D
     100
AcDbEntity
       8
0
     100
AcDbBlockBegin
       2
Part1853026998
      70
0
      10
-17.5
      20
-21.1398669
      30
0
       3
Part1853026998
       1

       4
CypCutBlock
       0
CIRCLE
       5
2078
     100
AcDbEntity
       8
1
     100
AcDbCircle
      10
0
      20
-11.1398669272
      30
0
      40
3.50000000000001
    1001
FS_CYPCUT
    1000
Channel
    1070
1
    1000
LeadIn
    1002
{
    1070
3
    1040
0
    1040
1.5707963267949
    1040
0.5
    1040
0.3
    1070
0
    1040
0.5
    1070
0
    1002
}
    1000
LeadOut
    1002
{
    1070
0
    1040
0
    1040
0
    1040
0
    1070
0
    1002
}
    1000
IsFill
    1070
0
    1000
PathStart
    1040
1
    1000
ToolCompensation
    1002
{
    1070
0
    1040
0
    1070
0
    1002
}
       0
LINE
       5
2079
     100
AcDbEntity
       8
2
     100
AcDbLine
      10
17.5
      20
1.9300665364
      30
0
      11
-17.5
      21
1.9300665364
      31
0
    1001
FS_CYPCUT
    1000
Channel
    1070
2
    1000
LeadIn
    1002
{
    1070
3
    1040
0
    1040
1.5707963267949
    1040
0.5
    1040
0.3
    1070
0
    1040
0.5
    1070
0
    1002
}
    1000
LeadOut
    1002
{
    1070
0
    1040
0
    1040
0
    1040
0
    1070
0
    1002
}
    1000
IsFill
    1070
0
    1000
PathStart
    1040
0
    1000
ToolCompensation
    1002
{
    1070
0
    1040
0
    1070
0
    1002
}
       0
LWPOLYLINE
       5
207A
     100
AcDbEntity
       8
1
     100
AcDbPolyline
      90
4
      70
1
      10
6.2
      20
38
      42
1
      10
-6.2
      20
38
      42
0
      10
-6.2
      20
15.87
      42
1
      10
6.2
      20
15.87
      42
0
    1001
FS_CYPCUT
    1000
Channel
    1070
1
    1000
LeadIn
    1002
{
    1070
3
    1040
1.5
    1040
1.5707963267949
    1040
0.5
    1040
0.3
    1070
0
    1040
0.5
    1070
0
    1002
}
    1000
LeadOut
    1002
{
    1070
0
    1040
0
    1040
0
    1040
0
    1070
0
    1002
}
    1000
IsFill
    1070
0
    1000
PathStart
    1040
1.5
    1000
ToolCompensation
    1002
{
    1070
0
    1040
0
    1070
0
    1002
}
       0
LWPOLYLINE
       5
207B
     100
AcDbEntity
       8
1
     100
AcDbPolyline
      90
8
      70
1
      10
17.5
      20
42
      42
0.414213562373095
      10
9.5
      20
50
      42
0
      10
-9.5
      20
50
      42
0.414213562373095
      10
-17.5
      20
42
      42
0
      10
-17.5
      20
-13.1398669272
      42
0.414213562373095
      10
-9.5
      20
-21.1398669272
      42
0
      10
9.5
      20
-21.1398669272
      42
0.414213562373095
      10
17.5
      20
-13.1398669272
      42
0
    1001
FS_CYPCUT
    1000
Channel
    1070
1
    1000
LeadIn
    1002
{
    1070
3
    1040
3.5
    1040
1.5707963267949
    1040
0.5
    1040
0.3
    1070
0
    1040
0.5
    1070
0
    1002
}
    1000
LeadOut
    1002
{
    1070
0
    1040
0
    1040
0
    1040
0
    1070
0
    1002
}
    1000
IsFill
    1070
1
    1000
PathStart
    1040
3.5
    1000
ToolCompensation
    1002
{
    1070
0
    1040
0
    1070
0
    1002
}
    1000
MicroConnect
    1002
{
    1070
1
    1040
7.53461435
    1041
0.6
    1042
0
    1002
}
       0
ENDBLK
       5
207C
     330
200D
     100
AcDbEntity
       8
0
     100
AcDbBlockEnd
       0
BLOCK
       5
207D
     330
200E
     100
AcDbEntity
       8
0
     100
AcDbBlockBegin
       2
Part1333679708
      70
0
      10
-20
      20
-41.2979375
      30
0
       3
Part1333679708
       1

       4
CypCutBlock
       0
LWPOLYLINE
       5
207E
     100
AcDbEntity
       8
1
     100
AcDbPolyline
      90
4
      70
1
      10
-9.4
      20
-25.1679375423
      42
1
      10
-14.6
      20
-25.1679375423
      42
0
      10
-14.6
      20
-35.2979375423
      42
1
      10
-9.4
      20
-35.2979375423
      42
0
    1001
FS_CYPCUT
    1000
Channel
    1070
1
    1000
LeadIn
    1002
{
    1070
3
    1040
1.5
    1040
1.5707963267949
    1040
0.5
    1040
0.3
    1070
0
    1040
0.5
    1070
0
    1002
}
    1000
LeadOut
    1002
{
    1070
0
    1040
0
    1040
0
    1040
0
    1070
0
    1002
}
    1000
IsFill
    1070
0
    1000
PathStart
    1040
1.5
    1000
ToolCompensation
    1002
{
    1070
0
    1040
0
    1070
0
    1002
}
       0
LWPOLYLINE
       5
207F
     100
AcDbEntity
       8
1
     100
AcDbPolyline
      90
4
      70
1
      10
14.6
      20
-25.1679375423
      42
1
      10
9.4
      20
-25.1679375423
      42
0
      10
9.4
      20
-35.2979375423
      42
1
      10
14.6
      20
-35.2979375423
      42
0
    1001
FS_CYPCUT
    1000
Channel
    1070
1
    1000
LeadIn
    1002
{
    1070
3
    1040
1.5
    1040
1.5707963267949
    1040
0.5
    1040
0.3
    1070
0
    1040
0.5
    1070
0
    1002
}
    1000
LeadOut
    1002
{
    1070
0
    1040
0
    1040
0
    1040
0
    1070
0
    1002
}
    1000
IsFill
    1070
0
    1000
PathStart
    1040
1.5
    1000
ToolCompensation
    1002
{
    1070
0
    1040
0
    1070
0
    1002
}
       0
LINE
       5
2080
     100
AcDbEntity
       8
2
     100
AcDbLine
      10
20
      20
-13.2280040787
      30
0
      11
-20
      21
-13.2280040787
      31
0
    1001
FS_CYPCUT
    1000
Channel
    1070
2
    1000
LeadIn
    1002
{
    1070
3
    1040
0
    1040
1.5707963267949
    1040
0.5
    1040
0.3
    1070
0
    1040
0.5
    1070
0
    1002
}
    1000
LeadOut
    1002
{
    1070
0
    1040
0
    1040
0
    1040
0
    1070
0
    1002
}
    1000
IsFill
    1070
0
    1000
PathStart
    1040
0
    1000
ToolCompensation
    1002
{
    1070
0
    1040
0
    1070
0
    1002
}
       0
LINE
       5
2081
     100
AcDbEntity
       8
2
     100
AcDbLine
      10
-20
      20
10.0505231591
      30
0
      11
20
      21
10.0505231591
      31
0
    1001
FS_CYPCUT
    1000
Channel
    1070
2
    1000
LeadIn
    1002
{
    1070
3
    1040
0
    1040
1.5707963267949
    1040
0.5
    1040
0.3
    1070
0
    1040
0.5
    1070
0
    1002
}
    1000
LeadOut
    1002
{
    1070
0
    1040
0
    1040
0
    1040
0
    1070
0
    1002
}
    1000
IsFill
    1070
0
    1000
PathStart
    1040
0
    1000
ToolCompensation
    1002
{
    1070
0
    1040
0
    1070
0
    1002
}
       0
LWPOLYLINE
       5
2082
     100
AcDbEntity
       8
1
     100
AcDbPolyline
      90
8
      70
1
      10
7.5
      20
59.1528866635
      42
0
      10
7.5
      20
27.9682320239
      42
-0.414213562373095
      10
3.5
      20
23.9682320239
      42
0
      10
-3.5
      20
23.9682320239
      42
-0.414213562373095
      10
-7.5
      20
27.9682320239
      42
0
      10
-7.5
      20
59.1528866635
      42
-0.414213562373095
      10
-3.5
      20
63.1528866635
      42
0
      10
3.5
      20
63.1528866635
      42
-0.414213562373094
    1001
FS_CYPCUT
    1000
Channel
    1070
1
    1000
LeadIn
    1002
{
    1070
3
    1040
0.5
    1040
1.5707963267949
    1040
0.5
    1040
0.3
    1070
0
    1040
0.5
    1070
0
    1002
}
    1000
LeadOut
    1002
{
    1070
0
    1040
0
    1040
0
    1040
0
    1070
0
    1002
}
    1000
IsFill
    1070
0
    1000
PathStart
    1040
0.5
    1000
ToolCompensation
    1002
{
    1070
0
    1040
0
    1070
0
    1002
}
       0
LINE
       5
2083
     100
AcDbEntity
       8
2
     100
AcDbLine
      10
20
      20
76.1751112623
      30
0
      11
-20
      21
76.1751112623
      31
0
    1001
FS_CYPCUT
    1000
Channel
    1070
2
    1000
LeadIn
    1002
{
    1070
3
    1040
0
    1040
1.5707963267949
    1040
0.5
    1040
0.3
    1070
0
    1040
0.5
    1070
0
    1002
}
    1000
LeadOut
    1002
{
    1070
0
    1040
0
    1040
0
    1040
0
    1070
0
    1002
}
    1000
IsFill
    1070
0
    1000
PathStart
    1040
0
    1000
ToolCompensation
    1002
{
    1070
0
    1040
0
    1070
0
    1002
}
       0
LWPOLYLINE
       5
2084
     100
AcDbEntity
       8
1
     100
AcDbPolyline
      90
4
      70
1
      10
9.5
      20
111.2959689929
      42
0
      10
9.5
      20
95.2959689929
      42
-1
      10
-9.5
      20
95.2959689929
      42
0
      10
-9.5
      20
111.2959689929
      42
-1
    1001
FS_CYPCUT
    1000
Channel
    1070
1
    1000
LeadIn
    1002
{
    1070
3
    1040
1.5
    1040
1.5707963267949
    1040
0.5
    1040
0.3
    1070
0
    1040
0.5
    1070
0
    1002
}
    1000
LeadOut
    1002
{
    1070
0
    1040
0
    1040
0
    1040
0
    1070
0
    1002
}
    1000
IsFill
    1070
0
    1000
PathStart
    1040
1.5
    1000
ToolCompensation
    1002
{
    1070
0
    1040
0
    1070
0
    1002
}
       0
LWPOLYLINE
       5
2085
     100
AcDbEntity
       8
1
     100
AcDbPolyline
      90
8
      70
1
      10
19.9999999999999
      20
121.2959689929
      42
0.414213562373092
      10
15
      20
126.2959689929
      42
0
      10
-15
      20
126.2959689929
      42
0.414213562373097
      10
-20
      20
121.2959689929
      42
0
      10
-20
      20
-36.2979375423
      42
0.414213562373096
      10
-15
      20
-41.2979375423
      42
0
      10
15
      20
-41.2979375422999
      42
0.414213562373094
      10
19.9999999999999
      20
-36.2979375423
      42
0
    1001
FS_CYPCUT
    1000
Channel
    1070
1
    1000
LeadIn
    1002
{
    1070
3
    1040
3.5
    1040
1.5707963267949
    1040
0.5
    1040
0.3
    1070
0
    1040
0.5
    1070
0
    1002
}
    1000
LeadOut
    1002
{
    1070
0
    1040
0
    1040
0
    1040
0
    1070
0
    1002
}
    1000
IsFill
    1070
1
    1000
PathStart
    1040
3.5
    1000
ToolCompensation
    1002
{
    1070
0
    1040
0
    1070
0
    1002
}
    1000
MicroConnect
    1002
{
    1070
2
    1040
3.77926481
    1041
0.6
    1042
0
    1040
7.84670337
    1041
0.6
    1042
0
    1002
}
       0
ENDBLK
       5
2086
     330
200E
     100
AcDbEntity
       8
0
     100
AcDbBlockEnd
       0
BLOCK
       5
2087
     330
200F
     100
AcDbEntity
       8
0
     100
AcDbBlockBegin
       2
Part476450157
      70
0
      10
-70
      20
-125
      30
0
       3
Part476450157
       1

       4
CypCutBlock
       0
LINE
       5
2088
     100
AcDbEntity
       8
2
     100
AcDbLine
      10
0.0699334636
      20
-57.9448908754
      30
0
      11
0.0699334636
      21
-30
      31
0
    1001
FS_CYPCUT
    1000
Channel
    1070
2
    1000
LeadIn
    1002
{
    1070
3
    1040
0
    1040
1.5707963267949
    1040
0.5
    1040
0.3
    1070
0
    1040
0.5
    1070
0
    1002
}
    1000
LeadOut
    1002
{
    1070
0
    1040
0
    1040
0
    1040
0
    1070
0
    1002
}
    1000
IsFill
    1070
0
    1000
PathStart
    1040
0
    1000
ToolCompensation
    1002
{
    1070
0
    1040
0
    1070
0
    1002
}
       0
CIRCLE
       5
2089
     100
AcDbEntity
       8
1
     100
AcDbCircle
      10
17.1398669272
      20
0
      30
0
      40
5
    1001
FS_CYPCUT
    1000
Channel
    1070
1
    1000
LeadIn
    1002
{
    1070
3
    1040
2.77555756156289E-17
    1040
1.5707963267949
    1040
0.5
    1040
0.3
    1070
0
    1040
0.5
    1070
0
    1002
}
    1000
LeadOut
    1002
{
    1070
0
    1040
0
    1040
0
    1040
0
    1070
0
    1002
}
    1000
IsFill
    1070
0
    1000
PathStart
    1040
2.77555756156289E-17
    1000
ToolCompensation
    1002
{
    1070
0
    1040
0
    1070
0
    1002
}
       0
LWPOLYLINE
       5
208A
     100
AcDbEntity
       8
1
     100
AcDbPolyline
      90
8
      70
1
      10
6.1398669272
      20
26
      42
0.414213562373096
      10
2.1398669272
      20
30
      42
0
      10
-29
      20
30
      42
0.414213562373095
      10
-33
      20
26
      42
0
      10
-33
      20
-26
      42
0.414213562373095
      10
-29
      20
-30
      42
0
      10
2.1398669272
      20
-30
      42
0.414213562373095
      10
6.1398669272
      20
-26
      42
0
    1001
FS_CYPCUT
    1000
Channel
    1070
1
    1000
LeadIn
    1002
{
    1070
3
    1040
7.5
    1040
1.5707963267949
    1040
0.5
    1040
0.3
    1070
0
    1040
0.5
    1070
0
    1002
}
    1000
LeadOut
    1002
{
    1070
0
    1040
0
    1040
0
    1040
0
    1070
0
    1002
}
    1000
IsFill
    1070
0
    1000
PathStart
    1040
7.5
    1000
ToolCompensation
    1002
{
    1070
0
    1040
0
    1070
0
    1002
}
       0
LINE
       5
208B
     100
AcDbEntity
       8
2
     100
AcDbLine
      10
0.0699334636
      20
30
      30
0
      11
0.0699334636
      21
57.9448908754
      31
0
    1001
FS_CYPCUT
    1000
Channel
    1070
2
    1000
LeadIn
    1002
{
    1070
3
    1040
0
    1040
1.5707963267949
    1040
0.5
    1040
0.3
    1070
0
    1040
0.5
    1070
0
    1002
}
    1000
LeadOut
    1002
{
    1070
0
    1040
0
    1040
0
    1040
0
    1070
0
    1002
}
    1000
IsFill
    1070
0
    1000
PathStart
    1040
0
    1000
ToolCompensation
    1002
{
    1070
0
    1040
0
    1070
0
    1002
}
       0
LWPOLYLINE
       5
208C
     100
AcDbEntity
       8
1
     100
AcDbPolyline
      90
28
      70
1
      10
30.1398669271999
      20
35.5110905751
      42
0
      10
30.1398669271999
      20
-35.5110905751
      42
-0.244698443229034
      10
28.4341726726042
      20
-38.7876987522559
      42
0
      10
2.0098669272
      20
-57.2901968271
      42
0
      10
-1.87
      20
-58.5995849236
      42
0
      10
-6
      20
-58.5995849236
      42
0.414213562373095
      10
-10
      20
-62.5995849236
      42
0
      10
-9.99999999999458
      20
-72.583801512902
      42
0.305614684580899
      10
-15.0000000000001
      20
-80
      42
0
      10
-15
      20
-85
      42
0.305614684580902
      10
-10
      20
-92.4161984871
      42
0
      10
-10
      20
-121
      42
-0.414213562373091
      10
-14
      20
-125
      42
0
      10
-65
      20
-125
      42
-0.414213562373095
      10
-70
      20
-120
      42
0
      10
-70
      20
120
      42
-0.414213562373092
      10
-65
      20
125
      42
0
      10
-14
      20
125
      42
-0.414213562373098
      10
-10
      20
121
      42
0
      10
-10
      20
92.4161984871
      42
0.305614684580901
      10
-15
      20
85
      42
0
      10
-15
      20
80
      42
0.305614684580902
      10
-9.99999999999455
      20
72.5838015129021
      42
0
      10
-9.99999999999999
      20
62.5995849236
      42
0.414213562373093
      10
-6
      20
58.5995849236
      42
0
      10
-1.87
      20
58.5995849236
      42
0
      10
2.0098669272
      20
57.2901968271
      42
0
      10
28.4341726726
      20
38.7876987522
      42
-0.244698443229032
    1001
FS_CYPCUT
    1000
Channel
    1070
1
    1000
LeadIn
    1002
{
    1070
3
    1040
14.5
    1040
1.5707963267949
    1040
0.5
    1040
0.3
    1070
0
    1040
0.5
    1070
0
    1002
}
    1000
LeadOut
    1002
{
    1070
0
    1040
0
    1040
0
    1040
0
    1070
0
    1002
}
    1000
IsFill
    1070
1
    1000
PathStart
    1040
14.5
    1000
ToolCompensation
    1002
{
    1070
0
    1040
0
    1070
0
    1002
}
    1000
MicroConnect
    1002
{
    1070
3
    1040
0.5
    1041
0.6
    1042
0
    1040
14.2103204
    1041
0.6
    1042
0
    1040
14.812557
    1041
0.6
    1042
0
    1002
}
       0
ENDBLK
       5
208D
     330
200F
     100
AcDbEntity
       8
0
     100
AcDbBlockEnd
       0
BLOCK
       5
208E
     330
2010
     100
AcDbEntity
       8
0
     100
AcDbBlockBegin
       2
Part1987865876
      70
0
      10
-9.32587341E-15
      20
-57.5
      30
0
       3
Part1987865876
       1

       4
CypCutBlock
       0
LWPOLYLINE
       5
208F
     100
AcDbEntity
       8
1
     100
AcDbPolyline
      90
4
      70
1
      10
14
      20
-41.4
      42
0
      10
6
      20
-41.4
      42
1
      10
6
      20
-46.6
      42
0
      10
14
      20
-46.6
      42
1
    1001
FS_CYPCUT
    1000
Channel
    1070
1
    1000
LeadIn
    1002
{
    1070
3
    1040
0.5
    1040
1.5707963267949
    1040
0.5
    1040
0.3
    1070
0
    1040
0.5
    1070
0
    1002
}
    1000
LeadOut
    1002
{
    1070
0
    1040
0
    1040
0
    1040
0
    1070
0
    1002
}
    1000
IsFill
    1070
0
    1000
PathStart
    1040
0.5
    1000
ToolCompensation
    1002
{
    1070
0
    1040
0
    1070
0
    1002
}
       0
LWPOLYLINE
       5
2090
     100
AcDbEntity
       8
1
     100
AcDbPolyline
      90
15
      70
1
      10
38
      20
-3
      42
0
      10
38
      20
-23
      42
-0.414213562373095
      10
35
      20
-26
      42
0
      10
23
      20
-26
      42
0.414213562373095
      10
20
      20
-29
      42
0
      10
20
      20
-54.5
      42
-0.414213562373096
      10
17
      20
-57.5
      42
0
      10
3
      20
-57.5
      42
-0.414213562373092
      10
-7.105427357601E-15
      20
-54.5
      42
0
      10
0
      20
-27
      42
-0.414213562373096
      10
1
      20
-26
      42
0.414213562373096
      10
2
      20
-25
      42
0
      10
2
      20
-3
      42
-0.414213562373095
      10
5
      20
8.88178419700125E-16
      42
0
      10
35
      20
0
      42
-0.414213562373098
    1001
FS_CYPCUT
    1000
Channel
    1070
1
    1000
LeadIn
    1002
{
    1070
3
    1040
13.5103485
    1040
1.5707963267949
    1040
0.5
    1040
0.3
    1070
0
    1040
0.5
    1070
0
    1002
}
    1000
LeadOut
    1002
{
    1070
0
    1040
0
    1040
0
    1040
0
    1070
0
    1002
}
    1000
IsFill
    1070
1
    1000
PathStart
    1040
13.5
    1000
ToolCompensation
    1002
{
    1070
0
    1040
0
    1070
0
    1002
}
    1000
MicroConnect
    1002
{
    1070
2
    1040
6.53498839
    1041
0.6
    1042
0
    1040
13.4903485
    1041
0.6
    1042
0
    1002
}
       0
ENDBLK
       5
2091
     330
2010
     100
AcDbEntity
       8
0
     100
AcDbBlockEnd
       0
BLOCK
       5
2092
     330
2011
     100
AcDbEntity
       8
0
     100
AcDbBlockBegin
       2
Part319573354
      70
0
      10
-17
      20
-30
      30
0
       3
Part319573354
       1

       4
CypCutBlock
       0
LINE
       5
2093
     100
AcDbEntity
       8
2
     100
AcDbLine
      10
-1.9300665364
      20
-30
      30
0
      11
-1.9300665364
      21
30
      31
0
    1001
FS_CYPCUT
    1000
Channel
    1070
2
    1000
LeadIn
    1002
{
    1070
3
    1040
0
    1040
1.5707963267949
    1040
0.5
    1040
0.3
    1070
0
    1040
0.5
    1070
0
    1002
}
    1000
LeadOut
    1002
{
    1070
0
    1040
0
    1040
0
    1040
0
    1070
0
    1002
}
    1000
IsFill
    1070
0
    1000
PathStart
    1040
0
    1000
ToolCompensation
    1002
{
    1070
0
    1040
0
    1070
0
    1002
}
       0
CIRCLE
       5
2094
     100
AcDbEntity
       8
1
     100
AcDbCircle
      10
13.1398669272
      20
0
      30
0
      40
3.00000000000001
    1001
FS_CYPCUT
    1000
Channel
    1070
1
    1000
LeadIn
    1002
{
    1070
3
    1040
0
    1040
1.5707963267949
    1040
0.5
    1040
0.3
    1070
0
    1040
0.5
    1070
0
    1002
}
    1000
LeadOut
    1002
{
    1070
0
    1040
0
    1040
0
    1040
0
    1070
0
    1002
}
    1000
IsFill
    1070
0
    1000
PathStart
    1040
0
    1000
ToolCompensation
    1002
{
    1070
0
    1040
0
    1070
0
    1002
}
       0
LWPOLYLINE
       5
2095
     100
AcDbEntity
       8
1
     100
AcDbPolyline
      90
8
      70
1
      10
21.1398669272
      20
26
      42
0.414213562373095
      10
17.1398669272
      20
30
      42
0
      10
-13
      20
30
      42
0.414213562373094
      10
-17
      20
26
      42
0
      10
-17
      20
-26
      42
0.414213562373095
      10
-13
      20
-30
      42
0
      10
17.1398669272
      20
-30
      42
0.414213562373094
      10
21.1398669272
      20
-26
      42
0
    1001
FS_CYPCUT
    1000
Channel
    1070
1
    1000
LeadIn
    1002
{
    1070
3
    1040
3.50623293153846
    1040
1.5707963267949
    1040
0.5
    1040
0.3
    1070
0
    1040
0.5
    1070
0
    1002
}
    1000
LeadOut
    1002
{
    1070
0
    1040
0
    1040
0
    1040
0
    1070
0
    1002
}
    1000
IsFill
    1070
1
    1000
PathStart
    1040
3.5
    1000
ToolCompensation
    1002
{
    1070
0
    1040
0
    1070
0
    1002
}
    1000
MicroConnect
    1002
{
    1070
2
    1040
3.49469447
    1041
0.6
    1042
0
    1040
7.49906191
    1041
0.6
    1042
0
    1002
}
       0
ENDBLK
       5
2096
     330
2011
     100
AcDbEntity
       8
0
     100
AcDbBlockEnd
       0
BLOCK
       5
2097
     330
2012
     100
AcDbEntity
       8
0
     100
AcDbBlockBegin
       2
Part140180262
      70
0
      10
-70
      20
-125
      30
0
       3
Part140180262
       1

       4
CypCutBlock
       0
LINE
       5
2098
     100
AcDbEntity
       8
2
     100
AcDbLine
      10
0.0699334636
      20
-57.9448908754
      30
0
      11
0.0699334636
      21
-30
      31
0
    1001
FS_CYPCUT
    1000
Channel
    1070
2
    1000
LeadIn
    1002
{
    1070
3
    1040
0
    1040
1.5707963267949
    1040
0.5
    1040
0.3
    1070
0
    1040
0.5
    1070
0
    1002
}
    1000
LeadOut
    1002
{
    1070
0
    1040
0
    1040
0
    1040
0
    1070
0
    1002
}
    1000
IsFill
    1070
0
    1000
PathStart
    1040
0
    1000
ToolCompensation
    1002
{
    1070
0
    1040
0
    1070
0
    1002
}
       0
CIRCLE
       5
2099
     100
AcDbEntity
       8
1
     100
AcDbCircle
      10
17.1398669272
      20
0
      30
0
      40
5
    1001
FS_CYPCUT
    1000
Channel
    1070
1
    1000
LeadIn
    1002
{
    1070
3
    1040
2.77555756156289E-17
    1040
1.5707963267949
    1040
0.5
    1040
0.3
    1070
0
    1040
0.5
    1070
0
    1002
}
    1000
LeadOut
    1002
{
    1070
0
    1040
0
    1040
0
    1040
0
    1070
0
    1002
}
    1000
IsFill
    1070
0
    1000
PathStart
    1040
2.77555756156289E-17
    1000
ToolCompensation
    1002
{
    1070
0
    1040
0
    1070
0
    1002
}
       0
LWPOLYLINE
       5
209A
     100
AcDbEntity
       8
1
     100
AcDbPolyline
      90
8
      70
1
      10
6.1398669272
      20
26
      42
0.414213562373096
      10
2.1398669272
      20
30
      42
0
      10
-29
      20
30
      42
0.414213562373095
      10
-33
      20
26
      42
0
      10
-33
      20
-26
      42
0.414213562373095
      10
-29
      20
-30
      42
0
      10
2.1398669272
      20
-30
      42
0.414213562373095
      10
6.1398669272
      20
-26
      42
0
    1001
FS_CYPCUT
    1000
Channel
    1070
1
    1000
LeadIn
    1002
{
    1070
3
    1040
7.5
    1040
1.5707963267949
    1040
0.5
    1040
0.3
    1070
0
    1040
0.5
    1070
0
    1002
}
    1000
LeadOut
    1002
{
    1070
0
    1040
0
    1040
0
    1040
0
    1070
0
    1002
}
    1000
IsFill
    1070
0
    1000
PathStart
    1040
7.5
    1000
ToolCompensation
    1002
{
    1070
0
    1040
0
    1070
0
    1002
}
       0
LINE
       5
209B
     100
AcDbEntity
       8
2
     100
AcDbLine
      10
0.0699334636
      20
30
      30
0
      11
0.0699334636
      21
57.9448908754
      31
0
    1001
FS_CYPCUT
    1000
Channel
    1070
2
    1000
LeadIn
    1002
{
    1070
3
    1040
0
    1040
1.5707963267949
    1040
0.5
    1040
0.3
    1070
0
    1040
0.5
    1070
0
    1002
}
    1000
LeadOut
    1002
{
    1070
0
    1040
0
    1040
0
    1040
0
    1070
0
    1002
}
    1000
IsFill
    1070
0
    1000
PathStart
    1040
0
    1000
ToolCompensation
    1002
{
    1070
0
    1040
0
    1070
0
    1002
}
       0
LWPOLYLINE
       5
209C
     100
AcDbEntity
       8
1
     100
AcDbPolyline
      90
28
      70
1
      10
30.1398669271999
      20
35.5110905751
      42
0
      10
30.1398669271999
      20
-35.5110905751
      42
-0.244698443229034
      10
28.4341726726042
      20
-38.7876987522559
      42
0
      10
2.0098669272
      20
-57.2901968271
      42
0
      10
-1.87
      20
-58.5995849236
      42
0
      10
-6
      20
-58.5995849236
      42
0.414213562373095
      10
-10
      20
-62.5995849236
      42
0
      10
-9.99999999999458
      20
-72.583801512902
      42
0.305614684580899
      10
-15.0000000000001
      20
-80
      42
0
      10
-15
      20
-85
      42
0.305614684580902
      10
-10
      20
-92.4161984871
      42
0
      10
-10
      20
-121
      42
-0.414213562373091
      10
-14
      20
-125
      42
0
      10
-65
      20
-125
      42
-0.414213562373095
      10
-70
      20
-120
      42
0
      10
-70
      20
120
      42
-0.414213562373092
      10
-65
      20
125
      42
0
      10
-14
      20
125
      42
-0.414213562373098
      10
-10
      20
121
      42
0
      10
-10
      20
92.4161984871
      42
0.305614684580901
      10
-15
      20
85
      42
0
      10
-15
      20
80
      42
0.305614684580902
      10
-9.99999999999455
      20
72.5838015129021
      42
0
      10
-9.99999999999999
      20
62.5995849236
      42
0.414213562373093
      10
-6
      20
58.5995849236
      42
0
      10
-1.87
      20
58.5995849236
      42
0
      10
2.0098669272
      20
57.2901968271
      42
0
      10
28.4341726726
      20
38.7876987522
      42
-0.244698443229032
    1001
FS_CYPCUT
    1000
Channel
    1070
1
    1000
LeadIn
    1002
{
    1070
3
    1040
14.5
    1040
1.5707963267949
    1040
0.5
    1040
0.3
    1070
0
    1040
0.5
    1070
0
    1002
}
    1000
LeadOut
    1002
{
    1070
0
    1040
0
    1040
0
    1040
0
    1070
0
    1002
}
    1000
IsFill
    1070
1
    1000
PathStart
    1040
14.5
    1000
ToolCompensation
    1002
{
    1070
0
    1040
0
    1070
0
    1002
}
    1000
MicroConnect
    1002
{
    1070
3
    1040
0.5
    1041
0.6
    1042
0
    1040
14.2103204
    1041
0.6
    1042
0
    1040
14.812557
    1041
0.6
    1042
0
    1002
}
       0
ENDBLK
       5
209D
     330
2012
     100
AcDbEntity
       8
0
     100
AcDbBlockEnd
       0
BLOCK
       5
209E
     330
2013
     100
AcDbEntity
       8
0
     100
AcDbBlockBegin
       2
Part72699077
      70
0
      10
-79.6398669
      20
-60.2197825
      30
0
       3
Part72699077
       1

       4
CypCutBlock
       0
LINE
       5
209F
     100
AcDbEntity
       8
2
     100
AcDbLine
      10
-56.5699334636
      20
0
      30
0
      11
-56.5699334636
      21
50
      31
0
    1001
FS_CYPCUT
    1000
Channel
    1070
2
    1000
LeadIn
    1002
{
    1070
3
    1040
0
    1040
1.5707963267949
    1040
0.5
    1040
0.3
    1070
0
    1040
0.5
    1070
0
    1002
}
    1000
LeadOut
    1002
{
    1070
0
    1040
0
    1040
0
    1040
0
    1070
0
    1002
}
    1000
IsFill
    1070
0
    1000
PathStart
    1040
0
    1000
ToolCompensation
    1002
{
    1070
0
    1040
0
    1070
0
    1002
}
       0
LWPOLYLINE
       5
20A0
     100
AcDbEntity
       8
1
     100
AcDbPolyline
      90
4
      70
1
      10
-65.2898669272
      20
40
      42
1
      10
-70.4898669272
      20
40
      42
0
      10
-70.4898669272
      20
10
      42
1
      10
-65.2898669272
      20
10
      42
0
    1001
FS_CYPCUT
    1000
Channel
    1070
1
    1000
LeadIn
    1002
{
    1070
3
    1040
1.5
    1040
1.5707963267949
    1040
0.5
    1040
0.3
    1070
0
    1040
0.5
    1070
0
    1002
}
    1000
LeadOut
    1002
{
    1070
0
    1040
0
    1040
0
    1040
0
    1070
0
    1002
}
    1000
IsFill
    1070
0
    1000
PathStart
    1040
1.5
    1000
ToolCompensation
    1002
{
    1070
0
    1040
0
    1070
0
    1002
}
       0
LINE
       5
20A1
     100
AcDbEntity
       8
2
     100
AcDbLine
      10
-54.63
      20
-0.5388704066
      30
0
      11
54.63
      21
-0.5388704066
      31
0
    1001
FS_CYPCUT
    1000
Channel
    1070
2
    1000
LeadIn
    1002
{
    1070
3
    1040
0
    1040
1.5707963267949
    1040
0.1194352033
    1040
0.3
    1070
0
    1040
0.5
    1070
0
    1002
}
    1000
LeadOut
    1002
{
    1070
0
    1040
0
    1040
0
    1040
0
    1070
0
    1002
}
    1000
IsFill
    1070
0
    1000
PathStart
    1040
0
    1000
ToolCompensation
    1002
{
    1070
0
    1040
0
    1070
0
    1002
}
       0
LINE
       5
20A2
     100
AcDbEntity
       8
2
     100
AcDbLine
      10
56.5699334636
      20
0
      30
0
      11
56.5699334636
      21
50
      31
0
    1001
FS_CYPCUT
    1000
Channel
    1070
2
    1000
LeadIn
    1002
{
    1070
3
    1040
0
    1040
1.5707963267949
    1040
0.5
    1040
0.3
    1070
0
    1040
0.5
    1070
0
    1002
}
    1000
LeadOut
    1002
{
    1070
0
    1040
0
    1040
0
    1040
0
    1070
0
    1002
}
    1000
IsFill
    1070
0
    1000
PathStart
    1040
0
    1000
ToolCompensation
    1002
{
    1070
0
    1040
0
    1070
0
    1002
}
       0
LWPOLYLINE
       5
20A3
     100
AcDbEntity
       8
1
     100
AcDbPolyline
      90
4
      70
1
      10
70.4898669272
      20
40
      42
1
      10
65.2898669272
      20
40
      42
0
      10
65.2898669272
      20
10
      42
1
      10
70.4898669272
      20
10
      42
0
    1001
FS_CYPCUT
    1000
Channel
    1070
1
    1000
LeadIn
    1002
{
    1070
3
    1040
1.5
    1040
1.5707963267949
    1040
0.5
    1040
0.3
    1070
0
    1040
0.5
    1070
0
    1002
}
    1000
LeadOut
    1002
{
    1070
0
    1040
0
    1040
0
    1040
0
    1070
0
    1002
}
    1000
IsFill
    1070
0
    1000
PathStart
    1040
1.5
    1000
ToolCompensation
    1002
{
    1070
0
    1040
0
    1070
0
    1002
}
       0
LWPOLYLINE
       5
20A4
     100
AcDbEntity
       8
1
     100
AcDbPolyline
      90
14
      70
1
      10
79.6398669272
      20
45
      42
0
      10
79.6398669272
      20
5
      42
-0.414213562373095
      10
74.6398669272
      20
0
      42
0
      10
54.63
      20
0
      42
0
      10
54.63
      20
-55.2197824687
      42
-0.414213562373097
      10
49.63
      20
-60.2197824687
      42
0
      10
-49.63
      20
-60.2197824687
      42
-0.414213562373095
      10
-54.63
      20
-55.2197824687
      42
0
      10
-54.63
      20
0
      42
0
      10
-74.6398669272
      20
0
      42
-0.414213562373095
      10
-79.6398669272
      20
5
      42
0
      10
-79.6398669272
      20
45
      42
-0.414213562373095
      10
-74.6398669272
      20
50
      42
0
      10
74.6398669272
      20
50
      42
-0.414213562373098
    1001
FS_CYPCUT
    1000
Channel
    1070
1
    1000
LeadIn
    1002
{
    1070
3
    1040
12.5023369997704
    1040
1.5707963267949
    1040
0.5
    1040
0.3
    1070
0
    1040
0.5
    1070
0
    1002
}
    1000
LeadOut
    1002
{
    1070
0
    1040
0
    1040
0
    1040
0
    1070
0
    1002
}
    1000
IsFill
    1070
1
    1000
PathStart
    1040
12.5
    1000
ToolCompensation
    1002
{
    1070
0
    1040
0
    1070
0
    1002
}
    1000
MicroConnect
    1002
{
    1070
2
    1040
5.44854175
    1041
0.6
    1042
0
    1040
12.4983177
    1041
0.6
    1042
0
    1002
}
       0
ENDBLK
       5
20A5
     330
2013
     100
AcDbEntity
       8
0
     100
AcDbBlockEnd
       0
BLOCK
       5
20A6
     330
2014
     100
AcDbEntity
       8
0
     100
AcDbBlockBegin
       2
Part1762298473
      70
0
      10
-31.1398669
      20
-97.5925152
      30
0
       3
Part1762298473
       1

       4
CypCutBlock
       0
LINE
       5
20A7
     100
AcDbEntity
       8
2
     100
AcDbLine
      10
-31.1398669272
      20
-52.7155481626
      30
0
      11
-0.0098669272
      21
-52.7155481626
      31
0
    1001
FS_CYPCUT
    1000
Channel
    1070
2
    1000
LeadIn
    1002
{
    1070
3
    1040
0
    1040
1.5707963267949
    1040
0.5
    1040
0.3
    1070
0
    1040
0.5
    1070
0
    1002
}
    1000
LeadOut
    1002
{
    1070
0
    1040
0
    1040
0
    1040
0
    1070
0
    1002
}
    1000
IsFill
    1070
0
    1000
PathStart
    1040
0
    1000
ToolCompensation
    1002
{
    1070
0
    1040
0
    1070
0
    1002
}
       0
LINE
       5
20A8
     100
AcDbEntity
       8
2
     100
AcDbLine
      10
3.87
      20
-53.1466444879
      30
0
      11
40
      21
-53.1466444879
      31
0
    1001
FS_CYPCUT
    1000
Channel
    1070
2
    1000
LeadIn
    1002
{
    1070
3
    1040
0
    1040
1.5707963267949
    1040
0.17332224395
    1040
0.3
    1070
0
    1040
0.5
    1070
0
    1002
}
    1000
LeadOut
    1002
{
    1070
0
    1040
0
    1040
0
    1040
0
    1070
0
    1002
}
    1000
IsFill
    1070
0
    1000
PathStart
    1040
0
    1000
ToolCompensation
    1002
{
    1070
0
    1040
0
    1070
0
    1002
}
       0
CIRCLE
       5
20A9
     100
AcDbEntity
       8
1
     100
AcDbCircle
      10
22.5
      20
-37.5
      30
0
      40
1.75
    1001
FS_CYPCUT
    1000
Channel
    1070
1
    1000
LeadIn
    1002
{
    1070
3
    1040
2.22044604925031E-16
    1040
1.5707963267949
    1040
0.5
    1040
0.3
    1070
0
    1040
0.5
    1070
0
    1002
}
    1000
LeadOut
    1002
{
    1070
0
    1040
0
    1040
0
    1040
0
    1070
0
    1002
}
    1000
IsFill
    1070
0
    1000
PathStart
    1040
2.22044604925031E-16
    1000
ToolCompensation
    1002
{
    1070
0
    1040
0
    1070
0
    1002
}
       0
LWPOLYLINE
       5
20AA
     100
AcDbEntity
       8
1
     100
AcDbPolyline
      90
4
      70
1
      10
30.1
      20
-28.4
      42
0
      10
14.9
      20
-28.4
      42
0
      10
14.9
      20
-30.5
      42
0
      10
30.1
      20
-30.5
      42
0
    1001
FS_CYPCUT
    1000
Channel
    1070
1
    1000
LeadIn
    1002
{
    1070
3
    1040
0.5
    1040
1.5707963267949
    1040
0.5
    1040
0.3
    1070
0
    1040
0.5
    1070
0
    1002
}
    1000
LeadOut
    1002
{
    1070
0
    1040
0
    1040
0
    1040
0
    1070
0
    1002
}
    1000
IsFill
    1070
0
    1000
PathStart
    1040
0.5
    1000
ToolCompensation
    1002
{
    1070
0
    1040
0
    1070
0
    1002
}
       0
LINE
       5
20AB
     100
AcDbEntity
       8
2
     100
AcDbLine
      10
1.9300665364
      20
-52.5
      30
0
      11
1.9300665364
      21
52.5
      31
0
    1001
FS_CYPCUT
    1000
Channel
    1070
2
    1000
LeadIn
    1002
{
    1070
3
    1040
0
    1040
1.5707963267949
    1040
0.5
    1040
0.3
    1070
0
    1040
0.5
    1070
0
    1002
}
    1000
LeadOut
    1002
{
    1070
0
    1040
0
    1040
0
    1040
0
    1070
0
    1002
}
    1000
IsFill
    1070
0
    1000
PathStart
    1040
0
    1000
ToolCompensation
    1002
{
    1070
0
    1040
0
    1070
0
    1002
}
       0
CIRCLE
       5
20AC
     100
AcDbEntity
       8
1
     100
AcDbCircle
      10
22.5
      20
37.5
      30
0
      40
1.75000000000001
    1001
FS_CYPCUT
    1000
Channel
    1070
1
    1000
LeadIn
    1002
{
    1070
3
    1040
0
    1040
1.5707963267949
    1040
0.5
    1040
0.3
    1070
0
    1040
0.5
    1070
0
    1002
}
    1000
LeadOut
    1002
{
    1070
0
    1040
0
    1040
0
    1040
0
    1070
0
    1002
}
    1000
IsFill
    1070
0
    1000
PathStart
    1040
0
    1000
ToolCompensation
    1002
{
    1070
0
    1040
0
    1070
0
    1002
}
       0
LWPOLYLINE
       5
20AD
     100
AcDbEntity
       8
1
     100
AcDbPolyline
      90
16
      70
1
      10
40
      20
47.5
      42
0.414213562373093
      10
35
      20
52.5
      42
0
      10
-4.0687991153
      20
52.4999999999999
      42
0.198912367379659
      10
-7.60433302123268
      20
51.0355339059327
      42
0
      10
-29.6754008331
      20
28.9644660941
      42
0.198912367379657
      10
-31.1398669272
      20
25.4289321881
      42
0
      10
-31.1398669272
      20
-92.5925151974
      42
0.414213562373096
      10
-26.1398669272
      20
-97.5925151974
      42
0
      10
-5.0098669272
      20
-97.5925151974
      42
0.414213562373097
      10
-0.0098669272
      20
-92.5925151974
      42
0
      10
-0.0098669272
      20
-52.5
      42
0
      10
3.87
      20
-52.5
      42
0
      10
3.87
      20
-67.756325601
      42
0.414213562373095
      10
8.87
      20
-72.756325601
      42
0
      10
35
      20
-72.756325601
      42
0.414213562373095
      10
40
      20
-67.756325601
      42
0
    1001
FS_CYPCUT
    1000
Channel
    1070
1
    1000
LeadIn
    1002
{
    1070
3
    1040
5.50253862173996
    1040
1.5707963267949
    1040
0.5
    1040
0.3
    1070
0
    1040
0.5
    1070
0
    1002
}
    1000
LeadOut
    1002
{
    1070
0
    1040
0
    1040
0
    1040
0
    1070
0
    1002
}
    1000
IsFill
    1070
1
    1000
PathStart
    1040
5.5
    1000
ToolCompensation
    1002
{
    1070
0
    1040
0
    1070
0
    1002
}
    1000
MicroConnect
    1002
{
    1070
2
    1040
5.4974548
    1041
0.6
    1042
0
    1040
15.5838886
    1041
0.6
    1042
0
    1002
}
       0
ENDBLK
       5
20AE
     330
2014
     100
AcDbEntity
       8
0
     100
AcDbBlockEnd
       0
BLOCK
       5
20AF
     330
2015
     100
AcDbEntity
       8
0
     100
AcDbBlockBegin
       2
Part1993278590
      70
0
      10
-75
      20
-69.5965984
      30
0
       3
Part1993278590
       1

       4
CypCutBlock
       0
LINE
       5
20B0
     100
AcDbEntity
       8
2
     100
AcDbLine
      10
-75
      20
-51.4551937287
      30
0
      11
-35
      21
-51.4551937287
      31
0
    1001
FS_CYPCUT
    1000
Channel
    1070
2
    1000
LeadIn
    1002
{
    1070
3
    1040
0
    1040
1.5707963267949
    1040
0.5
    1040
0.3
    1070
0
    1040
0.5
    1070
0
    1002
}
    1000
LeadOut
    1002
{
    1070
0
    1040
0
    1040
0
    1040
0
    1070
0
    1002
}
    1000
IsFill
    1070
0
    1000
PathStart
    1040
0
    1000
ToolCompensation
    1002
{
    1070
0
    1040
0
    1070
0
    1002
}
       0
LINE
       5
20B1
     100
AcDbEntity
       8
2
     100
AcDbLine
      10
-35
      20
-5.2291917589
      30
0
      11
-75
      21
-5.2291917589
      31
0
    1001
FS_CYPCUT
    1000
Channel
    1070
2
    1000
LeadIn
    1002
{
    1070
3
    1040
0
    1040
1.5707963267949
    1040
0.5
    1040
0.3
    1070
0
    1040
0.5
    1070
0
    1002
}
    1000
LeadOut
    1002
{
    1070
0
    1040
0
    1040
0
    1040
0
    1070
0
    1002
}
    1000
IsFill
    1070
0
    1000
PathStart
    1040
0
    1000
ToolCompensation
    1002
{
    1070
0
    1040
0
    1070
0
    1002
}
       0
LWPOLYLINE
       5
20B2
     100
AcDbEntity
       8
1
     100
AcDbPolyline
      90
8
      70
1
      10
-45
      20
19
      42
0
      10
-45
      20
11
      42
-0.414213562373097
      10
-48
      20
8
      42
0
      10
-60
      20
7.99999999999999
      42
-0.414213562373093
      10
-63
      20
11
      42
0
      10
-63
      20
19
      42
-0.414213562373095
      10
-60
      20
22
      42
0
      10
-48
      20
22
      42
-0.414213562373093
    1001
FS_CYPCUT
    1000
Channel
    1070
1
    1000
LeadIn
    1002
{
    1070
3
    1040
2.5
    1040
1.5707963267949
    1040
0.5
    1040
0.3
    1070
0
    1040
0.5
    1070
0
    1002
}
    1000
LeadOut
    1002
{
    1070
0
    1040
0
    1040
0
    1040
0
    1070
0
    1002
}
    1000
IsFill
    1070
0
    1000
PathStart
    1040
2.5
    1000
ToolCompensation
    1002
{
    1070
0
    1040
0
    1070
0
    1002
}
       0
CIRCLE
       5
20B3
     100
AcDbEntity
       8
1
     100
AcDbCircle
      10
-55
      20
26.5
      30
0
      40
1.74999999999999
    1001
FS_CYPCUT
    1000
Channel
    1070
1
    1000
LeadIn
    1002
{
    1070
3
    1040
0
    1040
1.5707963267949
    1040
0.5
    1040
0.3
    1070
0
    1040
0.5
    1070
0
    1002
}
    1000
LeadOut
    1002
{
    1070
0
    1040
0
    1040
0
    1040
0
    1070
0
    1002
}
    1000
IsFill
    1070
0
    1000
PathStart
    1040
0
    1000
ToolCompensation
    1002
{
    1070
0
    1040
0
    1070
0
    1002
}
       0
CIRCLE
       5
20B4
     100
AcDbEntity
       8
1
     100
AcDbCircle
      10
-18.09
      20
9
      30
0
      40
2.49999999999999
    1001
FS_CYPCUT
    1000
Channel
    1070
1
    1000
LeadIn
    1002
{
    1070
3
    1040
0
    1040
1.5707963267949
    1040
0.5
    1040
0.3
    1070
0
    1040
0.5
    1070
0
    1002
}
    1000
LeadOut
    1002
{
    1070
0
    1040
0
    1040
0
    1040
0
    1070
0
    1002
}
    1000
IsFill
    1070
0
    1000
PathStart
    1040
1
    1000
ToolCompensation
    1002
{
    1070
0
    1040
0
    1070
0
    1002
}
       0
CIRCLE
       5
20B5
     100
AcDbEntity
       8
1
     100
AcDbCircle
      10
0
      20
26.5
      30
0
      40
1.74999999999999
    1001
FS_CYPCUT
    1000
Channel
    1070
1
    1000
LeadIn
    1002
{
    1070
3
    1040
0
    1040
1.5707963267949
    1040
0.5
    1040
0.3
    1070
0
    1040
0.5
    1070
0
    1002
}
    1000
LeadOut
    1002
{
    1070
0
    1040
0
    1040
0
    1040
0
    1070
0
    1002
}
    1000
IsFill
    1070
0
    1000
PathStart
    1040
1
    1000
ToolCompensation
    1002
{
    1070
0
    1040
0
    1070
0
    1002
}
       0
CIRCLE
       5
20B6
     100
AcDbEntity
       8
1
     100
AcDbCircle
      10
18.09
      20
9
      30
0
      40
2.5
    1001
FS_CYPCUT
    1000
Channel
    1070
1
    1000
LeadIn
    1002
{
    1070
3
    1040
0
    1040
1.5707963267949
    1040
0.5
    1040
0.3
    1070
0
    1040
0.5
    1070
0
    1002
}
    1000
LeadOut
    1002
{
    1070
0
    1040
0
    1040
0
    1040
0
    1070
0
    1002
}
    1000
IsFill
    1070
0
    1000
PathStart
    1040
0
    1000
ToolCompensation
    1002
{
    1070
0
    1040
0
    1070
0
    1002
}
       0
LWPOLYLINE
       5
20B7
     100
AcDbEntity
       8
1
     100
AcDbPolyline
      90
8
      70
1
      10
63
      20
19
      42
0.414213562373094
      10
60
      20
22
      42
0
      10
48
      20
22
      42
0.414213562373094
      10
45
      20
19
      42
0
      10
45
      20
11
      42
0.414213562373096
      10
48
      20
8
      42
0
      10
60
      20
7.99999999999999
      42
0.414213562373092
      10
63
      20
11
      42
0
    1001
FS_CYPCUT
    1000
Channel
    1070
1
    1000
LeadIn
    1002
{
    1070
3
    1040
1.5
    1040
1.5707963267949
    1040
0.5
    1040
0.3
    1070
0
    1040
0.5
    1070
0
    1002
}
    1000
LeadOut
    1002
{
    1070
0
    1040
0
    1040
0
    1040
0
    1070
0
    1002
}
    1000
IsFill
    1070
0
    1000
PathStart
    1040
1.5
    1000
ToolCompensation
    1002
{
    1070
0
    1040
0
    1070
0
    1002
}
       0
CIRCLE
       5
20B8
     100
AcDbEntity
       8
1
     100
AcDbCircle
      10
55
      20
26.5
      30
0
      40
1.74999999999999
    1001
FS_CYPCUT
    1000
Channel
    1070
1
    1000
LeadIn
    1002
{
    1070
3
    1040
0
    1040
1.5707963267949
    1040
0.5
    1040
0.3
    1070
0
    1040
0.5
    1070
0
    1002
}
    1000
LeadOut
    1002
{
    1070
0
    1040
0
    1040
0
    1040
0
    1070
0
    1002
}
    1000
IsFill
    1070
0
    1000
PathStart
    1040
0
    1000
ToolCompensation
    1002
{
    1070
0
    1040
0
    1070
0
    1002
}
       0
LINE
       5
20B9
     100
AcDbEntity
       8
2
     100
AcDbLine
      10
75
      20
-5.2291917589
      30
0
      11
35
      21
-5.2291917589
      31
0
    1001
FS_CYPCUT
    1000
Channel
    1070
2
    1000
LeadIn
    1002
{
    1070
3
    1040
0
    1040
1.5707963267949
    1040
0.5
    1040
0.3
    1070
0
    1040
0.5
    1070
0
    1002
}
    1000
LeadOut
    1002
{
    1070
0
    1040
0
    1040
0
    1040
0
    1070
0
    1002
}
    1000
IsFill
    1070
0
    1000
PathStart
    1040
0
    1000
ToolCompensation
    1002
{
    1070
0
    1040
0
    1070
0
    1002
}
       0
LINE
       5
20BA
     100
AcDbEntity
       8
2
     100
AcDbLine
      10
35
      20
-51.4551937287
      30
0
      11
75
      21
-51.4551937287
      31
0
    1001
FS_CYPCUT
    1000
Channel
    1070
2
    1000
LeadIn
    1002
{
    1070
3
    1040
0
    1040
1.5707963267949
    1040
0.5
    1040
0.3
    1070
0
    1040
0.5
    1070
0
    1002
}
    1000
LeadOut
    1002
{
    1070
0
    1040
0
    1040
0
    1040
0
    1070
0
    1002
}
    1000
IsFill
    1070
0
    1000
PathStart
    1040
0
    1000
ToolCompensation
    1002
{
    1070
0
    1040
0
    1070
0
    1002
}
       0
LWPOLYLINE
       5
20BB
     100
AcDbEntity
       8
1
     100
AcDbPolyline
      90
16
      70
1
      10
75
      20
29
      42
0.414213562373094
      10
70
      20
34
      42
0
      10
-70
      20
34
      42
0.414213562373099
      10
-75
      20
29
      42
0
      10
-75
      20
-64.5965984252
      42
0.414213562373095
      10
-70
      20
-69.5965984252
      42
0
      10
-40
      20
-69.5965984252
      42
0.414213562373099
      10
-35
      20
-64.5965984252
      42
0
      10
-35
      20
-2
      42
-0.414213562373095
      10
-33
      20
-1.3988810110277E-14
      42
0
      10
33
      20
0
      42
-0.414213562373093
      10
35
      20
-2
      42
0
      10
35
      20
-64.5965984252
      42
0.414213562373094
      10
40
      20
-69.5965984252
      42
0
      10
70
      20
-69.5965984252
      42
0.414213562373095
      10
75
      20
-64.5965984252
      42
0
    1001
FS_CYPCUT
    1000
Channel
    1070
1
    1000
LeadIn
    1002
{
    1070
3
    1040
1.50138166428571
    1040
1.5707963267949
    1040
0.5
    1040
0.3
    1070
0
    1040
0.5
    1070
0
    1002
}
    1000
LeadOut
    1002
{
    1070
0
    1040
0
    1040
0
    1040
0
    1070
0
    1002
}
    1000
IsFill
    1070
1
    1000
PathStart
    1040
1.5
    1000
ToolCompensation
    1002
{
    1070
0
    1040
0
    1070
0
    1002
}
    1000
MicroConnect
    1002
{
    1070
3
    1040
1.49709595
    1041
0.6
    1042
0
    1040
5.46634856
    1041
0.6
    1042
0
    1040
13.5224215
    1041
0.6
    1042
0
    1002
}
       0
ENDBLK
       5
20BC
     330
2015
     100
AcDbEntity
       8
0
     100
AcDbBlockEnd
       0
BLOCK
       5
20BD
     330
2016
     100
AcDbEntity
       8
0
     100
AcDbBlockBegin
       2
Part544915904
      70
0
      10
-79.6398669
      20
-60.2197825
      30
0
       3
Part544915904
       1

       4
CypCutBlock
       0
LINE
       5
20BE
     100
AcDbEntity
       8
2
     100
AcDbLine
      10
-56.5699334636
      20
0
      30
0
      11
-56.5699334636
      21
50
      31
0
    1001
FS_CYPCUT
    1000
Channel
    1070
2
    1000
LeadIn
    1002
{
    1070
3
    1040
0
    1040
1.5707963267949
    1040
0.5
    1040
0.3
    1070
0
    1040
0.5
    1070
0
    1002
}
    1000
LeadOut
    1002
{
    1070
0
    1040
0
    1040
0
    1040
0
    1070
0
    1002
}
    1000
IsFill
    1070
0
    1000
PathStart
    1040
0
    1000
ToolCompensation
    1002
{
    1070
0
    1040
0
    1070
0
    1002
}
       0
LWPOLYLINE
       5
20BF
     100
AcDbEntity
       8
1
     100
AcDbPolyline
      90
4
      70
1
      10
-65.2898669272
      20
40
      42
1
      10
-70.4898669272
      20
40
      42
0
      10
-70.4898669272
      20
10
      42
1
      10
-65.2898669272
      20
10
      42
0
    1001
FS_CYPCUT
    1000
Channel
    1070
1
    1000
LeadIn
    1002
{
    1070
3
    1040
1.5
    1040
1.5707963267949
    1040
0.5
    1040
0.3
    1070
0
    1040
0.5
    1070
0
    1002
}
    1000
LeadOut
    1002
{
    1070
0
    1040
0
    1040
0
    1040
0
    1070
0
    1002
}
    1000
IsFill
    1070
0
    1000
PathStart
    1040
1.5
    1000
ToolCompensation
    1002
{
    1070
0
    1040
0
    1070
0
    1002
}
       0
LINE
       5
20C0
     100
AcDbEntity
       8
2
     100
AcDbLine
      10
-54.63
      20
-0.5388704066
      30
0
      11
54.63
      21
-0.5388704066
      31
0
    1001
FS_CYPCUT
    1000
Channel
    1070
2
    1000
LeadIn
    1002
{
    1070
3
    1040
0
    1040
1.5707963267949
    1040
0.1194352033
    1040
0.3
    1070
0
    1040
0.5
    1070
0
    1002
}
    1000
LeadOut
    1002
{
    1070
0
    1040
0
    1040
0
    1040
0
    1070
0
    1002
}
    1000
IsFill
    1070
0
    1000
PathStart
    1040
0
    1000
ToolCompensation
    1002
{
    1070
0
    1040
0
    1070
0
    1002
}
       0
LINE
       5
20C1
     100
AcDbEntity
       8
2
     100
AcDbLine
      10
56.5699334636
      20
0
      30
0
      11
56.5699334636
      21
50
      31
0
    1001
FS_CYPCUT
    1000
Channel
    1070
2
    1000
LeadIn
    1002
{
    1070
3
    1040
0
    1040
1.5707963267949
    1040
0.5
    1040
0.3
    1070
0
    1040
0.5
    1070
0
    1002
}
    1000
LeadOut
    1002
{
    1070
0
    1040
0
    1040
0
    1040
0
    1070
0
    1002
}
    1000
IsFill
    1070
0
    1000
PathStart
    1040
0
    1000
ToolCompensation
    1002
{
    1070
0
    1040
0
    1070
0
    1002
}
       0
LWPOLYLINE
       5
20C2
     100
AcDbEntity
       8
1
     100
AcDbPolyline
      90
4
      70
1
      10
70.4898669272
      20
40
      42
1
      10
65.2898669272
      20
40
      42
0
      10
65.2898669272
      20
10
      42
1
      10
70.4898669272
      20
10
      42
0
    1001
FS_CYPCUT
    1000
Channel
    1070
1
    1000
LeadIn
    1002
{
    1070
3
    1040
1.5
    1040
1.5707963267949
    1040
0.5
    1040
0.3
    1070
0
    1040
0.5
    1070
0
    1002
}
    1000
LeadOut
    1002
{
    1070
0
    1040
0
    1040
0
    1040
0
    1070
0
    1002
}
    1000
IsFill
    1070
0
    1000
PathStart
    1040
1.5
    1000
ToolCompensation
    1002
{
    1070
0
    1040
0
    1070
0
    1002
}
       0
LWPOLYLINE
       5
20C3
     100
AcDbEntity
       8
1
     100
AcDbPolyline
      90
14
      70
1
      10
79.6398669272
      20
45
      42
0
      10
79.6398669272
      20
5
      42
-0.414213562373095
      10
74.6398669272
      20
0
      42
0
      10
54.63
      20
0
      42
0
      10
54.63
      20
-55.2197824687
      42
-0.414213562373097
      10
49.63
      20
-60.2197824687
      42
0
      10
-49.63
      20
-60.2197824687
      42
-0.414213562373095
      10
-54.63
      20
-55.2197824687
      42
0
      10
-54.63
      20
0
      42
0
      10
-74.6398669272
      20
0
      42
-0.414213562373095
      10
-79.6398669272
      20
5
      42
0
      10
-79.6398669272
      20
45
      42
-0.414213562373095
      10
-74.6398669272
      20
50
      42
0
      10
74.6398669272
      20
50
      42
-0.414213562373098
    1001
FS_CYPCUT
    1000
Channel
    1070
1
    1000
LeadIn
    1002
{
    1070
3
    1040
12.5023369997704
    1040
1.5707963267949
    1040
0.5
    1040
0.3
    1070
0
    1040
0.5
    1070
0
    1002
}
    1000
LeadOut
    1002
{
    1070
0
    1040
0
    1040
0
    1040
0
    1070
0
    1002
}
    1000
IsFill
    1070
1
    1000
PathStart
    1040
12.5
    1000
ToolCompensation
    1002
{
    1070
0
    1040
0
    1070
0
    1002
}
    1000
MicroConnect
    1002
{
    1070
2
    1040
5.44854175
    1041
0.6
    1042
0
    1040
12.4983177
    1041
0.6
    1042
0
    1002
}
       0
ENDBLK
       5
20C4
     330
2016
     100
AcDbEntity
       8
0
     100
AcDbBlockEnd
       0
BLOCK
       5
20C5
     330
2017
     100
AcDbEntity
       8
0
     100
AcDbBlockBegin
       2
Part291343841
      70
0
      10
0
      20
-2.8
      30
0
       3
Part291343841
       1

       4
CypCutBlock
       0
LWPOLYLINE
       5
20C6
     100
AcDbEntity
       8
1
     100
AcDbPolyline
      90
6
      70
1
      10
33.5740684775
      20
18.2803687993
      42
0
      10
18.536442559194
      20
36.3255199012299
      42
0.701472587177425
      10
15
      20
35.0451511019
      42
0
      10
15
      20
17
      42
0.414213562373095
      10
17
      20
15
      42
0
      10
32.0376259183
      20
15
      42
0.635878236046924
    1001
FS_CYPCUT
    1000
Channel
    1070
1
    1000
LeadIn
    1002
{
    1070
3
    1040
0.5
    1040
1.5707963267949
    1040
0.5
    1040
0.3
    1070
0
    1040
0.5
    1070
0
    1002
}
    1000
LeadOut
    1002
{
    1070
0
    1040
0
    1040
0
    1040
0
    1070
0
    1002
}
    1000
IsFill
    1070
0
    1000
PathStart
    1040
0.5
    1000
ToolCompensation
    1002
{
    1070
0
    1040
0
    1070
0
    1002
}
       0
LWPOLYLINE
       5
20C7
     100
AcDbEntity
       8
1
     100
AcDbPolyline
      90
13
      70
1
      10
60
      20
6.3795006482
      42
0.175452378764331
      10
57.682212796
      20
12.7813446448
      42
0
      10
27.9984633361699
      20
48.4018439966495
      42
0.222584881887647
      10
20.3162505402
      20
52
      42
0
      10
0
      20
52
      42
0
      10
0
      20
0
      42
0
      10
25
      20
0
      42
0
      10
25
      20
-1.8
      42
0.414213562373097
      10
26
      20
-2.80000000000001
      42
0
      10
39
      20
-2.8
      42
0.414213562373103
      10
40
      20
-1.8
      42
0
      10
40
      20
0
      42
0
      10
60
      20
0
      42
0
    1001
FS_CYPCUT
    1000
Channel
    1070
1
    1000
LeadIn
    1002
{
    1070
3
    1040
4.5
    1040
1.5707963267949
    1040
0.5
    1040
0.3
    1070
0
    1040
0.5
    1070
0
    1002
}
    1000
LeadOut
    1002
{
    1070
0
    1040
0
    1040
0
    1040
0
    1070
0
    1002
}
    1000
IsFill
    1070
1
    1000
PathStart
    1040
4.5
    1000
ToolCompensation
    1002
{
    1070
0
    1040
0
    1070
0
    1002
}
    1000
MicroConnect
    1002
{
    1070
2
    1040
3.44658824
    1041
0.6
    1042
0
    1040
8.43449656
    1041
0.6
    1042
0
    1002
}
       0
ENDBLK
       5
20C8
     330
2017
     100
AcDbEntity
       8
0
     100
AcDbBlockEnd
       0
BLOCK
       5
20C9
     330
2018
     100
AcDbEntity
       8
0
     100
AcDbBlockBegin
       2
Part870815066
      70
0
      10
-21.1398669
      20
-48.122524
      30
0
       3
Part870815066
       1

       4
CypCutBlock
       0
LINE
       5
20CA
     100
AcDbEntity
       8
2
     100
AcDbLine
      10
1.9300665364
      20
-48.122524
      30
0
      11
1.9300665364
      21
0
      31
0
    1001
FS_CYPCUT
    1000
Channel
    1070
2
    1000
LeadIn
    1002
{
    1070
3
    1040
0
    1040
1.5707963267949
    1040
0.5
    1040
0.3
    1070
0
    1040
0.5
    1070
0
    1002
}
    1000
LeadOut
    1002
{
    1070
0
    1040
0
    1040
0
    1040
0
    1070
0
    1002
}
    1000
IsFill
    1070
0
    1000
PathStart
    1040
0
    1000
ToolCompensation
    1002
{
    1070
0
    1040
0
    1070
0
    1002
}
       0
LWPOLYLINE
       5
20CB
     100
AcDbEntity
       8
1
     100
AcDbPolyline
      90
4
      70
1
      10
22.165
      20
-24.122524
      42
1
      10
13.965
      20
-24.122524
      42
0
      10
13.965
      20
-39.122524
      42
1
      10
22.165
      20
-39.122524
      42
0
    1001
FS_CYPCUT
    1000
Channel
    1070
1
    1000
LeadIn
    1002
{
    1070
3
    1040
1.5
    1040
1.5707963267949
    1040
0.5
    1040
0.3
    1070
0
    1040
0.5
    1070
0
    1002
}
    1000
LeadOut
    1002
{
    1070
0
    1040
0
    1040
0
    1040
0
    1070
0
    1002
}
    1000
IsFill
    1070
0
    1000
PathStart
    1040
1.5
    1000
ToolCompensation
    1002
{
    1070
0
    1040
0
    1070
0
    1002
}
       0
LWPOLYLINE
       5
20CC
     100
AcDbEntity
       8
1
     100
AcDbPolyline
      90
23
      70
1
      10
48
      20
17.8774756994
      42
0
      10
48
      20
-0.2245108489
      42
-0.153914721059828
      10
47.276608177156
      20
-2.5188165943042
      42
0
      10
36.8533918228
      20
-17.4047122546
      42
0.153914721059828
      10
36.13
      20
-19.699018
      42
0
      10
36.13
      20
-44.122524
      42
-0.414213562373097
      10
32.13
      20
-48.122524
      42
0
      10
-4.0687991153
      20
-48.122524
      42
-0.198912367379659
      10
-7.60433302123271
      20
-46.6580579059327
      42
0
      10
-19.6754008331327
      20
-34.5869900940327
      42
-0.198912367379659
      10
-21.1398669271999
      20
-31.0514561881
      42
0
      10
-21.1398669272
      20
0
      42
0
      10
10
      20
0
      42
0
      10
10
      20
0.8
      42
-0.414213562373095
      10
11
      20
1.8
      42
0
      10
24
      20
1.79999999999999
      42
-0.414213562373095
      10
25
      20
0.8
      42
0
      10
25
      20
0
      42
0
      10
36
      20
0
      42
0.414213562373095
      10
40
      20
4
      42
0
      10
40
      20
20.8774756994
      42
-0.414213562373091
      10
41
      20
21.8774756994
      42
0
      10
44
      20
21.8774756994
      42
-0.414213562373098
    1001
FS_CYPCUT
    1000
Channel
    1070
1
    1000
LeadIn
    1002
{
    1070
3
    1040
6.50879630549245
    1040
1.5707963267949
    1040
0.5
    1040
0.3
    1070
0
    1040
0.5
    1070
0
    1002
}
    1000
LeadOut
    1002
{
    1070
0
    1040
0
    1040
0
    1040
0
    1070
0
    1002
}
    1000
IsFill
    1070
1
    1000
PathStart
    1040
6.5
    1000
ToolCompensation
    1002
{
    1070
0
    1040
0
    1070
0
    1002
}
    1000
MicroConnect
    1002
{
    1070
2
    1040
6.49222117
    1041
0.6
    1042
0
    1040
14.5137916
    1041
0.6
    1042
0
    1002
}
       0
ENDBLK
       5
20CD
     330
2018
     100
AcDbEntity
       8
0
     100
AcDbBlockEnd
       0
BLOCK
       5
20CE
     330
2019
     100
AcDbEntity
       8
0
     100
AcDbBlockBegin
       2
Part1868617414
      70
0
      10
-29.1398669
      20
-20
      30
0
       3
Part1868617414
       1

       4
CypCutBlock
       0
LWPOLYLINE
       5
20CF
     100
AcDbEntity
       8
1
     100
AcDbPolyline
      90
4
      70
1
      10
-6.0098669272
      20
2.6
      42
0
      10
-23.1398669272
      20
2.6
      42
1
      10
-23.1398669272
      20
-2.6
      42
0
      10
-6.0098669272
      20
-2.6
      42
1
    1001
FS_CYPCUT
    1000
Channel
    1070
1
    1000
LeadIn
    1002
{
    1070
3
    1040
0.5
    1040
1.5707963267949
    1040
0.5
    1040
0.3
    1070
0
    1040
0.5
    1070
0
    1002
}
    1000
LeadOut
    1002
{
    1070
0
    1040
0
    1040
0
    1040
0
    1070
0
    1002
}
    1000
IsFill
    1070
0
    1000
PathStart
    1040
0.5
    1000
ToolCompensation
    1002
{
    1070
0
    1040
0
    1070
0
    1002
}
       0
LINE
       5
20D0
     100
AcDbEntity
       8
2
     100
AcDbLine
      10
1.9300665364
      20
20
      30
0
      11
1.9300665364
      21
-20
      31
0
    1001
FS_CYPCUT
    1000
Channel
    1070
2
    1000
LeadIn
    1002
{
    1070
3
    1040
0
    1040
1.5707963267949
    1040
0.5
    1040
0.3
    1070
0
    1040
0.5
    1070
0
    1002
}
    1000
LeadOut
    1002
{
    1070
0
    1040
0
    1040
0
    1040
0
    1070
0
    1002
}
    1000
IsFill
    1070
0
    1000
PathStart
    1040
0
    1000
ToolCompensation
    1002
{
    1070
0
    1040
0
    1070
0
    1002
}
       0
LWPOLYLINE
       5
20D1
     100
AcDbEntity
       8
1
     100
AcDbPolyline
      90
4
      70
1
      10
35
      20
3.1
      42
0
      10
15
      20
3.1
      42
1
      10
15
      20
-3.1
      42
0
      10
35
      20
-3.1
      42
1
    1001
FS_CYPCUT
    1000
Channel
    1070
1
    1000
LeadIn
    1002
{
    1070
3
    1040
0.5
    1040
1.5707963267949
    1040
0.5
    1040
0.3
    1070
0
    1040
0.5
    1070
0
    1002
}
    1000
LeadOut
    1002
{
    1070
0
    1040
0
    1040
0
    1040
0
    1070
0
    1002
}
    1000
IsFill
    1070
0
    1000
PathStart
    1040
0.5
    1000
ToolCompensation
    1002
{
    1070
0
    1040
0
    1070
0
    1002
}
       0
LWPOLYLINE
       5
20D2
     100
AcDbEntity
       8
1
     100
AcDbPolyline
      90
8
      70
1
      10
45
      20
15
      42
0
      10
45
      20
-15
      42
-0.414213562373096
      10
40
      20
-20
      42
0
      10
-24.1398669272
      20
-20
      42
-0.414213562373095
      10
-29.1398669272
      20
-15
      42
0
      10
-29.1398669272
      20
15
      42
-0.414213562373096
      10
-24.1398669272
      20
20
      42
0
      10
40
      20
20
      42
-0.414213562373096
    1001
FS_CYPCUT
    1000
Channel
    1070
1
    1000
LeadIn
    1002
{
    1070
3
    1040
2.50152388635854
    1040
1.5707963267949
    1040
0.5
    1040
0.3
    1070
0
    1040
0.5
    1070
0
    1002
}
    1000
LeadOut
    1002
{
    1070
0
    1040
0
    1040
0
    1040
0
    1070
0
    1002
}
    1000
IsFill
    1070
1
    1000
PathStart
    1040
2.5
    1000
ToolCompensation
    1002
{
    1070
0
    1040
0
    1070
0
    1002
}
    1000
MicroConnect
    1002
{
    1070
2
    1040
2.49216933
    1041
0.6
    1042
0
    1040
6.50560467
    1041
0.6
    1042
0
    1002
}
       0
ENDBLK
       5
20D3
     330
2019
     100
AcDbEntity
       8
0
     100
AcDbBlockEnd
       0
BLOCK
       5
20D4
     330
201A
     100
AcDbEntity
       8
0
     100
AcDbBlockBegin
       2
Part594302427
      70
0
      10
-80.5016911
      20
-50
      30
0
       3
Part594302427
       1

       4
CypCutBlock
       0
LINE
       5
20D5
     100
AcDbEntity
       8
2
     100
AcDbLine
      10
0.3190879379
      20
-50
      30
0
      11
0.3190879379
      21
50
      31
0
    1001
FS_CYPCUT
    1000
Channel
    1070
2
    1000
LeadIn
    1002
{
    1070
3
    1040
0
    1040
1.5707963267949
    1040
0.5
    1040
0.3
    1070
0
    1040
0.5
    1070
0
    1002
}
    1000
LeadOut
    1002
{
    1070
0
    1040
0
    1040
0
    1040
0
    1070
0
    1002
}
    1000
IsFill
    1070
0
    1000
PathStart
    1040
0
    1000
ToolCompensation
    1002
{
    1070
0
    1040
0
    1070
0
    1002
}
       0
LINE
       5
20D6
     100
AcDbEntity
       8
2
     100
AcDbLine
      10
-17.4317575878
      20
50
      30
0
      11
-17.4317575878
      21
0
      31
0
    1001
FS_CYPCUT
    1000
Channel
    1070
2
    1000
LeadIn
    1002
{
    1070
3
    1040
0
    1040
1.5707963267949
    1040
0.5
    1040
0.3
    1070
0
    1040
0.5
    1070
0
    1002
}
    1000
LeadOut
    1002
{
    1070
0
    1040
0
    1040
0
    1040
0
    1070
0
    1002
}
    1000
IsFill
    1070
0
    1000
PathStart
    1040
0
    1000
ToolCompensation
    1002
{
    1070
0
    1040
0
    1070
0
    1002
}
       0
LWPOLYLINE
       5
20D7
     100
AcDbEntity
       8
1
     100
AcDbPolyline
      90
4
      70
1
      10
-29.3716910514
      20
33.5
      42
-1
      10
-29.3716910514
      20
26.5
      42
0
      10
-70.5016910514
      20
26.5
      42
-1
      10
-70.5016910514
      20
33.5
      42
0
    1001
FS_CYPCUT
    1000
Channel
    1070
1
    1000
LeadIn
    1002
{
    1070
3
    1040
1.5
    1040
1.5707963267949
    1040
0.5
    1040
0.3
    1070
0
    1040
0.5
    1070
0
    1002
}
    1000
LeadOut
    1002
{
    1070
0
    1040
0
    1040
0
    1040
0
    1070
0
    1002
}
    1000
IsFill
    1070
0
    1000
PathStart
    1040
1.5
    1000
ToolCompensation
    1002
{
    1070
0
    1040
0
    1070
0
    1002
}
       0
LWPOLYLINE
       5
20D8
     100
AcDbEntity
       8
1
     100
AcDbPolyline
      90
11
      70
1
      10
80
      20
42
      42
0.414213562373096
      10
72
      20
50
      42
0
      10
-72.5016910514
      20
50
      42
0.414213562373096
      10
-80.5016910514
      20
42
      42
0
      10
-80.5016910514
      20
8
      42
0.414213562373094
      10
-72.5016910514
      20
0
      42
0
      10
-14.3618241243
      20
0
      42
0
      10
-14.3618241243
      20
-42
      42
0.414213562373095
      10
-6.3618241243
      20
-50
      42
0
      10
72
      20
-50
      42
0.414213562373095
      10
80
      20
-42
      42
0
    1001
FS_CYPCUT
    1000
Channel
    1070
1
    1000
LeadIn
    1002
{
    1070
3
    1040
1.5
    1040
1.5707963267949
    1040
0.5
    1040
0.3
    1070
0
    1040
0.5
    1070
0
    1002
}
    1000
LeadOut
    1002
{
    1070
0
    1040
0
    1040
0
    1040
0
    1070
0
    1002
}
    1000
IsFill
    1070
1
    1000
PathStart
    1040
1.5
    1000
ToolCompensation
    1002
{
    1070
0
    1040
0
    1070
0
    1002
}
    1000
MicroConnect
    1002
{
    1070
2
    1040
1.32699164
    1041
0.6
    1042
0
    1040
6.48199768
    1041
0.6
    1042
0
    1002
}
       0
ENDBLK
       5
20D9
     330
201A
     100
AcDbEntity
       8
0
     100
AcDbBlockEnd
       0
BLOCK
       5
20DA
     330
201B
     100
AcDbEntity
       8
0
     100
AcDbBlockBegin
       2
Part743740027
      70
0
      10
-31.1398669
      20
-97.5925152
      30
0
       3
Part743740027
       1

       4
CypCutBlock
       0
LINE
       5
20DB
     100
AcDbEntity
       8
2
     100
AcDbLine
      10
-31.1398669272
      20
-53.1466444879
      30
0
      11
4.9901330728
      21
-53.1466444879
      31
0
    1001
FS_CYPCUT
    1000
Channel
    1070
2
    1000
LeadIn
    1002
{
    1070
3
    1040
0
    1040
1.5707963267949
    1040
0.17332224395
    1040
0.3
    1070
0
    1040
0.5
    1070
0
    1002
}
    1000
LeadOut
    1002
{
    1070
0
    1040
0
    1040
0
    1040
0
    1070
0
    1002
}
    1000
IsFill
    1070
0
    1000
PathStart
    1040
0
    1000
ToolCompensation
    1002
{
    1070
0
    1040
0
    1070
0
    1002
}
       0
CIRCLE
       5
20DC
     100
AcDbEntity
       8
1
     100
AcDbCircle
      10
-13.6398669272
      20
-37.5
      30
0
      40
1.75
    1001
FS_CYPCUT
    1000
Channel
    1070
1
    1000
LeadIn
    1002
{
    1070
3
    1040
2.22044604925031E-16
    1040
1.5707963267949
    1040
0.5
    1040
0.3
    1070
0
    1040
0.5
    1070
0
    1002
}
    1000
LeadOut
    1002
{
    1070
0
    1040
0
    1040
0
    1040
0
    1070
0
    1002
}
    1000
IsFill
    1070
0
    1000
PathStart
    1040
2.22044604925031E-16
    1000
ToolCompensation
    1002
{
    1070
0
    1040
0
    1070
0
    1002
}
       0
LWPOLYLINE
       5
20DD
     100
AcDbEntity
       8
1
     100
AcDbPolyline
      90
4
      70
1
      10
-21.2398669272
      20
-28.4
      42
0
      10
-6.0398669272
      20
-28.4
      42
0
      10
-6.0398669272
      20
-30.5
      42
0
      10
-21.2398669272
      20
-30.5
      42
0
    1001
FS_CYPCUT
    1000
Channel
    1070
1
    1000
LeadIn
    1002
{
    1070
3
    1040
0.5
    1040
1.5707963267949
    1040
0.5
    1040
0.3
    1070
0
    1040
0.5
    1070
0
    1002
}
    1000
LeadOut
    1002
{
    1070
0
    1040
0
    1040
0
    1040
0
    1070
0
    1002
}
    1000
IsFill
    1070
0
    1000
PathStart
    1040
0.5
    1000
ToolCompensation
    1002
{
    1070
0
    1040
0
    1070
0
    1002
}
       0
LINE
       5
20DE
     100
AcDbEntity
       8
2
     100
AcDbLine
      10
8.87
      20
-52.7155481626
      30
0
      11
40
      21
-52.7155481626
      31
0
    1001
FS_CYPCUT
    1000
Channel
    1070
2
    1000
LeadIn
    1002
{
    1070
3
    1040
0
    1040
1.5707963267949
    1040
0.5
    1040
0.3
    1070
0
    1040
0.5
    1070
0
    1002
}
    1000
LeadOut
    1002
{
    1070
0
    1040
0
    1040
0
    1040
0
    1070
0
    1002
}
    1000
IsFill
    1070
0
    1000
PathStart
    1040
0
    1000
ToolCompensation
    1002
{
    1070
0
    1040
0
    1070
0
    1002
}
       0
LINE
       5
20DF
     100
AcDbEntity
       8
2
     100
AcDbLine
      10
6.9300665364
      20
-52.5
      30
0
      11
6.9300665364
      21
52.5
      31
0
    1001
FS_CYPCUT
    1000
Channel
    1070
2
    1000
LeadIn
    1002
{
    1070
3
    1040
0
    1040
1.5707963267949
    1040
0.5
    1040
0.3
    1070
0
    1040
0.5
    1070
0
    1002
}
    1000
LeadOut
    1002
{
    1070
0
    1040
0
    1040
0
    1040
0
    1070
0
    1002
}
    1000
IsFill
    1070
0
    1000
PathStart
    1040
0
    1000
ToolCompensation
    1002
{
    1070
0
    1040
0
    1070
0
    1002
}
       0
CIRCLE
       5
20E0
     100
AcDbEntity
       8
1
     100
AcDbCircle
      10
-13.6398669272
      20
37.5
      30
0
      40
1.75000000000001
    1001
FS_CYPCUT
    1000
Channel
    1070
1
    1000
LeadIn
    1002
{
    1070
3
    1040
0
    1040
1.5707963267949
    1040
0.5
    1040
0.3
    1070
0
    1040
0.5
    1070
0
    1002
}
    1000
LeadOut
    1002
{
    1070
0
    1040
0
    1040
0
    1040
0
    1070
0
    1002
}
    1000
IsFill
    1070
0
    1000
PathStart
    1040
0
    1000
ToolCompensation
    1002
{
    1070
0
    1040
0
    1070
0
    1002
}
       0
LWPOLYLINE
       5
20E1
     100
AcDbEntity
       8
1
     100
AcDbPolyline
      90
16
      70
1
      10
-31.1398669272
      20
47.5
      42
-0.414213562373093
      10
-26.1398669272
      20
52.5
      42
0
      10
12.9289321881
      20
52.4999999999999
      42
-0.198912367379659
      10
16.4644660940327
      20
51.0355339059327
      42
0
      10
38.5355339059
      20
28.9644660941
      42
-0.198912367379657
      10
40
      20
25.4289321881
      42
0
      10
40
      20
-92.5925151974
      42
-0.414213562373096
      10
35
      20
-97.5925151974
      42
0
      10
13.87
      20
-97.5925151974
      42
-0.414213562373097
      10
8.87
      20
-92.5925151974
      42
0
      10
8.87
      20
-52.5
      42
0
      10
4.9901330728
      20
-52.5
      42
0
      10
4.9901330728
      20
-67.756325601
      42
-0.414213562373095
      10
-0.00986692719999915
      20
-72.756325601
      42
0
      10
-26.1398669272
      20
-72.756325601
      42
-0.414213562373095
      10
-31.1398669272
      20
-67.756325601
      42
0
    1001
FS_CYPCUT
    1000
Channel
    1070
1
    1000
LeadIn
    1002
{
    1070
3
    1040
5.50253862173996
    1040
1.5707963267949
    1040
0.5
    1040
0.3
    1070
0
    1040
0.5
    1070
0
    1002
}
    1000
LeadOut
    1002
{
    1070
0
    1040
0
    1040
0
    1040
0
    1070
0
    1002
}
    1000
IsFill
    1070
1
    1000
PathStart
    1040
5.5
    1000
ToolCompensation
    1002
{
    1070
0
    1040
0
    1070
0
    1002
}
    1000
MicroConnect
    1002
{
    1070
2
    1040
5.4974548
    1041
0.6
    1042
0
    1040
15.5838886
    1041
0.6
    1042
0
    1002
}
       0
ENDBLK
       5
20E2
     330
201B
     100
AcDbEntity
       8
0
     100
AcDbBlockEnd
       0
BLOCK
       5
20E3
     330
201C
     100
AcDbEntity
       8
0
     100
AcDbBlockBegin
       2
Part1474526583
      70
0
      10
-21.1398669
      20
-48.122524
      30
0
       3
Part1474526583
       1

       4
CypCutBlock
       0
LWPOLYLINE
       5
20E4
     100
AcDbEntity
       8
1
     100
AcDbPolyline
      90
4
      70
1
      10
4.6951330728
      20
-24.122524
      42
-1
      10
12.8951330728
      20
-24.122524
      42
0
      10
12.8951330728
      20
-39.122524
      42
-1
      10
4.6951330728
      20
-39.122524
      42
0
    1001
FS_CYPCUT
    1000
Channel
    1070
1
    1000
LeadIn
    1002
{
    1070
3
    1040
1.5
    1040
1.5707963267949
    1040
0.5
    1040
0.3
    1070
0
    1040
0.5
    1070
0
    1002
}
    1000
LeadOut
    1002
{
    1070
0
    1040
0
    1040
0
    1040
0
    1070
0
    1002
}
    1000
IsFill
    1070
0
    1000
PathStart
    1040
1.5
    1000
ToolCompensation
    1002
{
    1070
0
    1040
0
    1070
0
    1002
}
       0
LINE
       5
20E5
     100
AcDbEntity
       8
2
     100
AcDbLine
      10
24.9300665364
      20
-48.122524
      30
0
      11
24.9300665364
      21
0
      31
0
    1001
FS_CYPCUT
    1000
Channel
    1070
2
    1000
LeadIn
    1002
{
    1070
3
    1040
0
    1040
1.5707963267949
    1040
0.5
    1040
0.3
    1070
0
    1040
0.5
    1070
0
    1002
}
    1000
LeadOut
    1002
{
    1070
0
    1040
0
    1040
0
    1040
0
    1070
0
    1002
}
    1000
IsFill
    1070
0
    1000
PathStart
    1040
0
    1000
ToolCompensation
    1002
{
    1070
0
    1040
0
    1070
0
    1002
}
       0
LWPOLYLINE
       5
20E6
     100
AcDbEntity
       8
1
     100
AcDbPolyline
      90
23
      70
1
      10
-21.1398669272
      20
17.8774756994
      42
0
      10
-21.1398669272
      20
-0.2245108489
      42
0.153914721059828
      10
-20.416475104356
      20
-2.5188165943042
      42
0
      10
-9.99325875
      20
-17.4047122546
      42
-0.153914721059828
      10
-9.2698669272
      20
-19.699018
      42
0
      10
-9.2698669272
      20
-44.122524
      42
0.414213562373097
      10
-5.2698669272
      20
-48.122524
      42
0
      10
30.9289321881
      20
-48.122524
      42
0.198912367379659
      10
34.4644660940327
      20
-46.6580579059327
      42
0
      10
46.5355339059327
      20
-34.5869900940327
      42
0.198912367379659
      10
47.9999999999999
      20
-31.0514561881
      42
0
      10
48
      20
0
      42
0
      10
16.8601330728
      20
0
      42
0
      10
16.8601330728
      20
0.8
      42
0.414213562373095
      10
15.8601330728
      20
1.8
      42
0
      10
2.8601330728
      20
1.79999999999999
      42
0.414213562373095
      10
1.8601330728
      20
0.8
      42
0
      10
1.8601330728
      20
0
      42
0
      10
-9.1398669272
      20
0
      42
-0.414213562373095
      10
-13.1398669272
      20
4
      42
0
      10
-13.1398669272
      20
20.8774756994
      42
0.414213562373091
      10
-14.1398669272
      20
21.8774756994
      42
0
      10
-17.1398669272
      20
21.8774756994
      42
0.414213562373098
    1001
FS_CYPCUT
    1000
Channel
    1070
1
    1000
LeadIn
    1002
{
    1070
3
    1040
6.50879630549245
    1040
1.5707963267949
    1040
0.5
    1040
0.3
    1070
0
    1040
0.5
    1070
0
    1002
}
    1000
LeadOut
    1002
{
    1070
0
    1040
0
    1040
0
    1040
0
    1070
0
    1002
}
    1000
IsFill
    1070
1
    1000
PathStart
    1040
6.5
    1000
ToolCompensation
    1002
{
    1070
0
    1040
0
    1070
0
    1002
}
    1000
MicroConnect
    1002
{
    1070
2
    1040
6.49222117
    1041
0.6
    1042
0
    1040
14.5137916
    1041
0.6
    1042
0
    1002
}
       0
ENDBLK
       5
20E7
     330
201C
     100
AcDbEntity
       8
0
     100
AcDbBlockEnd
       0
BLOCK
       5
20E8
     330
201D
     100
AcDbEntity
       8
0
     100
AcDbBlockBegin
       2
Part232722405
      70
0
      10
-29.1398669
      20
-20
      30
0
       3
Part232722405
       1

       4
CypCutBlock
       0
LWPOLYLINE
       5
20E9
     100
AcDbEntity
       8
1
     100
AcDbPolyline
      90
4
      70
1
      10
-6.0098669272
      20
2.6
      42
0
      10
-23.1398669272
      20
2.6
      42
1
      10
-23.1398669272
      20
-2.6
      42
0
      10
-6.0098669272
      20
-2.6
      42
1
    1001
FS_CYPCUT
    1000
Channel
    1070
1
    1000
LeadIn
    1002
{
    1070
3
    1040
0.5
    1040
1.5707963267949
    1040
0.5
    1040
0.3
    1070
0
    1040
0.5
    1070
0
    1002
}
    1000
LeadOut
    1002
{
    1070
0
    1040
0
    1040
0
    1040
0
    1070
0
    1002
}
    1000
IsFill
    1070
0
    1000
PathStart
    1040
0.5
    1000
ToolCompensation
    1002
{
    1070
0
    1040
0
    1070
0
    1002
}
       0
LINE
       5
20EA
     100
AcDbEntity
       8
2
     100
AcDbLine
      10
1.9300665364
      20
20
      30
0
      11
1.9300665364
      21
-20
      31
0
    1001
FS_CYPCUT
    1000
Channel
    1070
2
    1000
LeadIn
    1002
{
    1070
3
    1040
0
    1040
1.5707963267949
    1040
0.5
    1040
0.3
    1070
0
    1040
0.5
    1070
0
    1002
}
    1000
LeadOut
    1002
{
    1070
0
    1040
0
    1040
0
    1040
0
    1070
0
    1002
}
    1000
IsFill
    1070
0
    1000
PathStart
    1040
0
    1000
ToolCompensation
    1002
{
    1070
0
    1040
0
    1070
0
    1002
}
       0
LWPOLYLINE
       5
20EB
     100
AcDbEntity
       8
1
     100
AcDbPolyline
      90
4
      70
1
      10
35
      20
3.1
      42
0
      10
15
      20
3.1
      42
1
      10
15
      20
-3.1
      42
0
      10
35
      20
-3.1
      42
1
    1001
FS_CYPCUT
    1000
Channel
    1070
1
    1000
LeadIn
    1002
{
    1070
3
    1040
0.5
    1040
1.5707963267949
    1040
0.5
    1040
0.3
    1070
0
    1040
0.5
    1070
0
    1002
}
    1000
LeadOut
    1002
{
    1070
0
    1040
0
    1040
0
    1040
0
    1070
0
    1002
}
    1000
IsFill
    1070
0
    1000
PathStart
    1040
0.5
    1000
ToolCompensation
    1002
{
    1070
0
    1040
0
    1070
0
    1002
}
       0
LWPOLYLINE
       5
20EC
     100
AcDbEntity
       8
1
     100
AcDbPolyline
      90
8
      70
1
      10
45
      20
15
      42
0
      10
45
      20
-15
      42
-0.414213562373096
      10
40
      20
-20
      42
0
      10
-24.1398669272
      20
-20
      42
-0.414213562373095
      10
-29.1398669272
      20
-15
      42
0
      10
-29.1398669272
      20
15
      42
-0.414213562373096
      10
-24.1398669272
      20
20
      42
0
      10
40
      20
20
      42
-0.414213562373096
    1001
FS_CYPCUT
    1000
Channel
    1070
1
    1000
LeadIn
    1002
{
    1070
3
    1040
2.50152388635854
    1040
1.5707963267949
    1040
0.5
    1040
0.3
    1070
0
    1040
0.5
    1070
0
    1002
}
    1000
LeadOut
    1002
{
    1070
0
    1040
0
    1040
0
    1040
0
    1070
0
    1002
}
    1000
IsFill
    1070
1
    1000
PathStart
    1040
2.5
    1000
ToolCompensation
    1002
{
    1070
0
    1040
0
    1070
0
    1002
}
    1000
MicroConnect
    1002
{
    1070
2
    1040
2.49216933
    1041
0.6
    1042
0
    1040
6.50560467
    1041
0.6
    1042
0
    1002
}
       0
ENDBLK
       5
20ED
     330
201D
     100
AcDbEntity
       8
0
     100
AcDbBlockEnd
       0
BLOCK
       5
20EE
     330
201E
     100
AcDbEntity
       8
0
     100
AcDbBlockBegin
       2
Part991762835
      70
0
      10
-17.5
      20
-21.1398669
      30
0
       3
Part991762835
       1

       4
CypCutBlock
       0
CIRCLE
       5
20EF
     100
AcDbEntity
       8
1
     100
AcDbCircle
      10
0
      20
-11.1398669272
      30
0
      40
3.50000000000001
    1001
FS_CYPCUT
    1000
Channel
    1070
1
    1000
LeadIn
    1002
{
    1070
3
    1040
0
    1040
1.5707963267949
    1040
0.5
    1040
0.3
    1070
0
    1040
0.5
    1070
0
    1002
}
    1000
LeadOut
    1002
{
    1070
0
    1040
0
    1040
0
    1040
0
    1070
0
    1002
}
    1000
IsFill
    1070
0
    1000
PathStart
    1040
1
    1000
ToolCompensation
    1002
{
    1070
0
    1040
0
    1070
0
    1002
}
       0
LINE
       5
20F0
     100
AcDbEntity
       8
2
     100
AcDbLine
      10
17.5
      20
1.9300665364
      30
0
      11
-17.5
      21
1.9300665364
      31
0
    1001
FS_CYPCUT
    1000
Channel
    1070
2
    1000
LeadIn
    1002
{
    1070
3
    1040
0
    1040
1.5707963267949
    1040
0.5
    1040
0.3
    1070
0
    1040
0.5
    1070
0
    1002
}
    1000
LeadOut
    1002
{
    1070
0
    1040
0
    1040
0
    1040
0
    1070
0
    1002
}
    1000
IsFill
    1070
0
    1000
PathStart
    1040
0
    1000
ToolCompensation
    1002
{
    1070
0
    1040
0
    1070
0
    1002
}
       0
LWPOLYLINE
       5
20F1
     100
AcDbEntity
       8
1
     100
AcDbPolyline
      90
4
      70
1
      10
6.2
      20
38
      42
1
      10
-6.2
      20
38
      42
0
      10
-6.2
      20
15.87
      42
1
      10
6.2
      20
15.87
      42
0
    1001
FS_CYPCUT
    1000
Channel
    1070
1
    1000
LeadIn
    1002
{
    1070
3
    1040
1.5
    1040
1.5707963267949
    1040
0.5
    1040
0.3
    1070
0
    1040
0.5
    1070
0
    1002
}
    1000
LeadOut
    1002
{
    1070
0
    1040
0
    1040
0
    1040
0
    1070
0
    1002
}
    1000
IsFill
    1070
0
    1000
PathStart
    1040
1.5
    1000
ToolCompensation
    1002
{
    1070
0
    1040
0
    1070
0
    1002
}
       0
LWPOLYLINE
       5
20F2
     100
AcDbEntity
       8
1
     100
AcDbPolyline
      90
8
      70
1
      10
17.5
      20
42
      42
0.414213562373095
      10
9.5
      20
50
      42
0
      10
-9.5
      20
50
      42
0.414213562373095
      10
-17.5
      20
42
      42
0
      10
-17.5
      20
-13.1398669272
      42
0.414213562373095
      10
-9.5
      20
-21.1398669272
      42
0
      10
9.5
      20
-21.1398669272
      42
0.414213562373095
      10
17.5
      20
-13.1398669272
      42
0
    1001
FS_CYPCUT
    1000
Channel
    1070
1
    1000
LeadIn
    1002
{
    1070
3
    1040
3.5
    1040
1.5707963267949
    1040
0.5
    1040
0.3
    1070
0
    1040
0.5
    1070
0
    1002
}
    1000
LeadOut
    1002
{
    1070
0
    1040
0
    1040
0
    1040
0
    1070
0
    1002
}
    1000
IsFill
    1070
1
    1000
PathStart
    1040
3.5
    1000
ToolCompensation
    1002
{
    1070
0
    1040
0
    1070
0
    1002
}
    1000
MicroConnect
    1002
{
    1070
1
    1040
7.53461435
    1041
0.6
    1042
0
    1002
}
       0
ENDBLK
       5
20F3
     330
201E
     100
AcDbEntity
       8
0
     100
AcDbBlockEnd
       0
ENDSEC
       0
SECTION
       2
ENTITIES
       0
INSERT
       5
20F4
     100
AcDbEntity
       8
1
     100
AcDbBlockReference
       2
Part534993938
      10
1278.27914746512
      20
2722.19301145171
      30
0
      41
1
      42
1
      50
90.0000001836389
    1001
FS_CYPCUT
    1000
Channel
    1070
1
    1000
LeadIn
    1002
{
    1070
0
    1040
0
    1040
0
    1040
0
    1040
0
    1070
0
    1040
0
    1070
0
    1002
}
    1000
LeadOut
    1002
{
    1070
0
    1040
0
    1040
0
    1040
0
    1070
0
    1002
}
       0
INSERT
       5
20F5
     100
AcDbEntity
       8
1
     100
AcDbBlockReference
       2
Part2025711485
      10
1297.51901436512
      20
2979.19301144242
      30
0
      41
1
      42
1
      50
180
    1001
FS_CYPCUT
    1000
Channel
    1070
1
    1000
LeadIn
    1002
{
    1070
0
    1040
0
    1040
0
    1040
0
    1040
0
    1070
0
    1040
0
    1070
0
    1002
}
    1000
LeadOut
    1002
{
    1070
0
    1040
0
    1040
0
    1040
0
    1070
0
    1002
}
       0
INSERT
       5
20F6
     100
AcDbEntity
       8
1
     100
AcDbBlockReference
       2
Part2123354015
      10
1423.37914746512
      20
2927.15702214242
      30
0
      41
1
      42
1
      50
180
    1001
FS_CYPCUT
    1000
Channel
    1070
1
    1000
LeadIn
    1002
{
    1070
0
    1040
0
    1040
0
    1040
0
    1040
0
    1070
0
    1040
0
    1070
0
    1002
}
    1000
LeadOut
    1002
{
    1070
0
    1040
0
    1040
0
    1040
0
    1070
0
    1002
}
       0
INSERT
       5
20F7
     100
AcDbEntity
       8
1
     100
AcDbBlockReference
       2
Part295969117
      10
1415.37924746512
      20
2924.73731144242
      30
0
      41
1
      42
1
      50
180
    1001
FS_CYPCUT
    1000
Channel
    1070
1
    1000
LeadIn
    1002
{
    1070
0
    1040
0
    1040
0
    1040
0
    1040
0
    1070
0
    1040
0
    1070
0
    1002
}
    1000
LeadOut
    1002
{
    1070
0
    1040
0
    1040
0
    1040
0
    1070
0
    1002
}
       0
INSERT
       5
20F8
     100
AcDbEntity
       8
1
     100
AcDbBlockReference
       2
Part474160460
      10
1470.37924804205
      20
2722.19301144242
      30
0
      41
1
      42
1
      50
90.0000001836389
    1001
FS_CYPCUT
    1000
Channel
    1070
1
    1000
LeadIn
    1002
{
    1070
0
    1040
0
    1040
0
    1040
0
    1040
0
    1070
0
    1040
0
    1070
0
    1002
}
    1000
LeadOut
    1002
{
    1070
0
    1040
0
    1040
0
    1040
0
    1070
0
    1002
}
       0
INSERT
       5
20F9
     100
AcDbEntity
       8
1
     100
AcDbBlockReference
       2
Part462043415
      10
1390.60244746512
      20
2989.15611144242
      30
0
      41
1
      42
1
      50
180
    1001
FS_CYPCUT
    1000
Channel
    1070
1
    1000
LeadIn
    1002
{
    1070
0
    1040
0
    1040
0
    1040
0
    1040
0
    1070
0
    1040
0
    1070
0
    1002
}
    1000
LeadOut
    1002
{
    1070
0
    1040
0
    1040
0
    1040
0
    1070
0
    1002
}
       0
INSERT
       5
20FA
     100
AcDbEntity
       8
1
     100
AcDbBlockReference
       2
Part1996930936
      10
1473.00714745852
      20
2948.62414460652
      30
0
      41
1
      42
1
      50
90.0000001836389
    1001
FS_CYPCUT
    1000
Channel
    1070
1
    1000
LeadIn
    1002
{
    1070
0
    1040
0
    1040
0
    1040
0
    1040
0
    1070
0
    1040
0
    1070
0
    1002
}
    1000
LeadOut
    1002
{
    1070
0
    1040
0
    1040
0
    1040
0
    1070
0
    1002
}
       0
LWPOLYLINE
       5
20FB
     100
AcDbEntity
       8
1
     100
AcDbPolyline
      90
19
      70
1
      10
1395.99174746512
      20
2959.60741144242
      42
0
      10
1395.99174746512
      20
2964.60741144242
      42
0
      10
1430.99174746512
      20
2964.60741144242
      42
0
      10
1430.99174746512
      20
2952.60741144242
      42
0.414213562373096
      10
1436.99174746512
      20
2946.60741144242
      42
0
      10
1494.99174746513
      20
2946.60741144242
      42
0.414213562373096
      10
1500.99174746513
      20
2952.60741144242
      42
0
      10
1500.99174746513
      20
2964.60741144242
      42
0
      10
1535.99174746513
      20
2964.60741144242
      42
0
      10
1535.99174746513
      20
2929.60741144242
      42
0
      10
1523.99174746513
      20
2929.60741144242
      42
0.414213562373095
      10
1517.99174746513
      20
2923.60741144242
      42
0
      10
1517.99174746513
      20
2865.60741144242
      42
0.414213562373095
      10
1523.99174746513
      20
2859.60741144242
      42
0
      10
1535.99174746513
      20
2859.60741144242
      42
0
      10
1535.99174746513
      20
2824.60741144242
      42
0
      10
1530.99174746513
      20
2824.60741144242
      42
-0.383413292280209
      10
1494.98291743351
      20
2856.97870613119
      42
0.353234447165476
      10
1428.3630421539
      20
2923.5985814108
      42
-0.383413292280208
    1001
FS_CYPCUT
    1000
Channel
    1070
1
    1000
LeadIn
    1002
{
    1070
3
    1040
17.5
    1040
1.5707963267949
    1040
0.5
    1040
0.3
    1070
0
    1040
0.5
    1070
0
    1002
}
    1000
LeadOut
    1002
{
    1070
0
    1040
0
    1040
0
    1040
0
    1070
0
    1002
}
    1000
IsFill
    1070
1
    1000
PathStart
    1040
17.5
    1000
ToolCompensation
    1002
{
    1070
0
    1040
0
    1070
0
    1002
}
    1000
MicroConnect
    1002
{
    1070
3
    1040
2.49322493
    1041
0.6
    1042
0
    1040
5.5
    1041
0.6
    1042
0
    1040
13.5257453
    1041
0.6
    1042
0
    1002
}
       0
INSERT
       5
20FC
     100
AcDbEntity
       8
1
     100
AcDbBlockReference
       2
Part156562793
      10
1479.29414746513
      20
2861.80271144242
      30
0
      41
1
      42
1
      50
180
    1001
FS_CYPCUT
    1000
Channel
    1070
1
    1000
LeadIn
    1002
{
    1070
0
    1040
0
    1040
0
    1040
0
    1040
0
    1070
0
    1040
0
    1070
0
    1002
}
    1000
LeadOut
    1002
{
    1070
0
    1040
0
    1040
0
    1040
0
    1070
0
    1002
}
       0
INSERT
       5
20FD
     100
AcDbEntity
       8
1
     100
AcDbBlockReference
       2
Part551669794
      10
1425.37928046513
      20
2672.04638584242
      30
0
      41
1
      42
1
      50
0
    1001
FS_CYPCUT
    1000
Channel
    1070
1
    1000
LeadIn
    1002
{
    1070
0
    1040
0
    1040
0
    1040
0
    1040
0
    1070
0
    1040
0
    1070
0
    1002
}
    1000
LeadOut
    1002
{
    1070
0
    1040
0
    1040
0
    1040
0
    1070
0
    1002
}
       0
INSERT
       5
20FE
     100
AcDbEntity
       8
1
     100
AcDbBlockReference
       2
Part1884609747
      10
1567.99184765743
      20
2946.30241144242
      30
0
      41
1
      42
1
      50
90.0000001836389
    1001
FS_CYPCUT
    1000
Channel
    1070
1
    1000
LeadIn
    1002
{
    1070
0
    1040
0
    1040
0
    1040
0
    1040
0
    1070
0
    1040
0
    1070
0
    1002
}
    1000
LeadOut
    1002
{
    1070
0
    1040
0
    1040
0
    1040
0
    1070
0
    1002
}
       0
INSERT
       5
20FF
     100
AcDbEntity
       8
1
     100
AcDbBlockReference
       2
Part1290249168
      10
1637.34294746513
      20
2988.41411144242
      30
0
      41
1
      42
1
      50
180
    1001
FS_CYPCUT
    1000
Channel
    1070
1
    1000
LeadIn
    1002
{
    1070
0
    1040
0
    1040
0
    1040
0
    1040
0
    1070
0
    1040
0
    1070
0
    1002
}
    1000
LeadOut
    1002
{
    1070
0
    1040
0
    1040
0
    1040
0
    1070
0
    1002
}
       0
LWPOLYLINE
       5
2100
     100
AcDbEntity
       8
1
     100
AcDbPolyline
      90
19
      70
1
      10
1537.99164746512
      20
2939.30241144242
      42
0
      10
1537.99164746512
      20
2944.30241144242
      42
0
      10
1572.99164746512
      20
2944.30241144242
      42
0
      10
1572.99164746512
      20
2932.30241144242
      42
0.414213562373096
      10
1578.99164746512
      20
2926.30241144242
      42
0
      10
1636.99164746512
      20
2926.30241144242
      42
0.414213562373096
      10
1642.99164746512
      20
2932.30241144242
      42
0
      10
1642.99164746512
      20
2944.30241144242
      42
0
      10
1677.99164746512
      20
2944.30241144242
      42
0
      10
1677.99164746512
      20
2909.30241144242
      42
0
      10
1665.99164746512
      20
2909.30241144242
      42
0.414213562373095
      10
1659.99164746512
      20
2903.30241144242
      42
0
      10
1659.99164746512
      20
2845.30241144242
      42
0.414213562373095
      10
1665.99164746512
      20
2839.30241144242
      42
0
      10
1677.99164746512
      20
2839.30241144242
      42
0
      10
1677.99164746512
      20
2804.30241144242
      42
0
      10
1672.99164746512
      20
2804.30241144242
      42
-0.383413292280209
      10
1636.98281743351
      20
2836.67370613119
      42
0.353234447165476
      10
1570.36294215389
      20
2903.2935814108
      42
-0.383413292280208
    1001
FS_CYPCUT
    1000
Channel
    1070
1
    1000
LeadIn
    1002
{
    1070
3
    1040
17.5
    1040
1.5707963267949
    1040
0.5
    1040
0.3
    1070
0
    1040
0.5
    1070
0
    1002
}
    1000
LeadOut
    1002
{
    1070
0
    1040
0
    1040
0
    1040
0
    1070
0
    1002
}
    1000
IsFill
    1070
1
    1000
PathStart
    1040
17.5
    1000
ToolCompensation
    1002
{
    1070
0
    1040
0
    1070
0
    1002
}
    1000
MicroConnect
    1002
{
    1070
3
    1040
2.49322493
    1041
0.6
    1042
0
    1040
5.5
    1041
0.6
    1042
0
    1040
13.5257453
    1041
0.6
    1042
0
    1002
}
       0
INSERT
       5
2101
     100
AcDbEntity
       8
1
     100
AcDbBlockReference
       2
Part2049286179
      10
1613.51891442121
      20
2672.14641151017
      30
0
      41
1
      42
1
      50
90.0000001836389
    1001
FS_CYPCUT
    1000
Channel
    1070
1
    1000
LeadIn
    1002
{
    1070
0
    1040
0
    1040
0
    1040
0
    1040
0
    1070
0
    1040
0
    1070
0
    1002
}
    1000
LeadOut
    1002
{
    1070
0
    1040
0
    1040
0
    1040
0
    1070
0
    1002
}
       0
INSERT
       5
2102
     100
AcDbEntity
       8
1
     100
AcDbBlockReference
       2
Part752032943
      10
1582.38928046513
      20
2672.04638584242
      30
0
      41
1
      42
1
      50
0
    1001
FS_CYPCUT
    1000
Channel
    1070
1
    1000
LeadIn
    1002
{
    1070
0
    1040
0
    1040
0
    1040
0
    1040
0
    1070
0
    1040
0
    1070
0
    1002
}
    1000
LeadOut
    1002
{
    1070
0
    1040
0
    1040
0
    1040
0
    1070
0
    1002
}
       0
INSERT
       5
2103
     100
AcDbEntity
       8
1
     100
AcDbBlockReference
       2
Part1853026998
      10
1639.44284746512
      20
2946.30244444242
      30
0
      41
1
      42
1
      50
0
    1001
FS_CYPCUT
    1000
Channel
    1070
1
    1000
LeadIn
    1002
{
    1070
0
    1040
0
    1040
0
    1040
0
    1040
0
    1070
0
    1040
0
    1070
0
    1002
}
    1000
LeadOut
    1002
{
    1070
0
    1040
0
    1040
0
    1040
0
    1070
0
    1002
}
       0
INSERT
       5
2104
     100
AcDbEntity
       8
1
     100
AcDbBlockReference
       2
Part1333679708
      10
1680.09174746513
      20
2804.30227344242
      30
0
      41
1
      42
1
      50
0
    1001
FS_CYPCUT
    1000
Channel
    1070
1
    1000
LeadIn
    1002
{
    1070
0
    1040
0
    1040
0
    1040
0
    1040
0
    1070
0
    1040
0
    1070
0
    1002
}
    1000
LeadOut
    1002
{
    1070
0
    1040
0
    1040
0
    1040
0
    1070
0
    1002
}
       0
INSERT
       5
2105
     100
AcDbEntity
       8
1
     100
AcDbBlockReference
       2
Part476450157
      10
1739.39914746513
      20
2672.04641144242
      30
0
      41
1
      42
1
      50
0
    1001
FS_CYPCUT
    1000
Channel
    1070
1
    1000
LeadIn
    1002
{
    1070
0
    1040
0
    1040
0
    1040
0
    1040
0
    1070
0
    1040
0
    1070
0
    1002
}
    1000
LeadOut
    1002
{
    1070
0
    1040
0
    1040
0
    1040
0
    1070
0
    1002
}
       0
INSERT
       5
2106
     100
AcDbEntity
       8
1
     100
AcDbBlockReference
       2
Part1987865876
      10
1839.39874746513
      20
2729.54641144242
      30
0
      41
1
      42
1
      50
180
    1001
FS_CYPCUT
    1000
Channel
    1070
1
    1000
LeadIn
    1002
{
    1070
0
    1040
0
    1040
0
    1040
0
    1040
0
    1070
0
    1040
0
    1070
0
    1002
}
    1000
LeadOut
    1002
{
    1070
0
    1040
0
    1040
0
    1040
0
    1070
0
    1002
}
       0
INSERT
       5
2107
     100
AcDbEntity
       8
1
     100
AcDbBlockReference
       2
Part319573354
      10
1801.39984746513
      20
2865.77811144242
      30
0
      41
1
      42
1
      50
0
    1001
FS_CYPCUT
    1000
Channel
    1070
1
    1000
LeadIn
    1002
{
    1070
0
    1040
0
    1040
0
    1040
0
    1040
0
    1070
0
    1040
0
    1070
0
    1002
}
    1000
LeadOut
    1002
{
    1070
0
    1040
0
    1040
0
    1040
0
    1070
0
    1002
}
       0
LWPOLYLINE
       5
2108
     100
AcDbEntity
       8
1
     100
AcDbPolyline
      90
14
      70
1
      10
1722.09154746513
      20
2933.18081144242
      42
0
      10
1722.09154746513
      20
2950.18081144242
      42
-0.414213562373096
      10
1726.09154746513
      20
2954.18081144242
      42
0
      10
1842.59154746513
      20
2954.18081144242
      42
-0.414213562373095
      10
1846.59154746513
      20
2950.18081144242
      42
0
      10
1846.59154746513
      20
2941.48081144242
      42
0
      10
1857.59154746513
      20
2941.48081144242
      42
0
      10
1857.59154746513
      20
2950.18081144242
      42
-0.414213562373095
      10
1861.59154746513
      20
2954.18081144242
      42
0
      10
1978.09154746513
      20
2954.18081144242
      42
-0.414213562373092
      10
1982.09154746513
      20
2950.18081144242
      42
0
      10
1982.09154746513
      20
2933.18081144242
      42
-0.414213562373099
      10
1978.09154746513
      20
2929.18081144242
      42
0
      10
1726.09154746513
      20
2929.18081144242
      42
-0.414213562373091
    1001
FS_CYPCUT
    1000
Channel
    1070
1
    1000
LeadIn
    1002
{
    1070
3
    1040
12.5
    1040
1.5707963267949
    1040
0.5
    1040
0.3
    1070
0
    1040
0.5
    1070
0
    1002
}
    1000
LeadOut
    1002
{
    1070
0
    1040
0
    1040
0
    1040
0
    1070
0
    1002
}
    1000
IsFill
    1070
1
    1000
PathStart
    1040
12.5
    1000
ToolCompensation
    1002
{
    1070
0
    1040
0
    1070
0
    1002
}
    1000
MicroConnect
    1002
{
    1070
2
    1040
8.46933232
    1041
0.6
    1042
0
    1040
12.7161786
    1041
0.6
    1042
0
    1002
}
       0
LWPOLYLINE
       5
2109
     100
AcDbEntity
       8
1
     100
AcDbPolyline
      90
14
      70
1
      10
1722.09084746513
      20
2960.18081144242
      42
0
      10
1722.09084746513
      20
2977.18081144242
      42
-0.414213562373096
      10
1726.09084746513
      20
2981.18081144242
      42
0
      10
1842.59084746513
      20
2981.18081144242
      42
-0.414213562373095
      10
1846.59084746513
      20
2977.18081144242
      42
0
      10
1846.59084746513
      20
2968.48081144242
      42
0
      10
1857.59084746513
      20
2968.48081144242
      42
0
      10
1857.59084746513
      20
2977.18081144242
      42
-0.414213562373095
      10
1861.59084746513
      20
2981.18081144242
      42
0
      10
1978.09084746513
      20
2981.18081144242
      42
-0.414213562373092
      10
1982.09084746513
      20
2977.18081144242
      42
0
      10
1982.09084746513
      20
2960.18081144242
      42
-0.414213562373099
      10
1978.09084746513
      20
2956.18081144242
      42
0
      10
1726.09084746513
      20
2956.18081144242
      42
-0.414213562373091
    1001
FS_CYPCUT
    1000
Channel
    1070
1
    1000
LeadIn
    1002
{
    1070
3
    1040
12.5
    1040
1.5707963267949
    1040
0.5
    1040
0.3
    1070
0
    1040
0.5
    1070
0
    1002
}
    1000
LeadOut
    1002
{
    1070
0
    1040
0
    1040
0
    1040
0
    1070
0
    1002
}
    1000
IsFill
    1070
1
    1000
PathStart
    1040
12.5
    1000
ToolCompensation
    1002
{
    1070
0
    1040
0
    1070
0
    1002
}
    1000
MicroConnect
    1002
{
    1070
2
    1040
8.46933232
    1041
0.6
    1042
0
    1040
12.7161786
    1041
0.6
    1042
0
    1002
}
       0
INSERT
       5
210A
     100
AcDbEntity
       8
1
     100
AcDbBlockReference
       2
Part140180262
      10
1841.53864746513
      20
2672.04641144242
      30
0
      41
1
      42
1
      50
0
    1001
FS_CYPCUT
    1000
Channel
    1070
1
    1000
LeadIn
    1002
{
    1070
0
    1040
0
    1040
0
    1040
0
    1040
0
    1070
0
    1040
0
    1070
0
    1002
}
    1000
LeadOut
    1002
{
    1070
0
    1040
0
    1040
0
    1040
0
    1070
0
    1002
}
       0
INSERT
       5
210B
     100
AcDbEntity
       8
1
     100
AcDbBlockReference
       2
Part72699077
      10
2077.94742426513
      20
2783.06619394242
      30
0
      41
1
      42
1
      50
180
    1001
FS_CYPCUT
    1000
Channel
    1070
1
    1000
LeadIn
    1002
{
    1070
0
    1040
0
    1040
0
    1040
0
    1040
0
    1070
0
    1040
0
    1070
0
    1002
}
    1000
LeadOut
    1002
{
    1070
0
    1040
0
    1040
0
    1040
0
    1070
0
    1002
}
       0
INSERT
       5
210C
     100
AcDbEntity
       8
1
     100
AcDbBlockReference
       2
Part1762298473
      10
2014.81851426513
      20
2935.25832664242
      30
0
      41
1
      42
1
      50
180
    1001
FS_CYPCUT
    1000
Channel
    1070
1
    1000
LeadIn
    1002
{
    1070
0
    1040
0
    1040
0
    1040
0
    1040
0
    1070
0
    1040
0
    1070
0
    1002
}
    1000
LeadOut
    1002
{
    1070
0
    1040
0
    1040
0
    1040
0
    1070
0
    1002
}
       0
LWPOLYLINE
       5
210D
     100
AcDbEntity
       8
1
     100
AcDbPolyline
      90
8
      70
1
      10
2016.81774746513
      20
2789.06531144242
      42
0
      10
2016.81774746513
      20
2833.06531144242
      42
-0.414213562373097
      10
2020.81774746513
      20
2837.06531144242
      42
0
      10
2037.81774746513
      20
2837.06531144242
      42
-0.414213562373095
      10
2041.81774746513
      20
2833.06531144242
      42
0
      10
2041.81774746513
      20
2789.06531144242
      42
-0.414213562373095
      10
2037.81774746513
      20
2785.06531144242
      42
0
      10
2020.81774746513
      20
2785.06531144242
      42
-0.414213562373096
    1001
FS_CYPCUT
    1000
Channel
    1070
1
    1000
LeadIn
    1002
{
    1070
3
    1040
0.503138430636364
    1040
1.5707963267949
    1040
0.5
    1040
0.3
    1070
0
    1040
0.5
    1070
0
    1002
}
    1000
LeadOut
    1002
{
    1070
0
    1040
0
    1040
0
    1040
0
    1070
0
    1002
}
    1000
IsFill
    1070
1
    1000
PathStart
    1040
0.5
    1000
ToolCompensation
    1002
{
    1070
0
    1040
0
    1070
0
    1002
}
    1000
MicroConnect
    1002
{
    1070
2
    1040
0.489502067
    1041
0.6
    1042
0
    1040
4.49327421
    1041
0.6
    1042
0
    1002
}
       0
LWPOLYLINE
       5
210E
     100
AcDbEntity
       8
1
     100
AcDbPolyline
      90
8
      70
1
      10
2016.81864746513
      20
2843.06531144242
      42
0
      10
2016.81864746513
      20
2887.06531144242
      42
-0.414213562373097
      10
2020.81864746513
      20
2891.06531144242
      42
0
      10
2037.81864746513
      20
2891.06531144242
      42
-0.414213562373095
      10
2041.81864746513
      20
2887.06531144242
      42
0
      10
2041.81864746513
      20
2843.06531144242
      42
-0.414213562373095
      10
2037.81864746513
      20
2839.06531144242
      42
0
      10
2020.81864746513
      20
2839.06531144242
      42
-0.414213562373096
    1001
FS_CYPCUT
    1000
Channel
    1070
1
    1000
LeadIn
    1002
{
    1070
3
    1040
0.503138430636364
    1040
1.5707963267949
    1040
0.5
    1040
0.3
    1070
0
    1040
0.5
    1070
0
    1002
}
    1000
LeadOut
    1002
{
    1070
0
    1040
0
    1040
0
    1040
0
    1070
0
    1002
}
    1000
IsFill
    1070
1
    1000
PathStart
    1040
0.5
    1000
ToolCompensation
    1002
{
    1070
0
    1040
0
    1070
0
    1002
}
    1000
MicroConnect
    1002
{
    1070
2
    1040
0.489502067
    1041
0.6
    1042
0
    1040
4.49327421
    1041
0.6
    1042
0
    1002
}
       0
LWPOLYLINE
       5
210F
     100
AcDbEntity
       8
1
     100
AcDbPolyline
      90
19
      70
1
      10
2008.76444746513
      20
2955.37561144242
      42
0
      10
2008.76444746513
      20
2960.37561144242
      42
0
      10
2043.76444746513
      20
2960.37561144242
      42
0
      10
2043.76444746513
      20
2948.37561144242
      42
0.414213562373096
      10
2049.76444746513
      20
2942.37561144242
      42
0
      10
2107.76444746513
      20
2942.37561144242
      42
0.414213562373096
      10
2113.76444746513
      20
2948.37561144242
      42
0
      10
2113.76444746513
      20
2960.37561144242
      42
0
      10
2148.76444746513
      20
2960.37561144242
      42
0
      10
2148.76444746513
      20
2925.37561144242
      42
0
      10
2136.76444746513
      20
2925.37561144242
      42
0.414213562373095
      10
2130.76444746513
      20
2919.37561144242
      42
0
      10
2130.76444746513
      20
2861.37561144242
      42
0.414213562373095
      10
2136.76444746513
      20
2855.37561144242
      42
0
      10
2148.76444746513
      20
2855.37561144242
      42
0
      10
2148.76444746513
      20
2820.37561144242
      42
0
      10
2143.76444746513
      20
2820.37561144242
      42
-0.383413292280209
      10
2107.75561743351
      20
2852.74690613119
      42
0.353234447165476
      10
2041.1357421539
      20
2919.3667814108
      42
-0.383413292280208
    1001
FS_CYPCUT
    1000
Channel
    1070
1
    1000
LeadIn
    1002
{
    1070
3
    1040
17.5
    1040
1.5707963267949
    1040
0.5
    1040
0.3
    1070
0
    1040
0.5
    1070
0
    1002
}
    1000
LeadOut
    1002
{
    1070
0
    1040
0
    1040
0
    1040
0
    1070
0
    1002
}
    1000
IsFill
    1070
1
    1000
PathStart
    1040
17.5
    1000
ToolCompensation
    1002
{
    1070
0
    1040
0
    1070
0
    1002
}
    1000
MicroConnect
    1002
{
    1070
3
    1040
2.49322493
    1041
0.6
    1042
0
    1040
5.5
    1041
0.6
    1042
0
    1040
13.5257453
    1041
0.6
    1042
0
    1002
}
       0
LWPOLYLINE
       5
2110
     100
AcDbEntity
       8
1
     100
AcDbPolyline
      90
14
      70
1
      10
1984.09094746513
      20
2966.37561144242
      42
0
      10
1984.09094746513
      20
2983.37561144242
      42
-0.414213562373096
      10
1988.09094746513
      20
2987.37561144242
      42
0
      10
2104.59094746513
      20
2987.37561144242
      42
-0.414213562373095
      10
2108.59094746513
      20
2983.37561144242
      42
0
      10
2108.59094746513
      20
2974.67561144242
      42
0
      10
2119.59094746513
      20
2974.67561144242
      42
0
      10
2119.59094746513
      20
2983.37561144242
      42
-0.414213562373095
      10
2123.59094746513
      20
2987.37561144242
      42
0
      10
2240.09094746513
      20
2987.37561144242
      42
-0.414213562373092
      10
2244.09094746513
      20
2983.37561144242
      42
0
      10
2244.09094746513
      20
2966.37561144242
      42
-0.414213562373099
      10
2240.09094746513
      20
2962.37561144242
      42
0
      10
1988.09094746513
      20
2962.37561144242
      42
-0.414213562373091
    1001
FS_CYPCUT
    1000
Channel
    1070
1
    1000
LeadIn
    1002
{
    1070
3
    1040
12.5
    1040
1.5707963267949
    1040
0.5
    1040
0.3
    1070
0
    1040
0.5
    1070
0
    1002
}
    1000
LeadOut
    1002
{
    1070
0
    1040
0
    1040
0
    1040
0
    1070
0
    1002
}
    1000
IsFill
    1070
1
    1000
PathStart
    1040
12.5
    1000
ToolCompensation
    1002
{
    1070
0
    1040
0
    1070
0
    1002
}
    1000
MicroConnect
    1002
{
    1070
2
    1040
8.46933232
    1041
0.6
    1042
0
    1040
12.7161786
    1041
0.6
    1042
0
    1002
}
       0
INSERT
       5
2111
     100
AcDbEntity
       8
1
     100
AcDbBlockReference
       2
Part1993278590
      10
2196.92994746513
      20
2887.96650984242
      30
0
      41
1
      42
1
      50
180
    1001
FS_CYPCUT
    1000
Channel
    1070
1
    1000
LeadIn
    1002
{
    1070
0
    1040
0
    1040
0
    1040
0
    1040
0
    1070
0
    1040
0
    1070
0
    1002
}
    1000
LeadOut
    1002
{
    1070
0
    1040
0
    1040
0
    1040
0
    1070
0
    1002
}
       0
INSERT
       5
2112
     100
AcDbEntity
       8
1
     100
AcDbBlockReference
       2
Part544915904
      10
2072.87599046513
      20
2672.04642894242
      30
0
      41
1
      42
1
      50
0
    1001
FS_CYPCUT
    1000
Channel
    1070
1
    1000
LeadIn
    1002
{
    1070
0
    1040
0
    1040
0
    1040
0
    1040
0
    1070
0
    1040
0
    1070
0
    1002
}
    1000
LeadOut
    1002
{
    1070
0
    1040
0
    1040
0
    1040
0
    1070
0
    1002
}
       0
INSERT
       5
2113
     100
AcDbEntity
       8
1
     100
AcDbBlockReference
       2
Part291343841
      10
2194.30204746513
      20
2889.96651145139
      30
0
      41
1
      42
1
      50
90.0000001836389
    1001
FS_CYPCUT
    1000
Channel
    1070
1
    1000
LeadIn
    1002
{
    1070
0
    1040
0
    1040
0
    1040
0
    1040
0
    1070
0
    1040
0
    1070
0
    1002
}
    1000
LeadOut
    1002
{
    1070
0
    1040
0
    1040
0
    1040
0
    1070
0
    1002
}
       0
INSERT
       5
2114
     100
AcDbEntity
       8
1
     100
AcDbBlockReference
       2
Part870815066
      10
2243.95167746513
      20
2913.66748744242
      30
0
      41
1
      42
1
      50
0
    1001
FS_CYPCUT
    1000
Channel
    1070
1
    1000
LeadIn
    1002
{
    1070
0
    1040
0
    1040
0
    1040
0
    1040
0
    1070
0
    1040
0
    1070
0
    1002
}
    1000
LeadOut
    1002
{
    1070
0
    1040
0
    1040
0
    1040
0
    1070
0
    1002
}
       0
LWPOLYLINE
       5
2115
     100
AcDbEntity
       8
1
     100
AcDbPolyline
      90
19
      70
1
      10
2204.03004746513
      20
2789.55841144242
      42
0
      10
2199.03004746513
      20
2789.55841144242
      42
0
      10
2199.03004746513
      20
2824.55841144242
      42
0
      10
2211.03004746513
      20
2824.55841144242
      42
0.414213562373096
      10
2217.03004746513
      20
2830.55841144242
      42
0
      10
2217.03004746513
      20
2888.55841144242
      42
0.414213562373096
      10
2211.03004746513
      20
2894.55841144242
      42
0
      10
2199.03004746513
      20
2894.55841144242
      42
0
      10
2199.03004746513
      20
2929.55841144242
      42
0
      10
2234.03004746513
      20
2929.55841144242
      42
0
      10
2234.03004746513
      20
2917.55841144242
      42
0.414213562373095
      10
2240.03004746513
      20
2911.55841144242
      42
0
      10
2298.03004746513
      20
2911.55841144242
      42
0.414213562373095
      10
2304.03004746513
      20
2917.55841144242
      42
0
      10
2304.03004746513
      20
2929.55841144242
      42
0
      10
2339.03004746513
      20
2929.55841144242
      42
0
      10
2339.03004746512
      20
2924.55841144242
      42
-0.383413292280209
      10
2306.65875277636
      20
2888.5495814108
      42
0.353234447165476
      10
2240.03887749674
      20
2821.92970613119
      42
-0.383413292280208
    1001
FS_CYPCUT
    1000
Channel
    1070
1
    1000
LeadIn
    1002
{
    1070
3
    1040
17.5
    1040
1.5707963267949
    1040
0.5
    1040
0.3
    1070
0
    1040
0.5
    1070
0
    1002
}
    1000
LeadOut
    1002
{
    1070
0
    1040
0
    1040
0
    1040
0
    1070
0
    1002
}
    1000
IsFill
    1070
1
    1000
PathStart
    1040
17.5
    1000
ToolCompensation
    1002
{
    1070
0
    1040
0
    1070
0
    1002
}
    1000
MicroConnect
    1002
{
    1070
3
    1040
2.49322493
    1041
0.6
    1042
0
    1040
5.5
    1041
0.6
    1042
0
    1040
13.5257453
    1041
0.6
    1042
0
    1002
}
       0
INSERT
       5
2116
     100
AcDbEntity
       8
1
     100
AcDbBlockReference
       2
Part1868617414
      10
2283.28531126513
      20
2712.14641144242
      30
0
      41
1
      42
1
      50
180
    1001
FS_CYPCUT
    1000
Channel
    1070
1
    1000
LeadIn
    1002
{
    1070
0
    1040
0
    1040
0
    1040
0
    1040
0
    1070
0
    1040
0
    1070
0
    1002
}
    1000
LeadOut
    1002
{
    1070
0
    1040
0
    1040
0
    1040
0
    1070
0
    1002
}
       0
INSERT
       5
2117
     100
AcDbEntity
       8
1
     100
AcDbBlockReference
       2
Part594302427
      10
2234.15545746513
      20
2672.14641144242
      30
0
      41
1
      42
1
      50
0
    1001
FS_CYPCUT
    1000
Channel
    1070
1
    1000
LeadIn
    1002
{
    1070
0
    1040
0
    1040
0
    1040
0
    1040
0
    1070
0
    1040
0
    1070
0
    1002
}
    1000
LeadOut
    1002
{
    1070
0
    1040
0
    1040
0
    1040
0
    1070
0
    1002
}
       0
INSERT
       5
2118
     100
AcDbEntity
       8
1
     100
AcDbBlockReference
       2
Part743740027
      10
2233.9812291771
      20
2845.38627837996
      30
0
      41
1
      42
1
      50
269.999999977959
    1001
FS_CYPCUT
    1000
Channel
    1070
1
    1000
LeadIn
    1002
{
    1070
0
    1040
0
    1040
0
    1040
0
    1040
0
    1070
0
    1040
0
    1070
0
    1002
}
    1000
LeadOut
    1002
{
    1070
0
    1040
0
    1040
0
    1040
0
    1070
0
    1002
}
       0
INSERT
       5
2119
     100
AcDbEntity
       8
1
     100
AcDbBlockReference
       2
Part1474526583
      10
2388.29426843288
      20
2847.38584469666
      30
0
      41
1
      42
1
      50
90.0000001836389
    1001
FS_CYPCUT
    1000
Channel
    1070
1
    1000
LeadIn
    1002
{
    1070
0
    1040
0
    1040
0
    1040
0
    1040
0
    1070
0
    1040
0
    1070
0
    1002
}
    1000
LeadOut
    1002
{
    1070
0
    1040
0
    1040
0
    1040
0
    1070
0
    1002
}
       0
INSERT
       5
211A
     100
AcDbEntity
       8
1
     100
AcDbBlockReference
       2
Part232722405
      10
2389.23061126513
      20
2971.55841144242
      30
0
      41
1
      42
1
      50
180
    1001
FS_CYPCUT
    1000
Channel
    1070
1
    1000
LeadIn
    1002
{
    1070
0
    1040
0
    1040
0
    1040
0
    1040
0
    1070
0
    1040
0
    1070
0
    1002
}
    1000
LeadOut
    1002
{
    1070
0
    1040
0
    1040
0
    1040
0
    1070
0
    1002
}
       0
INSERT
       5
211B
     100
AcDbEntity
       8
1
     100
AcDbBlockReference
       2
Part991762835
      10
2386.08101442122
      20
2973.65841141017
      30
0
      41
1
      42
1
      50
90.0000001836389
    1001
FS_CYPCUT
    1000
Channel
    1070
1
    1000
LeadIn
    1002
{
    1070
0
    1040
0
    1040
0
    1040
0
    1040
0
    1070
0
    1040
0
    1070
0
    1002
}
    1000
LeadOut
    1002
{
    1070
0
    1040
0
    1040
0
    1040
0
    1070
0
    1002
}
       0
LWPOLYLINE
       5
211C
     100
AcDbEntity
       8
1
     100
AcDbPolyline
      90
14
      70
1
      10
2415.37914746513
      20
2767.78121144242
      42
0
      10
2398.37914746513
      20
2767.78121144242
      42
-0.414213562373096
      10
2394.37914746513
      20
2771.78121144242
      42
0
      10
2394.37914746513
      20
2888.28121144242
      42
-0.414213562373095
      10
2398.37914746513
      20
2892.28121144242
      42
0
      10
2407.07914746513
      20
2892.28121144242
      42
0
      10
2407.07914746513
      20
2903.28121144242
      42
0
      10
2398.37914746513
      20
2903.28121144242
      42
-0.414213562373095
      10
2394.37914746513
      20
2907.28121144242
      42
0
      10
2394.37914746513
      20
3023.78121144242
      42
-0.414213562373092
      10
2398.37914746513
      20
3027.78121144242
      42
0
      10
2415.37914746513
      20
3027.78121144242
      42
-0.414213562373099
      10
2419.37914746513
      20
3023.78121144242
      42
0
      10
2419.37914746513
      20
2771.78121144242
      42
-0.414213562373091
    1001
FS_CYPCUT
    1000
Channel
    1070
1
    1000
LeadIn
    1002
{
    1070
3
    1040
12.5
    1040
1.5707963267949
    1040
0.5
    1040
0.3
    1070
0
    1040
0.5
    1070
0
    1002
}
    1000
LeadOut
    1002
{
    1070
0
    1040
0
    1040
0
    1040
0
    1070
0
    1002
}
    1000
IsFill
    1070
1
    1000
PathStart
    1040
12.5
    1000
ToolCompensation
    1002
{
    1070
0
    1040
0
    1070
0
    1002
}
    1000
MicroConnect
    1002
{
    1070
2
    1040
8.46933232
    1041
0.6
    1042
0
    1040
12.7161786
    1041
0.6
    1042
0
    1002
}
       0
ENDSEC
  0
SECTION
  2
OBJECTS
  0
DICTIONARY
  5
111
330
0
100
AcDbDictionary
281
     1
  3
ACAD_COLOR
350
120
  3
ACAD_GROUP
350
112
  3
ACAD_LAYOUT
350
11E
  3
ACAD_MATERIAL
350
11F
  3
ACAD_MLINESTYLE
350
11B
  3
ACAD_PLOTSETTINGS
350
11D
  3
ACAD_PLOTSTYLENAME
350
113
  3
ACAD_TABLESTYLE
350
121
  3
AcDbVariableDictionary
350
135
  0
DICTIONARY
  5
120
102
{ACAD_REACTORS
330
111
102
}
330
111
100
AcDbDictionary
281
     1
  0
DICTIONARY
  5
112
102
{ACAD_REACTORS
330
111
102
}
330
111
100
AcDbDictionary
281
     1
  0
DICTIONARY
  5
11E
102
{ACAD_REACTORS
330
111
102
}
330
111
100
AcDbDictionary
281
     1
  3
Model
350
12A
  3
布局1
350
126
  0
DICTIONARY
  5
11F
102
{ACAD_REACTORS
330
111
102
}
330
111
100
AcDbDictionary
281
     1
  0
DICTIONARY
  5
11B
102
{ACAD_REACTORS
330
111
102
}
330
111
100
AcDbDictionary
281
     1
  3
Standard
350
11C
  0
DICTIONARY
  5
11D
102
{ACAD_REACTORS
330
111
102
}
330
111
100
AcDbDictionary
281
     1
  0
ACDBDICTIONARYWDFLT
  5
113
102
{ACAD_REACTORS
330
111
102
}
330
111
100
AcDbDictionary
281
     1
  3
Normal
350
114
100
AcDbDictionaryWithDefault
340
114
  0
DICTIONARY
  5
121
102
{ACAD_REACTORS
330
111
102
}
330
111
100
AcDbDictionary
281
     1
  3
Standard
350
122
  0
DICTIONARY
  5
135
102
{ACAD_REACTORS
330
111
102
}
330
111
100
AcDbDictionary
281
     1
  3
CTABLESTYLE
350
136
  0
LAYOUT
  5
12A
102
{ACAD_REACTORS
330
11E
102
}
330
11E
100
AcDbPlotSettings
  1

  2
发送至 OneNote 2010
  4

  6

 40
0.0
 41
0.0
 42
0.0
 43
0.0
 44
0.0
 45
0.0
 46
0.0
 47
0.0
 48
0.0
 49
0.0
140
0.0
141
0.0
142
1.0
143
1.0
 70
  1712
 72
     0
 73
     0
 74
     0
  7

 75
     0
147
1.0
 76
     0
 77
     2
 78
   300
148
0.0
149
0.0
100
AcDbLayout
  1
Model
 70
     1
 71
     0
 10
0.0
 20
0.0
 11
12.0
 21
9.0
 12
0.0
 22
0.0
 32
0.0
 14
0.0
 24
0.0
 34
0.0
 15
0.0
 25
0.0
 35
0.0
146
0.0
 13
0.0
 23
0.0
 33
0.0
 16
1.0
 26
0.0
 36
0.0
 17
0.0
 27
1.0
 37
0.0
 76
     0
330
127
  0
LAYOUT
  5
126
102
{ACAD_REACTORS
330
11E
102
}
330
11E
100
AcDbPlotSettings
  1

  2
发送至 OneNote 2010
  4

  6

 40
0.0
 41
0.0
 42
0.0
 43
0.0
 44
0.0
 45
0.0
 46
0.0
 47
0.0
 48
0.0
 49
0.0
140
0.0
141
0.0
142
1.0
143
1.0
 70
   688
 72
     0
 73
     0
 74
     5
  7

 75
    16
147
1.0
 76
     0
 77
     2
 78
   300
148
0.0
149
0.0
100
AcDbLayout
  1
布局1
 70
     1
 71
     1
 10
0.0
 20
0.0
 11
12.0
 21
9.0
 12
0.0
 22
0.0
 32
0.0
 14
0.0
 24
0.0
 34
0.0
 15
0.0
 25
0.0
 35
0.0
146
0.0
 13
0.0
 23
0.0
 33
0.0
 16
1.0
 26
0.0
 36
0.0
 17
0.0
 27
1.0
 37
0.0
 76
     0
330
123
  0
MLINESTYLE
  5
11C
102
{ACAD_REACTORS
330
11B
102
}
330
11B
100
AcDbMlineStyle
  2
STANDARD
 70
     0
  3

 62
   256
 51
90.0
 52
90.0
 71
     2
 49
0.5
 62
   256
  6
BYLAYER
 49
-0.5
 62
   256
  6
BYLAYER
  0
ACDBPLACEHOLDER
  5
114
102
{ACAD_REACTORS
330
113
102
}
330
113
  0
TABLESTYLE
  5
122
102
{ACAD_REACTORS
330
121
102
}
330
121
100
AcDbTableStyle
  3
Standard
 70
     0
 71
     0
 40
0.06
 41
0.06
280
     0
281
     0
  7
STANDARD
140
0.18
170
     2
 62
     0
 63
     7
283
     0
274
    -2
284
     1
 64
     0
275
    -2
285
     1
 65
     0
276
    -2
286
     1
 66
     0
277
    -2
287
     1
 67
     0
278
    -2
288
     1
 68
     0
279
    -2
289
     1
 69
     0
  7
STANDARD
140
0.25
170
     5
 62
     0
 63
     7
283
     0
274
    -2
284
     1
 64
     0
275
    -2
285
     1
 65
     0
276
    -2
286
     1
 66
     0
277
    -2
287
     1
 67
     0
278
    -2
288
     1
 68
     0
279
    -2
289
     1
 69
     0
  7
STANDARD
140
0.18
170
     5
 62
     0
 63
     7
283
     0
274
    -2
284
     1
 64
     0
275
    -2
285
     1
 65
     0
276
    -2
286
     1
 66
     0
277
    -2
287
     1
 67
     0
278
    -2
288
     1
 68
     0
279
    -2
289
     1
 69
     0
  0
DICTIONARYVAR
  5
136
102
{ACAD_REACTORS
330
135
102
}
330
135
100
DictionaryVariables
280
     0
  1
STANDARD
  0
ENDSEC
  0
EOF
