  0
SECTION
  2
HEADER
  9
$ACADVER
  1
AC1018
  9
$ACADMAINTVER
 70
    77
  9
$DWGCODEPAGE
  3
ANSI_936
  9
$INSBASE
 10
0.0
 20
0.0
 30
0.0
  9
$EXTMIN
 10
2126.22274928043
 20
3244.70612708467
 30
0.0
  9
$EXTMAX
 10
3320.42144928043
 20
3608.50612719641
 30
0.0
  9
$LIMMIN
 10
0.0
 20
0.0
  9
$LIMMAX
 10
420.0
 20
297.0
  9
$ORTHOMODE
 70
     0
  9
$REGENMODE
 70
     1
  9
$FILLMODE
 70
     1
  9
$QTEXTMODE
 70
     0
  9
$MIRRTEXT
 70
     0
  9
$LTSCALE
 40
1.0
  9
$ATTMODE
 70
     1
  9
$TEXTSIZE
 40
2.5
  9
$TRACEWID
 40
1.0
  9
$TEXTSTYLE
  7
STANDARD
  9
$CLAYER
  8
0
  9
$CELTYPE
  6
ByLayer
  9
$CECOLOR
 62
   256
  9
$CELTSCALE
 40
1.0
  9
$DISPSILH
 70
     0
  9
$DIMSCALE
 40
1.0
  9
$DIMASZ
 40
2.5
  9
$DIMEXO
 40
0.625
  9
$DIMDLI
 40
3.75
  9
$DIMRND
 40
0.0
  9
$DIMDLE
 40
0.0
  9
$DIMEXE
 40
1.25
  9
$DIMTP
 40
0.0
  9
$DIMTM
 40
0.0
  9
$DIMTXT
 40
2.5
  9
$DIMCEN
 40
2.5
  9
$DIMTSZ
 40
0.0
  9
$DIMTOL
 70
     0
  9
$DIMLIM
 70
     0
  9
$DIMTIH
 70
     0
  9
$DIMTOH
 70
     0
  9
$DIMSE1
 70
     0
  9
$DIMSE2
 70
     0
  9
$DIMTAD
 70
     1
  9
$DIMZIN
 70
     8
  9
$DIMBLK
  1

  9
$DIMASO
 70
     1
  9
$DIMSHO
 70
     1
  9
$DIMPOST
  1

  9
$DIMAPOST
  1

  9
$DIMALT
 70
     0
  9
$DIMALTD
 70
     3
  9
$DIMALTF
 40
0.03937007874016
  9
$DIMLFAC
 40
1.0
  9
$DIMTOFL
 70
     1
  9
$DIMTVP
 40
0.0
  9
$DIMTIX
 70
     0
  9
$DIMSOXD
 70
     0
  9
$DIMSAH
 70
     0
  9
$DIMBLK1
  1

  9
$DIMBLK2
  1

  9
$DIMSTYLE
  2
ISO-25
  9
$DIMCLRD
 70
     0
  9
$DIMCLRE
 70
     0
  9
$DIMCLRT
 70
     0
  9
$DIMTFAC
 40
1.0
  9
$DIMGAP
 40
0.625
  9
$DIMJUST
 70
     0
  9
$DIMSD1
 70
     0
  9
$DIMSD2
 70
     0
  9
$DIMTOLJ
 70
     1
  9
$DIMTZIN
 70
     0
  9
$DIMALTZ
 70
     0
  9
$DIMALTTZ
 70
     0
  9
$DIMUPT
 70
     0
  9
$DIMDEC
 70
     4
  9
$DIMTDEC
 70
     4
  9
$DIMALTU
 70
     2
  9
$DIMALTTD
 70
     2
  9
$DIMTXSTY
  7
STANDARD
  9
$DIMAUNIT
 70
     0
  9
$DIMADEC
 70
     0
  9
$DIMALTRND
 40
0.0
  9
$DIMAZIN
 70
     0
  9
$DIMDSEP
 70
    46
  9
$DIMATFIT
 70
     3
  9
$DIMFRAC
 70
     0
  9
$DIMLDRBLK
  1

  9
$DIMLUNIT
 70
     2
  9
$DIMLWD
 70
    -2
  9
$DIMLWE
 70
    -2
  9
$DIMTMOVE
 70
     0
  9
$LUNITS
 70
     2
  9
$LUPREC
 70
     4
  9
$SKETCHINC
 40
1.0
  9
$FILLETRAD
 40
0.0
  9
$AUNITS
 70
     0
  9
$AUPREC
 70
     0
  9
$MENU
  1
.
  9
$ELEVATION
 40
0.0
  9
$PELEVATION
 40
0.0
  9
$THICKNESS
 40
0.0
  9
$LIMCHECK
 70
     0
  9
$CHAMFERA
 40
0.0
  9
$CHAMFERB
 40
0.0
  9
$CHAMFERC
 40
0.0
  9
$CHAMFERD
 40
0.0
  9
$SKPOLY
 70
     0
  9
$TDCREATE
 40
2456997.676706910
  9
$TDUCREATE
 40
2456997.343373576
  9
$TDUPDATE
 40
2456997.680113438
  9
$TDUUPDATE
 40
2456997.346780104
  9
$TDINDWG
 40
0.0010312963
  9
$TDUSRTIMER
 40
0.0010311806
  9
$USRTIMER
 70
     1
  9
$ANGBASE
 50
0.0
  9
$ANGDIR
 70
     0
  9
$PDMODE
 70
     0
  9
$PDSIZE
 40
0.0
  9
$PLINEWID
 40
0.0
  9
$SPLFRAME
 70
     0
  9
$SPLINETYPE
 70
     6
  9
$SPLINESEGS
 70
     8
  9
$HANDSEED
  5
24E3
  9
$SURFTAB1
 70
     6
  9
$SURFTAB2
 70
     6
  9
$SURFTYPE
 70
     6
  9
$SURFU
 70
     6
  9
$SURFV
 70
     6
  9
$UCSBASE
  2

  9
$UCSNAME
  2

  9
$UCSORG
 10
0.0
 20
0.0
 30
0.0
  9
$UCSXDIR
 10
1.0
 20
0.0
 30
0.0
  9
$UCSYDIR
 10
0.0
 20
1.0
 30
0.0
  9
$UCSORTHOREF
  2

  9
$UCSORTHOVIEW
 70
     0
  9
$UCSORGTOP
 10
0.0
 20
0.0
 30
0.0
  9
$UCSORGBOTTOM
 10
0.0
 20
0.0
 30
0.0
  9
$UCSORGLEFT
 10
0.0
 20
0.0
 30
0.0
  9
$UCSORGRIGHT
 10
0.0
 20
0.0
 30
0.0
  9
$UCSORGFRONT
 10
0.0
 20
0.0
 30
0.0
  9
$UCSORGBACK
 10
0.0
 20
0.0
 30
0.0
  9
$PUCSBASE
  2

  9
$PUCSNAME
  2

  9
$PUCSORG
 10
0.0
 20
0.0
 30
0.0
  9
$PUCSXDIR
 10
1.0
 20
0.0
 30
0.0
  9
$PUCSYDIR
 10
0.0
 20
1.0
 30
0.0
  9
$PUCSORTHOREF
  2

  9
$PUCSORTHOVIEW
 70
     0
  9
$PUCSORGTOP
 10
0.0
 20
0.0
 30
0.0
  9
$PUCSORGBOTTOM
 10
0.0
 20
0.0
 30
0.0
  9
$PUCSORGLEFT
 10
0.0
 20
0.0
 30
0.0
  9
$PUCSORGRIGHT
 10
0.0
 20
0.0
 30
0.0
  9
$PUCSORGFRONT
 10
0.0
 20
0.0
 30
0.0
  9
$PUCSORGBACK
 10
0.0
 20
0.0
 30
0.0
  9
$USERI1
 70
     0
  9
$USERI2
 70
     0
  9
$USERI3
 70
     0
  9
$USERI4
 70
     0
  9
$USERI5
 70
     0
  9
$USERR1
 40
0.0
  9
$USERR2
 40
0.0
  9
$USERR3
 40
0.0
  9
$USERR4
 40
0.0
  9
$USERR5
 40
0.0
  9
$WORLDVIEW
 70
     1
  9
$SHADEDGE
 70
     3
  9
$SHADEDIF
 70
    70
  9
$TILEMODE
 70
     1
  9
$MAXACTVP
 70
    64
  9
$PINSBASE
 10
0.0
 20
0.0
 30
0.0
  9
$PLIMCHECK
 70
     0
  9
$PEXTMIN
 10
0.0
 20
0.0
 30
0.0
  9
$PEXTMAX
 10
0.0
 20
0.0
 30
0.0
  9
$PLIMMIN
 10
0.0
 20
0.0
  9
$PLIMMAX
 10
12.0
 20
9.0
  9
$UNITMODE
 70
     0
  9
$VISRETAIN
 70
     1
  9
$PLINEGEN
 70
     0
  9
$PSLTSCALE
 70
     1
  9
$TREEDEPTH
 70
  3020
  9
$CMLSTYLE
  2
Standard
  9
$CMLJUST
 70
     0
  9
$CMLSCALE
 40
1.0
  9
$PROXYGRAPHICS
 70
     1
  9
$MEASUREMENT
 70
     1
  9
$CELWEIGHT
370
    -1
  9
$ENDCAPS
280
     0
  9
$JOINSTYLE
280
     0
  9
$LWDISPLAY
290
     0
  9
$INSUNITS
 70
     0
  9
$HYPERLINKBASE
  1

  9
$STYLESHEET
  1

  9
$XEDIT
290
     1
  9
$CEPSNTYPE
380
     0
  9
$PSTYLEMODE
290
     1
  9
$FINGERPRINTGUID
  2
{1F2D6530-6BF2-4D5E-922F-A9C54F637010}
  9
$VERSIONGUID
  2
{15AD9CB5-51D1-451C-B472-5DB36EFAD6AD}
  9
$EXTNAMES
290
     1
  9
$PSVPSCALE
 40
0.0
  9
$OLESTARTUP
290
     0
  9
$SORTENTS
280
   127
  9
$INDEXCTL
280
     0
  9
$HIDETEXT
280
     0
  9
$XCLIPFRAME
290
     0
  9
$HALOGAP
280
     0
  9
$OBSCOLOR
 70
   257
  9
$OBSLTYPE
280
     0
  9
$INTERSECTIONDISPLAY
280
     0
  9
$INTERSECTIONCOLOR
 70
   257
  9
$DIMASSOC
280
     1
  9
$PROJECTNAME
  1

  0
ENDSEC
  0
SECTION
  2
CLASSES
  0
CLASS
  1
ACDBDICTIONARYWDFLT
  2
AcDbDictionaryWithDefault
  3
ObjectDBX Classes
 90
        0
 91
        1
280
     0
281
     0
  0
CLASS
  1
TABLESTYLE
  2
AcDbTableStyle
  3
ObjectDBX Classes
 90
     2047
 91
        1
280
     0
281
     0
  0
CLASS
  1
DICTIONARYVAR
  2
AcDbDictionaryVar
  3
ObjectDBX Classes
 90
        0
 91
        1
280
     0
281
     0
  0
ENDSEC
  0
SECTION
  2
TABLES
  0
TABLE
  2
VPORT
  5
10D
330
0
100
AcDbSymbolTable
 70
     2
  0
VPORT
  5
137
330
10D
100
AcDbSymbolTableRecord
100
AcDbViewportTableRecord
  2
*Active
 70
     0
 10
0.0
 20
0.0
 11
1.0
 21
1.0
 12
2723.32209928043
 22
3426.60612714054
 13
0.0
 23
0.0
 14
10.0
 24
10.0
 15
10.0
 25
10.0
 16
0.0
 26
0.0
 36
1.0
 17
0.0
 27
0.0
 37
0.0
 40
551.708552688342
 41
2.435135135135135
 42
50.0
 43
0.0
 44
0.0
 50
0.0
 51
0.0
 71
     0
 72
  1000
 73
     1
 74
     3
 75
     0
 76
     0
 77
     0
 78
     0
281
     0
 65
     1
110
0.0
120
0.0
130
0.0
111
1.0
121
0.0
131
0.0
112
0.0
122
1.0
132
0.0
 79
     0
146
0.0
  0
ENDTAB
  0
TABLE
  2
LTYPE
  5
10A
330
0
100
AcDbSymbolTable
 70
     1
  0
LTYPE
  5
118
330
10A
100
AcDbSymbolTableRecord
100
AcDbLinetypeTableRecord
  2
ByBlock
 70
     0
  3

 72
    65
 73
     0
 40
0.0
  0
LTYPE
  5
119
330
10A
100
AcDbSymbolTableRecord
100
AcDbLinetypeTableRecord
  2
ByLayer
 70
     0
  3

 72
    65
 73
     0
 40
0.0
  0
LTYPE
  5
11A
330
10A
100
AcDbSymbolTableRecord
100
AcDbLinetypeTableRecord
  2
CONTINUOUS
 70
     0
  3
Solid line
 72
    65
 73
     0
 40
0.0
  0
ENDTAB
  0
TABLE
  2
LAYER
  5
107
330
0
100
AcDbSymbolTable
 70
     1
  0
LAYER
  5
115
330
107
100
AcDbSymbolTableRecord
100
AcDbLayerTableRecord
  2
0
 70
     0
 62
     7
  6
CONTINUOUS
370
    -3
390
114
  0
ENDTAB
  0
TABLE
  2
STYLE
  5
108
330
0
100
AcDbSymbolTable
 70
     1
  0
STYLE
  5
116
330
108
100
AcDbSymbolTableRecord
100
AcDbTextStyleTableRecord
  2
STANDARD
 70
     0
 40
0.0
 41
1.0
 50
0.0
 71
     0
 42
2.5
  3
txt
  4
gbcbig.shx
  0
ENDTAB
  0
TABLE
  2
VIEW
  5
10B
330
0
100
AcDbSymbolTable
 70
     0
  0
ENDTAB
  0
TABLE
  2
UCS
  5
10C
330
0
100
AcDbSymbolTable
 70
     0
  0
ENDTAB
  0
TABLE
  2
APPID
  5
10E
330
0
100
AcDbSymbolTable
 70
     2
  0
APPID
  5
117
330
10E
100
AcDbSymbolTableRecord
100
AcDbRegAppTableRecord
  2
ACAD
 70
     0
  0
APPID
  5
12C
330
10E
100
AcDbSymbolTableRecord
100
AcDbRegAppTableRecord
  2
ACAD_PSEXT
 70
     0
  0
APPID
  5
112C
330
10E
100
AcDbSymbolTableRecord
100
AcDbRegAppTableRecord
  2
FS_CYPCUT
 70
     0
  0
ENDTAB
  0
TABLE
  2
DIMSTYLE
  5
10F
330
0
100
AcDbSymbolTable
 70
     1
100
AcDbDimStyleTable
 71
     0
  0
DIMSTYLE
105
12D
330
10F
100
AcDbSymbolTableRecord
100
AcDbDimStyleTableRecord
  2
ISO-25
 70
     0
 41
2.5
 42
0.625
 43
3.75
 44
1.25
 73
     0
 74
     0
 77
     1
 78
     8
140
2.5
141
2.5
143
0.03937007874016
147
0.625
171
     3
172
     1
274
     3
279
     2
284
     8
285
     8
286
     8
340
116
  0
ENDTAB
  0
TABLE
  2
BLOCK_RECORD
  5
106
330
0
100
AcDbSymbolTable
 70
     2
  0
BLOCK_RECORD
  5
127
330
106
100
AcDbSymbolTableRecord
100
AcDbBlockTableRecord
  2
*Model_Space
340
12A
  0
BLOCK_RECORD
  5
123
330
106
100
AcDbSymbolTableRecord
100
AcDbBlockTableRecord
  2
*Paper_Space
340
126
  0
BLOCK_RECORD
  5
130
330
106
100
AcDbSymbolTableRecord
100
AcDbBlockTableRecord
  2
$MODEL_SPACE
340
0
  0
BLOCK_RECORD
  5
132
330
106
100
AcDbSymbolTableRecord
100
AcDbBlockTableRecord
  2
$PAPER_SPACE
340
0
       0
BLOCK_RECORD
       5
2000
     330
106
     100
AcDbSymbolTableRecord
     100
AcDbBlockTableRecord
       2
Part2095969230
       0
BLOCK_RECORD
       5
2001
     330
106
     100
AcDbSymbolTableRecord
     100
AcDbBlockTableRecord
       2
Part1041535872
       0
BLOCK_RECORD
       5
2002
     330
106
     100
AcDbSymbolTableRecord
     100
AcDbBlockTableRecord
       2
Part1916705516
       0
BLOCK_RECORD
       5
2003
     330
106
     100
AcDbSymbolTableRecord
     100
AcDbBlockTableRecord
       2
Part816095118
       0
BLOCK_RECORD
       5
2004
     330
106
     100
AcDbSymbolTableRecord
     100
AcDbBlockTableRecord
       2
Part815063587
       0
BLOCK_RECORD
       5
2005
     330
106
     100
AcDbSymbolTableRecord
     100
AcDbBlockTableRecord
       2
Part953450251
       0
BLOCK_RECORD
       5
2006
     330
106
     100
AcDbSymbolTableRecord
     100
AcDbBlockTableRecord
       2
Part507777632
       0
BLOCK_RECORD
       5
2007
     330
106
     100
AcDbSymbolTableRecord
     100
AcDbBlockTableRecord
       2
Part1204952546
       0
BLOCK_RECORD
       5
2008
     330
106
     100
AcDbSymbolTableRecord
     100
AcDbBlockTableRecord
       2
Part1167827310
       0
BLOCK_RECORD
       5
2009
     330
106
     100
AcDbSymbolTableRecord
     100
AcDbBlockTableRecord
       2
Part33843513
       0
BLOCK_RECORD
       5
200A
     330
106
     100
AcDbSymbolTableRecord
     100
AcDbBlockTableRecord
       2
Part1173395400
       0
BLOCK_RECORD
       5
200B
     330
106
     100
AcDbSymbolTableRecord
     100
AcDbBlockTableRecord
       2
Part602235770
       0
BLOCK_RECORD
       5
200C
     330
106
     100
AcDbSymbolTableRecord
     100
AcDbBlockTableRecord
       2
Part1788484452
       0
BLOCK_RECORD
       5
200D
     330
106
     100
AcDbSymbolTableRecord
     100
AcDbBlockTableRecord
       2
Part1183284387
       0
BLOCK_RECORD
       5
200E
     330
106
     100
AcDbSymbolTableRecord
     100
AcDbBlockTableRecord
       2
Part1688123569
       0
BLOCK_RECORD
       5
200F
     330
106
     100
AcDbSymbolTableRecord
     100
AcDbBlockTableRecord
       2
Part258805254
       0
BLOCK_RECORD
       5
2010
     330
106
     100
AcDbSymbolTableRecord
     100
AcDbBlockTableRecord
       2
Part1781003809
       0
BLOCK_RECORD
       5
2011
     330
106
     100
AcDbSymbolTableRecord
     100
AcDbBlockTableRecord
       2
Part1925552300
       0
BLOCK_RECORD
       5
2012
     330
106
     100
AcDbSymbolTableRecord
     100
AcDbBlockTableRecord
       2
Part239770873
       0
BLOCK_RECORD
       5
2013
     330
106
     100
AcDbSymbolTableRecord
     100
AcDbBlockTableRecord
       2
Part1949415135
       0
BLOCK_RECORD
       5
2014
     330
106
     100
AcDbSymbolTableRecord
     100
AcDbBlockTableRecord
       2
CommonPart2042970203
       0
BLOCK_RECORD
       5
2015
     330
106
     100
AcDbSymbolTableRecord
     100
AcDbBlockTableRecord
       2
Part1308438368
       0
BLOCK_RECORD
       5
2016
     330
106
     100
AcDbSymbolTableRecord
     100
AcDbBlockTableRecord
       2
Part426521319
       0
BLOCK_RECORD
       5
2017
     330
106
     100
AcDbSymbolTableRecord
     100
AcDbBlockTableRecord
       2
Part547135112
       0
BLOCK_RECORD
       5
2018
     330
106
     100
AcDbSymbolTableRecord
     100
AcDbBlockTableRecord
       2
Part1987929476
       0
BLOCK_RECORD
       5
2019
     330
106
     100
AcDbSymbolTableRecord
     100
AcDbBlockTableRecord
       2
Part487684778
       0
BLOCK_RECORD
       5
201A
     330
106
     100
AcDbSymbolTableRecord
     100
AcDbBlockTableRecord
       2
Part1107951411
       0
BLOCK_RECORD
       5
201B
     330
106
     100
AcDbSymbolTableRecord
     100
AcDbBlockTableRecord
       2
Part391836853
       0
BLOCK_RECORD
       5
201C
     330
106
     100
AcDbSymbolTableRecord
     100
AcDbBlockTableRecord
       2
Part678293990
       0
BLOCK_RECORD
       5
201D
     330
106
     100
AcDbSymbolTableRecord
     100
AcDbBlockTableRecord
       2
Part1106219350
       0
BLOCK_RECORD
       5
201E
     330
106
     100
AcDbSymbolTableRecord
     100
AcDbBlockTableRecord
       2
Part583247149
  0
ENDTAB
  0
ENDSEC
  0
SECTION
  2
BLOCKS
  0
BLOCK
  5
128
330
127
100
AcDbEntity
  8
0
100
AcDbBlockBegin
  2
*Model_Space
 70
     0
 10
0.0
 20
0.0
 30
0.0
  3
*Model_Space
  1

  0
ENDBLK
  5
129
330
127
100
AcDbEntity
  8
0
100
AcDbBlockEnd
  0
BLOCK
  5
124
330
123
100
AcDbEntity
 67
     1
  8
0
100
AcDbBlockBegin
  2
*Paper_Space
 70
     0
 10
0.0
 20
0.0
 30
0.0
  3
*Paper_Space
  1

  0
ENDBLK
  5
125
330
123
100
AcDbEntity
 67
     1
  8
0
100
AcDbBlockEnd
  0
BLOCK
  5
131
330
130
100
AcDbEntity
  8
0
100
AcDbBlockBegin
  2
$MODEL_SPACE
 70
     0
 10
0.0
 20
0.0
 30
0.0
  3
$MODEL_SPACE
  1

  0
ENDBLK
  5
21
330
130
100
AcDbEntity
  8
0
100
AcDbBlockEnd
  0
BLOCK
  5
133
330
132
100
AcDbEntity
  8
0
100
AcDbBlockBegin
  2
$PAPER_SPACE
 70
     0
 10
0.0
 20
0.0
 30
0.0
  3
$PAPER_SPACE
  1

  0
ENDBLK
  5
D5
330
132
100
AcDbEntity
  8
0
100
AcDbBlockEnd
       0
BLOCK
       5
201F
     330
2000
     100
AcDbEntity
       8
0
     100
AcDbBlockBegin
       2
Part2095969230
      70
0
      10
-2.84217094E-14
      20
-44.7662825
      30
0
       3
Part2095969230
       1

       4
CypCutBlock
       0
CIRCLE
       5
2020
     100
AcDbEntity
       8
1
     100
AcDbCircle
      10
16
      20
-24.7662824618
      30
0
      40
5.24999999999994
    1001
FS_CYPCUT
    1000
Channel
    1070
1
    1000
LeadIn
    1002
{
    1070
3
    1040
0
    1040
1.5707963267949
    1040
0.5
    1040
0.3
    1070
0
    1040
0.5
    1070
0
    1002
}
    1000
LeadOut
    1002
{
    1070
0
    1040
0
    1040
0
    1040
0
    1070
0
    1002
}
    1000
IsFill
    1070
0
    1000
PathStart
    1040
1
    1000
ToolCompensation
    1002
{
    1070
0
    1040
0
    1070
0
    1002
}
       0
LINE
       5
2021
     100
AcDbEntity
       8
2
     100
AcDbLine
      10
-2.8421709430404E-14
      20
-4.2631412309
      30
0
      11
120
      21
-4.2631412309
      31
0
    1001
FS_CYPCUT
    1000
Channel
    1070
2
    1000
LeadIn
    1002
{
    1070
3
    1040
0
    1040
1.5707963267949
    1040
0.5
    1040
0.3
    1070
0
    1040
0.5
    1070
0
    1002
}
    1000
LeadOut
    1002
{
    1070
0
    1040
0
    1040
0
    1040
0
    1070
0
    1002
}
    1000
IsFill
    1070
0
    1000
PathStart
    1040
0
    1000
ToolCompensation
    1002
{
    1070
0
    1040
0
    1070
0
    1002
}
       0
LWPOLYLINE
       5
2022
     100
AcDbEntity
       8
1
     100
AcDbPolyline
      90
6
      70
1
      10
50.6699841633
      20
31.8934221766
      42
0
      10
83.2380970132715
      20
62.9811662606758
      42
-0.659802924118891
      10
90
      20
60.0877440841
      42
0
      10
90
      20
29
      42
-0.414213562373096
      10
86
      20
25
      42
0
      10
53.43188715
      20
25
      42
-0.676619669694378
    1001
FS_CYPCUT
    1000
Channel
    1070
1
    1000
LeadIn
    1002
{
    1070
3
    1040
0.5
    1040
1.5707963267949
    1040
0.5
    1040
0.3
    1070
0
    1040
0.5
    1070
0
    1002
}
    1000
LeadOut
    1002
{
    1070
0
    1040
0
    1040
0
    1040
0
    1070
0
    1002
}
    1000
IsFill
    1070
0
    1000
PathStart
    1040
0.5
    1000
ToolCompensation
    1002
{
    1070
0
    1040
0
    1070
0
    1002
}
       0
LWPOLYLINE
       5
2023
     100
AcDbEntity
       8
1
     100
AcDbPolyline
      90
21
      70
1
      10
-2.8421709430404E-14
      20
20.7209942493
      42
-0.204962330730744
      10
3.09524253317898
      20
27.9545496907393
      42
0
      10
107.1018199863
      20
127.2335554414
      42
-0.192876378674815
      10
114.0065774531
      20
130
      42
0
      10
148
      20
130
      42
-0.414213562373101
      10
150
      20
128
      42
0
      10
150
      20
106.37
      42
-0.414213562373099
      10
148
      20
104.37
      42
0
      10
123
      20
104.37
      42
0.414213562373095
      10
120
      20
101.37
      42
0
      10
120
      20
31.37
      42
0.414213562373095
      10
123
      20
28.37
      42
0
      10
148
      20
28.37
      42
-0.414213562373095
      10
150
      20
26.37
      42
0
      10
150
      20
12.74
      42
-0.414213562373095
      10
140
      20
2.73999999999998
      42
0
      10
120
      20
2.74
      42
0
      10
120
      20
-42.7662824618
      42
-0.414213562373097
      10
118
      20
-44.7662824618
      42
0
      10
9.99999999999997
      20
-44.7662824618001
      42
-0.414213562373095
      10
-2.8421709430404E-14
      20
-34.7662824618
      42
0
    1001
FS_CYPCUT
    1000
Channel
    1070
1
    1000
LeadIn
    1002
{
    1070
3
    1040
1.50088733152771
    1040
1.5707963267949
    1040
0.5
    1040
0.3
    1070
0
    1040
0.5
    1070
0
    1002
}
    1000
LeadOut
    1002
{
    1070
0
    1040
0
    1040
0
    1040
0
    1070
0
    1002
}
    1000
IsFill
    1070
1
    1000
PathStart
    1040
1.5
    1000
ToolCompensation
    1002
{
    1070
0
    1040
0
    1070
0
    1002
}
    1000
MicroConnect
    1002
{
    1070
3
    1040
1.49532341
    1041
0.8
    1042
0
    1040
5.51187931
    1041
0.8
    1042
0
    1040
18.5336565
    1041
0.8
    1042
0
    1002
}
       0
ENDBLK
       5
2024
     330
2000
     100
AcDbEntity
       8
0
     100
AcDbBlockEnd
       0
BLOCK
       5
2025
     330
2001
     100
AcDbEntity
       8
0
     100
AcDbBlockBegin
       2
Part1041535872
      70
0
      10
-26
      20
-30
      30
0
       3
Part1041535872
       1

       4
CypCutBlock
       0
CIRCLE
       5
2026
     100
AcDbEntity
       8
1
     100
AcDbCircle
      10
0
      20
0
      30
0
      40
3.25
    1001
FS_CYPCUT
    1000
Channel
    1070
1
    1000
LeadIn
    1002
{
    1070
3
    1040
0
    1040
1.5707963267949
    1040
0.5
    1040
0.3
    1070
0
    1040
0.5
    1070
0
    1002
}
    1000
LeadOut
    1002
{
    1070
0
    1040
0
    1040
0
    1040
0
    1070
0
    1002
}
    1000
IsFill
    1070
0
    1000
PathStart
    1040
0
    1000
ToolCompensation
    1002
{
    1070
0
    1040
0
    1070
0
    1002
}
       0
LWPOLYLINE
       5
2027
     100
AcDbEntity
       8
1
     100
AcDbPolyline
      90
8
      70
1
      10
7.83975959187205
      20
-6.20791185034471
      42
0.627140339721487
      10
3.06151588455595E-15
      20
10
      42
0
      10
-24
      20
10
      42
0.414213562373094
      10
-26
      20
8
      42
0
      10
-26
      20
-28
      42
0.414213562373096
      10
-24
      20
-30
      42
0
      10
-13.4184977264
      20
-30
      42
0.229150277438474
      10
-9.4986179304
      20
-28.1039559252
      42
0
    1001
FS_CYPCUT
    1000
Channel
    1070
1
    1000
LeadIn
    1002
{
    1070
3
    1040
3.50860517222222
    1040
1.5707963267949
    1040
0.5
    1040
0.3
    1070
0
    1040
0.5
    1070
0
    1002
}
    1000
LeadOut
    1002
{
    1070
0
    1040
0
    1040
0
    1040
0
    1070
0
    1002
}
    1000
IsFill
    1070
1
    1000
PathStart
    1040
3.5
    1000
ToolCompensation
    1002
{
    1070
0
    1040
0
    1070
0
    1002
}
    1000
MicroConnect
    1002
{
    1070
1
    1040
3.48638295
    1041
0.8
    1042
0
    1002
}
       0
ENDBLK
       5
2028
     330
2001
     100
AcDbEntity
       8
0
     100
AcDbBlockEnd
       0
BLOCK
       5
2029
     330
2002
     100
AcDbEntity
       8
0
     100
AcDbBlockBegin
       2
Part1916705516
      70
0
      10
-43
      20
-72.85
      30
0
       3
Part1916705516
       1

       4
CypCutBlock
       0
CIRCLE
       5
202A
     100
AcDbEntity
       8
1
     100
AcDbCircle
      10
-32
      20
-8.5
      30
0
      40
3.25
    1001
FS_CYPCUT
    1000
Channel
    1070
1
    1000
LeadIn
    1002
{
    1070
3
    1040
0
    1040
1.5707963267949
    1040
1
    1040
0.5
    1070
0
    1040
0.5
    1070
0
    1002
}
    1000
LeadOut
    1002
{
    1070
0
    1040
0
    1040
0
    1040
0
    1070
0
    1002
}
    1000
IsFill
    1070
0
    1000
PathStart
    1040
0
    1000
ToolCompensation
    1002
{
    1070
0
    1040
0
    1070
0
    1002
}
       0
LWPOLYLINE
       5
202B
     100
AcDbEntity
       8
1
     100
AcDbPolyline
      90
8
      70
1
      10
20.3192963546351
      20
-31.3677218312779
      42
0.479810954381453
      10
16.4145481139
      20
-26.5
      42
0
      10
-19
      20
-26.5
      42
0.414213562373095
      10
-23
      20
-30.5
      42
0
      10
-23
      20
-42.5
      42
0.414213562373096
      10
-19
      20
-46.5
      42
0
      10
13.7478814472
      20
-46.5
      42
0.351523986276144
      10
17.6526296879366
      20
-43.3677218312711
      42
0
    1001
FS_CYPCUT
    1000
Channel
    1070
1
    1000
LeadIn
    1002
{
    1070
3
    1040
1.5
    1040
1.5707963267949
    1040
1
    1040
0.5
    1070
0
    1040
0.5
    1070
0
    1002
}
    1000
LeadOut
    1002
{
    1070
0
    1040
0
    1040
0
    1040
0
    1070
0
    1002
}
    1000
IsFill
    1070
0
    1000
PathStart
    1040
1.5
    1000
ToolCompensation
    1002
{
    1070
0
    1040
0
    1070
0
    1002
}
       0
CIRCLE
       5
202C
     100
AcDbEntity
       8
1
     100
AcDbCircle
      10
32
      20
-8.5
      30
0
      40
3.25
    1001
FS_CYPCUT
    1000
Channel
    1070
1
    1000
LeadIn
    1002
{
    1070
3
    1040
8.32667268468867E-17
    1040
1.5707963267949
    1040
1
    1040
0.5
    1070
0
    1040
0.5
    1070
0
    1002
}
    1000
LeadOut
    1002
{
    1070
0
    1040
0
    1040
0
    1040
0
    1070
0
    1002
}
    1000
IsFill
    1070
0
    1000
PathStart
    1040
8.32667268468867E-17
    1000
ToolCompensation
    1002
{
    1070
0
    1040
0
    1070
0
    1002
}
       0
CIRCLE
       5
202D
     100
AcDbEntity
       8
1
     100
AcDbCircle
      10
32
      20
55.5
      30
0
      40
3.25
    1001
FS_CYPCUT
    1000
Channel
    1070
1
    1000
LeadIn
    1002
{
    1070
3
    1040
0
    1040
1.5707963267949
    1040
1
    1040
0.5
    1070
0
    1040
0.5
    1070
0
    1002
}
    1000
LeadOut
    1002
{
    1070
0
    1040
0
    1040
0
    1040
0
    1070
0
    1002
}
    1000
IsFill
    1070
0
    1000
PathStart
    1040
0
    1000
ToolCompensation
    1002
{
    1070
0
    1040
0
    1070
0
    1002
}
       0
CIRCLE
       5
202E
     100
AcDbEntity
       8
1
     100
AcDbCircle
      10
-32
      20
55.5
      30
0
      40
3.25
    1001
FS_CYPCUT
    1000
Channel
    1070
1
    1000
LeadIn
    1002
{
    1070
3
    1040
0
    1040
1.5707963267949
    1040
1
    1040
0.5
    1070
0
    1040
0.5
    1070
0
    1002
}
    1000
LeadOut
    1002
{
    1070
0
    1040
0
    1040
0
    1040
0
    1070
0
    1002
}
    1000
IsFill
    1070
0
    1000
PathStart
    1040
1
    1000
ToolCompensation
    1002
{
    1070
0
    1040
0
    1070
0
    1002
}
       0
LWPOLYLINE
       5
202F
     100
AcDbEntity
       8
1
     100
AcDbPolyline
      90
23
      70
1
      10
43
      20
58.5
      42
0.414213562373095
      10
35
      20
66.5
      42
0
      10
20
      20
66.5
      42
0.414213562373096
      10
18
      20
64.5
      42
0
      10
18
      20
23.5
      42
-1
      10
-18
      20
23.5
      42
0
      10
-18
      20
64.5
      42
0.414213562373096
      10
-20
      20
66.5
      42
0
      10
-35
      20
66.5
      42
0.414213562373094
      10
-43
      20
58.5
      42
0
      10
-43
      20
-71.85
      42
0.414213562373105
      10
-42
      20
-72.85
      42
0
      10
-24
      20
-72.85
      42
0.41421356237311
      10
-23
      20
-71.85
      42
0
      10
-23
      20
-66.5
      42
0
      10
13
      20
-66.5
      42
0
      10
13
      20
-71.85
      42
0.414213562373102
      10
14
      20
-72.85
      42
0
      10
32
      20
-72.85
      42
0.414213562373101
      10
33
      20
-71.85
      42
0
      10
33
      20
-66.5
      42
0
      10
42.8094964815
      20
-22.3572658334
      42
0.0547217594477111
      10
43
      20
-20.6218221708
      42
0
    1001
FS_CYPCUT
    1000
Channel
    1070
1
    1000
LeadIn
    1002
{
    1070
3
    1040
9.5
    1040
1.5707963267949
    1040
1
    1040
0.5
    1070
0
    1040
0.5
    1070
0
    1002
}
    1000
LeadOut
    1002
{
    1070
0
    1040
0
    1040
0
    1040
0
    1070
0
    1002
}
    1000
IsFill
    1070
1
    1000
PathStart
    1040
9.5
    1000
ToolCompensation
    1002
{
    1070
0
    1040
0
    1070
0
    1002
}
    1000
MicroConnect
    1002
{
    1070
2
    1040
9.78690954
    1041
0.75
    1042
0
    1040
22.740277
    1041
0.75
    1042
0
    1002
}
       0
ENDBLK
       5
2030
     330
2002
     100
AcDbEntity
       8
0
     100
AcDbBlockEnd
       0
BLOCK
       5
2031
     330
2003
     100
AcDbEntity
       8
0
     100
AcDbBlockBegin
       2
Part816095118
      70
0
      10
-43
      20
-43
      30
0
       3
Part816095118
       1

       4
CypCutBlock
       0
CIRCLE
       5
2032
     100
AcDbEntity
       8
1
     100
AcDbCircle
      10
-32
      20
-32
      30
0
      40
3.25000000000001
    1001
FS_CYPCUT
    1000
Channel
    1070
1
    1000
LeadIn
    1002
{
    1070
3
    1040
0
    1040
1.5707963267949
    1040
0.5
    1040
0.3
    1070
0
    1040
0.5
    1070
0
    1002
}
    1000
LeadOut
    1002
{
    1070
0
    1040
0
    1040
0
    1040
0
    1070
0
    1002
}
    1000
IsFill
    1070
0
    1000
PathStart
    1040
0
    1000
ToolCompensation
    1002
{
    1070
0
    1040
0
    1070
0
    1002
}
       0
LWPOLYLINE
       5
2033
     100
AcDbEntity
       8
1
     100
AcDbPolyline
      90
8
      70
1
      10
15
      20
-31
      42
0.414213562373095
      10
12
      20
-28
      42
0
      10
-12
      20
-28
      42
0.414213562373094
      10
-15
      20
-31
      42
0
      10
-15
      20
-32
      42
0.414213562373096
      10
-12
      20
-35
      42
0
      10
12
      20
-35
      42
0.414213562373092
      10
15
      20
-32
      42
0
    1001
FS_CYPCUT
    1000
Channel
    1070
1
    1000
LeadIn
    1002
{
    1070
3
    1040
1.5
    1040
1.5707963267949
    1040
0.5
    1040
0.3
    1070
0
    1040
0.5
    1070
0
    1002
}
    1000
LeadOut
    1002
{
    1070
0
    1040
0
    1040
0
    1040
0
    1070
0
    1002
}
    1000
IsFill
    1070
0
    1000
PathStart
    1040
1.5
    1000
ToolCompensation
    1002
{
    1070
0
    1040
0
    1070
0
    1002
}
       0
CIRCLE
       5
2034
     100
AcDbEntity
       8
1
     100
AcDbCircle
      10
32
      20
-32
      30
0
      40
3.25
    1001
FS_CYPCUT
    1000
Channel
    1070
1
    1000
LeadIn
    1002
{
    1070
3
    1040
1.11022302462516E-16
    1040
1.5707963267949
    1040
0.5
    1040
0.3
    1070
0
    1040
0.5
    1070
0
    1002
}
    1000
LeadOut
    1002
{
    1070
0
    1040
0
    1040
0
    1040
0
    1070
0
    1002
}
    1000
IsFill
    1070
0
    1000
PathStart
    1040
1.11022302462516E-16
    1000
ToolCompensation
    1002
{
    1070
0
    1040
0
    1070
0
    1002
}
       0
LWPOLYLINE
       5
2035
     100
AcDbEntity
       8
1
     100
AcDbPolyline
      90
8
      70
1
      10
33.75
      20
14.5
      42
0.414213562373094
      10
30.75
      20
17.5
      42
0
      10
24.75
      20
17.5
      42
0.414213562373097
      10
21.75
      20
14.5
      42
0
      10
21.75
      20
-14.5
      42
0.414213562373095
      10
24.75
      20
-17.5
      42
0
      10
30.75
      20
-17.5
      42
0.414213562373096
      10
33.75
      20
-14.5
      42
0
    1001
FS_CYPCUT
    1000
Channel
    1070
1
    1000
LeadIn
    1002
{
    1070
3
    1040
3.5
    1040
1.5707963267949
    1040
0.5
    1040
0.3
    1070
0
    1040
0.5
    1070
0
    1002
}
    1000
LeadOut
    1002
{
    1070
0
    1040
0
    1040
0
    1040
0
    1070
0
    1002
}
    1000
IsFill
    1070
0
    1000
PathStart
    1040
3.5
    1000
ToolCompensation
    1002
{
    1070
0
    1040
0
    1070
0
    1002
}
       0
LWPOLYLINE
       5
2036
     100
AcDbEntity
       8
1
     100
AcDbPolyline
      90
8
      70
1
      10
12.5
      20
16
      42
0.414213562373096
      10
8.5
      20
20
      42
0
      10
-8.5
      20
20
      42
0.414213562373095
      10
-12.5
      20
16
      42
0
      10
-12.5
      20
-16
      42
0.414213562373096
      10
-8.5
      20
-20
      42
0
      10
8.5
      20
-20
      42
0.414213562373097
      10
12.5
      20
-16
      42
0
    1001
FS_CYPCUT
    1000
Channel
    1070
1
    1000
LeadIn
    1002
{
    1070
3
    1040
3.5
    1040
1.5707963267949
    1040
0.5
    1040
0.3
    1070
0
    1040
0.5
    1070
0
    1002
}
    1000
LeadOut
    1002
{
    1070
0
    1040
0
    1040
0
    1040
0
    1070
0
    1002
}
    1000
IsFill
    1070
0
    1000
PathStart
    1040
3.5
    1000
ToolCompensation
    1002
{
    1070
0
    1040
0
    1070
0
    1002
}
       0
LWPOLYLINE
       5
2037
     100
AcDbEntity
       8
1
     100
AcDbPolyline
      90
8
      70
1
      10
-21.75
      20
14.5
      42
0
      10
-21.75
      20
-14.5
      42
-0.414213562373094
      10
-24.75
      20
-17.5
      42
0
      10
-30.75
      20
-17.5
      42
-0.414213562373095
      10
-33.75
      20
-14.5
      42
0
      10
-33.75
      20
14.5
      42
-0.414213562373095
      10
-30.75
      20
17.5
      42
0
      10
-24.75
      20
17.5
      42
-0.414213562373096
    1001
FS_CYPCUT
    1000
Channel
    1070
1
    1000
LeadIn
    1002
{
    1070
3
    1040
0.5
    1040
1.5707963267949
    1040
0.5
    1040
0.3
    1070
0
    1040
0.5
    1070
0
    1002
}
    1000
LeadOut
    1002
{
    1070
0
    1040
0
    1040
0
    1040
0
    1070
0
    1002
}
    1000
IsFill
    1070
0
    1000
PathStart
    1040
0.5
    1000
ToolCompensation
    1002
{
    1070
0
    1040
0
    1070
0
    1002
}
       0
CIRCLE
       5
2038
     100
AcDbEntity
       8
1
     100
AcDbCircle
      10
-32
      20
32
      30
0
      40
3.25
    1001
FS_CYPCUT
    1000
Channel
    1070
1
    1000
LeadIn
    1002
{
    1070
3
    1040
0
    1040
1.5707963267949
    1040
0.5
    1040
0.3
    1070
0
    1040
0.5
    1070
0
    1002
}
    1000
LeadOut
    1002
{
    1070
0
    1040
0
    1040
0
    1040
0
    1070
0
    1002
}
    1000
IsFill
    1070
0
    1000
PathStart
    1040
0
    1000
ToolCompensation
    1002
{
    1070
0
    1040
0
    1070
0
    1002
}
       0
LWPOLYLINE
       5
2039
     100
AcDbEntity
       8
1
     100
AcDbPolyline
      90
8
      70
1
      10
15
      20
32
      42
0.414213562373094
      10
12
      20
35
      42
0
      10
-12
      20
35
      42
0.414213562373094
      10
-15
      20
32
      42
0
      10
-15
      20
31
      42
0.414213562373096
      10
-12
      20
28
      42
0
      10
12
      20
28
      42
0.414213562373096
      10
15
      20
31
      42
0
    1001
FS_CYPCUT
    1000
Channel
    1070
1
    1000
LeadIn
    1002
{
    1070
3
    1040
1.5
    1040
1.5707963267949
    1040
0.5
    1040
0.3
    1070
0
    1040
0.5
    1070
0
    1002
}
    1000
LeadOut
    1002
{
    1070
0
    1040
0
    1040
0
    1040
0
    1070
0
    1002
}
    1000
IsFill
    1070
0
    1000
PathStart
    1040
1.5
    1000
ToolCompensation
    1002
{
    1070
0
    1040
0
    1070
0
    1002
}
       0
CIRCLE
       5
203A
     100
AcDbEntity
       8
1
     100
AcDbCircle
      10
32
      20
32
      30
0
      40
3.25
    1001
FS_CYPCUT
    1000
Channel
    1070
1
    1000
LeadIn
    1002
{
    1070
3
    1040
0
    1040
1.5707963267949
    1040
0.5
    1040
0.3
    1070
0
    1040
0.5
    1070
0
    1002
}
    1000
LeadOut
    1002
{
    1070
0
    1040
0
    1040
0
    1040
0
    1070
0
    1002
}
    1000
IsFill
    1070
0
    1000
PathStart
    1040
0
    1000
ToolCompensation
    1002
{
    1070
0
    1040
0
    1070
0
    1002
}
       0
LWPOLYLINE
       5
203B
     100
AcDbEntity
       8
1
     100
AcDbPolyline
      90
8
      70
1
      10
20.3835454718
      20
47.7417867844
      42
0
      10
17.7414630234
      20
61.7417867844
      42
0.360578343359846
      10
13.8108457225
      20
65
      42
0
      10
-13.8108457225
      20
65
      42
0.360578343359844
      10
-17.7414630234373
      20
61.7417867844418
      42
0
      10
-20.3835454718373
      20
47.7417867844418
      42
0.469963129841644
      10
-16.4529281709
      20
43
      42
0
      10
16.4529281709
      20
43
      42
0.469963129841644
    1001
FS_CYPCUT
    1000
Channel
    1070
1
    1000
LeadIn
    1002
{
    1070
3
    1040
6.5
    1040
1.5707963267949
    1040
0.5
    1040
0.3
    1070
0
    1040
0.5
    1070
0
    1002
}
    1000
LeadOut
    1002
{
    1070
0
    1040
0
    1040
0
    1040
0
    1070
0
    1002
}
    1000
IsFill
    1070
0
    1000
PathStart
    1040
6.5
    1000
ToolCompensation
    1002
{
    1070
0
    1040
0
    1070
0
    1002
}
       0
LWPOLYLINE
       5
203C
     100
AcDbEntity
       8
1
     100
AcDbPolyline
      90
20
      70
1
      10
43
      20
35
      42
0
      10
43
      20
-35
      42
-0.414213562373095
      10
35
      20
-43
      42
0
      10
-35
      20
-43
      42
-0.414213562373095
      10
-43
      20
-35
      42
0
      10
-43
      20
35
      42
-0.0466654356656874
      10
-42.8612346018725
      20
36.4835735688832
      42
0
      10
-28.022335851806
      20
115.112680176663
      42
-0.360578343359847
      10
-22.1264099004
      20
120
      42
0
      10
-16.1
      20
120
      42
-0.414213562373093
      10
-15.1
      20
119
      42
0
      10
-15.1
      20
81
      42
0.41421356237309
      10
-14.1
      20
80
      42
0
      10
14.1
      20
80
      42
0.414213562373094
      10
15.1
      20
81
      42
0
      10
15.1
      20
119
      42
-0.414213562373093
      10
16.1
      20
120
      42
0
      10
22.1264099004
      20
120
      42
-0.360578343359846
      10
28.0223358518
      20
115.1126801767
      42
0
      10
42.8612346019
      20
36.4835735689
      42
-0.0466654356656843
    1001
FS_CYPCUT
    1000
Channel
    1070
1
    1000
LeadIn
    1002
{
    1070
3
    1040
6.5
    1040
1.5707963267949
    1040
0.5
    1040
0.3
    1070
0
    1040
0.5
    1070
0
    1002
}
    1000
LeadOut
    1002
{
    1070
0
    1040
0
    1040
0
    1040
0
    1070
0
    1002
}
    1000
IsFill
    1070
1
    1000
PathStart
    1040
6.5
    1000
ToolCompensation
    1002
{
    1070
0
    1040
0
    1070
0
    1002
}
    1000
MicroConnect
    1002
{
    1070
2
    1040
4.46501742
    1041
0.8
    1042
0
    1040
18.537017
    1041
0.8
    1042
0
    1002
}
       0
ENDBLK
       5
203D
     330
2003
     100
AcDbEntity
       8
0
     100
AcDbBlockEnd
       0
BLOCK
       5
203E
     330
2004
     100
AcDbEntity
       8
0
     100
AcDbBlockBegin
       2
Part815063587
      70
0
      10
-35
      20
-40
      30
0
       3
Part815063587
       1

       4
CypCutBlock
       0
CIRCLE
       5
203F
     100
AcDbEntity
       8
1
     100
AcDbCircle
      10
-20
      20
10
      30
0
      40
4.25
    1001
FS_CYPCUT
    1000
Channel
    1070
1
    1000
LeadIn
    1002
{
    1070
3
    1040
0
    1040
1.5707963267949
    1040
0.5
    1040
0.3
    1070
0
    1040
0.5
    1070
0
    1002
}
    1000
LeadOut
    1002
{
    1070
0
    1040
0
    1040
0
    1040
0
    1070
0
    1002
}
    1000
IsFill
    1070
0
    1000
PathStart
    1040
0
    1000
ToolCompensation
    1002
{
    1070
0
    1040
0
    1070
0
    1002
}
       0
LWPOLYLINE
       5
2040
     100
AcDbEntity
       8
1
     100
AcDbPolyline
      90
8
      70
1
      10
29
      20
-13
      42
0.414213562373095
      10
27
      20
-11
      42
0
      10
13
      20
-11
      42
0.414213562373095
      10
11
      20
-13
      42
0
      10
11
      20
-27
      42
0.414213562373098
      10
13
      20
-29
      42
0
      10
27
      20
-29
      42
0.414213562373095
      10
29
      20
-27
      42
0
    1001
FS_CYPCUT
    1000
Channel
    1070
1
    1000
LeadIn
    1002
{
    1070
3
    1040
1.5
    1040
1.5707963267949
    1040
0.5
    1040
0.3
    1070
0
    1040
0.5
    1070
0
    1002
}
    1000
LeadOut
    1002
{
    1070
0
    1040
0
    1040
0
    1040
0
    1070
0
    1002
}
    1000
IsFill
    1070
0
    1000
PathStart
    1040
1.5
    1000
ToolCompensation
    1002
{
    1070
0
    1040
0
    1070
0
    1002
}
       0
CIRCLE
       5
2041
     100
AcDbEntity
       8
1
     100
AcDbCircle
      10
-20
      20
40
      30
0
      40
4.25
    1001
FS_CYPCUT
    1000
Channel
    1070
1
    1000
LeadIn
    1002
{
    1070
3
    1040
0
    1040
1.5707963267949
    1040
0.5
    1040
0.3
    1070
0
    1040
0.5
    1070
0
    1002
}
    1000
LeadOut
    1002
{
    1070
0
    1040
0
    1040
0
    1040
0
    1070
0
    1002
}
    1000
IsFill
    1070
0
    1000
PathStart
    1040
0
    1000
ToolCompensation
    1002
{
    1070
0
    1040
0
    1070
0
    1002
}
       0
LWPOLYLINE
       5
2042
     100
AcDbEntity
       8
1
     100
AcDbPolyline
      90
14
      70
1
      10
40
      20
7.9289321881
      42
0
      10
40
      20
-35
      42
-0.414213562373096
      10
35
      20
-40
      42
0
      10
5
      20
-40
      42
-0.414213562373095
      10
0
      20
-35
      42
0
      10
5.32907051820075E-15
      20
-5
      42
0.414213562373095
      10
-5
      20
0
      42
0
      10
-30
      20
0
      42
-0.414213562373095
      10
-35
      20
5
      42
0
      10
-35
      20
45
      42
-0.414213562373095
      10
-30
      20
50
      42
0
      10
-2.0710678119
      20
49.9999999999999
      42
-0.198912367379659
      10
1.46446609403266
      20
48.5355339059327
      42
0
      10
38.5355339059
      20
11.4644660941
      42
-0.19891236737966
    1001
FS_CYPCUT
    1000
Channel
    1070
1
    1000
LeadIn
    1002
{
    1070
3
    1040
12.5094043855864
    1040
1.5707963267949
    1040
0.5
    1040
0.3
    1070
0
    1040
0.5
    1070
0
    1002
}
    1000
LeadOut
    1002
{
    1070
0
    1040
0
    1040
0
    1040
0
    1070
0
    1002
}
    1000
IsFill
    1070
1
    1000
PathStart
    1040
12.5
    1000
ToolCompensation
    1002
{
    1070
0
    1040
0
    1070
0
    1002
}
    1000
MicroConnect
    1002
{
    1070
2
    1040
5.5
    1041
0.8
    1042
0
    1040
12.4941449
    1041
0.8
    1042
0
    1002
}
       0
ENDBLK
       5
2043
     330
2004
     100
AcDbEntity
       8
0
     100
AcDbBlockEnd
       0
BLOCK
       5
2044
     330
2005
     100
AcDbEntity
       8
0
     100
AcDbBlockBegin
       2
Part953450251
      70
0
      10
-2.84217094E-14
      20
-44.7662825
      30
0
       3
Part953450251
       1

       4
CypCutBlock
       0
CIRCLE
       5
2045
     100
AcDbEntity
       8
1
     100
AcDbCircle
      10
16
      20
-24.7662824618
      30
0
      40
5.24999999999994
    1001
FS_CYPCUT
    1000
Channel
    1070
1
    1000
LeadIn
    1002
{
    1070
3
    1040
0
    1040
1.5707963267949
    1040
0.5
    1040
0.3
    1070
0
    1040
0.5
    1070
0
    1002
}
    1000
LeadOut
    1002
{
    1070
0
    1040
0
    1040
0
    1040
0
    1070
0
    1002
}
    1000
IsFill
    1070
0
    1000
PathStart
    1040
1
    1000
ToolCompensation
    1002
{
    1070
0
    1040
0
    1070
0
    1002
}
       0
LINE
       5
2046
     100
AcDbEntity
       8
2
     100
AcDbLine
      10
-2.8421709430404E-14
      20
-4.2631412309
      30
0
      11
120
      21
-4.2631412309
      31
0
    1001
FS_CYPCUT
    1000
Channel
    1070
2
    1000
LeadIn
    1002
{
    1070
3
    1040
0
    1040
1.5707963267949
    1040
0.5
    1040
0.3
    1070
0
    1040
0.5
    1070
0
    1002
}
    1000
LeadOut
    1002
{
    1070
0
    1040
0
    1040
0
    1040
0
    1070
0
    1002
}
    1000
IsFill
    1070
0
    1000
PathStart
    1040
0
    1000
ToolCompensation
    1002
{
    1070
0
    1040
0
    1070
0
    1002
}
       0
LWPOLYLINE
       5
2047
     100
AcDbEntity
       8
1
     100
AcDbPolyline
      90
6
      70
1
      10
50.6699841633
      20
31.8934221766
      42
0
      10
83.2380970132715
      20
62.9811662606758
      42
-0.659802924118891
      10
90
      20
60.0877440841
      42
0
      10
90
      20
29
      42
-0.414213562373096
      10
86
      20
25
      42
0
      10
53.43188715
      20
25
      42
-0.676619669694378
    1001
FS_CYPCUT
    1000
Channel
    1070
1
    1000
LeadIn
    1002
{
    1070
3
    1040
0.5
    1040
1.5707963267949
    1040
0.5
    1040
0.3
    1070
0
    1040
0.5
    1070
0
    1002
}
    1000
LeadOut
    1002
{
    1070
0
    1040
0
    1040
0
    1040
0
    1070
0
    1002
}
    1000
IsFill
    1070
0
    1000
PathStart
    1040
0.5
    1000
ToolCompensation
    1002
{
    1070
0
    1040
0
    1070
0
    1002
}
       0
LWPOLYLINE
       5
2048
     100
AcDbEntity
       8
1
     100
AcDbPolyline
      90
21
      70
1
      10
-2.8421709430404E-14
      20
20.7209942493
      42
-0.204962330730744
      10
3.09524253317898
      20
27.9545496907393
      42
0
      10
107.1018199863
      20
127.2335554414
      42
-0.192876378674815
      10
114.0065774531
      20
130
      42
0
      10
148
      20
130
      42
-0.414213562373101
      10
150
      20
128
      42
0
      10
150
      20
106.37
      42
-0.414213562373099
      10
148
      20
104.37
      42
0
      10
123
      20
104.37
      42
0.414213562373095
      10
120
      20
101.37
      42
0
      10
120
      20
31.37
      42
0.414213562373095
      10
123
      20
28.37
      42
0
      10
148
      20
28.37
      42
-0.414213562373095
      10
150
      20
26.37
      42
0
      10
150
      20
12.74
      42
-0.414213562373095
      10
140
      20
2.73999999999998
      42
0
      10
120
      20
2.74
      42
0
      10
120
      20
-42.7662824618
      42
-0.414213562373097
      10
118
      20
-44.7662824618
      42
0
      10
9.99999999999997
      20
-44.7662824618001
      42
-0.414213562373095
      10
-2.8421709430404E-14
      20
-34.7662824618
      42
0
    1001
FS_CYPCUT
    1000
Channel
    1070
1
    1000
LeadIn
    1002
{
    1070
3
    1040
1.50088733152771
    1040
1.5707963267949
    1040
0.5
    1040
0.3
    1070
0
    1040
0.5
    1070
0
    1002
}
    1000
LeadOut
    1002
{
    1070
0
    1040
0
    1040
0
    1040
0
    1070
0
    1002
}
    1000
IsFill
    1070
1
    1000
PathStart
    1040
1.5
    1000
ToolCompensation
    1002
{
    1070
0
    1040
0
    1070
0
    1002
}
    1000
MicroConnect
    1002
{
    1070
3
    1040
1.49532341
    1041
0.8
    1042
0
    1040
5.51187931
    1041
0.8
    1042
0
    1040
18.5336565
    1041
0.8
    1042
0
    1002
}
       0
ENDBLK
       5
2049
     330
2005
     100
AcDbEntity
       8
0
     100
AcDbBlockEnd
       0
BLOCK
       5
204A
     330
2006
     100
AcDbEntity
       8
0
     100
AcDbBlockBegin
       2
Part507777632
      70
0
      10
-15
      20
-27.5
      30
0
       3
Part507777632
       1

       4
CypCutBlock
       0
CIRCLE
       5
204B
     100
AcDbEntity
       8
1
     100
AcDbCircle
      10
0
      20
0
      30
0
      40
9.25
    1001
FS_CYPCUT
    1000
Channel
    1070
1
    1000
LeadIn
    1002
{
    1070
3
    1040
0
    1040
1.5707963267949
    1040
0.5
    1040
0.3
    1070
0
    1040
0.5
    1070
0
    1002
}
    1000
LeadOut
    1002
{
    1070
0
    1040
0
    1040
0
    1040
0
    1070
0
    1002
}
    1000
IsFill
    1070
0
    1000
PathStart
    1040
0
    1000
ToolCompensation
    1002
{
    1070
0
    1040
0
    1070
0
    1002
}
       0
LWPOLYLINE
       5
204C
     100
AcDbEntity
       8
1
     100
AcDbPolyline
      90
20
      70
1
      10
21.76
      20
26.5
      42
0
      10
21.76
      20
23.74
      42
-0.414213562373097
      10
20.76
      20
22.74
      42
0
      10
18
      20
22.74
      42
0.414213562373093
      10
17
      20
21.74
      42
0
      10
17
      20
-21.74
      42
0.414213562373098
      10
18
      20
-22.74
      42
0
      10
20.76
      20
-22.74
      42
-0.414213562373097
      10
21.76
      20
-23.74
      42
0
      10
21.76
      20
-26.5
      42
-0.414213562373097
      10
20.76
      20
-27.5
      42
0
      10
11.4480946044
      20
-27.5
      42
-0.120623731051548
      10
6.828750416
      20
-26.3691408417
      42
0
      10
-9.61934418836171
      20
-17.8024249018739
      42
-0.279618954001466
      10
-15
      20
-8.9332840602
      42
0
      10
-14.9999999999999
      20
8.9332840602
      42
-0.279618954000996
      10
-9.61934418837717
      20
17.8024249018658
      42
0
      10
6.828750416
      20
26.3691408417
      42
-0.120623731051991
      10
11.4480946044
      20
27.5
      42
0
      10
20.76
      20
27.5
      42
-0.41421356237309
    1001
FS_CYPCUT
    1000
Channel
    1070
1
    1000
LeadIn
    1002
{
    1070
3
    1040
4.51239947402944
    1040
1.5707963267949
    1040
0.5
    1040
0.3
    1070
0
    1040
0.5
    1070
0
    1002
}
    1000
LeadOut
    1002
{
    1070
0
    1040
0
    1040
0
    1040
0
    1070
0
    1002
}
    1000
IsFill
    1070
1
    1000
PathStart
    1040
4.5
    1000
ToolCompensation
    1002
{
    1070
0
    1040
0
    1070
0
    1002
}
    1000
MicroConnect
    1002
{
    1070
2
    1040
4.49400021
    1041
0.8
    1042
0
    1040
14.4924918
    1041
0.8
    1042
0
    1002
}
       0
ENDBLK
       5
204D
     330
2006
     100
AcDbEntity
       8
0
     100
AcDbBlockEnd
       0
BLOCK
       5
204E
     330
2007
     100
AcDbEntity
       8
0
     100
AcDbBlockBegin
       2
Part1204952546
      70
0
      10
-15
      20
-27.5
      30
0
       3
Part1204952546
       1

       4
CypCutBlock
       0
CIRCLE
       5
204F
     100
AcDbEntity
       8
1
     100
AcDbCircle
      10
0
      20
0
      30
0
      40
9.25
    1001
FS_CYPCUT
    1000
Channel
    1070
1
    1000
LeadIn
    1002
{
    1070
3
    1040
0
    1040
1.5707963267949
    1040
0.5
    1040
0.3
    1070
0
    1040
0.5
    1070
0
    1002
}
    1000
LeadOut
    1002
{
    1070
0
    1040
0
    1040
0
    1040
0
    1070
0
    1002
}
    1000
IsFill
    1070
0
    1000
PathStart
    1040
0
    1000
ToolCompensation
    1002
{
    1070
0
    1040
0
    1070
0
    1002
}
       0
LWPOLYLINE
       5
2050
     100
AcDbEntity
       8
1
     100
AcDbPolyline
      90
20
      70
1
      10
21.76
      20
26.5
      42
0
      10
21.76
      20
23.74
      42
-0.414213562373097
      10
20.76
      20
22.74
      42
0
      10
18
      20
22.74
      42
0.414213562373093
      10
17
      20
21.74
      42
0
      10
17
      20
-21.74
      42
0.414213562373098
      10
18
      20
-22.74
      42
0
      10
20.76
      20
-22.74
      42
-0.414213562373097
      10
21.76
      20
-23.74
      42
0
      10
21.76
      20
-26.5
      42
-0.414213562373097
      10
20.76
      20
-27.5
      42
0
      10
11.4480946044
      20
-27.5
      42
-0.120623731051548
      10
6.828750416
      20
-26.3691408417
      42
0
      10
-9.61934418836171
      20
-17.8024249018739
      42
-0.279618954001466
      10
-15
      20
-8.9332840602
      42
0
      10
-14.9999999999999
      20
8.9332840602
      42
-0.279618954000996
      10
-9.61934418837717
      20
17.8024249018658
      42
0
      10
6.828750416
      20
26.3691408417
      42
-0.120623731051991
      10
11.4480946044
      20
27.5
      42
0
      10
20.76
      20
27.5
      42
-0.41421356237309
    1001
FS_CYPCUT
    1000
Channel
    1070
1
    1000
LeadIn
    1002
{
    1070
3
    1040
4.51239947402944
    1040
1.5707963267949
    1040
0.5
    1040
0.3
    1070
0
    1040
0.5
    1070
0
    1002
}
    1000
LeadOut
    1002
{
    1070
0
    1040
0
    1040
0
    1040
0
    1070
0
    1002
}
    1000
IsFill
    1070
1
    1000
PathStart
    1040
4.5
    1000
ToolCompensation
    1002
{
    1070
0
    1040
0
    1070
0
    1002
}
    1000
MicroConnect
    1002
{
    1070
2
    1040
4.49400021
    1041
0.8
    1042
0
    1040
14.4924918
    1041
0.8
    1042
0
    1002
}
       0
ENDBLK
       5
2051
     330
2007
     100
AcDbEntity
       8
0
     100
AcDbBlockEnd
       0
BLOCK
       5
2052
     330
2008
     100
AcDbEntity
       8
0
     100
AcDbBlockBegin
       2
Part1167827310
      70
0
      10
-15
      20
-27.5
      30
0
       3
Part1167827310
       1

       4
CypCutBlock
       0
CIRCLE
       5
2053
     100
AcDbEntity
       8
1
     100
AcDbCircle
      10
0
      20
0
      30
0
      40
9.25
    1001
FS_CYPCUT
    1000
Channel
    1070
1
    1000
LeadIn
    1002
{
    1070
3
    1040
0
    1040
1.5707963267949
    1040
0.5
    1040
0.3
    1070
0
    1040
0.5
    1070
0
    1002
}
    1000
LeadOut
    1002
{
    1070
0
    1040
0
    1040
0
    1040
0
    1070
0
    1002
}
    1000
IsFill
    1070
0
    1000
PathStart
    1040
0
    1000
ToolCompensation
    1002
{
    1070
0
    1040
0
    1070
0
    1002
}
       0
LWPOLYLINE
       5
2054
     100
AcDbEntity
       8
1
     100
AcDbPolyline
      90
20
      70
1
      10
21.76
      20
26.5
      42
0
      10
21.76
      20
23.74
      42
-0.414213562373097
      10
20.76
      20
22.74
      42
0
      10
18
      20
22.74
      42
0.414213562373093
      10
17
      20
21.74
      42
0
      10
17
      20
-21.74
      42
0.414213562373098
      10
18
      20
-22.74
      42
0
      10
20.76
      20
-22.74
      42
-0.414213562373097
      10
21.76
      20
-23.74
      42
0
      10
21.76
      20
-26.5
      42
-0.414213562373097
      10
20.76
      20
-27.5
      42
0
      10
11.4480946044
      20
-27.5
      42
-0.120623731051548
      10
6.828750416
      20
-26.3691408417
      42
0
      10
-9.61934418836171
      20
-17.8024249018739
      42
-0.279618954001466
      10
-15
      20
-8.9332840602
      42
0
      10
-14.9999999999999
      20
8.9332840602
      42
-0.279618954000996
      10
-9.61934418837717
      20
17.8024249018658
      42
0
      10
6.828750416
      20
26.3691408417
      42
-0.120623731051991
      10
11.4480946044
      20
27.5
      42
0
      10
20.76
      20
27.5
      42
-0.41421356237309
    1001
FS_CYPCUT
    1000
Channel
    1070
1
    1000
LeadIn
    1002
{
    1070
3
    1040
4.51239947402944
    1040
1.5707963267949
    1040
0.5
    1040
0.3
    1070
0
    1040
0.5
    1070
0
    1002
}
    1000
LeadOut
    1002
{
    1070
0
    1040
0
    1040
0
    1040
0
    1070
0
    1002
}
    1000
IsFill
    1070
1
    1000
PathStart
    1040
4.5
    1000
ToolCompensation
    1002
{
    1070
0
    1040
0
    1070
0
    1002
}
    1000
MicroConnect
    1002
{
    1070
2
    1040
4.49400021
    1041
0.8
    1042
0
    1040
14.4924918
    1041
0.8
    1042
0
    1002
}
       0
ENDBLK
       5
2055
     330
2008
     100
AcDbEntity
       8
0
     100
AcDbBlockEnd
       0
BLOCK
       5
2056
     330
2009
     100
AcDbEntity
       8
0
     100
AcDbBlockBegin
       2
Part33843513
      70
0
      10
-1.95399252E-14
      20
-44.7662825
      30
0
       3
Part33843513
       1

       4
CypCutBlock
       0
LINE
       5
2057
     100
AcDbEntity
       8
2
     100
AcDbLine
      10
30
      20
-4.2631412309
      30
0
      11
150
      21
-4.2631412309
      31
0
    1001
FS_CYPCUT
    1000
Channel
    1070
2
    1000
LeadIn
    1002
{
    1070
3
    1040
0
    1040
1.5707963267949
    1040
0.5
    1040
0.3
    1070
0
    1040
0.5
    1070
0
    1002
}
    1000
LeadOut
    1002
{
    1070
0
    1040
0
    1040
0
    1040
0
    1070
0
    1002
}
    1000
IsFill
    1070
0
    1000
PathStart
    1040
0
    1000
ToolCompensation
    1002
{
    1070
0
    1040
0
    1070
0
    1002
}
       0
LWPOLYLINE
       5
2058
     100
AcDbEntity
       8
1
     100
AcDbPolyline
      90
6
      70
1
      10
99.3300158367
      20
31.8934221766
      42
0
      10
66.7619029867285
      20
62.9811662606758
      42
0.659802924118891
      10
60
      20
60.0877440841
      42
0
      10
60
      20
29
      42
0.414213562373096
      10
64
      20
25
      42
0
      10
96.56811285
      20
25
      42
0.676619669694378
    1001
FS_CYPCUT
    1000
Channel
    1070
1
    1000
LeadIn
    1002
{
    1070
3
    1040
0.5
    1040
1.5707963267949
    1040
0.5
    1040
0.3
    1070
0
    1040
0.5
    1070
0
    1002
}
    1000
LeadOut
    1002
{
    1070
0
    1040
0
    1040
0
    1040
0
    1070
0
    1002
}
    1000
IsFill
    1070
0
    1000
PathStart
    1040
0.5
    1000
ToolCompensation
    1002
{
    1070
0
    1040
0
    1070
0
    1002
}
       0
CIRCLE
       5
2059
     100
AcDbEntity
       8
1
     100
AcDbCircle
      10
134
      20
-24.7662824618
      30
0
      40
5.24999999999995
    1001
FS_CYPCUT
    1000
Channel
    1070
1
    1000
LeadIn
    1002
{
    1070
3
    1040
0
    1040
1.5707963267949
    1040
0.5
    1040
0.3
    1070
0
    1040
0.5
    1070
0
    1002
}
    1000
LeadOut
    1002
{
    1070
0
    1040
0
    1040
0
    1040
0
    1070
0
    1002
}
    1000
IsFill
    1070
0
    1000
PathStart
    1040
1
    1000
ToolCompensation
    1002
{
    1070
0
    1040
0
    1070
0
    1002
}
       0
LWPOLYLINE
       5
205A
     100
AcDbEntity
       8
1
     100
AcDbPolyline
      90
21
      70
1
      10
150
      20
20.7209942493
      42
0.204962330730744
      10
146.904757466821
      20
27.9545496907393
      42
0
      10
42.8981800137
      20
127.2335554414
      42
0.192876378674815
      10
35.9934225469
      20
130
      42
0
      10
2
      20
130
      42
0.414213562373101
      10
0
      20
128
      42
0
      10
0
      20
106.37
      42
0.414213562373099
      10
2
      20
104.37
      42
0
      10
27
      20
104.37
      42
-0.414213562373095
      10
30
      20
101.37
      42
0
      10
30
      20
31.37
      42
-0.414213562373095
      10
27
      20
28.37
      42
0
      10
2
      20
28.37
      42
0.414213562373095
      10
0
      20
26.37
      42
0
      10
-1.95399252334028E-14
      20
12.74
      42
0.414213562373095
      10
10
      20
2.73999999999998
      42
0
      10
30
      20
2.74
      42
0
      10
30
      20
-42.7662824618
      42
0.414213562373097
      10
32
      20
-44.7662824618
      42
0
      10
140
      20
-44.7662824618001
      42
0.414213562373095
      10
150
      20
-34.7662824618
      42
0
    1001
FS_CYPCUT
    1000
Channel
    1070
1
    1000
LeadIn
    1002
{
    1070
3
    1040
1.50088733152771
    1040
1.5707963267949
    1040
0.5
    1040
0.3
    1070
0
    1040
0.5
    1070
0
    1002
}
    1000
LeadOut
    1002
{
    1070
0
    1040
0
    1040
0
    1040
0
    1070
0
    1002
}
    1000
IsFill
    1070
1
    1000
PathStart
    1040
1.5
    1000
ToolCompensation
    1002
{
    1070
0
    1040
0
    1070
0
    1002
}
    1000
MicroConnect
    1002
{
    1070
3
    1040
1.49532341
    1041
0.8
    1042
0
    1040
5.51187931
    1041
0.8
    1042
0
    1040
18.5336565
    1041
0.8
    1042
0
    1002
}
       0
ENDBLK
       5
205B
     330
2009
     100
AcDbEntity
       8
0
     100
AcDbBlockEnd
       0
BLOCK
       5
205C
     330
200A
     100
AcDbEntity
       8
0
     100
AcDbBlockBegin
       2
Part1173395400
      70
0
      10
-43
      20
-43
      30
0
       3
Part1173395400
       1

       4
CypCutBlock
       0
CIRCLE
       5
205D
     100
AcDbEntity
       8
1
     100
AcDbCircle
      10
-32
      20
-32
      30
0
      40
3.25000000000001
    1001
FS_CYPCUT
    1000
Channel
    1070
1
    1000
LeadIn
    1002
{
    1070
3
    1040
0
    1040
1.5707963267949
    1040
0.5
    1040
0.3
    1070
0
    1040
0.5
    1070
0
    1002
}
    1000
LeadOut
    1002
{
    1070
0
    1040
0
    1040
0
    1040
0
    1070
0
    1002
}
    1000
IsFill
    1070
0
    1000
PathStart
    1040
0
    1000
ToolCompensation
    1002
{
    1070
0
    1040
0
    1070
0
    1002
}
       0
LWPOLYLINE
       5
205E
     100
AcDbEntity
       8
1
     100
AcDbPolyline
      90
8
      70
1
      10
15
      20
-31
      42
0.414213562373095
      10
12
      20
-28
      42
0
      10
-12
      20
-28
      42
0.414213562373094
      10
-15
      20
-31
      42
0
      10
-15
      20
-32
      42
0.414213562373096
      10
-12
      20
-35
      42
0
      10
12
      20
-35
      42
0.414213562373092
      10
15
      20
-32
      42
0
    1001
FS_CYPCUT
    1000
Channel
    1070
1
    1000
LeadIn
    1002
{
    1070
3
    1040
1.5
    1040
1.5707963267949
    1040
0.5
    1040
0.3
    1070
0
    1040
0.5
    1070
0
    1002
}
    1000
LeadOut
    1002
{
    1070
0
    1040
0
    1040
0
    1040
0
    1070
0
    1002
}
    1000
IsFill
    1070
0
    1000
PathStart
    1040
1.5
    1000
ToolCompensation
    1002
{
    1070
0
    1040
0
    1070
0
    1002
}
       0
CIRCLE
       5
205F
     100
AcDbEntity
       8
1
     100
AcDbCircle
      10
32
      20
-32
      30
0
      40
3.25
    1001
FS_CYPCUT
    1000
Channel
    1070
1
    1000
LeadIn
    1002
{
    1070
3
    1040
1.11022302462516E-16
    1040
1.5707963267949
    1040
0.5
    1040
0.3
    1070
0
    1040
0.5
    1070
0
    1002
}
    1000
LeadOut
    1002
{
    1070
0
    1040
0
    1040
0
    1040
0
    1070
0
    1002
}
    1000
IsFill
    1070
0
    1000
PathStart
    1040
1.11022302462516E-16
    1000
ToolCompensation
    1002
{
    1070
0
    1040
0
    1070
0
    1002
}
       0
LWPOLYLINE
       5
2060
     100
AcDbEntity
       8
1
     100
AcDbPolyline
      90
8
      70
1
      10
33.75
      20
14.5
      42
0.414213562373094
      10
30.75
      20
17.5
      42
0
      10
24.75
      20
17.5
      42
0.414213562373097
      10
21.75
      20
14.5
      42
0
      10
21.75
      20
-14.5
      42
0.414213562373095
      10
24.75
      20
-17.5
      42
0
      10
30.75
      20
-17.5
      42
0.414213562373096
      10
33.75
      20
-14.5
      42
0
    1001
FS_CYPCUT
    1000
Channel
    1070
1
    1000
LeadIn
    1002
{
    1070
3
    1040
3.5
    1040
1.5707963267949
    1040
0.5
    1040
0.3
    1070
0
    1040
0.5
    1070
0
    1002
}
    1000
LeadOut
    1002
{
    1070
0
    1040
0
    1040
0
    1040
0
    1070
0
    1002
}
    1000
IsFill
    1070
0
    1000
PathStart
    1040
3.5
    1000
ToolCompensation
    1002
{
    1070
0
    1040
0
    1070
0
    1002
}
       0
LWPOLYLINE
       5
2061
     100
AcDbEntity
       8
1
     100
AcDbPolyline
      90
8
      70
1
      10
12.5
      20
16
      42
0.414213562373096
      10
8.5
      20
20
      42
0
      10
-8.5
      20
20
      42
0.414213562373095
      10
-12.5
      20
16
      42
0
      10
-12.5
      20
-16
      42
0.414213562373096
      10
-8.5
      20
-20
      42
0
      10
8.5
      20
-20
      42
0.414213562373097
      10
12.5
      20
-16
      42
0
    1001
FS_CYPCUT
    1000
Channel
    1070
1
    1000
LeadIn
    1002
{
    1070
3
    1040
3.5
    1040
1.5707963267949
    1040
0.5
    1040
0.3
    1070
0
    1040
0.5
    1070
0
    1002
}
    1000
LeadOut
    1002
{
    1070
0
    1040
0
    1040
0
    1040
0
    1070
0
    1002
}
    1000
IsFill
    1070
0
    1000
PathStart
    1040
3.5
    1000
ToolCompensation
    1002
{
    1070
0
    1040
0
    1070
0
    1002
}
       0
LWPOLYLINE
       5
2062
     100
AcDbEntity
       8
1
     100
AcDbPolyline
      90
8
      70
1
      10
-21.75
      20
14.5
      42
0
      10
-21.75
      20
-14.5
      42
-0.414213562373094
      10
-24.75
      20
-17.5
      42
0
      10
-30.75
      20
-17.5
      42
-0.414213562373095
      10
-33.75
      20
-14.5
      42
0
      10
-33.75
      20
14.5
      42
-0.414213562373095
      10
-30.75
      20
17.5
      42
0
      10
-24.75
      20
17.5
      42
-0.414213562373096
    1001
FS_CYPCUT
    1000
Channel
    1070
1
    1000
LeadIn
    1002
{
    1070
3
    1040
0.5
    1040
1.5707963267949
    1040
0.5
    1040
0.3
    1070
0
    1040
0.5
    1070
0
    1002
}
    1000
LeadOut
    1002
{
    1070
0
    1040
0
    1040
0
    1040
0
    1070
0
    1002
}
    1000
IsFill
    1070
0
    1000
PathStart
    1040
0.5
    1000
ToolCompensation
    1002
{
    1070
0
    1040
0
    1070
0
    1002
}
       0
CIRCLE
       5
2063
     100
AcDbEntity
       8
1
     100
AcDbCircle
      10
-32
      20
32
      30
0
      40
3.25
    1001
FS_CYPCUT
    1000
Channel
    1070
1
    1000
LeadIn
    1002
{
    1070
3
    1040
0
    1040
1.5707963267949
    1040
0.5
    1040
0.3
    1070
0
    1040
0.5
    1070
0
    1002
}
    1000
LeadOut
    1002
{
    1070
0
    1040
0
    1040
0
    1040
0
    1070
0
    1002
}
    1000
IsFill
    1070
0
    1000
PathStart
    1040
0
    1000
ToolCompensation
    1002
{
    1070
0
    1040
0
    1070
0
    1002
}
       0
LWPOLYLINE
       5
2064
     100
AcDbEntity
       8
1
     100
AcDbPolyline
      90
8
      70
1
      10
15
      20
32
      42
0.414213562373094
      10
12
      20
35
      42
0
      10
-12
      20
35
      42
0.414213562373094
      10
-15
      20
32
      42
0
      10
-15
      20
31
      42
0.414213562373096
      10
-12
      20
28
      42
0
      10
12
      20
28
      42
0.414213562373096
      10
15
      20
31
      42
0
    1001
FS_CYPCUT
    1000
Channel
    1070
1
    1000
LeadIn
    1002
{
    1070
3
    1040
1.5
    1040
1.5707963267949
    1040
0.5
    1040
0.3
    1070
0
    1040
0.5
    1070
0
    1002
}
    1000
LeadOut
    1002
{
    1070
0
    1040
0
    1040
0
    1040
0
    1070
0
    1002
}
    1000
IsFill
    1070
0
    1000
PathStart
    1040
1.5
    1000
ToolCompensation
    1002
{
    1070
0
    1040
0
    1070
0
    1002
}
       0
CIRCLE
       5
2065
     100
AcDbEntity
       8
1
     100
AcDbCircle
      10
32
      20
32
      30
0
      40
3.25
    1001
FS_CYPCUT
    1000
Channel
    1070
1
    1000
LeadIn
    1002
{
    1070
3
    1040
0
    1040
1.5707963267949
    1040
0.5
    1040
0.3
    1070
0
    1040
0.5
    1070
0
    1002
}
    1000
LeadOut
    1002
{
    1070
0
    1040
0
    1040
0
    1040
0
    1070
0
    1002
}
    1000
IsFill
    1070
0
    1000
PathStart
    1040
0
    1000
ToolCompensation
    1002
{
    1070
0
    1040
0
    1070
0
    1002
}
       0
LWPOLYLINE
       5
2066
     100
AcDbEntity
       8
1
     100
AcDbPolyline
      90
8
      70
1
      10
20.3835454718
      20
47.7417867844
      42
0
      10
17.7414630234
      20
61.7417867844
      42
0.360578343359846
      10
13.8108457225
      20
65
      42
0
      10
-13.8108457225
      20
65
      42
0.360578343359844
      10
-17.7414630234373
      20
61.7417867844418
      42
0
      10
-20.3835454718373
      20
47.7417867844418
      42
0.469963129841644
      10
-16.4529281709
      20
43
      42
0
      10
16.4529281709
      20
43
      42
0.469963129841644
    1001
FS_CYPCUT
    1000
Channel
    1070
1
    1000
LeadIn
    1002
{
    1070
3
    1040
6.5
    1040
1.5707963267949
    1040
0.5
    1040
0.3
    1070
0
    1040
0.5
    1070
0
    1002
}
    1000
LeadOut
    1002
{
    1070
0
    1040
0
    1040
0
    1040
0
    1070
0
    1002
}
    1000
IsFill
    1070
0
    1000
PathStart
    1040
6.5
    1000
ToolCompensation
    1002
{
    1070
0
    1040
0
    1070
0
    1002
}
       0
LWPOLYLINE
       5
2067
     100
AcDbEntity
       8
1
     100
AcDbPolyline
      90
20
      70
1
      10
43
      20
35
      42
0
      10
43
      20
-35
      42
-0.414213562373095
      10
35
      20
-43
      42
0
      10
-35
      20
-43
      42
-0.414213562373095
      10
-43
      20
-35
      42
0
      10
-43
      20
35
      42
-0.0466654356656874
      10
-42.8612346018725
      20
36.4835735688832
      42
0
      10
-28.022335851806
      20
115.112680176663
      42
-0.360578343359847
      10
-22.1264099004
      20
120
      42
0
      10
-16.1
      20
120
      42
-0.414213562373093
      10
-15.1
      20
119
      42
0
      10
-15.1
      20
81
      42
0.41421356237309
      10
-14.1
      20
80
      42
0
      10
14.1
      20
80
      42
0.414213562373094
      10
15.1
      20
81
      42
0
      10
15.1
      20
119
      42
-0.414213562373093
      10
16.1
      20
120
      42
0
      10
22.1264099004
      20
120
      42
-0.360578343359846
      10
28.0223358518
      20
115.1126801767
      42
0
      10
42.8612346019
      20
36.4835735689
      42
-0.0466654356656843
    1001
FS_CYPCUT
    1000
Channel
    1070
1
    1000
LeadIn
    1002
{
    1070
3
    1040
6.5
    1040
1.5707963267949
    1040
0.5
    1040
0.3
    1070
0
    1040
0.5
    1070
0
    1002
}
    1000
LeadOut
    1002
{
    1070
0
    1040
0
    1040
0
    1040
0
    1070
0
    1002
}
    1000
IsFill
    1070
1
    1000
PathStart
    1040
6.5
    1000
ToolCompensation
    1002
{
    1070
0
    1040
0
    1070
0
    1002
}
    1000
MicroConnect
    1002
{
    1070
2
    1040
4.46501742
    1041
0.8
    1042
0
    1040
18.537017
    1041
0.8
    1042
0
    1002
}
       0
ENDBLK
       5
2068
     330
200A
     100
AcDbEntity
       8
0
     100
AcDbBlockEnd
       0
BLOCK
       5
2069
     330
200B
     100
AcDbEntity
       8
0
     100
AcDbBlockBegin
       2
Part602235770
      70
0
      10
-58
      20
-43
      30
0
       3
Part602235770
       1

       4
CypCutBlock
       0
CIRCLE
       5
206A
     100
AcDbEntity
       8
1
     100
AcDbCircle
      10
-32
      20
-32
      30
0
      40
3.25
    1001
FS_CYPCUT
    1000
Channel
    1070
1
    1000
LeadIn
    1002
{
    1070
3
    1040
0
    1040
1.5707963267949
    1040
0.5
    1040
0.3
    1070
0
    1040
0.5
    1070
0
    1002
}
    1000
LeadOut
    1002
{
    1070
0
    1040
0
    1040
0
    1040
0
    1070
0
    1002
}
    1000
IsFill
    1070
0
    1000
PathStart
    1040
0
    1000
ToolCompensation
    1002
{
    1070
0
    1040
0
    1070
0
    1002
}
       0
CIRCLE
       5
206B
     100
AcDbEntity
       8
1
     100
AcDbCircle
      10
-32
      20
32
      30
0
      40
3.25
    1001
FS_CYPCUT
    1000
Channel
    1070
1
    1000
LeadIn
    1002
{
    1070
3
    1040
0
    1040
1.5707963267949
    1040
0.5
    1040
0.3
    1070
0
    1040
0.5
    1070
0
    1002
}
    1000
LeadOut
    1002
{
    1070
0
    1040
0
    1040
0
    1040
0
    1070
0
    1002
}
    1000
IsFill
    1070
0
    1000
PathStart
    1040
1
    1000
ToolCompensation
    1002
{
    1070
0
    1040
0
    1070
0
    1002
}
       0
CIRCLE
       5
206C
     100
AcDbEntity
       8
1
     100
AcDbCircle
      10
32
      20
32
      30
0
      40
3.25
    1001
FS_CYPCUT
    1000
Channel
    1070
1
    1000
LeadIn
    1002
{
    1070
3
    1040
0
    1040
1.5707963267949
    1040
0.5
    1040
0.3
    1070
0
    1040
0.5
    1070
0
    1002
}
    1000
LeadOut
    1002
{
    1070
0
    1040
0
    1040
0
    1040
0
    1070
0
    1002
}
    1000
IsFill
    1070
0
    1000
PathStart
    1040
0
    1000
ToolCompensation
    1002
{
    1070
0
    1040
0
    1070
0
    1002
}
       0
CIRCLE
       5
206D
     100
AcDbEntity
       8
1
     100
AcDbCircle
      10
32
      20
-32
      30
0
      40
3.25000000000001
    1001
FS_CYPCUT
    1000
Channel
    1070
1
    1000
LeadIn
    1002
{
    1070
3
    1040
0
    1040
1.5707963267949
    1040
0.5
    1040
0.3
    1070
0
    1040
0.5
    1070
0
    1002
}
    1000
LeadOut
    1002
{
    1070
0
    1040
0
    1040
0
    1040
0
    1070
0
    1002
}
    1000
IsFill
    1070
0
    1000
PathStart
    1040
1
    1000
ToolCompensation
    1002
{
    1070
0
    1040
0
    1070
0
    1002
}
       0
LWPOLYLINE
       5
206E
     100
AcDbEntity
       8
1
     100
AcDbPolyline
      90
24
      70
1
      10
43
      20
35
      42
0
      10
43
      20
18
      42
-0.414213562373095
      10
40
      20
15
      42
0
      10
36.2801598673
      20
15
      42
-0.284915046441522
      10
33.5927406178661
      20
16.6666666666687
      42
4.26556443708184
      10
33.5927406178662
      20
-16.6666666666687
      42
-0.284915046441521
      10
36.2801598673
      20
-15
      42
0
      10
40
      20
-15
      42
-0.414213562373093
      10
43
      20
-18
      42
0
      10
43
      20
-35
      42
-0.414213562373095
      10
35
      20
-43
      42
0
      10
-35
      20
-43
      42
-0.0612788651019231
      10
-36.9389708231192
      20
-42.7614684272436
      42
0
      10
-51.9389708231
      20
-39.0141669186
      42
-0.344198076846147
      10
-58
      20
-31.2526984913
      42
0
      10
-58
      20
-27.6
      42
0
      10
-53.24
      20
-27.6
      42
0
      10
-53.24
      20
27.6
      42
0
      10
-58
      20
27.6
      42
0
      10
-58
      20
31.2526984913
      42
-0.344198076845658
      10
-51.9389708231326
      20
39.0141669185398
      42
0
      10
-36.9389708231
      20
42.7614684272
      42
-0.0612788651023617
      10
-35
      20
42.9999999999998
      42
0
      10
35
      20
43
      42
-0.414213562373096
    1001
FS_CYPCUT
    1000
Channel
    1070
1
    1000
LeadIn
    1002
{
    1070
3
    1040
10.5069019714286
    1040
1.5707963267949
    1040
0.5
    1040
0.3
    1070
0
    1040
0.5
    1070
0
    1002
}
    1000
LeadOut
    1002
{
    1070
0
    1040
0
    1040
0
    1040
0
    1070
0
    1002
}
    1000
IsFill
    1070
1
    1000
PathStart
    1040
10.5
    1000
ToolCompensation
    1002
{
    1070
0
    1040
0
    1070
0
    1002
}
    1000
MicroConnect
    1002
{
    1070
2
    1040
10.4954734
    1041
0.8
    1042
0
    1040
22.4737631
    1041
0.8
    1042
0
    1002
}
       0
ENDBLK
       5
206F
     330
200B
     100
AcDbEntity
       8
0
     100
AcDbBlockEnd
       0
BLOCK
       5
2070
     330
200C
     100
AcDbEntity
       8
0
     100
AcDbBlockBegin
       2
Part1788484452
      70
0
      10
-58
      20
-43
      30
0
       3
Part1788484452
       1

       4
CypCutBlock
       0
CIRCLE
       5
2071
     100
AcDbEntity
       8
1
     100
AcDbCircle
      10
-32
      20
-32
      30
0
      40
3.25
    1001
FS_CYPCUT
    1000
Channel
    1070
1
    1000
LeadIn
    1002
{
    1070
3
    1040
0
    1040
1.5707963267949
    1040
0.5
    1040
0.3
    1070
0
    1040
0.5
    1070
0
    1002
}
    1000
LeadOut
    1002
{
    1070
0
    1040
0
    1040
0
    1040
0
    1070
0
    1002
}
    1000
IsFill
    1070
0
    1000
PathStart
    1040
0
    1000
ToolCompensation
    1002
{
    1070
0
    1040
0
    1070
0
    1002
}
       0
CIRCLE
       5
2072
     100
AcDbEntity
       8
1
     100
AcDbCircle
      10
-32
      20
32
      30
0
      40
3.25
    1001
FS_CYPCUT
    1000
Channel
    1070
1
    1000
LeadIn
    1002
{
    1070
3
    1040
0
    1040
1.5707963267949
    1040
0.5
    1040
0.3
    1070
0
    1040
0.5
    1070
0
    1002
}
    1000
LeadOut
    1002
{
    1070
0
    1040
0
    1040
0
    1040
0
    1070
0
    1002
}
    1000
IsFill
    1070
0
    1000
PathStart
    1040
1
    1000
ToolCompensation
    1002
{
    1070
0
    1040
0
    1070
0
    1002
}
       0
CIRCLE
       5
2073
     100
AcDbEntity
       8
1
     100
AcDbCircle
      10
32
      20
32
      30
0
      40
3.25
    1001
FS_CYPCUT
    1000
Channel
    1070
1
    1000
LeadIn
    1002
{
    1070
3
    1040
0
    1040
1.5707963267949
    1040
0.5
    1040
0.3
    1070
0
    1040
0.5
    1070
0
    1002
}
    1000
LeadOut
    1002
{
    1070
0
    1040
0
    1040
0
    1040
0
    1070
0
    1002
}
    1000
IsFill
    1070
0
    1000
PathStart
    1040
0
    1000
ToolCompensation
    1002
{
    1070
0
    1040
0
    1070
0
    1002
}
       0
CIRCLE
       5
2074
     100
AcDbEntity
       8
1
     100
AcDbCircle
      10
32
      20
-32
      30
0
      40
3.25000000000001
    1001
FS_CYPCUT
    1000
Channel
    1070
1
    1000
LeadIn
    1002
{
    1070
3
    1040
0
    1040
1.5707963267949
    1040
0.5
    1040
0.3
    1070
0
    1040
0.5
    1070
0
    1002
}
    1000
LeadOut
    1002
{
    1070
0
    1040
0
    1040
0
    1040
0
    1070
0
    1002
}
    1000
IsFill
    1070
0
    1000
PathStart
    1040
1
    1000
ToolCompensation
    1002
{
    1070
0
    1040
0
    1070
0
    1002
}
       0
LWPOLYLINE
       5
2075
     100
AcDbEntity
       8
1
     100
AcDbPolyline
      90
24
      70
1
      10
43
      20
35
      42
0
      10
43
      20
18
      42
-0.414213562373095
      10
40
      20
15
      42
0
      10
36.2801598673
      20
15
      42
-0.284915046441522
      10
33.5927406178661
      20
16.6666666666687
      42
4.26556443708184
      10
33.5927406178662
      20
-16.6666666666687
      42
-0.284915046441521
      10
36.2801598673
      20
-15
      42
0
      10
40
      20
-15
      42
-0.414213562373093
      10
43
      20
-18
      42
0
      10
43
      20
-35
      42
-0.414213562373095
      10
35
      20
-43
      42
0
      10
-35
      20
-43
      42
-0.0612788651019231
      10
-36.9389708231192
      20
-42.7614684272436
      42
0
      10
-51.9389708231
      20
-39.0141669186
      42
-0.344198076846147
      10
-58
      20
-31.2526984913
      42
0
      10
-58
      20
-27.6
      42
0
      10
-53.24
      20
-27.6
      42
0
      10
-53.24
      20
27.6
      42
0
      10
-58
      20
27.6
      42
0
      10
-58
      20
31.2526984913
      42
-0.344198076845658
      10
-51.9389708231326
      20
39.0141669185398
      42
0
      10
-36.9389708231
      20
42.7614684272
      42
-0.0612788651023617
      10
-35
      20
42.9999999999998
      42
0
      10
35
      20
43
      42
-0.414213562373096
    1001
FS_CYPCUT
    1000
Channel
    1070
1
    1000
LeadIn
    1002
{
    1070
3
    1040
10.5069019714286
    1040
1.5707963267949
    1040
0.5
    1040
0.3
    1070
0
    1040
0.5
    1070
0
    1002
}
    1000
LeadOut
    1002
{
    1070
0
    1040
0
    1040
0
    1040
0
    1070
0
    1002
}
    1000
IsFill
    1070
1
    1000
PathStart
    1040
10.5
    1000
ToolCompensation
    1002
{
    1070
0
    1040
0
    1070
0
    1002
}
    1000
MicroConnect
    1002
{
    1070
2
    1040
10.4954734
    1041
0.8
    1042
0
    1040
22.4737631
    1041
0.8
    1042
0
    1002
}
       0
ENDBLK
       5
2076
     330
200C
     100
AcDbEntity
       8
0
     100
AcDbBlockEnd
       0
BLOCK
       5
2077
     330
200D
     100
AcDbEntity
       8
0
     100
AcDbBlockBegin
       2
Part1183284387
      70
0
      10
-25
      20
-31.0062825
      30
0
       3
Part1183284387
       1

       4
CypCutBlock
       0
CIRCLE
       5
2078
     100
AcDbEntity
       8
1
     100
AcDbCircle
      10
0
      20
-18.0062824618
      30
0
      40
5.25
    1001
FS_CYPCUT
    1000
Channel
    1070
1
    1000
LeadIn
    1002
{
    1070
3
    1040
0
    1040
1.5707963267949
    1040
0.5
    1040
0.3
    1070
0
    1040
0.5
    1070
0
    1002
}
    1000
LeadOut
    1002
{
    1070
0
    1040
0
    1040
0
    1040
0
    1070
0
    1002
}
    1000
IsFill
    1070
0
    1000
PathStart
    1040
0
    1000
ToolCompensation
    1002
{
    1070
0
    1040
0
    1070
0
    1002
}
       0
LINE
       5
2079
     100
AcDbEntity
       8
2
     100
AcDbLine
      10
25
      20
4.4968587691
      30
0
      11
-25
      21
4.4968587691
      31
0
    1001
FS_CYPCUT
    1000
Channel
    1070
2
    1000
LeadIn
    1002
{
    1070
3
    1040
0
    1040
1.5707963267949
    1040
0.5
    1040
0.3
    1070
0
    1040
0.5
    1070
0
    1002
}
    1000
LeadOut
    1002
{
    1070
0
    1040
0
    1040
0
    1040
0
    1070
0
    1002
}
    1000
IsFill
    1070
0
    1000
PathStart
    1040
0
    1000
ToolCompensation
    1002
{
    1070
0
    1040
0
    1070
0
    1002
}
       0
LWPOLYLINE
       5
207A
     100
AcDbEntity
       8
1
     100
AcDbPolyline
      90
8
      70
1
      10
8
      20
56.76
      42
0
      10
8
      20
24.76
      42
-0.414213562373096
      10
4
      20
20.76
      42
0
      10
-4
      20
20.76
      42
-0.414213562373095
      10
-8.00000000000001
      20
24.76
      42
0
      10
-7.99999999999999
      20
56.76
      42
-0.414213562373094
      10
-4
      20
60.76
      42
0
      10
4
      20
60.76
      42
-0.414213562373094
    1001
FS_CYPCUT
    1000
Channel
    1070
1
    1000
LeadIn
    1002
{
    1070
3
    1040
0.5
    1040
1.5707963267949
    1040
0.5
    1040
0.3
    1070
0
    1040
0.5
    1070
0
    1002
}
    1000
LeadOut
    1002
{
    1070
0
    1040
0
    1040
0
    1040
0
    1070
0
    1002
}
    1000
IsFill
    1070
0
    1000
PathStart
    1040
0.5
    1000
ToolCompensation
    1002
{
    1070
0
    1040
0
    1070
0
    1002
}
       0
CIRCLE
       5
207B
     100
AcDbEntity
       8
1
     100
AcDbCircle
      10
0
      20
84
      30
0
      40
3.75000000000001
    1001
FS_CYPCUT
    1000
Channel
    1070
1
    1000
LeadIn
    1002
{
    1070
3
    1040
0
    1040
1.5707963267949
    1040
0.5
    1040
0.3
    1070
0
    1040
0.5
    1070
0
    1002
}
    1000
LeadOut
    1002
{
    1070
0
    1040
0
    1040
0
    1040
0
    1070
0
    1002
}
    1000
IsFill
    1070
0
    1000
PathStart
    1040
1
    1000
ToolCompensation
    1002
{
    1070
0
    1040
0
    1070
0
    1002
}
       0
CIRCLE
       5
207C
     100
AcDbEntity
       8
1
     100
AcDbCircle
      10
0
      20
102
      30
0
      40
3.75000000000001
    1001
FS_CYPCUT
    1000
Channel
    1070
1
    1000
LeadIn
    1002
{
    1070
3
    1040
0
    1040
1.5707963267949
    1040
0.5
    1040
0.3
    1070
0
    1040
0.5
    1070
0
    1002
}
    1000
LeadOut
    1002
{
    1070
0
    1040
0
    1040
0
    1040
0
    1070
0
    1002
}
    1000
IsFill
    1070
0
    1000
PathStart
    1040
1
    1000
ToolCompensation
    1002
{
    1070
0
    1040
0
    1070
0
    1002
}
       0
LWPOLYLINE
       5
207D
     100
AcDbEntity
       8
1
     100
AcDbPolyline
      90
8
      70
1
      10
25
      20
103
      42
0
      10
25
      20
-21.0062824618
      42
-0.414213562373095
      10
15
      20
-31.0062824618
      42
0
      10
-15
      20
-31.0062824618
      42
-0.414213562373095
      10
-25
      20
-21.0062824618
      42
0
      10
-25
      20
103
      42
-0.414213562373096
      10
-15
      20
113
      42
0
      10
15
      20
113
      42
-0.414213562373095
    1001
FS_CYPCUT
    1000
Channel
    1070
1
    1000
LeadIn
    1002
{
    1070
3
    1040
0.5
    1040
1.5707963267949
    1040
0.5
    1040
0.3
    1070
0
    1040
0.5
    1070
0
    1002
}
    1000
LeadOut
    1002
{
    1070
0
    1040
0
    1040
0
    1040
0
    1070
0
    1002
}
    1000
IsFill
    1070
1
    1000
PathStart
    1040
0.5
    1000
ToolCompensation
    1002
{
    1070
0
    1040
0
    1070
0
    1002
}
    1000
MicroConnect
    1002
{
    1070
2
    1040
0.0798613355
    1041
0.8
    1042
0
    1040
4.09685571
    1041
0.8
    1042
0
    1002
}
       0
ENDBLK
       5
207E
     330
200D
     100
AcDbEntity
       8
0
     100
AcDbBlockEnd
       0
BLOCK
       5
207F
     330
200E
     100
AcDbEntity
       8
0
     100
AcDbBlockBegin
       2
Part1688123569
      70
0
      10
-65
      20
-12.5
      30
0
       3
Part1688123569
       1

       4
CypCutBlock
       0
CIRCLE
       5
2080
     100
AcDbEntity
       8
1
     100
AcDbCircle
      10
0
      20
0
      30
0
      40
3.25
    1001
FS_CYPCUT
    1000
Channel
    1070
1
    1000
LeadIn
    1002
{
    1070
3
    1040
0
    1040
1.5707963267949
    1040
0.5
    1040
0.3
    1070
0
    1040
0.5
    1070
0
    1002
}
    1000
LeadOut
    1002
{
    1070
0
    1040
0
    1040
0
    1040
0
    1070
0
    1002
}
    1000
IsFill
    1070
0
    1000
PathStart
    1040
0
    1000
ToolCompensation
    1002
{
    1070
0
    1040
0
    1070
0
    1002
}
       0
LWPOLYLINE
       5
2081
     100
AcDbEntity
       8
1
     100
AcDbPolyline
      90
4
      70
1
      10
-21.8
      20
67
      42
0
      10
-21.8
      20
13
      42
-1
      10
-28.2
      20
13
      42
0
      10
-28.2
      20
67
      42
-1
    1001
FS_CYPCUT
    1000
Channel
    1070
1
    1000
LeadIn
    1002
{
    1070
3
    1040
0.5
    1040
1.5707963267949
    1040
0.5
    1040
0.3
    1070
0
    1040
0.5
    1070
0
    1002
}
    1000
LeadOut
    1002
{
    1070
0
    1040
0
    1040
0
    1040
0
    1070
0
    1002
}
    1000
IsFill
    1070
0
    1000
PathStart
    1040
0.5
    1000
ToolCompensation
    1002
{
    1070
0
    1040
0
    1070
0
    1002
}
       0
LWPOLYLINE
       5
2082
     100
AcDbEntity
       8
1
     100
AcDbPolyline
      90
4
      70
1
      10
-51.8
      20
67
      42
0
      10
-51.8
      20
13
      42
-1
      10
-58.2
      20
13
      42
0
      10
-58.2
      20
67
      42
-1
    1001
FS_CYPCUT
    1000
Channel
    1070
1
    1000
LeadIn
    1002
{
    1070
3
    1040
0.5
    1040
1.5707963267949
    1040
0.5
    1040
0.3
    1070
0
    1040
0.5
    1070
0
    1002
}
    1000
LeadOut
    1002
{
    1070
0
    1040
0
    1040
0
    1040
0
    1070
0
    1002
}
    1000
IsFill
    1070
0
    1000
PathStart
    1040
0.5
    1000
ToolCompensation
    1002
{
    1070
0
    1040
0
    1070
0
    1002
}
       0
LWPOLYLINE
       5
2083
     100
AcDbEntity
       8
1
     100
AcDbPolyline
      90
10
      70
1
      10
3.33062381558792
      20
12.0481096027152
      42
-1
      10
-3.33062381558793
      20
-12.0481096027152
      42
0
      10
-57.6644990524703
      20
2.97214708692781
      42
-0.337250784668378
      10
-65
      20
12.6106347691
      42
0
      10
-65
      20
65
      42
-0.414213562373095
      10
-55
      20
75
      42
0
      10
-25
      20
75
      42
-0.414213562373093
      10
-15
      20
65
      42
0
      10
-15
      20
24.7261295673
      42
0.337250784668377
      10
-7.66449905247034
      20
15.0876418851278
      42
0
    1001
FS_CYPCUT
    1000
Channel
    1070
1
    1000
LeadIn
    1002
{
    1070
3
    1040
1.50238460676352
    1040
1.5707963267949
    1040
0.5
    1040
0.3
    1070
0
    1040
0.5
    1070
0
    1002
}
    1000
LeadOut
    1002
{
    1070
0
    1040
0
    1040
0
    1040
0
    1070
0
    1002
}
    1000
IsFill
    1070
1
    1000
PathStart
    1040
1.5
    1000
ToolCompensation
    1002
{
    1070
0
    1040
0
    1070
0
    1002
}
    1000
MicroConnect
    1002
{
    1070
2
    1040
1.48819311
    1041
0.8
    1042
0
    1040
5.5267841
    1041
0.8
    1042
0
    1002
}
       0
ENDBLK
       5
2084
     330
200E
     100
AcDbEntity
       8
0
     100
AcDbBlockEnd
       0
BLOCK
       5
2085
     330
200F
     100
AcDbEntity
       8
0
     100
AcDbBlockBegin
       2
Part258805254
      70
0
      10
-35
      20
-40
      30
0
       3
Part258805254
       1

       4
CypCutBlock
       0
CIRCLE
       5
2086
     100
AcDbEntity
       8
1
     100
AcDbCircle
      10
-20
      20
10
      30
0
      40
4.25
    1001
FS_CYPCUT
    1000
Channel
    1070
1
    1000
LeadIn
    1002
{
    1070
3
    1040
0
    1040
1.5707963267949
    1040
0.5
    1040
0.3
    1070
0
    1040
0.5
    1070
0
    1002
}
    1000
LeadOut
    1002
{
    1070
0
    1040
0
    1040
0
    1040
0
    1070
0
    1002
}
    1000
IsFill
    1070
0
    1000
PathStart
    1040
0
    1000
ToolCompensation
    1002
{
    1070
0
    1040
0
    1070
0
    1002
}
       0
LWPOLYLINE
       5
2087
     100
AcDbEntity
       8
1
     100
AcDbPolyline
      90
8
      70
1
      10
29
      20
-13
      42
0.414213562373095
      10
27
      20
-11
      42
0
      10
13
      20
-11
      42
0.414213562373095
      10
11
      20
-13
      42
0
      10
11
      20
-27
      42
0.414213562373098
      10
13
      20
-29
      42
0
      10
27
      20
-29
      42
0.414213562373095
      10
29
      20
-27
      42
0
    1001
FS_CYPCUT
    1000
Channel
    1070
1
    1000
LeadIn
    1002
{
    1070
3
    1040
1.5
    1040
1.5707963267949
    1040
0.5
    1040
0.3
    1070
0
    1040
0.5
    1070
0
    1002
}
    1000
LeadOut
    1002
{
    1070
0
    1040
0
    1040
0
    1040
0
    1070
0
    1002
}
    1000
IsFill
    1070
0
    1000
PathStart
    1040
1.5
    1000
ToolCompensation
    1002
{
    1070
0
    1040
0
    1070
0
    1002
}
       0
CIRCLE
       5
2088
     100
AcDbEntity
       8
1
     100
AcDbCircle
      10
-20
      20
40
      30
0
      40
4.25
    1001
FS_CYPCUT
    1000
Channel
    1070
1
    1000
LeadIn
    1002
{
    1070
3
    1040
0
    1040
1.5707963267949
    1040
0.5
    1040
0.3
    1070
0
    1040
0.5
    1070
0
    1002
}
    1000
LeadOut
    1002
{
    1070
0
    1040
0
    1040
0
    1040
0
    1070
0
    1002
}
    1000
IsFill
    1070
0
    1000
PathStart
    1040
0
    1000
ToolCompensation
    1002
{
    1070
0
    1040
0
    1070
0
    1002
}
       0
LWPOLYLINE
       5
2089
     100
AcDbEntity
       8
1
     100
AcDbPolyline
      90
14
      70
1
      10
40
      20
7.9289321881
      42
0
      10
40
      20
-35
      42
-0.414213562373096
      10
35
      20
-40
      42
0
      10
5
      20
-40
      42
-0.414213562373095
      10
0
      20
-35
      42
0
      10
5.32907051820075E-15
      20
-5
      42
0.414213562373095
      10
-5
      20
0
      42
0
      10
-30
      20
0
      42
-0.414213562373095
      10
-35
      20
5
      42
0
      10
-35
      20
45
      42
-0.414213562373095
      10
-30
      20
50
      42
0
      10
-2.0710678119
      20
49.9999999999999
      42
-0.198912367379659
      10
1.46446609403266
      20
48.5355339059327
      42
0
      10
38.5355339059
      20
11.4644660941
      42
-0.19891236737966
    1001
FS_CYPCUT
    1000
Channel
    1070
1
    1000
LeadIn
    1002
{
    1070
3
    1040
12.5094043855864
    1040
1.5707963267949
    1040
0.5
    1040
0.3
    1070
0
    1040
0.5
    1070
0
    1002
}
    1000
LeadOut
    1002
{
    1070
0
    1040
0
    1040
0
    1040
0
    1070
0
    1002
}
    1000
IsFill
    1070
1
    1000
PathStart
    1040
12.5
    1000
ToolCompensation
    1002
{
    1070
0
    1040
0
    1070
0
    1002
}
    1000
MicroConnect
    1002
{
    1070
2
    1040
5.5
    1041
0.8
    1042
0
    1040
12.4941449
    1041
0.8
    1042
0
    1002
}
       0
ENDBLK
       5
208A
     330
200F
     100
AcDbEntity
       8
0
     100
AcDbBlockEnd
       0
BLOCK
       5
208B
     330
2010
     100
AcDbEntity
       8
0
     100
AcDbBlockBegin
       2
Part1781003809
      70
0
      10
-1.95399252E-14
      20
-44.7662825
      30
0
       3
Part1781003809
       1

       4
CypCutBlock
       0
LINE
       5
208C
     100
AcDbEntity
       8
2
     100
AcDbLine
      10
30
      20
-4.2631412309
      30
0
      11
150
      21
-4.2631412309
      31
0
    1001
FS_CYPCUT
    1000
Channel
    1070
2
    1000
LeadIn
    1002
{
    1070
3
    1040
0
    1040
1.5707963267949
    1040
0.5
    1040
0.3
    1070
0
    1040
0.5
    1070
0
    1002
}
    1000
LeadOut
    1002
{
    1070
0
    1040
0
    1040
0
    1040
0
    1070
0
    1002
}
    1000
IsFill
    1070
0
    1000
PathStart
    1040
0
    1000
ToolCompensation
    1002
{
    1070
0
    1040
0
    1070
0
    1002
}
       0
LWPOLYLINE
       5
208D
     100
AcDbEntity
       8
1
     100
AcDbPolyline
      90
6
      70
1
      10
99.3300158367
      20
31.8934221766
      42
0
      10
66.7619029867285
      20
62.9811662606758
      42
0.659802924118891
      10
60
      20
60.0877440841
      42
0
      10
60
      20
29
      42
0.414213562373096
      10
64
      20
25
      42
0
      10
96.56811285
      20
25
      42
0.676619669694378
    1001
FS_CYPCUT
    1000
Channel
    1070
1
    1000
LeadIn
    1002
{
    1070
3
    1040
0.5
    1040
1.5707963267949
    1040
0.5
    1040
0.3
    1070
0
    1040
0.5
    1070
0
    1002
}
    1000
LeadOut
    1002
{
    1070
0
    1040
0
    1040
0
    1040
0
    1070
0
    1002
}
    1000
IsFill
    1070
0
    1000
PathStart
    1040
0.5
    1000
ToolCompensation
    1002
{
    1070
0
    1040
0
    1070
0
    1002
}
       0
CIRCLE
       5
208E
     100
AcDbEntity
       8
1
     100
AcDbCircle
      10
134
      20
-24.7662824618
      30
0
      40
5.24999999999995
    1001
FS_CYPCUT
    1000
Channel
    1070
1
    1000
LeadIn
    1002
{
    1070
3
    1040
0
    1040
1.5707963267949
    1040
0.5
    1040
0.3
    1070
0
    1040
0.5
    1070
0
    1002
}
    1000
LeadOut
    1002
{
    1070
0
    1040
0
    1040
0
    1040
0
    1070
0
    1002
}
    1000
IsFill
    1070
0
    1000
PathStart
    1040
1
    1000
ToolCompensation
    1002
{
    1070
0
    1040
0
    1070
0
    1002
}
       0
LWPOLYLINE
       5
208F
     100
AcDbEntity
       8
1
     100
AcDbPolyline
      90
21
      70
1
      10
150
      20
20.7209942493
      42
0.204962330730744
      10
146.904757466821
      20
27.9545496907393
      42
0
      10
42.8981800137
      20
127.2335554414
      42
0.192876378674815
      10
35.9934225469
      20
130
      42
0
      10
2
      20
130
      42
0.414213562373101
      10
0
      20
128
      42
0
      10
0
      20
106.37
      42
0.414213562373099
      10
2
      20
104.37
      42
0
      10
27
      20
104.37
      42
-0.414213562373095
      10
30
      20
101.37
      42
0
      10
30
      20
31.37
      42
-0.414213562373095
      10
27
      20
28.37
      42
0
      10
2
      20
28.37
      42
0.414213562373095
      10
0
      20
26.37
      42
0
      10
-1.95399252334028E-14
      20
12.74
      42
0.414213562373095
      10
10
      20
2.73999999999998
      42
0
      10
30
      20
2.74
      42
0
      10
30
      20
-42.7662824618
      42
0.414213562373097
      10
32
      20
-44.7662824618
      42
0
      10
140
      20
-44.7662824618001
      42
0.414213562373095
      10
150
      20
-34.7662824618
      42
0
    1001
FS_CYPCUT
    1000
Channel
    1070
1
    1000
LeadIn
    1002
{
    1070
3
    1040
1.50088733152771
    1040
1.5707963267949
    1040
0.5
    1040
0.3
    1070
0
    1040
0.5
    1070
0
    1002
}
    1000
LeadOut
    1002
{
    1070
0
    1040
0
    1040
0
    1040
0
    1070
0
    1002
}
    1000
IsFill
    1070
1
    1000
PathStart
    1040
1.5
    1000
ToolCompensation
    1002
{
    1070
0
    1040
0
    1070
0
    1002
}
    1000
MicroConnect
    1002
{
    1070
3
    1040
1.49532341
    1041
0.8
    1042
0
    1040
5.51187931
    1041
0.8
    1042
0
    1040
18.5336565
    1041
0.8
    1042
0
    1002
}
       0
ENDBLK
       5
2090
     330
2010
     100
AcDbEntity
       8
0
     100
AcDbBlockEnd
       0
BLOCK
       5
2091
     330
2011
     100
AcDbEntity
       8
0
     100
AcDbBlockBegin
       2
Part1925552300
      70
0
      10
-43
      20
-110
      30
0
       3
Part1925552300
       1

       4
CypCutBlock
       0
LWPOLYLINE
       5
2092
     100
AcDbEntity
       8
1
     100
AcDbPolyline
      90
4
      70
1
      10
-27.8
      20
72
      42
1
      10
-36.2
      20
72
      42
0
      10
-36.2
      20
-52
      42
1
      10
-27.8
      20
-52
      42
0
    1001
FS_CYPCUT
    1000
Channel
    1070
1
    1000
LeadIn
    1002
{
    1070
3
    1040
1.5
    1040
1.5707963267949
    1040
0.5
    1040
0.3
    1070
0
    1040
0.5
    1070
0
    1002
}
    1000
LeadOut
    1002
{
    1070
0
    1040
0
    1040
0
    1040
0
    1070
0
    1002
}
    1000
IsFill
    1070
0
    1000
PathStart
    1040
1.5
    1000
ToolCompensation
    1002
{
    1070
0
    1040
0
    1070
0
    1002
}
       0
LWPOLYLINE
       5
2093
     100
AcDbEntity
       8
1
     100
AcDbPolyline
      90
4
      70
1
      10
11
      20
68
      42
0
      10
11
      20
-45
      42
-1
      10
-11
      20
-45
      42
0
      10
-11
      20
68
      42
-1
    1001
FS_CYPCUT
    1000
Channel
    1070
1
    1000
LeadIn
    1002
{
    1070
3
    1040
0.5
    1040
1.5707963267949
    1040
0.5
    1040
0.3
    1070
0
    1040
0.5
    1070
0
    1002
}
    1000
LeadOut
    1002
{
    1070
0
    1040
0
    1040
0
    1040
0
    1070
0
    1002
}
    1000
IsFill
    1070
0
    1000
PathStart
    1040
0.5
    1000
ToolCompensation
    1002
{
    1070
0
    1040
0
    1070
0
    1002
}
       0
LWPOLYLINE
       5
2094
     100
AcDbEntity
       8
1
     100
AcDbPolyline
      90
4
      70
1
      10
36.2
      20
72
      42
1
      10
27.8
      20
72
      42
0
      10
27.8
      20
-52
      42
1
      10
36.2
      20
-52
      42
0
    1001
FS_CYPCUT
    1000
Channel
    1070
1
    1000
LeadIn
    1002
{
    1070
3
    1040
1.5
    1040
1.5707963267949
    1040
0.5
    1040
0.3
    1070
0
    1040
0.5
    1070
0
    1002
}
    1000
LeadOut
    1002
{
    1070
0
    1040
0
    1040
0
    1040
0
    1070
0
    1002
}
    1000
IsFill
    1070
0
    1000
PathStart
    1040
1.5
    1000
ToolCompensation
    1002
{
    1070
0
    1040
0
    1070
0
    1002
}
       0
LWPOLYLINE
       5
2095
     100
AcDbEntity
       8
1
     100
AcDbPolyline
      90
20
      70
1
      10
43
      20
90
      42
0.414213562373094
      10
35
      20
98
      42
0
      10
-35
      20
98
      42
0.414213562373096
      10
-43
      20
90
      42
0
      10
-43
      20
-66.7902179237
      42
0.0751839765888988
      10
-42.6422871255
      20
-69.1556877483
      42
0
      10
-31.7440212448
      20
-104.3654698246
      42
0.328790324259439
      10
-24.1017341192
      20
-110
      42
0
      10
-16
      20
-110
      42
0.414213562373103
      10
-15
      20
-109
      42
0
      10
-15
      20
-71
      42
-0.414213562373087
      10
-14
      20
-70
      42
0
      10
14
      20
-70
      42
-0.414213562373087
      10
15
      20
-71
      42
0
      10
15
      20
-109
      42
0.414213562373103
      10
16
      20
-110
      42
0
      10
24.1017341192
      20
-110
      42
0.328790324259442
      10
31.7440212448
      20
-104.3654698246
      42
0
      10
42.6422871255294
      20
-69.1556877482736
      42
0.0751839765888928
      10
43.0000000000001
      20
-66.7902179237
      42
0
    1001
FS_CYPCUT
    1000
Channel
    1070
1
    1000
LeadIn
    1002
{
    1070
3
    1040
3.5
    1040
1.5707963267949
    1040
0.5
    1040
0.3
    1070
0
    1040
0.5
    1070
0
    1002
}
    1000
LeadOut
    1002
{
    1070
0
    1040
0
    1040
0
    1040
0
    1070
0
    1002
}
    1000
IsFill
    1070
1
    1000
PathStart
    1040
3.5
    1000
ToolCompensation
    1002
{
    1070
0
    1040
0
    1070
0
    1002
}
    1000
MicroConnect
    1002
{
    1070
2
    1040
3.8441708
    1041
0.8
    1042
0
    1040
19.7684442
    1041
0.8
    1042
0
    1002
}
       0
ENDBLK
       5
2096
     330
2011
     100
AcDbEntity
       8
0
     100
AcDbBlockEnd
       0
BLOCK
       5
2097
     330
2012
     100
AcDbEntity
       8
0
     100
AcDbBlockBegin
       2
Part239770873
      70
0
      10
-58
      20
-43
      30
0
       3
Part239770873
       1

       4
CypCutBlock
       0
CIRCLE
       5
2098
     100
AcDbEntity
       8
1
     100
AcDbCircle
      10
-32
      20
-32
      30
0
      40
3.25
    1001
FS_CYPCUT
    1000
Channel
    1070
1
    1000
LeadIn
    1002
{
    1070
3
    1040
0
    1040
1.5707963267949
    1040
0.5
    1040
0.3
    1070
0
    1040
0.5
    1070
0
    1002
}
    1000
LeadOut
    1002
{
    1070
0
    1040
0
    1040
0
    1040
0
    1070
0
    1002
}
    1000
IsFill
    1070
0
    1000
PathStart
    1040
0
    1000
ToolCompensation
    1002
{
    1070
0
    1040
0
    1070
0
    1002
}
       0
CIRCLE
       5
2099
     100
AcDbEntity
       8
1
     100
AcDbCircle
      10
-32
      20
32
      30
0
      40
3.25
    1001
FS_CYPCUT
    1000
Channel
    1070
1
    1000
LeadIn
    1002
{
    1070
3
    1040
0
    1040
1.5707963267949
    1040
0.5
    1040
0.3
    1070
0
    1040
0.5
    1070
0
    1002
}
    1000
LeadOut
    1002
{
    1070
0
    1040
0
    1040
0
    1040
0
    1070
0
    1002
}
    1000
IsFill
    1070
0
    1000
PathStart
    1040
1
    1000
ToolCompensation
    1002
{
    1070
0
    1040
0
    1070
0
    1002
}
       0
CIRCLE
       5
209A
     100
AcDbEntity
       8
1
     100
AcDbCircle
      10
32
      20
32
      30
0
      40
3.25
    1001
FS_CYPCUT
    1000
Channel
    1070
1
    1000
LeadIn
    1002
{
    1070
3
    1040
0
    1040
1.5707963267949
    1040
0.5
    1040
0.3
    1070
0
    1040
0.5
    1070
0
    1002
}
    1000
LeadOut
    1002
{
    1070
0
    1040
0
    1040
0
    1040
0
    1070
0
    1002
}
    1000
IsFill
    1070
0
    1000
PathStart
    1040
0
    1000
ToolCompensation
    1002
{
    1070
0
    1040
0
    1070
0
    1002
}
       0
CIRCLE
       5
209B
     100
AcDbEntity
       8
1
     100
AcDbCircle
      10
32
      20
-32
      30
0
      40
3.25000000000001
    1001
FS_CYPCUT
    1000
Channel
    1070
1
    1000
LeadIn
    1002
{
    1070
3
    1040
0
    1040
1.5707963267949
    1040
0.5
    1040
0.3
    1070
0
    1040
0.5
    1070
0
    1002
}
    1000
LeadOut
    1002
{
    1070
0
    1040
0
    1040
0
    1040
0
    1070
0
    1002
}
    1000
IsFill
    1070
0
    1000
PathStart
    1040
1
    1000
ToolCompensation
    1002
{
    1070
0
    1040
0
    1070
0
    1002
}
       0
LWPOLYLINE
       5
209C
     100
AcDbEntity
       8
1
     100
AcDbPolyline
      90
24
      70
1
      10
43
      20
35
      42
0
      10
43
      20
18
      42
-0.414213562373095
      10
40
      20
15
      42
0
      10
36.2801598673
      20
15
      42
-0.284915046441522
      10
33.5927406178661
      20
16.6666666666687
      42
4.26556443708184
      10
33.5927406178662
      20
-16.6666666666687
      42
-0.284915046441521
      10
36.2801598673
      20
-15
      42
0
      10
40
      20
-15
      42
-0.414213562373093
      10
43
      20
-18
      42
0
      10
43
      20
-35
      42
-0.414213562373095
      10
35
      20
-43
      42
0
      10
-35
      20
-43
      42
-0.0612788651019231
      10
-36.9389708231192
      20
-42.7614684272436
      42
0
      10
-51.9389708231
      20
-39.0141669186
      42
-0.344198076846147
      10
-58
      20
-31.2526984913
      42
0
      10
-58
      20
-27.6
      42
0
      10
-53.24
      20
-27.6
      42
0
      10
-53.24
      20
27.6
      42
0
      10
-58
      20
27.6
      42
0
      10
-58
      20
31.2526984913
      42
-0.344198076845658
      10
-51.9389708231326
      20
39.0141669185398
      42
0
      10
-36.9389708231
      20
42.7614684272
      42
-0.0612788651023617
      10
-35
      20
42.9999999999998
      42
0
      10
35
      20
43
      42
-0.414213562373096
    1001
FS_CYPCUT
    1000
Channel
    1070
1
    1000
LeadIn
    1002
{
    1070
3
    1040
10.5069019714286
    1040
1.5707963267949
    1040
0.5
    1040
0.3
    1070
0
    1040
0.5
    1070
0
    1002
}
    1000
LeadOut
    1002
{
    1070
0
    1040
0
    1040
0
    1040
0
    1070
0
    1002
}
    1000
IsFill
    1070
1
    1000
PathStart
    1040
10.5
    1000
ToolCompensation
    1002
{
    1070
0
    1040
0
    1070
0
    1002
}
    1000
MicroConnect
    1002
{
    1070
2
    1040
10.4954734
    1041
0.8
    1042
0
    1040
22.4737631
    1041
0.8
    1042
0
    1002
}
       0
ENDBLK
       5
209D
     330
2012
     100
AcDbEntity
       8
0
     100
AcDbBlockEnd
       0
BLOCK
       5
209E
     330
2013
     100
AcDbEntity
       8
0
     100
AcDbBlockBegin
       2
Part1949415135
      70
0
      10
-58
      20
-43
      30
0
       3
Part1949415135
       1

       4
CypCutBlock
       0
CIRCLE
       5
209F
     100
AcDbEntity
       8
1
     100
AcDbCircle
      10
-32
      20
-32
      30
0
      40
3.25
    1001
FS_CYPCUT
    1000
Channel
    1070
1
    1000
LeadIn
    1002
{
    1070
3
    1040
0
    1040
1.5707963267949
    1040
0.5
    1040
0.3
    1070
0
    1040
0.5
    1070
0
    1002
}
    1000
LeadOut
    1002
{
    1070
0
    1040
0
    1040
0
    1040
0
    1070
0
    1002
}
    1000
IsFill
    1070
0
    1000
PathStart
    1040
0
    1000
ToolCompensation
    1002
{
    1070
0
    1040
0
    1070
0
    1002
}
       0
CIRCLE
       5
20A0
     100
AcDbEntity
       8
1
     100
AcDbCircle
      10
-32
      20
32
      30
0
      40
3.25
    1001
FS_CYPCUT
    1000
Channel
    1070
1
    1000
LeadIn
    1002
{
    1070
3
    1040
0
    1040
1.5707963267949
    1040
0.5
    1040
0.3
    1070
0
    1040
0.5
    1070
0
    1002
}
    1000
LeadOut
    1002
{
    1070
0
    1040
0
    1040
0
    1040
0
    1070
0
    1002
}
    1000
IsFill
    1070
0
    1000
PathStart
    1040
1
    1000
ToolCompensation
    1002
{
    1070
0
    1040
0
    1070
0
    1002
}
       0
CIRCLE
       5
20A1
     100
AcDbEntity
       8
1
     100
AcDbCircle
      10
32
      20
32
      30
0
      40
3.25
    1001
FS_CYPCUT
    1000
Channel
    1070
1
    1000
LeadIn
    1002
{
    1070
3
    1040
0
    1040
1.5707963267949
    1040
0.5
    1040
0.3
    1070
0
    1040
0.5
    1070
0
    1002
}
    1000
LeadOut
    1002
{
    1070
0
    1040
0
    1040
0
    1040
0
    1070
0
    1002
}
    1000
IsFill
    1070
0
    1000
PathStart
    1040
0
    1000
ToolCompensation
    1002
{
    1070
0
    1040
0
    1070
0
    1002
}
       0
CIRCLE
       5
20A2
     100
AcDbEntity
       8
1
     100
AcDbCircle
      10
32
      20
-32
      30
0
      40
3.25000000000001
    1001
FS_CYPCUT
    1000
Channel
    1070
1
    1000
LeadIn
    1002
{
    1070
3
    1040
0
    1040
1.5707963267949
    1040
0.5
    1040
0.3
    1070
0
    1040
0.5
    1070
0
    1002
}
    1000
LeadOut
    1002
{
    1070
0
    1040
0
    1040
0
    1040
0
    1070
0
    1002
}
    1000
IsFill
    1070
0
    1000
PathStart
    1040
1
    1000
ToolCompensation
    1002
{
    1070
0
    1040
0
    1070
0
    1002
}
       0
LWPOLYLINE
       5
20A3
     100
AcDbEntity
       8
1
     100
AcDbPolyline
      90
24
      70
1
      10
43
      20
35
      42
0
      10
43
      20
18
      42
-0.414213562373095
      10
40
      20
15
      42
0
      10
36.2801598673
      20
15
      42
-0.284915046441522
      10
33.5927406178661
      20
16.6666666666687
      42
4.26556443708184
      10
33.5927406178662
      20
-16.6666666666687
      42
-0.284915046441521
      10
36.2801598673
      20
-15
      42
0
      10
40
      20
-15
      42
-0.414213562373093
      10
43
      20
-18
      42
0
      10
43
      20
-35
      42
-0.414213562373095
      10
35
      20
-43
      42
0
      10
-35
      20
-43
      42
-0.0612788651019231
      10
-36.9389708231192
      20
-42.7614684272436
      42
0
      10
-51.9389708231
      20
-39.0141669186
      42
-0.344198076846147
      10
-58
      20
-31.2526984913
      42
0
      10
-58
      20
-27.6
      42
0
      10
-53.24
      20
-27.6
      42
0
      10
-53.24
      20
27.6
      42
0
      10
-58
      20
27.6
      42
0
      10
-58
      20
31.2526984913
      42
-0.344198076845658
      10
-51.9389708231326
      20
39.0141669185398
      42
0
      10
-36.9389708231
      20
42.7614684272
      42
-0.0612788651023617
      10
-35
      20
42.9999999999998
      42
0
      10
35
      20
43
      42
-0.414213562373096
    1001
FS_CYPCUT
    1000
Channel
    1070
1
    1000
LeadIn
    1002
{
    1070
3
    1040
10.5069019714286
    1040
1.5707963267949
    1040
0.5
    1040
0.3
    1070
0
    1040
0.5
    1070
0
    1002
}
    1000
LeadOut
    1002
{
    1070
0
    1040
0
    1040
0
    1040
0
    1070
0
    1002
}
    1000
IsFill
    1070
1
    1000
PathStart
    1040
10.5
    1000
ToolCompensation
    1002
{
    1070
0
    1040
0
    1070
0
    1002
}
    1000
MicroConnect
    1002
{
    1070
2
    1040
10.4954734
    1041
0.8
    1042
0
    1040
22.4737631
    1041
0.8
    1042
0
    1002
}
       0
ENDBLK
       5
20A4
     330
2013
     100
AcDbEntity
       8
0
     100
AcDbBlockEnd
       0
BLOCK
       5
20A5
     330
2014
     100
AcDbEntity
       8
0
     100
AcDbBlockBegin
       2
CommonPart2042970203
      70
0
      10
610.300318
      20
212
      30
0
       3
CommonPart2042970203
       1

       4
CypCutBlock
       0
CIRCLE
       5
20A6
     100
AcDbEntity
       8
1
     100
AcDbCircle
      10
623.3003175382
      20
237
      30
0
      40
5.25
    1001
FS_CYPCUT
    1000
Channel
    1070
1
    1000
LeadIn
    1002
{
    1070
3
    1040
0
    1040
1.5707963267949
    1040
0.5
    1040
0.3
    1070
0
    1040
0.5
    1070
0
    1002
}
    1000
LeadOut
    1002
{
    1070
0
    1040
0
    1040
0
    1040
0
    1070
0
    1002
}
    1000
IsFill
    1070
0
    1000
PathStart
    1040
0
    1000
ToolCompensation
    1002
{
    1070
0
    1040
0
    1070
0
    1002
}
       0
LINE
       5
20A7
     100
AcDbEntity
       8
2
     100
AcDbLine
      10
645.8034587691
      20
212
      30
0
      11
645.8034587691
      21
262
      31
0
    1001
FS_CYPCUT
    1000
Channel
    1070
2
    1000
LeadIn
    1002
{
    1070
3
    1040
0
    1040
1.5707963267949
    1040
0.5
    1040
0.3
    1070
0
    1040
0.5
    1070
0
    1002
}
    1000
LeadOut
    1002
{
    1070
0
    1040
0
    1040
0
    1040
0
    1070
0
    1002
}
    1000
IsFill
    1070
0
    1000
PathStart
    1040
0
    1000
ToolCompensation
    1002
{
    1070
0
    1040
0
    1070
0
    1002
}
       0
LWPOLYLINE
       5
20A8
     100
AcDbEntity
       8
1
     100
AcDbPolyline
      90
8
      70
1
      10
698.0666
      20
229
      42
0
      10
666.0666
      20
229
      42
-0.414213562373096
      10
662.0666
      20
233
      42
0
      10
662.0666
      20
241
      42
-0.414213562373095
      10
666.0666
      20
245
      42
0
      10
698.0666
      20
245
      42
-0.414213562373094
      10
702.0666
      20
241
      42
0
      10
702.0666
      20
233
      42
-0.414213562373094
    1001
FS_CYPCUT
    1000
Channel
    1070
1
    1000
LeadIn
    1002
{
    1070
3
    1040
0.5
    1040
1.5707963267949
    1040
0.5
    1040
0.3
    1070
0
    1040
0.5
    1070
0
    1002
}
    1000
LeadOut
    1002
{
    1070
0
    1040
0
    1040
0
    1040
0
    1070
0
    1002
}
    1000
IsFill
    1070
0
    1000
PathStart
    1040
0.5
    1000
ToolCompensation
    1002
{
    1070
0
    1040
0
    1070
0
    1002
}
       0
CIRCLE
       5
20A9
     100
AcDbEntity
       8
1
     100
AcDbCircle
      10
725.3066
      20
237
      30
0
      40
3.75
    1001
FS_CYPCUT
    1000
Channel
    1070
1
    1000
LeadIn
    1002
{
    1070
3
    1040
0
    1040
1.5707963267949
    1040
0.5
    1040
0.3
    1070
0
    1040
0.5
    1070
0
    1002
}
    1000
LeadOut
    1002
{
    1070
0
    1040
0
    1040
0
    1040
0
    1070
0
    1002
}
    1000
IsFill
    1070
0
    1000
PathStart
    1040
0
    1000
ToolCompensation
    1002
{
    1070
0
    1040
0
    1070
0
    1002
}
       0
CIRCLE
       5
20AA
     100
AcDbEntity
       8
1
     100
AcDbCircle
      10
743.3066
      20
237
      30
0
      40
3.75
    1001
FS_CYPCUT
    1000
Channel
    1070
1
    1000
LeadIn
    1002
{
    1070
3
    1040
0
    1040
1.5707963267949
    1040
0.5
    1040
0.3
    1070
0
    1040
0.5
    1070
0
    1002
}
    1000
LeadOut
    1002
{
    1070
0
    1040
0
    1040
0
    1040
0
    1070
0
    1002
}
    1000
IsFill
    1070
0
    1000
PathStart
    1040
0
    1000
ToolCompensation
    1002
{
    1070
0
    1040
0
    1070
0
    1002
}
       0
LWPOLYLINE
       5
20AB
     100
AcDbEntity
       8
1
     100
AcDbPolyline
      90
8
      70
0
      10
754.3066
      20
222
      42
-0.414213562373095
      10
744.3066
      20
212
      42
0
      10
620.3003175382
      20
212
      42
-0.414213562373095
      10
610.3003175382
      20
222
      42
0
      10
610.3003175382
      20
252
      42
-0.414213562373095
      10
620.3003175382
      20
262
      42
0
      10
744.3066
      20
262
      42
-0.414213562373096
      10
754.3066
      20
252
      42
0
    1001
FS_CYPCUT
    1000
Channel
    1070
1
    1000
LeadIn
    1002
{
    1070
0
    1040
0.00636619772367582
    1040
1.5707963267949
    1040
0.5
    1040
0.3
    1070
0
    1040
0.5
    1070
0
    1002
}
    1000
LeadOut
    1002
{
    1070
0
    1040
0
    1040
0
    1040
0
    1070
0
    1002
}
    1000
IsFill
    1070
1
    1000
PathStart
    1040
0
    1000
ToolCompensation
    1002
{
    1070
0
    1040
0
    1070
0
    1002
}
    1000
MicroConnect
    1002
{
    1070
1
    1040
0
    1041
0.1
    1042
0
    1002
}
       0
CIRCLE
       5
20AC
     100
AcDbEntity
       8
1
     100
AcDbCircle
      10
767.3067175382
      20
237
      30
0
      40
5.25
    1001
FS_CYPCUT
    1000
Channel
    1070
1
    1000
LeadIn
    1002
{
    1070
3
    1040
0
    1040
1.5707963267949
    1040
0.5
    1040
0.3
    1070
0
    1040
0.5
    1070
0
    1002
}
    1000
LeadOut
    1002
{
    1070
0
    1040
0
    1040
0
    1040
0
    1070
0
    1002
}
    1000
IsFill
    1070
0
    1000
PathStart
    1040
0
    1000
ToolCompensation
    1002
{
    1070
0
    1040
0
    1070
0
    1002
}
       0
LINE
       5
20AD
     100
AcDbEntity
       8
2
     100
AcDbLine
      10
789.8098587691
      20
212
      30
0
      11
789.8098587691
      21
262
      31
0
    1001
FS_CYPCUT
    1000
Channel
    1070
2
    1000
LeadIn
    1002
{
    1070
3
    1040
0
    1040
1.5707963267949
    1040
0.5
    1040
0.3
    1070
0
    1040
0.5
    1070
0
    1002
}
    1000
LeadOut
    1002
{
    1070
0
    1040
0
    1040
0
    1040
0
    1070
0
    1002
}
    1000
IsFill
    1070
0
    1000
PathStart
    1040
0
    1000
ToolCompensation
    1002
{
    1070
0
    1040
0
    1070
0
    1002
}
       0
LWPOLYLINE
       5
20AE
     100
AcDbEntity
       8
1
     100
AcDbPolyline
      90
8
      70
1
      10
842.073
      20
229
      42
0
      10
810.073
      20
229
      42
-0.414213562373096
      10
806.073
      20
233
      42
0
      10
806.073
      20
241
      42
-0.414213562373095
      10
810.073
      20
245
      42
0
      10
842.073
      20
245
      42
-0.414213562373094
      10
846.073
      20
241
      42
0
      10
846.073
      20
233
      42
-0.414213562373094
    1001
FS_CYPCUT
    1000
Channel
    1070
1
    1000
LeadIn
    1002
{
    1070
3
    1040
0.5
    1040
1.5707963267949
    1040
0.5
    1040
0.3
    1070
0
    1040
0.5
    1070
0
    1002
}
    1000
LeadOut
    1002
{
    1070
0
    1040
0
    1040
0
    1040
0
    1070
0
    1002
}
    1000
IsFill
    1070
0
    1000
PathStart
    1040
0.5
    1000
ToolCompensation
    1002
{
    1070
0
    1040
0
    1070
0
    1002
}
       0
CIRCLE
       5
20AF
     100
AcDbEntity
       8
1
     100
AcDbCircle
      10
869.313
      20
237
      30
0
      40
3.75
    1001
FS_CYPCUT
    1000
Channel
    1070
1
    1000
LeadIn
    1002
{
    1070
3
    1040
0
    1040
1.5707963267949
    1040
0.5
    1040
0.3
    1070
0
    1040
0.5
    1070
0
    1002
}
    1000
LeadOut
    1002
{
    1070
0
    1040
0
    1040
0
    1040
0
    1070
0
    1002
}
    1000
IsFill
    1070
0
    1000
PathStart
    1040
0
    1000
ToolCompensation
    1002
{
    1070
0
    1040
0
    1070
0
    1002
}
       0
CIRCLE
       5
20B0
     100
AcDbEntity
       8
1
     100
AcDbCircle
      10
887.313
      20
237
      30
0
      40
3.75
    1001
FS_CYPCUT
    1000
Channel
    1070
1
    1000
LeadIn
    1002
{
    1070
3
    1040
0
    1040
1.5707963267949
    1040
0.5
    1040
0.3
    1070
0
    1040
0.5
    1070
0
    1002
}
    1000
LeadOut
    1002
{
    1070
0
    1040
0
    1040
0
    1040
0
    1070
0
    1002
}
    1000
IsFill
    1070
0
    1000
PathStart
    1040
0
    1000
ToolCompensation
    1002
{
    1070
0
    1040
0
    1070
0
    1002
}
       0
LWPOLYLINE
       5
20B1
     100
AcDbEntity
       8
1
     100
AcDbPolyline
      90
8
      70
1
      10
754.3067175382
      20
252
      42
0
      10
754.3067175382
      20
222
      42
0.414213562373095
      10
764.3067175382
      20
212
      42
0
      10
888.313
      20
212
      42
0.414213562373095
      10
898.313
      20
222
      42
0
      10
898.313
      20
252
      42
0.414213562373096
      10
888.313
      20
262
      42
0
      10
764.3067175382
      20
262
      42
0.414213562373095
    1001
FS_CYPCUT
    1000
Channel
    1070
1
    1000
LeadIn
    1002
{
    1070
0
    1040
1
    1040
1.5707963267949
    1040
0.5
    1040
0.3
    1070
0
    1040
0.5
    1070
0
    1002
}
    1000
LeadOut
    1002
{
    1070
0
    1040
0
    1040
0
    1040
0
    1070
0
    1002
}
    1000
IsFill
    1070
1
    1000
PathStart
    1040
1
    1000
ToolCompensation
    1002
{
    1070
0
    1040
0
    1070
0
    1002
}
       0
ENDBLK
       5
20B2
     330
2014
     100
AcDbEntity
       8
0
     100
AcDbBlockEnd
       0
BLOCK
       5
20B3
     330
2015
     100
AcDbEntity
       8
0
     100
AcDbBlockBegin
       2
Part1308438368
      70
0
      10
-43
      20
-110
      30
0
       3
Part1308438368
       1

       4
CypCutBlock
       0
LWPOLYLINE
       5
20B4
     100
AcDbEntity
       8
1
     100
AcDbPolyline
      90
4
      70
1
      10
-27.8
      20
72
      42
1
      10
-36.2
      20
72
      42
0
      10
-36.2
      20
-52
      42
1
      10
-27.8
      20
-52
      42
0
    1001
FS_CYPCUT
    1000
Channel
    1070
1
    1000
LeadIn
    1002
{
    1070
3
    1040
1.5
    1040
1.5707963267949
    1040
0.5
    1040
0.3
    1070
0
    1040
0.5
    1070
0
    1002
}
    1000
LeadOut
    1002
{
    1070
0
    1040
0
    1040
0
    1040
0
    1070
0
    1002
}
    1000
IsFill
    1070
0
    1000
PathStart
    1040
1.5
    1000
ToolCompensation
    1002
{
    1070
0
    1040
0
    1070
0
    1002
}
       0
LWPOLYLINE
       5
20B5
     100
AcDbEntity
       8
1
     100
AcDbPolyline
      90
4
      70
1
      10
11
      20
68
      42
0
      10
11
      20
-45
      42
-1
      10
-11
      20
-45
      42
0
      10
-11
      20
68
      42
-1
    1001
FS_CYPCUT
    1000
Channel
    1070
1
    1000
LeadIn
    1002
{
    1070
3
    1040
0.5
    1040
1.5707963267949
    1040
0.5
    1040
0.3
    1070
0
    1040
0.5
    1070
0
    1002
}
    1000
LeadOut
    1002
{
    1070
0
    1040
0
    1040
0
    1040
0
    1070
0
    1002
}
    1000
IsFill
    1070
0
    1000
PathStart
    1040
0.5
    1000
ToolCompensation
    1002
{
    1070
0
    1040
0
    1070
0
    1002
}
       0
LWPOLYLINE
       5
20B6
     100
AcDbEntity
       8
1
     100
AcDbPolyline
      90
4
      70
1
      10
36.2
      20
72
      42
1
      10
27.8
      20
72
      42
0
      10
27.8
      20
-52
      42
1
      10
36.2
      20
-52
      42
0
    1001
FS_CYPCUT
    1000
Channel
    1070
1
    1000
LeadIn
    1002
{
    1070
3
    1040
1.5
    1040
1.5707963267949
    1040
0.5
    1040
0.3
    1070
0
    1040
0.5
    1070
0
    1002
}
    1000
LeadOut
    1002
{
    1070
0
    1040
0
    1040
0
    1040
0
    1070
0
    1002
}
    1000
IsFill
    1070
0
    1000
PathStart
    1040
1.5
    1000
ToolCompensation
    1002
{
    1070
0
    1040
0
    1070
0
    1002
}
       0
LWPOLYLINE
       5
20B7
     100
AcDbEntity
       8
1
     100
AcDbPolyline
      90
20
      70
1
      10
43
      20
90
      42
0.414213562373094
      10
35
      20
98
      42
0
      10
-35
      20
98
      42
0.414213562373096
      10
-43
      20
90
      42
0
      10
-43
      20
-66.7902179237
      42
0.0751839765888988
      10
-42.6422871255
      20
-69.1556877483
      42
0
      10
-31.7440212448
      20
-104.3654698246
      42
0.328790324259439
      10
-24.1017341192
      20
-110
      42
0
      10
-16
      20
-110
      42
0.414213562373103
      10
-15
      20
-109
      42
0
      10
-15
      20
-71
      42
-0.414213562373087
      10
-14
      20
-70
      42
0
      10
14
      20
-70
      42
-0.414213562373087
      10
15
      20
-71
      42
0
      10
15
      20
-109
      42
0.414213562373103
      10
16
      20
-110
      42
0
      10
24.1017341192
      20
-110
      42
0.328790324259442
      10
31.7440212448
      20
-104.3654698246
      42
0
      10
42.6422871255294
      20
-69.1556877482736
      42
0.0751839765888928
      10
43.0000000000001
      20
-66.7902179237
      42
0
    1001
FS_CYPCUT
    1000
Channel
    1070
1
    1000
LeadIn
    1002
{
    1070
3
    1040
3.5
    1040
1.5707963267949
    1040
0.5
    1040
0.3
    1070
0
    1040
0.5
    1070
0
    1002
}
    1000
LeadOut
    1002
{
    1070
0
    1040
0
    1040
0
    1040
0
    1070
0
    1002
}
    1000
IsFill
    1070
1
    1000
PathStart
    1040
3.5
    1000
ToolCompensation
    1002
{
    1070
0
    1040
0
    1070
0
    1002
}
    1000
MicroConnect
    1002
{
    1070
2
    1040
3.8441708
    1041
0.8
    1042
0
    1040
19.7684442
    1041
0.8
    1042
0
    1002
}
       0
ENDBLK
       5
20B8
     330
2015
     100
AcDbEntity
       8
0
     100
AcDbBlockEnd
       0
BLOCK
       5
20B9
     330
2016
     100
AcDbEntity
       8
0
     100
AcDbBlockBegin
       2
Part426521319
      70
0
      10
-43
      20
-110
      30
0
       3
Part426521319
       1

       4
CypCutBlock
       0
LWPOLYLINE
       5
20BA
     100
AcDbEntity
       8
1
     100
AcDbPolyline
      90
4
      70
1
      10
-27.8
      20
72
      42
1
      10
-36.2
      20
72
      42
0
      10
-36.2
      20
-52
      42
1
      10
-27.8
      20
-52
      42
0
    1001
FS_CYPCUT
    1000
Channel
    1070
1
    1000
LeadIn
    1002
{
    1070
3
    1040
1.5
    1040
1.5707963267949
    1040
0.5
    1040
0.3
    1070
0
    1040
0.5
    1070
0
    1002
}
    1000
LeadOut
    1002
{
    1070
0
    1040
0
    1040
0
    1040
0
    1070
0
    1002
}
    1000
IsFill
    1070
0
    1000
PathStart
    1040
1.5
    1000
ToolCompensation
    1002
{
    1070
0
    1040
0
    1070
0
    1002
}
       0
LWPOLYLINE
       5
20BB
     100
AcDbEntity
       8
1
     100
AcDbPolyline
      90
4
      70
1
      10
11
      20
68
      42
0
      10
11
      20
-45
      42
-1
      10
-11
      20
-45
      42
0
      10
-11
      20
68
      42
-1
    1001
FS_CYPCUT
    1000
Channel
    1070
1
    1000
LeadIn
    1002
{
    1070
3
    1040
0.5
    1040
1.5707963267949
    1040
0.5
    1040
0.3
    1070
0
    1040
0.5
    1070
0
    1002
}
    1000
LeadOut
    1002
{
    1070
0
    1040
0
    1040
0
    1040
0
    1070
0
    1002
}
    1000
IsFill
    1070
0
    1000
PathStart
    1040
0.5
    1000
ToolCompensation
    1002
{
    1070
0
    1040
0
    1070
0
    1002
}
       0
LWPOLYLINE
       5
20BC
     100
AcDbEntity
       8
1
     100
AcDbPolyline
      90
4
      70
1
      10
36.2
      20
72
      42
1
      10
27.8
      20
72
      42
0
      10
27.8
      20
-52
      42
1
      10
36.2
      20
-52
      42
0
    1001
FS_CYPCUT
    1000
Channel
    1070
1
    1000
LeadIn
    1002
{
    1070
3
    1040
1.5
    1040
1.5707963267949
    1040
0.5
    1040
0.3
    1070
0
    1040
0.5
    1070
0
    1002
}
    1000
LeadOut
    1002
{
    1070
0
    1040
0
    1040
0
    1040
0
    1070
0
    1002
}
    1000
IsFill
    1070
0
    1000
PathStart
    1040
1.5
    1000
ToolCompensation
    1002
{
    1070
0
    1040
0
    1070
0
    1002
}
       0
LWPOLYLINE
       5
20BD
     100
AcDbEntity
       8
1
     100
AcDbPolyline
      90
20
      70
1
      10
43
      20
90
      42
0.414213562373094
      10
35
      20
98
      42
0
      10
-35
      20
98
      42
0.414213562373096
      10
-43
      20
90
      42
0
      10
-43
      20
-66.7902179237
      42
0.0751839765888988
      10
-42.6422871255
      20
-69.1556877483
      42
0
      10
-31.7440212448
      20
-104.3654698246
      42
0.328790324259439
      10
-24.1017341192
      20
-110
      42
0
      10
-16
      20
-110
      42
0.414213562373103
      10
-15
      20
-109
      42
0
      10
-15
      20
-71
      42
-0.414213562373087
      10
-14
      20
-70
      42
0
      10
14
      20
-70
      42
-0.414213562373087
      10
15
      20
-71
      42
0
      10
15
      20
-109
      42
0.414213562373103
      10
16
      20
-110
      42
0
      10
24.1017341192
      20
-110
      42
0.328790324259442
      10
31.7440212448
      20
-104.3654698246
      42
0
      10
42.6422871255294
      20
-69.1556877482736
      42
0.0751839765888928
      10
43.0000000000001
      20
-66.7902179237
      42
0
    1001
FS_CYPCUT
    1000
Channel
    1070
1
    1000
LeadIn
    1002
{
    1070
3
    1040
3.5
    1040
1.5707963267949
    1040
0.5
    1040
0.3
    1070
0
    1040
0.5
    1070
0
    1002
}
    1000
LeadOut
    1002
{
    1070
0
    1040
0
    1040
0
    1040
0
    1070
0
    1002
}
    1000
IsFill
    1070
1
    1000
PathStart
    1040
3.5
    1000
ToolCompensation
    1002
{
    1070
0
    1040
0
    1070
0
    1002
}
    1000
MicroConnect
    1002
{
    1070
2
    1040
3.8441708
    1041
0.8
    1042
0
    1040
19.7684442
    1041
0.8
    1042
0
    1002
}
       0
ENDBLK
       5
20BE
     330
2016
     100
AcDbEntity
       8
0
     100
AcDbBlockEnd
       0
BLOCK
       5
20BF
     330
2017
     100
AcDbEntity
       8
0
     100
AcDbBlockBegin
       2
Part547135112
      70
0
      10
-43
      20
-110
      30
0
       3
Part547135112
       1

       4
CypCutBlock
       0
LWPOLYLINE
       5
20C0
     100
AcDbEntity
       8
1
     100
AcDbPolyline
      90
4
      70
1
      10
-27.8
      20
72
      42
1
      10
-36.2
      20
72
      42
0
      10
-36.2
      20
-52
      42
1
      10
-27.8
      20
-52
      42
0
    1001
FS_CYPCUT
    1000
Channel
    1070
1
    1000
LeadIn
    1002
{
    1070
3
    1040
1.5
    1040
1.5707963267949
    1040
0.5
    1040
0.3
    1070
0
    1040
0.5
    1070
0
    1002
}
    1000
LeadOut
    1002
{
    1070
0
    1040
0
    1040
0
    1040
0
    1070
0
    1002
}
    1000
IsFill
    1070
0
    1000
PathStart
    1040
1.5
    1000
ToolCompensation
    1002
{
    1070
0
    1040
0
    1070
0
    1002
}
       0
LWPOLYLINE
       5
20C1
     100
AcDbEntity
       8
1
     100
AcDbPolyline
      90
4
      70
1
      10
11
      20
68
      42
0
      10
11
      20
-45
      42
-1
      10
-11
      20
-45
      42
0
      10
-11
      20
68
      42
-1
    1001
FS_CYPCUT
    1000
Channel
    1070
1
    1000
LeadIn
    1002
{
    1070
3
    1040
0.5
    1040
1.5707963267949
    1040
0.5
    1040
0.3
    1070
0
    1040
0.5
    1070
0
    1002
}
    1000
LeadOut
    1002
{
    1070
0
    1040
0
    1040
0
    1040
0
    1070
0
    1002
}
    1000
IsFill
    1070
0
    1000
PathStart
    1040
0.5
    1000
ToolCompensation
    1002
{
    1070
0
    1040
0
    1070
0
    1002
}
       0
LWPOLYLINE
       5
20C2
     100
AcDbEntity
       8
1
     100
AcDbPolyline
      90
4
      70
1
      10
36.2
      20
72
      42
1
      10
27.8
      20
72
      42
0
      10
27.8
      20
-52
      42
1
      10
36.2
      20
-52
      42
0
    1001
FS_CYPCUT
    1000
Channel
    1070
1
    1000
LeadIn
    1002
{
    1070
3
    1040
1.5
    1040
1.5707963267949
    1040
0.5
    1040
0.3
    1070
0
    1040
0.5
    1070
0
    1002
}
    1000
LeadOut
    1002
{
    1070
0
    1040
0
    1040
0
    1040
0
    1070
0
    1002
}
    1000
IsFill
    1070
0
    1000
PathStart
    1040
1.5
    1000
ToolCompensation
    1002
{
    1070
0
    1040
0
    1070
0
    1002
}
       0
LWPOLYLINE
       5
20C3
     100
AcDbEntity
       8
1
     100
AcDbPolyline
      90
20
      70
1
      10
43
      20
90
      42
0.414213562373094
      10
35
      20
98
      42
0
      10
-35
      20
98
      42
0.414213562373096
      10
-43
      20
90
      42
0
      10
-43
      20
-66.7902179237
      42
0.0751839765888988
      10
-42.6422871255
      20
-69.1556877483
      42
0
      10
-31.7440212448
      20
-104.3654698246
      42
0.328790324259439
      10
-24.1017341192
      20
-110
      42
0
      10
-16
      20
-110
      42
0.414213562373103
      10
-15
      20
-109
      42
0
      10
-15
      20
-71
      42
-0.414213562373087
      10
-14
      20
-70
      42
0
      10
14
      20
-70
      42
-0.414213562373087
      10
15
      20
-71
      42
0
      10
15
      20
-109
      42
0.414213562373103
      10
16
      20
-110
      42
0
      10
24.1017341192
      20
-110
      42
0.328790324259442
      10
31.7440212448
      20
-104.3654698246
      42
0
      10
42.6422871255294
      20
-69.1556877482736
      42
0.0751839765888928
      10
43.0000000000001
      20
-66.7902179237
      42
0
    1001
FS_CYPCUT
    1000
Channel
    1070
1
    1000
LeadIn
    1002
{
    1070
3
    1040
3.5
    1040
1.5707963267949
    1040
0.5
    1040
0.3
    1070
0
    1040
0.5
    1070
0
    1002
}
    1000
LeadOut
    1002
{
    1070
0
    1040
0
    1040
0
    1040
0
    1070
0
    1002
}
    1000
IsFill
    1070
1
    1000
PathStart
    1040
3.5
    1000
ToolCompensation
    1002
{
    1070
0
    1040
0
    1070
0
    1002
}
    1000
MicroConnect
    1002
{
    1070
2
    1040
3.8441708
    1041
0.8
    1042
0
    1040
19.7684442
    1041
0.8
    1042
0
    1002
}
       0
ENDBLK
       5
20C4
     330
2017
     100
AcDbEntity
       8
0
     100
AcDbBlockEnd
       0
BLOCK
       5
20C5
     330
2018
     100
AcDbEntity
       8
0
     100
AcDbBlockBegin
       2
Part1987929476
      70
0
      10
0
      20
-15
      30
0
       3
Part1987929476
       1

       4
CypCutBlock
       0
CIRCLE
       5
20C6
     100
AcDbEntity
       8
1
     100
AcDbCircle
      10
5.5
      20
0
      30
0
      40
3
    1001
FS_CYPCUT
    1000
Channel
    1070
1
    1000
LeadIn
    1002
{
    1070
3
    1040
0
    1040
1.5707963267949
    1040
0.5
    1040
0.3
    1070
0
    1040
0.5
    1070
0
    1002
}
    1000
LeadOut
    1002
{
    1070
0
    1040
0
    1040
0
    1040
0
    1070
0
    1002
}
    1000
IsFill
    1070
0
    1000
PathStart
    1040
1
    1000
ToolCompensation
    1002
{
    1070
0
    1040
0
    1070
0
    1002
}
       0
LWPOLYLINE
       5
20C7
     100
AcDbEntity
       8
1
     100
AcDbPolyline
      90
8
      70
1
      10
13.5
      20
11
      42
0.414213562373095
      10
9.5
      20
15
      42
0
      10
1
      20
15
      42
0.414213562373095
      10
0
      20
14
      42
0
      10
0
      20
-14
      42
0.414213562373096
      10
1
      20
-15
      42
0
      10
9.5
      20
-15
      42
0.414213562373095
      10
13.5
      20
-11
      42
0
    1001
FS_CYPCUT
    1000
Channel
    1070
1
    1000
LeadIn
    1002
{
    1070
3
    1040
3.51563427857143
    1040
1.5707963267949
    1040
0.5
    1040
0.3
    1070
0
    1040
0.5
    1070
0
    1002
}
    1000
LeadOut
    1002
{
    1070
0
    1040
0
    1040
0
    1040
0
    1070
0
    1002
}
    1000
IsFill
    1070
1
    1000
PathStart
    1040
3.5
    1000
ToolCompensation
    1002
{
    1070
0
    1040
0
    1070
0
    1002
}
    1000
MicroConnect
    1002
{
    1070
1
    1040
3.48706285
    1041
0.8
    1042
0
    1002
}
       0
ENDBLK
       5
20C8
     330
2018
     100
AcDbEntity
       8
0
     100
AcDbBlockEnd
       0
BLOCK
       5
20C9
     330
2019
     100
AcDbEntity
       8
0
     100
AcDbBlockBegin
       2
Part487684778
      70
0
      10
-43
      20
-72.85
      30
0
       3
Part487684778
       1

       4
CypCutBlock
       0
CIRCLE
       5
20CA
     100
AcDbEntity
       8
1
     100
AcDbCircle
      10
-32
      20
-8.5
      30
0
      40
3.25
    1001
FS_CYPCUT
    1000
Channel
    1070
1
    1000
LeadIn
    1002
{
    1070
3
    1040
0
    1040
1.5707963267949
    1040
1
    1040
0.5
    1070
0
    1040
0.5
    1070
0
    1002
}
    1000
LeadOut
    1002
{
    1070
0
    1040
0
    1040
0
    1040
0
    1070
0
    1002
}
    1000
IsFill
    1070
0
    1000
PathStart
    1040
1
    1000
ToolCompensation
    1002
{
    1070
0
    1040
0
    1070
0
    1002
}
       0
CIRCLE
       5
20CB
     100
AcDbEntity
       8
1
     100
AcDbCircle
      10
-32
      20
55.5
      30
0
      40
3.25
    1001
FS_CYPCUT
    1000
Channel
    1070
1
    1000
LeadIn
    1002
{
    1070
3
    1040
0
    1040
1.5707963267949
    1040
1
    1040
0.5
    1070
0
    1040
0.5
    1070
0
    1002
}
    1000
LeadOut
    1002
{
    1070
0
    1040
0
    1040
0
    1040
0
    1070
0
    1002
}
    1000
IsFill
    1070
0
    1000
PathStart
    1040
1
    1000
ToolCompensation
    1002
{
    1070
0
    1040
0
    1070
0
    1002
}
       0
CIRCLE
       5
20CC
     100
AcDbEntity
       8
1
     100
AcDbCircle
      10
32
      20
55.5
      30
0
      40
3.25
    1001
FS_CYPCUT
    1000
Channel
    1070
1
    1000
LeadIn
    1002
{
    1070
3
    1040
0
    1040
1.5707963267949
    1040
1
    1040
0.5
    1070
0
    1040
0.5
    1070
0
    1002
}
    1000
LeadOut
    1002
{
    1070
0
    1040
0
    1040
0
    1040
0
    1070
0
    1002
}
    1000
IsFill
    1070
0
    1000
PathStart
    1040
0
    1000
ToolCompensation
    1002
{
    1070
0
    1040
0
    1070
0
    1002
}
       0
CIRCLE
       5
20CD
     100
AcDbEntity
       8
1
     100
AcDbCircle
      10
32
      20
-8.5
      30
0
      40
3.25
    1001
FS_CYPCUT
    1000
Channel
    1070
1
    1000
LeadIn
    1002
{
    1070
3
    1040
8.32667268468867E-17
    1040
1.5707963267949
    1040
1
    1040
0.5
    1070
0
    1040
0.5
    1070
0
    1002
}
    1000
LeadOut
    1002
{
    1070
0
    1040
0
    1040
0
    1040
0
    1070
0
    1002
}
    1000
IsFill
    1070
0
    1000
PathStart
    1040
8.32667268468867E-17
    1000
ToolCompensation
    1002
{
    1070
0
    1040
0
    1070
0
    1002
}
       0
LWPOLYLINE
       5
20CE
     100
AcDbEntity
       8
1
     100
AcDbPolyline
      90
8
      70
1
      10
71.3015151901731
      20
-43.0857864376269
      42
-0.668178637919299
      10
69.8873016278
      20
-46.5
      42
0
      10
27
      20
-46.5
      42
-0.414213562373094
      10
23
      20
-42.5
      42
0
      10
23
      20
-30.5
      42
-0.414213562373094
      10
27
      20
-26.5
      42
0
      10
53.058874503
      20
-26.5
      42
-0.198912367379657
      10
55.8873016277462
      20
-27.6715728752538
      42
0
    1001
FS_CYPCUT
    1000
Channel
    1070
1
    1000
LeadIn
    1002
{
    1070
3
    1040
1.5
    1040
1.5707963267949
    1040
1
    1040
0.5
    1070
0
    1040
0.5
    1070
0
    1002
}
    1000
LeadOut
    1002
{
    1070
0
    1040
0
    1040
0
    1040
0
    1070
0
    1002
}
    1000
IsFill
    1070
0
    1000
PathStart
    1040
1.5
    1000
ToolCompensation
    1002
{
    1070
0
    1040
0
    1070
0
    1002
}
       0
LWPOLYLINE
       5
20CF
     100
AcDbEntity
       8
1
     100
AcDbPolyline
      90
28
      70
1
      10
103
      20
-49.813708499
      42
0.198912367379657
      10
100.656854249492
      20
-44.1568542495076
      42
0
      10
45.3431457505076
      20
11.1568542495076
      42
-0.19891236737966
      10
43
      20
16.813708499
      42
0
      10
43
      20
58.5
      42
0.414213562373096
      10
35
      20
66.5
      42
0
      10
20
      20
66.5
      42
0.414213562373103
      10
18
      20
64.5
      42
0
      10
18
      20
23.5
      42
-1
      10
-18
      20
23.5
      42
0
      10
-18
      20
64.5
      42
0.414213562373106
      10
-20
      20
66.5
      42
0
      10
-35
      20
66.5
      42
0.414213562373096
      10
-43
      20
58.5
      42
0
      10
-43
      20
-29.5
      42
0.414213562373094
      10
-39
      20
-33.5
      42
0
      10
-14
      20
-33.5
      42
-0.414213562373094
      10
-10
      20
-37.5
      42
0
      10
-10
      20
-71.85
      42
0.41421356237311
      10
-9
      20
-72.85
      42
0
      10
9
      20
-72.85
      42
0.41421356237311
      10
10
      20
-71.85
      42
0
      10
10
      20
-66.5
      42
0
      10
83
      20
-66.5
      42
0
      10
83
      20
-71.85
      42
0.414213562373103
      10
84
      20
-72.85
      42
0
      10
102
      20
-72.85
      42
0.414213562373087
      10
103
      20
-71.85
      42
0
    1001
FS_CYPCUT
    1000
Channel
    1070
1
    1000
LeadIn
    1002
{
    1070
3
    1040
13.5
    1040
1.5707963267949
    1040
1
    1040
0.5
    1070
0
    1040
0.5
    1070
0
    1002
}
    1000
LeadOut
    1002
{
    1070
0
    1040
0
    1040
0
    1040
0
    1070
0
    1002
}
    1000
IsFill
    1070
1
    1000
PathStart
    1040
13.5
    1000
ToolCompensation
    1002
{
    1070
0
    1040
0
    1070
0
    1002
}
    1000
MicroConnect
    1002
{
    1070
3
    1040
5.33333333
    1041
0.75
    1042
0
    1040
13.7948337
    1041
0.75
    1042
0
    1040
25.4302507
    1041
0.75
    1042
0
    1002
}
       0
ENDBLK
       5
20D0
     330
2019
     100
AcDbEntity
       8
0
     100
AcDbBlockEnd
       0
BLOCK
       5
20D1
     330
201A
     100
AcDbEntity
       8
0
     100
AcDbBlockBegin
       2
Part1107951411
      70
0
      10
-25
      20
-31.0062825
      30
0
       3
Part1107951411
       1

       4
CypCutBlock
       0
CIRCLE
       5
20D2
     100
AcDbEntity
       8
1
     100
AcDbCircle
      10
0
      20
-18.0062824618
      30
0
      40
5.25
    1001
FS_CYPCUT
    1000
Channel
    1070
1
    1000
LeadIn
    1002
{
    1070
3
    1040
0
    1040
1.5707963267949
    1040
0.5
    1040
0.3
    1070
0
    1040
0.5
    1070
0
    1002
}
    1000
LeadOut
    1002
{
    1070
0
    1040
0
    1040
0
    1040
0
    1070
0
    1002
}
    1000
IsFill
    1070
0
    1000
PathStart
    1040
0
    1000
ToolCompensation
    1002
{
    1070
0
    1040
0
    1070
0
    1002
}
       0
LINE
       5
20D3
     100
AcDbEntity
       8
2
     100
AcDbLine
      10
25
      20
4.4968587691
      30
0
      11
-25
      21
4.4968587691
      31
0
    1001
FS_CYPCUT
    1000
Channel
    1070
2
    1000
LeadIn
    1002
{
    1070
3
    1040
0
    1040
1.5707963267949
    1040
0.5
    1040
0.3
    1070
0
    1040
0.5
    1070
0
    1002
}
    1000
LeadOut
    1002
{
    1070
0
    1040
0
    1040
0
    1040
0
    1070
0
    1002
}
    1000
IsFill
    1070
0
    1000
PathStart
    1040
0
    1000
ToolCompensation
    1002
{
    1070
0
    1040
0
    1070
0
    1002
}
       0
LWPOLYLINE
       5
20D4
     100
AcDbEntity
       8
1
     100
AcDbPolyline
      90
8
      70
1
      10
8
      20
56.76
      42
0
      10
8
      20
24.76
      42
-0.414213562373096
      10
4
      20
20.76
      42
0
      10
-4
      20
20.76
      42
-0.414213562373095
      10
-8.00000000000001
      20
24.76
      42
0
      10
-7.99999999999999
      20
56.76
      42
-0.414213562373094
      10
-4
      20
60.76
      42
0
      10
4
      20
60.76
      42
-0.414213562373094
    1001
FS_CYPCUT
    1000
Channel
    1070
1
    1000
LeadIn
    1002
{
    1070
3
    1040
0.5
    1040
1.5707963267949
    1040
0.5
    1040
0.3
    1070
0
    1040
0.5
    1070
0
    1002
}
    1000
LeadOut
    1002
{
    1070
0
    1040
0
    1040
0
    1040
0
    1070
0
    1002
}
    1000
IsFill
    1070
0
    1000
PathStart
    1040
0.5
    1000
ToolCompensation
    1002
{
    1070
0
    1040
0
    1070
0
    1002
}
       0
CIRCLE
       5
20D5
     100
AcDbEntity
       8
1
     100
AcDbCircle
      10
0
      20
84
      30
0
      40
3.75000000000001
    1001
FS_CYPCUT
    1000
Channel
    1070
1
    1000
LeadIn
    1002
{
    1070
3
    1040
0
    1040
1.5707963267949
    1040
0.5
    1040
0.3
    1070
0
    1040
0.5
    1070
0
    1002
}
    1000
LeadOut
    1002
{
    1070
0
    1040
0
    1040
0
    1040
0
    1070
0
    1002
}
    1000
IsFill
    1070
0
    1000
PathStart
    1040
1
    1000
ToolCompensation
    1002
{
    1070
0
    1040
0
    1070
0
    1002
}
       0
CIRCLE
       5
20D6
     100
AcDbEntity
       8
1
     100
AcDbCircle
      10
0
      20
102
      30
0
      40
3.75000000000001
    1001
FS_CYPCUT
    1000
Channel
    1070
1
    1000
LeadIn
    1002
{
    1070
3
    1040
0
    1040
1.5707963267949
    1040
0.5
    1040
0.3
    1070
0
    1040
0.5
    1070
0
    1002
}
    1000
LeadOut
    1002
{
    1070
0
    1040
0
    1040
0
    1040
0
    1070
0
    1002
}
    1000
IsFill
    1070
0
    1000
PathStart
    1040
1
    1000
ToolCompensation
    1002
{
    1070
0
    1040
0
    1070
0
    1002
}
       0
LWPOLYLINE
       5
20D7
     100
AcDbEntity
       8
1
     100
AcDbPolyline
      90
8
      70
1
      10
25
      20
103
      42
0
      10
25
      20
-21.0062824618
      42
-0.414213562373095
      10
15
      20
-31.0062824618
      42
0
      10
-15
      20
-31.0062824618
      42
-0.414213562373095
      10
-25
      20
-21.0062824618
      42
0
      10
-25
      20
103
      42
-0.414213562373096
      10
-15
      20
113
      42
0
      10
15
      20
113
      42
-0.414213562373095
    1001
FS_CYPCUT
    1000
Channel
    1070
1
    1000
LeadIn
    1002
{
    1070
3
    1040
0.5
    1040
1.5707963267949
    1040
0.5
    1040
0.3
    1070
0
    1040
0.5
    1070
0
    1002
}
    1000
LeadOut
    1002
{
    1070
0
    1040
0
    1040
0
    1040
0
    1070
0
    1002
}
    1000
IsFill
    1070
1
    1000
PathStart
    1040
0.5
    1000
ToolCompensation
    1002
{
    1070
0
    1040
0
    1070
0
    1002
}
    1000
MicroConnect
    1002
{
    1070
2
    1040
0.0798613355
    1041
0.8
    1042
0
    1040
4.09685571
    1041
0.8
    1042
0
    1002
}
       0
ENDBLK
       5
20D8
     330
201A
     100
AcDbEntity
       8
0
     100
AcDbBlockEnd
       0
BLOCK
       5
20D9
     330
201B
     100
AcDbEntity
       8
0
     100
AcDbBlockBegin
       2
Part391836853
      70
0
      10
-43
      20
-43
      30
0
       3
Part391836853
       1

       4
CypCutBlock
       0
CIRCLE
       5
20DA
     100
AcDbEntity
       8
1
     100
AcDbCircle
      10
-32
      20
-32
      30
0
      40
3.25000000000001
    1001
FS_CYPCUT
    1000
Channel
    1070
1
    1000
LeadIn
    1002
{
    1070
3
    1040
0
    1040
1.5707963267949
    1040
0.5
    1040
0.3
    1070
0
    1040
0.5
    1070
0
    1002
}
    1000
LeadOut
    1002
{
    1070
0
    1040
0
    1040
0
    1040
0
    1070
0
    1002
}
    1000
IsFill
    1070
0
    1000
PathStart
    1040
0
    1000
ToolCompensation
    1002
{
    1070
0
    1040
0
    1070
0
    1002
}
       0
LWPOLYLINE
       5
20DB
     100
AcDbEntity
       8
1
     100
AcDbPolyline
      90
8
      70
1
      10
15
      20
-31
      42
0.414213562373095
      10
12
      20
-28
      42
0
      10
-12
      20
-28
      42
0.414213562373094
      10
-15
      20
-31
      42
0
      10
-15
      20
-32
      42
0.414213562373096
      10
-12
      20
-35
      42
0
      10
12
      20
-35
      42
0.414213562373092
      10
15
      20
-32
      42
0
    1001
FS_CYPCUT
    1000
Channel
    1070
1
    1000
LeadIn
    1002
{
    1070
3
    1040
1.5
    1040
1.5707963267949
    1040
0.5
    1040
0.3
    1070
0
    1040
0.5
    1070
0
    1002
}
    1000
LeadOut
    1002
{
    1070
0
    1040
0
    1040
0
    1040
0
    1070
0
    1002
}
    1000
IsFill
    1070
0
    1000
PathStart
    1040
1.5
    1000
ToolCompensation
    1002
{
    1070
0
    1040
0
    1070
0
    1002
}
       0
CIRCLE
       5
20DC
     100
AcDbEntity
       8
1
     100
AcDbCircle
      10
32
      20
-32
      30
0
      40
3.25
    1001
FS_CYPCUT
    1000
Channel
    1070
1
    1000
LeadIn
    1002
{
    1070
3
    1040
1.11022302462516E-16
    1040
1.5707963267949
    1040
0.5
    1040
0.3
    1070
0
    1040
0.5
    1070
0
    1002
}
    1000
LeadOut
    1002
{
    1070
0
    1040
0
    1040
0
    1040
0
    1070
0
    1002
}
    1000
IsFill
    1070
0
    1000
PathStart
    1040
1.11022302462516E-16
    1000
ToolCompensation
    1002
{
    1070
0
    1040
0
    1070
0
    1002
}
       0
LWPOLYLINE
       5
20DD
     100
AcDbEntity
       8
1
     100
AcDbPolyline
      90
8
      70
1
      10
33.75
      20
14.5
      42
0.414213562373094
      10
30.75
      20
17.5
      42
0
      10
24.75
      20
17.5
      42
0.414213562373097
      10
21.75
      20
14.5
      42
0
      10
21.75
      20
-14.5
      42
0.414213562373095
      10
24.75
      20
-17.5
      42
0
      10
30.75
      20
-17.5
      42
0.414213562373096
      10
33.75
      20
-14.5
      42
0
    1001
FS_CYPCUT
    1000
Channel
    1070
1
    1000
LeadIn
    1002
{
    1070
3
    1040
3.5
    1040
1.5707963267949
    1040
0.5
    1040
0.3
    1070
0
    1040
0.5
    1070
0
    1002
}
    1000
LeadOut
    1002
{
    1070
0
    1040
0
    1040
0
    1040
0
    1070
0
    1002
}
    1000
IsFill
    1070
0
    1000
PathStart
    1040
3.5
    1000
ToolCompensation
    1002
{
    1070
0
    1040
0
    1070
0
    1002
}
       0
LWPOLYLINE
       5
20DE
     100
AcDbEntity
       8
1
     100
AcDbPolyline
      90
8
      70
1
      10
12.5
      20
16
      42
0.414213562373096
      10
8.5
      20
20
      42
0
      10
-8.5
      20
20
      42
0.414213562373095
      10
-12.5
      20
16
      42
0
      10
-12.5
      20
-16
      42
0.414213562373096
      10
-8.5
      20
-20
      42
0
      10
8.5
      20
-20
      42
0.414213562373097
      10
12.5
      20
-16
      42
0
    1001
FS_CYPCUT
    1000
Channel
    1070
1
    1000
LeadIn
    1002
{
    1070
3
    1040
3.5
    1040
1.5707963267949
    1040
0.5
    1040
0.3
    1070
0
    1040
0.5
    1070
0
    1002
}
    1000
LeadOut
    1002
{
    1070
0
    1040
0
    1040
0
    1040
0
    1070
0
    1002
}
    1000
IsFill
    1070
0
    1000
PathStart
    1040
3.5
    1000
ToolCompensation
    1002
{
    1070
0
    1040
0
    1070
0
    1002
}
       0
LWPOLYLINE
       5
20DF
     100
AcDbEntity
       8
1
     100
AcDbPolyline
      90
8
      70
1
      10
-21.75
      20
14.5
      42
0
      10
-21.75
      20
-14.5
      42
-0.414213562373094
      10
-24.75
      20
-17.5
      42
0
      10
-30.75
      20
-17.5
      42
-0.414213562373095
      10
-33.75
      20
-14.5
      42
0
      10
-33.75
      20
14.5
      42
-0.414213562373095
      10
-30.75
      20
17.5
      42
0
      10
-24.75
      20
17.5
      42
-0.414213562373096
    1001
FS_CYPCUT
    1000
Channel
    1070
1
    1000
LeadIn
    1002
{
    1070
3
    1040
0.5
    1040
1.5707963267949
    1040
0.5
    1040
0.3
    1070
0
    1040
0.5
    1070
0
    1002
}
    1000
LeadOut
    1002
{
    1070
0
    1040
0
    1040
0
    1040
0
    1070
0
    1002
}
    1000
IsFill
    1070
0
    1000
PathStart
    1040
0.5
    1000
ToolCompensation
    1002
{
    1070
0
    1040
0
    1070
0
    1002
}
       0
CIRCLE
       5
20E0
     100
AcDbEntity
       8
1
     100
AcDbCircle
      10
-32
      20
32
      30
0
      40
3.25
    1001
FS_CYPCUT
    1000
Channel
    1070
1
    1000
LeadIn
    1002
{
    1070
3
    1040
0
    1040
1.5707963267949
    1040
0.5
    1040
0.3
    1070
0
    1040
0.5
    1070
0
    1002
}
    1000
LeadOut
    1002
{
    1070
0
    1040
0
    1040
0
    1040
0
    1070
0
    1002
}
    1000
IsFill
    1070
0
    1000
PathStart
    1040
0
    1000
ToolCompensation
    1002
{
    1070
0
    1040
0
    1070
0
    1002
}
       0
LWPOLYLINE
       5
20E1
     100
AcDbEntity
       8
1
     100
AcDbPolyline
      90
8
      70
1
      10
15
      20
32
      42
0.414213562373094
      10
12
      20
35
      42
0
      10
-12
      20
35
      42
0.414213562373094
      10
-15
      20
32
      42
0
      10
-15
      20
31
      42
0.414213562373096
      10
-12
      20
28
      42
0
      10
12
      20
28
      42
0.414213562373096
      10
15
      20
31
      42
0
    1001
FS_CYPCUT
    1000
Channel
    1070
1
    1000
LeadIn
    1002
{
    1070
3
    1040
1.5
    1040
1.5707963267949
    1040
0.5
    1040
0.3
    1070
0
    1040
0.5
    1070
0
    1002
}
    1000
LeadOut
    1002
{
    1070
0
    1040
0
    1040
0
    1040
0
    1070
0
    1002
}
    1000
IsFill
    1070
0
    1000
PathStart
    1040
1.5
    1000
ToolCompensation
    1002
{
    1070
0
    1040
0
    1070
0
    1002
}
       0
CIRCLE
       5
20E2
     100
AcDbEntity
       8
1
     100
AcDbCircle
      10
32
      20
32
      30
0
      40
3.25
    1001
FS_CYPCUT
    1000
Channel
    1070
1
    1000
LeadIn
    1002
{
    1070
3
    1040
0
    1040
1.5707963267949
    1040
0.5
    1040
0.3
    1070
0
    1040
0.5
    1070
0
    1002
}
    1000
LeadOut
    1002
{
    1070
0
    1040
0
    1040
0
    1040
0
    1070
0
    1002
}
    1000
IsFill
    1070
0
    1000
PathStart
    1040
0
    1000
ToolCompensation
    1002
{
    1070
0
    1040
0
    1070
0
    1002
}
       0
LWPOLYLINE
       5
20E3
     100
AcDbEntity
       8
1
     100
AcDbPolyline
      90
8
      70
1
      10
20.3835454718
      20
47.7417867844
      42
0
      10
17.7414630234
      20
61.7417867844
      42
0.360578343359846
      10
13.8108457225
      20
65
      42
0
      10
-13.8108457225
      20
65
      42
0.360578343359844
      10
-17.7414630234373
      20
61.7417867844418
      42
0
      10
-20.3835454718373
      20
47.7417867844418
      42
0.469963129841644
      10
-16.4529281709
      20
43
      42
0
      10
16.4529281709
      20
43
      42
0.469963129841644
    1001
FS_CYPCUT
    1000
Channel
    1070
1
    1000
LeadIn
    1002
{
    1070
3
    1040
6.5
    1040
1.5707963267949
    1040
0.5
    1040
0.3
    1070
0
    1040
0.5
    1070
0
    1002
}
    1000
LeadOut
    1002
{
    1070
0
    1040
0
    1040
0
    1040
0
    1070
0
    1002
}
    1000
IsFill
    1070
0
    1000
PathStart
    1040
6.5
    1000
ToolCompensation
    1002
{
    1070
0
    1040
0
    1070
0
    1002
}
       0
LWPOLYLINE
       5
20E4
     100
AcDbEntity
       8
1
     100
AcDbPolyline
      90
20
      70
1
      10
43
      20
35
      42
0
      10
43
      20
-35
      42
-0.414213562373095
      10
35
      20
-43
      42
0
      10
-35
      20
-43
      42
-0.414213562373095
      10
-43
      20
-35
      42
0
      10
-43
      20
35
      42
-0.0466654356656874
      10
-42.8612346018725
      20
36.4835735688832
      42
0
      10
-28.022335851806
      20
115.112680176663
      42
-0.360578343359847
      10
-22.1264099004
      20
120
      42
0
      10
-16.1
      20
120
      42
-0.414213562373093
      10
-15.1
      20
119
      42
0
      10
-15.1
      20
81
      42
0.41421356237309
      10
-14.1
      20
80
      42
0
      10
14.1
      20
80
      42
0.414213562373094
      10
15.1
      20
81
      42
0
      10
15.1
      20
119
      42
-0.414213562373093
      10
16.1
      20
120
      42
0
      10
22.1264099004
      20
120
      42
-0.360578343359846
      10
28.0223358518
      20
115.1126801767
      42
0
      10
42.8612346019
      20
36.4835735689
      42
-0.0466654356656843
    1001
FS_CYPCUT
    1000
Channel
    1070
1
    1000
LeadIn
    1002
{
    1070
3
    1040
6.5
    1040
1.5707963267949
    1040
0.5
    1040
0.3
    1070
0
    1040
0.5
    1070
0
    1002
}
    1000
LeadOut
    1002
{
    1070
0
    1040
0
    1040
0
    1040
0
    1070
0
    1002
}
    1000
IsFill
    1070
1
    1000
PathStart
    1040
6.5
    1000
ToolCompensation
    1002
{
    1070
0
    1040
0
    1070
0
    1002
}
    1000
MicroConnect
    1002
{
    1070
2
    1040
4.46501742
    1041
0.8
    1042
0
    1040
18.537017
    1041
0.8
    1042
0
    1002
}
       0
ENDBLK
       5
20E5
     330
201B
     100
AcDbEntity
       8
0
     100
AcDbBlockEnd
       0
BLOCK
       5
20E6
     330
201C
     100
AcDbEntity
       8
0
     100
AcDbBlockBegin
       2
Part678293990
      70
0
      10
-8
      20
-39
      30
0
       3
Part678293990
       1

       4
CypCutBlock
       0
CIRCLE
       5
20E7
     100
AcDbEntity
       8
1
     100
AcDbCircle
      10
0
      20
0
      30
0
      40
3.95
    1001
FS_CYPCUT
    1000
Channel
    1070
1
    1000
LeadIn
    1002
{
    1070
3
    1040
0
    1040
1.5707963267949
    1040
0.5
    1040
0.3
    1070
0
    1040
0.5
    1070
0
    1002
}
    1000
LeadOut
    1002
{
    1070
0
    1040
0
    1040
0
    1040
0
    1070
0
    1002
}
    1000
IsFill
    1070
0
    1000
PathStart
    1040
0
    1000
ToolCompensation
    1002
{
    1070
0
    1040
0
    1070
0
    1002
}
       0
LWPOLYLINE
       5
20E8
     100
AcDbEntity
       8
1
     100
AcDbPolyline
      90
12
      70
1
      10
28.5
      20
11
      42
0
      10
28.5
      20
-14
      42
0
      10
27
      20
-14
      42
0
      10
27
      20
-39
      42
0
      10
18
      20
-39
      42
-0.414213562373092
      10
15
      20
-36
      42
0
      10
15
      20
-14
      42
0.414213562373095
      10
12
      20
-11
      42
0
      10
-5
      20
-11
      42
-0.414213562373095
      10
-8
      20
-8
      42
0
      10
-8
      20
8
      42
-0.414213562373095
      10
-5
      20
11
      42
0
    1001
FS_CYPCUT
    1000
Channel
    1070
1
    1000
LeadIn
    1002
{
    1070
3
    1040
11.5165114970149
    1040
1.5707963267949
    1040
0.5
    1040
0.3
    1070
0
    1040
0.5
    1070
0
    1002
}
    1000
LeadOut
    1002
{
    1070
0
    1040
0
    1040
0
    1040
0
    1070
0
    1002
}
    1000
IsFill
    1070
1
    1000
PathStart
    1040
11.5
    1000
ToolCompensation
    1002
{
    1070
0
    1040
0
    1070
0
    1002
}
    1000
MicroConnect
    1002
{
    1070
2
    1040
3.53788075
    1041
0.8
    1042
0
    1040
11.4926309
    1041
0.8
    1042
0
    1002
}
       0
ENDBLK
       5
20E9
     330
201C
     100
AcDbEntity
       8
0
     100
AcDbBlockEnd
       0
BLOCK
       5
20EA
     330
201D
     100
AcDbEntity
       8
0
     100
AcDbBlockBegin
       2
Part1106219350
      70
0
      10
-43
      20
-43
      30
0
       3
Part1106219350
       1

       4
CypCutBlock
       0
CIRCLE
       5
20EB
     100
AcDbEntity
       8
1
     100
AcDbCircle
      10
-32
      20
-32
      30
0
      40
3.25000000000001
    1001
FS_CYPCUT
    1000
Channel
    1070
1
    1000
LeadIn
    1002
{
    1070
3
    1040
0
    1040
1.5707963267949
    1040
0.5
    1040
0.3
    1070
0
    1040
0.5
    1070
0
    1002
}
    1000
LeadOut
    1002
{
    1070
0
    1040
0
    1040
0
    1040
0
    1070
0
    1002
}
    1000
IsFill
    1070
0
    1000
PathStart
    1040
0
    1000
ToolCompensation
    1002
{
    1070
0
    1040
0
    1070
0
    1002
}
       0
LWPOLYLINE
       5
20EC
     100
AcDbEntity
       8
1
     100
AcDbPolyline
      90
8
      70
1
      10
15
      20
-31
      42
0.414213562373095
      10
12
      20
-28
      42
0
      10
-12
      20
-28
      42
0.414213562373094
      10
-15
      20
-31
      42
0
      10
-15
      20
-32
      42
0.414213562373096
      10
-12
      20
-35
      42
0
      10
12
      20
-35
      42
0.414213562373092
      10
15
      20
-32
      42
0
    1001
FS_CYPCUT
    1000
Channel
    1070
1
    1000
LeadIn
    1002
{
    1070
3
    1040
1.5
    1040
1.5707963267949
    1040
0.5
    1040
0.3
    1070
0
    1040
0.5
    1070
0
    1002
}
    1000
LeadOut
    1002
{
    1070
0
    1040
0
    1040
0
    1040
0
    1070
0
    1002
}
    1000
IsFill
    1070
0
    1000
PathStart
    1040
1.5
    1000
ToolCompensation
    1002
{
    1070
0
    1040
0
    1070
0
    1002
}
       0
CIRCLE
       5
20ED
     100
AcDbEntity
       8
1
     100
AcDbCircle
      10
32
      20
-32
      30
0
      40
3.25
    1001
FS_CYPCUT
    1000
Channel
    1070
1
    1000
LeadIn
    1002
{
    1070
3
    1040
1.11022302462516E-16
    1040
1.5707963267949
    1040
0.5
    1040
0.3
    1070
0
    1040
0.5
    1070
0
    1002
}
    1000
LeadOut
    1002
{
    1070
0
    1040
0
    1040
0
    1040
0
    1070
0
    1002
}
    1000
IsFill
    1070
0
    1000
PathStart
    1040
1.11022302462516E-16
    1000
ToolCompensation
    1002
{
    1070
0
    1040
0
    1070
0
    1002
}
       0
LWPOLYLINE
       5
20EE
     100
AcDbEntity
       8
1
     100
AcDbPolyline
      90
8
      70
1
      10
33.75
      20
14.5
      42
0.414213562373094
      10
30.75
      20
17.5
      42
0
      10
24.75
      20
17.5
      42
0.414213562373097
      10
21.75
      20
14.5
      42
0
      10
21.75
      20
-14.5
      42
0.414213562373095
      10
24.75
      20
-17.5
      42
0
      10
30.75
      20
-17.5
      42
0.414213562373096
      10
33.75
      20
-14.5
      42
0
    1001
FS_CYPCUT
    1000
Channel
    1070
1
    1000
LeadIn
    1002
{
    1070
3
    1040
3.5
    1040
1.5707963267949
    1040
0.5
    1040
0.3
    1070
0
    1040
0.5
    1070
0
    1002
}
    1000
LeadOut
    1002
{
    1070
0
    1040
0
    1040
0
    1040
0
    1070
0
    1002
}
    1000
IsFill
    1070
0
    1000
PathStart
    1040
3.5
    1000
ToolCompensation
    1002
{
    1070
0
    1040
0
    1070
0
    1002
}
       0
LWPOLYLINE
       5
20EF
     100
AcDbEntity
       8
1
     100
AcDbPolyline
      90
8
      70
1
      10
12.5
      20
16
      42
0.414213562373096
      10
8.5
      20
20
      42
0
      10
-8.5
      20
20
      42
0.414213562373095
      10
-12.5
      20
16
      42
0
      10
-12.5
      20
-16
      42
0.414213562373096
      10
-8.5
      20
-20
      42
0
      10
8.5
      20
-20
      42
0.414213562373097
      10
12.5
      20
-16
      42
0
    1001
FS_CYPCUT
    1000
Channel
    1070
1
    1000
LeadIn
    1002
{
    1070
3
    1040
3.5
    1040
1.5707963267949
    1040
0.5
    1040
0.3
    1070
0
    1040
0.5
    1070
0
    1002
}
    1000
LeadOut
    1002
{
    1070
0
    1040
0
    1040
0
    1040
0
    1070
0
    1002
}
    1000
IsFill
    1070
0
    1000
PathStart
    1040
3.5
    1000
ToolCompensation
    1002
{
    1070
0
    1040
0
    1070
0
    1002
}
       0
LWPOLYLINE
       5
20F0
     100
AcDbEntity
       8
1
     100
AcDbPolyline
      90
8
      70
1
      10
-21.75
      20
14.5
      42
0
      10
-21.75
      20
-14.5
      42
-0.414213562373094
      10
-24.75
      20
-17.5
      42
0
      10
-30.75
      20
-17.5
      42
-0.414213562373095
      10
-33.75
      20
-14.5
      42
0
      10
-33.75
      20
14.5
      42
-0.414213562373095
      10
-30.75
      20
17.5
      42
0
      10
-24.75
      20
17.5
      42
-0.414213562373096
    1001
FS_CYPCUT
    1000
Channel
    1070
1
    1000
LeadIn
    1002
{
    1070
3
    1040
0.5
    1040
1.5707963267949
    1040
0.5
    1040
0.3
    1070
0
    1040
0.5
    1070
0
    1002
}
    1000
LeadOut
    1002
{
    1070
0
    1040
0
    1040
0
    1040
0
    1070
0
    1002
}
    1000
IsFill
    1070
0
    1000
PathStart
    1040
0.5
    1000
ToolCompensation
    1002
{
    1070
0
    1040
0
    1070
0
    1002
}
       0
CIRCLE
       5
20F1
     100
AcDbEntity
       8
1
     100
AcDbCircle
      10
-32
      20
32
      30
0
      40
3.25
    1001
FS_CYPCUT
    1000
Channel
    1070
1
    1000
LeadIn
    1002
{
    1070
3
    1040
0
    1040
1.5707963267949
    1040
0.5
    1040
0.3
    1070
0
    1040
0.5
    1070
0
    1002
}
    1000
LeadOut
    1002
{
    1070
0
    1040
0
    1040
0
    1040
0
    1070
0
    1002
}
    1000
IsFill
    1070
0
    1000
PathStart
    1040
0
    1000
ToolCompensation
    1002
{
    1070
0
    1040
0
    1070
0
    1002
}
       0
LWPOLYLINE
       5
20F2
     100
AcDbEntity
       8
1
     100
AcDbPolyline
      90
8
      70
1
      10
15
      20
32
      42
0.414213562373094
      10
12
      20
35
      42
0
      10
-12
      20
35
      42
0.414213562373094
      10
-15
      20
32
      42
0
      10
-15
      20
31
      42
0.414213562373096
      10
-12
      20
28
      42
0
      10
12
      20
28
      42
0.414213562373096
      10
15
      20
31
      42
0
    1001
FS_CYPCUT
    1000
Channel
    1070
1
    1000
LeadIn
    1002
{
    1070
3
    1040
1.5
    1040
1.5707963267949
    1040
0.5
    1040
0.3
    1070
0
    1040
0.5
    1070
0
    1002
}
    1000
LeadOut
    1002
{
    1070
0
    1040
0
    1040
0
    1040
0
    1070
0
    1002
}
    1000
IsFill
    1070
0
    1000
PathStart
    1040
1.5
    1000
ToolCompensation
    1002
{
    1070
0
    1040
0
    1070
0
    1002
}
       0
CIRCLE
       5
20F3
     100
AcDbEntity
       8
1
     100
AcDbCircle
      10
32
      20
32
      30
0
      40
3.25
    1001
FS_CYPCUT
    1000
Channel
    1070
1
    1000
LeadIn
    1002
{
    1070
3
    1040
0
    1040
1.5707963267949
    1040
0.5
    1040
0.3
    1070
0
    1040
0.5
    1070
0
    1002
}
    1000
LeadOut
    1002
{
    1070
0
    1040
0
    1040
0
    1040
0
    1070
0
    1002
}
    1000
IsFill
    1070
0
    1000
PathStart
    1040
0
    1000
ToolCompensation
    1002
{
    1070
0
    1040
0
    1070
0
    1002
}
       0
LWPOLYLINE
       5
20F4
     100
AcDbEntity
       8
1
     100
AcDbPolyline
      90
8
      70
1
      10
20.3835454718
      20
47.7417867844
      42
0
      10
17.7414630234
      20
61.7417867844
      42
0.360578343359846
      10
13.8108457225
      20
65
      42
0
      10
-13.8108457225
      20
65
      42
0.360578343359844
      10
-17.7414630234373
      20
61.7417867844418
      42
0
      10
-20.3835454718373
      20
47.7417867844418
      42
0.469963129841644
      10
-16.4529281709
      20
43
      42
0
      10
16.4529281709
      20
43
      42
0.469963129841644
    1001
FS_CYPCUT
    1000
Channel
    1070
1
    1000
LeadIn
    1002
{
    1070
3
    1040
6.5
    1040
1.5707963267949
    1040
0.5
    1040
0.3
    1070
0
    1040
0.5
    1070
0
    1002
}
    1000
LeadOut
    1002
{
    1070
0
    1040
0
    1040
0
    1040
0
    1070
0
    1002
}
    1000
IsFill
    1070
0
    1000
PathStart
    1040
6.5
    1000
ToolCompensation
    1002
{
    1070
0
    1040
0
    1070
0
    1002
}
       0
LWPOLYLINE
       5
20F5
     100
AcDbEntity
       8
1
     100
AcDbPolyline
      90
20
      70
1
      10
43
      20
35
      42
0
      10
43
      20
-35
      42
-0.414213562373095
      10
35
      20
-43
      42
0
      10
-35
      20
-43
      42
-0.414213562373095
      10
-43
      20
-35
      42
0
      10
-43
      20
35
      42
-0.0466654356656874
      10
-42.8612346018725
      20
36.4835735688832
      42
0
      10
-28.022335851806
      20
115.112680176663
      42
-0.360578343359847
      10
-22.1264099004
      20
120
      42
0
      10
-16.1
      20
120
      42
-0.414213562373093
      10
-15.1
      20
119
      42
0
      10
-15.1
      20
81
      42
0.41421356237309
      10
-14.1
      20
80
      42
0
      10
14.1
      20
80
      42
0.414213562373094
      10
15.1
      20
81
      42
0
      10
15.1
      20
119
      42
-0.414213562373093
      10
16.1
      20
120
      42
0
      10
22.1264099004
      20
120
      42
-0.360578343359846
      10
28.0223358518
      20
115.1126801767
      42
0
      10
42.8612346019
      20
36.4835735689
      42
-0.0466654356656843
    1001
FS_CYPCUT
    1000
Channel
    1070
1
    1000
LeadIn
    1002
{
    1070
3
    1040
6.5
    1040
1.5707963267949
    1040
0.5
    1040
0.3
    1070
0
    1040
0.5
    1070
0
    1002
}
    1000
LeadOut
    1002
{
    1070
0
    1040
0
    1040
0
    1040
0
    1070
0
    1002
}
    1000
IsFill
    1070
1
    1000
PathStart
    1040
6.5
    1000
ToolCompensation
    1002
{
    1070
0
    1040
0
    1070
0
    1002
}
    1000
MicroConnect
    1002
{
    1070
2
    1040
4.46501742
    1041
0.8
    1042
0
    1040
18.537017
    1041
0.8
    1042
0
    1002
}
       0
ENDBLK
       5
20F6
     330
201D
     100
AcDbEntity
       8
0
     100
AcDbBlockEnd
       0
BLOCK
       5
20F7
     330
201E
     100
AcDbEntity
       8
0
     100
AcDbBlockBegin
       2
Part583247149
      70
0
      10
-15
      20
-27.5
      30
0
       3
Part583247149
       1

       4
CypCutBlock
       0
CIRCLE
       5
20F8
     100
AcDbEntity
       8
1
     100
AcDbCircle
      10
0
      20
0
      30
0
      40
9.25
    1001
FS_CYPCUT
    1000
Channel
    1070
1
    1000
LeadIn
    1002
{
    1070
3
    1040
0
    1040
1.5707963267949
    1040
0.5
    1040
0.3
    1070
0
    1040
0.5
    1070
0
    1002
}
    1000
LeadOut
    1002
{
    1070
0
    1040
0
    1040
0
    1040
0
    1070
0
    1002
}
    1000
IsFill
    1070
0
    1000
PathStart
    1040
0
    1000
ToolCompensation
    1002
{
    1070
0
    1040
0
    1070
0
    1002
}
       0
LWPOLYLINE
       5
20F9
     100
AcDbEntity
       8
1
     100
AcDbPolyline
      90
20
      70
1
      10
21.76
      20
26.5
      42
0
      10
21.76
      20
23.74
      42
-0.414213562373097
      10
20.76
      20
22.74
      42
0
      10
18
      20
22.74
      42
0.414213562373093
      10
17
      20
21.74
      42
0
      10
17
      20
-21.74
      42
0.414213562373098
      10
18
      20
-22.74
      42
0
      10
20.76
      20
-22.74
      42
-0.414213562373097
      10
21.76
      20
-23.74
      42
0
      10
21.76
      20
-26.5
      42
-0.414213562373097
      10
20.76
      20
-27.5
      42
0
      10
11.4480946044
      20
-27.5
      42
-0.120623731051548
      10
6.828750416
      20
-26.3691408417
      42
0
      10
-9.61934418836171
      20
-17.8024249018739
      42
-0.279618954001466
      10
-15
      20
-8.9332840602
      42
0
      10
-14.9999999999999
      20
8.9332840602
      42
-0.279618954000996
      10
-9.61934418837717
      20
17.8024249018658
      42
0
      10
6.828750416
      20
26.3691408417
      42
-0.120623731051991
      10
11.4480946044
      20
27.5
      42
0
      10
20.76
      20
27.5
      42
-0.41421356237309
    1001
FS_CYPCUT
    1000
Channel
    1070
1
    1000
LeadIn
    1002
{
    1070
3
    1040
4.51239947402944
    1040
1.5707963267949
    1040
0.5
    1040
0.3
    1070
0
    1040
0.5
    1070
0
    1002
}
    1000
LeadOut
    1002
{
    1070
0
    1040
0
    1040
0
    1040
0
    1070
0
    1002
}
    1000
IsFill
    1070
1
    1000
PathStart
    1040
4.5
    1000
ToolCompensation
    1002
{
    1070
0
    1040
0
    1070
0
    1002
}
    1000
MicroConnect
    1002
{
    1070
2
    1040
4.49400021
    1041
0.8
    1042
0
    1040
14.4924918
    1041
0.8
    1042
0
    1002
}
       0
ENDBLK
       5
20FA
     330
201E
     100
AcDbEntity
       8
0
     100
AcDbBlockEnd
       0
ENDSEC
       0
SECTION
       2
ENTITIES
       0
INSERT
       5
20FB
     100
AcDbEntity
       8
1
     100
AcDbBlockReference
       2
Part2095969230
      10
2126.32264928044
      20
3245.50614458423
      30
0
      41
1
      42
1
      50
0
    1001
FS_CYPCUT
    1000
Channel
    1070
1
    1000
LeadIn
    1002
{
    1070
0
    1040
0
    1040
0
    1040
0
    1040
0
    1070
0
    1040
0
    1070
0
    1002
}
    1000
LeadOut
    1002
{
    1070
0
    1040
0
    1040
0
    1040
0
    1070
0
    1002
}
       0
INSERT
       5
20FC
     100
AcDbEntity
       8
1
     100
AcDbBlockReference
       2
Part1041535872
      10
2126.22274928043
      20
3331.85722708423
      30
0
      41
1
      42
1
      50
0
    1001
FS_CYPCUT
    1000
Channel
    1070
1
    1000
LeadIn
    1002
{
    1070
0
    1040
0
    1040
0
    1040
0
    1040
0
    1070
0
    1040
0
    1070
0
    1002
}
    1000
LeadOut
    1002
{
    1070
0
    1040
0
    1040
0
    1040
0
    1070
0
    1002
}
       0
INSERT
       5
20FD
     100
AcDbEntity
       8
1
     100
AcDbBlockReference
       2
Part1916705516
      10
2126.22274928043
      20
3389.91472708423
      30
0
      41
1
      42
1
      50
0
    1001
FS_CYPCUT
    1000
Channel
    1070
1
    1000
LeadIn
    1002
{
    1070
0
    1040
0
    1040
0
    1040
0
    1040
0
    1070
0
    1040
0
    1070
0
    1002
}
    1000
LeadOut
    1002
{
    1070
0
    1040
0
    1040
0
    1040
0
    1070
0
    1002
}
       0
INSERT
       5
20FE
     100
AcDbEntity
       8
1
     100
AcDbBlockReference
       2
Part816095118
      10
2391.81894941825
      20
3420.36442722205
      30
0
      41
1
      42
1
      50
90.0000001836389
    1001
FS_CYPCUT
    1000
Channel
    1070
1
    1000
LeadIn
    1002
{
    1070
0
    1040
0
    1040
0
    1040
0
    1040
0
    1070
0
    1040
0
    1070
0
    1002
}
    1000
LeadOut
    1002
{
    1070
0
    1040
0
    1040
0
    1040
0
    1070
0
    1002
}
       0
INSERT
       5
20FF
     100
AcDbEntity
       8
1
     100
AcDbBlockReference
       2
Part815063587
      10
2248.3306492939
      20
3412.06892709962
      30
0
      41
1
      42
1
      50
269.999999977959
    1001
FS_CYPCUT
    1000
Channel
    1070
1
    1000
LeadIn
    1002
{
    1070
0
    1040
0
    1040
0
    1040
0
    1040
0
    1070
0
    1040
0
    1070
0
    1002
}
    1000
LeadOut
    1002
{
    1070
0
    1040
0
    1040
0
    1040
0
    1070
0
    1002
}
       0
INSERT
       5
2100
     100
AcDbEntity
       8
1
     100
AcDbBlockReference
       2
Part953450251
      10
2278.32224928043
      20
3245.50614458423
      30
0
      41
1
      42
1
      50
0
    1001
FS_CYPCUT
    1000
Channel
    1070
1
    1000
LeadIn
    1002
{
    1070
0
    1040
0
    1040
0
    1040
0
    1040
0
    1070
0
    1040
0
    1070
0
    1002
}
    1000
LeadOut
    1002
{
    1070
0
    1040
0
    1040
0
    1040
0
    1070
0
    1002
}
       0
INSERT
       5
2101
     100
AcDbEntity
       8
1
     100
AcDbBlockReference
       2
Part507777632
      10
2400.3199492862
      20
3282.26612709481
      30
0
      41
1
      42
1
      50
269.999999977959
    1001
FS_CYPCUT
    1000
Channel
    1070
1
    1000
LeadIn
    1002
{
    1070
0
    1040
0
    1040
0
    1040
0
    1040
0
    1070
0
    1040
0
    1070
0
    1002
}
    1000
LeadOut
    1002
{
    1070
0
    1040
0
    1040
0
    1040
0
    1070
0
    1002
}
       0
INSERT
       5
2102
     100
AcDbEntity
       8
1
     100
AcDbBlockReference
       2
Part1204952546
      10
2400.3298492862
      20
3357.41332709481
      30
0
      41
1
      42
1
      50
269.999999977959
    1001
FS_CYPCUT
    1000
Channel
    1070
1
    1000
LeadIn
    1002
{
    1070
0
    1040
0
    1040
0
    1040
0
    1040
0
    1070
0
    1040
0
    1070
0
    1002
}
    1000
LeadOut
    1002
{
    1070
0
    1040
0
    1040
0
    1040
0
    1070
0
    1002
}
       0
INSERT
       5
2103
     100
AcDbEntity
       8
1
     100
AcDbBlockReference
       2
Part1167827310
      10
2400.32904928621
      20
3391.41332709481
      30
0
      41
1
      42
1
      50
269.999999977959
    1001
FS_CYPCUT
    1000
Channel
    1070
1
    1000
LeadIn
    1002
{
    1070
0
    1040
0
    1040
0
    1040
0
    1040
0
    1070
0
    1040
0
    1070
0
    1002
}
    1000
LeadOut
    1002
{
    1070
0
    1040
0
    1040
0
    1040
0
    1070
0
    1002
}
       0
INSERT
       5
2104
     100
AcDbEntity
       8
1
     100
AcDbBlockReference
       2
Part33843513
      10
2430.32224928043
      20
3245.50614458423
      30
0
      41
1
      42
1
      50
0
    1001
FS_CYPCUT
    1000
Channel
    1070
1
    1000
LeadIn
    1002
{
    1070
0
    1040
0
    1040
0
    1040
0
    1040
0
    1070
0
    1040
0
    1070
0
    1002
}
    1000
LeadOut
    1002
{
    1070
0
    1040
0
    1040
0
    1040
0
    1070
0
    1002
}
       0
INSERT
       5
2105
     100
AcDbEntity
       8
1
     100
AcDbBlockReference
       2
Part1173395400
      10
2556.81894941825
      20
3420.36442722205
      30
0
      41
1
      42
1
      50
90.0000001836389
    1001
FS_CYPCUT
    1000
Channel
    1070
1
    1000
LeadIn
    1002
{
    1070
0
    1040
0
    1040
0
    1040
0
    1040
0
    1070
0
    1040
0
    1070
0
    1002
}
    1000
LeadOut
    1002
{
    1070
0
    1040
0
    1040
0
    1040
0
    1070
0
    1002
}
       0
INSERT
       5
2106
     100
AcDbEntity
       8
1
     100
AcDbBlockReference
       2
Part602235770
      10
2656.67564946633
      20
3503.80002722205
      30
0
      41
1
      42
1
      50
90.0000001836389
    1001
FS_CYPCUT
    1000
Channel
    1070
1
    1000
LeadIn
    1002
{
    1070
0
    1040
0
    1040
0
    1040
0
    1040
0
    1070
0
    1040
0
    1070
0
    1002
}
    1000
LeadOut
    1002
{
    1070
0
    1040
0
    1040
0
    1040
0
    1070
0
    1002
}
       0
INSERT
       5
2107
     100
AcDbEntity
       8
1
     100
AcDbBlockReference
       2
Part1788484452
      10
2744.67484946633
      20
3503.80002722205
      30
0
      41
1
      42
1
      50
90.0000001836389
    1001
FS_CYPCUT
    1000
Channel
    1070
1
    1000
LeadIn
    1002
{
    1070
0
    1040
0
    1040
0
    1040
0
    1040
0
    1070
0
    1040
0
    1070
0
    1002
}
    1000
LeadOut
    1002
{
    1070
0
    1040
0
    1040
0
    1040
0
    1070
0
    1002
}
       0
INSERT
       5
2108
     100
AcDbEntity
       8
1
     100
AcDbBlockReference
       2
Part1183284387
      10
2732.42284928043
      20
3503.95270908423
      30
0
      41
1
      42
1
      50
180
    1001
FS_CYPCUT
    1000
Channel
    1070
1
    1000
LeadIn
    1002
{
    1070
0
    1040
0
    1040
0
    1040
0
    1040
0
    1070
0
    1040
0
    1070
0
    1002
}
    1000
LeadOut
    1002
{
    1070
0
    1040
0
    1040
0
    1040
0
    1070
0
    1002
}
       0
INSERT
       5
2109
     100
AcDbEntity
       8
1
     100
AcDbBlockReference
       2
Part1688123569
      10
2602.92534928044
      20
3409.47642708423
      30
0
      41
1
      42
1
      50
0
    1001
FS_CYPCUT
    1000
Channel
    1070
1
    1000
LeadIn
    1002
{
    1070
0
    1040
0
    1040
0
    1040
0
    1040
0
    1070
0
    1040
0
    1070
0
    1002
}
    1000
LeadOut
    1002
{
    1070
0
    1040
0
    1040
0
    1040
0
    1070
0
    1002
}
       0
INSERT
       5
210A
     100
AcDbEntity
       8
1
     100
AcDbBlockReference
       2
Part258805254
      10
2610.31524928044
      20
3412.74962708423
      30
0
      41
1
      42
1
      50
180
    1001
FS_CYPCUT
    1000
Channel
    1070
1
    1000
LeadIn
    1002
{
    1070
0
    1040
0
    1040
0
    1040
0
    1040
0
    1070
0
    1040
0
    1070
0
    1002
}
    1000
LeadOut
    1002
{
    1070
0
    1040
0
    1040
0
    1040
0
    1070
0
    1002
}
       0
INSERT
       5
210B
     100
AcDbEntity
       8
1
     100
AcDbBlockReference
       2
Part1781003809
      10
2582.32224928043
      20
3245.50614458423
      30
0
      41
1
      42
1
      50
0
    1001
FS_CYPCUT
    1000
Channel
    1070
1
    1000
LeadIn
    1002
{
    1070
0
    1040
0
    1040
0
    1040
0
    1040
0
    1070
0
    1040
0
    1070
0
    1002
}
    1000
LeadOut
    1002
{
    1070
0
    1040
0
    1040
0
    1040
0
    1070
0
    1002
}
       0
INSERT
       5
210C
     100
AcDbEntity
       8
1
     100
AcDbBlockReference
       2
Part1925552300
      10
2820.42224928044
      20
3453.50612708423
      30
0
      41
1
      42
1
      50
180
    1001
FS_CYPCUT
    1000
Channel
    1070
1
    1000
LeadIn
    1002
{
    1070
0
    1040
0
    1040
0
    1040
0
    1040
0
    1070
0
    1040
0
    1070
0
    1002
}
    1000
LeadOut
    1002
{
    1070
0
    1040
0
    1040
0
    1040
0
    1070
0
    1002
}
       0
INSERT
       5
210D
     100
AcDbEntity
       8
1
     100
AcDbBlockReference
       2
Part239770873
      10
2832.67484946633
      20
3507.50612722205
      30
0
      41
1
      42
1
      50
90.0000001836389
    1001
FS_CYPCUT
    1000
Channel
    1070
1
    1000
LeadIn
    1002
{
    1070
0
    1040
0
    1040
0
    1040
0
    1040
0
    1070
0
    1040
0
    1070
0
    1002
}
    1000
LeadOut
    1002
{
    1070
0
    1040
0
    1040
0
    1040
0
    1070
0
    1002
}
       0
INSERT
       5
210E
     100
AcDbEntity
       8
1
     100
AcDbBlockReference
       2
Part1949415135
      10
2920.67404946633
      20
3507.50612722205
      30
0
      41
1
      42
1
      50
90.0000001836389
    1001
FS_CYPCUT
    1000
Channel
    1070
1
    1000
LeadIn
    1002
{
    1070
0
    1040
0
    1040
0
    1040
0
    1040
0
    1070
0
    1040
0
    1070
0
    1002
}
    1000
LeadOut
    1002
{
    1070
0
    1040
0
    1040
0
    1040
0
    1070
0
    1002
}
       0
INSERT
       5
210F
     100
AcDbEntity
       8
1
     100
AcDbBlockReference
       2
CommonPart2042970203
      10
2734.52296728043
      20
3455.50612708423
      30
0
      41
1
      42
1
      50
0
    1001
FS_CYPCUT
    1000
Channel
    1070
1
    1000
LeadIn
    1002
{
    1070
0
    1040
0
    1040
0
    1040
0
    1040
0
    1070
0
    1040
0
    1070
0
    1002
}
    1000
LeadOut
    1002
{
    1070
0
    1040
0
    1040
0
    1040
0
    1070
0
    1002
}
       0
INSERT
       5
2110
     100
AcDbEntity
       8
1
     100
AcDbBlockReference
       2
Part1308438368
      10
2908.42224928044
      20
3453.50612708423
      30
0
      41
1
      42
1
      50
180
    1001
FS_CYPCUT
    1000
Channel
    1070
1
    1000
LeadIn
    1002
{
    1070
0
    1040
0
    1040
0
    1040
0
    1040
0
    1070
0
    1040
0
    1070
0
    1002
}
    1000
LeadOut
    1002
{
    1070
0
    1040
0
    1040
0
    1040
0
    1070
0
    1002
}
       0
INSERT
       5
2111
     100
AcDbEntity
       8
1
     100
AcDbBlockReference
       2
Part426521319
      10
2996.42224928044
      20
3453.50612708423
      30
0
      41
1
      42
1
      50
180
    1001
FS_CYPCUT
    1000
Channel
    1070
1
    1000
LeadIn
    1002
{
    1070
0
    1040
0
    1040
0
    1040
0
    1040
0
    1070
0
    1040
0
    1070
0
    1002
}
    1000
LeadOut
    1002
{
    1070
0
    1040
0
    1040
0
    1040
0
    1070
0
    1002
}
       0
INSERT
       5
2112
     100
AcDbEntity
       8
1
     100
AcDbBlockReference
       2
Part547135112
      10
3084.42224928044
      20
3453.50612708423
      30
0
      41
1
      42
1
      50
180
    1001
FS_CYPCUT
    1000
Channel
    1070
1
    1000
LeadIn
    1002
{
    1070
0
    1040
0
    1040
0
    1040
0
    1040
0
    1070
0
    1040
0
    1070
0
    1002
}
    1000
LeadOut
    1002
{
    1070
0
    1040
0
    1040
0
    1040
0
    1070
0
    1002
}
       0
INSERT
       5
2113
     100
AcDbEntity
       8
1
     100
AcDbBlockReference
       2
Part1987929476
      10
3116.42154928043
      20
3245.50612713231
      30
0
      41
1
      42
1
      50
90.0000001836389
    1001
FS_CYPCUT
    1000
Channel
    1070
1
    1000
LeadIn
    1002
{
    1070
0
    1040
0
    1040
0
    1040
0
    1040
0
    1070
0
    1040
0
    1070
0
    1002
}
    1000
LeadOut
    1002
{
    1070
0
    1040
0
    1040
0
    1040
0
    1070
0
    1002
}
       0
INSERT
       5
2114
     100
AcDbEntity
       8
1
     100
AcDbBlockReference
       2
Part487684778
      10
3086.42214928043
      20
3245.50612708423
      30
0
      41
1
      42
1
      50
0
    1001
FS_CYPCUT
    1000
Channel
    1070
1
    1000
LeadIn
    1002
{
    1070
0
    1040
0
    1040
0
    1040
0
    1040
0
    1070
0
    1040
0
    1070
0
    1002
}
    1000
LeadOut
    1002
{
    1070
0
    1040
0
    1040
0
    1040
0
    1070
0
    1002
}
       0
INSERT
       5
2115
     100
AcDbEntity
       8
1
     100
AcDbBlockReference
       2
Part1107951411
      10
3104.08184928044
      20
3386.05864408423
      30
0
      41
1
      42
1
      50
0
    1001
FS_CYPCUT
    1000
Channel
    1070
1
    1000
LeadIn
    1002
{
    1070
0
    1040
0
    1040
0
    1040
0
    1040
0
    1070
0
    1040
0
    1070
0
    1002
}
    1000
LeadOut
    1002
{
    1070
0
    1040
0
    1040
0
    1040
0
    1070
0
    1002
}
       0
INSERT
       5
2116
     100
AcDbEntity
       8
1
     100
AcDbBlockReference
       2
Part391836853
      10
3251.45314928043
      20
3504.03532708423
      30
0
      41
1
      42
1
      50
180
    1001
FS_CYPCUT
    1000
Channel
    1070
1
    1000
LeadIn
    1002
{
    1070
0
    1040
0
    1040
0
    1040
0
    1040
0
    1070
0
    1040
0
    1070
0
    1002
}
    1000
LeadOut
    1002
{
    1070
0
    1040
0
    1040
0
    1040
0
    1070
0
    1002
}
       0
INSERT
       5
2117
     100
AcDbEntity
       8
1
     100
AcDbBlockReference
       2
Part678293990
      10
3195.93594928043
      20
3286.41192708423
      30
0
      41
1
      42
1
      50
0
    1001
FS_CYPCUT
    1000
Channel
    1070
1
    1000
LeadIn
    1002
{
    1070
0
    1040
0
    1040
0
    1040
0
    1040
0
    1070
0
    1040
0
    1070
0
    1002
}
    1000
LeadOut
    1002
{
    1070
0
    1040
0
    1040
0
    1040
0
    1070
0
    1002
}
       0
INSERT
       5
2118
     100
AcDbEntity
       8
1
     100
AcDbBlockReference
       2
Part1106219350
      10
3234.42144928043
      20
3245.50612708423
      30
0
      41
1
      42
1
      50
0
    1001
FS_CYPCUT
    1000
Channel
    1070
1
    1000
LeadIn
    1002
{
    1070
0
    1040
0
    1040
0
    1040
0
    1040
0
    1070
0
    1040
0
    1070
0
    1002
}
    1000
LeadOut
    1002
{
    1070
0
    1040
0
    1040
0
    1040
0
    1070
0
    1002
}
       0
INSERT
       5
2119
     100
AcDbEntity
       8
1
     100
AcDbBlockReference
       2
Part583247149
      10
3264.31684928621
      20
3442.50612709481
      30
0
      41
1
      42
1
      50
269.999999977959
    1001
FS_CYPCUT
    1000
Channel
    1070
1
    1000
LeadIn
    1002
{
    1070
0
    1040
0
    1040
0
    1040
0
    1040
0
    1070
0
    1040
0
    1070
0
    1002
}
    1000
LeadOut
    1002
{
    1070
0
    1040
0
    1040
0
    1040
0
    1070
0
    1002
}
       0
ENDSEC
  0
SECTION
  2
OBJECTS
  0
DICTIONARY
  5
111
330
0
100
AcDbDictionary
281
     1
  3
ACAD_COLOR
350
120
  3
ACAD_GROUP
350
112
  3
ACAD_LAYOUT
350
11E
  3
ACAD_MATERIAL
350
11F
  3
ACAD_MLINESTYLE
350
11B
  3
ACAD_PLOTSETTINGS
350
11D
  3
ACAD_PLOTSTYLENAME
350
113
  3
ACAD_TABLESTYLE
350
121
  3
AcDbVariableDictionary
350
135
  0
DICTIONARY
  5
120
102
{ACAD_REACTORS
330
111
102
}
330
111
100
AcDbDictionary
281
     1
  0
DICTIONARY
  5
112
102
{ACAD_REACTORS
330
111
102
}
330
111
100
AcDbDictionary
281
     1
  0
DICTIONARY
  5
11E
102
{ACAD_REACTORS
330
111
102
}
330
111
100
AcDbDictionary
281
     1
  3
Model
350
12A
  3
布局1
350
126
  0
DICTIONARY
  5
11F
102
{ACAD_REACTORS
330
111
102
}
330
111
100
AcDbDictionary
281
     1
  0
DICTIONARY
  5
11B
102
{ACAD_REACTORS
330
111
102
}
330
111
100
AcDbDictionary
281
     1
  3
Standard
350
11C
  0
DICTIONARY
  5
11D
102
{ACAD_REACTORS
330
111
102
}
330
111
100
AcDbDictionary
281
     1
  0
ACDBDICTIONARYWDFLT
  5
113
102
{ACAD_REACTORS
330
111
102
}
330
111
100
AcDbDictionary
281
     1
  3
Normal
350
114
100
AcDbDictionaryWithDefault
340
114
  0
DICTIONARY
  5
121
102
{ACAD_REACTORS
330
111
102
}
330
111
100
AcDbDictionary
281
     1
  3
Standard
350
122
  0
DICTIONARY
  5
135
102
{ACAD_REACTORS
330
111
102
}
330
111
100
AcDbDictionary
281
     1
  3
CTABLESTYLE
350
136
  0
LAYOUT
  5
12A
102
{ACAD_REACTORS
330
11E
102
}
330
11E
100
AcDbPlotSettings
  1

  2
发送至 OneNote 2010
  4

  6

 40
0.0
 41
0.0
 42
0.0
 43
0.0
 44
0.0
 45
0.0
 46
0.0
 47
0.0
 48
0.0
 49
0.0
140
0.0
141
0.0
142
1.0
143
1.0
 70
  1712
 72
     0
 73
     0
 74
     0
  7

 75
     0
147
1.0
 76
     0
 77
     2
 78
   300
148
0.0
149
0.0
100
AcDbLayout
  1
Model
 70
     1
 71
     0
 10
0.0
 20
0.0
 11
12.0
 21
9.0
 12
0.0
 22
0.0
 32
0.0
 14
0.0
 24
0.0
 34
0.0
 15
0.0
 25
0.0
 35
0.0
146
0.0
 13
0.0
 23
0.0
 33
0.0
 16
1.0
 26
0.0
 36
0.0
 17
0.0
 27
1.0
 37
0.0
 76
     0
330
127
  0
LAYOUT
  5
126
102
{ACAD_REACTORS
330
11E
102
}
330
11E
100
AcDbPlotSettings
  1

  2
发送至 OneNote 2010
  4

  6

 40
0.0
 41
0.0
 42
0.0
 43
0.0
 44
0.0
 45
0.0
 46
0.0
 47
0.0
 48
0.0
 49
0.0
140
0.0
141
0.0
142
1.0
143
1.0
 70
   688
 72
     0
 73
     0
 74
     5
  7

 75
    16
147
1.0
 76
     0
 77
     2
 78
   300
148
0.0
149
0.0
100
AcDbLayout
  1
布局1
 70
     1
 71
     1
 10
0.0
 20
0.0
 11
12.0
 21
9.0
 12
0.0
 22
0.0
 32
0.0
 14
0.0
 24
0.0
 34
0.0
 15
0.0
 25
0.0
 35
0.0
146
0.0
 13
0.0
 23
0.0
 33
0.0
 16
1.0
 26
0.0
 36
0.0
 17
0.0
 27
1.0
 37
0.0
 76
     0
330
123
  0
MLINESTYLE
  5
11C
102
{ACAD_REACTORS
330
11B
102
}
330
11B
100
AcDbMlineStyle
  2
STANDARD
 70
     0
  3

 62
   256
 51
90.0
 52
90.0
 71
     2
 49
0.5
 62
   256
  6
BYLAYER
 49
-0.5
 62
   256
  6
BYLAYER
  0
ACDBPLACEHOLDER
  5
114
102
{ACAD_REACTORS
330
113
102
}
330
113
  0
TABLESTYLE
  5
122
102
{ACAD_REACTORS
330
121
102
}
330
121
100
AcDbTableStyle
  3
Standard
 70
     0
 71
     0
 40
0.06
 41
0.06
280
     0
281
     0
  7
STANDARD
140
0.18
170
     2
 62
     0
 63
     7
283
     0
274
    -2
284
     1
 64
     0
275
    -2
285
     1
 65
     0
276
    -2
286
     1
 66
     0
277
    -2
287
     1
 67
     0
278
    -2
288
     1
 68
     0
279
    -2
289
     1
 69
     0
  7
STANDARD
140
0.25
170
     5
 62
     0
 63
     7
283
     0
274
    -2
284
     1
 64
     0
275
    -2
285
     1
 65
     0
276
    -2
286
     1
 66
     0
277
    -2
287
     1
 67
     0
278
    -2
288
     1
 68
     0
279
    -2
289
     1
 69
     0
  7
STANDARD
140
0.18
170
     5
 62
     0
 63
     7
283
     0
274
    -2
284
     1
 64
     0
275
    -2
285
     1
 65
     0
276
    -2
286
     1
 66
     0
277
    -2
287
     1
 67
     0
278
    -2
288
     1
 68
     0
279
    -2
289
     1
 69
     0
  0
DICTIONARYVAR
  5
136
102
{ACAD_REACTORS
330
135
102
}
330
135
100
DictionaryVariables
280
     0
  1
STANDARD
  0
ENDSEC
  0
EOF
