  0
SECTION
  2
HEADER
  9
$ACADVER
  1
AC1018
  9
$ACADMAINTVER
 70
    77
  9
$DWGCODEPAGE
  3
ANSI_936
  9
$INSBASE
 10
0.0
 20
0.0
 30
0.0
  9
$EXTMIN
 10
2679.54028482221
 20
3739.59710846405
 30
0.0
  9
$EXTMAX
 10
3881.54025103963
 20
6709.18562044257
 30
0.0
  9
$LIMMIN
 10
0.0
 20
0.0
  9
$LIMMAX
 10
420.0
 20
297.0
  9
$ORTHOMODE
 70
     0
  9
$REGENMODE
 70
     1
  9
$FILLMODE
 70
     1
  9
$QTEXTMODE
 70
     0
  9
$MIRRTEXT
 70
     0
  9
$LTSCALE
 40
1.0
  9
$ATTMODE
 70
     1
  9
$TEXTSIZE
 40
2.5
  9
$TRACEWID
 40
1.0
  9
$TEXTSTYLE
  7
STANDARD
  9
$CLAYER
  8
0
  9
$CELTYPE
  6
ByLayer
  9
$CECOLOR
 62
   256
  9
$CELTSCALE
 40
1.0
  9
$DISPSILH
 70
     0
  9
$DIMSCALE
 40
1.0
  9
$DIMASZ
 40
2.5
  9
$DIMEXO
 40
0.625
  9
$DIMDLI
 40
3.75
  9
$DIMRND
 40
0.0
  9
$DIMDLE
 40
0.0
  9
$DIMEXE
 40
1.25
  9
$DIMTP
 40
0.0
  9
$DIMTM
 40
0.0
  9
$DIMTXT
 40
2.5
  9
$DIMCEN
 40
2.5
  9
$DIMTSZ
 40
0.0
  9
$DIMTOL
 70
     0
  9
$DIMLIM
 70
     0
  9
$DIMTIH
 70
     0
  9
$DIMTOH
 70
     0
  9
$DIMSE1
 70
     0
  9
$DIMSE2
 70
     0
  9
$DIMTAD
 70
     1
  9
$DIMZIN
 70
     8
  9
$DIMBLK
  1

  9
$DIMASO
 70
     1
  9
$DIMSHO
 70
     1
  9
$DIMPOST
  1

  9
$DIMAPOST
  1

  9
$DIMALT
 70
     0
  9
$DIMALTD
 70
     3
  9
$DIMALTF
 40
0.03937007874016
  9
$DIMLFAC
 40
1.0
  9
$DIMTOFL
 70
     1
  9
$DIMTVP
 40
0.0
  9
$DIMTIX
 70
     0
  9
$DIMSOXD
 70
     0
  9
$DIMSAH
 70
     0
  9
$DIMBLK1
  1

  9
$DIMBLK2
  1

  9
$DIMSTYLE
  2
ISO-25
  9
$DIMCLRD
 70
     0
  9
$DIMCLRE
 70
     0
  9
$DIMCLRT
 70
     0
  9
$DIMTFAC
 40
1.0
  9
$DIMGAP
 40
0.625
  9
$DIMJUST
 70
     0
  9
$DIMSD1
 70
     0
  9
$DIMSD2
 70
     0
  9
$DIMTOLJ
 70
     1
  9
$DIMTZIN
 70
     0
  9
$DIMALTZ
 70
     0
  9
$DIMALTTZ
 70
     0
  9
$DIMUPT
 70
     0
  9
$DIMDEC
 70
     4
  9
$DIMTDEC
 70
     4
  9
$DIMALTU
 70
     2
  9
$DIMALTTD
 70
     2
  9
$DIMTXSTY
  7
STANDARD
  9
$DIMAUNIT
 70
     0
  9
$DIMADEC
 70
     0
  9
$DIMALTRND
 40
0.0
  9
$DIMAZIN
 70
     0
  9
$DIMDSEP
 70
    46
  9
$DIMATFIT
 70
     3
  9
$DIMFRAC
 70
     0
  9
$DIMLDRBLK
  1

  9
$DIMLUNIT
 70
     2
  9
$DIMLWD
 70
    -2
  9
$DIMLWE
 70
    -2
  9
$DIMTMOVE
 70
     0
  9
$LUNITS
 70
     2
  9
$LUPREC
 70
     4
  9
$SKETCHINC
 40
1.0
  9
$FILLETRAD
 40
0.0
  9
$AUNITS
 70
     0
  9
$AUPREC
 70
     0
  9
$MENU
  1
.
  9
$ELEVATION
 40
0.0
  9
$PELEVATION
 40
0.0
  9
$THICKNESS
 40
0.0
  9
$LIMCHECK
 70
     0
  9
$CHAMFERA
 40
0.0
  9
$CHAMFERB
 40
0.0
  9
$CHAMFERC
 40
0.0
  9
$CHAMFERD
 40
0.0
  9
$SKPOLY
 70
     0
  9
$TDCREATE
 40
2456997.676706910
  9
$TDUCREATE
 40
2456997.343373576
  9
$TDUPDATE
 40
2456997.680113438
  9
$TDUUPDATE
 40
2456997.346780104
  9
$TDINDWG
 40
0.0010312963
  9
$TDUSRTIMER
 40
0.0010311806
  9
$USRTIMER
 70
     1
  9
$ANGBASE
 50
0.0
  9
$ANGDIR
 70
     0
  9
$PDMODE
 70
     0
  9
$PDSIZE
 40
0.0
  9
$PLINEWID
 40
0.0
  9
$SPLFRAME
 70
     0
  9
$SPLINETYPE
 70
     6
  9
$SPLINESEGS
 70
     8
  9
$HANDSEED
  5
2463
  9
$SURFTAB1
 70
     6
  9
$SURFTAB2
 70
     6
  9
$SURFTYPE
 70
     6
  9
$SURFU
 70
     6
  9
$SURFV
 70
     6
  9
$UCSBASE
  2

  9
$UCSNAME
  2

  9
$UCSORG
 10
0.0
 20
0.0
 30
0.0
  9
$UCSXDIR
 10
1.0
 20
0.0
 30
0.0
  9
$UCSYDIR
 10
0.0
 20
1.0
 30
0.0
  9
$UCSORTHOREF
  2

  9
$UCSORTHOVIEW
 70
     0
  9
$UCSORGTOP
 10
0.0
 20
0.0
 30
0.0
  9
$UCSORGBOTTOM
 10
0.0
 20
0.0
 30
0.0
  9
$UCSORGLEFT
 10
0.0
 20
0.0
 30
0.0
  9
$UCSORGRIGHT
 10
0.0
 20
0.0
 30
0.0
  9
$UCSORGFRONT
 10
0.0
 20
0.0
 30
0.0
  9
$UCSORGBACK
 10
0.0
 20
0.0
 30
0.0
  9
$PUCSBASE
  2

  9
$PUCSNAME
  2

  9
$PUCSORG
 10
0.0
 20
0.0
 30
0.0
  9
$PUCSXDIR
 10
1.0
 20
0.0
 30
0.0
  9
$PUCSYDIR
 10
0.0
 20
1.0
 30
0.0
  9
$PUCSORTHOREF
  2

  9
$PUCSORTHOVIEW
 70
     0
  9
$PUCSORGTOP
 10
0.0
 20
0.0
 30
0.0
  9
$PUCSORGBOTTOM
 10
0.0
 20
0.0
 30
0.0
  9
$PUCSORGLEFT
 10
0.0
 20
0.0
 30
0.0
  9
$PUCSORGRIGHT
 10
0.0
 20
0.0
 30
0.0
  9
$PUCSORGFRONT
 10
0.0
 20
0.0
 30
0.0
  9
$PUCSORGBACK
 10
0.0
 20
0.0
 30
0.0
  9
$USERI1
 70
     0
  9
$USERI2
 70
     0
  9
$USERI3
 70
     0
  9
$USERI4
 70
     0
  9
$USERI5
 70
     0
  9
$USERR1
 40
0.0
  9
$USERR2
 40
0.0
  9
$USERR3
 40
0.0
  9
$USERR4
 40
0.0
  9
$USERR5
 40
0.0
  9
$WORLDVIEW
 70
     1
  9
$SHADEDGE
 70
     3
  9
$SHADEDIF
 70
    70
  9
$TILEMODE
 70
     1
  9
$MAXACTVP
 70
    64
  9
$PINSBASE
 10
0.0
 20
0.0
 30
0.0
  9
$PLIMCHECK
 70
     0
  9
$PEXTMIN
 10
0.0
 20
0.0
 30
0.0
  9
$PEXTMAX
 10
0.0
 20
0.0
 30
0.0
  9
$PLIMMIN
 10
0.0
 20
0.0
  9
$PLIMMAX
 10
12.0
 20
9.0
  9
$UNITMODE
 70
     0
  9
$VISRETAIN
 70
     1
  9
$PLINEGEN
 70
     0
  9
$PSLTSCALE
 70
     1
  9
$TREEDEPTH
 70
  3020
  9
$CMLSTYLE
  2
Standard
  9
$CMLJUST
 70
     0
  9
$CMLSCALE
 40
1.0
  9
$PROXYGRAPHICS
 70
     1
  9
$MEASUREMENT
 70
     1
  9
$CELWEIGHT
370
    -1
  9
$ENDCAPS
280
     0
  9
$JOINSTYLE
280
     0
  9
$LWDISPLAY
290
     0
  9
$INSUNITS
 70
     0
  9
$HYPERLINKBASE
  1

  9
$STYLESHEET
  1

  9
$XEDIT
290
     1
  9
$CEPSNTYPE
380
     0
  9
$PSTYLEMODE
290
     1
  9
$FINGERPRINTGUID
  2
{1F2D6530-6BF2-4D5E-922F-A9C54F637010}
  9
$VERSIONGUID
  2
{15AD9CB5-51D1-451C-B472-5DB36EFAD6AD}
  9
$EXTNAMES
290
     1
  9
$PSVPSCALE
 40
0.0
  9
$OLESTARTUP
290
     0
  9
$SORTENTS
280
   127
  9
$INDEXCTL
280
     0
  9
$HIDETEXT
280
     0
  9
$XCLIPFRAME
290
     0
  9
$HALOGAP
280
     0
  9
$OBSCOLOR
 70
   257
  9
$OBSLTYPE
280
     0
  9
$INTERSECTIONDISPLAY
280
     0
  9
$INTERSECTIONCOLOR
 70
   257
  9
$DIMASSOC
280
     1
  9
$PROJECTNAME
  1

  0
ENDSEC
  0
SECTION
  2
CLASSES
  0
CLASS
  1
ACDBDICTIONARYWDFLT
  2
AcDbDictionaryWithDefault
  3
ObjectDBX Classes
 90
        0
 91
        1
280
     0
281
     0
  0
CLASS
  1
TABLESTYLE
  2
AcDbTableStyle
  3
ObjectDBX Classes
 90
     2047
 91
        1
280
     0
281
     0
  0
CLASS
  1
DICTIONARYVAR
  2
AcDbDictionaryVar
  3
ObjectDBX Classes
 90
        0
 91
        1
280
     0
281
     0
  0
ENDSEC
  0
SECTION
  2
TABLES
  0
TABLE
  2
VPORT
  5
10D
330
0
100
AcDbSymbolTable
 70
     2
  0
VPORT
  5
137
330
10D
100
AcDbSymbolTableRecord
100
AcDbViewportTableRecord
  2
*Active
 70
     0
 10
0.0
 20
0.0
 11
1.0
 21
1.0
 12
3280.54026793092
 22
5224.39136445331
 13
0.0
 23
0.0
 14
10.0
 24
10.0
 15
10.0
 25
10.0
 16
0.0
 26
0.0
 36
1.0
 17
0.0
 27
0.0
 37
0.0
 40
551.708552688342
 41
2.435135135135135
 42
50.0
 43
0.0
 44
0.0
 50
0.0
 51
0.0
 71
     0
 72
  1000
 73
     1
 74
     3
 75
     0
 76
     0
 77
     0
 78
     0
281
     0
 65
     1
110
0.0
120
0.0
130
0.0
111
1.0
121
0.0
131
0.0
112
0.0
122
1.0
132
0.0
 79
     0
146
0.0
  0
ENDTAB
  0
TABLE
  2
LTYPE
  5
10A
330
0
100
AcDbSymbolTable
 70
     1
  0
LTYPE
  5
118
330
10A
100
AcDbSymbolTableRecord
100
AcDbLinetypeTableRecord
  2
ByBlock
 70
     0
  3

 72
    65
 73
     0
 40
0.0
  0
LTYPE
  5
119
330
10A
100
AcDbSymbolTableRecord
100
AcDbLinetypeTableRecord
  2
ByLayer
 70
     0
  3

 72
    65
 73
     0
 40
0.0
  0
LTYPE
  5
11A
330
10A
100
AcDbSymbolTableRecord
100
AcDbLinetypeTableRecord
  2
CONTINUOUS
 70
     0
  3
Solid line
 72
    65
 73
     0
 40
0.0
  0
ENDTAB
  0
TABLE
  2
LAYER
  5
107
330
0
100
AcDbSymbolTable
 70
     1
  0
LAYER
  5
115
330
107
100
AcDbSymbolTableRecord
100
AcDbLayerTableRecord
  2
0
 70
     0
 62
     7
  6
CONTINUOUS
370
    -3
390
114
  0
ENDTAB
  0
TABLE
  2
STYLE
  5
108
330
0
100
AcDbSymbolTable
 70
     1
  0
STYLE
  5
116
330
108
100
AcDbSymbolTableRecord
100
AcDbTextStyleTableRecord
  2
STANDARD
 70
     0
 40
0.0
 41
1.0
 50
0.0
 71
     0
 42
2.5
  3
txt
  4
gbcbig.shx
  0
ENDTAB
  0
TABLE
  2
VIEW
  5
10B
330
0
100
AcDbSymbolTable
 70
     0
  0
ENDTAB
  0
TABLE
  2
UCS
  5
10C
330
0
100
AcDbSymbolTable
 70
     0
  0
ENDTAB
  0
TABLE
  2
APPID
  5
10E
330
0
100
AcDbSymbolTable
 70
     2
  0
APPID
  5
117
330
10E
100
AcDbSymbolTableRecord
100
AcDbRegAppTableRecord
  2
ACAD
 70
     0
  0
APPID
  5
12C
330
10E
100
AcDbSymbolTableRecord
100
AcDbRegAppTableRecord
  2
ACAD_PSEXT
 70
     0
  0
APPID
  5
112C
330
10E
100
AcDbSymbolTableRecord
100
AcDbRegAppTableRecord
  2
FS_CYPCUT
 70
     0
  0
ENDTAB
  0
TABLE
  2
DIMSTYLE
  5
10F
330
0
100
AcDbSymbolTable
 70
     1
100
AcDbDimStyleTable
 71
     0
  0
DIMSTYLE
105
12D
330
10F
100
AcDbSymbolTableRecord
100
AcDbDimStyleTableRecord
  2
ISO-25
 70
     0
 41
2.5
 42
0.625
 43
3.75
 44
1.25
 73
     0
 74
     0
 77
     1
 78
     8
140
2.5
141
2.5
143
0.03937007874016
147
0.625
171
     3
172
     1
274
     3
279
     2
284
     8
285
     8
286
     8
340
116
  0
ENDTAB
  0
TABLE
  2
BLOCK_RECORD
  5
106
330
0
100
AcDbSymbolTable
 70
     2
  0
BLOCK_RECORD
  5
127
330
106
100
AcDbSymbolTableRecord
100
AcDbBlockTableRecord
  2
*Model_Space
340
12A
  0
BLOCK_RECORD
  5
123
330
106
100
AcDbSymbolTableRecord
100
AcDbBlockTableRecord
  2
*Paper_Space
340
126
  0
BLOCK_RECORD
  5
130
330
106
100
AcDbSymbolTableRecord
100
AcDbBlockTableRecord
  2
$MODEL_SPACE
340
0
  0
BLOCK_RECORD
  5
132
330
106
100
AcDbSymbolTableRecord
100
AcDbBlockTableRecord
  2
$PAPER_SPACE
340
0
       0
BLOCK_RECORD
       5
2000
     330
106
     100
AcDbSymbolTableRecord
     100
AcDbBlockTableRecord
       2
Part425959501
       0
BLOCK_RECORD
       5
2001
     330
106
     100
AcDbSymbolTableRecord
     100
AcDbBlockTableRecord
       2
Part1342855557
       0
BLOCK_RECORD
       5
2002
     330
106
     100
AcDbSymbolTableRecord
     100
AcDbBlockTableRecord
       2
Part2131089361
       0
BLOCK_RECORD
       5
2003
     330
106
     100
AcDbSymbolTableRecord
     100
AcDbBlockTableRecord
       2
Part1014353603
       0
BLOCK_RECORD
       5
2004
     330
106
     100
AcDbSymbolTableRecord
     100
AcDbBlockTableRecord
       2
Part
       0
BLOCK_RECORD
       5
2005
     330
106
     100
AcDbSymbolTableRecord
     100
AcDbBlockTableRecord
       2
Part526636546
       0
BLOCK_RECORD
       5
2006
     330
106
     100
AcDbSymbolTableRecord
     100
AcDbBlockTableRecord
       2
Part1291157273
       0
BLOCK_RECORD
       5
2007
     330
106
     100
AcDbSymbolTableRecord
     100
AcDbBlockTableRecord
       2
Part1600436750
       0
BLOCK_RECORD
       5
2008
     330
106
     100
AcDbSymbolTableRecord
     100
AcDbBlockTableRecord
       2
Part1663640964
       0
BLOCK_RECORD
       5
2009
     330
106
     100
AcDbSymbolTableRecord
     100
AcDbBlockTableRecord
       2
Part1353286655
       0
BLOCK_RECORD
       5
200A
     330
106
     100
AcDbSymbolTableRecord
     100
AcDbBlockTableRecord
       2
Part2068729752
       0
BLOCK_RECORD
       5
200B
     330
106
     100
AcDbSymbolTableRecord
     100
AcDbBlockTableRecord
       2
Part308196351
  0
ENDTAB
  0
ENDSEC
  0
SECTION
  2
BLOCKS
  0
BLOCK
  5
128
330
127
100
AcDbEntity
  8
0
100
AcDbBlockBegin
  2
*Model_Space
 70
     0
 10
0.0
 20
0.0
 30
0.0
  3
*Model_Space
  1

  0
ENDBLK
  5
129
330
127
100
AcDbEntity
  8
0
100
AcDbBlockEnd
  0
BLOCK
  5
124
330
123
100
AcDbEntity
 67
     1
  8
0
100
AcDbBlockBegin
  2
*Paper_Space
 70
     0
 10
0.0
 20
0.0
 30
0.0
  3
*Paper_Space
  1

  0
ENDBLK
  5
125
330
123
100
AcDbEntity
 67
     1
  8
0
100
AcDbBlockEnd
  0
BLOCK
  5
131
330
130
100
AcDbEntity
  8
0
100
AcDbBlockBegin
  2
$MODEL_SPACE
 70
     0
 10
0.0
 20
0.0
 30
0.0
  3
$MODEL_SPACE
  1

  0
ENDBLK
  5
21
330
130
100
AcDbEntity
  8
0
100
AcDbBlockEnd
  0
BLOCK
  5
133
330
132
100
AcDbEntity
  8
0
100
AcDbBlockBegin
  2
$PAPER_SPACE
 70
     0
 10
0.0
 20
0.0
 30
0.0
  3
$PAPER_SPACE
  1

  0
ENDBLK
  5
D5
330
132
100
AcDbEntity
  8
0
100
AcDbBlockEnd
       0
BLOCK
       5
200C
     330
2000
     100
AcDbEntity
       8
0
     100
AcDbBlockBegin
       2
Part425959501
      70
0
      10
-65
      20
-12.5
      30
0
       3
Part425959501
       1

       4
CypCutBlock
       0
CIRCLE
       5
200D
     100
AcDbEntity
       8
1
     100
AcDbCircle
      10
-55
      20
0
      30
0
      40
6.49999999999998
    1001
FS_CYPCUT
    1000
Channel
    1070
1
    1000
LeadIn
    1002
{
    1070
3
    1040
0
    1040
1.5707963267949
    1040
2
    1040
1
    1070
0
    1040
0.5
    1070
0
    1002
}
    1000
LeadOut
    1002
{
    1070
0
    1040
0
    1040
0
    1040
0
    1070
0
    1002
}
    1000
IsFill
    1070
0
    1000
PathStart
    1040
1
    1000
ToolCompensation
    1002
{
    1070
0
    1040
0
    1070
0
    1002
}
       0
LINE
       5
200E
     100
AcDbEntity
       8
2
     100
AcDbLine
      10
-2.6477215117
      20
12.5
      30
0
      11
-2.6477215117
      21
-12.5
      31
0
    1001
FS_CYPCUT
    1000
Channel
    1070
2
    1000
LeadIn
    1002
{
    1070
0
    1040
0
    1040
0
    1040
0
    1040
0
    1070
0
    1040
0
    1070
0
    1002
}
    1000
LeadOut
    1002
{
    1070
0
    1040
0
    1040
0
    1040
0
    1070
0
    1002
}
    1000
IsFill
    1070
0
    1000
PathStart
    1040
0
    1000
ToolCompensation
    1002
{
    1070
0
    1040
0
    1070
0
    1002
}
       0
LINE
       5
200F
     100
AcDbEntity
       8
2
     100
AcDbLine
      10
20.0568354649
      20
-12.5
      30
0
      11
20.0568354649
      21
12.5
      31
0
    1001
FS_CYPCUT
    1000
Channel
    1070
2
    1000
LeadIn
    1002
{
    1070
0
    1040
0
    1040
0
    1040
0
    1040
0
    1070
0
    1040
0
    1070
0
    1002
}
    1000
LeadOut
    1002
{
    1070
0
    1040
0
    1040
0
    1040
0
    1070
0
    1002
}
    1000
IsFill
    1070
0
    1000
PathStart
    1040
0
    1000
ToolCompensation
    1002
{
    1070
0
    1040
0
    1070
0
    1002
}
       0
CIRCLE
       5
2010
     100
AcDbEntity
       8
1
     100
AcDbCircle
      10
40.4091139532
      20
0
      30
0
      40
3.25000000000001
    1001
FS_CYPCUT
    1000
Channel
    1070
1
    1000
LeadIn
    1002
{
    1070
3
    1040
0
    1040
1.5707963267949
    1040
2
    1040
1
    1070
0
    1040
0.5
    1070
0
    1002
}
    1000
LeadOut
    1002
{
    1070
0
    1040
0
    1040
0
    1040
0
    1070
0
    1002
}
    1000
IsFill
    1070
0
    1000
PathStart
    1040
0
    1000
ToolCompensation
    1002
{
    1070
0
    1040
0
    1070
0
    1002
}
       0
CIRCLE
       5
2011
     100
AcDbEntity
       8
1
     100
AcDbCircle
      10
70.4091139532
      20
0
      30
0
      40
3.25000000000003
    1001
FS_CYPCUT
    1000
Channel
    1070
1
    1000
LeadIn
    1002
{
    1070
3
    1040
5.55111512312578E-17
    1040
1.5707963267949
    1040
2
    1040
1
    1070
0
    1040
0.5
    1070
0
    1002
}
    1000
LeadOut
    1002
{
    1070
0
    1040
0
    1040
0
    1040
0
    1070
0
    1002
}
    1000
IsFill
    1070
0
    1000
PathStart
    1040
5.55111512312578E-17
    1000
ToolCompensation
    1002
{
    1070
0
    1040
0
    1070
0
    1002
}
       0
LWPOLYLINE
       5
2012
     100
AcDbEntity
       8
1
     100
AcDbPolyline
      90
8
      70
1
      10
80.4091139532
      20
7.5
      42
0
      10
80.4091139532
      20
-7.5
      42
-0.414213562373095
      10
75.4091139532
      20
-12.5
      42
0
      10
-60
      20
-12.5
      42
-0.414213562373095
      10
-65
      20
-7.5
      42
0
      10
-65
      20
7.5
      42
-0.414213562373095
      10
-60
      20
12.5
      42
0
      10
75.4091139532
      20
12.5
      42
-0.414213562373095
    1001
FS_CYPCUT
    1000
Channel
    1070
1
    1000
LeadIn
    1002
{
    1070
3
    1040
2.5
    1040
1.5707963267949
    1040
2
    1040
1
    1070
0
    1040
0.5
    1070
0
    1002
}
    1000
LeadOut
    1002
{
    1070
0
    1040
0
    1040
0
    1040
0
    1070
0
    1002
}
    1000
IsFill
    1070
1
    1000
PathStart
    1040
2.5
    1000
ToolCompensation
    1002
{
    1070
0
    1040
0
    1070
0
    1002
}
    1000
MicroConnect
    1002
{
    1070
2
    1040
2.74089532
    1041
0.6
    1042
0
    1040
6.84013741
    1041
0.6
    1042
0
    1002
}
       0
ENDBLK
       5
2013
     330
2000
     100
AcDbEntity
       8
0
     100
AcDbBlockEnd
       0
BLOCK
       5
2014
     330
2001
     100
AcDbEntity
       8
0
     100
AcDbBlockBegin
       2
Part1342855557
      70
0
      10
-65
      20
-12.5
      30
0
       3
Part1342855557
       1

       4
CypCutBlock
       0
CIRCLE
       5
2015
     100
AcDbEntity
       8
1
     100
AcDbCircle
      10
-55
      20
0
      30
0
      40
6.49999999999998
    1001
FS_CYPCUT
    1000
Channel
    1070
1
    1000
LeadIn
    1002
{
    1070
3
    1040
0
    1040
1.5707963267949
    1040
2
    1040
1
    1070
0
    1040
0.5
    1070
0
    1002
}
    1000
LeadOut
    1002
{
    1070
0
    1040
0
    1040
0
    1040
0
    1070
0
    1002
}
    1000
IsFill
    1070
0
    1000
PathStart
    1040
1
    1000
ToolCompensation
    1002
{
    1070
0
    1040
0
    1070
0
    1002
}
       0
LINE
       5
2016
     100
AcDbEntity
       8
2
     100
AcDbLine
      10
-2.6477215117
      20
12.5
      30
0
      11
-2.6477215117
      21
-12.5
      31
0
    1001
FS_CYPCUT
    1000
Channel
    1070
2
    1000
LeadIn
    1002
{
    1070
0
    1040
0
    1040
0
    1040
0
    1040
0
    1070
0
    1040
0
    1070
0
    1002
}
    1000
LeadOut
    1002
{
    1070
0
    1040
0
    1040
0
    1040
0
    1070
0
    1002
}
    1000
IsFill
    1070
0
    1000
PathStart
    1040
0
    1000
ToolCompensation
    1002
{
    1070
0
    1040
0
    1070
0
    1002
}
       0
LINE
       5
2017
     100
AcDbEntity
       8
2
     100
AcDbLine
      10
20.0568354649
      20
-12.5
      30
0
      11
20.0568354649
      21
12.5
      31
0
    1001
FS_CYPCUT
    1000
Channel
    1070
2
    1000
LeadIn
    1002
{
    1070
0
    1040
0
    1040
0
    1040
0
    1040
0
    1070
0
    1040
0
    1070
0
    1002
}
    1000
LeadOut
    1002
{
    1070
0
    1040
0
    1040
0
    1040
0
    1070
0
    1002
}
    1000
IsFill
    1070
0
    1000
PathStart
    1040
0
    1000
ToolCompensation
    1002
{
    1070
0
    1040
0
    1070
0
    1002
}
       0
CIRCLE
       5
2018
     100
AcDbEntity
       8
1
     100
AcDbCircle
      10
40.4091139532
      20
0
      30
0
      40
3.25000000000001
    1001
FS_CYPCUT
    1000
Channel
    1070
1
    1000
LeadIn
    1002
{
    1070
3
    1040
0
    1040
1.5707963267949
    1040
2
    1040
1
    1070
0
    1040
0.5
    1070
0
    1002
}
    1000
LeadOut
    1002
{
    1070
0
    1040
0
    1040
0
    1040
0
    1070
0
    1002
}
    1000
IsFill
    1070
0
    1000
PathStart
    1040
0
    1000
ToolCompensation
    1002
{
    1070
0
    1040
0
    1070
0
    1002
}
       0
CIRCLE
       5
2019
     100
AcDbEntity
       8
1
     100
AcDbCircle
      10
70.4091139532
      20
0
      30
0
      40
3.25000000000003
    1001
FS_CYPCUT
    1000
Channel
    1070
1
    1000
LeadIn
    1002
{
    1070
3
    1040
5.55111512312578E-17
    1040
1.5707963267949
    1040
2
    1040
1
    1070
0
    1040
0.5
    1070
0
    1002
}
    1000
LeadOut
    1002
{
    1070
0
    1040
0
    1040
0
    1040
0
    1070
0
    1002
}
    1000
IsFill
    1070
0
    1000
PathStart
    1040
5.55111512312578E-17
    1000
ToolCompensation
    1002
{
    1070
0
    1040
0
    1070
0
    1002
}
       0
LWPOLYLINE
       5
201A
     100
AcDbEntity
       8
1
     100
AcDbPolyline
      90
8
      70
1
      10
80.4091139532
      20
7.5
      42
0
      10
80.4091139532
      20
-7.5
      42
-0.414213562373095
      10
75.4091139532
      20
-12.5
      42
0
      10
-60
      20
-12.5
      42
-0.414213562373095
      10
-65
      20
-7.5
      42
0
      10
-65
      20
7.5
      42
-0.414213562373095
      10
-60
      20
12.5
      42
0
      10
75.4091139532
      20
12.5
      42
-0.414213562373095
    1001
FS_CYPCUT
    1000
Channel
    1070
1
    1000
LeadIn
    1002
{
    1070
3
    1040
2.5
    1040
1.5707963267949
    1040
2
    1040
1
    1070
0
    1040
0.5
    1070
0
    1002
}
    1000
LeadOut
    1002
{
    1070
0
    1040
0
    1040
0
    1040
0
    1070
0
    1002
}
    1000
IsFill
    1070
1
    1000
PathStart
    1040
2.5
    1000
ToolCompensation
    1002
{
    1070
0
    1040
0
    1070
0
    1002
}
    1000
MicroConnect
    1002
{
    1070
2
    1040
2.74089532
    1041
0.6
    1042
0
    1040
6.84013741
    1041
0.6
    1042
0
    1002
}
       0
ENDBLK
       5
201B
     330
2001
     100
AcDbEntity
       8
0
     100
AcDbBlockEnd
       0
BLOCK
       5
201C
     330
2002
     100
AcDbEntity
       8
0
     100
AcDbBlockBegin
       2
Part2131089361
      70
0
      10
770.559986
      20
-770.559986
      30
0
       3
Part2131089361
       1

       4
CypCutBlock
       0
SPLINE
       5
201D
     100
AcDbEntity
       8
1
     100
AcDbSpline
      70
0
      71
3
      72
36
      73
32
      74
0
      40
0
      40
0
      40
0
      40
0
      40
0.125
      40
0.125
      40
0.125
      40
0.125
      40
0.25
      40
0.25
      40
0.25
      40
0.25
      40
0.375
      40
0.375
      40
0.375
      40
0.375
      40
0.5
      40
0.5
      40
0.5
      40
0.5
      40
0.625
      40
0.625
      40
0.625
      40
0.625
      40
0.75
      40
0.75
      40
0.75
      40
0.75
      40
0.875
      40
0.875
      40
0.875
      40
0.875
      40
1
      40
1
      40
1
      40
1
      10
805.548934972802
      20
-109.72177043392
      30
0
      10
797.655526779522
      20
-109.752405263144
      30
0
      10
789.834607257209
      20
-106.452543423091
      30
0
      10
784.311865810365
      20
-100.82008981454
      30
0
      10
784.311865810365
      20
-100.82008981454
      30
0
      10
778.564784351837
      20
-95.0578675002325
      30
0
      10
775.333062909287
      20
-86.8989865016928
      30
0
      10
775.569196197293
      20
-78.7646722196446
      30
0
      10
775.569196197293
      20
-78.7646722196446
      30
0
      10
775.735703731186
      20
-70.6288691520975
      30
0
      10
779.366407505588
      20
-62.6391656732593
      30
0
      10
785.392231698548
      20
-57.1689978070954
      30
0
      10
785.392231698548
      20
-57.1689978070954
      30
0
      10
791.188006483557
      20
-51.817316762551
      30
0
      10
799.165993063026
      20
-48.9148288247381
      30
0
      10
807.047848945202
      20
-49.3440693128327
      30
0
      10
807.047848945202
      20
-49.3440693128327
      30
0
      10
814.932968253746
      20
-49.7070079100688
      30
0
      10
822.579682333504
      20
-53.3888223425149
      30
0
      10
827.821041545201
      20
-59.2839769799802
      30
0
      10
827.821041545201
      20
-59.2839769799802
      30
0
      10
833.111028788283
      20
-65.1380769627433
      30
0
      10
835.941761551231
      20
-73.1233703945446
      30
0
      10
835.523614564278
      20
-81.0022322474626
      30
0
      10
835.523614564278
      20
-81.0022322474626
      30
0
      10
835.158636472954
      20
-89.1315787083126
      30
0
      10
831.334726802311
      20
-97.030480653056
      30
0
      10
825.176918962531
      20
-102.351910278413
      30
0
      10
825.176918962531
      20
-102.351910278413
      30
0
      10
819.804137269552
      20
-107.063496006462
      30
0
      10
812.698564020339
      20
-109.748029059452
      30
0
      10
805.548934972802
      20
-109.72177043392
      30
0
    1001
FS_CYPCUT
    1000
Channel
    1070
1
    1000
LeadIn
    1002
{
    1070
3
    1040
1.5
    1040
1.5707963267949
    1040
0.5
    1040
0.3
    1070
0
    1040
0.5
    1070
0
    1002
}
    1000
LeadOut
    1002
{
    1070
0
    1040
0
    1040
0
    1040
0
    1070
0
    1002
}
    1000
IsFill
    1070
0
    1000
PathStart
    1040
1.5
    1000
ToolCompensation
    1002
{
    1070
0
    1040
0
    1070
0
    1002
}
       0
LINE
       5
201E
     100
AcDbEntity
       8
2
     100
AcDbLine
      10
770.5599859633
      20
151
      30
0
      11
1025.5599859633
      21
151
      31
0
    1001
FS_CYPCUT
    1000
Channel
    1070
2
    1000
LeadIn
    1002
{
    1070
3
    1040
0
    1040
1.5707963267949
    1040
0.5
    1040
0.3
    1070
0
    1040
0.5
    1070
0
    1002
}
    1000
LeadOut
    1002
{
    1070
0
    1040
0
    1040
0
    1040
0
    1070
0
    1002
}
    1000
IsFill
    1070
0
    1000
PathStart
    1040
0
    1000
ToolCompensation
    1002
{
    1070
0
    1040
0
    1070
0
    1002
}
       0
LWPOLYLINE
       5
201F
     100
AcDbEntity
       8
1
     100
AcDbPolyline
      90
4
      70
1
      10
1025.5599859633
      20
162.059123609
      42
0
      10
1025.5599859633
      20
139.940876391
      42
0
      10
1032.5599859633
      20
139.940876391
      42
0
      10
1032.5599859633
      20
162.059123609
      42
0
    1001
FS_CYPCUT
    1000
Channel
    1070
1
    1000
LeadIn
    1002
{
    1070
3
    1040
0.5
    1040
1.5707963267949
    1040
0.5
    1040
0.3
    1070
0
    1040
0.5
    1070
0
    1002
}
    1000
LeadOut
    1002
{
    1070
0
    1040
0
    1040
0
    1040
0
    1070
0
    1002
}
    1000
IsFill
    1070
0
    1000
PathStart
    1040
0.5
    1000
ToolCompensation
    1002
{
    1070
0
    1040
0
    1070
0
    1002
}
       0
LINE
       5
2020
     100
AcDbEntity
       8
2
     100
AcDbLine
      10
1032.5599859633
      20
151
      30
0
      11
1072.5599859633
      21
151
      31
0
    1001
FS_CYPCUT
    1000
Channel
    1070
2
    1000
LeadIn
    1002
{
    1070
3
    1040
0
    1040
1.5707963267949
    1040
0.5
    1040
0.3
    1070
0
    1040
0.5
    1070
0
    1002
}
    1000
LeadOut
    1002
{
    1070
0
    1040
0
    1040
0
    1040
0
    1070
0
    1002
}
    1000
IsFill
    1070
0
    1000
PathStart
    1040
0
    1000
ToolCompensation
    1002
{
    1070
0
    1040
0
    1070
0
    1002
}
       0
CIRCLE
       5
2021
     100
AcDbEntity
       8
1
     100
AcDbCircle
      10
996.5599859633
      20
464.6888207233
      30
0
      40
6.25
    1001
FS_CYPCUT
    1000
Channel
    1070
1
    1000
LeadIn
    1002
{
    1070
3
    1040
0
    1040
1.5707963267949
    1040
0.5
    1040
0.3
    1070
0
    1040
0.5
    1070
0
    1002
}
    1000
LeadOut
    1002
{
    1070
0
    1040
0
    1040
0
    1040
0
    1070
0
    1002
}
    1000
IsFill
    1070
0
    1000
PathStart
    1040
0.999999999999999
    1000
ToolCompensation
    1002
{
    1070
0
    1040
0
    1070
0
    1002
}
       0
CIRCLE
       5
2022
     100
AcDbEntity
       8
1
     100
AcDbCircle
      10
846.5599859633
      20
464.6888207233
      30
0
      40
6.25
    1001
FS_CYPCUT
    1000
Channel
    1070
1
    1000
LeadIn
    1002
{
    1070
3
    1040
0
    1040
1.5707963267949
    1040
0.5
    1040
0.3
    1070
0
    1040
0.5
    1070
0
    1002
}
    1000
LeadOut
    1002
{
    1070
0
    1040
0
    1040
0
    1040
0
    1070
0
    1002
}
    1000
IsFill
    1070
0
    1000
PathStart
    1040
0.999999999999999
    1000
ToolCompensation
    1002
{
    1070
0
    1040
0
    1070
0
    1002
}
       0
CIRCLE
       5
2023
     100
AcDbEntity
       8
1
     100
AcDbCircle
      10
816.5599859633
      20
614.6888207233
      30
0
      40
6.24999999999977
    1001
FS_CYPCUT
    1000
Channel
    1070
1
    1000
LeadIn
    1002
{
    1070
3
    1040
0
    1040
1.5707963267949
    1040
0.5
    1040
0.3
    1070
0
    1040
0.5
    1070
0
    1002
}
    1000
LeadOut
    1002
{
    1070
0
    1040
0
    1040
0
    1040
0
    1070
0
    1002
}
    1000
IsFill
    1070
0
    1000
PathStart
    1040
0
    1000
ToolCompensation
    1002
{
    1070
0
    1040
0
    1070
0
    1002
}
       0
LWPOLYLINE
       5
2024
     100
AcDbEntity
       8
1
     100
AcDbPolyline
      90
8
      70
1
      10
856.5599859633
      20
719.688820723301
      42
0.414213562373085
      10
846.5599859633
      20
709.6888207233
      42
0
      10
846.5599859633
      20
519.6888207233
      42
0.414213562373085
      10
856.5599859633
      20
509.688820723299
      42
0
      10
986.5599859633
      20
509.688820723299
      42
0.414213562373081
      10
996.5599859633
      20
519.6888207233
      42
0
      10
996.559985963301
      20
709.6888207233
      42
0.414213562373085
      10
986.5599859633
      20
719.6888207233
      42
0
    1001
FS_CYPCUT
    1000
Channel
    1070
1
    1000
LeadIn
    1002
{
    1070
3
    1040
1.5
    1040
1.5707963267949
    1040
0.5
    1040
0.3
    1070
0
    1040
0.5
    1070
0
    1002
}
    1000
LeadOut
    1002
{
    1070
0
    1040
0
    1040
0
    1040
0
    1070
0
    1002
}
    1000
IsFill
    1070
0
    1000
PathStart
    1040
1.5
    1000
ToolCompensation
    1002
{
    1070
0
    1040
0
    1070
0
    1002
}
    1000
MicroConnect
    1002
{
    1070
2
    1040
1.18526131
    1041
0.6
    1042
0
    1040
5.23251294
    1041
0.6
    1042
0
    1002
}
       0
CIRCLE
       5
2025
     100
AcDbEntity
       8
1
     100
AcDbCircle
      10
1026.5599859633
      20
614.6888207233
      30
0
      40
6.25000000000068
    1001
FS_CYPCUT
    1000
Channel
    1070
1
    1000
LeadIn
    1002
{
    1070
3
    1040
0
    1040
1.5707963267949
    1040
0.5
    1040
0.3
    1070
0
    1040
0.5
    1070
0
    1002
}
    1000
LeadOut
    1002
{
    1070
0
    1040
0
    1040
0
    1040
0
    1070
0
    1002
}
    1000
IsFill
    1070
0
    1000
PathStart
    1040
0
    1000
ToolCompensation
    1002
{
    1070
0
    1040
0
    1070
0
    1002
}
       0
CIRCLE
       5
2026
     100
AcDbEntity
       8
1
     100
AcDbCircle
      10
996.5599859633
      20
764.6888207233
      30
0
      40
6.25000000000068
    1001
FS_CYPCUT
    1000
Channel
    1070
1
    1000
LeadIn
    1002
{
    1070
3
    1040
0
    1040
1.5707963267949
    1040
0.5
    1040
0.3
    1070
0
    1040
0.5
    1070
0
    1002
}
    1000
LeadOut
    1002
{
    1070
0
    1040
0
    1040
0
    1040
0
    1070
0
    1002
}
    1000
IsFill
    1070
0
    1000
PathStart
    1040
0
    1000
ToolCompensation
    1002
{
    1070
0
    1040
0
    1070
0
    1002
}
       0
CIRCLE
       5
2027
     100
AcDbEntity
       8
1
     100
AcDbCircle
      10
846.5599859633
      20
764.6888207233
      30
0
      40
6.25
    1001
FS_CYPCUT
    1000
Channel
    1070
1
    1000
LeadIn
    1002
{
    1070
3
    1040
0
    1040
1.5707963267949
    1040
0.5
    1040
0.3
    1070
0
    1040
0.5
    1070
0
    1002
}
    1000
LeadOut
    1002
{
    1070
0
    1040
0
    1040
0
    1040
0
    1070
0
    1002
}
    1000
IsFill
    1070
0
    1000
PathStart
    1040
0
    1000
ToolCompensation
    1002
{
    1070
0
    1040
0
    1070
0
    1002
}
       0
LWPOLYLINE
       5
2028
     100
AcDbEntity
       8
1
     100
AcDbPolyline
      90
12
      70
1
      10
770.5599859633
      20
1072.5599859633
      42
0
      10
1025.5599859633
      20
1072.5599859633
      42
0
      10
1025.5599859633
      20
1061.9983202196
      42
0
      10
1032.5599859633
      20
1061.9983202196
      42
0
      10
1032.5599859633
      20
1072.5599859633
      42
0
      10
1072.5599859633
      20
1072.5599859633
      42
0
      10
1072.5599859633
      20
-770.5599859633
      42
0
      10
1032.5599859633
      20
-770.5599859633
      42
0
      10
1032.5599859633
      20
-759.9983202196
      42
0
      10
1025.5599859633
      20
-759.9983202196
      42
0
      10
1025.5599859633
      20
-770.5599859633
      42
0
      10
770.5599859633
      20
-770.5599859633
      42
0
    1001
FS_CYPCUT
    1000
Channel
    1070
1
    1000
LeadIn
    1002
{
    1070
3
    1040
5.5
    1040
1.5707963267949
    1040
0.5
    1040
0.3
    1070
0
    1040
0.5
    1070
0
    1002
}
    1000
LeadOut
    1002
{
    1070
0
    1040
0
    1040
0
    1040
0
    1070
0
    1002
}
    1000
IsFill
    1070
1
    1000
PathStart
    1040
5.5
    1000
ToolCompensation
    1002
{
    1070
0
    1040
0
    1070
0
    1002
}
    1000
MicroConnect
    1002
{
    1070
6
    1040
5.1202092
    1041
0.6
    1042
0
    1040
5.55425583
    1041
0.6
    1042
0
    1040
5.90422302
    1041
0.6
    1042
0
    1040
11.0942475
    1041
0.6
    1042
0
    1040
11.5316664
    1041
0.6
    1042
0
    1040
11.8797908
    1041
0.6
    1042
0
    1002
}
       0
ENDBLK
       5
2029
     330
2002
     100
AcDbEntity
       8
0
     100
AcDbBlockEnd
       0
BLOCK
       5
202A
     330
2003
     100
AcDbEntity
       8
0
     100
AcDbBlockBegin
       2
Part1014353603
      70
0
      10
742.007698
      20
-742.007698
      30
0
       3
Part1014353603
       1

       4
CypCutBlock
       0
LWPOLYLINE
       5
202B
     100
AcDbEntity
       8
1
     100
AcDbPolyline
      90
4
      70
1
      10
864.10769806565
      20
-117.14828524605
      42
0
      10
870.60769806565
      20
-117.14828524605
      42
0
      10
870.60769806565
      20
-137.55667730635
      42
0
      10
864.10769806565
      20
-137.55667730635
      42
0
    1001
FS_CYPCUT
    1000
Channel
    1070
1
    1000
LeadIn
    1002
{
    1070
3
    1040
1.5
    1040
1.5707963267949
    1040
0.5
    1040
0.3
    1070
0
    1040
0.5
    1070
0
    1002
}
    1000
LeadOut
    1002
{
    1070
0
    1040
0
    1040
0
    1040
0
    1070
0
    1002
}
    1000
IsFill
    1070
0
    1000
PathStart
    1040
1.5
    1000
ToolCompensation
    1002
{
    1070
0
    1040
0
    1070
0
    1002
}
       0
SPLINE
       5
202C
     100
AcDbEntity
       8
1
     100
AcDbSpline
      70
0
      71
3
      72
56
      73
52
      74
0
      40
0
      40
0
      40
0
      40
0
      40
0.0769230769230769
      40
0.0769230769230769
      40
0.0769230769230769
      40
0.0769230769230769
      40
0.153846153846154
      40
0.153846153846154
      40
0.153846153846154
      40
0.153846153846154
      40
0.230769230769231
      40
0.230769230769231
      40
0.230769230769231
      40
0.230769230769231
      40
0.307692307692308
      40
0.307692307692308
      40
0.307692307692308
      40
0.307692307692308
      40
0.384615384615385
      40
0.384615384615385
      40
0.384615384615385
      40
0.384615384615385
      40
0.461538461538462
      40
0.461538461538462
      40
0.461538461538462
      40
0.461538461538462
      40
0.538461538461538
      40
0.538461538461538
      40
0.538461538461538
      40
0.538461538461538
      40
0.615384615384615
      40
0.615384615384615
      40
0.615384615384615
      40
0.615384615384615
      40
0.692307692307692
      40
0.692307692307692
      40
0.692307692307692
      40
0.692307692307692
      40
0.769230769230769
      40
0.769230769230769
      40
0.769230769230769
      40
0.769230769230769
      40
0.846153846153846
      40
0.846153846153846
      40
0.846153846153846
      40
0.846153846153846
      40
0.923076923076923
      40
0.923076923076923
      40
0.923076923076923
      40
0.923076923076923
      40
1
      40
1
      40
1
      40
1
      10
913.00354247343
      20
-6.53601563592041
      30
0
      10
913.007320937278
      20
-6.23202170416538
      30
0
      10
913.003268382325
      20
-5.92774153702043
      30
0
      10
912.967499461229
      20
-5.62544608870563
      30
0
      10
912.967499461229
      20
-5.62544608870563
      30
0
      10
912.833088555895
      20
-4.36643834569951
      30
0
      10
912.298596783448
      20
-3.14923471104508
      30
0
      10
911.450512138702
      20
-2.20422212631114
      30
0
      10
911.450512138702
      20
-2.20422212631114
      30
0
      10
910.71046863595
      20
-1.36713621191096
      30
0
      10
909.731527664555
      20
-0.747206880847545
      30
0
      10
908.658971025791
      20
-0.433827241071628
      30
0
      10
908.658971025791
      20
-0.433827241071628
      30
0
      10
907.344342851367
      20
-0.0465432099681374
      30
0
      10
905.893626042525
      20
-0.138896548505942
      30
0
      10
904.640240443063
      20
-0.694956922520293
      30
0
      10
904.640240443063
      20
-0.694956922520293
      30
0
      10
903.287918428486
      20
-1.28070396075383
      30
0
      10
902.177371652643
      20
-2.3888020603391
      30
0
      10
901.569102816178
      20
-3.72929429675513
      30
0
      10
901.569102816178
      20
-3.72929429675513
      30
0
      10
901.165289424678
      20
-4.60548699120203
      30
0
      10
900.983410625111
      20
-5.57521145750012
      30
0
      10
901.011894278482
      20
-6.53720623598325
      30
0
      10
901.011894278482
      20
-6.53720623598325
      30
0
      10
901.011608827857
      20
-6.587537077222
      30
0
      10
901.011323377232
      20
-6.63786791846063
      30
0
      10
901.011037926607
      20
-6.68819875969938
      30
0
      10
901.011037926607
      20
-6.68819875969938
      30
0
      10
901.011199258832
      20
-6.73851628350222
      30
0
      10
901.011360591057
      20
-6.78883380730507
      30
0
      10
901.011521923282
      20
-6.83915133110792
      30
0
      10
901.011521923282
      20
-6.83915133110792
      30
0
      10
901.022809308186
      20
-8.19767827680276
      30
0
      10
901.50995765156
      20
-9.54993799833174
      30
0
      10
902.379111754061
      20
-10.5993739152972
      30
0
      10
902.379111754061
      20
-10.5993739152972
      30
0
      10
903.082174270412
      20
-11.4580289646336
      30
0
      10
904.026981742325
      20
-12.1134209052277
      30
0
      10
905.078289687116
      20
-12.4695587566384
      30
0
      10
905.078289687116
      20
-12.4695587566384
      30
0
      10
906.460714117182
      20
-12.946080846243
      30
0
      10
908.019599554079
      20
-12.8878333512407
      30
0
      10
909.361770241891
      20
-12.3062105516853
      30
0
      10
909.361770241891
      20
-12.3062105516853
      30
0
      10
910.709373621211
      20
-11.7363998832528
      30
0
      10
911.826674278361
      20
-10.6498632121236
      30
0
      10
912.440735110659
      20
-9.32223475405498
      30
0
      10
912.440735110659
      20
-9.32223475405498
      30
0
      10
912.847917867538
      20
-8.45477461923814
      30
0
      10
913.031900333872
      20
-7.49148574180332
      30
0
      10
913.003542720004
      20
-6.53602501313206
      30
0
    1001
FS_CYPCUT
    1000
Channel
    1070
1
    1000
LeadIn
    1002
{
    1070
3
    1040
4.5
    1040
1.5707963267949
    1040
0.5
    1040
0.3
    1070
0
    1040
0.5
    1070
0
    1002
}
    1000
LeadOut
    1002
{
    1070
0
    1040
0
    1040
0
    1040
0
    1070
0
    1002
}
    1000
IsFill
    1070
0
    1000
PathStart
    1040
4.5
    1000
ToolCompensation
    1002
{
    1070
0
    1040
0
    1070
0
    1002
}
       0
LINE
       5
202D
     100
AcDbEntity
       8
2
     100
AcDbLine
      10
807.00769806565
      20
180.00000000005
      30
0
      11
742.00769806565
      21
180.00000000005
      31
0
    1001
FS_CYPCUT
    1000
Channel
    1070
2
    1000
LeadIn
    1002
{
    1070
3
    1040
0
    1040
1.5707963267949
    1040
0.5
    1040
0.3
    1070
0
    1040
0.5
    1070
0
    1002
}
    1000
LeadOut
    1002
{
    1070
0
    1040
0
    1040
0
    1040
0
    1070
0
    1002
}
    1000
IsFill
    1070
0
    1000
PathStart
    1040
0
    1000
ToolCompensation
    1002
{
    1070
0
    1040
0
    1070
0
    1002
}
       0
SPLINE
       5
202E
     100
AcDbEntity
       8
1
     100
AcDbSpline
      70
0
      71
3
      72
108
      73
104
      74
0
      40
0
      40
0
      40
0
      40
0
      40
0.0384615384615385
      40
0.0384615384615385
      40
0.0384615384615385
      40
0.0384615384615385
      40
0.0769230769230769
      40
0.0769230769230769
      40
0.0769230769230769
      40
0.0769230769230769
      40
0.115384615384615
      40
0.115384615384615
      40
0.115384615384615
      40
0.115384615384615
      40
0.153846153846154
      40
0.153846153846154
      40
0.153846153846154
      40
0.153846153846154
      40
0.192307692307692
      40
0.192307692307692
      40
0.192307692307692
      40
0.192307692307692
      40
0.230769230769231
      40
0.230769230769231
      40
0.230769230769231
      40
0.230769230769231
      40
0.269230769230769
      40
0.269230769230769
      40
0.269230769230769
      40
0.269230769230769
      40
0.307692307692308
      40
0.307692307692308
      40
0.307692307692308
      40
0.307692307692308
      40
0.346153846153846
      40
0.346153846153846
      40
0.346153846153846
      40
0.346153846153846
      40
0.384615384615385
      40
0.384615384615385
      40
0.384615384615385
      40
0.384615384615385
      40
0.423076923076923
      40
0.423076923076923
      40
0.423076923076923
      40
0.423076923076923
      40
0.461538461538462
      40
0.461538461538462
      40
0.461538461538462
      40
0.461538461538462
      40
0.5
      40
0.5
      40
0.5
      40
0.5
      40
0.538461538461538
      40
0.538461538461538
      40
0.538461538461538
      40
0.538461538461538
      40
0.576923076923077
      40
0.576923076923077
      40
0.576923076923077
      40
0.576923076923077
      40
0.615384615384615
      40
0.615384615384615
      40
0.615384615384615
      40
0.615384615384615
      40
0.653846153846154
      40
0.653846153846154
      40
0.653846153846154
      40
0.653846153846154
      40
0.692307692307692
      40
0.692307692307692
      40
0.692307692307692
      40
0.692307692307692
      40
0.730769230769231
      40
0.730769230769231
      40
0.730769230769231
      40
0.730769230769231
      40
0.769230769230769
      40
0.769230769230769
      40
0.769230769230769
      40
0.769230769230769
      40
0.807692307692308
      40
0.807692307692308
      40
0.807692307692308
      40
0.807692307692308
      40
0.846153846153846
      40
0.846153846153846
      40
0.846153846153846
      40
0.846153846153846
      40
0.884615384615385
      40
0.884615384615385
      40
0.884615384615385
      40
0.884615384615385
      40
0.923076923076923
      40
0.923076923076923
      40
0.923076923076923
      40
0.923076923076923
      40
0.961538461538462
      40
0.961538461538462
      40
0.961538461538462
      40
0.961538461538462
      40
1
      40
1
      40
1
      40
1
      10
812.00769806565
      20
338.34036178225
      30
0
      10
875.341031398983
      20
338.34036178225
      30
0
      10
938.674364732317
      20
338.34036178225
      30
0
      10
1002.00769806565
      20
338.34036178225
      30
0
      10
1002.00769806565
      20
338.34036178225
      30
0
      10
1002.05196121386
      20
338.339079372181
      30
0
      10
1002.09622436206
      20
338.33779696208
      30
0
      10
1002.14048751027
      20
338.336514551978
      30
0
      10
1002.14048751027
      20
338.336514551978
      30
0
      10
1002.87110853771
      20
338.311197956158
      30
0
      10
1003.59339604305
      20
338.101764466709
      30
0
      10
1004.22511019168
      20
337.733388085476
      30
0
      10
1004.22511019168
      20
337.733388085476
      30
0
      10
1004.66719621039
      20
337.478572543018
      30
0
      10
1005.0675339209
      20
337.152076781048
      30
0
      10
1005.41182998802
      20
336.77623024744
      30
0
      10
1005.41182998802
      20
336.77623024744
      30
0
      10
1006.22450126853
      20
335.893446877146
      30
0
      10
1006.73726078455
      20
334.754872111674
      30
0
      10
1006.92177967594
      20
333.575391319965
      30
0
      10
1006.92177967594
      20
333.575391319965
      30
0
      10
1006.9802096012
      20
333.225392146657
      30
0
      10
1006.99978209817
      20
332.871156154622
      30
0
      10
1007.00769806565
      20
332.516927315682
      30
0
      10
1007.00769806565
      20
332.516927315682
      30
0
      10
1007.00769806565
      20
230.838975771883
      30
0
      10
1007.00769806565
      20
129.161024228117
      30
0
      10
1007.00769806565
      20
27.4830726843501
      30
0
      10
1007.00769806565
      20
27.4830726843501
      30
0
      10
1007.00132270953
      20
26.7749452681129
      30
0
      10
1006.8960725206
      20
26.065578114694
      30
0
      10
1006.67195278124
      20
25.3928951401331
      30
0
      10
1006.67195278124
      20
25.3928951401331
      30
0
      10
1006.40851510994
      20
24.5933235303417
      30
0
      10
1005.98270844505
      20
23.8446855235534
      30
0
      10
1005.41183070915
      20
23.223834463628
      30
0
      10
1005.41183070915
      20
23.223834463628
      30
0
      10
1004.70998601703
      20
22.4553877096145
      30
0
      10
1003.76406913289
      20
21.8963465534537
      30
0
      10
1002.73510986393
      20
21.7216678242958
      30
0
      10
1002.73510986393
      20
21.7216678242958
      30
0
      10
1002.58227372723
      20
21.6949616898746
      30
0
      10
1002.4280334052
      20
21.6777497759841
      30
0
      10
1002.27329505477
      20
21.6698653013573
      30
0
      10
1002.27329505477
      20
21.6698653013573
      30
0
      10
1002.22904947133
      20
21.6678985276449
      30
0
      10
1002.1848038879
      20
21.6659317539326
      30
0
      10
1002.14055830446
      20
21.6639649802202
      30
0
      10
1002.14055830446
      20
21.6639649802202
      30
0
      10
1002.09627155819
      20
21.6625227260563
      30
0
      10
1002.05198481192
      20
21.6610804718923
      30
0
      10
1002.00769806565
      20
21.6596382177285
      30
0
      10
1002.00769806565
      20
21.6596382177285
      30
0
      10
938.674364732317
      20
21.6596382177356
      30
0
      10
875.341031398983
      20
21.6596382177429
      30
0
      10
812.00769806565
      20
21.6596382177501
      30
0
      10
812.00769806565
      20
21.6596382177501
      30
0
      10
811.963434917444
      20
21.6609206278303
      30
0
      10
811.919171769237
      20
21.6622030379322
      30
0
      10
811.87490862103
      20
21.663485448034
      30
0
      10
811.87490862103
      20
21.663485448034
      30
0
      10
811.144287593586
      20
21.6888020438563
      30
0
      10
810.422000088246
      20
21.8982355332922
      30
0
      10
809.790285939625
      20
22.2666119145354
      30
0
      10
809.790285939625
      20
22.2666119145354
      30
0
      10
809.348199920907
      20
22.5214274569905
      30
0
      10
808.947862210386
      20
22.8479232189435
      30
0
      10
808.603566143272
      20
23.2237697525606
      30
0
      10
808.603566143272
      20
23.2237697525606
      30
0
      10
807.790894862866
      20
24.1065531229143
      30
0
      10
807.278135346732
      20
25.2451278883388
      30
0
      10
807.093616455332
      20
26.4246086800433
      30
0
      10
807.093616455332
      20
26.4246086800433
      30
0
      10
807.035186530085
      20
26.7746078533546
      30
0
      10
807.015614033135
      20
27.12884384539
      30
0
      10
807.00769806565
      20
27.4830726843292
      30
0
      10
807.00769806565
      20
27.4830726843292
      30
0
      10
807.00769806565
      20
129.161024228117
      30
0
      10
807.00769806565
      20
230.838975771883
      30
0
      10
807.00769806565
      20
332.51692731565
      30
0
      10
807.00769806565
      20
332.51692731565
      30
0
      10
807.014073421764
      20
333.225054731902
      30
0
      10
807.119323610728
      20
333.93442188531
      30
0
      10
807.343443350059
      20
334.607104859881
      30
0
      10
807.343443350059
      20
334.607104859881
      30
0
      10
807.606881021339
      20
335.406676469677
      30
0
      10
808.032687686239
      20
336.155314476471
      30
0
      10
808.603565422166
      20
336.776165536377
      30
0
      10
808.603565422166
      20
336.776165536377
      30
0
      10
809.305410114338
      20
337.544612290306
      30
0
      10
810.251326998378
      20
338.103653446655
      30
0
      10
811.280286267373
      20
338.278332175738
      30
0
      10
811.280286267373
      20
338.278332175738
      30
0
      10
811.433122404067
      20
338.305038310149
      30
0
      10
811.5873627261
      20
338.322250224034
      30
0
      10
811.742101076534
      20
338.330134698656
      30
0
      10
811.742101076534
      20
338.330134698656
      30
0
      10
811.786346659969
      20
338.332101472368
      30
0
      10
811.830592243403
      20
338.33406824608
      30
0
      10
811.874837826837
      20
338.336035019792
      30
0
      10
811.874837826837
      20
338.336035019792
      30
0
      10
811.919124573108
      20
338.337477273956
      30
0
      10
811.963411319379
      20
338.338919528119
      30
0
      10
812.00769806565
      20
338.340361782283
      30
0
    1001
FS_CYPCUT
    1000
Channel
    1070
1
    1000
LeadIn
    1002
{
    1070
3
    1040
6.5
    1040
1.5707963267949
    1040
0.5
    1040
0.3
    1070
0
    1040
0.5
    1070
0
    1002
}
    1000
LeadOut
    1002
{
    1070
0
    1040
0
    1040
0
    1040
0
    1070
0
    1002
}
    1000
IsFill
    1070
0
    1000
PathStart
    1040
6.5
    1000
ToolCompensation
    1002
{
    1070
0
    1040
0
    1070
0
    1002
}
    1000
MicroConnect
    1002
{
    1070
2
    1040
6.21238158
    1041
0.6
    1042
0
    1040
19.2614362
    1041
0.6
    1042
0
    1002
}
       0
LINE
       5
202F
     100
AcDbEntity
       8
2
     100
AcDbLine
      10
1007.00769806565
      20
180.00000000005
      30
0
      11
1102.00769806565
      21
180.00000000005
      31
0
    1001
FS_CYPCUT
    1000
Channel
    1070
2
    1000
LeadIn
    1002
{
    1070
3
    1040
0
    1040
1.5707963267949
    1040
0.5
    1040
0.3
    1070
0
    1040
0.5
    1070
0
    1002
}
    1000
LeadOut
    1002
{
    1070
0
    1040
0
    1040
0
    1040
0
    1070
0
    1002
}
    1000
IsFill
    1070
0
    1000
PathStart
    1040
0
    1000
ToolCompensation
    1002
{
    1070
0
    1040
0
    1070
0
    1002
}
       0
SPLINE
       5
2030
     100
AcDbEntity
       8
1
     100
AcDbSpline
      70
0
      71
3
      72
56
      73
52
      74
0
      40
0
      40
0
      40
0
      40
0
      40
0.0769230769230769
      40
0.0769230769230769
      40
0.0769230769230769
      40
0.0769230769230769
      40
0.153846153846154
      40
0.153846153846154
      40
0.153846153846154
      40
0.153846153846154
      40
0.230769230769231
      40
0.230769230769231
      40
0.230769230769231
      40
0.230769230769231
      40
0.307692307692308
      40
0.307692307692308
      40
0.307692307692308
      40
0.307692307692308
      40
0.384615384615385
      40
0.384615384615385
      40
0.384615384615385
      40
0.384615384615385
      40
0.461538461538462
      40
0.461538461538462
      40
0.461538461538462
      40
0.461538461538462
      40
0.538461538461538
      40
0.538461538461538
      40
0.538461538461538
      40
0.538461538461538
      40
0.615384615384615
      40
0.615384615384615
      40
0.615384615384615
      40
0.615384615384615
      40
0.692307692307692
      40
0.692307692307692
      40
0.692307692307692
      40
0.692307692307692
      40
0.769230769230769
      40
0.769230769230769
      40
0.769230769230769
      40
0.769230769230769
      40
0.846153846153846
      40
0.846153846153846
      40
0.846153846153846
      40
0.846153846153846
      40
0.923076923076923
      40
0.923076923076923
      40
0.923076923076923
      40
0.923076923076923
      40
1
      40
1
      40
1
      40
1
      10
901.01171445701
      20
367.274504154451
      30
0
      10
900.983962393631
      20
368.22955924874
      30
0
      10
901.168548772578
      20
369.192295691039
      30
0
      10
901.576136397918
      20
370.059090655186
      30
0
      10
901.576136397918
      20
370.059090655186
      30
0
      10
902.190900358825
      20
371.38567678083
      30
0
      10
903.308413285071
      20
372.470932008535
      30
0
      10
904.655700622701
      20
373.039777732545
      30
0
      10
904.655700622701
      20
373.039777732545
      30
0
      10
905.997554579554
      20
373.620495866748
      30
0
      10
907.555617076212
      20
373.678289623123
      30
0
      10
908.937445063512
      20
373.202076483825
      30
0
      10
908.937445063512
      20
373.202076483825
      30
0
      10
909.988229126557
      20
372.846060775383
      30
0
      10
910.932817277831
      20
372.19125805753
      30
0
      10
911.635784251818
      20
371.333183967035
      30
0
      10
911.635784251818
      20
371.333183967035
      30
0
      10
912.504715140333
      20
370.28438919776
      30
0
      10
912.992511823814
      20
368.933070454852
      30
0
      10
913.003903686816
      20
367.575069488114
      30
0
      10
913.003903686816
      20
367.575069488114
      30
0
      10
913.004081803952
      20
367.524774405986
      30
0
      10
913.004259921088
      20
367.474479323858
      30
0
      10
913.004438038224
      20
367.424184241729
      30
0
      10
913.004438038224
      20
367.424184241729
      30
0
      10
913.004170709118
      20
367.373875744926
      30
0
      10
913.003903380013
      20
367.323567248124
      30
0
      10
913.003636050907
      20
367.273258751321
      30
0
      10
913.003636050907
      20
367.273258751321
      30
0
      10
913.031504225516
      20
366.311900189208
      30
0
      10
912.848177722107
      20
365.34315729441
      30
0
      10
912.444168332213
      20
364.467886828553
      30
0
      10
912.444168332213
      20
364.467886828553
      30
0
      10
911.834954563192
      20
363.129025214901
      30
0
      10
910.724264913775
      20
362.022691848959
      30
0
      10
909.372507293592
      20
361.438387317979
      30
0
      10
909.372507293592
      20
361.438387317979
      30
0
      10
908.11961278342
      20
360.883687447976
      30
0
      10
906.670150743274
      20
360.791663435786
      30
0
      10
905.356408590758
      20
361.178568344016
      30
0
      10
905.356408590758
      20
361.178568344016
      30
0
      10
904.284599341581
      20
361.491578893565
      30
0
      10
903.306175485321
      20
362.110669066348
      30
0
      10
902.566188470607
      20
362.946719738383
      30
0
      10
902.566188470607
      20
362.946719738383
      30
0
      10
901.718225671177
      20
363.890602041735
      30
0
      10
901.183315800635
      20
365.106570175617
      30
0
      10
901.048298373805
      20
366.364610246868
      30
0
      10
901.048298373805
      20
366.364610246868
      30
0
      10
901.012379869505
      20
366.666667381094
      30
0
      10
901.00814006976
      20
366.970726164182
      30
0
      10
901.01171445701
      20
367.274504154451
      30
0
    1001
FS_CYPCUT
    1000
Channel
    1070
1
    1000
LeadIn
    1002
{
    1070
3
    1040
8.49999999999999
    1040
1.5707963267949
    1040
0.5
    1040
0.3
    1070
0
    1040
0.5
    1070
0
    1002
}
    1000
LeadOut
    1002
{
    1070
0
    1040
0
    1040
0
    1040
0
    1070
0
    1002
}
    1000
IsFill
    1070
0
    1000
PathStart
    1040
8.49999999999999
    1000
ToolCompensation
    1002
{
    1070
0
    1040
0
    1070
0
    1002
}
       0
LWPOLYLINE
       5
2031
     100
AcDbEntity
       8
1
     100
AcDbPolyline
      90
4
      70
1
      10
864.10769806565
      20
497.55667730635
      42
0
      10
864.10769806565
      20
477.14828524605
      42
0
      10
870.60769806565
      20
477.14828524605
      42
0
      10
870.60769806565
      20
497.55667730635
      42
0
    1001
FS_CYPCUT
    1000
Channel
    1070
1
    1000
LeadIn
    1002
{
    1070
3
    1040
0.5
    1040
1.5707963267949
    1040
0.5
    1040
0.3
    1070
0
    1040
0.5
    1070
0
    1002
}
    1000
LeadOut
    1002
{
    1070
0
    1040
0
    1040
0
    1040
0
    1070
0
    1002
}
    1000
IsFill
    1070
0
    1000
PathStart
    1040
0.5
    1000
ToolCompensation
    1002
{
    1070
0
    1040
0
    1070
0
    1002
}
       0
LWPOLYLINE
       5
2032
     100
AcDbEntity
       8
1
     100
AcDbPolyline
      90
12
      70
1
      10
742.00769806565
      20
1102.00769806565
      42
0
      10
742.00769806565
      20
-742.00769806565
      42
0
      10
864.10769806565
      20
-742.00769806565
      42
0
      10
864.10769806565
      20
-731.85324779845
      42
0
      10
870.60769806565
      20
-731.85324779845
      42
0
      10
870.60769806565
      20
-742.00769806565
      42
0
      10
1102.00769806565
      20
-742.00769806565
      42
0
      10
1102.00769806565
      20
1102.00769806565
      42
0
      10
870.60769806565
      20
1102.00769806565
      42
0
      10
870.60769806565
      20
1091.85324779845
      42
0
      10
864.10769806565
      20
1091.85324779845
      42
0
      10
864.10769806565
      20
1102.00769806565
      42
0
    1001
FS_CYPCUT
    1000
Channel
    1070
1
    1000
LeadIn
    1002
{
    1070
3
    1040
0.5
    1040
1.5707963267949
    1040
0.5
    1040
0.3
    1070
0
    1040
0.5
    1070
0
    1002
}
    1000
LeadOut
    1002
{
    1070
0
    1040
0
    1040
0
    1040
0
    1070
0
    1002
}
    1000
IsFill
    1070
1
    1000
PathStart
    1040
0.5
    1000
ToolCompensation
    1002
{
    1070
0
    1040
0
    1070
0
    1002
}
    1000
MicroConnect
    1002
{
    1070
6
    1040
0.146438897
    1041
0.6
    1042
0
    1040
0.559879638
    1041
0.6
    1042
0
    1040
0.86633352
    1041
0.6
    1042
0
    1040
6.13547982
    1041
0.6
    1042
0
    1040
6.55073389
    1041
0.6
    1042
0
    1040
6.86081445
    1041
0.6
    1042
0
    1002
}
       0
ENDBLK
       5
2033
     330
2003
     100
AcDbEntity
       8
0
     100
AcDbBlockEnd
       0
BLOCK
       5
2034
     330
2004
     100
AcDbEntity
       8
0
     100
AcDbBlockBegin
       2
Part
      70
0
      10
742.007698
      20
-742.007698
      30
0
       3
Part
       1

       4
CypCutBlock
       0
LWPOLYLINE
       5
2035
     100
AcDbEntity
       8
1
     100
AcDbPolyline
      90
4
      70
1
      10
864.10769806565
      20
-117.14828524605
      42
0
      10
870.60769806565
      20
-117.14828524605
      42
0
      10
870.60769806565
      20
-137.55667730635
      42
0
      10
864.10769806565
      20
-137.55667730635
      42
0
    1001
FS_CYPCUT
    1000
Channel
    1070
1
    1000
LeadIn
    1002
{
    1070
3
    1040
1.5
    1040
1.5707963267949
    1040
0.5
    1040
0.3
    1070
0
    1040
0.5
    1070
0
    1002
}
    1000
LeadOut
    1002
{
    1070
0
    1040
0
    1040
0
    1040
0
    1070
0
    1002
}
    1000
IsFill
    1070
0
    1000
PathStart
    1040
1.5
    1000
ToolCompensation
    1002
{
    1070
0
    1040
0
    1070
0
    1002
}
       0
SPLINE
       5
2036
     100
AcDbEntity
       8
1
     100
AcDbSpline
      70
0
      71
3
      72
56
      73
52
      74
0
      40
0
      40
0
      40
0
      40
0
      40
0.0769230769230769
      40
0.0769230769230769
      40
0.0769230769230769
      40
0.0769230769230769
      40
0.153846153846154
      40
0.153846153846154
      40
0.153846153846154
      40
0.153846153846154
      40
0.230769230769231
      40
0.230769230769231
      40
0.230769230769231
      40
0.230769230769231
      40
0.307692307692308
      40
0.307692307692308
      40
0.307692307692308
      40
0.307692307692308
      40
0.384615384615385
      40
0.384615384615385
      40
0.384615384615385
      40
0.384615384615385
      40
0.461538461538462
      40
0.461538461538462
      40
0.461538461538462
      40
0.461538461538462
      40
0.538461538461538
      40
0.538461538461538
      40
0.538461538461538
      40
0.538461538461538
      40
0.615384615384615
      40
0.615384615384615
      40
0.615384615384615
      40
0.615384615384615
      40
0.692307692307692
      40
0.692307692307692
      40
0.692307692307692
      40
0.692307692307692
      40
0.769230769230769
      40
0.769230769230769
      40
0.769230769230769
      40
0.769230769230769
      40
0.846153846153846
      40
0.846153846153846
      40
0.846153846153846
      40
0.846153846153846
      40
0.923076923076923
      40
0.923076923076923
      40
0.923076923076923
      40
0.923076923076923
      40
1
      40
1
      40
1
      40
1
      10
913.00354247343
      20
-6.53601563592041
      30
0
      10
913.007320937278
      20
-6.23202170416538
      30
0
      10
913.003268382325
      20
-5.92774153702043
      30
0
      10
912.967499461229
      20
-5.62544608870563
      30
0
      10
912.967499461229
      20
-5.62544608870563
      30
0
      10
912.833088555895
      20
-4.36643834569951
      30
0
      10
912.298596783448
      20
-3.14923471104508
      30
0
      10
911.450512138702
      20
-2.20422212631114
      30
0
      10
911.450512138702
      20
-2.20422212631114
      30
0
      10
910.71046863595
      20
-1.36713621191096
      30
0
      10
909.731527664555
      20
-0.747206880847545
      30
0
      10
908.658971025791
      20
-0.433827241071628
      30
0
      10
908.658971025791
      20
-0.433827241071628
      30
0
      10
907.344342851367
      20
-0.0465432099681374
      30
0
      10
905.893626042525
      20
-0.138896548505942
      30
0
      10
904.640240443063
      20
-0.694956922520293
      30
0
      10
904.640240443063
      20
-0.694956922520293
      30
0
      10
903.287918428486
      20
-1.28070396075383
      30
0
      10
902.177371652643
      20
-2.3888020603391
      30
0
      10
901.569102816178
      20
-3.72929429675513
      30
0
      10
901.569102816178
      20
-3.72929429675513
      30
0
      10
901.165289424678
      20
-4.60548699120203
      30
0
      10
900.983410625111
      20
-5.57521145750012
      30
0
      10
901.011894278482
      20
-6.53720623598325
      30
0
      10
901.011894278482
      20
-6.53720623598325
      30
0
      10
901.011608827857
      20
-6.587537077222
      30
0
      10
901.011323377232
      20
-6.63786791846063
      30
0
      10
901.011037926607
      20
-6.68819875969938
      30
0
      10
901.011037926607
      20
-6.68819875969938
      30
0
      10
901.011199258832
      20
-6.73851628350222
      30
0
      10
901.011360591057
      20
-6.78883380730507
      30
0
      10
901.011521923282
      20
-6.83915133110792
      30
0
      10
901.011521923282
      20
-6.83915133110792
      30
0
      10
901.022809308186
      20
-8.19767827680276
      30
0
      10
901.50995765156
      20
-9.54993799833174
      30
0
      10
902.379111754061
      20
-10.5993739152972
      30
0
      10
902.379111754061
      20
-10.5993739152972
      30
0
      10
903.082174270412
      20
-11.4580289646336
      30
0
      10
904.026981742325
      20
-12.1134209052277
      30
0
      10
905.078289687116
      20
-12.4695587566384
      30
0
      10
905.078289687116
      20
-12.4695587566384
      30
0
      10
906.460714117182
      20
-12.946080846243
      30
0
      10
908.019599554079
      20
-12.8878333512407
      30
0
      10
909.361770241891
      20
-12.3062105516853
      30
0
      10
909.361770241891
      20
-12.3062105516853
      30
0
      10
910.709373621211
      20
-11.7363998832528
      30
0
      10
911.826674278361
      20
-10.6498632121236
      30
0
      10
912.440735110659
      20
-9.32223475405498
      30
0
      10
912.440735110659
      20
-9.32223475405498
      30
0
      10
912.847917867538
      20
-8.45477461923814
      30
0
      10
913.031900333872
      20
-7.49148574180332
      30
0
      10
913.003542720004
      20
-6.53602501313206
      30
0
    1001
FS_CYPCUT
    1000
Channel
    1070
1
    1000
LeadIn
    1002
{
    1070
3
    1040
4.5
    1040
1.5707963267949
    1040
0.5
    1040
0.3
    1070
0
    1040
0.5
    1070
0
    1002
}
    1000
LeadOut
    1002
{
    1070
0
    1040
0
    1040
0
    1040
0
    1070
0
    1002
}
    1000
IsFill
    1070
0
    1000
PathStart
    1040
4.5
    1000
ToolCompensation
    1002
{
    1070
0
    1040
0
    1070
0
    1002
}
       0
LINE
       5
2037
     100
AcDbEntity
       8
2
     100
AcDbLine
      10
807.00769806565
      20
180.00000000005
      30
0
      11
742.00769806565
      21
180.00000000005
      31
0
    1001
FS_CYPCUT
    1000
Channel
    1070
2
    1000
LeadIn
    1002
{
    1070
3
    1040
0
    1040
1.5707963267949
    1040
0.5
    1040
0.3
    1070
0
    1040
0.5
    1070
0
    1002
}
    1000
LeadOut
    1002
{
    1070
0
    1040
0
    1040
0
    1040
0
    1070
0
    1002
}
    1000
IsFill
    1070
0
    1000
PathStart
    1040
0
    1000
ToolCompensation
    1002
{
    1070
0
    1040
0
    1070
0
    1002
}
       0
SPLINE
       5
2038
     100
AcDbEntity
       8
1
     100
AcDbSpline
      70
0
      71
3
      72
108
      73
104
      74
0
      40
0
      40
0
      40
0
      40
0
      40
0.0384615384615385
      40
0.0384615384615385
      40
0.0384615384615385
      40
0.0384615384615385
      40
0.0769230769230769
      40
0.0769230769230769
      40
0.0769230769230769
      40
0.0769230769230769
      40
0.115384615384615
      40
0.115384615384615
      40
0.115384615384615
      40
0.115384615384615
      40
0.153846153846154
      40
0.153846153846154
      40
0.153846153846154
      40
0.153846153846154
      40
0.192307692307692
      40
0.192307692307692
      40
0.192307692307692
      40
0.192307692307692
      40
0.230769230769231
      40
0.230769230769231
      40
0.230769230769231
      40
0.230769230769231
      40
0.269230769230769
      40
0.269230769230769
      40
0.269230769230769
      40
0.269230769230769
      40
0.307692307692308
      40
0.307692307692308
      40
0.307692307692308
      40
0.307692307692308
      40
0.346153846153846
      40
0.346153846153846
      40
0.346153846153846
      40
0.346153846153846
      40
0.384615384615385
      40
0.384615384615385
      40
0.384615384615385
      40
0.384615384615385
      40
0.423076923076923
      40
0.423076923076923
      40
0.423076923076923
      40
0.423076923076923
      40
0.461538461538462
      40
0.461538461538462
      40
0.461538461538462
      40
0.461538461538462
      40
0.5
      40
0.5
      40
0.5
      40
0.5
      40
0.538461538461538
      40
0.538461538461538
      40
0.538461538461538
      40
0.538461538461538
      40
0.576923076923077
      40
0.576923076923077
      40
0.576923076923077
      40
0.576923076923077
      40
0.615384615384615
      40
0.615384615384615
      40
0.615384615384615
      40
0.615384615384615
      40
0.653846153846154
      40
0.653846153846154
      40
0.653846153846154
      40
0.653846153846154
      40
0.692307692307692
      40
0.692307692307692
      40
0.692307692307692
      40
0.692307692307692
      40
0.730769230769231
      40
0.730769230769231
      40
0.730769230769231
      40
0.730769230769231
      40
0.769230769230769
      40
0.769230769230769
      40
0.769230769230769
      40
0.769230769230769
      40
0.807692307692308
      40
0.807692307692308
      40
0.807692307692308
      40
0.807692307692308
      40
0.846153846153846
      40
0.846153846153846
      40
0.846153846153846
      40
0.846153846153846
      40
0.884615384615385
      40
0.884615384615385
      40
0.884615384615385
      40
0.884615384615385
      40
0.923076923076923
      40
0.923076923076923
      40
0.923076923076923
      40
0.923076923076923
      40
0.961538461538462
      40
0.961538461538462
      40
0.961538461538462
      40
0.961538461538462
      40
1
      40
1
      40
1
      40
1
      10
812.00769806565
      20
338.34036178225
      30
0
      10
875.341031398983
      20
338.34036178225
      30
0
      10
938.674364732317
      20
338.34036178225
      30
0
      10
1002.00769806565
      20
338.34036178225
      30
0
      10
1002.00769806565
      20
338.34036178225
      30
0
      10
1002.05196121386
      20
338.339079372181
      30
0
      10
1002.09622436206
      20
338.33779696208
      30
0
      10
1002.14048751027
      20
338.336514551978
      30
0
      10
1002.14048751027
      20
338.336514551978
      30
0
      10
1002.87110853771
      20
338.311197956158
      30
0
      10
1003.59339604305
      20
338.101764466709
      30
0
      10
1004.22511019168
      20
337.733388085476
      30
0
      10
1004.22511019168
      20
337.733388085476
      30
0
      10
1004.66719621039
      20
337.478572543018
      30
0
      10
1005.0675339209
      20
337.152076781048
      30
0
      10
1005.41182998802
      20
336.77623024744
      30
0
      10
1005.41182998802
      20
336.77623024744
      30
0
      10
1006.22450126853
      20
335.893446877146
      30
0
      10
1006.73726078455
      20
334.754872111674
      30
0
      10
1006.92177967594
      20
333.575391319965
      30
0
      10
1006.92177967594
      20
333.575391319965
      30
0
      10
1006.9802096012
      20
333.225392146657
      30
0
      10
1006.99978209817
      20
332.871156154622
      30
0
      10
1007.00769806565
      20
332.516927315682
      30
0
      10
1007.00769806565
      20
332.516927315682
      30
0
      10
1007.00769806565
      20
230.838975771883
      30
0
      10
1007.00769806565
      20
129.161024228117
      30
0
      10
1007.00769806565
      20
27.4830726843501
      30
0
      10
1007.00769806565
      20
27.4830726843501
      30
0
      10
1007.00132270953
      20
26.7749452681129
      30
0
      10
1006.8960725206
      20
26.065578114694
      30
0
      10
1006.67195278124
      20
25.3928951401331
      30
0
      10
1006.67195278124
      20
25.3928951401331
      30
0
      10
1006.40851510994
      20
24.5933235303417
      30
0
      10
1005.98270844505
      20
23.8446855235534
      30
0
      10
1005.41183070915
      20
23.223834463628
      30
0
      10
1005.41183070915
      20
23.223834463628
      30
0
      10
1004.70998601703
      20
22.4553877096145
      30
0
      10
1003.76406913289
      20
21.8963465534537
      30
0
      10
1002.73510986393
      20
21.7216678242958
      30
0
      10
1002.73510986393
      20
21.7216678242958
      30
0
      10
1002.58227372723
      20
21.6949616898746
      30
0
      10
1002.4280334052
      20
21.6777497759841
      30
0
      10
1002.27329505477
      20
21.6698653013573
      30
0
      10
1002.27329505477
      20
21.6698653013573
      30
0
      10
1002.22904947133
      20
21.6678985276449
      30
0
      10
1002.1848038879
      20
21.6659317539326
      30
0
      10
1002.14055830446
      20
21.6639649802202
      30
0
      10
1002.14055830446
      20
21.6639649802202
      30
0
      10
1002.09627155819
      20
21.6625227260563
      30
0
      10
1002.05198481192
      20
21.6610804718923
      30
0
      10
1002.00769806565
      20
21.6596382177285
      30
0
      10
1002.00769806565
      20
21.6596382177285
      30
0
      10
938.674364732317
      20
21.6596382177356
      30
0
      10
875.341031398983
      20
21.6596382177429
      30
0
      10
812.00769806565
      20
21.6596382177501
      30
0
      10
812.00769806565
      20
21.6596382177501
      30
0
      10
811.963434917444
      20
21.6609206278303
      30
0
      10
811.919171769237
      20
21.6622030379322
      30
0
      10
811.87490862103
      20
21.663485448034
      30
0
      10
811.87490862103
      20
21.663485448034
      30
0
      10
811.144287593586
      20
21.6888020438563
      30
0
      10
810.422000088246
      20
21.8982355332922
      30
0
      10
809.790285939625
      20
22.2666119145354
      30
0
      10
809.790285939625
      20
22.2666119145354
      30
0
      10
809.348199920907
      20
22.5214274569905
      30
0
      10
808.947862210386
      20
22.8479232189435
      30
0
      10
808.603566143272
      20
23.2237697525606
      30
0
      10
808.603566143272
      20
23.2237697525606
      30
0
      10
807.790894862866
      20
24.1065531229143
      30
0
      10
807.278135346732
      20
25.2451278883388
      30
0
      10
807.093616455332
      20
26.4246086800433
      30
0
      10
807.093616455332
      20
26.4246086800433
      30
0
      10
807.035186530085
      20
26.7746078533546
      30
0
      10
807.015614033135
      20
27.12884384539
      30
0
      10
807.00769806565
      20
27.4830726843292
      30
0
      10
807.00769806565
      20
27.4830726843292
      30
0
      10
807.00769806565
      20
129.161024228117
      30
0
      10
807.00769806565
      20
230.838975771883
      30
0
      10
807.00769806565
      20
332.51692731565
      30
0
      10
807.00769806565
      20
332.51692731565
      30
0
      10
807.014073421764
      20
333.225054731902
      30
0
      10
807.119323610728
      20
333.93442188531
      30
0
      10
807.343443350059
      20
334.607104859881
      30
0
      10
807.343443350059
      20
334.607104859881
      30
0
      10
807.606881021339
      20
335.406676469677
      30
0
      10
808.032687686239
      20
336.155314476471
      30
0
      10
808.603565422166
      20
336.776165536377
      30
0
      10
808.603565422166
      20
336.776165536377
      30
0
      10
809.305410114338
      20
337.544612290306
      30
0
      10
810.251326998378
      20
338.103653446655
      30
0
      10
811.280286267373
      20
338.278332175738
      30
0
      10
811.280286267373
      20
338.278332175738
      30
0
      10
811.433122404067
      20
338.305038310149
      30
0
      10
811.5873627261
      20
338.322250224034
      30
0
      10
811.742101076534
      20
338.330134698656
      30
0
      10
811.742101076534
      20
338.330134698656
      30
0
      10
811.786346659969
      20
338.332101472368
      30
0
      10
811.830592243403
      20
338.33406824608
      30
0
      10
811.874837826837
      20
338.336035019792
      30
0
      10
811.874837826837
      20
338.336035019792
      30
0
      10
811.919124573108
      20
338.337477273956
      30
0
      10
811.963411319379
      20
338.338919528119
      30
0
      10
812.00769806565
      20
338.340361782283
      30
0
    1001
FS_CYPCUT
    1000
Channel
    1070
1
    1000
LeadIn
    1002
{
    1070
3
    1040
6.5
    1040
1.5707963267949
    1040
0.5
    1040
0.3
    1070
0
    1040
0.5
    1070
0
    1002
}
    1000
LeadOut
    1002
{
    1070
0
    1040
0
    1040
0
    1040
0
    1070
0
    1002
}
    1000
IsFill
    1070
0
    1000
PathStart
    1040
6.5
    1000
ToolCompensation
    1002
{
    1070
0
    1040
0
    1070
0
    1002
}
    1000
MicroConnect
    1002
{
    1070
2
    1040
6.21238158
    1041
0.6
    1042
0
    1040
19.2614362
    1041
0.6
    1042
0
    1002
}
       0
LINE
       5
2039
     100
AcDbEntity
       8
2
     100
AcDbLine
      10
1007.00769806565
      20
180.00000000005
      30
0
      11
1102.00769806565
      21
180.00000000005
      31
0
    1001
FS_CYPCUT
    1000
Channel
    1070
2
    1000
LeadIn
    1002
{
    1070
3
    1040
0
    1040
1.5707963267949
    1040
0.5
    1040
0.3
    1070
0
    1040
0.5
    1070
0
    1002
}
    1000
LeadOut
    1002
{
    1070
0
    1040
0
    1040
0
    1040
0
    1070
0
    1002
}
    1000
IsFill
    1070
0
    1000
PathStart
    1040
0
    1000
ToolCompensation
    1002
{
    1070
0
    1040
0
    1070
0
    1002
}
       0
SPLINE
       5
203A
     100
AcDbEntity
       8
1
     100
AcDbSpline
      70
0
      71
3
      72
56
      73
52
      74
0
      40
0
      40
0
      40
0
      40
0
      40
0.0769230769230769
      40
0.0769230769230769
      40
0.0769230769230769
      40
0.0769230769230769
      40
0.153846153846154
      40
0.153846153846154
      40
0.153846153846154
      40
0.153846153846154
      40
0.230769230769231
      40
0.230769230769231
      40
0.230769230769231
      40
0.230769230769231
      40
0.307692307692308
      40
0.307692307692308
      40
0.307692307692308
      40
0.307692307692308
      40
0.384615384615385
      40
0.384615384615385
      40
0.384615384615385
      40
0.384615384615385
      40
0.461538461538462
      40
0.461538461538462
      40
0.461538461538462
      40
0.461538461538462
      40
0.538461538461538
      40
0.538461538461538
      40
0.538461538461538
      40
0.538461538461538
      40
0.615384615384615
      40
0.615384615384615
      40
0.615384615384615
      40
0.615384615384615
      40
0.692307692307692
      40
0.692307692307692
      40
0.692307692307692
      40
0.692307692307692
      40
0.769230769230769
      40
0.769230769230769
      40
0.769230769230769
      40
0.769230769230769
      40
0.846153846153846
      40
0.846153846153846
      40
0.846153846153846
      40
0.846153846153846
      40
0.923076923076923
      40
0.923076923076923
      40
0.923076923076923
      40
0.923076923076923
      40
1
      40
1
      40
1
      40
1
      10
901.01171445701
      20
367.274504154451
      30
0
      10
900.983962393631
      20
368.22955924874
      30
0
      10
901.168548772578
      20
369.192295691039
      30
0
      10
901.576136397918
      20
370.059090655186
      30
0
      10
901.576136397918
      20
370.059090655186
      30
0
      10
902.190900358825
      20
371.38567678083
      30
0
      10
903.308413285071
      20
372.470932008535
      30
0
      10
904.655700622701
      20
373.039777732545
      30
0
      10
904.655700622701
      20
373.039777732545
      30
0
      10
905.997554579554
      20
373.620495866748
      30
0
      10
907.555617076212
      20
373.678289623123
      30
0
      10
908.937445063512
      20
373.202076483825
      30
0
      10
908.937445063512
      20
373.202076483825
      30
0
      10
909.988229126557
      20
372.846060775383
      30
0
      10
910.932817277831
      20
372.19125805753
      30
0
      10
911.635784251818
      20
371.333183967035
      30
0
      10
911.635784251818
      20
371.333183967035
      30
0
      10
912.504715140333
      20
370.28438919776
      30
0
      10
912.992511823814
      20
368.933070454852
      30
0
      10
913.003903686816
      20
367.575069488114
      30
0
      10
913.003903686816
      20
367.575069488114
      30
0
      10
913.004081803952
      20
367.524774405986
      30
0
      10
913.004259921088
      20
367.474479323858
      30
0
      10
913.004438038224
      20
367.424184241729
      30
0
      10
913.004438038224
      20
367.424184241729
      30
0
      10
913.004170709118
      20
367.373875744926
      30
0
      10
913.003903380013
      20
367.323567248124
      30
0
      10
913.003636050907
      20
367.273258751321
      30
0
      10
913.003636050907
      20
367.273258751321
      30
0
      10
913.031504225516
      20
366.311900189208
      30
0
      10
912.848177722107
      20
365.34315729441
      30
0
      10
912.444168332213
      20
364.467886828553
      30
0
      10
912.444168332213
      20
364.467886828553
      30
0
      10
911.834954563192
      20
363.129025214901
      30
0
      10
910.724264913775
      20
362.022691848959
      30
0
      10
909.372507293592
      20
361.438387317979
      30
0
      10
909.372507293592
      20
361.438387317979
      30
0
      10
908.11961278342
      20
360.883687447976
      30
0
      10
906.670150743274
      20
360.791663435786
      30
0
      10
905.356408590758
      20
361.178568344016
      30
0
      10
905.356408590758
      20
361.178568344016
      30
0
      10
904.284599341581
      20
361.491578893565
      30
0
      10
903.306175485321
      20
362.110669066348
      30
0
      10
902.566188470607
      20
362.946719738383
      30
0
      10
902.566188470607
      20
362.946719738383
      30
0
      10
901.718225671177
      20
363.890602041735
      30
0
      10
901.183315800635
      20
365.106570175617
      30
0
      10
901.048298373805
      20
366.364610246868
      30
0
      10
901.048298373805
      20
366.364610246868
      30
0
      10
901.012379869505
      20
366.666667381094
      30
0
      10
901.00814006976
      20
366.970726164182
      30
0
      10
901.01171445701
      20
367.274504154451
      30
0
    1001
FS_CYPCUT
    1000
Channel
    1070
1
    1000
LeadIn
    1002
{
    1070
3
    1040
8.49999999999999
    1040
1.5707963267949
    1040
0.5
    1040
0.3
    1070
0
    1040
0.5
    1070
0
    1002
}
    1000
LeadOut
    1002
{
    1070
0
    1040
0
    1040
0
    1040
0
    1070
0
    1002
}
    1000
IsFill
    1070
0
    1000
PathStart
    1040
8.49999999999999
    1000
ToolCompensation
    1002
{
    1070
0
    1040
0
    1070
0
    1002
}
       0
LWPOLYLINE
       5
203B
     100
AcDbEntity
       8
1
     100
AcDbPolyline
      90
4
      70
1
      10
864.10769806565
      20
497.55667730635
      42
0
      10
864.10769806565
      20
477.14828524605
      42
0
      10
870.60769806565
      20
477.14828524605
      42
0
      10
870.60769806565
      20
497.55667730635
      42
0
    1001
FS_CYPCUT
    1000
Channel
    1070
1
    1000
LeadIn
    1002
{
    1070
3
    1040
0.5
    1040
1.5707963267949
    1040
0.5
    1040
0.3
    1070
0
    1040
0.5
    1070
0
    1002
}
    1000
LeadOut
    1002
{
    1070
0
    1040
0
    1040
0
    1040
0
    1070
0
    1002
}
    1000
IsFill
    1070
0
    1000
PathStart
    1040
0.5
    1000
ToolCompensation
    1002
{
    1070
0
    1040
0
    1070
0
    1002
}
       0
LWPOLYLINE
       5
203C
     100
AcDbEntity
       8
1
     100
AcDbPolyline
      90
12
      70
1
      10
742.00769806565
      20
1102.00769806565
      42
0
      10
742.00769806565
      20
-742.00769806565
      42
0
      10
864.10769806565
      20
-742.00769806565
      42
0
      10
864.10769806565
      20
-731.85324779845
      42
0
      10
870.60769806565
      20
-731.85324779845
      42
0
      10
870.60769806565
      20
-742.00769806565
      42
0
      10
1102.00769806565
      20
-742.00769806565
      42
0
      10
1102.00769806565
      20
1102.00769806565
      42
0
      10
870.60769806565
      20
1102.00769806565
      42
0
      10
870.60769806565
      20
1091.85324779845
      42
0
      10
864.10769806565
      20
1091.85324779845
      42
0
      10
864.10769806565
      20
1102.00769806565
      42
0
    1001
FS_CYPCUT
    1000
Channel
    1070
1
    1000
LeadIn
    1002
{
    1070
3
    1040
0.5
    1040
1.5707963267949
    1040
0.5
    1040
0.3
    1070
0
    1040
0.5
    1070
0
    1002
}
    1000
LeadOut
    1002
{
    1070
0
    1040
0
    1040
0
    1040
0
    1070
0
    1002
}
    1000
IsFill
    1070
1
    1000
PathStart
    1040
0.5
    1000
ToolCompensation
    1002
{
    1070
0
    1040
0
    1070
0
    1002
}
    1000
MicroConnect
    1002
{
    1070
6
    1040
0.146438897
    1041
0.6
    1042
0
    1040
0.559879638
    1041
0.6
    1042
0
    1040
0.86633352
    1041
0.6
    1042
0
    1040
6.13547982
    1041
0.6
    1042
0
    1040
6.55073389
    1041
0.6
    1042
0
    1040
6.86081445
    1041
0.6
    1042
0
    1002
}
       0
ENDBLK
       5
203D
     330
2004
     100
AcDbEntity
       8
0
     100
AcDbBlockEnd
       0
BLOCK
       5
203E
     330
2005
     100
AcDbEntity
       8
0
     100
AcDbBlockBegin
       2
Part526636546
      70
0
      10
-84
      20
-106
      30
0
       3
Part526636546
       1

       4
CypCutBlock
       0
CIRCLE
       5
203F
     100
AcDbEntity
       8
1
     100
AcDbCircle
      10
0
      20
-93.5
      30
0
      40
5.15
    1001
FS_CYPCUT
    1000
Channel
    1070
1
    1000
LeadIn
    1002
{
    1070
3
    1040
0
    1040
1.5707963267949
    1040
2
    1040
1
    1070
0
    1040
0.5
    1070
0
    1002
}
    1000
LeadOut
    1002
{
    1070
0
    1040
0
    1040
0
    1040
0
    1070
0
    1002
}
    1000
IsFill
    1070
0
    1000
PathStart
    1040
1
    1000
ToolCompensation
    1002
{
    1070
0
    1040
0
    1070
0
    1002
}
       0
LWPOLYLINE
       5
2040
     100
AcDbEntity
       8
1
     100
AcDbPolyline
      90
8
      70
1
      10
84
      20
10
      42
0
      10
84
      20
-96
      42
-0.414213562373095
      10
74
      20
-106
      42
0
      10
-74
      20
-106
      42
-0.414213562373095
      10
-84
      20
-96
      42
0
      10
-84
      20
10
      42
-0.414213562373101
      10
-83
      20
11
      42
0
      10
83
      20
11
      42
-0.414213562373101
    1001
FS_CYPCUT
    1000
Channel
    1070
1
    1000
LeadIn
    1002
{
    1070
3
    1040
6.5
    1040
1.5707963267949
    1040
2
    1040
1
    1070
0
    1040
0.5
    1070
0
    1002
}
    1000
LeadOut
    1002
{
    1070
0
    1040
0
    1040
0
    1040
0
    1070
0
    1002
}
    1000
IsFill
    1070
1
    1000
PathStart
    1040
6.5
    1000
ToolCompensation
    1002
{
    1070
0
    1040
0
    1070
0
    1002
}
    1000
MicroConnect
    1002
{
    1070
2
    1040
2.5
    1041
0.6
    1042
0
    1040
6.47109413
    1041
0.6
    1042
0
    1002
}
       0
ENDBLK
       5
2041
     330
2005
     100
AcDbEntity
       8
0
     100
AcDbBlockEnd
       0
BLOCK
       5
2042
     330
2006
     100
AcDbEntity
       8
0
     100
AcDbBlockBegin
       2
Part1291157273
      70
0
      10
-293.479376
      20
-293.479376
      30
0
       3
Part1291157273
       1

       4
CypCutBlock
       0
LWPOLYLINE
       5
2043
     100
AcDbEntity
       8
1
     100
AcDbPolyline
      90
12
      70
1
      10
135
      20
0
      42
0
      10
129.9038105677
      20
5
      42
0.391853157388552
      10
5.00000000006342
      20
129.903810567664
      42
0
      10
0
      20
135
      42
0
      10
-5.00000000006343
      20
129.903810567664
      42
0.391853157388552
      10
-129.903810567664
      20
5.00000000006342
      42
0
      10
-135
      20
0
      42
0
      10
-129.903810567664
      20
-5.00000000006339
      42
0.391853157388552
      10
-5
      20
-129.9038105677
      42
0
      10
0
      20
-135
      42
0
      10
5.00000000006344
      20
-129.903810567664
      42
0.391853157388552
      10
129.9038105677
      20
-5
      42
0
    1001
FS_CYPCUT
    1000
Channel
    1070
1
    1000
LeadIn
    1002
{
    1070
3
    1040
1.5
    1040
1.5707963267949
    1040
1
    1040
1
    1070
0
    1040
0.5
    1070
0
    1002
}
    1000
LeadOut
    1002
{
    1070
0
    1040
0
    1040
0
    1040
0
    1070
0
    1002
}
    1000
IsFill
    1070
0
    1000
PathStart
    1040
1.5
    1000
ToolCompensation
    1002
{
    1070
0
    1040
0
    1070
0
    1002
}
    1000
MicroConnect
    1002
{
    1070
3
    1040
1.4967334
    1041
0.6
    1042
0
    1040
4.92477741
    1041
0.6
    1042
0
    1040
7.90801456
    1041
0.6
    1042
0
    1002
}
       0
LWPOLYLINE
       5
2044
     100
AcDbEntity
       8
1
     100
AcDbPolyline
      90
12
      70
1
      10
293.4793756722
      20
3.4793756722
      42
0
      10
290
      20
0
      42
0
      10
293.4793756722
      20
-3.4793756722
      42
-0.407285962800492
      10
3.47937567218405
      20
-293.479375672178
      42
0
      10
0
      20
-290
      42
0
      10
-3.47937567218416
      20
-293.479375672178
      42
-0.407285962800492
      10
-293.479375672178
      20
-3.47937567218407
      42
0
      10
-290
      20
0
      42
0
      10
-293.4793756722
      20
3.4793756722
      42
-0.407285962800492
      10
-3.4793756722
      20
293.4793756722
      42
0
      10
0
      20
290
      42
0
      10
3.4793756722
      20
293.4793756722
      42
-0.407285962800492
    1001
FS_CYPCUT
    1000
Channel
    1070
1
    1000
LeadIn
    1002
{
    1070
3
    1040
2.5
    1040
1.5707963267949
    1040
1
    1040
1
    1070
0
    1040
0.5
    1070
0
    1002
}
    1000
LeadOut
    1002
{
    1070
0
    1040
0
    1040
0
    1040
0
    1070
0
    1002
}
    1000
IsFill
    1070
1
    1000
PathStart
    1040
2.5
    1000
ToolCompensation
    1002
{
    1070
0
    1040
0
    1070
0
    1002
}
    1000
MicroConnect
    1002
{
    1070
3
    1040
2.49844247
    1041
0.6
    1042
0
    1040
5.73595633
    1041
0.6
    1042
0
    1040
11.0307539
    1041
0.6
    1042
0
    1002
}
       0
ENDBLK
       5
2045
     330
2006
     100
AcDbEntity
       8
0
     100
AcDbBlockEnd
       0
BLOCK
       5
2046
     330
2007
     100
AcDbEntity
       8
0
     100
AcDbBlockBegin
       2
Part1600436750
      70
0
      10
-84
      20
-106
      30
0
       3
Part1600436750
       1

       4
CypCutBlock
       0
CIRCLE
       5
2047
     100
AcDbEntity
       8
1
     100
AcDbCircle
      10
0
      20
-93.5
      30
0
      40
5.15
    1001
FS_CYPCUT
    1000
Channel
    1070
1
    1000
LeadIn
    1002
{
    1070
3
    1040
0
    1040
1.5707963267949
    1040
2
    1040
1
    1070
0
    1040
0.5
    1070
0
    1002
}
    1000
LeadOut
    1002
{
    1070
0
    1040
0
    1040
0
    1040
0
    1070
0
    1002
}
    1000
IsFill
    1070
0
    1000
PathStart
    1040
1
    1000
ToolCompensation
    1002
{
    1070
0
    1040
0
    1070
0
    1002
}
       0
LWPOLYLINE
       5
2048
     100
AcDbEntity
       8
1
     100
AcDbPolyline
      90
8
      70
1
      10
84
      20
10
      42
0
      10
84
      20
-96
      42
-0.414213562373095
      10
74
      20
-106
      42
0
      10
-74
      20
-106
      42
-0.414213562373095
      10
-84
      20
-96
      42
0
      10
-84
      20
10
      42
-0.414213562373101
      10
-83
      20
11
      42
0
      10
83
      20
11
      42
-0.414213562373101
    1001
FS_CYPCUT
    1000
Channel
    1070
1
    1000
LeadIn
    1002
{
    1070
3
    1040
6.5
    1040
1.5707963267949
    1040
2
    1040
1
    1070
0
    1040
0.5
    1070
0
    1002
}
    1000
LeadOut
    1002
{
    1070
0
    1040
0
    1040
0
    1040
0
    1070
0
    1002
}
    1000
IsFill
    1070
1
    1000
PathStart
    1040
6.5
    1000
ToolCompensation
    1002
{
    1070
0
    1040
0
    1070
0
    1002
}
    1000
MicroConnect
    1002
{
    1070
2
    1040
2.5
    1041
0.6
    1042
0
    1040
6.47109413
    1041
0.6
    1042
0
    1002
}
       0
ENDBLK
       5
2049
     330
2007
     100
AcDbEntity
       8
0
     100
AcDbBlockEnd
       0
BLOCK
       5
204A
     330
2008
     100
AcDbEntity
       8
0
     100
AcDbBlockBegin
       2
Part1663640964
      70
0
      10
-293.479376
      20
-293.479376
      30
0
       3
Part1663640964
       1

       4
CypCutBlock
       0
LWPOLYLINE
       5
204B
     100
AcDbEntity
       8
1
     100
AcDbPolyline
      90
12
      70
1
      10
135
      20
0
      42
0
      10
129.9038105677
      20
5
      42
0.391853157388552
      10
5.00000000006342
      20
129.903810567664
      42
0
      10
0
      20
135
      42
0
      10
-5.00000000006343
      20
129.903810567664
      42
0.391853157388552
      10
-129.903810567664
      20
5.00000000006342
      42
0
      10
-135
      20
0
      42
0
      10
-129.903810567664
      20
-5.00000000006339
      42
0.391853157388552
      10
-5
      20
-129.9038105677
      42
0
      10
0
      20
-135
      42
0
      10
5.00000000006344
      20
-129.903810567664
      42
0.391853157388552
      10
129.9038105677
      20
-5
      42
0
    1001
FS_CYPCUT
    1000
Channel
    1070
1
    1000
LeadIn
    1002
{
    1070
3
    1040
1.5
    1040
1.5707963267949
    1040
1
    1040
1
    1070
0
    1040
0.5
    1070
0
    1002
}
    1000
LeadOut
    1002
{
    1070
0
    1040
0
    1040
0
    1040
0
    1070
0
    1002
}
    1000
IsFill
    1070
0
    1000
PathStart
    1040
1.5
    1000
ToolCompensation
    1002
{
    1070
0
    1040
0
    1070
0
    1002
}
    1000
MicroConnect
    1002
{
    1070
3
    1040
1.4967334
    1041
0.6
    1042
0
    1040
4.92477741
    1041
0.6
    1042
0
    1040
7.90801456
    1041
0.6
    1042
0
    1002
}
       0
LWPOLYLINE
       5
204C
     100
AcDbEntity
       8
1
     100
AcDbPolyline
      90
12
      70
1
      10
293.4793756722
      20
3.4793756722
      42
0
      10
290
      20
0
      42
0
      10
293.4793756722
      20
-3.4793756722
      42
-0.407285962800492
      10
3.47937567218405
      20
-293.479375672178
      42
0
      10
0
      20
-290
      42
0
      10
-3.47937567218416
      20
-293.479375672178
      42
-0.407285962800492
      10
-293.479375672178
      20
-3.47937567218407
      42
0
      10
-290
      20
0
      42
0
      10
-293.4793756722
      20
3.4793756722
      42
-0.407285962800492
      10
-3.4793756722
      20
293.4793756722
      42
0
      10
0
      20
290
      42
0
      10
3.4793756722
      20
293.4793756722
      42
-0.407285962800492
    1001
FS_CYPCUT
    1000
Channel
    1070
1
    1000
LeadIn
    1002
{
    1070
3
    1040
2.5
    1040
1.5707963267949
    1040
1
    1040
1
    1070
0
    1040
0.5
    1070
0
    1002
}
    1000
LeadOut
    1002
{
    1070
0
    1040
0
    1040
0
    1040
0
    1070
0
    1002
}
    1000
IsFill
    1070
1
    1000
PathStart
    1040
2.5
    1000
ToolCompensation
    1002
{
    1070
0
    1040
0
    1070
0
    1002
}
    1000
MicroConnect
    1002
{
    1070
3
    1040
2.49844247
    1041
0.6
    1042
0
    1040
5.73595633
    1041
0.6
    1042
0
    1040
11.0307539
    1041
0.6
    1042
0
    1002
}
       0
ENDBLK
       5
204D
     330
2008
     100
AcDbEntity
       8
0
     100
AcDbBlockEnd
       0
BLOCK
       5
204E
     330
2009
     100
AcDbEntity
       8
0
     100
AcDbBlockBegin
       2
Part1353286655
      70
0
      10
-1.0658141E-14
      20
-174.998788
      30
0
       3
Part1353286655
       1

       4
CypCutBlock
       0
LWPOLYLINE
       5
204F
     100
AcDbEntity
       8
1
     100
AcDbPolyline
      90
4
      70
1
      10
30.2
      20
15.2512124133
      42
0
      10
30.2
      20
11.7512124133
      42
0
      10
9.8
      20
11.7512124133
      42
0
      10
9.8
      20
15.2512124133
      42
0
    1001
FS_CYPCUT
    1000
Channel
    1070
1
    1000
LeadIn
    1002
{
    1070
3
    1040
1.5
    1040
1.5707963267949
    1040
2
    1040
1
    1070
0
    1040
0.5
    1070
0
    1002
}
    1000
LeadOut
    1002
{
    1070
0
    1040
0
    1040
0
    1040
0
    1070
0
    1002
}
    1000
IsFill
    1070
0
    1000
PathStart
    1040
1.5
    1000
ToolCompensation
    1002
{
    1070
0
    1040
0
    1070
0
    1002
}
       0
CIRCLE
       5
2050
     100
AcDbEntity
       8
1
     100
AcDbCircle
      10
50
      20
101.264282472
      30
0
      40
20
    1001
FS_CYPCUT
    1000
Channel
    1070
1
    1000
LeadIn
    1002
{
    1070
3
    1040
0
    1040
1.5707963267949
    1040
2
    1040
1
    1070
0
    1040
0.5
    1070
0
    1002
}
    1000
LeadOut
    1002
{
    1070
0
    1040
0
    1040
0
    1040
0
    1070
0
    1002
}
    1000
IsFill
    1070
0
    1000
PathStart
    1040
0
    1000
ToolCompensation
    1002
{
    1070
0
    1040
0
    1070
0
    1002
}
       0
LINE
       5
2051
     100
AcDbEntity
       8
2
     100
AcDbLine
      10
0
      20
132.2460301762
      30
0
      11
550
      21
132.2460301762
      31
0
    1001
FS_CYPCUT
    1000
Channel
    1070
2
    1000
LeadIn
    1002
{
    1070
0
    1040
0
    1040
0
    1040
0
    1040
0
    1070
0
    1040
0
    1070
0
    1002
}
    1000
LeadOut
    1002
{
    1070
0
    1040
0
    1040
0
    1040
0
    1070
0
    1002
}
    1000
IsFill
    1070
0
    1000
PathStart
    1040
0
    1000
ToolCompensation
    1002
{
    1070
0
    1040
0
    1070
0
    1002
}
       0
CIRCLE
       5
2052
     100
AcDbEntity
       8
1
     100
AcDbCircle
      10
275
      20
101.264282472
      30
0
      40
20.0000000000001
    1001
FS_CYPCUT
    1000
Channel
    1070
1
    1000
LeadIn
    1002
{
    1070
3
    1040
8.32667268468867E-17
    1040
1.5707963267949
    1040
2
    1040
1
    1070
0
    1040
0.5
    1070
0
    1002
}
    1000
LeadOut
    1002
{
    1070
0
    1040
0
    1040
0
    1040
0
    1070
0
    1002
}
    1000
IsFill
    1070
0
    1000
PathStart
    1040
8.32667268468867E-17
    1000
ToolCompensation
    1002
{
    1070
0
    1040
0
    1070
0
    1002
}
       0
CIRCLE
       5
2053
     100
AcDbEntity
       8
1
     100
AcDbCircle
      10
162.5
      20
101.264282472
      30
0
      40
19.9999999999999
    1001
FS_CYPCUT
    1000
Channel
    1070
1
    1000
LeadIn
    1002
{
    1070
3
    1040
0
    1040
1.5707963267949
    1040
2
    1040
1
    1070
0
    1040
0.5
    1070
0
    1002
}
    1000
LeadOut
    1002
{
    1070
0
    1040
0
    1040
0
    1040
0
    1070
0
    1002
}
    1000
IsFill
    1070
0
    1000
PathStart
    1040
0
    1000
ToolCompensation
    1002
{
    1070
0
    1040
0
    1070
0
    1002
}
       0
LWPOLYLINE
       5
2054
     100
AcDbEntity
       8
1
     100
AcDbPolyline
      90
4
      70
1
      10
285.2
      20
15.2512124133
      42
0
      10
264.8
      20
15.2512124133
      42
0
      10
264.8
      20
11.7512124133
      42
0
      10
285.2
      20
11.7512124133
      42
0
    1001
FS_CYPCUT
    1000
Channel
    1070
1
    1000
LeadIn
    1002
{
    1070
3
    1040
0.5
    1040
1.5707963267949
    1040
2
    1040
1
    1070
0
    1040
0.5
    1070
0
    1002
}
    1000
LeadOut
    1002
{
    1070
0
    1040
0
    1040
0
    1040
0
    1070
0
    1002
}
    1000
IsFill
    1070
0
    1000
PathStart
    1040
0.5
    1000
ToolCompensation
    1002
{
    1070
0
    1040
0
    1070
0
    1002
}
       0
CIRCLE
       5
2055
     100
AcDbEntity
       8
1
     100
AcDbCircle
      10
196
      20
-56.9987875867
      30
0
      40
17.5000000000001
    1001
FS_CYPCUT
    1000
Channel
    1070
1
    1000
LeadIn
    1002
{
    1070
3
    1040
0
    1040
1.5707963267949
    1040
2
    1040
1
    1070
0
    1040
0.5
    1070
0
    1002
}
    1000
LeadOut
    1002
{
    1070
0
    1040
0
    1040
0
    1040
0
    1070
0
    1002
}
    1000
IsFill
    1070
0
    1000
PathStart
    1040
1
    1000
ToolCompensation
    1002
{
    1070
0
    1040
0
    1070
0
    1002
}
       0
LINE
       5
2056
     100
AcDbEntity
       8
2
     100
AcDbLine
      10
0
      20
21.5006062066
      30
0
      11
550
      21
21.5006062066
      31
0
    1001
FS_CYPCUT
    1000
Channel
    1070
2
    1000
LeadIn
    1002
{
    1070
0
    1040
0
    1040
0
    1040
0
    1040
0
    1070
0
    1040
0
    1070
0
    1002
}
    1000
LeadOut
    1002
{
    1070
0
    1040
0
    1040
0
    1040
0
    1070
0
    1002
}
    1000
IsFill
    1070
0
    1000
PathStart
    1040
0
    1000
ToolCompensation
    1002
{
    1070
0
    1040
0
    1070
0
    1002
}
       0
CIRCLE
       5
2057
     100
AcDbEntity
       8
1
     100
AcDbCircle
      10
180
      20
-144.9987875867
      30
0
      40
8.00000000000006
    1001
FS_CYPCUT
    1000
Channel
    1070
1
    1000
LeadIn
    1002
{
    1070
3
    1040
0
    1040
1.5707963267949
    1040
2
    1040
1
    1070
0
    1040
0.5
    1070
0
    1002
}
    1000
LeadOut
    1002
{
    1070
0
    1040
0
    1040
0
    1040
0
    1070
0
    1002
}
    1000
IsFill
    1070
0
    1000
PathStart
    1040
0
    1000
ToolCompensation
    1002
{
    1070
0
    1040
0
    1070
0
    1002
}
       0
CIRCLE
       5
2058
     100
AcDbEntity
       8
1
     100
AcDbCircle
      10
387.5
      20
101.264282472
      30
0
      40
19.9999999999999
    1001
FS_CYPCUT
    1000
Channel
    1070
1
    1000
LeadIn
    1002
{
    1070
3
    1040
8.32667268468867E-17
    1040
1.5707963267949
    1040
2
    1040
1
    1070
0
    1040
0.5
    1070
0
    1002
}
    1000
LeadOut
    1002
{
    1070
0
    1040
0
    1040
0
    1040
0
    1070
0
    1002
}
    1000
IsFill
    1070
0
    1000
PathStart
    1040
8.32667268468867E-17
    1000
ToolCompensation
    1002
{
    1070
0
    1040
0
    1070
0
    1002
}
       0
CIRCLE
       5
2059
     100
AcDbEntity
       8
1
     100
AcDbCircle
      10
500
      20
101.264282472
      30
0
      40
20
    1001
FS_CYPCUT
    1000
Channel
    1070
1
    1000
LeadIn
    1002
{
    1070
3
    1040
0
    1040
1.5707963267949
    1040
2
    1040
1
    1070
0
    1040
0.5
    1070
0
    1002
}
    1000
LeadOut
    1002
{
    1070
0
    1040
0
    1040
0
    1040
0
    1070
0
    1002
}
    1000
IsFill
    1070
0
    1000
PathStart
    1040
0
    1000
ToolCompensation
    1002
{
    1070
0
    1040
0
    1070
0
    1002
}
       0
LWPOLYLINE
       5
205A
     100
AcDbEntity
       8
1
     100
AcDbPolyline
      90
4
      70
1
      10
540.2
      20
15.2512124133
      42
0
      10
540.2
      20
11.7512124133
      42
0
      10
519.8
      20
11.7512124133
      42
0
      10
519.8
      20
15.2512124133
      42
0
    1001
FS_CYPCUT
    1000
Channel
    1070
1
    1000
LeadIn
    1002
{
    1070
3
    1040
1.5
    1040
1.5707963267949
    1040
2
    1040
1
    1070
0
    1040
0.5
    1070
0
    1002
}
    1000
LeadOut
    1002
{
    1070
0
    1040
0
    1040
0
    1040
0
    1070
0
    1002
}
    1000
IsFill
    1070
0
    1000
PathStart
    1040
1.5
    1000
ToolCompensation
    1002
{
    1070
0
    1040
0
    1070
0
    1002
}
       0
LWPOLYLINE
       5
205B
     100
AcDbEntity
       8
1
     100
AcDbPolyline
      90
12
      70
1
      10
550
      20
142.3700827259
      42
0
      10
550
      20
-6.9987875867
      42
-0.414213562373089
      10
540
      20
-16.9987875867
      42
0
      10
273.5984616842
      20
-16.9987875867
      42
0.320176759019478
      10
249.9583059622
      20
-33.8659506008
      42
0
      10
208.368186866384
      20
-154.758191969853
      42
-0.846678086622953
      10
150
      20
-144.9987875867
      42
0
      10
10
      20
-16.9987875867
      42
-0.414213562373095
      10
-1.06581410364015E-14
      20
-6.9987875867
      42
0
      10
5.15143483426073E-14
      20
138.3700827259
      42
-0.414213562373097
      10
10
      20
148.3700827259
      42
0
      10
544
      20
148.3700827259
      42
-0.41421356237308
    1001
FS_CYPCUT
    1000
Channel
    1070
1
    1000
LeadIn
    1002
{
    1070
3
    1040
10.5
    1040
1.5707963267949
    1040
2
    1040
1
    1070
0
    1040
0.5
    1070
0
    1002
}
    1000
LeadOut
    1002
{
    1070
0
    1040
0
    1040
0
    1040
0
    1070
0
    1002
}
    1000
IsFill
    1070
1
    1000
PathStart
    1040
10.5
    1000
ToolCompensation
    1002
{
    1070
0
    1040
0
    1070
0
    1002
}
    1000
MicroConnect
    1002
{
    1070
4
    1040
2.55657233
    1041
0.6
    1042
0
    1040
5.4555334
    1041
0.6
    1042
0
    1040
8.52261953
    1041
0.6
    1042
0
    1040
10.7178009
    1041
0.6
    1042
0
    1002
}
       0
ENDBLK
       5
205C
     330
2009
     100
AcDbEntity
       8
0
     100
AcDbBlockEnd
       0
BLOCK
       5
205D
     330
200A
     100
AcDbEntity
       8
0
     100
AcDbBlockBegin
       2
Part2068729752
      70
0
      10
-293.5
      20
-293.404158
      30
0
       3
Part2068729752
       1

       4
CypCutBlock
       0
CIRCLE
       5
205E
     100
AcDbEntity
       8
1
     100
AcDbCircle
      10
-115
      20
-174.5
      30
0
      40
2.49999999999999
    1001
FS_CYPCUT
    1000
Channel
    1070
1
    1000
LeadIn
    1002
{
    1070
3
    1040
0
    1040
1.5707963267949
    1040
1
    1040
1
    1070
0
    1040
0.5
    1070
0
    1002
}
    1000
LeadOut
    1002
{
    1070
0
    1040
0
    1040
0
    1040
0
    1070
0
    1002
}
    1000
IsFill
    1070
0
    1000
PathStart
    1040
0
    1000
ToolCompensation
    1002
{
    1070
0
    1040
0
    1070
0
    1002
}
       0
CIRCLE
       5
205F
     100
AcDbEntity
       8
1
     100
AcDbCircle
      10
-72.5
      20
-166.5
      30
0
      40
2.49999999999996
    1001
FS_CYPCUT
    1000
Channel
    1070
1
    1000
LeadIn
    1002
{
    1070
3
    1040
0
    1040
1.5707963267949
    1040
1
    1040
1
    1070
0
    1040
0.5
    1070
0
    1002
}
    1000
LeadOut
    1002
{
    1070
0
    1040
0
    1040
0
    1040
0
    1070
0
    1002
}
    1000
IsFill
    1070
0
    1000
PathStart
    1040
0.999999999999999
    1000
ToolCompensation
    1002
{
    1070
0
    1040
0
    1070
0
    1002
}
       0
CIRCLE
       5
2060
     100
AcDbEntity
       8
1
     100
AcDbCircle
      10
72.5
      20
-166.5
      30
0
      40
2.49999999999999
    1001
FS_CYPCUT
    1000
Channel
    1070
1
    1000
LeadIn
    1002
{
    1070
3
    1040
0
    1040
1.5707963267949
    1040
1
    1040
1
    1070
0
    1040
0.5
    1070
0
    1002
}
    1000
LeadOut
    1002
{
    1070
0
    1040
0
    1040
0
    1040
0
    1070
0
    1002
}
    1000
IsFill
    1070
0
    1000
PathStart
    1040
0
    1000
ToolCompensation
    1002
{
    1070
0
    1040
0
    1070
0
    1002
}
       0
CIRCLE
       5
2061
     100
AcDbEntity
       8
1
     100
AcDbCircle
      10
115
      20
-174.5
      30
0
      40
2.49999999999997
    1001
FS_CYPCUT
    1000
Channel
    1070
1
    1000
LeadIn
    1002
{
    1070
3
    1040
0
    1040
1.5707963267949
    1040
1
    1040
1
    1070
0
    1040
0.5
    1070
0
    1002
}
    1000
LeadOut
    1002
{
    1070
0
    1040
0
    1040
0
    1040
0
    1070
0
    1002
}
    1000
IsFill
    1070
0
    1000
PathStart
    1040
0
    1000
ToolCompensation
    1002
{
    1070
0
    1040
0
    1070
0
    1002
}
       0
LWPOLYLINE
       5
2062
     100
AcDbEntity
       8
1
     100
AcDbPolyline
      90
8
      70
1
      10
99.9999999999999
      20
90
      42
0.414213562373096
      10
90
      20
100
      42
0
      10
-90
      20
100
      42
0.414213562373095
      10
-100
      20
90
      42
0
      10
-100
      20
-90
      42
0.414213562373095
      10
-90
      20
-100
      42
0
      10
90
      20
-100
      42
0.414213562373095
      10
100
      20
-90
      42
0
    1001
FS_CYPCUT
    1000
Channel
    1070
1
    1000
LeadIn
    1002
{
    1070
3
    1040
1.5
    1040
1.5707963267949
    1040
1
    1040
1
    1070
0
    1040
0.5
    1070
0
    1002
}
    1000
LeadOut
    1002
{
    1070
0
    1040
0
    1040
0
    1040
0
    1070
0
    1002
}
    1000
IsFill
    1070
0
    1000
PathStart
    1040
1.5
    1000
ToolCompensation
    1002
{
    1070
0
    1040
0
    1070
0
    1002
}
    1000
MicroConnect
    1002
{
    1070
2
    1040
3.49973377
    1041
0.6
    1042
0
    1040
7.50026623
    1041
0.6
    1042
0
    1002
}
       0
CIRCLE
       5
2063
     100
AcDbEntity
       8
1
     100
AcDbCircle
      10
-72.5
      20
166.5
      30
0
      40
2.49999999999999
    1001
FS_CYPCUT
    1000
Channel
    1070
1
    1000
LeadIn
    1002
{
    1070
3
    1040
0
    1040
1.5707963267949
    1040
1
    1040
1
    1070
0
    1040
0.5
    1070
0
    1002
}
    1000
LeadOut
    1002
{
    1070
0
    1040
0
    1040
0
    1040
0
    1070
0
    1002
}
    1000
IsFill
    1070
0
    1000
PathStart
    1040
0
    1000
ToolCompensation
    1002
{
    1070
0
    1040
0
    1070
0
    1002
}
       0
CIRCLE
       5
2064
     100
AcDbEntity
       8
1
     100
AcDbCircle
      10
-115
      20
174.5
      30
0
      40
2.5
    1001
FS_CYPCUT
    1000
Channel
    1070
1
    1000
LeadIn
    1002
{
    1070
3
    1040
0
    1040
1.5707963267949
    1040
1
    1040
1
    1070
0
    1040
0.5
    1070
0
    1002
}
    1000
LeadOut
    1002
{
    1070
0
    1040
0
    1040
0
    1040
0
    1070
0
    1002
}
    1000
IsFill
    1070
0
    1000
PathStart
    1040
0.999999999999999
    1000
ToolCompensation
    1002
{
    1070
0
    1040
0
    1070
0
    1002
}
       0
CIRCLE
       5
2065
     100
AcDbEntity
       8
1
     100
AcDbCircle
      10
72.5
      20
166.5
      30
0
      40
2.49999999999999
    1001
FS_CYPCUT
    1000
Channel
    1070
1
    1000
LeadIn
    1002
{
    1070
3
    1040
0
    1040
1.5707963267949
    1040
1
    1040
1
    1070
0
    1040
0.5
    1070
0
    1002
}
    1000
LeadOut
    1002
{
    1070
0
    1040
0
    1040
0
    1040
0
    1070
0
    1002
}
    1000
IsFill
    1070
0
    1000
PathStart
    1040
0
    1000
ToolCompensation
    1002
{
    1070
0
    1040
0
    1070
0
    1002
}
       0
CIRCLE
       5
2066
     100
AcDbEntity
       8
1
     100
AcDbCircle
      10
115
      20
174.5
      30
0
      40
2.50000000000001
    1001
FS_CYPCUT
    1000
Channel
    1070
1
    1000
LeadIn
    1002
{
    1070
3
    1040
0
    1040
1.5707963267949
    1040
1
    1040
1
    1070
0
    1040
0.5
    1070
0
    1002
}
    1000
LeadOut
    1002
{
    1070
0
    1040
0
    1040
0
    1040
0
    1070
0
    1002
}
    1000
IsFill
    1070
0
    1000
PathStart
    1040
0
    1000
ToolCompensation
    1002
{
    1070
0
    1040
0
    1070
0
    1002
}
       0
LWPOLYLINE
       5
2067
     100
AcDbEntity
       8
1
     100
AcDbPolyline
      90
4
      70
1
      10
7.5
      20
-289
      42
0
      10
7.5
      20
-293.4041581164
      42
78.2538877483085
      10
-7.5
      20
-293.4041581164
      42
0
      10
-7.5
      20
-289
      42
0
    1001
FS_CYPCUT
    1000
Channel
    1070
1
    1000
LeadIn
    1002
{
    1070
3
    1040
1.5000021278017
    1040
1.5707963267949
    1040
1
    1040
1
    1070
0
    1040
0.5
    1070
0
    1002
}
    1000
LeadOut
    1002
{
    1070
0
    1040
0
    1040
0
    1040
0
    1070
0
    1002
}
    1000
IsFill
    1070
1
    1000
PathStart
    1040
1.5
    1000
ToolCompensation
    1002
{
    1070
0
    1040
0
    1070
0
    1002
}
    1000
MicroConnect
    1002
{
    1070
3
    1040
1.17749169
    1041
0.6
    1042
0
    1040
1.4996741
    1041
0.6
    1042
0
    1040
1.8268934
    1041
0.6
    1042
0
    1002
}
       0
ENDBLK
       5
2068
     330
200A
     100
AcDbEntity
       8
0
     100
AcDbBlockEnd
       0
BLOCK
       5
2069
     330
200B
     100
AcDbEntity
       8
0
     100
AcDbBlockBegin
       2
Part308196351
      70
0
      10
0
      20
-174.998788
      30
0
       3
Part308196351
       1

       4
CypCutBlock
       0
LWPOLYLINE
       5
206A
     100
AcDbEntity
       8
1
     100
AcDbPolyline
      90
4
      70
1
      10
30.2
      20
15.2512124133
      42
0
      10
30.2
      20
11.7512124133
      42
0
      10
9.8
      20
11.7512124133
      42
0
      10
9.8
      20
15.2512124133
      42
0
    1001
FS_CYPCUT
    1000
Channel
    1070
1
    1000
LeadIn
    1002
{
    1070
3
    1040
1.5
    1040
1.5707963267949
    1040
2
    1040
1
    1070
0
    1040
0.5
    1070
0
    1002
}
    1000
LeadOut
    1002
{
    1070
0
    1040
0
    1040
0
    1040
0
    1070
0
    1002
}
    1000
IsFill
    1070
0
    1000
PathStart
    1040
1.5
    1000
ToolCompensation
    1002
{
    1070
0
    1040
0
    1070
0
    1002
}
       0
CIRCLE
       5
206B
     100
AcDbEntity
       8
1
     100
AcDbCircle
      10
50
      20
101.264282472
      30
0
      40
20
    1001
FS_CYPCUT
    1000
Channel
    1070
1
    1000
LeadIn
    1002
{
    1070
3
    1040
0
    1040
1.5707963267949
    1040
2
    1040
1
    1070
0
    1040
0.5
    1070
0
    1002
}
    1000
LeadOut
    1002
{
    1070
0
    1040
0
    1040
0
    1040
0
    1070
0
    1002
}
    1000
IsFill
    1070
0
    1000
PathStart
    1040
1
    1000
ToolCompensation
    1002
{
    1070
0
    1040
0
    1070
0
    1002
}
       0
CIRCLE
       5
206C
     100
AcDbEntity
       8
1
     100
AcDbCircle
      10
162.5
      20
101.264282472
      30
0
      40
20.0000000000001
    1001
FS_CYPCUT
    1000
Channel
    1070
1
    1000
LeadIn
    1002
{
    1070
3
    1040
0
    1040
1.5707963267949
    1040
2
    1040
1
    1070
0
    1040
0.5
    1070
0
    1002
}
    1000
LeadOut
    1002
{
    1070
0
    1040
0
    1040
0
    1040
0
    1070
0
    1002
}
    1000
IsFill
    1070
0
    1000
PathStart
    1040
0
    1000
ToolCompensation
    1002
{
    1070
0
    1040
0
    1070
0
    1002
}
       0
CIRCLE
       5
206D
     100
AcDbEntity
       8
1
     100
AcDbCircle
      10
275
      20
101.264282472
      30
0
      40
20
    1001
FS_CYPCUT
    1000
Channel
    1070
1
    1000
LeadIn
    1002
{
    1070
3
    1040
0
    1040
1.5707963267949
    1040
2
    1040
1
    1070
0
    1040
0.5
    1070
0
    1002
}
    1000
LeadOut
    1002
{
    1070
0
    1040
0
    1040
0
    1040
0
    1070
0
    1002
}
    1000
IsFill
    1070
0
    1000
PathStart
    1040
1
    1000
ToolCompensation
    1002
{
    1070
0
    1040
0
    1070
0
    1002
}
       0
CIRCLE
       5
206E
     100
AcDbEntity
       8
1
     100
AcDbCircle
      10
387.5
      20
101.264282472
      30
0
      40
20.0000000000001
    1001
FS_CYPCUT
    1000
Channel
    1070
1
    1000
LeadIn
    1002
{
    1070
3
    1040
0
    1040
1.5707963267949
    1040
2
    1040
1
    1070
0
    1040
0.5
    1070
0
    1002
}
    1000
LeadOut
    1002
{
    1070
0
    1040
0
    1040
0
    1040
0
    1070
0
    1002
}
    1000
IsFill
    1070
0
    1000
PathStart
    1040
1
    1000
ToolCompensation
    1002
{
    1070
0
    1040
0
    1070
0
    1002
}
       0
LINE
       5
206F
     100
AcDbEntity
       8
2
     100
AcDbLine
      10
550
      20
132.2460301762
      30
0
      11
0
      21
132.2460301762
      31
0
    1001
FS_CYPCUT
    1000
Channel
    1070
2
    1000
LeadIn
    1002
{
    1070
0
    1040
0
    1040
0
    1040
0
    1040
0
    1070
0
    1040
0
    1070
0
    1002
}
    1000
LeadOut
    1002
{
    1070
0
    1040
0
    1040
0
    1040
0
    1070
0
    1002
}
    1000
IsFill
    1070
0
    1000
PathStart
    1040
0
    1000
ToolCompensation
    1002
{
    1070
0
    1040
0
    1070
0
    1002
}
       0
LINE
       5
2070
     100
AcDbEntity
       8
2
     100
AcDbLine
      10
0
      20
21.5006062066
      30
0
      11
550
      21
21.5006062066
      31
0
    1001
FS_CYPCUT
    1000
Channel
    1070
2
    1000
LeadIn
    1002
{
    1070
0
    1040
0
    1040
0
    1040
0
    1040
0
    1070
0
    1040
0
    1070
0
    1002
}
    1000
LeadOut
    1002
{
    1070
0
    1040
0
    1040
0
    1040
0
    1070
0
    1002
}
    1000
IsFill
    1070
0
    1000
PathStart
    1040
0
    1000
ToolCompensation
    1002
{
    1070
0
    1040
0
    1070
0
    1002
}
       0
CIRCLE
       5
2071
     100
AcDbEntity
       8
1
     100
AcDbCircle
      10
354
      20
-56.9987875867
      30
0
      40
17.5000000000001
    1001
FS_CYPCUT
    1000
Channel
    1070
1
    1000
LeadIn
    1002
{
    1070
3
    1040
0
    1040
1.5707963267949
    1040
2
    1040
1
    1070
0
    1040
0.5
    1070
0
    1002
}
    1000
LeadOut
    1002
{
    1070
0
    1040
0
    1040
0
    1040
0
    1070
0
    1002
}
    1000
IsFill
    1070
0
    1000
PathStart
    1040
0
    1000
ToolCompensation
    1002
{
    1070
0
    1040
0
    1070
0
    1002
}
       0
LWPOLYLINE
       5
2072
     100
AcDbEntity
       8
1
     100
AcDbPolyline
      90
4
      70
1
      10
285.2
      20
15.2512124133
      42
0
      10
285.2
      20
11.7512124133
      42
0
      10
264.8
      20
11.7512124133
      42
0
      10
264.8
      20
15.2512124133
      42
0
    1001
FS_CYPCUT
    1000
Channel
    1070
1
    1000
LeadIn
    1002
{
    1070
3
    1040
1.5
    1040
1.5707963267949
    1040
2
    1040
1
    1070
0
    1040
0.5
    1070
0
    1002
}
    1000
LeadOut
    1002
{
    1070
0
    1040
0
    1040
0
    1040
0
    1070
0
    1002
}
    1000
IsFill
    1070
0
    1000
PathStart
    1040
1.5
    1000
ToolCompensation
    1002
{
    1070
0
    1040
0
    1070
0
    1002
}
       0
CIRCLE
       5
2073
     100
AcDbEntity
       8
1
     100
AcDbCircle
      10
370
      20
-144.9987875867
      30
0
      40
8.00000000000006
    1001
FS_CYPCUT
    1000
Channel
    1070
1
    1000
LeadIn
    1002
{
    1070
3
    1040
0
    1040
1.5707963267949
    1040
2
    1040
1
    1070
0
    1040
0.5
    1070
0
    1002
}
    1000
LeadOut
    1002
{
    1070
0
    1040
0
    1040
0
    1040
0
    1070
0
    1002
}
    1000
IsFill
    1070
0
    1000
PathStart
    1040
0
    1000
ToolCompensation
    1002
{
    1070
0
    1040
0
    1070
0
    1002
}
       0
LWPOLYLINE
       5
2074
     100
AcDbEntity
       8
1
     100
AcDbPolyline
      90
4
      70
1
      10
540.2
      20
15.2512124133
      42
0
      10
519.8
      20
15.2512124133
      42
0
      10
519.8
      20
11.7512124133
      42
0
      10
540.2
      20
11.7512124133
      42
0
    1001
FS_CYPCUT
    1000
Channel
    1070
1
    1000
LeadIn
    1002
{
    1070
3
    1040
0.5
    1040
1.5707963267949
    1040
2
    1040
1
    1070
0
    1040
0.5
    1070
0
    1002
}
    1000
LeadOut
    1002
{
    1070
0
    1040
0
    1040
0
    1040
0
    1070
0
    1002
}
    1000
IsFill
    1070
0
    1000
PathStart
    1040
0.5
    1000
ToolCompensation
    1002
{
    1070
0
    1040
0
    1070
0
    1002
}
       0
CIRCLE
       5
2075
     100
AcDbEntity
       8
1
     100
AcDbCircle
      10
500
      20
101.264282472
      30
0
      40
20
    1001
FS_CYPCUT
    1000
Channel
    1070
1
    1000
LeadIn
    1002
{
    1070
3
    1040
0
    1040
1.5707963267949
    1040
2
    1040
1
    1070
0
    1040
0.5
    1070
0
    1002
}
    1000
LeadOut
    1002
{
    1070
0
    1040
0
    1040
0
    1040
0
    1070
0
    1002
}
    1000
IsFill
    1070
0
    1000
PathStart
    1040
1
    1000
ToolCompensation
    1002
{
    1070
0
    1040
0
    1070
0
    1002
}
       0
LWPOLYLINE
       5
2076
     100
AcDbEntity
       8
1
     100
AcDbPolyline
      90
12
      70
1
      10
550
      20
138.3700827259
      42
0
      10
550
      20
-6.9987875867
      42
-0.414213562373089
      10
540
      20
-16.9987875867
      42
0
      10
400
      20
-144.9987875867
      42
-0.8427764070692
      10
341.721874769962
      20
-155.016154180487
      42
0
      10
298.7289461144
      20
-33.6509820919
      42
0.317668227934916
      10
275.1638417561
      20
-16.9987875867
      42
0
      10
10
      20
-16.9987875867
      42
-0.414213562373095
      10
0
      20
-6.9987875867
      42
0
      10
0
      20
142.3700827259
      42
-0.414213562373094
      10
6
      20
148.3700827259
      42
0
      10
540
      20
148.3700827259
      42
-0.414213562373101
    1001
FS_CYPCUT
    1000
Channel
    1070
1
    1000
LeadIn
    1002
{
    1070
3
    1040
10.5
    1040
1.5707963267949
    1040
2
    1040
1
    1070
0
    1040
0.5
    1070
0
    1002
}
    1000
LeadOut
    1002
{
    1070
0
    1040
0
    1040
0
    1040
0
    1070
0
    1002
}
    1000
IsFill
    1070
1
    1000
PathStart
    1040
10.5
    1000
ToolCompensation
    1002
{
    1070
0
    1040
0
    1070
0
    1002
}
    1000
MicroConnect
    1002
{
    1070
4
    1040
0.379720754
    1041
0.6
    1042
0
    1040
3.56507514
    1041
0.6
    1042
0
    1040
6.37340994
    1041
0.6
    1042
0
    1040
10.3087846
    1041
0.6
    1042
0
    1002
}
       0
ENDBLK
       5
2077
     330
200B
     100
AcDbEntity
       8
0
     100
AcDbBlockEnd
       0
ENDSEC
       0
SECTION
       2
ENTITIES
       0
INSERT
       5
2078
     100
AcDbEntity
       8
1
     100
AcDbBlockReference
       2
Part425959501
      10
3793.94036862823
      20
3739.5971224602
      30
0
      41
1
      42
1
      50
90.0000001836389
    1001
FS_CYPCUT
    1000
Channel
    1070
1
    1000
LeadIn
    1002
{
    1070
0
    1040
0
    1040
0
    1040
0
    1040
0
    1070
0
    1040
0
    1070
0
    1002
}
    1000
LeadOut
    1002
{
    1070
0
    1040
0
    1040
0
    1040
0
    1070
0
    1002
}
       0
INSERT
       5
2079
     100
AcDbEntity
       8
1
     100
AcDbBlockReference
       2
Part1342855557
      10
3796.9503684449
      20
3885.00622242495
      30
0
      41
1
      42
1
      50
269.999999977959
    1001
FS_CYPCUT
    1000
Channel
    1070
1
    1000
LeadIn
    1002
{
    1070
0
    1040
0
    1040
0
    1040
0
    1040
0
    1070
0
    1040
0
    1070
0
    1002
}
    1000
LeadOut
    1002
{
    1070
0
    1040
0
    1040
0
    1040
0
    1070
0
    1002
}
       0
LWPOLYLINE
       5
207A
     100
AcDbEntity
       8
1
     100
AcDbPolyline
      90
28
      70
1
      10
3742.9402684199
      20
4289.59712242014
      42
0
      10
3763.9402684199
      20
4289.59712242014
      42
0
      10
3763.9402684199
      20
4279.59712242014
      42
0
      10
3766.9402684199
      20
4279.59712242014
      42
0
      10
3766.9402684199
      20
4259.59712242014
      42
0
      10
3763.9402684199
      20
4259.59712242014
      42
0
      10
3763.9402684199
      20
4024.59712242014
      42
0
      10
3766.9402684199
      20
4024.59712242014
      42
0
      10
3766.9402684199
      20
4004.59712242014
      42
0
      10
3763.9402684199
      20
4004.59712242014
      42
0
      10
3763.9402684199
      20
3769.59712242014
      42
0
      10
3766.9402684199
      20
3769.59712242014
      42
0
      10
3766.9402684199
      20
3749.59712242014
      42
0
      10
3763.9402684199
      20
3749.59712242014
      42
0
      10
3763.9402684199
      20
3739.59712242014
      42
0
      10
3742.9402684199
      20
3739.59712242014
      42
0
      10
3742.9402684199
      20
3749.59712242014
      42
0
      10
3739.9402684199
      20
3749.59712242014
      42
0
      10
3739.9402684199
      20
3769.59712242014
      42
0
      10
3742.9402684199
      20
3769.59712242014
      42
0
      10
3742.9402684199
      20
4004.59712242014
      42
0
      10
3739.9402684199
      20
4004.59712242014
      42
0
      10
3739.9402684199
      20
4024.59712242014
      42
0
      10
3742.9402684199
      20
4024.59712242014
      42
0
      10
3742.9402684199
      20
4259.59712242014
      42
0
      10
3739.9402684199
      20
4259.59712242014
      42
0
      10
3739.9402684199
      20
4279.59712242014
      42
0
      10
3742.9402684199
      20
4279.59712242014
      42
0
    1001
FS_CYPCUT
    1000
Channel
    1070
1
    1000
LeadIn
    1002
{
    1070
0
    1040
0
    1040
0
    1040
0
    1040
0
    1070
0
    1040
0
    1070
0
    1002
}
    1000
LeadOut
    1002
{
    1070
0
    1040
0
    1040
0
    1040
0
    1070
0
    1002
}
    1000
IsFill
    1070
1
    1000
PathStart
    1040
0
    1000
ToolCompensation
    1002
{
    1070
0
    1040
0
    1070
0
    1002
}
    1000
MicroConnect
    1002
{
    1070
4
    1040
0.51034379
    1041
0.6
    1042
0
    1040
11.4790679
    1041
0.6
    1042
0
    1040
17.4557662
    1041
0.6
    1042
0
    1040
21.3696682
    1041
0.6
    1042
0
    1002
}
       0
LWPOLYLINE
       5
207B
     100
AcDbEntity
       8
1
     100
AcDbPolyline
      90
28
      70
1
      10
3713.9402684199
      20
4289.59712242014
      42
0
      10
3734.9402684199
      20
4289.59712242014
      42
0
      10
3734.9402684199
      20
4279.59712242014
      42
0
      10
3737.9402684199
      20
4279.59712242014
      42
0
      10
3737.9402684199
      20
4259.59712242014
      42
0
      10
3734.9402684199
      20
4259.59712242014
      42
0
      10
3734.9402684199
      20
4024.59712242014
      42
0
      10
3737.9402684199
      20
4024.59712242014
      42
0
      10
3737.9402684199
      20
4004.59712242014
      42
0
      10
3734.9402684199
      20
4004.59712242014
      42
0
      10
3734.9402684199
      20
3769.59712242014
      42
0
      10
3737.9402684199
      20
3769.59712242014
      42
0
      10
3737.9402684199
      20
3749.59712242014
      42
0
      10
3734.9402684199
      20
3749.59712242014
      42
0
      10
3734.9402684199
      20
3739.59712242014
      42
0
      10
3713.9402684199
      20
3739.59712242014
      42
0
      10
3713.9402684199
      20
3749.59712242014
      42
0
      10
3710.9402684199
      20
3749.59712242014
      42
0
      10
3710.9402684199
      20
3769.59712242014
      42
0
      10
3713.9402684199
      20
3769.59712242014
      42
0
      10
3713.9402684199
      20
4004.59712242014
      42
0
      10
3710.9402684199
      20
4004.59712242014
      42
0
      10
3710.9402684199
      20
4024.59712242014
      42
0
      10
3713.9402684199
      20
4024.59712242014
      42
0
      10
3713.9402684199
      20
4259.59712242014
      42
0
      10
3710.9402684199
      20
4259.59712242014
      42
0
      10
3710.9402684199
      20
4279.59712242014
      42
0
      10
3713.9402684199
      20
4279.59712242014
      42
0
    1001
FS_CYPCUT
    1000
Channel
    1070
1
    1000
LeadIn
    1002
{
    1070
0
    1040
0
    1040
0
    1040
0
    1040
0
    1070
0
    1040
0
    1070
0
    1002
}
    1000
LeadOut
    1002
{
    1070
0
    1040
0
    1040
0
    1040
0
    1070
0
    1002
}
    1000
IsFill
    1070
1
    1000
PathStart
    1040
0
    1000
ToolCompensation
    1002
{
    1070
0
    1040
0
    1070
0
    1002
}
    1000
MicroConnect
    1002
{
    1070
4
    1040
0.51034379
    1041
0.6
    1042
0
    1040
11.4790679
    1041
0.6
    1042
0
    1040
17.4557662
    1041
0.6
    1042
0
    1040
21.3696682
    1041
0.6
    1042
0
    1002
}
       0
INSERT
       5
207C
     100
AcDbEntity
       8
1
     100
AcDbBlockReference
       2
Part2131089361
      10
3406.94025441989
      20
3741.17323646014
      30
0
      41
1
      42
1
      50
0
    1001
FS_CYPCUT
    1000
Channel
    1070
1
    1000
LeadIn
    1002
{
    1070
0
    1040
0
    1040
0
    1040
0
    1040
0
    1070
0
    1040
0
    1070
0
    1002
}
    1000
LeadOut
    1002
{
    1070
0
    1040
0
    1040
0
    1040
0
    1070
0
    1002
}
       0
INSERT
       5
207D
     100
AcDbEntity
       8
1
     100
AcDbBlockReference
       2
Part1014353603
      10
3044.8401664199
      20
3739.59712435014
      30
0
      41
1
      42
1
      50
0
    1001
FS_CYPCUT
    1000
Channel
    1070
1
    1000
LeadIn
    1002
{
    1070
0
    1040
0
    1040
0
    1040
0
    1040
0
    1070
0
    1040
0
    1070
0
    1002
}
    1000
LeadOut
    1002
{
    1070
0
    1040
0
    1040
0
    1040
0
    1070
0
    1002
}
       0
INSERT
       5
207E
     100
AcDbEntity
       8
1
     100
AcDbBlockReference
       2
Part
      10
2682.6401664899
      20
3739.59712435014
      30
0
      41
1
      42
1
      50
0
    1001
FS_CYPCUT
    1000
Channel
    1070
1
    1000
LeadIn
    1002
{
    1070
0
    1040
0
    1040
0
    1040
0
    1040
0
    1070
0
    1040
0
    1070
0
    1002
}
    1000
LeadOut
    1002
{
    1070
0
    1040
0
    1040
0
    1040
0
    1070
0
    1002
}
       0
INSERT
       5
207F
     100
AcDbEntity
       8
1
     100
AcDbBlockReference
       2
Part526636546
      10
2891.9553684199
      20
5777.23092242014
      30
0
      41
1
      42
1
      50
0
    1001
FS_CYPCUT
    1000
Channel
    1070
1
    1000
LeadIn
    1002
{
    1070
0
    1040
0
    1040
0
    1040
0
    1040
0
    1070
0
    1040
0
    1070
0
    1002
}
    1000
LeadOut
    1002
{
    1070
0
    1040
0
    1040
0
    1040
0
    1070
0
    1002
}
       0
INSERT
       5
2080
     100
AcDbEntity
       8
1
     100
AcDbBlockReference
       2
Part1291157273
      10
2682.54029274991
      20
5585.61254242014
      30
0
      41
1
      42
1
      50
0
    1001
FS_CYPCUT
    1000
Channel
    1070
1
    1000
LeadIn
    1002
{
    1070
0
    1040
0
    1040
0
    1040
0
    1040
0
    1070
0
    1040
0
    1070
0
    1002
}
    1000
LeadOut
    1002
{
    1070
0
    1040
0
    1040
0
    1040
0
    1070
0
    1002
}
       0
INSERT
       5
2081
     100
AcDbEntity
       8
1
     100
AcDbBlockReference
       2
Part1600436750
      10
3480.9156684199
      20
5777.91162242014
      30
0
      41
1
      42
1
      50
0
    1001
FS_CYPCUT
    1000
Channel
    1070
1
    1000
LeadIn
    1002
{
    1070
0
    1040
0
    1040
0
    1040
0
    1040
0
    1070
0
    1040
0
    1070
0
    1002
}
    1000
LeadOut
    1002
{
    1070
0
    1040
0
    1040
0
    1040
0
    1070
0
    1002
}
       0
INSERT
       5
2082
     100
AcDbEntity
       8
1
     100
AcDbBlockReference
       2
Part1663640964
      10
3271.50059241991
      20
5586.29324242014
      30
0
      41
1
      42
1
      50
0
    1001
FS_CYPCUT
    1000
Channel
    1070
1
    1000
LeadIn
    1002
{
    1070
0
    1040
0
    1040
0
    1040
0
    1040
0
    1070
0
    1040
0
    1070
0
    1002
}
    1000
LeadOut
    1002
{
    1070
0
    1040
0
    1040
0
    1040
0
    1070
0
    1002
}
       0
INSERT
       5
2083
     100
AcDbEntity
       8
1
     100
AcDbBlockReference
       2
Part1353286655
      10
3555.1713804199
      20
6681.12482048746
      30
0
      41
1
      42
1
      50
269.999999977959
    1001
FS_CYPCUT
    1000
Channel
    1070
1
    1000
LeadIn
    1002
{
    1070
0
    1040
0
    1040
0
    1040
0
    1040
0
    1070
0
    1040
0
    1070
0
    1002
}
    1000
LeadOut
    1002
{
    1070
0
    1040
0
    1040
0
    1040
0
    1070
0
    1002
}
       0
INSERT
       5
2084
     100
AcDbEntity
       8
1
     100
AcDbBlockReference
       2
Part2068729752
      10
2976.4127684199
      20
6096.11926242014
      30
0
      41
1
      42
1
      50
0
    1001
FS_CYPCUT
    1000
Channel
    1070
1
    1000
LeadIn
    1002
{
    1070
0
    1040
0
    1040
0
    1040
0
    1040
0
    1070
0
    1040
0
    1070
0
    1002
}
    1000
LeadOut
    1002
{
    1070
0
    1040
0
    1040
0
    1040
0
    1070
0
    1002
}
       0
INSERT
       5
2085
     100
AcDbEntity
       8
1
     100
AcDbBlockReference
       2
Part308196351
      10
3005.9091564199
      20
6159.18562098103
      30
0
      41
1
      42
1
      50
90.0000001836389
    1001
FS_CYPCUT
    1000
Channel
    1070
1
    1000
LeadIn
    1002
{
    1070
0
    1040
0
    1040
0
    1040
0
    1040
0
    1070
0
    1040
0
    1070
0
    1002
}
    1000
LeadOut
    1002
{
    1070
0
    1040
0
    1040
0
    1040
0
    1070
0
    1002
}
       0
ENDSEC
  0
SECTION
  2
OBJECTS
  0
DICTIONARY
  5
111
330
0
100
AcDbDictionary
281
     1
  3
ACAD_COLOR
350
120
  3
ACAD_GROUP
350
112
  3
ACAD_LAYOUT
350
11E
  3
ACAD_MATERIAL
350
11F
  3
ACAD_MLINESTYLE
350
11B
  3
ACAD_PLOTSETTINGS
350
11D
  3
ACAD_PLOTSTYLENAME
350
113
  3
ACAD_TABLESTYLE
350
121
  3
AcDbVariableDictionary
350
135
  0
DICTIONARY
  5
120
102
{ACAD_REACTORS
330
111
102
}
330
111
100
AcDbDictionary
281
     1
  0
DICTIONARY
  5
112
102
{ACAD_REACTORS
330
111
102
}
330
111
100
AcDbDictionary
281
     1
  0
DICTIONARY
  5
11E
102
{ACAD_REACTORS
330
111
102
}
330
111
100
AcDbDictionary
281
     1
  3
Model
350
12A
  3
布局1
350
126
  0
DICTIONARY
  5
11F
102
{ACAD_REACTORS
330
111
102
}
330
111
100
AcDbDictionary
281
     1
  0
DICTIONARY
  5
11B
102
{ACAD_REACTORS
330
111
102
}
330
111
100
AcDbDictionary
281
     1
  3
Standard
350
11C
  0
DICTIONARY
  5
11D
102
{ACAD_REACTORS
330
111
102
}
330
111
100
AcDbDictionary
281
     1
  0
ACDBDICTIONARYWDFLT
  5
113
102
{ACAD_REACTORS
330
111
102
}
330
111
100
AcDbDictionary
281
     1
  3
Normal
350
114
100
AcDbDictionaryWithDefault
340
114
  0
DICTIONARY
  5
121
102
{ACAD_REACTORS
330
111
102
}
330
111
100
AcDbDictionary
281
     1
  3
Standard
350
122
  0
DICTIONARY
  5
135
102
{ACAD_REACTORS
330
111
102
}
330
111
100
AcDbDictionary
281
     1
  3
CTABLESTYLE
350
136
  0
LAYOUT
  5
12A
102
{ACAD_REACTORS
330
11E
102
}
330
11E
100
AcDbPlotSettings
  1

  2
发送至 OneNote 2010
  4

  6

 40
0.0
 41
0.0
 42
0.0
 43
0.0
 44
0.0
 45
0.0
 46
0.0
 47
0.0
 48
0.0
 49
0.0
140
0.0
141
0.0
142
1.0
143
1.0
 70
  1712
 72
     0
 73
     0
 74
     0
  7

 75
     0
147
1.0
 76
     0
 77
     2
 78
   300
148
0.0
149
0.0
100
AcDbLayout
  1
Model
 70
     1
 71
     0
 10
0.0
 20
0.0
 11
12.0
 21
9.0
 12
0.0
 22
0.0
 32
0.0
 14
0.0
 24
0.0
 34
0.0
 15
0.0
 25
0.0
 35
0.0
146
0.0
 13
0.0
 23
0.0
 33
0.0
 16
1.0
 26
0.0
 36
0.0
 17
0.0
 27
1.0
 37
0.0
 76
     0
330
127
  0
LAYOUT
  5
126
102
{ACAD_REACTORS
330
11E
102
}
330
11E
100
AcDbPlotSettings
  1

  2
发送至 OneNote 2010
  4

  6

 40
0.0
 41
0.0
 42
0.0
 43
0.0
 44
0.0
 45
0.0
 46
0.0
 47
0.0
 48
0.0
 49
0.0
140
0.0
141
0.0
142
1.0
143
1.0
 70
   688
 72
     0
 73
     0
 74
     5
  7

 75
    16
147
1.0
 76
     0
 77
     2
 78
   300
148
0.0
149
0.0
100
AcDbLayout
  1
布局1
 70
     1
 71
     1
 10
0.0
 20
0.0
 11
12.0
 21
9.0
 12
0.0
 22
0.0
 32
0.0
 14
0.0
 24
0.0
 34
0.0
 15
0.0
 25
0.0
 35
0.0
146
0.0
 13
0.0
 23
0.0
 33
0.0
 16
1.0
 26
0.0
 36
0.0
 17
0.0
 27
1.0
 37
0.0
 76
     0
330
123
  0
MLINESTYLE
  5
11C
102
{ACAD_REACTORS
330
11B
102
}
330
11B
100
AcDbMlineStyle
  2
STANDARD
 70
     0
  3

 62
   256
 51
90.0
 52
90.0
 71
     2
 49
0.5
 62
   256
  6
BYLAYER
 49
-0.5
 62
   256
  6
BYLAYER
  0
ACDBPLACEHOLDER
  5
114
102
{ACAD_REACTORS
330
113
102
}
330
113
  0
TABLESTYLE
  5
122
102
{ACAD_REACTORS
330
121
102
}
330
121
100
AcDbTableStyle
  3
Standard
 70
     0
 71
     0
 40
0.06
 41
0.06
280
     0
281
     0
  7
STANDARD
140
0.18
170
     2
 62
     0
 63
     7
283
     0
274
    -2
284
     1
 64
     0
275
    -2
285
     1
 65
     0
276
    -2
286
     1
 66
     0
277
    -2
287
     1
 67
     0
278
    -2
288
     1
 68
     0
279
    -2
289
     1
 69
     0
  7
STANDARD
140
0.25
170
     5
 62
     0
 63
     7
283
     0
274
    -2
284
     1
 64
     0
275
    -2
285
     1
 65
     0
276
    -2
286
     1
 66
     0
277
    -2
287
     1
 67
     0
278
    -2
288
     1
 68
     0
279
    -2
289
     1
 69
     0
  7
STANDARD
140
0.18
170
     5
 62
     0
 63
     7
283
     0
274
    -2
284
     1
 64
     0
275
    -2
285
     1
 65
     0
276
    -2
286
     1
 66
     0
277
    -2
287
     1
 67
     0
278
    -2
288
     1
 68
     0
279
    -2
289
     1
 69
     0
  0
DICTIONARYVAR
  5
136
102
{ACAD_REACTORS
330
135
102
}
330
135
100
DictionaryVariables
280
     0
  1
STANDARD
  0
ENDSEC
  0
EOF
