  0
SECTION
  2
HEADER
  9
$ACADVER
  1
AC1018
  9
$ACADMAINTVER
 70
    77
  9
$DWGCODEPAGE
  3
ANSI_936
  9
$INSBASE
 10
0.0
 20
0.0
 30
0.0
  9
$EXTMIN
 10
1066.3507109504
 20
2118.48341241953
 30
0.0
  9
$EXTMAX
 10
2262.3507310766
 20
3340.42745399478
 30
0.0
  9
$LIMMIN
 10
0.0
 20
0.0
  9
$LIMMAX
 10
420.0
 20
297.0
  9
$ORTHOMODE
 70
     0
  9
$REGENMODE
 70
     1
  9
$FILLMODE
 70
     1
  9
$QTEXTMODE
 70
     0
  9
$MIRRTEXT
 70
     0
  9
$LTSCALE
 40
1.0
  9
$ATTMODE
 70
     1
  9
$TEXTSIZE
 40
2.5
  9
$TRACEWID
 40
1.0
  9
$TEXTSTYLE
  7
STANDARD
  9
$CLAYER
  8
0
  9
$CELTYPE
  6
ByLayer
  9
$CECOLOR
 62
   256
  9
$CELTSCALE
 40
1.0
  9
$DISPSILH
 70
     0
  9
$DIMSCALE
 40
1.0
  9
$DIMASZ
 40
2.5
  9
$DIMEXO
 40
0.625
  9
$DIMDLI
 40
3.75
  9
$DIMRND
 40
0.0
  9
$DIMDLE
 40
0.0
  9
$DIMEXE
 40
1.25
  9
$DIMTP
 40
0.0
  9
$DIMTM
 40
0.0
  9
$DIMTXT
 40
2.5
  9
$DIMCEN
 40
2.5
  9
$DIMTSZ
 40
0.0
  9
$DIMTOL
 70
     0
  9
$DIMLIM
 70
     0
  9
$DIMTIH
 70
     0
  9
$DIMTOH
 70
     0
  9
$DIMSE1
 70
     0
  9
$DIMSE2
 70
     0
  9
$DIMTAD
 70
     1
  9
$DIMZIN
 70
     8
  9
$DIMBLK
  1

  9
$DIMASO
 70
     1
  9
$DIMSHO
 70
     1
  9
$DIMPOST
  1

  9
$DIMAPOST
  1

  9
$DIMALT
 70
     0
  9
$DIMALTD
 70
     3
  9
$DIMALTF
 40
0.03937007874016
  9
$DIMLFAC
 40
1.0
  9
$DIMTOFL
 70
     1
  9
$DIMTVP
 40
0.0
  9
$DIMTIX
 70
     0
  9
$DIMSOXD
 70
     0
  9
$DIMSAH
 70
     0
  9
$DIMBLK1
  1

  9
$DIMBLK2
  1

  9
$DIMSTYLE
  2
ISO-25
  9
$DIMCLRD
 70
     0
  9
$DIMCLRE
 70
     0
  9
$DIMCLRT
 70
     0
  9
$DIMTFAC
 40
1.0
  9
$DIMGAP
 40
0.625
  9
$DIMJUST
 70
     0
  9
$DIMSD1
 70
     0
  9
$DIMSD2
 70
     0
  9
$DIMTOLJ
 70
     1
  9
$DIMTZIN
 70
     0
  9
$DIMALTZ
 70
     0
  9
$DIMALTTZ
 70
     0
  9
$DIMUPT
 70
     0
  9
$DIMDEC
 70
     4
  9
$DIMTDEC
 70
     4
  9
$DIMALTU
 70
     2
  9
$DIMALTTD
 70
     2
  9
$DIMTXSTY
  7
STANDARD
  9
$DIMAUNIT
 70
     0
  9
$DIMADEC
 70
     0
  9
$DIMALTRND
 40
0.0
  9
$DIMAZIN
 70
     0
  9
$DIMDSEP
 70
    46
  9
$DIMATFIT
 70
     3
  9
$DIMFRAC
 70
     0
  9
$DIMLDRBLK
  1

  9
$DIMLUNIT
 70
     2
  9
$DIMLWD
 70
    -2
  9
$DIMLWE
 70
    -2
  9
$DIMTMOVE
 70
     0
  9
$LUNITS
 70
     2
  9
$LUPREC
 70
     4
  9
$SKETCHINC
 40
1.0
  9
$FILLETRAD
 40
0.0
  9
$AUNITS
 70
     0
  9
$AUPREC
 70
     0
  9
$MENU
  1
.
  9
$ELEVATION
 40
0.0
  9
$PELEVATION
 40
0.0
  9
$THICKNESS
 40
0.0
  9
$LIMCHECK
 70
     0
  9
$CHAMFERA
 40
0.0
  9
$CHAMFERB
 40
0.0
  9
$CHAMFERC
 40
0.0
  9
$CHAMFERD
 40
0.0
  9
$SKPOLY
 70
     0
  9
$TDCREATE
 40
2456997.676706910
  9
$TDUCREATE
 40
2456997.343373576
  9
$TDUPDATE
 40
2456997.680113438
  9
$TDUUPDATE
 40
2456997.346780104
  9
$TDINDWG
 40
0.0010312963
  9
$TDUSRTIMER
 40
0.0010311806
  9
$USRTIMER
 70
     1
  9
$ANGBASE
 50
0.0
  9
$ANGDIR
 70
     0
  9
$PDMODE
 70
     0
  9
$PDSIZE
 40
0.0
  9
$PLINEWID
 40
0.0
  9
$SPLFRAME
 70
     0
  9
$SPLINETYPE
 70
     6
  9
$SPLINESEGS
 70
     8
  9
$HANDSEED
  5
2495
  9
$SURFTAB1
 70
     6
  9
$SURFTAB2
 70
     6
  9
$SURFTYPE
 70
     6
  9
$SURFU
 70
     6
  9
$SURFV
 70
     6
  9
$UCSBASE
  2

  9
$UCSNAME
  2

  9
$UCSORG
 10
0.0
 20
0.0
 30
0.0
  9
$UCSXDIR
 10
1.0
 20
0.0
 30
0.0
  9
$UCSYDIR
 10
0.0
 20
1.0
 30
0.0
  9
$UCSORTHOREF
  2

  9
$UCSORTHOVIEW
 70
     0
  9
$UCSORGTOP
 10
0.0
 20
0.0
 30
0.0
  9
$UCSORGBOTTOM
 10
0.0
 20
0.0
 30
0.0
  9
$UCSORGLEFT
 10
0.0
 20
0.0
 30
0.0
  9
$UCSORGRIGHT
 10
0.0
 20
0.0
 30
0.0
  9
$UCSORGFRONT
 10
0.0
 20
0.0
 30
0.0
  9
$UCSORGBACK
 10
0.0
 20
0.0
 30
0.0
  9
$PUCSBASE
  2

  9
$PUCSNAME
  2

  9
$PUCSORG
 10
0.0
 20
0.0
 30
0.0
  9
$PUCSXDIR
 10
1.0
 20
0.0
 30
0.0
  9
$PUCSYDIR
 10
0.0
 20
1.0
 30
0.0
  9
$PUCSORTHOREF
  2

  9
$PUCSORTHOVIEW
 70
     0
  9
$PUCSORGTOP
 10
0.0
 20
0.0
 30
0.0
  9
$PUCSORGBOTTOM
 10
0.0
 20
0.0
 30
0.0
  9
$PUCSORGLEFT
 10
0.0
 20
0.0
 30
0.0
  9
$PUCSORGRIGHT
 10
0.0
 20
0.0
 30
0.0
  9
$PUCSORGFRONT
 10
0.0
 20
0.0
 30
0.0
  9
$PUCSORGBACK
 10
0.0
 20
0.0
 30
0.0
  9
$USERI1
 70
     0
  9
$USERI2
 70
     0
  9
$USERI3
 70
     0
  9
$USERI4
 70
     0
  9
$USERI5
 70
     0
  9
$USERR1
 40
0.0
  9
$USERR2
 40
0.0
  9
$USERR3
 40
0.0
  9
$USERR4
 40
0.0
  9
$USERR5
 40
0.0
  9
$WORLDVIEW
 70
     1
  9
$SHADEDGE
 70
     3
  9
$SHADEDIF
 70
    70
  9
$TILEMODE
 70
     1
  9
$MAXACTVP
 70
    64
  9
$PINSBASE
 10
0.0
 20
0.0
 30
0.0
  9
$PLIMCHECK
 70
     0
  9
$PEXTMIN
 10
0.0
 20
0.0
 30
0.0
  9
$PEXTMAX
 10
0.0
 20
0.0
 30
0.0
  9
$PLIMMIN
 10
0.0
 20
0.0
  9
$PLIMMAX
 10
12.0
 20
9.0
  9
$UNITMODE
 70
     0
  9
$VISRETAIN
 70
     1
  9
$PLINEGEN
 70
     0
  9
$PSLTSCALE
 70
     1
  9
$TREEDEPTH
 70
  3020
  9
$CMLSTYLE
  2
Standard
  9
$CMLJUST
 70
     0
  9
$CMLSCALE
 40
1.0
  9
$PROXYGRAPHICS
 70
     1
  9
$MEASUREMENT
 70
     1
  9
$CELWEIGHT
370
    -1
  9
$ENDCAPS
280
     0
  9
$JOINSTYLE
280
     0
  9
$LWDISPLAY
290
     0
  9
$INSUNITS
 70
     0
  9
$HYPERLINKBASE
  1

  9
$STYLESHEET
  1

  9
$XEDIT
290
     1
  9
$CEPSNTYPE
380
     0
  9
$PSTYLEMODE
290
     1
  9
$FINGERPRINTGUID
  2
{1F2D6530-6BF2-4D5E-922F-A9C54F637010}
  9
$VERSIONGUID
  2
{15AD9CB5-51D1-451C-B472-5DB36EFAD6AD}
  9
$EXTNAMES
290
     1
  9
$PSVPSCALE
 40
0.0
  9
$OLESTARTUP
290
     0
  9
$SORTENTS
280
   127
  9
$INDEXCTL
280
     0
  9
$HIDETEXT
280
     0
  9
$XCLIPFRAME
290
     0
  9
$HALOGAP
280
     0
  9
$OBSCOLOR
 70
   257
  9
$OBSLTYPE
280
     0
  9
$INTERSECTIONDISPLAY
280
     0
  9
$INTERSECTIONCOLOR
 70
   257
  9
$DIMASSOC
280
     1
  9
$PROJECTNAME
  1

  0
ENDSEC
  0
SECTION
  2
CLASSES
  0
CLASS
  1
ACDBDICTIONARYWDFLT
  2
AcDbDictionaryWithDefault
  3
ObjectDBX Classes
 90
        0
 91
        1
280
     0
281
     0
  0
CLASS
  1
TABLESTYLE
  2
AcDbTableStyle
  3
ObjectDBX Classes
 90
     2047
 91
        1
280
     0
281
     0
  0
CLASS
  1
DICTIONARYVAR
  2
AcDbDictionaryVar
  3
ObjectDBX Classes
 90
        0
 91
        1
280
     0
281
     0
  0
ENDSEC
  0
SECTION
  2
TABLES
  0
TABLE
  2
VPORT
  5
10D
330
0
100
AcDbSymbolTable
 70
     2
  0
VPORT
  5
137
330
10D
100
AcDbSymbolTableRecord
100
AcDbViewportTableRecord
  2
*Active
 70
     0
 10
0.0
 20
0.0
 11
1.0
 21
1.0
 12
1664.3507210135
 22
2729.45543320715
 13
0.0
 23
0.0
 14
10.0
 24
10.0
 15
10.0
 25
10.0
 16
0.0
 26
0.0
 36
1.0
 17
0.0
 27
0.0
 37
0.0
 40
551.708552688342
 41
2.435135135135135
 42
50.0
 43
0.0
 44
0.0
 50
0.0
 51
0.0
 71
     0
 72
  1000
 73
     1
 74
     3
 75
     0
 76
     0
 77
     0
 78
     0
281
     0
 65
     1
110
0.0
120
0.0
130
0.0
111
1.0
121
0.0
131
0.0
112
0.0
122
1.0
132
0.0
 79
     0
146
0.0
  0
ENDTAB
  0
TABLE
  2
LTYPE
  5
10A
330
0
100
AcDbSymbolTable
 70
     1
  0
LTYPE
  5
118
330
10A
100
AcDbSymbolTableRecord
100
AcDbLinetypeTableRecord
  2
ByBlock
 70
     0
  3

 72
    65
 73
     0
 40
0.0
  0
LTYPE
  5
119
330
10A
100
AcDbSymbolTableRecord
100
AcDbLinetypeTableRecord
  2
ByLayer
 70
     0
  3

 72
    65
 73
     0
 40
0.0
  0
LTYPE
  5
11A
330
10A
100
AcDbSymbolTableRecord
100
AcDbLinetypeTableRecord
  2
CONTINUOUS
 70
     0
  3
Solid line
 72
    65
 73
     0
 40
0.0
  0
ENDTAB
  0
TABLE
  2
LAYER
  5
107
330
0
100
AcDbSymbolTable
 70
     1
  0
LAYER
  5
115
330
107
100
AcDbSymbolTableRecord
100
AcDbLayerTableRecord
  2
0
 70
     0
 62
     7
  6
CONTINUOUS
370
    -3
390
114
  0
ENDTAB
  0
TABLE
  2
STYLE
  5
108
330
0
100
AcDbSymbolTable
 70
     1
  0
STYLE
  5
116
330
108
100
AcDbSymbolTableRecord
100
AcDbTextStyleTableRecord
  2
STANDARD
 70
     0
 40
0.0
 41
1.0
 50
0.0
 71
     0
 42
2.5
  3
txt
  4
gbcbig.shx
  0
ENDTAB
  0
TABLE
  2
VIEW
  5
10B
330
0
100
AcDbSymbolTable
 70
     0
  0
ENDTAB
  0
TABLE
  2
UCS
  5
10C
330
0
100
AcDbSymbolTable
 70
     0
  0
ENDTAB
  0
TABLE
  2
APPID
  5
10E
330
0
100
AcDbSymbolTable
 70
     2
  0
APPID
  5
117
330
10E
100
AcDbSymbolTableRecord
100
AcDbRegAppTableRecord
  2
ACAD
 70
     0
  0
APPID
  5
12C
330
10E
100
AcDbSymbolTableRecord
100
AcDbRegAppTableRecord
  2
ACAD_PSEXT
 70
     0
  0
APPID
  5
112C
330
10E
100
AcDbSymbolTableRecord
100
AcDbRegAppTableRecord
  2
FS_CYPCUT
 70
     0
  0
ENDTAB
  0
TABLE
  2
DIMSTYLE
  5
10F
330
0
100
AcDbSymbolTable
 70
     1
100
AcDbDimStyleTable
 71
     0
  0
DIMSTYLE
105
12D
330
10F
100
AcDbSymbolTableRecord
100
AcDbDimStyleTableRecord
  2
ISO-25
 70
     0
 41
2.5
 42
0.625
 43
3.75
 44
1.25
 73
     0
 74
     0
 77
     1
 78
     8
140
2.5
141
2.5
143
0.03937007874016
147
0.625
171
     3
172
     1
274
     3
279
     2
284
     8
285
     8
286
     8
340
116
  0
ENDTAB
  0
TABLE
  2
BLOCK_RECORD
  5
106
330
0
100
AcDbSymbolTable
 70
     2
  0
BLOCK_RECORD
  5
127
330
106
100
AcDbSymbolTableRecord
100
AcDbBlockTableRecord
  2
*Model_Space
340
12A
  0
BLOCK_RECORD
  5
123
330
106
100
AcDbSymbolTableRecord
100
AcDbBlockTableRecord
  2
*Paper_Space
340
126
  0
BLOCK_RECORD
  5
130
330
106
100
AcDbSymbolTableRecord
100
AcDbBlockTableRecord
  2
$MODEL_SPACE
340
0
  0
BLOCK_RECORD
  5
132
330
106
100
AcDbSymbolTableRecord
100
AcDbBlockTableRecord
  2
$PAPER_SPACE
340
0
       0
BLOCK_RECORD
       5
2000
     330
106
     100
AcDbSymbolTableRecord
     100
AcDbBlockTableRecord
       2
Part1727590067
       0
BLOCK_RECORD
       5
2001
     330
106
     100
AcDbSymbolTableRecord
     100
AcDbBlockTableRecord
       2
Part1985245242
       0
BLOCK_RECORD
       5
2002
     330
106
     100
AcDbSymbolTableRecord
     100
AcDbBlockTableRecord
       2
CommonPart891102793
       0
BLOCK_RECORD
       5
2003
     330
106
     100
AcDbSymbolTableRecord
     100
AcDbBlockTableRecord
       2
Part1938913667
       0
BLOCK_RECORD
       5
2004
     330
106
     100
AcDbSymbolTableRecord
     100
AcDbBlockTableRecord
       2
CommonPart217595953
       0
BLOCK_RECORD
       5
2005
     330
106
     100
AcDbSymbolTableRecord
     100
AcDbBlockTableRecord
       2
Part861707559
       0
BLOCK_RECORD
       5
2006
     330
106
     100
AcDbSymbolTableRecord
     100
AcDbBlockTableRecord
       2
Part1729327045
       0
BLOCK_RECORD
       5
2007
     330
106
     100
AcDbSymbolTableRecord
     100
AcDbBlockTableRecord
       2
Part585200061
       0
BLOCK_RECORD
       5
2008
     330
106
     100
AcDbSymbolTableRecord
     100
AcDbBlockTableRecord
       2
Part863785971
       0
BLOCK_RECORD
       5
2009
     330
106
     100
AcDbSymbolTableRecord
     100
AcDbBlockTableRecord
       2
Part796859480
       0
BLOCK_RECORD
       5
200A
     330
106
     100
AcDbSymbolTableRecord
     100
AcDbBlockTableRecord
       2
Part926107358
       0
BLOCK_RECORD
       5
200B
     330
106
     100
AcDbSymbolTableRecord
     100
AcDbBlockTableRecord
       2
Part883143062
  0
ENDTAB
  0
ENDSEC
  0
SECTION
  2
BLOCKS
  0
BLOCK
  5
128
330
127
100
AcDbEntity
  8
0
100
AcDbBlockBegin
  2
*Model_Space
 70
     0
 10
0.0
 20
0.0
 30
0.0
  3
*Model_Space
  1

  0
ENDBLK
  5
129
330
127
100
AcDbEntity
  8
0
100
AcDbBlockEnd
  0
BLOCK
  5
124
330
123
100
AcDbEntity
 67
     1
  8
0
100
AcDbBlockBegin
  2
*Paper_Space
 70
     0
 10
0.0
 20
0.0
 30
0.0
  3
*Paper_Space
  1

  0
ENDBLK
  5
125
330
123
100
AcDbEntity
 67
     1
  8
0
100
AcDbBlockEnd
  0
BLOCK
  5
131
330
130
100
AcDbEntity
  8
0
100
AcDbBlockBegin
  2
$MODEL_SPACE
 70
     0
 10
0.0
 20
0.0
 30
0.0
  3
$MODEL_SPACE
  1

  0
ENDBLK
  5
21
330
130
100
AcDbEntity
  8
0
100
AcDbBlockEnd
  0
BLOCK
  5
133
330
132
100
AcDbEntity
  8
0
100
AcDbBlockBegin
  2
$PAPER_SPACE
 70
     0
 10
0.0
 20
0.0
 30
0.0
  3
$PAPER_SPACE
  1

  0
ENDBLK
  5
D5
330
132
100
AcDbEntity
  8
0
100
AcDbBlockEnd
       0
BLOCK
       5
200C
     330
2000
     100
AcDbEntity
       8
0
     100
AcDbBlockBegin
       2
Part1727590067
      70
0
      10
-119.93292
      20
-57.1696682
      30
0
       3
Part1727590067
       1

       4
CypCutBlock
       0
LINE
       5
200D
     100
AcDbEntity
       8
2
     100
AcDbLine
      10
-61.1021934851
      20
-40.7646467303
      30
0
      11
-88.7854325767
      21
-0.8608786704
      31
0
    1001
FS_CYPCUT
    1000
Channel
    1070
2
    1000
LeadIn
    1002
{
    1070
3
    1040
0
    1040
1.5707963267949
    1040
0.5
    1040
0.5
    1070
0
    1040
0.5
    1070
0
    1002
}
    1000
LeadOut
    1002
{
    1070
0
    1040
0
    1040
0
    1040
0
    1070
0
    1002
}
    1000
IsFill
    1070
0
    1000
PathStart
    1040
0
    1000
ToolCompensation
    1002
{
    1070
0
    1040
0
    1070
0
    1002
}
       0
LWPOLYLINE
       5
200E
     100
AcDbEntity
       8
1
     100
AcDbPolyline
      90
4
      70
1
      10
-98.4329201262
      20
32
      42
0
      10
-98.4329201262
      20
20
      42
-1
      10
-105.4329201262
      20
20
      42
0
      10
-105.4329201262
      20
32
      42
-1
    1001
FS_CYPCUT
    1000
Channel
    1070
1
    1000
LeadIn
    1002
{
    1070
3
    1040
0.5
    1040
1.5707963267949
    1040
0.5
    1040
0.5
    1070
0
    1040
0.5
    1070
0
    1002
}
    1000
LeadOut
    1002
{
    1070
0
    1040
0
    1040
0
    1040
0
    1070
0
    1002
}
    1000
IsFill
    1070
0
    1000
PathStart
    1040
0.5
    1000
ToolCompensation
    1002
{
    1070
0
    1040
0
    1070
0
    1002
}
       0
LINE
       5
200F
     100
AcDbEntity
       8
2
     100
AcDbLine
      10
-89.0914600631
      20
0.1171221805
      30
0
      11
-89.0914600631
      21
172.5
      31
0
    1001
FS_CYPCUT
    1000
Channel
    1070
2
    1000
LeadIn
    1002
{
    1070
3
    1040
0
    1040
1.5707963267949
    1040
0.5
    1040
0.5
    1070
0
    1040
0.5
    1070
0
    1002
}
    1000
LeadOut
    1002
{
    1070
0
    1040
0
    1040
0
    1040
0
    1070
0
    1002
}
    1000
IsFill
    1070
0
    1000
PathStart
    1040
0
    1000
ToolCompensation
    1002
{
    1070
0
    1040
0
    1070
0
    1002
}
       0
LWPOLYLINE
       5
2010
     100
AcDbEntity
       8
1
     100
AcDbPolyline
      90
4
      70
1
      10
-98.4329201262
      20
138.5
      42
1
      10
-105.4329201262
      20
138.5
      42
0
      10
-105.4329201262
      20
126.5
      42
1
      10
-98.4329201262
      20
126.5
      42
0
    1001
FS_CYPCUT
    1000
Channel
    1070
1
    1000
LeadIn
    1002
{
    1070
3
    1040
1.5
    1040
1.5707963267949
    1040
0.5
    1040
0.5
    1070
0
    1040
0.5
    1070
0
    1002
}
    1000
LeadOut
    1002
{
    1070
0
    1040
0
    1040
0
    1040
0
    1070
0
    1002
}
    1000
IsFill
    1070
0
    1000
PathStart
    1040
1.5
    1000
ToolCompensation
    1002
{
    1070
0
    1040
0
    1070
0
    1002
}
       0
LWPOLYLINE
       5
2011
     100
AcDbEntity
       8
1
     100
AcDbPolyline
      90
14
      70
1
      10
-20
      20
171.5
      42
0
      10
-20
      20
-0.5126602567
      42
-0.406817045902432
      10
-20.9746835442834
      20
-1.51233974390615
      42
0.399458525142026
      10
-58.4876602561287
      20
-39.0253164556957
      42
-0.406817045902428
      10
-59.4873397433
      20
-40
      42
0
      10
-60
      20
-40
      42
0
      10
-83.9777726712745
      20
-56.6345797906975
      42
-0.414213562373098
      10
-88.1527166748
      20
-55.8797006166
      42
0
      10
-114.1259233517
      20
-18.4408441455
      42
0
      10
-87.3757016205
      20
0.1171221805
      42
0
      10
-119.9329201262
      20
0.1171221805
      42
0
      10
-119.9329201262
      20
169.5
      42
-0.414213562373101
      10
-116.9329201262
      20
172.5
      42
0
      10
-21
      20
172.5
      42
-0.414213562373079
    1001
FS_CYPCUT
    1000
Channel
    1070
1
    1000
LeadIn
    1002
{
    1070
3
    1040
0.5
    1040
1.5707963267949
    1040
0.5
    1040
0.5
    1070
0
    1040
0.5
    1070
0
    1002
}
    1000
LeadOut
    1002
{
    1070
0
    1040
0
    1040
0
    1040
0
    1070
0
    1002
}
    1000
IsFill
    1070
1
    1000
PathStart
    1040
0.5
    1000
ToolCompensation
    1002
{
    1070
0
    1040
0
    1070
0
    1002
}
    1000
MicroConnect
    1002
{
    1070
3
    1040
0.484841842
    1041
0.4
    1042
0
    1040
7.47395239
    1041
0.4
    1042
0
    1040
10.504005
    1041
0.4
    1042
0
    1002
}
       0
ENDBLK
       5
2012
     330
2000
     100
AcDbEntity
       8
0
     100
AcDbBlockEnd
       0
BLOCK
       5
2013
     330
2001
     100
AcDbEntity
       8
0
     100
AcDbBlockBegin
       2
Part1985245242
      70
0
      10
-169.613717
      20
-115.863717
      30
0
       3
Part1985245242
       1

       4
CypCutBlock
       0
LWPOLYLINE
       5
2014
     100
AcDbEntity
       8
1
     100
AcDbPolyline
      90
4
      70
1
      10
-129.25
      20
-99.8637166941
      42
1
      10
-136.25
      20
-99.8637166941
      42
0
      10
-136.25
      20
-107.8637166941
      42
1
      10
-129.25
      20
-107.8637166941
      42
0
    1001
FS_CYPCUT
    1000
Channel
    1070
1
    1000
LeadIn
    1002
{
    1070
3
    1040
1.5
    1040
1.5707963267949
    1040
0.5
    1040
0.3
    1070
0
    1040
0.5
    1070
0
    1002
}
    1000
LeadOut
    1002
{
    1070
0
    1040
0
    1040
0
    1040
0
    1070
0
    1002
}
    1000
IsFill
    1070
0
    1000
PathStart
    1040
1.5
    1000
ToolCompensation
    1002
{
    1070
0
    1040
0
    1070
0
    1002
}
       0
LINE
       5
2015
     100
AcDbEntity
       8
2
     100
AcDbLine
      10
-140
      20
-86.9568583471
      30
0
      11
-52.5
      21
-86.9568583471
      31
0
    1001
FS_CYPCUT
    1000
Channel
    1070
2
    1000
LeadIn
    1002
{
    1070
3
    1040
0
    1040
1.5707963267949
    1040
0.203429173549999
    1040
0.3
    1070
0
    1040
0.5
    1070
0
    1002
}
    1000
LeadOut
    1002
{
    1070
0
    1040
0
    1040
0
    1040
0
    1070
0
    1002
}
    1000
IsFill
    1070
0
    1000
PathStart
    1040
0
    1000
ToolCompensation
    1002
{
    1070
0
    1040
0
    1070
0
    1002
}
       0
LINE
       5
2016
     100
AcDbEntity
       8
2
     100
AcDbLine
      10
-140.7068583471
      20
-86.25
      30
0
      11
-140.7068583471
      21
86.25
      31
0
    1001
FS_CYPCUT
    1000
Channel
    1070
2
    1000
LeadIn
    1002
{
    1070
3
    1040
0
    1040
1.5707963267949
    1040
0.5
    1040
0.3
    1070
0
    1040
0.5
    1070
0
    1002
}
    1000
LeadOut
    1002
{
    1070
0
    1040
0
    1040
0
    1040
0
    1070
0
    1002
}
    1000
IsFill
    1070
0
    1000
PathStart
    1040
0
    1000
ToolCompensation
    1002
{
    1070
0
    1040
0
    1070
0
    1002
}
       0
LWPOLYLINE
       5
2017
     100
AcDbEntity
       8
1
     100
AcDbPolyline
      90
4
      70
1
      10
-158.3637166941
      20
118.25
      42
0
      10
-158.3637166941
      20
108.25
      42
-1
      10
-165.8637166941
      20
108.25
      42
0
      10
-165.8637166941
      20
118.25
      42
-1
    1001
FS_CYPCUT
    1000
Channel
    1070
1
    1000
LeadIn
    1002
{
    1070
3
    1040
0.5
    1040
1.5707963267949
    1040
0.5
    1040
0.3
    1070
0
    1040
0.5
    1070
0
    1002
}
    1000
LeadOut
    1002
{
    1070
0
    1040
0
    1040
0
    1040
0
    1070
0
    1002
}
    1000
IsFill
    1070
0
    1000
PathStart
    1040
0.5
    1000
ToolCompensation
    1002
{
    1070
0
    1040
0
    1070
0
    1002
}
       0
LINE
       5
2018
     100
AcDbEntity
       8
2
     100
AcDbLine
      10
52.5
      20
-86.9568583471
      30
0
      11
140
      21
-86.9568583471
      31
0
    1001
FS_CYPCUT
    1000
Channel
    1070
2
    1000
LeadIn
    1002
{
    1070
3
    1040
0
    1040
1.5707963267949
    1040
0.5
    1040
0.3
    1070
0
    1040
0.5
    1070
0
    1002
}
    1000
LeadOut
    1002
{
    1070
0
    1040
0
    1040
0
    1040
0
    1070
0
    1002
}
    1000
IsFill
    1070
0
    1000
PathStart
    1040
0
    1000
ToolCompensation
    1002
{
    1070
0
    1040
0
    1070
0
    1002
}
       0
LWPOLYLINE
       5
2019
     100
AcDbEntity
       8
1
     100
AcDbPolyline
      90
4
      70
1
      10
136.25
      20
-99.8637166941
      42
0
      10
136.25
      20
-107.8637166941
      42
-1
      10
129.25
      20
-107.8637166941
      42
0
      10
129.25
      20
-99.8637166941
      42
-1
    1001
FS_CYPCUT
    1000
Channel
    1070
1
    1000
LeadIn
    1002
{
    1070
3
    1040
0.5
    1040
1.5707963267949
    1040
0.5
    1040
0.3
    1070
0
    1040
0.5
    1070
0
    1002
}
    1000
LeadOut
    1002
{
    1070
0
    1040
0
    1040
0
    1040
0
    1070
0
    1002
}
    1000
IsFill
    1070
0
    1000
PathStart
    1040
0.5
    1000
ToolCompensation
    1002
{
    1070
0
    1040
0
    1070
0
    1002
}
       0
LINE
       5
201A
     100
AcDbEntity
       8
2
     100
AcDbLine
      10
140.7068583471
      20
-86.25
      30
0
      11
140.7068583471
      21
86.25
      31
0
    1001
FS_CYPCUT
    1000
Channel
    1070
2
    1000
LeadIn
    1002
{
    1070
3
    1040
0
    1040
1.5707963267949
    1040
0.203429173549992
    1040
0.3
    1070
0
    1040
0.5
    1070
0
    1002
}
    1000
LeadOut
    1002
{
    1070
0
    1040
0
    1040
0
    1040
0
    1070
0
    1002
}
    1000
IsFill
    1070
0
    1000
PathStart
    1040
0
    1000
ToolCompensation
    1002
{
    1070
0
    1040
0
    1070
0
    1002
}
       0
LWPOLYLINE
       5
201B
     100
AcDbEntity
       8
1
     100
AcDbPolyline
      90
4
      70
1
      10
165.8637166941
      20
118.25
      42
0
      10
165.8637166941
      20
108.25
      42
-1
      10
158.3637166941
      20
108.25
      42
0
      10
158.3637166941
      20
118.25
      42
-1
    1001
FS_CYPCUT
    1000
Channel
    1070
1
    1000
LeadIn
    1002
{
    1070
3
    1040
0.5
    1040
1.5707963267949
    1040
0.5
    1040
0.3
    1070
0
    1040
0.5
    1070
0
    1002
}
    1000
LeadOut
    1002
{
    1070
0
    1040
0
    1040
0
    1040
0
    1070
0
    1002
}
    1000
IsFill
    1070
0
    1000
PathStart
    1040
0.5
    1000
ToolCompensation
    1002
{
    1070
0
    1040
0
    1070
0
    1002
}
       0
LWPOLYLINE
       5
201C
     100
AcDbEntity
       8
1
     100
AcDbPolyline
      90
42
      70
1
      10
169.6137166941
      20
123.25
      42
0
      10
169.6137166941
      20
-86.25
      42
0
      10
140
      20
-86.25
      42
0
      10
140
      20
-115.8637166941
      42
0
      10
54.5
      20
-115.8637166941
      42
-0.414213562373088
      10
52.5
      20
-113.8637166941
      42
0
      10
52.5
      20
-78.25
      42
0.414213562373096
      10
50.5
      20
-76.25
      42
0
      10
29.5
      20
-76.25
      42
-0.41421356237309
      10
27.5
      20
-74.25
      42
0
      10
27.5
      20
-68.25
      42
0.414213562373096
      10
25.5
      20
-66.25
      42
0
      10
14.5
      20
-66.25
      42
0.4142135623731
      10
12.5
      20
-68.25
      42
0
      10
12.5
      20
-74.25
      42
-0.414213562373096
      10
10.5
      20
-76.25
      42
0
      10
-10.5
      20
-76.25
      42
-0.414213562373096
      10
-12.5
      20
-74.25
      42
0
      10
-12.5
      20
-68.25
      42
0.4142135623731
      10
-14.5
      20
-66.25
      42
0
      10
-25.5
      20
-66.25
      42
0.4142135623731
      10
-27.5
      20
-68.25
      42
0
      10
-27.5
      20
-74.25
      42
-0.414213562373095
      10
-29.5
      20
-76.25
      42
0
      10
-50.5
      20
-76.25
      42
0.414213562373096
      10
-52.5
      20
-78.25
      42
0
      10
-52.5
      20
-113.8637166941
      42
-0.414213562373092
      10
-54.5
      20
-115.8637166941
      42
0
      10
-140
      20
-115.8637166941
      42
0
      10
-140
      20
-86.25
      42
0
      10
-169.6137166941
      20
-86.25
      42
0
      10
-169.6137166941
      20
123.25
      42
-0.414213562373099
      10
-166.6137166941
      20
126.25
      42
0
      10
-157.6137166941
      20
126.25
      42
-0.414213562373099
      10
-154.6137166941
      20
123.25
      42
0
      10
-154.6137166941
      20
89.25
      42
0.414213562373091
      10
-151.6137166941
      20
86.25
      42
0
      10
151.6137166941
      20
86.25
      42
0.414213562373085
      10
154.6137166941
      20
89.25
      42
0
      10
154.6137166941
      20
123.25
      42
-0.414213562373089
      10
157.6137166941
      20
126.25
      42
0
      10
166.6137166941
      20
126.25
      42
-0.414213562373106
    1001
FS_CYPCUT
    1000
Channel
    1070
1
    1000
LeadIn
    1002
{
    1070
3
    1040
36.5
    1040
1.5707963267949
    1040
0.5
    1040
0.3
    1070
0
    1040
0.5
    1070
0
    1002
}
    1000
LeadOut
    1002
{
    1070
0
    1040
0
    1040
0
    1040
0
    1070
0
    1002
}
    1000
IsFill
    1070
1
    1000
PathStart
    1040
36.5
    1000
ToolCompensation
    1002
{
    1070
0
    1040
0
    1070
0
    1002
}
    1000
MicroConnect
    1002
{
    1070
3
    1040
15.4531332
    1041
0.5
    1042
0
    1040
36.1527042
    1041
0.5
    1042
0
    1040
36.9212991
    1041
0.5
    1042
0
    1002
}
       0
ENDBLK
       5
201D
     330
2001
     100
AcDbEntity
       8
0
     100
AcDbBlockEnd
       0
BLOCK
       5
201E
     330
2002
     100
AcDbEntity
       8
0
     100
AcDbBlockBegin
       2
CommonPart891102793
      70
0
      10
2.00008331
      20
407.009883
      30
0
       3
CommonPart891102793
       1

       4
CypCutBlock
       0
LWPOLYLINE
       5
201F
     100
AcDbEntity
       8
1
     100
AcDbPolyline
      90
4
      70
1
      10
42.3638000000001
      20
423.0098833059
      42
0
      10
42.3638000000001
      20
415.0098833059
      42
-1
      10
35.3638000000001
      20
415.0098833059
      42
0
      10
35.3638000000001
      20
423.0098833059
      42
-1
    1001
FS_CYPCUT
    1000
Channel
    1070
1
    1000
LeadIn
    1002
{
    1070
3
    1040
2.5
    1040
1.5707963267949
    1040
0.5
    1040
0.3
    1070
0
    1040
0.5
    1070
0
    1002
}
    1000
LeadOut
    1002
{
    1070
0
    1040
0
    1040
0
    1040
0
    1070
0
    1002
}
    1000
IsFill
    1070
0
    1000
PathStart
    1040
2.5
    1000
ToolCompensation
    1002
{
    1070
0
    1040
0
    1070
0
    1002
}
       0
LINE
       5
2020
     100
AcDbEntity
       8
2
     100
AcDbLine
      10
31.6138000000001
      20
435.9167416529
      30
0
      11
119.1138
      21
435.9167416529
      31
0
    1001
FS_CYPCUT
    1000
Channel
    1070
2
    1000
LeadIn
    1002
{
    1070
3
    1040
0
    1040
1.5707963267949
    1040
0.203429173549999
    1040
0.3
    1070
0
    1040
0.5
    1070
0
    1002
}
    1000
LeadOut
    1002
{
    1070
0
    1040
0
    1040
0
    1040
0
    1070
0
    1002
}
    1000
IsFill
    1070
0
    1000
PathStart
    1040
0
    1000
ToolCompensation
    1002
{
    1070
0
    1040
0
    1070
0
    1002
}
       0
LINE
       5
2021
     100
AcDbEntity
       8
2
     100
AcDbLine
      10
30.9069416529001
      20
436.6236
      30
0
      11
30.9069416529001
      21
609.1236
      31
0
    1001
FS_CYPCUT
    1000
Channel
    1070
2
    1000
LeadIn
    1002
{
    1070
3
    1040
0
    1040
1.5707963267949
    1040
0.5
    1040
0.3
    1070
0
    1040
0.5
    1070
0
    1002
}
    1000
LeadOut
    1002
{
    1070
0
    1040
0
    1040
0
    1040
0
    1070
0
    1002
}
    1000
IsFill
    1070
0
    1000
PathStart
    1040
0
    1000
ToolCompensation
    1002
{
    1070
0
    1040
0
    1070
0
    1002
}
       0
LWPOLYLINE
       5
2022
     100
AcDbEntity
       8
1
     100
AcDbPolyline
      90
4
      70
1
      10
13.2500833059001
      20
641.1236
      42
0
      10
13.2500833059001
      20
631.1236
      42
-1
      10
5.75008330590006
      20
631.1236
      42
0
      10
5.75008330590006
      20
641.1236
      42
-1
    1001
FS_CYPCUT
    1000
Channel
    1070
1
    1000
LeadIn
    1002
{
    1070
3
    1040
0.5
    1040
1.5707963267949
    1040
0.5
    1040
0.3
    1070
0
    1040
0.5
    1070
0
    1002
}
    1000
LeadOut
    1002
{
    1070
0
    1040
0
    1040
0
    1040
0
    1070
0
    1002
}
    1000
IsFill
    1070
0
    1000
PathStart
    1040
0.5
    1000
ToolCompensation
    1002
{
    1070
0
    1040
0
    1070
0
    1002
}
       0
LINE
       5
2023
     100
AcDbEntity
       8
2
     100
AcDbLine
      10
224.1138
      20
435.9167416529
      30
0
      11
311.6138
      21
435.9167416529
      31
0
    1001
FS_CYPCUT
    1000
Channel
    1070
2
    1000
LeadIn
    1002
{
    1070
3
    1040
0
    1040
1.5707963267949
    1040
0.5
    1040
0.3
    1070
0
    1040
0.5
    1070
0
    1002
}
    1000
LeadOut
    1002
{
    1070
0
    1040
0
    1040
0
    1040
0
    1070
0
    1002
}
    1000
IsFill
    1070
0
    1000
PathStart
    1040
0
    1000
ToolCompensation
    1002
{
    1070
0
    1040
0
    1070
0
    1002
}
       0
LWPOLYLINE
       5
2024
     100
AcDbEntity
       8
1
     100
AcDbPolyline
      90
4
      70
1
      10
307.8638
      20
423.0098833059
      42
0
      10
307.8638
      20
415.0098833059
      42
-1
      10
300.8638
      20
415.0098833059
      42
0
      10
300.8638
      20
423.0098833059
      42
-1
    1001
FS_CYPCUT
    1000
Channel
    1070
1
    1000
LeadIn
    1002
{
    1070
3
    1040
0.5
    1040
1.5707963267949
    1040
0.5
    1040
0.3
    1070
0
    1040
0.5
    1070
0
    1002
}
    1000
LeadOut
    1002
{
    1070
0
    1040
0
    1040
0
    1040
0
    1070
0
    1002
}
    1000
IsFill
    1070
0
    1000
PathStart
    1040
0.5
    1000
ToolCompensation
    1002
{
    1070
0
    1040
0
    1070
0
    1002
}
       0
LINE
       5
2025
     100
AcDbEntity
       8
2
     100
AcDbLine
      10
312.3206583471
      20
436.6236
      30
0
      11
312.3206583471
      21
609.1236
      31
0
    1001
FS_CYPCUT
    1000
Channel
    1070
2
    1000
LeadIn
    1002
{
    1070
3
    1040
0
    1040
1.5707963267949
    1040
0.203429173549992
    1040
0.3
    1070
0
    1040
0.5
    1070
0
    1002
}
    1000
LeadOut
    1002
{
    1070
0
    1040
0
    1040
0
    1040
0
    1070
0
    1002
}
    1000
IsFill
    1070
0
    1000
PathStart
    1040
0
    1000
ToolCompensation
    1002
{
    1070
0
    1040
0
    1070
0
    1002
}
       0
LWPOLYLINE
       5
2026
     100
AcDbEntity
       8
1
     100
AcDbPolyline
      90
4
      70
1
      10
337.4775166941
      20
641.1236
      42
0
      10
337.4775166941
      20
631.1236
      42
-1
      10
329.9775166941
      20
631.1236
      42
0
      10
329.9775166941
      20
641.1236
      42
-1
    1001
FS_CYPCUT
    1000
Channel
    1070
1
    1000
LeadIn
    1002
{
    1070
3
    1040
0.5
    1040
1.5707963267949
    1040
0.5
    1040
0.3
    1070
0
    1040
0.5
    1070
0
    1002
}
    1000
LeadOut
    1002
{
    1070
0
    1040
0
    1040
0
    1040
0
    1070
0
    1002
}
    1000
IsFill
    1070
0
    1000
PathStart
    1040
0.5
    1000
ToolCompensation
    1002
{
    1070
0
    1040
0
    1070
0
    1002
}
       0
LWPOLYLINE
       5
2027
     100
AcDbEntity
       8
1
     100
AcDbPolyline
      90
42
      70
0
      10
341.2275166941
      20
646.1236
      42
0.414213562373106
      10
338.2275166941
      20
649.1236
      42
0
      10
329.2275166941
      20
649.1236
      42
0.414213562373089
      10
326.2275166941
      20
646.1236
      42
0
      10
326.2275166941
      20
612.1236
      42
-0.414213562373085
      10
323.2275166941
      20
609.1236
      42
0
      10
20.0000833059
      20
609.1236
      42
-0.414213562373091
      10
17.0000833059001
      20
612.1236
      42
0
      10
17.0000833059001
      20
646.1236
      42
0.414213562373099
      10
14.0000833059001
      20
649.1236
      42
0
      10
5.00008330590008
      20
649.1236
      42
0.414213562373099
      10
2.00008330590006
      20
646.1236
      42
0
      10
2.00008330590006
      20
436.6236
      42
0
      10
31.6138000000001
      20
436.6236
      42
0
      10
31.6138000000001
      20
407.0098833059
      42
0
      10
117.1138
      20
407.0098833059
      42
0.414213562373092
      10
119.1138
      20
409.0098833059
      42
0
      10
119.1138
      20
444.6236
      42
-0.414213562373096
      10
121.1138
      20
446.6236
      42
0
      10
142.1138
      20
446.6236
      42
0.414213562373095
      10
144.1138
      20
448.6236
      42
0
      10
144.1138
      20
454.6236
      42
-0.4142135623731
      10
146.1138
      20
456.6236
      42
0
      10
157.1138
      20
456.6236
      42
-0.4142135623731
      10
159.1138
      20
454.6236
      42
0
      10
159.1138
      20
448.6236
      42
0.414213562373096
      10
161.1138
      20
446.6236
      42
0
      10
182.1138
      20
446.6236
      42
0.414213562373096
      10
184.1138
      20
448.6236
      42
0
      10
184.1138
      20
454.6236
      42
-0.4142135623731
      10
186.1138
      20
456.6236
      42
0
      10
197.1138
      20
456.6236
      42
-0.414213562373096
      10
199.1138
      20
454.6236
      42
0
      10
199.1138
      20
448.6236
      42
0.41421356237309
      10
201.1138
      20
446.6236
      42
0
      10
222.1138
      20
446.6236
      42
-0.414213562373096
      10
224.1138
      20
444.6236
      42
0
      10
224.1138
      20
409.0098833059
      42
0.414213562373088
      10
226.1138
      20
407.0098833059
      42
0
      10
311.6138
      20
407.0098833059
      42
0
      10
311.6138
      20
436.6236
      42
0
      10
341.2275166941
      20
436.6236
      42
0
    1001
FS_CYPCUT
    1000
Channel
    1070
1
    1000
LeadIn
    1002
{
    1070
0
    1040
0.0212206590789189
    1040
1.5707963267949
    1040
0.5
    1040
0.3
    1070
0
    1040
0.5
    1070
0
    1002
}
    1000
LeadOut
    1002
{
    1070
0
    1040
0
    1040
0
    1040
0
    1070
0
    1002
}
    1000
IsFill
    1070
1
    1000
PathStart
    1040
0
    1000
ToolCompensation
    1002
{
    1070
0
    1040
0
    1070
0
    1002
}
    1000
MicroConnect
    1002
{
    1070
1
    1040
0
    1041
0.1
    1042
0
    1002
}
       0
LWPOLYLINE
       5
2028
     100
AcDbEntity
       8
1
     100
AcDbPolyline
      90
4
      70
1
      10
381.5913
      20
423.0098833059
      42
0
      10
381.5913
      20
415.0098833059
      42
-1
      10
374.5913
      20
415.0098833059
      42
0
      10
374.5913
      20
423.0098833059
      42
-1
    1001
FS_CYPCUT
    1000
Channel
    1070
1
    1000
LeadIn
    1002
{
    1070
3
    1040
2.5
    1040
1.5707963267949
    1040
0.5
    1040
0.3
    1070
0
    1040
0.5
    1070
0
    1002
}
    1000
LeadOut
    1002
{
    1070
0
    1040
0
    1040
0
    1040
0
    1070
0
    1002
}
    1000
IsFill
    1070
0
    1000
PathStart
    1040
2.5
    1000
ToolCompensation
    1002
{
    1070
0
    1040
0
    1070
0
    1002
}
       0
LINE
       5
2029
     100
AcDbEntity
       8
2
     100
AcDbLine
      10
370.8413
      20
435.9167416529
      30
0
      11
458.3413
      21
435.9167416529
      31
0
    1001
FS_CYPCUT
    1000
Channel
    1070
2
    1000
LeadIn
    1002
{
    1070
3
    1040
0
    1040
1.5707963267949
    1040
0.203429173549999
    1040
0.3
    1070
0
    1040
0.5
    1070
0
    1002
}
    1000
LeadOut
    1002
{
    1070
0
    1040
0
    1040
0
    1040
0
    1070
0
    1002
}
    1000
IsFill
    1070
0
    1000
PathStart
    1040
0
    1000
ToolCompensation
    1002
{
    1070
0
    1040
0
    1070
0
    1002
}
       0
LINE
       5
202A
     100
AcDbEntity
       8
2
     100
AcDbLine
      10
370.1344416529
      20
436.6236
      30
0
      11
370.1344416529
      21
609.1236
      31
0
    1001
FS_CYPCUT
    1000
Channel
    1070
2
    1000
LeadIn
    1002
{
    1070
3
    1040
0
    1040
1.5707963267949
    1040
0.5
    1040
0.3
    1070
0
    1040
0.5
    1070
0
    1002
}
    1000
LeadOut
    1002
{
    1070
0
    1040
0
    1040
0
    1040
0
    1070
0
    1002
}
    1000
IsFill
    1070
0
    1000
PathStart
    1040
0
    1000
ToolCompensation
    1002
{
    1070
0
    1040
0
    1070
0
    1002
}
       0
LWPOLYLINE
       5
202B
     100
AcDbEntity
       8
1
     100
AcDbPolyline
      90
4
      70
1
      10
352.4775833059
      20
641.1236
      42
0
      10
352.4775833059
      20
631.1236
      42
-1
      10
344.9775833059
      20
631.1236
      42
0
      10
344.9775833059
      20
641.1236
      42
-1
    1001
FS_CYPCUT
    1000
Channel
    1070
1
    1000
LeadIn
    1002
{
    1070
3
    1040
0.5
    1040
1.5707963267949
    1040
0.5
    1040
0.3
    1070
0
    1040
0.5
    1070
0
    1002
}
    1000
LeadOut
    1002
{
    1070
0
    1040
0
    1040
0
    1040
0
    1070
0
    1002
}
    1000
IsFill
    1070
0
    1000
PathStart
    1040
0.5
    1000
ToolCompensation
    1002
{
    1070
0
    1040
0
    1070
0
    1002
}
       0
LINE
       5
202C
     100
AcDbEntity
       8
2
     100
AcDbLine
      10
563.3413
      20
435.9167416529
      30
0
      11
650.8413
      21
435.9167416529
      31
0
    1001
FS_CYPCUT
    1000
Channel
    1070
2
    1000
LeadIn
    1002
{
    1070
3
    1040
0
    1040
1.5707963267949
    1040
0.5
    1040
0.3
    1070
0
    1040
0.5
    1070
0
    1002
}
    1000
LeadOut
    1002
{
    1070
0
    1040
0
    1040
0
    1040
0
    1070
0
    1002
}
    1000
IsFill
    1070
0
    1000
PathStart
    1040
0
    1000
ToolCompensation
    1002
{
    1070
0
    1040
0
    1070
0
    1002
}
       0
LWPOLYLINE
       5
202D
     100
AcDbEntity
       8
1
     100
AcDbPolyline
      90
4
      70
1
      10
647.0913
      20
423.0098833059
      42
0
      10
647.0913
      20
415.0098833059
      42
-1
      10
640.0913
      20
415.0098833059
      42
0
      10
640.0913
      20
423.0098833059
      42
-1
    1001
FS_CYPCUT
    1000
Channel
    1070
1
    1000
LeadIn
    1002
{
    1070
3
    1040
0.5
    1040
1.5707963267949
    1040
0.5
    1040
0.3
    1070
0
    1040
0.5
    1070
0
    1002
}
    1000
LeadOut
    1002
{
    1070
0
    1040
0
    1040
0
    1040
0
    1070
0
    1002
}
    1000
IsFill
    1070
0
    1000
PathStart
    1040
0.5
    1000
ToolCompensation
    1002
{
    1070
0
    1040
0
    1070
0
    1002
}
       0
LINE
       5
202E
     100
AcDbEntity
       8
2
     100
AcDbLine
      10
651.5481583471
      20
436.6236
      30
0
      11
651.5481583471
      21
609.1236
      31
0
    1001
FS_CYPCUT
    1000
Channel
    1070
2
    1000
LeadIn
    1002
{
    1070
3
    1040
0
    1040
1.5707963267949
    1040
0.203429173549992
    1040
0.3
    1070
0
    1040
0.5
    1070
0
    1002
}
    1000
LeadOut
    1002
{
    1070
0
    1040
0
    1040
0
    1040
0
    1070
0
    1002
}
    1000
IsFill
    1070
0
    1000
PathStart
    1040
0
    1000
ToolCompensation
    1002
{
    1070
0
    1040
0
    1070
0
    1002
}
       0
LWPOLYLINE
       5
202F
     100
AcDbEntity
       8
1
     100
AcDbPolyline
      90
4
      70
1
      10
676.7050166941
      20
641.1236
      42
0
      10
676.7050166941
      20
631.1236
      42
-1
      10
669.2050166941
      20
631.1236
      42
0
      10
669.2050166941
      20
641.1236
      42
-1
    1001
FS_CYPCUT
    1000
Channel
    1070
1
    1000
LeadIn
    1002
{
    1070
3
    1040
0.5
    1040
1.5707963267949
    1040
0.5
    1040
0.3
    1070
0
    1040
0.5
    1070
0
    1002
}
    1000
LeadOut
    1002
{
    1070
0
    1040
0
    1040
0
    1040
0
    1070
0
    1002
}
    1000
IsFill
    1070
0
    1000
PathStart
    1040
0.5
    1000
ToolCompensation
    1002
{
    1070
0
    1040
0
    1070
0
    1002
}
       0
LWPOLYLINE
       5
2030
     100
AcDbEntity
       8
1
     100
AcDbPolyline
      90
42
      70
1
      10
341.2275833059
      20
646.1236
      42
0
      10
341.2275833059
      20
436.6236
      42
0
      10
370.8413
      20
436.6236
      42
0
      10
370.8413
      20
407.0098833059
      42
0
      10
456.3413
      20
407.0098833059
      42
0.414213562373092
      10
458.3413
      20
409.0098833059
      42
0
      10
458.3413
      20
444.6236
      42
-0.414213562373096
      10
460.3413
      20
446.6236
      42
0
      10
481.3413
      20
446.6236
      42
0.414213562373095
      10
483.3413
      20
448.6236
      42
0
      10
483.3413
      20
454.6236
      42
-0.4142135623731
      10
485.3413
      20
456.6236
      42
0
      10
496.3413
      20
456.6236
      42
-0.4142135623731
      10
498.3413
      20
454.6236
      42
0
      10
498.3413
      20
448.6236
      42
0.414213562373096
      10
500.3413
      20
446.6236
      42
0
      10
521.3413
      20
446.6236
      42
0.414213562373096
      10
523.3413
      20
448.6236
      42
0
      10
523.3413
      20
454.6236
      42
-0.4142135623731
      10
525.3413
      20
456.6236
      42
0
      10
536.3413
      20
456.6236
      42
-0.414213562373096
      10
538.3413
      20
454.6236
      42
0
      10
538.3413
      20
448.6236
      42
0.41421356237309
      10
540.3413
      20
446.6236
      42
0
      10
561.3413
      20
446.6236
      42
-0.414213562373096
      10
563.3413
      20
444.6236
      42
0
      10
563.3413
      20
409.0098833059
      42
0.414213562373088
      10
565.3413
      20
407.0098833059
      42
0
      10
650.8413
      20
407.0098833059
      42
0
      10
650.8413
      20
436.6236
      42
0
      10
680.4550166941
      20
436.6236
      42
0
      10
680.4550166941
      20
646.1236
      42
0.414213562373106
      10
677.4550166941
      20
649.1236
      42
0
      10
668.4550166941
      20
649.1236
      42
0.414213562373089
      10
665.4550166941
      20
646.1236
      42
0
      10
665.4550166941
      20
612.1236
      42
-0.414213562373085
      10
662.4550166941
      20
609.1236
      42
0
      10
359.2275833059
      20
609.1236
      42
-0.414213562373091
      10
356.2275833059
      20
612.1236
      42
0
      10
356.2275833059
      20
646.1236
      42
0.414213562373099
      10
353.2275833059
      20
649.1236
      42
0
      10
344.2275833059
      20
649.1236
      42
0.414213562373099
    1001
FS_CYPCUT
    1000
Channel
    1070
1
    1000
LeadIn
    1002
{
    1070
0
    1040
0
    1040
0
    1040
0
    1040
0
    1070
0
    1040
0
    1070
0
    1002
}
    1000
LeadOut
    1002
{
    1070
0
    1040
0
    1040
0
    1040
0
    1070
0
    1002
}
    1000
IsFill
    1070
1
    1000
PathStart
    1040
0
    1000
ToolCompensation
    1002
{
    1070
0
    1040
0
    1070
0
    1002
}
       0
ENDBLK
       5
2031
     330
2002
     100
AcDbEntity
       8
0
     100
AcDbBlockEnd
       0
BLOCK
       5
2032
     330
2003
     100
AcDbEntity
       8
0
     100
AcDbBlockBegin
       2
Part1938913667
      70
0
      10
-119.93292
      20
-57.1696682
      30
0
       3
Part1938913667
       1

       4
CypCutBlock
       0
LINE
       5
2033
     100
AcDbEntity
       8
2
     100
AcDbLine
      10
-61.1021934851
      20
-40.7646467303
      30
0
      11
-88.7854325767
      21
-0.8608786704
      31
0
    1001
FS_CYPCUT
    1000
Channel
    1070
2
    1000
LeadIn
    1002
{
    1070
3
    1040
0
    1040
1.5707963267949
    1040
0.5
    1040
0.5
    1070
0
    1040
0.5
    1070
0
    1002
}
    1000
LeadOut
    1002
{
    1070
0
    1040
0
    1040
0
    1040
0
    1070
0
    1002
}
    1000
IsFill
    1070
0
    1000
PathStart
    1040
0
    1000
ToolCompensation
    1002
{
    1070
0
    1040
0
    1070
0
    1002
}
       0
LWPOLYLINE
       5
2034
     100
AcDbEntity
       8
1
     100
AcDbPolyline
      90
4
      70
1
      10
-98.4329201262
      20
32
      42
0
      10
-98.4329201262
      20
20
      42
-1
      10
-105.4329201262
      20
20
      42
0
      10
-105.4329201262
      20
32
      42
-1
    1001
FS_CYPCUT
    1000
Channel
    1070
1
    1000
LeadIn
    1002
{
    1070
3
    1040
0.5
    1040
1.5707963267949
    1040
0.5
    1040
0.5
    1070
0
    1040
0.5
    1070
0
    1002
}
    1000
LeadOut
    1002
{
    1070
0
    1040
0
    1040
0
    1040
0
    1070
0
    1002
}
    1000
IsFill
    1070
0
    1000
PathStart
    1040
0.5
    1000
ToolCompensation
    1002
{
    1070
0
    1040
0
    1070
0
    1002
}
       0
LINE
       5
2035
     100
AcDbEntity
       8
2
     100
AcDbLine
      10
-89.0914600631
      20
0.1171221805
      30
0
      11
-89.0914600631
      21
172.5
      31
0
    1001
FS_CYPCUT
    1000
Channel
    1070
2
    1000
LeadIn
    1002
{
    1070
3
    1040
0
    1040
1.5707963267949
    1040
0.5
    1040
0.5
    1070
0
    1040
0.5
    1070
0
    1002
}
    1000
LeadOut
    1002
{
    1070
0
    1040
0
    1040
0
    1040
0
    1070
0
    1002
}
    1000
IsFill
    1070
0
    1000
PathStart
    1040
0
    1000
ToolCompensation
    1002
{
    1070
0
    1040
0
    1070
0
    1002
}
       0
LWPOLYLINE
       5
2036
     100
AcDbEntity
       8
1
     100
AcDbPolyline
      90
4
      70
1
      10
-98.4329201262
      20
138.5
      42
1
      10
-105.4329201262
      20
138.5
      42
0
      10
-105.4329201262
      20
126.5
      42
1
      10
-98.4329201262
      20
126.5
      42
0
    1001
FS_CYPCUT
    1000
Channel
    1070
1
    1000
LeadIn
    1002
{
    1070
3
    1040
1.5
    1040
1.5707963267949
    1040
0.5
    1040
0.5
    1070
0
    1040
0.5
    1070
0
    1002
}
    1000
LeadOut
    1002
{
    1070
0
    1040
0
    1040
0
    1040
0
    1070
0
    1002
}
    1000
IsFill
    1070
0
    1000
PathStart
    1040
1.5
    1000
ToolCompensation
    1002
{
    1070
0
    1040
0
    1070
0
    1002
}
       0
LWPOLYLINE
       5
2037
     100
AcDbEntity
       8
1
     100
AcDbPolyline
      90
14
      70
1
      10
-20
      20
171.5
      42
0
      10
-20
      20
-0.5126602567
      42
-0.406817045902432
      10
-20.9746835442834
      20
-1.51233974390615
      42
0.399458525142026
      10
-58.4876602561287
      20
-39.0253164556957
      42
-0.406817045902428
      10
-59.4873397433
      20
-40
      42
0
      10
-60
      20
-40
      42
0
      10
-83.9777726712745
      20
-56.6345797906975
      42
-0.414213562373098
      10
-88.1527166748
      20
-55.8797006166
      42
0
      10
-114.1259233517
      20
-18.4408441455
      42
0
      10
-87.3757016205
      20
0.1171221805
      42
0
      10
-119.9329201262
      20
0.1171221805
      42
0
      10
-119.9329201262
      20
169.5
      42
-0.414213562373101
      10
-116.9329201262
      20
172.5
      42
0
      10
-21
      20
172.5
      42
-0.414213562373079
    1001
FS_CYPCUT
    1000
Channel
    1070
1
    1000
LeadIn
    1002
{
    1070
3
    1040
0.5
    1040
1.5707963267949
    1040
0.5
    1040
0.5
    1070
0
    1040
0.5
    1070
0
    1002
}
    1000
LeadOut
    1002
{
    1070
0
    1040
0
    1040
0
    1040
0
    1070
0
    1002
}
    1000
IsFill
    1070
1
    1000
PathStart
    1040
0.5
    1000
ToolCompensation
    1002
{
    1070
0
    1040
0
    1070
0
    1002
}
    1000
MicroConnect
    1002
{
    1070
3
    1040
0.484841842
    1041
0.4
    1042
0
    1040
7.47395239
    1041
0.4
    1042
0
    1040
10.504005
    1041
0.4
    1042
0
    1002
}
       0
ENDBLK
       5
2038
     330
2003
     100
AcDbEntity
       8
0
     100
AcDbBlockEnd
       0
BLOCK
       5
2039
     330
2004
     100
AcDbEntity
       8
0
     100
AcDbBlockBegin
       2
CommonPart217595953
      70
0
      10
136.215883
      20
611.509883
      30
0
       3
CommonPart217595953
       1

       4
CypCutBlock
       0
LWPOLYLINE
       5
203A
     100
AcDbEntity
       8
1
     100
AcDbPolyline
      90
4
      70
1
      10
176.5796
      20
627.5098833059
      42
0
      10
176.5796
      20
619.5098833059
      42
-1
      10
169.5796
      20
619.5098833059
      42
0
      10
169.5796
      20
627.5098833059
      42
-1
    1001
FS_CYPCUT
    1000
Channel
    1070
1
    1000
LeadIn
    1002
{
    1070
3
    1040
2.5
    1040
1.5707963267949
    1040
0.5
    1040
0.3
    1070
0
    1040
0.5
    1070
0
    1002
}
    1000
LeadOut
    1002
{
    1070
0
    1040
0
    1040
0
    1040
0
    1070
0
    1002
}
    1000
IsFill
    1070
0
    1000
PathStart
    1040
2.5
    1000
ToolCompensation
    1002
{
    1070
0
    1040
0
    1070
0
    1002
}
       0
LINE
       5
203B
     100
AcDbEntity
       8
2
     100
AcDbLine
      10
165.8296
      20
640.4167416529
      30
0
      11
253.3296
      21
640.4167416529
      31
0
    1001
FS_CYPCUT
    1000
Channel
    1070
2
    1000
LeadIn
    1002
{
    1070
3
    1040
0
    1040
1.5707963267949
    1040
0.203429173549999
    1040
0.3
    1070
0
    1040
0.5
    1070
0
    1002
}
    1000
LeadOut
    1002
{
    1070
0
    1040
0
    1040
0
    1040
0
    1070
0
    1002
}
    1000
IsFill
    1070
0
    1000
PathStart
    1040
0
    1000
ToolCompensation
    1002
{
    1070
0
    1040
0
    1070
0
    1002
}
       0
LINE
       5
203C
     100
AcDbEntity
       8
2
     100
AcDbLine
      10
165.1227416529
      20
641.1236
      30
0
      11
165.1227416529
      21
813.6236
      31
0
    1001
FS_CYPCUT
    1000
Channel
    1070
2
    1000
LeadIn
    1002
{
    1070
3
    1040
0
    1040
1.5707963267949
    1040
0.5
    1040
0.3
    1070
0
    1040
0.5
    1070
0
    1002
}
    1000
LeadOut
    1002
{
    1070
0
    1040
0
    1040
0
    1040
0
    1070
0
    1002
}
    1000
IsFill
    1070
0
    1000
PathStart
    1040
0
    1000
ToolCompensation
    1002
{
    1070
0
    1040
0
    1070
0
    1002
}
       0
LWPOLYLINE
       5
203D
     100
AcDbEntity
       8
1
     100
AcDbPolyline
      90
4
      70
1
      10
147.4658833059
      20
845.6236
      42
0
      10
147.4658833059
      20
835.6236
      42
-1
      10
139.9658833059
      20
835.6236
      42
0
      10
139.9658833059
      20
845.6236
      42
-1
    1001
FS_CYPCUT
    1000
Channel
    1070
1
    1000
LeadIn
    1002
{
    1070
3
    1040
0.5
    1040
1.5707963267949
    1040
0.5
    1040
0.3
    1070
0
    1040
0.5
    1070
0
    1002
}
    1000
LeadOut
    1002
{
    1070
0
    1040
0
    1040
0
    1040
0
    1070
0
    1002
}
    1000
IsFill
    1070
0
    1000
PathStart
    1040
0.5
    1000
ToolCompensation
    1002
{
    1070
0
    1040
0
    1070
0
    1002
}
       0
LINE
       5
203E
     100
AcDbEntity
       8
2
     100
AcDbLine
      10
358.3296
      20
640.4167416529
      30
0
      11
445.8296
      21
640.4167416529
      31
0
    1001
FS_CYPCUT
    1000
Channel
    1070
2
    1000
LeadIn
    1002
{
    1070
3
    1040
0
    1040
1.5707963267949
    1040
0.5
    1040
0.3
    1070
0
    1040
0.5
    1070
0
    1002
}
    1000
LeadOut
    1002
{
    1070
0
    1040
0
    1040
0
    1040
0
    1070
0
    1002
}
    1000
IsFill
    1070
0
    1000
PathStart
    1040
0
    1000
ToolCompensation
    1002
{
    1070
0
    1040
0
    1070
0
    1002
}
       0
LWPOLYLINE
       5
203F
     100
AcDbEntity
       8
1
     100
AcDbPolyline
      90
4
      70
1
      10
442.0796
      20
627.5098833059
      42
0
      10
442.0796
      20
619.5098833059
      42
-1
      10
435.0796
      20
619.5098833059
      42
0
      10
435.0796
      20
627.5098833059
      42
-1
    1001
FS_CYPCUT
    1000
Channel
    1070
1
    1000
LeadIn
    1002
{
    1070
3
    1040
0.5
    1040
1.5707963267949
    1040
0.5
    1040
0.3
    1070
0
    1040
0.5
    1070
0
    1002
}
    1000
LeadOut
    1002
{
    1070
0
    1040
0
    1040
0
    1040
0
    1070
0
    1002
}
    1000
IsFill
    1070
0
    1000
PathStart
    1040
0.5
    1000
ToolCompensation
    1002
{
    1070
0
    1040
0
    1070
0
    1002
}
       0
LINE
       5
2040
     100
AcDbEntity
       8
2
     100
AcDbLine
      10
446.5364583471
      20
641.1236
      30
0
      11
446.5364583471
      21
813.6236
      31
0
    1001
FS_CYPCUT
    1000
Channel
    1070
2
    1000
LeadIn
    1002
{
    1070
3
    1040
0
    1040
1.5707963267949
    1040
0.203429173549992
    1040
0.3
    1070
0
    1040
0.5
    1070
0
    1002
}
    1000
LeadOut
    1002
{
    1070
0
    1040
0
    1040
0
    1040
0
    1070
0
    1002
}
    1000
IsFill
    1070
0
    1000
PathStart
    1040
0
    1000
ToolCompensation
    1002
{
    1070
0
    1040
0
    1070
0
    1002
}
       0
LWPOLYLINE
       5
2041
     100
AcDbEntity
       8
1
     100
AcDbPolyline
      90
4
      70
1
      10
471.6933166941
      20
845.6236
      42
0
      10
471.6933166941
      20
835.6236
      42
-1
      10
464.1933166941
      20
835.6236
      42
0
      10
464.1933166941
      20
845.6236
      42
-1
    1001
FS_CYPCUT
    1000
Channel
    1070
1
    1000
LeadIn
    1002
{
    1070
3
    1040
0.5
    1040
1.5707963267949
    1040
0.5
    1040
0.3
    1070
0
    1040
0.5
    1070
0
    1002
}
    1000
LeadOut
    1002
{
    1070
0
    1040
0
    1040
0
    1040
0
    1070
0
    1002
}
    1000
IsFill
    1070
0
    1000
PathStart
    1040
0.5
    1000
ToolCompensation
    1002
{
    1070
0
    1040
0
    1070
0
    1002
}
       0
LWPOLYLINE
       5
2042
     100
AcDbEntity
       8
1
     100
AcDbPolyline
      90
42
      70
0
      10
475.4433166941
      20
850.6236
      42
0.414213562373106
      10
472.4433166941
      20
853.6236
      42
0
      10
463.4433166941
      20
853.6236
      42
0.414213562373089
      10
460.4433166941
      20
850.6236
      42
0
      10
460.4433166941
      20
816.6236
      42
-0.414213562373085
      10
457.4433166941
      20
813.6236
      42
0
      10
154.2158833059
      20
813.6236
      42
-0.414213562373091
      10
151.2158833059
      20
816.6236
      42
0
      10
151.2158833059
      20
850.6236
      42
0.414213562373099
      10
148.2158833059
      20
853.6236
      42
0
      10
139.2158833059
      20
853.6236
      42
0.414213562373099
      10
136.2158833059
      20
850.6236
      42
0
      10
136.2158833059
      20
641.1236
      42
0
      10
165.8296
      20
641.1236
      42
0
      10
165.8296
      20
611.5098833059
      42
0
      10
251.3296
      20
611.5098833059
      42
0.414213562373092
      10
253.3296
      20
613.5098833059
      42
0
      10
253.3296
      20
649.1236
      42
-0.414213562373096
      10
255.3296
      20
651.1236
      42
0
      10
276.3296
      20
651.1236
      42
0.414213562373095
      10
278.3296
      20
653.1236
      42
0
      10
278.3296
      20
659.1236
      42
-0.4142135623731
      10
280.3296
      20
661.1236
      42
0
      10
291.3296
      20
661.1236
      42
-0.4142135623731
      10
293.3296
      20
659.1236
      42
0
      10
293.3296
      20
653.1236
      42
0.414213562373096
      10
295.3296
      20
651.1236
      42
0
      10
316.3296
      20
651.1236
      42
0.414213562373096
      10
318.3296
      20
653.1236
      42
0
      10
318.3296
      20
659.1236
      42
-0.4142135623731
      10
320.3296
      20
661.1236
      42
0
      10
331.3296
      20
661.1236
      42
-0.414213562373096
      10
333.3296
      20
659.1236
      42
0
      10
333.3296
      20
653.1236
      42
0.41421356237309
      10
335.3296
      20
651.1236
      42
0
      10
356.3296
      20
651.1236
      42
-0.414213562373096
      10
358.3296
      20
649.1236
      42
0
      10
358.3296
      20
613.5098833059
      42
0.414213562373088
      10
360.3296
      20
611.5098833059
      42
0
      10
445.8296
      20
611.5098833059
      42
0
      10
445.8296
      20
641.1236
      42
0
      10
475.4433166941
      20
641.1236
      42
0
    1001
FS_CYPCUT
    1000
Channel
    1070
1
    1000
LeadIn
    1002
{
    1070
0
    1040
0.0212206590789189
    1040
1.5707963267949
    1040
0.5
    1040
0.3
    1070
0
    1040
0.5
    1070
0
    1002
}
    1000
LeadOut
    1002
{
    1070
0
    1040
0
    1040
0
    1040
0
    1070
0
    1002
}
    1000
IsFill
    1070
1
    1000
PathStart
    1040
0
    1000
ToolCompensation
    1002
{
    1070
0
    1040
0
    1070
0
    1002
}
    1000
MicroConnect
    1002
{
    1070
1
    1040
0
    1041
0.1
    1042
0
    1002
}
       0
LWPOLYLINE
       5
2043
     100
AcDbEntity
       8
1
     100
AcDbPolyline
      90
4
      70
1
      10
515.8071
      20
627.5098833059
      42
0
      10
515.8071
      20
619.5098833059
      42
-1
      10
508.8071
      20
619.5098833059
      42
0
      10
508.8071
      20
627.5098833059
      42
-1
    1001
FS_CYPCUT
    1000
Channel
    1070
1
    1000
LeadIn
    1002
{
    1070
3
    1040
2.5
    1040
1.5707963267949
    1040
0.5
    1040
0.3
    1070
0
    1040
0.5
    1070
0
    1002
}
    1000
LeadOut
    1002
{
    1070
0
    1040
0
    1040
0
    1040
0
    1070
0
    1002
}
    1000
IsFill
    1070
0
    1000
PathStart
    1040
2.5
    1000
ToolCompensation
    1002
{
    1070
0
    1040
0
    1070
0
    1002
}
       0
LINE
       5
2044
     100
AcDbEntity
       8
2
     100
AcDbLine
      10
505.0571
      20
640.4167416529
      30
0
      11
592.5571
      21
640.4167416529
      31
0
    1001
FS_CYPCUT
    1000
Channel
    1070
2
    1000
LeadIn
    1002
{
    1070
3
    1040
0
    1040
1.5707963267949
    1040
0.203429173549999
    1040
0.3
    1070
0
    1040
0.5
    1070
0
    1002
}
    1000
LeadOut
    1002
{
    1070
0
    1040
0
    1040
0
    1040
0
    1070
0
    1002
}
    1000
IsFill
    1070
0
    1000
PathStart
    1040
0
    1000
ToolCompensation
    1002
{
    1070
0
    1040
0
    1070
0
    1002
}
       0
LINE
       5
2045
     100
AcDbEntity
       8
2
     100
AcDbLine
      10
504.3502416529
      20
641.1236
      30
0
      11
504.3502416529
      21
813.6236
      31
0
    1001
FS_CYPCUT
    1000
Channel
    1070
2
    1000
LeadIn
    1002
{
    1070
3
    1040
0
    1040
1.5707963267949
    1040
0.5
    1040
0.3
    1070
0
    1040
0.5
    1070
0
    1002
}
    1000
LeadOut
    1002
{
    1070
0
    1040
0
    1040
0
    1040
0
    1070
0
    1002
}
    1000
IsFill
    1070
0
    1000
PathStart
    1040
0
    1000
ToolCompensation
    1002
{
    1070
0
    1040
0
    1070
0
    1002
}
       0
LWPOLYLINE
       5
2046
     100
AcDbEntity
       8
1
     100
AcDbPolyline
      90
4
      70
1
      10
486.6933833059
      20
845.6236
      42
0
      10
486.6933833059
      20
835.6236
      42
-1
      10
479.1933833059
      20
835.6236
      42
0
      10
479.1933833059
      20
845.6236
      42
-1
    1001
FS_CYPCUT
    1000
Channel
    1070
1
    1000
LeadIn
    1002
{
    1070
3
    1040
0.5
    1040
1.5707963267949
    1040
0.5
    1040
0.3
    1070
0
    1040
0.5
    1070
0
    1002
}
    1000
LeadOut
    1002
{
    1070
0
    1040
0
    1040
0
    1040
0
    1070
0
    1002
}
    1000
IsFill
    1070
0
    1000
PathStart
    1040
0.5
    1000
ToolCompensation
    1002
{
    1070
0
    1040
0
    1070
0
    1002
}
       0
LINE
       5
2047
     100
AcDbEntity
       8
2
     100
AcDbLine
      10
697.5571
      20
640.4167416529
      30
0
      11
785.0571
      21
640.4167416529
      31
0
    1001
FS_CYPCUT
    1000
Channel
    1070
2
    1000
LeadIn
    1002
{
    1070
3
    1040
0
    1040
1.5707963267949
    1040
0.5
    1040
0.3
    1070
0
    1040
0.5
    1070
0
    1002
}
    1000
LeadOut
    1002
{
    1070
0
    1040
0
    1040
0
    1040
0
    1070
0
    1002
}
    1000
IsFill
    1070
0
    1000
PathStart
    1040
0
    1000
ToolCompensation
    1002
{
    1070
0
    1040
0
    1070
0
    1002
}
       0
LWPOLYLINE
       5
2048
     100
AcDbEntity
       8
1
     100
AcDbPolyline
      90
4
      70
1
      10
781.3071
      20
627.5098833059
      42
0
      10
781.3071
      20
619.5098833059
      42
-1
      10
774.3071
      20
619.5098833059
      42
0
      10
774.3071
      20
627.5098833059
      42
-1
    1001
FS_CYPCUT
    1000
Channel
    1070
1
    1000
LeadIn
    1002
{
    1070
3
    1040
0.5
    1040
1.5707963267949
    1040
0.5
    1040
0.3
    1070
0
    1040
0.5
    1070
0
    1002
}
    1000
LeadOut
    1002
{
    1070
0
    1040
0
    1040
0
    1040
0
    1070
0
    1002
}
    1000
IsFill
    1070
0
    1000
PathStart
    1040
0.5
    1000
ToolCompensation
    1002
{
    1070
0
    1040
0
    1070
0
    1002
}
       0
LINE
       5
2049
     100
AcDbEntity
       8
2
     100
AcDbLine
      10
785.7639583471
      20
641.1236
      30
0
      11
785.7639583471
      21
813.6236
      31
0
    1001
FS_CYPCUT
    1000
Channel
    1070
2
    1000
LeadIn
    1002
{
    1070
3
    1040
0
    1040
1.5707963267949
    1040
0.203429173549992
    1040
0.3
    1070
0
    1040
0.5
    1070
0
    1002
}
    1000
LeadOut
    1002
{
    1070
0
    1040
0
    1040
0
    1040
0
    1070
0
    1002
}
    1000
IsFill
    1070
0
    1000
PathStart
    1040
0
    1000
ToolCompensation
    1002
{
    1070
0
    1040
0
    1070
0
    1002
}
       0
LWPOLYLINE
       5
204A
     100
AcDbEntity
       8
1
     100
AcDbPolyline
      90
4
      70
1
      10
810.9208166941
      20
845.6236
      42
0
      10
810.9208166941
      20
835.6236
      42
-1
      10
803.4208166941
      20
835.6236
      42
0
      10
803.4208166941
      20
845.6236
      42
-1
    1001
FS_CYPCUT
    1000
Channel
    1070
1
    1000
LeadIn
    1002
{
    1070
3
    1040
0.5
    1040
1.5707963267949
    1040
0.5
    1040
0.3
    1070
0
    1040
0.5
    1070
0
    1002
}
    1000
LeadOut
    1002
{
    1070
0
    1040
0
    1040
0
    1040
0
    1070
0
    1002
}
    1000
IsFill
    1070
0
    1000
PathStart
    1040
0.5
    1000
ToolCompensation
    1002
{
    1070
0
    1040
0
    1070
0
    1002
}
       0
LWPOLYLINE
       5
204B
     100
AcDbEntity
       8
1
     100
AcDbPolyline
      90
42
      70
1
      10
475.4433833059
      20
850.6236
      42
0
      10
475.4433833059
      20
641.1236
      42
0
      10
505.0571
      20
641.1236
      42
0
      10
505.0571
      20
611.5098833059
      42
0
      10
590.5571
      20
611.5098833059
      42
0.414213562373092
      10
592.5571
      20
613.5098833059
      42
0
      10
592.5571
      20
649.1236
      42
-0.414213562373096
      10
594.5571
      20
651.1236
      42
0
      10
615.5571
      20
651.1236
      42
0.414213562373095
      10
617.5571
      20
653.1236
      42
0
      10
617.5571
      20
659.1236
      42
-0.4142135623731
      10
619.5571
      20
661.1236
      42
0
      10
630.5571
      20
661.1236
      42
-0.4142135623731
      10
632.5571
      20
659.1236
      42
0
      10
632.5571
      20
653.1236
      42
0.414213562373096
      10
634.5571
      20
651.1236
      42
0
      10
655.5571
      20
651.1236
      42
0.414213562373096
      10
657.5571
      20
653.1236
      42
0
      10
657.5571
      20
659.1236
      42
-0.4142135623731
      10
659.5571
      20
661.1236
      42
0
      10
670.5571
      20
661.1236
      42
-0.414213562373096
      10
672.5571
      20
659.1236
      42
0
      10
672.5571
      20
653.1236
      42
0.41421356237309
      10
674.5571
      20
651.1236
      42
0
      10
695.5571
      20
651.1236
      42
-0.414213562373096
      10
697.5571
      20
649.1236
      42
0
      10
697.5571
      20
613.5098833059
      42
0.414213562373088
      10
699.5571
      20
611.5098833059
      42
0
      10
785.0571
      20
611.5098833059
      42
0
      10
785.0571
      20
641.1236
      42
0
      10
814.6708166941
      20
641.1236
      42
0
      10
814.6708166941
      20
850.6236
      42
0.414213562373106
      10
811.6708166941
      20
853.6236
      42
0
      10
802.6708166941
      20
853.6236
      42
0.414213562373089
      10
799.6708166941
      20
850.6236
      42
0
      10
799.6708166941
      20
816.6236
      42
-0.414213562373085
      10
796.6708166941
      20
813.6236
      42
0
      10
493.4433833059
      20
813.6236
      42
-0.414213562373091
      10
490.4433833059
      20
816.6236
      42
0
      10
490.4433833059
      20
850.6236
      42
0.414213562373099
      10
487.4433833059
      20
853.6236
      42
0
      10
478.4433833059
      20
853.6236
      42
0.414213562373099
    1001
FS_CYPCUT
    1000
Channel
    1070
1
    1000
LeadIn
    1002
{
    1070
0
    1040
0
    1040
0
    1040
0
    1040
0
    1070
0
    1040
0
    1070
0
    1002
}
    1000
LeadOut
    1002
{
    1070
0
    1040
0
    1040
0
    1040
0
    1070
0
    1002
}
    1000
IsFill
    1070
1
    1000
PathStart
    1040
0
    1000
ToolCompensation
    1002
{
    1070
0
    1040
0
    1070
0
    1002
}
       0
ENDBLK
       5
204C
     330
2004
     100
AcDbEntity
       8
0
     100
AcDbBlockEnd
       0
BLOCK
       5
204D
     330
2005
     100
AcDbEntity
       8
0
     100
AcDbBlockBegin
       2
Part861707559
      70
0
      10
-169.613717
      20
-115.863717
      30
0
       3
Part861707559
       1

       4
CypCutBlock
       0
LWPOLYLINE
       5
204E
     100
AcDbEntity
       8
1
     100
AcDbPolyline
      90
4
      70
1
      10
-129.25
      20
-99.8637166941
      42
1
      10
-136.25
      20
-99.8637166941
      42
0
      10
-136.25
      20
-107.8637166941
      42
1
      10
-129.25
      20
-107.8637166941
      42
0
    1001
FS_CYPCUT
    1000
Channel
    1070
1
    1000
LeadIn
    1002
{
    1070
3
    1040
1.5
    1040
1.5707963267949
    1040
0.5
    1040
0.3
    1070
0
    1040
0.5
    1070
0
    1002
}
    1000
LeadOut
    1002
{
    1070
0
    1040
0
    1040
0
    1040
0
    1070
0
    1002
}
    1000
IsFill
    1070
0
    1000
PathStart
    1040
1.5
    1000
ToolCompensation
    1002
{
    1070
0
    1040
0
    1070
0
    1002
}
       0
LINE
       5
204F
     100
AcDbEntity
       8
2
     100
AcDbLine
      10
-140
      20
-86.9568583471
      30
0
      11
-52.5
      21
-86.9568583471
      31
0
    1001
FS_CYPCUT
    1000
Channel
    1070
2
    1000
LeadIn
    1002
{
    1070
3
    1040
0
    1040
1.5707963267949
    1040
0.203429173549999
    1040
0.3
    1070
0
    1040
0.5
    1070
0
    1002
}
    1000
LeadOut
    1002
{
    1070
0
    1040
0
    1040
0
    1040
0
    1070
0
    1002
}
    1000
IsFill
    1070
0
    1000
PathStart
    1040
0
    1000
ToolCompensation
    1002
{
    1070
0
    1040
0
    1070
0
    1002
}
       0
LINE
       5
2050
     100
AcDbEntity
       8
2
     100
AcDbLine
      10
-140.7068583471
      20
-86.25
      30
0
      11
-140.7068583471
      21
86.25
      31
0
    1001
FS_CYPCUT
    1000
Channel
    1070
2
    1000
LeadIn
    1002
{
    1070
3
    1040
0
    1040
1.5707963267949
    1040
0.5
    1040
0.3
    1070
0
    1040
0.5
    1070
0
    1002
}
    1000
LeadOut
    1002
{
    1070
0
    1040
0
    1040
0
    1040
0
    1070
0
    1002
}
    1000
IsFill
    1070
0
    1000
PathStart
    1040
0
    1000
ToolCompensation
    1002
{
    1070
0
    1040
0
    1070
0
    1002
}
       0
LWPOLYLINE
       5
2051
     100
AcDbEntity
       8
1
     100
AcDbPolyline
      90
4
      70
1
      10
-158.3637166941
      20
118.25
      42
0
      10
-158.3637166941
      20
108.25
      42
-1
      10
-165.8637166941
      20
108.25
      42
0
      10
-165.8637166941
      20
118.25
      42
-1
    1001
FS_CYPCUT
    1000
Channel
    1070
1
    1000
LeadIn
    1002
{
    1070
3
    1040
0.5
    1040
1.5707963267949
    1040
0.5
    1040
0.3
    1070
0
    1040
0.5
    1070
0
    1002
}
    1000
LeadOut
    1002
{
    1070
0
    1040
0
    1040
0
    1040
0
    1070
0
    1002
}
    1000
IsFill
    1070
0
    1000
PathStart
    1040
0.5
    1000
ToolCompensation
    1002
{
    1070
0
    1040
0
    1070
0
    1002
}
       0
LINE
       5
2052
     100
AcDbEntity
       8
2
     100
AcDbLine
      10
52.5
      20
-86.9568583471
      30
0
      11
140
      21
-86.9568583471
      31
0
    1001
FS_CYPCUT
    1000
Channel
    1070
2
    1000
LeadIn
    1002
{
    1070
3
    1040
0
    1040
1.5707963267949
    1040
0.5
    1040
0.3
    1070
0
    1040
0.5
    1070
0
    1002
}
    1000
LeadOut
    1002
{
    1070
0
    1040
0
    1040
0
    1040
0
    1070
0
    1002
}
    1000
IsFill
    1070
0
    1000
PathStart
    1040
0
    1000
ToolCompensation
    1002
{
    1070
0
    1040
0
    1070
0
    1002
}
       0
LWPOLYLINE
       5
2053
     100
AcDbEntity
       8
1
     100
AcDbPolyline
      90
4
      70
1
      10
136.25
      20
-99.8637166941
      42
0
      10
136.25
      20
-107.8637166941
      42
-1
      10
129.25
      20
-107.8637166941
      42
0
      10
129.25
      20
-99.8637166941
      42
-1
    1001
FS_CYPCUT
    1000
Channel
    1070
1
    1000
LeadIn
    1002
{
    1070
3
    1040
0.5
    1040
1.5707963267949
    1040
0.5
    1040
0.3
    1070
0
    1040
0.5
    1070
0
    1002
}
    1000
LeadOut
    1002
{
    1070
0
    1040
0
    1040
0
    1040
0
    1070
0
    1002
}
    1000
IsFill
    1070
0
    1000
PathStart
    1040
0.5
    1000
ToolCompensation
    1002
{
    1070
0
    1040
0
    1070
0
    1002
}
       0
LINE
       5
2054
     100
AcDbEntity
       8
2
     100
AcDbLine
      10
140.7068583471
      20
-86.25
      30
0
      11
140.7068583471
      21
86.25
      31
0
    1001
FS_CYPCUT
    1000
Channel
    1070
2
    1000
LeadIn
    1002
{
    1070
3
    1040
0
    1040
1.5707963267949
    1040
0.203429173549992
    1040
0.3
    1070
0
    1040
0.5
    1070
0
    1002
}
    1000
LeadOut
    1002
{
    1070
0
    1040
0
    1040
0
    1040
0
    1070
0
    1002
}
    1000
IsFill
    1070
0
    1000
PathStart
    1040
0
    1000
ToolCompensation
    1002
{
    1070
0
    1040
0
    1070
0
    1002
}
       0
LWPOLYLINE
       5
2055
     100
AcDbEntity
       8
1
     100
AcDbPolyline
      90
4
      70
1
      10
165.8637166941
      20
118.25
      42
0
      10
165.8637166941
      20
108.25
      42
-1
      10
158.3637166941
      20
108.25
      42
0
      10
158.3637166941
      20
118.25
      42
-1
    1001
FS_CYPCUT
    1000
Channel
    1070
1
    1000
LeadIn
    1002
{
    1070
3
    1040
0.5
    1040
1.5707963267949
    1040
0.5
    1040
0.3
    1070
0
    1040
0.5
    1070
0
    1002
}
    1000
LeadOut
    1002
{
    1070
0
    1040
0
    1040
0
    1040
0
    1070
0
    1002
}
    1000
IsFill
    1070
0
    1000
PathStart
    1040
0.5
    1000
ToolCompensation
    1002
{
    1070
0
    1040
0
    1070
0
    1002
}
       0
LWPOLYLINE
       5
2056
     100
AcDbEntity
       8
1
     100
AcDbPolyline
      90
42
      70
1
      10
169.6137166941
      20
123.25
      42
0
      10
169.6137166941
      20
-86.25
      42
0
      10
140
      20
-86.25
      42
0
      10
140
      20
-115.8637166941
      42
0
      10
54.5
      20
-115.8637166941
      42
-0.414213562373088
      10
52.5
      20
-113.8637166941
      42
0
      10
52.5
      20
-78.25
      42
0.414213562373096
      10
50.5
      20
-76.25
      42
0
      10
29.5
      20
-76.25
      42
-0.41421356237309
      10
27.5
      20
-74.25
      42
0
      10
27.5
      20
-68.25
      42
0.414213562373096
      10
25.5
      20
-66.25
      42
0
      10
14.5
      20
-66.25
      42
0.4142135623731
      10
12.5
      20
-68.25
      42
0
      10
12.5
      20
-74.25
      42
-0.414213562373096
      10
10.5
      20
-76.25
      42
0
      10
-10.5
      20
-76.25
      42
-0.414213562373096
      10
-12.5
      20
-74.25
      42
0
      10
-12.5
      20
-68.25
      42
0.4142135623731
      10
-14.5
      20
-66.25
      42
0
      10
-25.5
      20
-66.25
      42
0.4142135623731
      10
-27.5
      20
-68.25
      42
0
      10
-27.5
      20
-74.25
      42
-0.414213562373095
      10
-29.5
      20
-76.25
      42
0
      10
-50.5
      20
-76.25
      42
0.414213562373096
      10
-52.5
      20
-78.25
      42
0
      10
-52.5
      20
-113.8637166941
      42
-0.414213562373092
      10
-54.5
      20
-115.8637166941
      42
0
      10
-140
      20
-115.8637166941
      42
0
      10
-140
      20
-86.25
      42
0
      10
-169.6137166941
      20
-86.25
      42
0
      10
-169.6137166941
      20
123.25
      42
-0.414213562373099
      10
-166.6137166941
      20
126.25
      42
0
      10
-157.6137166941
      20
126.25
      42
-0.414213562373099
      10
-154.6137166941
      20
123.25
      42
0
      10
-154.6137166941
      20
89.25
      42
0.414213562373091
      10
-151.6137166941
      20
86.25
      42
0
      10
151.6137166941
      20
86.25
      42
0.414213562373085
      10
154.6137166941
      20
89.25
      42
0
      10
154.6137166941
      20
123.25
      42
-0.414213562373089
      10
157.6137166941
      20
126.25
      42
0
      10
166.6137166941
      20
126.25
      42
-0.414213562373106
    1001
FS_CYPCUT
    1000
Channel
    1070
1
    1000
LeadIn
    1002
{
    1070
3
    1040
36.5
    1040
1.5707963267949
    1040
0.5
    1040
0.3
    1070
0
    1040
0.5
    1070
0
    1002
}
    1000
LeadOut
    1002
{
    1070
0
    1040
0
    1040
0
    1040
0
    1070
0
    1002
}
    1000
IsFill
    1070
1
    1000
PathStart
    1040
36.5
    1000
ToolCompensation
    1002
{
    1070
0
    1040
0
    1070
0
    1002
}
    1000
MicroConnect
    1002
{
    1070
3
    1040
15.4531332
    1041
0.5
    1042
0
    1040
36.1527042
    1041
0.5
    1042
0
    1040
36.9212991
    1041
0.5
    1042
0
    1002
}
       0
ENDBLK
       5
2057
     330
2005
     100
AcDbEntity
       8
0
     100
AcDbBlockEnd
       0
BLOCK
       5
2058
     330
2006
     100
AcDbEntity
       8
0
     100
AcDbBlockBegin
       2
Part1729327045
      70
0
      10
-169.613717
      20
-115.863717
      30
0
       3
Part1729327045
       1

       4
CypCutBlock
       0
LWPOLYLINE
       5
2059
     100
AcDbEntity
       8
1
     100
AcDbPolyline
      90
4
      70
1
      10
-129.25
      20
-99.8637166941
      42
1
      10
-136.25
      20
-99.8637166941
      42
0
      10
-136.25
      20
-107.8637166941
      42
1
      10
-129.25
      20
-107.8637166941
      42
0
    1001
FS_CYPCUT
    1000
Channel
    1070
1
    1000
LeadIn
    1002
{
    1070
3
    1040
1.5
    1040
1.5707963267949
    1040
0.5
    1040
0.3
    1070
0
    1040
0.5
    1070
0
    1002
}
    1000
LeadOut
    1002
{
    1070
0
    1040
0
    1040
0
    1040
0
    1070
0
    1002
}
    1000
IsFill
    1070
0
    1000
PathStart
    1040
1.5
    1000
ToolCompensation
    1002
{
    1070
0
    1040
0
    1070
0
    1002
}
       0
LINE
       5
205A
     100
AcDbEntity
       8
2
     100
AcDbLine
      10
-140
      20
-86.9568583471
      30
0
      11
-52.5
      21
-86.9568583471
      31
0
    1001
FS_CYPCUT
    1000
Channel
    1070
2
    1000
LeadIn
    1002
{
    1070
3
    1040
0
    1040
1.5707963267949
    1040
0.203429173549999
    1040
0.3
    1070
0
    1040
0.5
    1070
0
    1002
}
    1000
LeadOut
    1002
{
    1070
0
    1040
0
    1040
0
    1040
0
    1070
0
    1002
}
    1000
IsFill
    1070
0
    1000
PathStart
    1040
0
    1000
ToolCompensation
    1002
{
    1070
0
    1040
0
    1070
0
    1002
}
       0
LINE
       5
205B
     100
AcDbEntity
       8
2
     100
AcDbLine
      10
-140.7068583471
      20
-86.25
      30
0
      11
-140.7068583471
      21
86.25
      31
0
    1001
FS_CYPCUT
    1000
Channel
    1070
2
    1000
LeadIn
    1002
{
    1070
3
    1040
0
    1040
1.5707963267949
    1040
0.5
    1040
0.3
    1070
0
    1040
0.5
    1070
0
    1002
}
    1000
LeadOut
    1002
{
    1070
0
    1040
0
    1040
0
    1040
0
    1070
0
    1002
}
    1000
IsFill
    1070
0
    1000
PathStart
    1040
0
    1000
ToolCompensation
    1002
{
    1070
0
    1040
0
    1070
0
    1002
}
       0
LWPOLYLINE
       5
205C
     100
AcDbEntity
       8
1
     100
AcDbPolyline
      90
4
      70
1
      10
-158.3637166941
      20
118.25
      42
0
      10
-158.3637166941
      20
108.25
      42
-1
      10
-165.8637166941
      20
108.25
      42
0
      10
-165.8637166941
      20
118.25
      42
-1
    1001
FS_CYPCUT
    1000
Channel
    1070
1
    1000
LeadIn
    1002
{
    1070
3
    1040
0.5
    1040
1.5707963267949
    1040
0.5
    1040
0.3
    1070
0
    1040
0.5
    1070
0
    1002
}
    1000
LeadOut
    1002
{
    1070
0
    1040
0
    1040
0
    1040
0
    1070
0
    1002
}
    1000
IsFill
    1070
0
    1000
PathStart
    1040
0.5
    1000
ToolCompensation
    1002
{
    1070
0
    1040
0
    1070
0
    1002
}
       0
LINE
       5
205D
     100
AcDbEntity
       8
2
     100
AcDbLine
      10
52.5
      20
-86.9568583471
      30
0
      11
140
      21
-86.9568583471
      31
0
    1001
FS_CYPCUT
    1000
Channel
    1070
2
    1000
LeadIn
    1002
{
    1070
3
    1040
0
    1040
1.5707963267949
    1040
0.5
    1040
0.3
    1070
0
    1040
0.5
    1070
0
    1002
}
    1000
LeadOut
    1002
{
    1070
0
    1040
0
    1040
0
    1040
0
    1070
0
    1002
}
    1000
IsFill
    1070
0
    1000
PathStart
    1040
0
    1000
ToolCompensation
    1002
{
    1070
0
    1040
0
    1070
0
    1002
}
       0
LWPOLYLINE
       5
205E
     100
AcDbEntity
       8
1
     100
AcDbPolyline
      90
4
      70
1
      10
136.25
      20
-99.8637166941
      42
0
      10
136.25
      20
-107.8637166941
      42
-1
      10
129.25
      20
-107.8637166941
      42
0
      10
129.25
      20
-99.8637166941
      42
-1
    1001
FS_CYPCUT
    1000
Channel
    1070
1
    1000
LeadIn
    1002
{
    1070
3
    1040
0.5
    1040
1.5707963267949
    1040
0.5
    1040
0.3
    1070
0
    1040
0.5
    1070
0
    1002
}
    1000
LeadOut
    1002
{
    1070
0
    1040
0
    1040
0
    1040
0
    1070
0
    1002
}
    1000
IsFill
    1070
0
    1000
PathStart
    1040
0.5
    1000
ToolCompensation
    1002
{
    1070
0
    1040
0
    1070
0
    1002
}
       0
LINE
       5
205F
     100
AcDbEntity
       8
2
     100
AcDbLine
      10
140.7068583471
      20
-86.25
      30
0
      11
140.7068583471
      21
86.25
      31
0
    1001
FS_CYPCUT
    1000
Channel
    1070
2
    1000
LeadIn
    1002
{
    1070
3
    1040
0
    1040
1.5707963267949
    1040
0.203429173549992
    1040
0.3
    1070
0
    1040
0.5
    1070
0
    1002
}
    1000
LeadOut
    1002
{
    1070
0
    1040
0
    1040
0
    1040
0
    1070
0
    1002
}
    1000
IsFill
    1070
0
    1000
PathStart
    1040
0
    1000
ToolCompensation
    1002
{
    1070
0
    1040
0
    1070
0
    1002
}
       0
LWPOLYLINE
       5
2060
     100
AcDbEntity
       8
1
     100
AcDbPolyline
      90
4
      70
1
      10
165.8637166941
      20
118.25
      42
0
      10
165.8637166941
      20
108.25
      42
-1
      10
158.3637166941
      20
108.25
      42
0
      10
158.3637166941
      20
118.25
      42
-1
    1001
FS_CYPCUT
    1000
Channel
    1070
1
    1000
LeadIn
    1002
{
    1070
3
    1040
0.5
    1040
1.5707963267949
    1040
0.5
    1040
0.3
    1070
0
    1040
0.5
    1070
0
    1002
}
    1000
LeadOut
    1002
{
    1070
0
    1040
0
    1040
0
    1040
0
    1070
0
    1002
}
    1000
IsFill
    1070
0
    1000
PathStart
    1040
0.5
    1000
ToolCompensation
    1002
{
    1070
0
    1040
0
    1070
0
    1002
}
       0
LWPOLYLINE
       5
2061
     100
AcDbEntity
       8
1
     100
AcDbPolyline
      90
42
      70
1
      10
169.6137166941
      20
123.25
      42
0
      10
169.6137166941
      20
-86.25
      42
0
      10
140
      20
-86.25
      42
0
      10
140
      20
-115.8637166941
      42
0
      10
54.5
      20
-115.8637166941
      42
-0.414213562373088
      10
52.5
      20
-113.8637166941
      42
0
      10
52.5
      20
-78.25
      42
0.414213562373096
      10
50.5
      20
-76.25
      42
0
      10
29.5
      20
-76.25
      42
-0.41421356237309
      10
27.5
      20
-74.25
      42
0
      10
27.5
      20
-68.25
      42
0.414213562373096
      10
25.5
      20
-66.25
      42
0
      10
14.5
      20
-66.25
      42
0.4142135623731
      10
12.5
      20
-68.25
      42
0
      10
12.5
      20
-74.25
      42
-0.414213562373096
      10
10.5
      20
-76.25
      42
0
      10
-10.5
      20
-76.25
      42
-0.414213562373096
      10
-12.5
      20
-74.25
      42
0
      10
-12.5
      20
-68.25
      42
0.4142135623731
      10
-14.5
      20
-66.25
      42
0
      10
-25.5
      20
-66.25
      42
0.4142135623731
      10
-27.5
      20
-68.25
      42
0
      10
-27.5
      20
-74.25
      42
-0.414213562373095
      10
-29.5
      20
-76.25
      42
0
      10
-50.5
      20
-76.25
      42
0.414213562373096
      10
-52.5
      20
-78.25
      42
0
      10
-52.5
      20
-113.8637166941
      42
-0.414213562373092
      10
-54.5
      20
-115.8637166941
      42
0
      10
-140
      20
-115.8637166941
      42
0
      10
-140
      20
-86.25
      42
0
      10
-169.6137166941
      20
-86.25
      42
0
      10
-169.6137166941
      20
123.25
      42
-0.414213562373099
      10
-166.6137166941
      20
126.25
      42
0
      10
-157.6137166941
      20
126.25
      42
-0.414213562373099
      10
-154.6137166941
      20
123.25
      42
0
      10
-154.6137166941
      20
89.25
      42
0.414213562373091
      10
-151.6137166941
      20
86.25
      42
0
      10
151.6137166941
      20
86.25
      42
0.414213562373085
      10
154.6137166941
      20
89.25
      42
0
      10
154.6137166941
      20
123.25
      42
-0.414213562373089
      10
157.6137166941
      20
126.25
      42
0
      10
166.6137166941
      20
126.25
      42
-0.414213562373106
    1001
FS_CYPCUT
    1000
Channel
    1070
1
    1000
LeadIn
    1002
{
    1070
3
    1040
36.5
    1040
1.5707963267949
    1040
0.5
    1040
0.3
    1070
0
    1040
0.5
    1070
0
    1002
}
    1000
LeadOut
    1002
{
    1070
0
    1040
0
    1040
0
    1040
0
    1070
0
    1002
}
    1000
IsFill
    1070
1
    1000
PathStart
    1040
36.5
    1000
ToolCompensation
    1002
{
    1070
0
    1040
0
    1070
0
    1002
}
    1000
MicroConnect
    1002
{
    1070
3
    1040
15.4531332
    1041
0.5
    1042
0
    1040
36.1527042
    1041
0.5
    1042
0
    1040
36.9212991
    1041
0.5
    1042
0
    1002
}
       0
ENDBLK
       5
2062
     330
2006
     100
AcDbEntity
       8
0
     100
AcDbBlockEnd
       0
BLOCK
       5
2063
     330
2007
     100
AcDbEntity
       8
0
     100
AcDbBlockBegin
       2
Part585200061
      70
0
      10
-166.730641
      20
-112.730641
      30
0
       3
Part585200061
       1

       4
CypCutBlock
       0
LINE
       5
2064
     100
AcDbEntity
       8
2
     100
AcDbLine
      10
-81.8653206381
      20
-27.7878679656
      30
0
      11
-81.8653206381
      21
27.7878679656
      31
0
    1001
FS_CYPCUT
    1000
Channel
    1070
2
    1000
LeadIn
    1002
{
    1070
0
    1040
0
    1040
0
    1040
0
    1040
0
    1070
0
    1040
0
    1070
0
    1002
}
    1000
LeadOut
    1002
{
    1070
0
    1040
0
    1040
0
    1040
0
    1070
0
    1002
}
    1000
IsFill
    1070
0
    1000
PathStart
    1040
0
    1000
ToolCompensation
    1002
{
    1070
0
    1040
0
    1070
0
    1002
}
       0
LINE
       5
2065
     100
AcDbEntity
       8
2
     100
AcDbLine
      10
-81.7878679656
      20
27.8653206381
      30
0
      11
80
      21
27.8653206381
      31
0
    1001
FS_CYPCUT
    1000
Channel
    1070
2
    1000
LeadIn
    1002
{
    1070
0
    1040
0
    1040
0
    1040
0
    1040
0
    1070
0
    1040
0
    1070
0
    1002
}
    1000
LeadOut
    1002
{
    1070
0
    1040
0
    1040
0
    1040
0
    1070
0
    1002
}
    1000
IsFill
    1070
0
    1000
PathStart
    1040
0
    1000
ToolCompensation
    1002
{
    1070
0
    1040
0
    1070
0
    1002
}
       0
LINE
       5
2066
     100
AcDbEntity
       8
2
     100
AcDbLine
      10
80
      20
-27.8653206381
      30
0
      11
-81.7878679656
      21
-27.8653206381
      31
0
    1001
FS_CYPCUT
    1000
Channel
    1070
2
    1000
LeadIn
    1002
{
    1070
0
    1040
0
    1040
0
    1040
0
    1040
0
    1070
0
    1040
0
    1070
0
    1002
}
    1000
LeadOut
    1002
{
    1070
0
    1040
0
    1040
0
    1040
0
    1070
0
    1002
}
    1000
IsFill
    1070
0
    1000
PathStart
    1040
0
    1000
ToolCompensation
    1002
{
    1070
0
    1040
0
    1070
0
    1002
}
       0
CIRCLE
       5
2067
     100
AcDbEntity
       8
1
     100
AcDbCircle
      10
20
      20
-16.5
      30
0
      40
3.50000000000001
    1001
FS_CYPCUT
    1000
Channel
    1070
1
    1000
LeadIn
    1002
{
    1070
3
    1040
0
    1040
1.5707963267949
    1040
2
    1040
1
    1070
0
    1040
0.5
    1070
0
    1002
}
    1000
LeadOut
    1002
{
    1070
0
    1040
0
    1040
0
    1040
0
    1070
0
    1002
}
    1000
IsFill
    1070
0
    1000
PathStart
    1040
1
    1000
ToolCompensation
    1002
{
    1070
0
    1040
0
    1070
0
    1002
}
       0
CIRCLE
       5
2068
     100
AcDbEntity
       8
1
     100
AcDbCircle
      10
20
      20
16.5
      30
0
      40
3.50000000000001
    1001
FS_CYPCUT
    1000
Channel
    1070
1
    1000
LeadIn
    1002
{
    1070
3
    1040
0
    1040
1.5707963267949
    1040
2
    1040
1
    1070
0
    1040
0.5
    1070
0
    1002
}
    1000
LeadOut
    1002
{
    1070
0
    1040
0
    1040
0
    1040
0
    1070
0
    1002
}
    1000
IsFill
    1070
0
    1000
PathStart
    1040
0
    1000
ToolCompensation
    1002
{
    1070
0
    1040
0
    1070
0
    1002
}
       0
LWPOLYLINE
       5
2069
     100
AcDbEntity
       8
1
     100
AcDbPolyline
      90
18
      70
1
      10
-81.7878679656
      20
112.7306412761
      42
0
      10
70
      20
112.7306412761
      42
-0.414213562373095
      10
80
      20
102.7306412761
      42
0
      10
80
      20
9
      42
-0.4142135623731
      10
78
      20
7
      42
0
      10
-31.526334039
      20
7
      42
-0.289689863302557
      10
-33.3333498448097
      20
8.14285714285566
      42
4.44151844010363
      10
-33.3333498448098
      20
-8.14285714285564
      42
-0.289689863302556
      10
-31.526334039
      20
-7
      42
0
      10
78
      20
-7
      42
-0.414213562373099
      10
80
      20
-9
      42
0
      10
80
      20
-102.7306412761
      42
-0.414213562373095
      10
70
      20
-112.7306412761
      42
0
      10
-81.7878679656
      20
-112.7306412761
      42
0
      10
-81.7878679656
      20
-27.7878679656
      42
0
      10
-166.7306412761
      20
-27.7878679656
      42
0.434730423170916
      10
-166.7306412761
      20
27.7878679656
      42
0
      10
-81.7878679656
      20
27.7878679656
      42
0
    1001
FS_CYPCUT
    1000
Channel
    1070
1
    1000
LeadIn
    1002
{
    1070
3
    1040
0.5
    1040
1.5707963267949
    1040
2
    1040
1
    1070
0
    1040
0.5
    1070
0
    1002
}
    1000
LeadOut
    1002
{
    1070
0
    1040
0
    1040
0
    1040
0
    1070
0
    1002
}
    1000
IsFill
    1070
1
    1000
PathStart
    1040
0.5
    1000
ToolCompensation
    1002
{
    1070
0
    1040
0
    1070
0
    1002
}
    1000
MicroConnect
    1002
{
    1070
3
    1040
0.599719735
    1041
0.5
    1042
0
    1040
12.4196022
    1041
0.5
    1042
0
    1040
15.5
    1041
0.5
    1042
0
    1002
}
       0
ENDBLK
       5
206A
     330
2007
     100
AcDbEntity
       8
0
     100
AcDbBlockEnd
       0
BLOCK
       5
206B
     330
2008
     100
AcDbEntity
       8
0
     100
AcDbBlockBegin
       2
Part863785971
      70
0
      10
-99.9329201
      20
-57.1696682
      30
0
       3
Part863785971
       1

       4
CypCutBlock
       0
CIRCLE
       5
206C
     100
AcDbEntity
       8
1
     100
AcDbCircle
      10
-68.7813830582
      20
-30.4125769067
      30
0
      40
11.5
    1001
FS_CYPCUT
    1000
Channel
    1070
1
    1000
LeadIn
    1002
{
    1070
3
    1040
0
    1040
1.5707963267949
    1040
0.5
    1040
0.5
    1070
0
    1040
0.5
    1070
0
    1002
}
    1000
LeadOut
    1002
{
    1070
0
    1040
0
    1040
0
    1040
0
    1070
0
    1002
}
    1000
IsFill
    1070
0
    1000
PathStart
    1040
0
    1000
ToolCompensation
    1002
{
    1070
0
    1040
0
    1070
0
    1002
}
       0
LINE
       5
206D
     100
AcDbEntity
       8
2
     100
AcDbLine
      10
-68.7854325767
      20
-0.8608786704
      30
0
      11
-41.1021934851
      21
-40.7646467303
      31
0
    1001
FS_CYPCUT
    1000
Channel
    1070
2
    1000
LeadIn
    1002
{
    1070
3
    1040
0
    1040
1.5707963267949
    1040
0.24751886094276
    1040
0.5
    1070
0
    1040
0.5
    1070
0
    1002
}
    1000
LeadOut
    1002
{
    1070
0
    1040
0
    1040
0
    1040
0
    1070
0
    1002
}
    1000
IsFill
    1070
0
    1000
PathStart
    1040
0
    1000
ToolCompensation
    1002
{
    1070
0
    1040
0
    1070
0
    1002
}
       0
LWPOLYLINE
       5
206E
     100
AcDbEntity
       8
1
     100
AcDbPolyline
      90
4
      70
1
      10
-78.4329201262
      20
32
      42
0
      10
-78.4329201262
      20
20
      42
-1
      10
-85.4329201262
      20
20
      42
0
      10
-85.4329201262
      20
32
      42
-1
    1001
FS_CYPCUT
    1000
Channel
    1070
1
    1000
LeadIn
    1002
{
    1070
3
    1040
0.5
    1040
1.5707963267949
    1040
0.5
    1040
0.5
    1070
0
    1040
0.5
    1070
0
    1002
}
    1000
LeadOut
    1002
{
    1070
0
    1040
0
    1040
0
    1040
0
    1070
0
    1002
}
    1000
IsFill
    1070
0
    1000
PathStart
    1040
0.5
    1000
ToolCompensation
    1002
{
    1070
0
    1040
0
    1070
0
    1002
}
       0
LINE
       5
206F
     100
AcDbEntity
       8
2
     100
AcDbLine
      10
-69.0914600631
      20
0.1171221805
      30
0
      11
-69.0914600631
      21
172.5
      31
0
    1001
FS_CYPCUT
    1000
Channel
    1070
2
    1000
LeadIn
    1002
{
    1070
3
    1040
0
    1040
1.5707963267949
    1040
0.5
    1040
0.5
    1070
0
    1040
0.5
    1070
0
    1002
}
    1000
LeadOut
    1002
{
    1070
0
    1040
0
    1040
0
    1040
0
    1070
0
    1002
}
    1000
IsFill
    1070
0
    1000
PathStart
    1040
0
    1000
ToolCompensation
    1002
{
    1070
0
    1040
0
    1070
0
    1002
}
       0
LWPOLYLINE
       5
2070
     100
AcDbEntity
       8
1
     100
AcDbPolyline
      90
4
      70
1
      10
-78.4329201262
      20
138.5
      42
0
      10
-78.4329201262
      20
126.5
      42
-1
      10
-85.4329201262
      20
126.5
      42
0
      10
-85.4329201262
      20
138.5
      42
-1
    1001
FS_CYPCUT
    1000
Channel
    1070
1
    1000
LeadIn
    1002
{
    1070
3
    1040
0.5
    1040
1.5707963267949
    1040
0.5
    1040
0.5
    1070
0
    1040
0.5
    1070
0
    1002
}
    1000
LeadOut
    1002
{
    1070
0
    1040
0
    1040
0
    1040
0
    1070
0
    1002
}
    1000
IsFill
    1070
0
    1000
PathStart
    1040
0.5
    1000
ToolCompensation
    1002
{
    1070
0
    1040
0
    1070
0
    1002
}
       0
LWPOLYLINE
       5
2071
     100
AcDbEntity
       8
1
     100
AcDbPolyline
      90
14
      70
1
      10
0
      20
171.5
      42
0
      10
0
      20
-0.5126602567
      42
-0.40681704590243
      10
-0.974683544304328
      20
-1.51233974387127
      42
0.399458525142026
      10
-38.4876602561287
      20
-39.0253164556957
      42
-0.406817045902434
      10
-39.4873397433
      20
-40
      42
0
      10
-40
      20
-40
      42
0
      10
-63.9777726713
      20
-56.6345797907
      42
-0.414213562373098
      10
-68.1527166747975
      20
-55.8797006166255
      42
0
      10
-94.1259233517
      20
-18.4408441455
      42
0
      10
-67.3757016205
      20
0.1171221805
      42
0
      10
-99.9329201262
      20
0.1171221805
      42
0
      10
-99.9329201262001
      20
169.5
      42
-0.414213562373096
      10
-96.9329201262
      20
172.5
      42
0
      10
-1
      20
172.5
      42
-0.414213562373079
    1001
FS_CYPCUT
    1000
Channel
    1070
1
    1000
LeadIn
    1002
{
    1070
3
    1040
0.5
    1040
1.5707963267949
    1040
0.5
    1040
0.5
    1070
0
    1040
0.5
    1070
0
    1002
}
    1000
LeadOut
    1002
{
    1070
0
    1040
0
    1040
0
    1040
0
    1070
0
    1002
}
    1000
IsFill
    1070
1
    1000
PathStart
    1040
0.5
    1000
ToolCompensation
    1002
{
    1070
0
    1040
0
    1070
0
    1002
}
    1000
MicroConnect
    1002
{
    1070
2
    1040
0.484841842
    1041
0.4
    1042
0
    1040
10.5326667
    1041
0.4
    1042
0
    1002
}
       0
ENDBLK
       5
2072
     330
2008
     100
AcDbEntity
       8
0
     100
AcDbBlockEnd
       0
BLOCK
       5
2073
     330
2009
     100
AcDbEntity
       8
0
     100
AcDbBlockBegin
       2
Part796859480
      70
0
      10
-166.730641
      20
-112.730641
      30
0
       3
Part796859480
       1

       4
CypCutBlock
       0
LINE
       5
2074
     100
AcDbEntity
       8
2
     100
AcDbLine
      10
-81.8653206381
      20
-27.7878679656
      30
0
      11
-81.8653206381
      21
27.7878679656
      31
0
    1001
FS_CYPCUT
    1000
Channel
    1070
2
    1000
LeadIn
    1002
{
    1070
0
    1040
0
    1040
0
    1040
0
    1040
0
    1070
0
    1040
0
    1070
0
    1002
}
    1000
LeadOut
    1002
{
    1070
0
    1040
0
    1040
0
    1040
0
    1070
0
    1002
}
    1000
IsFill
    1070
0
    1000
PathStart
    1040
0
    1000
ToolCompensation
    1002
{
    1070
0
    1040
0
    1070
0
    1002
}
       0
LINE
       5
2075
     100
AcDbEntity
       8
2
     100
AcDbLine
      10
-81.7878679656
      20
27.8653206381
      30
0
      11
80
      21
27.8653206381
      31
0
    1001
FS_CYPCUT
    1000
Channel
    1070
2
    1000
LeadIn
    1002
{
    1070
0
    1040
0
    1040
0
    1040
0
    1040
0
    1070
0
    1040
0
    1070
0
    1002
}
    1000
LeadOut
    1002
{
    1070
0
    1040
0
    1040
0
    1040
0
    1070
0
    1002
}
    1000
IsFill
    1070
0
    1000
PathStart
    1040
0
    1000
ToolCompensation
    1002
{
    1070
0
    1040
0
    1070
0
    1002
}
       0
LINE
       5
2076
     100
AcDbEntity
       8
2
     100
AcDbLine
      10
80
      20
-27.8653206381
      30
0
      11
-81.7878679656
      21
-27.8653206381
      31
0
    1001
FS_CYPCUT
    1000
Channel
    1070
2
    1000
LeadIn
    1002
{
    1070
0
    1040
0
    1040
0
    1040
0
    1040
0
    1070
0
    1040
0
    1070
0
    1002
}
    1000
LeadOut
    1002
{
    1070
0
    1040
0
    1040
0
    1040
0
    1070
0
    1002
}
    1000
IsFill
    1070
0
    1000
PathStart
    1040
0
    1000
ToolCompensation
    1002
{
    1070
0
    1040
0
    1070
0
    1002
}
       0
CIRCLE
       5
2077
     100
AcDbEntity
       8
1
     100
AcDbCircle
      10
20
      20
-16.5
      30
0
      40
3.50000000000001
    1001
FS_CYPCUT
    1000
Channel
    1070
1
    1000
LeadIn
    1002
{
    1070
3
    1040
0
    1040
1.5707963267949
    1040
2
    1040
1
    1070
0
    1040
0.5
    1070
0
    1002
}
    1000
LeadOut
    1002
{
    1070
0
    1040
0
    1040
0
    1040
0
    1070
0
    1002
}
    1000
IsFill
    1070
0
    1000
PathStart
    1040
1
    1000
ToolCompensation
    1002
{
    1070
0
    1040
0
    1070
0
    1002
}
       0
CIRCLE
       5
2078
     100
AcDbEntity
       8
1
     100
AcDbCircle
      10
20
      20
16.5
      30
0
      40
3.50000000000001
    1001
FS_CYPCUT
    1000
Channel
    1070
1
    1000
LeadIn
    1002
{
    1070
3
    1040
0
    1040
1.5707963267949
    1040
2
    1040
1
    1070
0
    1040
0.5
    1070
0
    1002
}
    1000
LeadOut
    1002
{
    1070
0
    1040
0
    1040
0
    1040
0
    1070
0
    1002
}
    1000
IsFill
    1070
0
    1000
PathStart
    1040
0
    1000
ToolCompensation
    1002
{
    1070
0
    1040
0
    1070
0
    1002
}
       0
LWPOLYLINE
       5
2079
     100
AcDbEntity
       8
1
     100
AcDbPolyline
      90
18
      70
1
      10
-81.7878679656
      20
112.7306412761
      42
0
      10
70
      20
112.7306412761
      42
-0.414213562373095
      10
80
      20
102.7306412761
      42
0
      10
80
      20
9
      42
-0.4142135623731
      10
78
      20
7
      42
0
      10
-31.526334039
      20
7
      42
-0.289689863302557
      10
-33.3333498448097
      20
8.14285714285566
      42
4.44151844010363
      10
-33.3333498448098
      20
-8.14285714285564
      42
-0.289689863302556
      10
-31.526334039
      20
-7
      42
0
      10
78
      20
-7
      42
-0.414213562373099
      10
80
      20
-9
      42
0
      10
80
      20
-102.7306412761
      42
-0.414213562373095
      10
70
      20
-112.7306412761
      42
0
      10
-81.7878679656
      20
-112.7306412761
      42
0
      10
-81.7878679656
      20
-27.7878679656
      42
0
      10
-166.7306412761
      20
-27.7878679656
      42
0.434730423170916
      10
-166.7306412761
      20
27.7878679656
      42
0
      10
-81.7878679656
      20
27.7878679656
      42
0
    1001
FS_CYPCUT
    1000
Channel
    1070
1
    1000
LeadIn
    1002
{
    1070
3
    1040
0.5
    1040
1.5707963267949
    1040
2
    1040
1
    1070
0
    1040
0.5
    1070
0
    1002
}
    1000
LeadOut
    1002
{
    1070
0
    1040
0
    1040
0
    1040
0
    1070
0
    1002
}
    1000
IsFill
    1070
1
    1000
PathStart
    1040
0.5
    1000
ToolCompensation
    1002
{
    1070
0
    1040
0
    1070
0
    1002
}
    1000
MicroConnect
    1002
{
    1070
3
    1040
0.599719735
    1041
0.5
    1042
0
    1040
12.4196022
    1041
0.5
    1042
0
    1040
15.5
    1041
0.5
    1042
0
    1002
}
       0
ENDBLK
       5
207A
     330
2009
     100
AcDbEntity
       8
0
     100
AcDbBlockEnd
       0
BLOCK
       5
207B
     330
200A
     100
AcDbEntity
       8
0
     100
AcDbBlockBegin
       2
Part926107358
      70
0
      10
-169.613717
      20
-115.863717
      30
0
       3
Part926107358
       1

       4
CypCutBlock
       0
LWPOLYLINE
       5
207C
     100
AcDbEntity
       8
1
     100
AcDbPolyline
      90
4
      70
1
      10
-129.25
      20
-99.8637166941
      42
1
      10
-136.25
      20
-99.8637166941
      42
0
      10
-136.25
      20
-107.8637166941
      42
1
      10
-129.25
      20
-107.8637166941
      42
0
    1001
FS_CYPCUT
    1000
Channel
    1070
1
    1000
LeadIn
    1002
{
    1070
3
    1040
1.5
    1040
1.5707963267949
    1040
0.5
    1040
0.3
    1070
0
    1040
0.5
    1070
0
    1002
}
    1000
LeadOut
    1002
{
    1070
0
    1040
0
    1040
0
    1040
0
    1070
0
    1002
}
    1000
IsFill
    1070
0
    1000
PathStart
    1040
1.5
    1000
ToolCompensation
    1002
{
    1070
0
    1040
0
    1070
0
    1002
}
       0
LINE
       5
207D
     100
AcDbEntity
       8
2
     100
AcDbLine
      10
-140
      20
-86.9568583471
      30
0
      11
-52.5
      21
-86.9568583471
      31
0
    1001
FS_CYPCUT
    1000
Channel
    1070
2
    1000
LeadIn
    1002
{
    1070
3
    1040
0
    1040
1.5707963267949
    1040
0.203429173549999
    1040
0.3
    1070
0
    1040
0.5
    1070
0
    1002
}
    1000
LeadOut
    1002
{
    1070
0
    1040
0
    1040
0
    1040
0
    1070
0
    1002
}
    1000
IsFill
    1070
0
    1000
PathStart
    1040
0
    1000
ToolCompensation
    1002
{
    1070
0
    1040
0
    1070
0
    1002
}
       0
LINE
       5
207E
     100
AcDbEntity
       8
2
     100
AcDbLine
      10
-140.7068583471
      20
-86.25
      30
0
      11
-140.7068583471
      21
86.25
      31
0
    1001
FS_CYPCUT
    1000
Channel
    1070
2
    1000
LeadIn
    1002
{
    1070
3
    1040
0
    1040
1.5707963267949
    1040
0.5
    1040
0.3
    1070
0
    1040
0.5
    1070
0
    1002
}
    1000
LeadOut
    1002
{
    1070
0
    1040
0
    1040
0
    1040
0
    1070
0
    1002
}
    1000
IsFill
    1070
0
    1000
PathStart
    1040
0
    1000
ToolCompensation
    1002
{
    1070
0
    1040
0
    1070
0
    1002
}
       0
LWPOLYLINE
       5
207F
     100
AcDbEntity
       8
1
     100
AcDbPolyline
      90
4
      70
1
      10
-158.3637166941
      20
118.25
      42
0
      10
-158.3637166941
      20
108.25
      42
-1
      10
-165.8637166941
      20
108.25
      42
0
      10
-165.8637166941
      20
118.25
      42
-1
    1001
FS_CYPCUT
    1000
Channel
    1070
1
    1000
LeadIn
    1002
{
    1070
3
    1040
0.5
    1040
1.5707963267949
    1040
0.5
    1040
0.3
    1070
0
    1040
0.5
    1070
0
    1002
}
    1000
LeadOut
    1002
{
    1070
0
    1040
0
    1040
0
    1040
0
    1070
0
    1002
}
    1000
IsFill
    1070
0
    1000
PathStart
    1040
0.5
    1000
ToolCompensation
    1002
{
    1070
0
    1040
0
    1070
0
    1002
}
       0
LINE
       5
2080
     100
AcDbEntity
       8
2
     100
AcDbLine
      10
52.5
      20
-86.9568583471
      30
0
      11
140
      21
-86.9568583471
      31
0
    1001
FS_CYPCUT
    1000
Channel
    1070
2
    1000
LeadIn
    1002
{
    1070
3
    1040
0
    1040
1.5707963267949
    1040
0.5
    1040
0.3
    1070
0
    1040
0.5
    1070
0
    1002
}
    1000
LeadOut
    1002
{
    1070
0
    1040
0
    1040
0
    1040
0
    1070
0
    1002
}
    1000
IsFill
    1070
0
    1000
PathStart
    1040
0
    1000
ToolCompensation
    1002
{
    1070
0
    1040
0
    1070
0
    1002
}
       0
LWPOLYLINE
       5
2081
     100
AcDbEntity
       8
1
     100
AcDbPolyline
      90
4
      70
1
      10
136.25
      20
-99.8637166941
      42
0
      10
136.25
      20
-107.8637166941
      42
-1
      10
129.25
      20
-107.8637166941
      42
0
      10
129.25
      20
-99.8637166941
      42
-1
    1001
FS_CYPCUT
    1000
Channel
    1070
1
    1000
LeadIn
    1002
{
    1070
3
    1040
0.5
    1040
1.5707963267949
    1040
0.5
    1040
0.3
    1070
0
    1040
0.5
    1070
0
    1002
}
    1000
LeadOut
    1002
{
    1070
0
    1040
0
    1040
0
    1040
0
    1070
0
    1002
}
    1000
IsFill
    1070
0
    1000
PathStart
    1040
0.5
    1000
ToolCompensation
    1002
{
    1070
0
    1040
0
    1070
0
    1002
}
       0
LINE
       5
2082
     100
AcDbEntity
       8
2
     100
AcDbLine
      10
140.7068583471
      20
-86.25
      30
0
      11
140.7068583471
      21
86.25
      31
0
    1001
FS_CYPCUT
    1000
Channel
    1070
2
    1000
LeadIn
    1002
{
    1070
3
    1040
0
    1040
1.5707963267949
    1040
0.203429173549992
    1040
0.3
    1070
0
    1040
0.5
    1070
0
    1002
}
    1000
LeadOut
    1002
{
    1070
0
    1040
0
    1040
0
    1040
0
    1070
0
    1002
}
    1000
IsFill
    1070
0
    1000
PathStart
    1040
0
    1000
ToolCompensation
    1002
{
    1070
0
    1040
0
    1070
0
    1002
}
       0
LWPOLYLINE
       5
2083
     100
AcDbEntity
       8
1
     100
AcDbPolyline
      90
4
      70
1
      10
165.8637166941
      20
118.25
      42
0
      10
165.8637166941
      20
108.25
      42
-1
      10
158.3637166941
      20
108.25
      42
0
      10
158.3637166941
      20
118.25
      42
-1
    1001
FS_CYPCUT
    1000
Channel
    1070
1
    1000
LeadIn
    1002
{
    1070
3
    1040
0.5
    1040
1.5707963267949
    1040
0.5
    1040
0.3
    1070
0
    1040
0.5
    1070
0
    1002
}
    1000
LeadOut
    1002
{
    1070
0
    1040
0
    1040
0
    1040
0
    1070
0
    1002
}
    1000
IsFill
    1070
0
    1000
PathStart
    1040
0.5
    1000
ToolCompensation
    1002
{
    1070
0
    1040
0
    1070
0
    1002
}
       0
LWPOLYLINE
       5
2084
     100
AcDbEntity
       8
1
     100
AcDbPolyline
      90
42
      70
1
      10
169.6137166941
      20
123.25
      42
0
      10
169.6137166941
      20
-86.25
      42
0
      10
140
      20
-86.25
      42
0
      10
140
      20
-115.8637166941
      42
0
      10
54.5
      20
-115.8637166941
      42
-0.414213562373088
      10
52.5
      20
-113.8637166941
      42
0
      10
52.5
      20
-78.25
      42
0.414213562373096
      10
50.5
      20
-76.25
      42
0
      10
29.5
      20
-76.25
      42
-0.41421356237309
      10
27.5
      20
-74.25
      42
0
      10
27.5
      20
-68.25
      42
0.414213562373096
      10
25.5
      20
-66.25
      42
0
      10
14.5
      20
-66.25
      42
0.4142135623731
      10
12.5
      20
-68.25
      42
0
      10
12.5
      20
-74.25
      42
-0.414213562373096
      10
10.5
      20
-76.25
      42
0
      10
-10.5
      20
-76.25
      42
-0.414213562373096
      10
-12.5
      20
-74.25
      42
0
      10
-12.5
      20
-68.25
      42
0.4142135623731
      10
-14.5
      20
-66.25
      42
0
      10
-25.5
      20
-66.25
      42
0.4142135623731
      10
-27.5
      20
-68.25
      42
0
      10
-27.5
      20
-74.25
      42
-0.414213562373095
      10
-29.5
      20
-76.25
      42
0
      10
-50.5
      20
-76.25
      42
0.414213562373096
      10
-52.5
      20
-78.25
      42
0
      10
-52.5
      20
-113.8637166941
      42
-0.414213562373092
      10
-54.5
      20
-115.8637166941
      42
0
      10
-140
      20
-115.8637166941
      42
0
      10
-140
      20
-86.25
      42
0
      10
-169.6137166941
      20
-86.25
      42
0
      10
-169.6137166941
      20
123.25
      42
-0.414213562373099
      10
-166.6137166941
      20
126.25
      42
0
      10
-157.6137166941
      20
126.25
      42
-0.414213562373099
      10
-154.6137166941
      20
123.25
      42
0
      10
-154.6137166941
      20
89.25
      42
0.414213562373091
      10
-151.6137166941
      20
86.25
      42
0
      10
151.6137166941
      20
86.25
      42
0.414213562373085
      10
154.6137166941
      20
89.25
      42
0
      10
154.6137166941
      20
123.25
      42
-0.414213562373089
      10
157.6137166941
      20
126.25
      42
0
      10
166.6137166941
      20
126.25
      42
-0.414213562373106
    1001
FS_CYPCUT
    1000
Channel
    1070
1
    1000
LeadIn
    1002
{
    1070
3
    1040
36.5
    1040
1.5707963267949
    1040
0.5
    1040
0.3
    1070
0
    1040
0.5
    1070
0
    1002
}
    1000
LeadOut
    1002
{
    1070
0
    1040
0
    1040
0
    1040
0
    1070
0
    1002
}
    1000
IsFill
    1070
1
    1000
PathStart
    1040
36.5
    1000
ToolCompensation
    1002
{
    1070
0
    1040
0
    1070
0
    1002
}
    1000
MicroConnect
    1002
{
    1070
3
    1040
15.4531332
    1041
0.5
    1042
0
    1040
36.1527042
    1041
0.5
    1042
0
    1040
36.9212991
    1041
0.5
    1042
0
    1002
}
       0
ENDBLK
       5
2085
     330
200A
     100
AcDbEntity
       8
0
     100
AcDbBlockEnd
       0
BLOCK
       5
2086
     330
200B
     100
AcDbEntity
       8
0
     100
AcDbBlockBegin
       2
Part883143062
      70
0
      10
-99.9329201
      20
-57.1696682
      30
0
       3
Part883143062
       1

       4
CypCutBlock
       0
CIRCLE
       5
2087
     100
AcDbEntity
       8
1
     100
AcDbCircle
      10
-68.7813830582
      20
-30.4125769067
      30
0
      40
11.5
    1001
FS_CYPCUT
    1000
Channel
    1070
1
    1000
LeadIn
    1002
{
    1070
3
    1040
0
    1040
1.5707963267949
    1040
0.5
    1040
0.5
    1070
0
    1040
0.5
    1070
0
    1002
}
    1000
LeadOut
    1002
{
    1070
0
    1040
0
    1040
0
    1040
0
    1070
0
    1002
}
    1000
IsFill
    1070
0
    1000
PathStart
    1040
0
    1000
ToolCompensation
    1002
{
    1070
0
    1040
0
    1070
0
    1002
}
       0
LINE
       5
2088
     100
AcDbEntity
       8
2
     100
AcDbLine
      10
-68.7854325767
      20
-0.8608786704
      30
0
      11
-41.1021934851
      21
-40.7646467303
      31
0
    1001
FS_CYPCUT
    1000
Channel
    1070
2
    1000
LeadIn
    1002
{
    1070
3
    1040
0
    1040
1.5707963267949
    1040
0.24751886094276
    1040
0.5
    1070
0
    1040
0.5
    1070
0
    1002
}
    1000
LeadOut
    1002
{
    1070
0
    1040
0
    1040
0
    1040
0
    1070
0
    1002
}
    1000
IsFill
    1070
0
    1000
PathStart
    1040
0
    1000
ToolCompensation
    1002
{
    1070
0
    1040
0
    1070
0
    1002
}
       0
LWPOLYLINE
       5
2089
     100
AcDbEntity
       8
1
     100
AcDbPolyline
      90
4
      70
1
      10
-78.4329201262
      20
32
      42
0
      10
-78.4329201262
      20
20
      42
-1
      10
-85.4329201262
      20
20
      42
0
      10
-85.4329201262
      20
32
      42
-1
    1001
FS_CYPCUT
    1000
Channel
    1070
1
    1000
LeadIn
    1002
{
    1070
3
    1040
0.5
    1040
1.5707963267949
    1040
0.5
    1040
0.5
    1070
0
    1040
0.5
    1070
0
    1002
}
    1000
LeadOut
    1002
{
    1070
0
    1040
0
    1040
0
    1040
0
    1070
0
    1002
}
    1000
IsFill
    1070
0
    1000
PathStart
    1040
0.5
    1000
ToolCompensation
    1002
{
    1070
0
    1040
0
    1070
0
    1002
}
       0
LINE
       5
208A
     100
AcDbEntity
       8
2
     100
AcDbLine
      10
-69.0914600631
      20
0.1171221805
      30
0
      11
-69.0914600631
      21
172.5
      31
0
    1001
FS_CYPCUT
    1000
Channel
    1070
2
    1000
LeadIn
    1002
{
    1070
3
    1040
0
    1040
1.5707963267949
    1040
0.5
    1040
0.5
    1070
0
    1040
0.5
    1070
0
    1002
}
    1000
LeadOut
    1002
{
    1070
0
    1040
0
    1040
0
    1040
0
    1070
0
    1002
}
    1000
IsFill
    1070
0
    1000
PathStart
    1040
0
    1000
ToolCompensation
    1002
{
    1070
0
    1040
0
    1070
0
    1002
}
       0
LWPOLYLINE
       5
208B
     100
AcDbEntity
       8
1
     100
AcDbPolyline
      90
4
      70
1
      10
-78.4329201262
      20
138.5
      42
0
      10
-78.4329201262
      20
126.5
      42
-1
      10
-85.4329201262
      20
126.5
      42
0
      10
-85.4329201262
      20
138.5
      42
-1
    1001
FS_CYPCUT
    1000
Channel
    1070
1
    1000
LeadIn
    1002
{
    1070
3
    1040
0.5
    1040
1.5707963267949
    1040
0.5
    1040
0.5
    1070
0
    1040
0.5
    1070
0
    1002
}
    1000
LeadOut
    1002
{
    1070
0
    1040
0
    1040
0
    1040
0
    1070
0
    1002
}
    1000
IsFill
    1070
0
    1000
PathStart
    1040
0.5
    1000
ToolCompensation
    1002
{
    1070
0
    1040
0
    1070
0
    1002
}
       0
LWPOLYLINE
       5
208C
     100
AcDbEntity
       8
1
     100
AcDbPolyline
      90
14
      70
1
      10
0
      20
171.5
      42
0
      10
0
      20
-0.5126602567
      42
-0.40681704590243
      10
-0.974683544304328
      20
-1.51233974387127
      42
0.399458525142026
      10
-38.4876602561287
      20
-39.0253164556957
      42
-0.406817045902434
      10
-39.4873397433
      20
-40
      42
0
      10
-40
      20
-40
      42
0
      10
-63.9777726713
      20
-56.6345797907
      42
-0.414213562373098
      10
-68.1527166747975
      20
-55.8797006166255
      42
0
      10
-94.1259233517
      20
-18.4408441455
      42
0
      10
-67.3757016205
      20
0.1171221805
      42
0
      10
-99.9329201262
      20
0.1171221805
      42
0
      10
-99.9329201262001
      20
169.5
      42
-0.414213562373096
      10
-96.9329201262
      20
172.5
      42
0
      10
-1
      20
172.5
      42
-0.414213562373079
    1001
FS_CYPCUT
    1000
Channel
    1070
1
    1000
LeadIn
    1002
{
    1070
3
    1040
0.5
    1040
1.5707963267949
    1040
0.5
    1040
0.5
    1070
0
    1040
0.5
    1070
0
    1002
}
    1000
LeadOut
    1002
{
    1070
0
    1040
0
    1040
0
    1040
0
    1070
0
    1002
}
    1000
IsFill
    1070
1
    1000
PathStart
    1040
0.5
    1000
ToolCompensation
    1002
{
    1070
0
    1040
0
    1070
0
    1002
}
    1000
MicroConnect
    1002
{
    1070
2
    1040
0.484841842
    1041
0.4
    1042
0
    1040
10.5326667
    1041
0.4
    1042
0
    1002
}
       0
ENDBLK
       5
208D
     330
200B
     100
AcDbEntity
       8
0
     100
AcDbBlockEnd
       0
ENDSEC
       0
SECTION
       2
ENTITIES
       0
LWPOLYLINE
       5
208E
     100
AcDbEntity
       8
1
     100
AcDbPolyline
      90
4
      70
1
      10
1080.0007310766
      20
2132.13341270799
      42
0
      10
1080.0007310766
      20
2124.83341270799
      42
0
      10
1072.7007310766
      20
2124.83341270799
      42
0
      10
1072.7007310766
      20
2132.13341270799
      42
0
    1001
FS_CYPCUT
    1000
Channel
    1070
1
    1000
LeadIn
    1002
{
    1070
3
    1040
3.5
    1040
1.5707963267949
    1040
2
    1040
1
    1070
0
    1040
0.5
    1070
0
    1002
}
    1000
LeadOut
    1002
{
    1070
0
    1040
0
    1040
0
    1040
0
    1070
0
    1002
}
    1000
IsFill
    1070
0
    1000
PathStart
    1040
3.5
    1000
ToolCompensation
    1002
{
    1070
0
    1040
0
    1070
0
    1002
}
       0
LWPOLYLINE
       5
208F
     100
AcDbEntity
       8
1
     100
AcDbPolyline
      90
4
      70
1
      10
1080.0007310766
      20
2312.13341270799
      42
0
      10
1080.0007310766
      20
2304.83341270799
      42
0
      10
1072.7007310766
      20
2304.83341270799
      42
0
      10
1072.7007310766
      20
2312.13341270799
      42
0
    1001
FS_CYPCUT
    1000
Channel
    1070
1
    1000
LeadIn
    1002
{
    1070
3
    1040
0.5
    1040
1.5707963267949
    1040
2
    1040
1
    1070
0
    1040
0.5
    1070
0
    1002
}
    1000
LeadOut
    1002
{
    1070
0
    1040
0
    1040
0
    1040
0
    1070
0
    1002
}
    1000
IsFill
    1070
0
    1000
PathStart
    1040
0.5
    1000
ToolCompensation
    1002
{
    1070
0
    1040
0
    1070
0
    1002
}
       0
LWPOLYLINE
       5
2090
     100
AcDbEntity
       8
1
     100
AcDbPolyline
      90
4
      70
1
      10
1410.0007310766
      20
2132.13341270799
      42
0
      10
1410.0007310766
      20
2124.83341270799
      42
0
      10
1402.7007310766
      20
2124.83341270799
      42
0
      10
1402.7007310766
      20
2132.13341270799
      42
0
    1001
FS_CYPCUT
    1000
Channel
    1070
1
    1000
LeadIn
    1002
{
    1070
3
    1040
0.5
    1040
1.5707963267949
    1040
2
    1040
1
    1070
0
    1040
0.5
    1070
0
    1002
}
    1000
LeadOut
    1002
{
    1070
0
    1040
0
    1040
0
    1040
0
    1070
0
    1002
}
    1000
IsFill
    1070
0
    1000
PathStart
    1040
0.5
    1000
ToolCompensation
    1002
{
    1070
0
    1040
0
    1070
0
    1002
}
       0
LWPOLYLINE
       5
2091
     100
AcDbEntity
       8
1
     100
AcDbPolyline
      90
4
      70
1
      10
1410.0007310766
      20
2312.13341270799
      42
0
      10
1410.0007310766
      20
2304.83341270799
      42
0
      10
1402.7007310766
      20
2304.83341270799
      42
0
      10
1402.7007310766
      20
2312.13341270799
      42
0
    1001
FS_CYPCUT
    1000
Channel
    1070
1
    1000
LeadIn
    1002
{
    1070
3
    1040
3.5
    1040
1.5707963267949
    1040
2
    1040
1
    1070
0
    1040
0.5
    1070
0
    1002
}
    1000
LeadOut
    1002
{
    1070
0
    1040
0
    1040
0
    1040
0
    1070
0
    1002
}
    1000
IsFill
    1070
0
    1000
PathStart
    1040
3.5
    1000
ToolCompensation
    1002
{
    1070
0
    1040
0
    1070
0
    1002
}
       0
LWPOLYLINE
       5
2092
     100
AcDbEntity
       8
1
     100
AcDbPolyline
      90
8
      70
0
      10
1416.3507310766
      20
2308.48341270799
      42
0.414213562373095
      10
1406.3507310766
      20
2318.48341270799
      42
0
      10
1076.3507310766
      20
2318.48341270799
      42
0.414213562373096
      10
1066.3507310766
      20
2308.48341270799
      42
0
      10
1066.3507310766
      20
2128.48341270799
      42
0.414213562373095
      10
1076.3507310766
      20
2118.48341270799
      42
0
      10
1406.3507310766
      20
2118.48341270799
      42
0.414213562373096
      10
1416.3507310766
      20
2128.48341270799
      42
0
    1001
FS_CYPCUT
    1000
Channel
    1070
1
    1000
LeadIn
    1002
{
    1070
0
    1040
0.00636619772367582
    1040
1.5707963267949
    1040
2
    1040
1
    1070
0
    1040
0.5
    1070
0
    1002
}
    1000
LeadOut
    1002
{
    1070
0
    1040
0
    1040
0
    1040
0
    1070
0
    1002
}
    1000
IsFill
    1070
1
    1000
PathStart
    1040
0
    1000
ToolCompensation
    1002
{
    1070
0
    1040
0
    1070
0
    1002
}
    1000
MicroConnect
    1002
{
    1070
1
    1040
0
    1041
0.1
    1042
0
    1002
}
       0
LWPOLYLINE
       5
2093
     100
AcDbEntity
       8
1
     100
AcDbPolyline
      90
4
      70
1
      10
1430.0008310766
      20
2132.13341270799
      42
0
      10
1430.0008310766
      20
2124.83341270799
      42
0
      10
1422.7008310766
      20
2124.83341270799
      42
0
      10
1422.7008310766
      20
2132.13341270799
      42
0
    1001
FS_CYPCUT
    1000
Channel
    1070
1
    1000
LeadIn
    1002
{
    1070
3
    1040
3.5
    1040
1.5707963267949
    1040
2
    1040
1
    1070
0
    1040
0.5
    1070
0
    1002
}
    1000
LeadOut
    1002
{
    1070
0
    1040
0
    1040
0
    1040
0
    1070
0
    1002
}
    1000
IsFill
    1070
0
    1000
PathStart
    1040
3.5
    1000
ToolCompensation
    1002
{
    1070
0
    1040
0
    1070
0
    1002
}
       0
LWPOLYLINE
       5
2094
     100
AcDbEntity
       8
1
     100
AcDbPolyline
      90
4
      70
1
      10
1430.0008310766
      20
2312.13341270799
      42
0
      10
1430.0008310766
      20
2304.83341270799
      42
0
      10
1422.7008310766
      20
2304.83341270799
      42
0
      10
1422.7008310766
      20
2312.13341270799
      42
0
    1001
FS_CYPCUT
    1000
Channel
    1070
1
    1000
LeadIn
    1002
{
    1070
3
    1040
0.5
    1040
1.5707963267949
    1040
2
    1040
1
    1070
0
    1040
0.5
    1070
0
    1002
}
    1000
LeadOut
    1002
{
    1070
0
    1040
0
    1040
0
    1040
0
    1070
0
    1002
}
    1000
IsFill
    1070
0
    1000
PathStart
    1040
0.5
    1000
ToolCompensation
    1002
{
    1070
0
    1040
0
    1070
0
    1002
}
       0
LWPOLYLINE
       5
2095
     100
AcDbEntity
       8
1
     100
AcDbPolyline
      90
4
      70
1
      10
1760.0008310766
      20
2132.13341270799
      42
0
      10
1760.0008310766
      20
2124.83341270799
      42
0
      10
1752.7008310766
      20
2124.83341270799
      42
0
      10
1752.7008310766
      20
2132.13341270799
      42
0
    1001
FS_CYPCUT
    1000
Channel
    1070
1
    1000
LeadIn
    1002
{
    1070
3
    1040
0.5
    1040
1.5707963267949
    1040
2
    1040
1
    1070
0
    1040
0.5
    1070
0
    1002
}
    1000
LeadOut
    1002
{
    1070
0
    1040
0
    1040
0
    1040
0
    1070
0
    1002
}
    1000
IsFill
    1070
0
    1000
PathStart
    1040
0.5
    1000
ToolCompensation
    1002
{
    1070
0
    1040
0
    1070
0
    1002
}
       0
LWPOLYLINE
       5
2096
     100
AcDbEntity
       8
1
     100
AcDbPolyline
      90
4
      70
1
      10
1760.0008310766
      20
2312.13341270799
      42
0
      10
1760.0008310766
      20
2304.83341270799
      42
0
      10
1752.7008310766
      20
2304.83341270799
      42
0
      10
1752.7008310766
      20
2312.13341270799
      42
0
    1001
FS_CYPCUT
    1000
Channel
    1070
1
    1000
LeadIn
    1002
{
    1070
3
    1040
3.5
    1040
1.5707963267949
    1040
2
    1040
1
    1070
0
    1040
0.5
    1070
0
    1002
}
    1000
LeadOut
    1002
{
    1070
0
    1040
0
    1040
0
    1040
0
    1070
0
    1002
}
    1000
IsFill
    1070
0
    1000
PathStart
    1040
3.5
    1000
ToolCompensation
    1002
{
    1070
0
    1040
0
    1070
0
    1002
}
       0
LWPOLYLINE
       5
2097
     100
AcDbEntity
       8
1
     100
AcDbPolyline
      90
8
      70
1
      10
1416.3508310766
      20
2308.48341270799
      42
0
      10
1416.3508310766
      20
2128.48341270799
      42
0.414213562373095
      10
1426.3508310766
      20
2118.48341270799
      42
0
      10
1756.3508310766
      20
2118.48341270799
      42
0.414213562373096
      10
1766.3508310766
      20
2128.48341270799
      42
0
      10
1766.3508310766
      20
2308.48341270799
      42
0.414213562373095
      10
1756.3508310766
      20
2318.48341270799
      42
0
      10
1426.3508310766
      20
2318.48341270799
      42
0.414213562373096
    1001
FS_CYPCUT
    1000
Channel
    1070
1
    1000
LeadIn
    1002
{
    1070
0
    1040
0
    1040
0
    1040
0
    1040
0
    1070
0
    1040
0
    1070
0
    1002
}
    1000
LeadOut
    1002
{
    1070
0
    1040
0
    1040
0
    1040
0
    1070
0
    1002
}
    1000
IsFill
    1070
1
    1000
PathStart
    1040
0
    1000
ToolCompensation
    1002
{
    1070
0
    1040
0
    1070
0
    1002
}
       0
LWPOLYLINE
       5
2098
     100
AcDbEntity
       8
1
     100
AcDbPolyline
      90
4
      70
1
      10
1782.00093113867
      20
2454.83341274121
      42
0
      10
1782.00093114148
      20
2462.13341274121
      42
0
      10
1774.70093114148
      20
2462.13341274402
      42
0
      10
1774.70093113867
      20
2454.83341274402
      42
0
    1001
FS_CYPCUT
    1000
Channel
    1070
1
    1000
LeadIn
    1002
{
    1070
3
    1040
0.5
    1040
1.5707963267949
    1040
2
    1040
1
    1070
0
    1040
0.5
    1070
0
    1002
}
    1000
LeadOut
    1002
{
    1070
0
    1040
0
    1040
0
    1040
0
    1070
0
    1002
}
    1000
IsFill
    1070
0
    1000
PathStart
    1040
0.5
    1000
ToolCompensation
    1002
{
    1070
0
    1040
0
    1070
0
    1002
}
       0
LWPOLYLINE
       5
2099
     100
AcDbEntity
       8
1
     100
AcDbPolyline
      90
4
      70
1
      10
1962.00093113867
      20
2454.83341267196
      42
0
      10
1954.70093113867
      20
2454.83341267477
      42
0
      10
1954.70093114148
      20
2462.13341267477
      42
0
      10
1962.00093114148
      20
2462.13341267196
      42
0
    1001
FS_CYPCUT
    1000
Channel
    1070
1
    1000
LeadIn
    1002
{
    1070
3
    1040
0.5
    1040
1.5707963267949
    1040
2
    1040
1
    1070
0
    1040
0.5
    1070
0
    1002
}
    1000
LeadOut
    1002
{
    1070
0
    1040
0
    1040
0
    1040
0
    1070
0
    1002
}
    1000
IsFill
    1070
0
    1000
PathStart
    1040
0.5
    1000
ToolCompensation
    1002
{
    1070
0
    1040
0
    1070
0
    1002
}
       0
LWPOLYLINE
       5
209A
     100
AcDbEntity
       8
1
     100
AcDbPolyline
      90
4
      70
1
      10
1782.00093101172
      20
2124.83341274121
      42
0
      10
1774.70093101172
      20
2124.83341274402
      42
0
      10
1774.70093101453
      20
2132.13341274402
      42
0
      10
1782.00093101453
      20
2132.13341274121
      42
0
    1001
FS_CYPCUT
    1000
Channel
    1070
1
    1000
LeadIn
    1002
{
    1070
3
    1040
0.5
    1040
1.5707963267949
    1040
2
    1040
1
    1070
0
    1040
0.5
    1070
0
    1002
}
    1000
LeadOut
    1002
{
    1070
0
    1040
0
    1040
0
    1040
0
    1070
0
    1002
}
    1000
IsFill
    1070
0
    1000
PathStart
    1040
0.5
    1000
ToolCompensation
    1002
{
    1070
0
    1040
0
    1070
0
    1002
}
       0
LWPOLYLINE
       5
209B
     100
AcDbEntity
       8
1
     100
AcDbPolyline
      90
4
      70
1
      10
1962.00093101172
      20
2124.83341267196
      42
0
      10
1962.00093101453
      20
2132.13341267196
      42
0
      10
1954.70093101453
      20
2132.13341267477
      42
0
      10
1954.70093101172
      20
2124.83341267477
      42
0
    1001
FS_CYPCUT
    1000
Channel
    1070
1
    1000
LeadIn
    1002
{
    1070
3
    1040
0.5
    1040
1.5707963267949
    1040
2
    1040
1
    1070
0
    1040
0.5
    1070
0
    1002
}
    1000
LeadOut
    1002
{
    1070
0
    1040
0
    1040
0
    1040
0
    1070
0
    1002
}
    1000
IsFill
    1070
0
    1000
PathStart
    1040
0.5
    1000
ToolCompensation
    1002
{
    1070
0
    1040
0
    1070
0
    1002
}
       0
LWPOLYLINE
       5
209C
     100
AcDbEntity
       8
1
     100
AcDbPolyline
      90
8
      70
1
      10
1958.35093100928
      20
2118.48341267337
      42
0.414213562373095
      10
1968.35093101313
      20
2128.48341266952
      42
0
      10
1968.35093114008
      20
2458.48341266952
      42
0.414213562373096
      10
1958.35093114392
      20
2468.48341267337
      42
0
      10
1778.35093114392
      20
2468.48341274261
      42
0.414213562373095
      10
1768.35093114008
      20
2458.48341274646
      42
0
      10
1768.35093101313
      20
2128.48341274646
      42
0.414213562373096
      10
1778.35093100928
      20
2118.48341274261
      42
0
    1001
FS_CYPCUT
    1000
Channel
    1070
1
    1000
LeadIn
    1002
{
    1070
3
    1040
1.5
    1040
1.5707963267949
    1040
2
    1040
1
    1070
0
    1040
0.5
    1070
0
    1002
}
    1000
LeadOut
    1002
{
    1070
0
    1040
0
    1040
0
    1040
0
    1070
0
    1002
}
    1000
IsFill
    1070
1
    1000
PathStart
    1040
1.5
    1000
ToolCompensation
    1002
{
    1070
0
    1040
0
    1070
0
    1002
}
    1000
MicroConnect
    1002
{
    1070
2
    1040
1.24230106
    1041
0.5
    1042
0
    1040
5.16666667
    1041
0.5
    1042
0
    1002
}
       0
LWPOLYLINE
       5
209D
     100
AcDbEntity
       8
1
     100
AcDbPolyline
      90
4
      70
1
      10
2157.71093159375
      20
2132.13341298475
      42
0
      10
2157.71093161714
      20
2124.83341298475
      42
0
      10
2165.01093161714
      20
2124.83341300815
      42
0
      10
2165.01093159375
      20
2132.13341300815
      42
0
    1001
FS_CYPCUT
    1000
Channel
    1070
1
    1000
LeadIn
    1002
{
    1070
3
    1040
0.5
    1040
1.5707963267949
    1040
2
    1040
1
    1070
0
    1040
0.5
    1070
0
    1002
}
    1000
LeadOut
    1002
{
    1070
0
    1040
0
    1040
0
    1040
0
    1070
0
    1002
}
    1000
IsFill
    1070
0
    1000
PathStart
    1040
0.5
    1000
ToolCompensation
    1002
{
    1070
0
    1040
0
    1070
0
    1002
}
       0
LWPOLYLINE
       5
209E
     100
AcDbEntity
       8
1
     100
AcDbPolyline
      90
4
      70
1
      10
1977.71093159374
      20
2132.13341240783
      42
0
      10
1985.01093159375
      20
2132.13341243123
      42
0
      10
1985.01093161714
      20
2124.83341243123
      42
0
      10
1977.71093161714
      20
2124.83341240783
      42
0
    1001
FS_CYPCUT
    1000
Channel
    1070
1
    1000
LeadIn
    1002
{
    1070
3
    1040
0.5
    1040
1.5707963267949
    1040
2
    1040
1
    1070
0
    1040
0.5
    1070
0
    1002
}
    1000
LeadOut
    1002
{
    1070
0
    1040
0
    1040
0
    1040
0
    1070
0
    1002
}
    1000
IsFill
    1070
0
    1000
PathStart
    1040
0.5
    1000
ToolCompensation
    1002
{
    1070
0
    1040
0
    1070
0
    1002
}
       0
LWPOLYLINE
       5
209F
     100
AcDbEntity
       8
1
     100
AcDbPolyline
      90
4
      70
1
      10
2157.71093053606
      20
2462.13341298475
      42
0
      10
2165.01093053606
      20
2462.13341300815
      42
0
      10
2165.01093055946
      20
2454.83341300815
      42
0
      10
2157.71093055946
      20
2454.83341298475
      42
0
    1001
FS_CYPCUT
    1000
Channel
    1070
1
    1000
LeadIn
    1002
{
    1070
3
    1040
0.5
    1040
1.5707963267949
    1040
2
    1040
1
    1070
0
    1040
0.5
    1070
0
    1002
}
    1000
LeadOut
    1002
{
    1070
0
    1040
0
    1040
0
    1040
0
    1070
0
    1002
}
    1000
IsFill
    1070
0
    1000
PathStart
    1040
0.5
    1000
ToolCompensation
    1002
{
    1070
0
    1040
0
    1070
0
    1002
}
       0
LWPOLYLINE
       5
20A0
     100
AcDbEntity
       8
1
     100
AcDbPolyline
      90
4
      70
1
      10
1977.71093053606
      20
2462.13341240783
      42
0
      10
1977.71093055946
      20
2454.83341240783
      42
0
      10
1985.01093055946
      20
2454.83341243123
      42
0
      10
1985.01093053606
      20
2462.13341243123
      42
0
    1001
FS_CYPCUT
    1000
Channel
    1070
1
    1000
LeadIn
    1002
{
    1070
3
    1040
0.5
    1040
1.5707963267949
    1040
2
    1040
1
    1070
0
    1040
0.5
    1070
0
    1002
}
    1000
LeadOut
    1002
{
    1070
0
    1040
0
    1040
0
    1040
0
    1070
0
    1002
}
    1000
IsFill
    1070
0
    1000
PathStart
    1040
0.5
    1000
ToolCompensation
    1002
{
    1070
0
    1040
0
    1070
0
    1002
}
       0
LWPOLYLINE
       5
20A1
     100
AcDbEntity
       8
1
     100
AcDbPolyline
      90
8
      70
1
      10
1981.36093051571
      20
2468.48341241953
      42
0.414213562373095
      10
1971.36093054776
      20
2458.48341238748
      42
0
      10
1971.36093160544
      20
2128.48341238748
      42
0.414213562373096
      10
1981.36093163749
      20
2118.48341241953
      42
0
      10
2161.3609316375
      20
2118.48341299645
      42
0.414213562373095
      10
2171.36093160544
      20
2128.4834130285
      42
0
      10
2171.36093054776
      20
2458.4834130285
      42
0.414213562373096
      10
2161.36093051571
      20
2468.48341299645
      42
0
    1001
FS_CYPCUT
    1000
Channel
    1070
1
    1000
LeadIn
    1002
{
    1070
3
    1040
1.5
    1040
1.5707963267949
    1040
2
    1040
1
    1070
0
    1040
0.5
    1070
0
    1002
}
    1000
LeadOut
    1002
{
    1070
0
    1040
0
    1040
0
    1040
0
    1070
0
    1002
}
    1000
IsFill
    1070
1
    1000
PathStart
    1040
1.5
    1000
ToolCompensation
    1002
{
    1070
0
    1040
0
    1070
0
    1002
}
    1000
MicroConnect
    1002
{
    1070
2
    1040
1.24230106
    1041
0.5
    1042
0
    1040
5.16666667
    1041
0.5
    1042
0
    1002
}
       0
INSERT
       5
20A2
     100
AcDbEntity
       8
1
     100
AcDbBlockReference
       2
Part1727590067
      10
2162.4178110766
      20
2430.91184470799
      30
0
      41
1
      42
1
      50
0
    1001
FS_CYPCUT
    1000
Channel
    1070
1
    1000
LeadIn
    1002
{
    1070
0
    1040
0
    1040
0
    1040
0
    1040
0
    1070
0
    1040
0
    1070
0
    1002
}
    1000
LeadOut
    1002
{
    1070
0
    1040
0
    1040
0
    1040
0
    1070
0
    1002
}
       0
INSERT
       5
20A3
     100
AcDbEntity
       8
1
     100
AcDbBlockReference
       2
Part1985245242
      10
1768.3503140766
      20
2470.48309570799
      30
0
      41
1
      42
1
      50
0
    1001
FS_CYPCUT
    1000
Channel
    1070
1
    1000
LeadIn
    1002
{
    1070
0
    1040
0
    1040
0
    1040
0
    1040
0
    1070
0
    1040
0
    1070
0
    1002
}
    1000
LeadOut
    1002
{
    1070
0
    1040
0
    1040
0
    1040
0
    1070
0
    1002
}
       0
INSERT
       5
20A4
     100
AcDbEntity
       8
1
     100
AcDbBlockReference
       2
CommonPart891102793
      10
1066.3507143866
      20
2523.49329570799
      30
0
      41
1
      42
1
      50
0
    1001
FS_CYPCUT
    1000
Channel
    1070
1
    1000
LeadIn
    1002
{
    1070
0
    1040
0
    1040
0
    1040
0
    1040
0
    1070
0
    1040
0
    1070
0
    1002
}
    1000
LeadOut
    1002
{
    1070
0
    1040
0
    1040
0
    1040
0
    1070
0
    1002
}
       0
LWPOLYLINE
       5
20A5
     100
AcDbEntity
       8
1
     100
AcDbPolyline
      90
4
      70
1
      10
1402.7007310766
      20
2507.84341270799
      42
0
      10
1402.7007310766
      20
2515.14341270799
      42
0
      10
1410.0007310766
      20
2515.14341270799
      42
0
      10
1410.0007310766
      20
2507.84341270799
      42
0
    1001
FS_CYPCUT
    1000
Channel
    1070
1
    1000
LeadIn
    1002
{
    1070
3
    1040
3.5
    1040
1.5707963267949
    1040
2
    1040
1
    1070
0
    1040
0.5
    1070
0
    1002
}
    1000
LeadOut
    1002
{
    1070
0
    1040
0
    1040
0
    1040
0
    1070
0
    1002
}
    1000
IsFill
    1070
0
    1000
PathStart
    1040
3.5
    1000
ToolCompensation
    1002
{
    1070
0
    1040
0
    1070
0
    1002
}
       0
LWPOLYLINE
       5
20A6
     100
AcDbEntity
       8
1
     100
AcDbPolyline
      90
4
      70
1
      10
1402.7007310766
      20
2327.84341270799
      42
0
      10
1402.7007310766
      20
2335.14341270799
      42
0
      10
1410.0007310766
      20
2335.14341270799
      42
0
      10
1410.0007310766
      20
2327.84341270799
      42
0
    1001
FS_CYPCUT
    1000
Channel
    1070
1
    1000
LeadIn
    1002
{
    1070
3
    1040
0.5
    1040
1.5707963267949
    1040
2
    1040
1
    1070
0
    1040
0.5
    1070
0
    1002
}
    1000
LeadOut
    1002
{
    1070
0
    1040
0
    1040
0
    1040
0
    1070
0
    1002
}
    1000
IsFill
    1070
0
    1000
PathStart
    1040
0.5
    1000
ToolCompensation
    1002
{
    1070
0
    1040
0
    1070
0
    1002
}
       0
SPLINE
       5
20A7
     100
AcDbEntity
       8
1
     100
AcDbSpline
      70
0
      71
3
      72
96
      73
92
      74
0
      40
0
      40
0
      40
0
      40
0
      40
0.0434782608695652
      40
0.0434782608695652
      40
0.0434782608695652
      40
0.0434782608695652
      40
0.0869565217391304
      40
0.0869565217391304
      40
0.0869565217391304
      40
0.0869565217391304
      40
0.130434782608696
      40
0.130434782608696
      40
0.130434782608696
      40
0.130434782608696
      40
0.173913043478261
      40
0.173913043478261
      40
0.173913043478261
      40
0.173913043478261
      40
0.217391304347826
      40
0.217391304347826
      40
0.217391304347826
      40
0.217391304347826
      40
0.260869565217391
      40
0.260869565217391
      40
0.260869565217391
      40
0.260869565217391
      40
0.304347826086957
      40
0.304347826086957
      40
0.304347826086957
      40
0.304347826086957
      40
0.347826086956522
      40
0.347826086956522
      40
0.347826086956522
      40
0.347826086956522
      40
0.391304347826087
      40
0.391304347826087
      40
0.391304347826087
      40
0.391304347826087
      40
0.434782608695652
      40
0.434782608695652
      40
0.434782608695652
      40
0.434782608695652
      40
0.478260869565217
      40
0.478260869565217
      40
0.478260869565217
      40
0.478260869565217
      40
0.521739130434783
      40
0.521739130434783
      40
0.521739130434783
      40
0.521739130434783
      40
0.565217391304348
      40
0.565217391304348
      40
0.565217391304348
      40
0.565217391304348
      40
0.608695652173913
      40
0.608695652173913
      40
0.608695652173913
      40
0.608695652173913
      40
0.652173913043478
      40
0.652173913043478
      40
0.652173913043478
      40
0.652173913043478
      40
0.695652173913043
      40
0.695652173913043
      40
0.695652173913043
      40
0.695652173913043
      40
0.739130434782609
      40
0.739130434782609
      40
0.739130434782609
      40
0.739130434782609
      40
0.782608695652174
      40
0.782608695652174
      40
0.782608695652174
      40
0.782608695652174
      40
0.826086956521739
      40
0.826086956521739
      40
0.826086956521739
      40
0.826086956521739
      40
0.869565217391304
      40
0.869565217391304
      40
0.869565217391304
      40
0.869565217391304
      40
0.91304347826087
      40
0.91304347826087
      40
0.91304347826087
      40
0.91304347826087
      40
0.956521739130435
      40
0.956521739130435
      40
0.956521739130435
      40
0.956521739130435
      40
1
      40
1
      40
1
      40
1
      10
1099.6003031927
      20
2429.92758934439
      30
0
      10
1099.6003031927
      20
2438.49161291599
      30
0
      10
1099.6003031927
      20
2447.05563648759
      30
0
      10
1099.6003031927
      20
2455.61966005919
      30
0
      10
1099.6003031927
      20
2455.61966005919
      30
0
      10
1101.87149458377
      20
2455.61966005919
      30
0
      10
1104.14268597483
      20
2455.61966005919
      30
0
      10
1106.4138773659
      20
2455.61966005919
      30
0
      10
1106.4138773659
      20
2455.61966005919
      30
0
      10
1106.4138773659
      20
2452.69500824051
      30
0
      10
1106.41387736589
      20
2449.77035642183
      30
0
      10
1106.41387736588
      20
2446.84570460315
      30
0
      10
1106.41387736588
      20
2446.84570460315
      30
0
      10
1107.65727938551
      20
2448.265359374
      30
0
      10
1109.04846788962
      20
2449.5484450227
      30
0
      10
1110.56385139675
      20
2450.67320325323
      30
0
      10
1110.56385139675
      20
2450.67320325323
      30
0
      10
1112.07923490388
      20
2451.79796148375
      30
0
      10
1113.71019886809
      20
2452.75799834936
      30
0
      10
1115.4290857462
      20
2453.53703374719
      30
0
      10
1115.4290857462
      20
2453.53703374719
      30
0
      10
1115.4290857462
      20
2450.43095539876
      30
0
      10
1115.4290857462
      20
2447.32487705032
      30
0
      10
1115.42908574622
      20
2444.21879870191
      30
0
      10
1115.42908574622
      20
2444.21879870191
      30
0
      10
1113.03486971342
      20
2442.63641367776
      30
0
      10
1110.91012687297
      20
2440.38893371927
      30
0
      10
1109.45501596461
      20
2437.89890387734
      30
0
      10
1109.45501596461
      20
2437.89890387734
      30
0
      10
1107.94124589098
      20
2435.33178570567
      30
0
      10
1107.15663863501
      20
2432.52686181756
      30
0
      10
1107.19717348709
      20
2430.06084905707
      30
0
      10
1107.19717348709
      20
2430.06084905707
      30
0
      10
1107.22841028665
      20
2427.58486567517
      30
0
      10
1108.05245413118
      20
2425.48395946511
      30
0
      10
1109.44599872316
      20
2424.02647849721
      30
0
      10
1109.44599872316
      20
2424.02647849721
      30
0
      10
1110.87803962507
      20
2422.51835477607
      30
0
      10
1112.95590977577
      20
2421.63753048052
      30
0
      10
1115.42908574622
      20
2421.60141078094
      30
0
      10
1115.42908574622
      20
2421.60141078094
      30
0
      10
1115.42908574621
      20
2419.12906144229
      30
0
      10
1115.42908574621
      20
2416.65671210364
      30
0
      10
1115.4290857462
      20
2414.18436276499
      30
0
      10
1115.4290857462
      20
2414.18436276499
      30
0
      10
1114.70434624853
      20
2414.19066801076
      30
0
      10
1113.97960675087
      20
2414.19697325652
      30
0
      10
1113.2548672532
      20
2414.20327850229
      30
0
      10
1113.2548672532
      20
2414.20327850229
      30
0
      10
1112.55576386787
      20
2414.30059172339
      30
0
      10
1111.85666048253
      20
2414.39790494449
      30
0
      10
1111.1575570972
      20
2414.49521816559
      30
0
      10
1111.1575570972
      20
2414.49521816559
      30
0
      10
1110.4933752998
      20
2414.68224684996
      30
0
      10
1109.8291935024
      20
2414.86927553432
      30
0
      10
1109.165011705
      20
2415.05630421869
      30
0
      10
1109.165011705
      20
2415.05630421869
      30
0
      10
1108.5445731433
      20
2415.33056425552
      30
0
      10
1107.9241345816
      20
2415.60482429236
      30
0
      10
1107.3036960199
      20
2415.87908432919
      30
0
      10
1107.3036960199
      20
2415.87908432919
      30
0
      10
1106.73524134503
      20
2416.23693300279
      30
0
      10
1106.16678667017
      20
2416.59478167639
      30
0
      10
1105.5983319953
      20
2416.95263034999
      30
0
      10
1105.5983319953
      20
2416.95263034999
      30
0
      10
1105.08941140957
      20
2417.38931472232
      30
0
      10
1104.58049082383
      20
2417.82599909466
      30
0
      10
1104.0715702381
      20
2418.26268346699
      30
0
      10
1104.0715702381
      20
2418.26268346699
      30
0
      10
1103.62894321337
      20
2418.77240350589
      30
0
      10
1103.18631618863
      20
2419.28212354479
      30
0
      10
1102.7436891639
      20
2419.79184358369
      30
0
      10
1102.7436891639
      20
2419.79184358369
      30
0
      10
1102.37323466237
      20
2420.36782919906
      30
0
      10
1102.00278016083
      20
2420.94381481442
      30
0
      10
1101.6323256593
      20
2421.51980042979
      30
0
      10
1101.6323256593
      20
2421.51980042979
      30
0
      10
1101.33896404943
      20
2422.15440139352
      30
0
      10
1101.04560243957
      20
2422.78900235726
      30
0
      10
1100.7522408297
      20
2423.42360332099
      30
0
      10
1100.7522408297
      20
2423.42360332099
      30
0
      10
1100.53986853383
      20
2424.10839087726
      30
0
      10
1100.32749623797
      20
2424.79317843352
      30
0
      10
1100.1151239421
      20
2425.47796598979
      30
0
      10
1100.1151239421
      20
2425.47796598979
      30
0
      10
1099.9865616843
      20
2426.20384480559
      30
0
      10
1099.8579994265
      20
2426.92972362139
      30
0
      10
1099.7294371687
      20
2427.65560243719
      30
0
      10
1099.7294371687
      20
2427.65560243719
      30
0
      10
1099.68639251003
      20
2428.41293140626
      30
0
      10
1099.64334785137
      20
2429.17026037532
      30
0
      10
1099.6003031927
      20
2429.92758934439
      30
0
    1001
FS_CYPCUT
    1000
Channel
    1070
1
    1000
LeadIn
    1002
{
    1070
3
    1040
0.5
    1040
1.5707963267949
    1040
2
    1040
1
    1070
0
    1040
0.5
    1070
0
    1002
}
    1000
LeadOut
    1002
{
    1070
0
    1040
0
    1040
0
    1040
0
    1070
0
    1002
}
    1000
IsFill
    1070
0
    1000
PathStart
    1040
0.5
    1000
ToolCompensation
    1002
{
    1070
0
    1040
0
    1070
0
    1002
}
       0
LWPOLYLINE
       5
20A8
     100
AcDbEntity
       8
1
     100
AcDbPolyline
      90
4
      70
1
      10
1072.7007310766
      20
2507.84341270799
      42
0
      10
1072.7007310766
      20
2515.14341270799
      42
0
      10
1080.0007310766
      20
2515.14341270799
      42
0
      10
1080.0007310766
      20
2507.84341270799
      42
0
    1001
FS_CYPCUT
    1000
Channel
    1070
1
    1000
LeadIn
    1002
{
    1070
3
    1040
0.5
    1040
1.5707963267949
    1040
2
    1040
1
    1070
0
    1040
0.5
    1070
0
    1002
}
    1000
LeadOut
    1002
{
    1070
0
    1040
0
    1040
0
    1040
0
    1070
0
    1002
}
    1000
IsFill
    1070
0
    1000
PathStart
    1040
0.5
    1000
ToolCompensation
    1002
{
    1070
0
    1040
0
    1070
0
    1002
}
       0
LWPOLYLINE
       5
20A9
     100
AcDbEntity
       8
1
     100
AcDbPolyline
      90
4
      70
1
      10
1072.7007310766
      20
2327.84341270799
      42
0
      10
1072.7007310766
      20
2335.14341270799
      42
0
      10
1080.0007310766
      20
2335.14341270799
      42
0
      10
1080.0007310766
      20
2327.84341270799
      42
0
    1001
FS_CYPCUT
    1000
Channel
    1070
1
    1000
LeadIn
    1002
{
    1070
3
    1040
3.5
    1040
1.5707963267949
    1040
2
    1040
1
    1070
0
    1040
0.5
    1070
0
    1002
}
    1000
LeadOut
    1002
{
    1070
0
    1040
0
    1040
0
    1040
0
    1070
0
    1002
}
    1000
IsFill
    1070
0
    1000
PathStart
    1040
3.5
    1000
ToolCompensation
    1002
{
    1070
0
    1040
0
    1070
0
    1002
}
       0
LWPOLYLINE
       5
20AA
     100
AcDbEntity
       8
1
     100
AcDbPolyline
      90
8
      70
0
      10
1416.3507310766
      20
2331.49341270799
      42
-0.414213562373096
      10
1406.3507310766
      20
2321.49341270799
      42
0
      10
1076.3507310766
      20
2321.49341270799
      42
-0.414213562373095
      10
1066.3507310766
      20
2331.49341270799
      42
0
      10
1066.3507310766
      20
2511.49341270799
      42
-0.414213562373096
      10
1076.3507310766
      20
2521.49341270799
      42
0
      10
1406.3507310766
      20
2521.49341270799
      42
-0.414213562373095
      10
1416.3507310766
      20
2511.49341270799
      42
0
    1001
FS_CYPCUT
    1000
Channel
    1070
1
    1000
LeadIn
    1002
{
    1070
0
    1040
0.0063661977236758
    1040
1.5707963267949
    1040
2
    1040
1
    1070
0
    1040
0.5
    1070
0
    1002
}
    1000
LeadOut
    1002
{
    1070
0
    1040
0
    1040
0
    1040
0
    1070
0
    1002
}
    1000
IsFill
    1070
1
    1000
PathStart
    1040
0
    1000
ToolCompensation
    1002
{
    1070
0
    1040
0
    1070
0
    1002
}
    1000
MicroConnect
    1002
{
    1070
1
    1040
0
    1041
0.1
    1042
0
    1002
}
       0
LWPOLYLINE
       5
20AB
     100
AcDbEntity
       8
1
     100
AcDbPolyline
      90
4
      70
1
      10
1752.7008310766
      20
2507.84341270799
      42
0
      10
1752.7008310766
      20
2515.14341270799
      42
0
      10
1760.0008310766
      20
2515.14341270799
      42
0
      10
1760.0008310766
      20
2507.84341270799
      42
0
    1001
FS_CYPCUT
    1000
Channel
    1070
1
    1000
LeadIn
    1002
{
    1070
3
    1040
3.5
    1040
1.5707963267949
    1040
2
    1040
1
    1070
0
    1040
0.5
    1070
0
    1002
}
    1000
LeadOut
    1002
{
    1070
0
    1040
0
    1040
0
    1040
0
    1070
0
    1002
}
    1000
IsFill
    1070
0
    1000
PathStart
    1040
3.5
    1000
ToolCompensation
    1002
{
    1070
0
    1040
0
    1070
0
    1002
}
       0
LWPOLYLINE
       5
20AC
     100
AcDbEntity
       8
1
     100
AcDbPolyline
      90
4
      70
1
      10
1752.7008310766
      20
2327.84341270799
      42
0
      10
1752.7008310766
      20
2335.14341270799
      42
0
      10
1760.0008310766
      20
2335.14341270799
      42
0
      10
1760.0008310766
      20
2327.84341270799
      42
0
    1001
FS_CYPCUT
    1000
Channel
    1070
1
    1000
LeadIn
    1002
{
    1070
3
    1040
0.5
    1040
1.5707963267949
    1040
2
    1040
1
    1070
0
    1040
0.5
    1070
0
    1002
}
    1000
LeadOut
    1002
{
    1070
0
    1040
0
    1040
0
    1040
0
    1070
0
    1002
}
    1000
IsFill
    1070
0
    1000
PathStart
    1040
0.5
    1000
ToolCompensation
    1002
{
    1070
0
    1040
0
    1070
0
    1002
}
       0
LWPOLYLINE
       5
20AD
     100
AcDbEntity
       8
1
     100
AcDbPolyline
      90
4
      70
1
      10
1422.7008310766
      20
2507.84341270799
      42
0
      10
1422.7008310766
      20
2515.14341270799
      42
0
      10
1430.0008310766
      20
2515.14341270799
      42
0
      10
1430.0008310766
      20
2507.84341270799
      42
0
    1001
FS_CYPCUT
    1000
Channel
    1070
1
    1000
LeadIn
    1002
{
    1070
3
    1040
0.5
    1040
1.5707963267949
    1040
2
    1040
1
    1070
0
    1040
0.5
    1070
0
    1002
}
    1000
LeadOut
    1002
{
    1070
0
    1040
0
    1040
0
    1040
0
    1070
0
    1002
}
    1000
IsFill
    1070
0
    1000
PathStart
    1040
0.5
    1000
ToolCompensation
    1002
{
    1070
0
    1040
0
    1070
0
    1002
}
       0
LWPOLYLINE
       5
20AE
     100
AcDbEntity
       8
1
     100
AcDbPolyline
      90
4
      70
1
      10
1422.7008310766
      20
2327.84341270799
      42
0
      10
1422.7008310766
      20
2335.14341270799
      42
0
      10
1430.0008310766
      20
2335.14341270799
      42
0
      10
1430.0008310766
      20
2327.84341270799
      42
0
    1001
FS_CYPCUT
    1000
Channel
    1070
1
    1000
LeadIn
    1002
{
    1070
3
    1040
3.5
    1040
1.5707963267949
    1040
2
    1040
1
    1070
0
    1040
0.5
    1070
0
    1002
}
    1000
LeadOut
    1002
{
    1070
0
    1040
0
    1040
0
    1040
0
    1070
0
    1002
}
    1000
IsFill
    1070
0
    1000
PathStart
    1040
3.5
    1000
ToolCompensation
    1002
{
    1070
0
    1040
0
    1070
0
    1002
}
       0
LWPOLYLINE
       5
20AF
     100
AcDbEntity
       8
1
     100
AcDbPolyline
      90
8
      70
1
      10
1416.3508310766
      20
2511.49341270799
      42
-0.414213562373096
      10
1426.3508310766
      20
2521.49341270799
      42
0
      10
1756.3508310766
      20
2521.49341270799
      42
-0.414213562373095
      10
1766.3508310766
      20
2511.49341270799
      42
0
      10
1766.3508310766
      20
2331.49341270799
      42
-0.414213562373096
      10
1756.3508310766
      20
2321.49341270799
      42
0
      10
1426.3508310766
      20
2321.49341270799
      42
-0.414213562373095
      10
1416.3508310766
      20
2331.49341270799
      42
0
    1001
FS_CYPCUT
    1000
Channel
    1070
1
    1000
LeadIn
    1002
{
    1070
0
    1040
7
    1040
1.5707963267949
    1040
2
    1040
1
    1070
0
    1040
0.5
    1070
0
    1002
}
    1000
LeadOut
    1002
{
    1070
0
    1040
0
    1040
0
    1040
0
    1070
0
    1002
}
    1000
IsFill
    1070
1
    1000
PathStart
    1040
7
    1000
ToolCompensation
    1002
{
    1070
0
    1040
0
    1070
0
    1002
}
       0
INSERT
       5
20B0
     100
AcDbEntity
       8
1
     100
AcDbBlockReference
       2
Part1938913667
      10
1183.2945510766
      20
2957.37668110799
      30
0
      41
1
      42
1
      50
180
    1001
FS_CYPCUT
    1000
Channel
    1070
1
    1000
LeadIn
    1002
{
    1070
0
    1040
0
    1040
0
    1040
0
    1040
0
    1070
0
    1040
0
    1070
0
    1002
}
    1000
LeadOut
    1002
{
    1070
0
    1040
0
    1040
0
    1040
0
    1070
0
    1002
}
       0
INSERT
       5
20B1
     100
AcDbEntity
       8
1
     100
AcDbBlockReference
       2
CommonPart217595953
      10
1200.5665140766
      20
2727.993295708
      30
0
      41
1
      42
1
      50
0
    1001
FS_CYPCUT
    1000
Channel
    1070
1
    1000
LeadIn
    1002
{
    1070
0
    1040
0
    1040
0
    1040
0
    1040
0
    1070
0
    1040
0
    1070
0
    1002
}
    1000
LeadOut
    1002
{
    1070
0
    1040
0
    1040
0
    1040
0
    1070
0
    1002
}
       0
INSERT
       5
20B2
     100
AcDbEntity
       8
1
     100
AcDbBlockReference
       2
Part861707559
      10
1887.5641140766
      20
2674.98309570799
      30
0
      41
1
      42
1
      50
0
    1001
FS_CYPCUT
    1000
Channel
    1070
1
    1000
LeadIn
    1002
{
    1070
0
    1040
0
    1040
0
    1040
0
    1040
0
    1070
0
    1040
0
    1070
0
    1002
}
    1000
LeadOut
    1002
{
    1070
0
    1040
0
    1040
0
    1040
0
    1070
0
    1002
}
       0
INSERT
       5
20B3
     100
AcDbEntity
       8
1
     100
AcDbBlockReference
       2
Part1729327045
      10
1881.0215140766
      20
2889.48309570799
      30
0
      41
1
      42
1
      50
0
    1001
FS_CYPCUT
    1000
Channel
    1070
1
    1000
LeadIn
    1002
{
    1070
0
    1040
0
    1040
0
    1040
0
    1040
0
    1070
0
    1040
0
    1070
0
    1002
}
    1000
LeadOut
    1002
{
    1070
0
    1040
0
    1040
0
    1040
0
    1070
0
    1002
}
       0
INSERT
       5
20B4
     100
AcDbEntity
       8
1
     100
AcDbBlockReference
       2
Part585200061
      10
1898.02949014074
      20
3340.42745375136
      30
0
      41
1
      42
1
      50
269.999999977959
    1001
FS_CYPCUT
    1000
Channel
    1070
1
    1000
LeadIn
    1002
{
    1070
0
    1040
0
    1040
0
    1040
0
    1040
0
    1070
0
    1040
0
    1070
0
    1002
}
    1000
LeadOut
    1002
{
    1070
0
    1040
0
    1040
0
    1040
0
    1070
0
    1002
}
       0
INSERT
       5
20B5
     100
AcDbEntity
       8
1
     100
AcDbBlockReference
       2
Part863785971
      10
1778.4562110766
      20
3038.70814470799
      30
0
      41
1
      42
1
      50
0
    1001
FS_CYPCUT
    1000
Channel
    1070
1
    1000
LeadIn
    1002
{
    1070
0
    1040
0
    1040
0
    1040
0
    1040
0
    1070
0
    1040
0
    1070
0
    1002
}
    1000
LeadOut
    1002
{
    1070
0
    1040
0
    1040
0
    1040
0
    1070
0
    1002
}
       0
INSERT
       5
20B6
     100
AcDbEntity
       8
1
     100
AcDbBlockReference
       2
Part796859480
      10
1556.80199014074
      20
3178.93765375136
      30
0
      41
1
      42
1
      50
269.999999977959
    1001
FS_CYPCUT
    1000
Channel
    1070
1
    1000
LeadIn
    1002
{
    1070
0
    1040
0
    1040
0
    1040
0
    1040
0
    1070
0
    1040
0
    1070
0
    1002
}
    1000
LeadOut
    1002
{
    1070
0
    1040
0
    1040
0
    1040
0
    1070
0
    1002
}
       0
INSERT
       5
20B7
     100
AcDbEntity
       8
1
     100
AcDbBlockReference
       2
Part926107358
      10
1187.9608140766
      20
2942.49329570799
      30
0
      41
1
      42
1
      50
0
    1001
FS_CYPCUT
    1000
Channel
    1070
1
    1000
LeadIn
    1002
{
    1070
0
    1040
0
    1040
0
    1040
0
    1040
0
    1070
0
    1040
0
    1070
0
    1002
}
    1000
LeadOut
    1002
{
    1070
0
    1040
0
    1040
0
    1040
0
    1070
0
    1002
}
       0
INSERT
       5
20B8
     100
AcDbEntity
       8
1
     100
AcDbBlockReference
       2
Part883143062
      10
1066.3507109766
      20
2928.07314470799
      30
0
      41
1
      42
1
      50
0
    1001
FS_CYPCUT
    1000
Channel
    1070
1
    1000
LeadIn
    1002
{
    1070
0
    1040
0
    1040
0
    1040
0
    1040
0
    1070
0
    1040
0
    1070
0
    1002
}
    1000
LeadOut
    1002
{
    1070
0
    1040
0
    1040
0
    1040
0
    1070
0
    1002
}
       0
ENDSEC
  0
SECTION
  2
OBJECTS
  0
DICTIONARY
  5
111
330
0
100
AcDbDictionary
281
     1
  3
ACAD_COLOR
350
120
  3
ACAD_GROUP
350
112
  3
ACAD_LAYOUT
350
11E
  3
ACAD_MATERIAL
350
11F
  3
ACAD_MLINESTYLE
350
11B
  3
ACAD_PLOTSETTINGS
350
11D
  3
ACAD_PLOTSTYLENAME
350
113
  3
ACAD_TABLESTYLE
350
121
  3
AcDbVariableDictionary
350
135
  0
DICTIONARY
  5
120
102
{ACAD_REACTORS
330
111
102
}
330
111
100
AcDbDictionary
281
     1
  0
DICTIONARY
  5
112
102
{ACAD_REACTORS
330
111
102
}
330
111
100
AcDbDictionary
281
     1
  0
DICTIONARY
  5
11E
102
{ACAD_REACTORS
330
111
102
}
330
111
100
AcDbDictionary
281
     1
  3
Model
350
12A
  3
布局1
350
126
  0
DICTIONARY
  5
11F
102
{ACAD_REACTORS
330
111
102
}
330
111
100
AcDbDictionary
281
     1
  0
DICTIONARY
  5
11B
102
{ACAD_REACTORS
330
111
102
}
330
111
100
AcDbDictionary
281
     1
  3
Standard
350
11C
  0
DICTIONARY
  5
11D
102
{ACAD_REACTORS
330
111
102
}
330
111
100
AcDbDictionary
281
     1
  0
ACDBDICTIONARYWDFLT
  5
113
102
{ACAD_REACTORS
330
111
102
}
330
111
100
AcDbDictionary
281
     1
  3
Normal
350
114
100
AcDbDictionaryWithDefault
340
114
  0
DICTIONARY
  5
121
102
{ACAD_REACTORS
330
111
102
}
330
111
100
AcDbDictionary
281
     1
  3
Standard
350
122
  0
DICTIONARY
  5
135
102
{ACAD_REACTORS
330
111
102
}
330
111
100
AcDbDictionary
281
     1
  3
CTABLESTYLE
350
136
  0
LAYOUT
  5
12A
102
{ACAD_REACTORS
330
11E
102
}
330
11E
100
AcDbPlotSettings
  1

  2
发送至 OneNote 2010
  4

  6

 40
0.0
 41
0.0
 42
0.0
 43
0.0
 44
0.0
 45
0.0
 46
0.0
 47
0.0
 48
0.0
 49
0.0
140
0.0
141
0.0
142
1.0
143
1.0
 70
  1712
 72
     0
 73
     0
 74
     0
  7

 75
     0
147
1.0
 76
     0
 77
     2
 78
   300
148
0.0
149
0.0
100
AcDbLayout
  1
Model
 70
     1
 71
     0
 10
0.0
 20
0.0
 11
12.0
 21
9.0
 12
0.0
 22
0.0
 32
0.0
 14
0.0
 24
0.0
 34
0.0
 15
0.0
 25
0.0
 35
0.0
146
0.0
 13
0.0
 23
0.0
 33
0.0
 16
1.0
 26
0.0
 36
0.0
 17
0.0
 27
1.0
 37
0.0
 76
     0
330
127
  0
LAYOUT
  5
126
102
{ACAD_REACTORS
330
11E
102
}
330
11E
100
AcDbPlotSettings
  1

  2
发送至 OneNote 2010
  4

  6

 40
0.0
 41
0.0
 42
0.0
 43
0.0
 44
0.0
 45
0.0
 46
0.0
 47
0.0
 48
0.0
 49
0.0
140
0.0
141
0.0
142
1.0
143
1.0
 70
   688
 72
     0
 73
     0
 74
     5
  7

 75
    16
147
1.0
 76
     0
 77
     2
 78
   300
148
0.0
149
0.0
100
AcDbLayout
  1
布局1
 70
     1
 71
     1
 10
0.0
 20
0.0
 11
12.0
 21
9.0
 12
0.0
 22
0.0
 32
0.0
 14
0.0
 24
0.0
 34
0.0
 15
0.0
 25
0.0
 35
0.0
146
0.0
 13
0.0
 23
0.0
 33
0.0
 16
1.0
 26
0.0
 36
0.0
 17
0.0
 27
1.0
 37
0.0
 76
     0
330
123
  0
MLINESTYLE
  5
11C
102
{ACAD_REACTORS
330
11B
102
}
330
11B
100
AcDbMlineStyle
  2
STANDARD
 70
     0
  3

 62
   256
 51
90.0
 52
90.0
 71
     2
 49
0.5
 62
   256
  6
BYLAYER
 49
-0.5
 62
   256
  6
BYLAYER
  0
ACDBPLACEHOLDER
  5
114
102
{ACAD_REACTORS
330
113
102
}
330
113
  0
TABLESTYLE
  5
122
102
{ACAD_REACTORS
330
121
102
}
330
121
100
AcDbTableStyle
  3
Standard
 70
     0
 71
     0
 40
0.06
 41
0.06
280
     0
281
     0
  7
STANDARD
140
0.18
170
     2
 62
     0
 63
     7
283
     0
274
    -2
284
     1
 64
     0
275
    -2
285
     1
 65
     0
276
    -2
286
     1
 66
     0
277
    -2
287
     1
 67
     0
278
    -2
288
     1
 68
     0
279
    -2
289
     1
 69
     0
  7
STANDARD
140
0.25
170
     5
 62
     0
 63
     7
283
     0
274
    -2
284
     1
 64
     0
275
    -2
285
     1
 65
     0
276
    -2
286
     1
 66
     0
277
    -2
287
     1
 67
     0
278
    -2
288
     1
 68
     0
279
    -2
289
     1
 69
     0
  7
STANDARD
140
0.18
170
     5
 62
     0
 63
     7
283
     0
274
    -2
284
     1
 64
     0
275
    -2
285
     1
 65
     0
276
    -2
286
     1
 66
     0
277
    -2
287
     1
 67
     0
278
    -2
288
     1
 68
     0
279
    -2
289
     1
 69
     0
  0
DICTIONARYVAR
  5
136
102
{ACAD_REACTORS
330
135
102
}
330
135
100
DictionaryVariables
280
     0
  1
STANDARD
  0
ENDSEC
  0
EOF
