  0
SECTION
  2
HEADER
  9
$ACADVER
  1
AC1018
  9
$ACADMAINTVER
 70
    77
  9
$DWGCODEPAGE
  3
ANSI_936
  9
$INSBASE
 10
0.0
 20
0.0
 30
0.0
  9
$EXTMIN
 10
1779.6208531311
 20
3464.45497670617
 30
0.0
  9
$EXTMAX
 10
2976.0209179776
 20
4850.00062238807
 30
0.0
  9
$LIMMIN
 10
0.0
 20
0.0
  9
$LIMMAX
 10
420.0
 20
297.0
  9
$ORTHOMODE
 70
     0
  9
$REGENMODE
 70
     1
  9
$FILLMODE
 70
     1
  9
$QTEXTMODE
 70
     0
  9
$MIRRTEXT
 70
     0
  9
$LTSCALE
 40
1.0
  9
$ATTMODE
 70
     1
  9
$TEXTSIZE
 40
2.5
  9
$TRACEWID
 40
1.0
  9
$TEXTSTYLE
  7
STANDARD
  9
$CLAYER
  8
0
  9
$CELTYPE
  6
ByLayer
  9
$CECOLOR
 62
   256
  9
$CELTSCALE
 40
1.0
  9
$DISPSILH
 70
     0
  9
$DIMSCALE
 40
1.0
  9
$DIMASZ
 40
2.5
  9
$DIMEXO
 40
0.625
  9
$DIMDLI
 40
3.75
  9
$DIMRND
 40
0.0
  9
$DIMDLE
 40
0.0
  9
$DIMEXE
 40
1.25
  9
$DIMTP
 40
0.0
  9
$DIMTM
 40
0.0
  9
$DIMTXT
 40
2.5
  9
$DIMCEN
 40
2.5
  9
$DIMTSZ
 40
0.0
  9
$DIMTOL
 70
     0
  9
$DIMLIM
 70
     0
  9
$DIMTIH
 70
     0
  9
$DIMTOH
 70
     0
  9
$DIMSE1
 70
     0
  9
$DIMSE2
 70
     0
  9
$DIMTAD
 70
     1
  9
$DIMZIN
 70
     8
  9
$DIMBLK
  1

  9
$DIMASO
 70
     1
  9
$DIMSHO
 70
     1
  9
$DIMPOST
  1

  9
$DIMAPOST
  1

  9
$DIMALT
 70
     0
  9
$DIMALTD
 70
     3
  9
$DIMALTF
 40
0.03937007874016
  9
$DIMLFAC
 40
1.0
  9
$DIMTOFL
 70
     1
  9
$DIMTVP
 40
0.0
  9
$DIMTIX
 70
     0
  9
$DIMSOXD
 70
     0
  9
$DIMSAH
 70
     0
  9
$DIMBLK1
  1

  9
$DIMBLK2
  1

  9
$DIMSTYLE
  2
ISO-25
  9
$DIMCLRD
 70
     0
  9
$DIMCLRE
 70
     0
  9
$DIMCLRT
 70
     0
  9
$DIMTFAC
 40
1.0
  9
$DIMGAP
 40
0.625
  9
$DIMJUST
 70
     0
  9
$DIMSD1
 70
     0
  9
$DIMSD2
 70
     0
  9
$DIMTOLJ
 70
     1
  9
$DIMTZIN
 70
     0
  9
$DIMALTZ
 70
     0
  9
$DIMALTTZ
 70
     0
  9
$DIMUPT
 70
     0
  9
$DIMDEC
 70
     4
  9
$DIMTDEC
 70
     4
  9
$DIMALTU
 70
     2
  9
$DIMALTTD
 70
     2
  9
$DIMTXSTY
  7
STANDARD
  9
$DIMAUNIT
 70
     0
  9
$DIMADEC
 70
     0
  9
$DIMALTRND
 40
0.0
  9
$DIMAZIN
 70
     0
  9
$DIMDSEP
 70
    46
  9
$DIMATFIT
 70
     3
  9
$DIMFRAC
 70
     0
  9
$DIMLDRBLK
  1

  9
$DIMLUNIT
 70
     2
  9
$DIMLWD
 70
    -2
  9
$DIMLWE
 70
    -2
  9
$DIMTMOVE
 70
     0
  9
$LUNITS
 70
     2
  9
$LUPREC
 70
     4
  9
$SKETCHINC
 40
1.0
  9
$FILLETRAD
 40
0.0
  9
$AUNITS
 70
     0
  9
$AUPREC
 70
     0
  9
$MENU
  1
.
  9
$ELEVATION
 40
0.0
  9
$PELEVATION
 40
0.0
  9
$THICKNESS
 40
0.0
  9
$LIMCHECK
 70
     0
  9
$CHAMFERA
 40
0.0
  9
$CHAMFERB
 40
0.0
  9
$CHAMFERC
 40
0.0
  9
$CHAMFERD
 40
0.0
  9
$SKPOLY
 70
     0
  9
$TDCREATE
 40
2456997.676706910
  9
$TDUCREATE
 40
2456997.343373576
  9
$TDUPDATE
 40
2456997.680113438
  9
$TDUUPDATE
 40
2456997.346780104
  9
$TDINDWG
 40
0.0010312963
  9
$TDUSRTIMER
 40
0.0010311806
  9
$USRTIMER
 70
     1
  9
$ANGBASE
 50
0.0
  9
$ANGDIR
 70
     0
  9
$PDMODE
 70
     0
  9
$PDSIZE
 40
0.0
  9
$PLINEWID
 40
0.0
  9
$SPLFRAME
 70
     0
  9
$SPLINETYPE
 70
     6
  9
$SPLINESEGS
 70
     8
  9
$HANDSEED
  5
247D
  9
$SURFTAB1
 70
     6
  9
$SURFTAB2
 70
     6
  9
$SURFTYPE
 70
     6
  9
$SURFU
 70
     6
  9
$SURFV
 70
     6
  9
$UCSBASE
  2

  9
$UCSNAME
  2

  9
$UCSORG
 10
0.0
 20
0.0
 30
0.0
  9
$UCSXDIR
 10
1.0
 20
0.0
 30
0.0
  9
$UCSYDIR
 10
0.0
 20
1.0
 30
0.0
  9
$UCSORTHOREF
  2

  9
$UCSORTHOVIEW
 70
     0
  9
$UCSORGTOP
 10
0.0
 20
0.0
 30
0.0
  9
$UCSORGBOTTOM
 10
0.0
 20
0.0
 30
0.0
  9
$UCSORGLEFT
 10
0.0
 20
0.0
 30
0.0
  9
$UCSORGRIGHT
 10
0.0
 20
0.0
 30
0.0
  9
$UCSORGFRONT
 10
0.0
 20
0.0
 30
0.0
  9
$UCSORGBACK
 10
0.0
 20
0.0
 30
0.0
  9
$PUCSBASE
  2

  9
$PUCSNAME
  2

  9
$PUCSORG
 10
0.0
 20
0.0
 30
0.0
  9
$PUCSXDIR
 10
1.0
 20
0.0
 30
0.0
  9
$PUCSYDIR
 10
0.0
 20
1.0
 30
0.0
  9
$PUCSORTHOREF
  2

  9
$PUCSORTHOVIEW
 70
     0
  9
$PUCSORGTOP
 10
0.0
 20
0.0
 30
0.0
  9
$PUCSORGBOTTOM
 10
0.0
 20
0.0
 30
0.0
  9
$PUCSORGLEFT
 10
0.0
 20
0.0
 30
0.0
  9
$PUCSORGRIGHT
 10
0.0
 20
0.0
 30
0.0
  9
$PUCSORGFRONT
 10
0.0
 20
0.0
 30
0.0
  9
$PUCSORGBACK
 10
0.0
 20
0.0
 30
0.0
  9
$USERI1
 70
     0
  9
$USERI2
 70
     0
  9
$USERI3
 70
     0
  9
$USERI4
 70
     0
  9
$USERI5
 70
     0
  9
$USERR1
 40
0.0
  9
$USERR2
 40
0.0
  9
$USERR3
 40
0.0
  9
$USERR4
 40
0.0
  9
$USERR5
 40
0.0
  9
$WORLDVIEW
 70
     1
  9
$SHADEDGE
 70
     3
  9
$SHADEDIF
 70
    70
  9
$TILEMODE
 70
     1
  9
$MAXACTVP
 70
    64
  9
$PINSBASE
 10
0.0
 20
0.0
 30
0.0
  9
$PLIMCHECK
 70
     0
  9
$PEXTMIN
 10
0.0
 20
0.0
 30
0.0
  9
$PEXTMAX
 10
0.0
 20
0.0
 30
0.0
  9
$PLIMMIN
 10
0.0
 20
0.0
  9
$PLIMMAX
 10
12.0
 20
9.0
  9
$UNITMODE
 70
     0
  9
$VISRETAIN
 70
     1
  9
$PLINEGEN
 70
     0
  9
$PSLTSCALE
 70
     1
  9
$TREEDEPTH
 70
  3020
  9
$CMLSTYLE
  2
Standard
  9
$CMLJUST
 70
     0
  9
$CMLSCALE
 40
1.0
  9
$PROXYGRAPHICS
 70
     1
  9
$MEASUREMENT
 70
     1
  9
$CELWEIGHT
370
    -1
  9
$ENDCAPS
280
     0
  9
$JOINSTYLE
280
     0
  9
$LWDISPLAY
290
     0
  9
$INSUNITS
 70
     0
  9
$HYPERLINKBASE
  1

  9
$STYLESHEET
  1

  9
$XEDIT
290
     1
  9
$CEPSNTYPE
380
     0
  9
$PSTYLEMODE
290
     1
  9
$FINGERPRINTGUID
  2
{1F2D6530-6BF2-4D5E-922F-A9C54F637010}
  9
$VERSIONGUID
  2
{15AD9CB5-51D1-451C-B472-5DB36EFAD6AD}
  9
$EXTNAMES
290
     1
  9
$PSVPSCALE
 40
0.0
  9
$OLESTARTUP
290
     0
  9
$SORTENTS
280
   127
  9
$INDEXCTL
280
     0
  9
$HIDETEXT
280
     0
  9
$XCLIPFRAME
290
     0
  9
$HALOGAP
280
     0
  9
$OBSCOLOR
 70
   257
  9
$OBSLTYPE
280
     0
  9
$INTERSECTIONDISPLAY
280
     0
  9
$INTERSECTIONCOLOR
 70
   257
  9
$DIMASSOC
280
     1
  9
$PROJECTNAME
  1

  0
ENDSEC
  0
SECTION
  2
CLASSES
  0
CLASS
  1
ACDBDICTIONARYWDFLT
  2
AcDbDictionaryWithDefault
  3
ObjectDBX Classes
 90
        0
 91
        1
280
     0
281
     0
  0
CLASS
  1
TABLESTYLE
  2
AcDbTableStyle
  3
ObjectDBX Classes
 90
     2047
 91
        1
280
     0
281
     0
  0
CLASS
  1
DICTIONARYVAR
  2
AcDbDictionaryVar
  3
ObjectDBX Classes
 90
        0
 91
        1
280
     0
281
     0
  0
ENDSEC
  0
SECTION
  2
TABLES
  0
TABLE
  2
VPORT
  5
10D
330
0
100
AcDbSymbolTable
 70
     2
  0
VPORT
  5
137
330
10D
100
AcDbSymbolTableRecord
100
AcDbViewportTableRecord
  2
*Active
 70
     0
 10
0.0
 20
0.0
 11
1.0
 21
1.0
 12
2377.82088555435
 22
4157.22779954712
 13
0.0
 23
0.0
 14
10.0
 24
10.0
 15
10.0
 25
10.0
 16
0.0
 26
0.0
 36
1.0
 17
0.0
 27
0.0
 37
0.0
 40
551.708552688342
 41
2.435135135135135
 42
50.0
 43
0.0
 44
0.0
 50
0.0
 51
0.0
 71
     0
 72
  1000
 73
     1
 74
     3
 75
     0
 76
     0
 77
     0
 78
     0
281
     0
 65
     1
110
0.0
120
0.0
130
0.0
111
1.0
121
0.0
131
0.0
112
0.0
122
1.0
132
0.0
 79
     0
146
0.0
  0
ENDTAB
  0
TABLE
  2
LTYPE
  5
10A
330
0
100
AcDbSymbolTable
 70
     1
  0
LTYPE
  5
118
330
10A
100
AcDbSymbolTableRecord
100
AcDbLinetypeTableRecord
  2
ByBlock
 70
     0
  3

 72
    65
 73
     0
 40
0.0
  0
LTYPE
  5
119
330
10A
100
AcDbSymbolTableRecord
100
AcDbLinetypeTableRecord
  2
ByLayer
 70
     0
  3

 72
    65
 73
     0
 40
0.0
  0
LTYPE
  5
11A
330
10A
100
AcDbSymbolTableRecord
100
AcDbLinetypeTableRecord
  2
CONTINUOUS
 70
     0
  3
Solid line
 72
    65
 73
     0
 40
0.0
  0
ENDTAB
  0
TABLE
  2
LAYER
  5
107
330
0
100
AcDbSymbolTable
 70
     1
  0
LAYER
  5
115
330
107
100
AcDbSymbolTableRecord
100
AcDbLayerTableRecord
  2
0
 70
     0
 62
     7
  6
CONTINUOUS
370
    -3
390
114
  0
ENDTAB
  0
TABLE
  2
STYLE
  5
108
330
0
100
AcDbSymbolTable
 70
     1
  0
STYLE
  5
116
330
108
100
AcDbSymbolTableRecord
100
AcDbTextStyleTableRecord
  2
STANDARD
 70
     0
 40
0.0
 41
1.0
 50
0.0
 71
     0
 42
2.5
  3
txt
  4
gbcbig.shx
  0
ENDTAB
  0
TABLE
  2
VIEW
  5
10B
330
0
100
AcDbSymbolTable
 70
     0
  0
ENDTAB
  0
TABLE
  2
UCS
  5
10C
330
0
100
AcDbSymbolTable
 70
     0
  0
ENDTAB
  0
TABLE
  2
APPID
  5
10E
330
0
100
AcDbSymbolTable
 70
     2
  0
APPID
  5
117
330
10E
100
AcDbSymbolTableRecord
100
AcDbRegAppTableRecord
  2
ACAD
 70
     0
  0
APPID
  5
12C
330
10E
100
AcDbSymbolTableRecord
100
AcDbRegAppTableRecord
  2
ACAD_PSEXT
 70
     0
  0
APPID
  5
112C
330
10E
100
AcDbSymbolTableRecord
100
AcDbRegAppTableRecord
  2
FS_CYPCUT
 70
     0
  0
ENDTAB
  0
TABLE
  2
DIMSTYLE
  5
10F
330
0
100
AcDbSymbolTable
 70
     1
100
AcDbDimStyleTable
 71
     0
  0
DIMSTYLE
105
12D
330
10F
100
AcDbSymbolTableRecord
100
AcDbDimStyleTableRecord
  2
ISO-25
 70
     0
 41
2.5
 42
0.625
 43
3.75
 44
1.25
 73
     0
 74
     0
 77
     1
 78
     8
140
2.5
141
2.5
143
0.03937007874016
147
0.625
171
     3
172
     1
274
     3
279
     2
284
     8
285
     8
286
     8
340
116
  0
ENDTAB
  0
TABLE
  2
BLOCK_RECORD
  5
106
330
0
100
AcDbSymbolTable
 70
     2
  0
BLOCK_RECORD
  5
127
330
106
100
AcDbSymbolTableRecord
100
AcDbBlockTableRecord
  2
*Model_Space
340
12A
  0
BLOCK_RECORD
  5
123
330
106
100
AcDbSymbolTableRecord
100
AcDbBlockTableRecord
  2
*Paper_Space
340
126
  0
BLOCK_RECORD
  5
130
330
106
100
AcDbSymbolTableRecord
100
AcDbBlockTableRecord
  2
$MODEL_SPACE
340
0
  0
BLOCK_RECORD
  5
132
330
106
100
AcDbSymbolTableRecord
100
AcDbBlockTableRecord
  2
$PAPER_SPACE
340
0
       0
BLOCK_RECORD
       5
2000
     330
106
     100
AcDbSymbolTableRecord
     100
AcDbBlockTableRecord
       2
Part1425431889
       0
BLOCK_RECORD
       5
2001
     330
106
     100
AcDbSymbolTableRecord
     100
AcDbBlockTableRecord
       2
Part797072540
       0
BLOCK_RECORD
       5
2002
     330
106
     100
AcDbSymbolTableRecord
     100
AcDbBlockTableRecord
       2
Part1359005114
       0
BLOCK_RECORD
       5
2003
     330
106
     100
AcDbSymbolTableRecord
     100
AcDbBlockTableRecord
       2
CommonPart
       0
BLOCK_RECORD
       5
2004
     330
106
     100
AcDbSymbolTableRecord
     100
AcDbBlockTableRecord
       2
Part1916060432
       0
BLOCK_RECORD
       5
2005
     330
106
     100
AcDbSymbolTableRecord
     100
AcDbBlockTableRecord
       2
Part1569557175
       0
BLOCK_RECORD
       5
2006
     330
106
     100
AcDbSymbolTableRecord
     100
AcDbBlockTableRecord
       2
Part1676901816
       0
BLOCK_RECORD
       5
2007
     330
106
     100
AcDbSymbolTableRecord
     100
AcDbBlockTableRecord
       2
Part1762580378
       0
BLOCK_RECORD
       5
2008
     330
106
     100
AcDbSymbolTableRecord
     100
AcDbBlockTableRecord
       2
Part338220375
       0
BLOCK_RECORD
       5
2009
     330
106
     100
AcDbSymbolTableRecord
     100
AcDbBlockTableRecord
       2
Part81037993
       0
BLOCK_RECORD
       5
200A
     330
106
     100
AcDbSymbolTableRecord
     100
AcDbBlockTableRecord
       2
Part72255525
       0
BLOCK_RECORD
       5
200B
     330
106
     100
AcDbSymbolTableRecord
     100
AcDbBlockTableRecord
       2
Part82591934
       0
BLOCK_RECORD
       5
200C
     330
106
     100
AcDbSymbolTableRecord
     100
AcDbBlockTableRecord
       2
Part1229857286
  0
ENDTAB
  0
ENDSEC
  0
SECTION
  2
BLOCKS
  0
BLOCK
  5
128
330
127
100
AcDbEntity
  8
0
100
AcDbBlockBegin
  2
*Model_Space
 70
     0
 10
0.0
 20
0.0
 30
0.0
  3
*Model_Space
  1

  0
ENDBLK
  5
129
330
127
100
AcDbEntity
  8
0
100
AcDbBlockEnd
  0
BLOCK
  5
124
330
123
100
AcDbEntity
 67
     1
  8
0
100
AcDbBlockBegin
  2
*Paper_Space
 70
     0
 10
0.0
 20
0.0
 30
0.0
  3
*Paper_Space
  1

  0
ENDBLK
  5
125
330
123
100
AcDbEntity
 67
     1
  8
0
100
AcDbBlockEnd
  0
BLOCK
  5
131
330
130
100
AcDbEntity
  8
0
100
AcDbBlockBegin
  2
$MODEL_SPACE
 70
     0
 10
0.0
 20
0.0
 30
0.0
  3
$MODEL_SPACE
  1

  0
ENDBLK
  5
21
330
130
100
AcDbEntity
  8
0
100
AcDbBlockEnd
  0
BLOCK
  5
133
330
132
100
AcDbEntity
  8
0
100
AcDbBlockBegin
  2
$PAPER_SPACE
 70
     0
 10
0.0
 20
0.0
 30
0.0
  3
$PAPER_SPACE
  1

  0
ENDBLK
  5
D5
330
132
100
AcDbEntity
  8
0
100
AcDbBlockEnd
       0
BLOCK
       5
200D
     330
2000
     100
AcDbEntity
       8
0
     100
AcDbBlockBegin
       2
Part1425431889
      70
0
      10
-107.493363
      20
-1.42108547E-14
      30
0
       3
Part1425431889
       1

       4
CypCutBlock
       0
LINE
       5
200E
     100
AcDbEntity
       8
2
     100
AcDbLine
      10
-78.6466813186
      20
100
      30
0
      11
-78.6466813186
      21
130
      31
0
    1001
FS_CYPCUT
    1000
Channel
    1070
2
    1000
LeadIn
    1002
{
    1070
3
    1040
0
    1040
1.5707963267949
    1040
1
    1040
0.5
    1070
0
    1040
0.5
    1070
0
    1002
}
    1000
LeadOut
    1002
{
    1070
0
    1040
0
    1040
0
    1040
0
    1070
0
    1002
}
    1000
IsFill
    1070
0
    1000
PathStart
    1040
0
    1000
ToolCompensation
    1002
{
    1070
0
    1040
0
    1070
0
    1002
}
       0
CIRCLE
       5
200F
     100
AcDbEntity
       8
1
     100
AcDbCircle
      10
-97.4933626371
      20
115
      30
0
      40
4.00000000000006
    1001
FS_CYPCUT
    1000
Channel
    1070
1
    1000
LeadIn
    1002
{
    1070
3
    1040
0
    1040
1.5707963267949
    1040
1
    1040
0.5
    1070
0
    1040
0.5
    1070
0
    1002
}
    1000
LeadOut
    1002
{
    1070
0
    1040
0
    1040
0
    1040
0
    1070
0
    1002
}
    1000
IsFill
    1070
0
    1000
PathStart
    1040
0
    1000
ToolCompensation
    1002
{
    1070
0
    1040
0
    1070
0
    1002
}
       0
LINE
       5
2010
     100
AcDbEntity
       8
2
     100
AcDbLine
      10
-77.5
      20
245.1177057407
      30
0
      11
77.5
      21
245.1177057407
      31
0
    1001
FS_CYPCUT
    1000
Channel
    1070
2
    1000
LeadIn
    1002
{
    1070
3
    1040
0
    1040
1.5707963267949
    1040
1
    1040
0.5
    1070
0
    1040
0.5
    1070
0
    1002
}
    1000
LeadOut
    1002
{
    1070
0
    1040
0
    1040
0
    1040
0
    1070
0
    1002
}
    1000
IsFill
    1070
0
    1000
PathStart
    1040
0
    1000
ToolCompensation
    1002
{
    1070
0
    1040
0
    1070
0
    1002
}
       0
LINE
       5
2011
     100
AcDbEntity
       8
2
     100
AcDbLine
      10
78.6466813186
      20
130
      30
0
      11
78.6466813186
      21
100
      31
0
    1001
FS_CYPCUT
    1000
Channel
    1070
2
    1000
LeadIn
    1002
{
    1070
3
    1040
0
    1040
1.5707963267949
    1040
1
    1040
0.5
    1070
0
    1040
0.5
    1070
0
    1002
}
    1000
LeadOut
    1002
{
    1070
0
    1040
0
    1040
0
    1040
0
    1070
0
    1002
}
    1000
IsFill
    1070
0
    1000
PathStart
    1040
0
    1000
ToolCompensation
    1002
{
    1070
0
    1040
0
    1070
0
    1002
}
       0
CIRCLE
       5
2012
     100
AcDbEntity
       8
1
     100
AcDbCircle
      10
97.4933626371
      20
115
      30
0
      40
4.00000000000001
    1001
FS_CYPCUT
    1000
Channel
    1070
1
    1000
LeadIn
    1002
{
    1070
3
    1040
0
    1040
1.5707963267949
    1040
1
    1040
0.5
    1070
0
    1040
0.5
    1070
0
    1002
}
    1000
LeadOut
    1002
{
    1070
0
    1040
0
    1040
0
    1040
0
    1070
0
    1002
}
    1000
IsFill
    1070
0
    1000
PathStart
    1040
0
    1000
ToolCompensation
    1002
{
    1070
0
    1040
0
    1070
0
    1002
}
       0
LWPOLYLINE
       5
2013
     100
AcDbEntity
       8
1
     100
AcDbPolyline
      90
20
      70
1
      10
107.4933626371
      20
125
      42
0
      10
107.4933626371
      20
105
      42
-0.414213562373098
      10
102.4933626371
      20
100
      42
0
      10
77.5
      20
100
      42
0
      10
77.5
      20
5
      42
-0.414213562373095
      10
72.5
      20
1.33226762955019E-14
      42
0
      10
-72.5
      20
-1.4210854715202E-14
      42
-0.414213562373095
      10
-77.5
      20
5
      42
0
      10
-77.5
      20
100
      42
0
      10
-102.4933626371
      20
100
      42
-0.414213562373095
      10
-107.4933626371
      20
105
      42
0
      10
-107.4933626371
      20
125
      42
-0.414213562373095
      10
-102.4933626371
      20
130
      42
0
      10
-77.5
      20
130
      42
0
      10
-77.5
      20
268.2354114813
      42
-0.41421356237309
      10
-72.5
      20
273.2354114813
      42
0
      10
72.5
      20
273.2354114813
      42
-0.414213562373094
      10
77.4999999999999
      20
268.2354114813
      42
0
      10
77.5
      20
130
      42
0
      10
102.4933626371
      20
130
      42
-0.414213562373093
    1001
FS_CYPCUT
    1000
Channel
    1070
1
    1000
LeadIn
    1002
{
    1070
3
    1040
5.5
    1040
1.5707963267949
    1040
1
    1040
0.5
    1070
0
    1040
0.5
    1070
0
    1002
}
    1000
LeadOut
    1002
{
    1070
0
    1040
0
    1040
0
    1040
0
    1070
0
    1002
}
    1000
IsFill
    1070
1
    1000
PathStart
    1040
5.5
    1000
ToolCompensation
    1002
{
    1070
0
    1040
0
    1070
0
    1002
}
    1000
MicroConnect
    1002
{
    1070
2
    1040
3.48207582
    1041
0.5
    1042
0
    1040
13.6087114
    1041
0.5
    1042
0
    1002
}
       0
ENDBLK
       5
2014
     330
2000
     100
AcDbEntity
       8
0
     100
AcDbBlockEnd
       0
BLOCK
       5
2015
     330
2001
     100
AcDbEntity
       8
0
     100
AcDbBlockBegin
       2
Part797072540
      70
0
      10
-107.493363
      20
-1.42108547E-14
      30
0
       3
Part797072540
       1

       4
CypCutBlock
       0
LINE
       5
2016
     100
AcDbEntity
       8
2
     100
AcDbLine
      10
-78.6466813186
      20
100
      30
0
      11
-78.6466813186
      21
130
      31
0
    1001
FS_CYPCUT
    1000
Channel
    1070
2
    1000
LeadIn
    1002
{
    1070
3
    1040
0
    1040
1.5707963267949
    1040
1
    1040
0.5
    1070
0
    1040
0.5
    1070
0
    1002
}
    1000
LeadOut
    1002
{
    1070
0
    1040
0
    1040
0
    1040
0
    1070
0
    1002
}
    1000
IsFill
    1070
0
    1000
PathStart
    1040
0
    1000
ToolCompensation
    1002
{
    1070
0
    1040
0
    1070
0
    1002
}
       0
CIRCLE
       5
2017
     100
AcDbEntity
       8
1
     100
AcDbCircle
      10
-97.4933626371
      20
115
      30
0
      40
4.00000000000006
    1001
FS_CYPCUT
    1000
Channel
    1070
1
    1000
LeadIn
    1002
{
    1070
3
    1040
0
    1040
1.5707963267949
    1040
1
    1040
0.5
    1070
0
    1040
0.5
    1070
0
    1002
}
    1000
LeadOut
    1002
{
    1070
0
    1040
0
    1040
0
    1040
0
    1070
0
    1002
}
    1000
IsFill
    1070
0
    1000
PathStart
    1040
0
    1000
ToolCompensation
    1002
{
    1070
0
    1040
0
    1070
0
    1002
}
       0
LINE
       5
2018
     100
AcDbEntity
       8
2
     100
AcDbLine
      10
-77.5
      20
245.1177057407
      30
0
      11
77.5
      21
245.1177057407
      31
0
    1001
FS_CYPCUT
    1000
Channel
    1070
2
    1000
LeadIn
    1002
{
    1070
3
    1040
0
    1040
1.5707963267949
    1040
1
    1040
0.5
    1070
0
    1040
0.5
    1070
0
    1002
}
    1000
LeadOut
    1002
{
    1070
0
    1040
0
    1040
0
    1040
0
    1070
0
    1002
}
    1000
IsFill
    1070
0
    1000
PathStart
    1040
0
    1000
ToolCompensation
    1002
{
    1070
0
    1040
0
    1070
0
    1002
}
       0
LINE
       5
2019
     100
AcDbEntity
       8
2
     100
AcDbLine
      10
78.6466813186
      20
130
      30
0
      11
78.6466813186
      21
100
      31
0
    1001
FS_CYPCUT
    1000
Channel
    1070
2
    1000
LeadIn
    1002
{
    1070
3
    1040
0
    1040
1.5707963267949
    1040
1
    1040
0.5
    1070
0
    1040
0.5
    1070
0
    1002
}
    1000
LeadOut
    1002
{
    1070
0
    1040
0
    1040
0
    1040
0
    1070
0
    1002
}
    1000
IsFill
    1070
0
    1000
PathStart
    1040
0
    1000
ToolCompensation
    1002
{
    1070
0
    1040
0
    1070
0
    1002
}
       0
CIRCLE
       5
201A
     100
AcDbEntity
       8
1
     100
AcDbCircle
      10
97.4933626371
      20
115
      30
0
      40
4.00000000000001
    1001
FS_CYPCUT
    1000
Channel
    1070
1
    1000
LeadIn
    1002
{
    1070
3
    1040
0
    1040
1.5707963267949
    1040
1
    1040
0.5
    1070
0
    1040
0.5
    1070
0
    1002
}
    1000
LeadOut
    1002
{
    1070
0
    1040
0
    1040
0
    1040
0
    1070
0
    1002
}
    1000
IsFill
    1070
0
    1000
PathStart
    1040
0
    1000
ToolCompensation
    1002
{
    1070
0
    1040
0
    1070
0
    1002
}
       0
LWPOLYLINE
       5
201B
     100
AcDbEntity
       8
1
     100
AcDbPolyline
      90
20
      70
1
      10
107.4933626371
      20
125
      42
0
      10
107.4933626371
      20
105
      42
-0.414213562373098
      10
102.4933626371
      20
100
      42
0
      10
77.5
      20
100
      42
0
      10
77.5
      20
5
      42
-0.414213562373095
      10
72.5
      20
1.33226762955019E-14
      42
0
      10
-72.5
      20
-1.4210854715202E-14
      42
-0.414213562373095
      10
-77.5
      20
5
      42
0
      10
-77.5
      20
100
      42
0
      10
-102.4933626371
      20
100
      42
-0.414213562373095
      10
-107.4933626371
      20
105
      42
0
      10
-107.4933626371
      20
125
      42
-0.414213562373095
      10
-102.4933626371
      20
130
      42
0
      10
-77.5
      20
130
      42
0
      10
-77.5
      20
268.2354114813
      42
-0.41421356237309
      10
-72.5
      20
273.2354114813
      42
0
      10
72.5
      20
273.2354114813
      42
-0.414213562373094
      10
77.4999999999999
      20
268.2354114813
      42
0
      10
77.5
      20
130
      42
0
      10
102.4933626371
      20
130
      42
-0.414213562373093
    1001
FS_CYPCUT
    1000
Channel
    1070
1
    1000
LeadIn
    1002
{
    1070
3
    1040
5.5
    1040
1.5707963267949
    1040
1
    1040
0.5
    1070
0
    1040
0.5
    1070
0
    1002
}
    1000
LeadOut
    1002
{
    1070
0
    1040
0
    1040
0
    1040
0
    1070
0
    1002
}
    1000
IsFill
    1070
1
    1000
PathStart
    1040
5.5
    1000
ToolCompensation
    1002
{
    1070
0
    1040
0
    1070
0
    1002
}
    1000
MicroConnect
    1002
{
    1070
2
    1040
3.48207582
    1041
0.5
    1042
0
    1040
13.6087114
    1041
0.5
    1042
0
    1002
}
       0
ENDBLK
       5
201C
     330
2001
     100
AcDbEntity
       8
0
     100
AcDbBlockEnd
       0
BLOCK
       5
201D
     330
2002
     100
AcDbEntity
       8
0
     100
AcDbBlockBegin
       2
Part1359005114
      70
0
      10
-164.736283
      20
-399.136283
      30
0
       3
Part1359005114
       1

       4
CypCutBlock
       0
LINE
       5
201E
     100
AcDbEntity
       8
2
     100
AcDbLine
      10
-89.8
      20
-311.0681415022
      30
0
      11
89.8
      21
-311.0681415022
      31
0
    1001
FS_CYPCUT
    1000
Channel
    1070
2
    1000
LeadIn
    1002
{
    1070
3
    1040
0
    1040
1.5707963267949
    1040
0.284070751099989
    1040
0.5
    1070
0
    1040
0.5
    1070
0
    1002
}
    1000
LeadOut
    1002
{
    1070
0
    1040
0
    1040
0
    1040
0
    1070
0
    1002
}
    1000
IsFill
    1070
0
    1000
PathStart
    1040
0
    1000
ToolCompensation
    1002
{
    1070
0
    1040
0
    1070
0
    1002
}
       0
LWPOLYLINE
       5
201F
     100
AcDbEntity
       8
1
     100
AcDbPolyline
      90
4
      70
1
      10
152.4362830044
      20
-196.25
      42
0
      10
142.4362830044
      20
-196.25
      42
1.00000000000001
      10
142.4362830044
      20
-203.75
      42
0
      10
152.4362830044
      20
-203.75
      42
1.00000000000001
    1001
FS_CYPCUT
    1000
Channel
    1070
1
    1000
LeadIn
    1002
{
    1070
3
    1040
0.5
    1040
1.5707963267949
    1040
1
    1040
0.5
    1070
0
    1040
0.5
    1070
0
    1002
}
    1000
LeadOut
    1002
{
    1070
0
    1040
0
    1040
0
    1040
0
    1070
0
    1002
}
    1000
IsFill
    1070
0
    1000
PathStart
    1040
0.5
    1000
ToolCompensation
    1002
{
    1070
0
    1040
0
    1070
0
    1002
}
    1000
MicroConnect
    1002
{
    1070
1
    1040
3.24386364
    1041
0.5
    1042
0
    1002
}
       0
LWPOLYLINE
       5
2020
     100
AcDbEntity
       8
1
     100
AcDbPolyline
      90
4
      70
1
      10
-142.4362830044
      20
-196.25
      42
0
      10
-152.4362830044
      20
-196.25
      42
1.00000000000001
      10
-152.4362830044
      20
-203.75
      42
0
      10
-142.4362830044
      20
-203.75
      42
1.00000000000001
    1001
FS_CYPCUT
    1000
Channel
    1070
1
    1000
LeadIn
    1002
{
    1070
3
    1040
0.5
    1040
1.5707963267949
    1040
1
    1040
0.5
    1070
0
    1040
0.5
    1070
0
    1002
}
    1000
LeadOut
    1002
{
    1070
0
    1040
0
    1040
0
    1040
0
    1070
0
    1002
}
    1000
IsFill
    1070
0
    1000
PathStart
    1040
0.5
    1000
ToolCompensation
    1002
{
    1070
0
    1040
0
    1070
0
    1002
}
    1000
MicroConnect
    1002
{
    1070
1
    1040
1.77465056
    1041
0.5
    1042
0
    1002
}
       0
LINE
       5
2021
     100
AcDbEntity
       8
2
     100
AcDbLine
      10
-90.8681415022
      20
-310
      30
0
      11
-90.8681415022
      21
310
      31
0
    1001
FS_CYPCUT
    1000
Channel
    1070
2
    1000
LeadIn
    1002
{
    1070
3
    1040
0
    1040
1.5707963267949
    1040
1
    1040
0.5
    1070
0
    1040
0.5
    1070
0
    1002
}
    1000
LeadOut
    1002
{
    1070
0
    1040
0
    1040
0
    1040
0
    1070
0
    1002
}
    1000
IsFill
    1070
0
    1000
PathStart
    1040
0
    1000
ToolCompensation
    1002
{
    1070
0
    1040
0
    1070
0
    1002
}
       0
LINE
       5
2022
     100
AcDbEntity
       8
2
     100
AcDbLine
      10
90.8681415022
      20
310
      30
0
      11
90.8681415022
      21
-310
      31
0
    1001
FS_CYPCUT
    1000
Channel
    1070
2
    1000
LeadIn
    1002
{
    1070
3
    1040
0
    1040
1.5707963267949
    1040
1
    1040
0.5
    1070
0
    1040
0.5
    1070
0
    1002
}
    1000
LeadOut
    1002
{
    1070
0
    1040
0
    1040
0
    1040
0
    1070
0
    1002
}
    1000
IsFill
    1070
0
    1000
PathStart
    1040
0
    1000
ToolCompensation
    1002
{
    1070
0
    1040
0
    1070
0
    1002
}
       0
LWPOLYLINE
       5
2023
     100
AcDbEntity
       8
1
     100
AcDbPolyline
      90
4
      70
1
      10
152.4362830044
      20
203.75
      42
0
      10
142.4362830044
      20
203.75
      42
1
      10
142.4362830044
      20
196.25
      42
0
      10
152.4362830044
      20
196.25
      42
1
    1001
FS_CYPCUT
    1000
Channel
    1070
1
    1000
LeadIn
    1002
{
    1070
3
    1040
0.5
    1040
1.5707963267949
    1040
1
    1040
0.5
    1070
0
    1040
0.5
    1070
0
    1002
}
    1000
LeadOut
    1002
{
    1070
0
    1040
0
    1040
0
    1040
0
    1070
0
    1002
}
    1000
IsFill
    1070
0
    1000
PathStart
    1040
0.5
    1000
ToolCompensation
    1002
{
    1070
0
    1040
0
    1070
0
    1002
}
       0
LWPOLYLINE
       5
2024
     100
AcDbEntity
       8
1
     100
AcDbPolyline
      90
4
      70
1
      10
-142.4362830044
      20
203.75
      42
0
      10
-152.4362830044
      20
203.75
      42
1
      10
-152.4362830044
      20
196.25
      42
0
      10
-142.4362830044
      20
196.25
      42
1
    1001
FS_CYPCUT
    1000
Channel
    1070
1
    1000
LeadIn
    1002
{
    1070
3
    1040
0.5
    1040
1.5707963267949
    1040
1
    1040
0.5
    1070
0
    1040
0.5
    1070
0
    1002
}
    1000
LeadOut
    1002
{
    1070
0
    1040
0
    1040
0
    1040
0
    1070
0
    1002
}
    1000
IsFill
    1070
0
    1000
PathStart
    1040
0.5
    1000
ToolCompensation
    1002
{
    1070
0
    1040
0
    1070
0
    1002
}
       0
LINE
       5
2025
     100
AcDbEntity
       8
2
     100
AcDbLine
      10
-89.8
      20
311.0681415022
      30
0
      11
89.8
      21
311.0681415022
      31
0
    1001
FS_CYPCUT
    1000
Channel
    1070
2
    1000
LeadIn
    1002
{
    1070
3
    1040
0
    1040
1.5707963267949
    1040
1
    1040
0.5
    1070
0
    1040
0.5
    1070
0
    1002
}
    1000
LeadOut
    1002
{
    1070
0
    1040
0
    1040
0
    1040
0
    1070
0
    1002
}
    1000
IsFill
    1070
0
    1000
PathStart
    1040
0
    1000
ToolCompensation
    1002
{
    1070
0
    1040
0
    1070
0
    1002
}
       0
LWPOLYLINE
       5
2026
     100
AcDbEntity
       8
1
     100
AcDbPolyline
      90
88
      70
1
      10
164.7362830044
      20
310
      42
0
      10
164.7362830044
      20
281
      42
-0.414213562373095
      10
159.7362830044
      20
276
      42
0
      10
145.7362830044
      20
276
      42
1
      10
145.7362830044
      20
224
      42
0
      10
159.7362830044
      20
224
      42
-0.414213562373092
      10
164.7362830044
      20
219
      42
0
      10
164.7362830044
      20
161
      42
-0.414213562373092
      10
159.7362830044
      20
156
      42
0
      10
145.7362830044
      20
156
      42
1
      10
145.7362830044
      20
104
      42
0
      10
159.7362830044
      20
104
      42
-0.414213562373095
      10
164.7362830044
      20
99
      42
0
      10
164.7362830044
      20
18.5
      42
-0.414213562373098
      10
159.7362830044
      20
13.5
      42
0
      10
134.7362830044
      20
13.5
      42
1
      10
134.7362830044
      20
-21.5
      42
0
      10
159.7362830044
      20
-21.5
      42
-0.414213562373098
      10
164.7362830044
      20
-26.5
      42
0
      10
164.7362830044
      20
-63.5
      42
-0.414213562373096
      10
159.7362830044
      20
-68.5
      42
0
      10
134.7362830044
      20
-68.5
      42
1
      10
134.7362830044
      20
-103.5
      42
0
      10
159.7362830044
      20
-103.5
      42
-0.414213562373085
      10
164.7362830044
      20
-108.5
      42
0
      10
164.7362830044
      20
-145.5
      42
-0.414213562373092
      10
159.7362830044
      20
-150.5
      42
0
      10
134.7362830044
      20
-150.5
      42
1
      10
134.7362830044
      20
-185.5
      42
0
      10
159.7362830044
      20
-185.5
      42
-0.414213562373092
      10
164.7362830044
      20
-190.5
      42
0
      10
164.7362830044
      20
-227.5
      42
-0.4142135623731
      10
159.7362830044
      20
-232.5
      42
0
      10
134.7362830044
      20
-232.5
      42
1
      10
134.7362830044
      20
-267.5
      42
0
      10
159.7362830044
      20
-267.5
      42
-0.414213562373083
      10
164.7362830044
      20
-272.5
      42
0
      10
164.7362830044
      20
-310
      42
0
      10
89.8
      20
-310
      42
0
      10
89.8
      20
-394.1362830044
      42
-0.414213562373092
      10
84.8
      20
-399.1362830044
      42
0
      10
-84.8
      20
-399.1362830044
      42
-0.414213562373096
      10
-89.8
      20
-394.1362830044
      42
0
      10
-89.8
      20
-310
      42
0
      10
-164.7362830044
      20
-310
      42
0
      10
-164.7362830044
      20
-272.5
      42
-0.414213562373083
      10
-159.7362830044
      20
-267.5
      42
0
      10
-134.7362830044
      20
-267.5
      42
1
      10
-134.7362830044
      20
-232.5
      42
0
      10
-159.7362830044
      20
-232.5
      42
-0.414213562373092
      10
-164.7362830044
      20
-227.5
      42
0
      10
-164.7362830044
      20
-190.5
      42
-0.414213562373092
      10
-159.7362830044
      20
-185.5
      42
0
      10
-134.7362830044
      20
-185.5
      42
1
      10
-134.7362830044
      20
-150.5
      42
0
      10
-159.7362830044
      20
-150.5
      42
-0.414213562373092
      10
-164.7362830044
      20
-145.5
      42
0
      10
-164.7362830044
      20
-108.5
      42
-0.414213562373091
      10
-159.7362830044
      20
-103.5
      42
0
      10
-134.7362830044
      20
-103.5
      42
1
      10
-134.7362830044
      20
-68.5
      42
0
      10
-159.7362830044
      20
-68.5
      42
-0.414213562373099
      10
-164.7362830044
      20
-63.5
      42
0
      10
-164.7362830044
      20
-26.5
      42
-0.414213562373098
      10
-159.7362830044
      20
-21.5
      42
0
      10
-134.7362830044
      20
-21.5
      42
1
      10
-134.7362830044
      20
13.5
      42
0
      10
-159.7362830044
      20
13.5
      42
-0.414213562373097
      10
-164.7362830044
      20
18.5
      42
0
      10
-164.7362830044
      20
99
      42
-0.414213562373099
      10
-159.7362830044
      20
104
      42
0
      10
-145.7362830044
      20
104
      42
1
      10
-145.7362830044
      20
156
      42
0
      10
-159.7362830044
      20
156
      42
-0.414213562373092
      10
-164.7362830044
      20
161
      42
0
      10
-164.7362830044
      20
219
      42
-0.414213562373092
      10
-159.7362830044
      20
224
      42
0
      10
-145.7362830044
      20
224
      42
1
      10
-145.7362830044
      20
276
      42
0
      10
-159.7362830044
      20
276
      42
-0.414213562373083
      10
-164.7362830044
      20
281
      42
0
      10
-164.7362830044
      20
310
      42
0
      10
-89.8
      20
310
      42
0
      10
-89.8000000000001
      20
394.1362830044
      42
-0.4142135623731
      10
-84.8
      20
399.1362830044
      42
0
      10
84.8
      20
399.1362830044
      42
-0.414213562373086
      10
89.8000000000001
      20
394.1362830044
      42
0
      10
89.8
      20
310
      42
0
    1001
FS_CYPCUT
    1000
Channel
    1070
1
    1000
LeadIn
    1002
{
    1070
3
    1040
40.5
    1040
1.5707963267949
    1040
1
    1040
0.5
    1070
0
    1040
0.5
    1070
0
    1002
}
    1000
LeadOut
    1002
{
    1070
0
    1040
0
    1040
0
    1040
0
    1070
0
    1002
}
    1000
IsFill
    1070
1
    1000
PathStart
    1040
40.5
    1000
ToolCompensation
    1002
{
    1070
0
    1040
0
    1070
0
    1002
}
    1000
MicroConnect
    1002
{
    1070
2
    1040
6.60917948
    1041
0.5
    1042
0
    1040
74.301303
    1041
0.5
    1042
0
    1002
}
       0
ENDBLK
       5
2027
     330
2002
     100
AcDbEntity
       8
0
     100
AcDbBlockEnd
       0
BLOCK
       5
2028
     330
2003
     100
AcDbEntity
       8
0
     100
AcDbBlockBegin
       2
CommonPart
      70
0
      10
2.000117
      20
2.000017
      30
0
       3
CommonPart
       1

       4
CypCutBlock
       0
LINE
       5
2029
     100
AcDbEntity
       8
2
     100
AcDbLine
      10
76.9364
      20
90.0681584978
      30
0
      11
256.5364
      21
90.0681584978
      31
0
    1001
FS_CYPCUT
    1000
Channel
    1070
2
    1000
LeadIn
    1002
{
    1070
3
    1040
0
    1040
1.5707963267949
    1040
0.284070751099989
    1040
0.5
    1070
0
    1040
0.5
    1070
0
    1002
}
    1000
LeadOut
    1002
{
    1070
0
    1040
0
    1040
0
    1040
0
    1070
0
    1002
}
    1000
IsFill
    1070
0
    1000
PathStart
    1040
0
    1000
ToolCompensation
    1002
{
    1070
0
    1040
0
    1070
0
    1002
}
       0
LWPOLYLINE
       5
202A
     100
AcDbEntity
       8
1
     100
AcDbPolyline
      90
4
      70
1
      10
319.1726830044
      20
204.8863
      42
-1.00000000000001
      10
319.1726830044
      20
197.3863
      42
0
      10
309.1726830044
      20
197.3863
      42
-1.00000000000001
      10
309.1726830044
      20
204.8863
      42
0
    1001
FS_CYPCUT
    1000
Channel
    1070
1
    1000
LeadIn
    1002
{
    1070
3
    1040
3.5
    1040
1.5707963267949
    1040
1
    1040
0.5
    1070
0
    1040
0.5
    1070
0
    1002
}
    1000
LeadOut
    1002
{
    1070
0
    1040
0
    1040
0
    1040
0
    1070
0
    1002
}
    1000
IsFill
    1070
0
    1000
PathStart
    1040
3.5
    1000
ToolCompensation
    1002
{
    1070
0
    1040
0
    1070
0
    1002
}
    1000
MicroConnect
    1002
{
    1070
1
    1040
0.75613636
    1041
0.5
    1042
0
    1002
}
       0
LWPOLYLINE
       5
202B
     100
AcDbEntity
       8
1
     100
AcDbPolyline
      90
4
      70
1
      10
24.3001169956
      20
204.8863
      42
-1.00000000000001
      10
24.3001169956
      20
197.3863
      42
0
      10
14.3001169956
      20
197.3863
      42
-1.00000000000001
      10
14.3001169956
      20
204.8863
      42
0
    1001
FS_CYPCUT
    1000
Channel
    1070
1
    1000
LeadIn
    1002
{
    1070
3
    1040
3.5
    1040
1.5707963267949
    1040
1
    1040
0.5
    1070
0
    1040
0.5
    1070
0
    1002
}
    1000
LeadOut
    1002
{
    1070
0
    1040
0
    1040
0
    1040
0
    1070
0
    1002
}
    1000
IsFill
    1070
0
    1000
PathStart
    1040
3.5
    1000
ToolCompensation
    1002
{
    1070
0
    1040
0
    1070
0
    1002
}
    1000
MicroConnect
    1002
{
    1070
1
    1040
2.22534944
    1041
0.5
    1042
0
    1002
}
       0
LINE
       5
202C
     100
AcDbEntity
       8
2
     100
AcDbLine
      10
75.8682584978
      20
91.1363
      30
0
      11
75.8682584978
      21
711.1363
      31
0
    1001
FS_CYPCUT
    1000
Channel
    1070
2
    1000
LeadIn
    1002
{
    1070
3
    1040
0
    1040
1.5707963267949
    1040
1
    1040
0.5
    1070
0
    1040
0.5
    1070
0
    1002
}
    1000
LeadOut
    1002
{
    1070
0
    1040
0
    1040
0
    1040
0
    1070
0
    1002
}
    1000
IsFill
    1070
0
    1000
PathStart
    1040
0
    1000
ToolCompensation
    1002
{
    1070
0
    1040
0
    1070
0
    1002
}
       0
LINE
       5
202D
     100
AcDbEntity
       8
2
     100
AcDbLine
      10
257.6045415022
      20
711.1363
      30
0
      11
257.6045415022
      21
91.1363
      31
0
    1001
FS_CYPCUT
    1000
Channel
    1070
2
    1000
LeadIn
    1002
{
    1070
3
    1040
0
    1040
1.5707963267949
    1040
1
    1040
0.5
    1070
0
    1040
0.5
    1070
0
    1002
}
    1000
LeadOut
    1002
{
    1070
0
    1040
0
    1040
0
    1040
0
    1070
0
    1002
}
    1000
IsFill
    1070
0
    1000
PathStart
    1040
0
    1000
ToolCompensation
    1002
{
    1070
0
    1040
0
    1070
0
    1002
}
       0
LWPOLYLINE
       5
202E
     100
AcDbEntity
       8
1
     100
AcDbPolyline
      90
4
      70
1
      10
319.1726830044
      20
604.8863
      42
-1
      10
319.1726830044
      20
597.3863
      42
0
      10
309.1726830044
      20
597.3863
      42
-1
      10
309.1726830044
      20
604.8863
      42
0
    1001
FS_CYPCUT
    1000
Channel
    1070
1
    1000
LeadIn
    1002
{
    1070
3
    1040
3.5
    1040
1.5707963267949
    1040
1
    1040
0.5
    1070
0
    1040
0.5
    1070
0
    1002
}
    1000
LeadOut
    1002
{
    1070
0
    1040
0
    1040
0
    1040
0
    1070
0
    1002
}
    1000
IsFill
    1070
0
    1000
PathStart
    1040
3.5
    1000
ToolCompensation
    1002
{
    1070
0
    1040
0
    1070
0
    1002
}
       0
LWPOLYLINE
       5
202F
     100
AcDbEntity
       8
1
     100
AcDbPolyline
      90
4
      70
1
      10
24.3001169956
      20
604.8863
      42
-1
      10
24.3001169956
      20
597.3863
      42
0
      10
14.3001169956
      20
597.3863
      42
-1
      10
14.3001169956
      20
604.8863
      42
0
    1001
FS_CYPCUT
    1000
Channel
    1070
1
    1000
LeadIn
    1002
{
    1070
3
    1040
3.5
    1040
1.5707963267949
    1040
1
    1040
0.5
    1070
0
    1040
0.5
    1070
0
    1002
}
    1000
LeadOut
    1002
{
    1070
0
    1040
0
    1040
0
    1040
0
    1070
0
    1002
}
    1000
IsFill
    1070
0
    1000
PathStart
    1040
3.5
    1000
ToolCompensation
    1002
{
    1070
0
    1040
0
    1070
0
    1002
}
       0
LINE
       5
2030
     100
AcDbEntity
       8
2
     100
AcDbLine
      10
76.9364
      20
712.2044415022
      30
0
      11
256.5364
      21
712.2044415022
      31
0
    1001
FS_CYPCUT
    1000
Channel
    1070
2
    1000
LeadIn
    1002
{
    1070
3
    1040
0
    1040
1.5707963267949
    1040
1
    1040
0.5
    1070
0
    1040
0.5
    1070
0
    1002
}
    1000
LeadOut
    1002
{
    1070
0
    1040
0
    1040
0
    1040
0
    1070
0
    1002
}
    1000
IsFill
    1070
0
    1000
PathStart
    1040
0
    1000
ToolCompensation
    1002
{
    1070
0
    1040
0
    1070
0
    1002
}
       0
LWPOLYLINE
       5
2031
     100
AcDbEntity
       8
1
     100
AcDbPolyline
      90
6
      70
0
      10
331.4726830044
      20
682.1363
      42
-0.414213562373095
      10
326.4726830044
      20
677.1363
      42
0
      10
312.4726830044
      20
677.1363
      42
1
      10
312.4726830044
      20
625.1363
      42
0
      10
326.4726830044
      20
625.1363
      42
-0.414213562373092
      10
331.4726830044
      20
620.1363
      42
0
    1001
FS_CYPCUT
    1000
Channel
    1070
1
    1000
LeadIn
    1002
{
    1070
0
    1040
0.0127323954473516
    1040
1.5707963267949
    1040
1
    1040
0.5
    1070
0
    1040
0.5
    1070
0
    1002
}
    1000
LeadOut
    1002
{
    1070
0
    1040
-0.1
    1040
0.523598775598299
    1040
3
    1070
0
    1002
}
    1000
IsFill
    1070
1
    1000
PathStart
    1040
0
    1000
ToolCompensation
    1002
{
    1070
0
    1040
0
    1070
0
    1002
}
    1000
MicroConnect
    1002
{
    1070
1
    1040
0
    1041
0.1
    1042
0
    1002
}
       0
LWPOLYLINE
       5
2032
     100
AcDbEntity
       8
1
     100
AcDbPolyline
      90
6
      70
0
      10
331.4726830044
      20
562.1363
      42
-0.414213562373092
      10
326.4726830044
      20
557.1363
      42
0
      10
312.4726830044
      20
557.1363
      42
1
      10
312.4726830044
      20
505.1363
      42
0
      10
326.4726830044
      20
505.1363
      42
-0.414213562373095
      10
331.4726830044
      20
500.1363
      42
0
    1001
FS_CYPCUT
    1000
Channel
    1070
1
    1000
LeadIn
    1002
{
    1070
0
    1040
0.0127323954473519
    1040
1.5707963267949
    1040
1
    1040
0.5
    1070
0
    1040
0.5
    1070
0
    1002
}
    1000
LeadOut
    1002
{
    1070
0
    1040
-0.1
    1040
0.523598775598299
    1040
3
    1070
0
    1002
}
    1000
IsFill
    1070
1
    1000
PathStart
    1040
0
    1000
ToolCompensation
    1002
{
    1070
0
    1040
0
    1070
0
    1002
}
    1000
MicroConnect
    1002
{
    1070
1
    1040
0
    1041
0.1
    1042
0
    1002
}
       0
LWPOLYLINE
       5
2033
     100
AcDbEntity
       8
1
     100
AcDbPolyline
      90
6
      70
0
      10
331.4726830044
      20
419.6363
      42
-0.414213562373098
      10
326.4726830044
      20
414.6363
      42
0
      10
301.4726830044
      20
414.6363
      42
1
      10
301.4726830044
      20
379.6363
      42
0
      10
326.4726830044
      20
379.6363
      42
-0.414213562373098
      10
331.4726830044
      20
374.6363
      42
0
    1001
FS_CYPCUT
    1000
Channel
    1070
1
    1000
LeadIn
    1002
{
    1070
0
    1040
0.0127323954473514
    1040
1.5707963267949
    1040
1
    1040
0.5
    1070
0
    1040
0.5
    1070
0
    1002
}
    1000
LeadOut
    1002
{
    1070
0
    1040
-0.1
    1040
0.523598775598299
    1040
3
    1070
0
    1002
}
    1000
IsFill
    1070
1
    1000
PathStart
    1040
0
    1000
ToolCompensation
    1002
{
    1070
0
    1040
0
    1070
0
    1002
}
    1000
MicroConnect
    1002
{
    1070
1
    1040
0
    1041
0.1
    1042
0
    1002
}
       0
LWPOLYLINE
       5
2034
     100
AcDbEntity
       8
1
     100
AcDbPolyline
      90
6
      70
0
      10
331.4726830044
      20
337.6363
      42
-0.414213562373096
      10
326.4726830044
      20
332.6363
      42
0
      10
301.4726830044
      20
332.6363
      42
1
      10
301.4726830044
      20
297.6363
      42
0
      10
326.4726830044
      20
297.6363
      42
-0.414213562373085
      10
331.4726830044
      20
292.6363
      42
0
    1001
FS_CYPCUT
    1000
Channel
    1070
1
    1000
LeadIn
    1002
{
    1070
0
    1040
0.0127323954473516
    1040
1.5707963267949
    1040
1
    1040
0.5
    1070
0
    1040
0.5
    1070
0
    1002
}
    1000
LeadOut
    1002
{
    1070
0
    1040
-0.1
    1040
0.523598775598299
    1040
3
    1070
0
    1002
}
    1000
IsFill
    1070
1
    1000
PathStart
    1040
0
    1000
ToolCompensation
    1002
{
    1070
0
    1040
0
    1070
0
    1002
}
    1000
MicroConnect
    1002
{
    1070
1
    1040
0
    1041
0.1
    1042
0
    1002
}
       0
LWPOLYLINE
       5
2035
     100
AcDbEntity
       8
1
     100
AcDbPolyline
      90
6
      70
0
      10
331.4726830044
      20
255.6363
      42
-0.414213562373092
      10
326.4726830044
      20
250.6363
      42
0
      10
301.4726830044
      20
250.6363
      42
1
      10
301.4726830044
      20
215.6363
      42
0
      10
326.4726830044
      20
215.6363
      42
-0.414213562373092
      10
331.4726830044
      20
210.6363
      42
0
    1001
FS_CYPCUT
    1000
Channel
    1070
1
    1000
LeadIn
    1002
{
    1070
0
    1040
0.0127323954473517
    1040
1.5707963267949
    1040
1
    1040
0.5
    1070
0
    1040
0.5
    1070
0
    1002
}
    1000
LeadOut
    1002
{
    1070
0
    1040
-0.1
    1040
0.523598775598299
    1040
3
    1070
0
    1002
}
    1000
IsFill
    1070
1
    1000
PathStart
    1040
0
    1000
ToolCompensation
    1002
{
    1070
0
    1040
0
    1070
0
    1002
}
    1000
MicroConnect
    1002
{
    1070
1
    1040
0
    1041
0.1
    1042
0
    1002
}
       0
LWPOLYLINE
       5
2036
     100
AcDbEntity
       8
1
     100
AcDbPolyline
      90
6
      70
0
      10
331.4726830044
      20
173.6363
      42
-0.4142135623731
      10
326.4726830044
      20
168.6363
      42
0
      10
301.4726830044
      20
168.6363
      42
1
      10
301.4726830044
      20
133.6363
      42
0
      10
326.4726830044
      20
133.6363
      42
-0.414213562373083
      10
331.4726830044
      20
128.6363
      42
0
    1001
FS_CYPCUT
    1000
Channel
    1070
1
    1000
LeadIn
    1002
{
    1070
0
    1040
0.0127323954473516
    1040
1.5707963267949
    1040
1
    1040
0.5
    1070
0
    1040
0.5
    1070
0
    1002
}
    1000
LeadOut
    1002
{
    1070
0
    1040
-0.1
    1040
0.523598775598299
    1040
3
    1070
0
    1002
}
    1000
IsFill
    1070
1
    1000
PathStart
    1040
0
    1000
ToolCompensation
    1002
{
    1070
0
    1040
0
    1070
0
    1002
}
    1000
MicroConnect
    1002
{
    1070
1
    1040
0
    1041
0.1
    1042
0
    1002
}
       0
LWPOLYLINE
       5
2037
     100
AcDbEntity
       8
1
     100
AcDbPolyline
      90
52
      70
0
      10
331.4726830044
      20
91.1363
      42
0
      10
256.5364
      20
91.1363
      42
0
      10
256.5364
      20
7.00001699559999
      42
-0.414213562373092
      10
251.5364
      20
2.00001699559999
      42
0
      10
81.9364
      20
2.00001699559999
      42
-0.414213562373096
      10
76.9364
      20
7.00001699559999
      42
0
      10
76.9364
      20
91.1363
      42
0
      10
2.00011699560002
      20
91.1363
      42
0
      10
2.00011699560002
      20
128.6363
      42
-0.414213562373083
      10
7.00011699560004
      20
133.6363
      42
0
      10
32.0001169956
      20
133.6363
      42
1
      10
32.0001169956
      20
168.6363
      42
0
      10
7.00011699560002
      20
168.6363
      42
-0.414213562373092
      10
2.00011699560002
      20
173.6363
      42
0
      10
2.00011699560002
      20
210.6363
      42
-0.414213562373092
      10
7.00011699560003
      20
215.6363
      42
0
      10
32.0001169956
      20
215.6363
      42
1
      10
32.0001169956
      20
250.6363
      42
0
      10
7.00011699560002
      20
250.6363
      42
-0.414213562373092
      10
2.00011699560002
      20
255.6363
      42
0
      10
2.00011699560002
      20
292.6363
      42
-0.414213562373091
      10
7.00011699560005
      20
297.6363
      42
0
      10
32.0001169956
      20
297.6363
      42
1
      10
32.0001169956
      20
332.6363
      42
0
      10
7.00011699560002
      20
332.6363
      42
-0.414213562373099
      10
2.00011699560005
      20
337.6363
      42
0
      10
2.00011699560002
      20
374.6363
      42
-0.414213562373098
      10
7.00011699560005
      20
379.6363
      42
0
      10
32.0001169956
      20
379.6363
      42
1
      10
32.0001169956
      20
414.6363
      42
0
      10
7.00011699560002
      20
414.6363
      42
-0.414213562373097
      10
2.00011699560001
      20
419.6363
      42
0
      10
2.00011699560002
      20
500.1363
      42
-0.414213562373099
      10
7.0001169956
      20
505.1363
      42
0
      10
21.0001169956
      20
505.1363
      42
1
      10
21.0001169956
      20
557.1363
      42
0
      10
7.00011699560002
      20
557.1363
      42
-0.414213562373092
      10
2.00011699560005
      20
562.1363
      42
0
      10
2.00011699560002
      20
620.1363
      42
-0.414213562373092
      10
7.0001169956
      20
625.1363
      42
0
      10
21.0001169956
      20
625.1363
      42
1
      10
21.0001169956
      20
677.1363
      42
0
      10
7.00011699560002
      20
677.1363
      42
-0.414213562373083
      10
2.00011699560001
      20
682.1363
      42
0
      10
2.00011699560002
      20
711.1363
      42
0
      10
76.9364
      20
711.1363
      42
0
      10
76.9363999999999
      20
795.2725830044
      42
-0.4142135623731
      10
81.9364
      20
800.2725830044
      42
0
      10
251.5364
      20
800.2725830044
      42
-0.414213562373086
      10
256.5364
      20
795.2725830044
      42
0
      10
256.5364
      20
711.1363
      42
0
      10
331.4726830044
      20
711.1363
      42
0
    1001
FS_CYPCUT
    1000
Channel
    1070
1
    1000
LeadIn
    1002
{
    1070
0
    1040
0.00133446704307616
    1040
1.5707963267949
    1040
1
    1040
0.5
    1070
0
    1040
0.5
    1070
0
    1002
}
    1000
LeadOut
    1002
{
    1070
0
    1040
0
    1040
0
    1040
0
    1070
0
    1002
}
    1000
IsFill
    1070
1
    1000
PathStart
    1040
0
    1000
ToolCompensation
    1002
{
    1070
0
    1040
0
    1070
0
    1002
}
    1000
MicroConnect
    1002
{
    1070
1
    1040
0
    1041
0.1
    1042
0
    1002
}
       0
LINE
       5
2038
     100
AcDbEntity
       8
2
     100
AcDbLine
      10
406.4091
      20
90.0681584978
      30
0
      11
586.0091
      21
90.0681584978
      31
0
    1001
FS_CYPCUT
    1000
Channel
    1070
2
    1000
LeadIn
    1002
{
    1070
3
    1040
0
    1040
1.5707963267949
    1040
0.284070751099989
    1040
0.5
    1070
0
    1040
0.5
    1070
0
    1002
}
    1000
LeadOut
    1002
{
    1070
0
    1040
0
    1040
0
    1040
0
    1070
0
    1002
}
    1000
IsFill
    1070
0
    1000
PathStart
    1040
0
    1000
ToolCompensation
    1002
{
    1070
0
    1040
0
    1070
0
    1002
}
       0
LWPOLYLINE
       5
2039
     100
AcDbEntity
       8
1
     100
AcDbPolyline
      90
4
      70
1
      10
648.6453830044
      20
204.8863
      42
-1.00000000000001
      10
648.6453830044
      20
197.3863
      42
0
      10
638.6453830044
      20
197.3863
      42
-1.00000000000001
      10
638.6453830044
      20
204.8863
      42
0
    1001
FS_CYPCUT
    1000
Channel
    1070
1
    1000
LeadIn
    1002
{
    1070
3
    1040
3.5
    1040
1.5707963267949
    1040
1
    1040
0.5
    1070
0
    1040
0.5
    1070
0
    1002
}
    1000
LeadOut
    1002
{
    1070
0
    1040
0
    1040
0
    1040
0
    1070
0
    1002
}
    1000
IsFill
    1070
0
    1000
PathStart
    1040
3.5
    1000
ToolCompensation
    1002
{
    1070
0
    1040
0
    1070
0
    1002
}
    1000
MicroConnect
    1002
{
    1070
1
    1040
0.75613636
    1041
0.5
    1042
0
    1002
}
       0
LWPOLYLINE
       5
203A
     100
AcDbEntity
       8
1
     100
AcDbPolyline
      90
4
      70
1
      10
353.7728169956
      20
204.8863
      42
-1.00000000000001
      10
353.7728169956
      20
197.3863
      42
0
      10
343.7728169956
      20
197.3863
      42
-1.00000000000001
      10
343.7728169956
      20
204.8863
      42
0
    1001
FS_CYPCUT
    1000
Channel
    1070
1
    1000
LeadIn
    1002
{
    1070
3
    1040
3.5
    1040
1.5707963267949
    1040
1
    1040
0.5
    1070
0
    1040
0.5
    1070
0
    1002
}
    1000
LeadOut
    1002
{
    1070
0
    1040
0
    1040
0
    1040
0
    1070
0
    1002
}
    1000
IsFill
    1070
0
    1000
PathStart
    1040
3.5
    1000
ToolCompensation
    1002
{
    1070
0
    1040
0
    1070
0
    1002
}
    1000
MicroConnect
    1002
{
    1070
1
    1040
2.22534944
    1041
0.5
    1042
0
    1002
}
       0
LINE
       5
203B
     100
AcDbEntity
       8
2
     100
AcDbLine
      10
405.3409584978
      20
91.1362999999999
      30
0
      11
405.3409584978
      21
711.1363
      31
0
    1001
FS_CYPCUT
    1000
Channel
    1070
2
    1000
LeadIn
    1002
{
    1070
3
    1040
0
    1040
1.5707963267949
    1040
1
    1040
0.5
    1070
0
    1040
0.5
    1070
0
    1002
}
    1000
LeadOut
    1002
{
    1070
0
    1040
0
    1040
0
    1040
0
    1070
0
    1002
}
    1000
IsFill
    1070
0
    1000
PathStart
    1040
0
    1000
ToolCompensation
    1002
{
    1070
0
    1040
0
    1070
0
    1002
}
       0
LINE
       5
203C
     100
AcDbEntity
       8
2
     100
AcDbLine
      10
587.0772415022
      20
711.1363
      30
0
      11
587.0772415022
      21
91.1362999999999
      31
0
    1001
FS_CYPCUT
    1000
Channel
    1070
2
    1000
LeadIn
    1002
{
    1070
3
    1040
0
    1040
1.5707963267949
    1040
1
    1040
0.5
    1070
0
    1040
0.5
    1070
0
    1002
}
    1000
LeadOut
    1002
{
    1070
0
    1040
0
    1040
0
    1040
0
    1070
0
    1002
}
    1000
IsFill
    1070
0
    1000
PathStart
    1040
0
    1000
ToolCompensation
    1002
{
    1070
0
    1040
0
    1070
0
    1002
}
       0
LWPOLYLINE
       5
203D
     100
AcDbEntity
       8
1
     100
AcDbPolyline
      90
4
      70
1
      10
648.6453830044
      20
604.8863
      42
-1
      10
648.6453830044
      20
597.3863
      42
0
      10
638.6453830044
      20
597.3863
      42
-1
      10
638.6453830044
      20
604.8863
      42
0
    1001
FS_CYPCUT
    1000
Channel
    1070
1
    1000
LeadIn
    1002
{
    1070
3
    1040
3.5
    1040
1.5707963267949
    1040
1
    1040
0.5
    1070
0
    1040
0.5
    1070
0
    1002
}
    1000
LeadOut
    1002
{
    1070
0
    1040
0
    1040
0
    1040
0
    1070
0
    1002
}
    1000
IsFill
    1070
0
    1000
PathStart
    1040
3.5
    1000
ToolCompensation
    1002
{
    1070
0
    1040
0
    1070
0
    1002
}
       0
LWPOLYLINE
       5
203E
     100
AcDbEntity
       8
1
     100
AcDbPolyline
      90
4
      70
1
      10
353.7728169956
      20
604.8863
      42
-1
      10
353.7728169956
      20
597.3863
      42
0
      10
343.7728169956
      20
597.3863
      42
-1
      10
343.7728169956
      20
604.8863
      42
0
    1001
FS_CYPCUT
    1000
Channel
    1070
1
    1000
LeadIn
    1002
{
    1070
3
    1040
3.5
    1040
1.5707963267949
    1040
1
    1040
0.5
    1070
0
    1040
0.5
    1070
0
    1002
}
    1000
LeadOut
    1002
{
    1070
0
    1040
0
    1040
0
    1040
0
    1070
0
    1002
}
    1000
IsFill
    1070
0
    1000
PathStart
    1040
3.5
    1000
ToolCompensation
    1002
{
    1070
0
    1040
0
    1070
0
    1002
}
       0
LINE
       5
203F
     100
AcDbEntity
       8
2
     100
AcDbLine
      10
406.4091
      20
712.2044415022
      30
0
      11
586.0091
      21
712.2044415022
      31
0
    1001
FS_CYPCUT
    1000
Channel
    1070
2
    1000
LeadIn
    1002
{
    1070
3
    1040
0
    1040
1.5707963267949
    1040
1
    1040
0.5
    1070
0
    1040
0.5
    1070
0
    1002
}
    1000
LeadOut
    1002
{
    1070
0
    1040
0
    1040
0
    1040
0
    1070
0
    1002
}
    1000
IsFill
    1070
0
    1000
PathStart
    1040
0
    1000
ToolCompensation
    1002
{
    1070
0
    1040
0
    1070
0
    1002
}
       0
LWPOLYLINE
       5
2040
     100
AcDbEntity
       8
1
     100
AcDbPolyline
      90
88
      70
1
      10
331.4728169956
      20
711.1363
      42
0
      10
331.4728169956
      20
682.1363
      42
0.414213562373083
      10
336.4728169956
      20
677.1363
      42
0
      10
350.4728169956
      20
677.1363
      42
-1
      10
350.4728169956
      20
625.1363
      42
0
      10
336.4728169956
      20
625.1363
      42
0.414213562373092
      10
331.4728169956
      20
620.1363
      42
0
      10
331.4728169956
      20
562.1363
      42
0.414213562373092
      10
336.4728169956
      20
557.1363
      42
0
      10
350.4728169956
      20
557.1363
      42
-1
      10
350.4728169956
      20
505.1363
      42
0
      10
336.4728169956
      20
505.1363
      42
0.414213562373099
      10
331.4728169956
      20
500.1363
      42
0
      10
331.4728169956
      20
419.6363
      42
0.414213562373097
      10
336.4728169956
      20
414.6363
      42
0
      10
361.4728169956
      20
414.6363
      42
-1
      10
361.4728169956
      20
379.6363
      42
0
      10
336.4728169956
      20
379.6363
      42
0.414213562373098
      10
331.4728169956
      20
374.6363
      42
0
      10
331.4728169956
      20
337.6363
      42
0.414213562373099
      10
336.4728169956
      20
332.6363
      42
0
      10
361.4728169956
      20
332.6363
      42
-1
      10
361.4728169956
      20
297.6363
      42
0
      10
336.4728169956
      20
297.6363
      42
0.414213562373091
      10
331.4728169956
      20
292.6363
      42
0
      10
331.4728169956
      20
255.6363
      42
0.414213562373092
      10
336.4728169956
      20
250.6363
      42
0
      10
361.4728169956
      20
250.6363
      42
-1
      10
361.4728169956
      20
215.6363
      42
0
      10
336.4728169956
      20
215.6363
      42
0.414213562373092
      10
331.4728169956
      20
210.6363
      42
0
      10
331.4728169956
      20
173.6363
      42
0.414213562373092
      10
336.4728169956
      20
168.6363
      42
0
      10
361.4728169956
      20
168.6363
      42
-1
      10
361.4728169956
      20
133.6363
      42
0
      10
336.4728169956
      20
133.6363
      42
0.414213562373083
      10
331.4728169956
      20
128.6363
      42
0
      10
331.4728169956
      20
91.1362999999999
      42
0
      10
406.4091
      20
91.1362999999999
      42
0
      10
406.4091
      20
7.00001699559995
      42
0.414213562373096
      10
411.4091
      20
2.00001699559994
      42
0
      10
581.0091
      20
2.00001699559996
      42
0.414213562373092
      10
586.0091
      20
7.00001699559994
      42
0
      10
586.0091
      20
91.1362999999999
      42
0
      10
660.9453830044
      20
91.1362999999999
      42
0
      10
660.9453830044
      20
128.6363
      42
0.414213562373083
      10
655.9453830044
      20
133.6363
      42
0
      10
630.9453830044
      20
133.6363
      42
-1
      10
630.9453830044
      20
168.6363
      42
0
      10
655.9453830044
      20
168.6363
      42
0.4142135623731
      10
660.9453830044
      20
173.6363
      42
0
      10
660.9453830044
      20
210.6363
      42
0.414213562373092
      10
655.9453830044
      20
215.6363
      42
0
      10
630.9453830044
      20
215.6363
      42
-1
      10
630.9453830044
      20
250.6363
      42
0
      10
655.9453830044
      20
250.6363
      42
0.414213562373092
      10
660.9453830044
      20
255.6363
      42
0
      10
660.9453830044
      20
292.6363
      42
0.414213562373085
      10
655.9453830044
      20
297.6363
      42
0
      10
630.9453830044
      20
297.6363
      42
-1
      10
630.9453830044
      20
332.6363
      42
0
      10
655.9453830044
      20
332.6363
      42
0.414213562373096
      10
660.9453830044
      20
337.6363
      42
0
      10
660.9453830044
      20
374.6363
      42
0.414213562373098
      10
655.9453830044
      20
379.6363
      42
0
      10
630.9453830044
      20
379.6363
      42
-1
      10
630.9453830044
      20
414.6363
      42
0
      10
655.9453830044
      20
414.6363
      42
0.414213562373098
      10
660.9453830044
      20
419.6363
      42
0
      10
660.9453830044
      20
500.1363
      42
0.414213562373095
      10
655.9453830044
      20
505.1363
      42
0
      10
641.9453830044
      20
505.1363
      42
-1
      10
641.9453830044
      20
557.1363
      42
0
      10
655.9453830044
      20
557.1363
      42
0.414213562373092
      10
660.9453830044
      20
562.1363
      42
0
      10
660.9453830044
      20
620.1363
      42
0.414213562373092
      10
655.9453830044
      20
625.1363
      42
0
      10
641.9453830044
      20
625.1363
      42
-1
      10
641.9453830044
      20
677.1363
      42
0
      10
655.9453830044
      20
677.1363
      42
0.414213562373095
      10
660.9453830044
      20
682.1363
      42
0
      10
660.9453830044
      20
711.1363
      42
0
      10
586.0091
      20
711.1363
      42
0
      10
586.0091
      20
795.2725830044
      42
0.414213562373086
      10
581.0091
      20
800.2725830044
      42
0
      10
411.4091
      20
800.2725830044
      42
0.4142135623731
      10
406.4091
      20
795.2725830044
      42
0
      10
406.4091
      20
711.1363
      42
0
    1001
FS_CYPCUT
    1000
Channel
    1070
1
    1000
LeadIn
    1002
{
    1070
0
    1040
0
    1040
0
    1040
0
    1040
0
    1070
0
    1040
0
    1070
0
    1002
}
    1000
LeadOut
    1002
{
    1070
0
    1040
0
    1040
0
    1040
0
    1070
0
    1002
}
    1000
IsFill
    1070
1
    1000
PathStart
    1040
0
    1000
ToolCompensation
    1002
{
    1070
0
    1040
0
    1070
0
    1002
}
       0
ENDBLK
       5
2041
     330
2003
     100
AcDbEntity
       8
0
     100
AcDbBlockEnd
       0
BLOCK
       5
2042
     330
2004
     100
AcDbEntity
       8
0
     100
AcDbBlockBegin
       2
Part1916060432
      70
0
      10
-107.493363
      20
-1.42108547E-14
      30
0
       3
Part1916060432
       1

       4
CypCutBlock
       0
LINE
       5
2043
     100
AcDbEntity
       8
2
     100
AcDbLine
      10
-78.6466813186
      20
100
      30
0
      11
-78.6466813186
      21
130
      31
0
    1001
FS_CYPCUT
    1000
Channel
    1070
2
    1000
LeadIn
    1002
{
    1070
3
    1040
0
    1040
1.5707963267949
    1040
1
    1040
0.5
    1070
0
    1040
0.5
    1070
0
    1002
}
    1000
LeadOut
    1002
{
    1070
0
    1040
0
    1040
0
    1040
0
    1070
0
    1002
}
    1000
IsFill
    1070
0
    1000
PathStart
    1040
0
    1000
ToolCompensation
    1002
{
    1070
0
    1040
0
    1070
0
    1002
}
       0
CIRCLE
       5
2044
     100
AcDbEntity
       8
1
     100
AcDbCircle
      10
-97.4933626371
      20
115
      30
0
      40
4.00000000000006
    1001
FS_CYPCUT
    1000
Channel
    1070
1
    1000
LeadIn
    1002
{
    1070
3
    1040
0
    1040
1.5707963267949
    1040
1
    1040
0.5
    1070
0
    1040
0.5
    1070
0
    1002
}
    1000
LeadOut
    1002
{
    1070
0
    1040
0
    1040
0
    1040
0
    1070
0
    1002
}
    1000
IsFill
    1070
0
    1000
PathStart
    1040
0
    1000
ToolCompensation
    1002
{
    1070
0
    1040
0
    1070
0
    1002
}
       0
LINE
       5
2045
     100
AcDbEntity
       8
2
     100
AcDbLine
      10
-77.5
      20
245.1177057407
      30
0
      11
77.5
      21
245.1177057407
      31
0
    1001
FS_CYPCUT
    1000
Channel
    1070
2
    1000
LeadIn
    1002
{
    1070
3
    1040
0
    1040
1.5707963267949
    1040
1
    1040
0.5
    1070
0
    1040
0.5
    1070
0
    1002
}
    1000
LeadOut
    1002
{
    1070
0
    1040
0
    1040
0
    1040
0
    1070
0
    1002
}
    1000
IsFill
    1070
0
    1000
PathStart
    1040
0
    1000
ToolCompensation
    1002
{
    1070
0
    1040
0
    1070
0
    1002
}
       0
LINE
       5
2046
     100
AcDbEntity
       8
2
     100
AcDbLine
      10
78.6466813186
      20
130
      30
0
      11
78.6466813186
      21
100
      31
0
    1001
FS_CYPCUT
    1000
Channel
    1070
2
    1000
LeadIn
    1002
{
    1070
3
    1040
0
    1040
1.5707963267949
    1040
1
    1040
0.5
    1070
0
    1040
0.5
    1070
0
    1002
}
    1000
LeadOut
    1002
{
    1070
0
    1040
0
    1040
0
    1040
0
    1070
0
    1002
}
    1000
IsFill
    1070
0
    1000
PathStart
    1040
0
    1000
ToolCompensation
    1002
{
    1070
0
    1040
0
    1070
0
    1002
}
       0
CIRCLE
       5
2047
     100
AcDbEntity
       8
1
     100
AcDbCircle
      10
97.4933626371
      20
115
      30
0
      40
4.00000000000001
    1001
FS_CYPCUT
    1000
Channel
    1070
1
    1000
LeadIn
    1002
{
    1070
3
    1040
0
    1040
1.5707963267949
    1040
1
    1040
0.5
    1070
0
    1040
0.5
    1070
0
    1002
}
    1000
LeadOut
    1002
{
    1070
0
    1040
0
    1040
0
    1040
0
    1070
0
    1002
}
    1000
IsFill
    1070
0
    1000
PathStart
    1040
0
    1000
ToolCompensation
    1002
{
    1070
0
    1040
0
    1070
0
    1002
}
       0
LWPOLYLINE
       5
2048
     100
AcDbEntity
       8
1
     100
AcDbPolyline
      90
20
      70
1
      10
107.4933626371
      20
125
      42
0
      10
107.4933626371
      20
105
      42
-0.414213562373098
      10
102.4933626371
      20
100
      42
0
      10
77.5
      20
100
      42
0
      10
77.5
      20
5
      42
-0.414213562373095
      10
72.5
      20
1.33226762955019E-14
      42
0
      10
-72.5
      20
-1.4210854715202E-14
      42
-0.414213562373095
      10
-77.5
      20
5
      42
0
      10
-77.5
      20
100
      42
0
      10
-102.4933626371
      20
100
      42
-0.414213562373095
      10
-107.4933626371
      20
105
      42
0
      10
-107.4933626371
      20
125
      42
-0.414213562373095
      10
-102.4933626371
      20
130
      42
0
      10
-77.5
      20
130
      42
0
      10
-77.5
      20
268.2354114813
      42
-0.41421356237309
      10
-72.5
      20
273.2354114813
      42
0
      10
72.5
      20
273.2354114813
      42
-0.414213562373094
      10
77.4999999999999
      20
268.2354114813
      42
0
      10
77.5
      20
130
      42
0
      10
102.4933626371
      20
130
      42
-0.414213562373093
    1001
FS_CYPCUT
    1000
Channel
    1070
1
    1000
LeadIn
    1002
{
    1070
3
    1040
5.5
    1040
1.5707963267949
    1040
1
    1040
0.5
    1070
0
    1040
0.5
    1070
0
    1002
}
    1000
LeadOut
    1002
{
    1070
0
    1040
0
    1040
0
    1040
0
    1070
0
    1002
}
    1000
IsFill
    1070
1
    1000
PathStart
    1040
5.5
    1000
ToolCompensation
    1002
{
    1070
0
    1040
0
    1070
0
    1002
}
    1000
MicroConnect
    1002
{
    1070
2
    1040
3.48207582
    1041
0.5
    1042
0
    1040
13.6087114
    1041
0.5
    1042
0
    1002
}
       0
ENDBLK
       5
2049
     330
2004
     100
AcDbEntity
       8
0
     100
AcDbBlockEnd
       0
BLOCK
       5
204A
     330
2005
     100
AcDbEntity
       8
0
     100
AcDbBlockBegin
       2
Part1569557175
      70
0
      10
-82.6933626
      20
-164.993363
      30
0
       3
Part1569557175
       1

       4
CypCutBlock
       0
CIRCLE
       5
204B
     100
AcDbEntity
       8
1
     100
AcDbCircle
      10
-57.6933626371
      20
-57.3
      30
0
      40
2
    1001
FS_CYPCUT
    1000
Channel
    1070
1
    1000
LeadIn
    1002
{
    1070
3
    1040
0
    1040
1.5707963267949
    1040
1
    1040
0.5
    1070
0
    1040
0.5
    1070
0
    1002
}
    1000
LeadOut
    1002
{
    1070
0
    1040
0
    1040
0
    1040
0
    1070
0
    1002
}
    1000
IsFill
    1070
0
    1000
PathStart
    1040
0
    1000
ToolCompensation
    1002
{
    1070
0
    1040
0
    1070
0
    1002
}
       0
LINE
       5
204C
     100
AcDbEntity
       8
2
     100
AcDbLine
      10
1.1533186814
      20
-35
      30
0
      11
1.1533186814
      21
-130
      31
0
    1001
FS_CYPCUT
    1000
Channel
    1070
2
    1000
LeadIn
    1002
{
    1070
3
    1040
0
    1040
1.5707963267949
    1040
1
    1040
0.5
    1070
0
    1040
0.5
    1070
0
    1002
}
    1000
LeadOut
    1002
{
    1070
0
    1040
0
    1040
0
    1040
0
    1070
0
    1002
}
    1000
IsFill
    1070
0
    1000
PathStart
    1040
0
    1000
ToolCompensation
    1002
{
    1070
0
    1040
0
    1070
0
    1002
}
       0
LINE
       5
204D
     100
AcDbEntity
       8
2
     100
AcDbLine
      10
2.3
      20
-131.1466813186
      30
0
      11
140
      21
-131.1466813186
      31
0
    1001
FS_CYPCUT
    1000
Channel
    1070
2
    1000
LeadIn
    1002
{
    1070
3
    1040
0
    1040
1.5707963267949
    1040
0.323340659300001
    1040
0.5
    1070
0
    1040
0.5
    1070
0
    1002
}
    1000
LeadOut
    1002
{
    1070
0
    1040
0
    1040
0
    1040
0
    1070
0
    1002
}
    1000
IsFill
    1070
0
    1000
PathStart
    1040
0
    1000
ToolCompensation
    1002
{
    1070
0
    1040
0
    1070
0
    1002
}
       0
LWPOLYLINE
       5
204E
     100
AcDbEntity
       8
1
     100
AcDbPolyline
      90
8
      70
1
      10
80
      20
-85
      42
0
      10
80
      20
-105
      42
-0.414213562373095
      10
75
      20
-110
      42
0
      10
55
      20
-110
      42
-0.414213562373092
      10
50
      20
-105
      42
0
      10
50
      20
-85
      42
-0.414213562373091
      10
55
      20
-80
      42
0
      10
75
      20
-80
      42
-0.414213562373095
    1001
FS_CYPCUT
    1000
Channel
    1070
1
    1000
LeadIn
    1002
{
    1070
3
    1040
0.5
    1040
1.5707963267949
    1040
1
    1040
0.5
    1070
0
    1040
0.5
    1070
0
    1002
}
    1000
LeadOut
    1002
{
    1070
0
    1040
0
    1040
0
    1040
0
    1070
0
    1002
}
    1000
IsFill
    1070
0
    1000
PathStart
    1040
0.5
    1000
ToolCompensation
    1002
{
    1070
0
    1040
0
    1070
0
    1002
}
       0
CIRCLE
       5
204F
     100
AcDbEntity
       8
1
     100
AcDbCircle
      10
115
      20
-115
      30
0
      40
3.75000000000001
    1001
FS_CYPCUT
    1000
Channel
    1070
1
    1000
LeadIn
    1002
{
    1070
3
    1040
0
    1040
1.5707963267949
    1040
1
    1040
0.5
    1070
0
    1040
0.5
    1070
0
    1002
}
    1000
LeadOut
    1002
{
    1070
0
    1040
0
    1040
0
    1040
0
    1070
0
    1002
}
    1000
IsFill
    1070
0
    1000
PathStart
    1040
0
    1000
ToolCompensation
    1002
{
    1070
0
    1040
0
    1070
0
    1002
}
       0
CIRCLE
       5
2050
     100
AcDbEntity
       8
1
     100
AcDbCircle
      10
115
      20
-75
      30
0
      40
3.75000000000003
    1001
FS_CYPCUT
    1000
Channel
    1070
1
    1000
LeadIn
    1002
{
    1070
3
    1040
0
    1040
1.5707963267949
    1040
1
    1040
0.5
    1070
0
    1040
0.5
    1070
0
    1002
}
    1000
LeadOut
    1002
{
    1070
0
    1040
0
    1040
0
    1040
0
    1070
0
    1002
}
    1000
IsFill
    1070
0
    1000
PathStart
    1040
0
    1000
ToolCompensation
    1002
{
    1070
0
    1040
0
    1070
0
    1002
}
       0
LWPOLYLINE
       5
2051
     100
AcDbEntity
       8
1
     100
AcDbPolyline
      90
6
      70
1
      10
25
      20
70
      42
0
      10
25
      20
-30
      42
-0.414213562373096
      10
20
      20
-35
      42
0
      10
-1.1933626371
      20
-35
      42
0
      10
-1.1933626371
      20
75
      42
0
      10
20
      20
75
      42
-0.414213562373099
    1001
FS_CYPCUT
    1000
Channel
    1070
1
    1000
LeadIn
    1002
{
    1070
3
    1040
3.5
    1040
1.5707963267949
    1040
1
    1040
0.5
    1070
0
    1040
0.5
    1070
0
    1002
}
    1000
LeadOut
    1002
{
    1070
0
    1040
0
    1040
0
    1040
0
    1070
0
    1002
}
    1000
IsFill
    1070
0
    1000
PathStart
    1040
3.5
    1000
ToolCompensation
    1002
{
    1070
0
    1040
0
    1070
0
    1002
}
       0
LWPOLYLINE
       5
2052
     100
AcDbEntity
       8
1
     100
AcDbPolyline
      90
4
      70
1
      10
-15.6933626371
      20
75
      42
0
      10
-15.6933626371
      20
-25
      42
-1
      10
-19.6933626371
      20
-25
      42
0
      10
-19.6933626371
      20
75
      42
-1
    1001
FS_CYPCUT
    1000
Channel
    1070
1
    1000
LeadIn
    1002
{
    1070
3
    1040
0.5
    1040
1.5707963267949
    1040
1
    1040
0.5
    1070
0
    1040
0.5
    1070
0
    1002
}
    1000
LeadOut
    1002
{
    1070
0
    1040
0
    1040
0
    1040
0
    1070
0
    1002
}
    1000
IsFill
    1070
0
    1000
PathStart
    1040
0.5
    1000
ToolCompensation
    1002
{
    1070
0
    1040
0
    1070
0
    1002
}
       0
LWPOLYLINE
       5
2053
     100
AcDbEntity
       8
1
     100
AcDbPolyline
      90
4
      70
1
      10
-71.6933626371
      20
75
      42
1
      10
-75.6933626371
      20
75
      42
0
      10
-75.6933626371
      20
-25
      42
1
      10
-71.6933626371
      20
-25
      42
0
    1001
FS_CYPCUT
    1000
Channel
    1070
1
    1000
LeadIn
    1002
{
    1070
3
    1040
1.5
    1040
1.5707963267949
    1040
1
    1040
0.5
    1070
0
    1040
0.5
    1070
0
    1002
}
    1000
LeadOut
    1002
{
    1070
0
    1040
0
    1040
0
    1040
0
    1070
0
    1002
}
    1000
IsFill
    1070
0
    1000
PathStart
    1040
1.5
    1000
ToolCompensation
    1002
{
    1070
0
    1040
0
    1070
0
    1002
}
       0
LINE
       5
2054
     100
AcDbEntity
       8
2
     100
AcDbLine
      10
1.1533186814
      20
75
      30
0
      11
1.1533186814
      21
130
      31
0
    1001
FS_CYPCUT
    1000
Channel
    1070
2
    1000
LeadIn
    1002
{
    1070
3
    1040
0
    1040
1.5707963267949
    1040
1
    1040
0.5
    1070
0
    1040
0.5
    1070
0
    1002
}
    1000
LeadOut
    1002
{
    1070
0
    1040
0
    1040
0
    1040
0
    1070
0
    1002
}
    1000
IsFill
    1070
0
    1000
PathStart
    1040
0
    1000
ToolCompensation
    1002
{
    1070
0
    1040
0
    1070
0
    1002
}
       0
LWPOLYLINE
       5
2055
     100
AcDbEntity
       8
1
     100
AcDbPolyline
      90
4
      70
1
      10
29.3
      20
115
      42
0
      10
29.3
      20
90
      42
-1
      10
16.3
      20
90
      42
0
      10
16.3
      20
115
      42
-1
    1001
FS_CYPCUT
    1000
Channel
    1070
1
    1000
LeadIn
    1002
{
    1070
3
    1040
0.5
    1040
1.5707963267949
    1040
1
    1040
0.5
    1070
0
    1040
0.5
    1070
0
    1002
}
    1000
LeadOut
    1002
{
    1070
0
    1040
0
    1040
0
    1040
0
    1070
0
    1002
}
    1000
IsFill
    1070
0
    1000
PathStart
    1040
0.5
    1000
ToolCompensation
    1002
{
    1070
0
    1040
0
    1070
0
    1002
}
       0
LWPOLYLINE
       5
2056
     100
AcDbEntity
       8
1
     100
AcDbPolyline
      90
19
      70
1
      10
140
      20
-81.2132034356
      42
0
      10
140
      20
-149.9933626371
      42
-0.414213562373096
      10
125
      20
-164.9933626371
      42
0
      10
2.3
      20
-164.9933626371
      42
0
      10
2.3
      20
-130
      42
0
      10
-32.6933626371
      20
-130
      42
0
      10
-78.2999643549
      20
-84.3933982822
      42
-0.198912367379659
      10
-82.6933626371
      20
-73.7867965644
      42
0
      10
-82.6933626371
      20
73.7867965644
      42
-0.198912367379659
      10
-78.2999643549
      20
84.3933982822
      42
0
      10
-37.0867609193
      20
125.6066017178
      42
-0.198912367379657
      10
-26.4801592015
      20
130
      42
0
      10
30
      20
130
      42
-0.414213562373095
      10
45
      20
115
      42
0
      10
45
      20
-35
      42
0.414213562373095
      10
60
      20
-50
      42
0
      10
108.7867965644
      20
-50.0000000000001
      42
-0.198912367379659
      10
119.3933982822
      20
-54.3933982822
      42
0
      10
135.606601717798
      20
-70.606601717802
      42
-0.198912367379656
    1001
FS_CYPCUT
    1000
Channel
    1070
1
    1000
LeadIn
    1002
{
    1070
3
    1040
13.5
    1040
1.5707963267949
    1040
1
    1040
0.5
    1070
0
    1040
0.5
    1070
0
    1002
}
    1000
LeadOut
    1002
{
    1070
0
    1040
0
    1040
0
    1040
0
    1070
0
    1002
}
    1000
IsFill
    1070
1
    1000
PathStart
    1040
13.5
    1000
ToolCompensation
    1002
{
    1070
0
    1040
0
    1070
0
    1002
}
    1000
MicroConnect
    1002
{
    1070
3
    1040
5.50300101
    1041
0.5
    1042
0
    1040
11.2500383
    1041
0.5
    1042
0
    1040
17.5163097
    1041
0.5
    1042
0
    1002
}
       0
ENDBLK
       5
2057
     330
2005
     100
AcDbEntity
       8
0
     100
AcDbBlockEnd
       0
BLOCK
       5
2058
     330
2006
     100
AcDbEntity
       8
0
     100
AcDbBlockBegin
       2
Part1676901816
      70
0
      10
-104.093363
      20
-110
      30
0
       3
Part1676901816
       1

       4
CypCutBlock
       0
CIRCLE
       5
2059
     100
AcDbEntity
       8
1
     100
AcDbCircle
      10
-95.1933626371
      20
-70
      30
0
      40
3.99999999999999
    1001
FS_CYPCUT
    1000
Channel
    1070
1
    1000
LeadIn
    1002
{
    1070
3
    1040
0
    1040
1.5707963267949
    1040
1
    1040
0.5
    1070
0
    1040
0.5
    1070
0
    1002
}
    1000
LeadOut
    1002
{
    1070
0
    1040
0
    1040
0
    1040
0
    1070
0
    1002
}
    1000
IsFill
    1070
0
    1000
PathStart
    1040
0
    1000
ToolCompensation
    1002
{
    1070
0
    1040
0
    1070
0
    1002
}
       0
LINE
       5
205A
     100
AcDbEntity
       8
2
     100
AcDbLine
      10
-79.0466813186
      20
-110
      30
0
      11
-79.0466813186
      21
110
      31
0
    1001
FS_CYPCUT
    1000
Channel
    1070
2
    1000
LeadIn
    1002
{
    1070
3
    1040
0
    1040
1.5707963267949
    1040
1
    1040
0.5
    1070
0
    1040
0.5
    1070
0
    1002
}
    1000
LeadOut
    1002
{
    1070
0
    1040
0
    1040
0
    1040
0
    1070
0
    1002
}
    1000
IsFill
    1070
0
    1000
PathStart
    1040
0
    1000
ToolCompensation
    1002
{
    1070
0
    1040
0
    1070
0
    1002
}
       0
LINE
       5
205B
     100
AcDbEntity
       8
2
     100
AcDbLine
      10
79.0466813186
      20
110
      30
0
      11
79.0466813186
      21
-110
      31
0
    1001
FS_CYPCUT
    1000
Channel
    1070
2
    1000
LeadIn
    1002
{
    1070
3
    1040
0
    1040
1.5707963267949
    1040
1
    1040
0.5
    1070
0
    1040
0.5
    1070
0
    1002
}
    1000
LeadOut
    1002
{
    1070
0
    1040
0
    1040
0
    1040
0
    1070
0
    1002
}
    1000
IsFill
    1070
0
    1000
PathStart
    1040
0
    1000
ToolCompensation
    1002
{
    1070
0
    1040
0
    1070
0
    1002
}
       0
CIRCLE
       5
205C
     100
AcDbEntity
       8
1
     100
AcDbCircle
      10
95.1933626371
      20
70
      30
0
      40
4
    1001
FS_CYPCUT
    1000
Channel
    1070
1
    1000
LeadIn
    1002
{
    1070
3
    1040
0
    1040
1.5707963267949
    1040
1
    1040
0.5
    1070
0
    1040
0.5
    1070
0
    1002
}
    1000
LeadOut
    1002
{
    1070
0
    1040
0
    1040
0
    1040
0
    1070
0
    1002
}
    1000
IsFill
    1070
0
    1000
PathStart
    1040
0
    1000
ToolCompensation
    1002
{
    1070
0
    1040
0
    1070
0
    1002
}
       0
LWPOLYLINE
       5
205D
     100
AcDbEntity
       8
1
     100
AcDbPolyline
      90
24
      70
1
      10
104.0933626371
      20
105
      42
0
      10
104.0933626371
      20
-105
      42
-0.414213562373095
      10
99.0933626371
      20
-110
      42
0
      10
30.2
      20
-110
      42
-0.414213562373095
      10
25.2
      20
-105
      42
0
      10
25.2
      20
-65
      42
0.414213562373095
      10
20.2
      20
-60
      42
0
      10
-40.2
      20
-60
      42
0.414213562373095
      10
-45.2
      20
-65
      42
0
      10
-45.2
      20
-105
      42
-0.414213562373095
      10
-50.2
      20
-110
      42
0
      10
-99.0933626371
      20
-110
      42
-0.414213562373099
      10
-104.0933626371
      20
-105
      42
0
      10
-104.0933626371
      20
105
      42
-0.414213562373098
      10
-99.0933626371
      20
110
      42
0
      10
-50.2
      20
110
      42
-0.414213562373095
      10
-45.2
      20
105
      42
0
      10
-45.2
      20
65
      42
0.414213562373095
      10
-40.2
      20
60
      42
0
      10
20.2
      20
60
      42
0.414213562373095
      10
25.2
      20
65
      42
0
      10
25.2
      20
105
      42
-0.414213562373095
      10
30.2
      20
110
      42
0
      10
99.0933626371
      20
110
      42
-0.414213562373098
    1001
FS_CYPCUT
    1000
Channel
    1070
1
    1000
LeadIn
    1002
{
    1070
3
    1040
0.5
    1040
1.5707963267949
    1040
1
    1040
0.5
    1070
0
    1040
0.5
    1070
0
    1002
}
    1000
LeadOut
    1002
{
    1070
0
    1040
0
    1040
0
    1040
0
    1070
0
    1002
}
    1000
IsFill
    1070
1
    1000
PathStart
    1040
0.5
    1000
ToolCompensation
    1002
{
    1070
0
    1040
0
    1070
0
    1002
}
    1000
MicroConnect
    1002
{
    1070
2
    1040
0.766589237
    1041
0.5
    1042
0
    1040
12.7597755
    1041
0.5
    1042
0
    1002
}
       0
ENDBLK
       5
205E
     330
2006
     100
AcDbEntity
       8
0
     100
AcDbBlockEnd
       0
BLOCK
       5
205F
     330
2007
     100
AcDbEntity
       8
0
     100
AcDbBlockBegin
       2
Part1762580378
      70
0
      10
-82.6933626
      20
-164.993363
      30
0
       3
Part1762580378
       1

       4
CypCutBlock
       0
LINE
       5
2060
     100
AcDbEntity
       8
2
     100
AcDbLine
      10
1.1533186814
      20
-164.9933626371
      30
0
      11
1.1533186814
      21
-109.9933626371
      31
0
    1001
FS_CYPCUT
    1000
Channel
    1070
2
    1000
LeadIn
    1002
{
    1070
3
    1040
0
    1040
1.5707963267949
    1040
1
    1040
0.5
    1070
0
    1040
0.5
    1070
0
    1002
}
    1000
LeadOut
    1002
{
    1070
0
    1040
0
    1040
0
    1040
0
    1070
0
    1002
}
    1000
IsFill
    1070
0
    1000
PathStart
    1040
0
    1000
ToolCompensation
    1002
{
    1070
0
    1040
0
    1070
0
    1002
}
       0
LWPOLYLINE
       5
2061
     100
AcDbEntity
       8
1
     100
AcDbPolyline
      90
4
      70
1
      10
29.3
      20
-149.9933626371
      42
0
      10
29.3
      20
-124.9933626371
      42
1
      10
16.3
      20
-124.9933626371
      42
0
      10
16.3
      20
-149.9933626371
      42
1
    1001
FS_CYPCUT
    1000
Channel
    1070
1
    1000
LeadIn
    1002
{
    1070
3
    1040
0.5
    1040
1.5707963267949
    1040
1
    1040
0.5
    1070
0
    1040
0.5
    1070
0
    1002
}
    1000
LeadOut
    1002
{
    1070
0
    1040
0
    1040
0
    1040
0
    1070
0
    1002
}
    1000
IsFill
    1070
0
    1000
PathStart
    1040
0.5
    1000
ToolCompensation
    1002
{
    1070
0
    1040
0
    1070
0
    1002
}
       0
LWPOLYLINE
       5
2062
     100
AcDbEntity
       8
1
     100
AcDbPolyline
      90
4
      70
1
      10
-71.6933626371
      20
-109.9933626371
      42
-1
      10
-75.6933626371
      20
-109.9933626371
      42
0
      10
-75.6933626371
      20
-9.99336263710006
      42
-1
      10
-71.6933626371
      20
-9.99336263710006
      42
0
    1001
FS_CYPCUT
    1000
Channel
    1070
1
    1000
LeadIn
    1002
{
    1070
3
    1040
1.5
    1040
1.5707963267949
    1040
1
    1040
0.5
    1070
0
    1040
0.5
    1070
0
    1002
}
    1000
LeadOut
    1002
{
    1070
0
    1040
0
    1040
0
    1040
0
    1070
0
    1002
}
    1000
IsFill
    1070
0
    1000
PathStart
    1040
1.5
    1000
ToolCompensation
    1002
{
    1070
0
    1040
0
    1070
0
    1002
}
       0
LWPOLYLINE
       5
2063
     100
AcDbEntity
       8
1
     100
AcDbPolyline
      90
4
      70
1
      10
-15.6933626371
      20
-109.9933626371
      42
0
      10
-15.6933626371
      20
-9.99336263710006
      42
1
      10
-19.6933626371
      20
-9.99336263710006
      42
0
      10
-19.6933626371
      20
-109.9933626371
      42
1
    1001
FS_CYPCUT
    1000
Channel
    1070
1
    1000
LeadIn
    1002
{
    1070
3
    1040
0.5
    1040
1.5707963267949
    1040
1
    1040
0.5
    1070
0
    1040
0.5
    1070
0
    1002
}
    1000
LeadOut
    1002
{
    1070
0
    1040
0
    1040
0
    1040
0
    1070
0
    1002
}
    1000
IsFill
    1070
0
    1000
PathStart
    1040
0.5
    1000
ToolCompensation
    1002
{
    1070
0
    1040
0
    1070
0
    1002
}
       0
LWPOLYLINE
       5
2064
     100
AcDbEntity
       8
1
     100
AcDbPolyline
      90
6
      70
1
      10
25
      20
-104.9933626371
      42
0
      10
25
      20
-4.99336263710006
      42
0.414213562373096
      10
20
      20
0.00663736289997985
      42
0
      10
-1.1933626371
      20
0.00663736289993722
      42
0
      10
-1.1933626371
      20
-109.9933626371
      42
0
      10
20
      20
-109.9933626371
      42
0.414213562373099
    1001
FS_CYPCUT
    1000
Channel
    1070
1
    1000
LeadIn
    1002
{
    1070
3
    1040
3.5
    1040
1.5707963267949
    1040
1
    1040
0.5
    1070
0
    1040
0.5
    1070
0
    1002
}
    1000
LeadOut
    1002
{
    1070
0
    1040
0
    1040
0
    1040
0
    1070
0
    1002
}
    1000
IsFill
    1070
0
    1000
PathStart
    1040
3.5
    1000
ToolCompensation
    1002
{
    1070
0
    1040
0
    1070
0
    1002
}
       0
CIRCLE
       5
2065
     100
AcDbEntity
       8
1
     100
AcDbCircle
      10
-57.6933626371
      20
22.3066373628999
      30
0
      40
2
    1001
FS_CYPCUT
    1000
Channel
    1070
1
    1000
LeadIn
    1002
{
    1070
3
    1040
0
    1040
1.5707963267949
    1040
1
    1040
0.5
    1070
0
    1040
0.5
    1070
0
    1002
}
    1000
LeadOut
    1002
{
    1070
0
    1040
0
    1040
0
    1040
0
    1070
0
    1002
}
    1000
IsFill
    1070
0
    1000
PathStart
    1040
0
    1000
ToolCompensation
    1002
{
    1070
0
    1040
0
    1070
0
    1002
}
       0
LINE
       5
2066
     100
AcDbEntity
       8
2
     100
AcDbLine
      10
1.1533186814
      20
0.00663736289993722
      30
0
      11
1.1533186814
      21
95.0066373628999
      31
0
    1001
FS_CYPCUT
    1000
Channel
    1070
2
    1000
LeadIn
    1002
{
    1070
3
    1040
0
    1040
1.5707963267949
    1040
1
    1040
0.5
    1070
0
    1040
0.5
    1070
0
    1002
}
    1000
LeadOut
    1002
{
    1070
0
    1040
0
    1040
0
    1040
0
    1070
0
    1002
}
    1000
IsFill
    1070
0
    1000
PathStart
    1040
0
    1000
ToolCompensation
    1002
{
    1070
0
    1040
0
    1070
0
    1002
}
       0
LINE
       5
2067
     100
AcDbEntity
       8
2
     100
AcDbLine
      10
2.3
      20
96.1533186814999
      30
0
      11
140
      21
96.1533186814999
      31
0
    1001
FS_CYPCUT
    1000
Channel
    1070
2
    1000
LeadIn
    1002
{
    1070
3
    1040
0
    1040
1.5707963267949
    1040
0.323340659300001
    1040
0.5
    1070
0
    1040
0.5
    1070
0
    1002
}
    1000
LeadOut
    1002
{
    1070
0
    1040
0
    1040
0
    1040
0
    1070
0
    1002
}
    1000
IsFill
    1070
0
    1000
PathStart
    1040
0
    1000
ToolCompensation
    1002
{
    1070
0
    1040
0
    1070
0
    1002
}
       0
LWPOLYLINE
       5
2068
     100
AcDbEntity
       8
1
     100
AcDbPolyline
      90
8
      70
1
      10
80
      20
50.0066373628999
      42
0
      10
80
      20
70.0066373628999
      42
0.414213562373095
      10
75
      20
75.0066373628999
      42
0
      10
55
      20
75.0066373629
      42
0.414213562373092
      10
50
      20
70.0066373628999
      42
0
      10
50
      20
50.0066373628999
      42
0.414213562373091
      10
55
      20
45.0066373629
      42
0
      10
75
      20
45.0066373628999
      42
0.414213562373095
    1001
FS_CYPCUT
    1000
Channel
    1070
1
    1000
LeadIn
    1002
{
    1070
3
    1040
0.5
    1040
1.5707963267949
    1040
1
    1040
0.5
    1070
0
    1040
0.5
    1070
0
    1002
}
    1000
LeadOut
    1002
{
    1070
0
    1040
0
    1040
0
    1040
0
    1070
0
    1002
}
    1000
IsFill
    1070
0
    1000
PathStart
    1040
0.5
    1000
ToolCompensation
    1002
{
    1070
0
    1040
0
    1070
0
    1002
}
       0
CIRCLE
       5
2069
     100
AcDbEntity
       8
1
     100
AcDbCircle
      10
115
      20
40.0066373628999
      30
0
      40
3.75000000000003
    1001
FS_CYPCUT
    1000
Channel
    1070
1
    1000
LeadIn
    1002
{
    1070
3
    1040
0
    1040
1.5707963267949
    1040
1
    1040
0.5
    1070
0
    1040
0.5
    1070
0
    1002
}
    1000
LeadOut
    1002
{
    1070
0
    1040
0
    1040
0
    1040
0
    1070
0
    1002
}
    1000
IsFill
    1070
0
    1000
PathStart
    1040
0
    1000
ToolCompensation
    1002
{
    1070
0
    1040
0
    1070
0
    1002
}
       0
CIRCLE
       5
206A
     100
AcDbEntity
       8
1
     100
AcDbCircle
      10
115
      20
80.0066373628999
      30
0
      40
3.75000000000001
    1001
FS_CYPCUT
    1000
Channel
    1070
1
    1000
LeadIn
    1002
{
    1070
3
    1040
0
    1040
1.5707963267949
    1040
1
    1040
0.5
    1070
0
    1040
0.5
    1070
0
    1002
}
    1000
LeadOut
    1002
{
    1070
0
    1040
0
    1040
0
    1040
0
    1070
0
    1002
}
    1000
IsFill
    1070
0
    1000
PathStart
    1040
0
    1000
ToolCompensation
    1002
{
    1070
0
    1040
0
    1070
0
    1002
}
       0
LWPOLYLINE
       5
206B
     100
AcDbEntity
       8
1
     100
AcDbPolyline
      90
19
      70
1
      10
140
      20
46.2198407984999
      42
0
      10
140
      20
115
      42
0.414213562373096
      10
125
      20
130
      42
0
      10
2.3
      20
130
      42
0
      10
2.3
      20
95.0066373628999
      42
0
      10
-32.6933626371
      20
95.0066373628999
      42
0
      10
-78.2999643549
      20
49.4000356450999
      42
0.198912367379659
      10
-82.6933626371
      20
38.7934339272999
      42
0
      10
-82.6933626371
      20
-108.7801592015
      42
0.198912367379659
      10
-78.2999643549
      20
-119.3867609193
      42
0
      10
-37.0867609193
      20
-160.5999643549
      42
0.198912367379657
      10
-26.4801592015
      20
-164.9933626371
      42
0
      10
30
      20
-164.9933626371
      42
0.414213562373095
      10
45
      20
-149.9933626371
      42
0
      10
45
      20
0.00663736289993722
      42
-0.414213562373095
      10
60
      20
15.0066373628999
      42
0
      10
108.7867965644
      20
15.0066373629001
      42
0.198912367379659
      10
119.3933982822
      20
19.4000356450999
      42
0
      10
135.606601717798
      20
35.6132390807019
      42
0.198912367379656
    1001
FS_CYPCUT
    1000
Channel
    1070
1
    1000
LeadIn
    1002
{
    1070
3
    1040
13.5
    1040
1.5707963267949
    1040
1
    1040
0.5
    1070
0
    1040
0.5
    1070
0
    1002
}
    1000
LeadOut
    1002
{
    1070
0
    1040
0
    1040
0
    1040
0
    1070
0
    1002
}
    1000
IsFill
    1070
1
    1000
PathStart
    1040
13.5
    1000
ToolCompensation
    1002
{
    1070
0
    1040
0
    1070
0
    1002
}
    1000
MicroConnect
    1002
{
    1070
3
    1040
0.374247675
    1041
0.5
    1042
0
    1040
5.50563036
    1041
0.5
    1042
0
    1040
9.52406132
    1041
0.5
    1042
0
    1002
}
       0
ENDBLK
       5
206C
     330
2007
     100
AcDbEntity
       8
0
     100
AcDbBlockEnd
       0
BLOCK
       5
206D
     330
2008
     100
AcDbEntity
       8
0
     100
AcDbBlockBegin
       2
Part338220375
      70
0
      10
-107.493363
      20
-1.42108547E-14
      30
0
       3
Part338220375
       1

       4
CypCutBlock
       0
LINE
       5
206E
     100
AcDbEntity
       8
2
     100
AcDbLine
      10
-78.6466813186
      20
100
      30
0
      11
-78.6466813186
      21
130
      31
0
    1001
FS_CYPCUT
    1000
Channel
    1070
2
    1000
LeadIn
    1002
{
    1070
3
    1040
0
    1040
1.5707963267949
    1040
1
    1040
0.5
    1070
0
    1040
0.5
    1070
0
    1002
}
    1000
LeadOut
    1002
{
    1070
0
    1040
0
    1040
0
    1040
0
    1070
0
    1002
}
    1000
IsFill
    1070
0
    1000
PathStart
    1040
0
    1000
ToolCompensation
    1002
{
    1070
0
    1040
0
    1070
0
    1002
}
       0
CIRCLE
       5
206F
     100
AcDbEntity
       8
1
     100
AcDbCircle
      10
-97.4933626371
      20
115
      30
0
      40
4.00000000000006
    1001
FS_CYPCUT
    1000
Channel
    1070
1
    1000
LeadIn
    1002
{
    1070
3
    1040
0
    1040
1.5707963267949
    1040
1
    1040
0.5
    1070
0
    1040
0.5
    1070
0
    1002
}
    1000
LeadOut
    1002
{
    1070
0
    1040
0
    1040
0
    1040
0
    1070
0
    1002
}
    1000
IsFill
    1070
0
    1000
PathStart
    1040
0
    1000
ToolCompensation
    1002
{
    1070
0
    1040
0
    1070
0
    1002
}
       0
LINE
       5
2070
     100
AcDbEntity
       8
2
     100
AcDbLine
      10
-77.5
      20
245.1177057407
      30
0
      11
77.5
      21
245.1177057407
      31
0
    1001
FS_CYPCUT
    1000
Channel
    1070
2
    1000
LeadIn
    1002
{
    1070
3
    1040
0
    1040
1.5707963267949
    1040
1
    1040
0.5
    1070
0
    1040
0.5
    1070
0
    1002
}
    1000
LeadOut
    1002
{
    1070
0
    1040
0
    1040
0
    1040
0
    1070
0
    1002
}
    1000
IsFill
    1070
0
    1000
PathStart
    1040
0
    1000
ToolCompensation
    1002
{
    1070
0
    1040
0
    1070
0
    1002
}
       0
LINE
       5
2071
     100
AcDbEntity
       8
2
     100
AcDbLine
      10
78.6466813186
      20
130
      30
0
      11
78.6466813186
      21
100
      31
0
    1001
FS_CYPCUT
    1000
Channel
    1070
2
    1000
LeadIn
    1002
{
    1070
3
    1040
0
    1040
1.5707963267949
    1040
1
    1040
0.5
    1070
0
    1040
0.5
    1070
0
    1002
}
    1000
LeadOut
    1002
{
    1070
0
    1040
0
    1040
0
    1040
0
    1070
0
    1002
}
    1000
IsFill
    1070
0
    1000
PathStart
    1040
0
    1000
ToolCompensation
    1002
{
    1070
0
    1040
0
    1070
0
    1002
}
       0
CIRCLE
       5
2072
     100
AcDbEntity
       8
1
     100
AcDbCircle
      10
97.4933626371
      20
115
      30
0
      40
4.00000000000001
    1001
FS_CYPCUT
    1000
Channel
    1070
1
    1000
LeadIn
    1002
{
    1070
3
    1040
0
    1040
1.5707963267949
    1040
1
    1040
0.5
    1070
0
    1040
0.5
    1070
0
    1002
}
    1000
LeadOut
    1002
{
    1070
0
    1040
0
    1040
0
    1040
0
    1070
0
    1002
}
    1000
IsFill
    1070
0
    1000
PathStart
    1040
0
    1000
ToolCompensation
    1002
{
    1070
0
    1040
0
    1070
0
    1002
}
       0
LWPOLYLINE
       5
2073
     100
AcDbEntity
       8
1
     100
AcDbPolyline
      90
20
      70
1
      10
107.4933626371
      20
125
      42
0
      10
107.4933626371
      20
105
      42
-0.414213562373098
      10
102.4933626371
      20
100
      42
0
      10
77.5
      20
100
      42
0
      10
77.5
      20
5
      42
-0.414213562373095
      10
72.5
      20
1.33226762955019E-14
      42
0
      10
-72.5
      20
-1.4210854715202E-14
      42
-0.414213562373095
      10
-77.5
      20
5
      42
0
      10
-77.5
      20
100
      42
0
      10
-102.4933626371
      20
100
      42
-0.414213562373095
      10
-107.4933626371
      20
105
      42
0
      10
-107.4933626371
      20
125
      42
-0.414213562373095
      10
-102.4933626371
      20
130
      42
0
      10
-77.5
      20
130
      42
0
      10
-77.5
      20
268.2354114813
      42
-0.41421356237309
      10
-72.5
      20
273.2354114813
      42
0
      10
72.5
      20
273.2354114813
      42
-0.414213562373094
      10
77.4999999999999
      20
268.2354114813
      42
0
      10
77.5
      20
130
      42
0
      10
102.4933626371
      20
130
      42
-0.414213562373093
    1001
FS_CYPCUT
    1000
Channel
    1070
1
    1000
LeadIn
    1002
{
    1070
3
    1040
5.5
    1040
1.5707963267949
    1040
1
    1040
0.5
    1070
0
    1040
0.5
    1070
0
    1002
}
    1000
LeadOut
    1002
{
    1070
0
    1040
0
    1040
0
    1040
0
    1070
0
    1002
}
    1000
IsFill
    1070
1
    1000
PathStart
    1040
5.5
    1000
ToolCompensation
    1002
{
    1070
0
    1040
0
    1070
0
    1002
}
    1000
MicroConnect
    1002
{
    1070
2
    1040
3.48207582
    1041
0.5
    1042
0
    1040
13.6087114
    1041
0.5
    1042
0
    1002
}
       0
ENDBLK
       5
2074
     330
2008
     100
AcDbEntity
       8
0
     100
AcDbBlockEnd
       0
BLOCK
       5
2075
     330
2009
     100
AcDbEntity
       8
0
     100
AcDbBlockBegin
       2
Part81037993
      70
0
      10
-164.736283
      20
-399.136283
      30
0
       3
Part81037993
       1

       4
CypCutBlock
       0
LINE
       5
2076
     100
AcDbEntity
       8
2
     100
AcDbLine
      10
-89.8
      20
-311.0681415022
      30
0
      11
89.8
      21
-311.0681415022
      31
0
    1001
FS_CYPCUT
    1000
Channel
    1070
2
    1000
LeadIn
    1002
{
    1070
3
    1040
0
    1040
1.5707963267949
    1040
0.284070751099989
    1040
0.5
    1070
0
    1040
0.5
    1070
0
    1002
}
    1000
LeadOut
    1002
{
    1070
0
    1040
0
    1040
0
    1040
0
    1070
0
    1002
}
    1000
IsFill
    1070
0
    1000
PathStart
    1040
0
    1000
ToolCompensation
    1002
{
    1070
0
    1040
0
    1070
0
    1002
}
       0
LWPOLYLINE
       5
2077
     100
AcDbEntity
       8
1
     100
AcDbPolyline
      90
4
      70
1
      10
152.4362830044
      20
-196.25
      42
0
      10
142.4362830044
      20
-196.25
      42
1.00000000000001
      10
142.4362830044
      20
-203.75
      42
0
      10
152.4362830044
      20
-203.75
      42
1.00000000000001
    1001
FS_CYPCUT
    1000
Channel
    1070
1
    1000
LeadIn
    1002
{
    1070
3
    1040
0.5
    1040
1.5707963267949
    1040
1
    1040
0.5
    1070
0
    1040
0.5
    1070
0
    1002
}
    1000
LeadOut
    1002
{
    1070
0
    1040
0
    1040
0
    1040
0
    1070
0
    1002
}
    1000
IsFill
    1070
0
    1000
PathStart
    1040
0.5
    1000
ToolCompensation
    1002
{
    1070
0
    1040
0
    1070
0
    1002
}
    1000
MicroConnect
    1002
{
    1070
1
    1040
3.24386364
    1041
0.5
    1042
0
    1002
}
       0
LWPOLYLINE
       5
2078
     100
AcDbEntity
       8
1
     100
AcDbPolyline
      90
4
      70
1
      10
-142.4362830044
      20
-196.25
      42
0
      10
-152.4362830044
      20
-196.25
      42
1.00000000000001
      10
-152.4362830044
      20
-203.75
      42
0
      10
-142.4362830044
      20
-203.75
      42
1.00000000000001
    1001
FS_CYPCUT
    1000
Channel
    1070
1
    1000
LeadIn
    1002
{
    1070
3
    1040
0.5
    1040
1.5707963267949
    1040
1
    1040
0.5
    1070
0
    1040
0.5
    1070
0
    1002
}
    1000
LeadOut
    1002
{
    1070
0
    1040
0
    1040
0
    1040
0
    1070
0
    1002
}
    1000
IsFill
    1070
0
    1000
PathStart
    1040
0.5
    1000
ToolCompensation
    1002
{
    1070
0
    1040
0
    1070
0
    1002
}
    1000
MicroConnect
    1002
{
    1070
1
    1040
1.77465056
    1041
0.5
    1042
0
    1002
}
       0
LINE
       5
2079
     100
AcDbEntity
       8
2
     100
AcDbLine
      10
-90.8681415022
      20
-310
      30
0
      11
-90.8681415022
      21
310
      31
0
    1001
FS_CYPCUT
    1000
Channel
    1070
2
    1000
LeadIn
    1002
{
    1070
3
    1040
0
    1040
1.5707963267949
    1040
1
    1040
0.5
    1070
0
    1040
0.5
    1070
0
    1002
}
    1000
LeadOut
    1002
{
    1070
0
    1040
0
    1040
0
    1040
0
    1070
0
    1002
}
    1000
IsFill
    1070
0
    1000
PathStart
    1040
0
    1000
ToolCompensation
    1002
{
    1070
0
    1040
0
    1070
0
    1002
}
       0
LINE
       5
207A
     100
AcDbEntity
       8
2
     100
AcDbLine
      10
90.8681415022
      20
310
      30
0
      11
90.8681415022
      21
-310
      31
0
    1001
FS_CYPCUT
    1000
Channel
    1070
2
    1000
LeadIn
    1002
{
    1070
3
    1040
0
    1040
1.5707963267949
    1040
1
    1040
0.5
    1070
0
    1040
0.5
    1070
0
    1002
}
    1000
LeadOut
    1002
{
    1070
0
    1040
0
    1040
0
    1040
0
    1070
0
    1002
}
    1000
IsFill
    1070
0
    1000
PathStart
    1040
0
    1000
ToolCompensation
    1002
{
    1070
0
    1040
0
    1070
0
    1002
}
       0
LWPOLYLINE
       5
207B
     100
AcDbEntity
       8
1
     100
AcDbPolyline
      90
4
      70
1
      10
152.4362830044
      20
203.75
      42
0
      10
142.4362830044
      20
203.75
      42
1
      10
142.4362830044
      20
196.25
      42
0
      10
152.4362830044
      20
196.25
      42
1
    1001
FS_CYPCUT
    1000
Channel
    1070
1
    1000
LeadIn
    1002
{
    1070
3
    1040
0.5
    1040
1.5707963267949
    1040
1
    1040
0.5
    1070
0
    1040
0.5
    1070
0
    1002
}
    1000
LeadOut
    1002
{
    1070
0
    1040
0
    1040
0
    1040
0
    1070
0
    1002
}
    1000
IsFill
    1070
0
    1000
PathStart
    1040
0.5
    1000
ToolCompensation
    1002
{
    1070
0
    1040
0
    1070
0
    1002
}
       0
LWPOLYLINE
       5
207C
     100
AcDbEntity
       8
1
     100
AcDbPolyline
      90
4
      70
1
      10
-142.4362830044
      20
203.75
      42
0
      10
-152.4362830044
      20
203.75
      42
1
      10
-152.4362830044
      20
196.25
      42
0
      10
-142.4362830044
      20
196.25
      42
1
    1001
FS_CYPCUT
    1000
Channel
    1070
1
    1000
LeadIn
    1002
{
    1070
3
    1040
0.5
    1040
1.5707963267949
    1040
1
    1040
0.5
    1070
0
    1040
0.5
    1070
0
    1002
}
    1000
LeadOut
    1002
{
    1070
0
    1040
0
    1040
0
    1040
0
    1070
0
    1002
}
    1000
IsFill
    1070
0
    1000
PathStart
    1040
0.5
    1000
ToolCompensation
    1002
{
    1070
0
    1040
0
    1070
0
    1002
}
       0
LINE
       5
207D
     100
AcDbEntity
       8
2
     100
AcDbLine
      10
-89.8
      20
311.0681415022
      30
0
      11
89.8
      21
311.0681415022
      31
0
    1001
FS_CYPCUT
    1000
Channel
    1070
2
    1000
LeadIn
    1002
{
    1070
3
    1040
0
    1040
1.5707963267949
    1040
1
    1040
0.5
    1070
0
    1040
0.5
    1070
0
    1002
}
    1000
LeadOut
    1002
{
    1070
0
    1040
0
    1040
0
    1040
0
    1070
0
    1002
}
    1000
IsFill
    1070
0
    1000
PathStart
    1040
0
    1000
ToolCompensation
    1002
{
    1070
0
    1040
0
    1070
0
    1002
}
       0
LWPOLYLINE
       5
207E
     100
AcDbEntity
       8
1
     100
AcDbPolyline
      90
88
      70
1
      10
164.7362830044
      20
310
      42
0
      10
164.7362830044
      20
281
      42
-0.414213562373095
      10
159.7362830044
      20
276
      42
0
      10
145.7362830044
      20
276
      42
1
      10
145.7362830044
      20
224
      42
0
      10
159.7362830044
      20
224
      42
-0.414213562373092
      10
164.7362830044
      20
219
      42
0
      10
164.7362830044
      20
161
      42
-0.414213562373092
      10
159.7362830044
      20
156
      42
0
      10
145.7362830044
      20
156
      42
1
      10
145.7362830044
      20
104
      42
0
      10
159.7362830044
      20
104
      42
-0.414213562373095
      10
164.7362830044
      20
99
      42
0
      10
164.7362830044
      20
18.5
      42
-0.414213562373098
      10
159.7362830044
      20
13.5
      42
0
      10
134.7362830044
      20
13.5
      42
1
      10
134.7362830044
      20
-21.5
      42
0
      10
159.7362830044
      20
-21.5
      42
-0.414213562373098
      10
164.7362830044
      20
-26.5
      42
0
      10
164.7362830044
      20
-63.5
      42
-0.414213562373096
      10
159.7362830044
      20
-68.5
      42
0
      10
134.7362830044
      20
-68.5
      42
1
      10
134.7362830044
      20
-103.5
      42
0
      10
159.7362830044
      20
-103.5
      42
-0.414213562373085
      10
164.7362830044
      20
-108.5
      42
0
      10
164.7362830044
      20
-145.5
      42
-0.414213562373092
      10
159.7362830044
      20
-150.5
      42
0
      10
134.7362830044
      20
-150.5
      42
1
      10
134.7362830044
      20
-185.5
      42
0
      10
159.7362830044
      20
-185.5
      42
-0.414213562373092
      10
164.7362830044
      20
-190.5
      42
0
      10
164.7362830044
      20
-227.5
      42
-0.4142135623731
      10
159.7362830044
      20
-232.5
      42
0
      10
134.7362830044
      20
-232.5
      42
1
      10
134.7362830044
      20
-267.5
      42
0
      10
159.7362830044
      20
-267.5
      42
-0.414213562373083
      10
164.7362830044
      20
-272.5
      42
0
      10
164.7362830044
      20
-310
      42
0
      10
89.8
      20
-310
      42
0
      10
89.8
      20
-394.1362830044
      42
-0.414213562373092
      10
84.8
      20
-399.1362830044
      42
0
      10
-84.8
      20
-399.1362830044
      42
-0.414213562373096
      10
-89.8
      20
-394.1362830044
      42
0
      10
-89.8
      20
-310
      42
0
      10
-164.7362830044
      20
-310
      42
0
      10
-164.7362830044
      20
-272.5
      42
-0.414213562373083
      10
-159.7362830044
      20
-267.5
      42
0
      10
-134.7362830044
      20
-267.5
      42
1
      10
-134.7362830044
      20
-232.5
      42
0
      10
-159.7362830044
      20
-232.5
      42
-0.414213562373092
      10
-164.7362830044
      20
-227.5
      42
0
      10
-164.7362830044
      20
-190.5
      42
-0.414213562373092
      10
-159.7362830044
      20
-185.5
      42
0
      10
-134.7362830044
      20
-185.5
      42
1
      10
-134.7362830044
      20
-150.5
      42
0
      10
-159.7362830044
      20
-150.5
      42
-0.414213562373092
      10
-164.7362830044
      20
-145.5
      42
0
      10
-164.7362830044
      20
-108.5
      42
-0.414213562373091
      10
-159.7362830044
      20
-103.5
      42
0
      10
-134.7362830044
      20
-103.5
      42
1
      10
-134.7362830044
      20
-68.5
      42
0
      10
-159.7362830044
      20
-68.5
      42
-0.414213562373099
      10
-164.7362830044
      20
-63.5
      42
0
      10
-164.7362830044
      20
-26.5
      42
-0.414213562373098
      10
-159.7362830044
      20
-21.5
      42
0
      10
-134.7362830044
      20
-21.5
      42
1
      10
-134.7362830044
      20
13.5
      42
0
      10
-159.7362830044
      20
13.5
      42
-0.414213562373097
      10
-164.7362830044
      20
18.5
      42
0
      10
-164.7362830044
      20
99
      42
-0.414213562373099
      10
-159.7362830044
      20
104
      42
0
      10
-145.7362830044
      20
104
      42
1
      10
-145.7362830044
      20
156
      42
0
      10
-159.7362830044
      20
156
      42
-0.414213562373092
      10
-164.7362830044
      20
161
      42
0
      10
-164.7362830044
      20
219
      42
-0.414213562373092
      10
-159.7362830044
      20
224
      42
0
      10
-145.7362830044
      20
224
      42
1
      10
-145.7362830044
      20
276
      42
0
      10
-159.7362830044
      20
276
      42
-0.414213562373083
      10
-164.7362830044
      20
281
      42
0
      10
-164.7362830044
      20
310
      42
0
      10
-89.8
      20
310
      42
0
      10
-89.8000000000001
      20
394.1362830044
      42
-0.4142135623731
      10
-84.8
      20
399.1362830044
      42
0
      10
84.8
      20
399.1362830044
      42
-0.414213562373086
      10
89.8000000000001
      20
394.1362830044
      42
0
      10
89.8
      20
310
      42
0
    1001
FS_CYPCUT
    1000
Channel
    1070
1
    1000
LeadIn
    1002
{
    1070
3
    1040
40.5
    1040
1.5707963267949
    1040
1
    1040
0.5
    1070
0
    1040
0.5
    1070
0
    1002
}
    1000
LeadOut
    1002
{
    1070
0
    1040
0
    1040
0
    1040
0
    1070
0
    1002
}
    1000
IsFill
    1070
1
    1000
PathStart
    1040
40.5
    1000
ToolCompensation
    1002
{
    1070
0
    1040
0
    1070
0
    1002
}
    1000
MicroConnect
    1002
{
    1070
2
    1040
6.60917948
    1041
0.5
    1042
0
    1040
74.301303
    1041
0.5
    1042
0
    1002
}
       0
ENDBLK
       5
207F
     330
2009
     100
AcDbEntity
       8
0
     100
AcDbBlockEnd
       0
BLOCK
       5
2080
     330
200A
     100
AcDbEntity
       8
0
     100
AcDbBlockBegin
       2
Part72255525
      70
0
      10
-104.093363
      20
-110
      30
0
       3
Part72255525
       1

       4
CypCutBlock
       0
CIRCLE
       5
2081
     100
AcDbEntity
       8
1
     100
AcDbCircle
      10
-95.1933626371
      20
-70
      30
0
      40
3.99999999999999
    1001
FS_CYPCUT
    1000
Channel
    1070
1
    1000
LeadIn
    1002
{
    1070
3
    1040
0
    1040
1.5707963267949
    1040
1
    1040
0.5
    1070
0
    1040
0.5
    1070
0
    1002
}
    1000
LeadOut
    1002
{
    1070
0
    1040
0
    1040
0
    1040
0
    1070
0
    1002
}
    1000
IsFill
    1070
0
    1000
PathStart
    1040
0
    1000
ToolCompensation
    1002
{
    1070
0
    1040
0
    1070
0
    1002
}
       0
LINE
       5
2082
     100
AcDbEntity
       8
2
     100
AcDbLine
      10
-79.0466813186
      20
-110
      30
0
      11
-79.0466813186
      21
110
      31
0
    1001
FS_CYPCUT
    1000
Channel
    1070
2
    1000
LeadIn
    1002
{
    1070
3
    1040
0
    1040
1.5707963267949
    1040
1
    1040
0.5
    1070
0
    1040
0.5
    1070
0
    1002
}
    1000
LeadOut
    1002
{
    1070
0
    1040
0
    1040
0
    1040
0
    1070
0
    1002
}
    1000
IsFill
    1070
0
    1000
PathStart
    1040
0
    1000
ToolCompensation
    1002
{
    1070
0
    1040
0
    1070
0
    1002
}
       0
LINE
       5
2083
     100
AcDbEntity
       8
2
     100
AcDbLine
      10
79.0466813186
      20
110
      30
0
      11
79.0466813186
      21
-110
      31
0
    1001
FS_CYPCUT
    1000
Channel
    1070
2
    1000
LeadIn
    1002
{
    1070
3
    1040
0
    1040
1.5707963267949
    1040
1
    1040
0.5
    1070
0
    1040
0.5
    1070
0
    1002
}
    1000
LeadOut
    1002
{
    1070
0
    1040
0
    1040
0
    1040
0
    1070
0
    1002
}
    1000
IsFill
    1070
0
    1000
PathStart
    1040
0
    1000
ToolCompensation
    1002
{
    1070
0
    1040
0
    1070
0
    1002
}
       0
CIRCLE
       5
2084
     100
AcDbEntity
       8
1
     100
AcDbCircle
      10
95.1933626371
      20
70
      30
0
      40
4
    1001
FS_CYPCUT
    1000
Channel
    1070
1
    1000
LeadIn
    1002
{
    1070
3
    1040
0
    1040
1.5707963267949
    1040
1
    1040
0.5
    1070
0
    1040
0.5
    1070
0
    1002
}
    1000
LeadOut
    1002
{
    1070
0
    1040
0
    1040
0
    1040
0
    1070
0
    1002
}
    1000
IsFill
    1070
0
    1000
PathStart
    1040
0
    1000
ToolCompensation
    1002
{
    1070
0
    1040
0
    1070
0
    1002
}
       0
LWPOLYLINE
       5
2085
     100
AcDbEntity
       8
1
     100
AcDbPolyline
      90
24
      70
1
      10
104.0933626371
      20
105
      42
0
      10
104.0933626371
      20
-105
      42
-0.414213562373095
      10
99.0933626371
      20
-110
      42
0
      10
30.2
      20
-110
      42
-0.414213562373095
      10
25.2
      20
-105
      42
0
      10
25.2
      20
-65
      42
0.414213562373095
      10
20.2
      20
-60
      42
0
      10
-40.2
      20
-60
      42
0.414213562373095
      10
-45.2
      20
-65
      42
0
      10
-45.2
      20
-105
      42
-0.414213562373095
      10
-50.2
      20
-110
      42
0
      10
-99.0933626371
      20
-110
      42
-0.414213562373099
      10
-104.0933626371
      20
-105
      42
0
      10
-104.0933626371
      20
105
      42
-0.414213562373098
      10
-99.0933626371
      20
110
      42
0
      10
-50.2
      20
110
      42
-0.414213562373095
      10
-45.2
      20
105
      42
0
      10
-45.2
      20
65
      42
0.414213562373095
      10
-40.2
      20
60
      42
0
      10
20.2
      20
60
      42
0.414213562373095
      10
25.2
      20
65
      42
0
      10
25.2
      20
105
      42
-0.414213562373095
      10
30.2
      20
110
      42
0
      10
99.0933626371
      20
110
      42
-0.414213562373098
    1001
FS_CYPCUT
    1000
Channel
    1070
1
    1000
LeadIn
    1002
{
    1070
3
    1040
0.5
    1040
1.5707963267949
    1040
1
    1040
0.5
    1070
0
    1040
0.5
    1070
0
    1002
}
    1000
LeadOut
    1002
{
    1070
0
    1040
0
    1040
0
    1040
0
    1070
0
    1002
}
    1000
IsFill
    1070
1
    1000
PathStart
    1040
0.5
    1000
ToolCompensation
    1002
{
    1070
0
    1040
0
    1070
0
    1002
}
    1000
MicroConnect
    1002
{
    1070
2
    1040
0.766589237
    1041
0.5
    1042
0
    1040
12.7597755
    1041
0.5
    1042
0
    1002
}
       0
ENDBLK
       5
2086
     330
200A
     100
AcDbEntity
       8
0
     100
AcDbBlockEnd
       0
BLOCK
       5
2087
     330
200B
     100
AcDbEntity
       8
0
     100
AcDbBlockBegin
       2
Part82591934
      70
0
      10
-104.093363
      20
-110
      30
0
       3
Part82591934
       1

       4
CypCutBlock
       0
CIRCLE
       5
2088
     100
AcDbEntity
       8
1
     100
AcDbCircle
      10
-95.1933626371
      20
-70
      30
0
      40
3.99999999999999
    1001
FS_CYPCUT
    1000
Channel
    1070
1
    1000
LeadIn
    1002
{
    1070
3
    1040
0
    1040
1.5707963267949
    1040
1
    1040
0.5
    1070
0
    1040
0.5
    1070
0
    1002
}
    1000
LeadOut
    1002
{
    1070
0
    1040
0
    1040
0
    1040
0
    1070
0
    1002
}
    1000
IsFill
    1070
0
    1000
PathStart
    1040
0
    1000
ToolCompensation
    1002
{
    1070
0
    1040
0
    1070
0
    1002
}
       0
LINE
       5
2089
     100
AcDbEntity
       8
2
     100
AcDbLine
      10
-79.0466813186
      20
-110
      30
0
      11
-79.0466813186
      21
110
      31
0
    1001
FS_CYPCUT
    1000
Channel
    1070
2
    1000
LeadIn
    1002
{
    1070
3
    1040
0
    1040
1.5707963267949
    1040
1
    1040
0.5
    1070
0
    1040
0.5
    1070
0
    1002
}
    1000
LeadOut
    1002
{
    1070
0
    1040
0
    1040
0
    1040
0
    1070
0
    1002
}
    1000
IsFill
    1070
0
    1000
PathStart
    1040
0
    1000
ToolCompensation
    1002
{
    1070
0
    1040
0
    1070
0
    1002
}
       0
LINE
       5
208A
     100
AcDbEntity
       8
2
     100
AcDbLine
      10
79.0466813186
      20
110
      30
0
      11
79.0466813186
      21
-110
      31
0
    1001
FS_CYPCUT
    1000
Channel
    1070
2
    1000
LeadIn
    1002
{
    1070
3
    1040
0
    1040
1.5707963267949
    1040
1
    1040
0.5
    1070
0
    1040
0.5
    1070
0
    1002
}
    1000
LeadOut
    1002
{
    1070
0
    1040
0
    1040
0
    1040
0
    1070
0
    1002
}
    1000
IsFill
    1070
0
    1000
PathStart
    1040
0
    1000
ToolCompensation
    1002
{
    1070
0
    1040
0
    1070
0
    1002
}
       0
CIRCLE
       5
208B
     100
AcDbEntity
       8
1
     100
AcDbCircle
      10
95.1933626371
      20
70
      30
0
      40
4
    1001
FS_CYPCUT
    1000
Channel
    1070
1
    1000
LeadIn
    1002
{
    1070
3
    1040
0
    1040
1.5707963267949
    1040
1
    1040
0.5
    1070
0
    1040
0.5
    1070
0
    1002
}
    1000
LeadOut
    1002
{
    1070
0
    1040
0
    1040
0
    1040
0
    1070
0
    1002
}
    1000
IsFill
    1070
0
    1000
PathStart
    1040
0
    1000
ToolCompensation
    1002
{
    1070
0
    1040
0
    1070
0
    1002
}
       0
LWPOLYLINE
       5
208C
     100
AcDbEntity
       8
1
     100
AcDbPolyline
      90
24
      70
1
      10
104.0933626371
      20
105
      42
0
      10
104.0933626371
      20
-105
      42
-0.414213562373095
      10
99.0933626371
      20
-110
      42
0
      10
30.2
      20
-110
      42
-0.414213562373095
      10
25.2
      20
-105
      42
0
      10
25.2
      20
-65
      42
0.414213562373095
      10
20.2
      20
-60
      42
0
      10
-40.2
      20
-60
      42
0.414213562373095
      10
-45.2
      20
-65
      42
0
      10
-45.2
      20
-105
      42
-0.414213562373095
      10
-50.2
      20
-110
      42
0
      10
-99.0933626371
      20
-110
      42
-0.414213562373099
      10
-104.0933626371
      20
-105
      42
0
      10
-104.0933626371
      20
105
      42
-0.414213562373098
      10
-99.0933626371
      20
110
      42
0
      10
-50.2
      20
110
      42
-0.414213562373095
      10
-45.2
      20
105
      42
0
      10
-45.2
      20
65
      42
0.414213562373095
      10
-40.2
      20
60
      42
0
      10
20.2
      20
60
      42
0.414213562373095
      10
25.2
      20
65
      42
0
      10
25.2
      20
105
      42
-0.414213562373095
      10
30.2
      20
110
      42
0
      10
99.0933626371
      20
110
      42
-0.414213562373098
    1001
FS_CYPCUT
    1000
Channel
    1070
1
    1000
LeadIn
    1002
{
    1070
3
    1040
0.5
    1040
1.5707963267949
    1040
1
    1040
0.5
    1070
0
    1040
0.5
    1070
0
    1002
}
    1000
LeadOut
    1002
{
    1070
0
    1040
0
    1040
0
    1040
0
    1070
0
    1002
}
    1000
IsFill
    1070
1
    1000
PathStart
    1040
0.5
    1000
ToolCompensation
    1002
{
    1070
0
    1040
0
    1070
0
    1002
}
    1000
MicroConnect
    1002
{
    1070
2
    1040
0.766589237
    1041
0.5
    1042
0
    1040
12.7597755
    1041
0.5
    1042
0
    1002
}
       0
ENDBLK
       5
208D
     330
200B
     100
AcDbEntity
       8
0
     100
AcDbBlockEnd
       0
BLOCK
       5
208E
     330
200C
     100
AcDbEntity
       8
0
     100
AcDbBlockBegin
       2
Part1229857286
      70
0
      10
-104.093363
      20
-110
      30
0
       3
Part1229857286
       1

       4
CypCutBlock
       0
CIRCLE
       5
208F
     100
AcDbEntity
       8
1
     100
AcDbCircle
      10
-95.1933626371
      20
-70
      30
0
      40
3.99999999999999
    1001
FS_CYPCUT
    1000
Channel
    1070
1
    1000
LeadIn
    1002
{
    1070
3
    1040
0
    1040
1.5707963267949
    1040
1
    1040
0.5
    1070
0
    1040
0.5
    1070
0
    1002
}
    1000
LeadOut
    1002
{
    1070
0
    1040
0
    1040
0
    1040
0
    1070
0
    1002
}
    1000
IsFill
    1070
0
    1000
PathStart
    1040
0
    1000
ToolCompensation
    1002
{
    1070
0
    1040
0
    1070
0
    1002
}
       0
LINE
       5
2090
     100
AcDbEntity
       8
2
     100
AcDbLine
      10
-79.0466813186
      20
-110
      30
0
      11
-79.0466813186
      21
110
      31
0
    1001
FS_CYPCUT
    1000
Channel
    1070
2
    1000
LeadIn
    1002
{
    1070
3
    1040
0
    1040
1.5707963267949
    1040
1
    1040
0.5
    1070
0
    1040
0.5
    1070
0
    1002
}
    1000
LeadOut
    1002
{
    1070
0
    1040
0
    1040
0
    1040
0
    1070
0
    1002
}
    1000
IsFill
    1070
0
    1000
PathStart
    1040
0
    1000
ToolCompensation
    1002
{
    1070
0
    1040
0
    1070
0
    1002
}
       0
LINE
       5
2091
     100
AcDbEntity
       8
2
     100
AcDbLine
      10
79.0466813186
      20
110
      30
0
      11
79.0466813186
      21
-110
      31
0
    1001
FS_CYPCUT
    1000
Channel
    1070
2
    1000
LeadIn
    1002
{
    1070
3
    1040
0
    1040
1.5707963267949
    1040
1
    1040
0.5
    1070
0
    1040
0.5
    1070
0
    1002
}
    1000
LeadOut
    1002
{
    1070
0
    1040
0
    1040
0
    1040
0
    1070
0
    1002
}
    1000
IsFill
    1070
0
    1000
PathStart
    1040
0
    1000
ToolCompensation
    1002
{
    1070
0
    1040
0
    1070
0
    1002
}
       0
CIRCLE
       5
2092
     100
AcDbEntity
       8
1
     100
AcDbCircle
      10
95.1933626371
      20
70
      30
0
      40
4
    1001
FS_CYPCUT
    1000
Channel
    1070
1
    1000
LeadIn
    1002
{
    1070
3
    1040
0
    1040
1.5707963267949
    1040
1
    1040
0.5
    1070
0
    1040
0.5
    1070
0
    1002
}
    1000
LeadOut
    1002
{
    1070
0
    1040
0
    1040
0
    1040
0
    1070
0
    1002
}
    1000
IsFill
    1070
0
    1000
PathStart
    1040
0
    1000
ToolCompensation
    1002
{
    1070
0
    1040
0
    1070
0
    1002
}
       0
LWPOLYLINE
       5
2093
     100
AcDbEntity
       8
1
     100
AcDbPolyline
      90
24
      70
1
      10
104.0933626371
      20
105
      42
0
      10
104.0933626371
      20
-105
      42
-0.414213562373095
      10
99.0933626371
      20
-110
      42
0
      10
30.2
      20
-110
      42
-0.414213562373095
      10
25.2
      20
-105
      42
0
      10
25.2
      20
-65
      42
0.414213562373095
      10
20.2
      20
-60
      42
0
      10
-40.2
      20
-60
      42
0.414213562373095
      10
-45.2
      20
-65
      42
0
      10
-45.2
      20
-105
      42
-0.414213562373095
      10
-50.2
      20
-110
      42
0
      10
-99.0933626371
      20
-110
      42
-0.414213562373099
      10
-104.0933626371
      20
-105
      42
0
      10
-104.0933626371
      20
105
      42
-0.414213562373098
      10
-99.0933626371
      20
110
      42
0
      10
-50.2
      20
110
      42
-0.414213562373095
      10
-45.2
      20
105
      42
0
      10
-45.2
      20
65
      42
0.414213562373095
      10
-40.2
      20
60
      42
0
      10
20.2
      20
60
      42
0.414213562373095
      10
25.2
      20
65
      42
0
      10
25.2
      20
105
      42
-0.414213562373095
      10
30.2
      20
110
      42
0
      10
99.0933626371
      20
110
      42
-0.414213562373098
    1001
FS_CYPCUT
    1000
Channel
    1070
1
    1000
LeadIn
    1002
{
    1070
3
    1040
0.5
    1040
1.5707963267949
    1040
1
    1040
0.5
    1070
0
    1040
0.5
    1070
0
    1002
}
    1000
LeadOut
    1002
{
    1070
0
    1040
0
    1040
0
    1040
0
    1070
0
    1002
}
    1000
IsFill
    1070
1
    1000
PathStart
    1040
0.5
    1000
ToolCompensation
    1002
{
    1070
0
    1040
0
    1070
0
    1002
}
    1000
MicroConnect
    1002
{
    1070
2
    1040
0.766589237
    1041
0.5
    1042
0
    1040
12.7597755
    1041
0.5
    1042
0
    1002
}
       0
ENDBLK
       5
2094
     330
200C
     100
AcDbEntity
       8
0
     100
AcDbBlockEnd
       0
ENDSEC
       0
SECTION
       2
ENTITIES
       0
INSERT
       5
2095
     100
AcDbEntity
       8
1
     100
AcDbBlockReference
       2
Part1425431889
      10
2742.4456897405
      20
3490.01965971057
      30
0
      41
1
      42
1
      50
0
    1001
FS_CYPCUT
    1000
Channel
    1070
1
    1000
LeadIn
    1002
{
    1070
0
    1040
0
    1040
0
    1040
0
    1040
0
    1070
0
    1040
0
    1070
0
    1002
}
    1000
LeadOut
    1002
{
    1070
0
    1040
0
    1040
0
    1040
0
    1070
0
    1002
}
       0
INSERT
       5
2096
     100
AcDbEntity
       8
1
     100
AcDbBlockReference
       2
Part797072540
      10
2957.5320157405
      20
4064.09095971057
      30
0
      41
1
      42
1
      50
180
    1001
FS_CYPCUT
    1000
Channel
    1070
1
    1000
LeadIn
    1002
{
    1070
0
    1040
0
    1040
0
    1040
0
    1040
0
    1070
0
    1040
0
    1070
0
    1002
}
    1000
LeadOut
    1002
{
    1070
0
    1040
0
    1040
0
    1040
0
    1070
0
    1002
}
       0
INSERT
       5
2097
     100
AcDbEntity
       8
1
     100
AcDbBlockReference
       2
Part1359005114
      10
2770.4389357405
      20
4262.72754271057
      30
0
      41
1
      42
1
      50
180
    1001
FS_CYPCUT
    1000
Channel
    1070
1
    1000
LeadIn
    1002
{
    1070
0
    1040
0
    1040
0
    1040
0
    1040
0
    1070
0
    1040
0
    1070
0
    1002
}
    1000
LeadOut
    1002
{
    1070
0
    1040
0
    1040
0
    1040
0
    1070
0
    1002
}
       0
INSERT
       5
2098
     100
AcDbEntity
       8
2
     100
AcDbBlockReference
       2
CommonPart
      10
1780.0209697405
      20
3464.45497671057
      30
0
      41
1
      42
1
      50
0
    1001
FS_CYPCUT
    1000
Channel
    1070
2
    1000
LeadIn
    1002
{
    1070
0
    1040
0
    1040
0
    1040
0
    1040
0
    1070
0
    1040
0
    1070
0
    1002
}
    1000
LeadOut
    1002
{
    1070
0
    1040
0
    1040
0
    1040
0
    1070
0
    1002
}
       0
INSERT
       5
2099
     100
AcDbEntity
       8
1
     100
AcDbBlockReference
       2
Part1916060432
      10
2957.4324157405
      20
4339.32635971057
      30
0
      41
1
      42
1
      50
180
    1001
FS_CYPCUT
    1000
Channel
    1070
1
    1000
LeadIn
    1002
{
    1070
0
    1040
0
    1040
0
    1040
0
    1040
0
    1070
0
    1040
0
    1070
0
    1002
}
    1000
LeadOut
    1002
{
    1070
0
    1040
0
    1040
0
    1040
0
    1070
0
    1002
}
       0
INSERT
       5
209A
     100
AcDbEntity
       8
1
     100
AcDbBlockReference
       2
Part1569557175
      10
2976.0209179405
      20
4639.81382271057
      30
0
      41
1
      42
1
      50
180
    1001
FS_CYPCUT
    1000
Channel
    1070
1
    1000
LeadIn
    1002
{
    1070
0
    1040
0
    1040
0
    1040
0
    1040
0
    1070
0
    1040
0
    1070
0
    1002
}
    1000
LeadOut
    1002
{
    1070
0
    1040
0
    1040
0
    1040
0
    1070
0
    1002
}
       0
INSERT
       5
209B
     100
AcDbEntity
       8
1
     100
AcDbBlockReference
       2
Part1676901816
      10
2753.15745278054
      20
4850.00062275289
      30
0
      41
1
      42
1
      50
269.999999977959
    1001
FS_CYPCUT
    1000
Channel
    1070
1
    1000
LeadIn
    1002
{
    1070
0
    1040
0
    1040
0
    1040
0
    1040
0
    1070
0
    1040
0
    1070
0
    1002
}
    1000
LeadOut
    1002
{
    1070
0
    1040
0
    1040
0
    1040
0
    1070
0
    1002
}
       0
INSERT
       5
209C
     100
AcDbEntity
       8
1
     100
AcDbBlockReference
       2
Part1762580378
      10
2751.15731560554
      20
4539.96179763939
      30
0
      41
1
      42
1
      50
90.0000001836389
    1001
FS_CYPCUT
    1000
Channel
    1070
1
    1000
LeadIn
    1002
{
    1070
0
    1040
0
    1040
0
    1040
0
    1040
0
    1070
0
    1040
0
    1070
0
    1002
}
    1000
LeadOut
    1002
{
    1070
0
    1040
0
    1040
0
    1040
0
    1070
0
    1002
}
       0
INSERT
       5
209D
     100
AcDbEntity
       8
1
     100
AcDbBlockReference
       2
Part338220375
      10
2580.2927897405
      20
4264.72685971057
      30
0
      41
1
      42
1
      50
0
    1001
FS_CYPCUT
    1000
Channel
    1070
1
    1000
LeadIn
    1002
{
    1070
0
    1040
0
    1040
0
    1040
0
    1040
0
    1070
0
    1040
0
    1070
0
    1002
}
    1000
LeadOut
    1002
{
    1070
0
    1040
0
    1040
0
    1040
0
    1070
0
    1002
}
       0
INSERT
       5
209E
     100
AcDbEntity
       8
1
     100
AcDbBlockReference
       2
Part81037993
      10
2578.29353626849
      20
4264.72747798985
      30
0
      41
1
      42
1
      50
90.0000001836389
    1001
FS_CYPCUT
    1000
Channel
    1070
1
    1000
LeadIn
    1002
{
    1070
0
    1040
0
    1040
0
    1040
0
    1040
0
    1070
0
    1040
0
    1070
0
    1002
}
    1000
LeadOut
    1002
{
    1070
0
    1040
0
    1040
0
    1040
0
    1070
0
    1002
}
       0
INSERT
       5
209F
     100
AcDbEntity
       8
1
     100
AcDbBlockReference
       2
Part72255525
      10
2002.32085278054
      20
4804.38682275289
      30
0
      41
1
      42
1
      50
269.999999977959
    1001
FS_CYPCUT
    1000
Channel
    1070
1
    1000
LeadIn
    1002
{
    1070
0
    1040
0
    1040
0
    1040
0
    1040
0
    1070
0
    1040
0
    1070
0
    1002
}
    1000
LeadOut
    1002
{
    1070
0
    1040
0
    1040
0
    1040
0
    1070
0
    1002
}
       0
INSERT
       5
20A0
     100
AcDbEntity
       8
1
     100
AcDbBlockReference
       2
Part82591934
      10
2224.52085278054
      20
4804.38682275289
      30
0
      41
1
      42
1
      50
269.999999977959
    1001
FS_CYPCUT
    1000
Channel
    1070
1
    1000
LeadIn
    1002
{
    1070
0
    1040
0
    1040
0
    1040
0
    1040
0
    1070
0
    1040
0
    1070
0
    1002
}
    1000
LeadOut
    1002
{
    1070
0
    1040
0
    1040
0
    1040
0
    1070
0
    1002
}
       0
INSERT
       5
20A1
     100
AcDbEntity
       8
1
     100
AcDbBlockReference
       2
Part1229857286
      10
1780.12085314054
      20
4804.38682275289
      30
0
      41
1
      42
1
      50
269.999999977959
    1001
FS_CYPCUT
    1000
Channel
    1070
1
    1000
LeadIn
    1002
{
    1070
0
    1040
0
    1040
0
    1040
0
    1040
0
    1070
0
    1040
0
    1070
0
    1002
}
    1000
LeadOut
    1002
{
    1070
0
    1040
0
    1040
0
    1040
0
    1070
0
    1002
}
       0
ENDSEC
  0
SECTION
  2
OBJECTS
  0
DICTIONARY
  5
111
330
0
100
AcDbDictionary
281
     1
  3
ACAD_COLOR
350
120
  3
ACAD_GROUP
350
112
  3
ACAD_LAYOUT
350
11E
  3
ACAD_MATERIAL
350
11F
  3
ACAD_MLINESTYLE
350
11B
  3
ACAD_PLOTSETTINGS
350
11D
  3
ACAD_PLOTSTYLENAME
350
113
  3
ACAD_TABLESTYLE
350
121
  3
AcDbVariableDictionary
350
135
  0
DICTIONARY
  5
120
102
{ACAD_REACTORS
330
111
102
}
330
111
100
AcDbDictionary
281
     1
  0
DICTIONARY
  5
112
102
{ACAD_REACTORS
330
111
102
}
330
111
100
AcDbDictionary
281
     1
  0
DICTIONARY
  5
11E
102
{ACAD_REACTORS
330
111
102
}
330
111
100
AcDbDictionary
281
     1
  3
Model
350
12A
  3
布局1
350
126
  0
DICTIONARY
  5
11F
102
{ACAD_REACTORS
330
111
102
}
330
111
100
AcDbDictionary
281
     1
  0
DICTIONARY
  5
11B
102
{ACAD_REACTORS
330
111
102
}
330
111
100
AcDbDictionary
281
     1
  3
Standard
350
11C
  0
DICTIONARY
  5
11D
102
{ACAD_REACTORS
330
111
102
}
330
111
100
AcDbDictionary
281
     1
  0
ACDBDICTIONARYWDFLT
  5
113
102
{ACAD_REACTORS
330
111
102
}
330
111
100
AcDbDictionary
281
     1
  3
Normal
350
114
100
AcDbDictionaryWithDefault
340
114
  0
DICTIONARY
  5
121
102
{ACAD_REACTORS
330
111
102
}
330
111
100
AcDbDictionary
281
     1
  3
Standard
350
122
  0
DICTIONARY
  5
135
102
{ACAD_REACTORS
330
111
102
}
330
111
100
AcDbDictionary
281
     1
  3
CTABLESTYLE
350
136
  0
LAYOUT
  5
12A
102
{ACAD_REACTORS
330
11E
102
}
330
11E
100
AcDbPlotSettings
  1

  2
发送至 OneNote 2010
  4

  6

 40
0.0
 41
0.0
 42
0.0
 43
0.0
 44
0.0
 45
0.0
 46
0.0
 47
0.0
 48
0.0
 49
0.0
140
0.0
141
0.0
142
1.0
143
1.0
 70
  1712
 72
     0
 73
     0
 74
     0
  7

 75
     0
147
1.0
 76
     0
 77
     2
 78
   300
148
0.0
149
0.0
100
AcDbLayout
  1
Model
 70
     1
 71
     0
 10
0.0
 20
0.0
 11
12.0
 21
9.0
 12
0.0
 22
0.0
 32
0.0
 14
0.0
 24
0.0
 34
0.0
 15
0.0
 25
0.0
 35
0.0
146
0.0
 13
0.0
 23
0.0
 33
0.0
 16
1.0
 26
0.0
 36
0.0
 17
0.0
 27
1.0
 37
0.0
 76
     0
330
127
  0
LAYOUT
  5
126
102
{ACAD_REACTORS
330
11E
102
}
330
11E
100
AcDbPlotSettings
  1

  2
发送至 OneNote 2010
  4

  6

 40
0.0
 41
0.0
 42
0.0
 43
0.0
 44
0.0
 45
0.0
 46
0.0
 47
0.0
 48
0.0
 49
0.0
140
0.0
141
0.0
142
1.0
143
1.0
 70
   688
 72
     0
 73
     0
 74
     5
  7

 75
    16
147
1.0
 76
     0
 77
     2
 78
   300
148
0.0
149
0.0
100
AcDbLayout
  1
布局1
 70
     1
 71
     1
 10
0.0
 20
0.0
 11
12.0
 21
9.0
 12
0.0
 22
0.0
 32
0.0
 14
0.0
 24
0.0
 34
0.0
 15
0.0
 25
0.0
 35
0.0
146
0.0
 13
0.0
 23
0.0
 33
0.0
 16
1.0
 26
0.0
 36
0.0
 17
0.0
 27
1.0
 37
0.0
 76
     0
330
123
  0
MLINESTYLE
  5
11C
102
{ACAD_REACTORS
330
11B
102
}
330
11B
100
AcDbMlineStyle
  2
STANDARD
 70
     0
  3

 62
   256
 51
90.0
 52
90.0
 71
     2
 49
0.5
 62
   256
  6
BYLAYER
 49
-0.5
 62
   256
  6
BYLAYER
  0
ACDBPLACEHOLDER
  5
114
102
{ACAD_REACTORS
330
113
102
}
330
113
  0
TABLESTYLE
  5
122
102
{ACAD_REACTORS
330
121
102
}
330
121
100
AcDbTableStyle
  3
Standard
 70
     0
 71
     0
 40
0.06
 41
0.06
280
     0
281
     0
  7
STANDARD
140
0.18
170
     2
 62
     0
 63
     7
283
     0
274
    -2
284
     1
 64
     0
275
    -2
285
     1
 65
     0
276
    -2
286
     1
 66
     0
277
    -2
287
     1
 67
     0
278
    -2
288
     1
 68
     0
279
    -2
289
     1
 69
     0
  7
STANDARD
140
0.25
170
     5
 62
     0
 63
     7
283
     0
274
    -2
284
     1
 64
     0
275
    -2
285
     1
 65
     0
276
    -2
286
     1
 66
     0
277
    -2
287
     1
 67
     0
278
    -2
288
     1
 68
     0
279
    -2
289
     1
 69
     0
  7
STANDARD
140
0.18
170
     5
 62
     0
 63
     7
283
     0
274
    -2
284
     1
 64
     0
275
    -2
285
     1
 65
     0
276
    -2
286
     1
 66
     0
277
    -2
287
     1
 67
     0
278
    -2
288
     1
 68
     0
279
    -2
289
     1
 69
     0
  0
DICTIONARYVAR
  5
136
102
{ACAD_REACTORS
330
135
102
}
330
135
100
DictionaryVariables
280
     0
  1
STANDARD
  0
ENDSEC
  0
EOF
