  0
SECTION
  2
HEADER
  9
$ACADVER
  1
AC1018
  9
$ACADMAINTVER
 70
    77
  9
$DWGCODEPAGE
  3
ANSI_936
  9
$INSBASE
 10
0.0
 20
0.0
 30
0.0
  9
$EXTMIN
 10
3601.8957346487
 20
6611.37440806325
 30
0.0
  9
$EXTMAX
 10
4797.8958346487
 20
7724.83750806325
 30
0.0
  9
$LIMMIN
 10
0.0
 20
0.0
  9
$LIMMAX
 10
420.0
 20
297.0
  9
$ORTHOMODE
 70
     0
  9
$REGENMODE
 70
     1
  9
$FILLMODE
 70
     1
  9
$QTEXTMODE
 70
     0
  9
$MIRRTEXT
 70
     0
  9
$LTSCALE
 40
1.0
  9
$ATTMODE
 70
     1
  9
$TEXTSIZE
 40
2.5
  9
$TRACEWID
 40
1.0
  9
$TEXTSTYLE
  7
STANDARD
  9
$CLAYER
  8
0
  9
$CELTYPE
  6
ByLayer
  9
$CECOLOR
 62
   256
  9
$CELTSCALE
 40
1.0
  9
$DISPSILH
 70
     0
  9
$DIMSCALE
 40
1.0
  9
$DIMASZ
 40
2.5
  9
$DIMEXO
 40
0.625
  9
$DIMDLI
 40
3.75
  9
$DIMRND
 40
0.0
  9
$DIMDLE
 40
0.0
  9
$DIMEXE
 40
1.25
  9
$DIMTP
 40
0.0
  9
$DIMTM
 40
0.0
  9
$DIMTXT
 40
2.5
  9
$DIMCEN
 40
2.5
  9
$DIMTSZ
 40
0.0
  9
$DIMTOL
 70
     0
  9
$DIMLIM
 70
     0
  9
$DIMTIH
 70
     0
  9
$DIMTOH
 70
     0
  9
$DIMSE1
 70
     0
  9
$DIMSE2
 70
     0
  9
$DIMTAD
 70
     1
  9
$DIMZIN
 70
     8
  9
$DIMBLK
  1

  9
$DIMASO
 70
     1
  9
$DIMSHO
 70
     1
  9
$DIMPOST
  1

  9
$DIMAPOST
  1

  9
$DIMALT
 70
     0
  9
$DIMALTD
 70
     3
  9
$DIMALTF
 40
0.03937007874016
  9
$DIMLFAC
 40
1.0
  9
$DIMTOFL
 70
     1
  9
$DIMTVP
 40
0.0
  9
$DIMTIX
 70
     0
  9
$DIMSOXD
 70
     0
  9
$DIMSAH
 70
     0
  9
$DIMBLK1
  1

  9
$DIMBLK2
  1

  9
$DIMSTYLE
  2
ISO-25
  9
$DIMCLRD
 70
     0
  9
$DIMCLRE
 70
     0
  9
$DIMCLRT
 70
     0
  9
$DIMTFAC
 40
1.0
  9
$DIMGAP
 40
0.625
  9
$DIMJUST
 70
     0
  9
$DIMSD1
 70
     0
  9
$DIMSD2
 70
     0
  9
$DIMTOLJ
 70
     1
  9
$DIMTZIN
 70
     0
  9
$DIMALTZ
 70
     0
  9
$DIMALTTZ
 70
     0
  9
$DIMUPT
 70
     0
  9
$DIMDEC
 70
     4
  9
$DIMTDEC
 70
     4
  9
$DIMALTU
 70
     2
  9
$DIMALTTD
 70
     2
  9
$DIMTXSTY
  7
STANDARD
  9
$DIMAUNIT
 70
     0
  9
$DIMADEC
 70
     0
  9
$DIMALTRND
 40
0.0
  9
$DIMAZIN
 70
     0
  9
$DIMDSEP
 70
    46
  9
$DIMATFIT
 70
     3
  9
$DIMFRAC
 70
     0
  9
$DIMLDRBLK
  1

  9
$DIMLUNIT
 70
     2
  9
$DIMLWD
 70
    -2
  9
$DIMLWE
 70
    -2
  9
$DIMTMOVE
 70
     0
  9
$LUNITS
 70
     2
  9
$LUPREC
 70
     4
  9
$SKETCHINC
 40
1.0
  9
$FILLETRAD
 40
0.0
  9
$AUNITS
 70
     0
  9
$AUPREC
 70
     0
  9
$MENU
  1
.
  9
$ELEVATION
 40
0.0
  9
$PELEVATION
 40
0.0
  9
$THICKNESS
 40
0.0
  9
$LIMCHECK
 70
     0
  9
$CHAMFERA
 40
0.0
  9
$CHAMFERB
 40
0.0
  9
$CHAMFERC
 40
0.0
  9
$CHAMFERD
 40
0.0
  9
$SKPOLY
 70
     0
  9
$TDCREATE
 40
2456997.676706910
  9
$TDUCREATE
 40
2456997.343373576
  9
$TDUPDATE
 40
2456997.680113438
  9
$TDUUPDATE
 40
2456997.346780104
  9
$TDINDWG
 40
0.0010312963
  9
$TDUSRTIMER
 40
0.0010311806
  9
$USRTIMER
 70
     1
  9
$ANGBASE
 50
0.0
  9
$ANGDIR
 70
     0
  9
$PDMODE
 70
     0
  9
$PDSIZE
 40
0.0
  9
$PLINEWID
 40
0.0
  9
$SPLFRAME
 70
     0
  9
$SPLINETYPE
 70
     6
  9
$SPLINESEGS
 70
     8
  9
$HANDSEED
  5
2481
  9
$SURFTAB1
 70
     6
  9
$SURFTAB2
 70
     6
  9
$SURFTYPE
 70
     6
  9
$SURFU
 70
     6
  9
$SURFV
 70
     6
  9
$UCSBASE
  2

  9
$UCSNAME
  2

  9
$UCSORG
 10
0.0
 20
0.0
 30
0.0
  9
$UCSXDIR
 10
1.0
 20
0.0
 30
0.0
  9
$UCSYDIR
 10
0.0
 20
1.0
 30
0.0
  9
$UCSORTHOREF
  2

  9
$UCSORTHOVIEW
 70
     0
  9
$UCSORGTOP
 10
0.0
 20
0.0
 30
0.0
  9
$UCSORGBOTTOM
 10
0.0
 20
0.0
 30
0.0
  9
$UCSORGLEFT
 10
0.0
 20
0.0
 30
0.0
  9
$UCSORGRIGHT
 10
0.0
 20
0.0
 30
0.0
  9
$UCSORGFRONT
 10
0.0
 20
0.0
 30
0.0
  9
$UCSORGBACK
 10
0.0
 20
0.0
 30
0.0
  9
$PUCSBASE
  2

  9
$PUCSNAME
  2

  9
$PUCSORG
 10
0.0
 20
0.0
 30
0.0
  9
$PUCSXDIR
 10
1.0
 20
0.0
 30
0.0
  9
$PUCSYDIR
 10
0.0
 20
1.0
 30
0.0
  9
$PUCSORTHOREF
  2

  9
$PUCSORTHOVIEW
 70
     0
  9
$PUCSORGTOP
 10
0.0
 20
0.0
 30
0.0
  9
$PUCSORGBOTTOM
 10
0.0
 20
0.0
 30
0.0
  9
$PUCSORGLEFT
 10
0.0
 20
0.0
 30
0.0
  9
$PUCSORGRIGHT
 10
0.0
 20
0.0
 30
0.0
  9
$PUCSORGFRONT
 10
0.0
 20
0.0
 30
0.0
  9
$PUCSORGBACK
 10
0.0
 20
0.0
 30
0.0
  9
$USERI1
 70
     0
  9
$USERI2
 70
     0
  9
$USERI3
 70
     0
  9
$USERI4
 70
     0
  9
$USERI5
 70
     0
  9
$USERR1
 40
0.0
  9
$USERR2
 40
0.0
  9
$USERR3
 40
0.0
  9
$USERR4
 40
0.0
  9
$USERR5
 40
0.0
  9
$WORLDVIEW
 70
     1
  9
$SHADEDGE
 70
     3
  9
$SHADEDIF
 70
    70
  9
$TILEMODE
 70
     1
  9
$MAXACTVP
 70
    64
  9
$PINSBASE
 10
0.0
 20
0.0
 30
0.0
  9
$PLIMCHECK
 70
     0
  9
$PEXTMIN
 10
0.0
 20
0.0
 30
0.0
  9
$PEXTMAX
 10
0.0
 20
0.0
 30
0.0
  9
$PLIMMIN
 10
0.0
 20
0.0
  9
$PLIMMAX
 10
12.0
 20
9.0
  9
$UNITMODE
 70
     0
  9
$VISRETAIN
 70
     1
  9
$PLINEGEN
 70
     0
  9
$PSLTSCALE
 70
     1
  9
$TREEDEPTH
 70
  3020
  9
$CMLSTYLE
  2
Standard
  9
$CMLJUST
 70
     0
  9
$CMLSCALE
 40
1.0
  9
$PROXYGRAPHICS
 70
     1
  9
$MEASUREMENT
 70
     1
  9
$CELWEIGHT
370
    -1
  9
$ENDCAPS
280
     0
  9
$JOINSTYLE
280
     0
  9
$LWDISPLAY
290
     0
  9
$INSUNITS
 70
     0
  9
$HYPERLINKBASE
  1

  9
$STYLESHEET
  1

  9
$XEDIT
290
     1
  9
$CEPSNTYPE
380
     0
  9
$PSTYLEMODE
290
     1
  9
$FINGERPRINTGUID
  2
{1F2D6530-6BF2-4D5E-922F-A9C54F637010}
  9
$VERSIONGUID
  2
{15AD9CB5-51D1-451C-B472-5DB36EFAD6AD}
  9
$EXTNAMES
290
     1
  9
$PSVPSCALE
 40
0.0
  9
$OLESTARTUP
290
     0
  9
$SORTENTS
280
   127
  9
$INDEXCTL
280
     0
  9
$HIDETEXT
280
     0
  9
$XCLIPFRAME
290
     0
  9
$HALOGAP
280
     0
  9
$OBSCOLOR
 70
   257
  9
$OBSLTYPE
280
     0
  9
$INTERSECTIONDISPLAY
280
     0
  9
$INTERSECTIONCOLOR
 70
   257
  9
$DIMASSOC
280
     1
  9
$PROJECTNAME
  1

  0
ENDSEC
  0
SECTION
  2
CLASSES
  0
CLASS
  1
ACDBDICTIONARYWDFLT
  2
AcDbDictionaryWithDefault
  3
ObjectDBX Classes
 90
        0
 91
        1
280
     0
281
     0
  0
CLASS
  1
TABLESTYLE
  2
AcDbTableStyle
  3
ObjectDBX Classes
 90
     2047
 91
        1
280
     0
281
     0
  0
CLASS
  1
DICTIONARYVAR
  2
AcDbDictionaryVar
  3
ObjectDBX Classes
 90
        0
 91
        1
280
     0
281
     0
  0
ENDSEC
  0
SECTION
  2
TABLES
  0
TABLE
  2
VPORT
  5
10D
330
0
100
AcDbSymbolTable
 70
     2
  0
VPORT
  5
137
330
10D
100
AcDbSymbolTableRecord
100
AcDbViewportTableRecord
  2
*Active
 70
     0
 10
0.0
 20
0.0
 11
1.0
 21
1.0
 12
4199.8957846487
 22
7168.10595806325
 13
0.0
 23
0.0
 14
10.0
 24
10.0
 15
10.0
 25
10.0
 16
0.0
 26
0.0
 36
1.0
 17
0.0
 27
0.0
 37
0.0
 40
551.708552688342
 41
2.435135135135135
 42
50.0
 43
0.0
 44
0.0
 50
0.0
 51
0.0
 71
     0
 72
  1000
 73
     1
 74
     3
 75
     0
 76
     0
 77
     0
 78
     0
281
     0
 65
     1
110
0.0
120
0.0
130
0.0
111
1.0
121
0.0
131
0.0
112
0.0
122
1.0
132
0.0
 79
     0
146
0.0
  0
ENDTAB
  0
TABLE
  2
LTYPE
  5
10A
330
0
100
AcDbSymbolTable
 70
     1
  0
LTYPE
  5
118
330
10A
100
AcDbSymbolTableRecord
100
AcDbLinetypeTableRecord
  2
ByBlock
 70
     0
  3

 72
    65
 73
     0
 40
0.0
  0
LTYPE
  5
119
330
10A
100
AcDbSymbolTableRecord
100
AcDbLinetypeTableRecord
  2
ByLayer
 70
     0
  3

 72
    65
 73
     0
 40
0.0
  0
LTYPE
  5
11A
330
10A
100
AcDbSymbolTableRecord
100
AcDbLinetypeTableRecord
  2
CONTINUOUS
 70
     0
  3
Solid line
 72
    65
 73
     0
 40
0.0
  0
ENDTAB
  0
TABLE
  2
LAYER
  5
107
330
0
100
AcDbSymbolTable
 70
     1
  0
LAYER
  5
115
330
107
100
AcDbSymbolTableRecord
100
AcDbLayerTableRecord
  2
0
 70
     0
 62
     7
  6
CONTINUOUS
370
    -3
390
114
  0
ENDTAB
  0
TABLE
  2
STYLE
  5
108
330
0
100
AcDbSymbolTable
 70
     1
  0
STYLE
  5
116
330
108
100
AcDbSymbolTableRecord
100
AcDbTextStyleTableRecord
  2
STANDARD
 70
     0
 40
0.0
 41
1.0
 50
0.0
 71
     0
 42
2.5
  3
txt
  4
gbcbig.shx
  0
ENDTAB
  0
TABLE
  2
VIEW
  5
10B
330
0
100
AcDbSymbolTable
 70
     0
  0
ENDTAB
  0
TABLE
  2
UCS
  5
10C
330
0
100
AcDbSymbolTable
 70
     0
  0
ENDTAB
  0
TABLE
  2
APPID
  5
10E
330
0
100
AcDbSymbolTable
 70
     2
  0
APPID
  5
117
330
10E
100
AcDbSymbolTableRecord
100
AcDbRegAppTableRecord
  2
ACAD
 70
     0
  0
APPID
  5
12C
330
10E
100
AcDbSymbolTableRecord
100
AcDbRegAppTableRecord
  2
ACAD_PSEXT
 70
     0
  0
APPID
  5
112C
330
10E
100
AcDbSymbolTableRecord
100
AcDbRegAppTableRecord
  2
FS_CYPCUT
 70
     0
  0
ENDTAB
  0
TABLE
  2
DIMSTYLE
  5
10F
330
0
100
AcDbSymbolTable
 70
     1
100
AcDbDimStyleTable
 71
     0
  0
DIMSTYLE
105
12D
330
10F
100
AcDbSymbolTableRecord
100
AcDbDimStyleTableRecord
  2
ISO-25
 70
     0
 41
2.5
 42
0.625
 43
3.75
 44
1.25
 73
     0
 74
     0
 77
     1
 78
     8
140
2.5
141
2.5
143
0.03937007874016
147
0.625
171
     3
172
     1
274
     3
279
     2
284
     8
285
     8
286
     8
340
116
  0
ENDTAB
  0
TABLE
  2
BLOCK_RECORD
  5
106
330
0
100
AcDbSymbolTable
 70
     2
  0
BLOCK_RECORD
  5
127
330
106
100
AcDbSymbolTableRecord
100
AcDbBlockTableRecord
  2
*Model_Space
340
12A
  0
BLOCK_RECORD
  5
123
330
106
100
AcDbSymbolTableRecord
100
AcDbBlockTableRecord
  2
*Paper_Space
340
126
  0
BLOCK_RECORD
  5
130
330
106
100
AcDbSymbolTableRecord
100
AcDbBlockTableRecord
  2
$MODEL_SPACE
340
0
  0
BLOCK_RECORD
  5
132
330
106
100
AcDbSymbolTableRecord
100
AcDbBlockTableRecord
  2
$PAPER_SPACE
340
0
       0
BLOCK_RECORD
       5
2000
     330
106
     100
AcDbSymbolTableRecord
     100
AcDbBlockTableRecord
       2
Part2063473636
       0
BLOCK_RECORD
       5
2001
     330
106
     100
AcDbSymbolTableRecord
     100
AcDbBlockTableRecord
       2
Part1728670729
       0
BLOCK_RECORD
       5
2002
     330
106
     100
AcDbSymbolTableRecord
     100
AcDbBlockTableRecord
       2
Part1958960892
       0
BLOCK_RECORD
       5
2003
     330
106
     100
AcDbSymbolTableRecord
     100
AcDbBlockTableRecord
       2
Part286499834
       0
BLOCK_RECORD
       5
2004
     330
106
     100
AcDbSymbolTableRecord
     100
AcDbBlockTableRecord
       2
CommonPart1464698562
       0
BLOCK_RECORD
       5
2005
     330
106
     100
AcDbSymbolTableRecord
     100
AcDbBlockTableRecord
       2
Part2021974395
       0
BLOCK_RECORD
       5
2006
     330
106
     100
AcDbSymbolTableRecord
     100
AcDbBlockTableRecord
       2
Part1253857131
       0
BLOCK_RECORD
       5
2007
     330
106
     100
AcDbSymbolTableRecord
     100
AcDbBlockTableRecord
       2
Part1689472752
       0
BLOCK_RECORD
       5
2008
     330
106
     100
AcDbSymbolTableRecord
     100
AcDbBlockTableRecord
       2
CommonPart2020974176
       0
BLOCK_RECORD
       5
2009
     330
106
     100
AcDbSymbolTableRecord
     100
AcDbBlockTableRecord
       2
CommonPart
       0
BLOCK_RECORD
       5
200A
     330
106
     100
AcDbSymbolTableRecord
     100
AcDbBlockTableRecord
       2
CommonPart1040846272
       0
BLOCK_RECORD
       5
200B
     330
106
     100
AcDbSymbolTableRecord
     100
AcDbBlockTableRecord
       2
CommonPart2081959374
       0
BLOCK_RECORD
       5
200C
     330
106
     100
AcDbSymbolTableRecord
     100
AcDbBlockTableRecord
       2
Part1874923703
       0
BLOCK_RECORD
       5
200D
     330
106
     100
AcDbSymbolTableRecord
     100
AcDbBlockTableRecord
       2
Part255083570
       0
BLOCK_RECORD
       5
200E
     330
106
     100
AcDbSymbolTableRecord
     100
AcDbBlockTableRecord
       2
Part367017883
       0
BLOCK_RECORD
       5
200F
     330
106
     100
AcDbSymbolTableRecord
     100
AcDbBlockTableRecord
       2
Part841328414
       0
BLOCK_RECORD
       5
2010
     330
106
     100
AcDbSymbolTableRecord
     100
AcDbBlockTableRecord
       2
Part19149720
  0
ENDTAB
  0
ENDSEC
  0
SECTION
  2
BLOCKS
  0
BLOCK
  5
128
330
127
100
AcDbEntity
  8
0
100
AcDbBlockBegin
  2
*Model_Space
 70
     0
 10
0.0
 20
0.0
 30
0.0
  3
*Model_Space
  1

  0
ENDBLK
  5
129
330
127
100
AcDbEntity
  8
0
100
AcDbBlockEnd
  0
BLOCK
  5
124
330
123
100
AcDbEntity
 67
     1
  8
0
100
AcDbBlockBegin
  2
*Paper_Space
 70
     0
 10
0.0
 20
0.0
 30
0.0
  3
*Paper_Space
  1

  0
ENDBLK
  5
125
330
123
100
AcDbEntity
 67
     1
  8
0
100
AcDbBlockEnd
  0
BLOCK
  5
131
330
130
100
AcDbEntity
  8
0
100
AcDbBlockBegin
  2
$MODEL_SPACE
 70
     0
 10
0.0
 20
0.0
 30
0.0
  3
$MODEL_SPACE
  1

  0
ENDBLK
  5
21
330
130
100
AcDbEntity
  8
0
100
AcDbBlockEnd
  0
BLOCK
  5
133
330
132
100
AcDbEntity
  8
0
100
AcDbBlockBegin
  2
$PAPER_SPACE
 70
     0
 10
0.0
 20
0.0
 30
0.0
  3
$PAPER_SPACE
  1

  0
ENDBLK
  5
D5
330
132
100
AcDbEntity
  8
0
100
AcDbBlockEnd
       0
BLOCK
       5
2011
     330
2000
     100
AcDbEntity
       8
0
     100
AcDbBlockBegin
       2
Part2063473636
      70
0
      10
-300
      20
-1.95399252E-14
      30
0
       3
Part2063473636
       1

       4
CypCutBlock
       0
LWPOLYLINE
       5
2012
     100
AcDbEntity
       8
1
     100
AcDbPolyline
      90
4
      70
1
      10
-243
      20
50
      42
0
      10
-243
      20
30
      42
-1
      10
-257
      20
30
      42
0
      10
-257
      20
50
      42
-1
    1001
FS_CYPCUT
    1000
Channel
    1070
1
    1000
LeadIn
    1002
{
    1070
3
    1040
0.5
    1040
1.5707963267949
    1040
1
    1040
0.5
    1070
0
    1040
0.5
    1070
0
    1002
}
    1000
LeadOut
    1002
{
    1070
0
    1040
0
    1040
0
    1040
0
    1070
0
    1002
}
    1000
IsFill
    1070
0
    1000
PathStart
    1040
0.5
    1000
ToolCompensation
    1002
{
    1070
0
    1040
0
    1070
0
    1002
}
       0
LWPOLYLINE
       5
2013
     100
AcDbEntity
       8
1
     100
AcDbPolyline
      90
4
      70
1
      10
-143
      20
50
      42
1
      10
-157
      20
50
      42
0
      10
-157
      20
30
      42
1
      10
-143
      20
30
      42
0
    1001
FS_CYPCUT
    1000
Channel
    1070
1
    1000
LeadIn
    1002
{
    1070
3
    1040
1.5
    1040
1.5707963267949
    1040
1
    1040
0.5
    1070
0
    1040
0.5
    1070
0
    1002
}
    1000
LeadOut
    1002
{
    1070
0
    1040
0
    1040
0
    1040
0
    1070
0
    1002
}
    1000
IsFill
    1070
0
    1000
PathStart
    1040
1.5
    1000
ToolCompensation
    1002
{
    1070
0
    1040
0
    1070
0
    1002
}
       0
LWPOLYLINE
       5
2014
     100
AcDbEntity
       8
1
     100
AcDbPolyline
      90
4
      70
1
      10
-43
      20
50
      42
1
      10
-57
      20
50
      42
0
      10
-57
      20
30
      42
1
      10
-43
      20
30
      42
0
    1001
FS_CYPCUT
    1000
Channel
    1070
1
    1000
LeadIn
    1002
{
    1070
3
    1040
1.5
    1040
1.5707963267949
    1040
1
    1040
0.5
    1070
0
    1040
0.5
    1070
0
    1002
}
    1000
LeadOut
    1002
{
    1070
0
    1040
0
    1040
0
    1040
0
    1070
0
    1002
}
    1000
IsFill
    1070
0
    1000
PathStart
    1040
1.5
    1000
ToolCompensation
    1002
{
    1070
0
    1040
0
    1070
0
    1002
}
       0
LWPOLYLINE
       5
2015
     100
AcDbEntity
       8
1
     100
AcDbPolyline
      90
4
      70
1
      10
-43
      20
122.4
      42
0
      10
-43
      20
102.4
      42
-1
      10
-57
      20
102.4
      42
0
      10
-57
      20
122.4
      42
-1
    1001
FS_CYPCUT
    1000
Channel
    1070
1
    1000
LeadIn
    1002
{
    1070
3
    1040
0.5
    1040
1.5707963267949
    1040
1
    1040
0.5
    1070
0
    1040
0.5
    1070
0
    1002
}
    1000
LeadOut
    1002
{
    1070
0
    1040
0
    1040
0
    1040
0
    1070
0
    1002
}
    1000
IsFill
    1070
0
    1000
PathStart
    1040
0.5
    1000
ToolCompensation
    1002
{
    1070
0
    1040
0
    1070
0
    1002
}
       0
LWPOLYLINE
       5
2016
     100
AcDbEntity
       8
1
     100
AcDbPolyline
      90
4
      70
1
      10
-143
      20
122.4
      42
1
      10
-157
      20
122.4
      42
0
      10
-157
      20
102.4
      42
1
      10
-143
      20
102.4
      42
0
    1001
FS_CYPCUT
    1000
Channel
    1070
1
    1000
LeadIn
    1002
{
    1070
3
    1040
1.5
    1040
1.5707963267949
    1040
1
    1040
0.5
    1070
0
    1040
0.5
    1070
0
    1002
}
    1000
LeadOut
    1002
{
    1070
0
    1040
0
    1040
0
    1040
0
    1070
0
    1002
}
    1000
IsFill
    1070
0
    1000
PathStart
    1040
1.5
    1000
ToolCompensation
    1002
{
    1070
0
    1040
0
    1070
0
    1002
}
       0
LWPOLYLINE
       5
2017
     100
AcDbEntity
       8
1
     100
AcDbPolyline
      90
4
      70
1
      10
-243
      20
122.4
      42
0
      10
-243
      20
102.4
      42
-1
      10
-257
      20
102.4
      42
0
      10
-257
      20
122.4
      42
-1
    1001
FS_CYPCUT
    1000
Channel
    1070
1
    1000
LeadIn
    1002
{
    1070
3
    1040
0.5
    1040
1.5707963267949
    1040
1
    1040
0.5
    1070
0
    1040
0.5
    1070
0
    1002
}
    1000
LeadOut
    1002
{
    1070
0
    1040
0
    1040
0
    1040
0
    1070
0
    1002
}
    1000
IsFill
    1070
0
    1000
PathStart
    1040
0.5
    1000
ToolCompensation
    1002
{
    1070
0
    1040
0
    1070
0
    1002
}
       0
LWPOLYLINE
       5
2018
     100
AcDbEntity
       8
1
     100
AcDbPolyline
      90
8
      70
1
      10
-54.7352395455778
      20
203.674297185769
      42
-0.414213562373096
      10
-62.8468352990307
      20
192.089737878978
      42
0
      10
-104.602833576531
      20
184.727028776178
      42
-0.414213562373097
      10
-116.1873928833
      20
192.8386245296
      42
0
      10
-130.0792470967
      20
271.6232447706
      42
-0.41421356237309
      10
-121.967651343169
      20
283.207804077422
      42
0
      10
-80.2116530656693
      20
290.570513180122
      42
-0.414213562373095
      10
-68.6270937588778
      20
282.458917426669
      42
0
    1001
FS_CYPCUT
    1000
Channel
    1070
1
    1000
LeadIn
    1002
{
    1070
3
    1040
3.5
    1040
1.5707963267949
    1040
1
    1040
0.5
    1070
0
    1040
0.5
    1070
0
    1002
}
    1000
LeadOut
    1002
{
    1070
0
    1040
0
    1040
0
    1040
0
    1070
0
    1002
}
    1000
IsFill
    1070
0
    1000
PathStart
    1040
3.5
    1000
ToolCompensation
    1002
{
    1070
0
    1040
0
    1070
0
    1002
}
       0
LWPOLYLINE
       5
2019
     100
AcDbEntity
       8
1
     100
AcDbPolyline
      90
12
      70
1
      10
2.95052871024382E-12
      20
151.5251133647
      42
0.0436609429085159
      10
-0.1519224699
      20
153.2615951414
      42
0
      10
-32.9931537567
      20
339.5134730723
      42
0.414213562373097
      10
-44.5777130634693
      20
347.625068825822
      42
0
      10
-180.638520889269
      20
323.633877389122
      42
0.203259850678687
      10
-187.1882788781
      20
319.3838558206
      42
0
      10
-298.286239765451
      20
154.936707082121
      42
0.149639940650718
      10
-300
      20
149.3386511205
      42
0
      10
-300
      20
10
      42
0.414213562373098
      10
-290
      20
0
      42
0
      10
-10
      20
-1.95399252334028E-14
      42
0.414213562373095
      10
1.95399252334028E-14
      20
10
      42
0
    1001
FS_CYPCUT
    1000
Channel
    1070
1
    1000
LeadIn
    1002
{
    1070
3
    1040
9.5
    1040
1.5707963267949
    1040
1
    1040
0.5
    1070
0
    1040
0.5
    1070
0
    1002
}
    1000
LeadOut
    1002
{
    1070
0
    1040
0
    1040
0
    1040
0
    1070
0
    1002
}
    1000
IsFill
    1070
1
    1000
PathStart
    1040
9.5
    1000
ToolCompensation
    1002
{
    1070
0
    1040
0
    1070
0
    1002
}
    1000
MicroConnect
    1002
{
    1070
3
    1040
1.43528094
    1041
0.8
    1042
0
    1040
5.45737582
    1041
0.8
    1042
0
    1040
9.40810771
    1041
0.8
    1042
0
    1002
}
       0
ENDBLK
       5
201A
     330
2000
     100
AcDbEntity
       8
0
     100
AcDbBlockEnd
       0
BLOCK
       5
201B
     330
2001
     100
AcDbEntity
       8
0
     100
AcDbBlockBegin
       2
Part1728670729
      70
0
      10
-240
      20
-300
      30
0
       3
Part1728670729
       1

       4
CypCutBlock
       0
CIRCLE
       5
201C
     100
AcDbEntity
       8
1
     100
AcDbCircle
      10
-18
      20
-275
      30
0
      40
8.00000000000002
    1001
FS_CYPCUT
    1000
Channel
    1070
1
    1000
LeadIn
    1002
{
    1070
3
    1040
0
    1040
1.5707963267949
    1040
1
    1040
0.5
    1070
0
    1040
0.5
    1070
0
    1002
}
    1000
LeadOut
    1002
{
    1070
0
    1040
0
    1040
0
    1040
0
    1070
0
    1002
}
    1000
IsFill
    1070
0
    1000
PathStart
    1040
1
    1000
ToolCompensation
    1002
{
    1070
0
    1040
0
    1070
0
    1002
}
       0
CIRCLE
       5
201D
     100
AcDbEntity
       8
1
     100
AcDbCircle
      10
-18
      20
-195
      30
0
      40
7.99999999999999
    1001
FS_CYPCUT
    1000
Channel
    1070
1
    1000
LeadIn
    1002
{
    1070
3
    1040
0
    1040
1.5707963267949
    1040
1
    1040
0.5
    1070
0
    1040
0.5
    1070
0
    1002
}
    1000
LeadOut
    1002
{
    1070
0
    1040
0
    1040
0
    1040
0
    1070
0
    1002
}
    1000
IsFill
    1070
0
    1000
PathStart
    1040
1
    1000
ToolCompensation
    1002
{
    1070
0
    1040
0
    1070
0
    1002
}
       0
CIRCLE
       5
201E
     100
AcDbEntity
       8
1
     100
AcDbCircle
      10
-18
      20
-115
      30
0
      40
7.99999999999998
    1001
FS_CYPCUT
    1000
Channel
    1070
1
    1000
LeadIn
    1002
{
    1070
3
    1040
5.55111512312578E-17
    1040
1.5707963267949
    1040
1
    1040
0.5
    1070
0
    1040
0.5
    1070
0
    1002
}
    1000
LeadOut
    1002
{
    1070
0
    1040
0
    1040
0
    1040
0
    1070
0
    1002
}
    1000
IsFill
    1070
0
    1000
PathStart
    1040
5.55111512312578E-17
    1000
ToolCompensation
    1002
{
    1070
0
    1040
0
    1070
0
    1002
}
       0
LWPOLYLINE
       5
201F
     100
AcDbEntity
       8
1
     100
AcDbPolyline
      90
6
      70
1
      10
-100
      20
-86
      42
0.414213562373096
      10
-106
      20
-80
      42
0
      10
-145.0161925324
      20
-80
      42
0.574128399170503
      10
-150.241138387
      20
-88.9495662082
      42
0
      10
-111.2249458546
      20
-158.0639644085
      42
0.7711786610068
      10
-100
      20
-155.1143982003
      42
0
    1001
FS_CYPCUT
    1000
Channel
    1070
1
    1000
LeadIn
    1002
{
    1070
3
    1040
3.5
    1040
1.5707963267949
    1040
1
    1040
0.5
    1070
0
    1040
0.5
    1070
0
    1002
}
    1000
LeadOut
    1002
{
    1070
0
    1040
0
    1040
0
    1040
0
    1070
0
    1002
}
    1000
IsFill
    1070
0
    1000
PathStart
    1040
3.5
    1000
ToolCompensation
    1002
{
    1070
0
    1040
0
    1070
0
    1002
}
       0
CIRCLE
       5
2020
     100
AcDbEntity
       8
1
     100
AcDbCircle
      10
-215
      20
-31
      30
0
      40
8
    1001
FS_CYPCUT
    1000
Channel
    1070
1
    1000
LeadIn
    1002
{
    1070
3
    1040
1.66533453693773E-16
    1040
1.5707963267949
    1040
1
    1040
0.5
    1070
0
    1040
0.5
    1070
0
    1002
}
    1000
LeadOut
    1002
{
    1070
0
    1040
0
    1040
0
    1040
0
    1070
0
    1002
}
    1000
IsFill
    1070
0
    1000
PathStart
    1040
1.66533453693773E-16
    1000
ToolCompensation
    1002
{
    1070
0
    1040
0
    1070
0
    1002
}
       0
CIRCLE
       5
2021
     100
AcDbEntity
       8
1
     100
AcDbCircle
      10
-116.5
      20
-31
      30
0
      40
7.99999999999999
    1001
FS_CYPCUT
    1000
Channel
    1070
1
    1000
LeadIn
    1002
{
    1070
3
    1040
0
    1040
1.5707963267949
    1040
1
    1040
0.5
    1070
0
    1040
0.5
    1070
0
    1002
}
    1000
LeadOut
    1002
{
    1070
0
    1040
0
    1040
0
    1040
0
    1070
0
    1002
}
    1000
IsFill
    1070
0
    1000
PathStart
    1040
0
    1000
ToolCompensation
    1002
{
    1070
0
    1040
0
    1070
0
    1002
}
       0
CIRCLE
       5
2022
     100
AcDbEntity
       8
1
     100
AcDbCircle
      10
-18
      20
-31
      30
0
      40
8
    1001
FS_CYPCUT
    1000
Channel
    1070
1
    1000
LeadIn
    1002
{
    1070
3
    1040
0
    1040
1.5707963267949
    1040
1
    1040
0.5
    1070
0
    1040
0.5
    1070
0
    1002
}
    1000
LeadOut
    1002
{
    1070
0
    1040
0
    1040
0
    1040
0
    1070
0
    1002
}
    1000
IsFill
    1070
0
    1000
PathStart
    1040
1
    1000
ToolCompensation
    1002
{
    1070
0
    1040
0
    1070
0
    1002
}
       0
LWPOLYLINE
       5
2023
     100
AcDbEntity
       8
1
     100
AcDbPolyline
      90
18
      70
1
      10
0
      20
-10
      42
0
      10
0
      20
-48.5
      42
-0.414213562373095
      10
-10
      20
-58.5
      42
0
      10
-46
      20
-58.5
      42
0.414213562373094
      10
-50
      20
-62.5
      42
0
      10
-50
      20
-79.5
      42
0.414213562373095
      10
-46
      20
-83.5
      42
0
      10
-10
      20
-83.5
      42
-0.414213562373097
      10
0
      20
-93.5
      42
0
      10
7.46069872548105E-14
      20
-296
      42
-0.414213562373098
      10
-4
      20
-300
      42
0
      10
-82.4853661071
      20
-300
      42
-0.270544385740014
      10
-108.610095379996
      20
-284.747831041136
      42
0
      10
-236.1247292729
      20
-58.864765288
      42
-0.129191562675633
      10
-240
      20
-44.1169342469
      42
0
      10
-240
      20
-4
      42
-0.4142135623731
      10
-236
      20
0
      42
0
      10
-10
      20
0
      42
-0.414213562373095
    1001
FS_CYPCUT
    1000
Channel
    1070
1
    1000
LeadIn
    1002
{
    1070
3
    1040
12.5
    1040
1.5707963267949
    1040
1
    1040
0.5
    1070
0
    1040
0.5
    1070
0
    1002
}
    1000
LeadOut
    1002
{
    1070
0
    1040
0
    1040
0
    1040
0
    1070
0
    1002
}
    1000
IsFill
    1070
1
    1000
PathStart
    1040
12.5
    1000
ToolCompensation
    1002
{
    1070
0
    1040
0
    1070
0
    1002
}
    1000
MicroConnect
    1002
{
    1070
3
    1040
8.03209877
    1041
0.8
    1042
0
    1040
12.0467572
    1041
0.8
    1042
0
    1040
16.1776387
    1041
0.8
    1042
0
    1002
}
       0
ENDBLK
       5
2024
     330
2001
     100
AcDbEntity
       8
0
     100
AcDbBlockEnd
       0
BLOCK
       5
2025
     330
2002
     100
AcDbEntity
       8
0
     100
AcDbBlockBegin
       2
Part1958960892
      70
0
      10
-91.5
      20
-107.5
      30
0
       3
Part1958960892
       1

       4
CypCutBlock
       0
CIRCLE
       5
2026
     100
AcDbEntity
       8
1
     100
AcDbCircle
      10
-50
      20
-19
      30
0
      40
7
    1001
FS_CYPCUT
    1000
Channel
    1070
1
    1000
LeadIn
    1002
{
    1070
3
    1040
2.77555756156289E-17
    1040
1.5707963267949
    1040
1
    1040
0.5
    1070
0
    1040
0.5
    1070
0
    1002
}
    1000
LeadOut
    1002
{
    1070
0
    1040
0
    1040
0
    1040
0
    1070
0
    1002
}
    1000
IsFill
    1070
0
    1000
PathStart
    1040
2.77555756156289E-17
    1000
ToolCompensation
    1002
{
    1070
0
    1040
0
    1070
0
    1002
}
       0
LWPOLYLINE
       5
2027
     100
AcDbEntity
       8
1
     100
AcDbPolyline
      90
3
      70
1
      10
-25.85
      20
-34.9
      42
0
      10
-35.85
      20
-39.9
      42
0
      10
-35.85
      20
-29.9
      42
0
    1001
FS_CYPCUT
    1000
Channel
    1070
1
    1000
LeadIn
    1002
{
    1070
3
    1040
0.5
    1040
1.5707963267949
    1040
1
    1040
0.5
    1070
0
    1040
0.5
    1070
0
    1002
}
    1000
LeadOut
    1002
{
    1070
0
    1040
0
    1040
0
    1040
0
    1070
0
    1002
}
    1000
IsFill
    1070
0
    1000
PathStart
    1040
0.5
    1000
ToolCompensation
    1002
{
    1070
0
    1040
0
    1070
0
    1002
}
       0
LWPOLYLINE
       5
2028
     100
AcDbEntity
       8
1
     100
AcDbPolyline
      90
3
      70
1
      10
-7.85
      20
-29.9
      42
0
      10
-17.85
      20
-34.9
      42
0
      10
-7.85
      20
-39.9
      42
0
    1001
FS_CYPCUT
    1000
Channel
    1070
1
    1000
LeadIn
    1002
{
    1070
3
    1040
0.5
    1040
1.5707963267949
    1040
1
    1040
0.5
    1070
0
    1040
0.5
    1070
0
    1002
}
    1000
LeadOut
    1002
{
    1070
0
    1040
0
    1040
0
    1040
0
    1070
0
    1002
}
    1000
IsFill
    1070
0
    1000
PathStart
    1040
0.5
    1000
ToolCompensation
    1002
{
    1070
0
    1040
0
    1070
0
    1002
}
       0
CIRCLE
       5
2029
     100
AcDbEntity
       8
1
     100
AcDbCircle
      10
50
      20
-19
      30
0
      40
7.00000000000001
    1001
FS_CYPCUT
    1000
Channel
    1070
1
    1000
LeadIn
    1002
{
    1070
3
    1040
0
    1040
1.5707963267949
    1040
1
    1040
0.5
    1070
0
    1040
0.5
    1070
0
    1002
}
    1000
LeadOut
    1002
{
    1070
0
    1040
0
    1040
0
    1040
0
    1070
0
    1002
}
    1000
IsFill
    1070
0
    1000
PathStart
    1040
0
    1000
ToolCompensation
    1002
{
    1070
0
    1040
0
    1070
0
    1002
}
       0
CIRCLE
       5
202A
     100
AcDbEntity
       8
1
     100
AcDbCircle
      10
50
      20
61
      30
0
      40
7.00000000000002
    1001
FS_CYPCUT
    1000
Channel
    1070
1
    1000
LeadIn
    1002
{
    1070
3
    1040
0
    1040
1.5707963267949
    1040
1
    1040
0.5
    1070
0
    1040
0.5
    1070
0
    1002
}
    1000
LeadOut
    1002
{
    1070
0
    1040
0
    1040
0
    1040
0
    1070
0
    1002
}
    1000
IsFill
    1070
0
    1000
PathStart
    1040
1
    1000
ToolCompensation
    1002
{
    1070
0
    1040
0
    1070
0
    1002
}
       0
LWPOLYLINE
       5
202B
     100
AcDbEntity
       8
1
     100
AcDbPolyline
      90
3
      70
1
      10
-7.85
      20
82.5
      42
0
      10
-7.85
      20
72.5
      42
0
      10
-17.85
      20
77.5
      42
0
    1001
FS_CYPCUT
    1000
Channel
    1070
1
    1000
LeadIn
    1002
{
    1070
3
    1040
1.5
    1040
1.5707963267949
    1040
1
    1040
0.5
    1070
0
    1040
0.5
    1070
0
    1002
}
    1000
LeadOut
    1002
{
    1070
0
    1040
0
    1040
0
    1040
0
    1070
0
    1002
}
    1000
IsFill
    1070
0
    1000
PathStart
    1040
1.5
    1000
ToolCompensation
    1002
{
    1070
0
    1040
0
    1070
0
    1002
}
       0
LWPOLYLINE
       5
202C
     100
AcDbEntity
       8
1
     100
AcDbPolyline
      90
3
      70
1
      10
-25.85
      20
77.5
      42
0
      10
-35.85
      20
82.5
      42
0
      10
-35.85
      20
72.5
      42
0
    1001
FS_CYPCUT
    1000
Channel
    1070
1
    1000
LeadIn
    1002
{
    1070
3
    1040
0.5
    1040
1.5707963267949
    1040
1
    1040
0.5
    1070
0
    1040
0.5
    1070
0
    1002
}
    1000
LeadOut
    1002
{
    1070
0
    1040
0
    1040
0
    1040
0
    1070
0
    1002
}
    1000
IsFill
    1070
0
    1000
PathStart
    1040
0.5
    1000
ToolCompensation
    1002
{
    1070
0
    1040
0
    1070
0
    1002
}
       0
CIRCLE
       5
202D
     100
AcDbEntity
       8
1
     100
AcDbCircle
      10
-50
      20
61
      30
0
      40
7
    1001
FS_CYPCUT
    1000
Channel
    1070
1
    1000
LeadIn
    1002
{
    1070
3
    1040
0
    1040
1.5707963267949
    1040
1
    1040
0.5
    1070
0
    1040
0.5
    1070
0
    1002
}
    1000
LeadOut
    1002
{
    1070
0
    1040
0
    1040
0
    1040
0
    1070
0
    1002
}
    1000
IsFill
    1070
0
    1000
PathStart
    1040
0
    1000
ToolCompensation
    1002
{
    1070
0
    1040
0
    1070
0
    1002
}
       0
LWPOLYLINE
       5
202E
     100
AcDbEntity
       8
1
     100
AcDbPolyline
      90
24
      70
1
      10
91.5
      20
-59.8589838486
      42
0.131652497587398
      10
88.8205080757
      20
-49.8589838486
      42
0
      10
79.1794919243
      20
-33.1602540378
      42
-0.131652497587395
      10
76.4999999999996
      20
-23.1602540378
      42
0
      10
76.5
      20
101.5
      42
0.414213562373094
      10
70.5
      20
107.5
      42
0
      10
-70.5
      20
107.5
      42
0.414213562373094
      10
-76.5
      20
101.5
      42
0
      10
-76.5000000000002
      20
-23.1602540378
      42
-0.131652497587397
      10
-79.1794919243
      20
-33.1602540378
      42
0
      10
-88.8205080757
      20
-49.8589838486
      42
0.131652497587395
      10
-91.5000000000001
      20
-59.8589838486
      42
0
      10
-91.5
      20
-101.5
      42
0.414213562373096
      10
-85.5
      20
-107.5
      42
0
      10
-59.2933312156
      20
-107.5
      42
0.506547960186621
      10
-57.3854528127536
      20
-104.899999999997
      42
-1.36277028773795
      10
-40.2145471872341
      20
-104.900000000001
      42
0.506547960186626
      10
-38.3066687844
      20
-107.5
      42
0
      10
38.3066687844
      20
-107.5
      42
0.506547960186626
      10
40.2145471872464
      20
-104.899999999997
      42
-1.36277028773794
      10
57.3854528127659
      20
-104.900000000001
      42
0.506547960186616
      10
59.2933312156
      20
-107.5
      42
0
      10
85.5
      20
-107.5
      42
0.414213562373094
      10
91.5
      20
-101.5
      42
0
    1001
FS_CYPCUT
    1000
Channel
    1070
1
    1000
LeadIn
    1002
{
    1070
3
    1040
5.5
    1040
1.5707963267949
    1040
1
    1040
0.5
    1070
0
    1040
0.5
    1070
0
    1002
}
    1000
LeadOut
    1002
{
    1070
0
    1040
0
    1040
0
    1040
0
    1070
0
    1002
}
    1000
IsFill
    1070
1
    1000
PathStart
    1040
5.5
    1000
ToolCompensation
    1002
{
    1070
0
    1040
0
    1070
0
    1002
}
    1000
MicroConnect
    1002
{
    1070
3
    1040
5.6276884
    1041
0.8
    1042
0
    1040
9.29594307
    1041
0.8
    1042
0
    1040
23.5779167
    1041
0.8
    1042
0
    1002
}
       0
ENDBLK
       5
202F
     330
2002
     100
AcDbEntity
       8
0
     100
AcDbBlockEnd
       0
BLOCK
       5
2030
     330
2003
     100
AcDbEntity
       8
0
     100
AcDbBlockBegin
       2
Part286499834
      70
0
      10
-25
      20
-76.9
      30
0
       3
Part286499834
       1

       4
CypCutBlock
       0
CIRCLE
       5
2031
     100
AcDbEntity
       8
1
     100
AcDbCircle
      10
-1.2
      20
8.7
      30
0
      40
4.1
    1001
FS_CYPCUT
    1000
Channel
    1070
1
    1000
LeadIn
    1002
{
    1070
3
    1040
0
    1040
1.5707963267949
    1040
1
    1040
0.5
    1070
0
    1040
0.5
    1070
0
    1002
}
    1000
LeadOut
    1002
{
    1070
0
    1040
0
    1040
0
    1040
0
    1070
0
    1002
}
    1000
IsFill
    1070
0
    1000
PathStart
    1040
0
    1000
ToolCompensation
    1002
{
    1070
0
    1040
0
    1070
0
    1002
}
       0
LWPOLYLINE
       5
2032
     100
AcDbEntity
       8
1
     100
AcDbPolyline
      90
27
      70
1
      10
25.0000000000001
      20
57.7578643763
      42
0.198912367379659
      10
22.0710678118655
      20
64.8289321881655
      42
0
      10
12.9289321881654
      20
73.9710678118654
      42
0.198912367379658
      10
5.8578643763
      20
76.8999999999999
      42
0
      10
-22.5
      20
76.9
      42
0
      10
-25
      20
74.4
      42
0
      10
-25
      20
70
      42
0
      10
-22.5
      20
67.5
      42
0
      10
-1
      20
67.5
      42
-1
      10
-1
      20
51.5
      42
0
      10
-22.5
      20
51.5
      42
0
      10
-25
      20
49
      42
0
      10
-25
      20
44.6
      42
0
      10
-22.5
      20
42.1
      42
0
      10
-1
      20
42.1
      42
-1
      10
-1
      20
26.1
      42
0
      10
-22.5
      20
26.1
      42
0
      10
-25
      20
23.6
      42
0
      10
-25
      20
-57.7578643763
      42
0.198912367379658
      10
-22.0710678119
      20
-64.8289321881
      42
0
      10
-10
      20
-76.9
      42
0
      10
0
      20
-76.9
      42
0
      10
0
      20
-14.9
      42
-0.414213562373094
      10
3
      20
-11.9
      42
0
      10
10
      20
-11.9
      42
0
      10
22.0710678118654
      20
0.171067811834549
      42
0.198912367379658
      10
25
      20
7.2421356237
      42
0
    1001
FS_CYPCUT
    1000
Channel
    1070
1
    1000
LeadIn
    1002
{
    1070
3
    1040
17.5
    1040
1.5707963267949
    1040
1
    1040
0.5
    1070
0
    1040
0.5
    1070
0
    1002
}
    1000
LeadOut
    1002
{
    1070
0
    1040
0
    1040
0
    1040
0
    1070
0
    1002
}
    1000
IsFill
    1070
1
    1000
PathStart
    1040
17.5
    1000
ToolCompensation
    1002
{
    1070
0
    1040
0
    1070
0
    1002
}
    1000
MicroConnect
    1002
{
    1070
2
    1040
17.691213
    1041
0.8
    1042
0
    1040
26.6611025
    1041
0.8
    1042
0
    1002
}
       0
ENDBLK
       5
2033
     330
2003
     100
AcDbEntity
       8
0
     100
AcDbBlockEnd
       0
BLOCK
       5
2034
     330
2004
     100
AcDbEntity
       8
0
     100
AcDbBlockBegin
       2
CommonPart1464698562
      70
0
      10
14.7373
      20
614.582139
      30
0
       3
CommonPart1464698562
       1

       4
CypCutBlock
       0
LWPOLYLINE
       5
2035
     100
AcDbEntity
       8
1
     100
AcDbPolyline
      90
23
      70
0
      10
356.689286606445
      20
774.5584
      42
0.414213562373095
      10
376.689286606445
      20
794.5584
      42
0
      10
376.689286606445
      20
874.5584
      42
0.414213562373097
      10
356.689286606445
      20
894.5584
      42
0
      10
124.866868102145
      20
894.5584
      42
-0.137427507034785
      10
114.476485864545
      20
897.4692233973
      42
0
      10
55.9084467127404
      20
933.079149366428
      42
0.414213562373094
      10
42.1686672926453
      20
929.7297521839
      42
0
      10
16.1927116986454
      20
887.0068106772
      42
0.414213562373094
      10
19.5421088812453
      20
873.2670312571
      42
0
      10
181.889286606445
      20
774.5584
      42
0
      10
253.689286606445
      20
774.5584
      42
0.414213562373093
      10
256.689286606445
      20
777.5584
      42
0
      10
256.689286606445
      20
841.5584
      42
-0.414213562373089
      10
259.689286606445
      20
844.5584
      42
0
      10
284.089286606445
      20
844.5584
      42
0
      10
284.089286606445
      20
851.0584
      42
0
      10
299.289286606445
      20
851.0584
      42
0
      10
299.289286606445
      20
844.5584
      42
0
      10
323.689286606445
      20
844.5584
      42
-0.414213562373095
      10
326.689286606445
      20
841.5584
      42
0
      10
326.689286606445
      20
777.5584
      42
0.414213562373091
      10
329.689286606445
      20
774.5584
      42
0
    1001
FS_CYPCUT
    1000
Channel
    1070
1
    1000
LeadIn
    1002
{
    1070
0
    1040
0.00318309886183791
    1040
1.5707963267949
    1040
1
    1040
0.5
    1070
0
    1040
0.5
    1070
0
    1002
}
    1000
LeadOut
    1002
{
    1070
0
    1040
0
    1040
0
    1040
0
    1070
0
    1002
}
    1000
IsFill
    1070
1
    1000
PathStart
    1040
0
    1000
ToolCompensation
    1002
{
    1070
0
    1040
0
    1070
0
    1002
}
    1000
MicroConnect
    1002
{
    1070
1
    1040
0
    1041
0.1
    1042
0
    1002
}
       0
LWPOLYLINE
       5
2036
     100
AcDbEntity
       8
1
     100
AcDbPolyline
      90
23
      70
1
      10
356.689313393555
      20
774.5583
      42
-0.414213562373091
      10
359.689313393555
      20
771.5583
      42
0
      10
359.689313393555
      20
707.5583
      42
0.414213562373095
      10
362.689313393555
      20
704.5583
      42
0
      10
387.089313393555
      20
704.5583
      42
0
      10
387.089313393555
      20
698.0583
      42
0
      10
402.289313393555
      20
698.0583
      42
0
      10
402.289313393555
      20
704.5583
      42
0
      10
426.689313393555
      20
704.5583
      42
0.414213562373089
      10
429.689313393555
      20
707.5583
      42
0
      10
429.689313393555
      20
771.5583
      42
-0.414213562373093
      10
432.689313393555
      20
774.5583
      42
0
      10
504.489313393555
      20
774.5583
      42
0
      10
666.836491118755
      20
675.8496687429
      42
-0.414213562373094
      10
670.185888301355
      20
662.1098893228
      42
0
      10
644.209932707355
      20
619.3869478161
      42
-0.414213562373094
      10
630.47015328726
      20
616.037550633572
      42
0
      10
571.902114135455
      20
651.6474766027
      42
0.137427507034785
      10
561.511731897855
      20
654.5583
      42
0
      10
329.689313393555
      20
654.5583
      42
-0.414213562373097
      10
309.689313393555
      20
674.5583
      42
0
      10
309.689313393555
      20
754.5583
      42
-0.414213562373095
      10
329.689313393555
      20
774.5583
      42
0
    1001
FS_CYPCUT
    1000
Channel
    1070
1
    1000
LeadIn
    1002
{
    1070
0
    1040
21.9999995736699
    1040
1.5707963267949
    1040
1
    1040
0.5
    1070
0
    1040
0.5
    1070
0
    1002
}
    1000
LeadOut
    1002
{
    1070
0
    1040
0
    1040
0
    1040
0
    1070
0
    1002
}
    1000
IsFill
    1070
1
    1000
PathStart
    1040
21.9999995736699
    1000
ToolCompensation
    1002
{
    1070
0
    1040
0
    1070
0
    1002
}
       0
ENDBLK
       5
2037
     330
2004
     100
AcDbEntity
       8
0
     100
AcDbBlockEnd
       0
BLOCK
       5
2038
     330
2005
     100
AcDbEntity
       8
0
     100
AcDbBlockBegin
       2
Part2021974395
      70
0
      10
-300
      20
-1.95399252E-14
      30
0
       3
Part2021974395
       1

       4
CypCutBlock
       0
LWPOLYLINE
       5
2039
     100
AcDbEntity
       8
1
     100
AcDbPolyline
      90
4
      70
1
      10
-243
      20
50
      42
0
      10
-243
      20
30
      42
-1
      10
-257
      20
30
      42
0
      10
-257
      20
50
      42
-1
    1001
FS_CYPCUT
    1000
Channel
    1070
1
    1000
LeadIn
    1002
{
    1070
3
    1040
0.5
    1040
1.5707963267949
    1040
1
    1040
0.5
    1070
0
    1040
0.5
    1070
0
    1002
}
    1000
LeadOut
    1002
{
    1070
0
    1040
0
    1040
0
    1040
0
    1070
0
    1002
}
    1000
IsFill
    1070
0
    1000
PathStart
    1040
0.5
    1000
ToolCompensation
    1002
{
    1070
0
    1040
0
    1070
0
    1002
}
       0
LWPOLYLINE
       5
203A
     100
AcDbEntity
       8
1
     100
AcDbPolyline
      90
4
      70
1
      10
-143
      20
50
      42
1
      10
-157
      20
50
      42
0
      10
-157
      20
30
      42
1
      10
-143
      20
30
      42
0
    1001
FS_CYPCUT
    1000
Channel
    1070
1
    1000
LeadIn
    1002
{
    1070
3
    1040
1.5
    1040
1.5707963267949
    1040
1
    1040
0.5
    1070
0
    1040
0.5
    1070
0
    1002
}
    1000
LeadOut
    1002
{
    1070
0
    1040
0
    1040
0
    1040
0
    1070
0
    1002
}
    1000
IsFill
    1070
0
    1000
PathStart
    1040
1.5
    1000
ToolCompensation
    1002
{
    1070
0
    1040
0
    1070
0
    1002
}
       0
LWPOLYLINE
       5
203B
     100
AcDbEntity
       8
1
     100
AcDbPolyline
      90
4
      70
1
      10
-43
      20
50
      42
1
      10
-57
      20
50
      42
0
      10
-57
      20
30
      42
1
      10
-43
      20
30
      42
0
    1001
FS_CYPCUT
    1000
Channel
    1070
1
    1000
LeadIn
    1002
{
    1070
3
    1040
1.5
    1040
1.5707963267949
    1040
1
    1040
0.5
    1070
0
    1040
0.5
    1070
0
    1002
}
    1000
LeadOut
    1002
{
    1070
0
    1040
0
    1040
0
    1040
0
    1070
0
    1002
}
    1000
IsFill
    1070
0
    1000
PathStart
    1040
1.5
    1000
ToolCompensation
    1002
{
    1070
0
    1040
0
    1070
0
    1002
}
       0
LWPOLYLINE
       5
203C
     100
AcDbEntity
       8
1
     100
AcDbPolyline
      90
4
      70
1
      10
-43
      20
122.4
      42
0
      10
-43
      20
102.4
      42
-1
      10
-57
      20
102.4
      42
0
      10
-57
      20
122.4
      42
-1
    1001
FS_CYPCUT
    1000
Channel
    1070
1
    1000
LeadIn
    1002
{
    1070
3
    1040
0.5
    1040
1.5707963267949
    1040
1
    1040
0.5
    1070
0
    1040
0.5
    1070
0
    1002
}
    1000
LeadOut
    1002
{
    1070
0
    1040
0
    1040
0
    1040
0
    1070
0
    1002
}
    1000
IsFill
    1070
0
    1000
PathStart
    1040
0.5
    1000
ToolCompensation
    1002
{
    1070
0
    1040
0
    1070
0
    1002
}
       0
LWPOLYLINE
       5
203D
     100
AcDbEntity
       8
1
     100
AcDbPolyline
      90
4
      70
1
      10
-143
      20
122.4
      42
1
      10
-157
      20
122.4
      42
0
      10
-157
      20
102.4
      42
1
      10
-143
      20
102.4
      42
0
    1001
FS_CYPCUT
    1000
Channel
    1070
1
    1000
LeadIn
    1002
{
    1070
3
    1040
1.5
    1040
1.5707963267949
    1040
1
    1040
0.5
    1070
0
    1040
0.5
    1070
0
    1002
}
    1000
LeadOut
    1002
{
    1070
0
    1040
0
    1040
0
    1040
0
    1070
0
    1002
}
    1000
IsFill
    1070
0
    1000
PathStart
    1040
1.5
    1000
ToolCompensation
    1002
{
    1070
0
    1040
0
    1070
0
    1002
}
       0
LWPOLYLINE
       5
203E
     100
AcDbEntity
       8
1
     100
AcDbPolyline
      90
4
      70
1
      10
-243
      20
122.4
      42
0
      10
-243
      20
102.4
      42
-1
      10
-257
      20
102.4
      42
0
      10
-257
      20
122.4
      42
-1
    1001
FS_CYPCUT
    1000
Channel
    1070
1
    1000
LeadIn
    1002
{
    1070
3
    1040
0.5
    1040
1.5707963267949
    1040
1
    1040
0.5
    1070
0
    1040
0.5
    1070
0
    1002
}
    1000
LeadOut
    1002
{
    1070
0
    1040
0
    1040
0
    1040
0
    1070
0
    1002
}
    1000
IsFill
    1070
0
    1000
PathStart
    1040
0.5
    1000
ToolCompensation
    1002
{
    1070
0
    1040
0
    1070
0
    1002
}
       0
LWPOLYLINE
       5
203F
     100
AcDbEntity
       8
1
     100
AcDbPolyline
      90
8
      70
1
      10
-54.7352395455778
      20
203.674297185769
      42
-0.414213562373096
      10
-62.8468352990307
      20
192.089737878978
      42
0
      10
-104.602833576531
      20
184.727028776178
      42
-0.414213562373097
      10
-116.1873928833
      20
192.8386245296
      42
0
      10
-130.0792470967
      20
271.6232447706
      42
-0.41421356237309
      10
-121.967651343169
      20
283.207804077422
      42
0
      10
-80.2116530656693
      20
290.570513180122
      42
-0.414213562373095
      10
-68.6270937588778
      20
282.458917426669
      42
0
    1001
FS_CYPCUT
    1000
Channel
    1070
1
    1000
LeadIn
    1002
{
    1070
3
    1040
3.5
    1040
1.5707963267949
    1040
1
    1040
0.5
    1070
0
    1040
0.5
    1070
0
    1002
}
    1000
LeadOut
    1002
{
    1070
0
    1040
0
    1040
0
    1040
0
    1070
0
    1002
}
    1000
IsFill
    1070
0
    1000
PathStart
    1040
3.5
    1000
ToolCompensation
    1002
{
    1070
0
    1040
0
    1070
0
    1002
}
       0
LWPOLYLINE
       5
2040
     100
AcDbEntity
       8
1
     100
AcDbPolyline
      90
12
      70
1
      10
2.95052871024382E-12
      20
151.5251133647
      42
0.0436609429085159
      10
-0.1519224699
      20
153.2615951414
      42
0
      10
-32.9931537567
      20
339.5134730723
      42
0.414213562373097
      10
-44.5777130634693
      20
347.625068825822
      42
0
      10
-180.638520889269
      20
323.633877389122
      42
0.203259850678687
      10
-187.1882788781
      20
319.3838558206
      42
0
      10
-298.286239765451
      20
154.936707082121
      42
0.149639940650718
      10
-300
      20
149.3386511205
      42
0
      10
-300
      20
10
      42
0.414213562373098
      10
-290
      20
0
      42
0
      10
-10
      20
-1.95399252334028E-14
      42
0.414213562373095
      10
1.95399252334028E-14
      20
10
      42
0
    1001
FS_CYPCUT
    1000
Channel
    1070
1
    1000
LeadIn
    1002
{
    1070
3
    1040
9.5
    1040
1.5707963267949
    1040
1
    1040
0.5
    1070
0
    1040
0.5
    1070
0
    1002
}
    1000
LeadOut
    1002
{
    1070
0
    1040
0
    1040
0
    1040
0
    1070
0
    1002
}
    1000
IsFill
    1070
1
    1000
PathStart
    1040
9.5
    1000
ToolCompensation
    1002
{
    1070
0
    1040
0
    1070
0
    1002
}
    1000
MicroConnect
    1002
{
    1070
3
    1040
1.43528094
    1041
0.8
    1042
0
    1040
5.45737582
    1041
0.8
    1042
0
    1040
9.40810771
    1041
0.8
    1042
0
    1002
}
       0
ENDBLK
       5
2041
     330
2005
     100
AcDbEntity
       8
0
     100
AcDbBlockEnd
       0
BLOCK
       5
2042
     330
2006
     100
AcDbEntity
       8
0
     100
AcDbBlockBegin
       2
Part1253857131
      70
0
      10
0
      20
-175
      30
0
       3
Part1253857131
       1

       4
CypCutBlock
       0
LWPOLYLINE
       5
2043
     100
AcDbEntity
       8
1
     100
AcDbPolyline
      90
4
      70
1
      10
36.5
      20
-128
      42
1
      10
18.5
      20
-128
      42
0
      10
18.5
      20
-148
      42
1
      10
36.5
      20
-148
      42
0
    1001
FS_CYPCUT
    1000
Channel
    1070
1
    1000
LeadIn
    1002
{
    1070
3
    1040
1.5
    1040
1.5707963267949
    1040
1
    1040
0.5
    1070
0
    1040
0.5
    1070
0
    1002
}
    1000
LeadOut
    1002
{
    1070
0
    1040
0
    1040
0
    1040
0
    1070
0
    1002
}
    1000
IsFill
    1070
0
    1000
PathStart
    1040
1.5
    1000
ToolCompensation
    1002
{
    1070
0
    1040
0
    1070
0
    1002
}
       0
LWPOLYLINE
       5
2044
     100
AcDbEntity
       8
1
     100
AcDbPolyline
      90
4
      70
1
      10
36.5
      20
-36
      42
0
      10
36.5
      20
-56
      42
-1
      10
18.5
      20
-56
      42
0
      10
18.5
      20
-36
      42
-1
    1001
FS_CYPCUT
    1000
Channel
    1070
1
    1000
LeadIn
    1002
{
    1070
3
    1040
0.5
    1040
1.5707963267949
    1040
1
    1040
0.5
    1070
0
    1040
0.5
    1070
0
    1002
}
    1000
LeadOut
    1002
{
    1070
0
    1040
0
    1040
0
    1040
0
    1070
0
    1002
}
    1000
IsFill
    1070
0
    1000
PathStart
    1040
0.5
    1000
ToolCompensation
    1002
{
    1070
0
    1040
0
    1070
0
    1002
}
       0
LWPOLYLINE
       5
2045
     100
AcDbEntity
       8
1
     100
AcDbPolyline
      90
4
      70
1
      10
36.5
      20
56
      42
0
      10
36.5
      20
36
      42
-1
      10
18.5
      20
36
      42
0
      10
18.5
      20
56
      42
-1
    1001
FS_CYPCUT
    1000
Channel
    1070
1
    1000
LeadIn
    1002
{
    1070
3
    1040
0.5
    1040
1.5707963267949
    1040
1
    1040
0.5
    1070
0
    1040
0.5
    1070
0
    1002
}
    1000
LeadOut
    1002
{
    1070
0
    1040
0
    1040
0
    1040
0
    1070
0
    1002
}
    1000
IsFill
    1070
0
    1000
PathStart
    1040
0.5
    1000
ToolCompensation
    1002
{
    1070
0
    1040
0
    1070
0
    1002
}
       0
LWPOLYLINE
       5
2046
     100
AcDbEntity
       8
1
     100
AcDbPolyline
      90
8
      70
1
      10
203.2528636749
      20
-78.0929496501
      42
0
      10
153.587312895354
      20
31.5467076203911
      42
0.668178637919297
      10
135.1195626902
      20
30.9437494145
      42
0
      10
118.975540281519
      20
-11.9385376102058
      42
0.19891236737966
      10
119.225293747946
      20
-19.5881302116912
      42
0
      10
155.521712219546
      20
-99.7146327653911
      42
0.414213562373097
      10
168.7569859926
      20
-104.6973557311
      42
0
      10
198.2701407093
      20
-91.3282234231
      42
0.414213562373094
    1001
FS_CYPCUT
    1000
Channel
    1070
1
    1000
LeadIn
    1002
{
    1070
3
    1040
0.5
    1040
1.5707963267949
    1040
1
    1040
0.5
    1070
0
    1040
0.5
    1070
0
    1002
}
    1000
LeadOut
    1002
{
    1070
0
    1040
0
    1040
0
    1040
0
    1070
0
    1002
}
    1000
IsFill
    1070
0
    1000
PathStart
    1040
0.5
    1000
ToolCompensation
    1002
{
    1070
0
    1040
0
    1070
0
    1002
}
       0
LWPOLYLINE
       5
2047
     100
AcDbEntity
       8
1
     100
AcDbPolyline
      90
4
      70
1
      10
36.5
      20
148
      42
1
      10
18.5
      20
148
      42
0
      10
18.5
      20
128
      42
1
      10
36.5
      20
128
      42
0
    1001
FS_CYPCUT
    1000
Channel
    1070
1
    1000
LeadIn
    1002
{
    1070
3
    1040
1.5
    1040
1.5707963267949
    1040
1
    1040
0.5
    1070
0
    1040
0.5
    1070
0
    1002
}
    1000
LeadOut
    1002
{
    1070
0
    1040
0
    1040
0
    1040
0
    1070
0
    1002
}
    1000
IsFill
    1070
0
    1000
PathStart
    1040
1.5
    1000
ToolCompensation
    1002
{
    1070
0
    1040
0
    1070
0
    1002
}
       0
LWPOLYLINE
       5
2048
     100
AcDbEntity
       8
1
     100
AcDbPolyline
      90
9
      70
1
      10
265.302957136508
      20
-93.8975661090177
      42
-0.414213562373095
      10
255.337511205182
      20
-120.368113655108
      42
0
      10
134.7343727949
      20
-175
      42
0
      10
20
      20
-174.999999999998
      42
-0.414213562373095
      10
1.96109795069788E-12
      20
-155
      42
0
      10
0
      20
155
      42
-0.414213562373094
      10
20
      20
175
      42
0
      10
137.0470708426
      20
175
      42
-0.294458249285383
      10
146.156069211954
      20
169.126275403691
      42
0
    1001
FS_CYPCUT
    1000
Channel
    1070
1
    1000
LeadIn
    1002
{
    1070
3
    1040
4.5
    1040
1.5707963267949
    1040
1
    1040
0.5
    1070
0
    1040
0.5
    1070
0
    1002
}
    1000
LeadOut
    1002
{
    1070
0
    1040
0
    1040
0
    1040
0
    1070
0
    1002
}
    1000
IsFill
    1070
1
    1000
PathStart
    1040
4.5
    1000
ToolCompensation
    1002
{
    1070
0
    1040
0
    1070
0
    1002
}
    1000
MicroConnect
    1002
{
    1070
3
    1040
2.52872941
    1041
0.8
    1042
0
    1040
4.92499344
    1041
0.8
    1042
0
    1040
8.48693108
    1041
0.8
    1042
0
    1002
}
       0
ENDBLK
       5
2049
     330
2006
     100
AcDbEntity
       8
0
     100
AcDbBlockEnd
       0
BLOCK
       5
204A
     330
2007
     100
AcDbEntity
       8
0
     100
AcDbBlockBegin
       2
Part1689472752
      70
0
      10
-103
      20
0
      30
0
       3
Part1689472752
       1

       4
CypCutBlock
       0
LINE
       5
204B
     100
AcDbEntity
       8
2
     100
AcDbLine
      10
-72.4210526316
      20
90
      30
0
      11
0
      21
90
      31
0
    1001
FS_CYPCUT
    1000
Channel
    1070
2
    1000
LeadIn
    1002
{
    1070
3
    1040
0
    1040
1.5707963267949
    1040
1
    1040
0.5
    1070
0
    1040
0.5
    1070
0
    1002
}
    1000
LeadOut
    1002
{
    1070
0
    1040
0
    1040
0
    1040
0
    1070
0
    1002
}
    1000
IsFill
    1070
0
    1000
PathStart
    1040
0
    1000
ToolCompensation
    1002
{
    1070
0
    1040
0
    1070
0
    1002
}
       0
LWPOLYLINE
       5
204C
     100
AcDbEntity
       8
1
     100
AcDbPolyline
      90
13
      70
1
      10
12
      20
44.3
      42
0.414213562373097
      10
10
      20
46.3
      42
0
      10
0
      20
46.3
      42
0
      10
0
      20
210
      42
0
      10
-13.4559006062
      20
210
      42
0.298123726191518
      10
-22.6196864146
      20
204.0031274847
      42
0
      10
-102.1637858083
      20
21.914225258
      42
0.103329942830067
      10
-103
      20
17.9110977733
      42
0
      10
-103
      20
0
      42
0
      10
0
      20
0
      42
0
      10
0
      20
31.3
      42
0
      10
10
      20
31.3
      42
0.414213562373097
      10
12
      20
33.3
      42
0
    1001
FS_CYPCUT
    1000
Channel
    1070
1
    1000
LeadIn
    1002
{
    1070
3
    1040
5.5
    1040
1.5707963267949
    1040
1
    1040
0.5
    1070
0
    1040
0.5
    1070
0
    1002
}
    1000
LeadOut
    1002
{
    1070
0
    1040
0
    1040
0
    1040
0
    1070
0
    1002
}
    1000
IsFill
    1070
1
    1000
PathStart
    1040
5.5
    1000
ToolCompensation
    1002
{
    1070
0
    1040
0
    1070
0
    1002
}
    1000
MicroConnect
    1002
{
    1070
2
    1040
2.44097621
    1041
0.8
    1042
0
    1040
5.86615365
    1041
0.8
    1042
0
    1002
}
       0
ENDBLK
       5
204D
     330
2007
     100
AcDbEntity
       8
0
     100
AcDbBlockEnd
       0
BLOCK
       5
204E
     330
2008
     100
AcDbEntity
       8
0
     100
AcDbBlockBegin
       2
CommonPart2020974176
      70
0
      10
544.5056
      20
354
      30
0
       3
CommonPart2020974176
       1

       4
CypCutBlock
       0
CIRCLE
       5
204F
     100
AcDbEntity
       8
1
     100
AcDbCircle
      10
612.7056
      20
377.8
      30
0
      40
4.09999999999997
    1001
FS_CYPCUT
    1000
Channel
    1070
1
    1000
LeadIn
    1002
{
    1070
3
    1040
0
    1040
1.5707963267949
    1040
1
    1040
0.5
    1070
0
    1040
0.5
    1070
0
    1002
}
    1000
LeadOut
    1002
{
    1070
0
    1040
0
    1040
0
    1040
0
    1070
0
    1002
}
    1000
IsFill
    1070
0
    1000
PathStart
    1040
0
    1000
ToolCompensation
    1002
{
    1070
0
    1040
0
    1070
0
    1002
}
       0
LWPOLYLINE
       5
2050
     100
AcDbEntity
       8
1
     100
AcDbPolyline
      90
27
      70
0
      10
636.3056
      20
379
      42
-0.414213562373094
      10
633.3056
      20
382
      42
0
      10
633.3056
      20
389
      42
0
      10
621.234532188166
      20
401.071067811865
      42
0.198912367379658
      10
614.1634643763
      20
404
      42
0
      10
563.6477356237
      20
404
      42
0.198912367379659
      10
556.576667811835
      20
401.071067811865
      42
0
      10
547.434532188135
      20
391.928932188165
      42
0.198912367379658
      10
544.5056
      20
384.8578643763
      42
0
      10
544.5056
      20
356.5
      42
0
      10
547.0056
      20
354
      42
0
      10
551.4056
      20
354
      42
0
      10
553.9056
      20
356.5
      42
0
      10
553.9056
      20
378
      42
-1
      10
569.9056
      20
378
      42
0
      10
569.9056
      20
356.5
      42
0
      10
572.4056
      20
354
      42
0
      10
576.8056
      20
354
      42
0
      10
579.3056
      20
356.5
      42
0
      10
579.3056
      20
378
      42
-1
      10
595.3056
      20
378
      42
0
      10
595.3056
      20
356.5
      42
0
      10
597.8056
      20
354
      42
0
      10
679.1634643763
      20
354
      42
0.198912367379658
      10
686.2345321881
      20
356.9289321881
      42
0
      10
698.3056
      20
369
      42
0
      10
698.3056
      20
379
      42
0
    1001
FS_CYPCUT
    1000
Channel
    1070
1
    1000
LeadIn
    1002
{
    1070
0
    1040
0.0212206590789194
    1040
1.5707963267949
    1040
1
    1040
0.5
    1070
0
    1040
0.5
    1070
0
    1002
}
    1000
LeadOut
    1002
{
    1070
0
    1040
0
    1040
0
    1040
0
    1070
0
    1002
}
    1000
IsFill
    1070
1
    1000
PathStart
    1040
0
    1000
ToolCompensation
    1002
{
    1070
0
    1040
0
    1070
0
    1002
}
    1000
MicroConnect
    1002
{
    1070
1
    1040
0
    1041
0.1
    1042
0
    1002
}
       0
CIRCLE
       5
2051
     100
AcDbEntity
       8
1
     100
AcDbCircle
      10
721.9056
      20
380.2001
      30
0
      40
4.09999999999997
    1001
FS_CYPCUT
    1000
Channel
    1070
1
    1000
LeadIn
    1002
{
    1070
3
    1040
0
    1040
1.5707963267949
    1040
1
    1040
0.5
    1070
0
    1040
0.5
    1070
0
    1002
}
    1000
LeadOut
    1002
{
    1070
0
    1040
0
    1040
0
    1040
0
    1070
0
    1002
}
    1000
IsFill
    1070
0
    1000
PathStart
    1040
0
    1000
ToolCompensation
    1002
{
    1070
0
    1040
0
    1070
0
    1002
}
       0
LWPOLYLINE
       5
2052
     100
AcDbEntity
       8
1
     100
AcDbPolyline
      90
27
      70
1
      10
698.3056
      20
379.0001
      42
0
      10
636.3056
      20
379.0001
      42
0
      10
636.3056
      20
389.0001
      42
0
      10
648.3766678119
      20
401.0711678119
      42
-0.198912367379658
      10
655.4477356237
      20
404.0001
      42
0
      10
736.8056
      20
404.0001
      42
0
      10
739.3056
      20
401.5001
      42
0
      10
739.3056
      20
380.0001
      42
1
      10
755.3056
      20
380.0001
      42
0
      10
755.3056
      20
401.5001
      42
0
      10
757.8056
      20
404.0001
      42
0
      10
762.2056
      20
404.0001
      42
0
      10
764.7056
      20
401.5001
      42
0
      10
764.7056
      20
380.0001
      42
1
      10
780.7056
      20
380.0001
      42
0
      10
780.7056
      20
401.5001
      42
0
      10
783.2056
      20
404.0001
      42
0
      10
787.6056
      20
404.0001
      42
0
      10
790.1056
      20
401.5001
      42
0
      10
790.1056
      20
373.1422356237
      42
-0.198912367379658
      10
787.176667811865
      20
366.071167811835
      42
0
      10
778.034532188165
      20
356.929032188134
      42
-0.198912367379659
      10
770.9634643763
      20
354.0001
      42
0
      10
720.4477356237
      20
354.0001
      42
-0.198912367379658
      10
713.376667811835
      20
356.929032188135
      42
0
      10
701.3056
      20
369.0001
      42
0
      10
701.3056
      20
376.0001
      42
0.414213562373094
    1001
FS_CYPCUT
    1000
Channel
    1070
1
    1000
LeadIn
    1002
{
    1070
0
    1040
0
    1040
0
    1040
0
    1040
0
    1070
0
    1040
0
    1070
0
    1002
}
    1000
LeadOut
    1002
{
    1070
0
    1040
0
    1040
0
    1040
0
    1070
0
    1002
}
    1000
IsFill
    1070
1
    1000
PathStart
    1040
0
    1000
ToolCompensation
    1002
{
    1070
0
    1040
0
    1070
0
    1002
}
       0
ENDBLK
       5
2053
     330
2008
     100
AcDbEntity
       8
0
     100
AcDbBlockEnd
       0
BLOCK
       5
2054
     330
2009
     100
AcDbEntity
       8
0
     100
AcDbBlockBegin
       2
CommonPart
      70
0
      10
303.9996
      20
290.5589
      30
0
       3
CommonPart
       1

       4
CypCutBlock
       0
CIRCLE
       5
2055
     100
AcDbEntity
       8
1
     100
AcDbCircle
      10
578.9996
      20
512.5589
      30
0
      40
8
    1001
FS_CYPCUT
    1000
Channel
    1070
1
    1000
LeadIn
    1002
{
    1070
3
    1040
0
    1040
1.5707963267949
    1040
1
    1040
0.5
    1070
0
    1040
0.5
    1070
0
    1002
}
    1000
LeadOut
    1002
{
    1070
0
    1040
0
    1040
0
    1040
0
    1070
0
    1002
}
    1000
IsFill
    1070
0
    1000
PathStart
    1040
0
    1000
ToolCompensation
    1002
{
    1070
0
    1040
0
    1070
0
    1002
}
       0
CIRCLE
       5
2056
     100
AcDbEntity
       8
1
     100
AcDbCircle
      10
498.9996
      20
512.5589
      30
0
      40
8
    1001
FS_CYPCUT
    1000
Channel
    1070
1
    1000
LeadIn
    1002
{
    1070
3
    1040
0
    1040
1.5707963267949
    1040
1
    1040
0.5
    1070
0
    1040
0.5
    1070
0
    1002
}
    1000
LeadOut
    1002
{
    1070
0
    1040
0
    1040
0
    1040
0
    1070
0
    1002
}
    1000
IsFill
    1070
0
    1000
PathStart
    1040
0
    1000
ToolCompensation
    1002
{
    1070
0
    1040
0
    1070
0
    1002
}
       0
CIRCLE
       5
2057
     100
AcDbEntity
       8
1
     100
AcDbCircle
      10
418.9996
      20
512.5589
      30
0
      40
8
    1001
FS_CYPCUT
    1000
Channel
    1070
1
    1000
LeadIn
    1002
{
    1070
3
    1040
5.55111512312578E-17
    1040
1.5707963267949
    1040
1
    1040
0.5
    1070
0
    1040
0.5
    1070
0
    1002
}
    1000
LeadOut
    1002
{
    1070
0
    1040
0
    1040
0
    1040
0
    1070
0
    1002
}
    1000
IsFill
    1070
0
    1000
PathStart
    1040
5.55111512312578E-17
    1000
ToolCompensation
    1002
{
    1070
0
    1040
0
    1070
0
    1002
}
       0
LWPOLYLINE
       5
2058
     100
AcDbEntity
       8
1
     100
AcDbPolyline
      90
6
      70
1
      10
389.9996
      20
430.5589
      42
0
      10
459.1139982003
      20
430.5589
      42
-0.7711786610068
      10
462.0635644085
      20
419.3339541454
      42
0
      10
392.9491662082
      20
380.317761613
      42
-0.574128399170503
      10
383.9996
      20
385.5427074676
      42
0
      10
383.9996
      20
424.5589
      42
-0.414213562373096
    1001
FS_CYPCUT
    1000
Channel
    1070
1
    1000
LeadIn
    1002
{
    1070
3
    1040
2.5
    1040
1.5707963267949
    1040
1
    1040
0.5
    1070
0
    1040
0.5
    1070
0
    1002
}
    1000
LeadOut
    1002
{
    1070
0
    1040
0
    1040
0
    1040
0
    1070
0
    1002
}
    1000
IsFill
    1070
0
    1000
PathStart
    1040
2.5
    1000
ToolCompensation
    1002
{
    1070
0
    1040
0
    1070
0
    1002
}
       0
CIRCLE
       5
2059
     100
AcDbEntity
       8
1
     100
AcDbCircle
      10
334.9996
      20
315.5589
      30
0
      40
8
    1001
FS_CYPCUT
    1000
Channel
    1070
1
    1000
LeadIn
    1002
{
    1070
3
    1040
1.66533453693773E-16
    1040
1.5707963267949
    1040
1
    1040
0.5
    1070
0
    1040
0.5
    1070
0
    1002
}
    1000
LeadOut
    1002
{
    1070
0
    1040
0
    1040
0
    1040
0
    1070
0
    1002
}
    1000
IsFill
    1070
0
    1000
PathStart
    1040
1.66533453693773E-16
    1000
ToolCompensation
    1002
{
    1070
0
    1040
0
    1070
0
    1002
}
       0
CIRCLE
       5
205A
     100
AcDbEntity
       8
1
     100
AcDbCircle
      10
334.9996
      20
414.0589
      30
0
      40
8
    1001
FS_CYPCUT
    1000
Channel
    1070
1
    1000
LeadIn
    1002
{
    1070
3
    1040
0
    1040
1.5707963267949
    1040
1
    1040
0.5
    1070
0
    1040
0.5
    1070
0
    1002
}
    1000
LeadOut
    1002
{
    1070
0
    1040
0
    1040
0
    1040
0
    1070
0
    1002
}
    1000
IsFill
    1070
0
    1000
PathStart
    1040
0
    1000
ToolCompensation
    1002
{
    1070
0
    1040
0
    1070
0
    1002
}
       0
CIRCLE
       5
205B
     100
AcDbEntity
       8
1
     100
AcDbCircle
      10
334.9996
      20
512.5589
      30
0
      40
8
    1001
FS_CYPCUT
    1000
Channel
    1070
1
    1000
LeadIn
    1002
{
    1070
3
    1040
0
    1040
1.5707963267949
    1040
1
    1040
0.5
    1070
0
    1040
0.5
    1070
0
    1002
}
    1000
LeadOut
    1002
{
    1070
0
    1040
0
    1040
0
    1040
0
    1070
0
    1002
}
    1000
IsFill
    1070
0
    1000
PathStart
    1040
0
    1000
ToolCompensation
    1002
{
    1070
0
    1040
0
    1070
0
    1002
}
       0
LWPOLYLINE
       5
205C
     100
AcDbEntity
       8
1
     100
AcDbPolyline
      90
18
      70
0
      10
603.9996
      20
526.5589
      42
0.414213562373098
      10
599.9996
      20
530.5589
      42
0
      10
397.4996
      20
530.5589
      42
0.414213562373097
      10
387.4996
      20
520.5589
      42
0
      10
387.4996
      20
484.5589
      42
-0.414213562373095
      10
383.4996
      20
480.5589
      42
0
      10
366.4996
      20
480.5589
      42
-0.414213562373094
      10
362.4996
      20
484.5589
      42
0
      10
362.4996
      20
520.5589
      42
0.414213562373095
      10
352.4996
      20
530.5589
      42
0
      10
313.9996
      20
530.5589
      42
0.414213562373095
      10
303.9996
      20
520.5589
      42
0
      10
303.9996
      20
294.5589
      42
0.4142135623731
      10
307.9996
      20
290.5589
      42
0
      10
348.1165342469
      20
290.5589
      42
0.129191562675633
      10
362.864365288
      20
294.4341707271
      42
0
      10
588.747431041136
      20
421.948804620004
      42
0.270544385740014
      10
603.9996
      20
448.0735338929
      42
0
    1001
FS_CYPCUT
    1000
Channel
    1070
1
    1000
LeadIn
    1002
{
    1070
0
    1040
0.0159154943091894
    1040
1.5707963267949
    1040
1
    1040
0.5
    1070
0
    1040
0.5
    1070
0
    1002
}
    1000
LeadOut
    1002
{
    1070
0
    1040
0
    1040
0
    1040
0
    1070
0
    1002
}
    1000
IsFill
    1070
1
    1000
PathStart
    1040
0
    1000
ToolCompensation
    1002
{
    1070
0
    1040
0
    1070
0
    1002
}
    1000
MicroConnect
    1002
{
    1070
1
    1040
0
    1041
0.1
    1042
0
    1002
}
       0
CIRCLE
       5
205D
     100
AcDbEntity
       8
1
     100
AcDbCircle
      10
628.9997
      20
462.0735
      30
0
      40
8
    1001
FS_CYPCUT
    1000
Channel
    1070
1
    1000
LeadIn
    1002
{
    1070
3
    1040
0
    1040
1.5707963267949
    1040
1
    1040
0.5
    1070
0
    1040
0.5
    1070
0
    1002
}
    1000
LeadOut
    1002
{
    1070
0
    1040
0
    1040
0
    1040
0
    1070
0
    1002
}
    1000
IsFill
    1070
0
    1000
PathStart
    1040
0
    1000
ToolCompensation
    1002
{
    1070
0
    1040
0
    1070
0
    1002
}
       0
CIRCLE
       5
205E
     100
AcDbEntity
       8
1
     100
AcDbCircle
      10
708.9997
      20
462.0735
      30
0
      40
8
    1001
FS_CYPCUT
    1000
Channel
    1070
1
    1000
LeadIn
    1002
{
    1070
3
    1040
0
    1040
1.5707963267949
    1040
1
    1040
0.5
    1070
0
    1040
0.5
    1070
0
    1002
}
    1000
LeadOut
    1002
{
    1070
0
    1040
0
    1040
0
    1040
0
    1070
0
    1002
}
    1000
IsFill
    1070
0
    1000
PathStart
    1040
0
    1000
ToolCompensation
    1002
{
    1070
0
    1040
0
    1070
0
    1002
}
       0
CIRCLE
       5
205F
     100
AcDbEntity
       8
1
     100
AcDbCircle
      10
788.9997
      20
462.0735
      30
0
      40
7.99999999999994
    1001
FS_CYPCUT
    1000
Channel
    1070
1
    1000
LeadIn
    1002
{
    1070
3
    1040
5.55111512312578E-17
    1040
1.5707963267949
    1040
1
    1040
0.5
    1070
0
    1040
0.5
    1070
0
    1002
}
    1000
LeadOut
    1002
{
    1070
0
    1040
0
    1040
0
    1040
0
    1070
0
    1002
}
    1000
IsFill
    1070
0
    1000
PathStart
    1040
5.55111512312578E-17
    1000
ToolCompensation
    1002
{
    1070
0
    1040
0
    1070
0
    1002
}
       0
LWPOLYLINE
       5
2060
     100
AcDbEntity
       8
1
     100
AcDbPolyline
      90
6
      70
1
      10
817.9997
      20
544.0735
      42
0
      10
748.8853017997
      20
544.0735
      42
-0.7711786610068
      10
745.9357355915
      20
555.2984458546
      42
0
      10
815.0501337918
      20
594.314638387
      42
-0.574128399170503
      10
823.9997
      20
589.0896925324
      42
0
      10
823.9997
      20
550.0735
      42
-0.414213562373096
    1001
FS_CYPCUT
    1000
Channel
    1070
1
    1000
LeadIn
    1002
{
    1070
3
    1040
2.5
    1040
1.5707963267949
    1040
1
    1040
0.5
    1070
0
    1040
0.5
    1070
0
    1002
}
    1000
LeadOut
    1002
{
    1070
0
    1040
0
    1040
0
    1040
0
    1070
0
    1002
}
    1000
IsFill
    1070
0
    1000
PathStart
    1040
2.5
    1000
ToolCompensation
    1002
{
    1070
0
    1040
0
    1070
0
    1002
}
       0
CIRCLE
       5
2061
     100
AcDbEntity
       8
1
     100
AcDbCircle
      10
872.9997
      20
659.0735
      30
0
      40
8
    1001
FS_CYPCUT
    1000
Channel
    1070
1
    1000
LeadIn
    1002
{
    1070
3
    1040
1.66533453693773E-16
    1040
1.5707963267949
    1040
1
    1040
0.5
    1070
0
    1040
0.5
    1070
0
    1002
}
    1000
LeadOut
    1002
{
    1070
0
    1040
0
    1040
0
    1040
0
    1070
0
    1002
}
    1000
IsFill
    1070
0
    1000
PathStart
    1040
1.66533453693773E-16
    1000
ToolCompensation
    1002
{
    1070
0
    1040
0
    1070
0
    1002
}
       0
CIRCLE
       5
2062
     100
AcDbEntity
       8
1
     100
AcDbCircle
      10
872.9997
      20
560.5735
      30
0
      40
8
    1001
FS_CYPCUT
    1000
Channel
    1070
1
    1000
LeadIn
    1002
{
    1070
3
    1040
0
    1040
1.5707963267949
    1040
1
    1040
0.5
    1070
0
    1040
0.5
    1070
0
    1002
}
    1000
LeadOut
    1002
{
    1070
0
    1040
0
    1040
0
    1040
0
    1070
0
    1002
}
    1000
IsFill
    1070
0
    1000
PathStart
    1040
0
    1000
ToolCompensation
    1002
{
    1070
0
    1040
0
    1070
0
    1002
}
       0
CIRCLE
       5
2063
     100
AcDbEntity
       8
1
     100
AcDbCircle
      10
872.9997
      20
462.0735
      30
0
      40
8
    1001
FS_CYPCUT
    1000
Channel
    1070
1
    1000
LeadIn
    1002
{
    1070
3
    1040
0
    1040
1.5707963267949
    1040
1
    1040
0.5
    1070
0
    1040
0.5
    1070
0
    1002
}
    1000
LeadOut
    1002
{
    1070
0
    1040
0
    1040
0
    1040
0
    1070
0
    1002
}
    1000
IsFill
    1070
0
    1000
PathStart
    1040
0
    1000
ToolCompensation
    1002
{
    1070
0
    1040
0
    1070
0
    1002
}
       0
LWPOLYLINE
       5
2064
     100
AcDbEntity
       8
1
     100
AcDbPolyline
      90
18
      70
1
      10
603.9997
      20
526.5588661071
      42
-0.270544385740014
      10
619.251868958864
      20
552.683595379996
      42
0
      10
845.134934712
      20
680.1982292729
      42
-0.129191562675633
      10
859.8827657531
      20
684.0735
      42
0
      10
899.9997
      20
684.0735
      42
-0.4142135623731
      10
903.9997
      20
680.0735
      42
0
      10
903.9997
      20
454.0735
      42
-0.414213562373095
      10
893.9997
      20
444.0735
      42
0
      10
855.4997
      20
444.0735
      42
-0.414213562373095
      10
845.4997
      20
454.0735
      42
0
      10
845.4997
      20
490.0735
      42
0.414213562373094
      10
841.4997
      20
494.0735
      42
0
      10
824.4997
      20
494.0735
      42
0.414213562373095
      10
820.4997
      20
490.0735
      42
0
      10
820.4997
      20
454.0735
      42
-0.414213562373097
      10
810.4997
      20
444.0735
      42
0
      10
607.9997
      20
444.0735
      42
-0.414213562373098
      10
603.9997
      20
448.0735
      42
0
    1001
FS_CYPCUT
    1000
Channel
    1070
1
    1000
LeadIn
    1002
{
    1070
0
    1040
17
    1040
1.5707963267949
    1040
1
    1040
0.5
    1070
0
    1040
0.5
    1070
0
    1002
}
    1000
LeadOut
    1002
{
    1070
0
    1040
0
    1040
0
    1040
0
    1070
0
    1002
}
    1000
IsFill
    1070
1
    1000
PathStart
    1040
17
    1000
ToolCompensation
    1002
{
    1070
0
    1040
0
    1070
0
    1002
}
       0
ENDBLK
       5
2065
     330
2009
     100
AcDbEntity
       8
0
     100
AcDbBlockEnd
       0
BLOCK
       5
2066
     330
200A
     100
AcDbEntity
       8
0
     100
AcDbBlockBegin
       2
CommonPart1040846272
      70
0
      10
473.1909
      20
659.930039
      30
0
       3
CommonPart1040846272
       1

       4
CypCutBlock
       0
LWPOLYLINE
       5
2067
     100
AcDbEntity
       8
1
     100
AcDbPolyline
      90
23
      70
0
      10
835.142886606445
      20
719.9062
      42
-0.414213562373095
      10
815.142886606445
      20
699.9062
      42
0
      10
788.142886606445
      20
699.9062
      42
-0.414213562373091
      10
785.142886606445
      20
702.9062
      42
0
      10
785.142886606445
      20
766.9062
      42
0.414213562373095
      10
782.142886606445
      20
769.9062
      42
0
      10
757.742886606445
      20
769.9062
      42
0
      10
757.742886606445
      20
776.4062
      42
0
      10
742.542886606445
      20
776.4062
      42
0
      10
742.542886606445
      20
769.9062
      42
0
      10
718.142886606445
      20
769.9062
      42
0.414213562373089
      10
715.142886606445
      20
766.9062
      42
0
      10
715.142886606445
      20
702.9062
      42
-0.414213562373093
      10
712.142886606445
      20
699.9062
      42
0
      10
640.342886606445
      20
699.9062
      42
0
      10
477.995708881245
      20
798.6148312571
      42
-0.414213562373094
      10
474.646311698645
      20
812.3546106772
      42
0
      10
500.622267292645
      20
855.0775521839
      42
-0.414213562373094
      10
514.36204671274
      20
858.426949366428
      42
0
      10
572.930085864545
      20
822.8170233973
      42
0.137427507034785
      10
583.320468102145
      20
819.9062
      42
0
      10
815.142886606445
      20
819.9062
      42
-0.414213562373097
      10
835.142886606445
      20
799.9062
      42
0
    1001
FS_CYPCUT
    1000
Channel
    1070
1
    1000
LeadIn
    1002
{
    1070
0
    1040
0.00318309886183791
    1040
1.5707963267949
    1040
1
    1040
0.5
    1070
0
    1040
0.5
    1070
0
    1002
}
    1000
LeadOut
    1002
{
    1070
0
    1040
0
    1040
0
    1040
0
    1070
0
    1002
}
    1000
IsFill
    1070
1
    1000
PathStart
    1040
0
    1000
ToolCompensation
    1002
{
    1070
0
    1040
0
    1070
0
    1002
}
    1000
MicroConnect
    1002
{
    1070
1
    1040
0
    1041
0.1
    1042
0
    1002
}
       0
LWPOLYLINE
       5
2068
     100
AcDbEntity
       8
1
     100
AcDbPolyline
      90
23
      70
1
      10
835.143013393555
      20
799.9062
      42
0
      10
835.143013393555
      20
719.9062
      42
0.414213562373097
      10
855.143013393555
      20
699.9062
      42
0
      10
1086.96543189785
      20
699.9062
      42
-0.137427507034785
      10
1097.35581413545
      20
696.9953766027
      42
0
      10
1155.92385328726
      20
661.385450633572
      42
0.414213562373094
      10
1169.66363270735
      20
664.7348478161
      42
0
      10
1195.63958830135
      20
707.4577893228
      42
0.414213562373094
      10
1192.29019111875
      20
721.1975687429
      42
0
      10
1029.94301339355
      20
819.9062
      42
0
      10
958.143013393555
      20
819.9062
      42
0.414213562373093
      10
955.143013393555
      20
816.9062
      42
0
      10
955.143013393555
      20
752.9062
      42
-0.414213562373089
      10
952.143013393555
      20
749.9062
      42
0
      10
927.743013393555
      20
749.9062
      42
0
      10
927.743013393555
      20
743.4062
      42
0
      10
912.543013393555
      20
743.4062
      42
0
      10
912.543013393555
      20
749.9062
      42
0
      10
888.143013393555
      20
749.9062
      42
-0.414213562373095
      10
885.143013393555
      20
752.9062
      42
0
      10
885.143013393555
      20
816.9062
      42
0.414213562373091
      10
882.143013393555
      20
819.9062
      42
0
      10
855.143013393555
      20
819.9062
      42
0.414213562373095
    1001
FS_CYPCUT
    1000
Channel
    1070
1
    1000
LeadIn
    1002
{
    1070
0
    1040
0
    1040
0
    1040
0
    1040
0
    1070
0
    1040
0
    1070
0
    1002
}
    1000
LeadOut
    1002
{
    1070
0
    1040
0
    1040
0
    1040
0
    1070
0
    1002
}
    1000
IsFill
    1070
1
    1000
PathStart
    1040
23
    1000
ToolCompensation
    1002
{
    1070
0
    1040
0
    1070
0
    1002
}
       0
ENDBLK
       5
2069
     330
200A
     100
AcDbEntity
       8
0
     100
AcDbBlockEnd
       0
BLOCK
       5
206A
     330
200B
     100
AcDbEntity
       8
0
     100
AcDbBlockBegin
       2
CommonPart2081959374
      70
0
      10
414.4602
      20
782.028639
      30
0
       3
CommonPart2081959374
       1

       4
CypCutBlock
       0
LWPOLYLINE
       5
206B
     100
AcDbEntity
       8
1
     100
AcDbPolyline
      90
23
      70
0
      10
776.412186606445
      20
842.0048
      42
-0.414213562373095
      10
756.412186606445
      20
822.0048
      42
0
      10
729.412186606445
      20
822.0048
      42
-0.414213562373091
      10
726.412186606445
      20
825.0048
      42
0
      10
726.412186606445
      20
889.0048
      42
0.414213562373095
      10
723.412186606445
      20
892.0048
      42
0
      10
699.012186606445
      20
892.0048
      42
0
      10
699.012186606445
      20
898.5048
      42
0
      10
683.812186606445
      20
898.5048
      42
0
      10
683.812186606445
      20
892.0048
      42
0
      10
659.412186606445
      20
892.0048
      42
0.414213562373089
      10
656.412186606445
      20
889.0048
      42
0
      10
656.412186606445
      20
825.0048
      42
-0.414213562373093
      10
653.412186606445
      20
822.0048
      42
0
      10
581.612186606445
      20
822.0048
      42
0
      10
419.265008881245
      20
920.7134312571
      42
-0.414213562373094
      10
415.915611698645
      20
934.4532106772
      42
0
      10
441.891567292645
      20
977.1761521839
      42
-0.414213562373094
      10
455.63134671274
      20
980.525549366428
      42
0
      10
514.199385864545
      20
944.9156233973
      42
0.137427507034785
      10
524.589768102145
      20
942.0048
      42
0
      10
756.412186606445
      20
942.0048
      42
-0.414213562373097
      10
776.412186606445
      20
922.0048
      42
0
    1001
FS_CYPCUT
    1000
Channel
    1070
1
    1000
LeadIn
    1002
{
    1070
0
    1040
0.00318309886183791
    1040
1.5707963267949
    1040
1
    1040
0.5
    1070
0
    1040
0.5
    1070
0
    1002
}
    1000
LeadOut
    1002
{
    1070
0
    1040
0
    1040
0
    1040
0
    1070
0
    1002
}
    1000
IsFill
    1070
1
    1000
PathStart
    1040
0
    1000
ToolCompensation
    1002
{
    1070
0
    1040
0
    1070
0
    1002
}
    1000
MicroConnect
    1002
{
    1070
1
    1040
0
    1041
0.1
    1042
0
    1002
}
       0
LWPOLYLINE
       5
206C
     100
AcDbEntity
       8
1
     100
AcDbPolyline
      90
23
      70
1
      10
776.412313393555
      20
922.0048
      42
0
      10
776.412313393555
      20
842.0048
      42
0.414213562373097
      10
796.412313393555
      20
822.0048
      42
0
      10
1028.23473189785
      20
822.0048
      42
-0.137427507034785
      10
1038.62511413545
      20
819.0939766027
      42
0
      10
1097.19315328726
      20
783.484050633572
      42
0.414213562373094
      10
1110.93293270735
      20
786.8334478161
      42
0
      10
1136.90888830135
      20
829.5563893228
      42
0.414213562373094
      10
1133.55949111875
      20
843.2961687429
      42
0
      10
971.212313393555
      20
942.0048
      42
0
      10
899.412313393555
      20
942.0048
      42
0.414213562373093
      10
896.412313393555
      20
939.0048
      42
0
      10
896.412313393555
      20
875.0048
      42
-0.414213562373089
      10
893.412313393555
      20
872.0048
      42
0
      10
869.012313393555
      20
872.0048
      42
0
      10
869.012313393555
      20
865.5048
      42
0
      10
853.812313393555
      20
865.5048
      42
0
      10
853.812313393555
      20
872.0048
      42
0
      10
829.412313393555
      20
872.0048
      42
-0.414213562373095
      10
826.412313393555
      20
875.0048
      42
0
      10
826.412313393555
      20
939.0048
      42
0.414213562373091
      10
823.412313393555
      20
942.0048
      42
0
      10
796.412313393555
      20
942.0048
      42
0.414213562373095
    1001
FS_CYPCUT
    1000
Channel
    1070
1
    1000
LeadIn
    1002
{
    1070
0
    1040
0
    1040
0
    1040
0
    1040
0
    1070
0
    1040
0
    1070
0
    1002
}
    1000
LeadOut
    1002
{
    1070
0
    1040
0
    1040
0
    1040
0
    1070
0
    1002
}
    1000
IsFill
    1070
1
    1000
PathStart
    1040
23
    1000
ToolCompensation
    1002
{
    1070
0
    1040
0
    1070
0
    1002
}
       0
ENDBLK
       5
206D
     330
200B
     100
AcDbEntity
       8
0
     100
AcDbBlockEnd
       0
BLOCK
       5
206E
     330
200C
     100
AcDbEntity
       8
0
     100
AcDbBlockBegin
       2
Part1874923703
      70
0
      10
-103
      20
0
      30
0
       3
Part1874923703
       1

       4
CypCutBlock
       0
LINE
       5
206F
     100
AcDbEntity
       8
2
     100
AcDbLine
      10
-91
      20
90
      30
0
      11
-18.5789473684
      21
90
      31
0
    1001
FS_CYPCUT
    1000
Channel
    1070
2
    1000
LeadIn
    1002
{
    1070
3
    1040
0
    1040
1.5707963267949
    1040
1
    1040
0.5
    1070
0
    1040
0.5
    1070
0
    1002
}
    1000
LeadOut
    1002
{
    1070
0
    1040
0
    1040
0
    1040
0
    1070
0
    1002
}
    1000
IsFill
    1070
0
    1000
PathStart
    1040
0
    1000
ToolCompensation
    1002
{
    1070
0
    1040
0
    1070
0
    1002
}
       0
LWPOLYLINE
       5
2070
     100
AcDbEntity
       8
1
     100
AcDbPolyline
      90
13
      70
1
      10
-103
      20
44.3
      42
-0.414213562373097
      10
-101
      20
46.3
      42
0
      10
-91
      20
46.3
      42
0
      10
-91
      20
210
      42
0
      10
-77.5440993938
      20
210
      42
-0.298123726191518
      10
-68.3803135854
      20
204.0031274847
      42
0
      10
11.1637858083
      20
21.914225258
      42
-0.103329942830067
      10
12
      20
17.9110977733
      42
0
      10
12
      20
0
      42
0
      10
-91
      20
0
      42
0
      10
-91
      20
31.3
      42
0
      10
-101
      20
31.3
      42
-0.414213562373097
      10
-103
      20
33.3
      42
0
    1001
FS_CYPCUT
    1000
Channel
    1070
1
    1000
LeadIn
    1002
{
    1070
3
    1040
5.5
    1040
1.5707963267949
    1040
1
    1040
0.5
    1070
0
    1040
0.5
    1070
0
    1002
}
    1000
LeadOut
    1002
{
    1070
0
    1040
0
    1040
0
    1040
0
    1070
0
    1002
}
    1000
IsFill
    1070
1
    1000
PathStart
    1040
5.5
    1000
ToolCompensation
    1002
{
    1070
0
    1040
0
    1070
0
    1002
}
    1000
MicroConnect
    1002
{
    1070
2
    1040
2.44097621
    1041
0.8
    1042
0
    1040
5.86615365
    1041
0.8
    1042
0
    1002
}
       0
ENDBLK
       5
2071
     330
200C
     100
AcDbEntity
       8
0
     100
AcDbBlockEnd
       0
BLOCK
       5
2072
     330
200D
     100
AcDbEntity
       8
0
     100
AcDbBlockBegin
       2
Part255083570
      70
0
      10
-91.5
      20
-107.5
      30
0
       3
Part255083570
       1

       4
CypCutBlock
       0
CIRCLE
       5
2073
     100
AcDbEntity
       8
1
     100
AcDbCircle
      10
-50
      20
-19
      30
0
      40
7
    1001
FS_CYPCUT
    1000
Channel
    1070
1
    1000
LeadIn
    1002
{
    1070
3
    1040
2.77555756156289E-17
    1040
1.5707963267949
    1040
1
    1040
0.5
    1070
0
    1040
0.5
    1070
0
    1002
}
    1000
LeadOut
    1002
{
    1070
0
    1040
0
    1040
0
    1040
0
    1070
0
    1002
}
    1000
IsFill
    1070
0
    1000
PathStart
    1040
2.77555756156289E-17
    1000
ToolCompensation
    1002
{
    1070
0
    1040
0
    1070
0
    1002
}
       0
LWPOLYLINE
       5
2074
     100
AcDbEntity
       8
1
     100
AcDbPolyline
      90
3
      70
1
      10
-25.85
      20
-34.9
      42
0
      10
-35.85
      20
-39.9
      42
0
      10
-35.85
      20
-29.9
      42
0
    1001
FS_CYPCUT
    1000
Channel
    1070
1
    1000
LeadIn
    1002
{
    1070
3
    1040
0.5
    1040
1.5707963267949
    1040
1
    1040
0.5
    1070
0
    1040
0.5
    1070
0
    1002
}
    1000
LeadOut
    1002
{
    1070
0
    1040
0
    1040
0
    1040
0
    1070
0
    1002
}
    1000
IsFill
    1070
0
    1000
PathStart
    1040
0.5
    1000
ToolCompensation
    1002
{
    1070
0
    1040
0
    1070
0
    1002
}
       0
LWPOLYLINE
       5
2075
     100
AcDbEntity
       8
1
     100
AcDbPolyline
      90
3
      70
1
      10
-7.85
      20
-29.9
      42
0
      10
-17.85
      20
-34.9
      42
0
      10
-7.85
      20
-39.9
      42
0
    1001
FS_CYPCUT
    1000
Channel
    1070
1
    1000
LeadIn
    1002
{
    1070
3
    1040
0.5
    1040
1.5707963267949
    1040
1
    1040
0.5
    1070
0
    1040
0.5
    1070
0
    1002
}
    1000
LeadOut
    1002
{
    1070
0
    1040
0
    1040
0
    1040
0
    1070
0
    1002
}
    1000
IsFill
    1070
0
    1000
PathStart
    1040
0.5
    1000
ToolCompensation
    1002
{
    1070
0
    1040
0
    1070
0
    1002
}
       0
CIRCLE
       5
2076
     100
AcDbEntity
       8
1
     100
AcDbCircle
      10
50
      20
-19
      30
0
      40
7.00000000000001
    1001
FS_CYPCUT
    1000
Channel
    1070
1
    1000
LeadIn
    1002
{
    1070
3
    1040
0
    1040
1.5707963267949
    1040
1
    1040
0.5
    1070
0
    1040
0.5
    1070
0
    1002
}
    1000
LeadOut
    1002
{
    1070
0
    1040
0
    1040
0
    1040
0
    1070
0
    1002
}
    1000
IsFill
    1070
0
    1000
PathStart
    1040
0
    1000
ToolCompensation
    1002
{
    1070
0
    1040
0
    1070
0
    1002
}
       0
CIRCLE
       5
2077
     100
AcDbEntity
       8
1
     100
AcDbCircle
      10
50
      20
61
      30
0
      40
7.00000000000002
    1001
FS_CYPCUT
    1000
Channel
    1070
1
    1000
LeadIn
    1002
{
    1070
3
    1040
0
    1040
1.5707963267949
    1040
1
    1040
0.5
    1070
0
    1040
0.5
    1070
0
    1002
}
    1000
LeadOut
    1002
{
    1070
0
    1040
0
    1040
0
    1040
0
    1070
0
    1002
}
    1000
IsFill
    1070
0
    1000
PathStart
    1040
1
    1000
ToolCompensation
    1002
{
    1070
0
    1040
0
    1070
0
    1002
}
       0
LWPOLYLINE
       5
2078
     100
AcDbEntity
       8
1
     100
AcDbPolyline
      90
3
      70
1
      10
-7.85
      20
82.5
      42
0
      10
-7.85
      20
72.5
      42
0
      10
-17.85
      20
77.5
      42
0
    1001
FS_CYPCUT
    1000
Channel
    1070
1
    1000
LeadIn
    1002
{
    1070
3
    1040
1.5
    1040
1.5707963267949
    1040
1
    1040
0.5
    1070
0
    1040
0.5
    1070
0
    1002
}
    1000
LeadOut
    1002
{
    1070
0
    1040
0
    1040
0
    1040
0
    1070
0
    1002
}
    1000
IsFill
    1070
0
    1000
PathStart
    1040
1.5
    1000
ToolCompensation
    1002
{
    1070
0
    1040
0
    1070
0
    1002
}
       0
LWPOLYLINE
       5
2079
     100
AcDbEntity
       8
1
     100
AcDbPolyline
      90
3
      70
1
      10
-25.85
      20
77.5
      42
0
      10
-35.85
      20
82.5
      42
0
      10
-35.85
      20
72.5
      42
0
    1001
FS_CYPCUT
    1000
Channel
    1070
1
    1000
LeadIn
    1002
{
    1070
3
    1040
0.5
    1040
1.5707963267949
    1040
1
    1040
0.5
    1070
0
    1040
0.5
    1070
0
    1002
}
    1000
LeadOut
    1002
{
    1070
0
    1040
0
    1040
0
    1040
0
    1070
0
    1002
}
    1000
IsFill
    1070
0
    1000
PathStart
    1040
0.5
    1000
ToolCompensation
    1002
{
    1070
0
    1040
0
    1070
0
    1002
}
       0
CIRCLE
       5
207A
     100
AcDbEntity
       8
1
     100
AcDbCircle
      10
-50
      20
61
      30
0
      40
7
    1001
FS_CYPCUT
    1000
Channel
    1070
1
    1000
LeadIn
    1002
{
    1070
3
    1040
0
    1040
1.5707963267949
    1040
1
    1040
0.5
    1070
0
    1040
0.5
    1070
0
    1002
}
    1000
LeadOut
    1002
{
    1070
0
    1040
0
    1040
0
    1040
0
    1070
0
    1002
}
    1000
IsFill
    1070
0
    1000
PathStart
    1040
0
    1000
ToolCompensation
    1002
{
    1070
0
    1040
0
    1070
0
    1002
}
       0
LWPOLYLINE
       5
207B
     100
AcDbEntity
       8
1
     100
AcDbPolyline
      90
24
      70
1
      10
91.5
      20
-59.8589838486
      42
0.131652497587398
      10
88.8205080757
      20
-49.8589838486
      42
0
      10
79.1794919243
      20
-33.1602540378
      42
-0.131652497587395
      10
76.4999999999996
      20
-23.1602540378
      42
0
      10
76.5
      20
101.5
      42
0.414213562373094
      10
70.5
      20
107.5
      42
0
      10
-70.5
      20
107.5
      42
0.414213562373094
      10
-76.5
      20
101.5
      42
0
      10
-76.5000000000002
      20
-23.1602540378
      42
-0.131652497587397
      10
-79.1794919243
      20
-33.1602540378
      42
0
      10
-88.8205080757
      20
-49.8589838486
      42
0.131652497587395
      10
-91.5000000000001
      20
-59.8589838486
      42
0
      10
-91.5
      20
-101.5
      42
0.414213562373096
      10
-85.5
      20
-107.5
      42
0
      10
-59.2933312156
      20
-107.5
      42
0.506547960186621
      10
-57.3854528127536
      20
-104.899999999997
      42
-1.36277028773795
      10
-40.2145471872341
      20
-104.900000000001
      42
0.506547960186626
      10
-38.3066687844
      20
-107.5
      42
0
      10
38.3066687844
      20
-107.5
      42
0.506547960186626
      10
40.2145471872464
      20
-104.899999999997
      42
-1.36277028773794
      10
57.3854528127659
      20
-104.900000000001
      42
0.506547960186616
      10
59.2933312156
      20
-107.5
      42
0
      10
85.5
      20
-107.5
      42
0.414213562373094
      10
91.5
      20
-101.5
      42
0
    1001
FS_CYPCUT
    1000
Channel
    1070
1
    1000
LeadIn
    1002
{
    1070
3
    1040
5.5
    1040
1.5707963267949
    1040
1
    1040
0.5
    1070
0
    1040
0.5
    1070
0
    1002
}
    1000
LeadOut
    1002
{
    1070
0
    1040
0
    1040
0
    1040
0
    1070
0
    1002
}
    1000
IsFill
    1070
1
    1000
PathStart
    1040
5.5
    1000
ToolCompensation
    1002
{
    1070
0
    1040
0
    1070
0
    1002
}
    1000
MicroConnect
    1002
{
    1070
3
    1040
5.6276884
    1041
0.8
    1042
0
    1040
9.29594307
    1041
0.8
    1042
0
    1040
23.5779167
    1041
0.8
    1042
0
    1002
}
       0
ENDBLK
       5
207C
     330
200D
     100
AcDbEntity
       8
0
     100
AcDbBlockEnd
       0
BLOCK
       5
207D
     330
200E
     100
AcDbEntity
       8
0
     100
AcDbBlockBegin
       2
Part367017883
      70
0
      10
-240
      20
-300
      30
0
       3
Part367017883
       1

       4
CypCutBlock
       0
CIRCLE
       5
207E
     100
AcDbEntity
       8
1
     100
AcDbCircle
      10
-18
      20
-275
      30
0
      40
8.00000000000002
    1001
FS_CYPCUT
    1000
Channel
    1070
1
    1000
LeadIn
    1002
{
    1070
3
    1040
0
    1040
1.5707963267949
    1040
1
    1040
0.5
    1070
0
    1040
0.5
    1070
0
    1002
}
    1000
LeadOut
    1002
{
    1070
0
    1040
0
    1040
0
    1040
0
    1070
0
    1002
}
    1000
IsFill
    1070
0
    1000
PathStart
    1040
1
    1000
ToolCompensation
    1002
{
    1070
0
    1040
0
    1070
0
    1002
}
       0
CIRCLE
       5
207F
     100
AcDbEntity
       8
1
     100
AcDbCircle
      10
-18
      20
-195
      30
0
      40
7.99999999999999
    1001
FS_CYPCUT
    1000
Channel
    1070
1
    1000
LeadIn
    1002
{
    1070
3
    1040
0
    1040
1.5707963267949
    1040
1
    1040
0.5
    1070
0
    1040
0.5
    1070
0
    1002
}
    1000
LeadOut
    1002
{
    1070
0
    1040
0
    1040
0
    1040
0
    1070
0
    1002
}
    1000
IsFill
    1070
0
    1000
PathStart
    1040
1
    1000
ToolCompensation
    1002
{
    1070
0
    1040
0
    1070
0
    1002
}
       0
CIRCLE
       5
2080
     100
AcDbEntity
       8
1
     100
AcDbCircle
      10
-18
      20
-115
      30
0
      40
7.99999999999998
    1001
FS_CYPCUT
    1000
Channel
    1070
1
    1000
LeadIn
    1002
{
    1070
3
    1040
5.55111512312578E-17
    1040
1.5707963267949
    1040
1
    1040
0.5
    1070
0
    1040
0.5
    1070
0
    1002
}
    1000
LeadOut
    1002
{
    1070
0
    1040
0
    1040
0
    1040
0
    1070
0
    1002
}
    1000
IsFill
    1070
0
    1000
PathStart
    1040
5.55111512312578E-17
    1000
ToolCompensation
    1002
{
    1070
0
    1040
0
    1070
0
    1002
}
       0
LWPOLYLINE
       5
2081
     100
AcDbEntity
       8
1
     100
AcDbPolyline
      90
6
      70
1
      10
-100
      20
-86
      42
0.414213562373096
      10
-106
      20
-80
      42
0
      10
-145.0161925324
      20
-80
      42
0.574128399170503
      10
-150.241138387
      20
-88.9495662082
      42
0
      10
-111.2249458546
      20
-158.0639644085
      42
0.7711786610068
      10
-100
      20
-155.1143982003
      42
0
    1001
FS_CYPCUT
    1000
Channel
    1070
1
    1000
LeadIn
    1002
{
    1070
3
    1040
3.5
    1040
1.5707963267949
    1040
1
    1040
0.5
    1070
0
    1040
0.5
    1070
0
    1002
}
    1000
LeadOut
    1002
{
    1070
0
    1040
0
    1040
0
    1040
0
    1070
0
    1002
}
    1000
IsFill
    1070
0
    1000
PathStart
    1040
3.5
    1000
ToolCompensation
    1002
{
    1070
0
    1040
0
    1070
0
    1002
}
       0
CIRCLE
       5
2082
     100
AcDbEntity
       8
1
     100
AcDbCircle
      10
-215
      20
-31
      30
0
      40
8
    1001
FS_CYPCUT
    1000
Channel
    1070
1
    1000
LeadIn
    1002
{
    1070
3
    1040
1.66533453693773E-16
    1040
1.5707963267949
    1040
1
    1040
0.5
    1070
0
    1040
0.5
    1070
0
    1002
}
    1000
LeadOut
    1002
{
    1070
0
    1040
0
    1040
0
    1040
0
    1070
0
    1002
}
    1000
IsFill
    1070
0
    1000
PathStart
    1040
1.66533453693773E-16
    1000
ToolCompensation
    1002
{
    1070
0
    1040
0
    1070
0
    1002
}
       0
CIRCLE
       5
2083
     100
AcDbEntity
       8
1
     100
AcDbCircle
      10
-116.5
      20
-31
      30
0
      40
7.99999999999999
    1001
FS_CYPCUT
    1000
Channel
    1070
1
    1000
LeadIn
    1002
{
    1070
3
    1040
0
    1040
1.5707963267949
    1040
1
    1040
0.5
    1070
0
    1040
0.5
    1070
0
    1002
}
    1000
LeadOut
    1002
{
    1070
0
    1040
0
    1040
0
    1040
0
    1070
0
    1002
}
    1000
IsFill
    1070
0
    1000
PathStart
    1040
0
    1000
ToolCompensation
    1002
{
    1070
0
    1040
0
    1070
0
    1002
}
       0
CIRCLE
       5
2084
     100
AcDbEntity
       8
1
     100
AcDbCircle
      10
-18
      20
-31
      30
0
      40
8
    1001
FS_CYPCUT
    1000
Channel
    1070
1
    1000
LeadIn
    1002
{
    1070
3
    1040
0
    1040
1.5707963267949
    1040
1
    1040
0.5
    1070
0
    1040
0.5
    1070
0
    1002
}
    1000
LeadOut
    1002
{
    1070
0
    1040
0
    1040
0
    1040
0
    1070
0
    1002
}
    1000
IsFill
    1070
0
    1000
PathStart
    1040
1
    1000
ToolCompensation
    1002
{
    1070
0
    1040
0
    1070
0
    1002
}
       0
LWPOLYLINE
       5
2085
     100
AcDbEntity
       8
1
     100
AcDbPolyline
      90
18
      70
1
      10
0
      20
-10
      42
0
      10
0
      20
-48.5
      42
-0.414213562373095
      10
-10
      20
-58.5
      42
0
      10
-46
      20
-58.5
      42
0.414213562373094
      10
-50
      20
-62.5
      42
0
      10
-50
      20
-79.5
      42
0.414213562373095
      10
-46
      20
-83.5
      42
0
      10
-10
      20
-83.5
      42
-0.414213562373097
      10
0
      20
-93.5
      42
0
      10
7.46069872548105E-14
      20
-296
      42
-0.414213562373098
      10
-4
      20
-300
      42
0
      10
-82.4853661071
      20
-300
      42
-0.270544385740014
      10
-108.610095379996
      20
-284.747831041136
      42
0
      10
-236.1247292729
      20
-58.864765288
      42
-0.129191562675633
      10
-240
      20
-44.1169342469
      42
0
      10
-240
      20
-4
      42
-0.4142135623731
      10
-236
      20
0
      42
0
      10
-10
      20
0
      42
-0.414213562373095
    1001
FS_CYPCUT
    1000
Channel
    1070
1
    1000
LeadIn
    1002
{
    1070
3
    1040
12.5
    1040
1.5707963267949
    1040
1
    1040
0.5
    1070
0
    1040
0.5
    1070
0
    1002
}
    1000
LeadOut
    1002
{
    1070
0
    1040
0
    1040
0
    1040
0
    1070
0
    1002
}
    1000
IsFill
    1070
1
    1000
PathStart
    1040
12.5
    1000
ToolCompensation
    1002
{
    1070
0
    1040
0
    1070
0
    1002
}
    1000
MicroConnect
    1002
{
    1070
3
    1040
8.03209877
    1041
0.8
    1042
0
    1040
12.0467572
    1041
0.8
    1042
0
    1040
16.1776387
    1041
0.8
    1042
0
    1002
}
       0
ENDBLK
       5
2086
     330
200E
     100
AcDbEntity
       8
0
     100
AcDbBlockEnd
       0
BLOCK
       5
2087
     330
200F
     100
AcDbEntity
       8
0
     100
AcDbBlockBegin
       2
Part841328414
      70
0
      10
0
      20
-175
      30
0
       3
Part841328414
       1

       4
CypCutBlock
       0
LWPOLYLINE
       5
2088
     100
AcDbEntity
       8
1
     100
AcDbPolyline
      90
4
      70
1
      10
36.5
      20
-128
      42
1
      10
18.5
      20
-128
      42
0
      10
18.5
      20
-148
      42
1
      10
36.5
      20
-148
      42
0
    1001
FS_CYPCUT
    1000
Channel
    1070
1
    1000
LeadIn
    1002
{
    1070
3
    1040
1.5
    1040
1.5707963267949
    1040
1
    1040
0.5
    1070
0
    1040
0.5
    1070
0
    1002
}
    1000
LeadOut
    1002
{
    1070
0
    1040
0
    1040
0
    1040
0
    1070
0
    1002
}
    1000
IsFill
    1070
0
    1000
PathStart
    1040
1.5
    1000
ToolCompensation
    1002
{
    1070
0
    1040
0
    1070
0
    1002
}
       0
LWPOLYLINE
       5
2089
     100
AcDbEntity
       8
1
     100
AcDbPolyline
      90
4
      70
1
      10
36.5
      20
-36
      42
0
      10
36.5
      20
-56
      42
-1
      10
18.5
      20
-56
      42
0
      10
18.5
      20
-36
      42
-1
    1001
FS_CYPCUT
    1000
Channel
    1070
1
    1000
LeadIn
    1002
{
    1070
3
    1040
0.5
    1040
1.5707963267949
    1040
1
    1040
0.5
    1070
0
    1040
0.5
    1070
0
    1002
}
    1000
LeadOut
    1002
{
    1070
0
    1040
0
    1040
0
    1040
0
    1070
0
    1002
}
    1000
IsFill
    1070
0
    1000
PathStart
    1040
0.5
    1000
ToolCompensation
    1002
{
    1070
0
    1040
0
    1070
0
    1002
}
       0
LWPOLYLINE
       5
208A
     100
AcDbEntity
       8
1
     100
AcDbPolyline
      90
4
      70
1
      10
36.5
      20
56
      42
0
      10
36.5
      20
36
      42
-1
      10
18.5
      20
36
      42
0
      10
18.5
      20
56
      42
-1
    1001
FS_CYPCUT
    1000
Channel
    1070
1
    1000
LeadIn
    1002
{
    1070
3
    1040
0.5
    1040
1.5707963267949
    1040
1
    1040
0.5
    1070
0
    1040
0.5
    1070
0
    1002
}
    1000
LeadOut
    1002
{
    1070
0
    1040
0
    1040
0
    1040
0
    1070
0
    1002
}
    1000
IsFill
    1070
0
    1000
PathStart
    1040
0.5
    1000
ToolCompensation
    1002
{
    1070
0
    1040
0
    1070
0
    1002
}
       0
LWPOLYLINE
       5
208B
     100
AcDbEntity
       8
1
     100
AcDbPolyline
      90
8
      70
1
      10
203.2528636749
      20
-78.0929496501
      42
0
      10
153.587312895354
      20
31.5467076203911
      42
0.668178637919297
      10
135.1195626902
      20
30.9437494145
      42
0
      10
118.975540281519
      20
-11.9385376102058
      42
0.19891236737966
      10
119.225293747946
      20
-19.5881302116912
      42
0
      10
155.521712219546
      20
-99.7146327653911
      42
0.414213562373097
      10
168.7569859926
      20
-104.6973557311
      42
0
      10
198.2701407093
      20
-91.3282234231
      42
0.414213562373094
    1001
FS_CYPCUT
    1000
Channel
    1070
1
    1000
LeadIn
    1002
{
    1070
3
    1040
0.5
    1040
1.5707963267949
    1040
1
    1040
0.5
    1070
0
    1040
0.5
    1070
0
    1002
}
    1000
LeadOut
    1002
{
    1070
0
    1040
0
    1040
0
    1040
0
    1070
0
    1002
}
    1000
IsFill
    1070
0
    1000
PathStart
    1040
0.5
    1000
ToolCompensation
    1002
{
    1070
0
    1040
0
    1070
0
    1002
}
       0
LWPOLYLINE
       5
208C
     100
AcDbEntity
       8
1
     100
AcDbPolyline
      90
4
      70
1
      10
36.5
      20
148
      42
1
      10
18.5
      20
148
      42
0
      10
18.5
      20
128
      42
1
      10
36.5
      20
128
      42
0
    1001
FS_CYPCUT
    1000
Channel
    1070
1
    1000
LeadIn
    1002
{
    1070
3
    1040
1.5
    1040
1.5707963267949
    1040
1
    1040
0.5
    1070
0
    1040
0.5
    1070
0
    1002
}
    1000
LeadOut
    1002
{
    1070
0
    1040
0
    1040
0
    1040
0
    1070
0
    1002
}
    1000
IsFill
    1070
0
    1000
PathStart
    1040
1.5
    1000
ToolCompensation
    1002
{
    1070
0
    1040
0
    1070
0
    1002
}
       0
LWPOLYLINE
       5
208D
     100
AcDbEntity
       8
1
     100
AcDbPolyline
      90
9
      70
1
      10
265.302957136508
      20
-93.8975661090177
      42
-0.414213562373095
      10
255.337511205182
      20
-120.368113655108
      42
0
      10
134.7343727949
      20
-175
      42
0
      10
20
      20
-174.999999999998
      42
-0.414213562373095
      10
1.96109795069788E-12
      20
-155
      42
0
      10
0
      20
155
      42
-0.414213562373094
      10
20
      20
175
      42
0
      10
137.0470708426
      20
175
      42
-0.294458249285383
      10
146.156069211954
      20
169.126275403691
      42
0
    1001
FS_CYPCUT
    1000
Channel
    1070
1
    1000
LeadIn
    1002
{
    1070
3
    1040
4.5
    1040
1.5707963267949
    1040
1
    1040
0.5
    1070
0
    1040
0.5
    1070
0
    1002
}
    1000
LeadOut
    1002
{
    1070
0
    1040
0
    1040
0
    1040
0
    1070
0
    1002
}
    1000
IsFill
    1070
1
    1000
PathStart
    1040
4.5
    1000
ToolCompensation
    1002
{
    1070
0
    1040
0
    1070
0
    1002
}
    1000
MicroConnect
    1002
{
    1070
3
    1040
2.52872941
    1041
0.8
    1042
0
    1040
4.92499344
    1041
0.8
    1042
0
    1040
8.48693108
    1041
0.8
    1042
0
    1002
}
       0
ENDBLK
       5
208E
     330
200F
     100
AcDbEntity
       8
0
     100
AcDbBlockEnd
       0
BLOCK
       5
208F
     330
2010
     100
AcDbEntity
       8
0
     100
AcDbBlockBegin
       2
Part19149720
      70
0
      10
-25
      20
-76.9
      30
0
       3
Part19149720
       1

       4
CypCutBlock
       0
CIRCLE
       5
2090
     100
AcDbEntity
       8
1
     100
AcDbCircle
      10
-1.2
      20
8.7
      30
0
      40
4.1
    1001
FS_CYPCUT
    1000
Channel
    1070
1
    1000
LeadIn
    1002
{
    1070
3
    1040
0
    1040
1.5707963267949
    1040
1
    1040
0.5
    1070
0
    1040
0.5
    1070
0
    1002
}
    1000
LeadOut
    1002
{
    1070
0
    1040
0
    1040
0
    1040
0
    1070
0
    1002
}
    1000
IsFill
    1070
0
    1000
PathStart
    1040
0
    1000
ToolCompensation
    1002
{
    1070
0
    1040
0
    1070
0
    1002
}
       0
LWPOLYLINE
       5
2091
     100
AcDbEntity
       8
1
     100
AcDbPolyline
      90
27
      70
1
      10
25.0000000000001
      20
57.7578643763
      42
0.198912367379659
      10
22.0710678118655
      20
64.8289321881655
      42
0
      10
12.9289321881654
      20
73.9710678118654
      42
0.198912367379658
      10
5.8578643763
      20
76.8999999999999
      42
0
      10
-22.5
      20
76.9
      42
0
      10
-25
      20
74.4
      42
0
      10
-25
      20
70
      42
0
      10
-22.5
      20
67.5
      42
0
      10
-1
      20
67.5
      42
-1
      10
-1
      20
51.5
      42
0
      10
-22.5
      20
51.5
      42
0
      10
-25
      20
49
      42
0
      10
-25
      20
44.6
      42
0
      10
-22.5
      20
42.1
      42
0
      10
-1
      20
42.1
      42
-1
      10
-1
      20
26.1
      42
0
      10
-22.5
      20
26.1
      42
0
      10
-25
      20
23.6
      42
0
      10
-25
      20
-57.7578643763
      42
0.198912367379658
      10
-22.0710678119
      20
-64.8289321881
      42
0
      10
-10
      20
-76.9
      42
0
      10
0
      20
-76.9
      42
0
      10
0
      20
-14.9
      42
-0.414213562373094
      10
3
      20
-11.9
      42
0
      10
10
      20
-11.9
      42
0
      10
22.0710678118654
      20
0.171067811834549
      42
0.198912367379658
      10
25
      20
7.2421356237
      42
0
    1001
FS_CYPCUT
    1000
Channel
    1070
1
    1000
LeadIn
    1002
{
    1070
3
    1040
17.5
    1040
1.5707963267949
    1040
1
    1040
0.5
    1070
0
    1040
0.5
    1070
0
    1002
}
    1000
LeadOut
    1002
{
    1070
0
    1040
0
    1040
0
    1040
0
    1070
0
    1002
}
    1000
IsFill
    1070
1
    1000
PathStart
    1040
17.5
    1000
ToolCompensation
    1002
{
    1070
0
    1040
0
    1070
0
    1002
}
    1000
MicroConnect
    1002
{
    1070
2
    1040
17.691213
    1041
0.8
    1042
0
    1040
26.6611025
    1041
0.8
    1042
0
    1002
}
       0
ENDBLK
       5
2092
     330
2010
     100
AcDbEntity
       8
0
     100
AcDbBlockEnd
       0
ENDSEC
       0
SECTION
       2
ENTITIES
       0
INSERT
       5
2093
     100
AcDbEntity
       8
1
     100
AcDbBlockReference
       2
Part2063473636
      10
3601.8957346487
      20
6611.37440806325
      30
0
      41
1
      42
1
      50
0
    1001
FS_CYPCUT
    1000
Channel
    1070
1
    1000
LeadIn
    1002
{
    1070
0
    1040
0
    1040
0
    1040
0
    1040
0
    1070
0
    1040
0
    1070
0
    1002
}
    1000
LeadOut
    1002
{
    1070
0
    1040
0
    1040
0
    1040
0
    1070
0
    1002
}
       0
INSERT
       5
2094
     100
AcDbEntity
       8
1
     100
AcDbBlockReference
       2
Part1728670729
      10
3901.89573541793
      20
6899.93330902478
      30
0
      41
1
      42
1
      50
90.0000001836389
    1001
FS_CYPCUT
    1000
Channel
    1070
1
    1000
LeadIn
    1002
{
    1070
0
    1040
0
    1040
0
    1040
0
    1040
0
    1070
0
    1040
0
    1070
0
    1002
}
    1000
LeadOut
    1002
{
    1070
0
    1040
0
    1040
0
    1040
0
    1070
0
    1002
}
       0
INSERT
       5
2095
     100
AcDbEntity
       8
1
     100
AcDbBlockReference
       2
Part1958960892
      10
3601.8958346839
      20
7324.9333081046
      30
0
      41
1
      42
1
      50
269.999999977959
    1001
FS_CYPCUT
    1000
Channel
    1070
1
    1000
LeadIn
    1002
{
    1070
0
    1040
0
    1040
0
    1040
0
    1040
0
    1070
0
    1040
0
    1070
0
    1002
}
    1000
LeadOut
    1002
{
    1070
0
    1040
0
    1040
0
    1040
0
    1070
0
    1002
}
       0
INSERT
       5
2096
     100
AcDbEntity
       8
1
     100
AcDbBlockReference
       2
Part286499834
      10
3742.23393465832
      20
7353.90890809283
      30
0
      41
1
      42
1
      50
269.999999977959
    1001
FS_CYPCUT
    1000
Channel
    1070
1
    1000
LeadIn
    1002
{
    1070
0
    1040
0
    1040
0
    1040
0
    1040
0
    1070
0
    1040
0
    1070
0
    1002
}
    1000
LeadOut
    1002
{
    1070
0
    1040
0
    1040
0
    1040
0
    1070
0
    1002
}
       0
LWPOLYLINE
       5
2097
     100
AcDbEntity
       8
1
     100
AcDbPolyline
      90
23
      70
1
      10
3963.84782125515
      20
7605.93270806325
      42
0.414213562373097
      10
3943.84782125515
      20
7625.93270806325
      42
0
      10
3712.02540275085
      20
7625.93270806325
      42
-0.137427507034785
      10
3701.63502051325
      20
7628.84353146055
      42
0
      10
3643.06698136144
      20
7664.45345742968
      42
0.414213562373094
      10
3629.32720194135
      20
7661.10406024715
      42
0
      10
3603.35124634735
      20
7618.38111874045
      42
0.414213562373094
      10
3606.70064352995
      20
7604.64133932035
      42
0
      10
3769.04782125515
      20
7505.93270806325
      42
0
      10
3840.84782125515
      20
7505.93270806325
      42
0.414213562373093
      10
3843.84782125515
      20
7508.93270806325
      42
0
      10
3843.84782125515
      20
7572.93270806325
      42
-0.414213562373089
      10
3846.84782125515
      20
7575.93270806325
      42
0
      10
3871.24782125515
      20
7575.93270806325
      42
0
      10
3871.24782125515
      20
7582.43270806325
      42
0
      10
3886.44782125515
      20
7582.43270806325
      42
0
      10
3886.44782125515
      20
7575.93270806325
      42
0
      10
3910.84782125515
      20
7575.93270806325
      42
-0.414213562373095
      10
3913.84782125515
      20
7572.93270806325
      42
0
      10
3913.84782125515
      20
7508.93270806325
      42
0.414213562373091
      10
3916.84782125515
      20
7505.93270806325
      42
0
      10
3943.84782125515
      20
7505.93270806325
      42
0.414213562373095
      10
3963.84782125515
      20
7525.93270806325
      42
0
    1001
FS_CYPCUT
    1000
Channel
    1070
1
    1000
LeadIn
    1002
{
    1070
3
    1040
1.5
    1040
1.5707963267949
    1040
1
    1040
0.5
    1070
0
    1040
0.5
    1070
0
    1002
}
    1000
LeadOut
    1002
{
    1070
0
    1040
0
    1040
0
    1040
0
    1070
0
    1002
}
    1000
IsFill
    1070
1
    1000
PathStart
    1040
1.5
    1000
ToolCompensation
    1002
{
    1070
0
    1040
0
    1070
0
    1002
}
    1000
MicroConnect
    1002
{
    1070
3
    1040
3.45193202
    1041
0.8
    1042
0
    1040
7.64503403
    1041
0.8
    1042
0
    1040
22.624851
    1041
0.8
    1042
0
    1002
}
       0
INSERT
       5
2098
     100
AcDbEntity
       8
1
     100
AcDbBlockReference
       2
CommonPart1464698562
      10
3614.6330346487
      20
7223.95654706325
      30
0
      41
1
      42
1
      50
0
    1001
FS_CYPCUT
    1000
Channel
    1070
1
    1000
LeadIn
    1002
{
    1070
0
    1040
0
    1040
0
    1040
0
    1040
0
    1070
0
    1040
0
    1070
0
    1002
}
    1000
LeadOut
    1002
{
    1070
0
    1040
0
    1040
0
    1040
0
    1070
0
    1002
}
       0
LWPOLYLINE
       5
2099
     100
AcDbEntity
       8
1
     100
AcDbPolyline
      90
23
      70
1
      10
4180.84762125515
      20
7241.93270806325
      42
0.414213562373097
      10
4160.84762125515
      20
7261.93270806325
      42
0
      10
3929.02520275085
      20
7261.93270806325
      42
-0.137427507034785
      10
3918.63482051325
      20
7264.84353146055
      42
0
      10
3860.06678136144
      20
7300.45345742968
      42
0.414213562373094
      10
3846.32700194135
      20
7297.10406024715
      42
0
      10
3820.35104634735
      20
7254.38111874045
      42
0.414213562373094
      10
3823.70044352995
      20
7240.64133932035
      42
0
      10
3986.04762125515
      20
7141.93270806325
      42
0
      10
4057.84762125515
      20
7141.93270806325
      42
0.414213562373093
      10
4060.84762125515
      20
7144.93270806325
      42
0
      10
4060.84762125515
      20
7208.93270806325
      42
-0.414213562373089
      10
4063.84762125515
      20
7211.93270806325
      42
0
      10
4088.24762125515
      20
7211.93270806325
      42
0
      10
4088.24762125515
      20
7218.43270806325
      42
0
      10
4103.44762125515
      20
7218.43270806325
      42
0
      10
4103.44762125515
      20
7211.93270806325
      42
0
      10
4127.84762125515
      20
7211.93270806325
      42
-0.414213562373095
      10
4130.84762125515
      20
7208.93270806325
      42
0
      10
4130.84762125515
      20
7144.93270806325
      42
0.414213562373091
      10
4133.84762125515
      20
7141.93270806325
      42
0
      10
4160.84762125515
      20
7141.93270806325
      42
0.414213562373095
      10
4180.84762125515
      20
7161.93270806325
      42
0
    1001
FS_CYPCUT
    1000
Channel
    1070
1
    1000
LeadIn
    1002
{
    1070
3
    1040
1.5
    1040
1.5707963267949
    1040
1
    1040
0.5
    1070
0
    1040
0.5
    1070
0
    1002
}
    1000
LeadOut
    1002
{
    1070
0
    1040
0
    1040
0
    1040
0
    1070
0
    1002
}
    1000
IsFill
    1070
1
    1000
PathStart
    1040
1.5
    1000
ToolCompensation
    1002
{
    1070
0
    1040
0
    1070
0
    1002
}
    1000
MicroConnect
    1002
{
    1070
3
    1040
3.45193202
    1041
0.8
    1042
0
    1040
7.64503403
    1041
0.8
    1042
0
    1040
22.624851
    1041
0.8
    1042
0
    1002
}
       0
INSERT
       5
209A
     100
AcDbEntity
       8
1
     100
AcDbBlockReference
       2
Part2021974395
      10
3903.8957346487
      20
6611.37440806325
      30
0
      41
1
      42
1
      50
0
    1001
FS_CYPCUT
    1000
Channel
    1070
1
    1000
LeadIn
    1002
{
    1070
0
    1040
0
    1040
0
    1040
0
    1040
0
    1070
0
    1040
0
    1070
0
    1002
}
    1000
LeadOut
    1002
{
    1070
0
    1040
0
    1040
0
    1040
0
    1070
0
    1002
}
       0
INSERT
       5
209B
     100
AcDbEntity
       8
1
     100
AcDbBlockReference
       2
Part1253857131
      10
4205.8953346487
      20
6611.37440806325
      30
0
      41
1
      42
1
      50
0
    1001
FS_CYPCUT
    1000
Channel
    1070
1
    1000
LeadIn
    1002
{
    1070
0
    1040
0
    1040
0
    1040
0
    1040
0
    1070
0
    1040
0
    1070
0
    1002
}
    1000
LeadOut
    1002
{
    1070
0
    1040
0
    1040
0
    1040
0
    1070
0
    1002
}
       0
INSERT
       5
209C
     100
AcDbEntity
       8
2
     100
AcDbBlockReference
       2
Part1689472752
      10
4509.6295346487
      20
7049.86320806325
      30
0
      41
1
      42
1
      50
180
    1001
FS_CYPCUT
    1000
Channel
    1070
2
    1000
LeadIn
    1002
{
    1070
0
    1040
0
    1040
0
    1040
0
    1040
0
    1070
0
    1040
0
    1070
0
    1002
}
    1000
LeadOut
    1002
{
    1070
0
    1040
0
    1040
0
    1040
0
    1070
0
    1002
}
       0
INSERT
       5
209D
     100
AcDbEntity
       8
1
     100
AcDbBlockReference
       2
CommonPart2020974176
      10
4144.4013346487
      20
6963.37440806325
      30
0
      41
1
      42
1
      50
0
    1001
FS_CYPCUT
    1000
Channel
    1070
1
    1000
LeadIn
    1002
{
    1070
0
    1040
0
    1040
0
    1040
0
    1040
0
    1070
0
    1040
0
    1070
0
    1002
}
    1000
LeadOut
    1002
{
    1070
0
    1040
0
    1040
0
    1040
0
    1070
0
    1002
}
       0
INSERT
       5
209E
     100
AcDbEntity
       8
1
     100
AcDbBlockReference
       2
CommonPart
      10
3903.8953346487
      20
6899.93330806325
      30
0
      41
1
      42
1
      50
0
    1001
FS_CYPCUT
    1000
Channel
    1070
1
    1000
LeadIn
    1002
{
    1070
0
    1040
0
    1040
0
    1040
0
    1040
0
    1070
0
    1040
0
    1070
0
    1002
}
    1000
LeadOut
    1002
{
    1070
0
    1040
0
    1040
0
    1040
0
    1070
0
    1002
}
       0
INSERT
       5
209F
     100
AcDbEntity
       8
1
     100
AcDbBlockReference
       2
CommonPart1040846272
      10
4073.0866346487
      20
7269.30444706325
      30
0
      41
1
      42
1
      50
0
    1001
FS_CYPCUT
    1000
Channel
    1070
1
    1000
LeadIn
    1002
{
    1070
0
    1040
0
    1040
0
    1040
0
    1040
0
    1070
0
    1040
0
    1070
0
    1002
}
    1000
LeadOut
    1002
{
    1070
0
    1040
0
    1040
0
    1040
0
    1070
0
    1002
}
       0
INSERT
       5
20A0
     100
AcDbEntity
       8
1
     100
AcDbBlockReference
       2
CommonPart2081959374
      10
4014.3559346487
      20
7391.40304706325
      30
0
      41
1
      42
1
      50
0
    1001
FS_CYPCUT
    1000
Channel
    1070
1
    1000
LeadIn
    1002
{
    1070
0
    1040
0
    1040
0
    1040
0
    1040
0
    1070
0
    1040
0
    1070
0
    1002
}
    1000
LeadOut
    1002
{
    1070
0
    1040
0
    1040
0
    1040
0
    1070
0
    1002
}
       0
LWPOLYLINE
       5
20A1
     100
AcDbEntity
       8
1
     100
AcDbPolyline
      90
20
      70
1
      10
4105.0452346487
      20
7573.37920806325
      42
0.414213562373095
      10
4125.0452346487
      20
7553.37920806325
      42
0
      10
4329.8452346487
      20
7553.37920806325
      42
0.414213562373095
      10
4349.8452346487
      20
7573.37920806325
      42
0
      10
4349.8452346487
      20
7653.37920806325
      42
0.414213562373095
      10
4329.8452346487
      20
7673.37920806325
      42
0
      10
4228.0452346487
      20
7673.37920806325
      42
0.414213562373093
      10
4225.0452346487
      20
7670.37920806325
      42
0
      10
4225.0452346487
      20
7606.37920806325
      42
-0.414213562373094
      10
4222.0452346487
      20
7603.37920806325
      42
0
      10
4197.6452346487
      20
7603.37920806325
      42
0
      10
4197.6452346487
      20
7596.87920806325
      42
0
      10
4182.4452346487
      20
7596.87920806325
      42
0
      10
4182.4452346487
      20
7603.37920806325
      42
0
      10
4158.0452346487
      20
7603.37920806325
      42
-0.414213562373095
      10
4155.0452346487
      20
7606.37920806325
      42
0
      10
4155.0452346487
      20
7670.37920806325
      42
0.414213562373091
      10
4152.0452346487
      20
7673.37920806325
      42
0
      10
4125.0452346487
      20
7673.37920806325
      42
0.414213562373095
      10
4105.0452346487
      20
7653.37920806325
      42
0
    1001
FS_CYPCUT
    1000
Channel
    1070
1
    1000
LeadIn
    1002
{
    1070
3
    1040
1.5
    1040
1.5707963267949
    1040
1
    1040
0.5
    1070
0
    1040
0.5
    1070
0
    1002
}
    1000
LeadOut
    1002
{
    1070
0
    1040
0
    1040
0
    1040
0
    1070
0
    1002
}
    1000
IsFill
    1070
1
    1000
PathStart
    1040
1.5
    1000
ToolCompensation
    1002
{
    1070
0
    1040
0
    1070
0
    1002
}
    1000
MicroConnect
    1002
{
    1070
3
    1040
1.54689486
    1041
0.8
    1042
0
    1040
5.11511875
    1041
0.8
    1042
0
    1040
17.5845209
    1041
0.8
    1042
0
    1002
}
       0
INSERT
       5
20A2
     100
AcDbEntity
       8
2
     100
AcDbBlockReference
       2
Part1874923703
      10
4636.08983497882
      20
7541.47920806325
      30
0
      41
1
      42
1
      50
90.0000001836389
    1001
FS_CYPCUT
    1000
Channel
    1070
2
    1000
LeadIn
    1002
{
    1070
0
    1040
0
    1040
0
    1040
0
    1040
0
    1070
0
    1040
0
    1070
0
    1002
}
    1000
LeadOut
    1002
{
    1070
0
    1040
0
    1040
0
    1040
0
    1070
0
    1002
}
       0
LWPOLYLINE
       5
20A3
     100
AcDbEntity
       8
1
     100
AcDbPolyline
      90
20
      70
1
      10
4697.8958346487
      20
7724.83750806325
      42
0.414213562373095
      10
4677.8958346487
      20
7704.83750806325
      42
0
      10
4677.8958346487
      20
7500.03750806325
      42
0.414213562373095
      10
4697.8958346487
      20
7480.03750806325
      42
0
      10
4777.8958346487
      20
7480.03750806325
      42
0.414213562373095
      10
4797.8958346487
      20
7500.03750806325
      42
0
      10
4797.8958346487
      20
7601.83750806325
      42
0.414213562373093
      10
4794.8958346487
      20
7604.83750806325
      42
0
      10
4730.8958346487
      20
7604.83750806325
      42
-0.414213562373094
      10
4727.8958346487
      20
7607.83750806325
      42
0
      10
4727.8958346487
      20
7632.23750806325
      42
0
      10
4721.3958346487
      20
7632.23750806325
      42
0
      10
4721.3958346487
      20
7647.43750806325
      42
0
      10
4727.8958346487
      20
7647.43750806325
      42
0
      10
4727.8958346487
      20
7671.83750806325
      42
-0.414213562373095
      10
4730.8958346487
      20
7674.83750806325
      42
0
      10
4794.8958346487
      20
7674.83750806325
      42
0.414213562373091
      10
4797.8958346487
      20
7677.83750806325
      42
0
      10
4797.8958346487
      20
7704.83750806325
      42
0.414213562373095
      10
4777.8958346487
      20
7724.83750806325
      42
0
    1001
FS_CYPCUT
    1000
Channel
    1070
1
    1000
LeadIn
    1002
{
    1070
3
    1040
1.5
    1040
1.5707963267949
    1040
1
    1040
0.5
    1070
0
    1040
0.5
    1070
0
    1002
}
    1000
LeadOut
    1002
{
    1070
0
    1040
0
    1040
0
    1040
0
    1070
0
    1002
}
    1000
IsFill
    1070
1
    1000
PathStart
    1040
1.5
    1000
ToolCompensation
    1002
{
    1070
0
    1040
0
    1070
0
    1002
}
    1000
MicroConnect
    1002
{
    1070
3
    1040
1.54689486
    1041
0.8
    1042
0
    1040
5.11511875
    1041
0.8
    1042
0
    1040
17.5845209
    1041
0.8
    1042
0
    1002
}
       0
INSERT
       5
20A4
     100
AcDbEntity
       8
1
     100
AcDbBlockReference
       2
Part255083570
      10
4505.8955346839
      20
7307.2806081046
      30
0
      41
1
      42
1
      50
269.999999977959
    1001
FS_CYPCUT
    1000
Channel
    1070
1
    1000
LeadIn
    1002
{
    1070
0
    1040
0
    1040
0
    1040
0
    1040
0
    1070
0
    1040
0
    1070
0
    1002
}
    1000
LeadOut
    1002
{
    1070
0
    1040
0
    1040
0
    1040
0
    1070
0
    1002
}
       0
LWPOLYLINE
       5
20A5
     100
AcDbEntity
       8
1
     100
AcDbPolyline
      90
13
      70
1
      10
4555.9296346487
      20
6963.37420806325
      42
0.414213562373097
      10
4557.9296346487
      20
6965.37420806325
      42
0
      10
4557.9296346487
      20
6975.37420806325
      42
0
      10
4571.6296346487
      20
6975.37420806325
      42
0
      10
4571.6296346487
      20
6993.09026571725
      42
0.112745495310074
      10
4570.638079529
      20
6997.43168493665
      42
0
      10
4534.3566615309
      20
7072.71562728265
      42
0.288017446864864
      10
4525.3482166506
      20
7078.37420806325
      42
0
      10
4511.6296346487
      20
7078.37420806325
      42
0
      10
4511.6296346487
      20
6975.37420806325
      42
0
      10
4542.9296346487
      20
6975.37420806325
      42
0
      10
4542.9296346487
      20
6965.37420806325
      42
0.414213562373096
      10
4544.9296346487
      20
6963.37420806325
      42
0
    1001
FS_CYPCUT
    1000
Channel
    1070
1
    1000
LeadIn
    1002
{
    1070
3
    1040
8.5
    1040
1.5707963267949
    1040
1
    1040
0.5
    1070
0
    1040
0.5
    1070
0
    1002
}
    1000
LeadOut
    1002
{
    1070
0
    1040
0
    1040
0
    1040
0
    1070
0
    1002
}
    1000
IsFill
    1070
1
    1000
PathStart
    1040
8.5
    1000
ToolCompensation
    1002
{
    1070
0
    1040
0
    1070
0
    1002
}
    1000
MicroConnect
    1002
{
    1070
2
    1040
5.10229523
    1041
0.8
    1042
0
    1040
8.41495086
    1041
0.8
    1042
0
    1002
}
       0
INSERT
       5
20A6
     100
AcDbEntity
       8
1
     100
AcDbBlockReference
       2
Part367017883
      10
4557.8958346487
      20
6823.66320806325
      30
0
      41
1
      42
1
      50
0
    1001
FS_CYPCUT
    1000
Channel
    1070
1
    1000
LeadIn
    1002
{
    1070
0
    1040
0
    1040
0
    1040
0
    1040
0
    1070
0
    1040
0
    1070
0
    1002
}
    1000
LeadOut
    1002
{
    1070
0
    1040
0
    1040
0
    1040
0
    1070
0
    1002
}
       0
LWPOLYLINE
       5
20A7
     100
AcDbEntity
       8
1
     100
AcDbPolyline
      90
13
      70
1
      10
4716.1242346487
      20
6817.17720806325
      42
0.414213562373097
      10
4714.1242346487
      20
6815.17720806325
      42
0
      10
4714.1242346487
      20
6805.17720806325
      42
0
      10
4700.4242346487
      20
6805.17720806325
      42
0
      10
4700.4242346487
      20
6787.46115040925
      42
0.112745495310074
      10
4701.4157897684
      20
6783.11973118985
      42
0
      10
4737.6972077665
      20
6707.83578884385
      42
0.288017446864864
      10
4746.7056526468
      20
6702.17720806325
      42
0
      10
4760.4242346487
      20
6702.17720806325
      42
0
      10
4760.4242346487
      20
6805.17720806325
      42
0
      10
4729.1242346487
      20
6805.17720806325
      42
0
      10
4729.1242346487
      20
6815.17720806325
      42
0.414213562373096
      10
4727.1242346487
      20
6817.17720806325
      42
0
    1001
FS_CYPCUT
    1000
Channel
    1070
1
    1000
LeadIn
    1002
{
    1070
3
    1040
8.5
    1040
1.5707963267949
    1040
1
    1040
0.5
    1070
0
    1040
0.5
    1070
0
    1002
}
    1000
LeadOut
    1002
{
    1070
0
    1040
0
    1040
0
    1040
0
    1070
0
    1002
}
    1000
IsFill
    1070
1
    1000
PathStart
    1040
8.5
    1000
ToolCompensation
    1002
{
    1070
0
    1040
0
    1070
0
    1002
}
    1000
MicroConnect
    1002
{
    1070
2
    1040
5.10229523
    1041
0.8
    1042
0
    1040
8.41495086
    1041
0.8
    1042
0
    1002
}
       0
INSERT
       5
20A8
     100
AcDbEntity
       8
1
     100
AcDbBlockReference
       2
Part841328414
      10
4474.9775346487
      20
6611.37440806325
      30
0
      41
1
      42
1
      50
0
    1001
FS_CYPCUT
    1000
Channel
    1070
1
    1000
LeadIn
    1002
{
    1070
0
    1040
0
    1040
0
    1040
0
    1040
0
    1070
0
    1040
0
    1070
0
    1002
}
    1000
LeadOut
    1002
{
    1070
0
    1040
0
    1040
0
    1040
0
    1070
0
    1002
}
       0
INSERT
       5
20A9
     100
AcDbEntity
       8
1
     100
AcDbBlockReference
       2
Part19149720
      10
4793.8951346487
      20
6765.17440806325
      30
0
      41
1
      42
1
      50
180
    1001
FS_CYPCUT
    1000
Channel
    1070
1
    1000
LeadIn
    1002
{
    1070
0
    1040
0
    1040
0
    1040
0
    1040
0
    1070
0
    1040
0
    1070
0
    1002
}
    1000
LeadOut
    1002
{
    1070
0
    1040
0
    1040
0
    1040
0
    1070
0
    1002
}
       0
ENDSEC
  0
SECTION
  2
OBJECTS
  0
DICTIONARY
  5
111
330
0
100
AcDbDictionary
281
     1
  3
ACAD_COLOR
350
120
  3
ACAD_GROUP
350
112
  3
ACAD_LAYOUT
350
11E
  3
ACAD_MATERIAL
350
11F
  3
ACAD_MLINESTYLE
350
11B
  3
ACAD_PLOTSETTINGS
350
11D
  3
ACAD_PLOTSTYLENAME
350
113
  3
ACAD_TABLESTYLE
350
121
  3
AcDbVariableDictionary
350
135
  0
DICTIONARY
  5
120
102
{ACAD_REACTORS
330
111
102
}
330
111
100
AcDbDictionary
281
     1
  0
DICTIONARY
  5
112
102
{ACAD_REACTORS
330
111
102
}
330
111
100
AcDbDictionary
281
     1
  0
DICTIONARY
  5
11E
102
{ACAD_REACTORS
330
111
102
}
330
111
100
AcDbDictionary
281
     1
  3
Model
350
12A
  3
布局1
350
126
  0
DICTIONARY
  5
11F
102
{ACAD_REACTORS
330
111
102
}
330
111
100
AcDbDictionary
281
     1
  0
DICTIONARY
  5
11B
102
{ACAD_REACTORS
330
111
102
}
330
111
100
AcDbDictionary
281
     1
  3
Standard
350
11C
  0
DICTIONARY
  5
11D
102
{ACAD_REACTORS
330
111
102
}
330
111
100
AcDbDictionary
281
     1
  0
ACDBDICTIONARYWDFLT
  5
113
102
{ACAD_REACTORS
330
111
102
}
330
111
100
AcDbDictionary
281
     1
  3
Normal
350
114
100
AcDbDictionaryWithDefault
340
114
  0
DICTIONARY
  5
121
102
{ACAD_REACTORS
330
111
102
}
330
111
100
AcDbDictionary
281
     1
  3
Standard
350
122
  0
DICTIONARY
  5
135
102
{ACAD_REACTORS
330
111
102
}
330
111
100
AcDbDictionary
281
     1
  3
CTABLESTYLE
350
136
  0
LAYOUT
  5
12A
102
{ACAD_REACTORS
330
11E
102
}
330
11E
100
AcDbPlotSettings
  1

  2
发送至 OneNote 2010
  4

  6

 40
0.0
 41
0.0
 42
0.0
 43
0.0
 44
0.0
 45
0.0
 46
0.0
 47
0.0
 48
0.0
 49
0.0
140
0.0
141
0.0
142
1.0
143
1.0
 70
  1712
 72
     0
 73
     0
 74
     0
  7

 75
     0
147
1.0
 76
     0
 77
     2
 78
   300
148
0.0
149
0.0
100
AcDbLayout
  1
Model
 70
     1
 71
     0
 10
0.0
 20
0.0
 11
12.0
 21
9.0
 12
0.0
 22
0.0
 32
0.0
 14
0.0
 24
0.0
 34
0.0
 15
0.0
 25
0.0
 35
0.0
146
0.0
 13
0.0
 23
0.0
 33
0.0
 16
1.0
 26
0.0
 36
0.0
 17
0.0
 27
1.0
 37
0.0
 76
     0
330
127
  0
LAYOUT
  5
126
102
{ACAD_REACTORS
330
11E
102
}
330
11E
100
AcDbPlotSettings
  1

  2
发送至 OneNote 2010
  4

  6

 40
0.0
 41
0.0
 42
0.0
 43
0.0
 44
0.0
 45
0.0
 46
0.0
 47
0.0
 48
0.0
 49
0.0
140
0.0
141
0.0
142
1.0
143
1.0
 70
   688
 72
     0
 73
     0
 74
     5
  7

 75
    16
147
1.0
 76
     0
 77
     2
 78
   300
148
0.0
149
0.0
100
AcDbLayout
  1
布局1
 70
     1
 71
     1
 10
0.0
 20
0.0
 11
12.0
 21
9.0
 12
0.0
 22
0.0
 32
0.0
 14
0.0
 24
0.0
 34
0.0
 15
0.0
 25
0.0
 35
0.0
146
0.0
 13
0.0
 23
0.0
 33
0.0
 16
1.0
 26
0.0
 36
0.0
 17
0.0
 27
1.0
 37
0.0
 76
     0
330
123
  0
MLINESTYLE
  5
11C
102
{ACAD_REACTORS
330
11B
102
}
330
11B
100
AcDbMlineStyle
  2
STANDARD
 70
     0
  3

 62
   256
 51
90.0
 52
90.0
 71
     2
 49
0.5
 62
   256
  6
BYLAYER
 49
-0.5
 62
   256
  6
BYLAYER
  0
ACDBPLACEHOLDER
  5
114
102
{ACAD_REACTORS
330
113
102
}
330
113
  0
TABLESTYLE
  5
122
102
{ACAD_REACTORS
330
121
102
}
330
121
100
AcDbTableStyle
  3
Standard
 70
     0
 71
     0
 40
0.06
 41
0.06
280
     0
281
     0
  7
STANDARD
140
0.18
170
     2
 62
     0
 63
     7
283
     0
274
    -2
284
     1
 64
     0
275
    -2
285
     1
 65
     0
276
    -2
286
     1
 66
     0
277
    -2
287
     1
 67
     0
278
    -2
288
     1
 68
     0
279
    -2
289
     1
 69
     0
  7
STANDARD
140
0.25
170
     5
 62
     0
 63
     7
283
     0
274
    -2
284
     1
 64
     0
275
    -2
285
     1
 65
     0
276
    -2
286
     1
 66
     0
277
    -2
287
     1
 67
     0
278
    -2
288
     1
 68
     0
279
    -2
289
     1
 69
     0
  7
STANDARD
140
0.18
170
     5
 62
     0
 63
     7
283
     0
274
    -2
284
     1
 64
     0
275
    -2
285
     1
 65
     0
276
    -2
286
     1
 66
     0
277
    -2
287
     1
 67
     0
278
    -2
288
     1
 68
     0
279
    -2
289
     1
 69
     0
  0
DICTIONARYVAR
  5
136
102
{ACAD_REACTORS
330
135
102
}
330
135
100
DictionaryVariables
280
     0
  1
STANDARD
  0
ENDSEC
  0
EOF
