  0
SECTION
  2
HEADER
  9
$ACADVER
  1
AC1018
  9
$ACADMAINTVER
 70
    77
  9
$DWGCODEPAGE
  3
ANSI_936
  9
$INSBASE
 10
0.0
 20
0.0
 30
0.0
  9
$EXTMIN
 10
7717.40854346471
 20
13375.960793751
 30
0.0
  9
$EXTMAX
 10
8911.80854345507
 20
13920.8277787955
 30
0.0
  9
$LIMMIN
 10
0.0
 20
0.0
  9
$LIMMAX
 10
420.0
 20
297.0
  9
$ORTHOMODE
 70
     0
  9
$REGENMODE
 70
     1
  9
$FILLMODE
 70
     1
  9
$QTEXTMODE
 70
     0
  9
$MIRRTEXT
 70
     0
  9
$LTSCALE
 40
1.0
  9
$ATTMODE
 70
     1
  9
$TEXTSIZE
 40
2.5
  9
$TRACEWID
 40
1.0
  9
$TEXTSTYLE
  7
STANDARD
  9
$CLAYER
  8
0
  9
$CELTYPE
  6
ByLayer
  9
$CECOLOR
 62
   256
  9
$CELTSCALE
 40
1.0
  9
$DISPSILH
 70
     0
  9
$DIMSCALE
 40
1.0
  9
$DIMASZ
 40
2.5
  9
$DIMEXO
 40
0.625
  9
$DIMDLI
 40
3.75
  9
$DIMRND
 40
0.0
  9
$DIMDLE
 40
0.0
  9
$DIMEXE
 40
1.25
  9
$DIMTP
 40
0.0
  9
$DIMTM
 40
0.0
  9
$DIMTXT
 40
2.5
  9
$DIMCEN
 40
2.5
  9
$DIMTSZ
 40
0.0
  9
$DIMTOL
 70
     0
  9
$DIMLIM
 70
     0
  9
$DIMTIH
 70
     0
  9
$DIMTOH
 70
     0
  9
$DIMSE1
 70
     0
  9
$DIMSE2
 70
     0
  9
$DIMTAD
 70
     1
  9
$DIMZIN
 70
     8
  9
$DIMBLK
  1

  9
$DIMASO
 70
     1
  9
$DIMSHO
 70
     1
  9
$DIMPOST
  1

  9
$DIMAPOST
  1

  9
$DIMALT
 70
     0
  9
$DIMALTD
 70
     3
  9
$DIMALTF
 40
0.03937007874016
  9
$DIMLFAC
 40
1.0
  9
$DIMTOFL
 70
     1
  9
$DIMTVP
 40
0.0
  9
$DIMTIX
 70
     0
  9
$DIMSOXD
 70
     0
  9
$DIMSAH
 70
     0
  9
$DIMBLK1
  1

  9
$DIMBLK2
  1

  9
$DIMSTYLE
  2
ISO-25
  9
$DIMCLRD
 70
     0
  9
$DIMCLRE
 70
     0
  9
$DIMCLRT
 70
     0
  9
$DIMTFAC
 40
1.0
  9
$DIMGAP
 40
0.625
  9
$DIMJUST
 70
     0
  9
$DIMSD1
 70
     0
  9
$DIMSD2
 70
     0
  9
$DIMTOLJ
 70
     1
  9
$DIMTZIN
 70
     0
  9
$DIMALTZ
 70
     0
  9
$DIMALTTZ
 70
     0
  9
$DIMUPT
 70
     0
  9
$DIMDEC
 70
     4
  9
$DIMTDEC
 70
     4
  9
$DIMALTU
 70
     2
  9
$DIMALTTD
 70
     2
  9
$DIMTXSTY
  7
STANDARD
  9
$DIMAUNIT
 70
     0
  9
$DIMADEC
 70
     0
  9
$DIMALTRND
 40
0.0
  9
$DIMAZIN
 70
     0
  9
$DIMDSEP
 70
    46
  9
$DIMATFIT
 70
     3
  9
$DIMFRAC
 70
     0
  9
$DIMLDRBLK
  1

  9
$DIMLUNIT
 70
     2
  9
$DIMLWD
 70
    -2
  9
$DIMLWE
 70
    -2
  9
$DIMTMOVE
 70
     0
  9
$LUNITS
 70
     2
  9
$LUPREC
 70
     4
  9
$SKETCHINC
 40
1.0
  9
$FILLETRAD
 40
0.0
  9
$AUNITS
 70
     0
  9
$AUPREC
 70
     0
  9
$MENU
  1
.
  9
$ELEVATION
 40
0.0
  9
$PELEVATION
 40
0.0
  9
$THICKNESS
 40
0.0
  9
$LIMCHECK
 70
     0
  9
$CHAMFERA
 40
0.0
  9
$CHAMFERB
 40
0.0
  9
$CHAMFERC
 40
0.0
  9
$CHAMFERD
 40
0.0
  9
$SKPOLY
 70
     0
  9
$TDCREATE
 40
2456997.676706910
  9
$TDUCREATE
 40
2456997.343373576
  9
$TDUPDATE
 40
2456997.680113438
  9
$TDUUPDATE
 40
2456997.346780104
  9
$TDINDWG
 40
0.0010312963
  9
$TDUSRTIMER
 40
0.0010311806
  9
$USRTIMER
 70
     1
  9
$ANGBASE
 50
0.0
  9
$ANGDIR
 70
     0
  9
$PDMODE
 70
     0
  9
$PDSIZE
 40
0.0
  9
$PLINEWID
 40
0.0
  9
$SPLFRAME
 70
     0
  9
$SPLINETYPE
 70
     6
  9
$SPLINESEGS
 70
     8
  9
$HANDSEED
  5
2499
  9
$SURFTAB1
 70
     6
  9
$SURFTAB2
 70
     6
  9
$SURFTYPE
 70
     6
  9
$SURFU
 70
     6
  9
$SURFV
 70
     6
  9
$UCSBASE
  2

  9
$UCSNAME
  2

  9
$UCSORG
 10
0.0
 20
0.0
 30
0.0
  9
$UCSXDIR
 10
1.0
 20
0.0
 30
0.0
  9
$UCSYDIR
 10
0.0
 20
1.0
 30
0.0
  9
$UCSORTHOREF
  2

  9
$UCSORTHOVIEW
 70
     0
  9
$UCSORGTOP
 10
0.0
 20
0.0
 30
0.0
  9
$UCSORGBOTTOM
 10
0.0
 20
0.0
 30
0.0
  9
$UCSORGLEFT
 10
0.0
 20
0.0
 30
0.0
  9
$UCSORGRIGHT
 10
0.0
 20
0.0
 30
0.0
  9
$UCSORGFRONT
 10
0.0
 20
0.0
 30
0.0
  9
$UCSORGBACK
 10
0.0
 20
0.0
 30
0.0
  9
$PUCSBASE
  2

  9
$PUCSNAME
  2

  9
$PUCSORG
 10
0.0
 20
0.0
 30
0.0
  9
$PUCSXDIR
 10
1.0
 20
0.0
 30
0.0
  9
$PUCSYDIR
 10
0.0
 20
1.0
 30
0.0
  9
$PUCSORTHOREF
  2

  9
$PUCSORTHOVIEW
 70
     0
  9
$PUCSORGTOP
 10
0.0
 20
0.0
 30
0.0
  9
$PUCSORGBOTTOM
 10
0.0
 20
0.0
 30
0.0
  9
$PUCSORGLEFT
 10
0.0
 20
0.0
 30
0.0
  9
$PUCSORGRIGHT
 10
0.0
 20
0.0
 30
0.0
  9
$PUCSORGFRONT
 10
0.0
 20
0.0
 30
0.0
  9
$PUCSORGBACK
 10
0.0
 20
0.0
 30
0.0
  9
$USERI1
 70
     0
  9
$USERI2
 70
     0
  9
$USERI3
 70
     0
  9
$USERI4
 70
     0
  9
$USERI5
 70
     0
  9
$USERR1
 40
0.0
  9
$USERR2
 40
0.0
  9
$USERR3
 40
0.0
  9
$USERR4
 40
0.0
  9
$USERR5
 40
0.0
  9
$WORLDVIEW
 70
     1
  9
$SHADEDGE
 70
     3
  9
$SHADEDIF
 70
    70
  9
$TILEMODE
 70
     1
  9
$MAXACTVP
 70
    64
  9
$PINSBASE
 10
0.0
 20
0.0
 30
0.0
  9
$PLIMCHECK
 70
     0
  9
$PEXTMIN
 10
0.0
 20
0.0
 30
0.0
  9
$PEXTMAX
 10
0.0
 20
0.0
 30
0.0
  9
$PLIMMIN
 10
0.0
 20
0.0
  9
$PLIMMAX
 10
12.0
 20
9.0
  9
$UNITMODE
 70
     0
  9
$VISRETAIN
 70
     1
  9
$PLINEGEN
 70
     0
  9
$PSLTSCALE
 70
     1
  9
$TREEDEPTH
 70
  3020
  9
$CMLSTYLE
  2
Standard
  9
$CMLJUST
 70
     0
  9
$CMLSCALE
 40
1.0
  9
$PROXYGRAPHICS
 70
     1
  9
$MEASUREMENT
 70
     1
  9
$CELWEIGHT
370
    -1
  9
$ENDCAPS
280
     0
  9
$JOINSTYLE
280
     0
  9
$LWDISPLAY
290
     0
  9
$INSUNITS
 70
     0
  9
$HYPERLINKBASE
  1

  9
$STYLESHEET
  1

  9
$XEDIT
290
     1
  9
$CEPSNTYPE
380
     0
  9
$PSTYLEMODE
290
     1
  9
$FINGERPRINTGUID
  2
{1F2D6530-6BF2-4D5E-922F-A9C54F637010}
  9
$VERSIONGUID
  2
{15AD9CB5-51D1-451C-B472-5DB36EFAD6AD}
  9
$EXTNAMES
290
     1
  9
$PSVPSCALE
 40
0.0
  9
$OLESTARTUP
290
     0
  9
$SORTENTS
280
   127
  9
$INDEXCTL
280
     0
  9
$HIDETEXT
280
     0
  9
$XCLIPFRAME
290
     0
  9
$HALOGAP
280
     0
  9
$OBSCOLOR
 70
   257
  9
$OBSLTYPE
280
     0
  9
$INTERSECTIONDISPLAY
280
     0
  9
$INTERSECTIONCOLOR
 70
   257
  9
$DIMASSOC
280
     1
  9
$PROJECTNAME
  1

  0
ENDSEC
  0
SECTION
  2
CLASSES
  0
CLASS
  1
ACDBDICTIONARYWDFLT
  2
AcDbDictionaryWithDefault
  3
ObjectDBX Classes
 90
        0
 91
        1
280
     0
281
     0
  0
CLASS
  1
TABLESTYLE
  2
AcDbTableStyle
  3
ObjectDBX Classes
 90
     2047
 91
        1
280
     0
281
     0
  0
CLASS
  1
DICTIONARYVAR
  2
AcDbDictionaryVar
  3
ObjectDBX Classes
 90
        0
 91
        1
280
     0
281
     0
  0
ENDSEC
  0
SECTION
  2
TABLES
  0
TABLE
  2
VPORT
  5
10D
330
0
100
AcDbSymbolTable
 70
     2
  0
VPORT
  5
137
330
10D
100
AcDbSymbolTableRecord
100
AcDbViewportTableRecord
  2
*Active
 70
     0
 10
0.0
 20
0.0
 11
1.0
 21
1.0
 12
8314.60854345989
 22
13648.3942862732
 13
0.0
 23
0.0
 14
10.0
 24
10.0
 15
10.0
 25
10.0
 16
0.0
 26
0.0
 36
1.0
 17
0.0
 27
0.0
 37
0.0
 40
551.708552688342
 41
2.435135135135135
 42
50.0
 43
0.0
 44
0.0
 50
0.0
 51
0.0
 71
     0
 72
  1000
 73
     1
 74
     3
 75
     0
 76
     0
 77
     0
 78
     0
281
     0
 65
     1
110
0.0
120
0.0
130
0.0
111
1.0
121
0.0
131
0.0
112
0.0
122
1.0
132
0.0
 79
     0
146
0.0
  0
ENDTAB
  0
TABLE
  2
LTYPE
  5
10A
330
0
100
AcDbSymbolTable
 70
     1
  0
LTYPE
  5
118
330
10A
100
AcDbSymbolTableRecord
100
AcDbLinetypeTableRecord
  2
ByBlock
 70
     0
  3

 72
    65
 73
     0
 40
0.0
  0
LTYPE
  5
119
330
10A
100
AcDbSymbolTableRecord
100
AcDbLinetypeTableRecord
  2
ByLayer
 70
     0
  3

 72
    65
 73
     0
 40
0.0
  0
LTYPE
  5
11A
330
10A
100
AcDbSymbolTableRecord
100
AcDbLinetypeTableRecord
  2
CONTINUOUS
 70
     0
  3
Solid line
 72
    65
 73
     0
 40
0.0
  0
ENDTAB
  0
TABLE
  2
LAYER
  5
107
330
0
100
AcDbSymbolTable
 70
     1
  0
LAYER
  5
115
330
107
100
AcDbSymbolTableRecord
100
AcDbLayerTableRecord
  2
0
 70
     0
 62
     7
  6
CONTINUOUS
370
    -3
390
114
  0
ENDTAB
  0
TABLE
  2
STYLE
  5
108
330
0
100
AcDbSymbolTable
 70
     1
  0
STYLE
  5
116
330
108
100
AcDbSymbolTableRecord
100
AcDbTextStyleTableRecord
  2
STANDARD
 70
     0
 40
0.0
 41
1.0
 50
0.0
 71
     0
 42
2.5
  3
txt
  4
gbcbig.shx
  0
ENDTAB
  0
TABLE
  2
VIEW
  5
10B
330
0
100
AcDbSymbolTable
 70
     0
  0
ENDTAB
  0
TABLE
  2
UCS
  5
10C
330
0
100
AcDbSymbolTable
 70
     0
  0
ENDTAB
  0
TABLE
  2
APPID
  5
10E
330
0
100
AcDbSymbolTable
 70
     2
  0
APPID
  5
117
330
10E
100
AcDbSymbolTableRecord
100
AcDbRegAppTableRecord
  2
ACAD
 70
     0
  0
APPID
  5
12C
330
10E
100
AcDbSymbolTableRecord
100
AcDbRegAppTableRecord
  2
ACAD_PSEXT
 70
     0
  0
APPID
  5
112C
330
10E
100
AcDbSymbolTableRecord
100
AcDbRegAppTableRecord
  2
FS_CYPCUT
 70
     0
  0
ENDTAB
  0
TABLE
  2
DIMSTYLE
  5
10F
330
0
100
AcDbSymbolTable
 70
     1
100
AcDbDimStyleTable
 71
     0
  0
DIMSTYLE
105
12D
330
10F
100
AcDbSymbolTableRecord
100
AcDbDimStyleTableRecord
  2
ISO-25
 70
     0
 41
2.5
 42
0.625
 43
3.75
 44
1.25
 73
     0
 74
     0
 77
     1
 78
     8
140
2.5
141
2.5
143
0.03937007874016
147
0.625
171
     3
172
     1
274
     3
279
     2
284
     8
285
     8
286
     8
340
116
  0
ENDTAB
  0
TABLE
  2
BLOCK_RECORD
  5
106
330
0
100
AcDbSymbolTable
 70
     2
  0
BLOCK_RECORD
  5
127
330
106
100
AcDbSymbolTableRecord
100
AcDbBlockTableRecord
  2
*Model_Space
340
12A
  0
BLOCK_RECORD
  5
123
330
106
100
AcDbSymbolTableRecord
100
AcDbBlockTableRecord
  2
*Paper_Space
340
126
  0
BLOCK_RECORD
  5
130
330
106
100
AcDbSymbolTableRecord
100
AcDbBlockTableRecord
  2
$MODEL_SPACE
340
0
  0
BLOCK_RECORD
  5
132
330
106
100
AcDbSymbolTableRecord
100
AcDbBlockTableRecord
  2
$PAPER_SPACE
340
0
       0
BLOCK_RECORD
       5
2000
     330
106
     100
AcDbSymbolTableRecord
     100
AcDbBlockTableRecord
       2
Part660251976
       0
BLOCK_RECORD
       5
2001
     330
106
     100
AcDbSymbolTableRecord
     100
AcDbBlockTableRecord
       2
Part86735076
       0
BLOCK_RECORD
       5
2002
     330
106
     100
AcDbSymbolTableRecord
     100
AcDbBlockTableRecord
       2
Part796839459
       0
BLOCK_RECORD
       5
2003
     330
106
     100
AcDbSymbolTableRecord
     100
AcDbBlockTableRecord
       2
Part991840590
       0
BLOCK_RECORD
       5
2004
     330
106
     100
AcDbSymbolTableRecord
     100
AcDbBlockTableRecord
       2
Part1550001671
       0
BLOCK_RECORD
       5
2005
     330
106
     100
AcDbSymbolTableRecord
     100
AcDbBlockTableRecord
       2
Part1625593523
       0
BLOCK_RECORD
       5
2006
     330
106
     100
AcDbSymbolTableRecord
     100
AcDbBlockTableRecord
       2
Part1639863852
       0
BLOCK_RECORD
       5
2007
     330
106
     100
AcDbSymbolTableRecord
     100
AcDbBlockTableRecord
       2
Part707347194
       0
BLOCK_RECORD
       5
2008
     330
106
     100
AcDbSymbolTableRecord
     100
AcDbBlockTableRecord
       2
Part1814344241
       0
BLOCK_RECORD
       5
2009
     330
106
     100
AcDbSymbolTableRecord
     100
AcDbBlockTableRecord
       2
Part555330979
       0
BLOCK_RECORD
       5
200A
     330
106
     100
AcDbSymbolTableRecord
     100
AcDbBlockTableRecord
       2
Part131869323
       0
BLOCK_RECORD
       5
200B
     330
106
     100
AcDbSymbolTableRecord
     100
AcDbBlockTableRecord
       2
Part1978494733
       0
BLOCK_RECORD
       5
200C
     330
106
     100
AcDbSymbolTableRecord
     100
AcDbBlockTableRecord
       2
Part318688471
       0
BLOCK_RECORD
       5
200D
     330
106
     100
AcDbSymbolTableRecord
     100
AcDbBlockTableRecord
       2
Part1935110264
       0
BLOCK_RECORD
       5
200E
     330
106
     100
AcDbSymbolTableRecord
     100
AcDbBlockTableRecord
       2
Part
       0
BLOCK_RECORD
       5
200F
     330
106
     100
AcDbSymbolTableRecord
     100
AcDbBlockTableRecord
       2
Part1570292409
       0
BLOCK_RECORD
       5
2010
     330
106
     100
AcDbSymbolTableRecord
     100
AcDbBlockTableRecord
       2
Part646898401
       0
BLOCK_RECORD
       5
2011
     330
106
     100
AcDbSymbolTableRecord
     100
AcDbBlockTableRecord
       2
Part466617222
       0
BLOCK_RECORD
       5
2012
     330
106
     100
AcDbSymbolTableRecord
     100
AcDbBlockTableRecord
       2
Part1950801516
       0
BLOCK_RECORD
       5
2013
     330
106
     100
AcDbSymbolTableRecord
     100
AcDbBlockTableRecord
       2
Part2117318049
       0
BLOCK_RECORD
       5
2014
     330
106
     100
AcDbSymbolTableRecord
     100
AcDbBlockTableRecord
       2
Part1666522677
       0
BLOCK_RECORD
       5
2015
     330
106
     100
AcDbSymbolTableRecord
     100
AcDbBlockTableRecord
       2
Part1641029674
       0
BLOCK_RECORD
       5
2016
     330
106
     100
AcDbSymbolTableRecord
     100
AcDbBlockTableRecord
       2
Part282244199
  0
ENDTAB
  0
ENDSEC
  0
SECTION
  2
BLOCKS
  0
BLOCK
  5
128
330
127
100
AcDbEntity
  8
0
100
AcDbBlockBegin
  2
*Model_Space
 70
     0
 10
0.0
 20
0.0
 30
0.0
  3
*Model_Space
  1

  0
ENDBLK
  5
129
330
127
100
AcDbEntity
  8
0
100
AcDbBlockEnd
  0
BLOCK
  5
124
330
123
100
AcDbEntity
 67
     1
  8
0
100
AcDbBlockBegin
  2
*Paper_Space
 70
     0
 10
0.0
 20
0.0
 30
0.0
  3
*Paper_Space
  1

  0
ENDBLK
  5
125
330
123
100
AcDbEntity
 67
     1
  8
0
100
AcDbBlockEnd
  0
BLOCK
  5
131
330
130
100
AcDbEntity
  8
0
100
AcDbBlockBegin
  2
$MODEL_SPACE
 70
     0
 10
0.0
 20
0.0
 30
0.0
  3
$MODEL_SPACE
  1

  0
ENDBLK
  5
21
330
130
100
AcDbEntity
  8
0
100
AcDbBlockEnd
  0
BLOCK
  5
133
330
132
100
AcDbEntity
  8
0
100
AcDbBlockBegin
  2
$PAPER_SPACE
 70
     0
 10
0.0
 20
0.0
 30
0.0
  3
$PAPER_SPACE
  1

  0
ENDBLK
  5
D5
330
132
100
AcDbEntity
  8
0
100
AcDbBlockEnd
       0
BLOCK
       5
2017
     330
2000
     100
AcDbEntity
       8
0
     100
AcDbBlockBegin
       2
Part660251976
      70
0
      10
-30
      20
-30
      30
0
       3
Part660251976
       1

       4
CypCutBlock
       0
LWPOLYLINE
       5
2018
     100
AcDbEntity
       8
1
     100
AcDbPolyline
      90
8
      70
1
      10
15.1
      20
14.1
      42
0.414213562373096
      10
14.1
      20
15.1
      42
0
      10
-14.1
      20
15.1
      42
0.414213562373094
      10
-15.1
      20
14.1
      42
0
      10
-15.1
      20
-14.1
      42
0.414213562373092
      10
-14.1
      20
-15.1
      42
0
      10
14.1
      20
-15.1
      42
0.414213562373095
      10
15.1
      20
-14.1
      42
0
    1001
FS_CYPCUT
    1000
Channel
    1070
1
    1000
LeadIn
    1002
{
    1070
3
    1040
1.5177304964539
    1040
1.5707963267949
    1040
0.5
    1040
0.5
    1070
0
    1040
0.5
    1070
0
    1002
}
    1000
LeadOut
    1002
{
    1070
0
    1040
0
    1040
0
    1040
0
    1070
0
    1002
}
    1000
IsFill
    1070
0
    1000
PathStart
    1040
1.5
    1000
ToolCompensation
    1002
{
    1070
0
    1040
0
    1070
0
    1002
}
    1000
MicroConnect
    1002
{
    1070
1
    1040
1.5
    1041
0.5
    1042
0
    1002
}
       0
LWPOLYLINE
       5
2019
     100
AcDbEntity
       8
1
     100
AcDbPolyline
      90
8
      70
1
      10
30
      20
26
      42
0.414213562373096
      10
26
      20
30
      42
0
      10
-26
      20
30
      42
0.414213562373096
      10
-30
      20
26
      42
0
      10
-30
      20
-26
      42
0.414213562373095
      10
-26
      20
-30
      42
0
      10
26
      20
-30
      42
0.414213562373095
      10
30
      20
-26
      42
0
    1001
FS_CYPCUT
    1000
Channel
    1070
1
    1000
LeadIn
    1002
{
    1070
3
    1040
1.50961538461538
    1040
1.5707963267949
    1040
0.5
    1040
0.5
    1070
0
    1040
0.5
    1070
0
    1002
}
    1000
LeadOut
    1002
{
    1070
0
    1040
0
    1040
0
    1040
0
    1070
0
    1002
}
    1000
IsFill
    1070
1
    1000
PathStart
    1040
1.5
    1000
ToolCompensation
    1002
{
    1070
0
    1040
0
    1070
0
    1002
}
    1000
MicroConnect
    1002
{
    1070
2
    1040
1.5
    1041
0.5
    1042
0
    1040
5.5
    1041
0.5
    1042
0
    1002
}
       0
ENDBLK
       5
201A
     330
2000
     100
AcDbEntity
       8
0
     100
AcDbBlockEnd
       0
BLOCK
       5
201B
     330
2001
     100
AcDbEntity
       8
0
     100
AcDbBlockBegin
       2
Part86735076
      70
0
      10
-20
      20
-20
      30
0
       3
Part86735076
       1

       4
CypCutBlock
       0
CIRCLE
       5
201C
     100
AcDbEntity
       8
1
     100
AcDbCircle
      10
0
      20
0
      30
0
      40
5.25
    1001
FS_CYPCUT
    1000
Channel
    1070
1
    1000
LeadIn
    1002
{
    1070
3
    1040
0
    1040
1.5707963267949
    1040
0.5
    1040
0.5
    1070
0
    1040
0.5
    1070
0
    1002
}
    1000
LeadOut
    1002
{
    1070
0
    1040
0
    1040
0
    1040
0
    1070
0
    1002
}
    1000
IsFill
    1070
0
    1000
PathStart
    1040
0
    1000
ToolCompensation
    1002
{
    1070
0
    1040
0
    1070
0
    1002
}
       0
LWPOLYLINE
       5
201D
     100
AcDbEntity
       8
1
     100
AcDbPolyline
      90
8
      70
1
      10
20
      20
14
      42
0
      10
20
      20
-14
      42
-0.414213562373095
      10
14
      20
-20
      42
0
      10
-14
      20
-20
      42
-0.414213562373096
      10
-20
      20
-14
      42
0
      10
-20
      20
14
      42
-0.414213562373095
      10
-14
      20
20
      42
0
      10
14
      20
20
      42
-0.414213562373096
    1001
FS_CYPCUT
    1000
Channel
    1070
1
    1000
LeadIn
    1002
{
    1070
3
    1040
0.515336745571429
    1040
1.5707963267949
    1040
0.5
    1040
0.5
    1070
0
    1040
0.5
    1070
0
    1002
}
    1000
LeadOut
    1002
{
    1070
0
    1040
0
    1040
0
    1040
0
    1070
0
    1002
}
    1000
IsFill
    1070
1
    1000
PathStart
    1040
0.5
    1000
ToolCompensation
    1002
{
    1070
0
    1040
0
    1070
0
    1002
}
    1000
MicroConnect
    1002
{
    1070
2
    1040
0.486765317
    1041
0.8
    1042
0
    1040
4.5
    1041
0.8
    1042
0
    1002
}
       0
ENDBLK
       5
201E
     330
2001
     100
AcDbEntity
       8
0
     100
AcDbBlockEnd
       0
BLOCK
       5
201F
     330
2002
     100
AcDbEntity
       8
0
     100
AcDbBlockBegin
       2
Part796839459
      70
0
      10
-30
      20
-30
      30
0
       3
Part796839459
       1

       4
CypCutBlock
       0
LWPOLYLINE
       5
2020
     100
AcDbEntity
       8
1
     100
AcDbPolyline
      90
8
      70
1
      10
15.1
      20
14.1
      42
0.414213562373096
      10
14.1
      20
15.1
      42
0
      10
-14.1
      20
15.1
      42
0.414213562373094
      10
-15.1
      20
14.1
      42
0
      10
-15.1
      20
-14.1
      42
0.414213562373092
      10
-14.1
      20
-15.1
      42
0
      10
14.1
      20
-15.1
      42
0.414213562373095
      10
15.1
      20
-14.1
      42
0
    1001
FS_CYPCUT
    1000
Channel
    1070
1
    1000
LeadIn
    1002
{
    1070
3
    1040
1.5177304964539
    1040
1.5707963267949
    1040
0.5
    1040
0.5
    1070
0
    1040
0.5
    1070
0
    1002
}
    1000
LeadOut
    1002
{
    1070
0
    1040
0
    1040
0
    1040
0
    1070
0
    1002
}
    1000
IsFill
    1070
0
    1000
PathStart
    1040
1.5
    1000
ToolCompensation
    1002
{
    1070
0
    1040
0
    1070
0
    1002
}
    1000
MicroConnect
    1002
{
    1070
1
    1040
1.5
    1041
0.5
    1042
0
    1002
}
       0
LWPOLYLINE
       5
2021
     100
AcDbEntity
       8
1
     100
AcDbPolyline
      90
8
      70
1
      10
30
      20
26
      42
0.414213562373096
      10
26
      20
30
      42
0
      10
-26
      20
30
      42
0.414213562373096
      10
-30
      20
26
      42
0
      10
-30
      20
-26
      42
0.414213562373095
      10
-26
      20
-30
      42
0
      10
26
      20
-30
      42
0.414213562373095
      10
30
      20
-26
      42
0
    1001
FS_CYPCUT
    1000
Channel
    1070
1
    1000
LeadIn
    1002
{
    1070
3
    1040
1.50961538461538
    1040
1.5707963267949
    1040
0.5
    1040
0.5
    1070
0
    1040
0.5
    1070
0
    1002
}
    1000
LeadOut
    1002
{
    1070
0
    1040
0
    1040
0
    1040
0
    1070
0
    1002
}
    1000
IsFill
    1070
1
    1000
PathStart
    1040
1.5
    1000
ToolCompensation
    1002
{
    1070
0
    1040
0
    1070
0
    1002
}
    1000
MicroConnect
    1002
{
    1070
2
    1040
1.5
    1041
0.5
    1042
0
    1040
5.5
    1041
0.5
    1042
0
    1002
}
       0
ENDBLK
       5
2022
     330
2002
     100
AcDbEntity
       8
0
     100
AcDbBlockEnd
       0
BLOCK
       5
2023
     330
2003
     100
AcDbEntity
       8
0
     100
AcDbBlockBegin
       2
Part991840590
      70
0
      10
-47.7419431
      20
-35
      30
0
       3
Part991840590
       1

       4
CypCutBlock
       0
CIRCLE
       5
2024
     100
AcDbEntity
       8
1
     100
AcDbCircle
      10
-27.7419430933
      20
0
      30
0
      40
7.5
    1001
FS_CYPCUT
    1000
Channel
    1070
1
    1000
LeadIn
    1002
{
    1070
3
    1040
0
    1040
1.5707963267949
    1040
0.5
    1040
0.5
    1070
0
    1040
0.5
    1070
0
    1002
}
    1000
LeadOut
    1002
{
    1070
0
    1040
0
    1040
0
    1040
0
    1070
0
    1002
}
    1000
IsFill
    1070
0
    1000
PathStart
    1040
0
    1000
ToolCompensation
    1002
{
    1070
0
    1040
0
    1070
0
    1002
}
       0
LINE
       5
2025
     100
AcDbEntity
       8
2
     100
AcDbLine
      10
13.1057997934
      20
35
      30
0
      11
13.1057997934
      21
-35
      31
0
    1001
FS_CYPCUT
    1000
Channel
    1070
2
    1000
LeadIn
    1002
{
    1070
3
    1040
0.00714285714285714
    1040
1.5707963267949
    1040
0.5
    1040
0.5
    1070
0
    1040
0.5
    1070
0
    1002
}
    1000
LeadOut
    1002
{
    1070
0
    1040
0
    1040
0
    1040
0
    1070
0
    1002
}
    1000
IsFill
    1070
0
    1000
PathStart
    1040
0
    1000
ToolCompensation
    1002
{
    1070
0
    1040
0
    1070
0
    1002
}
    1000
MicroConnect
    1002
{
    1070
1
    1040
0
    1041
0.5
    1042
0
    1002
}
       0
LINE
       5
2026
     100
AcDbEntity
       8
2
     100
AcDbLine
      10
40.0412855667
      20
-35
      30
0
      11
40.0412855667
      21
35
      31
0
    1001
FS_CYPCUT
    1000
Channel
    1070
2
    1000
LeadIn
    1002
{
    1070
3
    1040
0
    1040
1.5707963267949
    1040
0.5
    1040
0.5
    1070
0
    1040
0.5
    1070
0
    1002
}
    1000
LeadOut
    1002
{
    1070
0
    1040
0
    1040
0
    1040
0
    1070
0
    1002
}
    1000
IsFill
    1070
0
    1000
PathStart
    1040
0
    1000
ToolCompensation
    1002
{
    1070
0
    1040
0
    1070
0
    1002
}
       0
LINE
       5
2027
     100
AcDbEntity
       8
2
     100
AcDbLine
      10
45.6490284534
      20
40.6077428867
      30
0
      11
146.6090284534
      21
40.6077428867
      31
0
    1001
FS_CYPCUT
    1000
Channel
    1070
2
    1000
LeadIn
    1002
{
    1070
3
    1040
0
    1040
1.5707963267949
    1040
0.5
    1040
0.5
    1070
0
    1040
0.5
    1070
0
    1002
}
    1000
LeadOut
    1002
{
    1070
0
    1040
0
    1040
0
    1040
0
    1070
0
    1002
}
    1000
IsFill
    1070
0
    1000
PathStart
    1040
0
    1000
ToolCompensation
    1002
{
    1070
0
    1040
0
    1070
0
    1002
}
       0
LWPOLYLINE
       5
2028
     100
AcDbEntity
       8
1
     100
AcDbPolyline
      90
4
      70
1
      10
128.6290284534
      20
6.50000000000002
      42
-1
      10
128.6290284534
      20
-6.50000000000002
      42
0
      10
63.6290284534
      20
-6.5
      42
-1
      10
63.6290284534
      20
6.50000000000001
      42
0
    1001
FS_CYPCUT
    1000
Channel
    1070
1
    1000
LeadIn
    1002
{
    1070
3
    1040
1.5
    1040
1.5707963267949
    1040
0.5
    1040
0.5
    1070
0
    1040
0.5
    1070
0
    1002
}
    1000
LeadOut
    1002
{
    1070
0
    1040
0
    1040
0
    1040
0
    1070
0
    1002
}
    1000
IsFill
    1070
0
    1000
PathStart
    1040
1.5
    1000
ToolCompensation
    1002
{
    1070
0
    1040
0
    1070
0
    1002
}
       0
LINE
       5
2029
     100
AcDbEntity
       8
2
     100
AcDbLine
      10
152.21677134
      20
-35
      30
0
      11
152.21677134
      21
35
      31
0
    1001
FS_CYPCUT
    1000
Channel
    1070
2
    1000
LeadIn
    1002
{
    1070
3
    1040
0
    1040
1.5707963267949
    1040
0.5
    1040
0.5
    1070
0
    1040
0.5
    1070
0
    1002
}
    1000
LeadOut
    1002
{
    1070
0
    1040
0
    1040
0
    1040
0
    1070
0
    1002
}
    1000
IsFill
    1070
0
    1000
PathStart
    1040
0
    1000
ToolCompensation
    1002
{
    1070
0
    1040
0
    1070
0
    1002
}
       0
LINE
       5
202A
     100
AcDbEntity
       8
2
     100
AcDbLine
      10
179.1522571133
      20
35
      30
0
      11
179.1522571133
      21
-35
      31
0
    1001
FS_CYPCUT
    1000
Channel
    1070
2
    1000
LeadIn
    1002
{
    1070
3
    1040
0.00714285714285714
    1040
1.5707963267949
    1040
0.5
    1040
0.5
    1070
0
    1040
0.5
    1070
0
    1002
}
    1000
LeadOut
    1002
{
    1070
0
    1040
0
    1040
0
    1040
0
    1070
0
    1002
}
    1000
IsFill
    1070
0
    1000
PathStart
    1040
0
    1000
ToolCompensation
    1002
{
    1070
0
    1040
0
    1070
0
    1002
}
    1000
MicroConnect
    1002
{
    1070
1
    1040
0
    1041
0.5
    1042
0
    1002
}
       0
CIRCLE
       5
202B
     100
AcDbEntity
       8
1
     100
AcDbCircle
      10
220
      20
0
      30
0
      40
7.50000000000002
    1001
FS_CYPCUT
    1000
Channel
    1070
1
    1000
LeadIn
    1002
{
    1070
3
    1040
0
    1040
1.5707963267949
    1040
0.5
    1040
0.5
    1070
0
    1040
0.5
    1070
0
    1002
}
    1000
LeadOut
    1002
{
    1070
0
    1040
0
    1040
0
    1040
0
    1070
0
    1002
}
    1000
IsFill
    1070
0
    1000
PathStart
    1040
1
    1000
ToolCompensation
    1002
{
    1070
0
    1040
0
    1070
0
    1002
}
       0
LWPOLYLINE
       5
202C
     100
AcDbEntity
       8
1
     100
AcDbPolyline
      90
16
      70
1
      10
240
      20
17.7648413889
      42
0
      10
240
      20
-17.7648413889
      42
-0.331571103622499
      10
237.8582634025
      20
-20.6394516115
      42
0
      10
189.76
      20
-35
      42
0
      10
2.4980569067
      20
-35
      42
0
      10
-45.6002064957529
      20
-20.6394516115232
      42
-0.331571103622507
      10
-47.7419430933
      20
-17.7648413889
      42
0
      10
-47.7419430933
      20
17.7648413889
      42
-0.331571103622504
      10
-45.6002064957
      20
20.6394516115
      42
0
      10
2.4980569067
      20
35
      42
0
      10
45.6490284534
      20
35
      42
0
      10
45.6490284534
      20
71.4554857733
      42
0
      10
146.6090284534
      20
71.4554857733
      42
0
      10
146.6090284534
      20
35
      42
0
      10
189.76
      20
35
      42
0
      10
237.8582634025
      20
20.6394516115
      42
-0.331571103622501
    1001
FS_CYPCUT
    1000
Channel
    1070
1
    1000
LeadIn
    1002
{
    1070
3
    1040
3.5
    1040
1.5707963267949
    1040
0.5
    1040
0.5
    1070
0
    1040
0.5
    1070
0
    1002
}
    1000
LeadOut
    1002
{
    1070
0
    1040
0
    1040
0
    1040
0
    1070
0
    1002
}
    1000
IsFill
    1070
1
    1000
PathStart
    1040
3.5
    1000
ToolCompensation
    1002
{
    1070
0
    1040
0
    1070
0
    1002
}
    1000
MicroConnect
    1002
{
    1070
2
    1040
3.49334595
    1041
0.5
    1042
0
    1040
11.4572776
    1041
0.5
    1042
0
    1002
}
       0
ENDBLK
       5
202D
     330
2003
     100
AcDbEntity
       8
0
     100
AcDbBlockEnd
       0
BLOCK
       5
202E
     330
2004
     100
AcDbEntity
       8
0
     100
AcDbBlockBegin
       2
Part1550001671
      70
0
      10
-20
      20
-129.81802
      30
0
       3
Part1550001671
       1

       4
CypCutBlock
       0
LWPOLYLINE
       5
202F
     100
AcDbEntity
       8
1
     100
AcDbPolyline
      90
4
      70
1
      10
4.5
      20
-93.8180198675
      42
1
      10
-4.5
      20
-93.8180198675
      42
0
      10
-4.5
      20
-121.8180198675
      42
1
      10
4.5
      20
-121.8180198675
      42
0
    1001
FS_CYPCUT
    1000
Channel
    1070
1
    1000
LeadIn
    1002
{
    1070
3
    1040
1.5
    1040
1.5707963267949
    1040
0.5
    1040
0.5
    1070
0
    1040
0.5
    1070
0
    1002
}
    1000
LeadOut
    1002
{
    1070
0
    1040
0
    1040
0
    1040
0
    1070
0
    1002
}
    1000
IsFill
    1070
0
    1000
PathStart
    1040
1.5
    1000
ToolCompensation
    1002
{
    1070
0
    1040
0
    1070
0
    1002
}
       0
LINE
       5
2030
     100
AcDbEntity
       8
2
     100
AcDbLine
      10
-20
      20
-71.6394015132
      30
0
      11
20
      21
-71.6394015132
      31
0
    1001
FS_CYPCUT
    1000
Channel
    1070
2
    1000
LeadIn
    1002
{
    1070
3
    1040
0
    1040
1.5707963267949
    1040
0.5
    1040
0.5
    1070
0
    1040
0.5
    1070
0
    1002
}
    1000
LeadOut
    1002
{
    1070
0
    1040
0
    1040
0
    1040
0
    1070
0
    1002
}
    1000
IsFill
    1070
0
    1000
PathStart
    1040
0
    1000
ToolCompensation
    1002
{
    1070
0
    1040
0
    1070
0
    1002
}
    1000
MicroConnect
    1002
{
    1070
1
    1040
1
    1041
0.5
    1042
0
    1002
}
       0
LINE
       5
2031
     100
AcDbEntity
       8
2
     100
AcDbLine
      10
20
      20
121.3554983399
      30
0
      11
-20
      21
121.3554983399
      31
0
    1001
FS_CYPCUT
    1000
Channel
    1070
2
    1000
LeadIn
    1002
{
    1070
3
    1040
0.0125
    1040
1.5707963267949
    1040
0.5
    1040
0.5
    1070
0
    1040
0.5
    1070
0
    1002
}
    1000
LeadOut
    1002
{
    1070
0
    1040
0
    1040
0
    1040
0
    1070
0
    1002
}
    1000
IsFill
    1070
0
    1000
PathStart
    1040
0
    1000
ToolCompensation
    1002
{
    1070
0
    1040
0
    1070
0
    1002
}
    1000
MicroConnect
    1002
{
    1070
1
    1040
0
    1041
0.5
    1042
0
    1002
}
       0
LWPOLYLINE
       5
2032
     100
AcDbEntity
       8
1
     100
AcDbPolyline
      90
4
      70
1
      10
4.5
      20
152.1488219997
      42
0
      10
4.5
      20
132.1488219997
      42
-1
      10
-4.5
      20
132.1488219997
      42
0
      10
-4.5
      20
152.1488219997
      42
-1
    1001
FS_CYPCUT
    1000
Channel
    1070
1
    1000
LeadIn
    1002
{
    1070
3
    1040
0.5
    1040
1.5707963267949
    1040
0.5
    1040
0.5
    1070
0
    1040
0.5
    1070
0
    1002
}
    1000
LeadOut
    1002
{
    1070
0
    1040
0
    1040
0
    1040
0
    1070
0
    1002
}
    1000
IsFill
    1070
0
    1000
PathStart
    1040
0.5
    1000
ToolCompensation
    1002
{
    1070
0
    1040
0
    1070
0
    1002
}
       0
LWPOLYLINE
       5
2033
     100
AcDbEntity
       8
1
     100
AcDbPolyline
      90
8
      70
1
      10
19.9999999999999
      20
155.1488219997
      42
0.414213562373097
      10
15
      20
160.1488219997
      42
0
      10
-15
      20
160.1488219997
      42
0.414213562373097
      10
-20
      20
155.1488219997
      42
0
      10
-20
      20
-124.8180198675
      42
0.414213562373092
      10
-15
      20
-129.8180198675
      42
0
      10
15
      20
-129.8180198675
      42
0.414213562373096
      10
20
      20
-124.8180198675
      42
0
    1001
FS_CYPCUT
    1000
Channel
    1070
1
    1000
LeadIn
    1002
{
    1070
3
    1040
3.50178592577844
    1040
1.5707963267949
    1040
0.5
    1040
0.5
    1070
0
    1040
0.5
    1070
0
    1002
}
    1000
LeadOut
    1002
{
    1070
0
    1040
0
    1040
0
    1040
0
    1070
0
    1002
}
    1000
IsFill
    1070
1
    1000
PathStart
    1040
3.5
    1000
ToolCompensation
    1002
{
    1070
0
    1040
0
    1070
0
    1002
}
    1000
MicroConnect
    1002
{
    1070
1
    1040
3.5
    1041
0.5
    1042
0
    1002
}
       0
ENDBLK
       5
2034
     330
2004
     100
AcDbEntity
       8
0
     100
AcDbBlockEnd
       0
BLOCK
       5
2035
     330
2005
     100
AcDbEntity
       8
0
     100
AcDbBlockBegin
       2
Part1625593523
      70
0
      10
-30
      20
-30
      30
0
       3
Part1625593523
       1

       4
CypCutBlock
       0
LWPOLYLINE
       5
2036
     100
AcDbEntity
       8
1
     100
AcDbPolyline
      90
8
      70
1
      10
15.1
      20
14.1
      42
0.414213562373096
      10
14.1
      20
15.1
      42
0
      10
-14.1
      20
15.1
      42
0.414213562373094
      10
-15.1
      20
14.1
      42
0
      10
-15.1
      20
-14.1
      42
0.414213562373092
      10
-14.1
      20
-15.1
      42
0
      10
14.1
      20
-15.1
      42
0.414213562373095
      10
15.1
      20
-14.1
      42
0
    1001
FS_CYPCUT
    1000
Channel
    1070
1
    1000
LeadIn
    1002
{
    1070
3
    1040
1.5177304964539
    1040
1.5707963267949
    1040
0.5
    1040
0.5
    1070
0
    1040
0.5
    1070
0
    1002
}
    1000
LeadOut
    1002
{
    1070
0
    1040
0
    1040
0
    1040
0
    1070
0
    1002
}
    1000
IsFill
    1070
0
    1000
PathStart
    1040
1.5
    1000
ToolCompensation
    1002
{
    1070
0
    1040
0
    1070
0
    1002
}
    1000
MicroConnect
    1002
{
    1070
1
    1040
1.5
    1041
0.5
    1042
0
    1002
}
       0
LWPOLYLINE
       5
2037
     100
AcDbEntity
       8
1
     100
AcDbPolyline
      90
8
      70
1
      10
30
      20
26
      42
0.414213562373096
      10
26
      20
30
      42
0
      10
-26
      20
30
      42
0.414213562373096
      10
-30
      20
26
      42
0
      10
-30
      20
-26
      42
0.414213562373095
      10
-26
      20
-30
      42
0
      10
26
      20
-30
      42
0.414213562373095
      10
30
      20
-26
      42
0
    1001
FS_CYPCUT
    1000
Channel
    1070
1
    1000
LeadIn
    1002
{
    1070
3
    1040
1.50961538461538
    1040
1.5707963267949
    1040
0.5
    1040
0.5
    1070
0
    1040
0.5
    1070
0
    1002
}
    1000
LeadOut
    1002
{
    1070
0
    1040
0
    1040
0
    1040
0
    1070
0
    1002
}
    1000
IsFill
    1070
1
    1000
PathStart
    1040
1.5
    1000
ToolCompensation
    1002
{
    1070
0
    1040
0
    1070
0
    1002
}
    1000
MicroConnect
    1002
{
    1070
2
    1040
1.5
    1041
0.5
    1042
0
    1040
5.5
    1041
0.5
    1042
0
    1002
}
       0
ENDBLK
       5
2038
     330
2005
     100
AcDbEntity
       8
0
     100
AcDbBlockEnd
       0
BLOCK
       5
2039
     330
2006
     100
AcDbEntity
       8
0
     100
AcDbBlockBegin
       2
Part1639863852
      70
0
      10
-47.7
      20
-18.5730988
      30
0
       3
Part1639863852
       1

       4
CypCutBlock
       0
LINE
       5
203A
     100
AcDbEntity
       8
2
     100
AcDbLine
      10
-25.4
      20
100.7521359358
      30
0
      11
0
      21
100.7521359358
      31
0
    1001
FS_CYPCUT
    1000
Channel
    1070
2
    1000
LeadIn
    1002
{
    1070
3
    1040
0
    1040
1.5707963267949
    1040
0.5
    1040
0.5
    1070
0
    1040
0.5
    1070
0
    1002
}
    1000
LeadOut
    1002
{
    1070
0
    1040
0
    1040
0
    1040
0
    1070
0
    1002
}
    1000
IsFill
    1070
0
    1000
PathStart
    1040
0
    1000
ToolCompensation
    1002
{
    1070
0
    1040
0
    1070
0
    1002
}
       0
LINE
       5
203B
     100
AcDbEntity
       8
2
     100
AcDbLine
      10
0
      20
362.7314078075
      30
0
      11
-25.4
      21
362.7314078075
      31
0
    1001
FS_CYPCUT
    1000
Channel
    1070
2
    1000
LeadIn
    1002
{
    1070
3
    1040
0
    1040
1.5707963267949
    1040
0.5
    1040
0.5
    1070
0
    1040
0.5
    1070
0
    1002
}
    1000
LeadOut
    1002
{
    1070
0
    1040
0
    1040
0
    1040
0
    1070
0
    1002
}
    1000
IsFill
    1070
0
    1000
PathStart
    1040
0
    1000
ToolCompensation
    1002
{
    1070
0
    1040
0
    1070
0
    1002
}
       0
LWPOLYLINE
       5
203C
     100
AcDbEntity
       8
1
     100
AcDbPolyline
      90
24
      70
1
      10
22.3
      20
482.0566425693
      42
0
      10
9.80000000000003
      20
482.0566425693
      42
-1
      10
-35.2
      20
482.0566425693
      42
0
      10
-47.7000000000005
      20
482.0566425693
      42
0.23786367255743
      10
-33.5090909091009
      20
453.914472511983
      42
-0.237863672557428
      10
-25.4
      20
437.8332324792
      42
0
      10
-25.4
      20
406.2635437433
      42
0
      10
-20.65
      20
406.2635437433
      42
0
      10
-20.65
      20
380.7635437433
      42
0
      10
-25.4
      20
380.7635437433
      42
0
      10
-25.4
      20
82.72
      42
0
      10
-20.65
      20
82.72
      42
0
      10
-20.65
      20
57.22
      42
0
      10
-25.4
      20
57.22
      42
0
      10
-25.4
      20
25.6503112641
      42
-0.237863672557431
      10
-33.5090909091009
      20
9.56907123131728
      42
0.237863672557431
      10
-47.7
      20
-18.573098826
      42
0
      10
-35.2
      20
-18.573098826
      42
-1
      10
9.80000000000003
      20
-18.573098826
      42
0
      10
22.3
      20
-18.573098826
      42
0.237863672557431
      10
8.10909090907336
      20
9.5690712313697
      42
-0.237863672557431
      10
-2.8421709430404E-14
      20
25.6503112641
      42
0
      10
0
      20
437.8332324792
      42
-0.237863672557428
      10
8.10909090910093
      20
453.914472511983
      42
0.23786367255743
    1001
FS_CYPCUT
    1000
Channel
    1070
1
    1000
LeadIn
    1002
{
    1070
3
    1040
21.5012130536572
    1040
1.5707963267949
    1040
0.5
    1040
0.5
    1070
0
    1040
0.5
    1070
0
    1002
}
    1000
LeadOut
    1002
{
    1070
0
    1040
0
    1040
0
    1040
0
    1070
0
    1002
}
    1000
IsFill
    1070
1
    1000
PathStart
    1040
21.5
    1000
ToolCompensation
    1002
{
    1070
0
    1040
0
    1070
0
    1002
}
    1000
MicroConnect
    1002
{
    1070
4
    1040
1.5
    1041
0.5
    1042
0
    1040
9.53960316
    1041
0.5
    1042
0
    1040
17.5
    1041
0.5
    1042
0
    1040
21.5
    1041
0.5
    1042
0
    1002
}
       0
ENDBLK
       5
203D
     330
2006
     100
AcDbEntity
       8
0
     100
AcDbBlockEnd
       0
BLOCK
       5
203E
     330
2007
     100
AcDbEntity
       8
0
     100
AcDbBlockBegin
       2
Part707347194
      70
0
      10
-20
      20
-20
      30
0
       3
Part707347194
       1

       4
CypCutBlock
       0
CIRCLE
       5
203F
     100
AcDbEntity
       8
1
     100
AcDbCircle
      10
0
      20
0
      30
0
      40
5.25
    1001
FS_CYPCUT
    1000
Channel
    1070
1
    1000
LeadIn
    1002
{
    1070
3
    1040
0
    1040
1.5707963267949
    1040
0.5
    1040
0.5
    1070
0
    1040
0.5
    1070
0
    1002
}
    1000
LeadOut
    1002
{
    1070
0
    1040
0
    1040
0
    1040
0
    1070
0
    1002
}
    1000
IsFill
    1070
0
    1000
PathStart
    1040
0
    1000
ToolCompensation
    1002
{
    1070
0
    1040
0
    1070
0
    1002
}
       0
LWPOLYLINE
       5
2040
     100
AcDbEntity
       8
1
     100
AcDbPolyline
      90
8
      70
1
      10
20
      20
14
      42
0
      10
20
      20
-14
      42
-0.414213562373095
      10
14
      20
-20
      42
0
      10
-14
      20
-20
      42
-0.414213562373096
      10
-20
      20
-14
      42
0
      10
-20
      20
14
      42
-0.414213562373095
      10
-14
      20
20
      42
0
      10
14
      20
20
      42
-0.414213562373096
    1001
FS_CYPCUT
    1000
Channel
    1070
1
    1000
LeadIn
    1002
{
    1070
3
    1040
0.515336745571429
    1040
1.5707963267949
    1040
0.5
    1040
0.5
    1070
0
    1040
0.5
    1070
0
    1002
}
    1000
LeadOut
    1002
{
    1070
0
    1040
0
    1040
0
    1040
0
    1070
0
    1002
}
    1000
IsFill
    1070
1
    1000
PathStart
    1040
0.5
    1000
ToolCompensation
    1002
{
    1070
0
    1040
0
    1070
0
    1002
}
    1000
MicroConnect
    1002
{
    1070
2
    1040
0.486765317
    1041
0.8
    1042
0
    1040
4.5
    1041
0.8
    1042
0
    1002
}
       0
ENDBLK
       5
2041
     330
2007
     100
AcDbEntity
       8
0
     100
AcDbBlockEnd
       0
BLOCK
       5
2042
     330
2008
     100
AcDbEntity
       8
0
     100
AcDbBlockBegin
       2
Part1814344241
      70
0
      10
-20
      20
-20
      30
0
       3
Part1814344241
       1

       4
CypCutBlock
       0
CIRCLE
       5
2043
     100
AcDbEntity
       8
1
     100
AcDbCircle
      10
0
      20
0
      30
0
      40
5.25
    1001
FS_CYPCUT
    1000
Channel
    1070
1
    1000
LeadIn
    1002
{
    1070
3
    1040
0
    1040
1.5707963267949
    1040
0.5
    1040
0.5
    1070
0
    1040
0.5
    1070
0
    1002
}
    1000
LeadOut
    1002
{
    1070
0
    1040
0
    1040
0
    1040
0
    1070
0
    1002
}
    1000
IsFill
    1070
0
    1000
PathStart
    1040
0
    1000
ToolCompensation
    1002
{
    1070
0
    1040
0
    1070
0
    1002
}
       0
LWPOLYLINE
       5
2044
     100
AcDbEntity
       8
1
     100
AcDbPolyline
      90
8
      70
1
      10
20
      20
14
      42
0
      10
20
      20
-14
      42
-0.414213562373095
      10
14
      20
-20
      42
0
      10
-14
      20
-20
      42
-0.414213562373096
      10
-20
      20
-14
      42
0
      10
-20
      20
14
      42
-0.414213562373095
      10
-14
      20
20
      42
0
      10
14
      20
20
      42
-0.414213562373096
    1001
FS_CYPCUT
    1000
Channel
    1070
1
    1000
LeadIn
    1002
{
    1070
3
    1040
0.515336745571429
    1040
1.5707963267949
    1040
0.5
    1040
0.5
    1070
0
    1040
0.5
    1070
0
    1002
}
    1000
LeadOut
    1002
{
    1070
0
    1040
0
    1040
0
    1040
0
    1070
0
    1002
}
    1000
IsFill
    1070
1
    1000
PathStart
    1040
0.5
    1000
ToolCompensation
    1002
{
    1070
0
    1040
0
    1070
0
    1002
}
    1000
MicroConnect
    1002
{
    1070
2
    1040
0.486765317
    1041
0.8
    1042
0
    1040
4.5
    1041
0.8
    1042
0
    1002
}
       0
ENDBLK
       5
2045
     330
2008
     100
AcDbEntity
       8
0
     100
AcDbBlockEnd
       0
BLOCK
       5
2046
     330
2009
     100
AcDbEntity
       8
0
     100
AcDbBlockBegin
       2
Part555330979
      70
0
      10
-25.4
      20
0
      30
0
       3
Part555330979
       1

       4
CypCutBlock
       0
CIRCLE
       5
2047
     100
AcDbEntity
       8
1
     100
AcDbCircle
      10
-12.7
      20
10
      30
0
      40
4.50000000000001
    1001
FS_CYPCUT
    1000
Channel
    1070
1
    1000
LeadIn
    1002
{
    1070
3
    1040
0
    1040
1.5707963267949
    1040
0.5
    1040
0.5
    1070
0
    1040
0.5
    1070
0
    1002
}
    1000
LeadOut
    1002
{
    1070
0
    1040
0
    1040
0
    1040
0
    1070
0
    1002
}
    1000
IsFill
    1070
0
    1000
PathStart
    1040
0
    1000
ToolCompensation
    1002
{
    1070
0
    1040
0
    1070
0
    1002
}
       0
CIRCLE
       5
2048
     100
AcDbEntity
       8
1
     100
AcDbCircle
      10
-12.7
      20
50
      30
0
      40
4.50000000000003
    1001
FS_CYPCUT
    1000
Channel
    1070
1
    1000
LeadIn
    1002
{
    1070
3
    1040
0
    1040
1.5707963267949
    1040
0.5
    1040
0.5
    1070
0
    1040
0.5
    1070
0
    1002
}
    1000
LeadOut
    1002
{
    1070
0
    1040
0
    1040
0
    1040
0
    1070
0
    1002
}
    1000
IsFill
    1070
0
    1000
PathStart
    1040
1
    1000
ToolCompensation
    1002
{
    1070
0
    1040
0
    1070
0
    1002
}
       0
CIRCLE
       5
2049
     100
AcDbEntity
       8
1
     100
AcDbCircle
      10
-12.7
      20
90
      30
0
      40
4.5
    1001
FS_CYPCUT
    1000
Channel
    1070
1
    1000
LeadIn
    1002
{
    1070
3
    1040
0
    1040
1.5707963267949
    1040
0.5
    1040
0.5
    1070
0
    1040
0.5
    1070
0
    1002
}
    1000
LeadOut
    1002
{
    1070
0
    1040
0
    1040
0
    1040
0
    1070
0
    1002
}
    1000
IsFill
    1070
0
    1000
PathStart
    1040
1
    1000
ToolCompensation
    1002
{
    1070
0
    1040
0
    1070
0
    1002
}
       0
LWPOLYLINE
       5
204A
     100
AcDbEntity
       8
1
     100
AcDbPolyline
      90
8
      70
1
      10
0
      20
95
      42
0
      10
0
      20
5
      42
-0.414213562373095
      10
-5
      20
0
      42
0
      10
-20.4
      20
3.90798504668055E-14
      42
-0.414213562373095
      10
-25.4
      20
5
      42
0
      10
-25.4
      20
95
      42
-0.414213562373095
      10
-20.4
      20
100
      42
0
      10
-5
      20
100
      42
-0.414213562373095
    1001
FS_CYPCUT
    1000
Channel
    1070
1
    1000
LeadIn
    1002
{
    1070
3
    1040
0.5
    1040
1.5707963267949
    1040
0.5
    1040
0.5
    1070
0
    1040
0.5
    1070
0
    1002
}
    1000
LeadOut
    1002
{
    1070
0
    1040
0
    1040
0
    1040
0
    1070
0
    1002
}
    1000
IsFill
    1070
1
    1000
PathStart
    1040
0.5
    1000
ToolCompensation
    1002
{
    1070
0
    1040
0
    1070
0
    1002
}
    1000
MicroConnect
    1002
{
    1070
2
    1040
0.157633243
    1041
0.8
    1042
0
    1040
4.14498645
    1041
0.8
    1042
0
    1002
}
       0
ENDBLK
       5
204B
     330
2009
     100
AcDbEntity
       8
0
     100
AcDbBlockEnd
       0
BLOCK
       5
204C
     330
200A
     100
AcDbEntity
       8
0
     100
AcDbBlockBegin
       2
Part131869323
      70
0
      10
-47.7419431
      20
-35
      30
0
       3
Part131869323
       1

       4
CypCutBlock
       0
CIRCLE
       5
204D
     100
AcDbEntity
       8
1
     100
AcDbCircle
      10
-27.7419430933
      20
0
      30
0
      40
7.5
    1001
FS_CYPCUT
    1000
Channel
    1070
1
    1000
LeadIn
    1002
{
    1070
3
    1040
0
    1040
1.5707963267949
    1040
0.5
    1040
0.5
    1070
0
    1040
0.5
    1070
0
    1002
}
    1000
LeadOut
    1002
{
    1070
0
    1040
0
    1040
0
    1040
0
    1070
0
    1002
}
    1000
IsFill
    1070
0
    1000
PathStart
    1040
0
    1000
ToolCompensation
    1002
{
    1070
0
    1040
0
    1070
0
    1002
}
       0
LINE
       5
204E
     100
AcDbEntity
       8
2
     100
AcDbLine
      10
13.1057997934
      20
35
      30
0
      11
13.1057997934
      21
-35
      31
0
    1001
FS_CYPCUT
    1000
Channel
    1070
2
    1000
LeadIn
    1002
{
    1070
3
    1040
0.00714285714285714
    1040
1.5707963267949
    1040
0.5
    1040
0.5
    1070
0
    1040
0.5
    1070
0
    1002
}
    1000
LeadOut
    1002
{
    1070
0
    1040
0
    1040
0
    1040
0
    1070
0
    1002
}
    1000
IsFill
    1070
0
    1000
PathStart
    1040
0
    1000
ToolCompensation
    1002
{
    1070
0
    1040
0
    1070
0
    1002
}
    1000
MicroConnect
    1002
{
    1070
1
    1040
0
    1041
0.5
    1042
0
    1002
}
       0
LINE
       5
204F
     100
AcDbEntity
       8
2
     100
AcDbLine
      10
40.0412855667
      20
-35
      30
0
      11
40.0412855667
      21
35
      31
0
    1001
FS_CYPCUT
    1000
Channel
    1070
2
    1000
LeadIn
    1002
{
    1070
3
    1040
0
    1040
1.5707963267949
    1040
0.5
    1040
0.5
    1070
0
    1040
0.5
    1070
0
    1002
}
    1000
LeadOut
    1002
{
    1070
0
    1040
0
    1040
0
    1040
0
    1070
0
    1002
}
    1000
IsFill
    1070
0
    1000
PathStart
    1040
0
    1000
ToolCompensation
    1002
{
    1070
0
    1040
0
    1070
0
    1002
}
       0
LINE
       5
2050
     100
AcDbEntity
       8
2
     100
AcDbLine
      10
45.6490284534
      20
40.6077428867
      30
0
      11
146.6090284534
      21
40.6077428867
      31
0
    1001
FS_CYPCUT
    1000
Channel
    1070
2
    1000
LeadIn
    1002
{
    1070
3
    1040
0
    1040
1.5707963267949
    1040
0.5
    1040
0.5
    1070
0
    1040
0.5
    1070
0
    1002
}
    1000
LeadOut
    1002
{
    1070
0
    1040
0
    1040
0
    1040
0
    1070
0
    1002
}
    1000
IsFill
    1070
0
    1000
PathStart
    1040
0
    1000
ToolCompensation
    1002
{
    1070
0
    1040
0
    1070
0
    1002
}
       0
LWPOLYLINE
       5
2051
     100
AcDbEntity
       8
1
     100
AcDbPolyline
      90
4
      70
1
      10
128.6290284534
      20
6.50000000000002
      42
-1
      10
128.6290284534
      20
-6.50000000000002
      42
0
      10
63.6290284534
      20
-6.5
      42
-1
      10
63.6290284534
      20
6.50000000000001
      42
0
    1001
FS_CYPCUT
    1000
Channel
    1070
1
    1000
LeadIn
    1002
{
    1070
3
    1040
1.5
    1040
1.5707963267949
    1040
0.5
    1040
0.5
    1070
0
    1040
0.5
    1070
0
    1002
}
    1000
LeadOut
    1002
{
    1070
0
    1040
0
    1040
0
    1040
0
    1070
0
    1002
}
    1000
IsFill
    1070
0
    1000
PathStart
    1040
1.5
    1000
ToolCompensation
    1002
{
    1070
0
    1040
0
    1070
0
    1002
}
       0
LINE
       5
2052
     100
AcDbEntity
       8
2
     100
AcDbLine
      10
152.21677134
      20
-35
      30
0
      11
152.21677134
      21
35
      31
0
    1001
FS_CYPCUT
    1000
Channel
    1070
2
    1000
LeadIn
    1002
{
    1070
3
    1040
0
    1040
1.5707963267949
    1040
0.5
    1040
0.5
    1070
0
    1040
0.5
    1070
0
    1002
}
    1000
LeadOut
    1002
{
    1070
0
    1040
0
    1040
0
    1040
0
    1070
0
    1002
}
    1000
IsFill
    1070
0
    1000
PathStart
    1040
0
    1000
ToolCompensation
    1002
{
    1070
0
    1040
0
    1070
0
    1002
}
       0
LINE
       5
2053
     100
AcDbEntity
       8
2
     100
AcDbLine
      10
179.1522571133
      20
35
      30
0
      11
179.1522571133
      21
-35
      31
0
    1001
FS_CYPCUT
    1000
Channel
    1070
2
    1000
LeadIn
    1002
{
    1070
3
    1040
0.00714285714285714
    1040
1.5707963267949
    1040
0.5
    1040
0.5
    1070
0
    1040
0.5
    1070
0
    1002
}
    1000
LeadOut
    1002
{
    1070
0
    1040
0
    1040
0
    1040
0
    1070
0
    1002
}
    1000
IsFill
    1070
0
    1000
PathStart
    1040
0
    1000
ToolCompensation
    1002
{
    1070
0
    1040
0
    1070
0
    1002
}
    1000
MicroConnect
    1002
{
    1070
1
    1040
0
    1041
0.5
    1042
0
    1002
}
       0
CIRCLE
       5
2054
     100
AcDbEntity
       8
1
     100
AcDbCircle
      10
220
      20
0
      30
0
      40
7.50000000000002
    1001
FS_CYPCUT
    1000
Channel
    1070
1
    1000
LeadIn
    1002
{
    1070
3
    1040
0
    1040
1.5707963267949
    1040
0.5
    1040
0.5
    1070
0
    1040
0.5
    1070
0
    1002
}
    1000
LeadOut
    1002
{
    1070
0
    1040
0
    1040
0
    1040
0
    1070
0
    1002
}
    1000
IsFill
    1070
0
    1000
PathStart
    1040
1
    1000
ToolCompensation
    1002
{
    1070
0
    1040
0
    1070
0
    1002
}
       0
LWPOLYLINE
       5
2055
     100
AcDbEntity
       8
1
     100
AcDbPolyline
      90
16
      70
1
      10
240
      20
17.7648413889
      42
0
      10
240
      20
-17.7648413889
      42
-0.331571103622499
      10
237.8582634025
      20
-20.6394516115
      42
0
      10
189.76
      20
-35
      42
0
      10
2.4980569067
      20
-35
      42
0
      10
-45.6002064957529
      20
-20.6394516115232
      42
-0.331571103622507
      10
-47.7419430933
      20
-17.7648413889
      42
0
      10
-47.7419430933
      20
17.7648413889
      42
-0.331571103622504
      10
-45.6002064957
      20
20.6394516115
      42
0
      10
2.4980569067
      20
35
      42
0
      10
45.6490284534
      20
35
      42
0
      10
45.6490284534
      20
71.4554857733
      42
0
      10
146.6090284534
      20
71.4554857733
      42
0
      10
146.6090284534
      20
35
      42
0
      10
189.76
      20
35
      42
0
      10
237.8582634025
      20
20.6394516115
      42
-0.331571103622501
    1001
FS_CYPCUT
    1000
Channel
    1070
1
    1000
LeadIn
    1002
{
    1070
3
    1040
3.5
    1040
1.5707963267949
    1040
0.5
    1040
0.5
    1070
0
    1040
0.5
    1070
0
    1002
}
    1000
LeadOut
    1002
{
    1070
0
    1040
0
    1040
0
    1040
0
    1070
0
    1002
}
    1000
IsFill
    1070
1
    1000
PathStart
    1040
3.5
    1000
ToolCompensation
    1002
{
    1070
0
    1040
0
    1070
0
    1002
}
    1000
MicroConnect
    1002
{
    1070
2
    1040
3.49334595
    1041
0.5
    1042
0
    1040
11.4572776
    1041
0.5
    1042
0
    1002
}
       0
ENDBLK
       5
2056
     330
200A
     100
AcDbEntity
       8
0
     100
AcDbBlockEnd
       0
BLOCK
       5
2057
     330
200B
     100
AcDbEntity
       8
0
     100
AcDbBlockBegin
       2
Part1978494733
      70
0
      10
-30
      20
-30
      30
0
       3
Part1978494733
       1

       4
CypCutBlock
       0
LWPOLYLINE
       5
2058
     100
AcDbEntity
       8
1
     100
AcDbPolyline
      90
8
      70
1
      10
15.1
      20
14.1
      42
0.414213562373096
      10
14.1
      20
15.1
      42
0
      10
-14.1
      20
15.1
      42
0.414213562373094
      10
-15.1
      20
14.1
      42
0
      10
-15.1
      20
-14.1
      42
0.414213562373092
      10
-14.1
      20
-15.1
      42
0
      10
14.1
      20
-15.1
      42
0.414213562373095
      10
15.1
      20
-14.1
      42
0
    1001
FS_CYPCUT
    1000
Channel
    1070
1
    1000
LeadIn
    1002
{
    1070
3
    1040
1.5177304964539
    1040
1.5707963267949
    1040
0.5
    1040
0.5
    1070
0
    1040
0.5
    1070
0
    1002
}
    1000
LeadOut
    1002
{
    1070
0
    1040
0
    1040
0
    1040
0
    1070
0
    1002
}
    1000
IsFill
    1070
0
    1000
PathStart
    1040
1.5
    1000
ToolCompensation
    1002
{
    1070
0
    1040
0
    1070
0
    1002
}
    1000
MicroConnect
    1002
{
    1070
1
    1040
1.5
    1041
0.5
    1042
0
    1002
}
       0
LWPOLYLINE
       5
2059
     100
AcDbEntity
       8
1
     100
AcDbPolyline
      90
8
      70
1
      10
30
      20
26
      42
0.414213562373096
      10
26
      20
30
      42
0
      10
-26
      20
30
      42
0.414213562373096
      10
-30
      20
26
      42
0
      10
-30
      20
-26
      42
0.414213562373095
      10
-26
      20
-30
      42
0
      10
26
      20
-30
      42
0.414213562373095
      10
30
      20
-26
      42
0
    1001
FS_CYPCUT
    1000
Channel
    1070
1
    1000
LeadIn
    1002
{
    1070
3
    1040
1.50961538461538
    1040
1.5707963267949
    1040
0.5
    1040
0.5
    1070
0
    1040
0.5
    1070
0
    1002
}
    1000
LeadOut
    1002
{
    1070
0
    1040
0
    1040
0
    1040
0
    1070
0
    1002
}
    1000
IsFill
    1070
1
    1000
PathStart
    1040
1.5
    1000
ToolCompensation
    1002
{
    1070
0
    1040
0
    1070
0
    1002
}
    1000
MicroConnect
    1002
{
    1070
2
    1040
1.5
    1041
0.5
    1042
0
    1040
5.5
    1041
0.5
    1042
0
    1002
}
       0
ENDBLK
       5
205A
     330
200B
     100
AcDbEntity
       8
0
     100
AcDbBlockEnd
       0
BLOCK
       5
205B
     330
200C
     100
AcDbEntity
       8
0
     100
AcDbBlockBegin
       2
Part318688471
      70
0
      10
-30
      20
-113.778291
      30
0
       3
Part318688471
       1

       4
CypCutBlock
       0
LINE
       5
205C
     100
AcDbEntity
       8
2
     100
AcDbLine
      10
-30
      20
-73.9891456144
      30
0
      11
30
      21
-73.9891456144
      31
0
    1001
FS_CYPCUT
    1000
Channel
    1070
2
    1000
LeadIn
    1002
{
    1070
3
    1040
0
    1040
1.5707963267949
    1040
0.5
    1040
0.3
    1070
0
    1040
0.5
    1070
0
    1002
}
    1000
LeadOut
    1002
{
    1070
0
    1040
0
    1040
0
    1040
0
    1070
0
    1002
}
    1000
IsFill
    1070
0
    1000
PathStart
    1040
0
    1000
ToolCompensation
    1002
{
    1070
0
    1040
0
    1070
0
    1002
}
       0
LWPOLYLINE
       5
205D
     100
AcDbEntity
       8
1
     100
AcDbPolyline
      90
4
      70
1
      10
17.3237590053
      20
-34.3176623509
      42
0
      10
-5.3036579926
      20
-56.9450793489
      42
-0.999999999999999
      10
-12.5161471607515
      20
-49.7325901807485
      42
0
      10
10.1112698372
      20
-27.1051731828
      42
-1
    1001
FS_CYPCUT
    1000
Channel
    1070
1
    1000
LeadIn
    1002
{
    1070
3
    1040
0.5
    1040
1.5707963267949
    1040
0.5
    1040
0.3
    1070
0
    1040
0.5
    1070
0
    1002
}
    1000
LeadOut
    1002
{
    1070
0
    1040
0
    1040
0
    1040
0
    1070
0
    1002
}
    1000
IsFill
    1070
0
    1000
PathStart
    1040
0.5
    1000
ToolCompensation
    1002
{
    1070
0
    1040
0
    1070
0
    1002
}
       0
LINE
       5
205E
     100
AcDbEntity
       8
2
     100
AcDbLine
      10
-10
      20
-4.0108543856
      30
0
      11
30
      21
-4.0108543856
      31
0
    1001
FS_CYPCUT
    1000
Channel
    1070
2
    1000
LeadIn
    1002
{
    1070
3
    1040
0
    1040
1.5707963267949
    1040
0.5
    1040
0.3
    1070
0
    1040
0.5
    1070
0
    1002
}
    1000
LeadOut
    1002
{
    1070
0
    1040
0
    1040
0
    1040
0
    1070
0
    1002
}
    1000
IsFill
    1070
0
    1000
PathStart
    1040
0
    1000
ToolCompensation
    1002
{
    1070
0
    1040
0
    1070
0
    1002
}
       0
LWPOLYLINE
       5
205F
     100
AcDbEntity
       8
1
     100
AcDbPolyline
      90
19
      70
1
      10
30
      20
28.4782912289
      42
0.414213562373098
      10
29
      20
29.4782912289
      42
0
      10
-9
      20
29.4782912289
      42
0.414213562373097
      10
-10
      20
28.4782912289
      42
0
      10
-10
      20
-10
      42
0
      10
-27.0710678118655
      20
-27.0710678118345
      42
0.198912367379657
      10
-30
      20
-34.1421356237
      42
0
      10
-30
      20
-106.4782912289
      42
0.414213562373097
      10
-29
      20
-107.4782912289
      42
0
      10
-7.5
      20
-107.4782912289
      42
0
      10
-7.5
      20
-112.7782912289
      42
0.414213562373088
      10
-6.5
      20
-113.7782912289
      42
0
      10
6.5
      20
-113.7782912289
      42
0.414213562373089
      10
7.50000000000003
      20
-112.7782912289
      42
0
      10
7.5
      20
-107.4782912289
      42
0
      10
29
      20
-107.4782912289
      42
0.414213562373113
      10
30
      20
-106.4782912289
      42
0
      10
30
      20
-69.24
      42
0.336677582718701
      10
29.999999999992
      20
-8.76000000001666
      42
0
    1001
FS_CYPCUT
    1000
Channel
    1070
1
    1000
LeadIn
    1002
{
    1070
3
    1040
6.5
    1040
1.5707963267949
    1040
0.5
    1040
0.3
    1070
0
    1040
0.5
    1070
0
    1002
}
    1000
LeadOut
    1002
{
    1070
0
    1040
0
    1040
0
    1040
0
    1070
0
    1002
}
    1000
IsFill
    1070
1
    1000
PathStart
    1040
6.5
    1000
ToolCompensation
    1002
{
    1070
0
    1040
0
    1070
0
    1002
}
    1000
MicroConnect
    1002
{
    1070
2
    1040
3.37355809
    1041
0.8
    1042
0
    1040
11.5600939
    1041
0.8
    1042
0
    1002
}
       0
ENDBLK
       5
2060
     330
200C
     100
AcDbEntity
       8
0
     100
AcDbBlockEnd
       0
BLOCK
       5
2061
     330
200D
     100
AcDbEntity
       8
0
     100
AcDbBlockBegin
       2
Part1935110264
      70
0
      10
-20
      20
-20
      30
0
       3
Part1935110264
       1

       4
CypCutBlock
       0
CIRCLE
       5
2062
     100
AcDbEntity
       8
1
     100
AcDbCircle
      10
0
      20
0
      30
0
      40
5.25
    1001
FS_CYPCUT
    1000
Channel
    1070
1
    1000
LeadIn
    1002
{
    1070
3
    1040
0
    1040
1.5707963267949
    1040
0.5
    1040
0.5
    1070
0
    1040
0.5
    1070
0
    1002
}
    1000
LeadOut
    1002
{
    1070
0
    1040
0
    1040
0
    1040
0
    1070
0
    1002
}
    1000
IsFill
    1070
0
    1000
PathStart
    1040
0
    1000
ToolCompensation
    1002
{
    1070
0
    1040
0
    1070
0
    1002
}
       0
LWPOLYLINE
       5
2063
     100
AcDbEntity
       8
1
     100
AcDbPolyline
      90
8
      70
1
      10
20
      20
14
      42
0
      10
20
      20
-14
      42
-0.414213562373095
      10
14
      20
-20
      42
0
      10
-14
      20
-20
      42
-0.414213562373096
      10
-20
      20
-14
      42
0
      10
-20
      20
14
      42
-0.414213562373095
      10
-14
      20
20
      42
0
      10
14
      20
20
      42
-0.414213562373096
    1001
FS_CYPCUT
    1000
Channel
    1070
1
    1000
LeadIn
    1002
{
    1070
3
    1040
0.515336745571429
    1040
1.5707963267949
    1040
0.5
    1040
0.5
    1070
0
    1040
0.5
    1070
0
    1002
}
    1000
LeadOut
    1002
{
    1070
0
    1040
0
    1040
0
    1040
0
    1070
0
    1002
}
    1000
IsFill
    1070
1
    1000
PathStart
    1040
0.5
    1000
ToolCompensation
    1002
{
    1070
0
    1040
0
    1070
0
    1002
}
    1000
MicroConnect
    1002
{
    1070
2
    1040
0.486765317
    1041
0.8
    1042
0
    1040
4.5
    1041
0.8
    1042
0
    1002
}
       0
ENDBLK
       5
2064
     330
200D
     100
AcDbEntity
       8
0
     100
AcDbBlockEnd
       0
BLOCK
       5
2065
     330
200E
     100
AcDbEntity
       8
0
     100
AcDbBlockBegin
       2
Part
      70
0
      10
-241.982583
      20
0
      30
0
       3
Part
       1

       4
CypCutBlock
       0
LWPOLYLINE
       5
2066
     100
AcDbEntity
       8
1
     100
AcDbPolyline
      90
4
      70
1
      10
-129.85
      20
15.1
      42
0
      10
-129.85
      20
10
      42
0
      10
-150.15
      20
10
      42
0
      10
-150.15
      20
15.1
      42
0
    1001
FS_CYPCUT
    1000
Channel
    1070
1
    1000
LeadIn
    1002
{
    1070
3
    1040
1.5
    1040
1.5707963267949
    1040
0.5
    1040
0.5
    1070
0
    1040
0.5
    1070
0
    1002
}
    1000
LeadOut
    1002
{
    1070
0
    1040
0
    1040
0
    1040
0
    1070
0
    1002
}
    1000
IsFill
    1070
0
    1000
PathStart
    1040
1.5
    1000
ToolCompensation
    1002
{
    1070
0
    1040
0
    1070
0
    1002
}
       0
LWPOLYLINE
       5
2067
     100
AcDbEntity
       8
1
     100
AcDbPolyline
      90
4
      70
1
      10
-49.85
      20
15.1
      42
0
      10
-49.85
      20
10
      42
0
      10
-70.15
      20
10
      42
0
      10
-70.15
      20
15.1
      42
0
    1001
FS_CYPCUT
    1000
Channel
    1070
1
    1000
LeadIn
    1002
{
    1070
3
    1040
1.5
    1040
1.5707963267949
    1040
0.5
    1040
0.5
    1070
0
    1040
0.5
    1070
0
    1002
}
    1000
LeadOut
    1002
{
    1070
0
    1040
0
    1040
0
    1040
0
    1070
0
    1002
}
    1000
IsFill
    1070
0
    1000
PathStart
    1040
1.5
    1000
ToolCompensation
    1002
{
    1070
0
    1040
0
    1070
0
    1002
}
       0
LWPOLYLINE
       5
2068
     100
AcDbEntity
       8
1
     100
AcDbPolyline
      90
4
      70
1
      10
-38.4999999999999
      20
675
      42
1
      10
-51.5000000000001
      20
675
      42
0
      10
-51.5
      20
100
      42
1
      10
-38.5
      20
100
      42
0
    1001
FS_CYPCUT
    1000
Channel
    1070
1
    1000
LeadIn
    1002
{
    1070
3
    1040
1.5
    1040
1.5707963267949
    1040
0.5
    1040
0.5
    1070
0
    1040
0.5
    1070
0
    1002
}
    1000
LeadOut
    1002
{
    1070
0
    1040
0
    1040
0
    1040
0
    1070
0
    1002
}
    1000
IsFill
    1070
0
    1000
PathStart
    1040
1.5
    1000
ToolCompensation
    1002
{
    1070
0
    1040
0
    1070
0
    1002
}
       0
LWPOLYLINE
       5
2069
     100
AcDbEntity
       8
1
     100
AcDbPolyline
      90
4
      70
1
      10
-148.5
      20
675
      42
0
      10
-148.5
      20
100
      42
-1
      10
-161.5
      20
100
      42
0
      10
-161.5
      20
675
      42
-1
    1001
FS_CYPCUT
    1000
Channel
    1070
1
    1000
LeadIn
    1002
{
    1070
3
    1040
0.5
    1040
1.5707963267949
    1040
0.5
    1040
0.5
    1070
0
    1040
0.5
    1070
0
    1002
}
    1000
LeadOut
    1002
{
    1070
0
    1040
0
    1040
0
    1040
0
    1070
0
    1002
}
    1000
IsFill
    1070
0
    1000
PathStart
    1040
0.5
    1000
ToolCompensation
    1002
{
    1070
0
    1040
0
    1070
0
    1002
}
       0
LINE
       5
206A
     100
AcDbEntity
       8
2
     100
AcDbLine
      10
-195.9912916328
      20
0
      30
0
      11
-195.9912916328
      21
1110
      31
0
    1001
FS_CYPCUT
    1000
Channel
    1070
2
    1000
LeadIn
    1002
{
    1070
3
    1040
0
    1040
1.5707963267949
    1040
0.5
    1040
0.5
    1070
0
    1040
0.5
    1070
0
    1002
}
    1000
LeadOut
    1002
{
    1070
0
    1040
0
    1040
0
    1040
0
    1070
0
    1002
}
    1000
IsFill
    1070
0
    1000
PathStart
    1040
0
    1000
ToolCompensation
    1002
{
    1070
0
    1040
0
    1070
0
    1002
}
       0
LINE
       5
206B
     100
AcDbEntity
       8
2
     100
AcDbLine
      10
-4.0087083672
      20
1110
      30
0
      11
-4.0087083672
      21
0
      31
0
    1001
FS_CYPCUT
    1000
Channel
    1070
2
    1000
LeadIn
    1002
{
    1070
3
    1040
0
    1040
1.5707963267949
    1040
0.5
    1040
0.5
    1070
0
    1040
0.5
    1070
0
    1002
}
    1000
LeadOut
    1002
{
    1070
0
    1040
0
    1040
0
    1040
0
    1070
0
    1002
}
    1000
IsFill
    1070
0
    1000
PathStart
    1040
0
    1000
ToolCompensation
    1002
{
    1070
0
    1040
0
    1070
0
    1002
}
       0
LWPOLYLINE
       5
206C
     100
AcDbEntity
       8
1
     100
AcDbPolyline
      90
4
      70
1
      10
-49.85
      20
776.7
      42
0
      10
-70.15
      20
776.7
      42
0
      10
-70.15
      20
770
      42
0
      10
-49.85
      20
770
      42
0
    1001
FS_CYPCUT
    1000
Channel
    1070
1
    1000
LeadIn
    1002
{
    1070
3
    1040
0.5
    1040
1.5707963267949
    1040
0.5
    1040
0.5
    1070
0
    1040
0.5
    1070
0
    1002
}
    1000
LeadOut
    1002
{
    1070
0
    1040
0
    1040
0
    1040
0
    1070
0
    1002
}
    1000
IsFill
    1070
0
    1000
PathStart
    1040
0.5
    1000
ToolCompensation
    1002
{
    1070
0
    1040
0
    1070
0
    1002
}
       0
LWPOLYLINE
       5
206D
     100
AcDbEntity
       8
1
     100
AcDbPolyline
      90
4
      70
1
      10
-129.85
      20
776.7
      42
0
      10
-129.85
      20
770
      42
0
      10
-150.15
      20
770
      42
0
      10
-150.15
      20
776.7
      42
0
    1001
FS_CYPCUT
    1000
Channel
    1070
1
    1000
LeadIn
    1002
{
    1070
3
    1040
1.5
    1040
1.5707963267949
    1040
0.5
    1040
0.5
    1070
0
    1040
0.5
    1070
0
    1002
}
    1000
LeadOut
    1002
{
    1070
0
    1040
0
    1040
0
    1040
0
    1070
0
    1002
}
    1000
IsFill
    1070
0
    1000
PathStart
    1040
1.5
    1000
ToolCompensation
    1002
{
    1070
0
    1040
0
    1070
0
    1002
}
       0
CIRCLE
       5
206E
     100
AcDbEntity
       8
1
     100
AcDbCircle
      10
-160
      20
1005
      30
0
      40
4.24999999999997
    1001
FS_CYPCUT
    1000
Channel
    1070
1
    1000
LeadIn
    1002
{
    1070
3
    1040
0
    1040
1.5707963267949
    1040
0.5
    1040
0.5
    1070
0
    1040
0.5
    1070
0
    1002
}
    1000
LeadOut
    1002
{
    1070
0
    1040
0
    1040
0
    1040
0
    1070
0
    1002
}
    1000
IsFill
    1070
0
    1000
PathStart
    1040
0.999999999999999
    1000
ToolCompensation
    1002
{
    1070
0
    1040
0
    1070
0
    1002
}
       0
CIRCLE
       5
206F
     100
AcDbEntity
       8
1
     100
AcDbCircle
      10
-172
      20
1005
      30
0
      40
4.25000000000003
    1001
FS_CYPCUT
    1000
Channel
    1070
1
    1000
LeadIn
    1002
{
    1070
3
    1040
7.49400541621981E-16
    1040
1.5707963267949
    1040
0.5
    1040
0.5
    1070
0
    1040
0.5
    1070
0
    1002
}
    1000
LeadOut
    1002
{
    1070
0
    1040
0
    1040
0
    1040
0
    1070
0
    1002
}
    1000
IsFill
    1070
0
    1000
PathStart
    1040
7.49400541621981E-16
    1000
ToolCompensation
    1002
{
    1070
0
    1040
0
    1070
0
    1002
}
       0
LWPOLYLINE
       5
2070
     100
AcDbEntity
       8
1
     100
AcDbPolyline
      90
8
      70
1
      10
-47.5
      20
1050
      42
0
      10
-47.5
      20
960
      42
-0.414213562373094
      10
-57.5
      20
950
      42
0
      10
-142.5
      20
950
      42
-0.414213562373089
      10
-152.5
      20
960
      42
0
      10
-152.5
      20
1050
      42
-0.414213562373097
      10
-142.5
      20
1060
      42
0
      10
-57.5
      20
1060
      42
-0.41421356237312
    1001
FS_CYPCUT
    1000
Channel
    1070
1
    1000
LeadIn
    1002
{
    1070
3
    1040
0.5
    1040
1.5707963267949
    1040
0.5
    1040
0.5
    1070
0
    1040
0.5
    1070
0
    1002
}
    1000
LeadOut
    1002
{
    1070
0
    1040
0
    1040
0
    1040
0
    1070
0
    1002
}
    1000
IsFill
    1070
0
    1000
PathStart
    1040
0.5
    1000
ToolCompensation
    1002
{
    1070
0
    1040
0
    1070
0
    1002
}
       0
CIRCLE
       5
2071
     100
AcDbEntity
       8
1
     100
AcDbCircle
      10
-40
      20
1005
      30
0
      40
4.25000000000003
    1001
FS_CYPCUT
    1000
Channel
    1070
1
    1000
LeadIn
    1002
{
    1070
3
    1040
9.43689570931383E-16
    1040
1.5707963267949
    1040
0.5
    1040
0.5
    1070
0
    1040
0.5
    1070
0
    1002
}
    1000
LeadOut
    1002
{
    1070
0
    1040
0
    1040
0
    1040
0
    1070
0
    1002
}
    1000
IsFill
    1070
0
    1000
PathStart
    1040
9.43689570931383E-16
    1000
ToolCompensation
    1002
{
    1070
0
    1040
0
    1070
0
    1002
}
       0
CIRCLE
       5
2072
     100
AcDbEntity
       8
1
     100
AcDbCircle
      10
-28
      20
1005
      30
0
      40
4.25000000000001
    1001
FS_CYPCUT
    1000
Channel
    1070
1
    1000
LeadIn
    1002
{
    1070
3
    1040
1.22124532708767E-15
    1040
1.5707963267949
    1040
0.5
    1040
0.5
    1070
0
    1040
0.5
    1070
0
    1002
}
    1000
LeadOut
    1002
{
    1070
0
    1040
0
    1040
0
    1040
0
    1070
0
    1002
}
    1000
IsFill
    1070
0
    1000
PathStart
    1040
1.22124532708767E-15
    1000
ToolCompensation
    1002
{
    1070
0
    1040
0
    1070
0
    1002
}
       0
CIRCLE
       5
2073
     100
AcDbEntity
       8
1
     100
AcDbCircle
      10
-70
      20
1088
      30
0
      40
3.39999999999992
    1001
FS_CYPCUT
    1000
Channel
    1070
1
    1000
LeadIn
    1002
{
    1070
3
    1040
0
    1040
1.5707963267949
    1040
0.5
    1040
0.5
    1070
0
    1040
0.5
    1070
0
    1002
}
    1000
LeadOut
    1002
{
    1070
0
    1040
0
    1040
0
    1040
0
    1070
0
    1002
}
    1000
IsFill
    1070
0
    1000
PathStart
    1040
0.999999999999997
    1000
ToolCompensation
    1002
{
    1070
0
    1040
0
    1070
0
    1002
}
       0
CIRCLE
       5
2074
     100
AcDbEntity
       8
1
     100
AcDbCircle
      10
-130
      20
1088
      30
0
      40
3.39999999999984
    1001
FS_CYPCUT
    1000
Channel
    1070
1
    1000
LeadIn
    1002
{
    1070
3
    1040
0
    1040
1.5707963267949
    1040
0.5
    1040
0.5
    1070
0
    1040
0.5
    1070
0
    1002
}
    1000
LeadOut
    1002
{
    1070
0
    1040
0
    1040
0
    1040
0
    1070
0
    1002
}
    1000
IsFill
    1070
0
    1000
PathStart
    1040
0.999999999999999
    1000
ToolCompensation
    1002
{
    1070
0
    1040
0
    1070
0
    1002
}
       0
LWPOLYLINE
       5
2075
     100
AcDbEntity
       8
1
     100
AcDbPolyline
      90
8
      70
1
      10
41.9825832656
      20
1100
      42
0.41421356237312
      10
31.9825832656
      20
1110
      42
0
      10
-231.9825832656
      20
1110
      42
0.414213562373082
      10
-241.9825832656
      20
1100
      42
0
      10
-241.9825832656
      20
10
      42
0.414213562373095
      10
-231.9825832656
      20
0
      42
0
      10
31.9825832656
      20
0
      42
0.414213562373096
      10
41.9825832656
      20
10
      42
0
    1001
FS_CYPCUT
    1000
Channel
    1070
1
    1000
LeadIn
    1002
{
    1070
3
    1040
3.50045871559633
    1040
1.5707963267949
    1040
0.5
    1040
0.5
    1070
0
    1040
0.5
    1070
0
    1002
}
    1000
LeadOut
    1002
{
    1070
0
    1040
0
    1040
0
    1040
0
    1070
0
    1002
}
    1000
IsFill
    1070
1
    1000
PathStart
    1040
3.5
    1000
ToolCompensation
    1002
{
    1070
0
    1040
0
    1070
0
    1002
}
    1000
MicroConnect
    1002
{
    1070
5
    1040
1.5
    1041
0.5
    1042
0
    1040
3.5
    1041
0.5
    1042
0
    1040
5.5
    1041
0.5
    1042
0
    1040
7.26404117
    1041
0.5
    1042
0
    1040
7.82110092
    1041
0.5
    1042
0
    1002
}
       0
ENDBLK
       5
2076
     330
200E
     100
AcDbEntity
       8
0
     100
AcDbBlockEnd
       0
BLOCK
       5
2077
     330
200F
     100
AcDbEntity
       8
0
     100
AcDbBlockBegin
       2
Part1570292409
      70
0
      10
-47.7419431
      20
-35
      30
0
       3
Part1570292409
       1

       4
CypCutBlock
       0
CIRCLE
       5
2078
     100
AcDbEntity
       8
1
     100
AcDbCircle
      10
-27.7419430933
      20
0
      30
0
      40
7.5
    1001
FS_CYPCUT
    1000
Channel
    1070
1
    1000
LeadIn
    1002
{
    1070
3
    1040
0
    1040
1.5707963267949
    1040
0.5
    1040
0.5
    1070
0
    1040
0.5
    1070
0
    1002
}
    1000
LeadOut
    1002
{
    1070
0
    1040
0
    1040
0
    1040
0
    1070
0
    1002
}
    1000
IsFill
    1070
0
    1000
PathStart
    1040
0
    1000
ToolCompensation
    1002
{
    1070
0
    1040
0
    1070
0
    1002
}
       0
LINE
       5
2079
     100
AcDbEntity
       8
2
     100
AcDbLine
      10
13.1057997934
      20
35
      30
0
      11
13.1057997934
      21
-35
      31
0
    1001
FS_CYPCUT
    1000
Channel
    1070
2
    1000
LeadIn
    1002
{
    1070
3
    1040
0.00714285714285714
    1040
1.5707963267949
    1040
0.5
    1040
0.5
    1070
0
    1040
0.5
    1070
0
    1002
}
    1000
LeadOut
    1002
{
    1070
0
    1040
0
    1040
0
    1040
0
    1070
0
    1002
}
    1000
IsFill
    1070
0
    1000
PathStart
    1040
0
    1000
ToolCompensation
    1002
{
    1070
0
    1040
0
    1070
0
    1002
}
    1000
MicroConnect
    1002
{
    1070
1
    1040
0
    1041
0.5
    1042
0
    1002
}
       0
LINE
       5
207A
     100
AcDbEntity
       8
2
     100
AcDbLine
      10
40.0412855667
      20
-35
      30
0
      11
40.0412855667
      21
35
      31
0
    1001
FS_CYPCUT
    1000
Channel
    1070
2
    1000
LeadIn
    1002
{
    1070
3
    1040
0
    1040
1.5707963267949
    1040
0.5
    1040
0.5
    1070
0
    1040
0.5
    1070
0
    1002
}
    1000
LeadOut
    1002
{
    1070
0
    1040
0
    1040
0
    1040
0
    1070
0
    1002
}
    1000
IsFill
    1070
0
    1000
PathStart
    1040
0
    1000
ToolCompensation
    1002
{
    1070
0
    1040
0
    1070
0
    1002
}
       0
LINE
       5
207B
     100
AcDbEntity
       8
2
     100
AcDbLine
      10
45.6490284534
      20
40.6077428867
      30
0
      11
146.6090284534
      21
40.6077428867
      31
0
    1001
FS_CYPCUT
    1000
Channel
    1070
2
    1000
LeadIn
    1002
{
    1070
3
    1040
0
    1040
1.5707963267949
    1040
0.5
    1040
0.5
    1070
0
    1040
0.5
    1070
0
    1002
}
    1000
LeadOut
    1002
{
    1070
0
    1040
0
    1040
0
    1040
0
    1070
0
    1002
}
    1000
IsFill
    1070
0
    1000
PathStart
    1040
0
    1000
ToolCompensation
    1002
{
    1070
0
    1040
0
    1070
0
    1002
}
       0
LWPOLYLINE
       5
207C
     100
AcDbEntity
       8
1
     100
AcDbPolyline
      90
4
      70
1
      10
128.6290284534
      20
6.50000000000002
      42
-1
      10
128.6290284534
      20
-6.50000000000002
      42
0
      10
63.6290284534
      20
-6.5
      42
-1
      10
63.6290284534
      20
6.50000000000001
      42
0
    1001
FS_CYPCUT
    1000
Channel
    1070
1
    1000
LeadIn
    1002
{
    1070
3
    1040
1.5
    1040
1.5707963267949
    1040
0.5
    1040
0.5
    1070
0
    1040
0.5
    1070
0
    1002
}
    1000
LeadOut
    1002
{
    1070
0
    1040
0
    1040
0
    1040
0
    1070
0
    1002
}
    1000
IsFill
    1070
0
    1000
PathStart
    1040
1.5
    1000
ToolCompensation
    1002
{
    1070
0
    1040
0
    1070
0
    1002
}
       0
LINE
       5
207D
     100
AcDbEntity
       8
2
     100
AcDbLine
      10
152.21677134
      20
-35
      30
0
      11
152.21677134
      21
35
      31
0
    1001
FS_CYPCUT
    1000
Channel
    1070
2
    1000
LeadIn
    1002
{
    1070
3
    1040
0
    1040
1.5707963267949
    1040
0.5
    1040
0.5
    1070
0
    1040
0.5
    1070
0
    1002
}
    1000
LeadOut
    1002
{
    1070
0
    1040
0
    1040
0
    1040
0
    1070
0
    1002
}
    1000
IsFill
    1070
0
    1000
PathStart
    1040
0
    1000
ToolCompensation
    1002
{
    1070
0
    1040
0
    1070
0
    1002
}
       0
LINE
       5
207E
     100
AcDbEntity
       8
2
     100
AcDbLine
      10
179.1522571133
      20
35
      30
0
      11
179.1522571133
      21
-35
      31
0
    1001
FS_CYPCUT
    1000
Channel
    1070
2
    1000
LeadIn
    1002
{
    1070
3
    1040
0.00714285714285714
    1040
1.5707963267949
    1040
0.5
    1040
0.5
    1070
0
    1040
0.5
    1070
0
    1002
}
    1000
LeadOut
    1002
{
    1070
0
    1040
0
    1040
0
    1040
0
    1070
0
    1002
}
    1000
IsFill
    1070
0
    1000
PathStart
    1040
0
    1000
ToolCompensation
    1002
{
    1070
0
    1040
0
    1070
0
    1002
}
    1000
MicroConnect
    1002
{
    1070
1
    1040
0
    1041
0.5
    1042
0
    1002
}
       0
CIRCLE
       5
207F
     100
AcDbEntity
       8
1
     100
AcDbCircle
      10
220
      20
0
      30
0
      40
7.50000000000002
    1001
FS_CYPCUT
    1000
Channel
    1070
1
    1000
LeadIn
    1002
{
    1070
3
    1040
0
    1040
1.5707963267949
    1040
0.5
    1040
0.5
    1070
0
    1040
0.5
    1070
0
    1002
}
    1000
LeadOut
    1002
{
    1070
0
    1040
0
    1040
0
    1040
0
    1070
0
    1002
}
    1000
IsFill
    1070
0
    1000
PathStart
    1040
1
    1000
ToolCompensation
    1002
{
    1070
0
    1040
0
    1070
0
    1002
}
       0
LWPOLYLINE
       5
2080
     100
AcDbEntity
       8
1
     100
AcDbPolyline
      90
16
      70
1
      10
240
      20
17.7648413889
      42
0
      10
240
      20
-17.7648413889
      42
-0.331571103622499
      10
237.8582634025
      20
-20.6394516115
      42
0
      10
189.76
      20
-35
      42
0
      10
2.4980569067
      20
-35
      42
0
      10
-45.6002064957529
      20
-20.6394516115232
      42
-0.331571103622507
      10
-47.7419430933
      20
-17.7648413889
      42
0
      10
-47.7419430933
      20
17.7648413889
      42
-0.331571103622504
      10
-45.6002064957
      20
20.6394516115
      42
0
      10
2.4980569067
      20
35
      42
0
      10
45.6490284534
      20
35
      42
0
      10
45.6490284534
      20
71.4554857733
      42
0
      10
146.6090284534
      20
71.4554857733
      42
0
      10
146.6090284534
      20
35
      42
0
      10
189.76
      20
35
      42
0
      10
237.8582634025
      20
20.6394516115
      42
-0.331571103622501
    1001
FS_CYPCUT
    1000
Channel
    1070
1
    1000
LeadIn
    1002
{
    1070
3
    1040
3.5
    1040
1.5707963267949
    1040
0.5
    1040
0.5
    1070
0
    1040
0.5
    1070
0
    1002
}
    1000
LeadOut
    1002
{
    1070
0
    1040
0
    1040
0
    1040
0
    1070
0
    1002
}
    1000
IsFill
    1070
1
    1000
PathStart
    1040
3.5
    1000
ToolCompensation
    1002
{
    1070
0
    1040
0
    1070
0
    1002
}
    1000
MicroConnect
    1002
{
    1070
2
    1040
3.49334595
    1041
0.5
    1042
0
    1040
11.4572776
    1041
0.5
    1042
0
    1002
}
       0
ENDBLK
       5
2081
     330
200F
     100
AcDbEntity
       8
0
     100
AcDbBlockEnd
       0
BLOCK
       5
2082
     330
2010
     100
AcDbEntity
       8
0
     100
AcDbBlockBegin
       2
Part646898401
      70
0
      10
-47.7
      20
-18.5730988
      30
0
       3
Part646898401
       1

       4
CypCutBlock
       0
LINE
       5
2083
     100
AcDbEntity
       8
2
     100
AcDbLine
      10
-25.4
      20
100.7521359358
      30
0
      11
0
      21
100.7521359358
      31
0
    1001
FS_CYPCUT
    1000
Channel
    1070
2
    1000
LeadIn
    1002
{
    1070
3
    1040
0
    1040
1.5707963267949
    1040
0.5
    1040
0.5
    1070
0
    1040
0.5
    1070
0
    1002
}
    1000
LeadOut
    1002
{
    1070
0
    1040
0
    1040
0
    1040
0
    1070
0
    1002
}
    1000
IsFill
    1070
0
    1000
PathStart
    1040
0
    1000
ToolCompensation
    1002
{
    1070
0
    1040
0
    1070
0
    1002
}
       0
LINE
       5
2084
     100
AcDbEntity
       8
2
     100
AcDbLine
      10
0
      20
362.7314078075
      30
0
      11
-25.4
      21
362.7314078075
      31
0
    1001
FS_CYPCUT
    1000
Channel
    1070
2
    1000
LeadIn
    1002
{
    1070
3
    1040
0
    1040
1.5707963267949
    1040
0.5
    1040
0.5
    1070
0
    1040
0.5
    1070
0
    1002
}
    1000
LeadOut
    1002
{
    1070
0
    1040
0
    1040
0
    1040
0
    1070
0
    1002
}
    1000
IsFill
    1070
0
    1000
PathStart
    1040
0
    1000
ToolCompensation
    1002
{
    1070
0
    1040
0
    1070
0
    1002
}
       0
LWPOLYLINE
       5
2085
     100
AcDbEntity
       8
1
     100
AcDbPolyline
      90
24
      70
1
      10
22.3
      20
482.0566425693
      42
0
      10
9.80000000000003
      20
482.0566425693
      42
-1
      10
-35.2
      20
482.0566425693
      42
0
      10
-47.7000000000005
      20
482.0566425693
      42
0.23786367255743
      10
-33.5090909091009
      20
453.914472511983
      42
-0.237863672557428
      10
-25.4
      20
437.8332324792
      42
0
      10
-25.4
      20
406.2635437433
      42
0
      10
-20.65
      20
406.2635437433
      42
0
      10
-20.65
      20
380.7635437433
      42
0
      10
-25.4
      20
380.7635437433
      42
0
      10
-25.4
      20
82.72
      42
0
      10
-20.65
      20
82.72
      42
0
      10
-20.65
      20
57.22
      42
0
      10
-25.4
      20
57.22
      42
0
      10
-25.4
      20
25.6503112641
      42
-0.237863672557431
      10
-33.5090909091009
      20
9.56907123131728
      42
0.237863672557431
      10
-47.7
      20
-18.573098826
      42
0
      10
-35.2
      20
-18.573098826
      42
-1
      10
9.80000000000003
      20
-18.573098826
      42
0
      10
22.3
      20
-18.573098826
      42
0.237863672557431
      10
8.10909090907336
      20
9.5690712313697
      42
-0.237863672557431
      10
-2.8421709430404E-14
      20
25.6503112641
      42
0
      10
0
      20
437.8332324792
      42
-0.237863672557428
      10
8.10909090910093
      20
453.914472511983
      42
0.23786367255743
    1001
FS_CYPCUT
    1000
Channel
    1070
1
    1000
LeadIn
    1002
{
    1070
3
    1040
21.5012130536572
    1040
1.5707963267949
    1040
0.5
    1040
0.5
    1070
0
    1040
0.5
    1070
0
    1002
}
    1000
LeadOut
    1002
{
    1070
0
    1040
0
    1040
0
    1040
0
    1070
0
    1002
}
    1000
IsFill
    1070
1
    1000
PathStart
    1040
21.5
    1000
ToolCompensation
    1002
{
    1070
0
    1040
0
    1070
0
    1002
}
    1000
MicroConnect
    1002
{
    1070
4
    1040
1.5
    1041
0.5
    1042
0
    1040
9.53960316
    1041
0.5
    1042
0
    1040
17.5
    1041
0.5
    1042
0
    1040
21.5
    1041
0.5
    1042
0
    1002
}
       0
ENDBLK
       5
2086
     330
2010
     100
AcDbEntity
       8
0
     100
AcDbBlockEnd
       0
BLOCK
       5
2087
     330
2011
     100
AcDbEntity
       8
0
     100
AcDbBlockBegin
       2
Part466617222
      70
0
      10
-25.4
      20
0
      30
0
       3
Part466617222
       1

       4
CypCutBlock
       0
CIRCLE
       5
2088
     100
AcDbEntity
       8
1
     100
AcDbCircle
      10
-12.7
      20
10
      30
0
      40
4.50000000000001
    1001
FS_CYPCUT
    1000
Channel
    1070
1
    1000
LeadIn
    1002
{
    1070
3
    1040
0
    1040
1.5707963267949
    1040
0.5
    1040
0.5
    1070
0
    1040
0.5
    1070
0
    1002
}
    1000
LeadOut
    1002
{
    1070
0
    1040
0
    1040
0
    1040
0
    1070
0
    1002
}
    1000
IsFill
    1070
0
    1000
PathStart
    1040
0
    1000
ToolCompensation
    1002
{
    1070
0
    1040
0
    1070
0
    1002
}
       0
CIRCLE
       5
2089
     100
AcDbEntity
       8
1
     100
AcDbCircle
      10
-12.7
      20
50
      30
0
      40
4.50000000000003
    1001
FS_CYPCUT
    1000
Channel
    1070
1
    1000
LeadIn
    1002
{
    1070
3
    1040
0
    1040
1.5707963267949
    1040
0.5
    1040
0.5
    1070
0
    1040
0.5
    1070
0
    1002
}
    1000
LeadOut
    1002
{
    1070
0
    1040
0
    1040
0
    1040
0
    1070
0
    1002
}
    1000
IsFill
    1070
0
    1000
PathStart
    1040
1
    1000
ToolCompensation
    1002
{
    1070
0
    1040
0
    1070
0
    1002
}
       0
CIRCLE
       5
208A
     100
AcDbEntity
       8
1
     100
AcDbCircle
      10
-12.7
      20
90
      30
0
      40
4.5
    1001
FS_CYPCUT
    1000
Channel
    1070
1
    1000
LeadIn
    1002
{
    1070
3
    1040
0
    1040
1.5707963267949
    1040
0.5
    1040
0.5
    1070
0
    1040
0.5
    1070
0
    1002
}
    1000
LeadOut
    1002
{
    1070
0
    1040
0
    1040
0
    1040
0
    1070
0
    1002
}
    1000
IsFill
    1070
0
    1000
PathStart
    1040
1
    1000
ToolCompensation
    1002
{
    1070
0
    1040
0
    1070
0
    1002
}
       0
LWPOLYLINE
       5
208B
     100
AcDbEntity
       8
1
     100
AcDbPolyline
      90
8
      70
1
      10
0
      20
95
      42
0
      10
0
      20
5
      42
-0.414213562373095
      10
-5
      20
0
      42
0
      10
-20.4
      20
3.90798504668055E-14
      42
-0.414213562373095
      10
-25.4
      20
5
      42
0
      10
-25.4
      20
95
      42
-0.414213562373095
      10
-20.4
      20
100
      42
0
      10
-5
      20
100
      42
-0.414213562373095
    1001
FS_CYPCUT
    1000
Channel
    1070
1
    1000
LeadIn
    1002
{
    1070
3
    1040
0.5
    1040
1.5707963267949
    1040
0.5
    1040
0.5
    1070
0
    1040
0.5
    1070
0
    1002
}
    1000
LeadOut
    1002
{
    1070
0
    1040
0
    1040
0
    1040
0
    1070
0
    1002
}
    1000
IsFill
    1070
1
    1000
PathStart
    1040
0.5
    1000
ToolCompensation
    1002
{
    1070
0
    1040
0
    1070
0
    1002
}
    1000
MicroConnect
    1002
{
    1070
2
    1040
0.157633243
    1041
0.8
    1042
0
    1040
4.14498645
    1041
0.8
    1042
0
    1002
}
       0
ENDBLK
       5
208C
     330
2011
     100
AcDbEntity
       8
0
     100
AcDbBlockEnd
       0
BLOCK
       5
208D
     330
2012
     100
AcDbEntity
       8
0
     100
AcDbBlockBegin
       2
Part1950801516
      70
0
      10
-30
      20
-30
      30
0
       3
Part1950801516
       1

       4
CypCutBlock
       0
LWPOLYLINE
       5
208E
     100
AcDbEntity
       8
1
     100
AcDbPolyline
      90
8
      70
1
      10
15.1
      20
14.1
      42
0.414213562373096
      10
14.1
      20
15.1
      42
0
      10
-14.1
      20
15.1
      42
0.414213562373094
      10
-15.1
      20
14.1
      42
0
      10
-15.1
      20
-14.1
      42
0.414213562373092
      10
-14.1
      20
-15.1
      42
0
      10
14.1
      20
-15.1
      42
0.414213562373095
      10
15.1
      20
-14.1
      42
0
    1001
FS_CYPCUT
    1000
Channel
    1070
1
    1000
LeadIn
    1002
{
    1070
3
    1040
1.5177304964539
    1040
1.5707963267949
    1040
0.5
    1040
0.5
    1070
0
    1040
0.5
    1070
0
    1002
}
    1000
LeadOut
    1002
{
    1070
0
    1040
0
    1040
0
    1040
0
    1070
0
    1002
}
    1000
IsFill
    1070
0
    1000
PathStart
    1040
1.5
    1000
ToolCompensation
    1002
{
    1070
0
    1040
0
    1070
0
    1002
}
    1000
MicroConnect
    1002
{
    1070
1
    1040
1.5
    1041
0.5
    1042
0
    1002
}
       0
LWPOLYLINE
       5
208F
     100
AcDbEntity
       8
1
     100
AcDbPolyline
      90
8
      70
1
      10
30
      20
26
      42
0.414213562373096
      10
26
      20
30
      42
0
      10
-26
      20
30
      42
0.414213562373096
      10
-30
      20
26
      42
0
      10
-30
      20
-26
      42
0.414213562373095
      10
-26
      20
-30
      42
0
      10
26
      20
-30
      42
0.414213562373095
      10
30
      20
-26
      42
0
    1001
FS_CYPCUT
    1000
Channel
    1070
1
    1000
LeadIn
    1002
{
    1070
3
    1040
1.50961538461538
    1040
1.5707963267949
    1040
0.5
    1040
0.5
    1070
0
    1040
0.5
    1070
0
    1002
}
    1000
LeadOut
    1002
{
    1070
0
    1040
0
    1040
0
    1040
0
    1070
0
    1002
}
    1000
IsFill
    1070
1
    1000
PathStart
    1040
1.5
    1000
ToolCompensation
    1002
{
    1070
0
    1040
0
    1070
0
    1002
}
    1000
MicroConnect
    1002
{
    1070
2
    1040
1.5
    1041
0.5
    1042
0
    1040
5.5
    1041
0.5
    1042
0
    1002
}
       0
ENDBLK
       5
2090
     330
2012
     100
AcDbEntity
       8
0
     100
AcDbBlockEnd
       0
BLOCK
       5
2091
     330
2013
     100
AcDbEntity
       8
0
     100
AcDbBlockBegin
       2
Part2117318049
      70
0
      10
-47.7419431
      20
-35
      30
0
       3
Part2117318049
       1

       4
CypCutBlock
       0
CIRCLE
       5
2092
     100
AcDbEntity
       8
1
     100
AcDbCircle
      10
-27.7419430933
      20
0
      30
0
      40
7.5
    1001
FS_CYPCUT
    1000
Channel
    1070
1
    1000
LeadIn
    1002
{
    1070
3
    1040
0
    1040
1.5707963267949
    1040
0.5
    1040
0.5
    1070
0
    1040
0.5
    1070
0
    1002
}
    1000
LeadOut
    1002
{
    1070
0
    1040
0
    1040
0
    1040
0
    1070
0
    1002
}
    1000
IsFill
    1070
0
    1000
PathStart
    1040
0
    1000
ToolCompensation
    1002
{
    1070
0
    1040
0
    1070
0
    1002
}
       0
LINE
       5
2093
     100
AcDbEntity
       8
2
     100
AcDbLine
      10
13.1057997934
      20
35
      30
0
      11
13.1057997934
      21
-35
      31
0
    1001
FS_CYPCUT
    1000
Channel
    1070
2
    1000
LeadIn
    1002
{
    1070
3
    1040
0.00714285714285714
    1040
1.5707963267949
    1040
0.5
    1040
0.5
    1070
0
    1040
0.5
    1070
0
    1002
}
    1000
LeadOut
    1002
{
    1070
0
    1040
0
    1040
0
    1040
0
    1070
0
    1002
}
    1000
IsFill
    1070
0
    1000
PathStart
    1040
0
    1000
ToolCompensation
    1002
{
    1070
0
    1040
0
    1070
0
    1002
}
    1000
MicroConnect
    1002
{
    1070
1
    1040
0
    1041
0.5
    1042
0
    1002
}
       0
LINE
       5
2094
     100
AcDbEntity
       8
2
     100
AcDbLine
      10
40.0412855667
      20
-35
      30
0
      11
40.0412855667
      21
35
      31
0
    1001
FS_CYPCUT
    1000
Channel
    1070
2
    1000
LeadIn
    1002
{
    1070
3
    1040
0
    1040
1.5707963267949
    1040
0.5
    1040
0.5
    1070
0
    1040
0.5
    1070
0
    1002
}
    1000
LeadOut
    1002
{
    1070
0
    1040
0
    1040
0
    1040
0
    1070
0
    1002
}
    1000
IsFill
    1070
0
    1000
PathStart
    1040
0
    1000
ToolCompensation
    1002
{
    1070
0
    1040
0
    1070
0
    1002
}
       0
LINE
       5
2095
     100
AcDbEntity
       8
2
     100
AcDbLine
      10
45.6490284534
      20
40.6077428867
      30
0
      11
146.6090284534
      21
40.6077428867
      31
0
    1001
FS_CYPCUT
    1000
Channel
    1070
2
    1000
LeadIn
    1002
{
    1070
3
    1040
0
    1040
1.5707963267949
    1040
0.5
    1040
0.5
    1070
0
    1040
0.5
    1070
0
    1002
}
    1000
LeadOut
    1002
{
    1070
0
    1040
0
    1040
0
    1040
0
    1070
0
    1002
}
    1000
IsFill
    1070
0
    1000
PathStart
    1040
0
    1000
ToolCompensation
    1002
{
    1070
0
    1040
0
    1070
0
    1002
}
       0
LWPOLYLINE
       5
2096
     100
AcDbEntity
       8
1
     100
AcDbPolyline
      90
4
      70
1
      10
128.6290284534
      20
6.50000000000002
      42
-1
      10
128.6290284534
      20
-6.50000000000002
      42
0
      10
63.6290284534
      20
-6.5
      42
-1
      10
63.6290284534
      20
6.50000000000001
      42
0
    1001
FS_CYPCUT
    1000
Channel
    1070
1
    1000
LeadIn
    1002
{
    1070
3
    1040
1.5
    1040
1.5707963267949
    1040
0.5
    1040
0.5
    1070
0
    1040
0.5
    1070
0
    1002
}
    1000
LeadOut
    1002
{
    1070
0
    1040
0
    1040
0
    1040
0
    1070
0
    1002
}
    1000
IsFill
    1070
0
    1000
PathStart
    1040
1.5
    1000
ToolCompensation
    1002
{
    1070
0
    1040
0
    1070
0
    1002
}
       0
LINE
       5
2097
     100
AcDbEntity
       8
2
     100
AcDbLine
      10
152.21677134
      20
-35
      30
0
      11
152.21677134
      21
35
      31
0
    1001
FS_CYPCUT
    1000
Channel
    1070
2
    1000
LeadIn
    1002
{
    1070
3
    1040
0
    1040
1.5707963267949
    1040
0.5
    1040
0.5
    1070
0
    1040
0.5
    1070
0
    1002
}
    1000
LeadOut
    1002
{
    1070
0
    1040
0
    1040
0
    1040
0
    1070
0
    1002
}
    1000
IsFill
    1070
0
    1000
PathStart
    1040
0
    1000
ToolCompensation
    1002
{
    1070
0
    1040
0
    1070
0
    1002
}
       0
LINE
       5
2098
     100
AcDbEntity
       8
2
     100
AcDbLine
      10
179.1522571133
      20
35
      30
0
      11
179.1522571133
      21
-35
      31
0
    1001
FS_CYPCUT
    1000
Channel
    1070
2
    1000
LeadIn
    1002
{
    1070
3
    1040
0.00714285714285714
    1040
1.5707963267949
    1040
0.5
    1040
0.5
    1070
0
    1040
0.5
    1070
0
    1002
}
    1000
LeadOut
    1002
{
    1070
0
    1040
0
    1040
0
    1040
0
    1070
0
    1002
}
    1000
IsFill
    1070
0
    1000
PathStart
    1040
0
    1000
ToolCompensation
    1002
{
    1070
0
    1040
0
    1070
0
    1002
}
    1000
MicroConnect
    1002
{
    1070
1
    1040
0
    1041
0.5
    1042
0
    1002
}
       0
CIRCLE
       5
2099
     100
AcDbEntity
       8
1
     100
AcDbCircle
      10
220
      20
0
      30
0
      40
7.50000000000002
    1001
FS_CYPCUT
    1000
Channel
    1070
1
    1000
LeadIn
    1002
{
    1070
3
    1040
0
    1040
1.5707963267949
    1040
0.5
    1040
0.5
    1070
0
    1040
0.5
    1070
0
    1002
}
    1000
LeadOut
    1002
{
    1070
0
    1040
0
    1040
0
    1040
0
    1070
0
    1002
}
    1000
IsFill
    1070
0
    1000
PathStart
    1040
1
    1000
ToolCompensation
    1002
{
    1070
0
    1040
0
    1070
0
    1002
}
       0
LWPOLYLINE
       5
209A
     100
AcDbEntity
       8
1
     100
AcDbPolyline
      90
16
      70
1
      10
240
      20
17.7648413889
      42
0
      10
240
      20
-17.7648413889
      42
-0.331571103622499
      10
237.8582634025
      20
-20.6394516115
      42
0
      10
189.76
      20
-35
      42
0
      10
2.4980569067
      20
-35
      42
0
      10
-45.6002064957529
      20
-20.6394516115232
      42
-0.331571103622507
      10
-47.7419430933
      20
-17.7648413889
      42
0
      10
-47.7419430933
      20
17.7648413889
      42
-0.331571103622504
      10
-45.6002064957
      20
20.6394516115
      42
0
      10
2.4980569067
      20
35
      42
0
      10
45.6490284534
      20
35
      42
0
      10
45.6490284534
      20
71.4554857733
      42
0
      10
146.6090284534
      20
71.4554857733
      42
0
      10
146.6090284534
      20
35
      42
0
      10
189.76
      20
35
      42
0
      10
237.8582634025
      20
20.6394516115
      42
-0.331571103622501
    1001
FS_CYPCUT
    1000
Channel
    1070
1
    1000
LeadIn
    1002
{
    1070
3
    1040
3.5
    1040
1.5707963267949
    1040
0.5
    1040
0.5
    1070
0
    1040
0.5
    1070
0
    1002
}
    1000
LeadOut
    1002
{
    1070
0
    1040
0
    1040
0
    1040
0
    1070
0
    1002
}
    1000
IsFill
    1070
1
    1000
PathStart
    1040
3.5
    1000
ToolCompensation
    1002
{
    1070
0
    1040
0
    1070
0
    1002
}
    1000
MicroConnect
    1002
{
    1070
2
    1040
3.49334595
    1041
0.5
    1042
0
    1040
11.4572776
    1041
0.5
    1042
0
    1002
}
       0
ENDBLK
       5
209B
     330
2013
     100
AcDbEntity
       8
0
     100
AcDbBlockEnd
       0
BLOCK
       5
209C
     330
2014
     100
AcDbEntity
       8
0
     100
AcDbBlockBegin
       2
Part1666522677
      70
0
      10
-30
      20
-30
      30
0
       3
Part1666522677
       1

       4
CypCutBlock
       0
LWPOLYLINE
       5
209D
     100
AcDbEntity
       8
1
     100
AcDbPolyline
      90
8
      70
1
      10
15.1
      20
14.1
      42
0.414213562373096
      10
14.1
      20
15.1
      42
0
      10
-14.1
      20
15.1
      42
0.414213562373094
      10
-15.1
      20
14.1
      42
0
      10
-15.1
      20
-14.1
      42
0.414213562373092
      10
-14.1
      20
-15.1
      42
0
      10
14.1
      20
-15.1
      42
0.414213562373095
      10
15.1
      20
-14.1
      42
0
    1001
FS_CYPCUT
    1000
Channel
    1070
1
    1000
LeadIn
    1002
{
    1070
3
    1040
1.5177304964539
    1040
1.5707963267949
    1040
0.5
    1040
0.5
    1070
0
    1040
0.5
    1070
0
    1002
}
    1000
LeadOut
    1002
{
    1070
0
    1040
0
    1040
0
    1040
0
    1070
0
    1002
}
    1000
IsFill
    1070
0
    1000
PathStart
    1040
1.5
    1000
ToolCompensation
    1002
{
    1070
0
    1040
0
    1070
0
    1002
}
    1000
MicroConnect
    1002
{
    1070
1
    1040
1.5
    1041
0.5
    1042
0
    1002
}
       0
LWPOLYLINE
       5
209E
     100
AcDbEntity
       8
1
     100
AcDbPolyline
      90
8
      70
1
      10
30
      20
26
      42
0.414213562373096
      10
26
      20
30
      42
0
      10
-26
      20
30
      42
0.414213562373096
      10
-30
      20
26
      42
0
      10
-30
      20
-26
      42
0.414213562373095
      10
-26
      20
-30
      42
0
      10
26
      20
-30
      42
0.414213562373095
      10
30
      20
-26
      42
0
    1001
FS_CYPCUT
    1000
Channel
    1070
1
    1000
LeadIn
    1002
{
    1070
3
    1040
1.50961538461538
    1040
1.5707963267949
    1040
0.5
    1040
0.5
    1070
0
    1040
0.5
    1070
0
    1002
}
    1000
LeadOut
    1002
{
    1070
0
    1040
0
    1040
0
    1040
0
    1070
0
    1002
}
    1000
IsFill
    1070
1
    1000
PathStart
    1040
1.5
    1000
ToolCompensation
    1002
{
    1070
0
    1040
0
    1070
0
    1002
}
    1000
MicroConnect
    1002
{
    1070
2
    1040
1.5
    1041
0.5
    1042
0
    1040
5.5
    1041
0.5
    1042
0
    1002
}
       0
ENDBLK
       5
209F
     330
2014
     100
AcDbEntity
       8
0
     100
AcDbBlockEnd
       0
BLOCK
       5
20A0
     330
2015
     100
AcDbEntity
       8
0
     100
AcDbBlockBegin
       2
Part1641029674
      70
0
      10
-31.26
      20
-100
      30
0
       3
Part1641029674
       1

       4
CypCutBlock
       0
CIRCLE
       5
20A1
     100
AcDbEntity
       8
1
     100
AcDbCircle
      10
11.5
      20
-40
      30
0
      40
3.39999999999998
    1001
FS_CYPCUT
    1000
Channel
    1070
1
    1000
LeadIn
    1002
{
    1070
3
    1040
0
    1040
1.5707963267949
    1040
0.5
    1040
0.5
    1070
0
    1040
0.5
    1070
0
    1002
}
    1000
LeadOut
    1002
{
    1070
0
    1040
0
    1040
0
    1040
0
    1070
0
    1002
}
    1000
IsFill
    1070
0
    1000
PathStart
    1040
0
    1000
ToolCompensation
    1002
{
    1070
0
    1040
0
    1070
0
    1002
}
       0
CIRCLE
       5
20A2
     100
AcDbEntity
       8
1
     100
AcDbCircle
      10
11.5
      20
0
      30
0
      40
3.39999999999999
    1001
FS_CYPCUT
    1000
Channel
    1070
1
    1000
LeadIn
    1002
{
    1070
3
    1040
0
    1040
1.5707963267949
    1040
0.5
    1040
0.5
    1070
0
    1040
0.5
    1070
0
    1002
}
    1000
LeadOut
    1002
{
    1070
0
    1040
0
    1040
0
    1040
0
    1070
0
    1002
}
    1000
IsFill
    1070
0
    1000
PathStart
    1040
1
    1000
ToolCompensation
    1002
{
    1070
0
    1040
0
    1070
0
    1002
}
       0
CIRCLE
       5
20A3
     100
AcDbEntity
       8
1
     100
AcDbCircle
      10
11.5
      20
40
      30
0
      40
3.39999999999998
    1001
FS_CYPCUT
    1000
Channel
    1070
1
    1000
LeadIn
    1002
{
    1070
3
    1040
0
    1040
1.5707963267949
    1040
0.5
    1040
0.5
    1070
0
    1040
0.5
    1070
0
    1002
}
    1000
LeadOut
    1002
{
    1070
0
    1040
0
    1040
0
    1040
0
    1070
0
    1002
}
    1000
IsFill
    1070
0
    1000
PathStart
    1040
0
    1000
ToolCompensation
    1002
{
    1070
0
    1040
0
    1070
0
    1002
}
       0
LWPOLYLINE
       5
20A4
     100
AcDbEntity
       8
1
     100
AcDbPolyline
      90
20
      70
1
      10
26.5
      20
98
      42
0
      10
26.5
      20
-98
      42
-0.414213562373091
      10
24.5
      20
-100
      42
0
      10
19.5
      20
-100
      42
0
      10
19.5
      20
-94
      42
0
      10
-21.5
      20
-94
      42
-0.414213562373095
      10
-26.5
      20
-89
      42
0
      10
-26.5
      20
-50
      42
0
      10
-31.26
      20
-50
      42
0
      10
-31.26
      20
-30
      42
0
      10
-26.5
      20
-30
      42
0
      10
-26.5
      20
30
      42
0
      10
-31.26
      20
30
      42
0
      10
-31.26
      20
50
      42
0
      10
-26.5
      20
50
      42
0
      10
-26.5
      20
89
      42
-0.414213562373095
      10
-21.5
      20
94
      42
0
      10
19.5
      20
94
      42
0
      10
19.5
      20
100
      42
0
      10
24.5
      20
100
      42
-0.414213562373091
    1001
FS_CYPCUT
    1000
Channel
    1070
1
    1000
LeadIn
    1002
{
    1070
3
    1040
0.5
    1040
1.5707963267949
    1040
0.5
    1040
0.5
    1070
0
    1040
0.5
    1070
0
    1002
}
    1000
LeadOut
    1002
{
    1070
0
    1040
0
    1040
0
    1040
0
    1070
0
    1002
}
    1000
IsFill
    1070
1
    1000
PathStart
    1040
0.5
    1000
ToolCompensation
    1002
{
    1070
0
    1040
0
    1070
0
    1002
}
    1000
MicroConnect
    1002
{
    1070
2
    1040
0.145760743
    1041
0.8
    1042
0
    1040
6.44340213
    1041
0.8
    1042
0
    1002
}
       0
ENDBLK
       5
20A5
     330
2015
     100
AcDbEntity
       8
0
     100
AcDbBlockEnd
       0
BLOCK
       5
20A6
     330
2016
     100
AcDbEntity
       8
0
     100
AcDbBlockBegin
       2
Part282244199
      70
0
      10
-20
      20
-129.81802
      30
0
       3
Part282244199
       1

       4
CypCutBlock
       0
LWPOLYLINE
       5
20A7
     100
AcDbEntity
       8
1
     100
AcDbPolyline
      90
4
      70
1
      10
4.5
      20
-93.8180198675
      42
1
      10
-4.5
      20
-93.8180198675
      42
0
      10
-4.5
      20
-121.8180198675
      42
1
      10
4.5
      20
-121.8180198675
      42
0
    1001
FS_CYPCUT
    1000
Channel
    1070
1
    1000
LeadIn
    1002
{
    1070
3
    1040
1.5
    1040
1.5707963267949
    1040
0.5
    1040
0.5
    1070
0
    1040
0.5
    1070
0
    1002
}
    1000
LeadOut
    1002
{
    1070
0
    1040
0
    1040
0
    1040
0
    1070
0
    1002
}
    1000
IsFill
    1070
0
    1000
PathStart
    1040
1.5
    1000
ToolCompensation
    1002
{
    1070
0
    1040
0
    1070
0
    1002
}
       0
LINE
       5
20A8
     100
AcDbEntity
       8
2
     100
AcDbLine
      10
-20
      20
-71.6394015132
      30
0
      11
20
      21
-71.6394015132
      31
0
    1001
FS_CYPCUT
    1000
Channel
    1070
2
    1000
LeadIn
    1002
{
    1070
3
    1040
0
    1040
1.5707963267949
    1040
0.5
    1040
0.5
    1070
0
    1040
0.5
    1070
0
    1002
}
    1000
LeadOut
    1002
{
    1070
0
    1040
0
    1040
0
    1040
0
    1070
0
    1002
}
    1000
IsFill
    1070
0
    1000
PathStart
    1040
0
    1000
ToolCompensation
    1002
{
    1070
0
    1040
0
    1070
0
    1002
}
    1000
MicroConnect
    1002
{
    1070
1
    1040
1
    1041
0.5
    1042
0
    1002
}
       0
LINE
       5
20A9
     100
AcDbEntity
       8
2
     100
AcDbLine
      10
20
      20
121.3554983399
      30
0
      11
-20
      21
121.3554983399
      31
0
    1001
FS_CYPCUT
    1000
Channel
    1070
2
    1000
LeadIn
    1002
{
    1070
3
    1040
0.0125
    1040
1.5707963267949
    1040
0.5
    1040
0.5
    1070
0
    1040
0.5
    1070
0
    1002
}
    1000
LeadOut
    1002
{
    1070
0
    1040
0
    1040
0
    1040
0
    1070
0
    1002
}
    1000
IsFill
    1070
0
    1000
PathStart
    1040
0
    1000
ToolCompensation
    1002
{
    1070
0
    1040
0
    1070
0
    1002
}
    1000
MicroConnect
    1002
{
    1070
1
    1040
0
    1041
0.5
    1042
0
    1002
}
       0
LWPOLYLINE
       5
20AA
     100
AcDbEntity
       8
1
     100
AcDbPolyline
      90
4
      70
1
      10
4.5
      20
152.1488219997
      42
0
      10
4.5
      20
132.1488219997
      42
-1
      10
-4.5
      20
132.1488219997
      42
0
      10
-4.5
      20
152.1488219997
      42
-1
    1001
FS_CYPCUT
    1000
Channel
    1070
1
    1000
LeadIn
    1002
{
    1070
3
    1040
0.5
    1040
1.5707963267949
    1040
0.5
    1040
0.5
    1070
0
    1040
0.5
    1070
0
    1002
}
    1000
LeadOut
    1002
{
    1070
0
    1040
0
    1040
0
    1040
0
    1070
0
    1002
}
    1000
IsFill
    1070
0
    1000
PathStart
    1040
0.5
    1000
ToolCompensation
    1002
{
    1070
0
    1040
0
    1070
0
    1002
}
       0
LWPOLYLINE
       5
20AB
     100
AcDbEntity
       8
1
     100
AcDbPolyline
      90
8
      70
1
      10
19.9999999999999
      20
155.1488219997
      42
0.414213562373097
      10
15
      20
160.1488219997
      42
0
      10
-15
      20
160.1488219997
      42
0.414213562373097
      10
-20
      20
155.1488219997
      42
0
      10
-20
      20
-124.8180198675
      42
0.414213562373092
      10
-15
      20
-129.8180198675
      42
0
      10
15
      20
-129.8180198675
      42
0.414213562373096
      10
20
      20
-124.8180198675
      42
0
    1001
FS_CYPCUT
    1000
Channel
    1070
1
    1000
LeadIn
    1002
{
    1070
3
    1040
3.50178592577844
    1040
1.5707963267949
    1040
0.5
    1040
0.5
    1070
0
    1040
0.5
    1070
0
    1002
}
    1000
LeadOut
    1002
{
    1070
0
    1040
0
    1040
0
    1040
0
    1070
0
    1002
}
    1000
IsFill
    1070
1
    1000
PathStart
    1040
3.5
    1000
ToolCompensation
    1002
{
    1070
0
    1040
0
    1070
0
    1002
}
    1000
MicroConnect
    1002
{
    1070
1
    1040
3.5
    1041
0.5
    1042
0
    1002
}
       0
ENDBLK
       5
20AC
     330
2016
     100
AcDbEntity
       8
0
     100
AcDbBlockEnd
       0
ENDSEC
       0
SECTION
       2
ENTITIES
       0
INSERT
       5
20AD
     100
AcDbEntity
       8
1
     100
AcDbBlockReference
       2
Part660251976
      10
7777.80854345506
      20
13884.3035787955
      30
0
      41
1
      42
1
      50
180
    1001
FS_CYPCUT
    1000
Channel
    1070
1
    1000
LeadIn
    1002
{
    1070
0
    1040
0
    1040
0
    1040
0
    1040
0
    1070
0
    1040
0
    1070
0
    1002
}
    1000
LeadOut
    1002
{
    1070
0
    1040
0
    1040
0
    1040
0
    1070
0
    1002
}
       0
INSERT
       5
20AE
     100
AcDbEntity
       8
1
     100
AcDbBlockReference
       2
Part86735076
      10
7780.80584346276
      20
13885.0801788032
      30
0
      41
1
      42
1
      50
269.999999977959
    1001
FS_CYPCUT
    1000
Channel
    1070
1
    1000
LeadIn
    1002
{
    1070
0
    1040
0
    1040
0
    1040
0
    1040
0
    1070
0
    1040
0
    1070
0
    1002
}
    1000
LeadOut
    1002
{
    1070
0
    1040
0
    1040
0
    1040
0
    1070
0
    1002
}
       0
INSERT
       5
20AF
     100
AcDbEntity
       8
1
     100
AcDbBlockReference
       2
Part796839459
      10
7885.42204345506
      20
13905.0963787955
      30
0
      41
1
      42
1
      50
180
    1001
FS_CYPCUT
    1000
Channel
    1070
1
    1000
LeadIn
    1002
{
    1070
0
    1040
0
    1040
0
    1040
0
    1040
0
    1070
0
    1040
0
    1070
0
    1002
}
    1000
LeadOut
    1002
{
    1070
0
    1040
0
    1040
0
    1040
0
    1070
0
    1002
}
       0
INSERT
       5
20B0
     100
AcDbEntity
       8
1
     100
AcDbBlockReference
       2
Part991840590
      10
7718.76540035506
      20
13664.0250787955
      30
0
      41
1
      42
1
      50
0
    1001
FS_CYPCUT
    1000
Channel
    1070
1
    1000
LeadIn
    1002
{
    1070
0
    1040
0
    1040
0
    1040
0
    1040
0
    1070
0
    1040
0
    1070
0
    1002
}
    1000
LeadOut
    1002
{
    1070
0
    1040
0
    1040
0
    1040
0
    1070
0
    1002
}
       0
INSERT
       5
20B1
     100
AcDbEntity
       8
1
     100
AcDbBlockReference
       2
Part1550001671
      10
8074.44006351916
      20
13802.0805792115
      30
0
      41
1
      42
1
      50
90.0000001836389
    1001
FS_CYPCUT
    1000
Channel
    1070
1
    1000
LeadIn
    1002
{
    1070
0
    1040
0
    1040
0
    1040
0
    1040
0
    1070
0
    1040
0
    1070
0
    1002
}
    1000
LeadOut
    1002
{
    1070
0
    1040
0
    1040
0
    1040
0
    1070
0
    1002
}
       0
INSERT
       5
20B2
     100
AcDbEntity
       8
1
     100
AcDbBlockReference
       2
Part1625593523
      10
7948.41994345506
      20
13905.0963787955
      30
0
      41
1
      42
1
      50
180
    1001
FS_CYPCUT
    1000
Channel
    1070
1
    1000
LeadIn
    1002
{
    1070
0
    1040
0
    1040
0
    1040
0
    1040
0
    1070
0
    1040
0
    1070
0
    1002
}
    1000
LeadOut
    1002
{
    1070
0
    1040
0
    1040
0
    1040
0
    1070
0
    1002
}
       0
INSERT
       5
20B3
     100
AcDbEntity
       8
2
     100
AcDbBlockReference
       2
Part1639863852
      10
7746.70374467341
      20
13821.2805786026
      30
0
      41
1
      42
1
      50
269.999999977959
    1001
FS_CYPCUT
    1000
Channel
    1070
2
    1000
LeadIn
    1002
{
    1070
0
    1040
0
    1040
0
    1040
0
    1040
0
    1070
0
    1040
0
    1070
0
    1002
}
    1000
LeadOut
    1002
{
    1070
0
    1040
0
    1040
0
    1040
0
    1070
0
    1002
}
       0
INSERT
       5
20B4
     100
AcDbEntity
       8
1
     100
AcDbBlockReference
       2
Part707347194
      10
8022.87544346275
      20
13885.0894788032
      30
0
      41
1
      42
1
      50
269.999999977959
    1001
FS_CYPCUT
    1000
Channel
    1070
1
    1000
LeadIn
    1002
{
    1070
0
    1040
0
    1040
0
    1040
0
    1040
0
    1070
0
    1040
0
    1070
0
    1002
}
    1000
LeadOut
    1002
{
    1070
0
    1040
0
    1040
0
    1040
0
    1070
0
    1002
}
       0
INSERT
       5
20B5
     100
AcDbEntity
       8
1
     100
AcDbBlockReference
       2
Part1814344241
      10
7979.87694346276
      20
13885.0894788032
      30
0
      41
1
      42
1
      50
269.999999977959
    1001
FS_CYPCUT
    1000
Channel
    1070
1
    1000
LeadIn
    1002
{
    1070
0
    1040
0
    1040
0
    1040
0
    1040
0
    1070
0
    1040
0
    1070
0
    1002
}
    1000
LeadOut
    1002
{
    1070
0
    1040
0
    1040
0
    1040
0
    1070
0
    1002
}
       0
INSERT
       5
20B6
     100
AcDbEntity
       8
1
     100
AcDbBlockReference
       2
Part555330979
      10
7958.00694346483
      20
13760.7614787955
      30
0
      41
1
      42
1
      50
269.999999977959
    1001
FS_CYPCUT
    1000
Channel
    1070
1
    1000
LeadIn
    1002
{
    1070
0
    1040
0
    1040
0
    1040
0
    1040
0
    1070
0
    1040
0
    1070
0
    1002
}
    1000
LeadOut
    1002
{
    1070
0
    1040
0
    1040
0
    1040
0
    1070
0
    1002
}
       0
INSERT
       5
20B7
     100
AcDbEntity
       8
1
     100
AcDbBlockReference
       2
Part131869323
      10
8009.50730045506
      20
13664.0250787955
      30
0
      41
1
      42
1
      50
0
    1001
FS_CYPCUT
    1000
Channel
    1070
1
    1000
LeadIn
    1002
{
    1070
0
    1040
0
    1040
0
    1040
0
    1040
0
    1070
0
    1040
0
    1070
0
    1002
}
    1000
LeadOut
    1002
{
    1070
0
    1040
0
    1040
0
    1040
0
    1070
0
    1002
}
       0
LWPOLYLINE
       5
20B8
     100
AcDbEntity
       8
1
     100
AcDbPolyline
      90
14
      70
1
      10
8182.41574345507
      20
13827.0415787955
      42
0
      10
8162.41574345506
      20
13827.0415787955
      42
0
      10
8162.41574345506
      20
13857.0415787955
      42
0
      10
8134.91574345506
      20
13857.0415787955
      42
0
      10
8134.91574345506
      20
13862.0415787955
      42
0
      10
8109.91574345506
      20
13862.0415787955
      42
0
      10
8109.91574345506
      20
13857.0415787955
      42
0
      10
8077.41574345506
      20
13857.0415787955
      42
0
      10
8077.41574345506
      20
13837.8150814874
      42
0.267949192431121
      10
8082.41574345506
      20
13829.1548274495
      42
0
      10
8127.05675960636
      20
13803.3813247577
      42
0.131652497587396
      10
8132.05675960636
      20
13802.0415787955
      42
0
      10
8177.41574345507
      20
13802.0415787955
      42
0.414213562373095
      10
8182.41574345507
      20
13807.0415787955
      42
0
    1001
FS_CYPCUT
    1000
Channel
    1070
1
    1000
LeadIn
    1002
{
    1070
3
    1040
9.50991157524523
    1040
1.5707963267949
    1040
0.5
    1040
0.5
    1070
0
    1040
0.5
    1070
0
    1002
}
    1000
LeadOut
    1002
{
    1070
0
    1040
0
    1040
0
    1040
0
    1070
0
    1002
}
    1000
IsFill
    1070
1
    1000
PathStart
    1040
9.5
    1000
ToolCompensation
    1002
{
    1070
0
    1040
0
    1070
0
    1002
}
    1000
MicroConnect
    1002
{
    1070
2
    1040
2.27272727
    1041
0.8
    1042
0
    1040
9.49439176
    1041
0.8
    1042
0
    1002
}
       0
INSERT
       5
20B9
     100
AcDbEntity
       8
1
     100
AcDbBlockReference
       2
Part1978494733
      10
8245.41584345507
      20
13883.8537787955
      30
0
      41
1
      42
1
      50
180
    1001
FS_CYPCUT
    1000
Channel
    1070
1
    1000
LeadIn
    1002
{
    1070
0
    1040
0
    1040
0
    1040
0
    1040
0
    1070
0
    1040
0
    1070
0
    1002
}
    1000
LeadOut
    1002
{
    1070
0
    1040
0
    1040
0
    1040
0
    1070
0
    1002
}
       0
INSERT
       5
20BA
     100
AcDbEntity
       8
1
     100
AcDbBlockReference
       2
Part318688471
      10
8255.22154345507
      20
13728.1474877955
      30
0
      41
1
      42
1
      50
0
    1001
FS_CYPCUT
    1000
Channel
    1070
1
    1000
LeadIn
    1002
{
    1070
0
    1040
0
    1040
0
    1040
0
    1040
0
    1070
0
    1040
0
    1070
0
    1002
}
    1000
LeadOut
    1002
{
    1070
0
    1040
0
    1040
0
    1040
0
    1070
0
    1002
}
       0
INSERT
       5
20BB
     100
AcDbEntity
       8
1
     100
AcDbBlockReference
       2
Part1935110264
      10
8318.21594346276
      20
13898.0805788032
      30
0
      41
1
      42
1
      50
269.999999977959
    1001
FS_CYPCUT
    1000
Channel
    1070
1
    1000
LeadIn
    1002
{
    1070
0
    1040
0
    1040
0
    1040
0
    1040
0
    1070
0
    1040
0
    1070
0
    1002
}
    1000
LeadOut
    1002
{
    1070
0
    1040
0
    1040
0
    1040
0
    1070
0
    1002
}
       0
INSERT
       5
20BC
     100
AcDbEntity
       8
1
     100
AcDbBlockReference
       2
Part
      10
8827.90854423065
      20
13376.9607957955
      30
0
      41
1
      42
1
      50
90.0000001836389
    1001
FS_CYPCUT
    1000
Channel
    1070
1
    1000
LeadIn
    1002
{
    1070
0
    1040
0
    1040
0
    1040
0
    1040
0
    1070
0
    1040
0
    1070
0
    1002
}
    1000
LeadOut
    1002
{
    1070
0
    1040
0
    1040
0
    1040
0
    1070
0
    1002
}
       0
INSERT
       5
20BD
     100
AcDbEntity
       8
1
     100
AcDbBlockReference
       2
Part1570292409
      10
8300.24920045507
      20
13664.0250787955
      30
0
      41
1
      42
1
      50
0
    1001
FS_CYPCUT
    1000
Channel
    1070
1
    1000
LeadIn
    1002
{
    1070
0
    1040
0
    1040
0
    1040
0
    1040
0
    1070
0
    1040
0
    1070
0
    1002
}
    1000
LeadOut
    1002
{
    1070
0
    1040
0
    1040
0
    1040
0
    1070
0
    1002
}
       0
LWPOLYLINE
       5
20BE
     100
AcDbEntity
       8
1
     100
AcDbPolyline
      90
4
      70
1
      10
8590.89854345507
      20
13830.0805787955
      42
0
      10
8320.89854345507
      20
13830.0805787955
      42
0
      10
8320.89854345507
      20
13855.0805787955
      42
0
      10
8590.89854345507
      20
13855.0805787955
      42
0
    1001
FS_CYPCUT
    1000
Channel
    1070
1
    1000
LeadIn
    1002
{
    1070
3
    1040
0.5
    1040
1.5707963267949
    1040
0.5
    1040
0.5
    1070
0
    1040
0.5
    1070
0
    1002
}
    1000
LeadOut
    1002
{
    1070
0
    1040
0
    1040
0
    1040
0
    1070
0
    1002
}
    1000
IsFill
    1070
1
    1000
PathStart
    1040
0.5
    1000
ToolCompensation
    1002
{
    1070
0
    1040
0
    1070
0
    1002
}
    1000
MicroConnect
    1002
{
    1070
2
    1040
0.169105691
    1041
0.8
    1042
0
    1040
2.17073171
    1041
0.8
    1042
0
    1002
}
       0
LWPOLYLINE
       5
20BF
     100
AcDbEntity
       8
1
     100
AcDbPolyline
      90
4
      70
1
      10
8640.62804345507
      20
13802.0805787955
      42
0
      10
8370.62804345507
      20
13802.0805787955
      42
0
      10
8370.62804345507
      20
13827.0805787955
      42
0
      10
8640.62804345507
      20
13827.0805787955
      42
0
    1001
FS_CYPCUT
    1000
Channel
    1070
1
    1000
LeadIn
    1002
{
    1070
3
    1040
0.5
    1040
1.5707963267949
    1040
0.5
    1040
0.5
    1070
0
    1040
0.5
    1070
0
    1002
}
    1000
LeadOut
    1002
{
    1070
0
    1040
0
    1040
0
    1040
0
    1070
0
    1002
}
    1000
IsFill
    1070
1
    1000
PathStart
    1040
0.5
    1000
ToolCompensation
    1002
{
    1070
0
    1040
0
    1070
0
    1002
}
    1000
MicroConnect
    1002
{
    1070
2
    1040
0.169105691
    1041
0.8
    1042
0
    1040
2.17073171
    1041
0.8
    1042
0
    1002
}
       0
INSERT
       5
20C0
     100
AcDbEntity
       8
2
     100
AcDbBlockReference
       2
Part646898401
      10
8328.18754467342
      20
13821.2805786026
      30
0
      41
1
      42
1
      50
269.999999977959
    1001
FS_CYPCUT
    1000
Channel
    1070
2
    1000
LeadIn
    1002
{
    1070
0
    1040
0
    1040
0
    1040
0
    1040
0
    1070
0
    1040
0
    1070
0
    1002
}
    1000
LeadOut
    1002
{
    1070
0
    1040
0
    1040
0
    1040
0
    1070
0
    1002
}
       0
INSERT
       5
20C1
     100
AcDbEntity
       8
1
     100
AcDbBlockReference
       2
Part466617222
      10
8539.49074346484
      20
13760.7614787955
      30
0
      41
1
      42
1
      50
269.999999977959
    1001
FS_CYPCUT
    1000
Channel
    1070
1
    1000
LeadIn
    1002
{
    1070
0
    1040
0
    1040
0
    1040
0
    1040
0
    1070
0
    1040
0
    1070
0
    1002
}
    1000
LeadOut
    1002
{
    1070
0
    1040
0
    1040
0
    1040
0
    1070
0
    1002
}
       0
INSERT
       5
20C2
     100
AcDbEntity
       8
1
     100
AcDbBlockReference
       2
Part1950801516
      10
8653.89864345507
      20
13890.0805787955
      30
0
      41
1
      42
1
      50
180
    1001
FS_CYPCUT
    1000
Channel
    1070
1
    1000
LeadIn
    1002
{
    1070
0
    1040
0
    1040
0
    1040
0
    1040
0
    1070
0
    1040
0
    1070
0
    1002
}
    1000
LeadOut
    1002
{
    1070
0
    1040
0
    1040
0
    1040
0
    1070
0
    1002
}
       0
LWPOLYLINE
       5
20C3
     100
AcDbEntity
       8
1
     100
AcDbPolyline
      90
14
      70
1
      10
8762.49904345507
      20
13826.9949787955
      42
0
      10
8742.49904345507
      20
13826.9949787955
      42
0
      10
8742.49904345507
      20
13856.9949787955
      42
0
      10
8714.99904345507
      20
13856.9949787955
      42
0
      10
8714.99904345507
      20
13861.9949787955
      42
0
      10
8689.99904345507
      20
13861.9949787955
      42
0
      10
8689.99904345507
      20
13856.9949787955
      42
0
      10
8657.49904345507
      20
13856.9949787955
      42
0
      10
8657.49904345507
      20
13837.7684814874
      42
0.267949192431121
      10
8662.49904345507
      20
13829.1082274495
      42
0
      10
8707.14005960637
      20
13803.3347247577
      42
0.131652497587396
      10
8712.14005960637
      20
13801.9949787955
      42
0
      10
8757.49904345507
      20
13801.9949787955
      42
0.414213562373095
      10
8762.49904345507
      20
13806.9949787955
      42
0
    1001
FS_CYPCUT
    1000
Channel
    1070
1
    1000
LeadIn
    1002
{
    1070
3
    1040
9.50991157524523
    1040
1.5707963267949
    1040
0.5
    1040
0.5
    1070
0
    1040
0.5
    1070
0
    1002
}
    1000
LeadOut
    1002
{
    1070
0
    1040
0
    1040
0
    1040
0
    1070
0
    1002
}
    1000
IsFill
    1070
1
    1000
PathStart
    1040
9.5
    1000
ToolCompensation
    1002
{
    1070
0
    1040
0
    1070
0
    1002
}
    1000
MicroConnect
    1002
{
    1070
2
    1040
2.27272727
    1041
0.8
    1042
0
    1040
9.49439176
    1041
0.8
    1042
0
    1002
}
       0
INSERT
       5
20C4
     100
AcDbEntity
       8
1
     100
AcDbBlockReference
       2
Part2117318049
      10
8590.99110045507
      20
13664.0250787955
      30
0
      41
1
      42
1
      50
0
    1001
FS_CYPCUT
    1000
Channel
    1070
1
    1000
LeadIn
    1002
{
    1070
0
    1040
0
    1040
0
    1040
0
    1040
0
    1070
0
    1040
0
    1070
0
    1002
}
    1000
LeadOut
    1002
{
    1070
0
    1040
0
    1040
0
    1040
0
    1070
0
    1002
}
       0
INSERT
       5
20C5
     100
AcDbEntity
       8
1
     100
AcDbBlockReference
       2
Part1666522677
      10
8825.49914345507
      20
13883.6125787955
      30
0
      41
1
      42
1
      50
180
    1001
FS_CYPCUT
    1000
Channel
    1070
1
    1000
LeadIn
    1002
{
    1070
0
    1040
0
    1040
0
    1040
0
    1040
0
    1070
0
    1040
0
    1070
0
    1002
}
    1000
LeadOut
    1002
{
    1070
0
    1040
0
    1040
0
    1040
0
    1070
0
    1002
}
       0
INSERT
       5
20C6
     100
AcDbEntity
       8
1
     100
AcDbBlockReference
       2
Part1641029674
      10
8854.04854345507
      20
13720.8277787955
      30
0
      41
1
      42
1
      50
0
    1001
FS_CYPCUT
    1000
Channel
    1070
1
    1000
LeadIn
    1002
{
    1070
0
    1040
0
    1040
0
    1040
0
    1040
0
    1070
0
    1040
0
    1070
0
    1002
}
    1000
LeadOut
    1002
{
    1070
0
    1040
0
    1040
0
    1040
0
    1070
0
    1002
}
       0
INSERT
       5
20C7
     100
AcDbEntity
       8
1
     100
AcDbBlockReference
       2
Part282244199
      10
8884.43134345507
      20
13666.9275987955
      30
0
      41
1
      42
1
      50
180
    1001
FS_CYPCUT
    1000
Channel
    1070
1
    1000
LeadIn
    1002
{
    1070
0
    1040
0
    1040
0
    1040
0
    1040
0
    1070
0
    1040
0
    1070
0
    1002
}
    1000
LeadOut
    1002
{
    1070
0
    1040
0
    1040
0
    1040
0
    1070
0
    1002
}
       0
ENDSEC
  0
SECTION
  2
OBJECTS
  0
DICTIONARY
  5
111
330
0
100
AcDbDictionary
281
     1
  3
ACAD_COLOR
350
120
  3
ACAD_GROUP
350
112
  3
ACAD_LAYOUT
350
11E
  3
ACAD_MATERIAL
350
11F
  3
ACAD_MLINESTYLE
350
11B
  3
ACAD_PLOTSETTINGS
350
11D
  3
ACAD_PLOTSTYLENAME
350
113
  3
ACAD_TABLESTYLE
350
121
  3
AcDbVariableDictionary
350
135
  0
DICTIONARY
  5
120
102
{ACAD_REACTORS
330
111
102
}
330
111
100
AcDbDictionary
281
     1
  0
DICTIONARY
  5
112
102
{ACAD_REACTORS
330
111
102
}
330
111
100
AcDbDictionary
281
     1
  0
DICTIONARY
  5
11E
102
{ACAD_REACTORS
330
111
102
}
330
111
100
AcDbDictionary
281
     1
  3
Model
350
12A
  3
布局1
350
126
  0
DICTIONARY
  5
11F
102
{ACAD_REACTORS
330
111
102
}
330
111
100
AcDbDictionary
281
     1
  0
DICTIONARY
  5
11B
102
{ACAD_REACTORS
330
111
102
}
330
111
100
AcDbDictionary
281
     1
  3
Standard
350
11C
  0
DICTIONARY
  5
11D
102
{ACAD_REACTORS
330
111
102
}
330
111
100
AcDbDictionary
281
     1
  0
ACDBDICTIONARYWDFLT
  5
113
102
{ACAD_REACTORS
330
111
102
}
330
111
100
AcDbDictionary
281
     1
  3
Normal
350
114
100
AcDbDictionaryWithDefault
340
114
  0
DICTIONARY
  5
121
102
{ACAD_REACTORS
330
111
102
}
330
111
100
AcDbDictionary
281
     1
  3
Standard
350
122
  0
DICTIONARY
  5
135
102
{ACAD_REACTORS
330
111
102
}
330
111
100
AcDbDictionary
281
     1
  3
CTABLESTYLE
350
136
  0
LAYOUT
  5
12A
102
{ACAD_REACTORS
330
11E
102
}
330
11E
100
AcDbPlotSettings
  1

  2
发送至 OneNote 2010
  4

  6

 40
0.0
 41
0.0
 42
0.0
 43
0.0
 44
0.0
 45
0.0
 46
0.0
 47
0.0
 48
0.0
 49
0.0
140
0.0
141
0.0
142
1.0
143
1.0
 70
  1712
 72
     0
 73
     0
 74
     0
  7

 75
     0
147
1.0
 76
     0
 77
     2
 78
   300
148
0.0
149
0.0
100
AcDbLayout
  1
Model
 70
     1
 71
     0
 10
0.0
 20
0.0
 11
12.0
 21
9.0
 12
0.0
 22
0.0
 32
0.0
 14
0.0
 24
0.0
 34
0.0
 15
0.0
 25
0.0
 35
0.0
146
0.0
 13
0.0
 23
0.0
 33
0.0
 16
1.0
 26
0.0
 36
0.0
 17
0.0
 27
1.0
 37
0.0
 76
     0
330
127
  0
LAYOUT
  5
126
102
{ACAD_REACTORS
330
11E
102
}
330
11E
100
AcDbPlotSettings
  1

  2
发送至 OneNote 2010
  4

  6

 40
0.0
 41
0.0
 42
0.0
 43
0.0
 44
0.0
 45
0.0
 46
0.0
 47
0.0
 48
0.0
 49
0.0
140
0.0
141
0.0
142
1.0
143
1.0
 70
   688
 72
     0
 73
     0
 74
     5
  7

 75
    16
147
1.0
 76
     0
 77
     2
 78
   300
148
0.0
149
0.0
100
AcDbLayout
  1
布局1
 70
     1
 71
     1
 10
0.0
 20
0.0
 11
12.0
 21
9.0
 12
0.0
 22
0.0
 32
0.0
 14
0.0
 24
0.0
 34
0.0
 15
0.0
 25
0.0
 35
0.0
146
0.0
 13
0.0
 23
0.0
 33
0.0
 16
1.0
 26
0.0
 36
0.0
 17
0.0
 27
1.0
 37
0.0
 76
     0
330
123
  0
MLINESTYLE
  5
11C
102
{ACAD_REACTORS
330
11B
102
}
330
11B
100
AcDbMlineStyle
  2
STANDARD
 70
     0
  3

 62
   256
 51
90.0
 52
90.0
 71
     2
 49
0.5
 62
   256
  6
BYLAYER
 49
-0.5
 62
   256
  6
BYLAYER
  0
ACDBPLACEHOLDER
  5
114
102
{ACAD_REACTORS
330
113
102
}
330
113
  0
TABLESTYLE
  5
122
102
{ACAD_REACTORS
330
121
102
}
330
121
100
AcDbTableStyle
  3
Standard
 70
     0
 71
     0
 40
0.06
 41
0.06
280
     0
281
     0
  7
STANDARD
140
0.18
170
     2
 62
     0
 63
     7
283
     0
274
    -2
284
     1
 64
     0
275
    -2
285
     1
 65
     0
276
    -2
286
     1
 66
     0
277
    -2
287
     1
 67
     0
278
    -2
288
     1
 68
     0
279
    -2
289
     1
 69
     0
  7
STANDARD
140
0.25
170
     5
 62
     0
 63
     7
283
     0
274
    -2
284
     1
 64
     0
275
    -2
285
     1
 65
     0
276
    -2
286
     1
 66
     0
277
    -2
287
     1
 67
     0
278
    -2
288
     1
 68
     0
279
    -2
289
     1
 69
     0
  7
STANDARD
140
0.18
170
     5
 62
     0
 63
     7
283
     0
274
    -2
284
     1
 64
     0
275
    -2
285
     1
 65
     0
276
    -2
286
     1
 66
     0
277
    -2
287
     1
 67
     0
278
    -2
288
     1
 68
     0
279
    -2
289
     1
 69
     0
  0
DICTIONARYVAR
  5
136
102
{ACAD_REACTORS
330
135
102
}
330
135
100
DictionaryVariables
280
     0
  1
STANDARD
  0
ENDSEC
  0
EOF
