  0
SECTION
  2
HEADER
  9
$ACADVER
  1
AC1018
  9
$ACADMAINTVER
 70
    77
  9
$DWGCODEPAGE
  3
ANSI_936
  9
$INSBASE
 10
0.0
 20
0.0
 30
0.0
  9
$EXTMIN
 10
5657.73640555264
 20
9946.42050920118
 30
0.0
  9
$EXTMAX
 10
6843.73650188125
 20
10951.5045073296
 30
0.0
  9
$LIMMIN
 10
0.0
 20
0.0
  9
$LIMMAX
 10
420.0
 20
297.0
  9
$ORTHOMODE
 70
     0
  9
$REGENMODE
 70
     1
  9
$FILLMODE
 70
     1
  9
$QTEXTMODE
 70
     0
  9
$MIRRTEXT
 70
     0
  9
$LTSCALE
 40
1.0
  9
$ATTMODE
 70
     1
  9
$TEXTSIZE
 40
2.5
  9
$TRACEWID
 40
1.0
  9
$TEXTSTYLE
  7
STANDARD
  9
$CLAYER
  8
0
  9
$CELTYPE
  6
ByLayer
  9
$CECOLOR
 62
   256
  9
$CELTSCALE
 40
1.0
  9
$DISPSILH
 70
     0
  9
$DIMSCALE
 40
1.0
  9
$DIMASZ
 40
2.5
  9
$DIMEXO
 40
0.625
  9
$DIMDLI
 40
3.75
  9
$DIMRND
 40
0.0
  9
$DIMDLE
 40
0.0
  9
$DIMEXE
 40
1.25
  9
$DIMTP
 40
0.0
  9
$DIMTM
 40
0.0
  9
$DIMTXT
 40
2.5
  9
$DIMCEN
 40
2.5
  9
$DIMTSZ
 40
0.0
  9
$DIMTOL
 70
     0
  9
$DIMLIM
 70
     0
  9
$DIMTIH
 70
     0
  9
$DIMTOH
 70
     0
  9
$DIMSE1
 70
     0
  9
$DIMSE2
 70
     0
  9
$DIMTAD
 70
     1
  9
$DIMZIN
 70
     8
  9
$DIMBLK
  1

  9
$DIMASO
 70
     1
  9
$DIMSHO
 70
     1
  9
$DIMPOST
  1

  9
$DIMAPOST
  1

  9
$DIMALT
 70
     0
  9
$DIMALTD
 70
     3
  9
$DIMALTF
 40
0.03937007874016
  9
$DIMLFAC
 40
1.0
  9
$DIMTOFL
 70
     1
  9
$DIMTVP
 40
0.0
  9
$DIMTIX
 70
     0
  9
$DIMSOXD
 70
     0
  9
$DIMSAH
 70
     0
  9
$DIMBLK1
  1

  9
$DIMBLK2
  1

  9
$DIMSTYLE
  2
ISO-25
  9
$DIMCLRD
 70
     0
  9
$DIMCLRE
 70
     0
  9
$DIMCLRT
 70
     0
  9
$DIMTFAC
 40
1.0
  9
$DIMGAP
 40
0.625
  9
$DIMJUST
 70
     0
  9
$DIMSD1
 70
     0
  9
$DIMSD2
 70
     0
  9
$DIMTOLJ
 70
     1
  9
$DIMTZIN
 70
     0
  9
$DIMALTZ
 70
     0
  9
$DIMALTTZ
 70
     0
  9
$DIMUPT
 70
     0
  9
$DIMDEC
 70
     4
  9
$DIMTDEC
 70
     4
  9
$DIMALTU
 70
     2
  9
$DIMALTTD
 70
     2
  9
$DIMTXSTY
  7
STANDARD
  9
$DIMAUNIT
 70
     0
  9
$DIMADEC
 70
     0
  9
$DIMALTRND
 40
0.0
  9
$DIMAZIN
 70
     0
  9
$DIMDSEP
 70
    46
  9
$DIMATFIT
 70
     3
  9
$DIMFRAC
 70
     0
  9
$DIMLDRBLK
  1

  9
$DIMLUNIT
 70
     2
  9
$DIMLWD
 70
    -2
  9
$DIMLWE
 70
    -2
  9
$DIMTMOVE
 70
     0
  9
$LUNITS
 70
     2
  9
$LUPREC
 70
     4
  9
$SKETCHINC
 40
1.0
  9
$FILLETRAD
 40
0.0
  9
$AUNITS
 70
     0
  9
$AUPREC
 70
     0
  9
$MENU
  1
.
  9
$ELEVATION
 40
0.0
  9
$PELEVATION
 40
0.0
  9
$THICKNESS
 40
0.0
  9
$LIMCHECK
 70
     0
  9
$CHAMFERA
 40
0.0
  9
$CHAMFERB
 40
0.0
  9
$CHAMFERC
 40
0.0
  9
$CHAMFERD
 40
0.0
  9
$SKPOLY
 70
     0
  9
$TDCREATE
 40
2456997.676706910
  9
$TDUCREATE
 40
2456997.343373576
  9
$TDUPDATE
 40
2456997.680113438
  9
$TDUUPDATE
 40
2456997.346780104
  9
$TDINDWG
 40
0.0010312963
  9
$TDUSRTIMER
 40
0.0010311806
  9
$USRTIMER
 70
     1
  9
$ANGBASE
 50
0.0
  9
$ANGDIR
 70
     0
  9
$PDMODE
 70
     0
  9
$PDSIZE
 40
0.0
  9
$PLINEWID
 40
0.0
  9
$SPLFRAME
 70
     0
  9
$SPLINETYPE
 70
     6
  9
$SPLINESEGS
 70
     8
  9
$HANDSEED
  5
2493
  9
$SURFTAB1
 70
     6
  9
$SURFTAB2
 70
     6
  9
$SURFTYPE
 70
     6
  9
$SURFU
 70
     6
  9
$SURFV
 70
     6
  9
$UCSBASE
  2

  9
$UCSNAME
  2

  9
$UCSORG
 10
0.0
 20
0.0
 30
0.0
  9
$UCSXDIR
 10
1.0
 20
0.0
 30
0.0
  9
$UCSYDIR
 10
0.0
 20
1.0
 30
0.0
  9
$UCSORTHOREF
  2

  9
$UCSORTHOVIEW
 70
     0
  9
$UCSORGTOP
 10
0.0
 20
0.0
 30
0.0
  9
$UCSORGBOTTOM
 10
0.0
 20
0.0
 30
0.0
  9
$UCSORGLEFT
 10
0.0
 20
0.0
 30
0.0
  9
$UCSORGRIGHT
 10
0.0
 20
0.0
 30
0.0
  9
$UCSORGFRONT
 10
0.0
 20
0.0
 30
0.0
  9
$UCSORGBACK
 10
0.0
 20
0.0
 30
0.0
  9
$PUCSBASE
  2

  9
$PUCSNAME
  2

  9
$PUCSORG
 10
0.0
 20
0.0
 30
0.0
  9
$PUCSXDIR
 10
1.0
 20
0.0
 30
0.0
  9
$PUCSYDIR
 10
0.0
 20
1.0
 30
0.0
  9
$PUCSORTHOREF
  2

  9
$PUCSORTHOVIEW
 70
     0
  9
$PUCSORGTOP
 10
0.0
 20
0.0
 30
0.0
  9
$PUCSORGBOTTOM
 10
0.0
 20
0.0
 30
0.0
  9
$PUCSORGLEFT
 10
0.0
 20
0.0
 30
0.0
  9
$PUCSORGRIGHT
 10
0.0
 20
0.0
 30
0.0
  9
$PUCSORGFRONT
 10
0.0
 20
0.0
 30
0.0
  9
$PUCSORGBACK
 10
0.0
 20
0.0
 30
0.0
  9
$USERI1
 70
     0
  9
$USERI2
 70
     0
  9
$USERI3
 70
     0
  9
$USERI4
 70
     0
  9
$USERI5
 70
     0
  9
$USERR1
 40
0.0
  9
$USERR2
 40
0.0
  9
$USERR3
 40
0.0
  9
$USERR4
 40
0.0
  9
$USERR5
 40
0.0
  9
$WORLDVIEW
 70
     1
  9
$SHADEDGE
 70
     3
  9
$SHADEDIF
 70
    70
  9
$TILEMODE
 70
     1
  9
$MAXACTVP
 70
    64
  9
$PINSBASE
 10
0.0
 20
0.0
 30
0.0
  9
$PLIMCHECK
 70
     0
  9
$PEXTMIN
 10
0.0
 20
0.0
 30
0.0
  9
$PEXTMAX
 10
0.0
 20
0.0
 30
0.0
  9
$PLIMMIN
 10
0.0
 20
0.0
  9
$PLIMMAX
 10
12.0
 20
9.0
  9
$UNITMODE
 70
     0
  9
$VISRETAIN
 70
     1
  9
$PLINEGEN
 70
     0
  9
$PSLTSCALE
 70
     1
  9
$TREEDEPTH
 70
  3020
  9
$CMLSTYLE
  2
Standard
  9
$CMLJUST
 70
     0
  9
$CMLSCALE
 40
1.0
  9
$PROXYGRAPHICS
 70
     1
  9
$MEASUREMENT
 70
     1
  9
$CELWEIGHT
370
    -1
  9
$ENDCAPS
280
     0
  9
$JOINSTYLE
280
     0
  9
$LWDISPLAY
290
     0
  9
$INSUNITS
 70
     0
  9
$HYPERLINKBASE
  1

  9
$STYLESHEET
  1

  9
$XEDIT
290
     1
  9
$CEPSNTYPE
380
     0
  9
$PSTYLEMODE
290
     1
  9
$FINGERPRINTGUID
  2
{1F2D6530-6BF2-4D5E-922F-A9C54F637010}
  9
$VERSIONGUID
  2
{15AD9CB5-51D1-451C-B472-5DB36EFAD6AD}
  9
$EXTNAMES
290
     1
  9
$PSVPSCALE
 40
0.0
  9
$OLESTARTUP
290
     0
  9
$SORTENTS
280
   127
  9
$INDEXCTL
280
     0
  9
$HIDETEXT
280
     0
  9
$XCLIPFRAME
290
     0
  9
$HALOGAP
280
     0
  9
$OBSCOLOR
 70
   257
  9
$OBSLTYPE
280
     0
  9
$INTERSECTIONDISPLAY
280
     0
  9
$INTERSECTIONCOLOR
 70
   257
  9
$DIMASSOC
280
     1
  9
$PROJECTNAME
  1

  0
ENDSEC
  0
SECTION
  2
CLASSES
  0
CLASS
  1
ACDBDICTIONARYWDFLT
  2
AcDbDictionaryWithDefault
  3
ObjectDBX Classes
 90
        0
 91
        1
280
     0
281
     0
  0
CLASS
  1
TABLESTYLE
  2
AcDbTableStyle
  3
ObjectDBX Classes
 90
     2047
 91
        1
280
     0
281
     0
  0
CLASS
  1
DICTIONARYVAR
  2
AcDbDictionaryVar
  3
ObjectDBX Classes
 90
        0
 91
        1
280
     0
281
     0
  0
ENDSEC
  0
SECTION
  2
TABLES
  0
TABLE
  2
VPORT
  5
10D
330
0
100
AcDbSymbolTable
 70
     2
  0
VPORT
  5
137
330
10D
100
AcDbSymbolTableRecord
100
AcDbViewportTableRecord
  2
*Active
 70
     0
 10
0.0
 20
0.0
 11
1.0
 21
1.0
 12
6250.73645371695
 22
10448.9625082654
 13
0.0
 23
0.0
 14
10.0
 24
10.0
 15
10.0
 25
10.0
 16
0.0
 26
0.0
 36
1.0
 17
0.0
 27
0.0
 37
0.0
 40
551.708552688342
 41
2.435135135135135
 42
50.0
 43
0.0
 44
0.0
 50
0.0
 51
0.0
 71
     0
 72
  1000
 73
     1
 74
     3
 75
     0
 76
     0
 77
     0
 78
     0
281
     0
 65
     1
110
0.0
120
0.0
130
0.0
111
1.0
121
0.0
131
0.0
112
0.0
122
1.0
132
0.0
 79
     0
146
0.0
  0
ENDTAB
  0
TABLE
  2
LTYPE
  5
10A
330
0
100
AcDbSymbolTable
 70
     1
  0
LTYPE
  5
118
330
10A
100
AcDbSymbolTableRecord
100
AcDbLinetypeTableRecord
  2
ByBlock
 70
     0
  3

 72
    65
 73
     0
 40
0.0
  0
LTYPE
  5
119
330
10A
100
AcDbSymbolTableRecord
100
AcDbLinetypeTableRecord
  2
ByLayer
 70
     0
  3

 72
    65
 73
     0
 40
0.0
  0
LTYPE
  5
11A
330
10A
100
AcDbSymbolTableRecord
100
AcDbLinetypeTableRecord
  2
CONTINUOUS
 70
     0
  3
Solid line
 72
    65
 73
     0
 40
0.0
  0
ENDTAB
  0
TABLE
  2
LAYER
  5
107
330
0
100
AcDbSymbolTable
 70
     1
  0
LAYER
  5
115
330
107
100
AcDbSymbolTableRecord
100
AcDbLayerTableRecord
  2
0
 70
     0
 62
     7
  6
CONTINUOUS
370
    -3
390
114
  0
ENDTAB
  0
TABLE
  2
STYLE
  5
108
330
0
100
AcDbSymbolTable
 70
     1
  0
STYLE
  5
116
330
108
100
AcDbSymbolTableRecord
100
AcDbTextStyleTableRecord
  2
STANDARD
 70
     0
 40
0.0
 41
1.0
 50
0.0
 71
     0
 42
2.5
  3
txt
  4
gbcbig.shx
  0
ENDTAB
  0
TABLE
  2
VIEW
  5
10B
330
0
100
AcDbSymbolTable
 70
     0
  0
ENDTAB
  0
TABLE
  2
UCS
  5
10C
330
0
100
AcDbSymbolTable
 70
     0
  0
ENDTAB
  0
TABLE
  2
APPID
  5
10E
330
0
100
AcDbSymbolTable
 70
     2
  0
APPID
  5
117
330
10E
100
AcDbSymbolTableRecord
100
AcDbRegAppTableRecord
  2
ACAD
 70
     0
  0
APPID
  5
12C
330
10E
100
AcDbSymbolTableRecord
100
AcDbRegAppTableRecord
  2
ACAD_PSEXT
 70
     0
  0
APPID
  5
112C
330
10E
100
AcDbSymbolTableRecord
100
AcDbRegAppTableRecord
  2
FS_CYPCUT
 70
     0
  0
ENDTAB
  0
TABLE
  2
DIMSTYLE
  5
10F
330
0
100
AcDbSymbolTable
 70
     1
100
AcDbDimStyleTable
 71
     0
  0
DIMSTYLE
105
12D
330
10F
100
AcDbSymbolTableRecord
100
AcDbDimStyleTableRecord
  2
ISO-25
 70
     0
 41
2.5
 42
0.625
 43
3.75
 44
1.25
 73
     0
 74
     0
 77
     1
 78
     8
140
2.5
141
2.5
143
0.03937007874016
147
0.625
171
     3
172
     1
274
     3
279
     2
284
     8
285
     8
286
     8
340
116
  0
ENDTAB
  0
TABLE
  2
BLOCK_RECORD
  5
106
330
0
100
AcDbSymbolTable
 70
     2
  0
BLOCK_RECORD
  5
127
330
106
100
AcDbSymbolTableRecord
100
AcDbBlockTableRecord
  2
*Model_Space
340
12A
  0
BLOCK_RECORD
  5
123
330
106
100
AcDbSymbolTableRecord
100
AcDbBlockTableRecord
  2
*Paper_Space
340
126
  0
BLOCK_RECORD
  5
130
330
106
100
AcDbSymbolTableRecord
100
AcDbBlockTableRecord
  2
$MODEL_SPACE
340
0
  0
BLOCK_RECORD
  5
132
330
106
100
AcDbSymbolTableRecord
100
AcDbBlockTableRecord
  2
$PAPER_SPACE
340
0
       0
BLOCK_RECORD
       5
2000
     330
106
     100
AcDbSymbolTableRecord
     100
AcDbBlockTableRecord
       2
Part206808869
       0
BLOCK_RECORD
       5
2001
     330
106
     100
AcDbSymbolTableRecord
     100
AcDbBlockTableRecord
       2
Part1948071642
       0
BLOCK_RECORD
       5
2002
     330
106
     100
AcDbSymbolTableRecord
     100
AcDbBlockTableRecord
       2
Part2007953968
       0
BLOCK_RECORD
       5
2003
     330
106
     100
AcDbSymbolTableRecord
     100
AcDbBlockTableRecord
       2
Part933644741
       0
BLOCK_RECORD
       5
2004
     330
106
     100
AcDbSymbolTableRecord
     100
AcDbBlockTableRecord
       2
Part1383696605
       0
BLOCK_RECORD
       5
2005
     330
106
     100
AcDbSymbolTableRecord
     100
AcDbBlockTableRecord
       2
Part1294031418
       0
BLOCK_RECORD
       5
2006
     330
106
     100
AcDbSymbolTableRecord
     100
AcDbBlockTableRecord
       2
Part1740062793
       0
BLOCK_RECORD
       5
2007
     330
106
     100
AcDbSymbolTableRecord
     100
AcDbBlockTableRecord
       2
Part1157470651
       0
BLOCK_RECORD
       5
2008
     330
106
     100
AcDbSymbolTableRecord
     100
AcDbBlockTableRecord
       2
Part1243148459
       0
BLOCK_RECORD
       5
2009
     330
106
     100
AcDbSymbolTableRecord
     100
AcDbBlockTableRecord
       2
Part1443522929
       0
BLOCK_RECORD
       5
200A
     330
106
     100
AcDbSymbolTableRecord
     100
AcDbBlockTableRecord
       2
Part31876696
       0
BLOCK_RECORD
       5
200B
     330
106
     100
AcDbSymbolTableRecord
     100
AcDbBlockTableRecord
       2
Part1577398054
       0
BLOCK_RECORD
       5
200C
     330
106
     100
AcDbSymbolTableRecord
     100
AcDbBlockTableRecord
       2
Part1814501692
       0
BLOCK_RECORD
       5
200D
     330
106
     100
AcDbSymbolTableRecord
     100
AcDbBlockTableRecord
       2
Part939107678
       0
BLOCK_RECORD
       5
200E
     330
106
     100
AcDbSymbolTableRecord
     100
AcDbBlockTableRecord
       2
Part685261047
       0
BLOCK_RECORD
       5
200F
     330
106
     100
AcDbSymbolTableRecord
     100
AcDbBlockTableRecord
       2
Part360260824
  0
ENDTAB
  0
ENDSEC
  0
SECTION
  2
BLOCKS
  0
BLOCK
  5
128
330
127
100
AcDbEntity
  8
0
100
AcDbBlockBegin
  2
*Model_Space
 70
     0
 10
0.0
 20
0.0
 30
0.0
  3
*Model_Space
  1

  0
ENDBLK
  5
129
330
127
100
AcDbEntity
  8
0
100
AcDbBlockEnd
  0
BLOCK
  5
124
330
123
100
AcDbEntity
 67
     1
  8
0
100
AcDbBlockBegin
  2
*Paper_Space
 70
     0
 10
0.0
 20
0.0
 30
0.0
  3
*Paper_Space
  1

  0
ENDBLK
  5
125
330
123
100
AcDbEntity
 67
     1
  8
0
100
AcDbBlockEnd
  0
BLOCK
  5
131
330
130
100
AcDbEntity
  8
0
100
AcDbBlockBegin
  2
$MODEL_SPACE
 70
     0
 10
0.0
 20
0.0
 30
0.0
  3
$MODEL_SPACE
  1

  0
ENDBLK
  5
21
330
130
100
AcDbEntity
  8
0
100
AcDbBlockEnd
  0
BLOCK
  5
133
330
132
100
AcDbEntity
  8
0
100
AcDbBlockBegin
  2
$PAPER_SPACE
 70
     0
 10
0.0
 20
0.0
 30
0.0
  3
$PAPER_SPACE
  1

  0
ENDBLK
  5
D5
330
132
100
AcDbEntity
  8
0
100
AcDbBlockEnd
       0
BLOCK
       5
2010
     330
2000
     100
AcDbEntity
       8
0
     100
AcDbBlockBegin
       2
Part206808869
      70
0
      10
-135
      20
-150
      30
0
       3
Part206808869
       1

       4
CypCutBlock
       0
LWPOLYLINE
       5
2011
     100
AcDbEntity
       8
1
     100
AcDbPolyline
      90
4
      70
1
      10
-121.5
      20
-65
      42
0
      10
-121.5
      20
-75
      42
-1
      10
-128.5
      20
-75
      42
0
      10
-128.5
      20
-65
      42
-1
    1001
FS_CYPCUT
    1000
Channel
    1070
1
    1000
LeadIn
    1002
{
    1070
3
    1040
0.5
    1040
1.5707963267949
    1040
0.5
    1040
0.3
    1070
0
    1040
0.5
    1070
0
    1002
}
    1000
LeadOut
    1002
{
    1070
0
    1040
0
    1040
0
    1040
0
    1070
0
    1002
}
    1000
IsFill
    1070
0
    1000
PathStart
    1040
0.5
    1000
ToolCompensation
    1002
{
    1070
0
    1040
0
    1070
0
    1002
}
       0
LWPOLYLINE
       5
2012
     100
AcDbEntity
       8
1
     100
AcDbPolyline
      90
4
      70
1
      10
-121.5
      20
33.7498226701
      42
0
      10
-121.5
      20
23.7498226701
      42
-1
      10
-128.5
      20
23.7498226701
      42
0
      10
-128.5
      20
33.7498226701
      42
-1
    1001
FS_CYPCUT
    1000
Channel
    1070
1
    1000
LeadIn
    1002
{
    1070
3
    1040
0.5
    1040
1.5707963267949
    1040
0.5
    1040
0.3
    1070
0
    1040
0.5
    1070
0
    1002
}
    1000
LeadOut
    1002
{
    1070
0
    1040
0
    1040
0
    1040
0
    1070
0
    1002
}
    1000
IsFill
    1070
0
    1000
PathStart
    1040
0.5
    1000
ToolCompensation
    1002
{
    1070
0
    1040
0
    1070
0
    1002
}
       0
LINE
       5
2013
     100
AcDbEntity
       8
2
     100
AcDbLine
      10
-135
      20
-1.875088665
      30
0
      11
135
      21
-1.875088665
      31
0
    1001
FS_CYPCUT
    1000
Channel
    1070
2
    1000
LeadIn
    1002
{
    1070
3
    1040
0
    1040
1.5707963267949
    1040
0.5
    1040
0.3
    1070
0
    1040
0.5
    1070
0
    1002
}
    1000
LeadOut
    1002
{
    1070
0
    1040
0
    1040
0
    1040
0
    1070
0
    1002
}
    1000
IsFill
    1070
0
    1000
PathStart
    1040
0
    1000
ToolCompensation
    1002
{
    1070
0
    1040
0
    1070
0
    1002
}
       0
LWPOLYLINE
       5
2014
     100
AcDbEntity
       8
1
     100
AcDbPolyline
      90
4
      70
1
      10
128.5
      20
33.7498226701
      42
1
      10
121.5
      20
33.7498226701
      42
0
      10
121.5
      20
23.7498226701
      42
1
      10
128.5
      20
23.7498226701
      42
0
    1001
FS_CYPCUT
    1000
Channel
    1070
1
    1000
LeadIn
    1002
{
    1070
3
    1040
1.5
    1040
1.5707963267949
    1040
0.5
    1040
0.3
    1070
0
    1040
0.5
    1070
0
    1002
}
    1000
LeadOut
    1002
{
    1070
0
    1040
0
    1040
0
    1040
0
    1070
0
    1002
}
    1000
IsFill
    1070
0
    1000
PathStart
    1040
1.5
    1000
ToolCompensation
    1002
{
    1070
0
    1040
0
    1070
0
    1002
}
       0
LWPOLYLINE
       5
2015
     100
AcDbEntity
       8
1
     100
AcDbPolyline
      90
4
      70
1
      10
128.5
      20
-65
      42
1
      10
121.5
      20
-65
      42
0
      10
121.5
      20
-75
      42
1
      10
128.5
      20
-75
      42
0
    1001
FS_CYPCUT
    1000
Channel
    1070
1
    1000
LeadIn
    1002
{
    1070
3
    1040
1.5
    1040
1.5707963267949
    1040
0.5
    1040
0.3
    1070
0
    1040
0.5
    1070
0
    1002
}
    1000
LeadOut
    1002
{
    1070
0
    1040
0
    1040
0
    1040
0
    1070
0
    1002
}
    1000
IsFill
    1070
0
    1000
PathStart
    1040
1.5
    1000
ToolCompensation
    1002
{
    1070
0
    1040
0
    1070
0
    1002
}
       0
LWPOLYLINE
       5
2016
     100
AcDbEntity
       8
1
     100
AcDbPolyline
      90
8
      70
1
      10
135
      20
51.2498226701
      42
0.414213562373099
      10
125
      20
61.2498226701
      42
0
      10
-125
      20
61.2498226701
      42
0.414213562373099
      10
-135
      20
51.2498226701
      42
0
      10
-135
      20
-140
      42
0.414213562373099
      10
-125
      20
-150
      42
0
      10
125
      20
-150
      42
0.414213562373098
      10
135
      20
-140
      42
0
    1001
FS_CYPCUT
    1000
Channel
    1070
1
    1000
LeadIn
    1002
{
    1070
3
    1040
1.50162487
    1040
1.5707963267949
    1040
0.5
    1040
0.3
    1070
0
    1040
0.5
    1070
0
    1002
}
    1000
LeadOut
    1002
{
    1070
0
    1040
0
    1040
0
    1040
0
    1070
0
    1002
}
    1000
IsFill
    1070
1
    1000
PathStart
    1040
1.5
    1000
ToolCompensation
    1002
{
    1070
0
    1040
0
    1070
0
    1002
}
    1000
MicroConnect
    1002
{
    1070
3
    1040
1.49922487
    1041
0.6
    1042
0
    1040
3.78647114
    1041
0.6
    1042
0
    1040
7.10756147
    1041
0.6
    1042
0
    1002
}
       0
ENDBLK
       5
2017
     330
2000
     100
AcDbEntity
       8
0
     100
AcDbBlockEnd
       0
BLOCK
       5
2018
     330
2001
     100
AcDbEntity
       8
0
     100
AcDbBlockBegin
       2
Part1948071642
      70
0
      10
-135
      20
-150
      30
0
       3
Part1948071642
       1

       4
CypCutBlock
       0
LWPOLYLINE
       5
2019
     100
AcDbEntity
       8
1
     100
AcDbPolyline
      90
4
      70
1
      10
-121.5
      20
-65
      42
0
      10
-121.5
      20
-75
      42
-1
      10
-128.5
      20
-75
      42
0
      10
-128.5
      20
-65
      42
-1
    1001
FS_CYPCUT
    1000
Channel
    1070
1
    1000
LeadIn
    1002
{
    1070
3
    1040
0.5
    1040
1.5707963267949
    1040
0.5
    1040
0.3
    1070
0
    1040
0.5
    1070
0
    1002
}
    1000
LeadOut
    1002
{
    1070
0
    1040
0
    1040
0
    1040
0
    1070
0
    1002
}
    1000
IsFill
    1070
0
    1000
PathStart
    1040
0.5
    1000
ToolCompensation
    1002
{
    1070
0
    1040
0
    1070
0
    1002
}
       0
LWPOLYLINE
       5
201A
     100
AcDbEntity
       8
1
     100
AcDbPolyline
      90
4
      70
1
      10
-121.5
      20
33.7498226701
      42
0
      10
-121.5
      20
23.7498226701
      42
-1
      10
-128.5
      20
23.7498226701
      42
0
      10
-128.5
      20
33.7498226701
      42
-1
    1001
FS_CYPCUT
    1000
Channel
    1070
1
    1000
LeadIn
    1002
{
    1070
3
    1040
0.5
    1040
1.5707963267949
    1040
0.5
    1040
0.3
    1070
0
    1040
0.5
    1070
0
    1002
}
    1000
LeadOut
    1002
{
    1070
0
    1040
0
    1040
0
    1040
0
    1070
0
    1002
}
    1000
IsFill
    1070
0
    1000
PathStart
    1040
0.5
    1000
ToolCompensation
    1002
{
    1070
0
    1040
0
    1070
0
    1002
}
       0
LINE
       5
201B
     100
AcDbEntity
       8
2
     100
AcDbLine
      10
-135
      20
-1.875088665
      30
0
      11
135
      21
-1.875088665
      31
0
    1001
FS_CYPCUT
    1000
Channel
    1070
2
    1000
LeadIn
    1002
{
    1070
3
    1040
0
    1040
1.5707963267949
    1040
0.5
    1040
0.3
    1070
0
    1040
0.5
    1070
0
    1002
}
    1000
LeadOut
    1002
{
    1070
0
    1040
0
    1040
0
    1040
0
    1070
0
    1002
}
    1000
IsFill
    1070
0
    1000
PathStart
    1040
0
    1000
ToolCompensation
    1002
{
    1070
0
    1040
0
    1070
0
    1002
}
       0
LWPOLYLINE
       5
201C
     100
AcDbEntity
       8
1
     100
AcDbPolyline
      90
4
      70
1
      10
128.5
      20
33.7498226701
      42
1
      10
121.5
      20
33.7498226701
      42
0
      10
121.5
      20
23.7498226701
      42
1
      10
128.5
      20
23.7498226701
      42
0
    1001
FS_CYPCUT
    1000
Channel
    1070
1
    1000
LeadIn
    1002
{
    1070
3
    1040
1.5
    1040
1.5707963267949
    1040
0.5
    1040
0.3
    1070
0
    1040
0.5
    1070
0
    1002
}
    1000
LeadOut
    1002
{
    1070
0
    1040
0
    1040
0
    1040
0
    1070
0
    1002
}
    1000
IsFill
    1070
0
    1000
PathStart
    1040
1.5
    1000
ToolCompensation
    1002
{
    1070
0
    1040
0
    1070
0
    1002
}
       0
LWPOLYLINE
       5
201D
     100
AcDbEntity
       8
1
     100
AcDbPolyline
      90
4
      70
1
      10
128.5
      20
-65
      42
1
      10
121.5
      20
-65
      42
0
      10
121.5
      20
-75
      42
1
      10
128.5
      20
-75
      42
0
    1001
FS_CYPCUT
    1000
Channel
    1070
1
    1000
LeadIn
    1002
{
    1070
3
    1040
1.5
    1040
1.5707963267949
    1040
0.5
    1040
0.3
    1070
0
    1040
0.5
    1070
0
    1002
}
    1000
LeadOut
    1002
{
    1070
0
    1040
0
    1040
0
    1040
0
    1070
0
    1002
}
    1000
IsFill
    1070
0
    1000
PathStart
    1040
1.5
    1000
ToolCompensation
    1002
{
    1070
0
    1040
0
    1070
0
    1002
}
       0
LWPOLYLINE
       5
201E
     100
AcDbEntity
       8
1
     100
AcDbPolyline
      90
8
      70
1
      10
135
      20
51.2498226701
      42
0.414213562373099
      10
125
      20
61.2498226701
      42
0
      10
-125
      20
61.2498226701
      42
0.414213562373099
      10
-135
      20
51.2498226701
      42
0
      10
-135
      20
-140
      42
0.414213562373099
      10
-125
      20
-150
      42
0
      10
125
      20
-150
      42
0.414213562373098
      10
135
      20
-140
      42
0
    1001
FS_CYPCUT
    1000
Channel
    1070
1
    1000
LeadIn
    1002
{
    1070
3
    1040
1.50162487
    1040
1.5707963267949
    1040
0.5
    1040
0.3
    1070
0
    1040
0.5
    1070
0
    1002
}
    1000
LeadOut
    1002
{
    1070
0
    1040
0
    1040
0
    1040
0
    1070
0
    1002
}
    1000
IsFill
    1070
1
    1000
PathStart
    1040
1.5
    1000
ToolCompensation
    1002
{
    1070
0
    1040
0
    1070
0
    1002
}
    1000
MicroConnect
    1002
{
    1070
3
    1040
1.49922487
    1041
0.6
    1042
0
    1040
3.78647114
    1041
0.6
    1042
0
    1040
7.10756147
    1041
0.6
    1042
0
    1002
}
       0
ENDBLK
       5
201F
     330
2001
     100
AcDbEntity
       8
0
     100
AcDbBlockEnd
       0
BLOCK
       5
2020
     330
2002
     100
AcDbEntity
       8
0
     100
AcDbBlockBegin
       2
Part2007953968
      70
0
      10
-135
      20
-150
      30
0
       3
Part2007953968
       1

       4
CypCutBlock
       0
LWPOLYLINE
       5
2021
     100
AcDbEntity
       8
1
     100
AcDbPolyline
      90
4
      70
1
      10
-121.5
      20
-65
      42
0
      10
-121.5
      20
-75
      42
-1
      10
-128.5
      20
-75
      42
0
      10
-128.5
      20
-65
      42
-1
    1001
FS_CYPCUT
    1000
Channel
    1070
1
    1000
LeadIn
    1002
{
    1070
3
    1040
0.5
    1040
1.5707963267949
    1040
0.5
    1040
0.3
    1070
0
    1040
0.5
    1070
0
    1002
}
    1000
LeadOut
    1002
{
    1070
0
    1040
0
    1040
0
    1040
0
    1070
0
    1002
}
    1000
IsFill
    1070
0
    1000
PathStart
    1040
0.5
    1000
ToolCompensation
    1002
{
    1070
0
    1040
0
    1070
0
    1002
}
       0
LWPOLYLINE
       5
2022
     100
AcDbEntity
       8
1
     100
AcDbPolyline
      90
4
      70
1
      10
-121.5
      20
33.7498226701
      42
0
      10
-121.5
      20
23.7498226701
      42
-1
      10
-128.5
      20
23.7498226701
      42
0
      10
-128.5
      20
33.7498226701
      42
-1
    1001
FS_CYPCUT
    1000
Channel
    1070
1
    1000
LeadIn
    1002
{
    1070
3
    1040
0.5
    1040
1.5707963267949
    1040
0.5
    1040
0.3
    1070
0
    1040
0.5
    1070
0
    1002
}
    1000
LeadOut
    1002
{
    1070
0
    1040
0
    1040
0
    1040
0
    1070
0
    1002
}
    1000
IsFill
    1070
0
    1000
PathStart
    1040
0.5
    1000
ToolCompensation
    1002
{
    1070
0
    1040
0
    1070
0
    1002
}
       0
LINE
       5
2023
     100
AcDbEntity
       8
2
     100
AcDbLine
      10
-135
      20
-1.875088665
      30
0
      11
135
      21
-1.875088665
      31
0
    1001
FS_CYPCUT
    1000
Channel
    1070
2
    1000
LeadIn
    1002
{
    1070
3
    1040
0
    1040
1.5707963267949
    1040
0.5
    1040
0.3
    1070
0
    1040
0.5
    1070
0
    1002
}
    1000
LeadOut
    1002
{
    1070
0
    1040
0
    1040
0
    1040
0
    1070
0
    1002
}
    1000
IsFill
    1070
0
    1000
PathStart
    1040
0
    1000
ToolCompensation
    1002
{
    1070
0
    1040
0
    1070
0
    1002
}
       0
LWPOLYLINE
       5
2024
     100
AcDbEntity
       8
1
     100
AcDbPolyline
      90
4
      70
1
      10
128.5
      20
33.7498226701
      42
1
      10
121.5
      20
33.7498226701
      42
0
      10
121.5
      20
23.7498226701
      42
1
      10
128.5
      20
23.7498226701
      42
0
    1001
FS_CYPCUT
    1000
Channel
    1070
1
    1000
LeadIn
    1002
{
    1070
3
    1040
1.5
    1040
1.5707963267949
    1040
0.5
    1040
0.3
    1070
0
    1040
0.5
    1070
0
    1002
}
    1000
LeadOut
    1002
{
    1070
0
    1040
0
    1040
0
    1040
0
    1070
0
    1002
}
    1000
IsFill
    1070
0
    1000
PathStart
    1040
1.5
    1000
ToolCompensation
    1002
{
    1070
0
    1040
0
    1070
0
    1002
}
       0
LWPOLYLINE
       5
2025
     100
AcDbEntity
       8
1
     100
AcDbPolyline
      90
4
      70
1
      10
128.5
      20
-65
      42
1
      10
121.5
      20
-65
      42
0
      10
121.5
      20
-75
      42
1
      10
128.5
      20
-75
      42
0
    1001
FS_CYPCUT
    1000
Channel
    1070
1
    1000
LeadIn
    1002
{
    1070
3
    1040
1.5
    1040
1.5707963267949
    1040
0.5
    1040
0.3
    1070
0
    1040
0.5
    1070
0
    1002
}
    1000
LeadOut
    1002
{
    1070
0
    1040
0
    1040
0
    1040
0
    1070
0
    1002
}
    1000
IsFill
    1070
0
    1000
PathStart
    1040
1.5
    1000
ToolCompensation
    1002
{
    1070
0
    1040
0
    1070
0
    1002
}
       0
LWPOLYLINE
       5
2026
     100
AcDbEntity
       8
1
     100
AcDbPolyline
      90
8
      70
1
      10
135
      20
51.2498226701
      42
0.414213562373099
      10
125
      20
61.2498226701
      42
0
      10
-125
      20
61.2498226701
      42
0.414213562373099
      10
-135
      20
51.2498226701
      42
0
      10
-135
      20
-140
      42
0.414213562373099
      10
-125
      20
-150
      42
0
      10
125
      20
-150
      42
0.414213562373098
      10
135
      20
-140
      42
0
    1001
FS_CYPCUT
    1000
Channel
    1070
1
    1000
LeadIn
    1002
{
    1070
3
    1040
1.50162487
    1040
1.5707963267949
    1040
0.5
    1040
0.3
    1070
0
    1040
0.5
    1070
0
    1002
}
    1000
LeadOut
    1002
{
    1070
0
    1040
0
    1040
0
    1040
0
    1070
0
    1002
}
    1000
IsFill
    1070
1
    1000
PathStart
    1040
1.5
    1000
ToolCompensation
    1002
{
    1070
0
    1040
0
    1070
0
    1002
}
    1000
MicroConnect
    1002
{
    1070
3
    1040
1.49922487
    1041
0.6
    1042
0
    1040
3.78647114
    1041
0.6
    1042
0
    1040
7.10756147
    1041
0.6
    1042
0
    1002
}
       0
ENDBLK
       5
2027
     330
2002
     100
AcDbEntity
       8
0
     100
AcDbBlockEnd
       0
BLOCK
       5
2028
     330
2003
     100
AcDbEntity
       8
0
     100
AcDbBlockBegin
       2
Part933644741
      70
0
      10
-246.91278
      20
-216.142275
      30
0
       3
Part933644741
       1

       4
CypCutBlock
       0
LINE
       5
2029
     100
AcDbEntity
       8
2
     100
AcDbLine
      10
-238.1993901879
      20
-184.5028503782
      30
0
      11
-188.1413212334
      21
-170.9680902198
      31
0
    1001
FS_CYPCUT
    1000
Channel
    1070
2
    1000
LeadIn
    1002
{
    1070
3
    1040
0
    1040
1.5707963267949
    1040
0.5
    1040
0.5
    1070
0
    1040
0.5
    1070
0
    1002
}
    1000
LeadOut
    1002
{
    1070
0
    1040
0
    1040
0
    1040
0
    1070
0
    1002
}
    1000
IsFill
    1070
0
    1000
PathStart
    1040
0
    1000
ToolCompensation
    1002
{
    1070
0
    1040
0
    1070
0
    1002
}
       0
LINE
       5
202A
     100
AcDbEntity
       8
2
     100
AcDbLine
      10
-193.3496515611
      20
-144.9402635428
      30
0
      11
-244.7613948229
      21
-151.7102454316
      31
0
    1001
FS_CYPCUT
    1000
Channel
    1070
2
    1000
LeadIn
    1002
{
    1070
3
    1040
0
    1040
1.5707963267949
    1040
0.5
    1040
0.5
    1070
0
    1040
0.5
    1070
0
    1002
}
    1000
LeadOut
    1002
{
    1070
0
    1040
0
    1040
0
    1040
0
    1070
0
    1002
}
    1000
IsFill
    1070
0
    1000
PathStart
    1040
0
    1000
ToolCompensation
    1002
{
    1070
0
    1040
0
    1070
0
    1002
}
       0
LINE
       5
202B
     100
AcDbEntity
       8
2
     100
AcDbLine
      10
-246.9122468234
      20
-118.3368026786
      30
0
      11
-195.056804844
      21
-118.4514199503
      31
0
    1001
FS_CYPCUT
    1000
Channel
    1070
2
    1000
LeadIn
    1002
{
    1070
3
    1040
0
    1040
1.5707963267949
    1040
0.5
    1040
0.5
    1070
0
    1040
0.5
    1070
0
    1002
}
    1000
LeadOut
    1002
{
    1070
0
    1040
0
    1040
0
    1040
0
    1070
0
    1002
}
    1000
IsFill
    1070
0
    1000
PathStart
    1040
0
    1000
ToolCompensation
    1002
{
    1070
0
    1040
0
    1070
0
    1002
}
       0
LINE
       5
202C
     100
AcDbEntity
       8
2
     100
AcDbLine
      10
-193.2325719256
      20
-91.9703883506
      30
0
      11
-244.6138855267
      21
-84.9732023003
      31
0
    1001
FS_CYPCUT
    1000
Channel
    1070
2
    1000
LeadIn
    1002
{
    1070
3
    1040
0
    1040
1.5707963267949
    1040
0.5
    1040
0.5
    1070
0
    1040
0.5
    1070
0
    1002
}
    1000
LeadOut
    1002
{
    1070
0
    1040
0
    1040
0
    1040
0
    1070
0
    1002
}
    1000
IsFill
    1070
0
    1000
PathStart
    1040
0
    1000
ToolCompensation
    1002
{
    1070
0
    1040
0
    1070
0
    1002
}
       0
LINE
       5
202D
     100
AcDbEntity
       8
2
     100
AcDbLine
      10
-237.9069932866
      20
-52.2099658621
      30
0
      11
-187.9092428089
      21
-65.9658717637
      31
0
    1001
FS_CYPCUT
    1000
Channel
    1070
2
    1000
LeadIn
    1002
{
    1070
3
    1040
0
    1040
1.5707963267949
    1040
0.5
    1040
0.5
    1070
0
    1040
0.5
    1070
0
    1002
}
    1000
LeadOut
    1002
{
    1070
0
    1040
0
    1040
0
    1040
0
    1070
0
    1002
}
    1000
IsFill
    1070
0
    1000
PathStart
    1040
0
    1000
ToolCompensation
    1002
{
    1070
0
    1040
0
    1070
0
    1002
}
       0
LINE
       5
202E
     100
AcDbEntity
       8
2
     100
AcDbLine
      10
-179.1810394583
      20
-40.8981413491
      30
0
      11
-226.9102808844
      21
-20.6269915816
      31
0
    1001
FS_CYPCUT
    1000
Channel
    1070
2
    1000
LeadIn
    1002
{
    1070
3
    1040
0
    1040
1.5707963267949
    1040
0.5
    1040
0.5
    1070
0
    1040
0.5
    1070
0
    1002
}
    1000
LeadOut
    1002
{
    1070
0
    1040
0
    1040
0
    1040
0
    1070
0
    1002
}
    1000
IsFill
    1070
0
    1000
PathStart
    1040
0
    1000
ToolCompensation
    1002
{
    1070
0
    1040
0
    1070
0
    1002
}
       0
LINE
       5
202F
     100
AcDbEntity
       8
2
     100
AcDbLine
      10
-211.8183872883
      20
9.2167117353
      30
0
      11
-167.2024488181
      21
-17.2108881258
      31
0
    1001
FS_CYPCUT
    1000
Channel
    1070
2
    1000
LeadIn
    1002
{
    1070
3
    1040
0.00771373278540783
    1040
1.5707963267949
    1040
0.5
    1040
0.5
    1070
0
    1040
0.5
    1070
0
    1002
}
    1000
LeadOut
    1002
{
    1070
0
    1040
0
    1040
0
    1040
0
    1070
0
    1002
}
    1000
IsFill
    1070
0
    1000
PathStart
    1040
0
    1000
ToolCompensation
    1002
{
    1070
0
    1040
0
    1070
0
    1002
}
    1000
MicroConnect
    1002
{
    1070
1
    1040
0
    1041
0.4
    1042
0
    1002
}
       0
LINE
       5
2030
     100
AcDbEntity
       8
2
     100
AcDbLine
      10
-152.1854886282
      20
4.6766306591
      30
0
      11
-192.8984348392
      21
36.7929195297
      31
0
    1001
FS_CYPCUT
    1000
Channel
    1070
2
    1000
LeadIn
    1002
{
    1070
3
    1040
0
    1040
1.5707963267949
    1040
0.5
    1040
0.5
    1070
0
    1040
0.5
    1070
0
    1002
}
    1000
LeadOut
    1002
{
    1070
0
    1040
0
    1040
0
    1040
0
    1070
0
    1002
}
    1000
IsFill
    1070
0
    1000
PathStart
    1040
0
    1000
ToolCompensation
    1002
{
    1070
0
    1040
0
    1070
0
    1002
}
       0
LINE
       5
2031
     100
AcDbEntity
       8
2
     100
AcDbLine
      10
-170.4853013453
      20
61.6135410993
      30
0
      11
-134.3959548376
      21
24.3770124124
      31
0
    1001
FS_CYPCUT
    1000
Channel
    1070
2
    1000
LeadIn
    1002
{
    1070
3
    1040
0
    1040
1.5707963267949
    1040
0.5
    1040
0.5
    1070
0
    1040
0.5
    1070
0
    1002
}
    1000
LeadOut
    1002
{
    1070
0
    1040
0
    1040
0
    1040
0
    1070
0
    1002
}
    1000
IsFill
    1070
0
    1000
PathStart
    1040
0
    1000
ToolCompensation
    1002
{
    1070
0
    1040
0
    1070
0
    1002
}
       0
LINE
       5
2032
     100
AcDbEntity
       8
2
     100
AcDbLine
      10
-114.1487171199
      20
41.5415661701
      30
0
      11
-144.9756928761
      21
83.2392587409
      31
0
    1001
FS_CYPCUT
    1000
Channel
    1070
2
    1000
LeadIn
    1002
{
    1070
3
    1040
0
    1040
1.5707963267949
    1040
0.5
    1040
0.5
    1070
0
    1040
0.5
    1070
0
    1002
}
    1000
LeadOut
    1002
{
    1070
0
    1040
0
    1040
0
    1040
0
    1070
0
    1002
}
    1000
IsFill
    1070
0
    1000
PathStart
    1040
0
    1000
ToolCompensation
    1002
{
    1070
0
    1040
0
    1070
0
    1002
}
       0
LINE
       5
2033
     100
AcDbEntity
       8
2
     100
AcDbLine
      10
-116.8211221946
      20
101.2873035839
      30
0
      11
-91.8021457833
      21
55.866484356
      31
0
    1001
FS_CYPCUT
    1000
Channel
    1070
2
    1000
LeadIn
    1002
{
    1070
3
    1040
0
    1040
1.5707963267949
    1040
0.5
    1040
0.5
    1070
0
    1040
0.5
    1070
0
    1002
}
    1000
LeadOut
    1002
{
    1070
0
    1040
0
    1040
0
    1040
0
    1070
0
    1002
}
    1000
IsFill
    1070
0
    1000
PathStart
    1040
0
    1000
ToolCompensation
    1002
{
    1070
0
    1040
0
    1070
0
    1002
}
       0
LINE
       5
2034
     100
AcDbEntity
       8
2
     100
AcDbLine
      10
-67.7517687261
      20
67.0982201031
      30
0
      11
-86.5199171206
      21
115.4382305069
      31
0
    1001
FS_CYPCUT
    1000
Channel
    1070
2
    1000
LeadIn
    1002
{
    1070
3
    1040
0
    1040
1.5707963267949
    1040
0.5
    1040
0.5
    1070
0
    1040
0.5
    1070
0
    1002
}
    1000
LeadOut
    1002
{
    1070
0
    1040
0
    1040
0
    1040
0
    1070
0
    1002
}
    1000
IsFill
    1070
0
    1000
PathStart
    1040
0
    1000
ToolCompensation
    1002
{
    1070
0
    1040
0
    1070
0
    1002
}
       0
LINE
       5
2035
     100
AcDbEntity
       8
2
     100
AcDbLine
      10
-54.6084002757
      20
125.4415722354
      30
0
      11
-42.4232707104
      21
75.0379749681
      31
0
    1001
FS_CYPCUT
    1000
Channel
    1070
2
    1000
LeadIn
    1002
{
    1070
3
    1040
0
    1040
1.5707963267949
    1040
0.5
    1040
0.5
    1070
0
    1040
0.5
    1070
0
    1002
}
    1000
LeadOut
    1002
{
    1070
0
    1040
0
    1040
0
    1040
0
    1070
0
    1002
}
    1000
IsFill
    1070
0
    1000
PathStart
    1040
0
    1000
ToolCompensation
    1002
{
    1070
0
    1040
0
    1070
0
    1002
}
       0
LINE
       5
2036
     100
AcDbEntity
       8
2
     100
AcDbLine
      10
-16.2649588667
      20
79.5452176028
      30
0
      11
-21.6513963302
      21
131.1202725369
      31
0
    1001
FS_CYPCUT
    1000
Channel
    1070
2
    1000
LeadIn
    1002
{
    1070
3
    1040
0
    1040
1.5707963267949
    1040
0.5
    1040
0.5
    1070
0
    1040
0.5
    1070
0
    1002
}
    1000
LeadOut
    1002
{
    1070
0
    1040
0
    1040
0
    1040
0
    1070
0
    1002
}
    1000
IsFill
    1070
0
    1000
PathStart
    1040
0
    1000
ToolCompensation
    1002
{
    1070
0
    1040
0
    1070
0
    1002
}
       0
LWPOLYLINE
       5
2037
     100
AcDbEntity
       8
1
     100
AcDbPolyline
      90
60
      70
1
      10
11.7704025569
      20
132.389965458
      42
0
      10
-21.411625337
      20
131.1453139302
      42
0
      10
-21.8911673234
      20
131.0952311436
      42
0
      10
-54.3740754198
      20
125.4982205479
      42
0
      10
-54.8427251316
      20
125.3849239228
      42
0
      10
-86.2951858192
      20
115.5254830826
      42
0
      10
-86.744648422
      20
115.3509779313
      42
0
      10
-116.6099621271
      20
101.4036160776
      42
0
      10
-117.0322822622
      20
101.1709910902
      42
0
      10
-144.781841515
      20
83.3825724555
      42
0
      10
-145.1695442372
      20
83.0959450263
      42
0
      10
-170.3121898042
      20
61.7813194239
      42
0
      10
-170.6584128865
      20
61.4457627746
      42
0
      10
-192.7491271427
      20
36.9821928373
      42
0
      10
-193.0477425357
      20
36.6036462221
      42
0
      10
-211.6955261403
      20
9.4241299442
      42
0
      10
-211.9412484363
      20
9.0092935264
      42
0
      10
-226.8160408927
      20
-20.4050997117
      42
0
      10
-227.0045208761
      20
-20.8488834516
      42
0
      10
-237.8430424736
      20
-51.9775277491
      42
0
      10
-237.9709440995
      20
-52.4424039751
      42
0
      10
-244.581355807
      20
-84.7343320233
      42
0
      10
-244.6464152464
      20
-85.2120725773
      42
0
      10
-246.9117139728
      20
-118.0957281499
      42
0
      10
-246.9127796739
      20
-118.5778772073
      42
0
      10
-244.7928683085
      20
-151.4712335099
      42
0
      10
-244.7299213374
      20
-151.9492573532
      42
0
      10
-238.2623127947
      20
-184.2701320923
      42
0
      10
-238.1364675811
      20
-184.7355686641
      42
0
      10
-227.3565613511
      20
-216.142274535
      42
0
      10
-179.5381699683
      20
-196.0823282349
      42
0
      10
-188.0783986266
      20
-171.2008085057
      42
0
      10
-188.2042438402
      20
-170.7353719338
      42
0
      10
-193.3181780755
      20
-145.1792754645
      42
0
      10
-193.3811250466
      20
-144.7012516212
      42
0
      10
-195.0573376945
      20
-118.692494479
      42
0
      10
-195.0562719934
      20
-118.2103454216
      42
0
      10
-193.2651016452
      20
-92.2092586276
      42
0
      10
-193.2000422059
      20
-91.7315180736
      42
0
      10
-187.9731936218
      20
-66.1983098766
      42
0
      10
-187.845291996
      20
-65.7334336507
      42
0
      10
-179.27527945
      20
-41.120033219
      42
0
      10
-179.0867994666
      20
-40.6762494791
      42
0
      10
-167.3253099661
      20
-17.4183063347
      42
0
      10
-167.0795876701
      20
-17.0034699169
      42
0
      10
-152.3347963247
      20
4.4873573515
      42
0
      10
-152.0361809317
      20
4.8659039667
      42
0
      10
-134.5690663788
      20
24.2092340878
      42
0
      10
-134.2228432964
      20
24.5447907371
      42
0
      10
-114.342568481
      20
41.3982524556
      42
0
      10
-113.9548657588
      20
41.6848798847
      42
0
      10
-92.0133058508
      20
55.7501718623
      42
0
      10
-91.5909857158
      20
55.9827968497
      42
0
      10
-67.9765000275
      20
67.0109675275
      42
0
      10
-67.5270374247
      20
67.1854726788
      42
0
      10
-42.6575955663
      20
74.9813266556
      42
0
      10
-42.1889458546
      20
75.0946232807
      42
0
      10
-16.5047298599
      20
79.5201762095
      42
0
      10
-16.0251878735
      20
79.5702589961
      42
0
      10
10.2628058188
      20
80.5563166179
      42
0
    1001
FS_CYPCUT
    1000
Channel
    1070
1
    1000
LeadIn
    1002
{
    1070
3
    1040
29.5077137327854
    1040
1.5707963267949
    1040
0.5
    1040
0.5
    1070
0
    1040
0.5
    1070
0
    1002
}
    1000
LeadOut
    1002
{
    1070
0
    1040
0
    1040
0
    1040
0
    1070
0
    1002
}
    1000
IsFill
    1070
1
    1000
PathStart
    1040
29.5
    1000
ToolCompensation
    1002
{
    1070
0
    1040
0
    1070
0
    1002
}
    1000
MicroConnect
    1002
{
    1070
3
    1040
29.5
    1041
0.4
    1042
0
    1040
42.3874887
    1041
0.4
    1042
0
    1040
59.6180576
    1041
0.4
    1042
0
    1002
}
       0
ENDBLK
       5
2038
     330
2003
     100
AcDbEntity
       8
0
     100
AcDbBlockEnd
       0
BLOCK
       5
2039
     330
2004
     100
AcDbEntity
       8
0
     100
AcDbBlockBegin
       2
Part1383696605
      70
0
      10
-246.91278
      20
-216.142275
      30
0
       3
Part1383696605
       1

       4
CypCutBlock
       0
LINE
       5
203A
     100
AcDbEntity
       8
2
     100
AcDbLine
      10
-238.1993901879
      20
-184.5028503782
      30
0
      11
-188.1413212334
      21
-170.9680902198
      31
0
    1001
FS_CYPCUT
    1000
Channel
    1070
2
    1000
LeadIn
    1002
{
    1070
3
    1040
0
    1040
1.5707963267949
    1040
0.5
    1040
0.5
    1070
0
    1040
0.5
    1070
0
    1002
}
    1000
LeadOut
    1002
{
    1070
0
    1040
0
    1040
0
    1040
0
    1070
0
    1002
}
    1000
IsFill
    1070
0
    1000
PathStart
    1040
0
    1000
ToolCompensation
    1002
{
    1070
0
    1040
0
    1070
0
    1002
}
       0
LINE
       5
203B
     100
AcDbEntity
       8
2
     100
AcDbLine
      10
-193.3496515611
      20
-144.9402635428
      30
0
      11
-244.7613948229
      21
-151.7102454316
      31
0
    1001
FS_CYPCUT
    1000
Channel
    1070
2
    1000
LeadIn
    1002
{
    1070
3
    1040
0
    1040
1.5707963267949
    1040
0.5
    1040
0.5
    1070
0
    1040
0.5
    1070
0
    1002
}
    1000
LeadOut
    1002
{
    1070
0
    1040
0
    1040
0
    1040
0
    1070
0
    1002
}
    1000
IsFill
    1070
0
    1000
PathStart
    1040
0
    1000
ToolCompensation
    1002
{
    1070
0
    1040
0
    1070
0
    1002
}
       0
LINE
       5
203C
     100
AcDbEntity
       8
2
     100
AcDbLine
      10
-246.9122468234
      20
-118.3368026786
      30
0
      11
-195.056804844
      21
-118.4514199503
      31
0
    1001
FS_CYPCUT
    1000
Channel
    1070
2
    1000
LeadIn
    1002
{
    1070
3
    1040
0
    1040
1.5707963267949
    1040
0.5
    1040
0.5
    1070
0
    1040
0.5
    1070
0
    1002
}
    1000
LeadOut
    1002
{
    1070
0
    1040
0
    1040
0
    1040
0
    1070
0
    1002
}
    1000
IsFill
    1070
0
    1000
PathStart
    1040
0
    1000
ToolCompensation
    1002
{
    1070
0
    1040
0
    1070
0
    1002
}
       0
LINE
       5
203D
     100
AcDbEntity
       8
2
     100
AcDbLine
      10
-193.2325719256
      20
-91.9703883506
      30
0
      11
-244.6138855267
      21
-84.9732023003
      31
0
    1001
FS_CYPCUT
    1000
Channel
    1070
2
    1000
LeadIn
    1002
{
    1070
3
    1040
0
    1040
1.5707963267949
    1040
0.5
    1040
0.5
    1070
0
    1040
0.5
    1070
0
    1002
}
    1000
LeadOut
    1002
{
    1070
0
    1040
0
    1040
0
    1040
0
    1070
0
    1002
}
    1000
IsFill
    1070
0
    1000
PathStart
    1040
0
    1000
ToolCompensation
    1002
{
    1070
0
    1040
0
    1070
0
    1002
}
       0
LINE
       5
203E
     100
AcDbEntity
       8
2
     100
AcDbLine
      10
-237.9069932866
      20
-52.2099658621
      30
0
      11
-187.9092428089
      21
-65.9658717637
      31
0
    1001
FS_CYPCUT
    1000
Channel
    1070
2
    1000
LeadIn
    1002
{
    1070
3
    1040
0
    1040
1.5707963267949
    1040
0.5
    1040
0.5
    1070
0
    1040
0.5
    1070
0
    1002
}
    1000
LeadOut
    1002
{
    1070
0
    1040
0
    1040
0
    1040
0
    1070
0
    1002
}
    1000
IsFill
    1070
0
    1000
PathStart
    1040
0
    1000
ToolCompensation
    1002
{
    1070
0
    1040
0
    1070
0
    1002
}
       0
LINE
       5
203F
     100
AcDbEntity
       8
2
     100
AcDbLine
      10
-179.1810394583
      20
-40.8981413491
      30
0
      11
-226.9102808844
      21
-20.6269915816
      31
0
    1001
FS_CYPCUT
    1000
Channel
    1070
2
    1000
LeadIn
    1002
{
    1070
3
    1040
0
    1040
1.5707963267949
    1040
0.5
    1040
0.5
    1070
0
    1040
0.5
    1070
0
    1002
}
    1000
LeadOut
    1002
{
    1070
0
    1040
0
    1040
0
    1040
0
    1070
0
    1002
}
    1000
IsFill
    1070
0
    1000
PathStart
    1040
0
    1000
ToolCompensation
    1002
{
    1070
0
    1040
0
    1070
0
    1002
}
       0
LINE
       5
2040
     100
AcDbEntity
       8
2
     100
AcDbLine
      10
-211.8183872883
      20
9.2167117353
      30
0
      11
-167.2024488181
      21
-17.2108881258
      31
0
    1001
FS_CYPCUT
    1000
Channel
    1070
2
    1000
LeadIn
    1002
{
    1070
3
    1040
0.00771373278540783
    1040
1.5707963267949
    1040
0.5
    1040
0.5
    1070
0
    1040
0.5
    1070
0
    1002
}
    1000
LeadOut
    1002
{
    1070
0
    1040
0
    1040
0
    1040
0
    1070
0
    1002
}
    1000
IsFill
    1070
0
    1000
PathStart
    1040
0
    1000
ToolCompensation
    1002
{
    1070
0
    1040
0
    1070
0
    1002
}
    1000
MicroConnect
    1002
{
    1070
1
    1040
0
    1041
0.4
    1042
0
    1002
}
       0
LINE
       5
2041
     100
AcDbEntity
       8
2
     100
AcDbLine
      10
-152.1854886282
      20
4.6766306591
      30
0
      11
-192.8984348392
      21
36.7929195297
      31
0
    1001
FS_CYPCUT
    1000
Channel
    1070
2
    1000
LeadIn
    1002
{
    1070
3
    1040
0
    1040
1.5707963267949
    1040
0.5
    1040
0.5
    1070
0
    1040
0.5
    1070
0
    1002
}
    1000
LeadOut
    1002
{
    1070
0
    1040
0
    1040
0
    1040
0
    1070
0
    1002
}
    1000
IsFill
    1070
0
    1000
PathStart
    1040
0
    1000
ToolCompensation
    1002
{
    1070
0
    1040
0
    1070
0
    1002
}
       0
LINE
       5
2042
     100
AcDbEntity
       8
2
     100
AcDbLine
      10
-170.4853013453
      20
61.6135410993
      30
0
      11
-134.3959548376
      21
24.3770124124
      31
0
    1001
FS_CYPCUT
    1000
Channel
    1070
2
    1000
LeadIn
    1002
{
    1070
3
    1040
0
    1040
1.5707963267949
    1040
0.5
    1040
0.5
    1070
0
    1040
0.5
    1070
0
    1002
}
    1000
LeadOut
    1002
{
    1070
0
    1040
0
    1040
0
    1040
0
    1070
0
    1002
}
    1000
IsFill
    1070
0
    1000
PathStart
    1040
0
    1000
ToolCompensation
    1002
{
    1070
0
    1040
0
    1070
0
    1002
}
       0
LINE
       5
2043
     100
AcDbEntity
       8
2
     100
AcDbLine
      10
-114.1487171199
      20
41.5415661701
      30
0
      11
-144.9756928761
      21
83.2392587409
      31
0
    1001
FS_CYPCUT
    1000
Channel
    1070
2
    1000
LeadIn
    1002
{
    1070
3
    1040
0
    1040
1.5707963267949
    1040
0.5
    1040
0.5
    1070
0
    1040
0.5
    1070
0
    1002
}
    1000
LeadOut
    1002
{
    1070
0
    1040
0
    1040
0
    1040
0
    1070
0
    1002
}
    1000
IsFill
    1070
0
    1000
PathStart
    1040
0
    1000
ToolCompensation
    1002
{
    1070
0
    1040
0
    1070
0
    1002
}
       0
LINE
       5
2044
     100
AcDbEntity
       8
2
     100
AcDbLine
      10
-116.8211221946
      20
101.2873035839
      30
0
      11
-91.8021457833
      21
55.866484356
      31
0
    1001
FS_CYPCUT
    1000
Channel
    1070
2
    1000
LeadIn
    1002
{
    1070
3
    1040
0
    1040
1.5707963267949
    1040
0.5
    1040
0.5
    1070
0
    1040
0.5
    1070
0
    1002
}
    1000
LeadOut
    1002
{
    1070
0
    1040
0
    1040
0
    1040
0
    1070
0
    1002
}
    1000
IsFill
    1070
0
    1000
PathStart
    1040
0
    1000
ToolCompensation
    1002
{
    1070
0
    1040
0
    1070
0
    1002
}
       0
LINE
       5
2045
     100
AcDbEntity
       8
2
     100
AcDbLine
      10
-67.7517687261
      20
67.0982201031
      30
0
      11
-86.5199171206
      21
115.4382305069
      31
0
    1001
FS_CYPCUT
    1000
Channel
    1070
2
    1000
LeadIn
    1002
{
    1070
3
    1040
0
    1040
1.5707963267949
    1040
0.5
    1040
0.5
    1070
0
    1040
0.5
    1070
0
    1002
}
    1000
LeadOut
    1002
{
    1070
0
    1040
0
    1040
0
    1040
0
    1070
0
    1002
}
    1000
IsFill
    1070
0
    1000
PathStart
    1040
0
    1000
ToolCompensation
    1002
{
    1070
0
    1040
0
    1070
0
    1002
}
       0
LINE
       5
2046
     100
AcDbEntity
       8
2
     100
AcDbLine
      10
-54.6084002757
      20
125.4415722354
      30
0
      11
-42.4232707104
      21
75.0379749681
      31
0
    1001
FS_CYPCUT
    1000
Channel
    1070
2
    1000
LeadIn
    1002
{
    1070
3
    1040
0
    1040
1.5707963267949
    1040
0.5
    1040
0.5
    1070
0
    1040
0.5
    1070
0
    1002
}
    1000
LeadOut
    1002
{
    1070
0
    1040
0
    1040
0
    1040
0
    1070
0
    1002
}
    1000
IsFill
    1070
0
    1000
PathStart
    1040
0
    1000
ToolCompensation
    1002
{
    1070
0
    1040
0
    1070
0
    1002
}
       0
LINE
       5
2047
     100
AcDbEntity
       8
2
     100
AcDbLine
      10
-16.2649588667
      20
79.5452176028
      30
0
      11
-21.6513963302
      21
131.1202725369
      31
0
    1001
FS_CYPCUT
    1000
Channel
    1070
2
    1000
LeadIn
    1002
{
    1070
3
    1040
0
    1040
1.5707963267949
    1040
0.5
    1040
0.5
    1070
0
    1040
0.5
    1070
0
    1002
}
    1000
LeadOut
    1002
{
    1070
0
    1040
0
    1040
0
    1040
0
    1070
0
    1002
}
    1000
IsFill
    1070
0
    1000
PathStart
    1040
0
    1000
ToolCompensation
    1002
{
    1070
0
    1040
0
    1070
0
    1002
}
       0
LWPOLYLINE
       5
2048
     100
AcDbEntity
       8
1
     100
AcDbPolyline
      90
60
      70
1
      10
11.7704025569
      20
132.389965458
      42
0
      10
-21.411625337
      20
131.1453139302
      42
0
      10
-21.8911673234
      20
131.0952311436
      42
0
      10
-54.3740754198
      20
125.4982205479
      42
0
      10
-54.8427251316
      20
125.3849239228
      42
0
      10
-86.2951858192
      20
115.5254830826
      42
0
      10
-86.744648422
      20
115.3509779313
      42
0
      10
-116.6099621271
      20
101.4036160776
      42
0
      10
-117.0322822622
      20
101.1709910902
      42
0
      10
-144.781841515
      20
83.3825724555
      42
0
      10
-145.1695442372
      20
83.0959450263
      42
0
      10
-170.3121898042
      20
61.7813194239
      42
0
      10
-170.6584128865
      20
61.4457627746
      42
0
      10
-192.7491271427
      20
36.9821928373
      42
0
      10
-193.0477425357
      20
36.6036462221
      42
0
      10
-211.6955261403
      20
9.4241299442
      42
0
      10
-211.9412484363
      20
9.0092935264
      42
0
      10
-226.8160408927
      20
-20.4050997117
      42
0
      10
-227.0045208761
      20
-20.8488834516
      42
0
      10
-237.8430424736
      20
-51.9775277491
      42
0
      10
-237.9709440995
      20
-52.4424039751
      42
0
      10
-244.581355807
      20
-84.7343320233
      42
0
      10
-244.6464152464
      20
-85.2120725773
      42
0
      10
-246.9117139728
      20
-118.0957281499
      42
0
      10
-246.9127796739
      20
-118.5778772073
      42
0
      10
-244.7928683085
      20
-151.4712335099
      42
0
      10
-244.7299213374
      20
-151.9492573532
      42
0
      10
-238.2623127947
      20
-184.2701320923
      42
0
      10
-238.1364675811
      20
-184.7355686641
      42
0
      10
-227.3565613511
      20
-216.142274535
      42
0
      10
-179.5381699683
      20
-196.0823282349
      42
0
      10
-188.0783986266
      20
-171.2008085057
      42
0
      10
-188.2042438402
      20
-170.7353719338
      42
0
      10
-193.3181780755
      20
-145.1792754645
      42
0
      10
-193.3811250466
      20
-144.7012516212
      42
0
      10
-195.0573376945
      20
-118.692494479
      42
0
      10
-195.0562719934
      20
-118.2103454216
      42
0
      10
-193.2651016452
      20
-92.2092586276
      42
0
      10
-193.2000422059
      20
-91.7315180736
      42
0
      10
-187.9731936218
      20
-66.1983098766
      42
0
      10
-187.845291996
      20
-65.7334336507
      42
0
      10
-179.27527945
      20
-41.120033219
      42
0
      10
-179.0867994666
      20
-40.6762494791
      42
0
      10
-167.3253099661
      20
-17.4183063347
      42
0
      10
-167.0795876701
      20
-17.0034699169
      42
0
      10
-152.3347963247
      20
4.4873573515
      42
0
      10
-152.0361809317
      20
4.8659039667
      42
0
      10
-134.5690663788
      20
24.2092340878
      42
0
      10
-134.2228432964
      20
24.5447907371
      42
0
      10
-114.342568481
      20
41.3982524556
      42
0
      10
-113.9548657588
      20
41.6848798847
      42
0
      10
-92.0133058508
      20
55.7501718623
      42
0
      10
-91.5909857158
      20
55.9827968497
      42
0
      10
-67.9765000275
      20
67.0109675275
      42
0
      10
-67.5270374247
      20
67.1854726788
      42
0
      10
-42.6575955663
      20
74.9813266556
      42
0
      10
-42.1889458546
      20
75.0946232807
      42
0
      10
-16.5047298599
      20
79.5201762095
      42
0
      10
-16.0251878735
      20
79.5702589961
      42
0
      10
10.2628058188
      20
80.5563166179
      42
0
    1001
FS_CYPCUT
    1000
Channel
    1070
1
    1000
LeadIn
    1002
{
    1070
3
    1040
29.5077137327854
    1040
1.5707963267949
    1040
0.5
    1040
0.5
    1070
0
    1040
0.5
    1070
0
    1002
}
    1000
LeadOut
    1002
{
    1070
0
    1040
0
    1040
0
    1040
0
    1070
0
    1002
}
    1000
IsFill
    1070
1
    1000
PathStart
    1040
29.5
    1000
ToolCompensation
    1002
{
    1070
0
    1040
0
    1070
0
    1002
}
    1000
MicroConnect
    1002
{
    1070
3
    1040
29.5
    1041
0.4
    1042
0
    1040
42.3874887
    1041
0.4
    1042
0
    1040
59.6180576
    1041
0.4
    1042
0
    1002
}
       0
ENDBLK
       5
2049
     330
2004
     100
AcDbEntity
       8
0
     100
AcDbBlockEnd
       0
BLOCK
       5
204A
     330
2005
     100
AcDbEntity
       8
0
     100
AcDbBlockBegin
       2
Part1294031418
      70
0
      10
0
      20
0
      30
0
       3
Part1294031418
       1

       4
CypCutBlock
       0
LINE
       5
204B
     100
AcDbEntity
       8
2
     100
AcDbLine
      10
502.541998968
      20
0
      30
0
      11
502.541998968
      21
30
      31
0
    1001
FS_CYPCUT
    1000
Channel
    1070
2
    1000
LeadIn
    1002
{
    1070
3
    1040
0.0133333333333333
    1040
1.5707963267949
    1040
0.5
    1040
0.5
    1070
0
    1040
0.5
    1070
0
    1002
}
    1000
LeadOut
    1002
{
    1070
0
    1040
0
    1040
0
    1040
0
    1070
0
    1002
}
    1000
IsFill
    1070
0
    1000
PathStart
    1040
0
    1000
ToolCompensation
    1002
{
    1070
0
    1040
0
    1070
0
    1002
}
    1000
MicroConnect
    1002
{
    1070
1
    1040
0
    1041
0.4
    1042
0
    1002
}
       0
LWPOLYLINE
       5
204C
     100
AcDbEntity
       8
1
     100
AcDbPolyline
      90
4
      70
1
      10
1005.0839979361
      20
30
      42
0
      10
0
      20
30
      42
0
      10
0
      20
0
      42
0
      10
1005.0839979361
      20
0
      42
0
    1001
FS_CYPCUT
    1000
Channel
    1070
1
    1000
LeadIn
    1002
{
    1070
3
    1040
0.5
    1040
1.5707963267949
    1040
0.5
    1040
0.5
    1070
0
    1040
0.5
    1070
0
    1002
}
    1000
LeadOut
    1002
{
    1070
0
    1040
0
    1040
0
    1040
0
    1070
0
    1002
}
    1000
IsFill
    1070
1
    1000
PathStart
    1040
0.5
    1000
ToolCompensation
    1002
{
    1070
0
    1040
0
    1070
0
    1002
}
    1000
MicroConnect
    1002
{
    1070
2
    1040
0.173884077
    1041
0.4
    1042
0
    1040
0.910726183
    1041
0.4
    1042
0
    1002
}
       0
ENDBLK
       5
204D
     330
2005
     100
AcDbEntity
       8
0
     100
AcDbBlockEnd
       0
BLOCK
       5
204E
     330
2006
     100
AcDbEntity
       8
0
     100
AcDbBlockBegin
       2
Part1740062793
      70
0
      10
-135
      20
-150
      30
0
       3
Part1740062793
       1

       4
CypCutBlock
       0
LWPOLYLINE
       5
204F
     100
AcDbEntity
       8
1
     100
AcDbPolyline
      90
4
      70
1
      10
-121.5
      20
-65
      42
0
      10
-121.5
      20
-75
      42
-1
      10
-128.5
      20
-75
      42
0
      10
-128.5
      20
-65
      42
-1
    1001
FS_CYPCUT
    1000
Channel
    1070
1
    1000
LeadIn
    1002
{
    1070
3
    1040
0.5
    1040
1.5707963267949
    1040
0.5
    1040
0.3
    1070
0
    1040
0.5
    1070
0
    1002
}
    1000
LeadOut
    1002
{
    1070
0
    1040
0
    1040
0
    1040
0
    1070
0
    1002
}
    1000
IsFill
    1070
0
    1000
PathStart
    1040
0.5
    1000
ToolCompensation
    1002
{
    1070
0
    1040
0
    1070
0
    1002
}
       0
LWPOLYLINE
       5
2050
     100
AcDbEntity
       8
1
     100
AcDbPolyline
      90
4
      70
1
      10
-121.5
      20
33.7498226701
      42
0
      10
-121.5
      20
23.7498226701
      42
-1
      10
-128.5
      20
23.7498226701
      42
0
      10
-128.5
      20
33.7498226701
      42
-1
    1001
FS_CYPCUT
    1000
Channel
    1070
1
    1000
LeadIn
    1002
{
    1070
3
    1040
0.5
    1040
1.5707963267949
    1040
0.5
    1040
0.3
    1070
0
    1040
0.5
    1070
0
    1002
}
    1000
LeadOut
    1002
{
    1070
0
    1040
0
    1040
0
    1040
0
    1070
0
    1002
}
    1000
IsFill
    1070
0
    1000
PathStart
    1040
0.5
    1000
ToolCompensation
    1002
{
    1070
0
    1040
0
    1070
0
    1002
}
       0
LINE
       5
2051
     100
AcDbEntity
       8
2
     100
AcDbLine
      10
-135
      20
-1.875088665
      30
0
      11
135
      21
-1.875088665
      31
0
    1001
FS_CYPCUT
    1000
Channel
    1070
2
    1000
LeadIn
    1002
{
    1070
3
    1040
0
    1040
1.5707963267949
    1040
0.5
    1040
0.3
    1070
0
    1040
0.5
    1070
0
    1002
}
    1000
LeadOut
    1002
{
    1070
0
    1040
0
    1040
0
    1040
0
    1070
0
    1002
}
    1000
IsFill
    1070
0
    1000
PathStart
    1040
0
    1000
ToolCompensation
    1002
{
    1070
0
    1040
0
    1070
0
    1002
}
       0
LWPOLYLINE
       5
2052
     100
AcDbEntity
       8
1
     100
AcDbPolyline
      90
4
      70
1
      10
128.5
      20
33.7498226701
      42
1
      10
121.5
      20
33.7498226701
      42
0
      10
121.5
      20
23.7498226701
      42
1
      10
128.5
      20
23.7498226701
      42
0
    1001
FS_CYPCUT
    1000
Channel
    1070
1
    1000
LeadIn
    1002
{
    1070
3
    1040
1.5
    1040
1.5707963267949
    1040
0.5
    1040
0.3
    1070
0
    1040
0.5
    1070
0
    1002
}
    1000
LeadOut
    1002
{
    1070
0
    1040
0
    1040
0
    1040
0
    1070
0
    1002
}
    1000
IsFill
    1070
0
    1000
PathStart
    1040
1.5
    1000
ToolCompensation
    1002
{
    1070
0
    1040
0
    1070
0
    1002
}
       0
LWPOLYLINE
       5
2053
     100
AcDbEntity
       8
1
     100
AcDbPolyline
      90
4
      70
1
      10
128.5
      20
-65
      42
1
      10
121.5
      20
-65
      42
0
      10
121.5
      20
-75
      42
1
      10
128.5
      20
-75
      42
0
    1001
FS_CYPCUT
    1000
Channel
    1070
1
    1000
LeadIn
    1002
{
    1070
3
    1040
1.5
    1040
1.5707963267949
    1040
0.5
    1040
0.3
    1070
0
    1040
0.5
    1070
0
    1002
}
    1000
LeadOut
    1002
{
    1070
0
    1040
0
    1040
0
    1040
0
    1070
0
    1002
}
    1000
IsFill
    1070
0
    1000
PathStart
    1040
1.5
    1000
ToolCompensation
    1002
{
    1070
0
    1040
0
    1070
0
    1002
}
       0
LWPOLYLINE
       5
2054
     100
AcDbEntity
       8
1
     100
AcDbPolyline
      90
8
      70
1
      10
135
      20
51.2498226701
      42
0.414213562373099
      10
125
      20
61.2498226701
      42
0
      10
-125
      20
61.2498226701
      42
0.414213562373099
      10
-135
      20
51.2498226701
      42
0
      10
-135
      20
-140
      42
0.414213562373099
      10
-125
      20
-150
      42
0
      10
125
      20
-150
      42
0.414213562373098
      10
135
      20
-140
      42
0
    1001
FS_CYPCUT
    1000
Channel
    1070
1
    1000
LeadIn
    1002
{
    1070
3
    1040
1.50162487
    1040
1.5707963267949
    1040
0.5
    1040
0.3
    1070
0
    1040
0.5
    1070
0
    1002
}
    1000
LeadOut
    1002
{
    1070
0
    1040
0
    1040
0
    1040
0
    1070
0
    1002
}
    1000
IsFill
    1070
1
    1000
PathStart
    1040
1.5
    1000
ToolCompensation
    1002
{
    1070
0
    1040
0
    1070
0
    1002
}
    1000
MicroConnect
    1002
{
    1070
3
    1040
1.49922487
    1041
0.6
    1042
0
    1040
3.78647114
    1041
0.6
    1042
0
    1040
7.10756147
    1041
0.6
    1042
0
    1002
}
       0
ENDBLK
       5
2055
     330
2006
     100
AcDbEntity
       8
0
     100
AcDbBlockEnd
       0
BLOCK
       5
2056
     330
2007
     100
AcDbEntity
       8
0
     100
AcDbBlockBegin
       2
Part1157470651
      70
0
      10
-135
      20
-150
      30
0
       3
Part1157470651
       1

       4
CypCutBlock
       0
LWPOLYLINE
       5
2057
     100
AcDbEntity
       8
1
     100
AcDbPolyline
      90
4
      70
1
      10
-121.5
      20
-65
      42
0
      10
-121.5
      20
-75
      42
-1
      10
-128.5
      20
-75
      42
0
      10
-128.5
      20
-65
      42
-1
    1001
FS_CYPCUT
    1000
Channel
    1070
1
    1000
LeadIn
    1002
{
    1070
3
    1040
0.5
    1040
1.5707963267949
    1040
0.5
    1040
0.3
    1070
0
    1040
0.5
    1070
0
    1002
}
    1000
LeadOut
    1002
{
    1070
0
    1040
0
    1040
0
    1040
0
    1070
0
    1002
}
    1000
IsFill
    1070
0
    1000
PathStart
    1040
0.5
    1000
ToolCompensation
    1002
{
    1070
0
    1040
0
    1070
0
    1002
}
       0
LWPOLYLINE
       5
2058
     100
AcDbEntity
       8
1
     100
AcDbPolyline
      90
4
      70
1
      10
-121.5
      20
33.7498226701
      42
0
      10
-121.5
      20
23.7498226701
      42
-1
      10
-128.5
      20
23.7498226701
      42
0
      10
-128.5
      20
33.7498226701
      42
-1
    1001
FS_CYPCUT
    1000
Channel
    1070
1
    1000
LeadIn
    1002
{
    1070
3
    1040
0.5
    1040
1.5707963267949
    1040
0.5
    1040
0.3
    1070
0
    1040
0.5
    1070
0
    1002
}
    1000
LeadOut
    1002
{
    1070
0
    1040
0
    1040
0
    1040
0
    1070
0
    1002
}
    1000
IsFill
    1070
0
    1000
PathStart
    1040
0.5
    1000
ToolCompensation
    1002
{
    1070
0
    1040
0
    1070
0
    1002
}
       0
LINE
       5
2059
     100
AcDbEntity
       8
2
     100
AcDbLine
      10
-135
      20
-1.875088665
      30
0
      11
135
      21
-1.875088665
      31
0
    1001
FS_CYPCUT
    1000
Channel
    1070
2
    1000
LeadIn
    1002
{
    1070
3
    1040
0
    1040
1.5707963267949
    1040
0.5
    1040
0.3
    1070
0
    1040
0.5
    1070
0
    1002
}
    1000
LeadOut
    1002
{
    1070
0
    1040
0
    1040
0
    1040
0
    1070
0
    1002
}
    1000
IsFill
    1070
0
    1000
PathStart
    1040
0
    1000
ToolCompensation
    1002
{
    1070
0
    1040
0
    1070
0
    1002
}
       0
LWPOLYLINE
       5
205A
     100
AcDbEntity
       8
1
     100
AcDbPolyline
      90
4
      70
1
      10
128.5
      20
33.7498226701
      42
1
      10
121.5
      20
33.7498226701
      42
0
      10
121.5
      20
23.7498226701
      42
1
      10
128.5
      20
23.7498226701
      42
0
    1001
FS_CYPCUT
    1000
Channel
    1070
1
    1000
LeadIn
    1002
{
    1070
3
    1040
1.5
    1040
1.5707963267949
    1040
0.5
    1040
0.3
    1070
0
    1040
0.5
    1070
0
    1002
}
    1000
LeadOut
    1002
{
    1070
0
    1040
0
    1040
0
    1040
0
    1070
0
    1002
}
    1000
IsFill
    1070
0
    1000
PathStart
    1040
1.5
    1000
ToolCompensation
    1002
{
    1070
0
    1040
0
    1070
0
    1002
}
       0
LWPOLYLINE
       5
205B
     100
AcDbEntity
       8
1
     100
AcDbPolyline
      90
4
      70
1
      10
128.5
      20
-65
      42
1
      10
121.5
      20
-65
      42
0
      10
121.5
      20
-75
      42
1
      10
128.5
      20
-75
      42
0
    1001
FS_CYPCUT
    1000
Channel
    1070
1
    1000
LeadIn
    1002
{
    1070
3
    1040
1.5
    1040
1.5707963267949
    1040
0.5
    1040
0.3
    1070
0
    1040
0.5
    1070
0
    1002
}
    1000
LeadOut
    1002
{
    1070
0
    1040
0
    1040
0
    1040
0
    1070
0
    1002
}
    1000
IsFill
    1070
0
    1000
PathStart
    1040
1.5
    1000
ToolCompensation
    1002
{
    1070
0
    1040
0
    1070
0
    1002
}
       0
LWPOLYLINE
       5
205C
     100
AcDbEntity
       8
1
     100
AcDbPolyline
      90
8
      70
1
      10
135
      20
51.2498226701
      42
0.414213562373099
      10
125
      20
61.2498226701
      42
0
      10
-125
      20
61.2498226701
      42
0.414213562373099
      10
-135
      20
51.2498226701
      42
0
      10
-135
      20
-140
      42
0.414213562373099
      10
-125
      20
-150
      42
0
      10
125
      20
-150
      42
0.414213562373098
      10
135
      20
-140
      42
0
    1001
FS_CYPCUT
    1000
Channel
    1070
1
    1000
LeadIn
    1002
{
    1070
3
    1040
1.50162487
    1040
1.5707963267949
    1040
0.5
    1040
0.3
    1070
0
    1040
0.5
    1070
0
    1002
}
    1000
LeadOut
    1002
{
    1070
0
    1040
0
    1040
0
    1040
0
    1070
0
    1002
}
    1000
IsFill
    1070
1
    1000
PathStart
    1040
1.5
    1000
ToolCompensation
    1002
{
    1070
0
    1040
0
    1070
0
    1002
}
    1000
MicroConnect
    1002
{
    1070
3
    1040
1.49922487
    1041
0.6
    1042
0
    1040
3.78647114
    1041
0.6
    1042
0
    1040
7.10756147
    1041
0.6
    1042
0
    1002
}
       0
ENDBLK
       5
205D
     330
2007
     100
AcDbEntity
       8
0
     100
AcDbBlockEnd
       0
BLOCK
       5
205E
     330
2008
     100
AcDbEntity
       8
0
     100
AcDbBlockBegin
       2
Part1243148459
      70
0
      10
-135
      20
-150
      30
0
       3
Part1243148459
       1

       4
CypCutBlock
       0
LWPOLYLINE
       5
205F
     100
AcDbEntity
       8
1
     100
AcDbPolyline
      90
4
      70
1
      10
-121.5
      20
-65
      42
0
      10
-121.5
      20
-75
      42
-1
      10
-128.5
      20
-75
      42
0
      10
-128.5
      20
-65
      42
-1
    1001
FS_CYPCUT
    1000
Channel
    1070
1
    1000
LeadIn
    1002
{
    1070
3
    1040
0.5
    1040
1.5707963267949
    1040
0.5
    1040
0.3
    1070
0
    1040
0.5
    1070
0
    1002
}
    1000
LeadOut
    1002
{
    1070
0
    1040
0
    1040
0
    1040
0
    1070
0
    1002
}
    1000
IsFill
    1070
0
    1000
PathStart
    1040
0.5
    1000
ToolCompensation
    1002
{
    1070
0
    1040
0
    1070
0
    1002
}
       0
LWPOLYLINE
       5
2060
     100
AcDbEntity
       8
1
     100
AcDbPolyline
      90
4
      70
1
      10
-121.5
      20
33.7498226701
      42
0
      10
-121.5
      20
23.7498226701
      42
-1
      10
-128.5
      20
23.7498226701
      42
0
      10
-128.5
      20
33.7498226701
      42
-1
    1001
FS_CYPCUT
    1000
Channel
    1070
1
    1000
LeadIn
    1002
{
    1070
3
    1040
0.5
    1040
1.5707963267949
    1040
0.5
    1040
0.3
    1070
0
    1040
0.5
    1070
0
    1002
}
    1000
LeadOut
    1002
{
    1070
0
    1040
0
    1040
0
    1040
0
    1070
0
    1002
}
    1000
IsFill
    1070
0
    1000
PathStart
    1040
0.5
    1000
ToolCompensation
    1002
{
    1070
0
    1040
0
    1070
0
    1002
}
       0
LINE
       5
2061
     100
AcDbEntity
       8
2
     100
AcDbLine
      10
-135
      20
-1.875088665
      30
0
      11
135
      21
-1.875088665
      31
0
    1001
FS_CYPCUT
    1000
Channel
    1070
2
    1000
LeadIn
    1002
{
    1070
3
    1040
0
    1040
1.5707963267949
    1040
0.5
    1040
0.3
    1070
0
    1040
0.5
    1070
0
    1002
}
    1000
LeadOut
    1002
{
    1070
0
    1040
0
    1040
0
    1040
0
    1070
0
    1002
}
    1000
IsFill
    1070
0
    1000
PathStart
    1040
0
    1000
ToolCompensation
    1002
{
    1070
0
    1040
0
    1070
0
    1002
}
       0
LWPOLYLINE
       5
2062
     100
AcDbEntity
       8
1
     100
AcDbPolyline
      90
4
      70
1
      10
128.5
      20
33.7498226701
      42
1
      10
121.5
      20
33.7498226701
      42
0
      10
121.5
      20
23.7498226701
      42
1
      10
128.5
      20
23.7498226701
      42
0
    1001
FS_CYPCUT
    1000
Channel
    1070
1
    1000
LeadIn
    1002
{
    1070
3
    1040
1.5
    1040
1.5707963267949
    1040
0.5
    1040
0.3
    1070
0
    1040
0.5
    1070
0
    1002
}
    1000
LeadOut
    1002
{
    1070
0
    1040
0
    1040
0
    1040
0
    1070
0
    1002
}
    1000
IsFill
    1070
0
    1000
PathStart
    1040
1.5
    1000
ToolCompensation
    1002
{
    1070
0
    1040
0
    1070
0
    1002
}
       0
LWPOLYLINE
       5
2063
     100
AcDbEntity
       8
1
     100
AcDbPolyline
      90
4
      70
1
      10
128.5
      20
-65
      42
1
      10
121.5
      20
-65
      42
0
      10
121.5
      20
-75
      42
1
      10
128.5
      20
-75
      42
0
    1001
FS_CYPCUT
    1000
Channel
    1070
1
    1000
LeadIn
    1002
{
    1070
3
    1040
1.5
    1040
1.5707963267949
    1040
0.5
    1040
0.3
    1070
0
    1040
0.5
    1070
0
    1002
}
    1000
LeadOut
    1002
{
    1070
0
    1040
0
    1040
0
    1040
0
    1070
0
    1002
}
    1000
IsFill
    1070
0
    1000
PathStart
    1040
1.5
    1000
ToolCompensation
    1002
{
    1070
0
    1040
0
    1070
0
    1002
}
       0
LWPOLYLINE
       5
2064
     100
AcDbEntity
       8
1
     100
AcDbPolyline
      90
8
      70
1
      10
135
      20
51.2498226701
      42
0.414213562373099
      10
125
      20
61.2498226701
      42
0
      10
-125
      20
61.2498226701
      42
0.414213562373099
      10
-135
      20
51.2498226701
      42
0
      10
-135
      20
-140
      42
0.414213562373099
      10
-125
      20
-150
      42
0
      10
125
      20
-150
      42
0.414213562373098
      10
135
      20
-140
      42
0
    1001
FS_CYPCUT
    1000
Channel
    1070
1
    1000
LeadIn
    1002
{
    1070
3
    1040
1.50162487
    1040
1.5707963267949
    1040
0.5
    1040
0.3
    1070
0
    1040
0.5
    1070
0
    1002
}
    1000
LeadOut
    1002
{
    1070
0
    1040
0
    1040
0
    1040
0
    1070
0
    1002
}
    1000
IsFill
    1070
1
    1000
PathStart
    1040
1.5
    1000
ToolCompensation
    1002
{
    1070
0
    1040
0
    1070
0
    1002
}
    1000
MicroConnect
    1002
{
    1070
3
    1040
1.49922487
    1041
0.6
    1042
0
    1040
3.78647114
    1041
0.6
    1042
0
    1040
7.10756147
    1041
0.6
    1042
0
    1002
}
       0
ENDBLK
       5
2065
     330
2008
     100
AcDbEntity
       8
0
     100
AcDbBlockEnd
       0
BLOCK
       5
2066
     330
2009
     100
AcDbEntity
       8
0
     100
AcDbBlockBegin
       2
Part1443522929
      70
0
      10
-135
      20
-150
      30
0
       3
Part1443522929
       1

       4
CypCutBlock
       0
LWPOLYLINE
       5
2067
     100
AcDbEntity
       8
1
     100
AcDbPolyline
      90
4
      70
1
      10
-121.5
      20
-65
      42
0
      10
-121.5
      20
-75
      42
-1
      10
-128.5
      20
-75
      42
0
      10
-128.5
      20
-65
      42
-1
    1001
FS_CYPCUT
    1000
Channel
    1070
1
    1000
LeadIn
    1002
{
    1070
3
    1040
0.5
    1040
1.5707963267949
    1040
0.5
    1040
0.3
    1070
0
    1040
0.5
    1070
0
    1002
}
    1000
LeadOut
    1002
{
    1070
0
    1040
0
    1040
0
    1040
0
    1070
0
    1002
}
    1000
IsFill
    1070
0
    1000
PathStart
    1040
0.5
    1000
ToolCompensation
    1002
{
    1070
0
    1040
0
    1070
0
    1002
}
       0
LWPOLYLINE
       5
2068
     100
AcDbEntity
       8
1
     100
AcDbPolyline
      90
4
      70
1
      10
-121.5
      20
33.7498226701
      42
0
      10
-121.5
      20
23.7498226701
      42
-1
      10
-128.5
      20
23.7498226701
      42
0
      10
-128.5
      20
33.7498226701
      42
-1
    1001
FS_CYPCUT
    1000
Channel
    1070
1
    1000
LeadIn
    1002
{
    1070
3
    1040
0.5
    1040
1.5707963267949
    1040
0.5
    1040
0.3
    1070
0
    1040
0.5
    1070
0
    1002
}
    1000
LeadOut
    1002
{
    1070
0
    1040
0
    1040
0
    1040
0
    1070
0
    1002
}
    1000
IsFill
    1070
0
    1000
PathStart
    1040
0.5
    1000
ToolCompensation
    1002
{
    1070
0
    1040
0
    1070
0
    1002
}
       0
LINE
       5
2069
     100
AcDbEntity
       8
2
     100
AcDbLine
      10
-135
      20
-1.875088665
      30
0
      11
135
      21
-1.875088665
      31
0
    1001
FS_CYPCUT
    1000
Channel
    1070
2
    1000
LeadIn
    1002
{
    1070
3
    1040
0
    1040
1.5707963267949
    1040
0.5
    1040
0.3
    1070
0
    1040
0.5
    1070
0
    1002
}
    1000
LeadOut
    1002
{
    1070
0
    1040
0
    1040
0
    1040
0
    1070
0
    1002
}
    1000
IsFill
    1070
0
    1000
PathStart
    1040
0
    1000
ToolCompensation
    1002
{
    1070
0
    1040
0
    1070
0
    1002
}
       0
LWPOLYLINE
       5
206A
     100
AcDbEntity
       8
1
     100
AcDbPolyline
      90
4
      70
1
      10
128.5
      20
33.7498226701
      42
1
      10
121.5
      20
33.7498226701
      42
0
      10
121.5
      20
23.7498226701
      42
1
      10
128.5
      20
23.7498226701
      42
0
    1001
FS_CYPCUT
    1000
Channel
    1070
1
    1000
LeadIn
    1002
{
    1070
3
    1040
1.5
    1040
1.5707963267949
    1040
0.5
    1040
0.3
    1070
0
    1040
0.5
    1070
0
    1002
}
    1000
LeadOut
    1002
{
    1070
0
    1040
0
    1040
0
    1040
0
    1070
0
    1002
}
    1000
IsFill
    1070
0
    1000
PathStart
    1040
1.5
    1000
ToolCompensation
    1002
{
    1070
0
    1040
0
    1070
0
    1002
}
       0
LWPOLYLINE
       5
206B
     100
AcDbEntity
       8
1
     100
AcDbPolyline
      90
4
      70
1
      10
128.5
      20
-65
      42
1
      10
121.5
      20
-65
      42
0
      10
121.5
      20
-75
      42
1
      10
128.5
      20
-75
      42
0
    1001
FS_CYPCUT
    1000
Channel
    1070
1
    1000
LeadIn
    1002
{
    1070
3
    1040
1.5
    1040
1.5707963267949
    1040
0.5
    1040
0.3
    1070
0
    1040
0.5
    1070
0
    1002
}
    1000
LeadOut
    1002
{
    1070
0
    1040
0
    1040
0
    1040
0
    1070
0
    1002
}
    1000
IsFill
    1070
0
    1000
PathStart
    1040
1.5
    1000
ToolCompensation
    1002
{
    1070
0
    1040
0
    1070
0
    1002
}
       0
LWPOLYLINE
       5
206C
     100
AcDbEntity
       8
1
     100
AcDbPolyline
      90
8
      70
1
      10
135
      20
51.2498226701
      42
0.414213562373099
      10
125
      20
61.2498226701
      42
0
      10
-125
      20
61.2498226701
      42
0.414213562373099
      10
-135
      20
51.2498226701
      42
0
      10
-135
      20
-140
      42
0.414213562373099
      10
-125
      20
-150
      42
0
      10
125
      20
-150
      42
0.414213562373098
      10
135
      20
-140
      42
0
    1001
FS_CYPCUT
    1000
Channel
    1070
1
    1000
LeadIn
    1002
{
    1070
3
    1040
1.50162487
    1040
1.5707963267949
    1040
0.5
    1040
0.3
    1070
0
    1040
0.5
    1070
0
    1002
}
    1000
LeadOut
    1002
{
    1070
0
    1040
0
    1040
0
    1040
0
    1070
0
    1002
}
    1000
IsFill
    1070
1
    1000
PathStart
    1040
1.5
    1000
ToolCompensation
    1002
{
    1070
0
    1040
0
    1070
0
    1002
}
    1000
MicroConnect
    1002
{
    1070
3
    1040
1.49922487
    1041
0.6
    1042
0
    1040
3.78647114
    1041
0.6
    1042
0
    1040
7.10756147
    1041
0.6
    1042
0
    1002
}
       0
ENDBLK
       5
206D
     330
2009
     100
AcDbEntity
       8
0
     100
AcDbBlockEnd
       0
BLOCK
       5
206E
     330
200A
     100
AcDbEntity
       8
0
     100
AcDbBlockBegin
       2
Part31876696
      70
0
      10
-246.91278
      20
-216.142275
      30
0
       3
Part31876696
       1

       4
CypCutBlock
       0
LINE
       5
206F
     100
AcDbEntity
       8
2
     100
AcDbLine
      10
-238.1993901879
      20
-184.5028503782
      30
0
      11
-188.1413212334
      21
-170.9680902198
      31
0
    1001
FS_CYPCUT
    1000
Channel
    1070
2
    1000
LeadIn
    1002
{
    1070
3
    1040
0
    1040
1.5707963267949
    1040
0.5
    1040
0.5
    1070
0
    1040
0.5
    1070
0
    1002
}
    1000
LeadOut
    1002
{
    1070
0
    1040
0
    1040
0
    1040
0
    1070
0
    1002
}
    1000
IsFill
    1070
0
    1000
PathStart
    1040
0
    1000
ToolCompensation
    1002
{
    1070
0
    1040
0
    1070
0
    1002
}
       0
LINE
       5
2070
     100
AcDbEntity
       8
2
     100
AcDbLine
      10
-193.3496515611
      20
-144.9402635428
      30
0
      11
-244.7613948229
      21
-151.7102454316
      31
0
    1001
FS_CYPCUT
    1000
Channel
    1070
2
    1000
LeadIn
    1002
{
    1070
3
    1040
0
    1040
1.5707963267949
    1040
0.5
    1040
0.5
    1070
0
    1040
0.5
    1070
0
    1002
}
    1000
LeadOut
    1002
{
    1070
0
    1040
0
    1040
0
    1040
0
    1070
0
    1002
}
    1000
IsFill
    1070
0
    1000
PathStart
    1040
0
    1000
ToolCompensation
    1002
{
    1070
0
    1040
0
    1070
0
    1002
}
       0
LINE
       5
2071
     100
AcDbEntity
       8
2
     100
AcDbLine
      10
-246.9122468234
      20
-118.3368026786
      30
0
      11
-195.056804844
      21
-118.4514199503
      31
0
    1001
FS_CYPCUT
    1000
Channel
    1070
2
    1000
LeadIn
    1002
{
    1070
3
    1040
0
    1040
1.5707963267949
    1040
0.5
    1040
0.5
    1070
0
    1040
0.5
    1070
0
    1002
}
    1000
LeadOut
    1002
{
    1070
0
    1040
0
    1040
0
    1040
0
    1070
0
    1002
}
    1000
IsFill
    1070
0
    1000
PathStart
    1040
0
    1000
ToolCompensation
    1002
{
    1070
0
    1040
0
    1070
0
    1002
}
       0
LINE
       5
2072
     100
AcDbEntity
       8
2
     100
AcDbLine
      10
-193.2325719256
      20
-91.9703883506
      30
0
      11
-244.6138855267
      21
-84.9732023003
      31
0
    1001
FS_CYPCUT
    1000
Channel
    1070
2
    1000
LeadIn
    1002
{
    1070
3
    1040
0
    1040
1.5707963267949
    1040
0.5
    1040
0.5
    1070
0
    1040
0.5
    1070
0
    1002
}
    1000
LeadOut
    1002
{
    1070
0
    1040
0
    1040
0
    1040
0
    1070
0
    1002
}
    1000
IsFill
    1070
0
    1000
PathStart
    1040
0
    1000
ToolCompensation
    1002
{
    1070
0
    1040
0
    1070
0
    1002
}
       0
LINE
       5
2073
     100
AcDbEntity
       8
2
     100
AcDbLine
      10
-237.9069932866
      20
-52.2099658621
      30
0
      11
-187.9092428089
      21
-65.9658717637
      31
0
    1001
FS_CYPCUT
    1000
Channel
    1070
2
    1000
LeadIn
    1002
{
    1070
3
    1040
0
    1040
1.5707963267949
    1040
0.5
    1040
0.5
    1070
0
    1040
0.5
    1070
0
    1002
}
    1000
LeadOut
    1002
{
    1070
0
    1040
0
    1040
0
    1040
0
    1070
0
    1002
}
    1000
IsFill
    1070
0
    1000
PathStart
    1040
0
    1000
ToolCompensation
    1002
{
    1070
0
    1040
0
    1070
0
    1002
}
       0
LINE
       5
2074
     100
AcDbEntity
       8
2
     100
AcDbLine
      10
-179.1810394583
      20
-40.8981413491
      30
0
      11
-226.9102808844
      21
-20.6269915816
      31
0
    1001
FS_CYPCUT
    1000
Channel
    1070
2
    1000
LeadIn
    1002
{
    1070
3
    1040
0
    1040
1.5707963267949
    1040
0.5
    1040
0.5
    1070
0
    1040
0.5
    1070
0
    1002
}
    1000
LeadOut
    1002
{
    1070
0
    1040
0
    1040
0
    1040
0
    1070
0
    1002
}
    1000
IsFill
    1070
0
    1000
PathStart
    1040
0
    1000
ToolCompensation
    1002
{
    1070
0
    1040
0
    1070
0
    1002
}
       0
LINE
       5
2075
     100
AcDbEntity
       8
2
     100
AcDbLine
      10
-211.8183872883
      20
9.2167117353
      30
0
      11
-167.2024488181
      21
-17.2108881258
      31
0
    1001
FS_CYPCUT
    1000
Channel
    1070
2
    1000
LeadIn
    1002
{
    1070
3
    1040
0.00771373278540783
    1040
1.5707963267949
    1040
0.5
    1040
0.5
    1070
0
    1040
0.5
    1070
0
    1002
}
    1000
LeadOut
    1002
{
    1070
0
    1040
0
    1040
0
    1040
0
    1070
0
    1002
}
    1000
IsFill
    1070
0
    1000
PathStart
    1040
0
    1000
ToolCompensation
    1002
{
    1070
0
    1040
0
    1070
0
    1002
}
    1000
MicroConnect
    1002
{
    1070
1
    1040
0
    1041
0.4
    1042
0
    1002
}
       0
LINE
       5
2076
     100
AcDbEntity
       8
2
     100
AcDbLine
      10
-152.1854886282
      20
4.6766306591
      30
0
      11
-192.8984348392
      21
36.7929195297
      31
0
    1001
FS_CYPCUT
    1000
Channel
    1070
2
    1000
LeadIn
    1002
{
    1070
3
    1040
0
    1040
1.5707963267949
    1040
0.5
    1040
0.5
    1070
0
    1040
0.5
    1070
0
    1002
}
    1000
LeadOut
    1002
{
    1070
0
    1040
0
    1040
0
    1040
0
    1070
0
    1002
}
    1000
IsFill
    1070
0
    1000
PathStart
    1040
0
    1000
ToolCompensation
    1002
{
    1070
0
    1040
0
    1070
0
    1002
}
       0
LINE
       5
2077
     100
AcDbEntity
       8
2
     100
AcDbLine
      10
-170.4853013453
      20
61.6135410993
      30
0
      11
-134.3959548376
      21
24.3770124124
      31
0
    1001
FS_CYPCUT
    1000
Channel
    1070
2
    1000
LeadIn
    1002
{
    1070
3
    1040
0
    1040
1.5707963267949
    1040
0.5
    1040
0.5
    1070
0
    1040
0.5
    1070
0
    1002
}
    1000
LeadOut
    1002
{
    1070
0
    1040
0
    1040
0
    1040
0
    1070
0
    1002
}
    1000
IsFill
    1070
0
    1000
PathStart
    1040
0
    1000
ToolCompensation
    1002
{
    1070
0
    1040
0
    1070
0
    1002
}
       0
LINE
       5
2078
     100
AcDbEntity
       8
2
     100
AcDbLine
      10
-114.1487171199
      20
41.5415661701
      30
0
      11
-144.9756928761
      21
83.2392587409
      31
0
    1001
FS_CYPCUT
    1000
Channel
    1070
2
    1000
LeadIn
    1002
{
    1070
3
    1040
0
    1040
1.5707963267949
    1040
0.5
    1040
0.5
    1070
0
    1040
0.5
    1070
0
    1002
}
    1000
LeadOut
    1002
{
    1070
0
    1040
0
    1040
0
    1040
0
    1070
0
    1002
}
    1000
IsFill
    1070
0
    1000
PathStart
    1040
0
    1000
ToolCompensation
    1002
{
    1070
0
    1040
0
    1070
0
    1002
}
       0
LINE
       5
2079
     100
AcDbEntity
       8
2
     100
AcDbLine
      10
-116.8211221946
      20
101.2873035839
      30
0
      11
-91.8021457833
      21
55.866484356
      31
0
    1001
FS_CYPCUT
    1000
Channel
    1070
2
    1000
LeadIn
    1002
{
    1070
3
    1040
0
    1040
1.5707963267949
    1040
0.5
    1040
0.5
    1070
0
    1040
0.5
    1070
0
    1002
}
    1000
LeadOut
    1002
{
    1070
0
    1040
0
    1040
0
    1040
0
    1070
0
    1002
}
    1000
IsFill
    1070
0
    1000
PathStart
    1040
0
    1000
ToolCompensation
    1002
{
    1070
0
    1040
0
    1070
0
    1002
}
       0
LINE
       5
207A
     100
AcDbEntity
       8
2
     100
AcDbLine
      10
-67.7517687261
      20
67.0982201031
      30
0
      11
-86.5199171206
      21
115.4382305069
      31
0
    1001
FS_CYPCUT
    1000
Channel
    1070
2
    1000
LeadIn
    1002
{
    1070
3
    1040
0
    1040
1.5707963267949
    1040
0.5
    1040
0.5
    1070
0
    1040
0.5
    1070
0
    1002
}
    1000
LeadOut
    1002
{
    1070
0
    1040
0
    1040
0
    1040
0
    1070
0
    1002
}
    1000
IsFill
    1070
0
    1000
PathStart
    1040
0
    1000
ToolCompensation
    1002
{
    1070
0
    1040
0
    1070
0
    1002
}
       0
LINE
       5
207B
     100
AcDbEntity
       8
2
     100
AcDbLine
      10
-54.6084002757
      20
125.4415722354
      30
0
      11
-42.4232707104
      21
75.0379749681
      31
0
    1001
FS_CYPCUT
    1000
Channel
    1070
2
    1000
LeadIn
    1002
{
    1070
3
    1040
0
    1040
1.5707963267949
    1040
0.5
    1040
0.5
    1070
0
    1040
0.5
    1070
0
    1002
}
    1000
LeadOut
    1002
{
    1070
0
    1040
0
    1040
0
    1040
0
    1070
0
    1002
}
    1000
IsFill
    1070
0
    1000
PathStart
    1040
0
    1000
ToolCompensation
    1002
{
    1070
0
    1040
0
    1070
0
    1002
}
       0
LINE
       5
207C
     100
AcDbEntity
       8
2
     100
AcDbLine
      10
-16.2649588667
      20
79.5452176028
      30
0
      11
-21.6513963302
      21
131.1202725369
      31
0
    1001
FS_CYPCUT
    1000
Channel
    1070
2
    1000
LeadIn
    1002
{
    1070
3
    1040
0
    1040
1.5707963267949
    1040
0.5
    1040
0.5
    1070
0
    1040
0.5
    1070
0
    1002
}
    1000
LeadOut
    1002
{
    1070
0
    1040
0
    1040
0
    1040
0
    1070
0
    1002
}
    1000
IsFill
    1070
0
    1000
PathStart
    1040
0
    1000
ToolCompensation
    1002
{
    1070
0
    1040
0
    1070
0
    1002
}
       0
LWPOLYLINE
       5
207D
     100
AcDbEntity
       8
1
     100
AcDbPolyline
      90
60
      70
1
      10
11.7704025569
      20
132.389965458
      42
0
      10
-21.411625337
      20
131.1453139302
      42
0
      10
-21.8911673234
      20
131.0952311436
      42
0
      10
-54.3740754198
      20
125.4982205479
      42
0
      10
-54.8427251316
      20
125.3849239228
      42
0
      10
-86.2951858192
      20
115.5254830826
      42
0
      10
-86.744648422
      20
115.3509779313
      42
0
      10
-116.6099621271
      20
101.4036160776
      42
0
      10
-117.0322822622
      20
101.1709910902
      42
0
      10
-144.781841515
      20
83.3825724555
      42
0
      10
-145.1695442372
      20
83.0959450263
      42
0
      10
-170.3121898042
      20
61.7813194239
      42
0
      10
-170.6584128865
      20
61.4457627746
      42
0
      10
-192.7491271427
      20
36.9821928373
      42
0
      10
-193.0477425357
      20
36.6036462221
      42
0
      10
-211.6955261403
      20
9.4241299442
      42
0
      10
-211.9412484363
      20
9.0092935264
      42
0
      10
-226.8160408927
      20
-20.4050997117
      42
0
      10
-227.0045208761
      20
-20.8488834516
      42
0
      10
-237.8430424736
      20
-51.9775277491
      42
0
      10
-237.9709440995
      20
-52.4424039751
      42
0
      10
-244.581355807
      20
-84.7343320233
      42
0
      10
-244.6464152464
      20
-85.2120725773
      42
0
      10
-246.9117139728
      20
-118.0957281499
      42
0
      10
-246.9127796739
      20
-118.5778772073
      42
0
      10
-244.7928683085
      20
-151.4712335099
      42
0
      10
-244.7299213374
      20
-151.9492573532
      42
0
      10
-238.2623127947
      20
-184.2701320923
      42
0
      10
-238.1364675811
      20
-184.7355686641
      42
0
      10
-227.3565613511
      20
-216.142274535
      42
0
      10
-179.5381699683
      20
-196.0823282349
      42
0
      10
-188.0783986266
      20
-171.2008085057
      42
0
      10
-188.2042438402
      20
-170.7353719338
      42
0
      10
-193.3181780755
      20
-145.1792754645
      42
0
      10
-193.3811250466
      20
-144.7012516212
      42
0
      10
-195.0573376945
      20
-118.692494479
      42
0
      10
-195.0562719934
      20
-118.2103454216
      42
0
      10
-193.2651016452
      20
-92.2092586276
      42
0
      10
-193.2000422059
      20
-91.7315180736
      42
0
      10
-187.9731936218
      20
-66.1983098766
      42
0
      10
-187.845291996
      20
-65.7334336507
      42
0
      10
-179.27527945
      20
-41.120033219
      42
0
      10
-179.0867994666
      20
-40.6762494791
      42
0
      10
-167.3253099661
      20
-17.4183063347
      42
0
      10
-167.0795876701
      20
-17.0034699169
      42
0
      10
-152.3347963247
      20
4.4873573515
      42
0
      10
-152.0361809317
      20
4.8659039667
      42
0
      10
-134.5690663788
      20
24.2092340878
      42
0
      10
-134.2228432964
      20
24.5447907371
      42
0
      10
-114.342568481
      20
41.3982524556
      42
0
      10
-113.9548657588
      20
41.6848798847
      42
0
      10
-92.0133058508
      20
55.7501718623
      42
0
      10
-91.5909857158
      20
55.9827968497
      42
0
      10
-67.9765000275
      20
67.0109675275
      42
0
      10
-67.5270374247
      20
67.1854726788
      42
0
      10
-42.6575955663
      20
74.9813266556
      42
0
      10
-42.1889458546
      20
75.0946232807
      42
0
      10
-16.5047298599
      20
79.5201762095
      42
0
      10
-16.0251878735
      20
79.5702589961
      42
0
      10
10.2628058188
      20
80.5563166179
      42
0
    1001
FS_CYPCUT
    1000
Channel
    1070
1
    1000
LeadIn
    1002
{
    1070
3
    1040
29.5077137327854
    1040
1.5707963267949
    1040
0.5
    1040
0.5
    1070
0
    1040
0.5
    1070
0
    1002
}
    1000
LeadOut
    1002
{
    1070
0
    1040
0
    1040
0
    1040
0
    1070
0
    1002
}
    1000
IsFill
    1070
1
    1000
PathStart
    1040
29.5
    1000
ToolCompensation
    1002
{
    1070
0
    1040
0
    1070
0
    1002
}
    1000
MicroConnect
    1002
{
    1070
3
    1040
29.5
    1041
0.4
    1042
0
    1040
42.3874887
    1041
0.4
    1042
0
    1040
59.6180576
    1041
0.4
    1042
0
    1002
}
       0
ENDBLK
       5
207E
     330
200A
     100
AcDbEntity
       8
0
     100
AcDbBlockEnd
       0
BLOCK
       5
207F
     330
200B
     100
AcDbEntity
       8
0
     100
AcDbBlockBegin
       2
Part1577398054
      70
0
      10
-246.91278
      20
-216.142275
      30
0
       3
Part1577398054
       1

       4
CypCutBlock
       0
LINE
       5
2080
     100
AcDbEntity
       8
2
     100
AcDbLine
      10
-238.1993901879
      20
-184.5028503782
      30
0
      11
-188.1413212334
      21
-170.9680902198
      31
0
    1001
FS_CYPCUT
    1000
Channel
    1070
2
    1000
LeadIn
    1002
{
    1070
3
    1040
0
    1040
1.5707963267949
    1040
0.5
    1040
0.5
    1070
0
    1040
0.5
    1070
0
    1002
}
    1000
LeadOut
    1002
{
    1070
0
    1040
0
    1040
0
    1040
0
    1070
0
    1002
}
    1000
IsFill
    1070
0
    1000
PathStart
    1040
0
    1000
ToolCompensation
    1002
{
    1070
0
    1040
0
    1070
0
    1002
}
       0
LINE
       5
2081
     100
AcDbEntity
       8
2
     100
AcDbLine
      10
-193.3496515611
      20
-144.9402635428
      30
0
      11
-244.7613948229
      21
-151.7102454316
      31
0
    1001
FS_CYPCUT
    1000
Channel
    1070
2
    1000
LeadIn
    1002
{
    1070
3
    1040
0
    1040
1.5707963267949
    1040
0.5
    1040
0.5
    1070
0
    1040
0.5
    1070
0
    1002
}
    1000
LeadOut
    1002
{
    1070
0
    1040
0
    1040
0
    1040
0
    1070
0
    1002
}
    1000
IsFill
    1070
0
    1000
PathStart
    1040
0
    1000
ToolCompensation
    1002
{
    1070
0
    1040
0
    1070
0
    1002
}
       0
LINE
       5
2082
     100
AcDbEntity
       8
2
     100
AcDbLine
      10
-246.9122468234
      20
-118.3368026786
      30
0
      11
-195.056804844
      21
-118.4514199503
      31
0
    1001
FS_CYPCUT
    1000
Channel
    1070
2
    1000
LeadIn
    1002
{
    1070
3
    1040
0
    1040
1.5707963267949
    1040
0.5
    1040
0.5
    1070
0
    1040
0.5
    1070
0
    1002
}
    1000
LeadOut
    1002
{
    1070
0
    1040
0
    1040
0
    1040
0
    1070
0
    1002
}
    1000
IsFill
    1070
0
    1000
PathStart
    1040
0
    1000
ToolCompensation
    1002
{
    1070
0
    1040
0
    1070
0
    1002
}
       0
LINE
       5
2083
     100
AcDbEntity
       8
2
     100
AcDbLine
      10
-193.2325719256
      20
-91.9703883506
      30
0
      11
-244.6138855267
      21
-84.9732023003
      31
0
    1001
FS_CYPCUT
    1000
Channel
    1070
2
    1000
LeadIn
    1002
{
    1070
3
    1040
0
    1040
1.5707963267949
    1040
0.5
    1040
0.5
    1070
0
    1040
0.5
    1070
0
    1002
}
    1000
LeadOut
    1002
{
    1070
0
    1040
0
    1040
0
    1040
0
    1070
0
    1002
}
    1000
IsFill
    1070
0
    1000
PathStart
    1040
0
    1000
ToolCompensation
    1002
{
    1070
0
    1040
0
    1070
0
    1002
}
       0
LINE
       5
2084
     100
AcDbEntity
       8
2
     100
AcDbLine
      10
-237.9069932866
      20
-52.2099658621
      30
0
      11
-187.9092428089
      21
-65.9658717637
      31
0
    1001
FS_CYPCUT
    1000
Channel
    1070
2
    1000
LeadIn
    1002
{
    1070
3
    1040
0
    1040
1.5707963267949
    1040
0.5
    1040
0.5
    1070
0
    1040
0.5
    1070
0
    1002
}
    1000
LeadOut
    1002
{
    1070
0
    1040
0
    1040
0
    1040
0
    1070
0
    1002
}
    1000
IsFill
    1070
0
    1000
PathStart
    1040
0
    1000
ToolCompensation
    1002
{
    1070
0
    1040
0
    1070
0
    1002
}
       0
LINE
       5
2085
     100
AcDbEntity
       8
2
     100
AcDbLine
      10
-179.1810394583
      20
-40.8981413491
      30
0
      11
-226.9102808844
      21
-20.6269915816
      31
0
    1001
FS_CYPCUT
    1000
Channel
    1070
2
    1000
LeadIn
    1002
{
    1070
3
    1040
0
    1040
1.5707963267949
    1040
0.5
    1040
0.5
    1070
0
    1040
0.5
    1070
0
    1002
}
    1000
LeadOut
    1002
{
    1070
0
    1040
0
    1040
0
    1040
0
    1070
0
    1002
}
    1000
IsFill
    1070
0
    1000
PathStart
    1040
0
    1000
ToolCompensation
    1002
{
    1070
0
    1040
0
    1070
0
    1002
}
       0
LINE
       5
2086
     100
AcDbEntity
       8
2
     100
AcDbLine
      10
-211.8183872883
      20
9.2167117353
      30
0
      11
-167.2024488181
      21
-17.2108881258
      31
0
    1001
FS_CYPCUT
    1000
Channel
    1070
2
    1000
LeadIn
    1002
{
    1070
3
    1040
0.00771373278540783
    1040
1.5707963267949
    1040
0.5
    1040
0.5
    1070
0
    1040
0.5
    1070
0
    1002
}
    1000
LeadOut
    1002
{
    1070
0
    1040
0
    1040
0
    1040
0
    1070
0
    1002
}
    1000
IsFill
    1070
0
    1000
PathStart
    1040
0
    1000
ToolCompensation
    1002
{
    1070
0
    1040
0
    1070
0
    1002
}
    1000
MicroConnect
    1002
{
    1070
1
    1040
0
    1041
0.4
    1042
0
    1002
}
       0
LINE
       5
2087
     100
AcDbEntity
       8
2
     100
AcDbLine
      10
-152.1854886282
      20
4.6766306591
      30
0
      11
-192.8984348392
      21
36.7929195297
      31
0
    1001
FS_CYPCUT
    1000
Channel
    1070
2
    1000
LeadIn
    1002
{
    1070
3
    1040
0
    1040
1.5707963267949
    1040
0.5
    1040
0.5
    1070
0
    1040
0.5
    1070
0
    1002
}
    1000
LeadOut
    1002
{
    1070
0
    1040
0
    1040
0
    1040
0
    1070
0
    1002
}
    1000
IsFill
    1070
0
    1000
PathStart
    1040
0
    1000
ToolCompensation
    1002
{
    1070
0
    1040
0
    1070
0
    1002
}
       0
LINE
       5
2088
     100
AcDbEntity
       8
2
     100
AcDbLine
      10
-170.4853013453
      20
61.6135410993
      30
0
      11
-134.3959548376
      21
24.3770124124
      31
0
    1001
FS_CYPCUT
    1000
Channel
    1070
2
    1000
LeadIn
    1002
{
    1070
3
    1040
0
    1040
1.5707963267949
    1040
0.5
    1040
0.5
    1070
0
    1040
0.5
    1070
0
    1002
}
    1000
LeadOut
    1002
{
    1070
0
    1040
0
    1040
0
    1040
0
    1070
0
    1002
}
    1000
IsFill
    1070
0
    1000
PathStart
    1040
0
    1000
ToolCompensation
    1002
{
    1070
0
    1040
0
    1070
0
    1002
}
       0
LINE
       5
2089
     100
AcDbEntity
       8
2
     100
AcDbLine
      10
-114.1487171199
      20
41.5415661701
      30
0
      11
-144.9756928761
      21
83.2392587409
      31
0
    1001
FS_CYPCUT
    1000
Channel
    1070
2
    1000
LeadIn
    1002
{
    1070
3
    1040
0
    1040
1.5707963267949
    1040
0.5
    1040
0.5
    1070
0
    1040
0.5
    1070
0
    1002
}
    1000
LeadOut
    1002
{
    1070
0
    1040
0
    1040
0
    1040
0
    1070
0
    1002
}
    1000
IsFill
    1070
0
    1000
PathStart
    1040
0
    1000
ToolCompensation
    1002
{
    1070
0
    1040
0
    1070
0
    1002
}
       0
LINE
       5
208A
     100
AcDbEntity
       8
2
     100
AcDbLine
      10
-116.8211221946
      20
101.2873035839
      30
0
      11
-91.8021457833
      21
55.866484356
      31
0
    1001
FS_CYPCUT
    1000
Channel
    1070
2
    1000
LeadIn
    1002
{
    1070
3
    1040
0
    1040
1.5707963267949
    1040
0.5
    1040
0.5
    1070
0
    1040
0.5
    1070
0
    1002
}
    1000
LeadOut
    1002
{
    1070
0
    1040
0
    1040
0
    1040
0
    1070
0
    1002
}
    1000
IsFill
    1070
0
    1000
PathStart
    1040
0
    1000
ToolCompensation
    1002
{
    1070
0
    1040
0
    1070
0
    1002
}
       0
LINE
       5
208B
     100
AcDbEntity
       8
2
     100
AcDbLine
      10
-67.7517687261
      20
67.0982201031
      30
0
      11
-86.5199171206
      21
115.4382305069
      31
0
    1001
FS_CYPCUT
    1000
Channel
    1070
2
    1000
LeadIn
    1002
{
    1070
3
    1040
0
    1040
1.5707963267949
    1040
0.5
    1040
0.5
    1070
0
    1040
0.5
    1070
0
    1002
}
    1000
LeadOut
    1002
{
    1070
0
    1040
0
    1040
0
    1040
0
    1070
0
    1002
}
    1000
IsFill
    1070
0
    1000
PathStart
    1040
0
    1000
ToolCompensation
    1002
{
    1070
0
    1040
0
    1070
0
    1002
}
       0
LINE
       5
208C
     100
AcDbEntity
       8
2
     100
AcDbLine
      10
-54.6084002757
      20
125.4415722354
      30
0
      11
-42.4232707104
      21
75.0379749681
      31
0
    1001
FS_CYPCUT
    1000
Channel
    1070
2
    1000
LeadIn
    1002
{
    1070
3
    1040
0
    1040
1.5707963267949
    1040
0.5
    1040
0.5
    1070
0
    1040
0.5
    1070
0
    1002
}
    1000
LeadOut
    1002
{
    1070
0
    1040
0
    1040
0
    1040
0
    1070
0
    1002
}
    1000
IsFill
    1070
0
    1000
PathStart
    1040
0
    1000
ToolCompensation
    1002
{
    1070
0
    1040
0
    1070
0
    1002
}
       0
LINE
       5
208D
     100
AcDbEntity
       8
2
     100
AcDbLine
      10
-16.2649588667
      20
79.5452176028
      30
0
      11
-21.6513963302
      21
131.1202725369
      31
0
    1001
FS_CYPCUT
    1000
Channel
    1070
2
    1000
LeadIn
    1002
{
    1070
3
    1040
0
    1040
1.5707963267949
    1040
0.5
    1040
0.5
    1070
0
    1040
0.5
    1070
0
    1002
}
    1000
LeadOut
    1002
{
    1070
0
    1040
0
    1040
0
    1040
0
    1070
0
    1002
}
    1000
IsFill
    1070
0
    1000
PathStart
    1040
0
    1000
ToolCompensation
    1002
{
    1070
0
    1040
0
    1070
0
    1002
}
       0
LWPOLYLINE
       5
208E
     100
AcDbEntity
       8
1
     100
AcDbPolyline
      90
60
      70
1
      10
11.7704025569
      20
132.389965458
      42
0
      10
-21.411625337
      20
131.1453139302
      42
0
      10
-21.8911673234
      20
131.0952311436
      42
0
      10
-54.3740754198
      20
125.4982205479
      42
0
      10
-54.8427251316
      20
125.3849239228
      42
0
      10
-86.2951858192
      20
115.5254830826
      42
0
      10
-86.744648422
      20
115.3509779313
      42
0
      10
-116.6099621271
      20
101.4036160776
      42
0
      10
-117.0322822622
      20
101.1709910902
      42
0
      10
-144.781841515
      20
83.3825724555
      42
0
      10
-145.1695442372
      20
83.0959450263
      42
0
      10
-170.3121898042
      20
61.7813194239
      42
0
      10
-170.6584128865
      20
61.4457627746
      42
0
      10
-192.7491271427
      20
36.9821928373
      42
0
      10
-193.0477425357
      20
36.6036462221
      42
0
      10
-211.6955261403
      20
9.4241299442
      42
0
      10
-211.9412484363
      20
9.0092935264
      42
0
      10
-226.8160408927
      20
-20.4050997117
      42
0
      10
-227.0045208761
      20
-20.8488834516
      42
0
      10
-237.8430424736
      20
-51.9775277491
      42
0
      10
-237.9709440995
      20
-52.4424039751
      42
0
      10
-244.581355807
      20
-84.7343320233
      42
0
      10
-244.6464152464
      20
-85.2120725773
      42
0
      10
-246.9117139728
      20
-118.0957281499
      42
0
      10
-246.9127796739
      20
-118.5778772073
      42
0
      10
-244.7928683085
      20
-151.4712335099
      42
0
      10
-244.7299213374
      20
-151.9492573532
      42
0
      10
-238.2623127947
      20
-184.2701320923
      42
0
      10
-238.1364675811
      20
-184.7355686641
      42
0
      10
-227.3565613511
      20
-216.142274535
      42
0
      10
-179.5381699683
      20
-196.0823282349
      42
0
      10
-188.0783986266
      20
-171.2008085057
      42
0
      10
-188.2042438402
      20
-170.7353719338
      42
0
      10
-193.3181780755
      20
-145.1792754645
      42
0
      10
-193.3811250466
      20
-144.7012516212
      42
0
      10
-195.0573376945
      20
-118.692494479
      42
0
      10
-195.0562719934
      20
-118.2103454216
      42
0
      10
-193.2651016452
      20
-92.2092586276
      42
0
      10
-193.2000422059
      20
-91.7315180736
      42
0
      10
-187.9731936218
      20
-66.1983098766
      42
0
      10
-187.845291996
      20
-65.7334336507
      42
0
      10
-179.27527945
      20
-41.120033219
      42
0
      10
-179.0867994666
      20
-40.6762494791
      42
0
      10
-167.3253099661
      20
-17.4183063347
      42
0
      10
-167.0795876701
      20
-17.0034699169
      42
0
      10
-152.3347963247
      20
4.4873573515
      42
0
      10
-152.0361809317
      20
4.8659039667
      42
0
      10
-134.5690663788
      20
24.2092340878
      42
0
      10
-134.2228432964
      20
24.5447907371
      42
0
      10
-114.342568481
      20
41.3982524556
      42
0
      10
-113.9548657588
      20
41.6848798847
      42
0
      10
-92.0133058508
      20
55.7501718623
      42
0
      10
-91.5909857158
      20
55.9827968497
      42
0
      10
-67.9765000275
      20
67.0109675275
      42
0
      10
-67.5270374247
      20
67.1854726788
      42
0
      10
-42.6575955663
      20
74.9813266556
      42
0
      10
-42.1889458546
      20
75.0946232807
      42
0
      10
-16.5047298599
      20
79.5201762095
      42
0
      10
-16.0251878735
      20
79.5702589961
      42
0
      10
10.2628058188
      20
80.5563166179
      42
0
    1001
FS_CYPCUT
    1000
Channel
    1070
1
    1000
LeadIn
    1002
{
    1070
3
    1040
29.5077137327854
    1040
1.5707963267949
    1040
0.5
    1040
0.5
    1070
0
    1040
0.5
    1070
0
    1002
}
    1000
LeadOut
    1002
{
    1070
0
    1040
0
    1040
0
    1040
0
    1070
0
    1002
}
    1000
IsFill
    1070
1
    1000
PathStart
    1040
29.5
    1000
ToolCompensation
    1002
{
    1070
0
    1040
0
    1070
0
    1002
}
    1000
MicroConnect
    1002
{
    1070
3
    1040
29.5
    1041
0.4
    1042
0
    1040
42.3874887
    1041
0.4
    1042
0
    1040
59.6180576
    1041
0.4
    1042
0
    1002
}
       0
ENDBLK
       5
208F
     330
200B
     100
AcDbEntity
       8
0
     100
AcDbBlockEnd
       0
BLOCK
       5
2090
     330
200C
     100
AcDbEntity
       8
0
     100
AcDbBlockBegin
       2
Part1814501692
      70
0
      10
-135
      20
-150
      30
0
       3
Part1814501692
       1

       4
CypCutBlock
       0
LWPOLYLINE
       5
2091
     100
AcDbEntity
       8
1
     100
AcDbPolyline
      90
4
      70
1
      10
-121.5
      20
-65
      42
0
      10
-121.5
      20
-75
      42
-1
      10
-128.5
      20
-75
      42
0
      10
-128.5
      20
-65
      42
-1
    1001
FS_CYPCUT
    1000
Channel
    1070
1
    1000
LeadIn
    1002
{
    1070
3
    1040
0.5
    1040
1.5707963267949
    1040
0.5
    1040
0.3
    1070
0
    1040
0.5
    1070
0
    1002
}
    1000
LeadOut
    1002
{
    1070
0
    1040
0
    1040
0
    1040
0
    1070
0
    1002
}
    1000
IsFill
    1070
0
    1000
PathStart
    1040
0.5
    1000
ToolCompensation
    1002
{
    1070
0
    1040
0
    1070
0
    1002
}
       0
LWPOLYLINE
       5
2092
     100
AcDbEntity
       8
1
     100
AcDbPolyline
      90
4
      70
1
      10
-121.5
      20
33.7498226701
      42
0
      10
-121.5
      20
23.7498226701
      42
-1
      10
-128.5
      20
23.7498226701
      42
0
      10
-128.5
      20
33.7498226701
      42
-1
    1001
FS_CYPCUT
    1000
Channel
    1070
1
    1000
LeadIn
    1002
{
    1070
3
    1040
0.5
    1040
1.5707963267949
    1040
0.5
    1040
0.3
    1070
0
    1040
0.5
    1070
0
    1002
}
    1000
LeadOut
    1002
{
    1070
0
    1040
0
    1040
0
    1040
0
    1070
0
    1002
}
    1000
IsFill
    1070
0
    1000
PathStart
    1040
0.5
    1000
ToolCompensation
    1002
{
    1070
0
    1040
0
    1070
0
    1002
}
       0
LINE
       5
2093
     100
AcDbEntity
       8
2
     100
AcDbLine
      10
-135
      20
-1.875088665
      30
0
      11
135
      21
-1.875088665
      31
0
    1001
FS_CYPCUT
    1000
Channel
    1070
2
    1000
LeadIn
    1002
{
    1070
3
    1040
0
    1040
1.5707963267949
    1040
0.5
    1040
0.3
    1070
0
    1040
0.5
    1070
0
    1002
}
    1000
LeadOut
    1002
{
    1070
0
    1040
0
    1040
0
    1040
0
    1070
0
    1002
}
    1000
IsFill
    1070
0
    1000
PathStart
    1040
0
    1000
ToolCompensation
    1002
{
    1070
0
    1040
0
    1070
0
    1002
}
       0
LWPOLYLINE
       5
2094
     100
AcDbEntity
       8
1
     100
AcDbPolyline
      90
4
      70
1
      10
128.5
      20
33.7498226701
      42
1
      10
121.5
      20
33.7498226701
      42
0
      10
121.5
      20
23.7498226701
      42
1
      10
128.5
      20
23.7498226701
      42
0
    1001
FS_CYPCUT
    1000
Channel
    1070
1
    1000
LeadIn
    1002
{
    1070
3
    1040
1.5
    1040
1.5707963267949
    1040
0.5
    1040
0.3
    1070
0
    1040
0.5
    1070
0
    1002
}
    1000
LeadOut
    1002
{
    1070
0
    1040
0
    1040
0
    1040
0
    1070
0
    1002
}
    1000
IsFill
    1070
0
    1000
PathStart
    1040
1.5
    1000
ToolCompensation
    1002
{
    1070
0
    1040
0
    1070
0
    1002
}
       0
LWPOLYLINE
       5
2095
     100
AcDbEntity
       8
1
     100
AcDbPolyline
      90
4
      70
1
      10
128.5
      20
-65
      42
1
      10
121.5
      20
-65
      42
0
      10
121.5
      20
-75
      42
1
      10
128.5
      20
-75
      42
0
    1001
FS_CYPCUT
    1000
Channel
    1070
1
    1000
LeadIn
    1002
{
    1070
3
    1040
1.5
    1040
1.5707963267949
    1040
0.5
    1040
0.3
    1070
0
    1040
0.5
    1070
0
    1002
}
    1000
LeadOut
    1002
{
    1070
0
    1040
0
    1040
0
    1040
0
    1070
0
    1002
}
    1000
IsFill
    1070
0
    1000
PathStart
    1040
1.5
    1000
ToolCompensation
    1002
{
    1070
0
    1040
0
    1070
0
    1002
}
       0
LWPOLYLINE
       5
2096
     100
AcDbEntity
       8
1
     100
AcDbPolyline
      90
8
      70
1
      10
135
      20
51.2498226701
      42
0.414213562373099
      10
125
      20
61.2498226701
      42
0
      10
-125
      20
61.2498226701
      42
0.414213562373099
      10
-135
      20
51.2498226701
      42
0
      10
-135
      20
-140
      42
0.414213562373099
      10
-125
      20
-150
      42
0
      10
125
      20
-150
      42
0.414213562373098
      10
135
      20
-140
      42
0
    1001
FS_CYPCUT
    1000
Channel
    1070
1
    1000
LeadIn
    1002
{
    1070
3
    1040
1.50162487
    1040
1.5707963267949
    1040
0.5
    1040
0.3
    1070
0
    1040
0.5
    1070
0
    1002
}
    1000
LeadOut
    1002
{
    1070
0
    1040
0
    1040
0
    1040
0
    1070
0
    1002
}
    1000
IsFill
    1070
1
    1000
PathStart
    1040
1.5
    1000
ToolCompensation
    1002
{
    1070
0
    1040
0
    1070
0
    1002
}
    1000
MicroConnect
    1002
{
    1070
3
    1040
1.49922487
    1041
0.6
    1042
0
    1040
3.78647114
    1041
0.6
    1042
0
    1040
7.10756147
    1041
0.6
    1042
0
    1002
}
       0
ENDBLK
       5
2097
     330
200C
     100
AcDbEntity
       8
0
     100
AcDbBlockEnd
       0
BLOCK
       5
2098
     330
200D
     100
AcDbEntity
       8
0
     100
AcDbBlockBegin
       2
Part939107678
      70
0
      10
-135
      20
-150
      30
0
       3
Part939107678
       1

       4
CypCutBlock
       0
LWPOLYLINE
       5
2099
     100
AcDbEntity
       8
1
     100
AcDbPolyline
      90
4
      70
1
      10
-121.5
      20
-65
      42
0
      10
-121.5
      20
-75
      42
-1
      10
-128.5
      20
-75
      42
0
      10
-128.5
      20
-65
      42
-1
    1001
FS_CYPCUT
    1000
Channel
    1070
1
    1000
LeadIn
    1002
{
    1070
3
    1040
0.5
    1040
1.5707963267949
    1040
0.5
    1040
0.3
    1070
0
    1040
0.5
    1070
0
    1002
}
    1000
LeadOut
    1002
{
    1070
0
    1040
0
    1040
0
    1040
0
    1070
0
    1002
}
    1000
IsFill
    1070
0
    1000
PathStart
    1040
0.5
    1000
ToolCompensation
    1002
{
    1070
0
    1040
0
    1070
0
    1002
}
       0
LWPOLYLINE
       5
209A
     100
AcDbEntity
       8
1
     100
AcDbPolyline
      90
4
      70
1
      10
-121.5
      20
33.7498226701
      42
0
      10
-121.5
      20
23.7498226701
      42
-1
      10
-128.5
      20
23.7498226701
      42
0
      10
-128.5
      20
33.7498226701
      42
-1
    1001
FS_CYPCUT
    1000
Channel
    1070
1
    1000
LeadIn
    1002
{
    1070
3
    1040
0.5
    1040
1.5707963267949
    1040
0.5
    1040
0.3
    1070
0
    1040
0.5
    1070
0
    1002
}
    1000
LeadOut
    1002
{
    1070
0
    1040
0
    1040
0
    1040
0
    1070
0
    1002
}
    1000
IsFill
    1070
0
    1000
PathStart
    1040
0.5
    1000
ToolCompensation
    1002
{
    1070
0
    1040
0
    1070
0
    1002
}
       0
LINE
       5
209B
     100
AcDbEntity
       8
2
     100
AcDbLine
      10
-135
      20
-1.875088665
      30
0
      11
135
      21
-1.875088665
      31
0
    1001
FS_CYPCUT
    1000
Channel
    1070
2
    1000
LeadIn
    1002
{
    1070
3
    1040
0
    1040
1.5707963267949
    1040
0.5
    1040
0.3
    1070
0
    1040
0.5
    1070
0
    1002
}
    1000
LeadOut
    1002
{
    1070
0
    1040
0
    1040
0
    1040
0
    1070
0
    1002
}
    1000
IsFill
    1070
0
    1000
PathStart
    1040
0
    1000
ToolCompensation
    1002
{
    1070
0
    1040
0
    1070
0
    1002
}
       0
LWPOLYLINE
       5
209C
     100
AcDbEntity
       8
1
     100
AcDbPolyline
      90
4
      70
1
      10
128.5
      20
33.7498226701
      42
1
      10
121.5
      20
33.7498226701
      42
0
      10
121.5
      20
23.7498226701
      42
1
      10
128.5
      20
23.7498226701
      42
0
    1001
FS_CYPCUT
    1000
Channel
    1070
1
    1000
LeadIn
    1002
{
    1070
3
    1040
1.5
    1040
1.5707963267949
    1040
0.5
    1040
0.3
    1070
0
    1040
0.5
    1070
0
    1002
}
    1000
LeadOut
    1002
{
    1070
0
    1040
0
    1040
0
    1040
0
    1070
0
    1002
}
    1000
IsFill
    1070
0
    1000
PathStart
    1040
1.5
    1000
ToolCompensation
    1002
{
    1070
0
    1040
0
    1070
0
    1002
}
       0
LWPOLYLINE
       5
209D
     100
AcDbEntity
       8
1
     100
AcDbPolyline
      90
4
      70
1
      10
128.5
      20
-65
      42
1
      10
121.5
      20
-65
      42
0
      10
121.5
      20
-75
      42
1
      10
128.5
      20
-75
      42
0
    1001
FS_CYPCUT
    1000
Channel
    1070
1
    1000
LeadIn
    1002
{
    1070
3
    1040
1.5
    1040
1.5707963267949
    1040
0.5
    1040
0.3
    1070
0
    1040
0.5
    1070
0
    1002
}
    1000
LeadOut
    1002
{
    1070
0
    1040
0
    1040
0
    1040
0
    1070
0
    1002
}
    1000
IsFill
    1070
0
    1000
PathStart
    1040
1.5
    1000
ToolCompensation
    1002
{
    1070
0
    1040
0
    1070
0
    1002
}
       0
LWPOLYLINE
       5
209E
     100
AcDbEntity
       8
1
     100
AcDbPolyline
      90
8
      70
1
      10
135
      20
51.2498226701
      42
0.414213562373099
      10
125
      20
61.2498226701
      42
0
      10
-125
      20
61.2498226701
      42
0.414213562373099
      10
-135
      20
51.2498226701
      42
0
      10
-135
      20
-140
      42
0.414213562373099
      10
-125
      20
-150
      42
0
      10
125
      20
-150
      42
0.414213562373098
      10
135
      20
-140
      42
0
    1001
FS_CYPCUT
    1000
Channel
    1070
1
    1000
LeadIn
    1002
{
    1070
3
    1040
1.50162487
    1040
1.5707963267949
    1040
0.5
    1040
0.3
    1070
0
    1040
0.5
    1070
0
    1002
}
    1000
LeadOut
    1002
{
    1070
0
    1040
0
    1040
0
    1040
0
    1070
0
    1002
}
    1000
IsFill
    1070
1
    1000
PathStart
    1040
1.5
    1000
ToolCompensation
    1002
{
    1070
0
    1040
0
    1070
0
    1002
}
    1000
MicroConnect
    1002
{
    1070
3
    1040
1.49922487
    1041
0.6
    1042
0
    1040
3.78647114
    1041
0.6
    1042
0
    1040
7.10756147
    1041
0.6
    1042
0
    1002
}
       0
ENDBLK
       5
209F
     330
200D
     100
AcDbEntity
       8
0
     100
AcDbBlockEnd
       0
BLOCK
       5
20A0
     330
200E
     100
AcDbEntity
       8
0
     100
AcDbBlockBegin
       2
Part685261047
      70
0
      10
0
      20
0
      30
0
       3
Part685261047
       1

       4
CypCutBlock
       0
LINE
       5
20A1
     100
AcDbEntity
       8
2
     100
AcDbLine
      10
471.1079983446
      20
0
      30
0
      11
471.1079983446
      21
60
      31
0
    1001
FS_CYPCUT
    1000
Channel
    1070
2
    1000
LeadIn
    1002
{
    1070
3
    1040
0.00666666666666667
    1040
1.5707963267949
    1040
0.5
    1040
0.5
    1070
0
    1040
0.5
    1070
0
    1002
}
    1000
LeadOut
    1002
{
    1070
0
    1040
0
    1040
0
    1040
0
    1070
0
    1002
}
    1000
IsFill
    1070
0
    1000
PathStart
    1040
0
    1000
ToolCompensation
    1002
{
    1070
0
    1040
0
    1070
0
    1002
}
    1000
MicroConnect
    1002
{
    1070
1
    1040
0
    1041
0.4
    1042
0
    1002
}
       0
LWPOLYLINE
       5
20A2
     100
AcDbEntity
       8
1
     100
AcDbPolyline
      90
20
      70
1
      10
942.2159966891
      20
60
      42
0
      10
717.2043862444
      20
60
      42
0
      10
717.2043862444
      20
55
      42
0
      10
696.5123078711
      20
55
      42
0
      10
696.5123078711
      20
60
      42
0
      10
245.9654882059
      20
60
      42
0
      10
245.9654882059
      20
55
      42
0
      10
225.2734098326
      20
55
      42
0
      10
225.2734098326
      20
60
      42
0
      10
0
      20
60
      42
0
      10
0
      20
0
      42
0
      10
225.2734098326
      20
0
      42
0
      10
225.2734098326
      20
5
      42
0
      10
245.9654882059
      20
5
      42
0
      10
245.9654882059
      20
0
      42
0
      10
696.5123078711
      20
0
      42
0
      10
696.5123078711
      20
5
      42
0
      10
717.2043862444
      20
5
      42
0
      10
717.2043862444
      20
0
      42
0
      10
942.2159966891
      20
0
      42
0
    1001
FS_CYPCUT
    1000
Channel
    1070
1
    1000
LeadIn
    1002
{
    1070
3
    1040
4.5
    1040
1.5707963267949
    1040
0.5
    1040
0.5
    1070
0
    1040
0.5
    1070
0
    1002
}
    1000
LeadOut
    1002
{
    1070
0
    1040
0
    1040
0
    1040
0
    1070
0
    1002
}
    1000
IsFill
    1070
1
    1000
PathStart
    1040
4.5
    1000
ToolCompensation
    1002
{
    1070
0
    1040
0
    1070
0
    1002
}
    1000
MicroConnect
    1002
{
    1070
2
    1040
0.502154499
    1041
0.4
    1042
0
    1040
8.16126195
    1041
0.4
    1042
0
    1002
}
       0
ENDBLK
       5
20A3
     330
200E
     100
AcDbEntity
       8
0
     100
AcDbBlockEnd
       0
BLOCK
       5
20A4
     330
200F
     100
AcDbEntity
       8
0
     100
AcDbBlockBegin
       2
Part360260824
      70
0
      10
0
      20
0
      30
0
       3
Part360260824
       1

       4
CypCutBlock
       0
LINE
       5
20A5
     100
AcDbEntity
       8
2
     100
AcDbLine
      10
502.541998968
      20
0
      30
0
      11
502.541998968
      21
30
      31
0
    1001
FS_CYPCUT
    1000
Channel
    1070
2
    1000
LeadIn
    1002
{
    1070
3
    1040
0.0133333333333333
    1040
1.5707963267949
    1040
0.5
    1040
0.5
    1070
0
    1040
0.5
    1070
0
    1002
}
    1000
LeadOut
    1002
{
    1070
0
    1040
0
    1040
0
    1040
0
    1070
0
    1002
}
    1000
IsFill
    1070
0
    1000
PathStart
    1040
0
    1000
ToolCompensation
    1002
{
    1070
0
    1040
0
    1070
0
    1002
}
    1000
MicroConnect
    1002
{
    1070
1
    1040
0
    1041
0.4
    1042
0
    1002
}
       0
LWPOLYLINE
       5
20A6
     100
AcDbEntity
       8
1
     100
AcDbPolyline
      90
4
      70
1
      10
1005.0839979361
      20
30
      42
0
      10
0
      20
30
      42
0
      10
0
      20
0
      42
0
      10
1005.0839979361
      20
0
      42
0
    1001
FS_CYPCUT
    1000
Channel
    1070
1
    1000
LeadIn
    1002
{
    1070
3
    1040
0.5
    1040
1.5707963267949
    1040
0.5
    1040
0.5
    1070
0
    1040
0.5
    1070
0
    1002
}
    1000
LeadOut
    1002
{
    1070
0
    1040
0
    1040
0
    1040
0
    1070
0
    1002
}
    1000
IsFill
    1070
1
    1000
PathStart
    1040
0.5
    1000
ToolCompensation
    1002
{
    1070
0
    1040
0
    1070
0
    1002
}
    1000
MicroConnect
    1002
{
    1070
2
    1040
0.173884077
    1041
0.4
    1042
0
    1040
0.910726183
    1041
0.4
    1042
0
    1002
}
       0
ENDBLK
       5
20A7
     330
200F
     100
AcDbEntity
       8
0
     100
AcDbBlockEnd
       0
ENDSEC
       0
SECTION
       2
ENTITIES
       0
INSERT
       5
20A8
     100
AcDbEntity
       8
1
     100
AcDbBlockReference
       2
Part206808869
      10
5657.83630348874
      20
9946.42050939348
      30
0
      41
1
      42
1
      50
0
    1001
FS_CYPCUT
    1000
Channel
    1070
1
    1000
LeadIn
    1002
{
    1070
0
    1040
0
    1040
0
    1040
0
    1040
0
    1070
0
    1040
0
    1070
0
    1002
}
    1000
LeadOut
    1002
{
    1070
0
    1040
0
    1040
0
    1040
0
    1070
0
    1002
}
       0
INSERT
       5
20A9
     100
AcDbEntity
       8
1
     100
AcDbBlockReference
       2
Part1948071642
      10
5657.83630348874
      20
10160.6694093935
      30
0
      41
1
      42
1
      50
0
    1001
FS_CYPCUT
    1000
Channel
    1070
1
    1000
LeadIn
    1002
{
    1070
0
    1040
0
    1040
0
    1040
0
    1040
0
    1070
0
    1040
0
    1070
0
    1002
}
    1000
LeadOut
    1002
{
    1070
0
    1040
0
    1040
0
    1040
0
    1070
0
    1002
}
       0
INSERT
       5
20AA
     100
AcDbEntity
       8
1
     100
AcDbBlockReference
       2
Part2007953968
      10
5657.83640348874
      20
10374.9183093935
      30
0
      41
1
      42
1
      50
0
    1001
FS_CYPCUT
    1000
Channel
    1070
1
    1000
LeadIn
    1002
{
    1070
0
    1040
0
    1040
0
    1040
0
    1040
0
    1070
0
    1040
0
    1070
0
    1002
}
    1000
LeadOut
    1002
{
    1070
0
    1040
0
    1040
0
    1040
0
    1070
0
    1002
}
       0
INSERT
       5
20AB
     100
AcDbEntity
       8
2
     100
AcDbBlockReference
       2
Part933644741
      10
6007.35587928012
      20
10622.3664300862
      30
0
      41
1
      42
1
      50
90.0000001836389
    1001
FS_CYPCUT
    1000
Channel
    1070
2
    1000
LeadIn
    1002
{
    1070
0
    1040
0
    1040
0
    1040
0
    1040
0
    1070
0
    1040
0
    1070
0
    1002
}
    1000
LeadOut
    1002
{
    1070
0
    1040
0
    1040
0
    1040
0
    1070
0
    1002
}
       0
INSERT
       5
20AC
     100
AcDbEntity
       8
2
     100
AcDbBlockReference
       2
Part1383696605
      10
6259.52667928012
      20
10622.3664300862
      30
0
      41
1
      42
1
      50
90.0000001836389
    1001
FS_CYPCUT
    1000
Channel
    1070
2
    1000
LeadIn
    1002
{
    1070
0
    1040
0
    1040
0
    1040
0
    1040
0
    1070
0
    1040
0
    1070
0
    1002
}
    1000
LeadOut
    1002
{
    1070
0
    1040
0
    1040
0
    1040
0
    1070
0
    1002
}
       0
INSERT
       5
20AD
     100
AcDbEntity
       8
2
     100
AcDbBlockReference
       2
Part1294031418
      10
6662.82040348874
      20
10619.1672093935
      30
0
      41
1
      42
1
      50
180
    1001
FS_CYPCUT
    1000
Channel
    1070
2
    1000
LeadIn
    1002
{
    1070
0
    1040
0
    1040
0
    1040
0
    1040
0
    1070
0
    1040
0
    1070
0
    1002
}
    1000
LeadOut
    1002
{
    1070
0
    1040
0
    1040
0
    1040
0
    1070
0
    1002
}
       0
LWPOLYLINE
       5
20AE
     100
AcDbEntity
       8
1
     100
AcDbPolyline
      90
11
      70
1
      10
5930.83620348874
      20
10486.9183093935
      42
0
      10
6049.83620348874
      20
10486.9183093935
      42
-0.414213562373094
      10
6052.83620348874
      20
10483.9183093935
      42
0
      10
6052.83620348874
      20
10435.9183093935
      42
0.414213562373097
      10
6055.83620348874
      20
10432.9183093935
      42
0
      10
6099.33620348874
      20
10432.9183093935
      42
-0.414213562373098
      10
6102.33620348874
      20
10429.9183093935
      42
0
      10
6102.33620348874
      20
10377.9183093935
      42
-0.414213562373096
      10
6099.33620348874
      20
10374.9183093935
      42
0
      10
5933.83620348874
      20
10374.9183093935
      42
-0.414213562373096
      10
5930.83620348874
      20
10377.9183093935
      42
0
    1001
FS_CYPCUT
    1000
Channel
    1070
1
    1000
LeadIn
    1002
{
    1070
3
    1040
8.5
    1040
1.5707963267949
    1040
0.5
    1040
0.3
    1070
0
    1040
0.5
    1070
0
    1002
}
    1000
LeadOut
    1002
{
    1070
0
    1040
0
    1040
0
    1040
0
    1070
0
    1002
}
    1000
IsFill
    1070
1
    1000
PathStart
    1040
8.5
    1000
ToolCompensation
    1002
{
    1070
0
    1040
0
    1070
0
    1002
}
    1000
MicroConnect
    1002
{
    1070
2
    1040
2.78173272
    1041
0.6
    1042
0
    1040
8.91871392
    1041
0.6
    1042
0
    1002
}
       0
LWPOLYLINE
       5
20AF
     100
AcDbEntity
       8
1
     100
AcDbPolyline
      90
11
      70
1
      10
6105.33480348874
      20
10486.9183093935
      42
0
      10
6224.33480348874
      20
10486.9183093935
      42
-0.414213562373094
      10
6227.33480348874
      20
10483.9183093935
      42
0
      10
6227.33480348874
      20
10435.9183093935
      42
0.414213562373097
      10
6230.33480348874
      20
10432.9183093935
      42
0
      10
6273.83480348874
      20
10432.9183093935
      42
-0.414213562373098
      10
6276.83480348874
      20
10429.9183093935
      42
0
      10
6276.83480348874
      20
10377.9183093935
      42
-0.414213562373096
      10
6273.83480348874
      20
10374.9183093935
      42
0
      10
6108.33480348874
      20
10374.9183093935
      42
-0.414213562373096
      10
6105.33480348874
      20
10377.9183093935
      42
0
    1001
FS_CYPCUT
    1000
Channel
    1070
1
    1000
LeadIn
    1002
{
    1070
3
    1040
8.5
    1040
1.5707963267949
    1040
0.5
    1040
0.3
    1070
0
    1040
0.5
    1070
0
    1002
}
    1000
LeadOut
    1002
{
    1070
0
    1040
0
    1040
0
    1040
0
    1070
0
    1002
}
    1000
IsFill
    1070
1
    1000
PathStart
    1040
8.5
    1000
ToolCompensation
    1002
{
    1070
0
    1040
0
    1070
0
    1002
}
    1000
MicroConnect
    1002
{
    1070
2
    1040
2.78173272
    1041
0.6
    1042
0
    1040
8.91871392
    1041
0.6
    1042
0
    1002
}
       0
INSERT
       5
20B0
     100
AcDbEntity
       8
1
     100
AcDbBlockReference
       2
Part1740062793
      10
5931.03630348874
      20
10160.6694093935
      30
0
      41
1
      42
1
      50
0
    1001
FS_CYPCUT
    1000
Channel
    1070
1
    1000
LeadIn
    1002
{
    1070
0
    1040
0
    1040
0
    1040
0
    1040
0
    1070
0
    1040
0
    1070
0
    1002
}
    1000
LeadOut
    1002
{
    1070
0
    1040
0
    1040
0
    1040
0
    1070
0
    1002
}
       0
INSERT
       5
20B1
     100
AcDbEntity
       8
1
     100
AcDbBlockReference
       2
Part1157470651
      10
5931.03630348874
      20
9946.42050939348
      30
0
      41
1
      42
1
      50
0
    1001
FS_CYPCUT
    1000
Channel
    1070
1
    1000
LeadIn
    1002
{
    1070
0
    1040
0
    1040
0
    1040
0
    1040
0
    1070
0
    1040
0
    1070
0
    1002
}
    1000
LeadOut
    1002
{
    1070
0
    1040
0
    1040
0
    1040
0
    1070
0
    1002
}
       0
INSERT
       5
20B2
     100
AcDbEntity
       8
1
     100
AcDbBlockReference
       2
Part1243148459
      10
6204.23630348874
      20
9946.42050939348
      30
0
      41
1
      42
1
      50
0
    1001
FS_CYPCUT
    1000
Channel
    1070
1
    1000
LeadIn
    1002
{
    1070
0
    1040
0
    1040
0
    1040
0
    1040
0
    1070
0
    1040
0
    1070
0
    1002
}
    1000
LeadOut
    1002
{
    1070
0
    1040
0
    1040
0
    1040
0
    1070
0
    1002
}
       0
INSERT
       5
20B3
     100
AcDbEntity
       8
1
     100
AcDbBlockReference
       2
Part1443522929
      10
6204.23630348874
      20
10160.6694093935
      30
0
      41
1
      42
1
      50
0
    1001
FS_CYPCUT
    1000
Channel
    1070
1
    1000
LeadIn
    1002
{
    1070
0
    1040
0
    1040
0
    1040
0
    1040
0
    1070
0
    1040
0
    1070
0
    1002
}
    1000
LeadOut
    1002
{
    1070
0
    1040
0
    1040
0
    1040
0
    1070
0
    1002
}
       0
LWPOLYLINE
       5
20B4
     100
AcDbEntity
       8
1
     100
AcDbPolyline
      90
11
      70
1
      10
6279.83340348874
      20
10486.9183093935
      42
0
      10
6398.83340348874
      20
10486.9183093935
      42
-0.414213562373094
      10
6401.83340348874
      20
10483.9183093935
      42
0
      10
6401.83340348874
      20
10435.9183093935
      42
0.414213562373097
      10
6404.83340348874
      20
10432.9183093935
      42
0
      10
6448.33340348874
      20
10432.9183093935
      42
-0.414213562373098
      10
6451.33340348874
      20
10429.9183093935
      42
0
      10
6451.33340348874
      20
10377.9183093935
      42
-0.414213562373096
      10
6448.33340348874
      20
10374.9183093935
      42
0
      10
6282.83340348874
      20
10374.9183093935
      42
-0.414213562373096
      10
6279.83340348874
      20
10377.9183093935
      42
0
    1001
FS_CYPCUT
    1000
Channel
    1070
1
    1000
LeadIn
    1002
{
    1070
3
    1040
8.5
    1040
1.5707963267949
    1040
0.5
    1040
0.3
    1070
0
    1040
0.5
    1070
0
    1002
}
    1000
LeadOut
    1002
{
    1070
0
    1040
0
    1040
0
    1040
0
    1070
0
    1002
}
    1000
IsFill
    1070
1
    1000
PathStart
    1040
8.5
    1000
ToolCompensation
    1002
{
    1070
0
    1040
0
    1070
0
    1002
}
    1000
MicroConnect
    1002
{
    1070
2
    1040
2.78173272
    1041
0.6
    1042
0
    1040
8.91871392
    1041
0.6
    1042
0
    1002
}
       0
INSERT
       5
20B5
     100
AcDbEntity
       8
2
     100
AcDbBlockReference
       2
Part31876696
      10
6511.69747928012
      20
10622.3664300862
      30
0
      41
1
      42
1
      50
90.0000001836389
    1001
FS_CYPCUT
    1000
Channel
    1070
2
    1000
LeadIn
    1002
{
    1070
0
    1040
0
    1040
0
    1040
0
    1040
0
    1070
0
    1040
0
    1070
0
    1002
}
    1000
LeadOut
    1002
{
    1070
0
    1040
0
    1040
0
    1040
0
    1070
0
    1002
}
       0
INSERT
       5
20B6
     100
AcDbEntity
       8
2
     100
AcDbBlockReference
       2
Part1577398054
      10
6721.80338348874
      20
10723.4248843935
      30
0
      41
1
      42
1
      50
180
    1001
FS_CYPCUT
    1000
Channel
    1070
2
    1000
LeadIn
    1002
{
    1070
0
    1040
0
    1040
0
    1040
0
    1040
0
    1070
0
    1040
0
    1070
0
    1002
}
    1000
LeadOut
    1002
{
    1070
0
    1040
0
    1040
0
    1040
0
    1070
0
    1002
}
       0
INSERT
       5
20B7
     100
AcDbEntity
       8
1
     100
AcDbBlockReference
       2
Part1814501692
      10
6477.43630348874
      20
10160.6694093935
      30
0
      41
1
      42
1
      50
0
    1001
FS_CYPCUT
    1000
Channel
    1070
1
    1000
LeadIn
    1002
{
    1070
0
    1040
0
    1040
0
    1040
0
    1040
0
    1070
0
    1040
0
    1070
0
    1002
}
    1000
LeadOut
    1002
{
    1070
0
    1040
0
    1040
0
    1040
0
    1070
0
    1002
}
       0
INSERT
       5
20B8
     100
AcDbEntity
       8
1
     100
AcDbBlockReference
       2
Part939107678
      10
6477.43630348874
      20
9946.42050939348
      30
0
      41
1
      42
1
      50
0
    1001
FS_CYPCUT
    1000
Channel
    1070
1
    1000
LeadIn
    1002
{
    1070
0
    1040
0
    1040
0
    1040
0
    1040
0
    1070
0
    1040
0
    1070
0
    1002
}
    1000
LeadOut
    1002
{
    1070
0
    1040
0
    1040
0
    1040
0
    1070
0
    1002
}
       0
INSERT
       5
20B9
     100
AcDbEntity
       8
2
     100
AcDbBlockReference
       2
Part685261047
      10
6810.53640348874
      20
9946.42050939348
      30
0
      41
1
      42
1
      50
90.0000001836389
    1001
FS_CYPCUT
    1000
Channel
    1070
2
    1000
LeadIn
    1002
{
    1070
0
    1040
0
    1040
0
    1040
0
    1040
0
    1070
0
    1040
0
    1070
0
    1002
}
    1000
LeadOut
    1002
{
    1070
0
    1040
0
    1040
0
    1040
0
    1070
0
    1002
}
       0
INSERT
       5
20BA
     100
AcDbEntity
       8
2
     100
AcDbBlockReference
       2
Part360260824
      10
6843.63650348874
      20
9946.42050939348
      30
0
      41
1
      42
1
      50
90.0000001836389
    1001
FS_CYPCUT
    1000
Channel
    1070
2
    1000
LeadIn
    1002
{
    1070
0
    1040
0
    1040
0
    1040
0
    1040
0
    1070
0
    1040
0
    1070
0
    1002
}
    1000
LeadOut
    1002
{
    1070
0
    1040
0
    1040
0
    1040
0
    1070
0
    1002
}
       0
ENDSEC
  0
SECTION
  2
OBJECTS
  0
DICTIONARY
  5
111
330
0
100
AcDbDictionary
281
     1
  3
ACAD_COLOR
350
120
  3
ACAD_GROUP
350
112
  3
ACAD_LAYOUT
350
11E
  3
ACAD_MATERIAL
350
11F
  3
ACAD_MLINESTYLE
350
11B
  3
ACAD_PLOTSETTINGS
350
11D
  3
ACAD_PLOTSTYLENAME
350
113
  3
ACAD_TABLESTYLE
350
121
  3
AcDbVariableDictionary
350
135
  0
DICTIONARY
  5
120
102
{ACAD_REACTORS
330
111
102
}
330
111
100
AcDbDictionary
281
     1
  0
DICTIONARY
  5
112
102
{ACAD_REACTORS
330
111
102
}
330
111
100
AcDbDictionary
281
     1
  0
DICTIONARY
  5
11E
102
{ACAD_REACTORS
330
111
102
}
330
111
100
AcDbDictionary
281
     1
  3
Model
350
12A
  3
布局1
350
126
  0
DICTIONARY
  5
11F
102
{ACAD_REACTORS
330
111
102
}
330
111
100
AcDbDictionary
281
     1
  0
DICTIONARY
  5
11B
102
{ACAD_REACTORS
330
111
102
}
330
111
100
AcDbDictionary
281
     1
  3
Standard
350
11C
  0
DICTIONARY
  5
11D
102
{ACAD_REACTORS
330
111
102
}
330
111
100
AcDbDictionary
281
     1
  0
ACDBDICTIONARYWDFLT
  5
113
102
{ACAD_REACTORS
330
111
102
}
330
111
100
AcDbDictionary
281
     1
  3
Normal
350
114
100
AcDbDictionaryWithDefault
340
114
  0
DICTIONARY
  5
121
102
{ACAD_REACTORS
330
111
102
}
330
111
100
AcDbDictionary
281
     1
  3
Standard
350
122
  0
DICTIONARY
  5
135
102
{ACAD_REACTORS
330
111
102
}
330
111
100
AcDbDictionary
281
     1
  3
CTABLESTYLE
350
136
  0
LAYOUT
  5
12A
102
{ACAD_REACTORS
330
11E
102
}
330
11E
100
AcDbPlotSettings
  1

  2
发送至 OneNote 2010
  4

  6

 40
0.0
 41
0.0
 42
0.0
 43
0.0
 44
0.0
 45
0.0
 46
0.0
 47
0.0
 48
0.0
 49
0.0
140
0.0
141
0.0
142
1.0
143
1.0
 70
  1712
 72
     0
 73
     0
 74
     0
  7

 75
     0
147
1.0
 76
     0
 77
     2
 78
   300
148
0.0
149
0.0
100
AcDbLayout
  1
Model
 70
     1
 71
     0
 10
0.0
 20
0.0
 11
12.0
 21
9.0
 12
0.0
 22
0.0
 32
0.0
 14
0.0
 24
0.0
 34
0.0
 15
0.0
 25
0.0
 35
0.0
146
0.0
 13
0.0
 23
0.0
 33
0.0
 16
1.0
 26
0.0
 36
0.0
 17
0.0
 27
1.0
 37
0.0
 76
     0
330
127
  0
LAYOUT
  5
126
102
{ACAD_REACTORS
330
11E
102
}
330
11E
100
AcDbPlotSettings
  1

  2
发送至 OneNote 2010
  4

  6

 40
0.0
 41
0.0
 42
0.0
 43
0.0
 44
0.0
 45
0.0
 46
0.0
 47
0.0
 48
0.0
 49
0.0
140
0.0
141
0.0
142
1.0
143
1.0
 70
   688
 72
     0
 73
     0
 74
     5
  7

 75
    16
147
1.0
 76
     0
 77
     2
 78
   300
148
0.0
149
0.0
100
AcDbLayout
  1
布局1
 70
     1
 71
     1
 10
0.0
 20
0.0
 11
12.0
 21
9.0
 12
0.0
 22
0.0
 32
0.0
 14
0.0
 24
0.0
 34
0.0
 15
0.0
 25
0.0
 35
0.0
146
0.0
 13
0.0
 23
0.0
 33
0.0
 16
1.0
 26
0.0
 36
0.0
 17
0.0
 27
1.0
 37
0.0
 76
     0
330
123
  0
MLINESTYLE
  5
11C
102
{ACAD_REACTORS
330
11B
102
}
330
11B
100
AcDbMlineStyle
  2
STANDARD
 70
     0
  3

 62
   256
 51
90.0
 52
90.0
 71
     2
 49
0.5
 62
   256
  6
BYLAYER
 49
-0.5
 62
   256
  6
BYLAYER
  0
ACDBPLACEHOLDER
  5
114
102
{ACAD_REACTORS
330
113
102
}
330
113
  0
TABLESTYLE
  5
122
102
{ACAD_REACTORS
330
121
102
}
330
121
100
AcDbTableStyle
  3
Standard
 70
     0
 71
     0
 40
0.06
 41
0.06
280
     0
281
     0
  7
STANDARD
140
0.18
170
     2
 62
     0
 63
     7
283
     0
274
    -2
284
     1
 64
     0
275
    -2
285
     1
 65
     0
276
    -2
286
     1
 66
     0
277
    -2
287
     1
 67
     0
278
    -2
288
     1
 68
     0
279
    -2
289
     1
 69
     0
  7
STANDARD
140
0.25
170
     5
 62
     0
 63
     7
283
     0
274
    -2
284
     1
 64
     0
275
    -2
285
     1
 65
     0
276
    -2
286
     1
 66
     0
277
    -2
287
     1
 67
     0
278
    -2
288
     1
 68
     0
279
    -2
289
     1
 69
     0
  7
STANDARD
140
0.18
170
     5
 62
     0
 63
     7
283
     0
274
    -2
284
     1
 64
     0
275
    -2
285
     1
 65
     0
276
    -2
286
     1
 66
     0
277
    -2
287
     1
 67
     0
278
    -2
288
     1
 68
     0
279
    -2
289
     1
 69
     0
  0
DICTIONARYVAR
  5
136
102
{ACAD_REACTORS
330
135
102
}
330
135
100
DictionaryVariables
280
     0
  1
STANDARD
  0
ENDSEC
  0
EOF
