  0
SECTION
  2
HEADER
  9
$ACADVER
  1
AC1018
  9
$ACADMAINTVER
 70
    77
  9
$DWGCODEPAGE
  3
ANSI_936
  9
$INSBASE
 10
0.0
 20
0.0
 30
0.0
  9
$EXTMIN
 10
-644.7
 20
-136.4709368742
 30
0.0
  9
$EXTMAX
 10
641
 20
200.7045569766
 30
0.0
  9
$LIMMIN
 10
0.0
 20
0.0
  9
$LIMMAX
 10
420.0
 20
297.0
  9
$ORTHOMODE
 70
     0
  9
$REGENMODE
 70
     1
  9
$FILLMODE
 70
     1
  9
$QTEXTMODE
 70
     0
  9
$MIRRTEXT
 70
     0
  9
$LTSCALE
 40
1.0
  9
$ATTMODE
 70
     1
  9
$TEXTSIZE
 40
2.5
  9
$TRACEWID
 40
1.0
  9
$TEXTSTYLE
  7
STANDARD
  9
$CLAYER
  8
0
  9
$CELTYPE
  6
ByLayer
  9
$CECOLOR
 62
   256
  9
$CELTSCALE
 40
1.0
  9
$DISPSILH
 70
     0
  9
$DIMSCALE
 40
1.0
  9
$DIMASZ
 40
2.5
  9
$DIMEXO
 40
0.625
  9
$DIMDLI
 40
3.75
  9
$DIMRND
 40
0.0
  9
$DIMDLE
 40
0.0
  9
$DIMEXE
 40
1.25
  9
$DIMTP
 40
0.0
  9
$DIMTM
 40
0.0
  9
$DIMTXT
 40
2.5
  9
$DIMCEN
 40
2.5
  9
$DIMTSZ
 40
0.0
  9
$DIMTOL
 70
     0
  9
$DIMLIM
 70
     0
  9
$DIMTIH
 70
     0
  9
$DIMTOH
 70
     0
  9
$DIMSE1
 70
     0
  9
$DIMSE2
 70
     0
  9
$DIMTAD
 70
     1
  9
$DIMZIN
 70
     8
  9
$DIMBLK
  1

  9
$DIMASO
 70
     1
  9
$DIMSHO
 70
     1
  9
$DIMPOST
  1

  9
$DIMAPOST
  1

  9
$DIMALT
 70
     0
  9
$DIMALTD
 70
     3
  9
$DIMALTF
 40
0.03937007874016
  9
$DIMLFAC
 40
1.0
  9
$DIMTOFL
 70
     1
  9
$DIMTVP
 40
0.0
  9
$DIMTIX
 70
     0
  9
$DIMSOXD
 70
     0
  9
$DIMSAH
 70
     0
  9
$DIMBLK1
  1

  9
$DIMBLK2
  1

  9
$DIMSTYLE
  2
ISO-25
  9
$DIMCLRD
 70
     0
  9
$DIMCLRE
 70
     0
  9
$DIMCLRT
 70
     0
  9
$DIMTFAC
 40
1.0
  9
$DIMGAP
 40
0.625
  9
$DIMJUST
 70
     0
  9
$DIMSD1
 70
     0
  9
$DIMSD2
 70
     0
  9
$DIMTOLJ
 70
     1
  9
$DIMTZIN
 70
     0
  9
$DIMALTZ
 70
     0
  9
$DIMALTTZ
 70
     0
  9
$DIMUPT
 70
     0
  9
$DIMDEC
 70
     4
  9
$DIMTDEC
 70
     4
  9
$DIMALTU
 70
     2
  9
$DIMALTTD
 70
     2
  9
$DIMTXSTY
  7
STANDARD
  9
$DIMAUNIT
 70
     0
  9
$DIMADEC
 70
     0
  9
$DIMALTRND
 40
0.0
  9
$DIMAZIN
 70
     0
  9
$DIMDSEP
 70
    46
  9
$DIMATFIT
 70
     3
  9
$DIMFRAC
 70
     0
  9
$DIMLDRBLK
  1

  9
$DIMLUNIT
 70
     2
  9
$DIMLWD
 70
    -2
  9
$DIMLWE
 70
    -2
  9
$DIMTMOVE
 70
     0
  9
$LUNITS
 70
     2
  9
$LUPREC
 70
     4
  9
$SKETCHINC
 40
1.0
  9
$FILLETRAD
 40
0.0
  9
$AUNITS
 70
     0
  9
$AUPREC
 70
     0
  9
$MENU
  1
.
  9
$ELEVATION
 40
0.0
  9
$PELEVATION
 40
0.0
  9
$THICKNESS
 40
0.0
  9
$LIMCHECK
 70
     0
  9
$CHAMFERA
 40
0.0
  9
$CHAMFERB
 40
0.0
  9
$CHAMFERC
 40
0.0
  9
$CHAMFERD
 40
0.0
  9
$SKPOLY
 70
     0
  9
$TDCREATE
 40
2456997.676706910
  9
$TDUCREATE
 40
2456997.343373576
  9
$TDUPDATE
 40
2456997.680113438
  9
$TDUUPDATE
 40
2456997.346780104
  9
$TDINDWG
 40
0.0010312963
  9
$TDUSRTIMER
 40
0.0010311806
  9
$USRTIMER
 70
     1
  9
$ANGBASE
 50
0.0
  9
$ANGDIR
 70
     0
  9
$PDMODE
 70
     0
  9
$PDSIZE
 40
0.0
  9
$PLINEWID
 40
0.0
  9
$SPLFRAME
 70
     0
  9
$SPLINETYPE
 70
     6
  9
$SPLINESEGS
 70
     8
  9
$HANDSEED
  5
2498
  9
$SURFTAB1
 70
     6
  9
$SURFTAB2
 70
     6
  9
$SURFTYPE
 70
     6
  9
$SURFU
 70
     6
  9
$SURFV
 70
     6
  9
$UCSBASE
  2

  9
$UCSNAME
  2

  9
$UCSORG
 10
0.0
 20
0.0
 30
0.0
  9
$UCSXDIR
 10
1.0
 20
0.0
 30
0.0
  9
$UCSYDIR
 10
0.0
 20
1.0
 30
0.0
  9
$UCSORTHOREF
  2

  9
$UCSORTHOVIEW
 70
     0
  9
$UCSORGTOP
 10
0.0
 20
0.0
 30
0.0
  9
$UCSORGBOTTOM
 10
0.0
 20
0.0
 30
0.0
  9
$UCSORGLEFT
 10
0.0
 20
0.0
 30
0.0
  9
$UCSORGRIGHT
 10
0.0
 20
0.0
 30
0.0
  9
$UCSORGFRONT
 10
0.0
 20
0.0
 30
0.0
  9
$UCSORGBACK
 10
0.0
 20
0.0
 30
0.0
  9
$PUCSBASE
  2

  9
$PUCSNAME
  2

  9
$PUCSORG
 10
0.0
 20
0.0
 30
0.0
  9
$PUCSXDIR
 10
1.0
 20
0.0
 30
0.0
  9
$PUCSYDIR
 10
0.0
 20
1.0
 30
0.0
  9
$PUCSORTHOREF
  2

  9
$PUCSORTHOVIEW
 70
     0
  9
$PUCSORGTOP
 10
0.0
 20
0.0
 30
0.0
  9
$PUCSORGBOTTOM
 10
0.0
 20
0.0
 30
0.0
  9
$PUCSORGLEFT
 10
0.0
 20
0.0
 30
0.0
  9
$PUCSORGRIGHT
 10
0.0
 20
0.0
 30
0.0
  9
$PUCSORGFRONT
 10
0.0
 20
0.0
 30
0.0
  9
$PUCSORGBACK
 10
0.0
 20
0.0
 30
0.0
  9
$USERI1
 70
     0
  9
$USERI2
 70
     0
  9
$USERI3
 70
     0
  9
$USERI4
 70
     0
  9
$USERI5
 70
     0
  9
$USERR1
 40
0.0
  9
$USERR2
 40
0.0
  9
$USERR3
 40
0.0
  9
$USERR4
 40
0.0
  9
$USERR5
 40
0.0
  9
$WORLDVIEW
 70
     1
  9
$SHADEDGE
 70
     3
  9
$SHADEDIF
 70
    70
  9
$TILEMODE
 70
     1
  9
$MAXACTVP
 70
    64
  9
$PINSBASE
 10
0.0
 20
0.0
 30
0.0
  9
$PLIMCHECK
 70
     0
  9
$PEXTMIN
 10
0.0
 20
0.0
 30
0.0
  9
$PEXTMAX
 10
0.0
 20
0.0
 30
0.0
  9
$PLIMMIN
 10
0.0
 20
0.0
  9
$PLIMMAX
 10
12.0
 20
9.0
  9
$UNITMODE
 70
     0
  9
$VISRETAIN
 70
     1
  9
$PLINEGEN
 70
     0
  9
$PSLTSCALE
 70
     1
  9
$TREEDEPTH
 70
  3020
  9
$CMLSTYLE
  2
Standard
  9
$CMLJUST
 70
     0
  9
$CMLSCALE
 40
1.0
  9
$PROXYGRAPHICS
 70
     1
  9
$MEASUREMENT
 70
     1
  9
$CELWEIGHT
370
    -1
  9
$ENDCAPS
280
     0
  9
$JOINSTYLE
280
     0
  9
$LWDISPLAY
290
     0
  9
$INSUNITS
 70
     0
  9
$HYPERLINKBASE
  1

  9
$STYLESHEET
  1

  9
$XEDIT
290
     1
  9
$CEPSNTYPE
380
     0
  9
$PSTYLEMODE
290
     1
  9
$FINGERPRINTGUID
  2
{1F2D6530-6BF2-4D5E-922F-A9C54F637010}
  9
$VERSIONGUID
  2
{15AD9CB5-51D1-451C-B472-5DB36EFAD6AD}
  9
$EXTNAMES
290
     1
  9
$PSVPSCALE
 40
0.0
  9
$OLESTARTUP
290
     0
  9
$SORTENTS
280
   127
  9
$INDEXCTL
280
     0
  9
$HIDETEXT
280
     0
  9
$XCLIPFRAME
290
     0
  9
$HALOGAP
280
     0
  9
$OBSCOLOR
 70
   257
  9
$OBSLTYPE
280
     0
  9
$INTERSECTIONDISPLAY
280
     0
  9
$INTERSECTIONCOLOR
 70
   257
  9
$DIMASSOC
280
     1
  9
$PROJECTNAME
  1

  0
ENDSEC
  0
SECTION
  2
CLASSES
  0
CLASS
  1
ACDBDICTIONARYWDFLT
  2
AcDbDictionaryWithDefault
  3
ObjectDBX Classes
 90
        0
 91
        1
280
     0
281
     0
  0
CLASS
  1
TABLESTYLE
  2
AcDbTableStyle
  3
ObjectDBX Classes
 90
     2047
 91
        1
280
     0
281
     0
  0
CLASS
  1
DICTIONARYVAR
  2
AcDbDictionaryVar
  3
ObjectDBX Classes
 90
        0
 91
        1
280
     0
281
     0
  0
ENDSEC
  0
SECTION
  2
TABLES
  0
TABLE
  2
VPORT
  5
10D
330
0
100
AcDbSymbolTable
 70
     2
  0
VPORT
  5
137
330
10D
100
AcDbSymbolTableRecord
100
AcDbViewportTableRecord
  2
*Active
 70
     0
 10
0.0
 20
0.0
 11
1.0
 21
1.0
 12
-1.85000000000002
 22
32.1168100511999
 13
0.0
 23
0.0
 14
10.0
 24
10.0
 15
10.0
 25
10.0
 16
0.0
 26
0.0
 36
1.0
 17
0.0
 27
0.0
 37
0.0
 40
551.708552688342
 41
2.435135135135135
 42
50.0
 43
0.0
 44
0.0
 50
0.0
 51
0.0
 71
     0
 72
  1000
 73
     1
 74
     3
 75
     0
 76
     0
 77
     0
 78
     0
281
     0
 65
     1
110
0.0
120
0.0
130
0.0
111
1.0
121
0.0
131
0.0
112
0.0
122
1.0
132
0.0
 79
     0
146
0.0
  0
ENDTAB
  0
TABLE
  2
LTYPE
  5
10A
330
0
100
AcDbSymbolTable
 70
     1
  0
LTYPE
  5
118
330
10A
100
AcDbSymbolTableRecord
100
AcDbLinetypeTableRecord
  2
ByBlock
 70
     0
  3

 72
    65
 73
     0
 40
0.0
  0
LTYPE
  5
119
330
10A
100
AcDbSymbolTableRecord
100
AcDbLinetypeTableRecord
  2
ByLayer
 70
     0
  3

 72
    65
 73
     0
 40
0.0
  0
LTYPE
  5
11A
330
10A
100
AcDbSymbolTableRecord
100
AcDbLinetypeTableRecord
  2
CONTINUOUS
 70
     0
  3
Solid line
 72
    65
 73
     0
 40
0.0
  0
ENDTAB
  0
TABLE
  2
LAYER
  5
107
330
0
100
AcDbSymbolTable
 70
     1
  0
LAYER
  5
115
330
107
100
AcDbSymbolTableRecord
100
AcDbLayerTableRecord
  2
0
 70
     0
 62
     7
  6
CONTINUOUS
370
    -3
390
114
  0
ENDTAB
  0
TABLE
  2
STYLE
  5
108
330
0
100
AcDbSymbolTable
 70
     1
  0
STYLE
  5
116
330
108
100
AcDbSymbolTableRecord
100
AcDbTextStyleTableRecord
  2
STANDARD
 70
     0
 40
0.0
 41
1.0
 50
0.0
 71
     0
 42
2.5
  3
txt
  4
gbcbig.shx
  0
ENDTAB
  0
TABLE
  2
VIEW
  5
10B
330
0
100
AcDbSymbolTable
 70
     0
  0
ENDTAB
  0
TABLE
  2
UCS
  5
10C
330
0
100
AcDbSymbolTable
 70
     0
  0
ENDTAB
  0
TABLE
  2
APPID
  5
10E
330
0
100
AcDbSymbolTable
 70
     2
  0
APPID
  5
117
330
10E
100
AcDbSymbolTableRecord
100
AcDbRegAppTableRecord
  2
ACAD
 70
     0
  0
APPID
  5
12C
330
10E
100
AcDbSymbolTableRecord
100
AcDbRegAppTableRecord
  2
ACAD_PSEXT
 70
     0
  0
APPID
  5
112C
330
10E
100
AcDbSymbolTableRecord
100
AcDbRegAppTableRecord
  2
FS_CYPCUT
 70
     0
  0
ENDTAB
  0
TABLE
  2
DIMSTYLE
  5
10F
330
0
100
AcDbSymbolTable
 70
     1
100
AcDbDimStyleTable
 71
     0
  0
DIMSTYLE
105
12D
330
10F
100
AcDbSymbolTableRecord
100
AcDbDimStyleTableRecord
  2
ISO-25
 70
     0
 41
2.5
 42
0.625
 43
3.75
 44
1.25
 73
     0
 74
     0
 77
     1
 78
     8
140
2.5
141
2.5
143
0.03937007874016
147
0.625
171
     3
172
     1
274
     3
279
     2
284
     8
285
     8
286
     8
340
116
  0
ENDTAB
  0
TABLE
  2
BLOCK_RECORD
  5
106
330
0
100
AcDbSymbolTable
 70
     2
  0
BLOCK_RECORD
  5
127
330
106
100
AcDbSymbolTableRecord
100
AcDbBlockTableRecord
  2
*Model_Space
340
12A
  0
BLOCK_RECORD
  5
123
330
106
100
AcDbSymbolTableRecord
100
AcDbBlockTableRecord
  2
*Paper_Space
340
126
  0
BLOCK_RECORD
  5
130
330
106
100
AcDbSymbolTableRecord
100
AcDbBlockTableRecord
  2
$MODEL_SPACE
340
0
  0
BLOCK_RECORD
  5
132
330
106
100
AcDbSymbolTableRecord
100
AcDbBlockTableRecord
  2
$PAPER_SPACE
340
0
  0
ENDTAB
  0
ENDSEC
  0
SECTION
  2
BLOCKS
  0
BLOCK
  5
128
330
127
100
AcDbEntity
  8
0
100
AcDbBlockBegin
  2
*Model_Space
 70
     0
 10
0.0
 20
0.0
 30
0.0
  3
*Model_Space
  1

  0
ENDBLK
  5
129
330
127
100
AcDbEntity
  8
0
100
AcDbBlockEnd
  0
BLOCK
  5
124
330
123
100
AcDbEntity
 67
     1
  8
0
100
AcDbBlockBegin
  2
*Paper_Space
 70
     0
 10
0.0
 20
0.0
 30
0.0
  3
*Paper_Space
  1

  0
ENDBLK
  5
125
330
123
100
AcDbEntity
 67
     1
  8
0
100
AcDbBlockEnd
  0
BLOCK
  5
131
330
130
100
AcDbEntity
  8
0
100
AcDbBlockBegin
  2
$MODEL_SPACE
 70
     0
 10
0.0
 20
0.0
 30
0.0
  3
$MODEL_SPACE
  1

  0
ENDBLK
  5
21
330
130
100
AcDbEntity
  8
0
100
AcDbBlockEnd
  0
BLOCK
  5
133
330
132
100
AcDbEntity
  8
0
100
AcDbBlockBegin
  2
$PAPER_SPACE
 70
     0
 10
0.0
 20
0.0
 30
0.0
  3
$PAPER_SPACE
  1

  0
ENDBLK
  5
D5
330
132
100
AcDbEntity
  8
0
100
AcDbBlockEnd
       0
ENDSEC
       0
SECTION
       2
ENTITIES
       0
LINE
       5
2000
     100
AcDbEntity
       8
2
     100
AcDbLine
      10
-644.7
      20
87.8522784883
      30
0
      11
-558.2
      21
87.8522784883
      31
0
    1001
FS_CYPCUT
    1000
Channel
    1070
2
    1000
LeadIn
    1002
{
    1070
3
    1040
0
    1040
1.5707963267949
    1040
0.5
    1040
0.3
    1070
0
    1040
0.5
    1070
0
    1002
}
    1000
LeadOut
    1002
{
    1070
0
    1040
0
    1040
0.523598775598299
    1040
3
    1070
0
    1002
}
    1000
IsFill
    1070
0
    1000
PathStart
    1040
0
    1000
ToolCompensation
    1002
{
    1070
0
    1040
0
    1070
0
    1002
}
       0
CIRCLE
       5
2001
     100
AcDbEntity
       8
1
     100
AcDbCircle
      10
-568.2
      20
115.7045569766
      30
0
      40
2.5
    1001
FS_CYPCUT
    1000
Channel
    1070
1
    1000
LeadIn
    1002
{
    1070
3
    1040
1.9151347174784E-15
    1040
1.5707963267949
    1040
0.5
    1040
0.3
    1070
0
    1040
0.5
    1070
0
    1002
}
    1000
LeadOut
    1002
{
    1070
0
    1040
0
    1040
0.523598775598299
    1040
3
    1070
0
    1002
}
    1000
IsFill
    1070
0
    1000
PathStart
    1040
1.9151347174784E-15
    1000
ToolCompensation
    1002
{
    1070
0
    1040
0
    1070
0
    1002
}
       0
CIRCLE
       5
2002
     100
AcDbEntity
       8
1
     100
AcDbCircle
      10
-568.2
      20
22.5
      30
0
      40
2.5
    1001
FS_CYPCUT
    1000
Channel
    1070
1
    1000
LeadIn
    1002
{
    1070
3
    1040
1.9151347174784E-15
    1040
1.5707963267949
    1040
0.5
    1040
0.3
    1070
0
    1040
0.5
    1070
0
    1002
}
    1000
LeadOut
    1002
{
    1070
0
    1040
0
    1040
0.523598775598299
    1040
3
    1070
0
    1002
}
    1000
IsFill
    1070
0
    1000
PathStart
    1040
1.9151347174784E-15
    1000
ToolCompensation
    1002
{
    1070
0
    1040
0
    1070
0
    1002
}
       0
LINE
       5
2003
     100
AcDbEntity
       8
2
     100
AcDbLine
      10
-494.7
      20
-88.3922995801
      30
0
      11
-644.7
      21
-88.3922995801
      31
0
    1001
FS_CYPCUT
    1000
Channel
    1070
2
    1000
LeadIn
    1002
{
    1070
3
    1040
0
    1040
1.5707963267949
    1040
0.5
    1040
0.3
    1070
0
    1040
0.5
    1070
0
    1002
}
    1000
LeadOut
    1002
{
    1070
0
    1040
0
    1040
0.523598775598299
    1040
3
    1070
0
    1002
}
    1000
IsFill
    1070
0
    1000
PathStart
    1040
0
    1000
ToolCompensation
    1002
{
    1070
0
    1040
0
    1070
0
    1002
}
       0
LINE
       5
2004
     100
AcDbEntity
       8
2
     100
AcDbLine
      10
-644.7
      20
-111.8777680172
      30
0
      11
-494.7
      21
-111.8777680172
      31
0
    1001
FS_CYPCUT
    1000
Channel
    1070
2
    1000
LeadIn
    1002
{
    1070
3
    1040
0
    1040
1.5707963267949
    1040
0.5
    1040
0.3
    1070
0
    1040
0.5
    1070
0
    1002
}
    1000
LeadOut
    1002
{
    1070
0
    1040
0
    1040
0.523598775598299
    1040
3
    1070
0
    1002
}
    1000
IsFill
    1070
0
    1000
PathStart
    1040
0
    1000
ToolCompensation
    1002
{
    1070
0
    1040
0
    1070
0
    1002
}
       0
CIRCLE
       5
2005
     100
AcDbEntity
       8
1
     100
AcDbCircle
      10
-569.7
      20
-126.4709368742
      30
0
      40
3.74999999999984
    1001
FS_CYPCUT
    1000
Channel
    1070
1
    1000
LeadIn
    1002
{
    1070
3
    1040
4.16333634234434E-16
    1040
1.5707963267949
    1040
0.5
    1040
0.3
    1070
0
    1040
0.5
    1070
0
    1002
}
    1000
LeadOut
    1002
{
    1070
0
    1040
0
    1040
0.523598775598299
    1040
3
    1070
0
    1002
}
    1000
IsFill
    1070
0
    1000
PathStart
    1040
4.16333634234434E-16
    1000
ToolCompensation
    1002
{
    1070
0
    1040
0
    1070
0
    1002
}
       0
LWPOLYLINE
       5
2006
     100
AcDbEntity
       8
1
     100
AcDbPolyline
      90
8
      70
1
      10
-328.2
      20
115.2045569766
      42
0
      10
-328.2
      20
-24.5
      42
-0.414213562373098
      10
-338.2
      20
-34.5000000000001
      42
0
      10
-548.2
      20
-34.5
      42
-0.414213562373094
      10
-558.2
      20
-24.5
      42
0
      10
-558.2
      20
115.2045569766
      42
-0.41421356237309
      10
-548.2
      20
125.2045569766
      42
0
      10
-338.2
      20
125.2045569766
      42
-0.414213562373095
    1001
FS_CYPCUT
    1000
Channel
    1070
1
    1000
LeadIn
    1002
{
    1070
3
    1040
2.50155709782008
    1040
1.5707963267949
    1040
0.5
    1040
0.3
    1070
0
    1040
0.5
    1070
0
    1002
}
    1000
LeadOut
    1002
{
    1070
0
    1040
0
    1040
0.523598775598299
    1040
3
    1070
0
    1002
}
    1000
IsFill
    1070
0
    1000
PathStart
    1040
2.5
    1000
ToolCompensation
    1002
{
    1070
0
    1040
0
    1070
0
    1002
}
    1000
MicroConnect
    1002
{
    1070
3
    1040
2.49869995496294
    1041
0.6
    1042
0
    1040
6.12420753007695
    1041
0.6
    1042
0
    1040
6.8547781197015
    1041
0.6
    1042
0
    1002
}
       0
CIRCLE
       5
2007
     100
AcDbEntity
       8
1
     100
AcDbCircle
      10
-318.2
      20
115.7045569766
      30
0
      40
2.50000000000006
    1001
FS_CYPCUT
    1000
Channel
    1070
1
    1000
LeadIn
    1002
{
    1070
3
    1040
1.27675647831893E-15
    1040
1.5707963267949
    1040
0.5
    1040
0.3
    1070
0
    1040
0.5
    1070
0
    1002
}
    1000
LeadOut
    1002
{
    1070
0
    1040
0
    1040
0.523598775598299
    1040
3
    1070
0
    1002
}
    1000
IsFill
    1070
0
    1000
PathStart
    1040
1.27675647831893E-15
    1000
ToolCompensation
    1002
{
    1070
0
    1040
0
    1070
0
    1002
}
       0
CIRCLE
       5
2008
     100
AcDbEntity
       8
1
     100
AcDbCircle
      10
-318.2
      20
22.5
      30
0
      40
2.50000000000006
    1001
FS_CYPCUT
    1000
Channel
    1070
1
    1000
LeadIn
    1002
{
    1070
3
    1040
1.13797860024079E-15
    1040
1.5707963267949
    1040
0.5
    1040
0.3
    1070
0
    1040
0.5
    1070
0
    1002
}
    1000
LeadOut
    1002
{
    1070
0
    1040
0
    1040
0.523598775598299
    1040
3
    1070
0
    1002
}
    1000
IsFill
    1070
0
    1000
PathStart
    1040
1.13797860024079E-15
    1000
ToolCompensation
    1002
{
    1070
0
    1040
0
    1070
0
    1002
}
       0
LWPOLYLINE
       5
2009
     100
AcDbEntity
       8
1
     100
AcDbPolyline
      90
4
      70
1
      10
-210.5
      20
130.7045569766
      42
0
      10
-210.5
      20
120.7045569766
      42
-1
      10
-218.5
      20
120.7045569766
      42
0
      10
-218.5
      20
130.7045569766
      42
-1
    1001
FS_CYPCUT
    1000
Channel
    1070
1
    1000
LeadIn
    1002
{
    1070
3
    1040
0.5
    1040
1.5707963267949
    1040
0.5
    1040
0.3
    1070
0
    1040
0.5
    1070
0
    1002
}
    1000
LeadOut
    1002
{
    1070
0
    1040
0
    1040
0.523598775598299
    1040
3
    1070
0
    1002
}
    1000
IsFill
    1070
0
    1000
PathStart
    1040
0.5
    1000
ToolCompensation
    1002
{
    1070
0
    1040
0
    1070
0
    1002
}
       0
LINE
       5
200A
     100
AcDbEntity
       8
2
     100
AcDbLine
      10
-76.85
      20
-88.3922995801
      30
0
      11
73.15
      21
-88.3922995801
      31
0
    1001
FS_CYPCUT
    1000
Channel
    1070
2
    1000
LeadIn
    1002
{
    1070
3
    1040
0
    1040
1.5707963267949
    1040
0.5
    1040
0.3
    1070
0
    1040
0.5
    1070
0
    1002
}
    1000
LeadOut
    1002
{
    1070
0
    1040
0
    1040
0.523598775598299
    1040
3
    1070
0
    1002
}
    1000
IsFill
    1070
0
    1000
PathStart
    1040
0
    1000
ToolCompensation
    1002
{
    1070
0
    1040
0
    1070
0
    1002
}
       0
LINE
       5
200B
     100
AcDbEntity
       8
2
     100
AcDbLine
      10
73.15
      20
-111.8777680172
      30
0
      11
-76.85
      21
-111.8777680172
      31
0
    1001
FS_CYPCUT
    1000
Channel
    1070
2
    1000
LeadIn
    1002
{
    1070
3
    1040
0
    1040
1.5707963267949
    1040
0.5
    1040
0.3
    1070
0
    1040
0.5
    1070
0
    1002
}
    1000
LeadOut
    1002
{
    1070
0
    1040
0
    1040
0.523598775598299
    1040
3
    1070
0
    1002
}
    1000
IsFill
    1070
0
    1000
PathStart
    1040
0
    1000
ToolCompensation
    1002
{
    1070
0
    1040
0
    1070
0
    1002
}
       0
CIRCLE
       5
200C
     100
AcDbEntity
       8
1
     100
AcDbCircle
      10
-1.85
      20
-126.4709368742
      30
0
      40
3.75000000000001
    1001
FS_CYPCUT
    1000
Channel
    1070
1
    1000
LeadIn
    1002
{
    1070
3
    1040
0
    1040
1.5707963267949
    1040
0.5
    1040
0.3
    1070
0
    1040
0.5
    1070
0
    1002
}
    1000
LeadOut
    1002
{
    1070
0
    1040
0
    1040
0.523598775598299
    1040
3
    1070
0
    1002
}
    1000
IsFill
    1070
0
    1000
PathStart
    1040
1
    1000
ToolCompensation
    1002
{
    1070
0
    1040
0
    1070
0
    1002
}
       0
SPLINE
       5
200D
     100
AcDbEntity
       8
1
     100
AcDbSpline
      70
0
      71
3
      72
244
      73
240
      74
0
      40
0
      40
0
      40
0
      40
0
      40
0.0166666666666667
      40
0.0166666666666667
      40
0.0166666666666667
      40
0.0166666666666667
      40
0.0333333333333333
      40
0.0333333333333333
      40
0.0333333333333333
      40
0.0333333333333333
      40
0.05
      40
0.05
      40
0.05
      40
0.05
      40
0.0666666666666667
      40
0.0666666666666667
      40
0.0666666666666667
      40
0.0666666666666667
      40
0.0833333333333333
      40
0.0833333333333333
      40
0.0833333333333333
      40
0.0833333333333333
      40
0.1
      40
0.1
      40
0.1
      40
0.1
      40
0.116666666666667
      40
0.116666666666667
      40
0.116666666666667
      40
0.116666666666667
      40
0.133333333333333
      40
0.133333333333333
      40
0.133333333333333
      40
0.133333333333333
      40
0.15
      40
0.15
      40
0.15
      40
0.15
      40
0.166666666666667
      40
0.166666666666667
      40
0.166666666666667
      40
0.166666666666667
      40
0.183333333333333
      40
0.183333333333333
      40
0.183333333333333
      40
0.183333333333333
      40
0.2
      40
0.2
      40
0.2
      40
0.2
      40
0.216666666666667
      40
0.216666666666667
      40
0.216666666666667
      40
0.216666666666667
      40
0.233333333333333
      40
0.233333333333333
      40
0.233333333333333
      40
0.233333333333333
      40
0.25
      40
0.25
      40
0.25
      40
0.25
      40
0.266666666666667
      40
0.266666666666667
      40
0.266666666666667
      40
0.266666666666667
      40
0.283333333333333
      40
0.283333333333333
      40
0.283333333333333
      40
0.283333333333333
      40
0.3
      40
0.3
      40
0.3
      40
0.3
      40
0.316666666666667
      40
0.316666666666667
      40
0.316666666666667
      40
0.316666666666667
      40
0.333333333333333
      40
0.333333333333333
      40
0.333333333333333
      40
0.333333333333333
      40
0.35
      40
0.35
      40
0.35
      40
0.35
      40
0.366666666666667
      40
0.366666666666667
      40
0.366666666666667
      40
0.366666666666667
      40
0.383333333333333
      40
0.383333333333333
      40
0.383333333333333
      40
0.383333333333333
      40
0.4
      40
0.4
      40
0.4
      40
0.4
      40
0.416666666666667
      40
0.416666666666667
      40
0.416666666666667
      40
0.416666666666667
      40
0.433333333333333
      40
0.433333333333333
      40
0.433333333333333
      40
0.433333333333333
      40
0.45
      40
0.45
      40
0.45
      40
0.45
      40
0.466666666666667
      40
0.466666666666667
      40
0.466666666666667
      40
0.466666666666667
      40
0.483333333333333
      40
0.483333333333333
      40
0.483333333333333
      40
0.483333333333333
      40
0.5
      40
0.5
      40
0.5
      40
0.5
      40
0.516666666666667
      40
0.516666666666667
      40
0.516666666666667
      40
0.516666666666667
      40
0.533333333333333
      40
0.533333333333333
      40
0.533333333333333
      40
0.533333333333333
      40
0.55
      40
0.55
      40
0.55
      40
0.55
      40
0.566666666666667
      40
0.566666666666667
      40
0.566666666666667
      40
0.566666666666667
      40
0.583333333333333
      40
0.583333333333333
      40
0.583333333333333
      40
0.583333333333333
      40
0.6
      40
0.6
      40
0.6
      40
0.6
      40
0.616666666666667
      40
0.616666666666667
      40
0.616666666666667
      40
0.616666666666667
      40
0.633333333333333
      40
0.633333333333333
      40
0.633333333333333
      40
0.633333333333333
      40
0.65
      40
0.65
      40
0.65
      40
0.65
      40
0.666666666666667
      40
0.666666666666667
      40
0.666666666666667
      40
0.666666666666667
      40
0.683333333333333
      40
0.683333333333333
      40
0.683333333333333
      40
0.683333333333333
      40
0.7
      40
0.7
      40
0.7
      40
0.7
      40
0.716666666666667
      40
0.716666666666667
      40
0.716666666666667
      40
0.716666666666667
      40
0.733333333333333
      40
0.733333333333333
      40
0.733333333333333
      40
0.733333333333333
      40
0.75
      40
0.75
      40
0.75
      40
0.75
      40
0.766666666666667
      40
0.766666666666667
      40
0.766666666666667
      40
0.766666666666667
      40
0.783333333333333
      40
0.783333333333333
      40
0.783333333333333
      40
0.783333333333333
      40
0.8
      40
0.8
      40
0.8
      40
0.8
      40
0.816666666666667
      40
0.816666666666667
      40
0.816666666666667
      40
0.816666666666667
      40
0.833333333333333
      40
0.833333333333333
      40
0.833333333333333
      40
0.833333333333333
      40
0.85
      40
0.85
      40
0.85
      40
0.85
      40
0.866666666666667
      40
0.866666666666667
      40
0.866666666666667
      40
0.866666666666667
      40
0.883333333333333
      40
0.883333333333333
      40
0.883333333333333
      40
0.883333333333333
      40
0.9
      40
0.9
      40
0.9
      40
0.9
      40
0.916666666666667
      40
0.916666666666667
      40
0.916666666666667
      40
0.916666666666667
      40
0.933333333333333
      40
0.933333333333333
      40
0.933333333333333
      40
0.933333333333333
      40
0.95
      40
0.95
      40
0.95
      40
0.95
      40
0.966666666666667
      40
0.966666666666667
      40
0.966666666666667
      40
0.966666666666667
      40
0.983333333333333
      40
0.983333333333333
      40
0.983333333333333
      40
0.983333333333333
      40
1
      40
1
      40
1
      40
1
      10
59.8176640698697
      20
-17.2415716739513
      30
0
      10
59.5802132354245
      20
-15.40620393745
      30
0
      10
58.9948687725406
      20
-13.632854671114
      30
0
      10
58.093070602289
      20
-12.0167737055991
      30
0
      10
58.093070602289
      20
-12.0167737055991
      30
0
      10
57.1912724320375
      20
-10.4006927400842
      30
0
      10
55.9894606394748
      20
-8.97134177691922
      30
0
      10
54.5521867328091
      20
-7.80549386909142
      30
0
      10
54.5521867328091
      20
-7.80549386909142
      30
0
      10
53.1149128261434
      20
-6.63964596126362
      30
0
      10
51.4683787938622
      20
-5.75855490967856
      30
0
      10
49.7010229885907
      20
-5.209545725291
      30
0
      10
49.7010229885907
      20
-5.209545725291
      30
0
      10
47.9336671833193
      20
-4.66053654090344
      30
0
      10
46.0777090979797
      20
-4.45361784646935
      30
0
      10
44.2328356339
      20
-4.5999036233
      30
0
      10
44.2328356339
      20
-4.5999036233
      30
0
      10
44.2328356339
      20
-6.7045702734
      30
0
      10
44.2328356339
      20
-8.8092369235
      30
0
      10
44.2328356339
      20
-10.9139035736
      30
0
      10
44.2328356338626
      20
-10.9139035735621
      30
0
      10
45.7815546483638
      20
-10.7866236174693
      30
0
      10
47.1567021838788
      20
-10.9745694521431
      30
0
      10
48.3189832226466
      20
-11.3836929780344
      30
0
      10
48.3189832226466
      20
-11.3836929780344
      30
0
      10
49.2837608084457
      20
-11.7245518737507
      30
0
      10
50.1114639439385
      20
-12.2132600786276
      30
0
      10
50.8279360858991
      20
-12.8452071298319
      30
0
      10
50.8279360858675
      20
-12.8452071298822
      30
0
      10
51.1261376680945
      20
-13.1085644004018
      30
0
      10
51.371764372092
      20
-13.4260476737621
      30
0
      10
51.5517967274064
      20
-13.7808287141491
      30
0
      10
51.5517967274064
      20
-13.7808287141491
      30
0
      10
51.7318290827208
      20
-14.1356097545362
      30
0
      10
51.843028999316
      20
-14.5213074147955
      30
0
      10
51.8795023133857
      20
-14.9174777480348
      30
0
      10
51.8795023133857
      20
-14.9174777480348
      30
0
      10
51.9159756274554
      20
-15.3136480812741
      30
0
      10
51.8770663242812
      20
-15.713165506059
      30
0
      10
51.7648367957563
      20
-16.0948535573591
      30
0
      10
51.7648367957563
      20
-16.0948535573591
      30
0
      10
51.6526072672313
      20
-16.4765416086591
      30
0
      10
51.4690760911686
      20
-16.8335351856228
      30
0
      10
51.2239713577358
      20
-17.1469118044491
      30
0
      10
51.2239713577358
      20
-17.1469118044491
      30
0
      10
50.9788666243031
      20
-17.4602884232754
      30
0
      10
50.6765968254834
      20
-17.7244116431971
      30
0
      10
50.3331838052
      20
-17.9252815839
      30
0
      10
50.3331838052
      20
-17.9252815839
      30
0
      10
42.7317221455333
      20
-22.3715461766
      30
0
      10
35.1302604858666
      20
-26.8178107693
      30
0
      10
27.5287988262
      20
-31.264075362
      30
0
      10
27.5287988262328
      20
-31.2640753619977
      30
0
      10
27.2980577343097
      20
-28.8679421809418
      30
0
      10
27.747520387088
      20
-25.9782505437829
      30
0
      10
28.9561052174767
      20
-23.1598974737778
      30
0
      10
28.9561052174767
      20
-23.1598974737778
      30
0
      10
30.2023267033624
      20
-20.2120089857717
      30
0
      10
32.2685413584918
      20
-17.3784033840026
      30
0
      10
34.7367494830926
      20
-15.2510429890511
      30
0
      10
34.7367494830926
      20
-15.2510429890511
      30
0
      10
36.7704253297587
      20
-13.4837199609968
      30
0
      10
39.0580086385783
      20
-12.2023873951613
      30
0
      10
41.2328356338631
      20
-11.5185927640846
      30
0
      10
41.2328356338631
      20
-11.5185927640846
      30
0
      10
41.2328356338754
      20
-9.22779204868977
      30
0
      10
41.2328356338877
      20
-6.93699133329488
      30
0
      10
41.2328356339
      20
-4.6461906179
      30
0
      10
41.2328356339
      20
-4.6461906179
      30
0
      10
40.4128475041667
      20
-4.87235636166667
      30
0
      10
39.5928593744333
      20
-5.09852210543333
      30
0
      10
38.7728712447
      20
-5.3246878492
      30
0
      10
38.7728712447
      20
-5.3246878492
      30
0
      10
37.9623816814333
      20
-5.65311638143333
      30
0
      10
37.1518921181667
      20
-5.98154491366667
      30
0
      10
36.3414025549
      20
-6.3099734459
      30
0
      10
36.3414025549
      20
-6.3099734459
      30
0
      10
35.5529378807333
      20
-6.73558881993333
      30
0
      10
34.7644732065667
      20
-7.16120419396667
      30
0
      10
33.9760085324
      20
-7.586819568
      30
0
      10
33.9760085324
      20
-7.586819568
      30
0
      10
33.2217546697
      20
-8.10304378986667
      30
0
      10
32.467500807
      20
-8.61926801173333
      30
0
      10
31.7132469443
      20
-9.1354922336
      30
0
      10
31.7132469443
      20
-9.1354922336
      30
0
      10
31.0048610786667
      20
-9.73434692643333
      30
0
      10
30.2964752130333
      20
-10.3332016192667
      30
0
      10
29.5880893474
      20
-10.9320563121
      30
0
      10
29.5880893474
      20
-10.9320563121
      30
0
      10
28.9365197628333
      20
-11.6042860241
      30
0
      10
28.2849501782667
      20
-12.2765157361
      30
0
      10
27.6333805937
      20
-12.9487454481
      30
0
      10
27.6333805937
      20
-12.9487454481
      30
0
      10
27.0486974641
      20
-13.6839606977667
      30
0
      10
26.4640143345
      20
-14.4191759474333
      30
0
      10
25.8793312049
      20
-15.1543911971
      30
0
      10
25.8793312049
      20
-15.1543911971
      30
0
      10
25.3705709569333
      20
-15.9412290455333
      30
0
      10
24.8618107089667
      20
-16.7280668939667
      30
0
      10
24.353050461
      20
-17.5149047424
      30
0
      10
24.353050461
      20
-17.5149047424
      30
0
      10
23.9280761139667
      20
-18.3412044102
      30
0
      10
23.5031017669333
      20
-19.167504078
      30
0
      10
23.0781274199
      20
-19.9938037458
      30
0
      10
23.0781274199
      20
-19.9938037458
      30
0
      10
22.7435070605333
      20
-20.8467945611
      30
0
      10
22.4088867011667
      20
-21.6997853764
      30
0
      10
22.0742663418
      20
-22.5527761917
      30
0
      10
22.0742663418
      20
-22.5527761917
      30
0
      10
21.835171613
      20
-23.4192749642
      30
0
      10
21.5960768842
      20
-24.2857737367
      30
0
      10
21.3569821554
      20
-25.1522725092
      30
0
      10
21.3569821554
      20
-25.1522725092
      30
0
      10
21.2171083271333
      20
-26.0188872796333
      30
0
      10
21.0772344988667
      20
-26.8855020500667
      30
0
      10
20.9373606706
      20
-27.7521168205
      30
0
      10
20.9373606706
      20
-27.7521168205
      30
0
      10
20.8988695284667
      20
-28.6054538368333
      30
0
      10
20.8603783863333
      20
-29.4587908531667
      30
0
      10
20.8218872442
      20
-30.3121278695
      30
0
      10
20.8218872442
      20
-30.3121278695
      30
0
      10
20.8853736786333
      20
-31.1389985908
      30
0
      10
20.9488601130667
      20
-31.9658693121
      30
0
      10
21.0123465475
      20
-32.7927400334
      30
0
      10
21.0123465475
      20
-32.7927400334
      30
0
      10
21.1768293594667
      20
-33.580364962
      30
0
      10
21.3413121714333
      20
-34.3679898906
      30
0
      10
21.5057949834
      20
-35.1556148192
      30
0
      10
21.5057949834
      20
-35.1556148192
      30
0
      10
21.7687320491667
      20
-35.8918210112667
      30
0
      10
22.0316691149333
      20
-36.6280272033333
      30
0
      10
22.2946061807
      20
-37.3642333954
      30
0
      10
22.2946061807
      20
-37.3642333954
      30
0
      10
22.6519337409333
      20
-38.0376425966333
      30
0
      10
23.0092613011667
      20
-38.7110517978667
      30
0
      10
23.3665888614
      20
-39.3844609991
      30
0
      10
23.3665888614
      20
-39.3844609991
      30
0
      10
23.8127843276333
      20
-39.9846654987667
      30
0
      10
24.2589797938667
      20
-40.5848699984333
      30
0
      10
24.7051752601
      20
-41.1850744981
      30
0
      10
24.7051752601
      20
-41.1850744981
      30
0
      10
25.2333425677333
      20
-41.7027979828
      30
0
      10
25.7615098753667
      20
-42.2205214675
      30
0
      10
26.289677183
      20
-42.7382449522
      30
0
      10
26.289677183
      20
-42.7382449522
      30
0
      10
26.8916533717333
      20
-43.1654858736
      30
0
      10
27.4936295604667
      20
-43.592726795
      30
0
      10
28.0956057492
      20
-44.0199677164
      30
0
      10
28.0956057492
      20
-44.0199677164
      30
0
      10
28.7620871237667
      20
-44.3501229572
      30
0
      10
29.4285684983333
      20
-44.680278198
      30
0
      10
30.0950498729
      20
-45.0104334388
      30
0
      10
30.0950498729
      20
-45.0104334388
      30
0
      10
30.8157357938
      20
-45.2384003656667
      30
0
      10
31.5364217147
      20
-45.4663672925333
      30
0
      10
32.2571076356
      20
-45.6943342194
      30
0
      10
32.2571076356
      20
-45.6943342194
      30
0
      10
33.0208597184333
      20
-45.8165895454
      30
0
      10
33.7846118012667
      20
-45.9388448714
      30
0
      10
34.5483638841
      20
-46.0611001974
      30
0
      10
34.5483638841
      20
-46.0611001974
      30
0
      10
35.3433781458
      20
-46.0757544353333
      30
0
      10
36.1383924075
      20
-46.0904086732667
      30
0
      10
36.9334066692
      20
-46.1050629112
      30
0
      10
36.9334066692
      20
-46.1050629112
      30
0
      10
37.7473959618667
      20
-46.0118895761
      30
0
      10
38.5613852545333
      20
-45.918716241
      30
0
      10
39.3753745472
      20
-45.8255429059
      30
0
      10
39.3753745472
      20
-45.8255429059
      30
0
      10
40.1957584589667
      20
-45.6259820154
      30
0
      10
41.0161423707333
      20
-45.4264211249
      30
0
      10
41.8365262825
      20
-45.2268602344
      30
0
      10
41.8365262825
      20
-45.2268602344
      30
0
      10
42.6506255710667
      20
-44.9239960528667
      30
0
      10
43.4647248596333
      20
-44.6211318713333
      30
0
      10
44.2788241482
      20
-44.3182676898
      30
0
      10
44.2788241482
      20
-44.3182676898
      30
0
      10
45.0740567016333
      20
-43.9167810603
      30
0
      10
45.8692892550667
      20
-43.5152944308
      30
0
      10
46.6645218085
      20
-43.1138078013
      30
0
      10
46.6645218085
      20
-43.1138078013
      30
0
      10
47.4285971051667
      20
-42.6199038020333
      30
0
      10
48.1926724018333
      20
-42.1259998027667
      30
0
      10
48.9567476985
      20
-41.6320958035
      30
0
      10
48.9567476985
      20
-41.6320958035
      30
0
      10
49.6778567600333
      20
-41.0534078465
      30
0
      10
50.3989658215667
      20
-40.4747198895
      30
0
      10
51.1200748831
      20
-39.8960319325
      30
0
      10
51.1200748831
      20
-39.8960319325
      30
0
      10
51.7870727852667
      20
-39.2415037876
      30
0
      10
52.4540706874333
      20
-38.5869756427
      30
0
      10
53.1210685896
      20
-37.9324474978
      30
0
      10
53.1210685896
      20
-37.9324474978
      30
0
      10
53.7236467099333
      20
-37.2121950642
      30
0
      10
54.3262248302667
      20
-36.4919426306
      30
0
      10
54.9288029506
      20
-35.771690197
      30
0
      10
54.9288029506
      20
-35.771690197
      30
0
      10
55.4576482907333
      20
-34.9968451595
      30
0
      10
55.9864936308667
      20
-34.222000122
      30
0
      10
56.515338971
      20
-33.4471550845
      30
0
      10
56.515338971
      20
-33.4471550845
      30
0
      10
56.9622780915
      20
-32.6296928705667
      30
0
      10
57.409217212
      20
-31.8122306566333
      30
0
      10
57.8561563325
      20
-30.9947684427
      30
0
      10
57.8561563325
      20
-30.9947684427
      30
0
      10
58.2142816754333
      20
-30.1473231390667
      30
0
      10
58.5724070183667
      20
-29.2998778354333
      30
0
      10
58.9305323613
      20
-28.4524325318
      30
0
      10
58.9305323613
      20
-28.4524325318
      30
0
      10
59.1943090082333
      20
-27.5881016215333
      30
0
      10
59.4580856551667
      20
-26.7237707112667
      30
0
      10
59.7218623021
      20
-25.859439801
      30
0
      10
59.7218623021
      20
-25.859439801
      30
0
      10
57.4109914047001
      20
-25.8594398009899
      30
0
      10
55.1001205073003
      20
-25.8594398009797
      30
0
      10
52.7892496099004
      20
-25.8594398009696
      30
0
      10
52.7892496099004
      20
-25.8594398009696
      30
0
      10
51.7447899656582
      20
-28.9244149974945
      30
0
      10
49.7897926619437
      20
-31.9836229714514
      30
0
      10
47.3253504945402
      20
-34.3413260742409
      30
0
      10
47.3253504945402
      20
-34.3413260742409
      30
0
      10
44.9462130732842
      20
-36.6430758165318
      30
0
      10
42.1167869334945
      20
-38.261557822107
      30
0
      10
39.4962261738543
      20
-38.9811926567602
      30
0
      10
39.4962261738543
      20
-38.9811926567602
      30
0
      10
37.194775458925
      20
-39.6245086341279
      30
0
      10
35.0941799833375
      20
-39.601569010799
      30
0
      10
33.426161575279
      20
-39.1275973091387
      30
0
      10
33.426161575279
      20
-39.1275973091387
      30
0
      10
31.6306307287901
      20
-38.6113028935783
      30
0
      10
30.2716567220713
      20
-37.6451938321864
      30
0
      10
29.2310605587558
      20
-36.1919854317504
      30
0
      10
29.2310605587558
      20
-36.1919854317504
      30
0
      10
29.0586727729966
      20
-35.948384419169
      30
0
      10
28.8963794546557
      20
-35.6901497075909
      30
0
      10
28.74500673412
      20
-35.4166625050708
      30
0
      10
28.7450067341
      20
-35.4166625051
      30
0
      10
39.1025591793333
      20
-29.3582988947333
      30
0
      10
49.4601116245667
      20
-23.2999352843667
      30
0
      10
59.8176640698
      20
-17.241571674
      30
0
    1001
FS_CYPCUT
    1000
Channel
    1070
1
    1000
LeadIn
    1002
{
    1070
3
    1040
59.5
    1040
1.5707963267949
    1040
0.5
    1040
0.3
    1070
0
    1040
0.5
    1070
0
    1002
}
    1000
LeadOut
    1002
{
    1070
0
    1040
0
    1040
0.523598775598299
    1040
3
    1070
0
    1002
}
    1000
IsFill
    1070
0
    1000
PathStart
    1040
59.5
    1000
ToolCompensation
    1002
{
    1070
0
    1040
0
    1070
0
    1002
}
       0
LWPOLYLINE
       5
200E
     100
AcDbEntity
       8
1
     100
AcDbPolyline
      90
12
      70
1
      10
100.0236759918
      20
-4.8246588263
      42
0
      10
100.0236759918
      20
-11.1246588261
      42
0
      10
81.7550851497
      20
-11.1246588261
      42
0.761737062257187
      10
79.3350786616605
      20
-19.9078842512963
      42
0
      10
85.9353330104872
      20
-23.8437568722954
      42
-0.865240744479163
      10
82.6986759852
      20
-46.1265763668
      42
0
      10
61.5303408715
      20
-46.1265763668
      42
0
      10
61.5303408715
      20
-39.4750987752
      42
0
      10
78.4808831824
      20
-39.4750987752
      42
0.735169300966689
      10
81.1714926165694
      20
-30.8659970931676
      42
0
      10
72.5772521983
      20
-24.9125627514
      42
-0.735169300966689
      10
78.8553408781
      20
-4.8246588263
      42
0
    1001
FS_CYPCUT
    1000
Channel
    1070
1
    1000
LeadIn
    1002
{
    1070
3
    1040
4.5
    1040
1.5707963267949
    1040
0.5
    1040
0.3
    1070
0
    1040
0.5
    1070
0
    1002
}
    1000
LeadOut
    1002
{
    1070
0
    1040
0
    1040
0.523598775598299
    1040
3
    1070
0
    1002
}
    1000
IsFill
    1070
0
    1000
PathStart
    1040
4.5
    1000
ToolCompensation
    1002
{
    1070
0
    1040
0
    1070
0
    1002
}
       0
LWPOLYLINE
       5
200F
     100
AcDbEntity
       8
1
     100
AcDbPolyline
      90
12
      70
1
      10
129.1672560138
      20
-14.2746588253
      42
0
      10
114.2050743821
      20
-14.2746588253
      42
0
      10
115.8713643516
      20
-4.8246588255
      42
0
      10
109.4741766967
      20
-4.8246588255
      42
0
      10
103.7574464055
      20
-37.2458473578
      42
0.386919480665599
      10
113.515580704035
      20
-46.1265763668588
      42
0
      10
123.2729781653
      20
-46.1265763668
      42
0
      10
123.2729781653
      20
-39.4750987754
      42
0
      10
113.5155807059
      20
-39.4750987754
      42
-0.466307658155
      10
110.413436283911
      20
-35.7781070157491
      42
0
      10
113.0942143995
      20
-20.5746588263
      42
0
      10
129.1672560138
      20
-20.5746588263
      42
0
    1001
FS_CYPCUT
    1000
Channel
    1070
1
    1000
LeadIn
    1002
{
    1070
3
    1040
3.5
    1040
1.5707963267949
    1040
0.5
    1040
0.3
    1070
0
    1040
0.5
    1070
0
    1002
}
    1000
LeadOut
    1002
{
    1070
0
    1040
0
    1040
0.523598775598299
    1040
3
    1070
0
    1002
}
    1000
IsFill
    1070
0
    1000
PathStart
    1040
3.5
    1000
ToolCompensation
    1002
{
    1070
0
    1040
0
    1070
0
    1002
}
       0
SPLINE
       5
2010
     100
AcDbEntity
       8
1
     100
AcDbSpline
      70
0
      71
3
      72
132
      73
128
      74
0
      40
0
      40
0
      40
0
      40
0
      40
0.03125
      40
0.03125
      40
0.03125
      40
0.03125
      40
0.0625
      40
0.0625
      40
0.0625
      40
0.0625
      40
0.09375
      40
0.09375
      40
0.09375
      40
0.09375
      40
0.125
      40
0.125
      40
0.125
      40
0.125
      40
0.15625
      40
0.15625
      40
0.15625
      40
0.15625
      40
0.1875
      40
0.1875
      40
0.1875
      40
0.1875
      40
0.21875
      40
0.21875
      40
0.21875
      40
0.21875
      40
0.25
      40
0.25
      40
0.25
      40
0.25
      40
0.28125
      40
0.28125
      40
0.28125
      40
0.28125
      40
0.3125
      40
0.3125
      40
0.3125
      40
0.3125
      40
0.34375
      40
0.34375
      40
0.34375
      40
0.34375
      40
0.375
      40
0.375
      40
0.375
      40
0.375
      40
0.40625
      40
0.40625
      40
0.40625
      40
0.40625
      40
0.4375
      40
0.4375
      40
0.4375
      40
0.4375
      40
0.46875
      40
0.46875
      40
0.46875
      40
0.46875
      40
0.5
      40
0.5
      40
0.5
      40
0.5
      40
0.53125
      40
0.53125
      40
0.53125
      40
0.53125
      40
0.5625
      40
0.5625
      40
0.5625
      40
0.5625
      40
0.59375
      40
0.59375
      40
0.59375
      40
0.59375
      40
0.625
      40
0.625
      40
0.625
      40
0.625
      40
0.65625
      40
0.65625
      40
0.65625
      40
0.65625
      40
0.6875
      40
0.6875
      40
0.6875
      40
0.6875
      40
0.71875
      40
0.71875
      40
0.71875
      40
0.71875
      40
0.75
      40
0.75
      40
0.75
      40
0.75
      40
0.78125
      40
0.78125
      40
0.78125
      40
0.78125
      40
0.8125
      40
0.8125
      40
0.8125
      40
0.8125
      40
0.84375
      40
0.84375
      40
0.84375
      40
0.84375
      40
0.875
      40
0.875
      40
0.875
      40
0.875
      40
0.90625
      40
0.90625
      40
0.90625
      40
0.90625
      40
0.9375
      40
0.9375
      40
0.9375
      40
0.9375
      40
0.96875
      40
0.96875
      40
0.96875
      40
0.96875
      40
1
      40
1
      40
1
      40
1
      10
150.7884394974
      20
-5.0974275899
      30
0
      10
149.958499399733
      20
-5.33135628556667
      30
0
      10
149.128559302067
      20
-5.56528498123333
      30
0
      10
148.2986192044
      20
-5.7992136769
      30
0
      10
148.2986192044
      20
-5.7992136769
      30
0
      10
147.478929361533
      20
-6.13964326293333
      30
0
      10
146.659239518667
      20
-6.48007284896667
      30
0
      10
145.8395496758
      20
-6.820502435
      30
0
      10
145.8395496758
      20
-6.820502435
      30
0
      10
145.043563303933
      20
-7.26184558723333
      30
0
      10
144.247576932067
      20
-7.70318873946667
      30
0
      10
143.4515905602
      20
-8.1445318917
      30
0
      10
143.4515905602
      20
-8.1445318917
      30
0
      10
142.692371840733
      20
-8.67954503516667
      30
0
      10
141.933153121267
      20
-9.21455817863333
      30
0
      10
141.1739344018
      20
-9.7495713221
      30
0
      10
141.1739344018
      20
-9.7495713221
      30
0
      10
140.463944064433
      20
-10.3694735166
      30
0
      10
139.753953727067
      20
-10.9893757111
      30
0
      10
139.0439633897
      20
-11.6092779056
      30
0
      10
139.0439633897
      20
-11.6092779056
      30
0
      10
138.394854199933
      20
-12.3038949634667
      30
0
      10
137.745745010167
      20
-12.9985120213333
      30
0
      10
137.0966358204
      20
-13.6931290792
      30
0
      10
137.0966358204
      20
-13.6931290792
      30
0
      10
136.519061327733
      20
-14.4510605499667
      30
0
      10
135.941486835067
      20
-15.2089920207333
      30
0
      10
135.3639123424
      20
-15.9669234915
      30
0
      10
135.3639123424
      20
-15.9669234915
      30
0
      10
134.867352028133
      20
-16.7757297725
      30
0
      10
134.370791713867
      20
-17.5845360535
      30
0
      10
133.8742313996
      20
-18.3933423345
      30
0
      10
133.8742313996
      20
-18.3933423345
      30
0
      10
133.4668350942
      20
-19.2397488366667
      30
0
      10
133.0594387888
      20
-20.0861553388333
      30
0
      10
132.6520424834
      20
-20.932561841
      30
0
      10
132.6520424834
      20
-20.932561841
      30
0
      10
132.3404966069
      20
-21.8026768591333
      30
0
      10
132.0289507304
      20
-22.6727918772667
      30
0
      10
131.7174048539
      20
-23.5429068954
      30
0
      10
131.7174048539
      20
-23.5429068954
      30
0
      10
131.506822674567
      20
-24.4224496066
      30
0
      10
131.296240495233
      20
-25.3019923178
      30
0
      10
131.0856583159
      20
-26.181535029
      30
0
      10
131.0856583159
      20
-26.181535029
      30
0
      10
130.979496028267
      20
-27.0560698777
      30
0
      10
130.873333740633
      20
-27.9306047264
      30
0
      10
130.767171453
      20
-28.8051395751
      30
0
      10
130.767171453
      20
-28.8051395751
      30
0
      10
130.767171453
      20
-29.6603131976
      30
0
      10
130.767171453
      20
-30.5154868201
      30
0
      10
130.767171453
      20
-31.3706604426
      30
0
      10
130.767171453
      20
-31.3706604426
      30
0
      10
130.873333740633
      20
-32.1924372427
      30
0
      10
130.979496028267
      20
-33.0142140428
      30
0
      10
131.0856583159
      20
-33.8359908429
      30
0
      10
131.0856583159
      20
-33.8359908429
      30
0
      10
131.296240495233
      20
-34.6108833520333
      30
0
      10
131.506822674567
      20
-35.3857758611667
      30
0
      10
131.7174048539
      20
-36.1606683703
      30
0
      10
131.7174048539
      20
-36.1606683703
      30
0
      10
132.0289507304
      20
-36.8759586116
      30
0
      10
132.3404966069
      20
-37.5912488529
      30
0
      10
132.6520424834
      20
-38.3065390942
      30
0
      10
132.6520424834
      20
-38.3065390942
      30
0
      10
133.0594387888
      20
-38.9504873171333
      30
0
      10
133.4668350942
      20
-39.5944355400667
      30
0
      10
133.8742313996
      20
-40.238383763
      30
0
      10
133.8742313996
      20
-40.238383763
      30
0
      10
134.370791713867
      20
-40.8004211227667
      30
0
      10
134.867352028133
      20
-41.3624584825333
      30
0
      10
135.3639123424
      20
-41.9244958423
      30
0
      10
135.3639123424
      20
-41.9244958423
      30
0
      10
135.941486835067
      20
-42.3953978619333
      30
0
      10
136.519061327733
      20
-42.8662998815667
      30
0
      10
137.0966358204
      20
-43.3372019012
      30
0
      10
137.0966358204
      20
-43.3372019012
      30
0
      10
137.745745010167
      20
-43.7092398687333
      30
0
      10
138.394854199933
      20
-44.0812778362667
      30
0
      10
139.0439633897
      20
-44.4533158038
      30
0
      10
139.0439633897
      20
-44.4533158038
      30
0
      10
139.753953727067
      20
-44.7203836203333
      30
0
      10
140.463944064433
      20
-44.9874514368667
      30
0
      10
141.1739344018
      20
-45.2545192534
      30
0
      10
141.1739344018
      20
-45.2545192534
      30
0
      10
141.933153121267
      20
-45.4122336499333
      30
0
      10
142.692371840733
      20
-45.5699480464667
      30
0
      10
143.4515905602
      20
-45.727662443
      30
0
      10
143.4515905602
      20
-45.727662443
      30
0
      10
144.247576932067
      20
-45.7734349211
      30
0
      10
145.043563303933
      20
-45.8192073992
      30
0
      10
145.8395496758
      20
-45.8649798773
      30
0
      10
145.8395496758
      20
-45.8649798773
      30
0
      10
146.659239518667
      20
-45.7980591930333
      30
0
      10
147.478929361533
      20
-45.7311385087667
      30
0
      10
148.2986192044
      20
-45.6642178245
      30
0
      10
148.2986192044
      20
-45.6642178245
      30
0
      10
149.128559302067
      20
-45.4857023181667
      30
0
      10
149.958499399733
      20
-45.3071868118333
      30
0
      10
150.7884394974
      20
-45.1286713055
      30
0
      10
150.7884394974
      20
-45.1286713055
      30
0
      10
150.7884394974
      20
-42.1937093993667
      30
0
      10
150.7884394974
      20
-39.2587474932333
      30
0
      10
150.7884394974
      20
-36.3237855871
      30
0
      10
150.788439497442
      20
-36.3237855870572
      30
0
      10
148.075085521135
      20
-37.4405230716349
      30
0
      10
145.337864935512
      20
-37.6505635341738
      30
0
      10
143.149423538387
      20
-37.0270582947552
      30
0
      10
143.149423538387
      20
-37.0270582947552
      30
0
      10
140.252652197578
      20
-36.2119383446122
      30
0
      10
138.250149619255
      20
-34.0453981591942
      30
0
      10
137.598102607122
      20
-30.9400219968255
      30
0
      10
137.598102607122
      20
-30.9400219968255
      30
0
      10
137.101363438
      20
-28.5994974356214
      30
0
      10
137.45348285497
      20
-25.7317467261967
      30
0
      10
138.676611363103
      20
-22.9589485401995
      30
0
      10
138.676611363103
      20
-22.9589485401995
      30
0
      10
139.978581323103
      20
-19.962304601824
      30
0
      10
142.286611395498
      20
-17.1225215760632
      30
0
      10
145.029940227316
      20
-15.1589027090894
      30
0
      10
145.029940227316
      20
-15.1589027090894
      30
0
      10
146.853205771369
      20
-13.8430880578139
      30
0
      10
148.853561643018
      20
-12.911910232603
      30
0
      10
150.788439497442
      20
-12.4537276249906
      30
0
      10
150.788439497442
      20
-12.4537276249906
      30
0
      10
150.788439497428
      20
-10.0016276132938
      30
0
      10
150.788439497414
      20
-7.54952760159688
      30
0
      10
150.7884394974
      20
-5.0974275899
      30
0
    1001
FS_CYPCUT
    1000
Channel
    1070
1
    1000
LeadIn
    1002
{
    1070
3
    1040
29.5
    1040
1.5707963267949
    1040
0.5
    1040
0.3
    1070
0
    1040
0.5
    1070
0
    1002
}
    1000
LeadOut
    1002
{
    1070
0
    1040
0
    1040
0.523598775598299
    1040
3
    1070
0
    1002
}
    1000
IsFill
    1070
0
    1000
PathStart
    1040
29.5
    1000
ToolCompensation
    1002
{
    1070
0
    1040
0
    1070
0
    1002
}
       0
SPLINE
       5
2011
     100
AcDbEntity
       8
1
     100
AcDbSpline
      70
0
      71
3
      72
92
      73
88
      74
0
      40
0
      40
0
      40
0
      40
0
      40
0.0454545454545455
      40
0.0454545454545455
      40
0.0454545454545455
      40
0.0454545454545455
      40
0.0909090909090909
      40
0.0909090909090909
      40
0.0909090909090909
      40
0.0909090909090909
      40
0.136363636363636
      40
0.136363636363636
      40
0.136363636363636
      40
0.136363636363636
      40
0.181818181818182
      40
0.181818181818182
      40
0.181818181818182
      40
0.181818181818182
      40
0.227272727272727
      40
0.227272727272727
      40
0.227272727272727
      40
0.227272727272727
      40
0.272727272727273
      40
0.272727272727273
      40
0.272727272727273
      40
0.272727272727273
      40
0.318181818181818
      40
0.318181818181818
      40
0.318181818181818
      40
0.318181818181818
      40
0.363636363636364
      40
0.363636363636364
      40
0.363636363636364
      40
0.363636363636364
      40
0.409090909090909
      40
0.409090909090909
      40
0.409090909090909
      40
0.409090909090909
      40
0.454545454545455
      40
0.454545454545455
      40
0.454545454545455
      40
0.454545454545455
      40
0.5
      40
0.5
      40
0.5
      40
0.5
      40
0.545454545454545
      40
0.545454545454545
      40
0.545454545454545
      40
0.545454545454545
      40
0.590909090909091
      40
0.590909090909091
      40
0.590909090909091
      40
0.590909090909091
      40
0.636363636363636
      40
0.636363636363636
      40
0.636363636363636
      40
0.636363636363636
      40
0.681818181818182
      40
0.681818181818182
      40
0.681818181818182
      40
0.681818181818182
      40
0.727272727272727
      40
0.727272727272727
      40
0.727272727272727
      40
0.727272727272727
      40
0.772727272727273
      40
0.772727272727273
      40
0.772727272727273
      40
0.772727272727273
      40
0.818181818181818
      40
0.818181818181818
      40
0.818181818181818
      40
0.818181818181818
      40
0.863636363636364
      40
0.863636363636364
      40
0.863636363636364
      40
0.863636363636364
      40
0.909090909090909
      40
0.909090909090909
      40
0.909090909090909
      40
0.909090909090909
      40
0.954545454545455
      40
0.954545454545455
      40
0.954545454545455
      40
0.954545454545455
      40
1
      40
1
      40
1
      40
1
      10
169.9420916365
      20
-20.3537826081
      30
0
      10
169.889786088467
      20
-19.5133922927667
      30
0
      10
169.837480540433
      20
-18.6730019774333
      30
0
      10
169.7851749924
      20
-17.8326116621
      30
0
      10
169.7851749924
      20
-17.8326116621
      30
0
      10
169.6290886638
      20
-17.0315555658667
      30
0
      10
169.4730023352
      20
-16.2304994696333
      30
0
      10
169.3169160066
      20
-15.4294433734
      30
0
      10
169.3169160066
      20
-15.4294433734
      30
0
      10
169.0595266631
      20
-14.6804377242667
      30
0
      10
168.8021373196
      20
-13.9314320751333
      30
0
      10
168.5447479761
      20
-13.182426426
      30
0
      10
168.5447479761
      20
-13.182426426
      30
0
      10
168.190141500833
      20
-12.4973611859333
      30
0
      10
167.835535025567
      20
-11.8122959458667
      30
0
      10
167.4809285503
      20
-11.1272307058
      30
0
      10
167.4809285503
      20
-11.1272307058
      30
0
      10
167.034734083067
      20
-10.5169808257667
      30
0
      10
166.588539615833
      20
-9.90673094573333
      30
0
      10
166.1423451486
      20
-9.2964810657
      30
0
      10
166.1423451486
      20
-9.2964810657
      30
0
      10
165.611645727133
      20
-8.77073385296667
      30
0
      10
165.080946305667
      20
-8.24498664023333
      30
0
      10
164.5502468842
      20
-7.7192394275
      30
0
      10
164.5502468842
      20
-7.7192394275
      30
0
      10
163.943467005667
      20
-7.2863407663
      30
0
      10
163.336687127133
      20
-6.8534421051
      30
0
      10
162.7299072486
      20
-6.4205434439
      30
0
      10
162.7299072486
      20
-6.4205434439
      30
0
      10
162.056679136333
      20
-6.0873653099
      30
0
      10
161.383451024067
      20
-5.7541871759
      30
0
      10
160.7102229118
      20
-5.4210090419
      30
0
      10
160.7102229118
      20
-5.4210090419
      30
0
      10
159.981233610333
      20
-5.19284041443333
      30
0
      10
159.252244308867
      20
-4.96467178696667
      30
0
      10
158.5232550074
      20
-4.7365031595
      30
0
      10
158.5232550074
      20
-4.7365031595
      30
0
      10
157.7500767326
      20
-4.61696606236667
      30
0
      10
156.9768984578
      20
-4.49742896523333
      30
0
      10
156.203720183
      20
-4.3778918681
      30
0
      10
156.203720183
      20
-4.3778918681
      30
0
      10
155.398626621133
      20
-4.36888387253333
      30
0
      10
154.593533059267
      20
-4.35987587696667
      30
0
      10
153.7884394974
      20
-4.3508678814
      30
0
      10
153.7884394974
      20
-4.3508678814
      30
0
      10
153.7884394974
      20
-6.93668761646667
      30
0
      10
153.7884394974
      20
-9.52250735153333
      30
0
      10
153.7884394974
      20
-12.1083270866
      30
0
      10
153.788439497441
      20
-12.108327086617
      30
0
      10
156.261615467896
      20
-12.1444467862027
      30
0
      10
158.339485618595
      20
-13.0252710817448
      30
0
      10
159.771526520501
      20
-14.5333948028868
      30
0
      10
159.771526520501
      20
-14.5333948028868
      30
0
      10
161.165071112482
      20
-15.990875770786
      30
0
      10
161.989114957016
      20
-18.0917819808444
      30
0
      10
162.020351756568
      20
-20.5677653627494
      30
0
      10
162.020351756568
      20
-20.5677653627494
      30
0
      10
162.060886608649
      20
-23.033778123238
      30
0
      10
161.27627935269
      20
-25.838702011348
      30
0
      10
159.762509279053
      20
-28.405820183015
      30
0
      10
159.762509279053
      20
-28.405820183015
      30
0
      10
158.307398370694
      20
-30.8958500249453
      30
0
      10
156.18265553024
      20
-33.1433299834333
      30
0
      10
153.788439497441
      20
-34.7257150075846
      30
0
      10
153.788439497441
      20
-34.7257150075846
      30
0
      10
153.788439497449
      20
-37.8317933551132
      30
0
      10
153.788439497456
      20
-40.9378717026418
      30
0
      10
153.788439497463
      20
-44.0439500501703
      30
0
      10
153.788439497463
      20
-44.0439500501703
      30
0
      10
155.507326374252
      20
-43.2649146526626
      30
0
      10
157.138290337256
      20
-42.3048777876694
      30
0
      10
158.653673843354
      20
-41.1801195579984
      30
0
      10
158.653673843354
      20
-41.1801195579984
      30
0
      10
160.169057349452
      20
-40.0553613283275
      30
0
      10
161.560245852726
      20
-38.7722756807094
      30
0
      10
162.803647871762
      20
-37.352620911118
      30
0
      10
162.8036478717
      20
-37.3526209111
      30
0
      10
162.8036478717
      20
-40.2772727296667
      30
0
      10
162.8036478717
      20
-43.2019245482333
      30
0
      10
162.8036478717
      20
-46.1265763668
      30
0
      10
162.8036478717
      20
-46.1265763668
      30
0
      10
165.183129126633
      20
-46.1265763668
      30
0
      10
167.562610381567
      20
-46.1265763668
      30
0
      10
169.9420916365
      20
-46.1265763668
      30
0
      10
169.9420916365
      20
-46.1265763668
      30
0
      10
169.9420916365
      20
-37.5356451139
      30
0
      10
169.9420916365
      20
-28.944713861
      30
0
      10
169.9420916365
      20
-20.3537826081
      30
0
    1001
FS_CYPCUT
    1000
Channel
    1070
1
    1000
LeadIn
    1002
{
    1070
3
    1040
21.5
    1040
1.5707963267949
    1040
0.5
    1040
0.3
    1070
0
    1040
0.5
    1070
0
    1002
}
    1000
LeadOut
    1002
{
    1070
0
    1040
0
    1040
0.523598775598299
    1040
3
    1070
0
    1002
}
    1000
IsFill
    1070
0
    1000
PathStart
    1040
21.5
    1000
ToolCompensation
    1002
{
    1070
0
    1040
0
    1070
0
    1002
}
       0
LWPOLYLINE
       5
2012
     100
AcDbEntity
       8
1
     100
AcDbPolyline
      90
12
      70
1
      10
198.516847956
      20
-14.2746588255
      42
0
      10
198.516847956
      20
-20.5746588265
      42
0
      10
182.4438063416
      20
-20.5746588265
      42
0
      10
179.763028226011
      20
-35.7781070159491
      42
0.466307658155001
      10
182.865172648
      20
-39.4750987756001
      42
0
      10
192.6225701074
      20
-39.4750987756
      42
0
      10
192.6225701074
      20
-46.1265763668
      42
0
      10
182.865172646152
      20
-46.1265763668581
      42
-0.386919480687169
      10
173.1070383478
      20
-37.2458473573
      42
0
      10
178.8237686389
      20
-4.8246588257
      42
0
      10
185.2209562937
      20
-4.8246588257
      42
0
      10
183.5546663242
      20
-14.2746588255
      42
0
    1001
FS_CYPCUT
    1000
Channel
    1070
1
    1000
LeadIn
    1002
{
    1070
3
    1040
8.5
    1040
1.5707963267949
    1040
0.5
    1040
0.3
    1070
0
    1040
0.5
    1070
0
    1002
}
    1000
LeadOut
    1002
{
    1070
0
    1040
0
    1040
0.523598775598299
    1040
3
    1070
0
    1002
}
    1000
IsFill
    1070
0
    1000
PathStart
    1040
8.5
    1000
ToolCompensation
    1002
{
    1070
0
    1040
0
    1070
0
    1002
}
       0
LWPOLYLINE
       5
2013
     100
AcDbEntity
       8
1
     100
AcDbPolyline
      90
4
      70
1
      10
212.6362713625
      20
-14.6261364182
      42
0
      10
206.2390837076
      20
-14.6261364182
      42
0
      10
200.6847062405
      20
-46.1265763668
      42
0
      10
207.0818938953
      20
-46.1265763668
      42
0
    1001
FS_CYPCUT
    1000
Channel
    1070
1
    1000
LeadIn
    1002
{
    1070
3
    1040
1.5
    1040
1.5707963267949
    1040
0.5
    1040
0.3
    1070
0
    1040
0.5
    1070
0
    1002
}
    1000
LeadOut
    1002
{
    1070
0
    1040
0
    1040
0.523598775598299
    1040
3
    1070
0
    1002
}
    1000
IsFill
    1070
0
    1000
PathStart
    1040
1.5
    1000
ToolCompensation
    1002
{
    1070
0
    1040
0
    1070
0
    1002
}
       0
LWPOLYLINE
       5
2014
     100
AcDbEntity
       8
1
     100
AcDbPolyline
      90
4
      70
1
      10
214.3025613302
      20
-5.1761364182
      42
0
      10
213.1917013518
      20
-11.4761364182
      42
0
      10
206.7945136969
      20
-11.4761364182
      42
0
      10
207.9053736753
      20
-5.1761364182
      42
0
    1001
FS_CYPCUT
    1000
Channel
    1070
1
    1000
LeadIn
    1002
{
    1070
3
    1040
0.5
    1040
1.5707963267949
    1040
0.5
    1040
0.3
    1070
0
    1040
0.5
    1070
0
    1002
}
    1000
LeadOut
    1002
{
    1070
0
    1040
0
    1040
0.523598775598299
    1040
3
    1070
0
    1002
}
    1000
IsFill
    1070
0
    1000
PathStart
    1040
0.5
    1000
ToolCompensation
    1002
{
    1070
0
    1040
0
    1070
0
    1002
}
       0
LWPOLYLINE
       5
2015
     100
AcDbEntity
       8
1
     100
AcDbPolyline
      90
106
      70
1
      10
211.1659424853
      20
4.8238635818
      42
0
      10
213.3760144521
      20
8.587732957
      42
0
      10
215.26961177
      20
12.3212819649
      42
0
      10
216.840894273
      20
16.0129957253
      42
0
      10
218.0850158668
      20
19.6514883843
      42
0
      10
218.9981394754
      20
23.2255382309
      42
0
      10
219.577448875
      20
26.7241223065
      42
0
      10
219.82115738
      20
30.136450401
      42
0
      10
219.7285133532
      20
33.4519983323
      42
0
      10
219.299802524
      20
36.660540404
      42
0
      10
218.5363471073
      20
39.7521809437
      42
0
      10
217.4405017255
      20
42.7173848224
      42
0
      10
216.0156461462
      20
45.5470068626
      42
0
      10
214.266174859
      20
48.2323200435
      42
0
      10
212.1974835216
      20
50.7650424168
      42
0
      10
209.8159523191
      20
53.1373626492
      42
0
      10
207.1289262861
      20
55.3419641142
      42
0
      10
204.1446926539
      20
57.3720474575
      42
0
      10
200.8724552907
      20
59.2213515674
      42
0
      10
197.322306316
      20
60.8841728853
      42
0
      10
193.5051949742
      20
62.3553829963
      42
0
      10
189.4328938659
      20
63.6304444458
      42
0
      10
185.1179626388
      20
64.7054247342
      42
0
      10
180.5737092519
      20
65.5770084451
      42
0
      10
175.8141489318
      20
66.2425074707
      42
0
      10
170.8539609468
      20
66.6998693024
      42
0
      10
165.7084433341
      20
66.9476833608
      42
0
      10
160.3934657182
      20
66.9851853466
      42
0
      10
154.925420366
      20
66.8122595974
      42
0
      10
149.3211716306
      20
66.4294394449
      42
0
      10
143.5980039386
      20
65.8379055693
      42
0
      10
137.7735684825
      20
65.0394823587
      42
0
      10
131.8658287812
      20
64.0366322819
      42
0
      10
125.8930052777
      20
62.8324482937
      42
0
      10
119.8735191439
      20
61.4306442961
      42
0
      10
113.8259354671
      20
59.8355436836
      42
0
      10
107.7689059923
      20
58.0520660094
      42
0
      10
101.7211115965
      20
56.0857118126
      42
0
      10
95.7012046744
      20
53.9425456535
      42
0
      10
89.7277516111
      20
51.62917741
      42
0
      10
83.8191755204
      20
49.1527418908
      42
0
      10
77.9936994246
      20
46.5208768313
      42
0
      10
72.2692900523
      20
43.7416993371
      42
0
      10
66.6636024254
      20
40.8237808496
      42
0
      10
61.1939254083
      20
37.7761207104
      42
0
      10
55.8771283865
      20
34.6081184055
      42
0
      10
50.7296092383
      20
31.3295445763
      42
0
      10
45.7672437611
      20
27.9505108848
      42
0
      10
41.0053367078
      20
24.4814388278
      42
0
      10
36.4585745848
      20
20.9330275952
      42
0
      10
32.1409803556
      20
17.3162210721
      42
0
      10
28.0658701925
      20
13.642174086
      42
0
      10
24.2458124069
      20
9.9222180032
      42
0
      10
20.6925886865
      20
6.1678257815
      42
0
      10
17.417157759
      20
2.3905765851
      42
0
      10
14.4296215932
      20
-1.3978799268
      42
0
      10
11.7391942429
      20
-5.18585953
      42
0
      10
15.0830502223
      20
-2.1949245912
      42
0
      10
18.7100821796
      20
0.7746642286
      42
0
      10
22.6088329601
      20
3.7135265216
      42
0
      10
26.7669870972
      20
6.6123789399
      42
0
      10
31.171409715
      20
9.4620645196
      42
0
      10
35.8081880188
      20
12.2535816063
      42
0
      10
40.6626752431
      20
14.9781122896
      42
0
      10
45.7195369186
      20
17.6270502572
      42
0
      10
50.9627993104
      20
20.192027981
      42
0
      10
56.3758998768
      20
22.6649431485
      42
0
      10
61.9417395874
      20
25.0379842565
      42
0
      10
67.6427369354
      20
27.3036552865
      42
0
      10
73.4608834751
      20
29.4547993829
      42
0
      10
79.3778007071
      20
31.4846214609
      42
0
      10
85.3747981328
      20
33.3867096702
      42
0
      10
91.4329322944
      20
35.1550556494
      42
0
      10
97.5330666138
      20
36.7840735052
      42
0
      10
103.6559318419
      20
38.2686174574
      42
0
      10
109.7821869268
      20
39.6039980934
      42
0
      10
115.8924801083
      20
40.7859971809
      42
0
      10
121.9675100474
      20
41.8108809934
      42
0
      10
127.9880867952
      20
42.6754121034
      42
0
      10
133.935192411
      20
43.3768596096
      42
0
      10
139.7900410365
      20
43.9130077629
      42
0
      10
145.5341382367
      20
44.2821629658
      42
0
      10
151.149339421
      20
44.4831591221
      42
0
      10
156.6179071587
      20
44.5153613204
      42
0
      10
161.9225672082
      20
44.3786678395
      42
0
      10
167.0465630833
      20
44.0735104702
      42
0
      10
171.9737089843
      20
43.6008531507
      42
0
      10
176.6884409258
      20
42.9621889222
      42
0
      10
181.1758659004
      20
42.1595352125
      42
0
      10
185.4218089238
      20
41.1954274631
      42
0
      10
189.4128578102
      20
40.0729111205
      42
0
      10
193.1364055398
      20
38.7955320159
      42
0
      10
196.5806900815
      20
37.3673251648
      42
0
      10
199.7348315475
      20
35.7928020209
      42
0
      10
202.588866561
      20
34.0769362253
      42
0
      10
205.1337797284
      20
32.2251478956
      42
0
      10
207.3615321175
      20
30.2432865047
      42
0
      10
209.2650866512
      20
28.1376124035
      42
0
      10
210.8384303362
      20
25.9147770452
      42
0
      10
212.0765932573
      20
23.581801975
      42
0
      10
212.9756642759
      20
21.1460566499
      42
0
      10
213.5328033852
      20
18.6152351601
      42
0
      10
213.7462506809
      20
15.9973319245
      42
0
      10
213.6153319206
      20
13.3006164381
      42
0
      10
213.1404606537
      20
10.5336071498
      42
0
      10
212.3231369147
      20
7.7050445541
      42
0
    1001
FS_CYPCUT
    1000
Channel
    1070
1
    1000
LeadIn
    1002
{
    1070
3
    1040
39.5
    1040
1.5707963267949
    1040
0.5
    1040
0.3
    1070
0
    1040
0.5
    1070
0
    1002
}
    1000
LeadOut
    1002
{
    1070
0
    1040
0
    1040
0.523598775598299
    1040
3
    1070
0
    1002
}
    1000
IsFill
    1070
0
    1000
PathStart
    1040
39.5
    1000
ToolCompensation
    1002
{
    1070
0
    1040
0
    1070
0
    1002
}
    1000
MicroConnect
    1002
{
    1070
2
    1040
28
    1041
0.6
    1042
0
    1040
83
    1041
0.6
    1042
0
    1002
}
       0
SPLINE
       5
2016
     100
AcDbEntity
       8
1
     100
AcDbSpline
      70
0
      71
3
      72
136
      73
132
      74
0
      40
0
      40
0
      40
0
      40
0
      40
0.0303030303030303
      40
0.0303030303030303
      40
0.0303030303030303
      40
0.0303030303030303
      40
0.0606060606060606
      40
0.0606060606060606
      40
0.0606060606060606
      40
0.0606060606060606
      40
0.0909090909090909
      40
0.0909090909090909
      40
0.0909090909090909
      40
0.0909090909090909
      40
0.121212121212121
      40
0.121212121212121
      40
0.121212121212121
      40
0.121212121212121
      40
0.151515151515152
      40
0.151515151515152
      40
0.151515151515152
      40
0.151515151515152
      40
0.181818181818182
      40
0.181818181818182
      40
0.181818181818182
      40
0.181818181818182
      40
0.212121212121212
      40
0.212121212121212
      40
0.212121212121212
      40
0.212121212121212
      40
0.242424242424242
      40
0.242424242424242
      40
0.242424242424242
      40
0.242424242424242
      40
0.272727272727273
      40
0.272727272727273
      40
0.272727272727273
      40
0.272727272727273
      40
0.303030303030303
      40
0.303030303030303
      40
0.303030303030303
      40
0.303030303030303
      40
0.333333333333333
      40
0.333333333333333
      40
0.333333333333333
      40
0.333333333333333
      40
0.363636363636364
      40
0.363636363636364
      40
0.363636363636364
      40
0.363636363636364
      40
0.393939393939394
      40
0.393939393939394
      40
0.393939393939394
      40
0.393939393939394
      40
0.424242424242424
      40
0.424242424242424
      40
0.424242424242424
      40
0.424242424242424
      40
0.454545454545455
      40
0.454545454545455
      40
0.454545454545455
      40
0.454545454545455
      40
0.484848484848485
      40
0.484848484848485
      40
0.484848484848485
      40
0.484848484848485
      40
0.515151515151515
      40
0.515151515151515
      40
0.515151515151515
      40
0.515151515151515
      40
0.545454545454545
      40
0.545454545454545
      40
0.545454545454545
      40
0.545454545454545
      40
0.575757575757576
      40
0.575757575757576
      40
0.575757575757576
      40
0.575757575757576
      40
0.606060606060606
      40
0.606060606060606
      40
0.606060606060606
      40
0.606060606060606
      40
0.636363636363636
      40
0.636363636363636
      40
0.636363636363636
      40
0.636363636363636
      40
0.666666666666667
      40
0.666666666666667
      40
0.666666666666667
      40
0.666666666666667
      40
0.696969696969697
      40
0.696969696969697
      40
0.696969696969697
      40
0.696969696969697
      40
0.727272727272727
      40
0.727272727272727
      40
0.727272727272727
      40
0.727272727272727
      40
0.757575757575758
      40
0.757575757575758
      40
0.757575757575758
      40
0.757575757575758
      40
0.787878787878788
      40
0.787878787878788
      40
0.787878787878788
      40
0.787878787878788
      40
0.818181818181818
      40
0.818181818181818
      40
0.818181818181818
      40
0.818181818181818
      40
0.848484848484849
      40
0.848484848484849
      40
0.848484848484849
      40
0.848484848484849
      40
0.878787878787879
      40
0.878787878787879
      40
0.878787878787879
      40
0.878787878787879
      40
0.909090909090909
      40
0.909090909090909
      40
0.909090909090909
      40
0.909090909090909
      40
0.939393939393939
      40
0.939393939393939
      40
0.939393939393939
      40
0.939393939393939
      40
0.96969696969697
      40
0.96969696969697
      40
0.96969696969697
      40
0.96969696969697
      40
1
      40
1
      40
1
      40
1
      10
253.9249842316
      20
-4.8246588282
      30
0
      10
253.9249842316
      20
-6.9246588271
      30
0
      10
253.9249842316
      20
-9.024658826
      30
0
      10
253.9249842316
      20
-11.1246588249
      30
0
      10
253.9249842316
      20
-11.1246588249
      30
0
      10
249.090754117652
      20
-11.1246588249073
      30
0
      10
244.256524003703
      20
-11.1246588249145
      30
0
      10
239.422293889755
      20
-11.1246588249218
      30
0
      10
239.422293889755
      20
-11.1246588249218
      30
0
      10
236.767684338583
      20
-11.4169174481541
      30
0
      10
233.88245775894
      20
-12.5537576053043
      30
0
      10
231.297407014474
      20
-14.3858851267537
      30
0
      10
231.297407014474
      20
-14.3858851267537
      30
0
      10
228.105631798796
      20
-16.6247183867685
      30
0
      10
225.414165441937
      20
-19.9115926054974
      30
0
      10
223.915283439293
      20
-23.3821094195059
      30
0
      10
223.915283439293
      20
-23.3821094195059
      30
0
      10
222.536423728461
      20
-26.5247551896924
      30
0
      10
222.144541618419
      20
-29.7718322282868
      30
0
      10
222.712593109473
      20
-32.4204286108505
      30
0
      10
222.712593109473
      20
-32.4204286108505
      30
0
      10
223.511418575584
      20
-36.1833325621623
      30
0
      10
226.061982926105
      20
-38.7285433922208
      30
0
      10
229.73152036953
      20
-39.475098775751
      30
0
      10
229.7315203695
      20
-39.4750987758
      30
0
      10
235.606134971667
      20
-39.4750987758
      30
0
      10
241.480749573833
      20
-39.4750987758
      30
0
      10
247.355364176
      20
-39.4750987758
      30
0
      10
247.355364176
      20
-39.4750987758
      30
0
      10
247.355364176
      20
-41.6922579728
      30
0
      10
247.355364176
      20
-43.9094171698
      30
0
      10
247.355364176
      20
-46.1265763668
      30
0
      10
247.355364176
      20
-46.1265763668
      30
0
      10
241.038602216733
      20
-46.1265763668
      30
0
      10
234.721840257467
      20
-46.1265763668
      30
0
      10
228.4050782982
      20
-46.1265763668
      30
0
      10
228.4050782982
      20
-46.1265763668
      30
0
      10
227.6503801703
      20
-46.05448069
      30
0
      10
226.8956820424
      20
-45.9823850132
      30
0
      10
226.1409839145
      20
-45.9102893364
      30
0
      10
226.1409839145
      20
-45.9102893364
      30
0
      10
225.432393910433
      20
-45.7272923353333
      30
0
      10
224.723803906367
      20
-45.5442953342667
      30
0
      10
224.0152139023
      20
-45.3612983332
      30
0
      10
224.0152139023
      20
-45.3612983332
      30
0
      10
223.3641517702
      20
-45.0703492163667
      30
0
      10
222.7130896381
      20
-44.7794000995333
      30
0
      10
222.062027506
      20
-44.4884509827
      30
0
      10
222.062027506
      20
-44.4884509827
      30
0
      10
221.4789858657
      20
-44.0942387318667
      30
0
      10
220.8959442254
      20
-43.7000264810333
      30
0
      10
220.3129025851
      20
-43.3058142302
      30
0
      10
220.3129025851
      20
-43.3058142302
      30
0
      10
219.807277827533
      20
-42.8146920321
      30
0
      10
219.301653069967
      20
-42.323569834
      30
0
      10
218.7960283124
      20
-41.8324476359
      30
0
      10
218.7960283124
      20
-41.8324476359
      30
0
      10
218.3759691658
      20
-41.2523304932333
      30
0
      10
217.9559100192
      20
-40.6722133505667
      30
0
      10
217.5358508726
      20
-40.0920962079
      30
0
      10
217.5358508726
      20
-40.0920962079
      30
0
      10
217.2081270763
      20
-39.4323333799333
      30
0
      10
216.88040328
      20
-38.7725705519667
      30
0
      10
216.5526794837
      20
-38.112807724
      30
0
      10
216.5526794837
      20
-38.112807724
      30
0
      10
216.3225726861
      20
-37.3840320524
      30
0
      10
216.0924658885
      20
-36.6552563808
      30
0
      10
215.8623590909
      20
-35.9264807092
      30
0
      10
215.8623590909
      20
-35.9264807092
      30
0
      10
215.733577729333
      20
-35.1404372574333
      30
0
      10
215.604796367767
      20
-34.3543938056667
      30
0
      10
215.4760150062
      20
-33.5683503539
      30
0
      10
215.4760150062
      20
-33.5683503539
      30
0
      10
215.450634541367
      20
-32.7377071220667
      30
0
      10
215.425254076533
      20
-31.9070638902333
      30
0
      10
215.3998736117
      20
-31.0764206584
      30
0
      10
215.3998736117
      20
-31.0764206584
      30
0
      10
215.478303079233
      20
-30.2145644237
      30
0
      10
215.556732546767
      20
-29.352708189
      30
0
      10
215.6351620143
      20
-28.4908519543
      30
0
      10
215.6351620143
      20
-28.4908519543
      30
0
      10
215.816137432467
      20
-27.6116725275
      30
0
      10
215.997112850633
      20
-26.7324931007
      30
0
      10
216.1780882688
      20
-25.8533136739
      30
0
      10
216.1780882688
      20
-25.8533136739
      30
0
      10
216.458693009333
      20
-24.9709800491667
      30
0
      10
216.739297749867
      20
-24.0886464244333
      30
0
      10
217.0199024904
      20
-23.2063127997
      30
0
      10
217.0199024904
      20
-23.2063127997
      30
0
      10
217.395614283033
      20
-22.3350448047
      30
0
      10
217.771326075667
      20
-21.4637768097
      30
0
      10
218.1470378683
      20
-20.5925088147
      30
0
      10
218.1470378683
      20
-20.5925088147
      30
0
      10
218.611801682633
      20
-19.7463479416667
      30
0
      10
219.076565496967
      20
-18.9001870686333
      30
0
      10
219.5413293113
      20
-18.0540261956
      30
0
      10
219.5413293113
      20
-18.0540261956
      30
0
      10
220.087654940533
      20
-17.2466093064667
      30
0
      10
220.633980569767
      20
-16.4391924173333
      30
0
      10
221.180306199
      20
-15.6317755282
      30
0
      10
221.180306199
      20
-15.6317755282
      30
0
      10
221.799388973167
      20
-14.8761150806667
      30
0
      10
222.418471747333
      20
-14.1204546331333
      30
0
      10
223.0375545215
      20
-13.3647941856
      30
0
      10
223.0375545215
      20
-13.3647941856
      30
0
      10
223.719417205167
      20
-12.6730685225333
      30
0
      10
224.401279888833
      20
-11.9813428594667
      30
0
      10
225.0831425725
      20
-11.2896171964
      30
0
      10
225.0831425725
      20
-11.2896171964
      30
0
      10
225.8167961592
      20
-10.6729742775333
      30
0
      10
226.5504497459
      20
-10.0563313586667
      30
0
      10
227.2841033326
      20
-9.4396884398
      30
0
      10
227.2841033326
      20
-9.4396884398
      30
0
      10
228.057724145633
      20
-8.9080661795
      30
0
      10
228.831344958667
      20
-8.3764439192
      30
0
      10
229.6049657717
      20
-7.8448216589
      30
0
      10
229.6049657717
      20
-7.8448216589
      30
0
      10
230.4060860161
      20
-7.4067877653
      30
0
      10
231.2072062605
      20
-6.9687538717
      30
0
      10
232.0083265049
      20
-6.5307199781
      30
0
      10
232.0083265049
      20
-6.5307199781
      30
0
      10
232.824035200733
      20
-6.19333387436667
      30
0
      10
233.639743896567
      20
-5.85594777063333
      30
0
      10
234.4554525924
      20
-5.5185616669
      30
0
      10
234.4554525924
      20
-5.5185616669
      30
0
      10
235.272603649733
      20
-5.28726072066667
      30
0
      10
236.089754707067
      20
-5.05595977443333
      30
0
      10
236.9069057644
      20
-4.8246588282
      30
0
      10
236.9069057644
      20
-4.8246588282
      30
0
      10
242.5795985868
      20
-4.8246588282
      30
0
      10
248.2522914092
      20
-4.8246588282
      30
0
      10
253.9249842316
      20
-4.8246588282
      30
0
    1001
FS_CYPCUT
    1000
Channel
    1070
1
    1000
LeadIn
    1002
{
    1070
3
    1040
8.5
    1040
1.5707963267949
    1040
0.5
    1040
0.3
    1070
0
    1040
0.5
    1070
0
    1002
}
    1000
LeadOut
    1002
{
    1070
0
    1040
0
    1040
0.523598775598299
    1040
3
    1070
0
    1002
}
    1000
IsFill
    1070
0
    1000
PathStart
    1040
8.5
    1000
ToolCompensation
    1002
{
    1070
0
    1040
0
    1070
0
    1002
}
       0
SPLINE
       5
2017
     100
AcDbEntity
       8
1
     100
AcDbSpline
      70
0
      71
3
      72
132
      73
128
      74
0
      40
0
      40
0
      40
0
      40
0
      40
0.03125
      40
0.03125
      40
0.03125
      40
0.03125
      40
0.0625
      40
0.0625
      40
0.0625
      40
0.0625
      40
0.09375
      40
0.09375
      40
0.09375
      40
0.09375
      40
0.125
      40
0.125
      40
0.125
      40
0.125
      40
0.15625
      40
0.15625
      40
0.15625
      40
0.15625
      40
0.1875
      40
0.1875
      40
0.1875
      40
0.1875
      40
0.21875
      40
0.21875
      40
0.21875
      40
0.21875
      40
0.25
      40
0.25
      40
0.25
      40
0.25
      40
0.28125
      40
0.28125
      40
0.28125
      40
0.28125
      40
0.3125
      40
0.3125
      40
0.3125
      40
0.3125
      40
0.34375
      40
0.34375
      40
0.34375
      40
0.34375
      40
0.375
      40
0.375
      40
0.375
      40
0.375
      40
0.40625
      40
0.40625
      40
0.40625
      40
0.40625
      40
0.4375
      40
0.4375
      40
0.4375
      40
0.4375
      40
0.46875
      40
0.46875
      40
0.46875
      40
0.46875
      40
0.5
      40
0.5
      40
0.5
      40
0.5
      40
0.53125
      40
0.53125
      40
0.53125
      40
0.53125
      40
0.5625
      40
0.5625
      40
0.5625
      40
0.5625
      40
0.59375
      40
0.59375
      40
0.59375
      40
0.59375
      40
0.625
      40
0.625
      40
0.625
      40
0.625
      40
0.65625
      40
0.65625
      40
0.65625
      40
0.65625
      40
0.6875
      40
0.6875
      40
0.6875
      40
0.6875
      40
0.71875
      40
0.71875
      40
0.71875
      40
0.71875
      40
0.75
      40
0.75
      40
0.75
      40
0.75
      40
0.78125
      40
0.78125
      40
0.78125
      40
0.78125
      40
0.8125
      40
0.8125
      40
0.8125
      40
0.8125
      40
0.84375
      40
0.84375
      40
0.84375
      40
0.84375
      40
0.875
      40
0.875
      40
0.875
      40
0.875
      40
0.90625
      40
0.90625
      40
0.90625
      40
0.90625
      40
0.9375
      40
0.9375
      40
0.9375
      40
0.9375
      40
0.96875
      40
0.96875
      40
0.96875
      40
0.96875
      40
1
      40
1
      40
1
      40
1
      10
275.5461677171
      20
-5.0974275903
      30
0
      10
274.716227619433
      20
-5.33135628596667
      30
0
      10
273.886287521767
      20
-5.56528498163333
      30
0
      10
273.0563474241
      20
-5.7992136773
      30
0
      10
273.0563474241
      20
-5.7992136773
      30
0
      10
272.2366575812
      20
-6.1396432633
      30
0
      10
271.4169677383
      20
-6.4800728493
      30
0
      10
270.5972778954
      20
-6.8205024353
      30
0
      10
270.5972778954
      20
-6.8205024353
      30
0
      10
269.801291523533
      20
-7.26184558756667
      30
0
      10
269.005305151667
      20
-7.70318873983333
      30
0
      10
268.2093187798
      20
-8.1445318921
      30
0
      10
268.2093187798
      20
-8.1445318921
      30
0
      10
267.450100060333
      20
-8.67954503556667
      30
0
      10
266.690881340867
      20
-9.21455817903333
      30
0
      10
265.9316626214
      20
-9.7495713225
      30
0
      10
265.9316626214
      20
-9.7495713225
      30
0
      10
265.221672284033
      20
-10.369473517
      30
0
      10
264.511681946667
      20
-10.9893757115
      30
0
      10
263.8016916093
      20
-11.609277906
      30
0
      10
263.8016916093
      20
-11.609277906
      30
0
      10
263.152582419567
      20
-12.3038949638667
      30
0
      10
262.503473229833
      20
-12.9985120217333
      30
0
      10
261.8543640401
      20
-13.6931290796
      30
0
      10
261.8543640401
      20
-13.6931290796
      30
0
      10
261.276789547433
      20
-14.4510605503667
      30
0
      10
260.699215054767
      20
-15.2089920211333
      30
0
      10
260.1216405621
      20
-15.9669234919
      30
0
      10
260.1216405621
      20
-15.9669234919
      30
0
      10
259.6250802478
      20
-16.7757297728667
      30
0
      10
259.1285199335
      20
-17.5845360538333
      30
0
      10
258.6319596192
      20
-18.3933423348
      30
0
      10
258.6319596192
      20
-18.3933423348
      30
0
      10
258.2245633138
      20
-19.239748837
      30
0
      10
257.8171670084
      20
-20.0861553392
      30
0
      10
257.409770703
      20
-20.9325618414
      30
0
      10
257.409770703
      20
-20.9325618414
      30
0
      10
257.0982248265
      20
-21.8026768595333
      30
0
      10
256.78667895
      20
-22.6727918776667
      30
0
      10
256.4751330735
      20
-23.5429068958
      30
0
      10
256.4751330735
      20
-23.5429068958
      30
0
      10
256.264550894167
      20
-24.422449607
      30
0
      10
256.053968714833
      20
-25.3019923182
      30
0
      10
255.8433865355
      20
-26.1815350294
      30
0
      10
255.8433865355
      20
-26.1815350294
      30
0
      10
255.737224247867
      20
-27.0560698780667
      30
0
      10
255.631061960233
      20
-27.9306047267333
      30
0
      10
255.5248996726
      20
-28.8051395754
      30
0
      10
255.5248996726
      20
-28.8051395754
      30
0
      10
255.5248996726
      20
-29.6603131979
      30
0
      10
255.5248996726
      20
-30.5154868204
      30
0
      10
255.5248996726
      20
-31.3706604429
      30
0
      10
255.5248996726
      20
-31.3706604429
      30
0
      10
255.631061960233
      20
-32.1924372430333
      30
0
      10
255.737224247867
      20
-33.0142140431667
      30
0
      10
255.8433865355
      20
-33.8359908433
      30
0
      10
255.8433865355
      20
-33.8359908433
      30
0
      10
256.053968714833
      20
-34.6108833524333
      30
0
      10
256.264550894167
      20
-35.3857758615667
      30
0
      10
256.4751330735
      20
-36.1606683707
      30
0
      10
256.4751330735
      20
-36.1606683707
      30
0
      10
256.78667895
      20
-36.875958612
      30
0
      10
257.0982248265
      20
-37.5912488533
      30
0
      10
257.409770703
      20
-38.3065390946
      30
0
      10
257.409770703
      20
-38.3065390946
      30
0
      10
257.8171670084
      20
-38.9504873175
      30
0
      10
258.2245633138
      20
-39.5944355404
      30
0
      10
258.6319596192
      20
-40.2383837633
      30
0
      10
258.6319596192
      20
-40.2383837633
      30
0
      10
259.1285199335
      20
-40.8004211231
      30
0
      10
259.6250802478
      20
-41.3624584829
      30
0
      10
260.1216405621
      20
-41.9244958427
      30
0
      10
260.1216405621
      20
-41.9244958427
      30
0
      10
260.699215054767
      20
-42.3953978623333
      30
0
      10
261.276789547433
      20
-42.8662998819667
      30
0
      10
261.8543640401
      20
-43.3372019016
      30
0
      10
261.8543640401
      20
-43.3372019016
      30
0
      10
262.503473229833
      20
-43.7092398691
      30
0
      10
263.152582419567
      20
-44.0812778366
      30
0
      10
263.8016916093
      20
-44.4533158041
      30
0
      10
263.8016916093
      20
-44.4533158041
      30
0
      10
264.511681946667
      20
-44.7203836206333
      30
0
      10
265.221672284033
      20
-44.9874514371667
      30
0
      10
265.9316626214
      20
-45.2545192537
      30
0
      10
265.9316626214
      20
-45.2545192537
      30
0
      10
266.690881340867
      20
-45.4122336502333
      30
0
      10
267.450100060333
      20
-45.5699480467667
      30
0
      10
268.2093187798
      20
-45.7276624433
      30
0
      10
268.2093187798
      20
-45.7276624433
      30
0
      10
269.005305151667
      20
-45.7734349214333
      30
0
      10
269.801291523533
      20
-45.8192073995667
      30
0
      10
270.5972778954
      20
-45.8649798777
      30
0
      10
270.5972778954
      20
-45.8649798777
      30
0
      10
271.4169677383
      20
-45.7980591934
      30
0
      10
272.2366575812
      20
-45.7311385091
      30
0
      10
273.0563474241
      20
-45.6642178248
      30
0
      10
273.0563474241
      20
-45.6642178248
      30
0
      10
273.886287521767
      20
-45.4857023185
      30
0
      10
274.716227619433
      20
-45.3071868122
      30
0
      10
275.5461677171
      20
-45.1286713059
      30
0
      10
275.5461677171
      20
-45.1286713059
      30
0
      10
275.546167717089
      20
-42.1937093997395
      30
0
      10
275.546167717078
      20
-39.258747493579
      30
0
      10
275.546167717067
      20
-36.3237855874186
      30
0
      10
275.546167717067
      20
-36.3237855874186
      30
0
      10
272.832813740762
      20
-37.4405230719962
      30
0
      10
270.095593155138
      20
-37.6505635345357
      30
0
      10
267.907151758013
      20
-37.027058295117
      30
0
      10
267.907151758013
      20
-37.027058295117
      30
0
      10
265.010380417202
      20
-36.2119383449733
      30
0
      10
263.007877838882
      20
-34.0453981595563
      30
0
      10
262.355830826745
      20
-30.940021997186
      30
0
      10
262.355830826745
      20
-30.940021997186
      30
0
      10
261.859091657624
      20
-28.5994974359822
      30
0
      10
262.211211074589
      20
-25.7317467265553
      30
0
      10
263.434339582727
      20
-22.9589485405588
      30
0
      10
263.434339582727
      20
-22.9589485405588
      30
0
      10
264.736309542729
      20
-19.9623046021821
      30
0
      10
267.04433961512
      20
-17.1225215764211
      30
0
      10
269.787668446939
      20
-15.1589027094465
      30
0
      10
269.787668446939
      20
-15.1589027094465
      30
0
      10
271.610933990994
      20
-13.8430880581702
      30
0
      10
273.611289862641
      20
-12.9119102329585
      30
0
      10
275.546167717067
      20
-12.4537276253469
      30
0
      10
275.546167717067
      20
-12.4537276253469
      30
0
      10
275.546167717078
      20
-10.0016276136646
      30
0
      10
275.546167717089
      20
-7.54952760198231
      30
0
      10
275.5461677171
      20
-5.0974275903
      30
0
    1001
FS_CYPCUT
    1000
Channel
    1070
1
    1000
LeadIn
    1002
{
    1070
3
    1040
29.5
    1040
1.5707963267949
    1040
0.5
    1040
0.3
    1070
0
    1040
0.5
    1070
0
    1002
}
    1000
LeadOut
    1002
{
    1070
0
    1040
0
    1040
0.523598775598299
    1040
3
    1070
0
    1002
}
    1000
IsFill
    1070
0
    1000
PathStart
    1040
29.5
    1000
ToolCompensation
    1002
{
    1070
0
    1040
0
    1070
0
    1002
}
       0
SPLINE
       5
2018
     100
AcDbEntity
       8
1
     100
AcDbSpline
      70
0
      71
3
      72
92
      73
88
      74
0
      40
0
      40
0
      40
0
      40
0
      40
0.0454545454545455
      40
0.0454545454545455
      40
0.0454545454545455
      40
0.0454545454545455
      40
0.0909090909090909
      40
0.0909090909090909
      40
0.0909090909090909
      40
0.0909090909090909
      40
0.136363636363636
      40
0.136363636363636
      40
0.136363636363636
      40
0.136363636363636
      40
0.181818181818182
      40
0.181818181818182
      40
0.181818181818182
      40
0.181818181818182
      40
0.227272727272727
      40
0.227272727272727
      40
0.227272727272727
      40
0.227272727272727
      40
0.272727272727273
      40
0.272727272727273
      40
0.272727272727273
      40
0.272727272727273
      40
0.318181818181818
      40
0.318181818181818
      40
0.318181818181818
      40
0.318181818181818
      40
0.363636363636364
      40
0.363636363636364
      40
0.363636363636364
      40
0.363636363636364
      40
0.409090909090909
      40
0.409090909090909
      40
0.409090909090909
      40
0.409090909090909
      40
0.454545454545455
      40
0.454545454545455
      40
0.454545454545455
      40
0.454545454545455
      40
0.5
      40
0.5
      40
0.5
      40
0.5
      40
0.545454545454545
      40
0.545454545454545
      40
0.545454545454545
      40
0.545454545454545
      40
0.590909090909091
      40
0.590909090909091
      40
0.590909090909091
      40
0.590909090909091
      40
0.636363636363636
      40
0.636363636363636
      40
0.636363636363636
      40
0.636363636363636
      40
0.681818181818182
      40
0.681818181818182
      40
0.681818181818182
      40
0.681818181818182
      40
0.727272727272727
      40
0.727272727272727
      40
0.727272727272727
      40
0.727272727272727
      40
0.772727272727273
      40
0.772727272727273
      40
0.772727272727273
      40
0.772727272727273
      40
0.818181818181818
      40
0.818181818181818
      40
0.818181818181818
      40
0.818181818181818
      40
0.863636363636364
      40
0.863636363636364
      40
0.863636363636364
      40
0.863636363636364
      40
0.909090909090909
      40
0.909090909090909
      40
0.909090909090909
      40
0.909090909090909
      40
0.954545454545455
      40
0.954545454545455
      40
0.954545454545455
      40
0.954545454545455
      40
1
      40
1
      40
1
      40
1
      10
294.3749502664
      20
-20.4345056504
      30
0
      10
294.3237343562
      20
-19.609739846
      30
0
      10
294.272518446
      20
-18.7849740416
      30
0
      10
294.2213025358
      20
-17.9602082372
      30
0
      10
294.2213025358
      20
-17.9602082372
      30
0
      10
294.068464186667
      20
-17.1739285560667
      30
0
      10
293.915625837533
      20
-16.3876488749333
      30
0
      10
293.7627874884
      20
-15.6013691938
      30
0
      10
293.7627874884
      20
-15.6013691938
      30
0
      10
293.5107420539
      20
-14.8660014664333
      30
0
      10
293.2586966194
      20
-14.1306337390667
      30
0
      10
293.0066511849
      20
-13.3952660117
      30
0
      10
293.0066511849
      20
-13.3952660117
      30
0
      10
292.65938182
      20
-12.7224314906
      30
0
      10
292.3121124551
      20
-12.0495969695
      30
0
      10
291.9648430902
      20
-11.3767624484
      30
0
      10
291.9648430902
      20
-11.3767624484
      30
0
      10
291.527837804367
      20
-10.7770941538333
      30
0
      10
291.090832518533
      20
-10.1774258592667
      30
0
      10
290.6538272327
      20
-9.5777575647
      30
0
      10
290.6538272327
      20
-9.5777575647
      30
0
      10
290.133992160833
      20
-9.0607322474
      30
0
      10
289.614157088967
      20
-8.5437069301
      30
0
      10
289.0943220171
      20
-8.0266816128
      30
0
      10
289.0943220171
      20
-8.0266816128
      30
0
      10
288.49987228
      20
-7.60046999006667
      30
0
      10
287.9054225429
      20
-7.17425836733333
      30
0
      10
287.3109728058
      20
-6.7480467446
      30
0
      10
287.3109728058
      20
-6.7480467446
      30
0
      10
286.651302683633
      20
-6.41938437563333
      30
0
      10
285.991632561467
      20
-6.09072200666667
      30
0
      10
285.3319624393
      20
-5.7620596377
      30
0
      10
285.3319624393
      20
-5.7620596377
      30
0
      10
284.6174969111
      20
-5.53614047963333
      30
0
      10
283.9030313829
      20
-5.31022132156667
      30
0
      10
283.1885658547
      20
-5.0843021635
      30
0
      10
283.1885658547
      20
-5.0843021635
      30
0
      10
282.4305958488
      20
-4.96469648933333
      30
0
      10
281.6726258429
      20
-4.84509081516667
      30
0
      10
280.914655837
      20
-4.725485141
      30
0
      10
280.914655837
      20
-4.725485141
      30
0
      10
280.125159797033
      20
-4.71408311766667
      30
0
      10
279.335663757067
      20
-4.70268109433333
      30
0
      10
278.5461677171
      20
-4.691279071
      30
0
      10
278.5461677171
      20
-4.691279071
      30
0
      10
278.546167717089
      20
-7.16362840965761
      30
0
      10
278.546167717078
      20
-9.63597774831521
      30
0
      10
278.546167717067
      20
-12.1083270869728
      30
0
      10
278.546167717067
      20
-12.1083270869728
      30
0
      10
281.019343687522
      20
-12.1444467865575
      30
0
      10
283.097213838221
      20
-13.0252710820999
      30
0
      10
284.529254740128
      20
-14.5333948032423
      30
0
      10
284.529254740128
      20
-14.5333948032423
      30
0
      10
285.922799332108
      20
-15.9908757711406
      30
0
      10
286.746843176643
      20
-18.0917819812011
      30
0
      10
286.778079976196
      20
-20.5677653631076
      30
0
      10
286.778079976196
      20
-20.5677653631076
      30
0
      10
286.81861482828
      20
-23.0337781235972
      30
0
      10
286.034007572313
      20
-25.8387020117059
      30
0
      10
284.520237498679
      20
-28.4058201833757
      30
0
      10
284.520237498679
      20
-28.4058201833757
      30
0
      10
283.065126590319
      20
-30.8958500253059
      30
0
      10
280.940383749867
      20
-33.1433299837956
      30
0
      10
278.546167717067
      20
-34.725715007947
      30
0
      10
278.5461677171
      20
-34.7257150079
      30
0
      10
278.5461677171
      20
-37.8317933554333
      30
0
      10
278.5461677171
      20
-40.9378717029667
      30
0
      10
278.5461677171
      20
-44.0439500505
      30
0
      10
278.5461677171
      20
-44.0439500505
      30
0
      10
280.265054593883
      20
-43.2649146529856
      30
0
      10
281.896018556882
      20
-42.3048777879864
      30
0
      10
283.411402062973
      20
-41.18011955831
      30
0
      10
283.411402062973
      20
-41.18011955831
      30
0
      10
284.926785569064
      20
-40.0553613286336
      30
0
      10
286.317974072331
      20
-38.7722756810109
      30
0
      10
287.561376091359
      20
-37.3526209114157
      30
0
      10
287.561376091359
      20
-37.3526209114157
      30
0
      10
287.561376091339
      20
-40.2772727298771
      30
0
      10
287.56137609132
      20
-43.2019245483386
      30
0
      10
287.5613760913
      20
-46.1265763668
      30
0
      10
287.5613760913
      20
-46.1265763668
      30
0
      10
289.832567483
      20
-46.1265763668
      30
0
      10
292.1037588747
      20
-46.1265763668
      30
0
      10
294.3749502664
      20
-46.1265763668
      30
0
      10
294.3749502664
      20
-46.1265763668
      30
0
      10
294.3749502664
      20
-37.5625527946667
      30
0
      10
294.3749502664
      20
-28.9985292225333
      30
0
      10
294.3749502664
      20
-20.4345056504
      30
0
    1001
FS_CYPCUT
    1000
Channel
    1070
1
    1000
LeadIn
    1002
{
    1070
3
    1040
21.5
    1040
1.5707963267949
    1040
0.5
    1040
0.3
    1070
0
    1040
0.5
    1070
0
    1002
}
    1000
LeadOut
    1002
{
    1070
0
    1040
0
    1040
0.523598775598299
    1040
3
    1070
0
    1002
}
    1000
IsFill
    1070
0
    1000
PathStart
    1040
21.5
    1000
ToolCompensation
    1002
{
    1070
0
    1040
0
    1070
0
    1002
}
       0
LWPOLYLINE
       5
2019
     100
AcDbEntity
       8
1
     100
AcDbPolyline
      90
4
      70
1
      10
134.5
      20
130.7045569766
      42
0
      10
134.5
      20
120.7045569766
      42
-1
      10
126.5
      20
120.7045569766
      42
0
      10
126.5
      20
130.7045569766
      42
-1
    1001
FS_CYPCUT
    1000
Channel
    1070
1
    1000
LeadIn
    1002
{
    1070
3
    1040
0.5
    1040
1.5707963267949
    1040
0.5
    1040
0.3
    1070
0
    1040
0.5
    1070
0
    1002
}
    1000
LeadOut
    1002
{
    1070
0
    1040
0
    1040
0.523598775598299
    1040
3
    1070
0
    1002
}
    1000
IsFill
    1070
0
    1000
PathStart
    1040
0.5
    1000
ToolCompensation
    1002
{
    1070
0
    1040
0
    1070
0
    1002
}
       0
LINE
       5
201A
     100
AcDbEntity
       8
2
     100
AcDbLine
      10
-328.2
      20
87.8522784883
      30
0
      11
641
      21
87.8522784883
      31
0
    1001
FS_CYPCUT
    1000
Channel
    1070
2
    1000
LeadIn
    1002
{
    1070
3
    1040
0
    1040
1.5707963267949
    1040
0.5
    1040
0.3
    1070
0
    1040
0.5
    1070
0
    1002
}
    1000
LeadOut
    1002
{
    1070
0
    1040
0
    1040
0.523598775598299
    1040
3
    1070
0
    1002
}
    1000
IsFill
    1070
0
    1000
PathStart
    1040
0
    1000
ToolCompensation
    1002
{
    1070
0
    1040
0
    1070
0
    1002
}
       0
LWPOLYLINE
       5
201B
     100
AcDbEntity
       8
1
     100
AcDbPolyline
      90
4
      70
1
      10
364.5
      20
130.7045569766
      42
1
      10
356.5
      20
130.7045569766
      42
0
      10
356.5
      20
120.7045569766
      42
1
      10
364.5
      20
120.7045569766
      42
0
    1001
FS_CYPCUT
    1000
Channel
    1070
1
    1000
LeadIn
    1002
{
    1070
3
    1040
1.5
    1040
1.5707963267949
    1040
0.5
    1040
0.3
    1070
0
    1040
0.5
    1070
0
    1002
}
    1000
LeadOut
    1002
{
    1070
0
    1040
0
    1040
0.523598775598299
    1040
3
    1070
0
    1002
}
    1000
IsFill
    1070
0
    1000
PathStart
    1040
1.5
    1000
ToolCompensation
    1002
{
    1070
0
    1040
0
    1070
0
    1002
}
       0
LINE
       5
201C
     100
AcDbEntity
       8
2
     100
AcDbLine
      10
491
      20
-88.3922995801
      30
0
      11
641
      21
-88.3922995801
      31
0
    1001
FS_CYPCUT
    1000
Channel
    1070
2
    1000
LeadIn
    1002
{
    1070
3
    1040
0
    1040
1.5707963267949
    1040
0.5
    1040
0.3
    1070
0
    1040
0.5
    1070
0
    1002
}
    1000
LeadOut
    1002
{
    1070
0
    1040
0
    1040
0.523598775598299
    1040
3
    1070
0
    1002
}
    1000
IsFill
    1070
0
    1000
PathStart
    1040
0
    1000
ToolCompensation
    1002
{
    1070
0
    1040
0
    1070
0
    1002
}
       0
LINE
       5
201D
     100
AcDbEntity
       8
2
     100
AcDbLine
      10
641
      20
-111.8777680172
      30
0
      11
491
      21
-111.8777680172
      31
0
    1001
FS_CYPCUT
    1000
Channel
    1070
2
    1000
LeadIn
    1002
{
    1070
3
    1040
0
    1040
1.5707963267949
    1040
0.5
    1040
0.3
    1070
0
    1040
0.5
    1070
0
    1002
}
    1000
LeadOut
    1002
{
    1070
0
    1040
0
    1040
0.523598775598299
    1040
3
    1070
0
    1002
}
    1000
IsFill
    1070
0
    1000
PathStart
    1040
0
    1000
ToolCompensation
    1002
{
    1070
0
    1040
0
    1070
0
    1002
}
       0
CIRCLE
       5
201E
     100
AcDbEntity
       8
1
     100
AcDbCircle
      10
566
      20
-126.4709368742
      30
0
      40
3.75000000000004
    1001
FS_CYPCUT
    1000
Channel
    1070
1
    1000
LeadIn
    1002
{
    1070
3
    1040
1.27675647831893E-15
    1040
1.5707963267949
    1040
0.5
    1040
0.3
    1070
0
    1040
0.5
    1070
0
    1002
}
    1000
LeadOut
    1002
{
    1070
0
    1040
0
    1040
0.523598775598299
    1040
3
    1070
0
    1002
}
    1000
IsFill
    1070
0
    1000
PathStart
    1040
1.27675647831893E-15
    1000
ToolCompensation
    1002
{
    1070
0
    1040
0
    1070
0
    1002
}
       0
LWPOLYLINE
       5
201F
     100
AcDbEntity
       8
1
     100
AcDbPolyline
      90
32
      70
1
      10
641
      20
185.7045569766
      42
0
      10
641
      20
-131.4709368742
      42
-0.414213562373072
      10
636
      20
-136.4709368742
      42
0
      10
496
      20
-136.4709368742
      42
-0.414213562373086
      10
491
      20
-131.4709368742
      42
0
      10
491
      20
-84.5537673304
      42
0.414213562373088
      10
486
      20
-79.5537673304
      42
0
      10
78.15
      20
-79.5537673304001
      42
0.414213562373097
      10
73.1500000000001
      20
-84.5537673304
      42
0
      10
73.15
      20
-131.4709368742
      42
-0.414213562373095
      10
68.15
      20
-136.4709368742
      42
0
      10
-71.85
      20
-136.4709368742
      42
-0.414213562373106
      10
-76.85
      20
-131.4709368742
      42
0
      10
-76.8499999999998
      20
-84.5537673304
      42
0.414213562373097
      10
-81.85
      20
-79.5537673303998
      42
0
      10
-489.7
      20
-79.5537673303999
      42
0.414213562373087
      10
-494.7
      20
-84.5537673304
      42
0
      10
-494.7
      20
-131.4709368742
      42
-0.414213562373098
      10
-499.7
      20
-136.4709368742
      42
0
      10
-639.7
      20
-136.4709368742
      42
-0.41421356237312
      10
-644.7
      20
-131.4709368742
      42
0
      10
-644.7
      20
185.7045569766
      42
-0.41421356237309
      10
-629.7
      20
200.7045569766
      42
0
      10
444
      20
200.7045569766
      42
-0.414213562373105
      10
449
      20
195.7045569766
      42
0
      10
449
      20
153.7045569766
      42
0.414213562373137
      10
450
      20
152.7045569766
      42
0
      10
506.5
      20
152.7045569766
      42
0.414213562373103
      10
507.5
      20
153.7045569766
      42
0
      10
507.5
      20
195.7045569766
      42
-0.414213562373105
      10
512.5
      20
200.7045569766
      42
0
      10
626
      20
200.7045569766
      42
-0.414213562373094
    1001
FS_CYPCUT
    1000
Channel
    1070
1
    1000
LeadIn
    1002
{
    1070
3
    1040
22.5
    1040
1.5707963267949
    1040
0.5
    1040
0.3
    1070
0
    1040
0.5
    1070
0
    1002
}
    1000
LeadOut
    1002
{
    1070
0
    1040
0
    1040
0.523598775598299
    1040
3
    1070
0
    1002
}
    1000
IsFill
    1070
1
    1000
PathStart
    1040
22.5
    1000
ToolCompensation
    1002
{
    1070
0
    1040
0
    1070
0
    1002
}
    1000
MicroConnect
    1002
{
    1070
6
    1040
2.49831511163239
    1041
0.6
    1042
0
    1040
10.4912614035419
    1041
0.6
    1042
0
    1040
18.4509223602784
    1041
0.6
    1042
0
    1040
22.1436441140463
    1041
0.6
    1042
0
    1040
22.5673530389716
    1041
0.6
    1042
0
    1040
30.455696082043
    1041
0.6
    1042
0
    1002
}
       0
ENDSEC
  0
SECTION
  2
OBJECTS
  0
DICTIONARY
  5
111
330
0
100
AcDbDictionary
281
     1
  3
ACAD_COLOR
350
120
  3
ACAD_GROUP
350
112
  3
ACAD_LAYOUT
350
11E
  3
ACAD_MATERIAL
350
11F
  3
ACAD_MLINESTYLE
350
11B
  3
ACAD_PLOTSETTINGS
350
11D
  3
ACAD_PLOTSTYLENAME
350
113
  3
ACAD_TABLESTYLE
350
121
  3
AcDbVariableDictionary
350
135
  0
DICTIONARY
  5
120
102
{ACAD_REACTORS
330
111
102
}
330
111
100
AcDbDictionary
281
     1
  0
DICTIONARY
  5
112
102
{ACAD_REACTORS
330
111
102
}
330
111
100
AcDbDictionary
281
     1
  0
DICTIONARY
  5
11E
102
{ACAD_REACTORS
330
111
102
}
330
111
100
AcDbDictionary
281
     1
  3
Model
350
12A
  3
布局1
350
126
  0
DICTIONARY
  5
11F
102
{ACAD_REACTORS
330
111
102
}
330
111
100
AcDbDictionary
281
     1
  0
DICTIONARY
  5
11B
102
{ACAD_REACTORS
330
111
102
}
330
111
100
AcDbDictionary
281
     1
  3
Standard
350
11C
  0
DICTIONARY
  5
11D
102
{ACAD_REACTORS
330
111
102
}
330
111
100
AcDbDictionary
281
     1
  0
ACDBDICTIONARYWDFLT
  5
113
102
{ACAD_REACTORS
330
111
102
}
330
111
100
AcDbDictionary
281
     1
  3
Normal
350
114
100
AcDbDictionaryWithDefault
340
114
  0
DICTIONARY
  5
121
102
{ACAD_REACTORS
330
111
102
}
330
111
100
AcDbDictionary
281
     1
  3
Standard
350
122
  0
DICTIONARY
  5
135
102
{ACAD_REACTORS
330
111
102
}
330
111
100
AcDbDictionary
281
     1
  3
CTABLESTYLE
350
136
  0
LAYOUT
  5
12A
102
{ACAD_REACTORS
330
11E
102
}
330
11E
100
AcDbPlotSettings
  1

  2
发送至 OneNote 2010
  4

  6

 40
0.0
 41
0.0
 42
0.0
 43
0.0
 44
0.0
 45
0.0
 46
0.0
 47
0.0
 48
0.0
 49
0.0
140
0.0
141
0.0
142
1.0
143
1.0
 70
  1712
 72
     0
 73
     0
 74
     0
  7

 75
     0
147
1.0
 76
     0
 77
     2
 78
   300
148
0.0
149
0.0
100
AcDbLayout
  1
Model
 70
     1
 71
     0
 10
0.0
 20
0.0
 11
12.0
 21
9.0
 12
0.0
 22
0.0
 32
0.0
 14
0.0
 24
0.0
 34
0.0
 15
0.0
 25
0.0
 35
0.0
146
0.0
 13
0.0
 23
0.0
 33
0.0
 16
1.0
 26
0.0
 36
0.0
 17
0.0
 27
1.0
 37
0.0
 76
     0
330
127
  0
LAYOUT
  5
126
102
{ACAD_REACTORS
330
11E
102
}
330
11E
100
AcDbPlotSettings
  1

  2
发送至 OneNote 2010
  4

  6

 40
0.0
 41
0.0
 42
0.0
 43
0.0
 44
0.0
 45
0.0
 46
0.0
 47
0.0
 48
0.0
 49
0.0
140
0.0
141
0.0
142
1.0
143
1.0
 70
   688
 72
     0
 73
     0
 74
     5
  7

 75
    16
147
1.0
 76
     0
 77
     2
 78
   300
148
0.0
149
0.0
100
AcDbLayout
  1
布局1
 70
     1
 71
     1
 10
0.0
 20
0.0
 11
12.0
 21
9.0
 12
0.0
 22
0.0
 32
0.0
 14
0.0
 24
0.0
 34
0.0
 15
0.0
 25
0.0
 35
0.0
146
0.0
 13
0.0
 23
0.0
 33
0.0
 16
1.0
 26
0.0
 36
0.0
 17
0.0
 27
1.0
 37
0.0
 76
     0
330
123
  0
MLINESTYLE
  5
11C
102
{ACAD_REACTORS
330
11B
102
}
330
11B
100
AcDbMlineStyle
  2
STANDARD
 70
     0
  3

 62
   256
 51
90.0
 52
90.0
 71
     2
 49
0.5
 62
   256
  6
BYLAYER
 49
-0.5
 62
   256
  6
BYLAYER
  0
ACDBPLACEHOLDER
  5
114
102
{ACAD_REACTORS
330
113
102
}
330
113
  0
TABLESTYLE
  5
122
102
{ACAD_REACTORS
330
121
102
}
330
121
100
AcDbTableStyle
  3
Standard
 70
     0
 71
     0
 40
0.06
 41
0.06
280
     0
281
     0
  7
STANDARD
140
0.18
170
     2
 62
     0
 63
     7
283
     0
274
    -2
284
     1
 64
     0
275
    -2
285
     1
 65
     0
276
    -2
286
     1
 66
     0
277
    -2
287
     1
 67
     0
278
    -2
288
     1
 68
     0
279
    -2
289
     1
 69
     0
  7
STANDARD
140
0.25
170
     5
 62
     0
 63
     7
283
     0
274
    -2
284
     1
 64
     0
275
    -2
285
     1
 65
     0
276
    -2
286
     1
 66
     0
277
    -2
287
     1
 67
     0
278
    -2
288
     1
 68
     0
279
    -2
289
     1
 69
     0
  7
STANDARD
140
0.18
170
     5
 62
     0
 63
     7
283
     0
274
    -2
284
     1
 64
     0
275
    -2
285
     1
 65
     0
276
    -2
286
     1
 66
     0
277
    -2
287
     1
 67
     0
278
    -2
288
     1
 68
     0
279
    -2
289
     1
 69
     0
  0
DICTIONARYVAR
  5
136
102
{ACAD_REACTORS
330
135
102
}
330
135
100
DictionaryVariables
280
     0
  1
STANDARD
  0
ENDSEC
  0
EOF
