  0
SECTION
  2
HEADER
  9
$ACADVER
  1
AC1018
  9
$ACADMAINTVER
 70
    77
  9
$DWGCODEPAGE
  3
ANSI_936
  9
$INSBASE
 10
0.0
 20
0.0
 30
0.0
  9
$EXTMIN
 10
-233.8124201495
 20
-153.5
 30
0.0
  9
$EXTMAX
 10
123.686858473324
 20
153.5
 30
0.0
  9
$LIMMIN
 10
0.0
 20
0.0
  9
$LIMMAX
 10
420.0
 20
297.0
  9
$ORTHOMODE
 70
     0
  9
$REGENMODE
 70
     1
  9
$FILLMODE
 70
     1
  9
$QTEXTMODE
 70
     0
  9
$MIRRTEXT
 70
     0
  9
$LTSCALE
 40
1.0
  9
$ATTMODE
 70
     1
  9
$TEXTSIZE
 40
2.5
  9
$TRACEWID
 40
1.0
  9
$TEXTSTYLE
  7
STANDARD
  9
$CLAYER
  8
0
  9
$CELTYPE
  6
ByLayer
  9
$CECOLOR
 62
   256
  9
$CELTSCALE
 40
1.0
  9
$DISPSILH
 70
     0
  9
$DIMSCALE
 40
1.0
  9
$DIMASZ
 40
2.5
  9
$DIMEXO
 40
0.625
  9
$DIMDLI
 40
3.75
  9
$DIMRND
 40
0.0
  9
$DIMDLE
 40
0.0
  9
$DIMEXE
 40
1.25
  9
$DIMTP
 40
0.0
  9
$DIMTM
 40
0.0
  9
$DIMTXT
 40
2.5
  9
$DIMCEN
 40
2.5
  9
$DIMTSZ
 40
0.0
  9
$DIMTOL
 70
     0
  9
$DIMLIM
 70
     0
  9
$DIMTIH
 70
     0
  9
$DIMTOH
 70
     0
  9
$DIMSE1
 70
     0
  9
$DIMSE2
 70
     0
  9
$DIMTAD
 70
     1
  9
$DIMZIN
 70
     8
  9
$DIMBLK
  1

  9
$DIMASO
 70
     1
  9
$DIMSHO
 70
     1
  9
$DIMPOST
  1

  9
$DIMAPOST
  1

  9
$DIMALT
 70
     0
  9
$DIMALTD
 70
     3
  9
$DIMALTF
 40
0.03937007874016
  9
$DIMLFAC
 40
1.0
  9
$DIMTOFL
 70
     1
  9
$DIMTVP
 40
0.0
  9
$DIMTIX
 70
     0
  9
$DIMSOXD
 70
     0
  9
$DIMSAH
 70
     0
  9
$DIMBLK1
  1

  9
$DIMBLK2
  1

  9
$DIMSTYLE
  2
ISO-25
  9
$DIMCLRD
 70
     0
  9
$DIMCLRE
 70
     0
  9
$DIMCLRT
 70
     0
  9
$DIMTFAC
 40
1.0
  9
$DIMGAP
 40
0.625
  9
$DIMJUST
 70
     0
  9
$DIMSD1
 70
     0
  9
$DIMSD2
 70
     0
  9
$DIMTOLJ
 70
     1
  9
$DIMTZIN
 70
     0
  9
$DIMALTZ
 70
     0
  9
$DIMALTTZ
 70
     0
  9
$DIMUPT
 70
     0
  9
$DIMDEC
 70
     4
  9
$DIMTDEC
 70
     4
  9
$DIMALTU
 70
     2
  9
$DIMALTTD
 70
     2
  9
$DIMTXSTY
  7
STANDARD
  9
$DIMAUNIT
 70
     0
  9
$DIMADEC
 70
     0
  9
$DIMALTRND
 40
0.0
  9
$DIMAZIN
 70
     0
  9
$DIMDSEP
 70
    46
  9
$DIMATFIT
 70
     3
  9
$DIMFRAC
 70
     0
  9
$DIMLDRBLK
  1

  9
$DIMLUNIT
 70
     2
  9
$DIMLWD
 70
    -2
  9
$DIMLWE
 70
    -2
  9
$DIMTMOVE
 70
     0
  9
$LUNITS
 70
     2
  9
$LUPREC
 70
     4
  9
$SKETCHINC
 40
1.0
  9
$FILLETRAD
 40
0.0
  9
$AUNITS
 70
     0
  9
$AUPREC
 70
     0
  9
$MENU
  1
.
  9
$ELEVATION
 40
0.0
  9
$PELEVATION
 40
0.0
  9
$THICKNESS
 40
0.0
  9
$LIMCHECK
 70
     0
  9
$CHAMFERA
 40
0.0
  9
$CHAMFERB
 40
0.0
  9
$CHAMFERC
 40
0.0
  9
$CHAMFERD
 40
0.0
  9
$SKPOLY
 70
     0
  9
$TDCREATE
 40
2456997.676706910
  9
$TDUCREATE
 40
2456997.343373576
  9
$TDUPDATE
 40
2456997.680113438
  9
$TDUUPDATE
 40
2456997.346780104
  9
$TDINDWG
 40
0.0010312963
  9
$TDUSRTIMER
 40
0.0010311806
  9
$USRTIMER
 70
     1
  9
$ANGBASE
 50
0.0
  9
$ANGDIR
 70
     0
  9
$PDMODE
 70
     0
  9
$PDSIZE
 40
0.0
  9
$PLINEWID
 40
0.0
  9
$SPLFRAME
 70
     0
  9
$SPLINETYPE
 70
     6
  9
$SPLINESEGS
 70
     8
  9
$HANDSEED
  5
2409
  9
$SURFTAB1
 70
     6
  9
$SURFTAB2
 70
     6
  9
$SURFTYPE
 70
     6
  9
$SURFU
 70
     6
  9
$SURFV
 70
     6
  9
$UCSBASE
  2

  9
$UCSNAME
  2

  9
$UCSORG
 10
0.0
 20
0.0
 30
0.0
  9
$UCSXDIR
 10
1.0
 20
0.0
 30
0.0
  9
$UCSYDIR
 10
0.0
 20
1.0
 30
0.0
  9
$UCSORTHOREF
  2

  9
$UCSORTHOVIEW
 70
     0
  9
$UCSORGTOP
 10
0.0
 20
0.0
 30
0.0
  9
$UCSORGBOTTOM
 10
0.0
 20
0.0
 30
0.0
  9
$UCSORGLEFT
 10
0.0
 20
0.0
 30
0.0
  9
$UCSORGRIGHT
 10
0.0
 20
0.0
 30
0.0
  9
$UCSORGFRONT
 10
0.0
 20
0.0
 30
0.0
  9
$UCSORGBACK
 10
0.0
 20
0.0
 30
0.0
  9
$PUCSBASE
  2

  9
$PUCSNAME
  2

  9
$PUCSORG
 10
0.0
 20
0.0
 30
0.0
  9
$PUCSXDIR
 10
1.0
 20
0.0
 30
0.0
  9
$PUCSYDIR
 10
0.0
 20
1.0
 30
0.0
  9
$PUCSORTHOREF
  2

  9
$PUCSORTHOVIEW
 70
     0
  9
$PUCSORGTOP
 10
0.0
 20
0.0
 30
0.0
  9
$PUCSORGBOTTOM
 10
0.0
 20
0.0
 30
0.0
  9
$PUCSORGLEFT
 10
0.0
 20
0.0
 30
0.0
  9
$PUCSORGRIGHT
 10
0.0
 20
0.0
 30
0.0
  9
$PUCSORGFRONT
 10
0.0
 20
0.0
 30
0.0
  9
$PUCSORGBACK
 10
0.0
 20
0.0
 30
0.0
  9
$USERI1
 70
     0
  9
$USERI2
 70
     0
  9
$USERI3
 70
     0
  9
$USERI4
 70
     0
  9
$USERI5
 70
     0
  9
$USERR1
 40
0.0
  9
$USERR2
 40
0.0
  9
$USERR3
 40
0.0
  9
$USERR4
 40
0.0
  9
$USERR5
 40
0.0
  9
$WORLDVIEW
 70
     1
  9
$SHADEDGE
 70
     3
  9
$SHADEDIF
 70
    70
  9
$TILEMODE
 70
     1
  9
$MAXACTVP
 70
    64
  9
$PINSBASE
 10
0.0
 20
0.0
 30
0.0
  9
$PLIMCHECK
 70
     0
  9
$PEXTMIN
 10
0.0
 20
0.0
 30
0.0
  9
$PEXTMAX
 10
0.0
 20
0.0
 30
0.0
  9
$PLIMMIN
 10
0.0
 20
0.0
  9
$PLIMMAX
 10
12.0
 20
9.0
  9
$UNITMODE
 70
     0
  9
$VISRETAIN
 70
     1
  9
$PLINEGEN
 70
     0
  9
$PSLTSCALE
 70
     1
  9
$TREEDEPTH
 70
  3020
  9
$CMLSTYLE
  2
Standard
  9
$CMLJUST
 70
     0
  9
$CMLSCALE
 40
1.0
  9
$PROXYGRAPHICS
 70
     1
  9
$MEASUREMENT
 70
     1
  9
$CELWEIGHT
370
    -1
  9
$ENDCAPS
280
     0
  9
$JOINSTYLE
280
     0
  9
$LWDISPLAY
290
     0
  9
$INSUNITS
 70
     0
  9
$HYPERLINKBASE
  1

  9
$STYLESHEET
  1

  9
$XEDIT
290
     1
  9
$CEPSNTYPE
380
     0
  9
$PSTYLEMODE
290
     1
  9
$FINGERPRINTGUID
  2
{1F2D6530-6BF2-4D5E-922F-A9C54F637010}
  9
$VERSIONGUID
  2
{15AD9CB5-51D1-451C-B472-5DB36EFAD6AD}
  9
$EXTNAMES
290
     1
  9
$PSVPSCALE
 40
0.0
  9
$OLESTARTUP
290
     0
  9
$SORTENTS
280
   127
  9
$INDEXCTL
280
     0
  9
$HIDETEXT
280
     0
  9
$XCLIPFRAME
290
     0
  9
$HALOGAP
280
     0
  9
$OBSCOLOR
 70
   257
  9
$OBSLTYPE
280
     0
  9
$INTERSECTIONDISPLAY
280
     0
  9
$INTERSECTIONCOLOR
 70
   257
  9
$DIMASSOC
280
     1
  9
$PROJECTNAME
  1

  0
ENDSEC
  0
SECTION
  2
CLASSES
  0
CLASS
  1
ACDBDICTIONARYWDFLT
  2
AcDbDictionaryWithDefault
  3
ObjectDBX Classes
 90
        0
 91
        1
280
     0
281
     0
  0
CLASS
  1
TABLESTYLE
  2
AcDbTableStyle
  3
ObjectDBX Classes
 90
     2047
 91
        1
280
     0
281
     0
  0
CLASS
  1
DICTIONARYVAR
  2
AcDbDictionaryVar
  3
ObjectDBX Classes
 90
        0
 91
        1
280
     0
281
     0
  0
ENDSEC
  0
SECTION
  2
TABLES
  0
TABLE
  2
VPORT
  5
10D
330
0
100
AcDbSymbolTable
 70
     2
  0
VPORT
  5
137
330
10D
100
AcDbSymbolTableRecord
100
AcDbViewportTableRecord
  2
*Active
 70
     0
 10
0.0
 20
0.0
 11
1.0
 21
1.0
 12
-55.0627808380882
 22
-4.2632564145606E-14
 13
0.0
 23
0.0
 14
10.0
 24
10.0
 15
10.0
 25
10.0
 16
0.0
 26
0.0
 36
1.0
 17
0.0
 27
0.0
 37
0.0
 40
551.708552688342
 41
2.435135135135135
 42
50.0
 43
0.0
 44
0.0
 50
0.0
 51
0.0
 71
     0
 72
  1000
 73
     1
 74
     3
 75
     0
 76
     0
 77
     0
 78
     0
281
     0
 65
     1
110
0.0
120
0.0
130
0.0
111
1.0
121
0.0
131
0.0
112
0.0
122
1.0
132
0.0
 79
     0
146
0.0
  0
ENDTAB
  0
TABLE
  2
LTYPE
  5
10A
330
0
100
AcDbSymbolTable
 70
     1
  0
LTYPE
  5
118
330
10A
100
AcDbSymbolTableRecord
100
AcDbLinetypeTableRecord
  2
ByBlock
 70
     0
  3

 72
    65
 73
     0
 40
0.0
  0
LTYPE
  5
119
330
10A
100
AcDbSymbolTableRecord
100
AcDbLinetypeTableRecord
  2
ByLayer
 70
     0
  3

 72
    65
 73
     0
 40
0.0
  0
LTYPE
  5
11A
330
10A
100
AcDbSymbolTableRecord
100
AcDbLinetypeTableRecord
  2
CONTINUOUS
 70
     0
  3
Solid line
 72
    65
 73
     0
 40
0.0
  0
ENDTAB
  0
TABLE
  2
LAYER
  5
107
330
0
100
AcDbSymbolTable
 70
     1
  0
LAYER
  5
115
330
107
100
AcDbSymbolTableRecord
100
AcDbLayerTableRecord
  2
0
 70
     0
 62
     7
  6
CONTINUOUS
370
    -3
390
114
  0
ENDTAB
  0
TABLE
  2
STYLE
  5
108
330
0
100
AcDbSymbolTable
 70
     1
  0
STYLE
  5
116
330
108
100
AcDbSymbolTableRecord
100
AcDbTextStyleTableRecord
  2
STANDARD
 70
     0
 40
0.0
 41
1.0
 50
0.0
 71
     0
 42
2.5
  3
txt
  4
gbcbig.shx
  0
ENDTAB
  0
TABLE
  2
VIEW
  5
10B
330
0
100
AcDbSymbolTable
 70
     0
  0
ENDTAB
  0
TABLE
  2
UCS
  5
10C
330
0
100
AcDbSymbolTable
 70
     0
  0
ENDTAB
  0
TABLE
  2
APPID
  5
10E
330
0
100
AcDbSymbolTable
 70
     2
  0
APPID
  5
117
330
10E
100
AcDbSymbolTableRecord
100
AcDbRegAppTableRecord
  2
ACAD
 70
     0
  0
APPID
  5
12C
330
10E
100
AcDbSymbolTableRecord
100
AcDbRegAppTableRecord
  2
ACAD_PSEXT
 70
     0
  0
APPID
  5
112C
330
10E
100
AcDbSymbolTableRecord
100
AcDbRegAppTableRecord
  2
FS_CYPCUT
 70
     0
  0
ENDTAB
  0
TABLE
  2
DIMSTYLE
  5
10F
330
0
100
AcDbSymbolTable
 70
     1
100
AcDbDimStyleTable
 71
     0
  0
DIMSTYLE
105
12D
330
10F
100
AcDbSymbolTableRecord
100
AcDbDimStyleTableRecord
  2
ISO-25
 70
     0
 41
2.5
 42
0.625
 43
3.75
 44
1.25
 73
     0
 74
     0
 77
     1
 78
     8
140
2.5
141
2.5
143
0.03937007874016
147
0.625
171
     3
172
     1
274
     3
279
     2
284
     8
285
     8
286
     8
340
116
  0
ENDTAB
  0
TABLE
  2
BLOCK_RECORD
  5
106
330
0
100
AcDbSymbolTable
 70
     2
  0
BLOCK_RECORD
  5
127
330
106
100
AcDbSymbolTableRecord
100
AcDbBlockTableRecord
  2
*Model_Space
340
12A
  0
BLOCK_RECORD
  5
123
330
106
100
AcDbSymbolTableRecord
100
AcDbBlockTableRecord
  2
*Paper_Space
340
126
  0
BLOCK_RECORD
  5
130
330
106
100
AcDbSymbolTableRecord
100
AcDbBlockTableRecord
  2
$MODEL_SPACE
340
0
  0
BLOCK_RECORD
  5
132
330
106
100
AcDbSymbolTableRecord
100
AcDbBlockTableRecord
  2
$PAPER_SPACE
340
0
  0
ENDTAB
  0
ENDSEC
  0
SECTION
  2
BLOCKS
  0
BLOCK
  5
128
330
127
100
AcDbEntity
  8
0
100
AcDbBlockBegin
  2
*Model_Space
 70
     0
 10
0.0
 20
0.0
 30
0.0
  3
*Model_Space
  1

  0
ENDBLK
  5
129
330
127
100
AcDbEntity
  8
0
100
AcDbBlockEnd
  0
BLOCK
  5
124
330
123
100
AcDbEntity
 67
     1
  8
0
100
AcDbBlockBegin
  2
*Paper_Space
 70
     0
 10
0.0
 20
0.0
 30
0.0
  3
*Paper_Space
  1

  0
ENDBLK
  5
125
330
123
100
AcDbEntity
 67
     1
  8
0
100
AcDbBlockEnd
  0
BLOCK
  5
131
330
130
100
AcDbEntity
  8
0
100
AcDbBlockBegin
  2
$MODEL_SPACE
 70
     0
 10
0.0
 20
0.0
 30
0.0
  3
$MODEL_SPACE
  1

  0
ENDBLK
  5
21
330
130
100
AcDbEntity
  8
0
100
AcDbBlockEnd
  0
BLOCK
  5
133
330
132
100
AcDbEntity
  8
0
100
AcDbBlockBegin
  2
$PAPER_SPACE
 70
     0
 10
0.0
 20
0.0
 30
0.0
  3
$PAPER_SPACE
  1

  0
ENDBLK
  5
D5
330
132
100
AcDbEntity
  8
0
100
AcDbBlockEnd
       0
ENDSEC
       0
SECTION
       2
ENTITIES
       0
LINE
       5
2000
     100
AcDbEntity
       8
2
     100
AcDbLine
      10
-55.0627808381
      20
-143.85
      30
0
      11
-55.0627808381
      21
143.85
      31
0
    1001
FS_CYPCUT
    1000
Channel
    1070
2
    1000
LeadIn
    1002
{
    1070
3
    1040
0
    1040
1.5707963267949
    1040
0.5
    1040
0.5
    1070
0
    1040
0.5
    1070
0
    1002
}
    1000
LeadOut
    1002
{
    1070
0
    1040
0
    1040
0.523598775598299
    1040
2
    1070
0
    1002
}
    1000
IsFill
    1070
0
    1000
PathStart
    1040
0
    1000
ToolCompensation
    1002
{
    1070
0
    1040
0
    1070
0
    1002
}
       0
SPLINE
       5
2001
     100
AcDbEntity
       8
1
     100
AcDbSpline
      70
0
      71
3
      72
476
      73
472
      74
0
      40
0
      40
0
      40
0
      40
0
      40
0.00847457627118644
      40
0.00847457627118644
      40
0.00847457627118644
      40
0.00847457627118644
      40
0.0169491525423729
      40
0.0169491525423729
      40
0.0169491525423729
      40
0.0169491525423729
      40
0.0254237288135593
      40
0.0254237288135593
      40
0.0254237288135593
      40
0.0254237288135593
      40
0.0338983050847458
      40
0.0338983050847458
      40
0.0338983050847458
      40
0.0338983050847458
      40
0.0423728813559322
      40
0.0423728813559322
      40
0.0423728813559322
      40
0.0423728813559322
      40
0.0508474576271186
      40
0.0508474576271186
      40
0.0508474576271186
      40
0.0508474576271186
      40
0.0593220338983051
      40
0.0593220338983051
      40
0.0593220338983051
      40
0.0593220338983051
      40
0.0677966101694915
      40
0.0677966101694915
      40
0.0677966101694915
      40
0.0677966101694915
      40
0.076271186440678
      40
0.076271186440678
      40
0.076271186440678
      40
0.076271186440678
      40
0.0847457627118644
      40
0.0847457627118644
      40
0.0847457627118644
      40
0.0847457627118644
      40
0.0932203389830508
      40
0.0932203389830508
      40
0.0932203389830508
      40
0.0932203389830508
      40
0.101694915254237
      40
0.101694915254237
      40
0.101694915254237
      40
0.101694915254237
      40
0.110169491525424
      40
0.110169491525424
      40
0.110169491525424
      40
0.110169491525424
      40
0.11864406779661
      40
0.11864406779661
      40
0.11864406779661
      40
0.11864406779661
      40
0.127118644067797
      40
0.127118644067797
      40
0.127118644067797
      40
0.127118644067797
      40
0.135593220338983
      40
0.135593220338983
      40
0.135593220338983
      40
0.135593220338983
      40
0.144067796610169
      40
0.144067796610169
      40
0.144067796610169
      40
0.144067796610169
      40
0.152542372881356
      40
0.152542372881356
      40
0.152542372881356
      40
0.152542372881356
      40
0.161016949152542
      40
0.161016949152542
      40
0.161016949152542
      40
0.161016949152542
      40
0.169491525423729
      40
0.169491525423729
      40
0.169491525423729
      40
0.169491525423729
      40
0.177966101694915
      40
0.177966101694915
      40
0.177966101694915
      40
0.177966101694915
      40
0.186440677966102
      40
0.186440677966102
      40
0.186440677966102
      40
0.186440677966102
      40
0.194915254237288
      40
0.194915254237288
      40
0.194915254237288
      40
0.194915254237288
      40
0.203389830508475
      40
0.203389830508475
      40
0.203389830508475
      40
0.203389830508475
      40
0.211864406779661
      40
0.211864406779661
      40
0.211864406779661
      40
0.211864406779661
      40
0.220338983050847
      40
0.220338983050847
      40
0.220338983050847
      40
0.220338983050847
      40
0.228813559322034
      40
0.228813559322034
      40
0.228813559322034
      40
0.228813559322034
      40
0.23728813559322
      40
0.23728813559322
      40
0.23728813559322
      40
0.23728813559322
      40
0.245762711864407
      40
0.245762711864407
      40
0.245762711864407
      40
0.245762711864407
      40
0.254237288135593
      40
0.254237288135593
      40
0.254237288135593
      40
0.254237288135593
      40
0.26271186440678
      40
0.26271186440678
      40
0.26271186440678
      40
0.26271186440678
      40
0.271186440677966
      40
0.271186440677966
      40
0.271186440677966
      40
0.271186440677966
      40
0.279661016949153
      40
0.279661016949153
      40
0.279661016949153
      40
0.279661016949153
      40
0.288135593220339
      40
0.288135593220339
      40
0.288135593220339
      40
0.288135593220339
      40
0.296610169491525
      40
0.296610169491525
      40
0.296610169491525
      40
0.296610169491525
      40
0.305084745762712
      40
0.305084745762712
      40
0.305084745762712
      40
0.305084745762712
      40
0.313559322033898
      40
0.313559322033898
      40
0.313559322033898
      40
0.313559322033898
      40
0.322033898305085
      40
0.322033898305085
      40
0.322033898305085
      40
0.322033898305085
      40
0.330508474576271
      40
0.330508474576271
      40
0.330508474576271
      40
0.330508474576271
      40
0.338983050847458
      40
0.338983050847458
      40
0.338983050847458
      40
0.338983050847458
      40
0.347457627118644
      40
0.347457627118644
      40
0.347457627118644
      40
0.347457627118644
      40
0.355932203389831
      40
0.355932203389831
      40
0.355932203389831
      40
0.355932203389831
      40
0.364406779661017
      40
0.364406779661017
      40
0.364406779661017
      40
0.364406779661017
      40
0.372881355932203
      40
0.372881355932203
      40
0.372881355932203
      40
0.372881355932203
      40
0.38135593220339
      40
0.38135593220339
      40
0.38135593220339
      40
0.38135593220339
      40
0.389830508474576
      40
0.389830508474576
      40
0.389830508474576
      40
0.389830508474576
      40
0.398305084745763
      40
0.398305084745763
      40
0.398305084745763
      40
0.398305084745763
      40
0.406779661016949
      40
0.406779661016949
      40
0.406779661016949
      40
0.406779661016949
      40
0.415254237288136
      40
0.415254237288136
      40
0.415254237288136
      40
0.415254237288136
      40
0.423728813559322
      40
0.423728813559322
      40
0.423728813559322
      40
0.423728813559322
      40
0.432203389830508
      40
0.432203389830508
      40
0.432203389830508
      40
0.432203389830508
      40
0.440677966101695
      40
0.440677966101695
      40
0.440677966101695
      40
0.440677966101695
      40
0.449152542372881
      40
0.449152542372881
      40
0.449152542372881
      40
0.449152542372881
      40
0.457627118644068
      40
0.457627118644068
      40
0.457627118644068
      40
0.457627118644068
      40
0.466101694915254
      40
0.466101694915254
      40
0.466101694915254
      40
0.466101694915254
      40
0.474576271186441
      40
0.474576271186441
      40
0.474576271186441
      40
0.474576271186441
      40
0.483050847457627
      40
0.483050847457627
      40
0.483050847457627
      40
0.483050847457627
      40
0.491525423728814
      40
0.491525423728814
      40
0.491525423728814
      40
0.491525423728814
      40
0.5
      40
0.5
      40
0.5
      40
0.5
      40
0.508474576271186
      40
0.508474576271186
      40
0.508474576271186
      40
0.508474576271186
      40
0.516949152542373
      40
0.516949152542373
      40
0.516949152542373
      40
0.516949152542373
      40
0.525423728813559
      40
0.525423728813559
      40
0.525423728813559
      40
0.525423728813559
      40
0.533898305084746
      40
0.533898305084746
      40
0.533898305084746
      40
0.533898305084746
      40
0.542372881355932
      40
0.542372881355932
      40
0.542372881355932
      40
0.542372881355932
      40
0.550847457627119
      40
0.550847457627119
      40
0.550847457627119
      40
0.550847457627119
      40
0.559322033898305
      40
0.559322033898305
      40
0.559322033898305
      40
0.559322033898305
      40
0.567796610169492
      40
0.567796610169492
      40
0.567796610169492
      40
0.567796610169492
      40
0.576271186440678
      40
0.576271186440678
      40
0.576271186440678
      40
0.576271186440678
      40
0.584745762711864
      40
0.584745762711864
      40
0.584745762711864
      40
0.584745762711864
      40
0.593220338983051
      40
0.593220338983051
      40
0.593220338983051
      40
0.593220338983051
      40
0.601694915254237
      40
0.601694915254237
      40
0.601694915254237
      40
0.601694915254237
      40
0.610169491525424
      40
0.610169491525424
      40
0.610169491525424
      40
0.610169491525424
      40
0.61864406779661
      40
0.61864406779661
      40
0.61864406779661
      40
0.61864406779661
      40
0.627118644067797
      40
0.627118644067797
      40
0.627118644067797
      40
0.627118644067797
      40
0.635593220338983
      40
0.635593220338983
      40
0.635593220338983
      40
0.635593220338983
      40
0.644067796610169
      40
0.644067796610169
      40
0.644067796610169
      40
0.644067796610169
      40
0.652542372881356
      40
0.652542372881356
      40
0.652542372881356
      40
0.652542372881356
      40
0.661016949152542
      40
0.661016949152542
      40
0.661016949152542
      40
0.661016949152542
      40
0.669491525423729
      40
0.669491525423729
      40
0.669491525423729
      40
0.669491525423729
      40
0.677966101694915
      40
0.677966101694915
      40
0.677966101694915
      40
0.677966101694915
      40
0.686440677966102
      40
0.686440677966102
      40
0.686440677966102
      40
0.686440677966102
      40
0.694915254237288
      40
0.694915254237288
      40
0.694915254237288
      40
0.694915254237288
      40
0.703389830508475
      40
0.703389830508475
      40
0.703389830508475
      40
0.703389830508475
      40
0.711864406779661
      40
0.711864406779661
      40
0.711864406779661
      40
0.711864406779661
      40
0.720338983050847
      40
0.720338983050847
      40
0.720338983050847
      40
0.720338983050847
      40
0.728813559322034
      40
0.728813559322034
      40
0.728813559322034
      40
0.728813559322034
      40
0.73728813559322
      40
0.73728813559322
      40
0.73728813559322
      40
0.73728813559322
      40
0.745762711864407
      40
0.745762711864407
      40
0.745762711864407
      40
0.745762711864407
      40
0.754237288135593
      40
0.754237288135593
      40
0.754237288135593
      40
0.754237288135593
      40
0.76271186440678
      40
0.76271186440678
      40
0.76271186440678
      40
0.76271186440678
      40
0.771186440677966
      40
0.771186440677966
      40
0.771186440677966
      40
0.771186440677966
      40
0.779661016949153
      40
0.779661016949153
      40
0.779661016949153
      40
0.779661016949153
      40
0.788135593220339
      40
0.788135593220339
      40
0.788135593220339
      40
0.788135593220339
      40
0.796610169491525
      40
0.796610169491525
      40
0.796610169491525
      40
0.796610169491525
      40
0.805084745762712
      40
0.805084745762712
      40
0.805084745762712
      40
0.805084745762712
      40
0.813559322033898
      40
0.813559322033898
      40
0.813559322033898
      40
0.813559322033898
      40
0.822033898305085
      40
0.822033898305085
      40
0.822033898305085
      40
0.822033898305085
      40
0.830508474576271
      40
0.830508474576271
      40
0.830508474576271
      40
0.830508474576271
      40
0.838983050847458
      40
0.838983050847458
      40
0.838983050847458
      40
0.838983050847458
      40
0.847457627118644
      40
0.847457627118644
      40
0.847457627118644
      40
0.847457627118644
      40
0.855932203389831
      40
0.855932203389831
      40
0.855932203389831
      40
0.855932203389831
      40
0.864406779661017
      40
0.864406779661017
      40
0.864406779661017
      40
0.864406779661017
      40
0.872881355932203
      40
0.872881355932203
      40
0.872881355932203
      40
0.872881355932203
      40
0.88135593220339
      40
0.88135593220339
      40
0.88135593220339
      40
0.88135593220339
      40
0.889830508474576
      40
0.889830508474576
      40
0.889830508474576
      40
0.889830508474576
      40
0.898305084745763
      40
0.898305084745763
      40
0.898305084745763
      40
0.898305084745763
      40
0.906779661016949
      40
0.906779661016949
      40
0.906779661016949
      40
0.906779661016949
      40
0.915254237288136
      40
0.915254237288136
      40
0.915254237288136
      40
0.915254237288136
      40
0.923728813559322
      40
0.923728813559322
      40
0.923728813559322
      40
0.923728813559322
      40
0.932203389830508
      40
0.932203389830508
      40
0.932203389830508
      40
0.932203389830508
      40
0.940677966101695
      40
0.940677966101695
      40
0.940677966101695
      40
0.940677966101695
      40
0.949152542372881
      40
0.949152542372881
      40
0.949152542372881
      40
0.949152542372881
      40
0.957627118644068
      40
0.957627118644068
      40
0.957627118644068
      40
0.957627118644068
      40
0.966101694915254
      40
0.966101694915254
      40
0.966101694915254
      40
0.966101694915254
      40
0.974576271186441
      40
0.974576271186441
      40
0.974576271186441
      40
0.974576271186441
      40
0.983050847457627
      40
0.983050847457627
      40
0.983050847457627
      40
0.983050847457627
      40
0.991525423728814
      40
0.991525423728814
      40
0.991525423728814
      40
0.991525423728814
      40
1
      40
1
      40
1
      40
1
      10
123.686858473324
      20
133.428932188135
      30
0
      10
123.685821010117
      20
133.469811883731
      30
0
      10
123.68478354691
      20
133.510691579328
      30
0
      10
123.683746083703
      20
133.551571274924
      30
0
      10
123.683746083703
      20
133.551571274924
      30
0
      10
123.663819432396
      20
134.225696781142
      30
0
      10
123.51534202945
      20
134.897692170761
      30
0
      10
123.232719111258
      20
135.510978541831
      30
0
      10
123.232719111258
      20
135.510978541831
      30
0
      10
123.045358413339
      20
135.920089328605
      30
0
      10
122.80072951616
      20
136.302527453128
      30
0
      10
122.511293785941
      20
136.646896991641
      30
0
      10
122.511293785941
      20
136.646896991641
      30
0
      10
122.445262197224
      20
136.724922306817
      30
0
      10
122.376280855219
      20
136.800363773333
      30
0
      10
122.306451394622
      20
136.875061669837
      30
0
      10
122.306451394622
      20
136.875061669837
      30
0
      10
122.278429861472
      20
136.904862230783
      30
0
      10
122.250408328322
      20
136.93466279173
      30
0
      10
122.222386795171
      20
136.964463352677
      30
0
      10
122.2223867952
      20
136.9644633527
      30
0
      10
117.194697478967
      20
141.988152759833
      30
0
      10
112.167008162733
      20
147.011842166967
      30
0
      10
107.1393188465
      20
152.0355315741
      30
0
      10
107.139318846469
      20
152.035531574075
      30
0
      10
107.10958181006
      20
152.063733932862
      30
0
      10
107.079844773651
      20
152.091936291649
      30
0
      10
107.050107737243
      20
152.120138650436
      30
0
      10
107.050107737243
      20
152.120138650436
      30
0
      10
106.557723901883
      20
152.583211986573
      30
0
      10
105.975744103096
      20
152.953380776722
      30
0
      10
105.340587254673
      20
153.187017735353
      30
0
      10
105.340587254673
      20
153.187017735353
      30
0
      10
104.917710082713
      20
153.343706227503
      30
0
      10
104.473266171533
      20
153.441009416546
      30
0
      10
104.024090852734
      20
153.479782790184
      30
0
      10
104.024090852734
      20
153.479782790184
      30
0
      10
103.921998000434
      20
153.488247285994
      30
0
      10
103.819647829091
      20
153.49280415485
      30
0
      10
103.717224135696
      20
153.496237105701
      30
0
      10
103.717224135696
      20
153.496237105701
      30
0
      10
103.676246816299
      20
153.497491403801
      30
0
      10
103.635269496902
      20
153.498745701901
      30
0
      10
103.594292177505
      20
153.5
      30
0
      10
103.5942921775
      20
153.5
      30
0
      10
53.8188187639883
      20
153.5
      30
0
      10
4.04334535047664
      20
153.5
      30
0
      10
-45.732128063035
      20
153.5
      30
0
      10
-45.732128063035
      20
153.5
      30
0
      10
-45.7648085983738
      20
153.498294288495
      30
0
      10
-45.7974891337123
      20
153.496588576989
      30
0
      10
-45.8300280855421
      20
153.493474550954
      30
0
      10
-45.8300280855421
      20
153.493474550954
      30
0
      10
-45.8544322886853
      20
153.49116219817
      30
0
      10
-45.8787569163679
      20
153.487916748869
      30
0
      10
-45.9029419538195
      20
153.483757789368
      30
0
      10
-45.9029419538195
      20
153.483757789368
      30
0
      10
-45.9513074180372
      20
153.475402224796
      30
0
      10
-45.9991375979906
      20
153.463788651107
      30
0
      10
-46.0458727417304
      20
153.448878950483
      30
0
      10
-46.0458727417304
      20
153.448878950483
      30
0
      10
-46.1627996493495
      20
153.411696370593
      30
0
      10
-46.2723104433143
      20
153.351511296734
      30
0
      10
-46.3666932117468
      20
153.273145883192
      30
0
      10
-46.3666932117468
      20
153.273145883192
      30
0
      10
-46.4232965587863
      20
153.226178854865
      30
0
      10
-46.4751920547444
      20
153.173278680299
      30
0
      10
-46.5210729971752
      20
153.115596764153
      30
0
      10
-46.5210729971752
      20
153.115596764153
      30
0
      10
-46.6151088953359
      20
152.997213749659
      30
0
      10
-46.6819066695653
      20
152.855991693294
      30
0
      10
-46.7107844098014
      20
152.70733576816
      30
0
      10
-46.7107844098014
      20
152.70733576816
      30
0
      10
-46.7130843024852
      20
152.695298502143
      30
0
      10
-46.7151084259252
      20
152.683219134121
      30
0
      10
-46.7169045063057
      20
152.671105133895
      30
0
      10
-46.7169045063057
      20
152.671105133895
      30
0
      10
-46.7228917036662
      20
152.630725121936
      30
0
      10
-46.7263490306373
      20
152.589960139654
      30
0
      10
-46.7290835374971
      20
152.549085165851
      30
0
      10
-46.7290835374971
      20
152.549085165851
      30
0
      10
-46.7301002394291
      20
152.5327234439
      30
0
      10
-46.7311169413612
      20
152.51636172195
      30
0
      10
-46.7321336432932
      20
152.5
      30
0
      10
-46.7321336433
      20
152.5
      30
0
      10
-46.7321336433
      20
149.616666666667
      30
0
      10
-46.7321336433
      20
146.733333333333
      30
0
      10
-46.7321336433
      20
143.85
      30
0
      10
-46.7321336433
      20
143.85
      30
0
      10
-57.1031185719
      20
143.85
      30
0
      10
-67.4741035005
      20
143.85
      30
0
      10
-77.8450884291
      20
143.85
      30
0
      10
-77.8450884291
      20
143.85
      30
0
      10
-77.8450884290854
      20
146.733333333333
      30
0
      10
-77.8450884290708
      20
149.616666666667
      30
0
      10
-77.8450884290562
      20
152.5
      30
0
      10
-77.8450884290562
      20
152.5
      30
0
      10
-77.8467942564969
      20
152.532680529968
      30
0
      10
-77.8485000839373
      20
152.565361059936
      30
0
      10
-77.8516142394469
      20
152.597899999501
      30
0
      10
-77.8516142394469
      20
152.597899999501
      30
0
      10
-77.8539266892636
      20
152.622304193526
      30
0
      10
-77.8571722443847
      20
152.64662880772
      30
0
      10
-77.8613313151492
      20
152.670813826546
      30
0
      10
-77.8613313151492
      20
152.670813826546
      30
0
      10
-77.869687102877
      20
152.719179253435
      30
0
      10
-77.8813009202748
      20
152.767009376672
      30
0
      10
-77.8962108806951
      20
152.813744438031
      30
0
      10
-77.8962108806951
      20
152.813744438031
      30
0
      10
-77.9333941106849
      20
152.930671145694
      30
0
      10
-77.9935799273938
      20
153.040181542839
      30
0
      10
-78.0719459347718
      20
153.134563814769
      30
0
      10
-78.0719459347718
      20
153.134563814769
      30
0
      10
-78.1189133166248
      20
153.191166869619
      30
0
      10
-78.1718138073463
      20
153.243062043666
      30
0
      10
-78.2294960115972
      20
153.288942625268
      30
0
      10
-78.2294960115972
      20
153.288942625268
      30
0
      10
-78.3478796207452
      20
153.382977789256
      30
0
      10
-78.4891020926305
      20
153.449774626357
      30
0
      10
-78.6377581479391
      20
153.478651638349
      30
0
      10
-78.6377581479391
      20
153.478651638349
      30
0
      10
-78.6497954253239
      20
153.480951472184
      30
0
      10
-78.6618748031547
      20
153.482975538692
      30
0
      10
-78.6739888119085
      20
153.484771563853
      30
0
      10
-78.6739888119085
      20
153.484771563853
      30
0
      10
-78.7143688522904
      20
153.490758577111
      30
0
      10
-78.7551338487444
      20
153.494215738447
      30
0
      10
-78.7960088326473
      20
153.496950084947
      30
0
      10
-78.7960088326473
      20
153.496950084947
      30
0
      10
-78.812370558203
      20
153.497966723298
      30
0
      10
-78.8287322837588
      20
153.498983361649
      30
0
      10
-78.8450940093145
      20
153.5
      30
0
      10
-78.8450940093
      20
153.5
      30
0
      10
-128.8340910358
      20
153.5
      30
0
      10
-178.8230880623
      20
153.5
      30
0
      10
-228.8120850888
      20
153.5
      30
0
      10
-228.812085088798
      20
153.5
      30
0
      10
-228.852944845857
      20
153.498963461595
      30
0
      10
-228.893804602915
      20
153.49792692319
      30
0
      10
-228.934664359974
      20
153.496890384785
      30
0
      10
-228.934664359974
      20
153.496890384785
      30
0
      10
-228.975498183788
      20
153.495245391432
      30
0
      10
-229.016332007602
      20
153.493600398078
      30
0
      10
-229.057165831417
      20
153.491955404724
      30
0
      10
-229.057165831417
      20
153.491955404724
      30
0
      10
-229.077565205896
      20
153.490749278796
      30
0
      10
-229.097964580376
      20
153.489543152867
      30
0
      10
-229.118363954856
      20
153.488337026939
      30
0
      10
-229.118363954856
      20
153.488337026939
      30
0
      10
-229.128602708232
      20
153.488464985106
      30
0
      10
-229.322213885145
      20
153.473133384785
      30
0
      10
-229.423520031301
      20
153.459540709602
      30
0
      10
-229.423520031301
      20
153.459540709602
      30
0
      10
-229.585789812871
      20
153.439670194255
      30
0
      10
-229.747145103214
      20
153.412155194006
      30
0
      10
-229.906784570526
      20
153.376887785276
      30
0
      10
-229.906784570526
      20
153.376887785276
      30
0
      10
-230.186166047399
      20
153.315201478163
      30
0
      10
-230.460208127158
      20
153.229304845564
      30
0
      10
-230.724583072183
      20
153.119883972549
      30
0
      10
-230.724583072183
      20
153.119883972549
      30
0
      10
-230.837944258388
      20
153.073045263001
      30
0
      10
-230.949709026312
      20
153.022043631112
      30
0
      10
-231.05949528834
      20
152.966993093564
      30
0
      10
-231.05949528834
      20
152.966993093564
      30
0
      10
-231.425693281883
      20
152.783696179392
      30
0
      10
-231.768764086142
      20
152.554450186689
      30
0
      10
-232.078155990495
      20
152.286503117934
      30
0
      10
-232.078155990495
      20
152.286503117934
      30
0
      10
-232.263911782617
      20
152.125834144862
      30
0
      10
-232.438075670648
      20
151.951690247484
      30
0
      10
-232.598768071146
      20
151.765941498318
      30
0
      10
-232.598768071146
      20
151.765941498318
      30
0
      10
-232.866778053365
      20
151.456554341916
      30
0
      10
-233.09594285881
      20
151.113525886793
      30
0
      10
-233.279240854162
      20
150.747350805327
      30
0
      10
-233.279240854162
      20
150.747350805327
      30
0
      10
-233.297144761524
      20
150.710540669548
      30
0
      10
-233.315048668887
      20
150.673730533769
      30
0
      10
-233.332952576249
      20
150.63692039799
      30
0
      10
-233.332952576249
      20
150.63692039799
      30
0
      10
-233.385312296011
      20
150.525853369657
      30
0
      10
-233.433615088321
      20
150.412939480778
      30
0
      10
-233.477745654569
      20
150.298516604718
      30
0
      10
-233.477745654569
      20
150.298516604718
      30
0
      10
-233.580768849671
      20
150.03160038387
      30
0
      10
-233.660670588273
      20
149.755653775661
      30
0
      10
-233.71575734151
      20
149.474872206755
      30
0
      10
-233.71575734151
      20
149.474872206755
      30
0
      10
-233.723179416479
      20
149.43467180226
      30
0
      10
-233.730601491448
      20
149.394471397765
      30
0
      10
-233.738023566417
      20
149.354270993269
      30
0
      10
-233.738023566417
      20
149.354270993269
      30
0
      10
-233.744511303063
      20
149.313901908664
      30
0
      10
-233.750999039709
      20
149.273532824058
      30
0
      10
-233.757486776355
      20
149.233163739453
      30
0
      10
-233.757486776355
      20
149.233163739453
      30
0
      10
-233.775548251826
      20
149.111828320226
      30
0
      10
-233.789281142532
      20
148.989845159817
      30
0
      10
-233.797521635812
      20
148.867543562526
      30
0
      10
-233.797521635812
      20
148.867543562526
      30
0
      10
-233.805800421777
      20
148.745241902715
      30
0
      10
-233.809110285618
      20
148.622620951358
      30
0
      10
-233.812420149458
      20
148.5
      30
0
      10
-233.8124201495
      20
148.5
      30
0
      10
-233.812420149486
      20
49.4999999999999
      30
0
      10
-233.812420149472
      20
-49.5000000000001
      30
0
      10
-233.812420149458
      20
-148.5
      30
0
      10
-233.812420149458
      20
-148.5
      30
0
      10
-233.811383214914
      20
-148.540859752222
      30
0
      10
-233.810346280369
      20
-148.581719504444
      30
0
      10
-233.809309345825
      20
-148.622579256666
      30
0
      10
-233.809309345825
      20
-148.622579256666
      30
0
      10
-233.807663736602
      20
-148.663413057484
      30
0
      10
-233.806018127379
      20
-148.704246858301
      30
0
      10
-233.804372518156
      20
-148.745080659119
      30
0
      10
-233.804372518156
      20
-148.745080659119
      30
0
      10
-233.803165958293
      20
-148.765480010077
      30
0
      10
-233.801959398431
      20
-148.785879361035
      30
0
      10
-233.800752838568
      20
-148.806278711993
      30
0
      10
-233.800752838568
      20
-148.806278711993
      30
0
      10
-233.800880776033
      20
-148.816517480123
      30
0
      10
-233.785543957081
      20
-149.010128307757
      30
0
      10
-233.771947000964
      20
-149.111433908767
      30
0
      10
-233.771947000964
      20
-149.111433908767
      30
0
      10
-233.752070153557
      20
-149.27370293491
      30
0
      10
-233.724546825778
      20
-149.435056912959
      30
0
      10
-233.689269751524
      20
-149.594694259277
      30
0
      10
-233.689269751524
      20
-149.594694259277
      30
0
      10
-233.627566539269
      20
-149.874072078901
      30
0
      10
-233.541648846046
      20
-150.148107809181
      30
0
      10
-233.432207415721
      20
-150.412474234539
      30
0
      10
-233.432207415721
      20
-150.412474234539
      30
0
      10
-233.385359882199
      20
-150.525831788437
      30
0
      10
-233.334349467059
      20
-150.637592559812
      30
0
      10
-233.279290252564
      20
-150.747374482596
      30
0
      10
-233.279290252564
      20
-150.747374482596
      30
0
      10
-233.095964348804
      20
-151.1135580159
      30
0
      10
-232.866690857387
      20
-151.456610531535
      30
0
      10
-232.598719242287
      20
-151.765981190678
      30
0
      10
-232.598719242287
      20
-151.765981190678
      30
0
      10
-232.438035501735
      20
-151.951724230483
      30
0
      10
-232.26387777412
      20
-152.125874329041
      30
0
      10
-232.078116250079
      20
-152.286552006313
      30
0
      10
-232.078116250079
      20
-152.286552006313
      30
0
      10
-231.768707827041
      20
-152.554537557717
      30
0
      10
-231.425660956025
      20
-152.783674712693
      30
0
      10
-231.059471320171
      20
-152.966943684847
      30
0
      10
-231.059471320171
      20
-152.966943684847
      30
0
      10
-231.022659770704
      20
-152.984844694022
      30
0
      10
-230.985848221237
      20
-153.002745703197
      30
0
      10
-230.94903667177
      20
-153.020646712371
      30
0
      10
-230.94903667177
      20
-153.020646712371
      30
0
      10
-230.837965523949
      20
-153.072997722896
      30
0
      10
-230.725047879305
      20
-153.121291745826
      30
0
      10
-230.610621654143
      20
-153.16541362527
      30
0
      10
-230.610621654143
      20
-153.16541362527
      30
0
      10
-230.343697555387
      20
-153.268416497817
      30
0
      10
-230.067745730811
      20
-153.34829917774
      30
0
      10
-229.786961242199
      20
-153.403370982607
      30
0
      10
-229.786961242199
      20
-153.403370982607
      30
0
      10
-229.746760456102
      20
-153.410790993554
      30
0
      10
-229.706559670006
      20
-153.418211004501
      30
0
      10
-229.666358883909
      20
-153.425631015448
      30
0
      10
-229.666358883909
      20
-153.425631015448
      30
0
      10
-229.625989496266
      20
-153.432116849479
      30
0
      10
-229.585620108623
      20
-153.438602683511
      30
0
      10
-229.545250720979
      20
-153.445088517543
      30
0
      10
-229.545250720979
      20
-153.445088517543
      30
0
      10
-229.423914503529
      20
-153.4631445306
      30
0
      10
-229.301930866557
      20
-153.476872713276
      30
0
      10
-229.179629010832
      20
-153.485109684024
      30
0
      10
-229.179629010832
      20
-153.485109684024
      30
0
      10
-229.057327091902
      20
-153.493384954629
      30
0
      10
-228.934706090352
      20
-153.496692477315
      30
0
      10
-228.812085088801
      20
-153.5
      30
0
      10
-228.812085088801
      20
-153.5
      30
0
      10
-178.823088062301
      20
-153.5
      30
0
      10
-128.8340910358
      20
-153.5
      30
0
      10
-78.8450940093
      20
-153.5
      30
0
      10
-78.8450940093145
      20
-153.5
      30
0
      10
-78.8124134739758
      20
-153.498294288495
      30
0
      10
-78.7797329386371
      20
-153.49658857699
      30
0
      10
-78.7471939868074
      20
-153.493474550955
      30
0
      10
-78.7471939868074
      20
-153.493474550955
      30
0
      10
-78.7227897836642
      20
-153.491162198171
      30
0
      10
-78.6984651559816
      20
-153.48791674887
      30
0
      10
-78.6742801185299
      20
-153.483757789368
      30
0
      10
-78.6742801185299
      20
-153.483757789368
      30
0
      10
-78.6259146543122
      20
-153.475402224798
      30
0
      10
-78.5780844743587
      20
-153.463788651109
      30
0
      10
-78.5313493306187
      20
-153.448878950485
      30
0
      10
-78.5313493306187
      20
-153.448878950485
      30
0
      10
-78.4144224229992
      20
-153.411696370596
      30
0
      10
-78.3049116290337
      20
-153.351511296738
      30
0
      10
-78.2105288606023
      20
-153.273145883195
      30
0
      10
-78.2105288606023
      20
-153.273145883195
      30
0
      10
-78.1539255135637
      20
-153.226178854867
      30
0
      10
-78.102030017607
      20
-153.173278680299
      30
0
      10
-78.0561490751771
      20
-153.115596764152
      30
0
      10
-78.0561490751771
      20
-153.115596764152
      30
0
      10
-77.9621131770184
      20
-152.997213749658
      30
0
      10
-77.8953154027867
      20
-152.855991693294
      30
0
      10
-77.866437662549
      20
-152.70733576816
      30
0
      10
-77.866437662549
      20
-152.70733576816
      30
0
      10
-77.864137769865
      20
-152.695298502143
      30
0
      10
-77.8621136464252
      20
-152.683219134122
      30
0
      10
-77.8603175660444
      20
-152.671105133895
      30
0
      10
-77.8603175660444
      20
-152.671105133895
      30
0
      10
-77.8543303686835
      20
-152.630725121936
      30
0
      10
-77.8508730417124
      20
-152.589960139654
      30
0
      10
-77.8481385348525
      20
-152.549085165851
      30
0
      10
-77.8481385348525
      20
-152.549085165851
      30
0
      10
-77.8471218329204
      20
-152.532723443901
      30
0
      10
-77.8461051309883
      20
-152.51636172195
      30
0
      10
-77.8450884290562
      20
-152.5
      30
0
      10
-77.8450884291
      20
-152.5
      30
0
      10
-77.8450884291
      20
-149.616666666667
      30
0
      10
-77.8450884291
      20
-146.733333333333
      30
0
      10
-77.8450884291
      20
-143.85
      30
0
      10
-77.8450884291
      20
-143.85
      30
0
      10
-67.4741035005
      20
-143.85
      30
0
      10
-57.1031185719
      20
-143.85
      30
0
      10
-46.7321336433
      20
-143.85
      30
0
      10
-46.7321336433
      20
-143.85
      30
0
      10
-46.7321336433
      20
-146.733333333333
      30
0
      10
-46.7321336433
      20
-149.616666666667
      30
0
      10
-46.7321336433
      20
-152.5
      30
0
      10
-46.7321336432932
      20
-152.5
      30
0
      10
-46.7304278158527
      20
-152.532680529968
      30
0
      10
-46.7287219884122
      20
-152.565361059937
      30
0
      10
-46.7256078329029
      20
-152.597899999501
      30
0
      10
-46.7256078329029
      20
-152.597899999501
      30
0
      10
-46.7232953830862
      20
-152.622304193526
      30
0
      10
-46.7200498279655
      20
-152.646628807721
      30
0
      10
-46.7158907572013
      20
-152.670813826546
      30
0
      10
-46.7158907572013
      20
-152.670813826546
      30
0
      10
-46.7075349694739
      20
-152.719179253435
      30
0
      10
-46.6959211520768
      20
-152.767009376672
      30
0
      10
-46.681011191657
      20
-152.813744438031
      30
0
      10
-46.681011191657
      20
-152.813744438031
      30
0
      10
-46.6438279616689
      20
-152.930671145695
      30
0
      10
-46.5836421449608
      20
-153.040181542841
      30
0
      10
-46.5052761375809
      20
-153.134563814769
      30
0
      10
-46.5052761375809
      20
-153.134563814769
      30
0
      10
-46.4583087557267
      20
-153.191166869618
      30
0
      10
-46.4054082650032
      20
-153.243062043663
      30
0
      10
-46.3477260607518
      20
-153.288942625265
      30
0
      10
-46.3477260607518
      20
-153.288942625265
      30
0
      10
-46.2293424516021
      20
-153.38297778925
      30
0
      10
-46.0881199797185
      20
-153.449774626353
      30
0
      10
-45.9394639244102
      20
-153.478651638347
      30
0
      10
-45.9394639244102
      20
-153.478651638347
      30
0
      10
-45.9274266470253
      20
-153.480951472183
      30
0
      10
-45.9153472691947
      20
-153.48297553869
      30
0
      10
-45.9032332604409
      20
-153.484771563852
      30
0
      10
-45.9032332604409
      20
-153.484771563852
      30
0
      10
-45.8628532200589
      20
-153.49075857711
      30
0
      10
-45.8220882236052
      20
-153.494215738446
      30
0
      10
-45.7812132397022
      20
-153.496950084947
      30
0
      10
-45.7812132397022
      20
-153.496950084947
      30
0
      10
-45.7648515141465
      20
-153.497966723298
      30
0
      10
-45.7484897885908
      20
-153.498983361649
      30
0
      10
-45.732128063035
      20
-153.5
      30
0
      10
-45.732128063
      20
-153.5
      30
0
      10
4.0433453505
      20
-153.5
      30
0
      10
53.818818764
      20
-153.5
      30
0
      10
103.5942921775
      20
-153.5
      30
0
      10
103.594292177482
      20
-153.5
      30
0
      10
103.635262896898
      20
-153.49896431769
      30
0
      10
103.676233616313
      20
-153.497928635379
      30
0
      10
103.717204335729
      20
-153.496892953069
      30
0
      10
103.717204335729
      20
-153.496892953069
      30
0
      10
104.392825436807
      20
-153.476997988554
      30
0
      10
105.066376682361
      20
-153.328812633215
      30
0
      10
105.681382023871
      20
-153.046320650809
      30
0
      10
105.681382023871
      20
-153.046320650809
      30
0
      10
106.091635325943
      20
-152.859064121676
      30
0
      10
106.475319600218
      20
-152.614503194036
      30
0
      10
106.82077828423
      20
-152.324797340345
      30
0
      10
106.82077828423
      20
-152.324797340345
      30
0
      10
106.899049900875
      20
-152.258704777778
      30
0
      10
106.974721096766
      20
-152.189637823547
      30
0
      10
107.049643658895
      20
-152.119715370568
      30
0
      10
107.049643658895
      20
-152.119715370568
      30
0
      10
107.079533590186
      20
-152.091655899057
      30
0
      10
107.109423521478
      20
-152.063596427545
      30
0
      10
107.139313452769
      20
-152.035536956034
      30
0
      10
107.139313452769
      20
-152.035536956034
      30
0
      10
112.167002937513
      20
-147.011847384256
      30
0
      10
117.194692422256
      20
-141.988157812478
      30
0
      10
122.222381907
      20
-136.9644682407
      30
0
      10
122.222381907017
      20
-136.964468240748
      30
0
      10
122.250554922743
      20
-136.934828525341
      30
0
      10
122.278727938469
      20
-136.905188809935
      30
0
      10
122.306900954195
      20
-136.875549094528
      30
0
      10
122.306900954195
      20
-136.875549094528
      30
0
      10
122.769494388434
      20
-136.384783106246
      30
0
      10
123.139679319577
      20
-135.804620448912
      30
0
      10
123.37349493501
      20
-135.17111624771
      30
0
      10
123.37349493501
      20
-135.17111624771
      30
0
      10
123.530296623961
      20
-134.749346605628
      30
0
      10
123.627742309522
      20
-134.305942596863
      30
0
      10
123.666589355756
      20
-133.85777416067
      30
0
      10
123.666589355756
      20
-133.85777416067
      30
0
      10
123.675070877609
      20
-133.75591042943
      30
0
      10
123.679639815029
      20
-133.653787949566
      30
0
      10
123.6830833385
      20
-133.551591538348
      30
0
      10
123.6830833385
      20
-133.551591538348
      30
0
      10
123.684341716775
      20
-133.510705088277
      30
0
      10
123.685600095049
      20
-133.469818638206
      30
0
      10
123.686858473324
      20
-133.428932188135
      30
0
      10
123.686858473324
      20
-133.428932188135
      30
0
      10
123.686858473316
      20
-114.914833212857
      30
0
      10
123.686858473308
      20
-96.4007342375783
      30
0
      10
123.6868584733
      20
-77.8866352623
      30
0
      10
123.686858473324
      20
-77.8866352622543
      30
0
      10
123.685808832234
      20
-77.82913496011
      30
0
      10
123.684759191145
      20
-77.7716346579656
      30
0
      10
123.683709550055
      20
-77.7141343558212
      30
0
      10
123.683709550055
      20
-77.7141343558212
      30
0
      10
123.657528602114
      20
-76.4784066406139
      30
0
      10
123.414395195426
      20
-75.2447303730326
      30
0
      10
122.94188811307
      20
-74.1011750106402
      30
0
      10
122.94188811307
      20
-74.1011750106402
      30
0
      10
122.777354951809
      20
-73.7025127369796
      30
0
      10
122.589545612513
      20
-73.3129632959706
      30
0
      10
122.374258317114
      20
-72.9392943709067
      30
0
      10
122.374258317114
      20
-72.9392943709067
      30
0
      10
122.345484266168
      20
-72.8894972984915
      30
0
      10
122.316710215222
      20
-72.8397002260764
      30
0
      10
122.287936164276
      20
-72.7899031536612
      30
0
      10
122.287936164276
      20
-72.7899031536612
      30
0
      10
122.258868789712
      20
-72.7402675231619
      30
0
      10
122.229801415148
      20
-72.6906318926625
      30
0
      10
122.200734040585
      20
-72.6409962621632
      30
0
      10
122.200732848914
      20
-72.6409943021786
      30
0
      10
111.74220428174
      20
-55.6980919616028
      30
0
      10
105.025117752163
      20
-36.4595181313305
      30
0
      10
102.653098228837
      20
-16.6863763435965
      30
0
      10
102.653098228837
      20
-16.6863763435965
      30
0
      10
99.6105591449955
      20
8.22369610942333
      30
0
      10
103.490097259272
      20
33.9423999453043
      30
0
      10
113.814431376963
      20
56.8201716089637
      30
0
      10
113.814431376963
      20
56.8201716089637
      30
0
      10
115.936289145152
      20
61.5418860877904
      30
0
      10
118.326473335578
      20
66.1427258899922
      30
0
      10
120.967596662253
      20
70.5944978779553
      30
0
      10
120.967596662253
      20
70.5944978779553
      30
0
      10
121.378578386542
      20
71.2765986315065
      30
0
      10
121.78956011083
      20
71.9586993850577
      30
0
      10
122.200541835119
      20
72.6408001386088
      30
0
      10
122.200541835119
      20
72.6408001386088
      30
0
      10
122.229793664751
      20
72.6903168323006
      30
0
      10
122.259045494384
      20
72.7398335259924
      30
0
      10
122.288297324016
      20
72.7893502196842
      30
0
      10
122.288297324016
      20
72.7893502196842
      30
0
      10
122.899527145945
      20
73.8306348585942
      30
0
      10
123.331017838103
      20
74.9793750022034
      30
0
      10
123.536564884
      20
76.1700132606833
      30
0
      10
123.536564884
      20
76.1700132606833
      30
0
      10
123.625022201305
      20
76.6799665726494
      30
0
      10
123.674643547088
      20
77.1967646190868
      30
0
      10
123.684223101138
      20
77.7142364116006
      30
0
      10
123.684223101138
      20
77.7142364116006
      30
0
      10
123.685101558533
      20
77.7717413160978
      30
0
      10
123.685980015928
      20
77.829246220595
      30
0
      10
123.686858473324
      20
77.8867511250922
      30
0
      10
123.686858473324
      20
77.8867511250922
      30
0
      10
123.686858473316
      20
96.4008114794281
      30
0
      10
123.686858473308
      20
114.914871833764
      30
0
      10
123.6868584733
      20
133.4289321881
      30
0
    1001
FS_CYPCUT
    1000
Channel
    1070
1
    1000
LeadIn
    1002
{
    1070
3
    1040
51.5
    1040
1.5707963267949
    1040
0.5
    1040
0.5
    1070
0
    1040
0.5
    1070
0
    1002
}
    1000
LeadOut
    1002
{
    1070
0
    1040
0
    1040
0.523598775598299
    1040
2
    1070
0
    1002
}
    1000
IsFill
    1070
1
    1000
PathStart
    1040
51.5
    1000
ToolCompensation
    1002
{
    1070
0
    1040
0
    1070
0
    1002
}
    1000
MicroConnect
    1002
{
    1070
5
    1040
33.1459874364838
    1041
0.4
    1042
0
    1040
51.4873942678821
    1041
0.4
    1042
0
    1040
91.3169370210973
    1041
0.4
    1042
0
    1040
110
    1041
0.4
    1042
0
    1040
110.212385024411
    1041
0.4
    1042
0
    1002
}
       0
ENDSEC
  0
SECTION
  2
OBJECTS
  0
DICTIONARY
  5
111
330
0
100
AcDbDictionary
281
     1
  3
ACAD_COLOR
350
120
  3
ACAD_GROUP
350
112
  3
ACAD_LAYOUT
350
11E
  3
ACAD_MATERIAL
350
11F
  3
ACAD_MLINESTYLE
350
11B
  3
ACAD_PLOTSETTINGS
350
11D
  3
ACAD_PLOTSTYLENAME
350
113
  3
ACAD_TABLESTYLE
350
121
  3
AcDbVariableDictionary
350
135
  0
DICTIONARY
  5
120
102
{ACAD_REACTORS
330
111
102
}
330
111
100
AcDbDictionary
281
     1
  0
DICTIONARY
  5
112
102
{ACAD_REACTORS
330
111
102
}
330
111
100
AcDbDictionary
281
     1
  0
DICTIONARY
  5
11E
102
{ACAD_REACTORS
330
111
102
}
330
111
100
AcDbDictionary
281
     1
  3
Model
350
12A
  3
布局1
350
126
  0
DICTIONARY
  5
11F
102
{ACAD_REACTORS
330
111
102
}
330
111
100
AcDbDictionary
281
     1
  0
DICTIONARY
  5
11B
102
{ACAD_REACTORS
330
111
102
}
330
111
100
AcDbDictionary
281
     1
  3
Standard
350
11C
  0
DICTIONARY
  5
11D
102
{ACAD_REACTORS
330
111
102
}
330
111
100
AcDbDictionary
281
     1
  0
ACDBDICTIONARYWDFLT
  5
113
102
{ACAD_REACTORS
330
111
102
}
330
111
100
AcDbDictionary
281
     1
  3
Normal
350
114
100
AcDbDictionaryWithDefault
340
114
  0
DICTIONARY
  5
121
102
{ACAD_REACTORS
330
111
102
}
330
111
100
AcDbDictionary
281
     1
  3
Standard
350
122
  0
DICTIONARY
  5
135
102
{ACAD_REACTORS
330
111
102
}
330
111
100
AcDbDictionary
281
     1
  3
CTABLESTYLE
350
136
  0
LAYOUT
  5
12A
102
{ACAD_REACTORS
330
11E
102
}
330
11E
100
AcDbPlotSettings
  1

  2
发送至 OneNote 2010
  4

  6

 40
0.0
 41
0.0
 42
0.0
 43
0.0
 44
0.0
 45
0.0
 46
0.0
 47
0.0
 48
0.0
 49
0.0
140
0.0
141
0.0
142
1.0
143
1.0
 70
  1712
 72
     0
 73
     0
 74
     0
  7

 75
     0
147
1.0
 76
     0
 77
     2
 78
   300
148
0.0
149
0.0
100
AcDbLayout
  1
Model
 70
     1
 71
     0
 10
0.0
 20
0.0
 11
12.0
 21
9.0
 12
0.0
 22
0.0
 32
0.0
 14
0.0
 24
0.0
 34
0.0
 15
0.0
 25
0.0
 35
0.0
146
0.0
 13
0.0
 23
0.0
 33
0.0
 16
1.0
 26
0.0
 36
0.0
 17
0.0
 27
1.0
 37
0.0
 76
     0
330
127
  0
LAYOUT
  5
126
102
{ACAD_REACTORS
330
11E
102
}
330
11E
100
AcDbPlotSettings
  1

  2
发送至 OneNote 2010
  4

  6

 40
0.0
 41
0.0
 42
0.0
 43
0.0
 44
0.0
 45
0.0
 46
0.0
 47
0.0
 48
0.0
 49
0.0
140
0.0
141
0.0
142
1.0
143
1.0
 70
   688
 72
     0
 73
     0
 74
     5
  7

 75
    16
147
1.0
 76
     0
 77
     2
 78
   300
148
0.0
149
0.0
100
AcDbLayout
  1
布局1
 70
     1
 71
     1
 10
0.0
 20
0.0
 11
12.0
 21
9.0
 12
0.0
 22
0.0
 32
0.0
 14
0.0
 24
0.0
 34
0.0
 15
0.0
 25
0.0
 35
0.0
146
0.0
 13
0.0
 23
0.0
 33
0.0
 16
1.0
 26
0.0
 36
0.0
 17
0.0
 27
1.0
 37
0.0
 76
     0
330
123
  0
MLINESTYLE
  5
11C
102
{ACAD_REACTORS
330
11B
102
}
330
11B
100
AcDbMlineStyle
  2
STANDARD
 70
     0
  3

 62
   256
 51
90.0
 52
90.0
 71
     2
 49
0.5
 62
   256
  6
BYLAYER
 49
-0.5
 62
   256
  6
BYLAYER
  0
ACDBPLACEHOLDER
  5
114
102
{ACAD_REACTORS
330
113
102
}
330
113
  0
TABLESTYLE
  5
122
102
{ACAD_REACTORS
330
121
102
}
330
121
100
AcDbTableStyle
  3
Standard
 70
     0
 71
     0
 40
0.06
 41
0.06
280
     0
281
     0
  7
STANDARD
140
0.18
170
     2
 62
     0
 63
     7
283
     0
274
    -2
284
     1
 64
     0
275
    -2
285
     1
 65
     0
276
    -2
286
     1
 66
     0
277
    -2
287
     1
 67
     0
278
    -2
288
     1
 68
     0
279
    -2
289
     1
 69
     0
  7
STANDARD
140
0.25
170
     5
 62
     0
 63
     7
283
     0
274
    -2
284
     1
 64
     0
275
    -2
285
     1
 65
     0
276
    -2
286
     1
 66
     0
277
    -2
287
     1
 67
     0
278
    -2
288
     1
 68
     0
279
    -2
289
     1
 69
     0
  7
STANDARD
140
0.18
170
     5
 62
     0
 63
     7
283
     0
274
    -2
284
     1
 64
     0
275
    -2
285
     1
 65
     0
276
    -2
286
     1
 66
     0
277
    -2
287
     1
 67
     0
278
    -2
288
     1
 68
     0
279
    -2
289
     1
 69
     0
  0
DICTIONARYVAR
  5
136
102
{ACAD_REACTORS
330
135
102
}
330
135
100
DictionaryVariables
280
     0
  1
STANDARD
  0
ENDSEC
  0
EOF
