  0
SECTION
  2
HEADER
  9
$ACADVER
  1
AC1018
  9
$ACADMAINTVER
 70
    77
  9
$DWGCODEPAGE
  3
ANSI_936
  9
$INSBASE
 10
0.0
 20
0.0
 30
0.0
  9
$EXTMIN
 10
-620.92
 20
-136.4709368742
 30
0.0
  9
$EXTMAX
 10
667.5
 20
200.7045569766
 30
0.0
  9
$LIMMIN
 10
0.0
 20
0.0
  9
$LIMMAX
 10
420.0
 20
297.0
  9
$ORTHOMODE
 70
     0
  9
$REGENMODE
 70
     1
  9
$FILLMODE
 70
     1
  9
$QTEXTMODE
 70
     0
  9
$MIRRTEXT
 70
     0
  9
$LTSCALE
 40
1.0
  9
$ATTMODE
 70
     1
  9
$TEXTSIZE
 40
2.5
  9
$TRACEWID
 40
1.0
  9
$TEXTSTYLE
  7
STANDARD
  9
$CLAYER
  8
0
  9
$CELTYPE
  6
ByLayer
  9
$CECOLOR
 62
   256
  9
$CELTSCALE
 40
1.0
  9
$DISPSILH
 70
     0
  9
$DIMSCALE
 40
1.0
  9
$DIMASZ
 40
2.5
  9
$DIMEXO
 40
0.625
  9
$DIMDLI
 40
3.75
  9
$DIMRND
 40
0.0
  9
$DIMDLE
 40
0.0
  9
$DIMEXE
 40
1.25
  9
$DIMTP
 40
0.0
  9
$DIMTM
 40
0.0
  9
$DIMTXT
 40
2.5
  9
$DIMCEN
 40
2.5
  9
$DIMTSZ
 40
0.0
  9
$DIMTOL
 70
     0
  9
$DIMLIM
 70
     0
  9
$DIMTIH
 70
     0
  9
$DIMTOH
 70
     0
  9
$DIMSE1
 70
     0
  9
$DIMSE2
 70
     0
  9
$DIMTAD
 70
     1
  9
$DIMZIN
 70
     8
  9
$DIMBLK
  1

  9
$DIMASO
 70
     1
  9
$DIMSHO
 70
     1
  9
$DIMPOST
  1

  9
$DIMAPOST
  1

  9
$DIMALT
 70
     0
  9
$DIMALTD
 70
     3
  9
$DIMALTF
 40
0.03937007874016
  9
$DIMLFAC
 40
1.0
  9
$DIMTOFL
 70
     1
  9
$DIMTVP
 40
0.0
  9
$DIMTIX
 70
     0
  9
$DIMSOXD
 70
     0
  9
$DIMSAH
 70
     0
  9
$DIMBLK1
  1

  9
$DIMBLK2
  1

  9
$DIMSTYLE
  2
ISO-25
  9
$DIMCLRD
 70
     0
  9
$DIMCLRE
 70
     0
  9
$DIMCLRT
 70
     0
  9
$DIMTFAC
 40
1.0
  9
$DIMGAP
 40
0.625
  9
$DIMJUST
 70
     0
  9
$DIMSD1
 70
     0
  9
$DIMSD2
 70
     0
  9
$DIMTOLJ
 70
     1
  9
$DIMTZIN
 70
     0
  9
$DIMALTZ
 70
     0
  9
$DIMALTTZ
 70
     0
  9
$DIMUPT
 70
     0
  9
$DIMDEC
 70
     4
  9
$DIMTDEC
 70
     4
  9
$DIMALTU
 70
     2
  9
$DIMALTTD
 70
     2
  9
$DIMTXSTY
  7
STANDARD
  9
$DIMAUNIT
 70
     0
  9
$DIMADEC
 70
     0
  9
$DIMALTRND
 40
0.0
  9
$DIMAZIN
 70
     0
  9
$DIMDSEP
 70
    46
  9
$DIMATFIT
 70
     3
  9
$DIMFRAC
 70
     0
  9
$DIMLDRBLK
  1

  9
$DIMLUNIT
 70
     2
  9
$DIMLWD
 70
    -2
  9
$DIMLWE
 70
    -2
  9
$DIMTMOVE
 70
     0
  9
$LUNITS
 70
     2
  9
$LUPREC
 70
     4
  9
$SKETCHINC
 40
1.0
  9
$FILLETRAD
 40
0.0
  9
$AUNITS
 70
     0
  9
$AUPREC
 70
     0
  9
$MENU
  1
.
  9
$ELEVATION
 40
0.0
  9
$PELEVATION
 40
0.0
  9
$THICKNESS
 40
0.0
  9
$LIMCHECK
 70
     0
  9
$CHAMFERA
 40
0.0
  9
$CHAMFERB
 40
0.0
  9
$CHAMFERC
 40
0.0
  9
$CHAMFERD
 40
0.0
  9
$SKPOLY
 70
     0
  9
$TDCREATE
 40
2456997.676706910
  9
$TDUCREATE
 40
2456997.343373576
  9
$TDUPDATE
 40
2456997.680113438
  9
$TDUUPDATE
 40
2456997.346780104
  9
$TDINDWG
 40
0.0010312963
  9
$TDUSRTIMER
 40
0.0010311806
  9
$USRTIMER
 70
     1
  9
$ANGBASE
 50
0.0
  9
$ANGDIR
 70
     0
  9
$PDMODE
 70
     0
  9
$PDSIZE
 40
0.0
  9
$PLINEWID
 40
0.0
  9
$SPLFRAME
 70
     0
  9
$SPLINETYPE
 70
     6
  9
$SPLINESEGS
 70
     8
  9
$HANDSEED
  5
24A0
  9
$SURFTAB1
 70
     6
  9
$SURFTAB2
 70
     6
  9
$SURFTYPE
 70
     6
  9
$SURFU
 70
     6
  9
$SURFV
 70
     6
  9
$UCSBASE
  2

  9
$UCSNAME
  2

  9
$UCSORG
 10
0.0
 20
0.0
 30
0.0
  9
$UCSXDIR
 10
1.0
 20
0.0
 30
0.0
  9
$UCSYDIR
 10
0.0
 20
1.0
 30
0.0
  9
$UCSORTHOREF
  2

  9
$UCSORTHOVIEW
 70
     0
  9
$UCSORGTOP
 10
0.0
 20
0.0
 30
0.0
  9
$UCSORGBOTTOM
 10
0.0
 20
0.0
 30
0.0
  9
$UCSORGLEFT
 10
0.0
 20
0.0
 30
0.0
  9
$UCSORGRIGHT
 10
0.0
 20
0.0
 30
0.0
  9
$UCSORGFRONT
 10
0.0
 20
0.0
 30
0.0
  9
$UCSORGBACK
 10
0.0
 20
0.0
 30
0.0
  9
$PUCSBASE
  2

  9
$PUCSNAME
  2

  9
$PUCSORG
 10
0.0
 20
0.0
 30
0.0
  9
$PUCSXDIR
 10
1.0
 20
0.0
 30
0.0
  9
$PUCSYDIR
 10
0.0
 20
1.0
 30
0.0
  9
$PUCSORTHOREF
  2

  9
$PUCSORTHOVIEW
 70
     0
  9
$PUCSORGTOP
 10
0.0
 20
0.0
 30
0.0
  9
$PUCSORGBOTTOM
 10
0.0
 20
0.0
 30
0.0
  9
$PUCSORGLEFT
 10
0.0
 20
0.0
 30
0.0
  9
$PUCSORGRIGHT
 10
0.0
 20
0.0
 30
0.0
  9
$PUCSORGFRONT
 10
0.0
 20
0.0
 30
0.0
  9
$PUCSORGBACK
 10
0.0
 20
0.0
 30
0.0
  9
$USERI1
 70
     0
  9
$USERI2
 70
     0
  9
$USERI3
 70
     0
  9
$USERI4
 70
     0
  9
$USERI5
 70
     0
  9
$USERR1
 40
0.0
  9
$USERR2
 40
0.0
  9
$USERR3
 40
0.0
  9
$USERR4
 40
0.0
  9
$USERR5
 40
0.0
  9
$WORLDVIEW
 70
     1
  9
$SHADEDGE
 70
     3
  9
$SHADEDIF
 70
    70
  9
$TILEMODE
 70
     1
  9
$MAXACTVP
 70
    64
  9
$PINSBASE
 10
0.0
 20
0.0
 30
0.0
  9
$PLIMCHECK
 70
     0
  9
$PEXTMIN
 10
0.0
 20
0.0
 30
0.0
  9
$PEXTMAX
 10
0.0
 20
0.0
 30
0.0
  9
$PLIMMIN
 10
0.0
 20
0.0
  9
$PLIMMAX
 10
12.0
 20
9.0
  9
$UNITMODE
 70
     0
  9
$VISRETAIN
 70
     1
  9
$PLINEGEN
 70
     0
  9
$PSLTSCALE
 70
     1
  9
$TREEDEPTH
 70
  3020
  9
$CMLSTYLE
  2
Standard
  9
$CMLJUST
 70
     0
  9
$CMLSCALE
 40
1.0
  9
$PROXYGRAPHICS
 70
     1
  9
$MEASUREMENT
 70
     1
  9
$CELWEIGHT
370
    -1
  9
$ENDCAPS
280
     0
  9
$JOINSTYLE
280
     0
  9
$LWDISPLAY
290
     0
  9
$INSUNITS
 70
     0
  9
$HYPERLINKBASE
  1

  9
$STYLESHEET
  1

  9
$XEDIT
290
     1
  9
$CEPSNTYPE
380
     0
  9
$PSTYLEMODE
290
     1
  9
$FINGERPRINTGUID
  2
{1F2D6530-6BF2-4D5E-922F-A9C54F637010}
  9
$VERSIONGUID
  2
{15AD9CB5-51D1-451C-B472-5DB36EFAD6AD}
  9
$EXTNAMES
290
     1
  9
$PSVPSCALE
 40
0.0
  9
$OLESTARTUP
290
     0
  9
$SORTENTS
280
   127
  9
$INDEXCTL
280
     0
  9
$HIDETEXT
280
     0
  9
$XCLIPFRAME
290
     0
  9
$HALOGAP
280
     0
  9
$OBSCOLOR
 70
   257
  9
$OBSLTYPE
280
     0
  9
$INTERSECTIONDISPLAY
280
     0
  9
$INTERSECTIONCOLOR
 70
   257
  9
$DIMASSOC
280
     1
  9
$PROJECTNAME
  1

  0
ENDSEC
  0
SECTION
  2
CLASSES
  0
CLASS
  1
ACDBDICTIONARYWDFLT
  2
AcDbDictionaryWithDefault
  3
ObjectDBX Classes
 90
        0
 91
        1
280
     0
281
     0
  0
CLASS
  1
TABLESTYLE
  2
AcDbTableStyle
  3
ObjectDBX Classes
 90
     2047
 91
        1
280
     0
281
     0
  0
CLASS
  1
DICTIONARYVAR
  2
AcDbDictionaryVar
  3
ObjectDBX Classes
 90
        0
 91
        1
280
     0
281
     0
  0
ENDSEC
  0
SECTION
  2
TABLES
  0
TABLE
  2
VPORT
  5
10D
330
0
100
AcDbSymbolTable
 70
     2
  0
VPORT
  5
137
330
10D
100
AcDbSymbolTableRecord
100
AcDbViewportTableRecord
  2
*Active
 70
     0
 10
0.0
 20
0.0
 11
1.0
 21
1.0
 12
23.2899999999999
 22
32.1168100512
 13
0.0
 23
0.0
 14
10.0
 24
10.0
 15
10.0
 25
10.0
 16
0.0
 26
0.0
 36
1.0
 17
0.0
 27
0.0
 37
0.0
 40
551.708552688342
 41
2.435135135135135
 42
50.0
 43
0.0
 44
0.0
 50
0.0
 51
0.0
 71
     0
 72
  1000
 73
     1
 74
     3
 75
     0
 76
     0
 77
     0
 78
     0
281
     0
 65
     1
110
0.0
120
0.0
130
0.0
111
1.0
121
0.0
131
0.0
112
0.0
122
1.0
132
0.0
 79
     0
146
0.0
  0
ENDTAB
  0
TABLE
  2
LTYPE
  5
10A
330
0
100
AcDbSymbolTable
 70
     1
  0
LTYPE
  5
118
330
10A
100
AcDbSymbolTableRecord
100
AcDbLinetypeTableRecord
  2
ByBlock
 70
     0
  3

 72
    65
 73
     0
 40
0.0
  0
LTYPE
  5
119
330
10A
100
AcDbSymbolTableRecord
100
AcDbLinetypeTableRecord
  2
ByLayer
 70
     0
  3

 72
    65
 73
     0
 40
0.0
  0
LTYPE
  5
11A
330
10A
100
AcDbSymbolTableRecord
100
AcDbLinetypeTableRecord
  2
CONTINUOUS
 70
     0
  3
Solid line
 72
    65
 73
     0
 40
0.0
  0
ENDTAB
  0
TABLE
  2
LAYER
  5
107
330
0
100
AcDbSymbolTable
 70
     1
  0
LAYER
  5
115
330
107
100
AcDbSymbolTableRecord
100
AcDbLayerTableRecord
  2
0
 70
     0
 62
     7
  6
CONTINUOUS
370
    -3
390
114
  0
ENDTAB
  0
TABLE
  2
STYLE
  5
108
330
0
100
AcDbSymbolTable
 70
     1
  0
STYLE
  5
116
330
108
100
AcDbSymbolTableRecord
100
AcDbTextStyleTableRecord
  2
STANDARD
 70
     0
 40
0.0
 41
1.0
 50
0.0
 71
     0
 42
2.5
  3
txt
  4
gbcbig.shx
  0
ENDTAB
  0
TABLE
  2
VIEW
  5
10B
330
0
100
AcDbSymbolTable
 70
     0
  0
ENDTAB
  0
TABLE
  2
UCS
  5
10C
330
0
100
AcDbSymbolTable
 70
     0
  0
ENDTAB
  0
TABLE
  2
APPID
  5
10E
330
0
100
AcDbSymbolTable
 70
     2
  0
APPID
  5
117
330
10E
100
AcDbSymbolTableRecord
100
AcDbRegAppTableRecord
  2
ACAD
 70
     0
  0
APPID
  5
12C
330
10E
100
AcDbSymbolTableRecord
100
AcDbRegAppTableRecord
  2
ACAD_PSEXT
 70
     0
  0
APPID
  5
112C
330
10E
100
AcDbSymbolTableRecord
100
AcDbRegAppTableRecord
  2
FS_CYPCUT
 70
     0
  0
ENDTAB
  0
TABLE
  2
DIMSTYLE
  5
10F
330
0
100
AcDbSymbolTable
 70
     1
100
AcDbDimStyleTable
 71
     0
  0
DIMSTYLE
105
12D
330
10F
100
AcDbSymbolTableRecord
100
AcDbDimStyleTableRecord
  2
ISO-25
 70
     0
 41
2.5
 42
0.625
 43
3.75
 44
1.25
 73
     0
 74
     0
 77
     1
 78
     8
140
2.5
141
2.5
143
0.03937007874016
147
0.625
171
     3
172
     1
274
     3
279
     2
284
     8
285
     8
286
     8
340
116
  0
ENDTAB
  0
TABLE
  2
BLOCK_RECORD
  5
106
330
0
100
AcDbSymbolTable
 70
     2
  0
BLOCK_RECORD
  5
127
330
106
100
AcDbSymbolTableRecord
100
AcDbBlockTableRecord
  2
*Model_Space
340
12A
  0
BLOCK_RECORD
  5
123
330
106
100
AcDbSymbolTableRecord
100
AcDbBlockTableRecord
  2
*Paper_Space
340
126
  0
BLOCK_RECORD
  5
130
330
106
100
AcDbSymbolTableRecord
100
AcDbBlockTableRecord
  2
$MODEL_SPACE
340
0
  0
BLOCK_RECORD
  5
132
330
106
100
AcDbSymbolTableRecord
100
AcDbBlockTableRecord
  2
$PAPER_SPACE
340
0
  0
ENDTAB
  0
ENDSEC
  0
SECTION
  2
BLOCKS
  0
BLOCK
  5
128
330
127
100
AcDbEntity
  8
0
100
AcDbBlockBegin
  2
*Model_Space
 70
     0
 10
0.0
 20
0.0
 30
0.0
  3
*Model_Space
  1

  0
ENDBLK
  5
129
330
127
100
AcDbEntity
  8
0
100
AcDbBlockEnd
  0
BLOCK
  5
124
330
123
100
AcDbEntity
 67
     1
  8
0
100
AcDbBlockBegin
  2
*Paper_Space
 70
     0
 10
0.0
 20
0.0
 30
0.0
  3
*Paper_Space
  1

  0
ENDBLK
  5
125
330
123
100
AcDbEntity
 67
     1
  8
0
100
AcDbBlockEnd
  0
BLOCK
  5
131
330
130
100
AcDbEntity
  8
0
100
AcDbBlockBegin
  2
$MODEL_SPACE
 70
     0
 10
0.0
 20
0.0
 30
0.0
  3
$MODEL_SPACE
  1

  0
ENDBLK
  5
21
330
130
100
AcDbEntity
  8
0
100
AcDbBlockEnd
  0
BLOCK
  5
133
330
132
100
AcDbEntity
  8
0
100
AcDbBlockBegin
  2
$PAPER_SPACE
 70
     0
 10
0.0
 20
0.0
 30
0.0
  3
$PAPER_SPACE
  1

  0
ENDBLK
  5
D5
330
132
100
AcDbEntity
  8
0
100
AcDbBlockEnd
       0
ENDSEC
       0
SECTION
       2
ENTITIES
       0
LWPOLYLINE
       5
2000
     100
AcDbEntity
       8
1
     100
AcDbPolyline
      90
4
      70
1
      10
-334.42
      20
130.7045569766
      42
0
      10
-334.42
      20
120.7045569766
      42
-1.00000000000001
      10
-342.42
      20
120.7045569766
      42
0
      10
-342.42
      20
130.7045569766
      42
-1.00000000000001
    1001
FS_CYPCUT
    1000
Channel
    1070
1
    1000
LeadIn
    1002
{
    1070
3
    1040
0.5
    1040
1.5707963267949
    1040
0.5
    1040
0.3
    1070
0
    1040
0.5
    1070
0
    1002
}
    1000
LeadOut
    1002
{
    1070
0
    1040
0
    1040
0.523598775598299
    1040
3
    1070
0
    1002
}
    1000
IsFill
    1070
0
    1000
PathStart
    1040
0.5
    1000
ToolCompensation
    1002
{
    1070
0
    1040
0
    1070
0
    1002
}
       0
LINE
       5
2001
     100
AcDbEntity
       8
2
     100
AcDbLine
      10
-363.72
      20
-88.3922995801
      30
0
      11
-213.72
      21
-88.3922995801
      31
0
    1001
FS_CYPCUT
    1000
Channel
    1070
2
    1000
LeadIn
    1002
{
    1070
3
    1040
0
    1040
1.5707963267949
    1040
0.5
    1040
0.3
    1070
0
    1040
0.5
    1070
0
    1002
}
    1000
LeadOut
    1002
{
    1070
0
    1040
0
    1040
0.523598775598299
    1040
3
    1070
0
    1002
}
    1000
IsFill
    1070
0
    1000
PathStart
    1040
0
    1000
ToolCompensation
    1002
{
    1070
0
    1040
0
    1070
0
    1002
}
       0
LINE
       5
2002
     100
AcDbEntity
       8
2
     100
AcDbLine
      10
-213.72
      20
-111.8777680172
      30
0
      11
-363.72
      21
-111.8777680172
      31
0
    1001
FS_CYPCUT
    1000
Channel
    1070
2
    1000
LeadIn
    1002
{
    1070
3
    1040
0
    1040
1.5707963267949
    1040
0.5
    1040
0.3
    1070
0
    1040
0.5
    1070
0
    1002
}
    1000
LeadOut
    1002
{
    1070
0
    1040
0
    1040
0.523598775598299
    1040
3
    1070
0
    1002
}
    1000
IsFill
    1070
0
    1000
PathStart
    1040
0
    1000
ToolCompensation
    1002
{
    1070
0
    1040
0
    1070
0
    1002
}
       0
CIRCLE
       5
2003
     100
AcDbEntity
       8
1
     100
AcDbCircle
      10
-288.72
      20
-126.4709368742
      30
0
      40
3.74999999999994
    1001
FS_CYPCUT
    1000
Channel
    1070
1
    1000
LeadIn
    1002
{
    1070
3
    1040
8.60422844084496E-16
    1040
1.5707963267949
    1040
0.5
    1040
0.3
    1070
0
    1040
0.5
    1070
0
    1002
}
    1000
LeadOut
    1002
{
    1070
0
    1040
0
    1040
0.523598775598299
    1040
3
    1070
0
    1002
}
    1000
IsFill
    1070
0
    1000
PathStart
    1040
8.60422844084496E-16
    1000
ToolCompensation
    1002
{
    1070
0
    1040
0
    1070
0
    1002
}
       0
LWPOLYLINE
       5
2004
     100
AcDbEntity
       8
1
     100
AcDbPolyline
      90
4
      70
1
      10
-104.42
      20
130.7045569766
      42
0
      10
-104.42
      20
120.7045569766
      42
-1
      10
-112.42
      20
120.7045569766
      42
0
      10
-112.42
      20
130.7045569766
      42
-1
    1001
FS_CYPCUT
    1000
Channel
    1070
1
    1000
LeadIn
    1002
{
    1070
3
    1040
0.5
    1040
1.5707963267949
    1040
0.5
    1040
0.3
    1070
0
    1040
0.5
    1070
0
    1002
}
    1000
LeadOut
    1002
{
    1070
0
    1040
0
    1040
0.523598775598299
    1040
3
    1070
0
    1002
}
    1000
IsFill
    1070
0
    1000
PathStart
    1040
0.5
    1000
ToolCompensation
    1002
{
    1070
0
    1040
0
    1070
0
    1002
}
       0
SPLINE
       5
2005
     100
AcDbEntity
       8
1
     100
AcDbSpline
      70
0
      71
3
      72
244
      73
240
      74
0
      40
0
      40
0
      40
0
      40
0
      40
0.0166666666666667
      40
0.0166666666666667
      40
0.0166666666666667
      40
0.0166666666666667
      40
0.0333333333333333
      40
0.0333333333333333
      40
0.0333333333333333
      40
0.0333333333333333
      40
0.05
      40
0.05
      40
0.05
      40
0.05
      40
0.0666666666666667
      40
0.0666666666666667
      40
0.0666666666666667
      40
0.0666666666666667
      40
0.0833333333333333
      40
0.0833333333333333
      40
0.0833333333333333
      40
0.0833333333333333
      40
0.1
      40
0.1
      40
0.1
      40
0.1
      40
0.116666666666667
      40
0.116666666666667
      40
0.116666666666667
      40
0.116666666666667
      40
0.133333333333333
      40
0.133333333333333
      40
0.133333333333333
      40
0.133333333333333
      40
0.15
      40
0.15
      40
0.15
      40
0.15
      40
0.166666666666667
      40
0.166666666666667
      40
0.166666666666667
      40
0.166666666666667
      40
0.183333333333333
      40
0.183333333333333
      40
0.183333333333333
      40
0.183333333333333
      40
0.2
      40
0.2
      40
0.2
      40
0.2
      40
0.216666666666667
      40
0.216666666666667
      40
0.216666666666667
      40
0.216666666666667
      40
0.233333333333333
      40
0.233333333333333
      40
0.233333333333333
      40
0.233333333333333
      40
0.25
      40
0.25
      40
0.25
      40
0.25
      40
0.266666666666667
      40
0.266666666666667
      40
0.266666666666667
      40
0.266666666666667
      40
0.283333333333333
      40
0.283333333333333
      40
0.283333333333333
      40
0.283333333333333
      40
0.3
      40
0.3
      40
0.3
      40
0.3
      40
0.316666666666667
      40
0.316666666666667
      40
0.316666666666667
      40
0.316666666666667
      40
0.333333333333333
      40
0.333333333333333
      40
0.333333333333333
      40
0.333333333333333
      40
0.35
      40
0.35
      40
0.35
      40
0.35
      40
0.366666666666667
      40
0.366666666666667
      40
0.366666666666667
      40
0.366666666666667
      40
0.383333333333333
      40
0.383333333333333
      40
0.383333333333333
      40
0.383333333333333
      40
0.4
      40
0.4
      40
0.4
      40
0.4
      40
0.416666666666667
      40
0.416666666666667
      40
0.416666666666667
      40
0.416666666666667
      40
0.433333333333333
      40
0.433333333333333
      40
0.433333333333333
      40
0.433333333333333
      40
0.45
      40
0.45
      40
0.45
      40
0.45
      40
0.466666666666667
      40
0.466666666666667
      40
0.466666666666667
      40
0.466666666666667
      40
0.483333333333333
      40
0.483333333333333
      40
0.483333333333333
      40
0.483333333333333
      40
0.5
      40
0.5
      40
0.5
      40
0.5
      40
0.516666666666667
      40
0.516666666666667
      40
0.516666666666667
      40
0.516666666666667
      40
0.533333333333333
      40
0.533333333333333
      40
0.533333333333333
      40
0.533333333333333
      40
0.55
      40
0.55
      40
0.55
      40
0.55
      40
0.566666666666667
      40
0.566666666666667
      40
0.566666666666667
      40
0.566666666666667
      40
0.583333333333333
      40
0.583333333333333
      40
0.583333333333333
      40
0.583333333333333
      40
0.6
      40
0.6
      40
0.6
      40
0.6
      40
0.616666666666667
      40
0.616666666666667
      40
0.616666666666667
      40
0.616666666666667
      40
0.633333333333333
      40
0.633333333333333
      40
0.633333333333333
      40
0.633333333333333
      40
0.65
      40
0.65
      40
0.65
      40
0.65
      40
0.666666666666667
      40
0.666666666666667
      40
0.666666666666667
      40
0.666666666666667
      40
0.683333333333333
      40
0.683333333333333
      40
0.683333333333333
      40
0.683333333333333
      40
0.7
      40
0.7
      40
0.7
      40
0.7
      40
0.716666666666667
      40
0.716666666666667
      40
0.716666666666667
      40
0.716666666666667
      40
0.733333333333333
      40
0.733333333333333
      40
0.733333333333333
      40
0.733333333333333
      40
0.75
      40
0.75
      40
0.75
      40
0.75
      40
0.766666666666667
      40
0.766666666666667
      40
0.766666666666667
      40
0.766666666666667
      40
0.783333333333333
      40
0.783333333333333
      40
0.783333333333333
      40
0.783333333333333
      40
0.8
      40
0.8
      40
0.8
      40
0.8
      40
0.816666666666667
      40
0.816666666666667
      40
0.816666666666667
      40
0.816666666666667
      40
0.833333333333333
      40
0.833333333333333
      40
0.833333333333333
      40
0.833333333333333
      40
0.85
      40
0.85
      40
0.85
      40
0.85
      40
0.866666666666667
      40
0.866666666666667
      40
0.866666666666667
      40
0.866666666666667
      40
0.883333333333333
      40
0.883333333333333
      40
0.883333333333333
      40
0.883333333333333
      40
0.9
      40
0.9
      40
0.9
      40
0.9
      40
0.916666666666667
      40
0.916666666666667
      40
0.916666666666667
      40
0.916666666666667
      40
0.933333333333333
      40
0.933333333333333
      40
0.933333333333333
      40
0.933333333333333
      40
0.95
      40
0.95
      40
0.95
      40
0.95
      40
0.966666666666667
      40
0.966666666666667
      40
0.966666666666667
      40
0.966666666666667
      40
0.983333333333333
      40
0.983333333333333
      40
0.983333333333333
      40
0.983333333333333
      40
1
      40
1
      40
1
      40
1
      10
-31.4019490331
      20
-20.0675882572
      30
0
      10
-41.7595014783341
      20
-26.1259518675681
      30
0
      10
-52.1170539235683
      20
-32.1843154779362
      30
0
      10
-62.4746063688024
      20
-38.2426790883043
      30
0
      10
-62.4746063688024
      20
-38.2426790883043
      30
0
      10
-62.3232336482668
      20
-38.5161662908245
      30
0
      10
-62.1609403299257
      20
-38.7744010024025
      30
0
      10
-61.9885525441666
      20
-39.0180020149839
      30
0
      10
-61.9885525441666
      20
-39.0180020149839
      30
0
      10
-60.9479563808516
      20
-40.4712104154205
      30
0
      10
-59.5889823741322
      20
-41.4373194768118
      30
0
      10
-57.7934515276433
      20
-41.9536138923723
      30
0
      10
-57.7934515276433
      20
-41.9536138923723
      30
0
      10
-56.1254331195849
      20
-42.4275855940325
      30
0
      10
-54.0248376439973
      20
-42.4505252173614
      30
0
      10
-51.723386929068
      20
-41.8072092399937
      30
0
      10
-51.723386929068
      20
-41.8072092399937
      30
0
      10
-49.1028261694276
      20
-41.0875744053406
      30
0
      10
-46.2734000296383
      20
-39.4690923997653
      30
0
      10
-43.8942626083821
      20
-37.1673426574744
      30
0
      10
-43.8942626083821
      20
-37.1673426574744
      30
0
      10
-41.4298204409787
      20
-34.8096395546848
      30
0
      10
-39.4748231372642
      20
-31.7504315807281
      30
0
      10
-38.430363493022
      20
-28.6854563842031
      30
0
      10
-38.430363493
      20
-28.6854563842
      30
0
      10
-36.1194925956
      20
-28.6854563842
      30
0
      10
-33.8086216982
      20
-28.6854563842
      30
0
      10
-31.4977508008
      20
-28.6854563842
      30
0
      10
-31.4977508008
      20
-28.6854563842
      30
0
      10
-31.7615274477667
      20
-29.5497872945
      30
0
      10
-32.0253040947333
      20
-30.4141182048
      30
0
      10
-32.2890807417
      20
-31.2784491151
      30
0
      10
-32.2890807417
      20
-31.2784491151
      30
0
      10
-32.6472060846
      20
-32.1258944187333
      30
0
      10
-33.0053314275
      20
-32.9733397223667
      30
0
      10
-33.3634567704
      20
-33.820785026
      30
0
      10
-33.3634567704
      20
-33.820785026
      30
0
      10
-33.8103958909
      20
-34.6382472399
      30
0
      10
-34.2573350114
      20
-35.4557094538
      30
0
      10
-34.7042741319
      20
-36.2731716677
      30
0
      10
-34.7042741319
      20
-36.2731716677
      30
0
      10
-35.2331194720667
      20
-37.0480167052
      30
0
      10
-35.7619648122333
      20
-37.8228617427
      30
0
      10
-36.2908101524
      20
-38.5977067802
      30
0
      10
-36.2908101524
      20
-38.5977067802
      30
0
      10
-36.8933882727
      20
-39.3179592138
      30
0
      10
-37.495966393
      20
-40.0382116474
      30
0
      10
-38.0985445133
      20
-40.758464081
      30
0
      10
-38.0985445133
      20
-40.758464081
      30
0
      10
-38.7655424154667
      20
-41.4129922259
      30
0
      10
-39.4325403176333
      20
-42.0675203708
      30
0
      10
-40.0995382198
      20
-42.7220485157
      30
0
      10
-40.0995382198
      20
-42.7220485157
      30
0
      10
-40.8206472813333
      20
-43.3007364727
      30
0
      10
-41.5417563428667
      20
-43.8794244297
      30
0
      10
-42.2628654044
      20
-44.4581123867
      30
0
      10
-42.2628654044
      20
-44.4581123867
      30
0
      10
-43.0269407010667
      20
-44.952016386
      30
0
      10
-43.7910159977333
      20
-45.4459203853
      30
0
      10
-44.5550912944
      20
-45.9398243846
      30
0
      10
-44.5550912944
      20
-45.9398243846
      30
0
      10
-45.3503238478333
      20
-46.3413110140667
      30
0
      10
-46.1455564012667
      20
-46.7427976435333
      30
0
      10
-46.9407889547
      20
-47.144284273
      30
0
      10
-46.9407889547
      20
-47.144284273
      30
0
      10
-47.7548882432667
      20
-47.4471484545333
      30
0
      10
-48.5689875318333
      20
-47.7500126360667
      30
0
      10
-49.3830868204
      20
-48.0528768176
      30
0
      10
-49.3830868204
      20
-48.0528768176
      30
0
      10
-50.2034707321667
      20
-48.2524377081333
      30
0
      10
-51.0238546439333
      20
-48.4519985986667
      30
0
      10
-51.8442385557
      20
-48.6515594892
      30
0
      10
-51.8442385557
      20
-48.6515594892
      30
0
      10
-52.6582278484
      20
-48.7447328243
      30
0
      10
-53.4722171411
      20
-48.8379061594
      30
0
      10
-54.2862064338
      20
-48.9310794945
      30
0
      10
-54.2862064338
      20
-48.9310794945
      30
0
      10
-55.0812206955
      20
-48.9164252565333
      30
0
      10
-55.8762349572
      20
-48.9017710185667
      30
0
      10
-56.6712492189
      20
-48.8871167806
      30
0
      10
-56.6712492189
      20
-48.8871167806
      30
0
      10
-57.4350013017
      20
-48.7648614546
      30
0
      10
-58.1987533845
      20
-48.6426061286
      30
0
      10
-58.9625054673
      20
-48.5203508026
      30
0
      10
-58.9625054673
      20
-48.5203508026
      30
0
      10
-59.6831913882
      20
-48.2923838757333
      30
0
      10
-60.4038773091
      20
-48.0644169488667
      30
0
      10
-61.12456323
      20
-47.836450022
      30
0
      10
-61.12456323
      20
-47.836450022
      30
0
      10
-61.7910446045667
      20
-47.5062947812
      30
0
      10
-62.4575259791333
      20
-47.1761395404
      30
0
      10
-63.1240073537
      20
-46.8459842996
      30
0
      10
-63.1240073537
      20
-46.8459842996
      30
0
      10
-63.7259835424333
      20
-46.4187433782
      30
0
      10
-64.3279597311667
      20
-45.9915024568
      30
0
      10
-64.9299359199
      20
-45.5642615354
      30
0
      10
-64.9299359199
      20
-45.5642615354
      30
0
      10
-65.4581032275333
      20
-45.0465380507
      30
0
      10
-65.9862705351667
      20
-44.528814566
      30
0
      10
-66.5144378428
      20
-44.0110910813
      30
0
      10
-66.5144378428
      20
-44.0110910813
      30
0
      10
-66.9606333090333
      20
-43.4108865816333
      30
0
      10
-67.4068287752667
      20
-42.8106820819667
      30
0
      10
-67.8530242415
      20
-42.2104775823
      30
0
      10
-67.8530242415
      20
-42.2104775823
      30
0
      10
-68.2103518017333
      20
-41.5370683810667
      30
0
      10
-68.5676793619667
      20
-40.8636591798333
      30
0
      10
-68.9250069222
      20
-40.1902499786
      30
0
      10
-68.9250069222
      20
-40.1902499786
      30
0
      10
-69.1879439879667
      20
-39.4540437865667
      30
0
      10
-69.4508810537333
      20
-38.7178375945333
      30
0
      10
-69.7138181195
      20
-37.9816314025
      30
0
      10
-69.7138181195
      20
-37.9816314025
      30
0
      10
-69.8783009314667
      20
-37.1940064738667
      30
0
      10
-70.0427837434333
      20
-36.4063815452333
      30
0
      10
-70.2072665554
      20
-35.6187566166
      30
0
      10
-70.2072665554
      20
-35.6187566166
      30
0
      10
-70.2707529898333
      20
-34.7918858953333
      30
0
      10
-70.3342394242667
      20
-33.9650151740667
      30
0
      10
-70.3977258587
      20
-33.1381444528
      30
0
      10
-70.3977258587
      20
-33.1381444528
      30
0
      10
-70.3592347166
      20
-32.2848074364333
      30
0
      10
-70.3207435745
      20
-31.4314704200667
      30
0
      10
-70.2822524324
      20
-30.5781334037
      30
0
      10
-70.2822524324
      20
-30.5781334037
      30
0
      10
-70.1423786041
      20
-29.7115186332667
      30
0
      10
-70.0025047758
      20
-28.8449038628333
      30
0
      10
-69.8626309475
      20
-27.9782890924
      30
0
      10
-69.8626309475
      20
-27.9782890924
      30
0
      10
-69.6235362187
      20
-27.1117903199
      30
0
      10
-69.3844414899
      20
-26.2452915474
      30
0
      10
-69.1453467611
      20
-25.3787927749
      30
0
      10
-69.1453467611
      20
-25.3787927749
      30
0
      10
-68.8107264017333
      20
-24.5258019596
      30
0
      10
-68.4761060423667
      20
-23.6728111443
      30
0
      10
-68.141485683
      20
-22.819820329
      30
0
      10
-68.141485683
      20
-22.819820329
      30
0
      10
-67.7165113359667
      20
-21.9935206612
      30
0
      10
-67.2915369889333
      20
-21.1672209934
      30
0
      10
-66.8665626419
      20
-20.3409213256
      30
0
      10
-66.8665626419
      20
-20.3409213256
      30
0
      10
-66.3578023939667
      20
-19.5540834771667
      30
0
      10
-65.8490421460333
      20
-18.7672456287333
      30
0
      10
-65.3402818981
      20
-17.9804077803
      30
0
      10
-65.3402818981
      20
-17.9804077803
      30
0
      10
-64.7555987684667
      20
-17.2451925306333
      30
0
      10
-64.1709156388333
      20
-16.5099772809667
      30
0
      10
-63.5862325092
      20
-15.7747620313
      30
0
      10
-63.5862325092
      20
-15.7747620313
      30
0
      10
-62.9346629246333
      20
-15.1025323193333
      30
0
      10
-62.2830933400667
      20
-14.4303026073667
      30
0
      10
-61.6315237555
      20
-13.7580728954
      30
0
      10
-61.6315237555
      20
-13.7580728954
      30
0
      10
-60.9231378898667
      20
-13.1592182025667
      30
0
      10
-60.2147520242333
      20
-12.5603635097333
      30
0
      10
-59.5063661586
      20
-11.9615088169
      30
0
      10
-59.5063661586
      20
-11.9615088169
      30
0
      10
-58.7521122959
      20
-11.4452845950333
      30
0
      10
-57.9978584332
      20
-10.9290603731667
      30
0
      10
-57.2436045705
      20
-10.4128361513
      30
0
      10
-57.2436045705
      20
-10.4128361513
      30
0
      10
-56.4551398963333
      20
-9.98722077723333
      30
0
      10
-55.6666752221667
      20
-9.56160540316667
      30
0
      10
-54.878210548
      20
-9.1359900291
      30
0
      10
-54.878210548
      20
-9.1359900291
      30
0
      10
-54.0677209847333
      20
-8.8075614969
      30
0
      10
-53.2572314214667
      20
-8.4791329647
      30
0
      10
-52.4467418582
      20
-8.1507044325
      30
0
      10
-52.4467418582
      20
-8.1507044325
      30
0
      10
-51.6267537285
      20
-7.92453868873333
      30
0
      10
-50.8067655988
      20
-7.69837294496667
      30
0
      10
-49.9867774691
      20
-7.4722072012
      30
0
      10
-49.9867774691
      20
-7.4722072012
      30
0
      10
-49.9867774691
      20
-9.76300791656667
      30
0
      10
-49.9867774691
      20
-12.0538086319333
      30
0
      10
-49.9867774691
      20
-14.3446093473
      30
0
      10
-49.9867774690592
      20
-14.3446093473181
      30
0
      10
-52.1616044643441
      20
-15.0284039783947
      30
0
      10
-54.4491877731637
      20
-16.3097365442303
      30
0
      10
-56.4828636198297
      20
-18.0770595722846
      30
0
      10
-56.4828636198297
      20
-18.0770595722846
      30
0
      10
-58.9510717444306
      20
-20.204419967236
      30
0
      10
-61.0172863995599
      20
-23.0380255690052
      30
0
      10
-62.2635078854457
      20
-25.9859140570112
      30
0
      10
-62.2635078854457
      20
-25.9859140570112
      30
0
      10
-63.4720927158343
      20
-28.8042671270162
      30
0
      10
-63.9215553686128
      20
-31.6939587641753
      30
0
      10
-63.6908142766895
      20
-34.0900919452312
      30
0
      10
-63.6908142767
      20
-34.0900919452
      30
0
      10
-56.0893526170333
      20
-29.6438273525
      30
0
      10
-48.4878909573667
      20
-25.1975627598
      30
0
      10
-40.8864292977
      20
-20.7512981671
      30
0
      10
-40.8864292977405
      20
-20.7512981671052
      30
0
      10
-40.5430162774514
      20
-20.5504282264077
      30
0
      10
-40.2407464786257
      20
-20.2863050064894
      30
0
      10
-39.9956417451871
      20
-19.9729283876649
      30
0
      10
-39.9956417451871
      20
-19.9729283876649
      30
0
      10
-39.7505370117485
      20
-19.6595517688404
      30
0
      10
-39.5670058356804
      20
-19.3025581918769
      30
0
      10
-39.4547763071511
      20
-18.9208701405759
      30
0
      10
-39.4547763071511
      20
-18.9208701405759
      30
0
      10
-39.3425467786217
      20
-18.5391820892749
      30
0
      10
-39.3036374754442
      20
-18.1396646644879
      30
0
      10
-39.3401107895119
      20
-17.7434943312463
      30
0
      10
-39.3401107895119
      20
-17.7434943312463
      30
0
      10
-39.3765841035795
      20
-17.3473239980046
      30
0
      10
-39.4877840201741
      20
-16.9616263377427
      30
0
      10
-39.667816375489
      20
-16.6068452973535
      30
0
      10
-39.667816375489
      20
-16.6068452973535
      30
0
      10
-39.8478487308039
      20
-16.2520642569643
      30
0
      10
-40.0934754348031
      20
-15.9345809836023
      30
0
      10
-40.3916770170325
      20
-15.6712237130823
      30
0
      10
-40.3916770170233
      20
-15.6712237130654
      30
0
      10
-41.108149158984
      20
-15.0392766618611
      30
0
      10
-41.9358522944765
      20
-14.5505684569843
      30
0
      10
-42.9006298802757
      20
-14.2097095612679
      30
0
      10
-42.9006298802757
      20
-14.2097095612679
      30
0
      10
-44.0629109190434
      20
-13.8005860353766
      30
0
      10
-45.4380584545588
      20
-13.6126402007028
      30
0
      10
-46.9867774690598
      20
-13.7399201567956
      30
0
      10
-46.9867774690598
      20
-13.7399201567956
      30
0
      10
-46.9867774690732
      20
-11.6352535067304
      30
0
      10
-46.9867774690866
      20
-9.53058685666519
      30
0
      10
-46.9867774691
      20
-7.4259202066
      30
0
      10
-46.9867774690989
      20
-7.4259202065291
      30
0
      10
-45.1419040050202
      20
-7.27963442969177
      30
0
      10
-43.2859459196804
      20
-7.48655312412023
      30
0
      10
-41.5185901144081
      20
-8.03556230850347
      30
0
      10
-41.5185901144081
      20
-8.03556230850347
      30
0
      10
-39.7512343091358
      20
-8.5845714928867
      30
0
      10
-38.1047002768534
      20
-9.46566254446872
      30
0
      10
-36.6674263701868
      20
-10.6315104522947
      30
0
      10
-36.6674263701868
      20
-10.6315104522947
      30
0
      10
-35.2301524635202
      20
-11.7973583601206
      30
0
      10
-34.0283406709571
      20
-13.2267093232847
      30
0
      10
-33.1265425007061
      20
-14.8427902887994
      30
0
      10
-33.1265425007061
      20
-14.8427902887994
      30
0
      10
-32.2247443304551
      20
-16.458871254314
      30
0
      10
-31.6393998675727
      20
-18.2322205206502
      30
0
      10
-31.4019490331302
      20
-20.0675882571513
      30
0
    1001
FS_CYPCUT
    1000
Channel
    1070
1
    1000
LeadIn
    1002
{
    1070
3
    1040
0.5
    1040
1.5707963267949
    1040
0.5
    1040
0.3
    1070
0
    1040
0.5
    1070
0
    1002
}
    1000
LeadOut
    1002
{
    1070
0
    1040
0
    1040
0.523598775598299
    1040
3
    1070
0
    1002
}
    1000
IsFill
    1070
0
    1000
PathStart
    1040
0.5
    1000
ToolCompensation
    1002
{
    1070
0
    1040
0
    1070
0
    1002
}
       0
LINE
       5
2006
     100
AcDbEntity
       8
2
     100
AcDbLine
      10
76.89
      20
-88.3922995801
      30
0
      11
226.89
      21
-88.3922995801
      31
0
    1001
FS_CYPCUT
    1000
Channel
    1070
2
    1000
LeadIn
    1002
{
    1070
3
    1040
0
    1040
1.5707963267949
    1040
0.5
    1040
0.3
    1070
0
    1040
0.5
    1070
0
    1002
}
    1000
LeadOut
    1002
{
    1070
0
    1040
0
    1040
0.523598775598299
    1040
3
    1070
0
    1002
}
    1000
IsFill
    1070
0
    1000
PathStart
    1040
0
    1000
ToolCompensation
    1002
{
    1070
0
    1040
0
    1070
0
    1002
}
       0
LINE
       5
2007
     100
AcDbEntity
       8
2
     100
AcDbLine
      10
226.89
      20
-111.8777680172
      30
0
      11
76.89
      21
-111.8777680172
      31
0
    1001
FS_CYPCUT
    1000
Channel
    1070
2
    1000
LeadIn
    1002
{
    1070
3
    1040
0
    1040
1.5707963267949
    1040
0.5
    1040
0.3
    1070
0
    1040
0.5
    1070
0
    1002
}
    1000
LeadOut
    1002
{
    1070
0
    1040
0
    1040
0.523598775598299
    1040
3
    1070
0
    1002
}
    1000
IsFill
    1070
0
    1000
PathStart
    1040
0
    1000
ToolCompensation
    1002
{
    1070
0
    1040
0
    1070
0
    1002
}
       0
CIRCLE
       5
2008
     100
AcDbEntity
       8
1
     100
AcDbCircle
      10
151.89
      20
-126.4709368742
      30
0
      40
3.75
    1001
FS_CYPCUT
    1000
Channel
    1070
1
    1000
LeadIn
    1002
{
    1070
3
    1040
0
    1040
1.5707963267949
    1040
0.5
    1040
0.3
    1070
0
    1040
0.5
    1070
0
    1002
}
    1000
LeadOut
    1002
{
    1070
0
    1040
0
    1040
0.523598775598299
    1040
3
    1070
0
    1002
}
    1000
IsFill
    1070
0
    1000
PathStart
    1040
0
    1000
ToolCompensation
    1002
{
    1070
0
    1040
0
    1070
0
    1002
}
       0
LWPOLYLINE
       5
2009
     100
AcDbEntity
       8
1
     100
AcDbPolyline
      90
4
      70
1
      10
121.4166582596
      20
-17.4521530014
      42
0
      10
115.0194706047
      20
-17.4521530014
      42
0
      10
109.4650931376
      20
-48.9525929501
      42
0
      10
115.8622807924
      20
-48.9525929501
      42
0
    1001
FS_CYPCUT
    1000
Channel
    1070
1
    1000
LeadIn
    1002
{
    1070
3
    1040
1.5
    1040
1.5707963267949
    1040
0.5
    1040
0.3
    1070
0
    1040
0.5
    1070
0
    1002
}
    1000
LeadOut
    1002
{
    1070
0
    1040
0
    1040
0.523598775598299
    1040
3
    1070
0
    1002
}
    1000
IsFill
    1070
0
    1000
PathStart
    1040
1.5
    1000
ToolCompensation
    1002
{
    1070
0
    1040
0
    1070
0
    1002
}
       0
SPLINE
       5
200A
     100
AcDbEntity
       8
1
     100
AcDbSpline
      70
0
      71
3
      72
92
      73
88
      74
0
      40
0
      40
0
      40
0
      40
0
      40
0.0454545454545455
      40
0.0454545454545455
      40
0.0454545454545455
      40
0.0454545454545455
      40
0.0909090909090909
      40
0.0909090909090909
      40
0.0909090909090909
      40
0.0909090909090909
      40
0.136363636363636
      40
0.136363636363636
      40
0.136363636363636
      40
0.136363636363636
      40
0.181818181818182
      40
0.181818181818182
      40
0.181818181818182
      40
0.181818181818182
      40
0.227272727272727
      40
0.227272727272727
      40
0.227272727272727
      40
0.227272727272727
      40
0.272727272727273
      40
0.272727272727273
      40
0.272727272727273
      40
0.272727272727273
      40
0.318181818181818
      40
0.318181818181818
      40
0.318181818181818
      40
0.318181818181818
      40
0.363636363636364
      40
0.363636363636364
      40
0.363636363636364
      40
0.363636363636364
      40
0.409090909090909
      40
0.409090909090909
      40
0.409090909090909
      40
0.409090909090909
      40
0.454545454545455
      40
0.454545454545455
      40
0.454545454545455
      40
0.454545454545455
      40
0.5
      40
0.5
      40
0.5
      40
0.5
      40
0.545454545454545
      40
0.545454545454545
      40
0.545454545454545
      40
0.545454545454545
      40
0.590909090909091
      40
0.590909090909091
      40
0.590909090909091
      40
0.590909090909091
      40
0.636363636363636
      40
0.636363636363636
      40
0.636363636363636
      40
0.636363636363636
      40
0.681818181818182
      40
0.681818181818182
      40
0.681818181818182
      40
0.681818181818182
      40
0.727272727272727
      40
0.727272727272727
      40
0.727272727272727
      40
0.727272727272727
      40
0.772727272727273
      40
0.772727272727273
      40
0.772727272727273
      40
0.772727272727273
      40
0.818181818181818
      40
0.818181818181818
      40
0.818181818181818
      40
0.818181818181818
      40
0.863636363636364
      40
0.863636363636364
      40
0.863636363636364
      40
0.863636363636364
      40
0.909090909090909
      40
0.909090909090909
      40
0.909090909090909
      40
0.909090909090909
      40
0.954545454545455
      40
0.954545454545455
      40
0.954545454545455
      40
0.954545454545455
      40
1
      40
1
      40
1
      40
1
      10
203.1553371635
      20
-23.2605222337
      30
0
      10
203.1553371635
      20
-31.8245458058333
      30
0
      10
203.1553371635
      20
-40.3885693779667
      30
0
      10
203.1553371635
      20
-48.9525929501
      30
0
      10
203.1553371635
      20
-48.9525929501
      30
0
      10
200.8841457718
      20
-48.9525929501
      30
0
      10
198.6129543801
      20
-48.9525929501
      30
0
      10
196.3417629884
      20
-48.9525929501
      30
0
      10
196.3417629884
      20
-48.9525929501
      30
0
      10
196.34176298842
      20
-46.0279411316389
      30
0
      10
196.34176298844
      20
-43.1032893131777
      30
0
      10
196.34176298846
      20
-40.1786374947166
      30
0
      10
196.34176298846
      20
-40.1786374947166
      30
0
      10
195.098360969412
      20
-41.5982922642989
      30
0
      10
193.707172466126
      20
-42.8813779119065
      30
0
      10
192.191788960018
      20
-44.0061361415659
      30
0
      10
192.191788960018
      20
-44.0061361415659
      30
0
      10
190.67640545391
      20
-45.1308943712253
      30
0
      10
189.045441490896
      20
-46.0909312362058
      30
0
      10
187.3265546141
      20
-46.8699666337
      30
0
      10
187.3265546141
      20
-46.8699666337
      30
0
      10
187.3265546141
      20
-43.7638882862
      30
0
      10
187.3265546141
      20
-40.6578099387
      30
0
      10
187.3265546141
      20
-37.5517315912
      30
0
      10
187.326554614144
      20
-37.5517315911806
      30
0
      10
189.720770646945
      20
-35.9693465670293
      30
0
      10
191.845513487396
      20
-33.7218666085394
      30
0
      10
193.300624395756
      20
-31.2318367666093
      30
0
      10
193.300624395756
      20
-31.2318367666093
      30
0
      10
194.81439446939
      20
-28.6647185949396
      30
0
      10
195.599001725358
      20
-25.8597947068307
      30
0
      10
195.558466873274
      20
-23.3937819463412
      30
0
      10
195.558466873274
      20
-23.3937819463412
      30
0
      10
195.527230073721
      20
-20.9177985644347
      30
0
      10
194.703186229186
      20
-18.8168923543741
      30
0
      10
193.309641637206
      20
-17.3594113864759
      30
0
      10
193.309641637206
      20
-17.3594113864759
      30
0
      10
191.877600735299
      20
-15.8512876653335
      30
0
      10
189.799730584599
      20
-14.970463369791
      30
0
      10
187.326554614144
      20
-14.9343436702063
      30
0
      10
187.326554614144
      20
-14.9343436702063
      30
0
      10
187.326554614129
      20
-12.4619943315376
      30
0
      10
187.326554614115
      20
-9.98964499286878
      30
0
      10
187.3265546141
      20
-7.5172956542
      30
0
      10
187.3265546141
      20
-7.5172956542
      30
0
      10
188.1160506541
      20
-7.52869767753333
      30
0
      10
188.9055466941
      20
-7.54009970086667
      30
0
      10
189.6950427341
      20
-7.5515017242
      30
0
      10
189.6950427341
      20
-7.5515017242
      30
0
      10
190.45301274
      20
-7.67110739836667
      30
0
      10
191.2109827459
      20
-7.79071307253333
      30
0
      10
191.9689527518
      20
-7.9103187467
      30
0
      10
191.9689527518
      20
-7.9103187467
      30
0
      10
192.68341828
      20
-8.1362379048
      30
0
      10
193.3978838082
      20
-8.3621570629
      30
0
      10
194.1123493364
      20
-8.588076221
      30
0
      10
194.1123493364
      20
-8.588076221
      30
0
      10
194.772019458533
      20
-8.91673858993333
      30
0
      10
195.431689580667
      20
-9.24540095886667
      30
0
      10
196.0913597028
      20
-9.5740633278
      30
0
      10
196.0913597028
      20
-9.5740633278
      30
0
      10
196.685809439933
      20
-10.0002749505333
      30
0
      10
197.280259177067
      20
-10.4264865732667
      30
0
      10
197.8747089142
      20
-10.852698196
      30
0
      10
197.8747089142
      20
-10.852698196
      30
0
      10
198.394543986033
      20
-11.3697235133
      30
0
      10
198.914379057867
      20
-11.8867488306
      30
0
      10
199.4342141297
      20
-12.4037741479
      30
0
      10
199.4342141297
      20
-12.4037741479
      30
0
      10
199.871219415567
      20
-13.0034424425
      30
0
      10
200.308224701433
      20
-13.6031107371
      30
0
      10
200.7452299873
      20
-14.2027790317
      30
0
      10
200.7452299873
      20
-14.2027790317
      30
0
      10
201.092499352167
      20
-14.8756135527667
      30
0
      10
201.439768717033
      20
-15.5484480738333
      30
0
      10
201.7870380819
      20
-16.2212825949
      30
0
      10
201.7870380819
      20
-16.2212825949
      30
0
      10
202.039083516433
      20
-16.9566503223
      30
0
      10
202.291128950967
      20
-17.6920180497
      30
0
      10
202.5431743855
      20
-18.4273857771
      30
0
      10
202.5431743855
      20
-18.4273857771
      30
0
      10
202.696012734633
      20
-19.2136654582333
      30
0
      10
202.848851083767
      20
-19.9999451393667
      30
0
      10
203.0016894329
      20
-20.7862248205
      30
0
      10
203.0016894329
      20
-20.7862248205
      30
0
      10
203.0529053431
      20
-21.6109906249
      30
0
      10
203.1041212533
      20
-22.4357564293
      30
0
      10
203.1553371635
      20
-23.2605222337
      30
0
    1001
FS_CYPCUT
    1000
Channel
    1070
1
    1000
LeadIn
    1002
{
    1070
3
    1040
0.5
    1040
1.5707963267949
    1040
0.5
    1040
0.3
    1070
0
    1040
0.5
    1070
0
    1002
}
    1000
LeadOut
    1002
{
    1070
0
    1040
0
    1040
0.523598775598299
    1040
3
    1070
0
    1002
}
    1000
IsFill
    1070
0
    1000
PathStart
    1040
0.5
    1000
ToolCompensation
    1002
{
    1070
0
    1040
0
    1070
0
    1002
}
       0
SPLINE
       5
200B
     100
AcDbEntity
       8
1
     100
AcDbSpline
      70
0
      71
3
      72
132
      73
128
      74
0
      40
0
      40
0
      40
0
      40
0
      40
0.03125
      40
0.03125
      40
0.03125
      40
0.03125
      40
0.0625
      40
0.0625
      40
0.0625
      40
0.0625
      40
0.09375
      40
0.09375
      40
0.09375
      40
0.09375
      40
0.125
      40
0.125
      40
0.125
      40
0.125
      40
0.15625
      40
0.15625
      40
0.15625
      40
0.15625
      40
0.1875
      40
0.1875
      40
0.1875
      40
0.1875
      40
0.21875
      40
0.21875
      40
0.21875
      40
0.21875
      40
0.25
      40
0.25
      40
0.25
      40
0.25
      40
0.28125
      40
0.28125
      40
0.28125
      40
0.28125
      40
0.3125
      40
0.3125
      40
0.3125
      40
0.3125
      40
0.34375
      40
0.34375
      40
0.34375
      40
0.34375
      40
0.375
      40
0.375
      40
0.375
      40
0.375
      40
0.40625
      40
0.40625
      40
0.40625
      40
0.40625
      40
0.4375
      40
0.4375
      40
0.4375
      40
0.4375
      40
0.46875
      40
0.46875
      40
0.46875
      40
0.46875
      40
0.5
      40
0.5
      40
0.5
      40
0.5
      40
0.53125
      40
0.53125
      40
0.53125
      40
0.53125
      40
0.5625
      40
0.5625
      40
0.5625
      40
0.5625
      40
0.59375
      40
0.59375
      40
0.59375
      40
0.59375
      40
0.625
      40
0.625
      40
0.625
      40
0.625
      40
0.65625
      40
0.65625
      40
0.65625
      40
0.65625
      40
0.6875
      40
0.6875
      40
0.6875
      40
0.6875
      40
0.71875
      40
0.71875
      40
0.71875
      40
0.71875
      40
0.75
      40
0.75
      40
0.75
      40
0.75
      40
0.78125
      40
0.78125
      40
0.78125
      40
0.78125
      40
0.8125
      40
0.8125
      40
0.8125
      40
0.8125
      40
0.84375
      40
0.84375
      40
0.84375
      40
0.84375
      40
0.875
      40
0.875
      40
0.875
      40
0.875
      40
0.90625
      40
0.90625
      40
0.90625
      40
0.90625
      40
0.9375
      40
0.9375
      40
0.9375
      40
0.9375
      40
0.96875
      40
0.96875
      40
0.96875
      40
0.96875
      40
1
      40
1
      40
1
      40
1
      10
184.3265546141
      20
-7.9234441735
      30
0
      10
183.496614516433
      20
-8.15737286916667
      30
0
      10
182.666674418767
      20
-8.39130156483333
      30
0
      10
181.8367343211
      20
-8.6252302605
      30
0
      10
181.8367343211
      20
-8.6252302605
      30
0
      10
181.017044478233
      20
-8.96565984653333
      30
0
      10
180.197354635367
      20
-9.30608943256667
      30
0
      10
179.3776647925
      20
-9.6465190186
      30
0
      10
179.3776647925
      20
-9.6465190186
      30
0
      10
178.581678420633
      20
-10.0878621708333
      30
0
      10
177.785692048767
      20
-10.5292053230667
      30
0
      10
176.9897056769
      20
-10.9705484753
      30
0
      10
176.9897056769
      20
-10.9705484753
      30
0
      10
176.230486957433
      20
-11.5055616187667
      30
0
      10
175.471268237967
      20
-12.0405747622333
      30
0
      10
174.7120495185
      20
-12.5755879057
      30
0
      10
174.7120495185
      20
-12.5755879057
      30
0
      10
174.002059181133
      20
-13.1954901002
      30
0
      10
173.292068843767
      20
-13.8153922947
      30
0
      10
172.5820785064
      20
-14.4352944892
      30
0
      10
172.5820785064
      20
-14.4352944892
      30
0
      10
171.932969316633
      20
-15.1299115470667
      30
0
      10
171.283860126867
      20
-15.8245286049333
      30
0
      10
170.6347509371
      20
-16.5191456628
      30
0
      10
170.6347509371
      20
-16.5191456628
      30
0
      10
170.057176444467
      20
-17.2770771335667
      30
0
      10
169.479601951833
      20
-18.0350086043333
      30
0
      10
168.9020274592
      20
-18.7929400751
      30
0
      10
168.9020274592
      20
-18.7929400751
      30
0
      10
168.4054671449
      20
-19.6017463560667
      30
0
      10
167.9089068306
      20
-20.4105526370333
      30
0
      10
167.4123465163
      20
-21.219358918
      30
0
      10
167.4123465163
      20
-21.219358918
      30
0
      10
167.0049502109
      20
-22.0657654202
      30
0
      10
166.5975539055
      20
-22.9121719224
      30
0
      10
166.1901576001
      20
-23.7585784246
      30
0
      10
166.1901576001
      20
-23.7585784246
      30
0
      10
165.8786117236
      20
-24.6286934427333
      30
0
      10
165.5670658471
      20
-25.4988084608667
      30
0
      10
165.2555199706
      20
-26.368923479
      30
0
      10
165.2555199706
      20
-26.368923479
      30
0
      10
165.044937791267
      20
-27.2484661902
      30
0
      10
164.834355611933
      20
-28.1280089014
      30
0
      10
164.6237734326
      20
-29.0075516126
      30
0
      10
164.6237734326
      20
-29.0075516126
      30
0
      10
164.517611144967
      20
-29.8820864613
      30
0
      10
164.411448857333
      20
-30.75662131
      30
0
      10
164.3052865697
      20
-31.6311561587
      30
0
      10
164.3052865697
      20
-31.6311561587
      30
0
      10
164.3052865697
      20
-32.4863297812
      30
0
      10
164.3052865697
      20
-33.3415034037
      30
0
      10
164.3052865697
      20
-34.1966770262
      30
0
      10
164.3052865697
      20
-34.1966770262
      30
0
      10
164.411448857333
      20
-35.0184538263
      30
0
      10
164.517611144967
      20
-35.8402306264
      30
0
      10
164.6237734326
      20
-36.6620074265
      30
0
      10
164.6237734326
      20
-36.6620074265
      30
0
      10
164.834355611933
      20
-37.4368999356333
      30
0
      10
165.044937791267
      20
-38.2117924447667
      30
0
      10
165.2555199706
      20
-38.9866849539
      30
0
      10
165.2555199706
      20
-38.9866849539
      30
0
      10
165.5670658471
      20
-39.7019751952
      30
0
      10
165.8786117236
      20
-40.4172654365
      30
0
      10
166.1901576001
      20
-41.1325556778
      30
0
      10
166.1901576001
      20
-41.1325556778
      30
0
      10
166.5975539055
      20
-41.7765039007333
      30
0
      10
167.0049502109
      20
-42.4204521236667
      30
0
      10
167.4123465163
      20
-43.0644003466
      30
0
      10
167.4123465163
      20
-43.0644003466
      30
0
      10
167.9089068306
      20
-43.6264377063667
      30
0
      10
168.4054671449
      20
-44.1884750661333
      30
0
      10
168.9020274592
      20
-44.7505124259
      30
0
      10
168.9020274592
      20
-44.7505124259
      30
0
      10
169.479601951833
      20
-45.2214144455333
      30
0
      10
170.057176444467
      20
-45.6923164651667
      30
0
      10
170.6347509371
      20
-46.1632184848
      30
0
      10
170.6347509371
      20
-46.1632184848
      30
0
      10
171.283860126867
      20
-46.5352564523333
      30
0
      10
171.932969316633
      20
-46.9072944198667
      30
0
      10
172.5820785064
      20
-47.2793323874
      30
0
      10
172.5820785064
      20
-47.2793323874
      30
0
      10
173.292068843767
      20
-47.5464002039
      30
0
      10
174.002059181133
      20
-47.8134680204
      30
0
      10
174.7120495185
      20
-48.0805358369
      30
0
      10
174.7120495185
      20
-48.0805358369
      30
0
      10
175.471268237967
      20
-48.2382502334667
      30
0
      10
176.230486957433
      20
-48.3959646300333
      30
0
      10
176.9897056769
      20
-48.5536790266
      30
0
      10
176.9897056769
      20
-48.5536790266
      30
0
      10
177.785692048767
      20
-48.5994515047
      30
0
      10
178.581678420633
      20
-48.6452239828
      30
0
      10
179.3776647925
      20
-48.6909964609
      30
0
      10
179.3776647925
      20
-48.6909964609
      30
0
      10
180.197354635367
      20
-48.6240757766
      30
0
      10
181.017044478233
      20
-48.5571550923
      30
0
      10
181.8367343211
      20
-48.490234408
      30
0
      10
181.8367343211
      20
-48.490234408
      30
0
      10
182.666674418767
      20
-48.3117189017
      30
0
      10
183.496614516433
      20
-48.1332033954
      30
0
      10
184.3265546141
      20
-47.9546878891
      30
0
      10
184.3265546141
      20
-47.9546878891
      30
0
      10
184.3265546141
      20
-45.0197259829667
      30
0
      10
184.3265546141
      20
-42.0847640768333
      30
0
      10
184.3265546141
      20
-39.1498021707
      30
0
      10
184.326554614145
      20
-39.1498021706521
      30
0
      10
181.613200637839
      20
-40.2665396552299
      30
0
      10
178.875980052215
      20
-40.4765801177691
      30
0
      10
176.68753865509
      20
-39.8530748783505
      30
0
      10
176.68753865509
      20
-39.8530748783505
      30
0
      10
173.790767314279
      20
-39.0379549282071
      30
0
      10
171.788264735959
      20
-36.8714147427895
      30
0
      10
171.136217723823
      20
-33.7660385804194
      30
0
      10
171.136217723823
      20
-33.7660385804194
      30
0
      10
170.639478554702
      20
-31.4255140192156
      30
0
      10
170.991597971665
      20
-28.5577633097887
      30
0
      10
172.214726479805
      20
-25.7849651237922
      30
0
      10
172.214726479805
      20
-25.7849651237922
      30
0
      10
173.516696439806
      20
-22.7883211854156
      30
0
      10
175.824726512197
      20
-19.9485381596545
      30
0
      10
178.568055344016
      20
-17.98491929268
      30
0
      10
178.568055344016
      20
-17.98491929268
      30
0
      10
180.391320888071
      20
-16.6691046414037
      30
0
      10
182.391676759719
      20
-15.737926816192
      30
0
      10
184.326554614145
      20
-15.2797442085804
      30
0
      10
184.326554614145
      20
-15.2797442085804
      30
0
      10
184.32655461413
      20
-12.827644196887
      30
0
      10
184.326554614115
      20
-10.3755441851935
      30
0
      10
184.3265546141
      20
-7.9234441735
      30
0
    1001
FS_CYPCUT
    1000
Channel
    1070
1
    1000
LeadIn
    1002
{
    1070
3
    1040
29.5
    1040
1.5707963267949
    1040
0.5
    1040
0.3
    1070
0
    1040
0.5
    1070
0
    1002
}
    1000
LeadOut
    1002
{
    1070
0
    1040
0
    1040
0.523598775598299
    1040
3
    1070
0
    1002
}
    1000
IsFill
    1070
0
    1000
PathStart
    1040
29.5
    1000
ToolCompensation
    1002
{
    1070
0
    1040
0
    1070
0
    1002
}
       0
SPLINE
       5
200C
     100
AcDbEntity
       8
1
     100
AcDbSpline
      70
0
      71
3
      72
136
      73
132
      74
0
      40
0
      40
0
      40
0
      40
0
      40
0.0303030303030303
      40
0.0303030303030303
      40
0.0303030303030303
      40
0.0303030303030303
      40
0.0606060606060606
      40
0.0606060606060606
      40
0.0606060606060606
      40
0.0606060606060606
      40
0.0909090909090909
      40
0.0909090909090909
      40
0.0909090909090909
      40
0.0909090909090909
      40
0.121212121212121
      40
0.121212121212121
      40
0.121212121212121
      40
0.121212121212121
      40
0.151515151515152
      40
0.151515151515152
      40
0.151515151515152
      40
0.151515151515152
      40
0.181818181818182
      40
0.181818181818182
      40
0.181818181818182
      40
0.181818181818182
      40
0.212121212121212
      40
0.212121212121212
      40
0.212121212121212
      40
0.212121212121212
      40
0.242424242424242
      40
0.242424242424242
      40
0.242424242424242
      40
0.242424242424242
      40
0.272727272727273
      40
0.272727272727273
      40
0.272727272727273
      40
0.272727272727273
      40
0.303030303030303
      40
0.303030303030303
      40
0.303030303030303
      40
0.303030303030303
      40
0.333333333333333
      40
0.333333333333333
      40
0.333333333333333
      40
0.333333333333333
      40
0.363636363636364
      40
0.363636363636364
      40
0.363636363636364
      40
0.363636363636364
      40
0.393939393939394
      40
0.393939393939394
      40
0.393939393939394
      40
0.393939393939394
      40
0.424242424242424
      40
0.424242424242424
      40
0.424242424242424
      40
0.424242424242424
      40
0.454545454545455
      40
0.454545454545455
      40
0.454545454545455
      40
0.454545454545455
      40
0.484848484848485
      40
0.484848484848485
      40
0.484848484848485
      40
0.484848484848485
      40
0.515151515151515
      40
0.515151515151515
      40
0.515151515151515
      40
0.515151515151515
      40
0.545454545454545
      40
0.545454545454545
      40
0.545454545454545
      40
0.545454545454545
      40
0.575757575757576
      40
0.575757575757576
      40
0.575757575757576
      40
0.575757575757576
      40
0.606060606060606
      40
0.606060606060606
      40
0.606060606060606
      40
0.606060606060606
      40
0.636363636363636
      40
0.636363636363636
      40
0.636363636363636
      40
0.636363636363636
      40
0.666666666666667
      40
0.666666666666667
      40
0.666666666666667
      40
0.666666666666667
      40
0.696969696969697
      40
0.696969696969697
      40
0.696969696969697
      40
0.696969696969697
      40
0.727272727272727
      40
0.727272727272727
      40
0.727272727272727
      40
0.727272727272727
      40
0.757575757575758
      40
0.757575757575758
      40
0.757575757575758
      40
0.757575757575758
      40
0.787878787878788
      40
0.787878787878788
      40
0.787878787878788
      40
0.787878787878788
      40
0.818181818181818
      40
0.818181818181818
      40
0.818181818181818
      40
0.818181818181818
      40
0.848484848484849
      40
0.848484848484849
      40
0.848484848484849
      40
0.848484848484849
      40
0.878787878787879
      40
0.878787878787879
      40
0.878787878787879
      40
0.878787878787879
      40
0.909090909090909
      40
0.909090909090909
      40
0.909090909090909
      40
0.909090909090909
      40
0.939393939393939
      40
0.939393939393939
      40
0.939393939393939
      40
0.939393939393939
      40
0.96969696969697
      40
0.96969696969697
      40
0.96969696969697
      40
0.96969696969697
      40
1
      40
1
      40
1
      40
1
      10
162.7053711287
      20
-7.6506754115
      30
0
      10
162.7053711287
      20
-9.7506754104
      30
0
      10
162.7053711287
      20
-11.8506754093
      30
0
      10
162.7053711287
      20
-13.9506754082
      30
0
      10
162.7053711287
      20
-13.9506754082
      30
0
      10
157.871141014733
      20
-13.9506754082
      30
0
      10
153.036910900767
      20
-13.9506754082
      30
0
      10
148.2026807868
      20
-13.9506754082
      30
0
      10
148.202680786833
      20
-13.9506754081553
      30
0
      10
145.548071235661
      20
-14.2429340313876
      30
0
      10
142.662844656017
      20
-15.3797741885378
      30
0
      10
140.077793911552
      20
-17.2119017099871
      30
0
      10
140.077793911552
      20
-17.2119017099871
      30
0
      10
136.886018695873
      20
-19.4507349700019
      30
0
      10
134.194552339015
      20
-22.737609188731
      30
0
      10
132.695670336371
      20
-26.2081260027393
      30
0
      10
132.695670336371
      20
-26.2081260027393
      30
0
      10
131.316810625539
      20
-29.3507717729258
      30
0
      10
130.924928515497
      20
-32.5978488115203
      30
0
      10
131.492980006551
      20
-35.246445194084
      30
0
      10
131.492980006551
      20
-35.246445194084
      30
0
      10
132.291805472661
      20
-39.0093491453958
      30
0
      10
134.842369823183
      20
-41.5545599754537
      30
0
      10
138.511907266607
      20
-42.3011153589846
      30
0
      10
138.5119072666
      20
-42.301115359
      30
0
      10
144.386521868767
      20
-42.301115359
      30
0
      10
150.261136470933
      20
-42.301115359
      30
0
      10
156.1357510731
      20
-42.301115359
      30
0
      10
156.1357510731
      20
-42.301115359
      30
0
      10
156.1357510731
      20
-44.5182745560333
      30
0
      10
156.1357510731
      20
-46.7354337530667
      30
0
      10
156.1357510731
      20
-48.9525929501
      30
0
      10
156.1357510731
      20
-48.9525929501
      30
0
      10
149.8189891138
      20
-48.9525929501
      30
0
      10
143.5022271545
      20
-48.9525929501
      30
0
      10
137.1854651952
      20
-48.9525929501
      30
0
      10
137.1854651952
      20
-48.9525929501
      30
0
      10
136.430767067333
      20
-48.8804972733
      30
0
      10
135.676068939467
      20
-48.8084015965
      30
0
      10
134.9213708116
      20
-48.7363059197
      30
0
      10
134.9213708116
      20
-48.7363059197
      30
0
      10
134.212780807533
      20
-48.5533089186333
      30
0
      10
133.504190803467
      20
-48.3703119175667
      30
0
      10
132.7956007994
      20
-48.1873149165
      30
0
      10
132.7956007994
      20
-48.1873149165
      30
0
      10
132.1445386673
      20
-47.8963657996333
      30
0
      10
131.4934765352
      20
-47.6054166827667
      30
0
      10
130.8424144031
      20
-47.3144675659
      30
0
      10
130.8424144031
      20
-47.3144675659
      30
0
      10
130.2593727628
      20
-46.9202553150667
      30
0
      10
129.6763311225
      20
-46.5260430642333
      30
0
      10
129.0932894822
      20
-46.1318308134
      30
0
      10
129.0932894822
      20
-46.1318308134
      30
0
      10
128.587664724633
      20
-45.6407086153
      30
0
      10
128.082039967067
      20
-45.1495864172
      30
0
      10
127.5764152095
      20
-44.6584642191
      30
0
      10
127.5764152095
      20
-44.6584642191
      30
0
      10
127.156356062867
      20
-44.0783470764333
      30
0
      10
126.736296916233
      20
-43.4982299337667
      30
0
      10
126.3162377696
      20
-42.9181127911
      30
0
      10
126.3162377696
      20
-42.9181127911
      30
0
      10
125.988513973333
      20
-42.2583499631667
      30
0
      10
125.660790177067
      20
-41.5985871352333
      30
0
      10
125.3330663808
      20
-40.9388243073
      30
0
      10
125.3330663808
      20
-40.9388243073
      30
0
      10
125.1029595832
      20
-40.2100486356667
      30
0
      10
124.8728527856
      20
-39.4812729640333
      30
0
      10
124.642745988
      20
-38.7524972924
      30
0
      10
124.642745988
      20
-38.7524972924
      30
0
      10
124.5139646264
      20
-37.9664538406333
      30
0
      10
124.3851832648
      20
-37.1804103888667
      30
0
      10
124.2564019032
      20
-36.3943669371
      30
0
      10
124.2564019032
      20
-36.3943669371
      30
0
      10
124.2310214384
      20
-35.5637237053
      30
0
      10
124.2056409736
      20
-34.7330804735
      30
0
      10
124.1802605088
      20
-33.9024372417
      30
0
      10
124.1802605088
      20
-33.9024372417
      30
0
      10
124.2586899763
      20
-33.0405810069667
      30
0
      10
124.3371194438
      20
-32.1787247722333
      30
0
      10
124.4155489113
      20
-31.3168685375
      30
0
      10
124.4155489113
      20
-31.3168685375
      30
0
      10
124.5965243295
      20
-30.4376891107333
      30
0
      10
124.7774997477
      20
-29.5585096839667
      30
0
      10
124.9584751659
      20
-28.6793302572
      30
0
      10
124.9584751659
      20
-28.6793302572
      30
0
      10
125.2390799064
      20
-27.7969966324667
      30
0
      10
125.5196846469
      20
-26.9146630077333
      30
0
      10
125.8002893874
      20
-26.032329383
      30
0
      10
125.8002893874
      20
-26.032329383
      30
0
      10
126.176001180067
      20
-25.161061388
      30
0
      10
126.551712972733
      20
-24.289793393
      30
0
      10
126.9274247654
      20
-23.418525398
      30
0
      10
126.9274247654
      20
-23.418525398
      30
0
      10
127.392188579733
      20
-22.5723645249667
      30
0
      10
127.856952394067
      20
-21.7262036519333
      30
0
      10
128.3217162084
      20
-20.8800427789
      30
0
      10
128.3217162084
      20
-20.8800427789
      30
0
      10
128.868041837633
      20
-20.0726258897333
      30
0
      10
129.414367466867
      20
-19.2652090005667
      30
0
      10
129.9606930961
      20
-18.4577921114
      30
0
      10
129.9606930961
      20
-18.4577921114
      30
0
      10
130.579775870267
      20
-17.7021316639
      30
0
      10
131.198858644433
      20
-16.9464712164
      30
0
      10
131.8179414186
      20
-16.1908107689
      30
0
      10
131.8179414186
      20
-16.1908107689
      30
0
      10
132.499804102267
      20
-15.4990851058333
      30
0
      10
133.181666785933
      20
-14.8073594427667
      30
0
      10
133.8635294696
      20
-14.1156337797
      30
0
      10
133.8635294696
      20
-14.1156337797
      30
0
      10
134.5971830563
      20
-13.4989908608
      30
0
      10
135.330836643
      20
-12.8823479419
      30
0
      10
136.0644902297
      20
-12.265705023
      30
0
      10
136.0644902297
      20
-12.265705023
      30
0
      10
136.8381110427
      20
-11.7340827627
      30
0
      10
137.6117318557
      20
-11.2024605024
      30
0
      10
138.3853526687
      20
-10.6708382421
      30
0
      10
138.3853526687
      20
-10.6708382421
      30
0
      10
139.186472913133
      20
-10.2328043485
      30
0
      10
139.987593157567
      20
-9.7947704549
      30
0
      10
140.788713402
      20
-9.3567365613
      30
0
      10
140.788713402
      20
-9.3567365613
      30
0
      10
141.6044220978
      20
-9.0193504576
      30
0
      10
142.4201307936
      20
-8.6819643539
      30
0
      10
143.2358394894
      20
-8.3445782502
      30
0
      10
143.2358394894
      20
-8.3445782502
      30
0
      10
144.052990546767
      20
-8.11327730396667
      30
0
      10
144.870141604133
      20
-7.88197635773333
      30
0
      10
145.6872926615
      20
-7.6506754115
      30
0
      10
145.6872926615
      20
-7.6506754115
      30
0
      10
151.3599854839
      20
-7.6506754115
      30
0
      10
157.0326783063
      20
-7.6506754115
      30
0
      10
162.7053711287
      20
-7.6506754115
      30
0
    1001
FS_CYPCUT
    1000
Channel
    1070
1
    1000
LeadIn
    1002
{
    1070
3
    1040
8.5
    1040
1.5707963267949
    1040
0.5
    1040
0.3
    1070
0
    1040
0.5
    1070
0
    1002
}
    1000
LeadOut
    1002
{
    1070
0
    1040
0
    1040
0.523598775598299
    1040
3
    1070
0
    1002
}
    1000
IsFill
    1070
0
    1000
PathStart
    1040
8.5
    1000
ToolCompensation
    1002
{
    1070
0
    1040
0
    1070
0
    1002
}
       0
LWPOLYLINE
       5
200D
     100
AcDbEntity
       8
1
     100
AcDbPolyline
      90
4
      70
1
      10
123.0829482273
      20
-8.0021530014
      42
0
      10
121.9720882488
      20
-14.3021530014
      42
0
      10
115.574900594
      20
-14.3021530014
      42
0
      10
116.6857605724
      20
-8.0021530014
      42
0
    1001
FS_CYPCUT
    1000
Channel
    1070
1
    1000
LeadIn
    1002
{
    1070
3
    1040
0.5
    1040
1.5707963267949
    1040
0.5
    1040
0.3
    1070
0
    1040
0.5
    1070
0
    1002
}
    1000
LeadOut
    1002
{
    1070
0
    1040
0
    1040
0.523598775598299
    1040
3
    1070
0
    1002
}
    1000
IsFill
    1070
0
    1000
PathStart
    1040
0.5
    1000
ToolCompensation
    1002
{
    1070
0
    1040
0
    1070
0
    1002
}
       0
LWPOLYLINE
       5
200E
     100
AcDbEntity
       8
1
     100
AcDbPolyline
      90
12
      70
1
      10
107.2972348531
      20
-17.1006754087
      42
0
      10
107.2972348531
      20
-23.4006754097
      42
0
      10
91.2241932387
      20
-23.4006754097
      42
0
      10
88.5434151231115
      20
-38.6041235991492
      42
0.466307658154999
      10
91.6455595451
      20
-42.3011153588
      42
0
      10
101.4029570045
      20
-42.3011153588
      42
0
      10
101.4029570045
      20
-48.9525929501
      42
0
      10
91.6455595432
      20
-48.9525929501
      42
-0.38691948068717
      10
81.8874252449
      20
-40.0718639405
      42
0
      10
87.6041555359
      20
-7.650675409
      42
0
      10
94.0013431908
      20
-7.650675409
      42
0
      10
92.3350532213
      20
-17.1006754087
      42
0
    1001
FS_CYPCUT
    1000
Channel
    1070
1
    1000
LeadIn
    1002
{
    1070
3
    1040
8.5
    1040
1.5707963267949
    1040
0.5
    1040
0.3
    1070
0
    1040
0.5
    1070
0
    1002
}
    1000
LeadOut
    1002
{
    1070
0
    1040
0
    1040
0.523598775598299
    1040
3
    1070
0
    1002
}
    1000
IsFill
    1070
0
    1000
PathStart
    1040
8.5
    1000
ToolCompensation
    1002
{
    1070
0
    1040
0
    1070
0
    1002
}
       0
SPLINE
       5
200F
     100
AcDbEntity
       8
1
     100
AcDbSpline
      70
0
      71
3
      72
92
      73
88
      74
0
      40
0
      40
0
      40
0
      40
0
      40
0.0454545454545455
      40
0.0454545454545455
      40
0.0454545454545455
      40
0.0454545454545455
      40
0.0909090909090909
      40
0.0909090909090909
      40
0.0909090909090909
      40
0.0909090909090909
      40
0.136363636363636
      40
0.136363636363636
      40
0.136363636363636
      40
0.136363636363636
      40
0.181818181818182
      40
0.181818181818182
      40
0.181818181818182
      40
0.181818181818182
      40
0.227272727272727
      40
0.227272727272727
      40
0.227272727272727
      40
0.227272727272727
      40
0.272727272727273
      40
0.272727272727273
      40
0.272727272727273
      40
0.272727272727273
      40
0.318181818181818
      40
0.318181818181818
      40
0.318181818181818
      40
0.318181818181818
      40
0.363636363636364
      40
0.363636363636364
      40
0.363636363636364
      40
0.363636363636364
      40
0.409090909090909
      40
0.409090909090909
      40
0.409090909090909
      40
0.409090909090909
      40
0.454545454545455
      40
0.454545454545455
      40
0.454545454545455
      40
0.454545454545455
      40
0.5
      40
0.5
      40
0.5
      40
0.5
      40
0.545454545454545
      40
0.545454545454545
      40
0.545454545454545
      40
0.545454545454545
      40
0.590909090909091
      40
0.590909090909091
      40
0.590909090909091
      40
0.590909090909091
      40
0.636363636363636
      40
0.636363636363636
      40
0.636363636363636
      40
0.636363636363636
      40
0.681818181818182
      40
0.681818181818182
      40
0.681818181818182
      40
0.681818181818182
      40
0.727272727272727
      40
0.727272727272727
      40
0.727272727272727
      40
0.727272727272727
      40
0.772727272727273
      40
0.772727272727273
      40
0.772727272727273
      40
0.772727272727273
      40
0.818181818181818
      40
0.818181818181818
      40
0.818181818181818
      40
0.818181818181818
      40
0.863636363636364
      40
0.863636363636364
      40
0.863636363636364
      40
0.863636363636364
      40
0.909090909090909
      40
0.909090909090909
      40
0.909090909090909
      40
0.909090909090909
      40
0.954545454545455
      40
0.954545454545455
      40
0.954545454545455
      40
0.954545454545455
      40
1
      40
1
      40
1
      40
1
      10
78.7224785336
      20
-23.1797991913
      30
0
      10
78.6701729855667
      20
-22.3394088759667
      30
0
      10
78.6178674375333
      20
-21.4990185606333
      30
0
      10
78.5655618895
      20
-20.6586282453
      30
0
      10
78.5655618895
      20
-20.6586282453
      30
0
      10
78.4094755609
      20
-19.8575721491
      30
0
      10
78.2533892323
      20
-19.0565160529
      30
0
      10
78.0973029037
      20
-18.2554599567
      30
0
      10
78.0973029037
      20
-18.2554599567
      30
0
      10
77.8399135602
      20
-17.5064543075333
      30
0
      10
77.5825242167
      20
-16.7574486583667
      30
0
      10
77.3251348732
      20
-16.0084430092
      30
0
      10
77.3251348732
      20
-16.0084430092
      30
0
      10
76.9705283979333
      20
-15.3233777691333
      30
0
      10
76.6159219226667
      20
-14.6383125290667
      30
0
      10
76.2613154474
      20
-13.953247289
      30
0
      10
76.2613154474
      20
-13.953247289
      30
0
      10
75.8151209801667
      20
-13.3429974089667
      30
0
      10
75.3689265129333
      20
-12.7327475289333
      30
0
      10
74.9227320457
      20
-12.1224976489
      30
0
      10
74.9227320457
      20
-12.1224976489
      30
0
      10
74.3920326242333
      20
-11.5967504361667
      30
0
      10
73.8613332027667
      20
-11.0710032234333
      30
0
      10
73.3306337813
      20
-10.5452560107
      30
0
      10
73.3306337813
      20
-10.5452560107
      30
0
      10
72.7238539027667
      20
-10.1123573495
      30
0
      10
72.1170740242333
      20
-9.6794586883
      30
0
      10
71.5102941457
      20
-9.2465600271
      30
0
      10
71.5102941457
      20
-9.2465600271
      30
0
      10
70.8370660334333
      20
-8.91338189313333
      30
0
      10
70.1638379211667
      20
-8.58020375916667
      30
0
      10
69.4906098089
      20
-8.2470256252
      30
0
      10
69.4906098089
      20
-8.2470256252
      30
0
      10
68.7616205074
      20
-8.0188569977
      30
0
      10
68.0326312059
      20
-7.7906883702
      30
0
      10
67.3036419044
      20
-7.5625197427
      30
0
      10
67.3036419044
      20
-7.5625197427
      30
0
      10
66.5304636296333
      20
-7.4429826456
      30
0
      10
65.7572853548667
      20
-7.3234455485
      30
0
      10
64.9841070801
      20
-7.2039084514
      30
0
      10
64.9841070801
      20
-7.2039084514
      30
0
      10
64.1790135182333
      20
-7.1949004558
      30
0
      10
63.3739199563667
      20
-7.1858924602
      30
0
      10
62.5688263945
      20
-7.1768844646
      30
0
      10
62.5688263945
      20
-7.1768844646
      30
0
      10
62.5688263945
      20
-9.7627041997
      30
0
      10
62.5688263945
      20
-12.3485239348
      30
0
      10
62.5688263945
      20
-14.9343436699
      30
0
      10
62.5688263945189
      20
-14.9343436698505
      30
0
      10
65.0420023649734
      20
-14.9704633694362
      30
0
      10
67.1198725156725
      20
-15.8512876649783
      30
0
      10
68.5519134175785
      20
-17.3594113861203
      30
0
      10
68.5519134175785
      20
-17.3594113861203
      30
0
      10
69.9454580095594
      20
-18.8168923540196
      30
0
      10
70.7695018540938
      20
-20.9177985640779
      30
0
      10
70.8007386536454
      20
-23.3937819459829
      30
0
      10
70.8007386536454
      20
-23.3937819459829
      30
0
      10
70.8412735057268
      20
-25.8597947064716
      30
0
      10
70.0566662497678
      20
-28.6647185945815
      30
0
      10
68.5428961761304
      20
-31.2318367662485
      30
0
      10
68.5428961761304
      20
-31.2318367662485
      30
0
      10
67.0877852677719
      20
-33.7218666081787
      30
0
      10
64.9630424273181
      20
-35.9693465666669
      30
0
      10
62.5688263945189
      20
-37.5517315908181
      30
0
      10
62.5688263945
      20
-37.5517315908
      30
0
      10
62.5688263945
      20
-40.6578099383333
      30
0
      10
62.5688263945
      20
-43.7638882858667
      30
0
      10
62.5688263945
      20
-46.8699666334
      30
0
      10
62.5688263945
      20
-46.8699666334
      30
0
      10
64.2877132712835
      20
-46.0909312358861
      30
0
      10
65.9186772342825
      20
-45.1308943708873
      30
0
      10
67.4340607403741
      20
-44.0061361412113
      30
0
      10
67.4340607403741
      20
-44.0061361412113
      30
0
      10
68.9494442464656
      20
-42.8813779115354
      30
0
      10
70.3406327497331
      20
-41.598292263913
      30
0
      10
71.5840347687618
      20
-40.1786374943181
      30
0
      10
71.5840347687618
      20
-40.1786374943181
      30
0
      10
71.5840347687745
      20
-43.103289312912
      30
0
      10
71.5840347687872
      20
-46.027941131506
      30
0
      10
71.5840347688
      20
-48.9525929501
      30
0
      10
71.5840347688
      20
-48.9525929501
      30
0
      10
73.9635160237333
      20
-48.9525929501
      30
0
      10
76.3429972786667
      20
-48.9525929501
      30
0
      10
78.7224785336
      20
-48.9525929501
      30
0
      10
78.7224785336
      20
-48.9525929501
      30
0
      10
78.7224785336
      20
-40.3616616971667
      30
0
      10
78.7224785336
      20
-31.7707304442333
      30
0
      10
78.7224785336
      20
-23.1797991913
      30
0
    1001
FS_CYPCUT
    1000
Channel
    1070
1
    1000
LeadIn
    1002
{
    1070
3
    1040
21.5
    1040
1.5707963267949
    1040
0.5
    1040
0.3
    1070
0
    1040
0.5
    1070
0
    1002
}
    1000
LeadOut
    1002
{
    1070
0
    1040
0
    1040
0.523598775598299
    1040
3
    1070
0
    1002
}
    1000
IsFill
    1070
0
    1000
PathStart
    1040
21.5
    1000
ToolCompensation
    1002
{
    1070
0
    1040
0
    1070
0
    1002
}
       0
SPLINE
       5
2010
     100
AcDbEntity
       8
1
     100
AcDbSpline
      70
0
      71
3
      72
132
      73
128
      74
0
      40
0
      40
0
      40
0
      40
0
      40
0.03125
      40
0.03125
      40
0.03125
      40
0.03125
      40
0.0625
      40
0.0625
      40
0.0625
      40
0.0625
      40
0.09375
      40
0.09375
      40
0.09375
      40
0.09375
      40
0.125
      40
0.125
      40
0.125
      40
0.125
      40
0.15625
      40
0.15625
      40
0.15625
      40
0.15625
      40
0.1875
      40
0.1875
      40
0.1875
      40
0.1875
      40
0.21875
      40
0.21875
      40
0.21875
      40
0.21875
      40
0.25
      40
0.25
      40
0.25
      40
0.25
      40
0.28125
      40
0.28125
      40
0.28125
      40
0.28125
      40
0.3125
      40
0.3125
      40
0.3125
      40
0.3125
      40
0.34375
      40
0.34375
      40
0.34375
      40
0.34375
      40
0.375
      40
0.375
      40
0.375
      40
0.375
      40
0.40625
      40
0.40625
      40
0.40625
      40
0.40625
      40
0.4375
      40
0.4375
      40
0.4375
      40
0.4375
      40
0.46875
      40
0.46875
      40
0.46875
      40
0.46875
      40
0.5
      40
0.5
      40
0.5
      40
0.5
      40
0.53125
      40
0.53125
      40
0.53125
      40
0.53125
      40
0.5625
      40
0.5625
      40
0.5625
      40
0.5625
      40
0.59375
      40
0.59375
      40
0.59375
      40
0.59375
      40
0.625
      40
0.625
      40
0.625
      40
0.625
      40
0.65625
      40
0.65625
      40
0.65625
      40
0.65625
      40
0.6875
      40
0.6875
      40
0.6875
      40
0.6875
      40
0.71875
      40
0.71875
      40
0.71875
      40
0.71875
      40
0.75
      40
0.75
      40
0.75
      40
0.75
      40
0.78125
      40
0.78125
      40
0.78125
      40
0.78125
      40
0.8125
      40
0.8125
      40
0.8125
      40
0.8125
      40
0.84375
      40
0.84375
      40
0.84375
      40
0.84375
      40
0.875
      40
0.875
      40
0.875
      40
0.875
      40
0.90625
      40
0.90625
      40
0.90625
      40
0.90625
      40
0.9375
      40
0.9375
      40
0.9375
      40
0.9375
      40
0.96875
      40
0.96875
      40
0.96875
      40
0.96875
      40
1
      40
1
      40
1
      40
1
      10
59.5688263945
      20
-7.9234441732
      30
0
      10
58.7388862968333
      20
-8.15737286886667
      30
0
      10
57.9089461991667
      20
-8.39130156453333
      30
0
      10
57.0790061015
      20
-8.6252302602
      30
0
      10
57.0790061015
      20
-8.6252302602
      30
0
      10
56.2593162586333
      20
-8.9656598462
      30
0
      10
55.4396264157667
      20
-9.3060894322
      30
0
      10
54.6199365729
      20
-9.6465190182
      30
0
      10
54.6199365729
      20
-9.6465190182
      30
0
      10
53.8239502010333
      20
-10.0878621704333
      30
0
      10
53.0279638291667
      20
-10.5292053226667
      30
0
      10
52.2319774573
      20
-10.9705484749
      30
0
      10
52.2319774573
      20
-10.9705484749
      30
0
      10
51.4727587378
      20
-11.5055616184
      30
0
      10
50.7135400183
      20
-12.0405747619
      30
0
      10
49.9543212988
      20
-12.5755879054
      30
0
      10
49.9543212988
      20
-12.5755879054
      30
0
      10
49.2443309614333
      20
-13.1954900998667
      30
0
      10
48.5343406240667
      20
-13.8153922943333
      30
0
      10
47.8243502867
      20
-14.4352944888
      30
0
      10
47.8243502867
      20
-14.4352944888
      30
0
      10
47.1752410969667
      20
-15.1299115467
      30
0
      10
46.5261319072333
      20
-15.8245286046
      30
0
      10
45.8770227175
      20
-16.5191456625
      30
0
      10
45.8770227175
      20
-16.5191456625
      30
0
      10
45.2994482248333
      20
-17.2770771332667
      30
0
      10
44.7218737321667
      20
-18.0350086040333
      30
0
      10
44.1442992395
      20
-18.7929400748
      30
0
      10
44.1442992395
      20
-18.7929400748
      30
0
      10
43.6477389252333
      20
-19.6017463557667
      30
0
      10
43.1511786109667
      20
-20.4105526367333
      30
0
      10
42.6546182967
      20
-21.2193589177
      30
0
      10
42.6546182967
      20
-21.2193589177
      30
0
      10
42.2472219913
      20
-22.0657654198667
      30
0
      10
41.8398256859
      20
-22.9121719220333
      30
0
      10
41.4324293805
      20
-23.7585784242
      30
0
      10
41.4324293805
      20
-23.7585784242
      30
0
      10
41.120883504
      20
-24.6286934423667
      30
0
      10
40.8093376275
      20
-25.4988084605333
      30
0
      10
40.497791751
      20
-26.3689234787
      30
0
      10
40.497791751
      20
-26.3689234787
      30
0
      10
40.2872095716333
      20
-27.2484661899
      30
0
      10
40.0766273922667
      20
-28.1280089011
      30
0
      10
39.8660452129
      20
-29.0075516123
      30
0
      10
39.8660452129
      20
-29.0075516123
      30
0
      10
39.7598829253
      20
-29.8820864609667
      30
0
      10
39.6537206377
      20
-30.7566213096333
      30
0
      10
39.5475583501
      20
-31.6311561583
      30
0
      10
39.5475583501
      20
-31.6311561583
      30
0
      10
39.5475583501
      20
-32.4863297808
      30
0
      10
39.5475583501
      20
-33.3415034033
      30
0
      10
39.5475583501
      20
-34.1966770258
      30
0
      10
39.5475583501
      20
-34.1966770258
      30
0
      10
39.6537206377
      20
-35.0184538259
      30
0
      10
39.7598829253
      20
-35.840230626
      30
0
      10
39.8660452129
      20
-36.6620074261
      30
0
      10
39.8660452129
      20
-36.6620074261
      30
0
      10
40.0766273922667
      20
-37.4368999352667
      30
0
      10
40.2872095716333
      20
-38.2117924444333
      30
0
      10
40.497791751
      20
-38.9866849536
      30
0
      10
40.497791751
      20
-38.9866849536
      30
0
      10
40.8093376275
      20
-39.7019751949
      30
0
      10
41.120883504
      20
-40.4172654362
      30
0
      10
41.4324293805
      20
-41.1325556775
      30
0
      10
41.4324293805
      20
-41.1325556775
      30
0
      10
41.8398256859
      20
-41.7765039004
      30
0
      10
42.2472219913
      20
-42.4204521233
      30
0
      10
42.6546182967
      20
-43.0644003462
      30
0
      10
42.6546182967
      20
-43.0644003462
      30
0
      10
43.1511786109667
      20
-43.626437706
      30
0
      10
43.6477389252333
      20
-44.1884750658
      30
0
      10
44.1442992395
      20
-44.7505124256
      30
0
      10
44.1442992395
      20
-44.7505124256
      30
0
      10
44.7218737321667
      20
-45.2214144452333
      30
0
      10
45.2994482248333
      20
-45.6923164648667
      30
0
      10
45.8770227175
      20
-46.1632184845
      30
0
      10
45.8770227175
      20
-46.1632184845
      30
0
      10
46.5261319072333
      20
-46.535256452
      30
0
      10
47.1752410969667
      20
-46.9072944195
      30
0
      10
47.8243502867
      20
-47.279332387
      30
0
      10
47.8243502867
      20
-47.279332387
      30
0
      10
48.5343406240667
      20
-47.5464002035333
      30
0
      10
49.2443309614333
      20
-47.8134680200667
      30
0
      10
49.9543212988
      20
-48.0805358366
      30
0
      10
49.9543212988
      20
-48.0805358366
      30
0
      10
50.7135400183
      20
-48.2382502331333
      30
0
      10
51.4727587378
      20
-48.3959646296667
      30
0
      10
52.2319774573
      20
-48.5536790262
      30
0
      10
52.2319774573
      20
-48.5536790262
      30
0
      10
53.0279638291667
      20
-48.5994515043
      30
0
      10
53.8239502010333
      20
-48.6452239824
      30
0
      10
54.6199365729
      20
-48.6909964605
      30
0
      10
54.6199365729
      20
-48.6909964605
      30
0
      10
55.4396264157667
      20
-48.6240757762333
      30
0
      10
56.2593162586333
      20
-48.5571550919667
      30
0
      10
57.0790061015
      20
-48.4902344077
      30
0
      10
57.0790061015
      20
-48.4902344077
      30
0
      10
57.9089461991667
      20
-48.3117189013667
      30
0
      10
58.7388862968333
      20
-48.1332033950333
      30
0
      10
59.5688263945
      20
-47.9546878887
      30
0
      10
59.5688263945
      20
-47.9546878887
      30
0
      10
59.5688263945064
      20
-45.0197259825636
      30
0
      10
59.5688263945128
      20
-42.0847640764272
      30
0
      10
59.5688263945192
      20
-39.1498021702907
      30
0
      10
59.5688263945192
      20
-39.1498021702907
      30
0
      10
56.8554724182127
      20
-40.2665396548682
      30
0
      10
54.1182518325892
      20
-40.4765801174073
      30
0
      10
51.9298104354648
      20
-39.8530748779887
      30
0
      10
51.9298104354648
      20
-39.8530748779887
      30
0
      10
49.0330390946561
      20
-39.0379549278461
      30
0
      10
47.0305365163326
      20
-36.8714147424277
      30
0
      10
46.3784895041993
      20
-33.766038580059
      30
0
      10
46.3784895041993
      20
-33.766038580059
      30
0
      10
45.8817503350773
      20
-31.4255140188549
      30
0
      10
46.2338697520473
      20
-28.5577633094302
      30
0
      10
47.456998260181
      20
-25.784965123433
      30
0
      10
47.456998260181
      20
-25.784965123433
      30
0
      10
48.7589682201804
      20
-22.7883211850575
      30
0
      10
51.066998292576
      20
-19.9485381592966
      30
0
      10
53.8103271243934
      20
-17.984919292323
      30
0
      10
53.8103271243934
      20
-17.984919292323
      30
0
      10
55.6335926684468
      20
-16.6691046410474
      30
0
      10
57.6339485400958
      20
-15.7379268158365
      30
0
      10
59.5688263945192
      20
-15.2797442082242
      30
0
      10
59.5688263945192
      20
-15.2797442082242
      30
0
      10
59.5688263945128
      20
-12.8276441965494
      30
0
      10
59.5688263945064
      20
-10.3755441848747
      30
0
      10
59.5688263945
      20
-7.9234441732
      30
0
    1001
FS_CYPCUT
    1000
Channel
    1070
1
    1000
LeadIn
    1002
{
    1070
3
    1040
29.5
    1040
1.5707963267949
    1040
0.5
    1040
0.3
    1070
0
    1040
0.5
    1070
0
    1002
}
    1000
LeadOut
    1002
{
    1070
0
    1040
0
    1040
0.523598775598299
    1040
3
    1070
0
    1002
}
    1000
IsFill
    1070
0
    1000
PathStart
    1040
29.5
    1000
ToolCompensation
    1002
{
    1070
0
    1040
0
    1070
0
    1002
}
       0
LWPOLYLINE
       5
2011
     100
AcDbEntity
       8
1
     100
AcDbPolyline
      90
12
      70
1
      10
37.9476429109
      20
-17.1006754085
      42
0
      10
37.9476429109
      20
-23.4006754095
      42
0
      10
21.8746012965
      20
-23.4006754095
      42
0
      10
19.193823181
      20
-38.6041235989
      42
0.466307658154998
      10
22.2959676029
      20
-42.3011153586
      42
0
      10
32.0533650624
      20
-42.3011153586
      42
0
      10
32.0533650624
      20
-48.9525929501
      42
0
      10
22.2959676011
      20
-48.9525929501
      42
-0.386919480665599
      10
12.5378333026
      20
-40.0718639411
      42
0
      10
18.2545635938
      20
-7.6506754088
      42
0
      10
24.6517512487
      20
-7.6506754088
      42
0
      10
22.9854612792
      20
-17.1006754085
      42
0
    1001
FS_CYPCUT
    1000
Channel
    1070
1
    1000
LeadIn
    1002
{
    1070
3
    1040
8.5
    1040
1.5707963267949
    1040
0.5
    1040
0.3
    1070
0
    1040
0.5
    1070
0
    1002
}
    1000
LeadOut
    1002
{
    1070
0
    1040
0
    1040
0.523598775598299
    1040
3
    1070
0
    1002
}
    1000
IsFill
    1070
0
    1000
PathStart
    1040
8.5
    1000
ToolCompensation
    1002
{
    1070
0
    1040
0
    1070
0
    1002
}
       0
LWPOLYLINE
       5
2012
     100
AcDbEntity
       8
1
     100
AcDbPolyline
      90
12
      70
1
      10
8.8040628888
      20
-7.6506754095
      42
0
      10
-12.3642722249
      20
-7.6506754095
      42
0.73516930096669
      10
-18.642360904693
      20
-27.7385793345685
      42
0
      10
-10.0481204863306
      20
-33.6920136763676
      42
-0.73516930096669
      10
-12.7387299204989
      20
-42.3011153584515
      42
0
      10
-29.6892722314
      20
-42.3011153585
      42
0
      10
-29.6892722314
      20
-48.9525929501
      42
0
      10
-8.5209371178
      20
-48.9525929501
      42
0.865240744479164
      10
-5.2842800924
      20
-26.6697734555
      42
0
      10
-11.8845344412
      20
-22.7339008345
      42
-0.761737062257187
      10
-9.46452795320111
      20
-13.9506754093522
      42
0
      10
8.8040628888
      20
-13.9506754094
      42
0
    1001
FS_CYPCUT
    1000
Channel
    1070
1
    1000
LeadIn
    1002
{
    1070
3
    1040
7.5
    1040
1.5707963267949
    1040
0.5
    1040
0.3
    1070
0
    1040
0.5
    1070
0
    1002
}
    1000
LeadOut
    1002
{
    1070
0
    1040
0
    1040
0.523598775598299
    1040
3
    1070
0
    1002
}
    1000
IsFill
    1070
0
    1000
PathStart
    1040
7.5
    1000
ToolCompensation
    1002
{
    1070
0
    1040
0
    1070
0
    1002
}
       0
LWPOLYLINE
       5
2013
     100
AcDbEntity
       8
1
     100
AcDbPolyline
      90
106
      70
1
      10
119.9463293824
      20
1.9978469986
      42
0
      10
121.1035238118
      20
4.8790279709
      42
0
      10
121.9208475507
      20
7.7075905666
      42
0
      10
122.3957188177
      20
10.4745998549
      42
0
      10
122.5266375779
      20
13.1713153413
      42
0
      10
122.3131902822
      20
15.7892185768
      42
0
      10
121.756051173
      20
18.3200400667
      42
0
      10
120.8569801544
      20
20.7557853918
      42
0
      10
119.6188172333
      20
23.088760462
      42
0
      10
118.0454735482
      20
25.3115958202
      42
0
      10
116.1419190145
      20
27.4172699215
      42
0
      10
113.9141666254
      20
29.3991313124
      42
0
      10
111.3692534581
      20
31.2509196421
      42
0
      10
108.5152184446
      20
32.9667854377
      42
0
      10
105.3610769785
      20
34.5413085816
      42
0
      10
101.9167924368
      20
35.9695154327
      42
0
      10
98.1932447073
      20
37.2468945373
      42
0
      10
94.2021958209
      20
38.3694108799
      42
0
      10
89.9562527975
      20
39.3335186293
      42
0
      10
85.4688278228
      20
40.136172339
      42
0
      10
80.7540958814
      20
40.7748365675
      42
0
      10
75.8269499804
      20
41.247493887
      42
0
      10
70.7029541053
      20
41.5526512563
      42
0
      10
65.3982940558
      20
41.6893447371
      42
0
      10
59.9297263181
      20
41.6571425389
      42
0
      10
54.3145251337
      20
41.4561463826
      42
0
      10
48.5704279335
      20
41.0869911796
      42
0
      10
42.7155793081
      20
40.5508430263
      42
0
      10
36.7684736923
      20
39.8493955202
      42
0
      10
30.7478969445
      20
38.9848644102
      42
0
      10
24.6728670054
      20
37.9599805977
      42
0
      10
18.5625738239
      20
36.7779815101
      42
0
      10
12.436318739
      20
35.4426008742
      42
0
      10
6.3134535109
      20
33.958056922
      42
0
      10
0.2133191915
      20
32.3290390661
      42
0
      10
-5.8448149701
      20
30.5606930869
      42
0
      10
-11.8418123958
      20
28.6586048777
      42
0
      10
-17.7587296278
      20
26.6287827997
      42
0
      10
-23.5768761675
      20
24.4776387032
      42
0
      10
-29.2778735156
      20
22.2119676733
      42
0
      10
-34.8437132261
      20
19.8389265652
      42
0
      10
-40.2568137926
      20
17.3660113978
      42
0
      10
-45.5000761844
      20
14.801033674
      42
0
      10
-50.5569378598
      20
12.1520957064
      42
0
      10
-55.4114250841
      20
9.4275650231
      42
0
      10
-60.0482033879
      20
6.6360479364
      42
0
      10
-64.4526260057
      20
3.7863623566
      42
0
      10
-68.6107801429
      20
0.8875099383
      42
0
      10
-72.5095309233
      20
-2.0513523547
      42
0
      10
-76.1365628806
      20
-5.0209411744
      42
0
      10
-79.48041886
      20
-8.0118761133
      42
0
      10
-76.7899915097
      20
-4.2238965101
      42
0
      10
-73.8024553439
      20
-0.4354399982
      42
0
      10
-70.5270244164
      20
3.3418091982
      42
0
      10
-66.973800696
      20
7.09620142
      42
0
      10
-63.1537429104
      20
10.8161575028
      42
0
      10
-59.0786327473
      20
14.4902044889
      42
0
      10
-54.7610385182
      20
18.107011012
      42
0
      10
-50.2142763951
      20
21.6554222446
      42
0
      10
-45.4523693418
      20
25.1244943016
      42
0
      10
-40.4900038646
      20
28.5035279931
      42
0
      10
-35.3424847164
      20
31.7821018223
      42
0
      10
-30.0256876946
      20
34.9501041271
      42
0
      10
-24.5560106776
      20
37.9977642664
      42
0
      10
-18.9503230506
      20
40.9156827539
      42
0
      10
-13.2259136783
      20
43.6948602481
      42
0
      10
-7.4004375826
      20
46.3267253076
      42
0
      10
-1.4918614918
      20
48.8031608267
      42
0
      10
4.4815915715
      20
51.1165290703
      42
0
      10
10.5014984936
      20
53.2596952293
      42
0
      10
16.5492928894
      20
55.2260494261
      42
0
      10
22.6063223642
      20
57.0095271004
      42
0
      10
28.6539060409
      20
58.6046277129
      42
0
      10
34.6733921747
      20
60.0064317105
      42
0
      10
40.6462156783
      20
61.2106156986
      42
0
      10
46.5539553796
      20
62.2134657755
      42
0
      10
52.3783908357
      20
63.0118889861
      42
0
      10
58.1015585276
      20
63.6034228616
      42
0
      10
63.7058072631
      20
63.9862430142
      42
0
      10
69.1738526153
      20
64.1591687634
      42
0
      10
74.4888302312
      20
64.1216667776
      42
0
      10
79.6343478438
      20
63.8738527191
      42
0
      10
84.5945358289
      20
63.4164908875
      42
0
      10
89.354096149
      20
62.7509918618
      42
0
      10
93.8983495358
      20
61.8794081509
      42
0
      10
98.213280763
      20
60.8044278625
      42
0
      10
102.2855818713
      20
59.529366413
      42
0
      10
106.1026932131
      20
58.0581563021
      42
0
      10
109.6528421878
      20
56.3953349841
      42
0
      10
112.925079551
      20
54.5460308742
      42
0
      10
115.9093131832
      20
52.515947531
      42
0
      10
118.5963392162
      20
50.311346066
      42
0
      10
120.9778704187
      20
47.9390258336
      42
0
      10
123.0465617561
      20
45.4063034603
      42
0
      10
124.7960330433
      20
42.7209902793
      42
0
      10
126.2208886226
      20
39.8913682392
      42
0
      10
127.3167340044
      20
36.9261643605
      42
0
      10
128.0801894211
      20
33.8345238208
      42
0
      10
128.5089002502
      20
30.625981749
      42
0
      10
128.601544277
      20
27.3104338178
      42
0
      10
128.357835772
      20
23.8981057232
      42
0
      10
127.7785263724
      20
20.3995216477
      42
0
      10
126.8654027639
      20
16.825471801
      42
0
      10
125.6212811701
      20
13.186979142
      42
0
      10
124.0499986671
      20
9.4952653817
      42
0
      10
122.1564013491
      20
5.7617163737
      42
0
    1001
FS_CYPCUT
    1000
Channel
    1070
1
    1000
LeadIn
    1002
{
    1070
3
    1040
66.5
    1040
1.5707963267949
    1040
0.5
    1040
0.3
    1070
0
    1040
0.5
    1070
0
    1002
}
    1000
LeadOut
    1002
{
    1070
0
    1040
0
    1040
0.523598775598299
    1040
3
    1070
0
    1002
}
    1000
IsFill
    1070
0
    1000
PathStart
    1040
66.5
    1000
ToolCompensation
    1002
{
    1070
0
    1040
0
    1070
0
    1002
}
    1000
MicroConnect
    1002
{
    1070
2
    1040
23.3850558260946
    1041
0.6
    1042
0
    1040
79.3197464715957
    1041
0.6
    1042
0
    1002
}
       0
LINE
       5
2014
     100
AcDbEntity
       8
2
     100
AcDbLine
      10
351
      20
87.8522784883
      30
0
      11
-363.72
      21
87.8522784883
      31
0
    1001
FS_CYPCUT
    1000
Channel
    1070
2
    1000
LeadIn
    1002
{
    1070
3
    1040
0
    1040
1.5707963267949
    1040
0.5
    1040
0.3
    1070
0
    1040
0.5
    1070
0
    1002
}
    1000
LeadOut
    1002
{
    1070
0
    1040
0
    1040
0.523598775598299
    1040
3
    1070
0
    1002
}
    1000
IsFill
    1070
0
    1000
PathStart
    1040
0
    1000
ToolCompensation
    1002
{
    1070
0
    1040
0
    1070
0
    1002
}
       0
LWPOLYLINE
       5
2015
     100
AcDbEntity
       8
1
     100
AcDbPolyline
      90
4
      70
1
      10
240.58
      20
130.7045569766
      42
1
      10
232.58
      20
130.7045569766
      42
0
      10
232.58
      20
120.7045569766
      42
1
      10
240.58
      20
120.7045569766
      42
0
    1001
FS_CYPCUT
    1000
Channel
    1070
1
    1000
LeadIn
    1002
{
    1070
3
    1040
1.5
    1040
1.5707963267949
    1040
0.5
    1040
0.3
    1070
0
    1040
0.5
    1070
0
    1002
}
    1000
LeadOut
    1002
{
    1070
0
    1040
0
    1040
0.523598775598299
    1040
3
    1070
0
    1002
}
    1000
IsFill
    1070
0
    1000
PathStart
    1040
1.5
    1000
ToolCompensation
    1002
{
    1070
0
    1040
0
    1070
0
    1002
}
       0
CIRCLE
       5
2016
     100
AcDbEntity
       8
1
     100
AcDbCircle
      10
341
      20
115.7045569766
      30
0
      40
2.5
    1001
FS_CYPCUT
    1000
Channel
    1070
1
    1000
LeadIn
    1002
{
    1070
3
    1040
0
    1040
1.5707963267949
    1040
0.5
    1040
0.3
    1070
0
    1040
0.5
    1070
0
    1002
}
    1000
LeadOut
    1002
{
    1070
0
    1040
0
    1040
0.523598775598299
    1040
3
    1070
0
    1002
}
    1000
IsFill
    1070
0
    1000
PathStart
    1040
0.999999999999999
    1000
ToolCompensation
    1002
{
    1070
0
    1040
0
    1070
0
    1002
}
       0
CIRCLE
       5
2017
     100
AcDbEntity
       8
1
     100
AcDbCircle
      10
341
      20
22.5
      30
0
      40
2.5
    1001
FS_CYPCUT
    1000
Channel
    1070
1
    1000
LeadIn
    1002
{
    1070
3
    1040
0
    1040
1.5707963267949
    1040
0.5
    1040
0.3
    1070
0
    1040
0.5
    1070
0
    1002
}
    1000
LeadOut
    1002
{
    1070
0
    1040
0
    1040
0.523598775598299
    1040
3
    1070
0
    1002
}
    1000
IsFill
    1070
0
    1000
PathStart
    1040
0.999999999999999
    1000
ToolCompensation
    1002
{
    1070
0
    1040
0
    1070
0
    1002
}
       0
LWPOLYLINE
       5
2018
     100
AcDbEntity
       8
1
     100
AcDbPolyline
      90
8
      70
1
      10
581
      20
120.2045569766
      42
0.414213562373106
      10
576
      20
125.2045569766
      42
0
      10
356
      20
125.2045569766
      42
0.414213562373104
      10
351
      20
120.2045569766
      42
0
      10
351
      20
-29.5
      42
0.414213562373089
      10
356
      20
-34.5
      42
0
      10
576
      20
-34.5
      42
0.414213562373089
      10
581
      20
-29.5
      42
0
    1001
FS_CYPCUT
    1000
Channel
    1070
1
    1000
LeadIn
    1002
{
    1070
3
    1040
1.5
    1040
1.5707963267949
    1040
0.5
    1040
0.3
    1070
0
    1040
0.5
    1070
0
    1002
}
    1000
LeadOut
    1002
{
    1070
0
    1040
0
    1040
0.523598775598299
    1040
3
    1070
0
    1002
}
    1000
IsFill
    1070
0
    1000
PathStart
    1040
1.5
    1000
ToolCompensation
    1002
{
    1070
0
    1040
0
    1070
0
    1002
}
    1000
MicroConnect
    1002
{
    1070
2
    1040
1.30067801340047
    1041
0.6
    1042
0
    1040
5.30002041164445
    1041
0.6
    1042
0
    1002
}
       0
CIRCLE
       5
2019
     100
AcDbEntity
       8
1
     100
AcDbCircle
      10
591
      20
115.7045569766
      30
0
      40
2.5
    1001
FS_CYPCUT
    1000
Channel
    1070
1
    1000
LeadIn
    1002
{
    1070
3
    1040
1.9151347174784E-15
    1040
1.5707963267949
    1040
0.5
    1040
0.3
    1070
0
    1040
0.5
    1070
0
    1002
}
    1000
LeadOut
    1002
{
    1070
0
    1040
0
    1040
0.523598775598299
    1040
3
    1070
0
    1002
}
    1000
IsFill
    1070
0
    1000
PathStart
    1040
1.9151347174784E-15
    1000
ToolCompensation
    1002
{
    1070
0
    1040
0
    1070
0
    1002
}
       0
LINE
       5
201A
     100
AcDbEntity
       8
2
     100
AcDbLine
      10
581
      20
87.8522784883
      30
0
      11
667.5
      21
87.8522784883
      31
0
    1001
FS_CYPCUT
    1000
Channel
    1070
2
    1000
LeadIn
    1002
{
    1070
3
    1040
0
    1040
1.5707963267949
    1040
0.5
    1040
0.3
    1070
0
    1040
0.5
    1070
0
    1002
}
    1000
LeadOut
    1002
{
    1070
0
    1040
0
    1040
0.523598775598299
    1040
3
    1070
0
    1002
}
    1000
IsFill
    1070
0
    1000
PathStart
    1040
0
    1000
ToolCompensation
    1002
{
    1070
0
    1040
0
    1070
0
    1002
}
       0
CIRCLE
       5
201B
     100
AcDbEntity
       8
1
     100
AcDbCircle
      10
591
      20
22.5
      30
0
      40
2.5
    1001
FS_CYPCUT
    1000
Channel
    1070
1
    1000
LeadIn
    1002
{
    1070
3
    1040
1.9151347174784E-15
    1040
1.5707963267949
    1040
0.5
    1040
0.3
    1070
0
    1040
0.5
    1070
0
    1002
}
    1000
LeadOut
    1002
{
    1070
0
    1040
0
    1040
0.523598775598299
    1040
3
    1070
0
    1002
}
    1000
IsFill
    1070
0
    1000
PathStart
    1040
1.9151347174784E-15
    1000
ToolCompensation
    1002
{
    1070
0
    1040
0
    1070
0
    1002
}
       0
LINE
       5
201C
     100
AcDbEntity
       8
2
     100
AcDbLine
      10
667.5
      20
-88.3922995801
      30
0
      11
517.5
      21
-88.3922995801
      31
0
    1001
FS_CYPCUT
    1000
Channel
    1070
2
    1000
LeadIn
    1002
{
    1070
3
    1040
0
    1040
1.5707963267949
    1040
0.5
    1040
0.3
    1070
0
    1040
0.5
    1070
0
    1002
}
    1000
LeadOut
    1002
{
    1070
0
    1040
0
    1040
0.523598775598299
    1040
3
    1070
0
    1002
}
    1000
IsFill
    1070
0
    1000
PathStart
    1040
0
    1000
ToolCompensation
    1002
{
    1070
0
    1040
0
    1070
0
    1002
}
       0
LINE
       5
201D
     100
AcDbEntity
       8
2
     100
AcDbLine
      10
517.5
      20
-111.8777680172
      30
0
      11
667.5
      21
-111.8777680172
      31
0
    1001
FS_CYPCUT
    1000
Channel
    1070
2
    1000
LeadIn
    1002
{
    1070
3
    1040
0
    1040
1.5707963267949
    1040
0.5
    1040
0.3
    1070
0
    1040
0.5
    1070
0
    1002
}
    1000
LeadOut
    1002
{
    1070
0
    1040
0
    1040
0.523598775598299
    1040
3
    1070
0
    1002
}
    1000
IsFill
    1070
0
    1000
PathStart
    1040
0
    1000
ToolCompensation
    1002
{
    1070
0
    1040
0
    1070
0
    1002
}
       0
CIRCLE
       5
201E
     100
AcDbEntity
       8
1
     100
AcDbCircle
      10
592.5
      20
-126.4709368742
      30
0
      40
3.74999999999994
    1001
FS_CYPCUT
    1000
Channel
    1070
1
    1000
LeadIn
    1002
{
    1070
3
    1040
0
    1040
1.5707963267949
    1040
0.5
    1040
0.3
    1070
0
    1040
0.5
    1070
0
    1002
}
    1000
LeadOut
    1002
{
    1070
0
    1040
0
    1040
0.523598775598299
    1040
3
    1070
0
    1002
}
    1000
IsFill
    1070
0
    1000
PathStart
    1040
0.999999999999999
    1000
ToolCompensation
    1002
{
    1070
0
    1040
0
    1070
0
    1002
}
       0
LWPOLYLINE
       5
201F
     100
AcDbEntity
       8
1
     100
AcDbPolyline
      90
40
      70
1
      10
667.5
      20
185.7045569766
      42
0
      10
667.5
      20
-131.4709368742
      42
-0.414213562373072
      10
662.5
      20
-136.4709368742
      42
0
      10
522.5
      20
-136.4709368742
      42
-0.414213562373098
      10
517.5
      20
-131.4709368742
      42
0
      10
517.5
      20
-84.5537673304
      42
0.414213562373107
      10
512.5
      20
-79.5537673303997
      42
0
      10
231.89
      20
-79.5537673304
      42
0.414213562373098
      10
226.89
      20
-84.5537673304
      42
0
      10
226.89
      20
-131.4709368742
      42
-0.414213562373092
      10
221.89
      20
-136.4709368742
      42
0
      10
81.89
      20
-136.4709368742
      42
-0.414213562373106
      10
76.89
      20
-131.4709368742
      42
0
      10
76.89
      20
-84.5537673304
      42
0.414213562373092
      10
71.89
      20
-79.5537673304
      42
0
      10
-208.72
      20
-79.5537673304
      42
0.414213562373092
      10
-213.72
      20
-84.5537673304
      42
0
      10
-213.72
      20
-131.4709368742
      42
-0.414213562373086
      10
-218.72
      20
-136.4709368742
      42
0
      10
-358.72
      20
-136.4709368742
      42
-0.414213562373086
      10
-363.72
      20
-131.4709368742
      42
0
      10
-363.72
      20
115.2045569766
      42
0.414213562373091
      10
-368.72
      20
120.2045569766
      42
0
      10
-448.72
      20
120.2045569766
      42
0.414213562373088
      10
-453.72
      20
115.2045569766
      42
0
      10
-453.72
      20
100.2045569766
      42
-0.414213562373089
      10
-458.72
      20
95.2045569766
      42
0
      10
-615.92
      20
95.2045569766
      42
-0.414213562373096
      10
-620.92
      20
100.2045569766
      42
0
      10
-620.92
      20
185.7045569766
      42
-0.4142135623731
      10
-605.92
      20
200.7045569766
      42
0
      10
-491.22
      20
200.7045569766
      42
-0.4142135623731
      10
-486.22
      20
195.7045569766
      42
0
      10
-486.22
      20
153.7045569766
      42
0.41421356237307
      10
-485.22
      20
152.7045569766
      42
0
      10
-428.72
      20
152.7045569766
      42
0.414213562373203
      10
-427.72
      20
153.7045569766
      42
0
      10
-427.72
      20
195.7045569766
      42
-0.414213562373093
      10
-422.72
      20
200.7045569766
      42
0
      10
652.5
      20
200.7045569766
      42
-0.414213562373086
    1001
FS_CYPCUT
    1000
Channel
    1070
1
    1000
LeadIn
    1002
{
    1070
3
    1040
38.500303449764
    1040
1.5707963267949
    1040
0.5
    1040
0.3
    1070
0
    1040
0.5
    1070
0
    1002
}
    1000
LeadOut
    1002
{
    1070
0
    1040
0
    1040
0.523598775598299
    1040
3
    1070
0
    1002
}
    1000
IsFill
    1070
1
    1000
PathStart
    1040
38.5
    1000
ToolCompensation
    1002
{
    1070
0
    1040
0
    1070
0
    1002
}
    1000
MicroConnect
    1002
{
    1070
7
    1040
2.49365518429664
    1041
0.6
    1042
0
    1040
10.4937407852282
    1041
0.6
    1042
0
    1040
18.5095099425763
    1041
0.6
    1042
0
    1040
26.4879924749466
    1041
0.6
    1042
0
    1040
38.1393729540724
    1041
0.6
    1042
0
    1040
38.4997454244296
    1041
0.6
    1042
0
    1040
38.8327273665727
    1041
0.6
    1042
0
    1002
}
       0
ENDSEC
  0
SECTION
  2
OBJECTS
  0
DICTIONARY
  5
111
330
0
100
AcDbDictionary
281
     1
  3
ACAD_COLOR
350
120
  3
ACAD_GROUP
350
112
  3
ACAD_LAYOUT
350
11E
  3
ACAD_MATERIAL
350
11F
  3
ACAD_MLINESTYLE
350
11B
  3
ACAD_PLOTSETTINGS
350
11D
  3
ACAD_PLOTSTYLENAME
350
113
  3
ACAD_TABLESTYLE
350
121
  3
AcDbVariableDictionary
350
135
  0
DICTIONARY
  5
120
102
{ACAD_REACTORS
330
111
102
}
330
111
100
AcDbDictionary
281
     1
  0
DICTIONARY
  5
112
102
{ACAD_REACTORS
330
111
102
}
330
111
100
AcDbDictionary
281
     1
  0
DICTIONARY
  5
11E
102
{ACAD_REACTORS
330
111
102
}
330
111
100
AcDbDictionary
281
     1
  3
Model
350
12A
  3
布局1
350
126
  0
DICTIONARY
  5
11F
102
{ACAD_REACTORS
330
111
102
}
330
111
100
AcDbDictionary
281
     1
  0
DICTIONARY
  5
11B
102
{ACAD_REACTORS
330
111
102
}
330
111
100
AcDbDictionary
281
     1
  3
Standard
350
11C
  0
DICTIONARY
  5
11D
102
{ACAD_REACTORS
330
111
102
}
330
111
100
AcDbDictionary
281
     1
  0
ACDBDICTIONARYWDFLT
  5
113
102
{ACAD_REACTORS
330
111
102
}
330
111
100
AcDbDictionary
281
     1
  3
Normal
350
114
100
AcDbDictionaryWithDefault
340
114
  0
DICTIONARY
  5
121
102
{ACAD_REACTORS
330
111
102
}
330
111
100
AcDbDictionary
281
     1
  3
Standard
350
122
  0
DICTIONARY
  5
135
102
{ACAD_REACTORS
330
111
102
}
330
111
100
AcDbDictionary
281
     1
  3
CTABLESTYLE
350
136
  0
LAYOUT
  5
12A
102
{ACAD_REACTORS
330
11E
102
}
330
11E
100
AcDbPlotSettings
  1

  2
发送至 OneNote 2010
  4

  6

 40
0.0
 41
0.0
 42
0.0
 43
0.0
 44
0.0
 45
0.0
 46
0.0
 47
0.0
 48
0.0
 49
0.0
140
0.0
141
0.0
142
1.0
143
1.0
 70
  1712
 72
     0
 73
     0
 74
     0
  7

 75
     0
147
1.0
 76
     0
 77
     2
 78
   300
148
0.0
149
0.0
100
AcDbLayout
  1
Model
 70
     1
 71
     0
 10
0.0
 20
0.0
 11
12.0
 21
9.0
 12
0.0
 22
0.0
 32
0.0
 14
0.0
 24
0.0
 34
0.0
 15
0.0
 25
0.0
 35
0.0
146
0.0
 13
0.0
 23
0.0
 33
0.0
 16
1.0
 26
0.0
 36
0.0
 17
0.0
 27
1.0
 37
0.0
 76
     0
330
127
  0
LAYOUT
  5
126
102
{ACAD_REACTORS
330
11E
102
}
330
11E
100
AcDbPlotSettings
  1

  2
发送至 OneNote 2010
  4

  6

 40
0.0
 41
0.0
 42
0.0
 43
0.0
 44
0.0
 45
0.0
 46
0.0
 47
0.0
 48
0.0
 49
0.0
140
0.0
141
0.0
142
1.0
143
1.0
 70
   688
 72
     0
 73
     0
 74
     5
  7

 75
    16
147
1.0
 76
     0
 77
     2
 78
   300
148
0.0
149
0.0
100
AcDbLayout
  1
布局1
 70
     1
 71
     1
 10
0.0
 20
0.0
 11
12.0
 21
9.0
 12
0.0
 22
0.0
 32
0.0
 14
0.0
 24
0.0
 34
0.0
 15
0.0
 25
0.0
 35
0.0
146
0.0
 13
0.0
 23
0.0
 33
0.0
 16
1.0
 26
0.0
 36
0.0
 17
0.0
 27
1.0
 37
0.0
 76
     0
330
123
  0
MLINESTYLE
  5
11C
102
{ACAD_REACTORS
330
11B
102
}
330
11B
100
AcDbMlineStyle
  2
STANDARD
 70
     0
  3

 62
   256
 51
90.0
 52
90.0
 71
     2
 49
0.5
 62
   256
  6
BYLAYER
 49
-0.5
 62
   256
  6
BYLAYER
  0
ACDBPLACEHOLDER
  5
114
102
{ACAD_REACTORS
330
113
102
}
330
113
  0
TABLESTYLE
  5
122
102
{ACAD_REACTORS
330
121
102
}
330
121
100
AcDbTableStyle
  3
Standard
 70
     0
 71
     0
 40
0.06
 41
0.06
280
     0
281
     0
  7
STANDARD
140
0.18
170
     2
 62
     0
 63
     7
283
     0
274
    -2
284
     1
 64
     0
275
    -2
285
     1
 65
     0
276
    -2
286
     1
 66
     0
277
    -2
287
     1
 67
     0
278
    -2
288
     1
 68
     0
279
    -2
289
     1
 69
     0
  7
STANDARD
140
0.25
170
     5
 62
     0
 63
     7
283
     0
274
    -2
284
     1
 64
     0
275
    -2
285
     1
 65
     0
276
    -2
286
     1
 66
     0
277
    -2
287
     1
 67
     0
278
    -2
288
     1
 68
     0
279
    -2
289
     1
 69
     0
  7
STANDARD
140
0.18
170
     5
 62
     0
 63
     7
283
     0
274
    -2
284
     1
 64
     0
275
    -2
285
     1
 65
     0
276
    -2
286
     1
 66
     0
277
    -2
287
     1
 67
     0
278
    -2
288
     1
 68
     0
279
    -2
289
     1
 69
     0
  0
DICTIONARYVAR
  5
136
102
{ACAD_REACTORS
330
135
102
}
330
135
100
DictionaryVariables
280
     0
  1
STANDARD
  0
ENDSEC
  0
EOF
