  0
SECTION
  2
HEADER
  9
$ACADVER
  1
AC1018
  9
$ACADMAINTVER
 70
    77
  9
$DWGCODEPAGE
  3
ANSI_936
  9
$INSBASE
 10
0.0
 20
0.0
 30
0.0
  9
$EXTMIN
 10
-622
 20
-136.6766634651
 30
0.0
  9
$EXTMAX
 10
622
 20
198.6574330868
 30
0.0
  9
$LIMMIN
 10
0.0
 20
0.0
  9
$LIMMAX
 10
420.0
 20
297.0
  9
$ORTHOMODE
 70
     0
  9
$REGENMODE
 70
     1
  9
$FILLMODE
 70
     1
  9
$QTEXTMODE
 70
     0
  9
$MIRRTEXT
 70
     0
  9
$LTSCALE
 40
1.0
  9
$ATTMODE
 70
     1
  9
$TEXTSIZE
 40
2.5
  9
$TRACEWID
 40
1.0
  9
$TEXTSTYLE
  7
STANDARD
  9
$CLAYER
  8
0
  9
$CELTYPE
  6
ByLayer
  9
$CECOLOR
 62
   256
  9
$CELTSCALE
 40
1.0
  9
$DISPSILH
 70
     0
  9
$DIMSCALE
 40
1.0
  9
$DIMASZ
 40
2.5
  9
$DIMEXO
 40
0.625
  9
$DIMDLI
 40
3.75
  9
$DIMRND
 40
0.0
  9
$DIMDLE
 40
0.0
  9
$DIMEXE
 40
1.25
  9
$DIMTP
 40
0.0
  9
$DIMTM
 40
0.0
  9
$DIMTXT
 40
2.5
  9
$DIMCEN
 40
2.5
  9
$DIMTSZ
 40
0.0
  9
$DIMTOL
 70
     0
  9
$DIMLIM
 70
     0
  9
$DIMTIH
 70
     0
  9
$DIMTOH
 70
     0
  9
$DIMSE1
 70
     0
  9
$DIMSE2
 70
     0
  9
$DIMTAD
 70
     1
  9
$DIMZIN
 70
     8
  9
$DIMBLK
  1

  9
$DIMASO
 70
     1
  9
$DIMSHO
 70
     1
  9
$DIMPOST
  1

  9
$DIMAPOST
  1

  9
$DIMALT
 70
     0
  9
$DIMALTD
 70
     3
  9
$DIMALTF
 40
0.03937007874016
  9
$DIMLFAC
 40
1.0
  9
$DIMTOFL
 70
     1
  9
$DIMTVP
 40
0.0
  9
$DIMTIX
 70
     0
  9
$DIMSOXD
 70
     0
  9
$DIMSAH
 70
     0
  9
$DIMBLK1
  1

  9
$DIMBLK2
  1

  9
$DIMSTYLE
  2
ISO-25
  9
$DIMCLRD
 70
     0
  9
$DIMCLRE
 70
     0
  9
$DIMCLRT
 70
     0
  9
$DIMTFAC
 40
1.0
  9
$DIMGAP
 40
0.625
  9
$DIMJUST
 70
     0
  9
$DIMSD1
 70
     0
  9
$DIMSD2
 70
     0
  9
$DIMTOLJ
 70
     1
  9
$DIMTZIN
 70
     0
  9
$DIMALTZ
 70
     0
  9
$DIMALTTZ
 70
     0
  9
$DIMUPT
 70
     0
  9
$DIMDEC
 70
     4
  9
$DIMTDEC
 70
     4
  9
$DIMALTU
 70
     2
  9
$DIMALTTD
 70
     2
  9
$DIMTXSTY
  7
STANDARD
  9
$DIMAUNIT
 70
     0
  9
$DIMADEC
 70
     0
  9
$DIMALTRND
 40
0.0
  9
$DIMAZIN
 70
     0
  9
$DIMDSEP
 70
    46
  9
$DIMATFIT
 70
     3
  9
$DIMFRAC
 70
     0
  9
$DIMLDRBLK
  1

  9
$DIMLUNIT
 70
     2
  9
$DIMLWD
 70
    -2
  9
$DIMLWE
 70
    -2
  9
$DIMTMOVE
 70
     0
  9
$LUNITS
 70
     2
  9
$LUPREC
 70
     4
  9
$SKETCHINC
 40
1.0
  9
$FILLETRAD
 40
0.0
  9
$AUNITS
 70
     0
  9
$AUPREC
 70
     0
  9
$MENU
  1
.
  9
$ELEVATION
 40
0.0
  9
$PELEVATION
 40
0.0
  9
$THICKNESS
 40
0.0
  9
$LIMCHECK
 70
     0
  9
$CHAMFERA
 40
0.0
  9
$CHAMFERB
 40
0.0
  9
$CHAMFERC
 40
0.0
  9
$CHAMFERD
 40
0.0
  9
$SKPOLY
 70
     0
  9
$TDCREATE
 40
2456997.676706910
  9
$TDUCREATE
 40
2456997.343373576
  9
$TDUPDATE
 40
2456997.680113438
  9
$TDUUPDATE
 40
2456997.346780104
  9
$TDINDWG
 40
0.0010312963
  9
$TDUSRTIMER
 40
0.0010311806
  9
$USRTIMER
 70
     1
  9
$ANGBASE
 50
0.0
  9
$ANGDIR
 70
     0
  9
$PDMODE
 70
     0
  9
$PDSIZE
 40
0.0
  9
$PLINEWID
 40
0.0
  9
$SPLFRAME
 70
     0
  9
$SPLINETYPE
 70
     6
  9
$SPLINESEGS
 70
     8
  9
$HANDSEED
  5
24A5
  9
$SURFTAB1
 70
     6
  9
$SURFTAB2
 70
     6
  9
$SURFTYPE
 70
     6
  9
$SURFU
 70
     6
  9
$SURFV
 70
     6
  9
$UCSBASE
  2

  9
$UCSNAME
  2

  9
$UCSORG
 10
0.0
 20
0.0
 30
0.0
  9
$UCSXDIR
 10
1.0
 20
0.0
 30
0.0
  9
$UCSYDIR
 10
0.0
 20
1.0
 30
0.0
  9
$UCSORTHOREF
  2

  9
$UCSORTHOVIEW
 70
     0
  9
$UCSORGTOP
 10
0.0
 20
0.0
 30
0.0
  9
$UCSORGBOTTOM
 10
0.0
 20
0.0
 30
0.0
  9
$UCSORGLEFT
 10
0.0
 20
0.0
 30
0.0
  9
$UCSORGRIGHT
 10
0.0
 20
0.0
 30
0.0
  9
$UCSORGFRONT
 10
0.0
 20
0.0
 30
0.0
  9
$UCSORGBACK
 10
0.0
 20
0.0
 30
0.0
  9
$PUCSBASE
  2

  9
$PUCSNAME
  2

  9
$PUCSORG
 10
0.0
 20
0.0
 30
0.0
  9
$PUCSXDIR
 10
1.0
 20
0.0
 30
0.0
  9
$PUCSYDIR
 10
0.0
 20
1.0
 30
0.0
  9
$PUCSORTHOREF
  2

  9
$PUCSORTHOVIEW
 70
     0
  9
$PUCSORGTOP
 10
0.0
 20
0.0
 30
0.0
  9
$PUCSORGBOTTOM
 10
0.0
 20
0.0
 30
0.0
  9
$PUCSORGLEFT
 10
0.0
 20
0.0
 30
0.0
  9
$PUCSORGRIGHT
 10
0.0
 20
0.0
 30
0.0
  9
$PUCSORGFRONT
 10
0.0
 20
0.0
 30
0.0
  9
$PUCSORGBACK
 10
0.0
 20
0.0
 30
0.0
  9
$USERI1
 70
     0
  9
$USERI2
 70
     0
  9
$USERI3
 70
     0
  9
$USERI4
 70
     0
  9
$USERI5
 70
     0
  9
$USERR1
 40
0.0
  9
$USERR2
 40
0.0
  9
$USERR3
 40
0.0
  9
$USERR4
 40
0.0
  9
$USERR5
 40
0.0
  9
$WORLDVIEW
 70
     1
  9
$SHADEDGE
 70
     3
  9
$SHADEDIF
 70
    70
  9
$TILEMODE
 70
     1
  9
$MAXACTVP
 70
    64
  9
$PINSBASE
 10
0.0
 20
0.0
 30
0.0
  9
$PLIMCHECK
 70
     0
  9
$PEXTMIN
 10
0.0
 20
0.0
 30
0.0
  9
$PEXTMAX
 10
0.0
 20
0.0
 30
0.0
  9
$PLIMMIN
 10
0.0
 20
0.0
  9
$PLIMMAX
 10
12.0
 20
9.0
  9
$UNITMODE
 70
     0
  9
$VISRETAIN
 70
     1
  9
$PLINEGEN
 70
     0
  9
$PSLTSCALE
 70
     1
  9
$TREEDEPTH
 70
  3020
  9
$CMLSTYLE
  2
Standard
  9
$CMLJUST
 70
     0
  9
$CMLSCALE
 40
1.0
  9
$PROXYGRAPHICS
 70
     1
  9
$MEASUREMENT
 70
     1
  9
$CELWEIGHT
370
    -1
  9
$ENDCAPS
280
     0
  9
$JOINSTYLE
280
     0
  9
$LWDISPLAY
290
     0
  9
$INSUNITS
 70
     0
  9
$HYPERLINKBASE
  1

  9
$STYLESHEET
  1

  9
$XEDIT
290
     1
  9
$CEPSNTYPE
380
     0
  9
$PSTYLEMODE
290
     1
  9
$FINGERPRINTGUID
  2
{1F2D6530-6BF2-4D5E-922F-A9C54F637010}
  9
$VERSIONGUID
  2
{15AD9CB5-51D1-451C-B472-5DB36EFAD6AD}
  9
$EXTNAMES
290
     1
  9
$PSVPSCALE
 40
0.0
  9
$OLESTARTUP
290
     0
  9
$SORTENTS
280
   127
  9
$INDEXCTL
280
     0
  9
$HIDETEXT
280
     0
  9
$XCLIPFRAME
290
     0
  9
$HALOGAP
280
     0
  9
$OBSCOLOR
 70
   257
  9
$OBSLTYPE
280
     0
  9
$INTERSECTIONDISPLAY
280
     0
  9
$INTERSECTIONCOLOR
 70
   257
  9
$DIMASSOC
280
     1
  9
$PROJECTNAME
  1

  0
ENDSEC
  0
SECTION
  2
CLASSES
  0
CLASS
  1
ACDBDICTIONARYWDFLT
  2
AcDbDictionaryWithDefault
  3
ObjectDBX Classes
 90
        0
 91
        1
280
     0
281
     0
  0
CLASS
  1
TABLESTYLE
  2
AcDbTableStyle
  3
ObjectDBX Classes
 90
     2047
 91
        1
280
     0
281
     0
  0
CLASS
  1
DICTIONARYVAR
  2
AcDbDictionaryVar
  3
ObjectDBX Classes
 90
        0
 91
        1
280
     0
281
     0
  0
ENDSEC
  0
SECTION
  2
TABLES
  0
TABLE
  2
VPORT
  5
10D
330
0
100
AcDbSymbolTable
 70
     2
  0
VPORT
  5
137
330
10D
100
AcDbSymbolTableRecord
100
AcDbViewportTableRecord
  2
*Active
 70
     0
 10
0.0
 20
0.0
 11
1.0
 21
1.0
 12
1.70530256582424E-13
 22
30.99038481085
 13
0.0
 23
0.0
 14
10.0
 24
10.0
 15
10.0
 25
10.0
 16
0.0
 26
0.0
 36
1.0
 17
0.0
 27
0.0
 37
0.0
 40
551.708552688342
 41
2.435135135135135
 42
50.0
 43
0.0
 44
0.0
 50
0.0
 51
0.0
 71
     0
 72
  1000
 73
     1
 74
     3
 75
     0
 76
     0
 77
     0
 78
     0
281
     0
 65
     1
110
0.0
120
0.0
130
0.0
111
1.0
121
0.0
131
0.0
112
0.0
122
1.0
132
0.0
 79
     0
146
0.0
  0
ENDTAB
  0
TABLE
  2
LTYPE
  5
10A
330
0
100
AcDbSymbolTable
 70
     1
  0
LTYPE
  5
118
330
10A
100
AcDbSymbolTableRecord
100
AcDbLinetypeTableRecord
  2
ByBlock
 70
     0
  3

 72
    65
 73
     0
 40
0.0
  0
LTYPE
  5
119
330
10A
100
AcDbSymbolTableRecord
100
AcDbLinetypeTableRecord
  2
ByLayer
 70
     0
  3

 72
    65
 73
     0
 40
0.0
  0
LTYPE
  5
11A
330
10A
100
AcDbSymbolTableRecord
100
AcDbLinetypeTableRecord
  2
CONTINUOUS
 70
     0
  3
Solid line
 72
    65
 73
     0
 40
0.0
  0
ENDTAB
  0
TABLE
  2
LAYER
  5
107
330
0
100
AcDbSymbolTable
 70
     1
  0
LAYER
  5
115
330
107
100
AcDbSymbolTableRecord
100
AcDbLayerTableRecord
  2
0
 70
     0
 62
     7
  6
CONTINUOUS
370
    -3
390
114
  0
ENDTAB
  0
TABLE
  2
STYLE
  5
108
330
0
100
AcDbSymbolTable
 70
     1
  0
STYLE
  5
116
330
108
100
AcDbSymbolTableRecord
100
AcDbTextStyleTableRecord
  2
STANDARD
 70
     0
 40
0.0
 41
1.0
 50
0.0
 71
     0
 42
2.5
  3
txt
  4
gbcbig.shx
  0
ENDTAB
  0
TABLE
  2
VIEW
  5
10B
330
0
100
AcDbSymbolTable
 70
     0
  0
ENDTAB
  0
TABLE
  2
UCS
  5
10C
330
0
100
AcDbSymbolTable
 70
     0
  0
ENDTAB
  0
TABLE
  2
APPID
  5
10E
330
0
100
AcDbSymbolTable
 70
     2
  0
APPID
  5
117
330
10E
100
AcDbSymbolTableRecord
100
AcDbRegAppTableRecord
  2
ACAD
 70
     0
  0
APPID
  5
12C
330
10E
100
AcDbSymbolTableRecord
100
AcDbRegAppTableRecord
  2
ACAD_PSEXT
 70
     0
  0
APPID
  5
112C
330
10E
100
AcDbSymbolTableRecord
100
AcDbRegAppTableRecord
  2
FS_CYPCUT
 70
     0
  0
ENDTAB
  0
TABLE
  2
DIMSTYLE
  5
10F
330
0
100
AcDbSymbolTable
 70
     1
100
AcDbDimStyleTable
 71
     0
  0
DIMSTYLE
105
12D
330
10F
100
AcDbSymbolTableRecord
100
AcDbDimStyleTableRecord
  2
ISO-25
 70
     0
 41
2.5
 42
0.625
 43
3.75
 44
1.25
 73
     0
 74
     0
 77
     1
 78
     8
140
2.5
141
2.5
143
0.03937007874016
147
0.625
171
     3
172
     1
274
     3
279
     2
284
     8
285
     8
286
     8
340
116
  0
ENDTAB
  0
TABLE
  2
BLOCK_RECORD
  5
106
330
0
100
AcDbSymbolTable
 70
     2
  0
BLOCK_RECORD
  5
127
330
106
100
AcDbSymbolTableRecord
100
AcDbBlockTableRecord
  2
*Model_Space
340
12A
  0
BLOCK_RECORD
  5
123
330
106
100
AcDbSymbolTableRecord
100
AcDbBlockTableRecord
  2
*Paper_Space
340
126
  0
BLOCK_RECORD
  5
130
330
106
100
AcDbSymbolTableRecord
100
AcDbBlockTableRecord
  2
$MODEL_SPACE
340
0
  0
BLOCK_RECORD
  5
132
330
106
100
AcDbSymbolTableRecord
100
AcDbBlockTableRecord
  2
$PAPER_SPACE
340
0
  0
ENDTAB
  0
ENDSEC
  0
SECTION
  2
BLOCKS
  0
BLOCK
  5
128
330
127
100
AcDbEntity
  8
0
100
AcDbBlockBegin
  2
*Model_Space
 70
     0
 10
0.0
 20
0.0
 30
0.0
  3
*Model_Space
  1

  0
ENDBLK
  5
129
330
127
100
AcDbEntity
  8
0
100
AcDbBlockEnd
  0
BLOCK
  5
124
330
123
100
AcDbEntity
 67
     1
  8
0
100
AcDbBlockBegin
  2
*Paper_Space
 70
     0
 10
0.0
 20
0.0
 30
0.0
  3
*Paper_Space
  1

  0
ENDBLK
  5
125
330
123
100
AcDbEntity
 67
     1
  8
0
100
AcDbBlockEnd
  0
BLOCK
  5
131
330
130
100
AcDbEntity
  8
0
100
AcDbBlockBegin
  2
$MODEL_SPACE
 70
     0
 10
0.0
 20
0.0
 30
0.0
  3
$MODEL_SPACE
  1

  0
ENDBLK
  5
21
330
130
100
AcDbEntity
  8
0
100
AcDbBlockEnd
  0
BLOCK
  5
133
330
132
100
AcDbEntity
  8
0
100
AcDbBlockBegin
  2
$PAPER_SPACE
 70
     0
 10
0.0
 20
0.0
 30
0.0
  3
$PAPER_SPACE
  1

  0
ENDBLK
  5
D5
330
132
100
AcDbEntity
  8
0
100
AcDbBlockEnd
       0
ENDSEC
       0
SECTION
       2
ENTITIES
       0
LINE
       5
2000
     100
AcDbEntity
       8
2
     100
AcDbLine
      10
-530
      20
-111.4249556048
      30
0
      11
-380
      21
-111.4249556048
      31
0
    1001
FS_CYPCUT
    1000
Channel
    1070
2
    1000
LeadIn
    1002
{
    1070
3
    1040
0
    1040
1.5707963267949
    1040
0.5
    1040
0.3
    1070
0
    1040
0.5
    1070
0
    1002
}
    1000
LeadOut
    1002
{
    1070
0
    1040
0
    1040
0.523598775598299
    1040
3
    1070
0
    1002
}
    1000
IsFill
    1070
0
    1000
PathStart
    1040
0
    1000
ToolCompensation
    1002
{
    1070
0
    1040
0
    1070
0
    1002
}
       0
LINE
       5
2001
     100
AcDbEntity
       8
2
     100
AcDbLine
      10
-380
      20
-88.5866238723
      30
0
      11
-530
      21
-88.5866238723
      31
0
    1001
FS_CYPCUT
    1000
Channel
    1070
2
    1000
LeadIn
    1002
{
    1070
3
    1040
0
    1040
1.5707963267949
    1040
0.5
    1040
0.3
    1070
0
    1040
0.5
    1070
0
    1002
}
    1000
LeadOut
    1002
{
    1070
0
    1040
0
    1040
0.523598775598299
    1040
3
    1070
0
    1002
}
    1000
IsFill
    1070
0
    1000
PathStart
    1040
0
    1000
ToolCompensation
    1002
{
    1070
0
    1040
0
    1070
0
    1002
}
       0
CIRCLE
       5
2002
     100
AcDbEntity
       8
1
     100
AcDbCircle
      10
-455
      20
-126.6766634651
      30
0
      40
3.75000000000003
    1001
FS_CYPCUT
    1000
Channel
    1070
1
    1000
LeadIn
    1002
{
    1070
3
    1040
8.60422844084496E-16
    1040
1.5707963267949
    1040
0.5
    1040
0.3
    1070
0
    1040
0.5
    1070
0
    1002
}
    1000
LeadOut
    1002
{
    1070
0
    1040
0
    1040
0.523598775598299
    1040
3
    1070
0
    1002
}
    1000
IsFill
    1070
0
    1000
PathStart
    1040
8.60422844084496E-16
    1000
ToolCompensation
    1002
{
    1070
0
    1040
0
    1070
0
    1002
}
       0
LWPOLYLINE
       5
2003
     100
AcDbEntity
       8
1
     100
AcDbPolyline
      90
4
      70
1
      10
-464
      20
128.1574330868
      42
1
      10
-472
      20
128.1574330868
      42
0
      10
-472
      20
118.1574330868
      42
1
      10
-464
      20
118.1574330868
      42
0
    1001
FS_CYPCUT
    1000
Channel
    1070
1
    1000
LeadIn
    1002
{
    1070
3
    1040
1.5
    1040
1.5707963267949
    1040
0.5
    1040
0.3
    1070
0
    1040
0.5
    1070
0
    1002
}
    1000
LeadOut
    1002
{
    1070
0
    1040
0
    1040
0.523598775598299
    1040
3
    1070
0
    1002
}
    1000
IsFill
    1070
0
    1000
PathStart
    1040
1.5
    1000
ToolCompensation
    1002
{
    1070
0
    1040
0
    1070
0
    1002
}
       0
LINE
       5
2004
     100
AcDbEntity
       8
2
     100
AcDbLine
      10
-543.5579086348
      20
86.3287165434
      30
0
      11
307
      21
86.3287165434
      31
0
    1001
FS_CYPCUT
    1000
Channel
    1070
2
    1000
LeadIn
    1002
{
    1070
3
    1040
0
    1040
1.5707963267949
    1040
0.5
    1040
0.3
    1070
0
    1040
0.5
    1070
0
    1002
}
    1000
LeadOut
    1002
{
    1070
0
    1040
0
    1040
0.523598775598299
    1040
3
    1070
0
    1002
}
    1000
IsFill
    1070
0
    1000
PathStart
    1040
0
    1000
ToolCompensation
    1002
{
    1070
0
    1040
0
    1070
0
    1002
}
       0
LWPOLYLINE
       5
2005
     100
AcDbEntity
       8
1
     100
AcDbPolyline
      90
4
      70
1
      10
-74
      20
128.1574330868
      42
1
      10
-82
      20
128.1574330868
      42
0
      10
-82
      20
118.1574330868
      42
1
      10
-74
      20
118.1574330868
      42
0
    1001
FS_CYPCUT
    1000
Channel
    1070
1
    1000
LeadIn
    1002
{
    1070
3
    1040
1.5
    1040
1.5707963267949
    1040
0.5
    1040
0.3
    1070
0
    1040
0.5
    1070
0
    1002
}
    1000
LeadOut
    1002
{
    1070
0
    1040
0
    1040
0.523598775598299
    1040
3
    1070
0
    1002
}
    1000
IsFill
    1070
0
    1000
PathStart
    1040
1.5
    1000
ToolCompensation
    1002
{
    1070
0
    1040
0
    1070
0
    1002
}
       0
LWPOLYLINE
       5
2006
     100
AcDbEntity
       8
1
     100
AcDbPolyline
      90
12
      70
1
      10
-45.0989073794
      20
-10.5769130584
      42
0
      10
-45.0989073794
      20
-16.8769130582
      42
0
      10
-63.3674982214
      20
-16.8769130582
      42
0.761737062257188
      10
-65.7875047094395
      20
-25.6601384833963
      42
0
      10
-59.1872503606128
      20
-29.5960111043954
      42
-0.865240744479164
      10
-62.4239073859643
      20
-51.8788305989474
      42
0
      10
-83.5922424996
      20
-51.8788305989
      42
0
      10
-83.5922424996
      20
-45.2273530073
      42
0
      10
-66.6417001886989
      20
-45.2273530072515
      42
0.73516930096669
      10
-63.9510907546
      20
-36.6182513252
      42
0
      10
-72.5453311728931
      20
-30.6648169834685
      42
-0.735169300966689
      10
-66.2672424931
      20
-10.5769130584
      42
0
    1001
FS_CYPCUT
    1000
Channel
    1070
1
    1000
LeadIn
    1002
{
    1070
3
    1040
4.5
    1040
1.5707963267949
    1040
0.5
    1040
0.3
    1070
0
    1040
0.5
    1070
0
    1002
}
    1000
LeadOut
    1002
{
    1070
0
    1040
0
    1040
0.523598775598299
    1040
3
    1070
0
    1002
}
    1000
IsFill
    1070
0
    1000
PathStart
    1040
4.5
    1000
ToolCompensation
    1002
{
    1070
0
    1040
0
    1070
0
    1002
}
       0
SPLINE
       5
2007
     100
AcDbEntity
       8
1
     100
AcDbSpline
      70
0
      71
3
      72
244
      73
240
      74
0
      40
0
      40
0
      40
0
      40
0
      40
0.0166666666666667
      40
0.0166666666666667
      40
0.0166666666666667
      40
0.0166666666666667
      40
0.0333333333333333
      40
0.0333333333333333
      40
0.0333333333333333
      40
0.0333333333333333
      40
0.05
      40
0.05
      40
0.05
      40
0.05
      40
0.0666666666666667
      40
0.0666666666666667
      40
0.0666666666666667
      40
0.0666666666666667
      40
0.0833333333333333
      40
0.0833333333333333
      40
0.0833333333333333
      40
0.0833333333333333
      40
0.1
      40
0.1
      40
0.1
      40
0.1
      40
0.116666666666667
      40
0.116666666666667
      40
0.116666666666667
      40
0.116666666666667
      40
0.133333333333333
      40
0.133333333333333
      40
0.133333333333333
      40
0.133333333333333
      40
0.15
      40
0.15
      40
0.15
      40
0.15
      40
0.166666666666667
      40
0.166666666666667
      40
0.166666666666667
      40
0.166666666666667
      40
0.183333333333333
      40
0.183333333333333
      40
0.183333333333333
      40
0.183333333333333
      40
0.2
      40
0.2
      40
0.2
      40
0.2
      40
0.216666666666667
      40
0.216666666666667
      40
0.216666666666667
      40
0.216666666666667
      40
0.233333333333333
      40
0.233333333333333
      40
0.233333333333333
      40
0.233333333333333
      40
0.25
      40
0.25
      40
0.25
      40
0.25
      40
0.266666666666667
      40
0.266666666666667
      40
0.266666666666667
      40
0.266666666666667
      40
0.283333333333333
      40
0.283333333333333
      40
0.283333333333333
      40
0.283333333333333
      40
0.3
      40
0.3
      40
0.3
      40
0.3
      40
0.316666666666667
      40
0.316666666666667
      40
0.316666666666667
      40
0.316666666666667
      40
0.333333333333333
      40
0.333333333333333
      40
0.333333333333333
      40
0.333333333333333
      40
0.35
      40
0.35
      40
0.35
      40
0.35
      40
0.366666666666667
      40
0.366666666666667
      40
0.366666666666667
      40
0.366666666666667
      40
0.383333333333333
      40
0.383333333333333
      40
0.383333333333333
      40
0.383333333333333
      40
0.4
      40
0.4
      40
0.4
      40
0.4
      40
0.416666666666667
      40
0.416666666666667
      40
0.416666666666667
      40
0.416666666666667
      40
0.433333333333333
      40
0.433333333333333
      40
0.433333333333333
      40
0.433333333333333
      40
0.45
      40
0.45
      40
0.45
      40
0.45
      40
0.466666666666667
      40
0.466666666666667
      40
0.466666666666667
      40
0.466666666666667
      40
0.483333333333333
      40
0.483333333333333
      40
0.483333333333333
      40
0.483333333333333
      40
0.5
      40
0.5
      40
0.5
      40
0.5
      40
0.516666666666667
      40
0.516666666666667
      40
0.516666666666667
      40
0.516666666666667
      40
0.533333333333333
      40
0.533333333333333
      40
0.533333333333333
      40
0.533333333333333
      40
0.55
      40
0.55
      40
0.55
      40
0.55
      40
0.566666666666667
      40
0.566666666666667
      40
0.566666666666667
      40
0.566666666666667
      40
0.583333333333333
      40
0.583333333333333
      40
0.583333333333333
      40
0.583333333333333
      40
0.6
      40
0.6
      40
0.6
      40
0.6
      40
0.616666666666667
      40
0.616666666666667
      40
0.616666666666667
      40
0.616666666666667
      40
0.633333333333333
      40
0.633333333333333
      40
0.633333333333333
      40
0.633333333333333
      40
0.65
      40
0.65
      40
0.65
      40
0.65
      40
0.666666666666667
      40
0.666666666666667
      40
0.666666666666667
      40
0.666666666666667
      40
0.683333333333333
      40
0.683333333333333
      40
0.683333333333333
      40
0.683333333333333
      40
0.7
      40
0.7
      40
0.7
      40
0.7
      40
0.716666666666667
      40
0.716666666666667
      40
0.716666666666667
      40
0.716666666666667
      40
0.733333333333333
      40
0.733333333333333
      40
0.733333333333333
      40
0.733333333333333
      40
0.75
      40
0.75
      40
0.75
      40
0.75
      40
0.766666666666667
      40
0.766666666666667
      40
0.766666666666667
      40
0.766666666666667
      40
0.783333333333333
      40
0.783333333333333
      40
0.783333333333333
      40
0.783333333333333
      40
0.8
      40
0.8
      40
0.8
      40
0.8
      40
0.816666666666667
      40
0.816666666666667
      40
0.816666666666667
      40
0.816666666666667
      40
0.833333333333333
      40
0.833333333333333
      40
0.833333333333333
      40
0.833333333333333
      40
0.85
      40
0.85
      40
0.85
      40
0.85
      40
0.866666666666667
      40
0.866666666666667
      40
0.866666666666667
      40
0.866666666666667
      40
0.883333333333333
      40
0.883333333333333
      40
0.883333333333333
      40
0.883333333333333
      40
0.9
      40
0.9
      40
0.9
      40
0.9
      40
0.916666666666667
      40
0.916666666666667
      40
0.916666666666667
      40
0.916666666666667
      40
0.933333333333333
      40
0.933333333333333
      40
0.933333333333333
      40
0.933333333333333
      40
0.95
      40
0.95
      40
0.95
      40
0.95
      40
0.966666666666667
      40
0.966666666666667
      40
0.966666666666667
      40
0.966666666666667
      40
0.983333333333333
      40
0.983333333333333
      40
0.983333333333333
      40
0.983333333333333
      40
1
      40
1
      40
1
      40
1
      10
-85.3049193013
      20
-22.993825906
      30
0
      10
-95.6624717465333
      20
-29.0521895163667
      30
0
      10
-106.020024191767
      20
-35.1105531267333
      30
0
      10
-116.377576637
      20
-41.1689167371
      30
0
      10
-116.377576637027
      20
-41.168916737146
      30
0
      10
-116.226203916491
      20
-41.4424039396661
      30
0
      10
-116.06391059815
      20
-41.7006386512442
      30
0
      10
-115.891522812391
      20
-41.9442396638255
      30
0
      10
-115.891522812391
      20
-41.9442396638255
      30
0
      10
-114.850926649076
      20
-43.3974480642615
      30
0
      10
-113.491952642356
      20
-44.3635571256534
      30
0
      10
-111.696421795868
      20
-44.8798515412139
      30
0
      10
-111.696421795868
      20
-44.8798515412139
      30
0
      10
-110.028403387809
      20
-45.3538232428742
      30
0
      10
-107.927807912222
      20
-45.376762866203
      30
0
      10
-105.626357197292
      20
-44.7334468888354
      30
0
      10
-105.626357197292
      20
-44.7334468888354
      30
0
      10
-103.005796437652
      20
-44.0138120541822
      30
0
      10
-100.176370297863
      20
-42.3953300486071
      30
0
      10
-97.7972328766064
      20
-40.0935803063162
      30
0
      10
-97.7972328766064
      20
-40.0935803063162
      30
0
      10
-95.3327907092028
      20
-37.7358772035265
      30
0
      10
-93.3777934054888
      20
-34.6766692295697
      30
0
      10
-92.3333337612463
      20
-31.6116940330448
      30
0
      10
-92.3333337612
      20
-31.611694033
      30
0
      10
-90.0224628638333
      20
-31.611694033
      30
0
      10
-87.7115919664667
      20
-31.611694033
      30
0
      10
-85.4007210691
      20
-31.611694033
      30
0
      10
-85.4007210691
      20
-31.611694033
      30
0
      10
-85.6644977160333
      20
-32.4760249433
      30
0
      10
-85.9282743629667
      20
-33.3403558536
      30
0
      10
-86.1920510099
      20
-34.2046867639
      30
0
      10
-86.1920510099
      20
-34.2046867639
      30
0
      10
-86.5501763528
      20
-35.0521320675333
      30
0
      10
-86.9083016957
      20
-35.8995773711667
      30
0
      10
-87.2664270386
      20
-36.7470226748
      30
0
      10
-87.2664270386
      20
-36.7470226748
      30
0
      10
-87.7133661591333
      20
-37.5644848887333
      30
0
      10
-88.1603052796667
      20
-38.3819471026667
      30
0
      10
-88.6072444002
      20
-39.1994093166
      30
0
      10
-88.6072444002
      20
-39.1994093166
      30
0
      10
-89.1360897403333
      20
-39.9742543540667
      30
0
      10
-89.6649350804667
      20
-40.7490993915333
      30
0
      10
-90.1937804206
      20
-41.523944429
      30
0
      10
-90.1937804206
      20
-41.523944429
      30
0
      10
-90.7963585409333
      20
-42.2441968626333
      30
0
      10
-91.3989366612667
      20
-42.9644492962667
      30
0
      10
-92.0015147816
      20
-43.6847017299
      30
0
      10
-92.0015147816
      20
-43.6847017299
      30
0
      10
-92.6685126837667
      20
-44.3392298748
      30
0
      10
-93.3355105859333
      20
-44.9937580197
      30
0
      10
-94.0025084881
      20
-45.6482861646
      30
0
      10
-94.0025084881
      20
-45.6482861646
      30
0
      10
-94.7236175496
      20
-46.2269741215667
      30
0
      10
-95.4447266111
      20
-46.8056620785333
      30
0
      10
-96.1658356726
      20
-47.3843500355
      30
0
      10
-96.1658356726
      20
-47.3843500355
      30
0
      10
-96.9299109692667
      20
-47.8782540348
      30
0
      10
-97.6939862659333
      20
-48.3721580341
      30
0
      10
-98.4580615626
      20
-48.8660620334
      30
0
      10
-98.4580615626
      20
-48.8660620334
      30
0
      10
-99.2532941160667
      20
-49.2675486629
      30
0
      10
-100.048526669533
      20
-49.6690352924
      30
0
      10
-100.843759223
      20
-50.0705219219
      30
0
      10
-100.843759223
      20
-50.0705219219
      30
0
      10
-101.657858511533
      20
-50.3733861034333
      30
0
      10
-102.471957800067
      20
-50.6762502849667
      30
0
      10
-103.2860570886
      20
-50.9791144665
      30
0
      10
-103.2860570886
      20
-50.9791144665
      30
0
      10
-104.1064410004
      20
-51.178675357
      30
0
      10
-104.9268249122
      20
-51.3782362475
      30
0
      10
-105.747208824
      20
-51.577797138
      30
0
      10
-105.747208824
      20
-51.577797138
      30
0
      10
-106.561198116667
      20
-51.6709704731
      30
0
      10
-107.375187409333
      20
-51.7641438082
      30
0
      10
-108.189176702
      20
-51.8573171433
      30
0
      10
-108.189176702
      20
-51.8573171433
      30
0
      10
-108.9841909637
      20
-51.8426629053667
      30
0
      10
-109.7792052254
      20
-51.8280086674333
      30
0
      10
-110.5742194871
      20
-51.8133544295
      30
0
      10
-110.5742194871
      20
-51.8133544295
      30
0
      10
-111.3379715699
      20
-51.6910991034667
      30
0
      10
-112.1017236527
      20
-51.5688437774333
      30
0
      10
-112.8654757355
      20
-51.4465884514
      30
0
      10
-112.8654757355
      20
-51.4465884514
      30
0
      10
-113.586161656433
      20
-51.2186215245333
      30
0
      10
-114.306847577367
      20
-50.9906545976667
      30
0
      10
-115.0275334983
      20
-50.7626876708
      30
0
      10
-115.0275334983
      20
-50.7626876708
      30
0
      10
-115.694014872833
      20
-50.43253243
      30
0
      10
-116.360496247367
      20
-50.1023771892
      30
0
      10
-117.0269776219
      20
-49.7722219484
      30
0
      10
-117.0269776219
      20
-49.7722219484
      30
0
      10
-117.628953810667
      20
-49.3449810270333
      30
0
      10
-118.230929999433
      20
-48.9177401056667
      30
0
      10
-118.8329061882
      20
-48.4904991843
      30
0
      10
-118.8329061882
      20
-48.4904991843
      30
0
      10
-119.361073495833
      20
-47.9727756996
      30
0
      10
-119.889240803467
      20
-47.4550522149
      30
0
      10
-120.4174081111
      20
-46.9373287302
      30
0
      10
-120.4174081111
      20
-46.9373287302
      30
0
      10
-120.8636035773
      20
-46.3371242305
      30
0
      10
-121.3097990435
      20
-45.7369197308
      30
0
      10
-121.7559945097
      20
-45.1367152311
      30
0
      10
-121.7559945097
      20
-45.1367152311
      30
0
      10
-122.113322069933
      20
-44.4633060298667
      30
0
      10
-122.470649630167
      20
-43.7898968286333
      30
0
      10
-122.8279771904
      20
-43.1164876274
      30
0
      10
-122.8279771904
      20
-43.1164876274
      30
0
      10
-123.090914256167
      20
-42.3802814353667
      30
0
      10
-123.353851321933
      20
-41.6440752433333
      30
0
      10
-123.6167883877
      20
-40.9078690513
      30
0
      10
-123.6167883877
      20
-40.9078690513
      30
0
      10
-123.7812711997
      20
-40.1202441227
      30
0
      10
-123.9457540117
      20
-39.3326191941
      30
0
      10
-124.1102368237
      20
-38.5449942655
      30
0
      10
-124.1102368237
      20
-38.5449942655
      30
0
      10
-124.173723258133
      20
-37.7181235442
      30
0
      10
-124.237209692567
      20
-36.8912528229
      30
0
      10
-124.300696127
      20
-36.0643821016
      30
0
      10
-124.300696127
      20
-36.0643821016
      30
0
      10
-124.262204984867
      20
-35.2110450852667
      30
0
      10
-124.223713842733
      20
-34.3577080689333
      30
0
      10
-124.1852227006
      20
-33.5043710526
      30
0
      10
-124.1852227006
      20
-33.5043710526
      30
0
      10
-124.0453488723
      20
-32.6377562821667
      30
0
      10
-123.905475044
      20
-31.7711415117333
      30
0
      10
-123.7656012157
      20
-30.9045267413
      30
0
      10
-123.7656012157
      20
-30.9045267413
      30
0
      10
-123.5265064869
      20
-30.0380279688
      30
0
      10
-123.2874117581
      20
-29.1715291963
      30
0
      10
-123.0483170293
      20
-28.3050304238
      30
0
      10
-123.0483170293
      20
-28.3050304238
      30
0
      10
-122.713696669933
      20
-27.4520396084667
      30
0
      10
-122.379076310567
      20
-26.5990487931333
      30
0
      10
-122.0444559512
      20
-25.7460579778
      30
0
      10
-122.0444559512
      20
-25.7460579778
      30
0
      10
-121.619481604167
      20
-24.9197583100333
      30
0
      10
-121.194507257133
      20
-24.0934586422667
      30
0
      10
-120.7695329101
      20
-23.2671589745
      30
0
      10
-120.7695329101
      20
-23.2671589745
      30
0
      10
-120.260772662167
      20
-22.4803211260667
      30
0
      10
-119.752012414233
      20
-21.6934832776333
      30
0
      10
-119.2432521663
      20
-20.9066454292
      30
0
      10
-119.2432521663
      20
-20.9066454292
      30
0
      10
-118.6585690367
      20
-20.1714301795
      30
0
      10
-118.0738859071
      20
-19.4362149298
      30
0
      10
-117.4892027775
      20
-18.7009996801
      30
0
      10
-117.4892027775
      20
-18.7009996801
      30
0
      10
-116.8376331929
      20
-18.0287699681333
      30
0
      10
-116.1860636083
      20
-17.3565402561667
      30
0
      10
-115.5344940237
      20
-16.6843105442
      30
0
      10
-115.5344940237
      20
-16.6843105442
      30
0
      10
-114.826108158067
      20
-16.0854558513667
      30
0
      10
-114.117722292433
      20
-15.4866011585333
      30
0
      10
-113.4093364268
      20
-14.8877464657
      30
0
      10
-113.4093364268
      20
-14.8877464657
      30
0
      10
-112.655082564133
      20
-14.3715222438333
      30
0
      10
-111.900828701467
      20
-13.8552980219667
      30
0
      10
-111.1465748388
      20
-13.3390738001
      30
0
      10
-111.1465748388
      20
-13.3390738001
      30
0
      10
-110.358110164633
      20
-12.9134584260667
      30
0
      10
-109.569645490467
      20
-12.4878430520333
      30
0
      10
-108.7811808163
      20
-12.062227678
      30
0
      10
-108.7811808163
      20
-12.062227678
      30
0
      10
-107.970691253
      20
-11.7337991457667
      30
0
      10
-107.1602016897
      20
-11.4053706135333
      30
0
      10
-106.3497121264
      20
-11.0769420813
      30
0
      10
-106.3497121264
      20
-11.0769420813
      30
0
      10
-105.5297239967
      20
-10.8507763375333
      30
0
      10
-104.709735867
      20
-10.6246105937667
      30
0
      10
-103.8897477373
      20
-10.39844485
      30
0
      10
-103.8897477373
      20
-10.39844485
      30
0
      10
-103.889747737294
      20
-12.6892455653866
      30
0
      10
-103.889747737289
      20
-14.9800462807732
      30
0
      10
-103.889747737284
      20
-17.2708469961599
      30
0
      10
-103.889747737284
      20
-17.2708469961599
      30
0
      10
-106.064574732568
      20
-17.9546416272365
      30
0
      10
-108.352158041388
      20
-19.235974193072
      30
0
      10
-110.385833888054
      20
-21.0032972211263
      30
0
      10
-110.385833888054
      20
-21.0032972211263
      30
0
      10
-112.854042012655
      20
-23.1306576160778
      30
0
      10
-114.920256667784
      20
-25.9642632178469
      30
0
      10
-116.16647815367
      20
-28.912151705853
      30
0
      10
-116.16647815367
      20
-28.912151705853
      30
0
      10
-117.375062984059
      20
-31.7305047758581
      30
0
      10
-117.824525636837
      20
-34.6201964130171
      30
0
      10
-117.593784544914
      20
-37.0163295940729
      30
0
      10
-117.593784544914
      20
-37.0163295940729
      30
0
      10
-109.992322885276
      20
-32.5700650013486
      30
0
      10
-102.390861225638
      20
-28.1238004086243
      30
0
      10
-94.789399566
      20
-23.6775358159
      30
0
      10
-94.7893995659405
      20
-23.6775358159053
      30
0
      10
-94.4459865456514
      20
-23.4766658752077
      30
0
      10
-94.1437167468256
      20
-23.2125426552895
      30
0
      10
-93.8986120133871
      20
-22.8991660364649
      30
0
      10
-93.8986120133871
      20
-22.8991660364649
      30
0
      10
-93.6535072799485
      20
-22.5857894176404
      30
0
      10
-93.4699761038804
      20
-22.2287958406769
      30
0
      10
-93.357746575351
      20
-21.8471077893759
      30
0
      10
-93.357746575351
      20
-21.8471077893759
      30
0
      10
-93.2455170468216
      20
-21.4654197380749
      30
0
      10
-93.2066077436441
      20
-21.0659023132879
      30
0
      10
-93.2430810577118
      20
-20.6697319800463
      30
0
      10
-93.2430810577118
      20
-20.6697319800463
      30
0
      10
-93.2795543717795
      20
-20.2735616468046
      30
0
      10
-93.390754288374
      20
-19.8878639865427
      30
0
      10
-93.5707866436889
      20
-19.5330829461535
      30
0
      10
-93.5707866436889
      20
-19.5330829461535
      30
0
      10
-93.7508189990038
      20
-19.1783019057642
      30
0
      10
-93.9964457030031
      20
-18.8608186324023
      30
0
      10
-94.2946472852325
      20
-18.5974613618822
      30
0
      10
-94.2946472852476
      20
-18.5974613619072
      30
0
      10
-95.0111194272083
      20
-17.9655143107028
      30
0
      10
-95.8388225627009
      20
-17.476806105826
      30
0
      10
-96.8036001485
      20
-17.1359472101096
      30
0
      10
-96.8036001485
      20
-17.1359472101096
      30
0
      10
-97.9658811872679
      20
-16.7268236842183
      30
0
      10
-99.3410287227829
      20
-16.5388778495445
      30
0
      10
-100.889747737284
      20
-16.6661578056373
      30
0
      10
-100.8897477373
      20
-16.6661578056
      30
0
      10
-100.8897477373
      20
-14.5614911555333
      30
0
      10
-100.8897477373
      20
-12.4568245054667
      30
0
      10
-100.8897477373
      20
-10.3521578554
      30
0
      10
-100.8897477373
      20
-10.3521578554
      30
0
      10
-99.0448742732204
      20
-10.2058720785698
      30
0
      10
-97.1889161878811
      20
-10.4127907730042
      30
0
      10
-95.42156038261
      20
-10.961799957392
      30
0
      10
-95.42156038261
      20
-10.961799957392
      30
0
      10
-93.6542045773388
      20
-11.5108091417797
      30
0
      10
-92.0076705450579
      20
-12.3919001933649
      30
0
      10
-90.5703966383924
      20
-13.5577481011927
      30
0
      10
-90.5703966383924
      20
-13.5577481011927
      30
0
      10
-89.133122731727
      20
-14.7235960090204
      30
0
      10
-87.9313109391644
      20
-16.1529469721853
      30
0
      10
-87.029512768913
      20
-17.7690279377
      30
0
      10
-87.029512768913
      20
-17.7690279377
      30
0
      10
-86.1277145986615
      20
-19.3851089032147
      30
0
      10
-85.5423701357775
      20
-21.1584581695505
      30
0
      10
-85.3049193013321
      20
-22.9938259060515
      30
0
    1001
FS_CYPCUT
    1000
Channel
    1070
1
    1000
LeadIn
    1002
{
    1070
3
    1040
0.5
    1040
1.5707963267949
    1040
0.5
    1040
0.3
    1070
0
    1040
0.5
    1070
0
    1002
}
    1000
LeadOut
    1002
{
    1070
0
    1040
0
    1040
0.523598775598299
    1040
3
    1070
0
    1002
}
    1000
IsFill
    1070
0
    1000
PathStart
    1040
0.5
    1000
ToolCompensation
    1002
{
    1070
0
    1040
0
    1070
0
    1002
}
       0
LINE
       5
2008
     100
AcDbEntity
       8
2
     100
AcDbLine
      10
-44
      20
-88.5866238723
      30
0
      11
106
      21
-88.5866238723
      31
0
    1001
FS_CYPCUT
    1000
Channel
    1070
2
    1000
LeadIn
    1002
{
    1070
3
    1040
0
    1040
1.5707963267949
    1040
0.5
    1040
0.3
    1070
0
    1040
0.5
    1070
0
    1002
}
    1000
LeadOut
    1002
{
    1070
0
    1040
0
    1040
0.523598775598299
    1040
3
    1070
0
    1002
}
    1000
IsFill
    1070
0
    1000
PathStart
    1040
0
    1000
ToolCompensation
    1002
{
    1070
0
    1040
0
    1070
0
    1002
}
       0
LINE
       5
2009
     100
AcDbEntity
       8
2
     100
AcDbLine
      10
106
      20
-111.4249556048
      30
0
      11
-44
      21
-111.4249556048
      31
0
    1001
FS_CYPCUT
    1000
Channel
    1070
2
    1000
LeadIn
    1002
{
    1070
3
    1040
0
    1040
1.5707963267949
    1040
0.5
    1040
0.3
    1070
0
    1040
0.5
    1070
0
    1002
}
    1000
LeadOut
    1002
{
    1070
0
    1040
0
    1040
0.523598775598299
    1040
3
    1070
0
    1002
}
    1000
IsFill
    1070
0
    1000
PathStart
    1040
0
    1000
ToolCompensation
    1002
{
    1070
0
    1040
0
    1070
0
    1002
}
       0
CIRCLE
       5
200A
     100
AcDbEntity
       8
1
     100
AcDbCircle
      10
31
      20
-126.6766634651
      30
0
      40
3.75
    1001
FS_CYPCUT
    1000
Channel
    1070
1
    1000
LeadIn
    1002
{
    1070
3
    1040
0
    1040
1.5707963267949
    1040
0.5
    1040
0.3
    1070
0
    1040
0.5
    1070
0
    1002
}
    1000
LeadOut
    1002
{
    1070
0
    1040
0
    1040
0.523598775598299
    1040
3
    1070
0
    1002
}
    1000
IsFill
    1070
0
    1000
PathStart
    1040
1
    1000
ToolCompensation
    1002
{
    1070
0
    1040
0
    1070
0
    1002
}
       0
SPLINE
       5
200B
     100
AcDbEntity
       8
1
     100
AcDbSpline
      70
0
      71
3
      72
92
      73
88
      74
0
      40
0
      40
0
      40
0
      40
0
      40
0.0454545454545455
      40
0.0454545454545455
      40
0.0454545454545455
      40
0.0454545454545455
      40
0.0909090909090909
      40
0.0909090909090909
      40
0.0909090909090909
      40
0.0909090909090909
      40
0.136363636363636
      40
0.136363636363636
      40
0.136363636363636
      40
0.136363636363636
      40
0.181818181818182
      40
0.181818181818182
      40
0.181818181818182
      40
0.181818181818182
      40
0.227272727272727
      40
0.227272727272727
      40
0.227272727272727
      40
0.227272727272727
      40
0.272727272727273
      40
0.272727272727273
      40
0.272727272727273
      40
0.272727272727273
      40
0.318181818181818
      40
0.318181818181818
      40
0.318181818181818
      40
0.318181818181818
      40
0.363636363636364
      40
0.363636363636364
      40
0.363636363636364
      40
0.363636363636364
      40
0.409090909090909
      40
0.409090909090909
      40
0.409090909090909
      40
0.409090909090909
      40
0.454545454545455
      40
0.454545454545455
      40
0.454545454545455
      40
0.454545454545455
      40
0.5
      40
0.5
      40
0.5
      40
0.5
      40
0.545454545454545
      40
0.545454545454545
      40
0.545454545454545
      40
0.545454545454545
      40
0.590909090909091
      40
0.590909090909091
      40
0.590909090909091
      40
0.590909090909091
      40
0.636363636363636
      40
0.636363636363636
      40
0.636363636363636
      40
0.636363636363636
      40
0.681818181818182
      40
0.681818181818182
      40
0.681818181818182
      40
0.681818181818182
      40
0.727272727272727
      40
0.727272727272727
      40
0.727272727272727
      40
0.727272727272727
      40
0.772727272727273
      40
0.772727272727273
      40
0.772727272727273
      40
0.772727272727273
      40
0.818181818181818
      40
0.818181818181818
      40
0.818181818181818
      40
0.818181818181818
      40
0.863636363636364
      40
0.863636363636364
      40
0.863636363636364
      40
0.863636363636364
      40
0.909090909090909
      40
0.909090909090909
      40
0.909090909090909
      40
0.909090909090909
      40
0.954545454545455
      40
0.954545454545455
      40
0.954545454545455
      40
0.954545454545455
      40
1
      40
1
      40
1
      40
1
      10
24.8195082654
      20
-26.1060368402
      30
0
      10
24.8195082654
      20
-34.6969680931
      30
0
      10
24.8195082654
      20
-43.287899346
      30
0
      10
24.8195082654
      20
-51.8788305989
      30
0
      10
24.8195082654
      20
-51.8788305989
      30
0
      10
22.4400270104667
      20
-51.8788305989
      30
0
      10
20.0605457555333
      20
-51.8788305989
      30
0
      10
17.6810645006
      20
-51.8788305989
      30
0
      10
17.6810645006
      20
-51.8788305989
      30
0
      10
17.6810645005873
      20
-48.9541787803061
      30
0
      10
17.6810645005746
      20
-46.0295269617122
      30
0
      10
17.6810645005619
      20
-43.1048751431182
      30
0
      10
17.6810645005619
      20
-43.1048751431182
      30
0
      10
16.4376624815333
      20
-44.5245299127131
      30
0
      10
15.0464739782657
      20
-45.8076155603355
      30
0
      10
13.5310904721741
      20
-46.9323737900114
      30
0
      10
13.5310904721741
      20
-46.9323737900114
      30
0
      10
12.0157069660825
      20
-48.0571320196874
      30
0
      10
10.3847430030835
      20
-49.0171688846861
      30
0
      10
8.66585612629999
      20
-49.7962042822
      30
0
      10
8.6658561263
      20
-49.7962042822
      30
0
      10
8.66585612629827
      20
-46.6901259346866
      30
0
      10
8.66585612629653
      20
-43.5840475871732
      30
0
      10
8.6658561262948
      20
-40.4779692396598
      30
0
      10
8.6658561262948
      20
-40.4779692396598
      30
0
      10
11.0600721590938
      20
-38.8955842155085
      30
0
      10
13.1848149995479
      20
-36.6481042570203
      30
0
      10
14.6399259079062
      20
-34.1580744150901
      30
0
      10
14.6399259079062
      20
-34.1580744150901
      30
0
      10
16.1536959815433
      20
-31.590956243423
      30
0
      10
16.9383032375028
      20
-28.7860323553132
      30
0
      10
16.8977683854211
      20
-26.3200195948244
      30
0
      10
16.8977683854211
      20
-26.3200195948244
      30
0
      10
16.8665315858695
      20
-23.8440362129195
      30
0
      10
16.042487741335
      20
-21.7431300028611
      30
0
      10
14.648943149354
      20
-20.2856490349619
      30
0
      10
14.648943149354
      20
-20.2856490349619
      30
0
      10
13.2169022474482
      20
-18.77752531382
      30
0
      10
11.1390320967492
      20
-17.8967010182779
      30
0
      10
8.66585612629445
      20
-17.8605813186922
      30
0
      10
8.66585612629445
      20
-17.8605813186922
      30
0
      10
8.6658561262963
      20
-15.2747615835948
      30
0
      10
8.66585612629815
      20
-12.6889418484974
      30
0
      10
8.6658561263
      20
-10.1031221134
      30
0
      10
8.6658561263
      20
-10.1031221134
      30
0
      10
9.47094968816667
      20
-10.112130109
      30
0
      10
10.2760432500333
      20
-10.1211381046
      30
0
      10
11.0811368119
      20
-10.1301461002
      30
0
      10
11.0811368119
      20
-10.1301461002
      30
0
      10
11.8543150866667
      20
-10.2496831973333
      30
0
      10
12.6274933614333
      20
-10.3692202944667
      30
0
      10
13.4006716362
      20
-10.4887573916
      30
0
      10
13.4006716362
      20
-10.4887573916
      30
0
      10
14.1296609377
      20
-10.7169260190667
      30
0
      10
14.8586502392
      20
-10.9450946465333
      30
0
      10
15.5876395407
      20
-11.173263274
      30
0
      10
15.5876395407
      20
-11.173263274
      30
0
      10
16.2608676529333
      20
-11.506441408
      30
0
      10
16.9340957651667
      20
-11.839619542
      30
0
      10
17.6073238774
      20
-12.172797676
      30
0
      10
17.6073238774
      20
-12.172797676
      30
0
      10
18.2141037559667
      20
-12.6056963372
      30
0
      10
18.8208836345333
      20
-13.0385949984
      30
0
      10
19.4276635131
      20
-13.4714936596
      30
0
      10
19.4276635131
      20
-13.4714936596
      30
0
      10
19.9583629345667
      20
-13.9972408723
      30
0
      10
20.4890623560333
      20
-14.522988085
      30
0
      10
21.0197617775
      20
-15.0487352977
      30
0
      10
21.0197617775
      20
-15.0487352977
      30
0
      10
21.4659562447
      20
-15.6589851777667
      30
0
      10
21.9121507119
      20
-16.2692350578333
      30
0
      10
22.3583451791
      20
-16.8794849379
      30
0
      10
22.3583451791
      20
-16.8794849379
      30
0
      10
22.7129516544
      20
-17.5645501779333
      30
0
      10
23.0675581297
      20
-18.2496154179667
      30
0
      10
23.422164605
      20
-18.934680658
      30
0
      10
23.422164605
      20
-18.934680658
      30
0
      10
23.6795539484667
      20
-19.6836863071667
      30
0
      10
23.9369432919333
      20
-20.4326919563333
      30
0
      10
24.1943326354
      20
-21.1816976055
      30
0
      10
24.1943326354
      20
-21.1816976055
      30
0
      10
24.3504189640333
      20
-21.9827537017
      30
0
      10
24.5065052926667
      20
-22.7838097979
      30
0
      10
24.6625916213
      20
-23.5848658941
      30
0
      10
24.6625916213
      20
-23.5848658941
      30
0
      10
24.7148971693333
      20
-24.4252562094667
      30
0
      10
24.7672027173667
      20
-25.2656465248333
      30
0
      10
24.8195082654
      20
-26.1060368402
      30
0
    1001
FS_CYPCUT
    1000
Channel
    1070
1
    1000
LeadIn
    1002
{
    1070
3
    1040
0.5
    1040
1.5707963267949
    1040
0.5
    1040
0.3
    1070
0
    1040
0.5
    1070
0
    1002
}
    1000
LeadOut
    1002
{
    1070
0
    1040
0
    1040
0.523598775598299
    1040
3
    1070
0
    1002
}
    1000
IsFill
    1070
0
    1000
PathStart
    1040
0.5
    1000
ToolCompensation
    1002
{
    1070
0
    1040
0
    1070
0
    1002
}
       0
SPLINE
       5
200C
     100
AcDbEntity
       8
1
     100
AcDbSpline
      70
0
      71
3
      72
132
      73
128
      74
0
      40
0
      40
0
      40
0
      40
0
      40
0.03125
      40
0.03125
      40
0.03125
      40
0.03125
      40
0.0625
      40
0.0625
      40
0.0625
      40
0.0625
      40
0.09375
      40
0.09375
      40
0.09375
      40
0.09375
      40
0.125
      40
0.125
      40
0.125
      40
0.125
      40
0.15625
      40
0.15625
      40
0.15625
      40
0.15625
      40
0.1875
      40
0.1875
      40
0.1875
      40
0.1875
      40
0.21875
      40
0.21875
      40
0.21875
      40
0.21875
      40
0.25
      40
0.25
      40
0.25
      40
0.25
      40
0.28125
      40
0.28125
      40
0.28125
      40
0.28125
      40
0.3125
      40
0.3125
      40
0.3125
      40
0.3125
      40
0.34375
      40
0.34375
      40
0.34375
      40
0.34375
      40
0.375
      40
0.375
      40
0.375
      40
0.375
      40
0.40625
      40
0.40625
      40
0.40625
      40
0.40625
      40
0.4375
      40
0.4375
      40
0.4375
      40
0.4375
      40
0.46875
      40
0.46875
      40
0.46875
      40
0.46875
      40
0.5
      40
0.5
      40
0.5
      40
0.5
      40
0.53125
      40
0.53125
      40
0.53125
      40
0.53125
      40
0.5625
      40
0.5625
      40
0.5625
      40
0.5625
      40
0.59375
      40
0.59375
      40
0.59375
      40
0.59375
      40
0.625
      40
0.625
      40
0.625
      40
0.625
      40
0.65625
      40
0.65625
      40
0.65625
      40
0.65625
      40
0.6875
      40
0.6875
      40
0.6875
      40
0.6875
      40
0.71875
      40
0.71875
      40
0.71875
      40
0.71875
      40
0.75
      40
0.75
      40
0.75
      40
0.75
      40
0.78125
      40
0.78125
      40
0.78125
      40
0.78125
      40
0.8125
      40
0.8125
      40
0.8125
      40
0.8125
      40
0.84375
      40
0.84375
      40
0.84375
      40
0.84375
      40
0.875
      40
0.875
      40
0.875
      40
0.875
      40
0.90625
      40
0.90625
      40
0.90625
      40
0.90625
      40
0.9375
      40
0.9375
      40
0.9375
      40
0.9375
      40
0.96875
      40
0.96875
      40
0.96875
      40
0.96875
      40
1
      40
1
      40
1
      40
1
      10
5.6658561263
      20
-10.849681822
      30
0
      10
4.83591602863333
      20
-11.0836105176667
      30
0
      10
4.00597593096667
      20
-11.3175392133333
      30
0
      10
3.1760358333
      20
-11.551467909
      30
0
      10
3.1760358333
      20
-11.551467909
      30
0
      10
2.35634599043333
      20
-11.891897495
      30
0
      10
1.53665614756667
      20
-12.232327081
      30
0
      10
0.7169663047
      20
-12.572756667
      30
0
      10
0.7169663047
      20
-12.572756667
      30
0
      10
-0.0790200671666667
      20
-13.0140998192667
      30
0
      10
-0.875006439033333
      20
-13.4554429715333
      30
0
      10
-1.6709928109
      20
-13.8967861238
      30
0
      10
-1.6709928109
      20
-13.8967861238
      30
0
      10
-2.4302115304
      20
-14.4317992672667
      30
0
      10
-3.1894302499
      20
-14.9668124107333
      30
0
      10
-3.9486489694
      20
-15.5018255542
      30
0
      10
-3.9486489694
      20
-15.5018255542
      30
0
      10
-4.65863930676667
      20
-16.1217277487
      30
0
      10
-5.36862964413333
      20
-16.7416299432
      30
0
      10
-6.0786199815
      20
-17.3615321377
      30
0
      10
-6.0786199815
      20
-17.3615321377
      30
0
      10
-6.72772917123333
      20
-18.0561491955667
      30
0
      10
-7.37683836096667
      20
-18.7507662534333
      30
0
      10
-8.0259475507
      20
-19.4453833113
      30
0
      10
-8.0259475507
      20
-19.4453833113
      30
0
      10
-8.60352204336667
      20
-20.2033147820667
      30
0
      10
-9.18109653603333
      20
-20.9612462528333
      30
0
      10
-9.7586710287
      20
-21.7191777236
      30
0
      10
-9.7586710287
      20
-21.7191777236
      30
0
      10
-10.2552313429667
      20
-22.5279840045667
      30
0
      10
-10.7517916572333
      20
-23.3367902855333
      30
0
      10
-11.2483519715
      20
-24.1455965665
      30
0
      10
-11.2483519715
      20
-24.1455965665
      30
0
      10
-11.6557482769333
      20
-24.9920030687
      30
0
      10
-12.0631445823667
      20
-25.8384095709
      30
0
      10
-12.4705408878
      20
-26.6848160731
      30
0
      10
-12.4705408878
      20
-26.6848160731
      30
0
      10
-12.7820867642667
      20
-27.5549310912333
      30
0
      10
-13.0936326407333
      20
-28.4250461093667
      30
0
      10
-13.4051785172
      20
-29.2951611275
      30
0
      10
-13.4051785172
      20
-29.2951611275
      30
0
      10
-13.6157606965667
      20
-30.1747038387
      30
0
      10
-13.8263428759333
      20
-31.0542465499
      30
0
      10
-14.0369250553
      20
-31.9337892611
      30
0
      10
-14.0369250553
      20
-31.9337892611
      30
0
      10
-14.1430873429
      20
-32.8083241098
      30
0
      10
-14.2492496305
      20
-33.6828589585
      30
0
      10
-14.3554119181
      20
-34.5573938072
      30
0
      10
-14.3554119181
      20
-34.5573938072
      30
0
      10
-14.3554119181
      20
-35.4125674297
      30
0
      10
-14.3554119181
      20
-36.2677410522
      30
0
      10
-14.3554119181
      20
-37.1229146747
      30
0
      10
-14.3554119181
      20
-37.1229146747
      30
0
      10
-14.2492496305
      20
-37.9446914748
      30
0
      10
-14.1430873429
      20
-38.7664682749
      30
0
      10
-14.0369250553
      20
-39.588245075
      30
0
      10
-14.0369250553
      20
-39.588245075
      30
0
      10
-13.8263428759333
      20
-40.3631375841333
      30
0
      10
-13.6157606965667
      20
-41.1380300932667
      30
0
      10
-13.4051785172
      20
-41.9129226024
      30
0
      10
-13.4051785172
      20
-41.9129226024
      30
0
      10
-13.0936326407333
      20
-42.6282128437
      30
0
      10
-12.7820867642667
      20
-43.343503085
      30
0
      10
-12.4705408878
      20
-44.0587933263
      30
0
      10
-12.4705408878
      20
-44.0587933263
      30
0
      10
-12.0631445823667
      20
-44.7027415492333
      30
0
      10
-11.6557482769333
      20
-45.3466897721667
      30
0
      10
-11.2483519715
      20
-45.9906379951
      30
0
      10
-11.2483519715
      20
-45.9906379951
      30
0
      10
-10.7517916572333
      20
-46.5526753548667
      30
0
      10
-10.2552313429667
      20
-47.1147127146333
      30
0
      10
-9.7586710287
      20
-47.6767500744
      30
0
      10
-9.7586710287
      20
-47.6767500744
      30
0
      10
-9.18109653603333
      20
-48.1476520940333
      30
0
      10
-8.60352204336667
      20
-48.6185541136667
      30
0
      10
-8.0259475507
      20
-49.0894561333
      30
0
      10
-8.0259475507
      20
-49.0894561333
      30
0
      10
-7.37683836096667
      20
-49.4614941008
      30
0
      10
-6.72772917123333
      20
-49.8335320683
      30
0
      10
-6.0786199815
      20
-50.2055700358
      30
0
      10
-6.0786199815
      20
-50.2055700358
      30
0
      10
-5.36862964413333
      20
-50.4726378523333
      30
0
      10
-4.65863930676667
      20
-50.7397056688667
      30
0
      10
-3.9486489694
      20
-51.0067734854
      30
0
      10
-3.9486489694
      20
-51.0067734854
      30
0
      10
-3.1894302499
      20
-51.1644878819667
      30
0
      10
-2.4302115304
      20
-51.3222022785333
      30
0
      10
-1.6709928109
      20
-51.4799166751
      30
0
      10
-1.6709928109
      20
-51.4799166751
      30
0
      10
-0.875006439033333
      20
-51.5256891532
      30
0
      10
-0.0790200671666667
      20
-51.5714616313
      30
0
      10
0.7169663047
      20
-51.6172341094
      30
0
      10
0.7169663047
      20
-51.6172341094
      30
0
      10
1.53665614756667
      20
-51.5503134251
      30
0
      10
2.35634599043333
      20
-51.4833927408
      30
0
      10
3.1760358333
      20
-51.4164720565
      30
0
      10
3.1760358333
      20
-51.4164720565
      30
0
      10
4.00597593096667
      20
-51.2379565502
      30
0
      10
4.83591602863333
      20
-51.0594410439
      30
0
      10
5.6658561263
      20
-50.8809255376
      30
0
      10
5.6658561263
      20
-50.8809255376
      30
0
      10
5.66585612629819
      20
-47.9459636314442
      30
0
      10
5.66585612629638
      20
-45.0110017252884
      30
0
      10
5.66585612629457
      20
-42.0760398191327
      30
0
      10
5.66585612629457
      20
-42.0760398191327
      30
0
      10
2.95250214998807
      20
-43.1927773037101
      30
0
      10
0.215281564364549
      20
-43.402817766249
      30
0
      10
-1.97315983275984
      20
-42.7793125268304
      30
0
      10
-1.97315983275984
      20
-42.7793125268304
      30
0
      10
-4.86993117356817
      20
-41.9641925766874
      30
0
      10
-6.87243375189195
      20
-39.7976523912693
      30
0
      10
-7.52448076402492
      20
-36.6922762289006
      30
0
      10
-7.52448076402492
      20
-36.6922762289006
      30
0
      10
-8.02121993314689
      20
-34.3517516676965
      30
0
      10
-7.66910051617672
      20
-31.4840009582718
      30
0
      10
-6.44597200804329
      20
-28.7112027722746
      30
0
      10
-6.44597200804329
      20
-28.7112027722746
      30
0
      10
-5.14400204804379
      20
-25.7145588338991
      30
0
      10
-2.83597197564818
      20
-22.8747758081384
      30
0
      10
-0.0926431438309149
      20
-20.9111569411647
      30
0
      10
-0.0926431438309149
      20
-20.9111569411647
      30
0
      10
1.73062240022246
      20
-19.5953422898892
      30
0
      10
3.73097827187163
      20
-18.6641644646782
      30
0
      10
5.66585612629478
      20
-18.2059818570659
      30
0
      10
5.66585612629478
      20
-18.2059818570659
      30
0
      10
5.66585612629652
      20
-15.7538818453773
      30
0
      10
5.66585612629826
      20
-13.3017818336886
      30
0
      10
5.6658561263
      20
-10.849681822
      30
0
    1001
FS_CYPCUT
    1000
Channel
    1070
1
    1000
LeadIn
    1002
{
    1070
3
    1040
29.5
    1040
1.5707963267949
    1040
0.5
    1040
0.3
    1070
0
    1040
0.5
    1070
0
    1002
}
    1000
LeadOut
    1002
{
    1070
0
    1040
0
    1040
0.523598775598299
    1040
3
    1070
0
    1002
}
    1000
IsFill
    1070
0
    1000
PathStart
    1040
29.5
    1000
ToolCompensation
    1002
{
    1070
0
    1040
0
    1070
0
    1002
}
       0
LWPOLYLINE
       5
200D
     100
AcDbEntity
       8
1
     100
AcDbPolyline
      90
12
      70
1
      10
-15.9553273573
      20
-20.0269130574
      42
0
      10
-30.917508989
      20
-20.0269130574
      42
0
      10
-29.2512190195
      20
-10.5769130576
      42
0
      10
-35.6484066744
      20
-10.5769130576
      42
0
      10
-41.3651369656558
      20
-42.9981015898522
      42
0.386919480665599
      10
-31.6070026671646
      20
-51.8788305988588
      42
0
      10
-21.8496052059
      20
-51.8788305989
      42
0
      10
-21.8496052059
      20
-45.2273530074
      42
0
      10
-31.6070026653
      20
-45.2273530074
      42
-0.466307658154998
      10
-34.7091470873
      20
-41.5303612478
      42
0
      10
-32.0283689717
      20
-26.3269130584
      42
0
      10
-15.9553273573
      20
-26.3269130584
      42
0
    1001
FS_CYPCUT
    1000
Channel
    1070
1
    1000
LeadIn
    1002
{
    1070
3
    1040
3.5
    1040
1.5707963267949
    1040
0.5
    1040
0.3
    1070
0
    1040
0.5
    1070
0
    1002
}
    1000
LeadOut
    1002
{
    1070
0
    1040
0
    1040
0.523598775598299
    1040
3
    1070
0
    1002
}
    1000
IsFill
    1070
0
    1000
PathStart
    1040
3.5
    1000
ToolCompensation
    1002
{
    1070
0
    1040
0
    1070
0
    1002
}
       0
LWPOLYLINE
       5
200E
     100
AcDbEntity
       8
1
     100
AcDbPolyline
      90
12
      70
1
      10
53.3942645848
      20
-20.0269130576
      42
0
      10
38.4320829531
      20
-20.0269130576
      42
0
      10
40.0983729226
      20
-10.5769130578
      42
0
      10
33.7011852677
      20
-10.5769130578
      42
0
      10
27.9844549766
      20
-42.9981015894
      42
0.386919480687171
      10
37.7425892750525
      20
-51.8788305988583
      42
0
      10
47.4999867363
      20
-51.8788305989
      42
0
      10
47.4999867363
      20
-45.2273530076
      42
0
      10
37.7425892769
      20
-45.2273530076001
      42
-0.466307658154997
      10
34.6404448549
      20
-41.530361248
      42
0
      10
37.3212229705
      20
-26.3269130586
      42
0
      10
53.3942645848
      20
-26.3269130586
      42
0
    1001
FS_CYPCUT
    1000
Channel
    1070
1
    1000
LeadIn
    1002
{
    1070
3
    1040
3.5
    1040
1.5707963267949
    1040
0.5
    1040
0.3
    1070
0
    1040
0.5
    1070
0
    1002
}
    1000
LeadOut
    1002
{
    1070
0
    1040
0
    1040
0.523598775598299
    1040
3
    1070
0
    1002
}
    1000
IsFill
    1070
0
    1000
PathStart
    1040
3.5
    1000
ToolCompensation
    1002
{
    1070
0
    1040
0
    1070
0
    1002
}
       0
LWPOLYLINE
       5
200F
     100
AcDbEntity
       8
1
     100
AcDbPolyline
      90
4
      70
1
      10
67.5136879914
      20
-20.3783906502
      42
0
      10
61.1165003365
      20
-20.3783906502
      42
0
      10
55.5621228694
      20
-51.8788305989
      42
0
      10
61.9593105242
      20
-51.8788305989
      42
0
    1001
FS_CYPCUT
    1000
Channel
    1070
1
    1000
LeadIn
    1002
{
    1070
3
    1040
1.5
    1040
1.5707963267949
    1040
0.5
    1040
0.3
    1070
0
    1040
0.5
    1070
0
    1002
}
    1000
LeadOut
    1002
{
    1070
0
    1040
0
    1040
0.523598775598299
    1040
3
    1070
0
    1002
}
    1000
IsFill
    1070
0
    1000
PathStart
    1040
1.5
    1000
ToolCompensation
    1002
{
    1070
0
    1040
0
    1070
0
    1002
}
       0
LWPOLYLINE
       5
2010
     100
AcDbEntity
       8
1
     100
AcDbPolyline
      90
4
      70
1
      10
69.1799779591
      20
-10.9283906502
      42
0
      10
62.7827903042
      20
-10.9283906502
      42
0
      10
61.6719303257
      20
-17.2283906502
      42
0
      10
68.0691179806
      20
-17.2283906502
      42
0
    1001
FS_CYPCUT
    1000
Channel
    1070
1
    1000
LeadIn
    1002
{
    1070
3
    1040
0.499999999999999
    1040
1.5707963267949
    1040
0.5
    1040
0.3
    1070
0
    1040
0.5
    1070
0
    1002
}
    1000
LeadOut
    1002
{
    1070
0
    1040
0
    1040
0.523598775598299
    1040
3
    1070
0
    1002
}
    1000
IsFill
    1070
0
    1000
PathStart
    1040
0.499999999999999
    1000
ToolCompensation
    1002
{
    1070
0
    1040
0
    1070
0
    1002
}
       0
SPLINE
       5
2011
     100
AcDbEntity
       8
1
     100
AcDbSpline
      70
0
      71
3
      72
136
      73
132
      74
0
      40
0
      40
0
      40
0
      40
0
      40
0.0303030303030303
      40
0.0303030303030303
      40
0.0303030303030303
      40
0.0303030303030303
      40
0.0606060606060606
      40
0.0606060606060606
      40
0.0606060606060606
      40
0.0606060606060606
      40
0.0909090909090909
      40
0.0909090909090909
      40
0.0909090909090909
      40
0.0909090909090909
      40
0.121212121212121
      40
0.121212121212121
      40
0.121212121212121
      40
0.121212121212121
      40
0.151515151515152
      40
0.151515151515152
      40
0.151515151515152
      40
0.151515151515152
      40
0.181818181818182
      40
0.181818181818182
      40
0.181818181818182
      40
0.181818181818182
      40
0.212121212121212
      40
0.212121212121212
      40
0.212121212121212
      40
0.212121212121212
      40
0.242424242424242
      40
0.242424242424242
      40
0.242424242424242
      40
0.242424242424242
      40
0.272727272727273
      40
0.272727272727273
      40
0.272727272727273
      40
0.272727272727273
      40
0.303030303030303
      40
0.303030303030303
      40
0.303030303030303
      40
0.303030303030303
      40
0.333333333333333
      40
0.333333333333333
      40
0.333333333333333
      40
0.333333333333333
      40
0.363636363636364
      40
0.363636363636364
      40
0.363636363636364
      40
0.363636363636364
      40
0.393939393939394
      40
0.393939393939394
      40
0.393939393939394
      40
0.393939393939394
      40
0.424242424242424
      40
0.424242424242424
      40
0.424242424242424
      40
0.424242424242424
      40
0.454545454545455
      40
0.454545454545455
      40
0.454545454545455
      40
0.454545454545455
      40
0.484848484848485
      40
0.484848484848485
      40
0.484848484848485
      40
0.484848484848485
      40
0.515151515151515
      40
0.515151515151515
      40
0.515151515151515
      40
0.515151515151515
      40
0.545454545454545
      40
0.545454545454545
      40
0.545454545454545
      40
0.545454545454545
      40
0.575757575757576
      40
0.575757575757576
      40
0.575757575757576
      40
0.575757575757576
      40
0.606060606060606
      40
0.606060606060606
      40
0.606060606060606
      40
0.606060606060606
      40
0.636363636363636
      40
0.636363636363636
      40
0.636363636363636
      40
0.636363636363636
      40
0.666666666666667
      40
0.666666666666667
      40
0.666666666666667
      40
0.666666666666667
      40
0.696969696969697
      40
0.696969696969697
      40
0.696969696969697
      40
0.696969696969697
      40
0.727272727272727
      40
0.727272727272727
      40
0.727272727272727
      40
0.727272727272727
      40
0.757575757575758
      40
0.757575757575758
      40
0.757575757575758
      40
0.757575757575758
      40
0.787878787878788
      40
0.787878787878788
      40
0.787878787878788
      40
0.787878787878788
      40
0.818181818181818
      40
0.818181818181818
      40
0.818181818181818
      40
0.818181818181818
      40
0.848484848484849
      40
0.848484848484849
      40
0.848484848484849
      40
0.848484848484849
      40
0.878787878787879
      40
0.878787878787879
      40
0.878787878787879
      40
0.878787878787879
      40
0.909090909090909
      40
0.909090909090909
      40
0.909090909090909
      40
0.909090909090909
      40
0.939393939393939
      40
0.939393939393939
      40
0.939393939393939
      40
0.939393939393939
      40
0.96969696969697
      40
0.96969696969697
      40
0.96969696969697
      40
0.96969696969697
      40
1
      40
1
      40
1
      40
1
      10
108.8024008605
      20
-10.5769130603
      30
0
      10
108.8024008605
      20
-12.6769130592
      30
0
      10
108.8024008605
      20
-14.7769130581
      30
0
      10
108.8024008605
      20
-16.876913057
      30
0
      10
108.8024008605
      20
-16.876913057
      30
0
      10
103.968170746536
      20
-16.876913056999
      30
0
      10
99.1339406325723
      20
-16.876913056998
      30
0
      10
94.2997105186084
      20
-16.8769130569971
      30
0
      10
94.2997105186084
      20
-16.8769130569971
      30
0
      10
91.645100967437
      20
-17.1691716802293
      30
0
      10
88.7598743877928
      20
-18.3060118373796
      30
0
      10
86.1748236433271
      20
-20.1381393588289
      30
0
      10
86.1748236433271
      20
-20.1381393588289
      30
0
      10
82.9830484276492
      20
-22.3769726188436
      30
0
      10
80.2915820707903
      20
-25.6638468375727
      30
0
      10
78.7927000681462
      20
-29.1343636515811
      30
0
      10
78.7927000681462
      20
-29.1343636515811
      30
0
      10
77.4138403573138
      20
-32.2770094217675
      30
0
      10
77.0219582472729
      20
-35.524086460362
      30
0
      10
77.5900097383266
      20
-38.1726828429258
      30
0
      10
77.5900097383266
      20
-38.1726828429258
      30
0
      10
78.3888352044365
      20
-41.9355867942376
      30
0
      10
80.9393995549591
      20
-44.480797624296
      30
0
      10
84.6089369983828
      20
-45.2273530078263
      30
0
      10
84.6089369984
      20
-45.2273530078
      30
0
      10
90.4835516005667
      20
-45.2273530078
      30
0
      10
96.3581662027333
      20
-45.2273530078
      30
0
      10
102.2327808049
      20
-45.2273530078
      30
0
      10
102.2327808049
      20
-45.2273530078
      30
0
      10
102.2327808049
      20
-47.4445122048333
      30
0
      10
102.2327808049
      20
-49.6616714018667
      30
0
      10
102.2327808049
      20
-51.8788305989
      30
0
      10
102.2327808049
      20
-51.8788305989
      30
0
      10
95.9160188456
      20
-51.8788305989
      30
0
      10
89.5992568863
      20
-51.8788305989
      30
0
      10
83.282494927
      20
-51.8788305989
      30
0
      10
83.282494927
      20
-51.8788305989
      30
0
      10
82.5277967991333
      20
-51.8067349221
      30
0
      10
81.7730986712667
      20
-51.7346392453
      30
0
      10
81.0184005434
      20
-51.6625435685
      30
0
      10
81.0184005434
      20
-51.6625435685
      30
0
      10
80.3098105393333
      20
-51.4795465674333
      30
0
      10
79.6012205352667
      20
-51.2965495663667
      30
0
      10
78.8926305312
      20
-51.1135525653
      30
0
      10
78.8926305312
      20
-51.1135525653
      30
0
      10
78.2415683990667
      20
-50.8226034484667
      30
0
      10
77.5905062669333
      20
-50.5316543316333
      30
0
      10
76.9394441348
      20
-50.2407052148
      30
0
      10
76.9394441348
      20
-50.2407052148
      30
0
      10
76.3564024945333
      20
-49.8464929639333
      30
0
      10
75.7733608542667
      20
-49.4522807130667
      30
0
      10
75.190319214
      20
-49.0580684622
      30
0
      10
75.190319214
      20
-49.0580684622
      30
0
      10
74.6846944564
      20
-48.5669462641
      30
0
      10
74.1790696988
      20
-48.075824066
      30
0
      10
73.6734449412
      20
-47.5847018679
      30
0
      10
73.6734449412
      20
-47.5847018679
      30
0
      10
73.2533857946
      20
-47.0045847252667
      30
0
      10
72.833326648
      20
-46.4244675826333
      30
0
      10
72.4132675014
      20
-45.84435044
      30
0
      10
72.4132675014
      20
-45.84435044
      30
0
      10
72.0855437051333
      20
-45.1845876120333
      30
0
      10
71.7578199088667
      20
-44.5248247840667
      30
0
      10
71.4300961126
      20
-43.8650619561
      30
0
      10
71.4300961126
      20
-43.8650619561
      30
0
      10
71.1999893149667
      20
-43.1362862844667
      30
0
      10
70.9698825173333
      20
-42.4075106128333
      30
0
      10
70.7397757197
      20
-41.6787349412
      30
0
      10
70.7397757197
      20
-41.6787349412
      30
0
      10
70.6109943581333
      20
-40.8926914894667
      30
0
      10
70.4822129965667
      20
-40.1066480377333
      30
0
      10
70.353431635
      20
-39.320604586
      30
0
      10
70.353431635
      20
-39.320604586
      30
0
      10
70.3280511702
      20
-38.4899613541667
      30
0
      10
70.3026707054
      20
-37.6593181223333
      30
0
      10
70.2772902406
      20
-36.8286748905
      30
0
      10
70.2772902406
      20
-36.8286748905
      30
0
      10
70.3557197081
      20
-35.9668186558
      30
0
      10
70.4341491756
      20
-35.1049624211
      30
0
      10
70.5125786431
      20
-34.2431061864
      30
0
      10
70.5125786431
      20
-34.2431061864
      30
0
      10
70.6935540613
      20
-33.3639267596
      30
0
      10
70.8745294795
      20
-32.4847473328
      30
0
      10
71.0555048977
      20
-31.605567906
      30
0
      10
71.0555048977
      20
-31.605567906
      30
0
      10
71.3361096382
      20
-30.7232342812667
      30
0
      10
71.6167143787
      20
-29.8409006565333
      30
0
      10
71.8973191192
      20
-28.9585670318
      30
0
      10
71.8973191192
      20
-28.9585670318
      30
0
      10
72.2730309118667
      20
-28.0872990368
      30
0
      10
72.6487427045333
      20
-27.2160310418
      30
0
      10
73.0244544972
      20
-26.3447630468
      30
0
      10
73.0244544972
      20
-26.3447630468
      30
0
      10
73.4892183115333
      20
-25.4986021737667
      30
0
      10
73.9539821258667
      20
-24.6524413007333
      30
0
      10
74.4187459402
      20
-23.8062804277
      30
0
      10
74.4187459402
      20
-23.8062804277
      30
0
      10
74.9650715694
      20
-22.9988635385333
      30
0
      10
75.5113971986
      20
-22.1914466493667
      30
0
      10
76.0577228278
      20
-21.3840297602
      30
0
      10
76.0577228278
      20
-21.3840297602
      30
0
      10
76.676805602
      20
-20.6283693127
      30
0
      10
77.2958883762
      20
-19.8727088652
      30
0
      10
77.9149711504
      20
-19.1170484177
      30
0
      10
77.9149711504
      20
-19.1170484177
      30
0
      10
78.5968338340333
      20
-18.4253227546333
      30
0
      10
79.2786965176667
      20
-17.7335970915667
      30
0
      10
79.9605592013
      20
-17.0418714285
      30
0
      10
79.9605592013
      20
-17.0418714285
      30
0
      10
80.6942127880333
      20
-16.4252285096333
      30
0
      10
81.4278663747667
      20
-15.8085855907667
      30
0
      10
82.1615199615
      20
-15.1919426719
      30
0
      10
82.1615199615
      20
-15.1919426719
      30
0
      10
82.9351407745
      20
-14.6603204116
      30
0
      10
83.7087615875
      20
-14.1286981513
      30
0
      10
84.4823824005
      20
-13.597075891
      30
0
      10
84.4823824005
      20
-13.597075891
      30
0
      10
85.2835026449333
      20
-13.1590419973667
      30
0
      10
86.0846228893667
      20
-12.7210081037333
      30
0
      10
86.8857431338
      20
-12.2829742101
      30
0
      10
86.8857431338
      20
-12.2829742101
      30
0
      10
87.7014518296
      20
-11.9455881064
      30
0
      10
88.5171605254
      20
-11.6082020027
      30
0
      10
89.3328692212
      20
-11.270815899
      30
0
      10
89.3328692212
      20
-11.270815899
      30
0
      10
90.1500202785667
      20
-11.0395149527667
      30
0
      10
90.9671713359333
      20
-10.8082140065333
      30
0
      10
91.7843223933
      20
-10.5769130603
      30
0
      10
91.7843223933
      20
-10.5769130603
      30
0
      10
97.4570152157
      20
-10.5769130603
      30
0
      10
103.1297080381
      20
-10.5769130603
      30
0
      10
108.8024008605
      20
-10.5769130603
      30
0
    1001
FS_CYPCUT
    1000
Channel
    1070
1
    1000
LeadIn
    1002
{
    1070
3
    1040
8.5
    1040
1.5707963267949
    1040
0.5
    1040
0.3
    1070
0
    1040
0.5
    1070
0
    1002
}
    1000
LeadOut
    1002
{
    1070
0
    1040
0
    1040
0.523598775598299
    1040
3
    1070
0
    1002
}
    1000
IsFill
    1070
0
    1000
PathStart
    1040
8.5
    1000
ToolCompensation
    1002
{
    1070
0
    1040
0
    1070
0
    1002
}
       0
SPLINE
       5
2012
     100
AcDbEntity
       8
1
     100
AcDbSpline
      70
0
      71
3
      72
132
      73
128
      74
0
      40
0
      40
0
      40
0
      40
0
      40
0.03125
      40
0.03125
      40
0.03125
      40
0.03125
      40
0.0625
      40
0.0625
      40
0.0625
      40
0.0625
      40
0.09375
      40
0.09375
      40
0.09375
      40
0.09375
      40
0.125
      40
0.125
      40
0.125
      40
0.125
      40
0.15625
      40
0.15625
      40
0.15625
      40
0.15625
      40
0.1875
      40
0.1875
      40
0.1875
      40
0.1875
      40
0.21875
      40
0.21875
      40
0.21875
      40
0.21875
      40
0.25
      40
0.25
      40
0.25
      40
0.25
      40
0.28125
      40
0.28125
      40
0.28125
      40
0.28125
      40
0.3125
      40
0.3125
      40
0.3125
      40
0.3125
      40
0.34375
      40
0.34375
      40
0.34375
      40
0.34375
      40
0.375
      40
0.375
      40
0.375
      40
0.375
      40
0.40625
      40
0.40625
      40
0.40625
      40
0.40625
      40
0.4375
      40
0.4375
      40
0.4375
      40
0.4375
      40
0.46875
      40
0.46875
      40
0.46875
      40
0.46875
      40
0.5
      40
0.5
      40
0.5
      40
0.5
      40
0.53125
      40
0.53125
      40
0.53125
      40
0.53125
      40
0.5625
      40
0.5625
      40
0.5625
      40
0.5625
      40
0.59375
      40
0.59375
      40
0.59375
      40
0.59375
      40
0.625
      40
0.625
      40
0.625
      40
0.625
      40
0.65625
      40
0.65625
      40
0.65625
      40
0.65625
      40
0.6875
      40
0.6875
      40
0.6875
      40
0.6875
      40
0.71875
      40
0.71875
      40
0.71875
      40
0.71875
      40
0.75
      40
0.75
      40
0.75
      40
0.75
      40
0.78125
      40
0.78125
      40
0.78125
      40
0.78125
      40
0.8125
      40
0.8125
      40
0.8125
      40
0.8125
      40
0.84375
      40
0.84375
      40
0.84375
      40
0.84375
      40
0.875
      40
0.875
      40
0.875
      40
0.875
      40
0.90625
      40
0.90625
      40
0.90625
      40
0.90625
      40
0.9375
      40
0.9375
      40
0.9375
      40
0.9375
      40
0.96875
      40
0.96875
      40
0.96875
      40
0.96875
      40
1
      40
1
      40
1
      40
1
      10
130.4235843459
      20
-10.8496818224
      30
0
      10
130.4235843459
      20
-13.3017818340667
      30
0
      10
130.4235843459
      20
-15.7538818457333
      30
0
      10
130.4235843459
      20
-18.2059818574
      30
0
      10
130.42358434592
      20
-18.2059818574222
      30
0
      10
128.488706491495
      20
-18.6641644650337
      30
0
      10
126.488350619847
      20
-19.5953422902454
      30
0
      10
124.665085075792
      20
-20.9111569415217
      30
0
      10
124.665085075792
      20
-20.9111569415217
      30
0
      10
121.921756243973
      20
-22.8747758084961
      30
0
      10
119.613726171582
      20
-25.7145588342573
      30
0
      10
118.31175621158
      20
-28.7112027726338
      30
0
      10
118.31175621158
      20
-28.7112027726338
      30
0
      10
117.088627703442
      20
-31.4840009586303
      30
0
      10
116.736508286478
      20
-34.3517516680571
      30
0
      10
117.233247455598
      20
-36.692276229261
      30
0
      10
117.233247455598
      20
-36.692276229261
      30
0
      10
117.885294467735
      20
-39.7976523916311
      30
0
      10
119.887797046054
      20
-41.9641925770484
      30
0
      10
122.784568386866
      20
-42.7793125271921
      30
0
      10
122.784568386866
      20
-42.7793125271921
      30
0
      10
124.973009783991
      20
-43.4028177666107
      30
0
      10
127.710230369615
      20
-43.1927773040717
      30
0
      10
130.42358434592
      20
-42.076039819494
      30
0
      10
130.4235843459
      20
-42.0760398195
      30
0
      10
130.4235843459
      20
-45.0110017256333
      30
0
      10
130.4235843459
      20
-47.9459636317667
      30
0
      10
130.4235843459
      20
-50.8809255379
      30
0
      10
130.4235843459
      20
-50.8809255379
      30
0
      10
129.593644248233
      20
-51.0594410442333
      30
0
      10
128.763704150567
      20
-51.2379565505667
      30
0
      10
127.9337640529
      20
-51.4164720569
      30
0
      10
127.9337640529
      20
-51.4164720569
      30
0
      10
127.114074210033
      20
-51.4833927411667
      30
0
      10
126.294384367167
      20
-51.5503134254333
      30
0
      10
125.4746945243
      20
-51.6172341097
      30
0
      10
125.4746945243
      20
-51.6172341097
      30
0
      10
124.678708152433
      20
-51.5714616316
      30
0
      10
123.882721780567
      20
-51.5256891535
      30
0
      10
123.0867354087
      20
-51.4799166754
      30
0
      10
123.0867354087
      20
-51.4799166754
      30
0
      10
122.3275166892
      20
-51.3222022788667
      30
0
      10
121.5682979697
      20
-51.1644878823333
      30
0
      10
120.8090792502
      20
-51.0067734858
      30
0
      10
120.8090792502
      20
-51.0067734858
      30
0
      10
120.099088912833
      20
-50.7397056692667
      30
0
      10
119.389098575467
      20
-50.4726378527333
      30
0
      10
118.6791082381
      20
-50.2055700362
      30
0
      10
118.6791082381
      20
-50.2055700362
      30
0
      10
118.029999048367
      20
-49.8335320687
      30
0
      10
117.380889858633
      20
-49.4614941012
      30
0
      10
116.7317806689
      20
-49.0894561337
      30
0
      10
116.7317806689
      20
-49.0894561337
      30
0
      10
116.154206176233
      20
-48.6185541140667
      30
0
      10
115.576631683567
      20
-48.1476520944333
      30
0
      10
114.9990571909
      20
-47.6767500748
      30
0
      10
114.9990571909
      20
-47.6767500748
      30
0
      10
114.502496876633
      20
-47.114712715
      30
0
      10
114.005936562367
      20
-46.5526753552
      30
0
      10
113.5093762481
      20
-45.9906379954
      30
0
      10
113.5093762481
      20
-45.9906379954
      30
0
      10
113.1019799427
      20
-45.3466897725
      30
0
      10
112.6945836373
      20
-44.7027415496
      30
0
      10
112.2871873319
      20
-44.0587933267
      30
0
      10
112.2871873319
      20
-44.0587933267
      30
0
      10
111.9756414554
      20
-43.3435030854
      30
0
      10
111.6640955789
      20
-42.6282128441
      30
0
      10
111.3525497024
      20
-41.9129226028
      30
0
      10
111.3525497024
      20
-41.9129226028
      30
0
      10
111.141967523033
      20
-41.1380300936333
      30
0
      10
110.931385343667
      20
-40.3631375844667
      30
0
      10
110.7208031643
      20
-39.5882450753
      30
0
      10
110.7208031643
      20
-39.5882450753
      30
0
      10
110.6146408767
      20
-38.7664682752
      30
0
      10
110.5084785891
      20
-37.9446914751
      30
0
      10
110.4023163015
      20
-37.122914675
      30
0
      10
110.4023163015
      20
-37.122914675
      30
0
      10
110.4023163015
      20
-36.2677410525
      30
0
      10
110.4023163015
      20
-35.41256743
      30
0
      10
110.4023163015
      20
-34.5573938075
      30
0
      10
110.4023163015
      20
-34.5573938075
      30
0
      10
110.5084785891
      20
-33.6828589588333
      30
0
      10
110.6146408767
      20
-32.8083241101667
      30
0
      10
110.7208031643
      20
-31.9337892615
      30
0
      10
110.7208031643
      20
-31.9337892615
      30
0
      10
110.931385343667
      20
-31.0542465503
      30
0
      10
111.141967523033
      20
-30.1747038391
      30
0
      10
111.3525497024
      20
-29.2951611279
      30
0
      10
111.3525497024
      20
-29.2951611279
      30
0
      10
111.6640955789
      20
-28.4250461097333
      30
0
      10
111.9756414554
      20
-27.5549310915667
      30
0
      10
112.2871873319
      20
-26.6848160734
      30
0
      10
112.2871873319
      20
-26.6848160734
      30
0
      10
112.6945836373
      20
-25.8384095712333
      30
0
      10
113.1019799427
      20
-24.9920030690667
      30
0
      10
113.5093762481
      20
-24.1455965669
      30
0
      10
113.5093762481
      20
-24.1455965669
      30
0
      10
114.005936562367
      20
-23.3367902859
      30
0
      10
114.502496876633
      20
-22.5279840049
      30
0
      10
114.9990571909
      20
-21.7191777239
      30
0
      10
114.9990571909
      20
-21.7191777239
      30
0
      10
115.576631683567
      20
-20.9612462531667
      30
0
      10
116.154206176233
      20
-20.2033147824333
      30
0
      10
116.7317806689
      20
-19.4453833117
      30
0
      10
116.7317806689
      20
-19.4453833117
      30
0
      10
117.380889858633
      20
-18.7507662538
      30
0
      10
118.029999048367
      20
-18.0561491959
      30
0
      10
118.6791082381
      20
-17.361532138
      30
0
      10
118.6791082381
      20
-17.361532138
      30
0
      10
119.389098575467
      20
-16.7416299435333
      30
0
      10
120.099088912833
      20
-16.1217277490667
      30
0
      10
120.8090792502
      20
-15.5018255546
      30
0
      10
120.8090792502
      20
-15.5018255546
      30
0
      10
121.5682979697
      20
-14.9668124111
      30
0
      10
122.3275166892
      20
-14.4317992676
      30
0
      10
123.0867354087
      20
-13.8967861241
      30
0
      10
123.0867354087
      20
-13.8967861241
      30
0
      10
123.882721780567
      20
-13.4554429718667
      30
0
      10
124.678708152433
      20
-13.0140998196333
      30
0
      10
125.4746945243
      20
-12.5727566674
      30
0
      10
125.4746945243
      20
-12.5727566674
      30
0
      10
126.294384367167
      20
-12.2323270814
      30
0
      10
127.114074210033
      20
-11.8918974954
      30
0
      10
127.9337640529
      20
-11.5514679094
      30
0
      10
127.9337640529
      20
-11.5514679094
      30
0
      10
128.763704150567
      20
-11.3175392137333
      30
0
      10
129.593644248233
      20
-11.0836105180667
      30
0
      10
130.4235843459
      20
-10.8496818224
      30
0
    1001
FS_CYPCUT
    1000
Channel
    1070
1
    1000
LeadIn
    1002
{
    1070
3
    1040
2.5
    1040
1.5707963267949
    1040
0.5
    1040
0.3
    1070
0
    1040
0.5
    1070
0
    1002
}
    1000
LeadOut
    1002
{
    1070
0
    1040
0
    1040
0.523598775598299
    1040
3
    1070
0
    1002
}
    1000
IsFill
    1070
0
    1000
PathStart
    1040
2.5
    1000
ToolCompensation
    1002
{
    1070
0
    1040
0
    1070
0
    1002
}
       0
SPLINE
       5
2013
     100
AcDbEntity
       8
1
     100
AcDbSpline
      70
0
      71
3
      72
92
      73
88
      74
0
      40
0
      40
0
      40
0
      40
0
      40
0.0454545454545455
      40
0.0454545454545455
      40
0.0454545454545455
      40
0.0454545454545455
      40
0.0909090909090909
      40
0.0909090909090909
      40
0.0909090909090909
      40
0.0909090909090909
      40
0.136363636363636
      40
0.136363636363636
      40
0.136363636363636
      40
0.136363636363636
      40
0.181818181818182
      40
0.181818181818182
      40
0.181818181818182
      40
0.181818181818182
      40
0.227272727272727
      40
0.227272727272727
      40
0.227272727272727
      40
0.227272727272727
      40
0.272727272727273
      40
0.272727272727273
      40
0.272727272727273
      40
0.272727272727273
      40
0.318181818181818
      40
0.318181818181818
      40
0.318181818181818
      40
0.318181818181818
      40
0.363636363636364
      40
0.363636363636364
      40
0.363636363636364
      40
0.363636363636364
      40
0.409090909090909
      40
0.409090909090909
      40
0.409090909090909
      40
0.409090909090909
      40
0.454545454545455
      40
0.454545454545455
      40
0.454545454545455
      40
0.454545454545455
      40
0.5
      40
0.5
      40
0.5
      40
0.5
      40
0.545454545454545
      40
0.545454545454545
      40
0.545454545454545
      40
0.545454545454545
      40
0.590909090909091
      40
0.590909090909091
      40
0.590909090909091
      40
0.590909090909091
      40
0.636363636363636
      40
0.636363636363636
      40
0.636363636363636
      40
0.636363636363636
      40
0.681818181818182
      40
0.681818181818182
      40
0.681818181818182
      40
0.681818181818182
      40
0.727272727272727
      40
0.727272727272727
      40
0.727272727272727
      40
0.727272727272727
      40
0.772727272727273
      40
0.772727272727273
      40
0.772727272727273
      40
0.772727272727273
      40
0.818181818181818
      40
0.818181818181818
      40
0.818181818181818
      40
0.818181818181818
      40
0.863636363636364
      40
0.863636363636364
      40
0.863636363636364
      40
0.863636363636364
      40
0.909090909090909
      40
0.909090909090909
      40
0.909090909090909
      40
0.909090909090909
      40
0.954545454545455
      40
0.954545454545455
      40
0.954545454545455
      40
0.954545454545455
      40
1
      40
1
      40
1
      40
1
      10
149.2523668953
      20
-26.1867598825
      30
0
      10
149.2523668953
      20
-34.7507834546333
      30
0
      10
149.2523668953
      20
-43.3148070267667
      30
0
      10
149.2523668953
      20
-51.8788305989
      30
0
      10
149.2523668953
      20
-51.8788305989
      30
0
      10
146.9811755036
      20
-51.8788305989
      30
0
      10
144.7099841119
      20
-51.8788305989
      30
0
      10
142.4387927202
      20
-51.8788305989
      30
0
      10
142.4387927202
      20
-51.8788305989
      30
0
      10
142.438792720187
      20
-48.9541787804389
      30
0
      10
142.438792720174
      20
-46.0295269619779
      30
0
      10
142.43879272016
      20
-43.1048751435168
      30
0
      10
142.43879272016
      20
-43.1048751435168
      30
0
      10
141.195390701132
      20
-44.5245299131119
      30
0
      10
139.804202197865
      20
-45.8076155607345
      30
0
      10
138.288818691773
      20
-46.9323737904106
      30
0
      10
138.288818691773
      20
-46.9323737904106
      30
0
      10
136.773435185682
      20
-48.0571320200868
      30
0
      10
135.142471222683
      20
-49.0171688850858
      30
0
      10
133.4235843459
      20
-49.7962042826
      30
0
      10
133.4235843459
      20
-49.7962042826
      30
0
      10
133.423584345907
      20
-46.6901259350741
      30
0
      10
133.423584345913
      20
-43.5840475875482
      30
0
      10
133.42358434592
      20
-40.4779692400222
      30
0
      10
133.42358434592
      20
-40.4779692400222
      30
0
      10
135.817800378721
      20
-38.895584215871
      30
0
      10
137.942543219172
      20
-36.648104257381
      30
0
      10
139.397654127532
      20
-34.158074415451
      30
0
      10
139.397654127532
      20
-34.158074415451
      30
0
      10
140.911424201166
      20
-31.5909562437812
      30
0
      10
141.696031457133
      20
-28.7860323556725
      30
0
      10
141.655496605049
      20
-26.3200195951829
      30
0
      10
141.655496605049
      20
-26.3200195951829
      30
0
      10
141.624259805497
      20
-23.8440362132764
      30
0
      10
140.800215960961
      20
-21.7431300032159
      30
0
      10
139.406671368982
      20
-20.2856490353176
      30
0
      10
139.406671368982
      20
-20.2856490353176
      30
0
      10
137.974630467074
      20
-18.7775253141752
      30
0
      10
135.896760316375
      20
-17.8967010186327
      30
0
      10
133.42358434592
      20
-17.8605813190481
      30
0
      10
133.42358434592
      20
-17.8605813190481
      30
0
      10
133.423584345913
      20
-15.3882319803987
      30
0
      10
133.423584345907
      20
-12.9158826417494
      30
0
      10
133.4235843459
      20
-10.4435333031
      30
0
      10
133.4235843459
      20
-10.4435333031
      30
0
      10
134.213080385867
      20
-10.4549353264333
      30
0
      10
135.002576425833
      20
-10.4663373497667
      30
0
      10
135.7920724658
      20
-10.4777393731
      30
0
      10
135.7920724658
      20
-10.4777393731
      30
0
      10
136.5500424717
      20
-10.5973450472667
      30
0
      10
137.3080124776
      20
-10.7169507214333
      30
0
      10
138.0659824835
      20
-10.8365563956
      30
0
      10
138.0659824835
      20
-10.8365563956
      30
0
      10
138.780448011733
      20
-11.0624755536667
      30
0
      10
139.494913539967
      20
-11.2883947117333
      30
0
      10
140.2093790682
      20
-11.5143138698
      30
0
      10
140.2093790682
      20
-11.5143138698
      30
0
      10
140.869049190333
      20
-11.8429762387333
      30
0
      10
141.528719312467
      20
-12.1716386076667
      30
0
      10
142.1883894346
      20
-12.5003009766
      30
0
      10
142.1883894346
      20
-12.5003009766
      30
0
      10
142.782839171733
      20
-12.9265125993667
      30
0
      10
143.377288908867
      20
-13.3527242221333
      30
0
      10
143.971738646
      20
-13.7789358449
      30
0
      10
143.971738646
      20
-13.7789358449
      30
0
      10
144.491573717833
      20
-14.2959611622
      30
0
      10
145.011408789667
      20
-14.8129864795
      30
0
      10
145.5312438615
      20
-15.3300117968
      30
0
      10
145.5312438615
      20
-15.3300117968
      30
0
      10
145.968249147367
      20
-15.9296800913667
      30
0
      10
146.405254433233
      20
-16.5293483859333
      30
0
      10
146.8422597191
      20
-17.1290166805
      30
0
      10
146.8422597191
      20
-17.1290166805
      30
0
      10
147.189529083967
      20
-17.8018512015667
      30
0
      10
147.536798448833
      20
-18.4746857226333
      30
0
      10
147.8840678137
      20
-19.1475202437
      30
0
      10
147.8840678137
      20
-19.1475202437
      30
0
      10
148.1361132482
      20
-19.8828879711
      30
0
      10
148.3881586827
      20
-20.6182556985
      30
0
      10
148.6402041172
      20
-21.3536234259
      30
0
      10
148.6402041172
      20
-21.3536234259
      30
0
      10
148.793042466367
      20
-22.1399031070333
      30
0
      10
148.945880815533
      20
-22.9261827881667
      30
0
      10
149.0987191647
      20
-23.7124624693
      30
0
      10
149.0987191647
      20
-23.7124624693
      30
0
      10
149.1499350749
      20
-24.5372282737
      30
0
      10
149.2011509851
      20
-25.3619940781
      30
0
      10
149.2523668953
      20
-26.1867598825
      30
0
    1001
FS_CYPCUT
    1000
Channel
    1070
1
    1000
LeadIn
    1002
{
    1070
3
    1040
0.5
    1040
1.5707963267949
    1040
0.5
    1040
0.3
    1070
0
    1040
0.5
    1070
0
    1002
}
    1000
LeadOut
    1002
{
    1070
0
    1040
0
    1040
0.523598775598299
    1040
3
    1070
0
    1002
}
    1000
IsFill
    1070
0
    1000
PathStart
    1040
0.5
    1000
ToolCompensation
    1002
{
    1070
0
    1040
0
    1070
0
    1002
}
       0
LWPOLYLINE
       5
2014
     100
AcDbEntity
       8
1
     100
AcDbPolyline
      90
106
      70
1
      10
66.0433591142
      20
-0.9283906502
      42
0
      10
68.2534310809
      20
2.8354787249
      42
0
      10
70.1470283989
      20
6.5690277329
      42
0
      10
71.7183109019
      20
10.2607414932
      42
0
      10
72.9624324957
      20
13.8992341522
      42
0
      10
73.8755561042
      20
17.4732839988
      42
0
      10
74.4548655038
      20
20.9718680744
      42
0
      10
74.6985740088
      20
24.3841961689
      42
0
      10
74.605929982
      20
27.6997441002
      42
0
      10
74.1772191528
      20
30.908286172
      42
0
      10
73.4137637362
      20
33.9999267117
      42
0
      10
72.3179183543
      20
36.9651305903
      42
0
      10
70.8930627751
      20
39.7947526305
      42
0
      10
69.1435914879
      20
42.4800658114
      42
0
      10
67.0749001505
      20
45.0127881847
      42
0
      10
64.693368948
      20
47.3851084172
      42
0
      10
62.006342915
      20
49.5897098821
      42
0
      10
59.0221092828
      20
51.6197932254
      42
0
      10
55.7498719196
      20
53.4690973353
      42
0
      10
52.1997229449
      20
55.1319186532
      42
0
      10
48.3826116031
      20
56.6031287642
      42
0
      10
44.3103104947
      20
57.8781902137
      42
0
      10
39.9953792676
      20
58.9531705021
      42
0
      10
35.4511258808
      20
59.824754213
      42
0
      10
30.6915655606
      20
60.4902532386
      42
0
      10
25.7313775756
      20
60.9476150703
      42
0
      10
20.585859963
      20
61.1954291287
      42
0
      10
15.2708823471
      20
61.2329311145
      42
0
      10
9.8028369949
      20
61.0600053654
      42
0
      10
4.1985882594
      20
60.6771852128
      42
0
      10
-1.5245794326
      20
60.0856513372
      42
0
      10
-7.3490148886
      20
59.2872281266
      42
0
      10
-13.2567545899
      20
58.2843780498
      42
0
      10
-19.2295780935
      20
57.0801940616
      42
0
      10
-25.2490642273
      20
55.678390064
      42
0
      10
-31.296647904
      20
54.0832894515
      42
0
      10
-37.3536773788
      20
52.2998117773
      42
0
      10
-43.4014717747
      20
50.3334575805
      42
0
      10
-49.4213786968
      20
48.1902914215
      42
0
      10
-55.39483176
      20
45.8769231779
      42
0
      10
-61.3034078508
      20
43.4004876587
      42
0
      10
-67.1288839465
      20
40.7686225992
      42
0
      10
-72.8532933188
      20
37.989445105
      42
0
      10
-78.4589809458
      20
35.0715266175
      42
0
      10
-83.9286579628
      20
32.0238664783
      42
0
      10
-89.2454549846
      20
28.8558641735
      42
0
      10
-94.3929741328
      20
25.5772903443
      42
0
      10
-99.3553396101
      20
22.1982566527
      42
0
      10
-104.1172466633
      20
18.7291845957
      42
0
      10
-108.6640087864
      20
15.1807733631
      42
0
      10
-112.9816030156
      20
11.5639668401
      42
0
      10
-117.0567131786
      20
7.8899198539
      42
0
      10
-120.8767709643
      20
4.1699637711
      42
0
      10
-124.4299946846
      20
0.4155715494
      42
0
      10
-127.7054256121
      20
-3.361677647
      42
0
      10
-130.692961778
      20
-7.1501341589
      42
0
      10
-133.3833891282
      20
-10.9381137621
      42
0
      10
-130.0395331488
      20
-7.9471788233
      42
0
      10
-126.4125011916
      20
-4.9775900035
      42
0
      10
-122.5137504111
      20
-2.0387277105
      42
0
      10
-118.355596274
      20
0.8601247078
      42
0
      10
-113.9511736561
      20
3.7098102875
      42
0
      10
-109.3143953524
      20
6.5013273743
      42
0
      10
-104.459908128
      20
9.2258580575
      42
0
      10
-99.4030464526
      20
11.8747960251
      42
0
      10
-94.1597840608
      20
14.4397737489
      42
0
      10
-88.7466834943
      20
16.9126889164
      42
0
      10
-83.1808437838
      20
19.2857300244
      42
0
      10
-77.4798464358
      20
21.5514010544
      42
0
      10
-71.661699896
      20
23.7025451509
      42
0
      10
-65.744782664
      20
25.7323672288
      42
0
      10
-59.7477852383
      20
27.6344554381
      42
0
      10
-53.6896510767
      20
29.4028014173
      42
0
      10
-47.5895167573
      20
31.0318192731
      42
0
      10
-41.4666515292
      20
32.5163632253
      42
0
      10
-35.3403964444
      20
33.8517438613
      42
0
      10
-29.2301032628
      20
35.0337429489
      42
0
      10
-23.1550733238
      20
36.0586267613
      42
0
      10
-17.1344965759
      20
36.9231578713
      42
0
      10
-11.1873909601
      20
37.6246053775
      42
0
      10
-5.3325423347
      20
38.1607535308
      42
0
      10
0.4115548655
      20
38.5299087337
      42
0
      10
6.0267560499
      20
38.73090489
      42
0
      10
11.4953237876
      20
38.7631070883
      42
0
      10
16.799983837
      20
38.6264136075
      42
0
      10
21.9239797122
      20
38.3212562381
      42
0
      10
26.8511256132
      20
37.8485989186
      42
0
      10
31.5658575546
      20
37.2099346902
      42
0
      10
36.0532825293
      20
36.4072809804
      42
0
      10
40.2992255526
      20
35.443173231
      42
0
      10
44.2902744391
      20
34.3206568884
      42
0
      10
48.0138221686
      20
33.0432777838
      42
0
      10
51.4581067103
      20
31.6150709328
      42
0
      10
54.6122481764
      20
30.0405477889
      42
0
      10
57.4662831899
      20
28.3246819933
      42
0
      10
60.0111963572
      20
26.4728936635
      42
0
      10
62.2389487463
      20
24.4910322727
      42
0
      10
64.14250328
      20
22.3853581714
      42
0
      10
65.7158469651
      20
20.1625228131
      42
0
      10
66.9540098861
      20
17.8295477429
      42
0
      10
67.8530809047
      20
15.3938024178
      42
0
      10
68.410220014
      20
12.862980928
      42
0
      10
68.6236673097
      20
10.2450776924
      42
0
      10
68.4927485494
      20
7.548362206
      42
0
      10
68.0178772825
      20
4.7813529177
      42
0
      10
67.2005535435
      20
1.9527903221
      42
0
    1001
FS_CYPCUT
    1000
Channel
    1070
1
    1000
LeadIn
    1002
{
    1070
3
    1040
39.5
    1040
1.5707963267949
    1040
0.5
    1040
0.3
    1070
0
    1040
0.5
    1070
0
    1002
}
    1000
LeadOut
    1002
{
    1070
0
    1040
0
    1040
0.523598775598299
    1040
3
    1070
0
    1002
}
    1000
IsFill
    1070
0
    1000
PathStart
    1040
39.5
    1000
ToolCompensation
    1002
{
    1070
0
    1040
0
    1070
0
    1002
}
    1000
MicroConnect
    1002
{
    1070
1
    1040
83
    1041
0.6
    1042
0
    1002
}
       0
LWPOLYLINE
       5
2015
     100
AcDbEntity
       8
1
     100
AcDbPolyline
      90
4
      70
1
      10
186
      20
128.1574330868
      42
0
      10
186
      20
118.1574330868
      42
-1
      10
178
      20
118.1574330868
      42
0
      10
178
      20
128.1574330868
      42
-1.00000000000001
    1001
FS_CYPCUT
    1000
Channel
    1070
1
    1000
LeadIn
    1002
{
    1070
3
    1040
0.499999999999999
    1040
1.5707963267949
    1040
0.5
    1040
0.3
    1070
0
    1040
0.5
    1070
0
    1002
}
    1000
LeadOut
    1002
{
    1070
0
    1040
0
    1040
0.523598775598299
    1040
3
    1070
0
    1002
}
    1000
IsFill
    1070
0
    1000
PathStart
    1040
0.499999999999999
    1000
ToolCompensation
    1002
{
    1070
0
    1040
0
    1070
0
    1002
}
       0
CIRCLE
       5
2016
     100
AcDbEntity
       8
1
     100
AcDbCircle
      10
297
      20
114.1574330868
      30
0
      40
2.5
    1001
FS_CYPCUT
    1000
Channel
    1070
1
    1000
LeadIn
    1002
{
    1070
3
    1040
0
    1040
1.5707963267949
    1040
0.5
    1040
0.3
    1070
0
    1040
0.5
    1070
0
    1002
}
    1000
LeadOut
    1002
{
    1070
0
    1040
0
    1040
0.523598775598299
    1040
3
    1070
0
    1002
}
    1000
IsFill
    1070
0
    1000
PathStart
    1040
0.999999999999999
    1000
ToolCompensation
    1002
{
    1070
0
    1040
0
    1070
0
    1002
}
       0
CIRCLE
       5
2017
     100
AcDbEntity
       8
1
     100
AcDbCircle
      10
297
      20
21
      30
0
      40
2.5
    1001
FS_CYPCUT
    1000
Channel
    1070
1
    1000
LeadIn
    1002
{
    1070
3
    1040
0
    1040
1.5707963267949
    1040
0.5
    1040
0.3
    1070
0
    1040
0.5
    1070
0
    1002
}
    1000
LeadOut
    1002
{
    1070
0
    1040
0
    1040
0.523598775598299
    1040
3
    1070
0
    1002
}
    1000
IsFill
    1070
0
    1000
PathStart
    1040
0.999999999999999
    1000
ToolCompensation
    1002
{
    1070
0
    1040
0
    1070
0
    1002
}
       0
LWPOLYLINE
       5
2018
     100
AcDbEntity
       8
1
     100
AcDbPolyline
      90
8
      70
1
      10
537
      20
113.6574330868
      42
0.41421356237309
      10
527
      20
123.6574330868
      42
0
      10
317
      20
123.6574330868
      42
0.414213562373096
      10
307
      20
113.6574330868
      42
0
      10
307
      20
-26
      42
0.4142135623731
      10
317
      20
-36.0000000000001
      42
0
      10
527
      20
-36
      42
0.414213562373089
      10
537
      20
-26
      42
0
    1001
FS_CYPCUT
    1000
Channel
    1070
1
    1000
LeadIn
    1002
{
    1070
3
    1040
1.50181785272758
    1040
1.5707963267949
    1040
0.5
    1040
0.3
    1070
0
    1040
0.5
    1070
0
    1002
}
    1000
LeadOut
    1002
{
    1070
0
    1040
0
    1040
0.523598775598299
    1040
3
    1070
0
    1002
}
    1000
IsFill
    1070
0
    1000
PathStart
    1040
1.5
    1000
ToolCompensation
    1002
{
    1070
0
    1040
0
    1070
0
    1002
}
    1000
MicroConnect
    1002
{
    1070
3
    1040
1.49896070987044
    1041
0.6
    1042
0
    1040
5.13685585271195
    1041
0.6
    1042
0
    1040
5.85250150693189
    1041
0.6
    1042
0
    1002
}
       0
CIRCLE
       5
2019
     100
AcDbEntity
       8
1
     100
AcDbCircle
      10
547
      20
114.1574330868
      30
0
      40
2.49999999999989
    1001
FS_CYPCUT
    1000
Channel
    1070
1
    1000
LeadIn
    1002
{
    1070
3
    1040
0
    1040
1.5707963267949
    1040
0.5
    1040
0.3
    1070
0
    1040
0.5
    1070
0
    1002
}
    1000
LeadOut
    1002
{
    1070
0
    1040
0
    1040
0.523598775598299
    1040
3
    1070
0
    1002
}
    1000
IsFill
    1070
0
    1000
PathStart
    1040
0.999999999999998
    1000
ToolCompensation
    1002
{
    1070
0
    1040
0
    1070
0
    1002
}
       0
CIRCLE
       5
201A
     100
AcDbEntity
       8
1
     100
AcDbCircle
      10
547
      20
21
      30
0
      40
2.5
    1001
FS_CYPCUT
    1000
Channel
    1070
1
    1000
LeadIn
    1002
{
    1070
3
    1040
1.9151347174784E-15
    1040
1.5707963267949
    1040
0.5
    1040
0.3
    1070
0
    1040
0.5
    1070
0
    1002
}
    1000
LeadOut
    1002
{
    1070
0
    1040
0
    1040
0.523598775598299
    1040
3
    1070
0
    1002
}
    1000
IsFill
    1070
0
    1000
PathStart
    1040
1.9151347174784E-15
    1000
ToolCompensation
    1002
{
    1070
0
    1040
0
    1070
0
    1002
}
       0
LINE
       5
201B
     100
AcDbEntity
       8
2
     100
AcDbLine
      10
592
      20
-88.5866238723
      30
0
      11
442
      21
-88.5866238723
      31
0
    1001
FS_CYPCUT
    1000
Channel
    1070
2
    1000
LeadIn
    1002
{
    1070
3
    1040
0
    1040
1.5707963267949
    1040
0.5
    1040
0.3
    1070
0
    1040
0.5
    1070
0
    1002
}
    1000
LeadOut
    1002
{
    1070
0
    1040
0
    1040
0.523598775598299
    1040
3
    1070
0
    1002
}
    1000
IsFill
    1070
0
    1000
PathStart
    1040
0
    1000
ToolCompensation
    1002
{
    1070
0
    1040
0
    1070
0
    1002
}
       0
LINE
       5
201C
     100
AcDbEntity
       8
2
     100
AcDbLine
      10
442
      20
-111.4249556048
      30
0
      11
592
      21
-111.4249556048
      31
0
    1001
FS_CYPCUT
    1000
Channel
    1070
2
    1000
LeadIn
    1002
{
    1070
3
    1040
0
    1040
1.5707963267949
    1040
0.5
    1040
0.3
    1070
0
    1040
0.5
    1070
0
    1002
}
    1000
LeadOut
    1002
{
    1070
0
    1040
0
    1040
0.523598775598299
    1040
3
    1070
0
    1002
}
    1000
IsFill
    1070
0
    1000
PathStart
    1040
0
    1000
ToolCompensation
    1002
{
    1070
0
    1040
0
    1070
0
    1002
}
       0
CIRCLE
       5
201D
     100
AcDbEntity
       8
1
     100
AcDbCircle
      10
517
      20
-126.6766634651
      30
0
      40
3.74999999999993
    1001
FS_CYPCUT
    1000
Channel
    1070
1
    1000
LeadIn
    1002
{
    1070
3
    1040
0
    1040
1.5707963267949
    1040
0.5
    1040
0.3
    1070
0
    1040
0.5
    1070
0
    1002
}
    1000
LeadOut
    1002
{
    1070
0
    1040
0
    1040
0.523598775598299
    1040
3
    1070
0
    1002
}
    1000
IsFill
    1070
0
    1000
PathStart
    1040
0.999999999999999
    1000
ToolCompensation
    1002
{
    1070
0
    1040
0
    1070
0
    1002
}
       0
LINE
       5
201E
     100
AcDbEntity
       8
2
     100
AcDbLine
      10
537
      20
86.3287165434
      30
0
      11
622
      21
86.3287165434
      31
0
    1001
FS_CYPCUT
    1000
Channel
    1070
2
    1000
LeadIn
    1002
{
    1070
3
    1040
0
    1040
1.5707963267949
    1040
0.5
    1040
0.3
    1070
0
    1040
0.5
    1070
0
    1002
}
    1000
LeadOut
    1002
{
    1070
0
    1040
0
    1040
0.523598775598299
    1040
3
    1070
0
    1002
}
    1000
IsFill
    1070
0
    1000
PathStart
    1040
0
    1000
ToolCompensation
    1002
{
    1070
0
    1040
0
    1070
0
    1002
}
       0
LWPOLYLINE
       5
201F
     100
AcDbEntity
       8
1
     100
AcDbPolyline
      90
45
      70
1
      10
622
      20
193.6574330868
      42
0.414213562373107
      10
617
      20
198.6574330868
      42
0
      10
-560.5
      20
198.6574330868
      42
0.414213562373095
      10
-563.5
      20
195.6574330868
      42
0
      10
-563.5
      20
157.1574330868
      42
0.414213562373092
      10
-560.5
      20
154.1574330868
      42
0
      10
-484.5
      20
154.1574330868
      42
-0.414213562373087
      10
-481.5
      20
151.1574330868
      42
0
      10
-481.5
      20
147.1574330868
      42
-0.414213562373081
      10
-484.5
      20
144.1574330868
      42
0
      10
-619
      20
144.1574330868
      42
0.414213562373101
      10
-622
      20
141.1574330868
      42
0
      10
-622
      20
94.6574330868
      42
0.414213562373082
      10
-617
      20
89.6574330868
      42
0
      10
-542
      20
89.6574330868
      42
0
      10
-542
      20
89.5174330868
      42
0
      10
-545.1158172695
      20
83.14
      42
0
      10
-577.3574655928
      20
22.5022787121
      42
0.565772778187753
      10
-572.9427276285
      20
15.1549208981999
      42
0
      10
-535
      20
15.1549208982
      42
-0.41421356237312
      10
-530
      20
10.1549208982
      42
0
      10
-530
      20
-131.6766634651
      42
0.41421356237309
      10
-525
      20
-136.6766634651
      42
0
      10
-385
      20
-136.6766634651
      42
0.414213562373095
      10
-380
      20
-131.6766634651
      42
0
      10
-380
      20
-84.8450791018
      42
-0.414213562373089
      10
-375
      20
-79.8450791018
      42
0
      10
-49
      20
-79.8450791018
      42
-0.414213562373097
      10
-43.9999999999998
      20
-84.8450791018
      42
0
      10
-44
      20
-131.6766634651
      42
0.414213562373098
      10
-39
      20
-136.6766634651
      42
0
      10
101
      20
-136.6766634651
      42
0.414213562373096
      10
106
      20
-131.6766634651
      42
0
      10
106
      20
-84.8450791018
      42
-0.414213562373093
      10
111
      20
-79.8450791018001
      42
0
      10
437
      20
-79.8450791017998
      42
-0.414213562373088
      10
442
      20
-84.8450791018
      42
0
      10
442
      20
-131.6766634651
      42
0.414213562373086
      10
447
      20
-136.6766634651
      42
0
      10
587
      20
-136.6766634651
      42
0.414213562373113
      10
592
      20
-131.6766634651
      42
0
      10
592
      20
-61.8450791018
      42
-0.414213562373095
      10
597
      20
-56.8450791017999
      42
0
      10
617
      20
-56.8450791018003
      42
0.414213562373106
      10
622
      20
-51.8450791018
      42
0
    1001
FS_CYPCUT
    1000
Channel
    1070
1
    1000
LeadIn
    1002
{
    1070
3
    1040
1.50027474561284
    1040
1.5707963267949
    1040
0.5
    1040
0.3
    1070
0
    1040
0.5
    1070
0
    1002
}
    1000
LeadOut
    1002
{
    1070
0
    1040
0
    1040
0.523598775598299
    1040
3
    1070
0
    1002
}
    1000
IsFill
    1070
1
    1000
PathStart
    1040
1.5
    1000
ToolCompensation
    1002
{
    1070
0
    1040
0
    1070
0
    1002
}
    1000
MicroConnect
    1002
{
    1070
6
    1040
1.1435609152406
    1041
0.6
    1042
0
    1040
1.49976519147271
    1041
0.6
    1042
0
    1040
1.85867594224412
    1041
0.6
    1042
0
    1040
22.6238385956637
    1041
0.6
    1042
0
    1040
30.3660019725565
    1041
0.6
    1042
0
    1040
38.3976781375864
    1041
0.6
    1042
0
    1002
}
       0
ENDSEC
  0
SECTION
  2
OBJECTS
  0
DICTIONARY
  5
111
330
0
100
AcDbDictionary
281
     1
  3
ACAD_COLOR
350
120
  3
ACAD_GROUP
350
112
  3
ACAD_LAYOUT
350
11E
  3
ACAD_MATERIAL
350
11F
  3
ACAD_MLINESTYLE
350
11B
  3
ACAD_PLOTSETTINGS
350
11D
  3
ACAD_PLOTSTYLENAME
350
113
  3
ACAD_TABLESTYLE
350
121
  3
AcDbVariableDictionary
350
135
  0
DICTIONARY
  5
120
102
{ACAD_REACTORS
330
111
102
}
330
111
100
AcDbDictionary
281
     1
  0
DICTIONARY
  5
112
102
{ACAD_REACTORS
330
111
102
}
330
111
100
AcDbDictionary
281
     1
  0
DICTIONARY
  5
11E
102
{ACAD_REACTORS
330
111
102
}
330
111
100
AcDbDictionary
281
     1
  3
Model
350
12A
  3
布局1
350
126
  0
DICTIONARY
  5
11F
102
{ACAD_REACTORS
330
111
102
}
330
111
100
AcDbDictionary
281
     1
  0
DICTIONARY
  5
11B
102
{ACAD_REACTORS
330
111
102
}
330
111
100
AcDbDictionary
281
     1
  3
Standard
350
11C
  0
DICTIONARY
  5
11D
102
{ACAD_REACTORS
330
111
102
}
330
111
100
AcDbDictionary
281
     1
  0
ACDBDICTIONARYWDFLT
  5
113
102
{ACAD_REACTORS
330
111
102
}
330
111
100
AcDbDictionary
281
     1
  3
Normal
350
114
100
AcDbDictionaryWithDefault
340
114
  0
DICTIONARY
  5
121
102
{ACAD_REACTORS
330
111
102
}
330
111
100
AcDbDictionary
281
     1
  3
Standard
350
122
  0
DICTIONARY
  5
135
102
{ACAD_REACTORS
330
111
102
}
330
111
100
AcDbDictionary
281
     1
  3
CTABLESTYLE
350
136
  0
LAYOUT
  5
12A
102
{ACAD_REACTORS
330
11E
102
}
330
11E
100
AcDbPlotSettings
  1

  2
发送至 OneNote 2010
  4

  6

 40
0.0
 41
0.0
 42
0.0
 43
0.0
 44
0.0
 45
0.0
 46
0.0
 47
0.0
 48
0.0
 49
0.0
140
0.0
141
0.0
142
1.0
143
1.0
 70
  1712
 72
     0
 73
     0
 74
     0
  7

 75
     0
147
1.0
 76
     0
 77
     2
 78
   300
148
0.0
149
0.0
100
AcDbLayout
  1
Model
 70
     1
 71
     0
 10
0.0
 20
0.0
 11
12.0
 21
9.0
 12
0.0
 22
0.0
 32
0.0
 14
0.0
 24
0.0
 34
0.0
 15
0.0
 25
0.0
 35
0.0
146
0.0
 13
0.0
 23
0.0
 33
0.0
 16
1.0
 26
0.0
 36
0.0
 17
0.0
 27
1.0
 37
0.0
 76
     0
330
127
  0
LAYOUT
  5
126
102
{ACAD_REACTORS
330
11E
102
}
330
11E
100
AcDbPlotSettings
  1

  2
发送至 OneNote 2010
  4

  6

 40
0.0
 41
0.0
 42
0.0
 43
0.0
 44
0.0
 45
0.0
 46
0.0
 47
0.0
 48
0.0
 49
0.0
140
0.0
141
0.0
142
1.0
143
1.0
 70
   688
 72
     0
 73
     0
 74
     5
  7

 75
    16
147
1.0
 76
     0
 77
     2
 78
   300
148
0.0
149
0.0
100
AcDbLayout
  1
布局1
 70
     1
 71
     1
 10
0.0
 20
0.0
 11
12.0
 21
9.0
 12
0.0
 22
0.0
 32
0.0
 14
0.0
 24
0.0
 34
0.0
 15
0.0
 25
0.0
 35
0.0
146
0.0
 13
0.0
 23
0.0
 33
0.0
 16
1.0
 26
0.0
 36
0.0
 17
0.0
 27
1.0
 37
0.0
 76
     0
330
123
  0
MLINESTYLE
  5
11C
102
{ACAD_REACTORS
330
11B
102
}
330
11B
100
AcDbMlineStyle
  2
STANDARD
 70
     0
  3

 62
   256
 51
90.0
 52
90.0
 71
     2
 49
0.5
 62
   256
  6
BYLAYER
 49
-0.5
 62
   256
  6
BYLAYER
  0
ACDBPLACEHOLDER
  5
114
102
{ACAD_REACTORS
330
113
102
}
330
113
  0
TABLESTYLE
  5
122
102
{ACAD_REACTORS
330
121
102
}
330
121
100
AcDbTableStyle
  3
Standard
 70
     0
 71
     0
 40
0.06
 41
0.06
280
     0
281
     0
  7
STANDARD
140
0.18
170
     2
 62
     0
 63
     7
283
     0
274
    -2
284
     1
 64
     0
275
    -2
285
     1
 65
     0
276
    -2
286
     1
 66
     0
277
    -2
287
     1
 67
     0
278
    -2
288
     1
 68
     0
279
    -2
289
     1
 69
     0
  7
STANDARD
140
0.25
170
     5
 62
     0
 63
     7
283
     0
274
    -2
284
     1
 64
     0
275
    -2
285
     1
 65
     0
276
    -2
286
     1
 66
     0
277
    -2
287
     1
 67
     0
278
    -2
288
     1
 68
     0
279
    -2
289
     1
 69
     0
  7
STANDARD
140
0.18
170
     5
 62
     0
 63
     7
283
     0
274
    -2
284
     1
 64
     0
275
    -2
285
     1
 65
     0
276
    -2
286
     1
 66
     0
277
    -2
287
     1
 67
     0
278
    -2
288
     1
 68
     0
279
    -2
289
     1
 69
     0
  0
DICTIONARYVAR
  5
136
102
{ACAD_REACTORS
330
135
102
}
330
135
100
DictionaryVariables
280
     0
  1
STANDARD
  0
ENDSEC
  0
EOF
