  0
SECTION
  2
HEADER
  9
$ACADVER
  1
AC1018
  9
$ACADMAINTVER
 70
    77
  9
$DWGCODEPAGE
  3
ANSI_936
  9
$INSBASE
 10
0.0
 20
0.0
 30
0.0
  9
$EXTMIN
 10
-699
 20
-136.7028434038
 30
0.0
  9
$EXTMAX
 10
699
 20
198.7045569766
 30
0.0
  9
$LIMMIN
 10
0.0
 20
0.0
  9
$LIMMAX
 10
420.0
 20
297.0
  9
$ORTHOMODE
 70
     0
  9
$REGENMODE
 70
     1
  9
$FILLMODE
 70
     1
  9
$QTEXTMODE
 70
     0
  9
$MIRRTEXT
 70
     0
  9
$LTSCALE
 40
1.0
  9
$ATTMODE
 70
     1
  9
$TEXTSIZE
 40
2.5
  9
$TRACEWID
 40
1.0
  9
$TEXTSTYLE
  7
STANDARD
  9
$CLAYER
  8
0
  9
$CELTYPE
  6
ByLayer
  9
$CECOLOR
 62
   256
  9
$CELTSCALE
 40
1.0
  9
$DISPSILH
 70
     0
  9
$DIMSCALE
 40
1.0
  9
$DIMASZ
 40
2.5
  9
$DIMEXO
 40
0.625
  9
$DIMDLI
 40
3.75
  9
$DIMRND
 40
0.0
  9
$DIMDLE
 40
0.0
  9
$DIMEXE
 40
1.25
  9
$DIMTP
 40
0.0
  9
$DIMTM
 40
0.0
  9
$DIMTXT
 40
2.5
  9
$DIMCEN
 40
2.5
  9
$DIMTSZ
 40
0.0
  9
$DIMTOL
 70
     0
  9
$DIMLIM
 70
     0
  9
$DIMTIH
 70
     0
  9
$DIMTOH
 70
     0
  9
$DIMSE1
 70
     0
  9
$DIMSE2
 70
     0
  9
$DIMTAD
 70
     1
  9
$DIMZIN
 70
     8
  9
$DIMBLK
  1

  9
$DIMASO
 70
     1
  9
$DIMSHO
 70
     1
  9
$DIMPOST
  1

  9
$DIMAPOST
  1

  9
$DIMALT
 70
     0
  9
$DIMALTD
 70
     3
  9
$DIMALTF
 40
0.03937007874016
  9
$DIMLFAC
 40
1.0
  9
$DIMTOFL
 70
     1
  9
$DIMTVP
 40
0.0
  9
$DIMTIX
 70
     0
  9
$DIMSOXD
 70
     0
  9
$DIMSAH
 70
     0
  9
$DIMBLK1
  1

  9
$DIMBLK2
  1

  9
$DIMSTYLE
  2
ISO-25
  9
$DIMCLRD
 70
     0
  9
$DIMCLRE
 70
     0
  9
$DIMCLRT
 70
     0
  9
$DIMTFAC
 40
1.0
  9
$DIMGAP
 40
0.625
  9
$DIMJUST
 70
     0
  9
$DIMSD1
 70
     0
  9
$DIMSD2
 70
     0
  9
$DIMTOLJ
 70
     1
  9
$DIMTZIN
 70
     0
  9
$DIMALTZ
 70
     0
  9
$DIMALTTZ
 70
     0
  9
$DIMUPT
 70
     0
  9
$DIMDEC
 70
     4
  9
$DIMTDEC
 70
     4
  9
$DIMALTU
 70
     2
  9
$DIMALTTD
 70
     2
  9
$DIMTXSTY
  7
STANDARD
  9
$DIMAUNIT
 70
     0
  9
$DIMADEC
 70
     0
  9
$DIMALTRND
 40
0.0
  9
$DIMAZIN
 70
     0
  9
$DIMDSEP
 70
    46
  9
$DIMATFIT
 70
     3
  9
$DIMFRAC
 70
     0
  9
$DIMLDRBLK
  1

  9
$DIMLUNIT
 70
     2
  9
$DIMLWD
 70
    -2
  9
$DIMLWE
 70
    -2
  9
$DIMTMOVE
 70
     0
  9
$LUNITS
 70
     2
  9
$LUPREC
 70
     4
  9
$SKETCHINC
 40
1.0
  9
$FILLETRAD
 40
0.0
  9
$AUNITS
 70
     0
  9
$AUPREC
 70
     0
  9
$MENU
  1
.
  9
$ELEVATION
 40
0.0
  9
$PELEVATION
 40
0.0
  9
$THICKNESS
 40
0.0
  9
$LIMCHECK
 70
     0
  9
$CHAMFERA
 40
0.0
  9
$CHAMFERB
 40
0.0
  9
$CHAMFERC
 40
0.0
  9
$CHAMFERD
 40
0.0
  9
$SKPOLY
 70
     0
  9
$TDCREATE
 40
2456997.676706910
  9
$TDUCREATE
 40
2456997.343373576
  9
$TDUPDATE
 40
2456997.680113438
  9
$TDUUPDATE
 40
2456997.346780104
  9
$TDINDWG
 40
0.0010312963
  9
$TDUSRTIMER
 40
0.0010311806
  9
$USRTIMER
 70
     1
  9
$ANGBASE
 50
0.0
  9
$ANGDIR
 70
     0
  9
$PDMODE
 70
     0
  9
$PDSIZE
 40
0.0
  9
$PLINEWID
 40
0.0
  9
$SPLFRAME
 70
     0
  9
$SPLINETYPE
 70
     6
  9
$SPLINESEGS
 70
     8
  9
$HANDSEED
  5
249C
  9
$SURFTAB1
 70
     6
  9
$SURFTAB2
 70
     6
  9
$SURFTYPE
 70
     6
  9
$SURFU
 70
     6
  9
$SURFV
 70
     6
  9
$UCSBASE
  2

  9
$UCSNAME
  2

  9
$UCSORG
 10
0.0
 20
0.0
 30
0.0
  9
$UCSXDIR
 10
1.0
 20
0.0
 30
0.0
  9
$UCSYDIR
 10
0.0
 20
1.0
 30
0.0
  9
$UCSORTHOREF
  2

  9
$UCSORTHOVIEW
 70
     0
  9
$UCSORGTOP
 10
0.0
 20
0.0
 30
0.0
  9
$UCSORGBOTTOM
 10
0.0
 20
0.0
 30
0.0
  9
$UCSORGLEFT
 10
0.0
 20
0.0
 30
0.0
  9
$UCSORGRIGHT
 10
0.0
 20
0.0
 30
0.0
  9
$UCSORGFRONT
 10
0.0
 20
0.0
 30
0.0
  9
$UCSORGBACK
 10
0.0
 20
0.0
 30
0.0
  9
$PUCSBASE
  2

  9
$PUCSNAME
  2

  9
$PUCSORG
 10
0.0
 20
0.0
 30
0.0
  9
$PUCSXDIR
 10
1.0
 20
0.0
 30
0.0
  9
$PUCSYDIR
 10
0.0
 20
1.0
 30
0.0
  9
$PUCSORTHOREF
  2

  9
$PUCSORTHOVIEW
 70
     0
  9
$PUCSORGTOP
 10
0.0
 20
0.0
 30
0.0
  9
$PUCSORGBOTTOM
 10
0.0
 20
0.0
 30
0.0
  9
$PUCSORGLEFT
 10
0.0
 20
0.0
 30
0.0
  9
$PUCSORGRIGHT
 10
0.0
 20
0.0
 30
0.0
  9
$PUCSORGFRONT
 10
0.0
 20
0.0
 30
0.0
  9
$PUCSORGBACK
 10
0.0
 20
0.0
 30
0.0
  9
$USERI1
 70
     0
  9
$USERI2
 70
     0
  9
$USERI3
 70
     0
  9
$USERI4
 70
     0
  9
$USERI5
 70
     0
  9
$USERR1
 40
0.0
  9
$USERR2
 40
0.0
  9
$USERR3
 40
0.0
  9
$USERR4
 40
0.0
  9
$USERR5
 40
0.0
  9
$WORLDVIEW
 70
     1
  9
$SHADEDGE
 70
     3
  9
$SHADEDIF
 70
    70
  9
$TILEMODE
 70
     1
  9
$MAXACTVP
 70
    64
  9
$PINSBASE
 10
0.0
 20
0.0
 30
0.0
  9
$PLIMCHECK
 70
     0
  9
$PEXTMIN
 10
0.0
 20
0.0
 30
0.0
  9
$PEXTMAX
 10
0.0
 20
0.0
 30
0.0
  9
$PLIMMIN
 10
0.0
 20
0.0
  9
$PLIMMAX
 10
12.0
 20
9.0
  9
$UNITMODE
 70
     0
  9
$VISRETAIN
 70
     1
  9
$PLINEGEN
 70
     0
  9
$PSLTSCALE
 70
     1
  9
$TREEDEPTH
 70
  3020
  9
$CMLSTYLE
  2
Standard
  9
$CMLJUST
 70
     0
  9
$CMLSCALE
 40
1.0
  9
$PROXYGRAPHICS
 70
     1
  9
$MEASUREMENT
 70
     1
  9
$CELWEIGHT
370
    -1
  9
$ENDCAPS
280
     0
  9
$JOINSTYLE
280
     0
  9
$LWDISPLAY
290
     0
  9
$INSUNITS
 70
     0
  9
$HYPERLINKBASE
  1

  9
$STYLESHEET
  1

  9
$XEDIT
290
     1
  9
$CEPSNTYPE
380
     0
  9
$PSTYLEMODE
290
     1
  9
$FINGERPRINTGUID
  2
{1F2D6530-6BF2-4D5E-922F-A9C54F637010}
  9
$VERSIONGUID
  2
{15AD9CB5-51D1-451C-B472-5DB36EFAD6AD}
  9
$EXTNAMES
290
     1
  9
$PSVPSCALE
 40
0.0
  9
$OLESTARTUP
290
     0
  9
$SORTENTS
280
   127
  9
$INDEXCTL
280
     0
  9
$HIDETEXT
280
     0
  9
$XCLIPFRAME
290
     0
  9
$HALOGAP
280
     0
  9
$OBSCOLOR
 70
   257
  9
$OBSLTYPE
280
     0
  9
$INTERSECTIONDISPLAY
280
     0
  9
$INTERSECTIONCOLOR
 70
   257
  9
$DIMASSOC
280
     1
  9
$PROJECTNAME
  1

  0
ENDSEC
  0
SECTION
  2
CLASSES
  0
CLASS
  1
ACDBDICTIONARYWDFLT
  2
AcDbDictionaryWithDefault
  3
ObjectDBX Classes
 90
        0
 91
        1
280
     0
281
     0
  0
CLASS
  1
TABLESTYLE
  2
AcDbTableStyle
  3
ObjectDBX Classes
 90
     2047
 91
        1
280
     0
281
     0
  0
CLASS
  1
DICTIONARYVAR
  2
AcDbDictionaryVar
  3
ObjectDBX Classes
 90
        0
 91
        1
280
     0
281
     0
  0
ENDSEC
  0
SECTION
  2
TABLES
  0
TABLE
  2
VPORT
  5
10D
330
0
100
AcDbSymbolTable
 70
     2
  0
VPORT
  5
137
330
10D
100
AcDbSymbolTableRecord
100
AcDbViewportTableRecord
  2
*Active
 70
     0
 10
0.0
 20
0.0
 11
1.0
 21
1.0
 12
0
 22
31.0008567863999
 13
0.0
 23
0.0
 14
10.0
 24
10.0
 15
10.0
 25
10.0
 16
0.0
 26
0.0
 36
1.0
 17
0.0
 27
0.0
 37
0.0
 40
551.708552688342
 41
2.435135135135135
 42
50.0
 43
0.0
 44
0.0
 50
0.0
 51
0.0
 71
     0
 72
  1000
 73
     1
 74
     3
 75
     0
 76
     0
 77
     0
 78
     0
281
     0
 65
     1
110
0.0
120
0.0
130
0.0
111
1.0
121
0.0
131
0.0
112
0.0
122
1.0
132
0.0
 79
     0
146
0.0
  0
ENDTAB
  0
TABLE
  2
LTYPE
  5
10A
330
0
100
AcDbSymbolTable
 70
     1
  0
LTYPE
  5
118
330
10A
100
AcDbSymbolTableRecord
100
AcDbLinetypeTableRecord
  2
ByBlock
 70
     0
  3

 72
    65
 73
     0
 40
0.0
  0
LTYPE
  5
119
330
10A
100
AcDbSymbolTableRecord
100
AcDbLinetypeTableRecord
  2
ByLayer
 70
     0
  3

 72
    65
 73
     0
 40
0.0
  0
LTYPE
  5
11A
330
10A
100
AcDbSymbolTableRecord
100
AcDbLinetypeTableRecord
  2
CONTINUOUS
 70
     0
  3
Solid line
 72
    65
 73
     0
 40
0.0
  0
ENDTAB
  0
TABLE
  2
LAYER
  5
107
330
0
100
AcDbSymbolTable
 70
     1
  0
LAYER
  5
115
330
107
100
AcDbSymbolTableRecord
100
AcDbLayerTableRecord
  2
0
 70
     0
 62
     7
  6
CONTINUOUS
370
    -3
390
114
  0
ENDTAB
  0
TABLE
  2
STYLE
  5
108
330
0
100
AcDbSymbolTable
 70
     1
  0
STYLE
  5
116
330
108
100
AcDbSymbolTableRecord
100
AcDbTextStyleTableRecord
  2
STANDARD
 70
     0
 40
0.0
 41
1.0
 50
0.0
 71
     0
 42
2.5
  3
txt
  4
gbcbig.shx
  0
ENDTAB
  0
TABLE
  2
VIEW
  5
10B
330
0
100
AcDbSymbolTable
 70
     0
  0
ENDTAB
  0
TABLE
  2
UCS
  5
10C
330
0
100
AcDbSymbolTable
 70
     0
  0
ENDTAB
  0
TABLE
  2
APPID
  5
10E
330
0
100
AcDbSymbolTable
 70
     2
  0
APPID
  5
117
330
10E
100
AcDbSymbolTableRecord
100
AcDbRegAppTableRecord
  2
ACAD
 70
     0
  0
APPID
  5
12C
330
10E
100
AcDbSymbolTableRecord
100
AcDbRegAppTableRecord
  2
ACAD_PSEXT
 70
     0
  0
APPID
  5
112C
330
10E
100
AcDbSymbolTableRecord
100
AcDbRegAppTableRecord
  2
FS_CYPCUT
 70
     0
  0
ENDTAB
  0
TABLE
  2
DIMSTYLE
  5
10F
330
0
100
AcDbSymbolTable
 70
     1
100
AcDbDimStyleTable
 71
     0
  0
DIMSTYLE
105
12D
330
10F
100
AcDbSymbolTableRecord
100
AcDbDimStyleTableRecord
  2
ISO-25
 70
     0
 41
2.5
 42
0.625
 43
3.75
 44
1.25
 73
     0
 74
     0
 77
     1
 78
     8
140
2.5
141
2.5
143
0.03937007874016
147
0.625
171
     3
172
     1
274
     3
279
     2
284
     8
285
     8
286
     8
340
116
  0
ENDTAB
  0
TABLE
  2
BLOCK_RECORD
  5
106
330
0
100
AcDbSymbolTable
 70
     2
  0
BLOCK_RECORD
  5
127
330
106
100
AcDbSymbolTableRecord
100
AcDbBlockTableRecord
  2
*Model_Space
340
12A
  0
BLOCK_RECORD
  5
123
330
106
100
AcDbSymbolTableRecord
100
AcDbBlockTableRecord
  2
*Paper_Space
340
126
  0
BLOCK_RECORD
  5
130
330
106
100
AcDbSymbolTableRecord
100
AcDbBlockTableRecord
  2
$MODEL_SPACE
340
0
  0
BLOCK_RECORD
  5
132
330
106
100
AcDbSymbolTableRecord
100
AcDbBlockTableRecord
  2
$PAPER_SPACE
340
0
  0
ENDTAB
  0
ENDSEC
  0
SECTION
  2
BLOCKS
  0
BLOCK
  5
128
330
127
100
AcDbEntity
  8
0
100
AcDbBlockBegin
  2
*Model_Space
 70
     0
 10
0.0
 20
0.0
 30
0.0
  3
*Model_Space
  1

  0
ENDBLK
  5
129
330
127
100
AcDbEntity
  8
0
100
AcDbBlockEnd
  0
BLOCK
  5
124
330
123
100
AcDbEntity
 67
     1
  8
0
100
AcDbBlockBegin
  2
*Paper_Space
 70
     0
 10
0.0
 20
0.0
 30
0.0
  3
*Paper_Space
  1

  0
ENDBLK
  5
125
330
123
100
AcDbEntity
 67
     1
  8
0
100
AcDbBlockEnd
  0
BLOCK
  5
131
330
130
100
AcDbEntity
  8
0
100
AcDbBlockBegin
  2
$MODEL_SPACE
 70
     0
 10
0.0
 20
0.0
 30
0.0
  3
$MODEL_SPACE
  1

  0
ENDBLK
  5
21
330
130
100
AcDbEntity
  8
0
100
AcDbBlockEnd
  0
BLOCK
  5
133
330
132
100
AcDbEntity
  8
0
100
AcDbBlockBegin
  2
$PAPER_SPACE
 70
     0
 10
0.0
 20
0.0
 30
0.0
  3
$PAPER_SPACE
  1

  0
ENDBLK
  5
D5
330
132
100
AcDbEntity
  8
0
100
AcDbBlockEnd
       0
ENDSEC
       0
SECTION
       2
ENTITIES
       0
LINE
       5
2000
     100
AcDbEntity
       8
2
     100
AcDbLine
      10
-699
      20
86.3522784883
      30
0
      11
-614
      21
86.3522784883
      31
0
    1001
FS_CYPCUT
    1000
Channel
    1070
2
    1000
LeadIn
    1002
{
    1070
3
    1040
0
    1040
1.5707963267949
    1040
0.5
    1040
0.3
    1070
0
    1040
0.5
    1070
0
    1002
}
    1000
LeadOut
    1002
{
    1070
0
    1040
0
    1040
0.523598775598299
    1040
3
    1070
0
    1002
}
    1000
IsFill
    1070
0
    1000
PathStart
    1040
0
    1000
ToolCompensation
    1002
{
    1070
0
    1040
0
    1070
0
    1002
}
       0
CIRCLE
       5
2001
     100
AcDbEntity
       8
1
     100
AcDbCircle
      10
-624
      20
114.2045569766
      30
0
      40
2.5
    1001
FS_CYPCUT
    1000
Channel
    1070
1
    1000
LeadIn
    1002
{
    1070
3
    1040
1.9151347174784E-15
    1040
1.5707963267949
    1040
0.5
    1040
0.3
    1070
0
    1040
0.5
    1070
0
    1002
}
    1000
LeadOut
    1002
{
    1070
0
    1040
0
    1040
0.523598775598299
    1040
3
    1070
0
    1002
}
    1000
IsFill
    1070
0
    1000
PathStart
    1040
1.9151347174784E-15
    1000
ToolCompensation
    1002
{
    1070
0
    1040
0
    1070
0
    1002
}
       0
CIRCLE
       5
2002
     100
AcDbEntity
       8
1
     100
AcDbCircle
      10
-624
      20
21
      30
0
      40
2.5
    1001
FS_CYPCUT
    1000
Channel
    1070
1
    1000
LeadIn
    1002
{
    1070
3
    1040
1.9151347174784E-15
    1040
1.5707963267949
    1040
0.5
    1040
0.3
    1070
0
    1040
0.5
    1070
0
    1002
}
    1000
LeadOut
    1002
{
    1070
0
    1040
0
    1040
0.523598775598299
    1040
3
    1070
0
    1002
}
    1000
IsFill
    1070
0
    1000
PathStart
    1040
1.9151347174784E-15
    1000
ToolCompensation
    1002
{
    1070
0
    1040
0
    1070
0
    1002
}
       0
LINE
       5
2003
     100
AcDbEntity
       8
2
     100
AcDbLine
      10
-669
      20
-88.593168857
      30
0
      11
-519
      21
-88.593168857
      31
0
    1001
FS_CYPCUT
    1000
Channel
    1070
2
    1000
LeadIn
    1002
{
    1070
3
    1040
0
    1040
1.5707963267949
    1040
0.5
    1040
0.3
    1070
0
    1040
0.5
    1070
0
    1002
}
    1000
LeadOut
    1002
{
    1070
0
    1040
0
    1040
0.523598775598299
    1040
3
    1070
0
    1002
}
    1000
IsFill
    1070
0
    1000
PathStart
    1040
0
    1000
ToolCompensation
    1002
{
    1070
0
    1040
0
    1070
0
    1002
}
       0
LINE
       5
2004
     100
AcDbEntity
       8
2
     100
AcDbLine
      10
-519
      20
-111.4445905589
      30
0
      11
-669
      21
-111.4445905589
      31
0
    1001
FS_CYPCUT
    1000
Channel
    1070
2
    1000
LeadIn
    1002
{
    1070
3
    1040
0
    1040
1.5707963267949
    1040
0.5
    1040
0.3
    1070
0
    1040
0.5
    1070
0
    1002
}
    1000
LeadOut
    1002
{
    1070
0
    1040
0
    1040
0.523598775598299
    1040
3
    1070
0
    1002
}
    1000
IsFill
    1070
0
    1000
PathStart
    1040
0
    1000
ToolCompensation
    1002
{
    1070
0
    1040
0
    1070
0
    1002
}
       0
CIRCLE
       5
2005
     100
AcDbEntity
       8
1
     100
AcDbCircle
      10
-594
      20
-126.7028434038
      30
0
      40
3.74999999999996
    1001
FS_CYPCUT
    1000
Channel
    1070
1
    1000
LeadIn
    1002
{
    1070
3
    1040
0
    1040
1.5707963267949
    1040
0.5
    1040
0.3
    1070
0
    1040
0.5
    1070
0
    1002
}
    1000
LeadOut
    1002
{
    1070
0
    1040
0
    1040
0.523598775598299
    1040
3
    1070
0
    1002
}
    1000
IsFill
    1070
0
    1000
PathStart
    1040
0.999999999999999
    1000
ToolCompensation
    1002
{
    1070
0
    1040
0
    1070
0
    1002
}
       0
LWPOLYLINE
       5
2006
     100
AcDbEntity
       8
1
     100
AcDbPolyline
      90
8
      70
1
      10
-384
      20
113.7045569766
      42
0.414213562373088
      10
-394
      20
123.7045569766
      42
0
      10
-604
      20
123.7045569766
      42
0.414213562373095
      10
-614
      20
113.7045569766
      42
0
      10
-614
      20
-26
      42
0.414213562373094
      10
-604
      20
-36
      42
0
      10
-394
      20
-36.0000000000001
      42
0.414213562373096
      10
-384
      20
-26
      42
0
    1001
FS_CYPCUT
    1000
Channel
    1070
1
    1000
LeadIn
    1002
{
    1070
3
    1040
1.50161220467236
    1040
1.5707963267949
    1040
0.5
    1040
0.3
    1070
0
    1040
0.5
    1070
0
    1002
}
    1000
LeadOut
    1002
{
    1070
0
    1040
0
    1040
0.523598775598299
    1040
3
    1070
0
    1002
}
    1000
IsFill
    1070
0
    1000
PathStart
    1040
1.5
    1000
ToolCompensation
    1002
{
    1070
0
    1040
0
    1070
0
    1002
}
    1000
MicroConnect
    1002
{
    1070
3
    1040
1.49875506181521
    1041
0.6
    1042
0
    1040
5.204919882645
    1041
0.6
    1042
0
    1040
5.74653577070639
    1041
0.6
    1042
0
    1002
}
       0
CIRCLE
       5
2007
     100
AcDbEntity
       8
1
     100
AcDbCircle
      10
-374
      20
114.2045569766
      30
0
      40
2.5
    1001
FS_CYPCUT
    1000
Channel
    1070
1
    1000
LeadIn
    1002
{
    1070
3
    1040
0
    1040
1.5707963267949
    1040
0.5
    1040
0.3
    1070
0
    1040
0.5
    1070
0
    1002
}
    1000
LeadOut
    1002
{
    1070
0
    1040
0
    1040
0.523598775598299
    1040
3
    1070
0
    1002
}
    1000
IsFill
    1070
0
    1000
PathStart
    1040
0.999999999999999
    1000
ToolCompensation
    1002
{
    1070
0
    1040
0
    1070
0
    1002
}
       0
CIRCLE
       5
2008
     100
AcDbEntity
       8
1
     100
AcDbCircle
      10
-374
      20
21
      30
0
      40
2.5
    1001
FS_CYPCUT
    1000
Channel
    1070
1
    1000
LeadIn
    1002
{
    1070
3
    1040
0
    1040
1.5707963267949
    1040
0.5
    1040
0.3
    1070
0
    1040
0.5
    1070
0
    1002
}
    1000
LeadOut
    1002
{
    1070
0
    1040
0
    1040
0.523598775598299
    1040
3
    1070
0
    1002
}
    1000
IsFill
    1070
0
    1000
PathStart
    1040
0.999999999999999
    1000
ToolCompensation
    1002
{
    1070
0
    1040
0
    1070
0
    1002
}
       0
LWPOLYLINE
       5
2009
     100
AcDbEntity
       8
1
     100
AcDbPolyline
      90
4
      70
1
      10
-255
      20
128.2045569766
      42
1
      10
-263
      20
128.2045569766
      42
0
      10
-263
      20
118.2045569766
      42
1
      10
-255
      20
118.2045569766
      42
0
    1001
FS_CYPCUT
    1000
Channel
    1070
1
    1000
LeadIn
    1002
{
    1070
3
    1040
1.5
    1040
1.5707963267949
    1040
0.5
    1040
0.3
    1070
0
    1040
0.5
    1070
0
    1002
}
    1000
LeadOut
    1002
{
    1070
0
    1040
0
    1040
0.523598775598299
    1040
3
    1070
0
    1002
}
    1000
IsFill
    1070
0
    1000
PathStart
    1040
1.5
    1000
ToolCompensation
    1002
{
    1070
0
    1040
0
    1070
0
    1002
}
       0
LWPOLYLINE
       5
200A
     100
AcDbEntity
       8
1
     100
AcDbPolyline
      90
4
      70
1
      10
5
      20
128.2045569766
      42
0
      10
5
      20
118.2045569766
      42
-1
      10
-3
      20
118.2045569766
      42
0
      10
-3
      20
128.2045569766
      42
-1
    1001
FS_CYPCUT
    1000
Channel
    1070
1
    1000
LeadIn
    1002
{
    1070
3
    1040
0.5
    1040
1.5707963267949
    1040
0.5
    1040
0.3
    1070
0
    1040
0.5
    1070
0
    1002
}
    1000
LeadOut
    1002
{
    1070
0
    1040
0
    1040
0.523598775598299
    1040
3
    1070
0
    1002
}
    1000
IsFill
    1070
0
    1000
PathStart
    1040
0.5
    1000
ToolCompensation
    1002
{
    1070
0
    1040
0
    1070
0
    1002
}
       0
LWPOLYLINE
       5
200B
     100
AcDbEntity
       8
1
     100
AcDbPolyline
      90
12
      70
1
      10
52.0628047227
      20
-12.4658308256
      42
0
      10
52.0628047227
      20
-18.7658308255
      42
0
      10
33.7942138807
      20
-18.7658308255
      42
0.761737062257188
      10
31.3742073926
      20
-27.5490562506
      42
0
      10
37.9744617415
      20
-31.4849288716
      42
-0.865240744479163
      10
34.7378047161
      20
-53.7677483661
      42
0
      10
13.5694696025
      20
-53.7677483661
      42
0
      10
13.5694696025
      20
-47.1162707745
      42
0
      10
30.5200119134011
      20
-47.1162707745515
      42
0.73516930096669
      10
33.2106213475694
      20
-38.5071690924677
      42
0
      10
24.6163809292069
      20
-32.5537347506685
      42
-0.73516930096669
      10
30.894469609
      20
-12.4658308256
      42
0
    1001
FS_CYPCUT
    1000
Channel
    1070
1
    1000
LeadIn
    1002
{
    1070
3
    1040
4.5
    1040
1.5707963267949
    1040
0.5
    1040
0.3
    1070
0
    1040
0.5
    1070
0
    1002
}
    1000
LeadOut
    1002
{
    1070
0
    1040
0
    1040
0.523598775598299
    1040
3
    1070
0
    1002
}
    1000
IsFill
    1070
0
    1000
PathStart
    1040
4.5
    1000
ToolCompensation
    1002
{
    1070
0
    1040
0
    1070
0
    1002
}
       0
SPLINE
       5
200C
     100
AcDbEntity
       8
1
     100
AcDbSpline
      70
0
      71
3
      72
244
      73
240
      74
0
      40
0
      40
0
      40
0
      40
0
      40
0.0166666666666667
      40
0.0166666666666667
      40
0.0166666666666667
      40
0.0166666666666667
      40
0.0333333333333333
      40
0.0333333333333333
      40
0.0333333333333333
      40
0.0333333333333333
      40
0.05
      40
0.05
      40
0.05
      40
0.05
      40
0.0666666666666667
      40
0.0666666666666667
      40
0.0666666666666667
      40
0.0666666666666667
      40
0.0833333333333333
      40
0.0833333333333333
      40
0.0833333333333333
      40
0.0833333333333333
      40
0.1
      40
0.1
      40
0.1
      40
0.1
      40
0.116666666666667
      40
0.116666666666667
      40
0.116666666666667
      40
0.116666666666667
      40
0.133333333333333
      40
0.133333333333333
      40
0.133333333333333
      40
0.133333333333333
      40
0.15
      40
0.15
      40
0.15
      40
0.15
      40
0.166666666666667
      40
0.166666666666667
      40
0.166666666666667
      40
0.166666666666667
      40
0.183333333333333
      40
0.183333333333333
      40
0.183333333333333
      40
0.183333333333333
      40
0.2
      40
0.2
      40
0.2
      40
0.2
      40
0.216666666666667
      40
0.216666666666667
      40
0.216666666666667
      40
0.216666666666667
      40
0.233333333333333
      40
0.233333333333333
      40
0.233333333333333
      40
0.233333333333333
      40
0.25
      40
0.25
      40
0.25
      40
0.25
      40
0.266666666666667
      40
0.266666666666667
      40
0.266666666666667
      40
0.266666666666667
      40
0.283333333333333
      40
0.283333333333333
      40
0.283333333333333
      40
0.283333333333333
      40
0.3
      40
0.3
      40
0.3
      40
0.3
      40
0.316666666666667
      40
0.316666666666667
      40
0.316666666666667
      40
0.316666666666667
      40
0.333333333333333
      40
0.333333333333333
      40
0.333333333333333
      40
0.333333333333333
      40
0.35
      40
0.35
      40
0.35
      40
0.35
      40
0.366666666666667
      40
0.366666666666667
      40
0.366666666666667
      40
0.366666666666667
      40
0.383333333333333
      40
0.383333333333333
      40
0.383333333333333
      40
0.383333333333333
      40
0.4
      40
0.4
      40
0.4
      40
0.4
      40
0.416666666666667
      40
0.416666666666667
      40
0.416666666666667
      40
0.416666666666667
      40
0.433333333333333
      40
0.433333333333333
      40
0.433333333333333
      40
0.433333333333333
      40
0.45
      40
0.45
      40
0.45
      40
0.45
      40
0.466666666666667
      40
0.466666666666667
      40
0.466666666666667
      40
0.466666666666667
      40
0.483333333333333
      40
0.483333333333333
      40
0.483333333333333
      40
0.483333333333333
      40
0.5
      40
0.5
      40
0.5
      40
0.5
      40
0.516666666666667
      40
0.516666666666667
      40
0.516666666666667
      40
0.516666666666667
      40
0.533333333333333
      40
0.533333333333333
      40
0.533333333333333
      40
0.533333333333333
      40
0.55
      40
0.55
      40
0.55
      40
0.55
      40
0.566666666666667
      40
0.566666666666667
      40
0.566666666666667
      40
0.566666666666667
      40
0.583333333333333
      40
0.583333333333333
      40
0.583333333333333
      40
0.583333333333333
      40
0.6
      40
0.6
      40
0.6
      40
0.6
      40
0.616666666666667
      40
0.616666666666667
      40
0.616666666666667
      40
0.616666666666667
      40
0.633333333333333
      40
0.633333333333333
      40
0.633333333333333
      40
0.633333333333333
      40
0.65
      40
0.65
      40
0.65
      40
0.65
      40
0.666666666666667
      40
0.666666666666667
      40
0.666666666666667
      40
0.666666666666667
      40
0.683333333333333
      40
0.683333333333333
      40
0.683333333333333
      40
0.683333333333333
      40
0.7
      40
0.7
      40
0.7
      40
0.7
      40
0.716666666666667
      40
0.716666666666667
      40
0.716666666666667
      40
0.716666666666667
      40
0.733333333333333
      40
0.733333333333333
      40
0.733333333333333
      40
0.733333333333333
      40
0.75
      40
0.75
      40
0.75
      40
0.75
      40
0.766666666666667
      40
0.766666666666667
      40
0.766666666666667
      40
0.766666666666667
      40
0.783333333333333
      40
0.783333333333333
      40
0.783333333333333
      40
0.783333333333333
      40
0.8
      40
0.8
      40
0.8
      40
0.8
      40
0.816666666666667
      40
0.816666666666667
      40
0.816666666666667
      40
0.816666666666667
      40
0.833333333333333
      40
0.833333333333333
      40
0.833333333333333
      40
0.833333333333333
      40
0.85
      40
0.85
      40
0.85
      40
0.85
      40
0.866666666666667
      40
0.866666666666667
      40
0.866666666666667
      40
0.866666666666667
      40
0.883333333333333
      40
0.883333333333333
      40
0.883333333333333
      40
0.883333333333333
      40
0.9
      40
0.9
      40
0.9
      40
0.9
      40
0.916666666666667
      40
0.916666666666667
      40
0.916666666666667
      40
0.916666666666667
      40
0.933333333333333
      40
0.933333333333333
      40
0.933333333333333
      40
0.933333333333333
      40
0.95
      40
0.95
      40
0.95
      40
0.95
      40
0.966666666666667
      40
0.966666666666667
      40
0.966666666666667
      40
0.966666666666667
      40
0.983333333333333
      40
0.983333333333333
      40
0.983333333333333
      40
0.983333333333333
      40
1
      40
1
      40
1
      40
1
      10
11.8567928007661
      20
-24.8827436732518
      30
0
      10
11.6193419663237
      20
-23.0473759367511
      30
0
      10
11.0339975034415
      20
-21.2740266704154
      30
0
      10
10.1321993331907
      20
-19.6579457049012
      30
0
      10
10.1321993331907
      20
-19.6579457049012
      30
0
      10
9.2304011629399
      20
-18.0418647393869
      30
0
      10
8.02858937037707
      20
-16.6125137762232
      30
0
      10
6.59131546371083
      20
-15.4466658683975
      30
0
      10
6.59131546371083
      20
-15.4466658683975
      30
0
      10
5.1540415570446
      20
-14.2808179605719
      30
0
      10
3.50750752476261
      20
-13.3997269089901
      30
0
      10
1.74015171949078
      20
-12.850717724607
      30
0
      10
1.74015171949078
      20
-12.850717724607
      30
0
      10
-0.0272040857810403
      20
-12.3017085402239
      30
0
      10
-1.88316217112035
      20
-12.0947898457955
      30
0
      10
-3.72803563519861
      20
-12.2410756226328
      30
0
      10
-3.7280356352
      20
-12.2410756227
      30
0
      10
-3.7280356352
      20
-14.3457422727667
      30
0
      10
-3.7280356352
      20
-16.4504089228333
      30
0
      10
-3.7280356352
      20
-18.5550755729
      30
0
      10
-3.72803563519486
      20
-18.5550755728848
      30
0
      10
-2.17931662069373
      20
-18.427795616792
      30
0
      10
-0.804169085178617
      20
-18.6157414514658
      30
0
      10
0.358111953589129
      20
-19.024864977357
      30
0
      10
0.358111953589129
      20
-19.024864977357
      30
0
      10
1.32288953938827
      20
-19.3657238730734
      30
0
      10
2.150592674881
      20
-19.8544320779503
      30
0
      10
2.86706481684163
      20
-20.4863791291546
      30
0
      10
2.86706481686754
      20
-20.4863791291822
      30
0
      10
3.16526639910062
      20
-20.749736399702
      30
0
      10
3.41089310310254
      20
-21.0672196730653
      30
0
      10
3.59092545841839
      20
-21.4220007134569
      30
0
      10
3.59092545841839
      20
-21.4220007134569
      30
0
      10
3.77095781373423
      20
-21.7767817538485
      30
0
      10
3.88215773032786
      20
-22.1624794141135
      30
0
      10
3.9186310443926
      20
-22.558649747358
      30
0
      10
3.9186310443926
      20
-22.558649747358
      30
0
      10
3.95510435845734
      20
-22.9548200806025
      30
0
      10
3.91619505527488
      20
-23.3543375053917
      30
0
      10
3.80396552673891
      20
-23.7360255566934
      30
0
      10
3.80396552673891
      20
-23.7360255566934
      30
0
      10
3.69173599820294
      20
-24.1177136079952
      30
0
      10
3.50820482212674
      20
-24.4747071849576
      30
0
      10
3.26310008867945
      20
-24.7880838037786
      30
0
      10
3.26310008867945
      20
-24.7880838037786
      30
0
      10
3.01799535523217
      20
-25.1014604225995
      30
0
      10
2.71572555639733
      20
-25.3655836425115
      30
0
      10
2.3723125361
      20
-25.5664535832
      30
0
      10
2.3723125361
      20
-25.5664535832
      30
0
      10
-5.22914912354158
      20
-30.0127181759068
      30
0
      10
-12.8306107831832
      20
-34.4589827686136
      30
0
      10
-20.4320724428247
      20
-38.9052473613203
      30
0
      10
-20.4320724428247
      20
-38.9052473613203
      30
0
      10
-20.6628135347479
      20
-36.5091141802644
      30
0
      10
-20.2133508819694
      20
-33.6194225431055
      30
0
      10
-19.0047660515808
      20
-30.8010694731004
      30
0
      10
-19.0047660515808
      20
-30.8010694731004
      30
0
      10
-17.7585445656949
      20
-27.8531809850943
      30
0
      10
-15.6923299105658
      20
-25.0195753833252
      30
0
      10
-13.2241217859649
      20
-22.8922149883738
      30
0
      10
-13.2241217859649
      20
-22.8922149883738
      30
0
      10
-11.1904459392987
      20
-21.1248919603194
      30
0
      10
-8.90286263047921
      20
-19.8435593944839
      30
0
      10
-6.72803563519431
      20
-19.1597647634073
      30
0
      10
-6.7280356352
      20
-19.1597647634
      30
0
      10
-6.7280356352
      20
-16.8689640480333
      30
0
      10
-6.7280356352
      20
-14.5781633326667
      30
0
      10
-6.7280356352
      20
-12.2873626173
      30
0
      10
-6.7280356352
      20
-12.2873626173
      30
0
      10
-7.5480237649
      20
-12.5135283610333
      30
0
      10
-8.3680118946
      20
-12.7396941047667
      30
0
      10
-9.1880000243
      20
-12.9658598485
      30
0
      10
-9.1880000243
      20
-12.9658598485
      30
0
      10
-9.9984895876
      20
-13.2942883807333
      30
0
      10
-10.8089791509
      20
-13.6227169129667
      30
0
      10
-11.6194687142
      20
-13.9511454452
      30
0
      10
-11.6194687142
      20
-13.9511454452
      30
0
      10
-12.4079333883667
      20
-14.3767608192667
      30
0
      10
-13.1963980625333
      20
-14.8023761933333
      30
0
      10
-13.9848627367
      20
-15.2279915674
      30
0
      10
-13.9848627367
      20
-15.2279915674
      30
0
      10
-14.7391165994
      20
-15.7442157892667
      30
0
      10
-15.4933704621
      20
-16.2604400111333
      30
0
      10
-16.2476243248
      20
-16.776664233
      30
0
      10
-16.2476243248
      20
-16.776664233
      30
0
      10
-16.9560101904
      20
-17.3755189258333
      30
0
      10
-17.664396056
      20
-17.9743736186667
      30
0
      10
-18.3727819216
      20
-18.5732283115
      30
0
      10
-18.3727819216
      20
-18.5732283115
      30
0
      10
-19.0243515062
      20
-19.2454580234667
      30
0
      10
-19.6759210908
      20
-19.9176877354333
      30
0
      10
-20.3274906754
      20
-20.5899174474
      30
0
      10
-20.3274906754
      20
-20.5899174474
      30
0
      10
-20.912173805
      20
-21.3251326970667
      30
0
      10
-21.4968569346
      20
-22.0603479467333
      30
0
      10
-22.0815400642
      20
-22.7955631964
      30
0
      10
-22.0815400642
      20
-22.7955631964
      30
0
      10
-22.5903003121333
      20
-23.5824010448333
      30
0
      10
-23.0990605600667
      20
-24.3692388932667
      30
0
      10
-23.607820808
      20
-25.1560767417
      30
0
      10
-23.607820808
      20
-25.1560767417
      30
0
      10
-24.0327951550667
      20
-25.9823764095
      30
0
      10
-24.4577695021333
      20
-26.8086760773
      30
0
      10
-24.8827438492
      20
-27.6349757451
      30
0
      10
-24.8827438492
      20
-27.6349757451
      30
0
      10
-25.2173642085667
      20
-28.4879665604
      30
0
      10
-25.5519845679333
      20
-29.3409573757
      30
0
      10
-25.8866049273
      20
-30.193948191
      30
0
      10
-25.8866049273
      20
-30.193948191
      30
0
      10
-26.1256996560667
      20
-31.0604469635
      30
0
      10
-26.3647943848333
      20
-31.926945736
      30
0
      10
-26.6038891136
      20
-32.7934445085
      30
0
      10
-26.6038891136
      20
-32.7934445085
      30
0
      10
-26.7437629419
      20
-33.6600592789333
      30
0
      10
-26.8836367702
      20
-34.5266740493667
      30
0
      10
-27.0235105985
      20
-35.3932888198
      30
0
      10
-27.0235105985
      20
-35.3932888198
      30
0
      10
-27.0620017406333
      20
-36.2466258361333
      30
0
      10
-27.1004928827667
      20
-37.0999628524667
      30
0
      10
-27.1389840249
      20
-37.9532998688
      30
0
      10
-27.1389840249
      20
-37.9532998688
      30
0
      10
-27.0754975904667
      20
-38.7801705901
      30
0
      10
-27.0120111560333
      20
-39.6070413114
      30
0
      10
-26.9485247216
      20
-40.4339120327
      30
0
      10
-26.9485247216
      20
-40.4339120327
      30
0
      10
-26.7840419096
      20
-41.2215369613333
      30
0
      10
-26.6195590976
      20
-42.0091618899667
      30
0
      10
-26.4550762856
      20
-42.7967868186
      30
0
      10
-26.4550762856
      20
-42.7967868186
      30
0
      10
-26.1921392198333
      20
-43.5329930106333
      30
0
      10
-25.9292021540667
      20
-44.2691992026667
      30
0
      10
-25.6662650883
      20
-45.0054053947
      30
0
      10
-25.6662650883
      20
-45.0054053947
      30
0
      10
-25.3089375280667
      20
-45.6788145959333
      30
0
      10
-24.9516099678333
      20
-46.3522237971667
      30
0
      10
-24.5942824076
      20
-47.0256329984
      30
0
      10
-24.5942824076
      20
-47.0256329984
      30
0
      10
-24.1480869414
      20
-47.6258374980667
      30
0
      10
-23.7018914752
      20
-48.2260419977333
      30
0
      10
-23.255696009
      20
-48.8262464974
      30
0
      10
-23.255696009
      20
-48.8262464974
      30
0
      10
-22.7275287013667
      20
-49.3439699821
      30
0
      10
-22.1993613937333
      20
-49.8616934668
      30
0
      10
-21.6711940861
      20
-50.3794169515
      30
0
      10
-21.6711940861
      20
-50.3794169515
      30
0
      10
-21.0692178973333
      20
-50.8066578729
      30
0
      10
-20.4672417085667
      20
-51.2338987943
      30
0
      10
-19.8652655198
      20
-51.6611397157
      30
0
      10
-19.8652655198
      20
-51.6611397157
      30
0
      10
-19.1987841452667
      20
-51.9912949565
      30
0
      10
-18.5323027707333
      20
-52.3214501973
      30
0
      10
-17.8658213962
      20
-52.6516054381
      30
0
      10
-17.8658213962
      20
-52.6516054381
      30
0
      10
-17.1451354752667
      20
-52.8795723649667
      30
0
      10
-16.4244495543333
      20
-53.1075392918333
      30
0
      10
-15.7037636334
      20
-53.3355062187
      30
0
      10
-15.7037636334
      20
-53.3355062187
      30
0
      10
-14.9400115506
      20
-53.4577615447
      30
0
      10
-14.1762594678
      20
-53.5800168707
      30
0
      10
-13.412507385
      20
-53.7022721967
      30
0
      10
-13.412507385
      20
-53.7022721967
      30
0
      10
-12.6174931233
      20
-53.7169264346333
      30
0
      10
-11.8224788616
      20
-53.7315806725667
      30
0
      10
-11.0274645999
      20
-53.7462349105
      30
0
      10
-11.0274645999
      20
-53.7462349105
      30
0
      10
-10.2134753072333
      20
-53.6530615754
      30
0
      10
-9.39948601456667
      20
-53.5598882403
      30
0
      10
-8.5854967219
      20
-53.4667149052
      30
0
      10
-8.5854967219
      20
-53.4667149052
      30
0
      10
-7.7651128101
      20
-53.2671540147
      30
0
      10
-6.9447288983
      20
-53.0675931242
      30
0
      10
-6.1243449865
      20
-52.8680322337
      30
0
      10
-6.1243449865
      20
-52.8680322337
      30
0
      10
-5.31024569796667
      20
-52.5651680521667
      30
0
      10
-4.49614640943333
      20
-52.2623038706333
      30
0
      10
-3.6820471209
      20
-51.9594396891
      30
0
      10
-3.6820471209
      20
-51.9594396891
      30
0
      10
-2.88681456743333
      20
-51.5579530596333
      30
0
      10
-2.09158201396667
      20
-51.1564664301667
      30
0
      10
-1.2963494605
      20
-50.7549798007
      30
0
      10
-1.2963494605
      20
-50.7549798007
      30
0
      10
-0.532274163866667
      20
-50.2610758014
      30
0
      10
0.231801132766667
      20
-49.7671718021
      30
0
      10
0.9958764294
      20
-49.2732678028
      30
0
      10
0.9958764294
      20
-49.2732678028
      30
0
      10
1.71698549093333
      20
-48.6945798458
      30
0
      10
2.43809455246667
      20
-48.1158918888
      30
0
      10
3.159203614
      20
-47.5372039318
      30
0
      10
3.159203614
      20
-47.5372039318
      30
0
      10
3.82620151616667
      20
-46.8826757869
      30
0
      10
4.49319941833333
      20
-46.228147642
      30
0
      10
5.1601973205
      20
-45.5736194971
      30
0
      10
5.1601973205
      20
-45.5736194971
      30
0
      10
5.76277544083333
      20
-44.8533670635
      30
0
      10
6.36535356116667
      20
-44.1331146299
      30
0
      10
6.9679316815
      20
-43.4128621963
      30
0
      10
6.9679316815
      20
-43.4128621963
      30
0
      10
7.49677702163333
      20
-42.6380171588
      30
0
      10
8.02562236176667
      20
-41.8631721213
      30
0
      10
8.5544677019
      20
-41.0883270838
      30
0
      10
8.5544677019
      20
-41.0883270838
      30
0
      10
9.0014068224
      20
-40.2708648698667
      30
0
      10
9.4483459429
      20
-39.4534026559333
      30
0
      10
9.8952850634
      20
-38.635940442
      30
0
      10
9.8952850634
      20
-38.635940442
      30
0
      10
10.2534104063333
      20
-37.7884951384
      30
0
      10
10.6115357492667
      20
-36.9410498348
      30
0
      10
10.9696610922
      20
-36.0936045312
      30
0
      10
10.9696610922
      20
-36.0936045312
      30
0
      10
11.2334377391333
      20
-35.2292736209
      30
0
      10
11.4972143860667
      20
-34.3649427106
      30
0
      10
11.760991033
      20
-33.5006118003
      30
0
      10
11.760991033
      20
-33.5006118003
      30
0
      10
9.4501201356
      20
-33.5006118003
      30
0
      10
7.1392492382
      20
-33.5006118003
      30
0
      10
4.8283783408
      20
-33.5006118003
      30
0
      10
4.82837834084282
      20
-33.5006118002922
      30
0
      10
3.78391869660061
      20
-36.5655869968172
      30
0
      10
1.82892139288617
      20
-39.624794970774
      30
0
      10
-0.635520774517196
      20
-41.9824980735636
      30
0
      10
-0.635520774517196
      20
-41.9824980735636
      30
0
      10
-3.01465819577361
      20
-44.2842478158544
      30
0
      10
-5.84408433556274
      20
-45.9027298214297
      30
0
      10
-8.46464509520325
      20
-46.6223646560828
      30
0
      10
-8.46464509520325
      20
-46.6223646560828
      30
0
      10
-10.7660958101327
      20
-47.2656806334504
      30
0
      10
-12.8666912857201
      20
-47.2427410101216
      30
0
      10
-14.5347096937786
      20
-46.7687693084614
      30
0
      10
-14.5347096937786
      20
-46.7687693084614
      30
0
      10
-16.3302405402671
      20
-46.252474892901
      30
0
      10
-17.6892145469865
      20
-45.2863658315089
      30
0
      10
-18.7298107103017
      20
-43.833157431073
      30
0
      10
-18.7298107103017
      20
-43.833157431073
      30
0
      10
-18.9021984960609
      20
-43.5895564184916
      30
0
      10
-19.0644918144019
      20
-43.3313217069135
      30
0
      10
-19.2158645349376
      20
-43.0578345043934
      30
0
      10
-19.2158645349376
      20
-43.0578345043934
      30
0
      10
-8.85831208969175
      20
-36.9994708940289
      30
0
      10
1.49924035555413
      20
-30.9411072836645
      30
0
      10
11.8567928008
      20
-24.8827436733
      30
0
    1001
FS_CYPCUT
    1000
Channel
    1070
1
    1000
LeadIn
    1002
{
    1070
3
    1040
59.5
    1040
1.5707963267949
    1040
0.5
    1040
0.3
    1070
0
    1040
0.5
    1070
0
    1002
}
    1000
LeadOut
    1002
{
    1070
0
    1040
0
    1040
0.523598775598299
    1040
3
    1070
0
    1002
}
    1000
IsFill
    1070
0
    1000
PathStart
    1040
59.5
    1000
ToolCompensation
    1002
{
    1070
0
    1040
0
    1070
0
    1002
}
       0
LINE
       5
200D
     100
AcDbEntity
       8
2
     100
AcDbLine
      10
-60
      20
-88.593168857
      30
0
      11
90
      21
-88.593168857
      31
0
    1001
FS_CYPCUT
    1000
Channel
    1070
2
    1000
LeadIn
    1002
{
    1070
3
    1040
0
    1040
1.5707963267949
    1040
0.5
    1040
0.3
    1070
0
    1040
0.5
    1070
0
    1002
}
    1000
LeadOut
    1002
{
    1070
0
    1040
0
    1040
0.523598775598299
    1040
3
    1070
0
    1002
}
    1000
IsFill
    1070
0
    1000
PathStart
    1040
0
    1000
ToolCompensation
    1002
{
    1070
0
    1040
0
    1070
0
    1002
}
       0
LINE
       5
200E
     100
AcDbEntity
       8
2
     100
AcDbLine
      10
90
      20
-111.4445905589
      30
0
      11
-60
      21
-111.4445905589
      31
0
    1001
FS_CYPCUT
    1000
Channel
    1070
2
    1000
LeadIn
    1002
{
    1070
3
    1040
0
    1040
1.5707963267949
    1040
0.5
    1040
0.3
    1070
0
    1040
0.5
    1070
0
    1002
}
    1000
LeadOut
    1002
{
    1070
0
    1040
0
    1040
0.523598775598299
    1040
3
    1070
0
    1002
}
    1000
IsFill
    1070
0
    1000
PathStart
    1040
0
    1000
ToolCompensation
    1002
{
    1070
0
    1040
0
    1070
0
    1002
}
       0
CIRCLE
       5
200F
     100
AcDbEntity
       8
1
     100
AcDbCircle
      10
15
      20
-126.7028434038
      30
0
      40
3.75000000000003
    1001
FS_CYPCUT
    1000
Channel
    1070
1
    1000
LeadIn
    1002
{
    1070
3
    1040
0
    1040
1.5707963267949
    1040
0.5
    1040
0.3
    1070
0
    1040
0.5
    1070
0
    1002
}
    1000
LeadOut
    1002
{
    1070
0
    1040
0
    1040
0.523598775598299
    1040
3
    1070
0
    1002
}
    1000
IsFill
    1070
0
    1000
PathStart
    1040
0
    1000
ToolCompensation
    1002
{
    1070
0
    1040
0
    1070
0
    1002
}
       0
LWPOLYLINE
       5
2010
     100
AcDbEntity
       8
1
     100
AcDbPolyline
      90
12
      70
1
      10
81.2063847448
      20
-21.9158308246
      42
0
      10
81.2063847448
      20
-28.2158308256
      42
0
      10
65.1333431304
      20
-28.2158308256
      42
0
      10
62.4525650148112
      20
-43.4192790150491
      42
0.466307658154995
      10
65.5547094368
      20
-47.1162707747003
      42
0
      10
75.3121068962
      20
-47.1162707747
      42
0
      10
75.3121068962
      20
-53.7677483661
      42
0
      10
65.5547094349353
      20
-53.7677483661586
      42
-0.386919480665599
      10
55.7965751365
      20
-44.8870193571
      42
0
      10
61.5133054277
      20
-12.4658308249
      42
0
      10
67.9104930825
      20
-12.4658308249
      42
0
      10
66.244203113
      20
-21.9158308246
      42
0
    1001
FS_CYPCUT
    1000
Channel
    1070
1
    1000
LeadIn
    1002
{
    1070
3
    1040
8.5
    1040
1.5707963267949
    1040
0.5
    1040
0.3
    1070
0
    1040
0.5
    1070
0
    1002
}
    1000
LeadOut
    1002
{
    1070
0
    1040
0
    1040
0.523598775598299
    1040
3
    1070
0
    1002
}
    1000
IsFill
    1070
0
    1000
PathStart
    1040
8.5
    1000
ToolCompensation
    1002
{
    1070
0
    1040
0
    1070
0
    1002
}
       0
SPLINE
       5
2011
     100
AcDbEntity
       8
1
     100
AcDbSpline
      70
0
      71
3
      72
132
      73
128
      74
0
      40
0
      40
0
      40
0
      40
0
      40
0.03125
      40
0.03125
      40
0.03125
      40
0.03125
      40
0.0625
      40
0.0625
      40
0.0625
      40
0.0625
      40
0.09375
      40
0.09375
      40
0.09375
      40
0.09375
      40
0.125
      40
0.125
      40
0.125
      40
0.125
      40
0.15625
      40
0.15625
      40
0.15625
      40
0.15625
      40
0.1875
      40
0.1875
      40
0.1875
      40
0.1875
      40
0.21875
      40
0.21875
      40
0.21875
      40
0.21875
      40
0.25
      40
0.25
      40
0.25
      40
0.25
      40
0.28125
      40
0.28125
      40
0.28125
      40
0.28125
      40
0.3125
      40
0.3125
      40
0.3125
      40
0.3125
      40
0.34375
      40
0.34375
      40
0.34375
      40
0.34375
      40
0.375
      40
0.375
      40
0.375
      40
0.375
      40
0.40625
      40
0.40625
      40
0.40625
      40
0.40625
      40
0.4375
      40
0.4375
      40
0.4375
      40
0.4375
      40
0.46875
      40
0.46875
      40
0.46875
      40
0.46875
      40
0.5
      40
0.5
      40
0.5
      40
0.5
      40
0.53125
      40
0.53125
      40
0.53125
      40
0.53125
      40
0.5625
      40
0.5625
      40
0.5625
      40
0.5625
      40
0.59375
      40
0.59375
      40
0.59375
      40
0.59375
      40
0.625
      40
0.625
      40
0.625
      40
0.625
      40
0.65625
      40
0.65625
      40
0.65625
      40
0.65625
      40
0.6875
      40
0.6875
      40
0.6875
      40
0.6875
      40
0.71875
      40
0.71875
      40
0.71875
      40
0.71875
      40
0.75
      40
0.75
      40
0.75
      40
0.75
      40
0.78125
      40
0.78125
      40
0.78125
      40
0.78125
      40
0.8125
      40
0.8125
      40
0.8125
      40
0.8125
      40
0.84375
      40
0.84375
      40
0.84375
      40
0.84375
      40
0.875
      40
0.875
      40
0.875
      40
0.875
      40
0.90625
      40
0.90625
      40
0.90625
      40
0.90625
      40
0.9375
      40
0.9375
      40
0.9375
      40
0.9375
      40
0.96875
      40
0.96875
      40
0.96875
      40
0.96875
      40
1
      40
1
      40
1
      40
1
      10
102.8275682284
      20
-12.7385995893
      30
0
      10
101.997628130733
      20
-12.9725282849667
      30
0
      10
101.167688033067
      20
-13.2064569806333
      30
0
      10
100.3377479354
      20
-13.4403856763
      30
0
      10
100.3377479354
      20
-13.4403856763
      30
0
      10
99.5180580925
      20
-13.7808152623
      30
0
      10
98.6983682496
      20
-14.1212448483
      30
0
      10
97.8786784067
      20
-14.4616744343
      30
0
      10
97.8786784067
      20
-14.4616744343
      30
0
      10
97.0826920348667
      20
-14.9030175865333
      30
0
      10
96.2867056630333
      20
-15.3443607387667
      30
0
      10
95.4907192912
      20
-15.785703891
      30
0
      10
95.4907192912
      20
-15.785703891
      30
0
      10
94.7315005717
      20
-16.3207170345
      30
0
      10
93.9722818522
      20
-16.855730178
      30
0
      10
93.2130631327
      20
-17.3907433215
      30
0
      10
93.2130631327
      20
-17.3907433215
      30
0
      10
92.5030727953333
      20
-18.0106455159667
      30
0
      10
91.7930824579667
      20
-18.6305477104333
      30
0
      10
91.0830921206
      20
-19.2504499049
      30
0
      10
91.0830921206
      20
-19.2504499049
      30
0
      10
90.4339829308667
      20
-19.9450669627667
      30
0
      10
89.7848737411333
      20
-20.6396840206333
      30
0
      10
89.1357645514
      20
-21.3343010785
      30
0
      10
89.1357645514
      20
-21.3343010785
      30
0
      10
88.5581900587333
      20
-22.0922325492667
      30
0
      10
87.9806155660667
      20
-22.8501640200333
      30
0
      10
87.4030410734
      20
-23.6080954908
      30
0
      10
87.4030410734
      20
-23.6080954908
      30
0
      10
86.9064807591
      20
-24.4169017718
      30
0
      10
86.4099204448
      20
-25.2257080528
      30
0
      10
85.9133601305
      20
-26.0345143338
      30
0
      10
85.9133601305
      20
-26.0345143338
      30
0
      10
85.5059638251
      20
-26.8809208359667
      30
0
      10
85.0985675197
      20
-27.7273273381333
      30
0
      10
84.6911712143
      20
-28.5737338403
      30
0
      10
84.6911712143
      20
-28.5737338403
      30
0
      10
84.3796253378
      20
-29.4438488584667
      30
0
      10
84.0680794613
      20
-30.3139638766333
      30
0
      10
83.7565335848
      20
-31.1840788948
      30
0
      10
83.7565335848
      20
-31.1840788948
      30
0
      10
83.5459514054667
      20
-32.0636216059667
      30
0
      10
83.3353692261333
      20
-32.9431643171333
      30
0
      10
83.1247870468
      20
-33.8227070283
      30
0
      10
83.1247870468
      20
-33.8227070283
      30
0
      10
83.0186247592
      20
-34.697241877
      30
0
      10
82.9124624716
      20
-35.5717767257
      30
0
      10
82.806300184
      20
-36.4463115744
      30
0
      10
82.806300184
      20
-36.4463115744
      30
0
      10
82.806300184
      20
-37.3014851969
      30
0
      10
82.806300184
      20
-38.1566588194
      30
0
      10
82.806300184
      20
-39.0118324419
      30
0
      10
82.806300184
      20
-39.0118324419
      30
0
      10
82.9124624716
      20
-39.833609242
      30
0
      10
83.0186247592
      20
-40.6553860421
      30
0
      10
83.1247870468
      20
-41.4771628422
      30
0
      10
83.1247870468
      20
-41.4771628422
      30
0
      10
83.3353692261333
      20
-42.2520553513667
      30
0
      10
83.5459514054667
      20
-43.0269478605333
      30
0
      10
83.7565335848
      20
-43.8018403697
      30
0
      10
83.7565335848
      20
-43.8018403697
      30
0
      10
84.0680794613
      20
-44.517130611
      30
0
      10
84.3796253378
      20
-45.2324208523
      30
0
      10
84.6911712143
      20
-45.9477110936
      30
0
      10
84.6911712143
      20
-45.9477110936
      30
0
      10
85.0985675197
      20
-46.5916593165
      30
0
      10
85.5059638251
      20
-47.2356075394
      30
0
      10
85.9133601305
      20
-47.8795557623
      30
0
      10
85.9133601305
      20
-47.8795557623
      30
0
      10
86.4099204448
      20
-48.4415931221
      30
0
      10
86.9064807591
      20
-49.0036304819
      30
0
      10
87.4030410734
      20
-49.5656678417
      30
0
      10
87.4030410734
      20
-49.5656678417
      30
0
      10
87.9806155660667
      20
-50.0365698613333
      30
0
      10
88.5581900587333
      20
-50.5074718809667
      30
0
      10
89.1357645514
      20
-50.9783739006
      30
0
      10
89.1357645514
      20
-50.9783739006
      30
0
      10
89.7848737411333
      20
-51.3504118681
      30
0
      10
90.4339829308667
      20
-51.7224498356
      30
0
      10
91.0830921206
      20
-52.0944878031
      30
0
      10
91.0830921206
      20
-52.0944878031
      30
0
      10
91.7930824579667
      20
-52.3615556196333
      30
0
      10
92.5030727953333
      20
-52.6286234361667
      30
0
      10
93.2130631327
      20
-52.8956912527
      30
0
      10
93.2130631327
      20
-52.8956912527
      30
0
      10
93.9722818522
      20
-53.0534056492333
      30
0
      10
94.7315005717
      20
-53.2111200457667
      30
0
      10
95.4907192912
      20
-53.3688344423
      30
0
      10
95.4907192912
      20
-53.3688344423
      30
0
      10
96.2867056630333
      20
-53.4146069204
      30
0
      10
97.0826920348667
      20
-53.4603793985
      30
0
      10
97.8786784067
      20
-53.5061518766
      30
0
      10
97.8786784067
      20
-53.5061518766
      30
0
      10
98.6983682496
      20
-53.4392311923333
      30
0
      10
99.5180580925
      20
-53.3723105080667
      30
0
      10
100.3377479354
      20
-53.3053898238
      30
0
      10
100.3377479354
      20
-53.3053898238
      30
0
      10
101.167688033067
      20
-53.1268743174667
      30
0
      10
101.997628130733
      20
-52.9483588111333
      30
0
      10
102.8275682284
      20
-52.7698433048
      30
0
      10
102.8275682284
      20
-52.7698433048
      30
0
      10
102.8275682284
      20
-49.8348813986667
      30
0
      10
102.8275682284
      20
-46.8999194925333
      30
0
      10
102.8275682284
      20
-43.9649575864
      30
0
      10
102.827568228384
      20
-43.9649575863799
      30
0
      10
100.114214252078
      20
-45.0816950709574
      30
0
      10
97.3769936664541
      20
-45.2917355334965
      30
0
      10
95.1885522693296
      20
-44.6682302940779
      30
0
      10
95.1885522693296
      20
-44.6682302940779
      30
0
      10
92.291780928521
      20
-43.8531103439351
      30
0
      10
90.2892783501974
      20
-41.6865701585168
      30
0
      10
89.6372313380642
      20
-38.5811939961483
      30
0
      10
89.6372313380642
      20
-38.5811939961483
      30
0
      10
89.1404921689424
      20
-36.2406694349442
      30
0
      10
89.4926115859122
      20
-33.3729187255194
      30
0
      10
90.7157400940458
      20
-30.6001205395222
      30
0
      10
90.7157400940458
      20
-30.6001205395222
      30
0
      10
92.0177100540452
      20
-27.6034766011467
      30
0
      10
94.3257401264409
      20
-24.7636935753858
      30
0
      10
97.0690689582581
      20
-22.8000747084122
      30
0
      10
97.0690689582581
      20
-22.8000747084122
      30
0
      10
98.8923345023118
      20
-21.4842600571366
      30
0
      10
100.892690373961
      20
-20.5530822319257
      30
0
      10
102.827568228384
      20
-20.0948996243133
      30
0
      10
102.827568228384
      20
-20.0948996243133
      30
0
      10
102.827568228389
      20
-17.6427996126422
      30
0
      10
102.827568228395
      20
-15.1906996009711
      30
0
      10
102.8275682284
      20
-12.7385995893
      30
0
    1001
FS_CYPCUT
    1000
Channel
    1070
1
    1000
LeadIn
    1002
{
    1070
3
    1040
29.5
    1040
1.5707963267949
    1040
0.5
    1040
0.3
    1070
0
    1040
0.5
    1070
0
    1002
}
    1000
LeadOut
    1002
{
    1070
0
    1040
0
    1040
0.523598775598299
    1040
3
    1070
0
    1002
}
    1000
IsFill
    1070
0
    1000
PathStart
    1040
29.5
    1000
ToolCompensation
    1002
{
    1070
0
    1040
0
    1070
0
    1002
}
       0
SPLINE
       5
2012
     100
AcDbEntity
       8
1
     100
AcDbSpline
      70
0
      71
3
      72
92
      73
88
      74
0
      40
0
      40
0
      40
0
      40
0
      40
0.0454545454545455
      40
0.0454545454545455
      40
0.0454545454545455
      40
0.0454545454545455
      40
0.0909090909090909
      40
0.0909090909090909
      40
0.0909090909090909
      40
0.0909090909090909
      40
0.136363636363636
      40
0.136363636363636
      40
0.136363636363636
      40
0.136363636363636
      40
0.181818181818182
      40
0.181818181818182
      40
0.181818181818182
      40
0.181818181818182
      40
0.227272727272727
      40
0.227272727272727
      40
0.227272727272727
      40
0.227272727272727
      40
0.272727272727273
      40
0.272727272727273
      40
0.272727272727273
      40
0.272727272727273
      40
0.318181818181818
      40
0.318181818181818
      40
0.318181818181818
      40
0.318181818181818
      40
0.363636363636364
      40
0.363636363636364
      40
0.363636363636364
      40
0.363636363636364
      40
0.409090909090909
      40
0.409090909090909
      40
0.409090909090909
      40
0.409090909090909
      40
0.454545454545455
      40
0.454545454545455
      40
0.454545454545455
      40
0.454545454545455
      40
0.5
      40
0.5
      40
0.5
      40
0.5
      40
0.545454545454545
      40
0.545454545454545
      40
0.545454545454545
      40
0.545454545454545
      40
0.590909090909091
      40
0.590909090909091
      40
0.590909090909091
      40
0.590909090909091
      40
0.636363636363636
      40
0.636363636363636
      40
0.636363636363636
      40
0.636363636363636
      40
0.681818181818182
      40
0.681818181818182
      40
0.681818181818182
      40
0.681818181818182
      40
0.727272727272727
      40
0.727272727272727
      40
0.727272727272727
      40
0.727272727272727
      40
0.772727272727273
      40
0.772727272727273
      40
0.772727272727273
      40
0.772727272727273
      40
0.818181818181818
      40
0.818181818181818
      40
0.818181818181818
      40
0.818181818181818
      40
0.863636363636364
      40
0.863636363636364
      40
0.863636363636364
      40
0.863636363636364
      40
0.909090909090909
      40
0.909090909090909
      40
0.909090909090909
      40
0.909090909090909
      40
0.954545454545455
      40
0.954545454545455
      40
0.954545454545455
      40
0.954545454545455
      40
1
      40
1
      40
1
      40
1
      10
121.9812203675
      20
-27.9949546074
      30
0
      10
121.9812203675
      20
-36.5858858603
      30
0
      10
121.9812203675
      20
-45.1768171132
      30
0
      10
121.9812203675
      20
-53.7677483661
      30
0
      10
121.9812203675
      20
-53.7677483661
      30
0
      10
119.601739112567
      20
-53.7677483661
      30
0
      10
117.222257857633
      20
-53.7677483661
      30
0
      10
114.8427766027
      20
-53.7677483661
      30
0
      10
114.8427766027
      20
-53.7677483661
      30
0
      10
114.8427766027
      20
-50.8430965475333
      30
0
      10
114.8427766027
      20
-47.9184447289667
      30
0
      10
114.8427766027
      20
-44.9937929104
      30
0
      10
114.842776602662
      20
-44.9937929104184
      30
0
      10
113.599374583633
      20
-46.4134476800133
      30
0
      10
112.208186080366
      20
-47.6965333276356
      30
0
      10
110.692802574274
      20
-48.8212915573115
      30
0
      10
110.692802574274
      20
-48.8212915573115
      30
0
      10
109.177419068183
      20
-49.9460497869874
      30
0
      10
107.546455105184
      20
-50.9060866519862
      30
0
      10
105.8275682284
      20
-51.6851220495
      30
0
      10
105.8275682284
      20
-51.6851220495
      30
0
      10
105.827568228395
      20
-48.5790437019691
      30
0
      10
105.827568228389
      20
-45.4729653544382
      30
0
      10
105.827568228384
      20
-42.3668870069073
      30
0
      10
105.827568228384
      20
-42.3668870069073
      30
0
      10
108.221784261183
      20
-40.784501982756
      30
0
      10
110.346527101637
      20
-38.5370220242678
      30
0
      10
111.801638009995
      20
-36.0469921823377
      30
0
      10
111.801638009995
      20
-36.0469921823377
      30
0
      10
113.315408083633
      20
-33.4798740106706
      30
0
      10
114.100015339592
      20
-30.6749501225607
      30
0
      10
114.05948048751
      20
-28.208937362072
      30
0
      10
114.05948048751
      20
-28.208937362072
      30
0
      10
114.028243687959
      20
-25.732953980167
      30
0
      10
113.204199843424
      20
-23.6320477701088
      30
0
      10
111.810655251443
      20
-22.1745668022095
      30
0
      10
111.810655251443
      20
-22.1745668022095
      30
0
      10
110.378614349537
      20
-20.6664430810675
      30
0
      10
108.300744198839
      20
-19.7856187855254
      30
0
      10
105.827568228384
      20
-19.7494990859397
      30
0
      10
105.8275682284
      20
-19.7494990859
      30
0
      10
105.8275682284
      20
-17.1636793508333
      30
0
      10
105.8275682284
      20
-14.5778596157667
      30
0
      10
105.8275682284
      20
-11.9920398807
      30
0
      10
105.8275682284
      20
-11.9920398807
      30
0
      10
106.632661790267
      20
-12.0010478762667
      30
0
      10
107.437755352133
      20
-12.0100558718333
      30
0
      10
108.242848914
      20
-12.0190638674
      30
0
      10
108.242848914
      20
-12.0190638674
      30
0
      10
109.016027188767
      20
-12.1386009645333
      30
0
      10
109.789205463533
      20
-12.2581380616667
      30
0
      10
110.5623837383
      20
-12.3776751588
      30
0
      10
110.5623837383
      20
-12.3776751588
      30
0
      10
111.2913730398
      20
-12.6058437863
      30
0
      10
112.0203623413
      20
-12.8340124138
      30
0
      10
112.7493516428
      20
-13.0621810413
      30
0
      10
112.7493516428
      20
-13.0621810413
      30
0
      10
113.422579755033
      20
-13.3953591752667
      30
0
      10
114.095807867267
      20
-13.7285373092333
      30
0
      10
114.7690359795
      20
-14.0617154432
      30
0
      10
114.7690359795
      20
-14.0617154432
      30
0
      10
115.375815858033
      20
-14.4946141044
      30
0
      10
115.982595736567
      20
-14.9275127656
      30
0
      10
116.5893756151
      20
-15.3604114268
      30
0
      10
116.5893756151
      20
-15.3604114268
      30
0
      10
117.120075036567
      20
-15.8861586395333
      30
0
      10
117.650774458033
      20
-16.4119058522667
      30
0
      10
118.1814738795
      20
-16.937653065
      30
0
      10
118.1814738795
      20
-16.937653065
      30
0
      10
118.627668346733
      20
-17.5479029450333
      30
0
      10
119.073862813967
      20
-18.1581528250667
      30
0
      10
119.5200572812
      20
-18.7684027051
      30
0
      10
119.5200572812
      20
-18.7684027051
      30
0
      10
119.874663756467
      20
-19.4534679451667
      30
0
      10
120.229270231733
      20
-20.1385331852333
      30
0
      10
120.583876707
      20
-20.8235984253
      30
0
      10
120.583876707
      20
-20.8235984253
      30
0
      10
120.8412660505
      20
-21.5726040744333
      30
0
      10
121.098655394
      20
-22.3216097235667
      30
0
      10
121.3560447375
      20
-23.0706153727
      30
0
      10
121.3560447375
      20
-23.0706153727
      30
0
      10
121.512131066133
      20
-23.8716714689333
      30
0
      10
121.668217394767
      20
-24.6727275651667
      30
0
      10
121.8243037234
      20
-25.4737836614
      30
0
      10
121.8243037234
      20
-25.4737836614
      30
0
      10
121.876609271433
      20
-26.3141739767333
      30
0
      10
121.928914819467
      20
-27.1545642920667
      30
0
      10
121.9812203675
      20
-27.9949546074
      30
0
    1001
FS_CYPCUT
    1000
Channel
    1070
1
    1000
LeadIn
    1002
{
    1070
3
    1040
0.5
    1040
1.5707963267949
    1040
0.5
    1040
0.3
    1070
0
    1040
0.5
    1070
0
    1002
}
    1000
LeadOut
    1002
{
    1070
0
    1040
0
    1040
0.523598775598299
    1040
3
    1070
0
    1002
}
    1000
IsFill
    1070
0
    1000
PathStart
    1040
0.5
    1000
ToolCompensation
    1002
{
    1070
0
    1040
0
    1070
0
    1002
}
       0
LWPOLYLINE
       5
2013
     100
AcDbEntity
       8
1
     100
AcDbPolyline
      90
12
      70
1
      10
150.5559766869
      20
-21.9158308248
      42
0
      10
135.5937950552
      20
-21.9158308248
      42
0
      10
137.2600850247
      20
-12.4658308251
      42
0
      10
130.8628973698
      20
-12.4658308251
      42
0
      10
125.1461670787
      20
-44.8870193566
      42
0.386919480687167
      10
134.904301377052
      20
-53.7677483661585
      42
0
      10
144.6616988384
      20
-53.7677483661
      42
0
      10
144.6616988384
      20
-47.1162707749
      42
0
      10
134.9043013789
      20
-47.1162707749
      42
-0.466307658155
      10
131.802156957
      20
-43.4192790152
      42
0
      10
134.4829350726
      20
-28.2158308258
      42
0
      10
150.5559766869
      20
-28.2158308258
      42
0
    1001
FS_CYPCUT
    1000
Channel
    1070
1
    1000
LeadIn
    1002
{
    1070
3
    1040
3.5
    1040
1.5707963267949
    1040
0.5
    1040
0.3
    1070
0
    1040
0.5
    1070
0
    1002
}
    1000
LeadOut
    1002
{
    1070
0
    1040
0
    1040
0.523598775598299
    1040
3
    1070
0
    1002
}
    1000
IsFill
    1070
0
    1000
PathStart
    1040
3.5
    1000
ToolCompensation
    1002
{
    1070
0
    1040
0
    1070
0
    1002
}
       0
LWPOLYLINE
       5
2014
     100
AcDbEntity
       8
1
     100
AcDbPolyline
      90
4
      70
1
      10
164.6754000935
      20
-22.2673084175
      42
0
      10
159.1210226263
      20
-53.7677483661
      42
0
      10
152.7238349715
      20
-53.7677483661
      42
0
      10
158.2782124386
      20
-22.2673084175
      42
0
    1001
FS_CYPCUT
    1000
Channel
    1070
1
    1000
LeadIn
    1002
{
    1070
3
    1040
0.5
    1040
1.5707963267949
    1040
0.5
    1040
0.3
    1070
0
    1040
0.5
    1070
0
    1002
}
    1000
LeadOut
    1002
{
    1070
0
    1040
0
    1040
0.523598775598299
    1040
3
    1070
0
    1002
}
    1000
IsFill
    1070
0
    1000
PathStart
    1040
0.5
    1000
ToolCompensation
    1002
{
    1070
0
    1040
0
    1070
0
    1002
}
       0
LWPOLYLINE
       5
2015
     100
AcDbEntity
       8
1
     100
AcDbPolyline
      90
4
      70
1
      10
166.3416900612
      20
-12.8173084175
      42
0
      10
165.2308300827
      20
-19.1173084175
      42
0
      10
158.8336424278
      20
-19.1173084175
      42
0
      10
159.9445024063
      20
-12.8173084175
      42
0
    1001
FS_CYPCUT
    1000
Channel
    1070
1
    1000
LeadIn
    1002
{
    1070
3
    1040
0.5
    1040
1.5707963267949
    1040
0.5
    1040
0.3
    1070
0
    1040
0.5
    1070
0
    1002
}
    1000
LeadOut
    1002
{
    1070
0
    1040
0
    1040
0.523598775598299
    1040
3
    1070
0
    1002
}
    1000
IsFill
    1070
0
    1000
PathStart
    1040
0.5
    1000
ToolCompensation
    1002
{
    1070
0
    1040
0
    1070
0
    1002
}
       0
SPLINE
       5
2016
     100
AcDbEntity
       8
1
     100
AcDbSpline
      70
0
      71
3
      72
136
      73
132
      74
0
      40
0
      40
0
      40
0
      40
0
      40
0.0303030303030303
      40
0.0303030303030303
      40
0.0303030303030303
      40
0.0303030303030303
      40
0.0606060606060606
      40
0.0606060606060606
      40
0.0606060606060606
      40
0.0606060606060606
      40
0.0909090909090909
      40
0.0909090909090909
      40
0.0909090909090909
      40
0.0909090909090909
      40
0.121212121212121
      40
0.121212121212121
      40
0.121212121212121
      40
0.121212121212121
      40
0.151515151515152
      40
0.151515151515152
      40
0.151515151515152
      40
0.151515151515152
      40
0.181818181818182
      40
0.181818181818182
      40
0.181818181818182
      40
0.181818181818182
      40
0.212121212121212
      40
0.212121212121212
      40
0.212121212121212
      40
0.212121212121212
      40
0.242424242424242
      40
0.242424242424242
      40
0.242424242424242
      40
0.242424242424242
      40
0.272727272727273
      40
0.272727272727273
      40
0.272727272727273
      40
0.272727272727273
      40
0.303030303030303
      40
0.303030303030303
      40
0.303030303030303
      40
0.303030303030303
      40
0.333333333333333
      40
0.333333333333333
      40
0.333333333333333
      40
0.333333333333333
      40
0.363636363636364
      40
0.363636363636364
      40
0.363636363636364
      40
0.363636363636364
      40
0.393939393939394
      40
0.393939393939394
      40
0.393939393939394
      40
0.393939393939394
      40
0.424242424242424
      40
0.424242424242424
      40
0.424242424242424
      40
0.424242424242424
      40
0.454545454545455
      40
0.454545454545455
      40
0.454545454545455
      40
0.454545454545455
      40
0.484848484848485
      40
0.484848484848485
      40
0.484848484848485
      40
0.484848484848485
      40
0.515151515151515
      40
0.515151515151515
      40
0.515151515151515
      40
0.515151515151515
      40
0.545454545454545
      40
0.545454545454545
      40
0.545454545454545
      40
0.545454545454545
      40
0.575757575757576
      40
0.575757575757576
      40
0.575757575757576
      40
0.575757575757576
      40
0.606060606060606
      40
0.606060606060606
      40
0.606060606060606
      40
0.606060606060606
      40
0.636363636363636
      40
0.636363636363636
      40
0.636363636363636
      40
0.636363636363636
      40
0.666666666666667
      40
0.666666666666667
      40
0.666666666666667
      40
0.666666666666667
      40
0.696969696969697
      40
0.696969696969697
      40
0.696969696969697
      40
0.696969696969697
      40
0.727272727272727
      40
0.727272727272727
      40
0.727272727272727
      40
0.727272727272727
      40
0.757575757575758
      40
0.757575757575758
      40
0.757575757575758
      40
0.757575757575758
      40
0.787878787878788
      40
0.787878787878788
      40
0.787878787878788
      40
0.787878787878788
      40
0.818181818181818
      40
0.818181818181818
      40
0.818181818181818
      40
0.818181818181818
      40
0.848484848484849
      40
0.848484848484849
      40
0.848484848484849
      40
0.848484848484849
      40
0.878787878787879
      40
0.878787878787879
      40
0.878787878787879
      40
0.878787878787879
      40
0.909090909090909
      40
0.909090909090909
      40
0.909090909090909
      40
0.909090909090909
      40
0.939393939393939
      40
0.939393939393939
      40
0.939393939393939
      40
0.939393939393939
      40
0.96969696969697
      40
0.96969696969697
      40
0.96969696969697
      40
0.96969696969697
      40
1
      40
1
      40
1
      40
1
      10
205.9641129626
      20
-12.4658308276
      30
0
      10
205.9641129626
      20
-14.5658308264667
      30
0
      10
205.9641129626
      20
-16.6658308253333
      30
0
      10
205.9641129626
      20
-18.7658308242
      30
0
      10
205.9641129626
      20
-18.7658308242
      30
0
      10
201.129882848633
      20
-18.7658308242148
      30
0
      10
196.295652734665
      20
-18.7658308242297
      30
0
      10
191.461422620698
      20
-18.7658308242445
      30
0
      10
191.461422620698
      20
-18.7658308242445
      30
0
      10
188.806813069526
      20
-19.0580894474767
      30
0
      10
185.921586489882
      20
-20.1949296046271
      30
0
      10
183.336535745416
      20
-22.0270571260763
      30
0
      10
183.336535745416
      20
-22.0270571260763
      30
0
      10
180.144760529738
      20
-24.2658903860911
      30
0
      10
177.45329417288
      20
-27.5527646048201
      30
0
      10
175.954412170235
      20
-31.0232814188284
      30
0
      10
175.954412170235
      20
-31.0232814188284
      30
0
      10
174.575552459403
      20
-34.1659271890151
      30
0
      10
174.183670349362
      20
-37.4130042276095
      30
0
      10
174.751721840416
      20
-40.0616006101732
      30
0
      10
174.751721840416
      20
-40.0616006101732
      30
0
      10
175.550547306526
      20
-43.8245045614851
      30
0
      10
178.101111657048
      20
-46.3697153915434
      30
0
      10
181.770649100472
      20
-47.1162707750737
      30
0
      10
181.770649100472
      20
-47.1162707750737
      30
0
      10
187.645263702648
      20
-47.1162707750825
      30
0
      10
193.519878304824
      20
-47.1162707750912
      30
0
      10
199.394492907
      20
-47.1162707751
      30
0
      10
199.394492907
      20
-47.1162707751
      30
0
      10
199.394492907
      20
-49.3334299721
      30
0
      10
199.394492907
      20
-51.5505891691
      30
0
      10
199.394492907
      20
-53.7677483661
      30
0
      10
199.394492907
      20
-53.7677483661
      30
0
      10
193.0777309477
      20
-53.7677483661
      30
0
      10
186.7609689884
      20
-53.7677483661
      30
0
      10
180.4442070291
      20
-53.7677483661
      30
0
      10
180.4442070291
      20
-53.7677483661
      30
0
      10
179.689508901233
      20
-53.6956526893333
      30
0
      10
178.934810773367
      20
-53.6235570125667
      30
0
      10
178.1801126455
      20
-53.5514613358
      30
0
      10
178.1801126455
      20
-53.5514613358
      30
0
      10
177.471522641433
      20
-53.3684643347333
      30
0
      10
176.762932637367
      20
-53.1854673336667
      30
0
      10
176.0543426333
      20
-53.0024703326
      30
0
      10
176.0543426333
      20
-53.0024703326
      30
0
      10
175.403280501167
      20
-52.7115212157333
      30
0
      10
174.752218369033
      20
-52.4205720988667
      30
0
      10
174.1011562369
      20
-52.129622982
      30
0
      10
174.1011562369
      20
-52.129622982
      30
0
      10
173.5181145966
      20
-51.7354107311667
      30
0
      10
172.9350729563
      20
-51.3411984803333
      30
0
      10
172.352031316
      20
-50.9469862295
      30
0
      10
172.352031316
      20
-50.9469862295
      30
0
      10
171.846406558433
      20
-50.4558640314
      30
0
      10
171.340781800867
      20
-49.9647418333
      30
0
      10
170.8351570433
      20
-49.4736196352
      30
0
      10
170.8351570433
      20
-49.4736196352
      30
0
      10
170.4150978967
      20
-48.8935024925333
      30
0
      10
169.9950387501
      20
-48.3133853498667
      30
0
      10
169.5749796035
      20
-47.7332682072
      30
0
      10
169.5749796035
      20
-47.7332682072
      30
0
      10
169.247255807233
      20
-47.0735053792333
      30
0
      10
168.919532010967
      20
-46.4137425512667
      30
0
      10
168.5918082147
      20
-45.7539797233
      30
0
      10
168.5918082147
      20
-45.7539797233
      30
0
      10
168.361701417067
      20
-45.0252040517
      30
0
      10
168.131594619433
      20
-44.2964283801
      30
0
      10
167.9014878218
      20
-43.5676527085
      30
0
      10
167.9014878218
      20
-43.5676527085
      30
0
      10
167.772706460233
      20
-42.7816092567333
      30
0
      10
167.643925098667
      20
-41.9955658049667
      30
0
      10
167.5151437371
      20
-41.2095223532
      30
0
      10
167.5151437371
      20
-41.2095223532
      30
0
      10
167.4897632723
      20
-40.3788791214
      30
0
      10
167.4643828075
      20
-39.5482358896
      30
0
      10
167.4390023427
      20
-38.7175926578
      30
0
      10
167.4390023427
      20
-38.7175926578
      30
0
      10
167.5174318102
      20
-37.8557364230667
      30
0
      10
167.5958612777
      20
-36.9938801883333
      30
0
      10
167.6742907452
      20
-36.1320239536
      30
0
      10
167.6742907452
      20
-36.1320239536
      30
0
      10
167.8552661634
      20
-35.2528445268333
      30
0
      10
168.0362415816
      20
-34.3736651000667
      30
0
      10
168.2172169998
      20
-33.4944856733
      30
0
      10
168.2172169998
      20
-33.4944856733
      30
0
      10
168.4978217403
      20
-32.6121520485667
      30
0
      10
168.7784264808
      20
-31.7298184238333
      30
0
      10
169.0590312213
      20
-30.8474847991
      30
0
      10
169.0590312213
      20
-30.8474847991
      30
0
      10
169.434743013933
      20
-29.9762168040667
      30
0
      10
169.810454806567
      20
-29.1049488090333
      30
0
      10
170.1861665992
      20
-28.233680814
      30
0
      10
170.1861665992
      20
-28.233680814
      30
0
      10
170.650930413567
      20
-27.3875199409667
      30
0
      10
171.115694227933
      20
-26.5413590679333
      30
0
      10
171.5804580423
      20
-25.6951981949
      30
0
      10
171.5804580423
      20
-25.6951981949
      30
0
      10
172.1267836715
      20
-24.8877813057667
      30
0
      10
172.6731093007
      20
-24.0803644166333
      30
0
      10
173.2194349299
      20
-23.2729475275
      30
0
      10
173.2194349299
      20
-23.2729475275
      30
0
      10
173.8385177041
      20
-22.51728708
      30
0
      10
174.4576004783
      20
-21.7616266325
      30
0
      10
175.0766832525
      20
-21.005966185
      30
0
      10
175.0766832525
      20
-21.005966185
      30
0
      10
175.758545936133
      20
-20.3142405219333
      30
0
      10
176.440408619767
      20
-19.6225148588667
      30
0
      10
177.1222713034
      20
-18.9307891958
      30
0
      10
177.1222713034
      20
-18.9307891958
      30
0
      10
177.855924890133
      20
-18.3141462769
      30
0
      10
178.589578476867
      20
-17.697503358
      30
0
      10
179.3232320636
      20
-17.0808604391
      30
0
      10
179.3232320636
      20
-17.0808604391
      30
0
      10
180.0968528766
      20
-16.5492381788
      30
0
      10
180.8704736896
      20
-16.0176159185
      30
0
      10
181.6440945026
      20
-15.4859936582
      30
0
      10
181.6440945026
      20
-15.4859936582
      30
0
      10
182.445214747033
      20
-15.0479597646
      30
0
      10
183.246334991467
      20
-14.609925871
      30
0
      10
184.0474552359
      20
-14.1718919774
      30
0
      10
184.0474552359
      20
-14.1718919774
      30
0
      10
184.8631639317
      20
-13.8345058736667
      30
0
      10
185.6788726275
      20
-13.4971197699333
      30
0
      10
186.4945813233
      20
-13.1597336662
      30
0
      10
186.4945813233
      20
-13.1597336662
      30
0
      10
187.311732380667
      20
-12.92843272
      30
0
      10
188.128883438033
      20
-12.6971317738
      30
0
      10
188.9460344954
      20
-12.4658308276
      30
0
      10
188.9460344954
      20
-12.4658308276
      30
0
      10
194.6187273178
      20
-12.4658308276
      30
0
      10
200.2914201402
      20
-12.4658308276
      30
0
      10
205.9641129626
      20
-12.4658308276
      30
0
    1001
FS_CYPCUT
    1000
Channel
    1070
1
    1000
LeadIn
    1002
{
    1070
3
    1040
8.5
    1040
1.5707963267949
    1040
0.5
    1040
0.3
    1070
0
    1040
0.5
    1070
0
    1002
}
    1000
LeadOut
    1002
{
    1070
0
    1040
0
    1040
0.523598775598299
    1040
3
    1070
0
    1002
}
    1000
IsFill
    1070
0
    1000
PathStart
    1040
8.5
    1000
ToolCompensation
    1002
{
    1070
0
    1040
0
    1070
0
    1002
}
       0
LWPOLYLINE
       5
2017
     100
AcDbEntity
       8
1
     100
AcDbPolyline
      90
106
      70
1
      10
163.2050712162
      20
-2.8173084175
      42
0
      10
165.415143183
      20
0.9465609576
      42
0
      10
167.308740501
      20
4.6801099656
      42
0
      10
168.880023004
      20
8.3718237259
      42
0
      10
170.1241445978
      20
12.0103163849
      42
0
      10
171.0372682063
      20
15.5843662316
      42
0
      10
171.6165776059
      20
19.0829503071
      42
0
      10
171.8602861109
      20
22.4952784017
      42
0
      10
171.7676420841
      20
25.810826333
      42
0
      10
171.3389312549
      20
29.0193684047
      42
0
      10
170.5754758383
      20
32.1110089444
      42
0
      10
169.4796304564
      20
35.0762128231
      42
0
      10
168.0547748772
      20
37.9058348632
      42
0
      10
166.30530359
      20
40.5911480442
      42
0
      10
164.2366122526
      20
43.1238704175
      42
0
      10
161.85508105
      20
45.4961906499
      42
0
      10
159.1680550171
      20
47.7007921149
      42
0
      10
156.1838213848
      20
49.7308754581
      42
0
      10
152.9115840217
      20
51.5801795681
      42
0
      10
149.3614350469
      20
53.243000886
      42
0
      10
145.5443237052
      20
54.7142109969
      42
0
      10
141.4720225968
      20
55.9892724464
      42
0
      10
137.1570913697
      20
57.0642527348
      42
0
      10
132.6128379829
      20
57.9358364458
      42
0
      10
127.8532776627
      20
58.6013354714
      42
0
      10
122.8930896777
      20
59.0586973031
      42
0
      10
117.7475720651
      20
59.3065113615
      42
0
      10
112.4325944492
      20
59.3440133473
      42
0
      10
106.964549097
      20
59.1710875981
      42
0
      10
101.3603003615
      20
58.7882674455
      42
0
      10
95.6371326695
      20
58.19673357
      42
0
      10
89.8126972135
      20
57.3983103594
      42
0
      10
83.9049575122
      20
56.3954602825
      42
0
      10
77.9321340086
      20
55.1912762944
      42
0
      10
71.9126478748
      20
53.7894722968
      42
0
      10
65.8650641981
      20
52.1943716843
      42
0
      10
59.8080347232
      20
50.4108940101
      42
0
      10
53.7602403274
      20
48.4445398132
      42
0
      10
47.7403334053
      20
46.3013736542
      42
0
      10
41.766880342
      20
43.9880054107
      42
0
      10
35.8583042513
      20
41.5115698915
      42
0
      10
30.0328281556
      20
38.879704832
      42
0
      10
24.3084187833
      20
36.1005273378
      42
0
      10
18.7027311563
      20
33.1826088503
      42
0
      10
13.2330541392
      20
30.1349487111
      42
0
      10
7.9162571175
      20
26.9669464062
      42
0
      10
2.7687379692
      20
23.688372577
      42
0
      10
-2.193627508
      20
20.3093388855
      42
0
      10
-6.9555345612
      20
16.8402668285
      42
0
      10
-11.5022966843
      20
13.2918555959
      42
0
      10
-15.8198909135
      20
9.6750490728
      42
0
      10
-19.8950010766
      20
6.0010020867
      42
0
      10
-23.7150588622
      20
2.2810460039
      42
0
      10
-27.2682825825
      20
-1.4733462179
      42
0
      10
-30.54371351
      20
-5.2505954142
      42
0
      10
-33.5312496759
      20
-9.0390519262
      42
0
      10
-36.2216770261
      20
-12.8270315294
      42
0
      10
-32.8778210467
      20
-9.8360965905
      42
0
      10
-29.2507890895
      20
-6.8665077708
      42
0
      10
-25.352038309
      20
-3.9276454778
      42
0
      10
-21.1938841719
      20
-1.0287930595
      42
0
      10
-16.789461554
      20
1.8208925203
      42
0
      10
-12.1526832503
      20
4.612409607
      42
0
      10
-7.2981960259
      20
7.3369402903
      42
0
      10
-2.2413343505
      20
9.9858782579
      42
0
      10
3.0019280413
      20
12.5508559817
      42
0
      10
8.4150286078
      20
15.0237711492
      42
0
      10
13.9808683183
      20
17.3968122572
      42
0
      10
19.6818656663
      20
19.6624832871
      42
0
      10
25.5000122061
      20
21.8136273836
      42
0
      10
31.4169294381
      20
23.8434494616
      42
0
      10
37.4139268638
      20
25.7455376708
      42
0
      10
43.4720610254
      20
27.51388365
      42
0
      10
49.5721953447
      20
29.1429015059
      42
0
      10
55.6950605729
      20
30.6274454581
      42
0
      10
61.8213156577
      20
31.962826094
      42
0
      10
67.9316088393
      20
33.1448251816
      42
0
      10
74.0066387783
      20
34.1697089941
      42
0
      10
80.0272155262
      20
35.0342401041
      42
0
      10
85.974321142
      20
35.7356876103
      42
0
      10
91.8291697674
      20
36.2718357636
      42
0
      10
97.5732669676
      20
36.6409909665
      42
0
      10
103.1884681519
      20
36.8419871228
      42
0
      10
108.6570358896
      20
36.874189321
      42
0
      10
113.9616959391
      20
36.7374958402
      42
0
      10
119.0856918143
      20
36.4323384709
      42
0
      10
124.0128377153
      20
35.9596811514
      42
0
      10
128.7275696567
      20
35.3210169229
      42
0
      10
133.2149946314
      20
34.5183632132
      42
0
      10
137.4609376547
      20
33.5542554638
      42
0
      10
141.4519865412
      20
32.4317391212
      42
0
      10
145.1755342707
      20
31.1543600166
      42
0
      10
148.6198188124
      20
29.7261531655
      42
0
      10
151.7739602785
      20
28.1516300216
      42
0
      10
154.6279952919
      20
26.435764226
      42
0
      10
157.1729084593
      20
24.5839758963
      42
0
      10
159.4006608484
      20
22.6021145054
      42
0
      10
161.3042153821
      20
20.4964404041
      42
0
      10
162.8775590672
      20
18.2736050459
      42
0
      10
164.1157219882
      20
15.9406299757
      42
0
      10
165.0147930068
      20
13.5048846506
      42
0
      10
165.5719321161
      20
10.9740631607
      42
0
      10
165.7853794118
      20
8.3561599252
      42
0
      10
165.6544606515
      20
5.6594444388
      42
0
      10
165.1795893846
      20
2.8924351505
      42
0
      10
164.3622656456
      20
0.0638725548
      42
0
    1001
FS_CYPCUT
    1000
Channel
    1070
1
    1000
LeadIn
    1002
{
    1070
3
    1040
39.5
    1040
1.5707963267949
    1040
0.5
    1040
0.3
    1070
0
    1040
0.5
    1070
0
    1002
}
    1000
LeadOut
    1002
{
    1070
0
    1040
0
    1040
0.523598775598299
    1040
3
    1070
0
    1002
}
    1000
IsFill
    1070
0
    1000
PathStart
    1040
39.5
    1000
ToolCompensation
    1002
{
    1070
0
    1040
0
    1070
0
    1002
}
    1000
MicroConnect
    1002
{
    1070
2
    1040
27
    1041
0.6
    1042
0
    1040
83
    1041
0.6
    1042
0
    1002
}
       0
LINE
       5
2018
     100
AcDbEntity
       8
2
     100
AcDbLine
      10
699
      20
86.3522784883
      30
0
      11
-384
      21
86.3522784883
      31
0
    1001
FS_CYPCUT
    1000
Channel
    1070
2
    1000
LeadIn
    1002
{
    1070
3
    1040
0
    1040
1.5707963267949
    1040
0.5
    1040
0.3
    1070
0
    1040
0.5
    1070
0
    1002
}
    1000
LeadOut
    1002
{
    1070
0
    1040
0
    1040
0.523598775598299
    1040
3
    1070
0
    1002
}
    1000
IsFill
    1070
0
    1000
PathStart
    1040
0
    1000
ToolCompensation
    1002
{
    1070
0
    1040
0
    1070
0
    1002
}
       0
SPLINE
       5
2019
     100
AcDbEntity
       8
1
     100
AcDbSpline
      70
0
      71
3
      72
132
      73
128
      74
0
      40
0
      40
0
      40
0
      40
0
      40
0.03125
      40
0.03125
      40
0.03125
      40
0.03125
      40
0.0625
      40
0.0625
      40
0.0625
      40
0.0625
      40
0.09375
      40
0.09375
      40
0.09375
      40
0.09375
      40
0.125
      40
0.125
      40
0.125
      40
0.125
      40
0.15625
      40
0.15625
      40
0.15625
      40
0.15625
      40
0.1875
      40
0.1875
      40
0.1875
      40
0.1875
      40
0.21875
      40
0.21875
      40
0.21875
      40
0.21875
      40
0.25
      40
0.25
      40
0.25
      40
0.25
      40
0.28125
      40
0.28125
      40
0.28125
      40
0.28125
      40
0.3125
      40
0.3125
      40
0.3125
      40
0.3125
      40
0.34375
      40
0.34375
      40
0.34375
      40
0.34375
      40
0.375
      40
0.375
      40
0.375
      40
0.375
      40
0.40625
      40
0.40625
      40
0.40625
      40
0.40625
      40
0.4375
      40
0.4375
      40
0.4375
      40
0.4375
      40
0.46875
      40
0.46875
      40
0.46875
      40
0.46875
      40
0.5
      40
0.5
      40
0.5
      40
0.5
      40
0.53125
      40
0.53125
      40
0.53125
      40
0.53125
      40
0.5625
      40
0.5625
      40
0.5625
      40
0.5625
      40
0.59375
      40
0.59375
      40
0.59375
      40
0.59375
      40
0.625
      40
0.625
      40
0.625
      40
0.625
      40
0.65625
      40
0.65625
      40
0.65625
      40
0.65625
      40
0.6875
      40
0.6875
      40
0.6875
      40
0.6875
      40
0.71875
      40
0.71875
      40
0.71875
      40
0.71875
      40
0.75
      40
0.75
      40
0.75
      40
0.75
      40
0.78125
      40
0.78125
      40
0.78125
      40
0.78125
      40
0.8125
      40
0.8125
      40
0.8125
      40
0.8125
      40
0.84375
      40
0.84375
      40
0.84375
      40
0.84375
      40
0.875
      40
0.875
      40
0.875
      40
0.875
      40
0.90625
      40
0.90625
      40
0.90625
      40
0.90625
      40
0.9375
      40
0.9375
      40
0.9375
      40
0.9375
      40
0.96875
      40
0.96875
      40
0.96875
      40
0.96875
      40
1
      40
1
      40
1
      40
1
      10
227.585296448
      20
-12.7385995896
      30
0
      10
226.755356350333
      20
-12.9725282852667
      30
0
      10
225.925416252667
      20
-13.2064569809333
      30
0
      10
225.095476155
      20
-13.4403856766
      30
0
      10
225.095476155
      20
-13.4403856766
      30
0
      10
224.275786312133
      20
-13.7808152626
      30
0
      10
223.456096469267
      20
-14.1212448486
      30
0
      10
222.6364066264
      20
-14.4616744346
      30
0
      10
222.6364066264
      20
-14.4616744346
      30
0
      10
221.840420254533
      20
-14.9030175868667
      30
0
      10
221.044433882667
      20
-15.3443607391333
      30
0
      10
220.2484475108
      20
-15.7857038914
      30
0
      10
220.2484475108
      20
-15.7857038914
      30
0
      10
219.4892287913
      20
-16.3207170348667
      30
0
      10
218.7300100718
      20
-16.8557301783333
      30
0
      10
217.9707913523
      20
-17.3907433218
      30
0
      10
217.9707913523
      20
-17.3907433218
      30
0
      10
217.260801014933
      20
-18.0106455163
      30
0
      10
216.550810677567
      20
-18.6305477108
      30
0
      10
215.8408203402
      20
-19.2504499053
      30
0
      10
215.8408203402
      20
-19.2504499053
      30
0
      10
215.191711150467
      20
-19.9450669631667
      30
0
      10
214.542601960733
      20
-20.6396840210333
      30
0
      10
213.893492771
      20
-21.3343010789
      30
0
      10
213.893492771
      20
-21.3343010789
      30
0
      10
213.315918278333
      20
-22.0922325496667
      30
0
      10
212.738343785667
      20
-22.8501640204333
      30
0
      10
212.160769293
      20
-23.6080954912
      30
0
      10
212.160769293
      20
-23.6080954912
      30
0
      10
211.664208978733
      20
-24.4169017721667
      30
0
      10
211.167648664467
      20
-25.2257080531333
      30
0
      10
210.6710883502
      20
-26.0345143341
      30
0
      10
210.6710883502
      20
-26.0345143341
      30
0
      10
210.2636920448
      20
-26.8809208363
      30
0
      10
209.8562957394
      20
-27.7273273385
      30
0
      10
209.448899434
      20
-28.5737338407
      30
0
      10
209.448899434
      20
-28.5737338407
      30
0
      10
209.1373535575
      20
-29.4438488588333
      30
0
      10
208.825807681
      20
-30.3139638769667
      30
0
      10
208.5142618045
      20
-31.1840788951
      30
0
      10
208.5142618045
      20
-31.1840788951
      30
0
      10
208.303679625133
      20
-32.0636216063
      30
0
      10
208.093097445767
      20
-32.9431643175
      30
0
      10
207.8825152664
      20
-33.8227070287
      30
0
      10
207.8825152664
      20
-33.8227070287
      30
0
      10
207.7763529788
      20
-34.6972418774
      30
0
      10
207.6701906912
      20
-35.5717767261
      30
0
      10
207.5640284036
      20
-36.4463115748
      30
0
      10
207.5640284036
      20
-36.4463115748
      30
0
      10
207.5640284036
      20
-37.3014851973
      30
0
      10
207.5640284036
      20
-38.1566588198
      30
0
      10
207.5640284036
      20
-39.0118324423
      30
0
      10
207.5640284036
      20
-39.0118324423
      30
0
      10
207.6701906912
      20
-39.8336092424
      30
0
      10
207.7763529788
      20
-40.6553860425
      30
0
      10
207.8825152664
      20
-41.4771628426
      30
0
      10
207.8825152664
      20
-41.4771628426
      30
0
      10
208.093097445767
      20
-42.2520553517333
      30
0
      10
208.303679625133
      20
-43.0269478608667
      30
0
      10
208.5142618045
      20
-43.80184037
      30
0
      10
208.5142618045
      20
-43.80184037
      30
0
      10
208.825807681
      20
-44.5171306113
      30
0
      10
209.1373535575
      20
-45.2324208526
      30
0
      10
209.448899434
      20
-45.9477110939
      30
0
      10
209.448899434
      20
-45.9477110939
      30
0
      10
209.8562957394
      20
-46.5916593168333
      30
0
      10
210.2636920448
      20
-47.2356075397667
      30
0
      10
210.6710883502
      20
-47.8795557627
      30
0
      10
210.6710883502
      20
-47.8795557627
      30
0
      10
211.167648664467
      20
-48.4415931224667
      30
0
      10
211.664208978733
      20
-49.0036304822333
      30
0
      10
212.160769293
      20
-49.565667842
      30
0
      10
212.160769293
      20
-49.565667842
      30
0
      10
212.738343785667
      20
-50.0365698616333
      30
0
      10
213.315918278333
      20
-50.5074718812667
      30
0
      10
213.893492771
      20
-50.9783739009
      30
0
      10
213.893492771
      20
-50.9783739009
      30
0
      10
214.542601960733
      20
-51.3504118684333
      30
0
      10
215.191711150467
      20
-51.7224498359667
      30
0
      10
215.8408203402
      20
-52.0944878035
      30
0
      10
215.8408203402
      20
-52.0944878035
      30
0
      10
216.550810677567
      20
-52.36155562
      30
0
      10
217.260801014933
      20
-52.6286234365
      30
0
      10
217.9707913523
      20
-52.895691253
      30
0
      10
217.9707913523
      20
-52.895691253
      30
0
      10
218.7300100718
      20
-53.0534056495667
      30
0
      10
219.4892287913
      20
-53.2111200461333
      30
0
      10
220.2484475108
      20
-53.3688344427
      30
0
      10
220.2484475108
      20
-53.3688344427
      30
0
      10
221.044433882667
      20
-53.4146069208
      30
0
      10
221.840420254533
      20
-53.4603793989
      30
0
      10
222.6364066264
      20
-53.506151877
      30
0
      10
222.6364066264
      20
-53.506151877
      30
0
      10
223.456096469267
      20
-53.4392311927
      30
0
      10
224.275786312133
      20
-53.3723105084
      30
0
      10
225.095476155
      20
-53.3053898241
      30
0
      10
225.095476155
      20
-53.3053898241
      30
0
      10
225.925416252667
      20
-53.1268743178
      30
0
      10
226.755356350333
      20
-52.9483588115
      30
0
      10
227.585296448
      20
-52.7698433052
      30
0
      10
227.585296448
      20
-52.7698433052
      30
0
      10
227.585296448
      20
-49.8348813990333
      30
0
      10
227.585296448
      20
-46.8999194928667
      30
0
      10
227.585296448
      20
-43.9649575867
      30
0
      10
227.58529644801
      20
-43.9649575867411
      30
0
      10
224.871942471704
      20
-45.0816950713189
      30
0
      10
222.13472188608
      20
-45.2917355338581
      30
0
      10
219.946280488955
      20
-44.6682302944394
      30
0
      10
219.946280488955
      20
-44.6682302944394
      30
0
      10
217.049509148144
      20
-43.8531103442958
      30
0
      10
215.047006569825
      20
-41.6865701588788
      30
0
      10
214.394959557687
      20
-38.5811939965085
      30
0
      10
214.394959557687
      20
-38.5811939965085
      30
0
      10
213.898220388568
      20
-36.2406694353048
      30
0
      10
214.25033980553
      20
-33.3729187258778
      30
0
      10
215.473468313669
      20
-30.6001205398815
      30
0
      10
215.473468313669
      20
-30.6001205398815
      30
0
      10
216.775438273671
      20
-27.6034766015047
      30
0
      10
219.083468346062
      20
-24.7636935757438
      30
0
      10
221.826797177881
      20
-22.8000747087693
      30
0
      10
221.826797177881
      20
-22.8000747087693
      30
0
      10
223.650062721936
      20
-21.484260057493
      30
0
      10
225.650418593584
      20
-20.5530822322812
      30
0
      10
227.58529644801
      20
-20.0948996246698
      30
0
      10
227.58529644801
      20
-20.0948996246698
      30
0
      10
227.585296448006
      20
-17.6427996129798
      30
0
      10
227.585296448003
      20
-15.1906996012899
      30
0
      10
227.585296448
      20
-12.7385995896
      30
0
    1001
FS_CYPCUT
    1000
Channel
    1070
1
    1000
LeadIn
    1002
{
    1070
3
    1040
29.5
    1040
1.5707963267949
    1040
0.5
    1040
0.3
    1070
0
    1040
0.5
    1070
0
    1002
}
    1000
LeadOut
    1002
{
    1070
0
    1040
0
    1040
0.523598775598299
    1040
3
    1070
0
    1002
}
    1000
IsFill
    1070
0
    1000
PathStart
    1040
29.5
    1000
ToolCompensation
    1002
{
    1070
0
    1040
0
    1070
0
    1002
}
       0
SPLINE
       5
201A
     100
AcDbEntity
       8
1
     100
AcDbSpline
      70
0
      71
3
      72
92
      73
88
      74
0
      40
0
      40
0
      40
0
      40
0
      40
0.0454545454545455
      40
0.0454545454545455
      40
0.0454545454545455
      40
0.0454545454545455
      40
0.0909090909090909
      40
0.0909090909090909
      40
0.0909090909090909
      40
0.0909090909090909
      40
0.136363636363636
      40
0.136363636363636
      40
0.136363636363636
      40
0.136363636363636
      40
0.181818181818182
      40
0.181818181818182
      40
0.181818181818182
      40
0.181818181818182
      40
0.227272727272727
      40
0.227272727272727
      40
0.227272727272727
      40
0.227272727272727
      40
0.272727272727273
      40
0.272727272727273
      40
0.272727272727273
      40
0.272727272727273
      40
0.318181818181818
      40
0.318181818181818
      40
0.318181818181818
      40
0.318181818181818
      40
0.363636363636364
      40
0.363636363636364
      40
0.363636363636364
      40
0.363636363636364
      40
0.409090909090909
      40
0.409090909090909
      40
0.409090909090909
      40
0.409090909090909
      40
0.454545454545455
      40
0.454545454545455
      40
0.454545454545455
      40
0.454545454545455
      40
0.5
      40
0.5
      40
0.5
      40
0.5
      40
0.545454545454545
      40
0.545454545454545
      40
0.545454545454545
      40
0.545454545454545
      40
0.590909090909091
      40
0.590909090909091
      40
0.590909090909091
      40
0.590909090909091
      40
0.636363636363636
      40
0.636363636363636
      40
0.636363636363636
      40
0.636363636363636
      40
0.681818181818182
      40
0.681818181818182
      40
0.681818181818182
      40
0.681818181818182
      40
0.727272727272727
      40
0.727272727272727
      40
0.727272727272727
      40
0.727272727272727
      40
0.772727272727273
      40
0.772727272727273
      40
0.772727272727273
      40
0.772727272727273
      40
0.818181818181818
      40
0.818181818181818
      40
0.818181818181818
      40
0.818181818181818
      40
0.863636363636364
      40
0.863636363636364
      40
0.863636363636364
      40
0.863636363636364
      40
0.909090909090909
      40
0.909090909090909
      40
0.909090909090909
      40
0.909090909090909
      40
0.954545454545455
      40
0.954545454545455
      40
0.954545454545455
      40
0.954545454545455
      40
1
      40
1
      40
1
      40
1
      10
246.4140789974
      20
-28.0756776497
      30
0
      10
246.4140789974
      20
-36.6397012218333
      30
0
      10
246.4140789974
      20
-45.2037247939667
      30
0
      10
246.4140789974
      20
-53.7677483661
      30
0
      10
246.4140789974
      20
-53.7677483661
      30
0
      10
244.1428876057
      20
-53.7677483661
      30
0
      10
241.871696214
      20
-53.7677483661
      30
0
      10
239.6005048223
      20
-53.7677483661
      30
0
      10
239.6005048223
      20
-53.7677483661
      30
0
      10
239.6005048223
      20
-50.8430965476667
      30
0
      10
239.6005048223
      20
-47.9184447292333
      30
0
      10
239.6005048223
      20
-44.9937929108
      30
0
      10
239.60050482226
      20
-44.9937929108165
      30
0
      10
238.357102803228
      20
-46.4134476803952
      30
0
      10
236.965914299959
      20
-47.696533328001
      30
0
      10
235.450530793868
      20
-48.8212915576605
      30
0
      10
235.450530793868
      20
-48.8212915576605
      30
0
      10
233.935147287777
      20
-49.9460497873199
      30
0
      10
232.30418332478
      20
-50.9060866523022
      30
0
      10
230.585296448
      20
-51.6851220498
      30
0
      10
230.585296448
      20
-51.6851220498
      30
0
      10
230.585296448
      20
-48.5790437023
      30
0
      10
230.585296448
      20
-45.4729653548
      30
0
      10
230.585296448
      20
-42.3668870073
      30
0
      10
230.585296448009
      20
-42.3668870072695
      30
0
      10
232.979512480809
      20
-40.7845019831181
      30
0
      10
235.104255321261
      20
-38.5370220246285
      30
0
      10
236.559366229621
      20
-36.0469921826985
      30
0
      10
236.559366229621
      20
-36.0469921826985
      30
0
      10
238.073136303255
      20
-33.4798740110287
      30
0
      10
238.857743559222
      20
-30.6749501229199
      30
0
      10
238.817208707138
      20
-28.2089373624304
      30
0
      10
238.817208707138
      20
-28.2089373624304
      30
0
      10
238.785971907585
      20
-25.732953980524
      30
0
      10
237.96192806305
      20
-23.6320477704634
      30
0
      10
236.568383471071
      20
-22.1745668025651
      30
0
      10
236.568383471071
      20
-22.1745668025651
      30
0
      10
235.136342569163
      20
-20.6664430814228
      30
0
      10
233.058472418464
      20
-19.7856187858803
      30
0
      10
230.585296448009
      20
-19.7494990862957
      30
0
      10
230.585296448
      20
-19.7494990863
      30
0
      10
230.585296448
      20
-17.2771497476333
      30
0
      10
230.585296448
      20
-14.8048004089667
      30
0
      10
230.585296448
      20
-12.3324510703
      30
0
      10
230.585296448
      20
-12.3324510703
      30
0
      10
231.374792487967
      20
-12.3438530936333
      30
0
      10
232.164288527933
      20
-12.3552551169667
      30
0
      10
232.9537845679
      20
-12.3666571403
      30
0
      10
232.9537845679
      20
-12.3666571403
      30
0
      10
233.7117545738
      20
-12.4862628144667
      30
0
      10
234.4697245797
      20
-12.6058684886333
      30
0
      10
235.2276945856
      20
-12.7254741628
      30
0
      10
235.2276945856
      20
-12.7254741628
      30
0
      10
235.942160113833
      20
-12.9513933209
      30
0
      10
236.656625642067
      20
-13.177312479
      30
0
      10
237.3710911703
      20
-13.4032316371
      30
0
      10
237.3710911703
      20
-13.4032316371
      30
0
      10
238.030761292433
      20
-13.7318940060333
      30
0
      10
238.690431414567
      20
-14.0605563749667
      30
0
      10
239.3501015367
      20
-14.3892187439
      30
0
      10
239.3501015367
      20
-14.3892187439
      30
0
      10
239.944551273833
      20
-14.8154303666333
      30
0
      10
240.539001010967
      20
-15.2416419893667
      30
0
      10
241.1334507481
      20
-15.6678536121
      30
0
      10
241.1334507481
      20
-15.6678536121
      30
0
      10
241.653285819933
      20
-16.1848789294
      30
0
      10
242.173120891767
      20
-16.7019042467
      30
0
      10
242.6929559636
      20
-17.218929564
      30
0
      10
242.6929559636
      20
-17.218929564
      30
0
      10
243.129961249467
      20
-17.8185978586
      30
0
      10
243.566966535333
      20
-18.4182661532
      30
0
      10
244.0039718212
      20
-19.0179344478
      30
0
      10
244.0039718212
      20
-19.0179344478
      30
0
      10
244.351241186067
      20
-19.6907689688667
      30
0
      10
244.698510550933
      20
-20.3636034899333
      30
0
      10
245.0457799158
      20
-21.036438011
      30
0
      10
245.0457799158
      20
-21.036438011
      30
0
      10
245.2978253503
      20
-21.7718057383667
      30
0
      10
245.5498707848
      20
-22.5071734657333
      30
0
      10
245.8019162193
      20
-23.2425411931
      30
0
      10
245.8019162193
      20
-23.2425411931
      30
0
      10
245.954754568433
      20
-24.0288208742667
      30
0
      10
246.107592917567
      20
-24.8151005554333
      30
0
      10
246.2604312667
      20
-25.6013802366
      30
0
      10
246.2604312667
      20
-25.6013802366
      30
0
      10
246.311647176933
      20
-26.4261460409667
      30
0
      10
246.362863087167
      20
-27.2509118453333
      30
0
      10
246.4140789974
      20
-28.0756776497
      30
0
    1001
FS_CYPCUT
    1000
Channel
    1070
1
    1000
LeadIn
    1002
{
    1070
3
    1040
0.5
    1040
1.5707963267949
    1040
0.5
    1040
0.3
    1070
0
    1040
0.5
    1070
0
    1002
}
    1000
LeadOut
    1002
{
    1070
0
    1040
0
    1040
0.523598775598299
    1040
3
    1070
0
    1002
}
    1000
IsFill
    1070
0
    1000
PathStart
    1040
0.5
    1000
ToolCompensation
    1002
{
    1070
0
    1040
0
    1070
0
    1002
}
       0
LWPOLYLINE
       5
201B
     100
AcDbEntity
       8
1
     100
AcDbPolyline
      90
4
      70
1
      10
395
      20
128.2045569766
      42
0.999999999999993
      10
387
      20
128.2045569766
      42
0
      10
387
      20
118.2045569766
      42
0.999999999999993
      10
395
      20
118.2045569766
      42
0
    1001
FS_CYPCUT
    1000
Channel
    1070
1
    1000
LeadIn
    1002
{
    1070
3
    1040
1.5
    1040
1.5707963267949
    1040
0.5
    1040
0.3
    1070
0
    1040
0.5
    1070
0
    1002
}
    1000
LeadOut
    1002
{
    1070
0
    1040
0
    1040
0.523598775598299
    1040
3
    1070
0
    1002
}
    1000
IsFill
    1070
0
    1000
PathStart
    1040
1.5
    1000
ToolCompensation
    1002
{
    1070
0
    1040
0
    1070
0
    1002
}
       0
CIRCLE
       5
201C
     100
AcDbEntity
       8
1
     100
AcDbCircle
      10
429
      20
72
      30
0
      40
3.49999999999989
    1001
FS_CYPCUT
    1000
Channel
    1070
1
    1000
LeadIn
    1002
{
    1070
3
    1040
4.44089209850063E-16
    1040
1.5707963267949
    1040
0.5
    1040
0.3
    1070
0
    1040
0.5
    1070
0
    1002
}
    1000
LeadOut
    1002
{
    1070
0
    1040
0
    1040
0.523598775598299
    1040
3
    1070
0
    1002
}
    1000
IsFill
    1070
0
    1000
PathStart
    1040
4.44089209850063E-16
    1000
ToolCompensation
    1002
{
    1070
0
    1040
0
    1070
0
    1002
}
       0
LINE
       5
201D
     100
AcDbEntity
       8
2
     100
AcDbLine
      10
549
      20
-88.593168857
      30
0
      11
699
      21
-88.593168857
      31
0
    1001
FS_CYPCUT
    1000
Channel
    1070
2
    1000
LeadIn
    1002
{
    1070
3
    1040
0
    1040
1.5707963267949
    1040
0.5
    1040
0.3
    1070
0
    1040
0.5
    1070
0
    1002
}
    1000
LeadOut
    1002
{
    1070
0
    1040
0
    1040
0.523598775598299
    1040
3
    1070
0
    1002
}
    1000
IsFill
    1070
0
    1000
PathStart
    1040
0
    1000
ToolCompensation
    1002
{
    1070
0
    1040
0
    1070
0
    1002
}
       0
LINE
       5
201E
     100
AcDbEntity
       8
2
     100
AcDbLine
      10
699
      20
-111.4445905589
      30
0
      11
549
      21
-111.4445905589
      31
0
    1001
FS_CYPCUT
    1000
Channel
    1070
2
    1000
LeadIn
    1002
{
    1070
3
    1040
0
    1040
1.5707963267949
    1040
0.5
    1040
0.3
    1070
0
    1040
0.5
    1070
0
    1002
}
    1000
LeadOut
    1002
{
    1070
0
    1040
0
    1040
0.523598775598299
    1040
3
    1070
0
    1002
}
    1000
IsFill
    1070
0
    1000
PathStart
    1040
0
    1000
ToolCompensation
    1002
{
    1070
0
    1040
0
    1070
0
    1002
}
       0
CIRCLE
       5
201F
     100
AcDbEntity
       8
1
     100
AcDbCircle
      10
624
      20
-126.7028434038
      30
0
      40
3.74999999999992
    1001
FS_CYPCUT
    1000
Channel
    1070
1
    1000
LeadIn
    1002
{
    1070
3
    1040
0
    1040
1.5707963267949
    1040
0.5
    1040
0.3
    1070
0
    1040
0.5
    1070
0
    1002
}
    1000
LeadOut
    1002
{
    1070
0
    1040
0
    1040
0.523598775598299
    1040
3
    1070
0
    1002
}
    1000
IsFill
    1070
0
    1000
PathStart
    1040
0.999999999999998
    1000
ToolCompensation
    1002
{
    1070
0
    1040
0
    1070
0
    1002
}
       0
LWPOLYLINE
       5
2020
     100
AcDbEntity
       8
1
     100
AcDbPolyline
      90
35
      70
1
      10
699
      20
198.7045569766
      42
0
      10
699
      20
-131.7028434038
      42
-0.414213562373089
      10
694
      20
-136.7028434038
      42
0
      10
554
      20
-136.7028434038
      42
-0.414213562373085
      10
549
      20
-131.7028434038
      42
0
      10
549
      20
-84.8450791018
      42
0.414213562373112
      10
544
      20
-79.8450791017998
      42
0
      10
95
      20
-79.8450791018
      42
0.414213562373092
      10
90
      20
-84.8450791018
      42
0
      10
90
      20
-131.7028434038
      42
-0.414213562373094
      10
85
      20
-136.7028434038
      42
0
      10
-55
      20
-136.7028434038
      42
-0.4142135623731
      10
-60
      20
-131.7028434038
      42
0
      10
-60
      20
-84.8450791018
      42
0.414213562373099
      10
-65
      20
-79.8450791018
      42
0
      10
-514
      20
-79.8450791018
      42
0.41421356237309
      10
-519
      20
-84.8450791018
      42
0
      10
-519
      20
-131.7028434038
      42
-0.41421356237312
      10
-524
      20
-136.7028434038
      42
0
      10
-664
      20
-136.7028434038
      42
-0.414213562373082
      10
-669
      20
-131.7028434038
      42
0
      10
-669
      20
-64.8450791018
      42
0.41421356237312
      10
-674
      20
-59.8450791018
      42
0
      10
-694
      20
-59.8450791018
      42
-0.414213562373121
      10
-699
      20
-54.8450791018
      42
0
      10
-699
      20
193.7045569766
      42
-0.414213562373095
      10
-694
      20
198.7045569766
      42
0
      10
481.5
      20
198.7045569766
      42
-0.414213562373105
      10
486.5
      20
193.7045569766
      42
0
      10
486.5
      20
152.2045569766
      42
0.414213562373095
      10
487.5
      20
151.2045569766
      42
0
      10
544
      20
151.2045569766
      42
0.41421356237312
      10
545
      20
152.2045569766
      42
0
      10
545
      20
193.7045569766
      42
-0.414213562373067
      10
550
      20
198.7045569766
      42
0
    1001
FS_CYPCUT
    1000
Channel
    1070
1
    1000
LeadIn
    1002
{
    1070
3
    1040
26.5003569918312
    1040
1.5707963267949
    1040
0.5
    1040
0.3
    1070
0
    1040
0.5
    1070
0
    1002
}
    1000
LeadOut
    1002
{
    1070
0
    1040
0
    1040
0.523598775598299
    1040
3
    1070
0
    1002
}
    1000
IsFill
    1070
1
    1000
PathStart
    1040
26.5
    1000
ToolCompensation
    1002
{
    1070
0
    1040
0
    1070
0
    1002
}
    1000
MicroConnect
    1002
{
    1070
6
    1040
2.53663523395008
    1041
0.6
    1042
0
    1040
10.4820217493113
    1041
0.6
    1042
0
    1040
18.4824978811285
    1041
0.6
    1042
0
    1040
26.1770337717834
    1041
0.6
    1042
0
    1040
26.4998465707338
    1041
0.6
    1042
0
    1040
34.4994127300308
    1041
0.6
    1042
0
    1002
}
       0
ENDSEC
  0
SECTION
  2
OBJECTS
  0
DICTIONARY
  5
111
330
0
100
AcDbDictionary
281
     1
  3
ACAD_COLOR
350
120
  3
ACAD_GROUP
350
112
  3
ACAD_LAYOUT
350
11E
  3
ACAD_MATERIAL
350
11F
  3
ACAD_MLINESTYLE
350
11B
  3
ACAD_PLOTSETTINGS
350
11D
  3
ACAD_PLOTSTYLENAME
350
113
  3
ACAD_TABLESTYLE
350
121
  3
AcDbVariableDictionary
350
135
  0
DICTIONARY
  5
120
102
{ACAD_REACTORS
330
111
102
}
330
111
100
AcDbDictionary
281
     1
  0
DICTIONARY
  5
112
102
{ACAD_REACTORS
330
111
102
}
330
111
100
AcDbDictionary
281
     1
  0
DICTIONARY
  5
11E
102
{ACAD_REACTORS
330
111
102
}
330
111
100
AcDbDictionary
281
     1
  3
Model
350
12A
  3
布局1
350
126
  0
DICTIONARY
  5
11F
102
{ACAD_REACTORS
330
111
102
}
330
111
100
AcDbDictionary
281
     1
  0
DICTIONARY
  5
11B
102
{ACAD_REACTORS
330
111
102
}
330
111
100
AcDbDictionary
281
     1
  3
Standard
350
11C
  0
DICTIONARY
  5
11D
102
{ACAD_REACTORS
330
111
102
}
330
111
100
AcDbDictionary
281
     1
  0
ACDBDICTIONARYWDFLT
  5
113
102
{ACAD_REACTORS
330
111
102
}
330
111
100
AcDbDictionary
281
     1
  3
Normal
350
114
100
AcDbDictionaryWithDefault
340
114
  0
DICTIONARY
  5
121
102
{ACAD_REACTORS
330
111
102
}
330
111
100
AcDbDictionary
281
     1
  3
Standard
350
122
  0
DICTIONARY
  5
135
102
{ACAD_REACTORS
330
111
102
}
330
111
100
AcDbDictionary
281
     1
  3
CTABLESTYLE
350
136
  0
LAYOUT
  5
12A
102
{ACAD_REACTORS
330
11E
102
}
330
11E
100
AcDbPlotSettings
  1

  2
发送至 OneNote 2010
  4

  6

 40
0.0
 41
0.0
 42
0.0
 43
0.0
 44
0.0
 45
0.0
 46
0.0
 47
0.0
 48
0.0
 49
0.0
140
0.0
141
0.0
142
1.0
143
1.0
 70
  1712
 72
     0
 73
     0
 74
     0
  7

 75
     0
147
1.0
 76
     0
 77
     2
 78
   300
148
0.0
149
0.0
100
AcDbLayout
  1
Model
 70
     1
 71
     0
 10
0.0
 20
0.0
 11
12.0
 21
9.0
 12
0.0
 22
0.0
 32
0.0
 14
0.0
 24
0.0
 34
0.0
 15
0.0
 25
0.0
 35
0.0
146
0.0
 13
0.0
 23
0.0
 33
0.0
 16
1.0
 26
0.0
 36
0.0
 17
0.0
 27
1.0
 37
0.0
 76
     0
330
127
  0
LAYOUT
  5
126
102
{ACAD_REACTORS
330
11E
102
}
330
11E
100
AcDbPlotSettings
  1

  2
发送至 OneNote 2010
  4

  6

 40
0.0
 41
0.0
 42
0.0
 43
0.0
 44
0.0
 45
0.0
 46
0.0
 47
0.0
 48
0.0
 49
0.0
140
0.0
141
0.0
142
1.0
143
1.0
 70
   688
 72
     0
 73
     0
 74
     5
  7

 75
    16
147
1.0
 76
     0
 77
     2
 78
   300
148
0.0
149
0.0
100
AcDbLayout
  1
布局1
 70
     1
 71
     1
 10
0.0
 20
0.0
 11
12.0
 21
9.0
 12
0.0
 22
0.0
 32
0.0
 14
0.0
 24
0.0
 34
0.0
 15
0.0
 25
0.0
 35
0.0
146
0.0
 13
0.0
 23
0.0
 33
0.0
 16
1.0
 26
0.0
 36
0.0
 17
0.0
 27
1.0
 37
0.0
 76
     0
330
123
  0
MLINESTYLE
  5
11C
102
{ACAD_REACTORS
330
11B
102
}
330
11B
100
AcDbMlineStyle
  2
STANDARD
 70
     0
  3

 62
   256
 51
90.0
 52
90.0
 71
     2
 49
0.5
 62
   256
  6
BYLAYER
 49
-0.5
 62
   256
  6
BYLAYER
  0
ACDBPLACEHOLDER
  5
114
102
{ACAD_REACTORS
330
113
102
}
330
113
  0
TABLESTYLE
  5
122
102
{ACAD_REACTORS
330
121
102
}
330
121
100
AcDbTableStyle
  3
Standard
 70
     0
 71
     0
 40
0.06
 41
0.06
280
     0
281
     0
  7
STANDARD
140
0.18
170
     2
 62
     0
 63
     7
283
     0
274
    -2
284
     1
 64
     0
275
    -2
285
     1
 65
     0
276
    -2
286
     1
 66
     0
277
    -2
287
     1
 67
     0
278
    -2
288
     1
 68
     0
279
    -2
289
     1
 69
     0
  7
STANDARD
140
0.25
170
     5
 62
     0
 63
     7
283
     0
274
    -2
284
     1
 64
     0
275
    -2
285
     1
 65
     0
276
    -2
286
     1
 66
     0
277
    -2
287
     1
 67
     0
278
    -2
288
     1
 68
     0
279
    -2
289
     1
 69
     0
  7
STANDARD
140
0.18
170
     5
 62
     0
 63
     7
283
     0
274
    -2
284
     1
 64
     0
275
    -2
285
     1
 65
     0
276
    -2
286
     1
 66
     0
277
    -2
287
     1
 67
     0
278
    -2
288
     1
 68
     0
279
    -2
289
     1
 69
     0
  0
DICTIONARYVAR
  5
136
102
{ACAD_REACTORS
330
135
102
}
330
135
100
DictionaryVariables
280
     0
  1
STANDARD
  0
ENDSEC
  0
EOF
