  0
SECTION
  2
HEADER
  9
$ACADVER
  1
AC1018
  9
$ACADMAINTVER
 70
    77
  9
$DWGCODEPAGE
  3
ANSI_936
  9
$INSBASE
 10
0.0
 20
0.0
 30
0.0
  9
$EXTMIN
 10
-283.6292074651
 20
-144.542189297
 30
0.0
  9
$EXTMAX
 10
283.6292074651
 20
70.1971535276
 30
0.0
  9
$LIMMIN
 10
0.0
 20
0.0
  9
$LIMMAX
 10
420.0
 20
297.0
  9
$ORTHOMODE
 70
     0
  9
$REGENMODE
 70
     1
  9
$FILLMODE
 70
     1
  9
$QTEXTMODE
 70
     0
  9
$MIRRTEXT
 70
     0
  9
$LTSCALE
 40
1.0
  9
$ATTMODE
 70
     1
  9
$TEXTSIZE
 40
2.5
  9
$TRACEWID
 40
1.0
  9
$TEXTSTYLE
  7
STANDARD
  9
$CLAYER
  8
0
  9
$CELTYPE
  6
ByLayer
  9
$CECOLOR
 62
   256
  9
$CELTSCALE
 40
1.0
  9
$DISPSILH
 70
     0
  9
$DIMSCALE
 40
1.0
  9
$DIMASZ
 40
2.5
  9
$DIMEXO
 40
0.625
  9
$DIMDLI
 40
3.75
  9
$DIMRND
 40
0.0
  9
$DIMDLE
 40
0.0
  9
$DIMEXE
 40
1.25
  9
$DIMTP
 40
0.0
  9
$DIMTM
 40
0.0
  9
$DIMTXT
 40
2.5
  9
$DIMCEN
 40
2.5
  9
$DIMTSZ
 40
0.0
  9
$DIMTOL
 70
     0
  9
$DIMLIM
 70
     0
  9
$DIMTIH
 70
     0
  9
$DIMTOH
 70
     0
  9
$DIMSE1
 70
     0
  9
$DIMSE2
 70
     0
  9
$DIMTAD
 70
     1
  9
$DIMZIN
 70
     8
  9
$DIMBLK
  1

  9
$DIMASO
 70
     1
  9
$DIMSHO
 70
     1
  9
$DIMPOST
  1

  9
$DIMAPOST
  1

  9
$DIMALT
 70
     0
  9
$DIMALTD
 70
     3
  9
$DIMALTF
 40
0.03937007874016
  9
$DIMLFAC
 40
1.0
  9
$DIMTOFL
 70
     1
  9
$DIMTVP
 40
0.0
  9
$DIMTIX
 70
     0
  9
$DIMSOXD
 70
     0
  9
$DIMSAH
 70
     0
  9
$DIMBLK1
  1

  9
$DIMBLK2
  1

  9
$DIMSTYLE
  2
ISO-25
  9
$DIMCLRD
 70
     0
  9
$DIMCLRE
 70
     0
  9
$DIMCLRT
 70
     0
  9
$DIMTFAC
 40
1.0
  9
$DIMGAP
 40
0.625
  9
$DIMJUST
 70
     0
  9
$DIMSD1
 70
     0
  9
$DIMSD2
 70
     0
  9
$DIMTOLJ
 70
     1
  9
$DIMTZIN
 70
     0
  9
$DIMALTZ
 70
     0
  9
$DIMALTTZ
 70
     0
  9
$DIMUPT
 70
     0
  9
$DIMDEC
 70
     4
  9
$DIMTDEC
 70
     4
  9
$DIMALTU
 70
     2
  9
$DIMALTTD
 70
     2
  9
$DIMTXSTY
  7
STANDARD
  9
$DIMAUNIT
 70
     0
  9
$DIMADEC
 70
     0
  9
$DIMALTRND
 40
0.0
  9
$DIMAZIN
 70
     0
  9
$DIMDSEP
 70
    46
  9
$DIMATFIT
 70
     3
  9
$DIMFRAC
 70
     0
  9
$DIMLDRBLK
  1

  9
$DIMLUNIT
 70
     2
  9
$DIMLWD
 70
    -2
  9
$DIMLWE
 70
    -2
  9
$DIMTMOVE
 70
     0
  9
$LUNITS
 70
     2
  9
$LUPREC
 70
     4
  9
$SKETCHINC
 40
1.0
  9
$FILLETRAD
 40
0.0
  9
$AUNITS
 70
     0
  9
$AUPREC
 70
     0
  9
$MENU
  1
.
  9
$ELEVATION
 40
0.0
  9
$PELEVATION
 40
0.0
  9
$THICKNESS
 40
0.0
  9
$LIMCHECK
 70
     0
  9
$CHAMFERA
 40
0.0
  9
$CHAMFERB
 40
0.0
  9
$CHAMFERC
 40
0.0
  9
$CHAMFERD
 40
0.0
  9
$SKPOLY
 70
     0
  9
$TDCREATE
 40
2456997.676706910
  9
$TDUCREATE
 40
2456997.343373576
  9
$TDUPDATE
 40
2456997.680113438
  9
$TDUUPDATE
 40
2456997.346780104
  9
$TDINDWG
 40
0.0010312963
  9
$TDUSRTIMER
 40
0.0010311806
  9
$USRTIMER
 70
     1
  9
$ANGBASE
 50
0.0
  9
$ANGDIR
 70
     0
  9
$PDMODE
 70
     0
  9
$PDSIZE
 40
0.0
  9
$PLINEWID
 40
0.0
  9
$SPLFRAME
 70
     0
  9
$SPLINETYPE
 70
     6
  9
$SPLINESEGS
 70
     8
  9
$HANDSEED
  5
2453
  9
$SURFTAB1
 70
     6
  9
$SURFTAB2
 70
     6
  9
$SURFTYPE
 70
     6
  9
$SURFU
 70
     6
  9
$SURFV
 70
     6
  9
$UCSBASE
  2

  9
$UCSNAME
  2

  9
$UCSORG
 10
0.0
 20
0.0
 30
0.0
  9
$UCSXDIR
 10
1.0
 20
0.0
 30
0.0
  9
$UCSYDIR
 10
0.0
 20
1.0
 30
0.0
  9
$UCSORTHOREF
  2

  9
$UCSORTHOVIEW
 70
     0
  9
$UCSORGTOP
 10
0.0
 20
0.0
 30
0.0
  9
$UCSORGBOTTOM
 10
0.0
 20
0.0
 30
0.0
  9
$UCSORGLEFT
 10
0.0
 20
0.0
 30
0.0
  9
$UCSORGRIGHT
 10
0.0
 20
0.0
 30
0.0
  9
$UCSORGFRONT
 10
0.0
 20
0.0
 30
0.0
  9
$UCSORGBACK
 10
0.0
 20
0.0
 30
0.0
  9
$PUCSBASE
  2

  9
$PUCSNAME
  2

  9
$PUCSORG
 10
0.0
 20
0.0
 30
0.0
  9
$PUCSXDIR
 10
1.0
 20
0.0
 30
0.0
  9
$PUCSYDIR
 10
0.0
 20
1.0
 30
0.0
  9
$PUCSORTHOREF
  2

  9
$PUCSORTHOVIEW
 70
     0
  9
$PUCSORGTOP
 10
0.0
 20
0.0
 30
0.0
  9
$PUCSORGBOTTOM
 10
0.0
 20
0.0
 30
0.0
  9
$PUCSORGLEFT
 10
0.0
 20
0.0
 30
0.0
  9
$PUCSORGRIGHT
 10
0.0
 20
0.0
 30
0.0
  9
$PUCSORGFRONT
 10
0.0
 20
0.0
 30
0.0
  9
$PUCSORGBACK
 10
0.0
 20
0.0
 30
0.0
  9
$USERI1
 70
     0
  9
$USERI2
 70
     0
  9
$USERI3
 70
     0
  9
$USERI4
 70
     0
  9
$USERI5
 70
     0
  9
$USERR1
 40
0.0
  9
$USERR2
 40
0.0
  9
$USERR3
 40
0.0
  9
$USERR4
 40
0.0
  9
$USERR5
 40
0.0
  9
$WORLDVIEW
 70
     1
  9
$SHADEDGE
 70
     3
  9
$SHADEDIF
 70
    70
  9
$TILEMODE
 70
     1
  9
$MAXACTVP
 70
    64
  9
$PINSBASE
 10
0.0
 20
0.0
 30
0.0
  9
$PLIMCHECK
 70
     0
  9
$PEXTMIN
 10
0.0
 20
0.0
 30
0.0
  9
$PEXTMAX
 10
0.0
 20
0.0
 30
0.0
  9
$PLIMMIN
 10
0.0
 20
0.0
  9
$PLIMMAX
 10
12.0
 20
9.0
  9
$UNITMODE
 70
     0
  9
$VISRETAIN
 70
     1
  9
$PLINEGEN
 70
     0
  9
$PSLTSCALE
 70
     1
  9
$TREEDEPTH
 70
  3020
  9
$CMLSTYLE
  2
Standard
  9
$CMLJUST
 70
     0
  9
$CMLSCALE
 40
1.0
  9
$PROXYGRAPHICS
 70
     1
  9
$MEASUREMENT
 70
     1
  9
$CELWEIGHT
370
    -1
  9
$ENDCAPS
280
     0
  9
$JOINSTYLE
280
     0
  9
$LWDISPLAY
290
     0
  9
$INSUNITS
 70
     0
  9
$HYPERLINKBASE
  1

  9
$STYLESHEET
  1

  9
$XEDIT
290
     1
  9
$CEPSNTYPE
380
     0
  9
$PSTYLEMODE
290
     1
  9
$FINGERPRINTGUID
  2
{1F2D6530-6BF2-4D5E-922F-A9C54F637010}
  9
$VERSIONGUID
  2
{15AD9CB5-51D1-451C-B472-5DB36EFAD6AD}
  9
$EXTNAMES
290
     1
  9
$PSVPSCALE
 40
0.0
  9
$OLESTARTUP
290
     0
  9
$SORTENTS
280
   127
  9
$INDEXCTL
280
     0
  9
$HIDETEXT
280
     0
  9
$XCLIPFRAME
290
     0
  9
$HALOGAP
280
     0
  9
$OBSCOLOR
 70
   257
  9
$OBSLTYPE
280
     0
  9
$INTERSECTIONDISPLAY
280
     0
  9
$INTERSECTIONCOLOR
 70
   257
  9
$DIMASSOC
280
     1
  9
$PROJECTNAME
  1

  0
ENDSEC
  0
SECTION
  2
CLASSES
  0
CLASS
  1
ACDBDICTIONARYWDFLT
  2
AcDbDictionaryWithDefault
  3
ObjectDBX Classes
 90
        0
 91
        1
280
     0
281
     0
  0
CLASS
  1
TABLESTYLE
  2
AcDbTableStyle
  3
ObjectDBX Classes
 90
     2047
 91
        1
280
     0
281
     0
  0
CLASS
  1
DICTIONARYVAR
  2
AcDbDictionaryVar
  3
ObjectDBX Classes
 90
        0
 91
        1
280
     0
281
     0
  0
ENDSEC
  0
SECTION
  2
TABLES
  0
TABLE
  2
VPORT
  5
10D
330
0
100
AcDbSymbolTable
 70
     2
  0
VPORT
  5
137
330
10D
100
AcDbSymbolTableRecord
100
AcDbViewportTableRecord
  2
*Active
 70
     0
 10
0.0
 20
0.0
 11
1.0
 21
1.0
 12
0
 22
-37.1725178847
 13
0.0
 23
0.0
 14
10.0
 24
10.0
 15
10.0
 25
10.0
 16
0.0
 26
0.0
 36
1.0
 17
0.0
 27
0.0
 37
0.0
 40
551.708552688342
 41
2.435135135135135
 42
50.0
 43
0.0
 44
0.0
 50
0.0
 51
0.0
 71
     0
 72
  1000
 73
     1
 74
     3
 75
     0
 76
     0
 77
     0
 78
     0
281
     0
 65
     1
110
0.0
120
0.0
130
0.0
111
1.0
121
0.0
131
0.0
112
0.0
122
1.0
132
0.0
 79
     0
146
0.0
  0
ENDTAB
  0
TABLE
  2
LTYPE
  5
10A
330
0
100
AcDbSymbolTable
 70
     1
  0
LTYPE
  5
118
330
10A
100
AcDbSymbolTableRecord
100
AcDbLinetypeTableRecord
  2
ByBlock
 70
     0
  3

 72
    65
 73
     0
 40
0.0
  0
LTYPE
  5
119
330
10A
100
AcDbSymbolTableRecord
100
AcDbLinetypeTableRecord
  2
ByLayer
 70
     0
  3

 72
    65
 73
     0
 40
0.0
  0
LTYPE
  5
11A
330
10A
100
AcDbSymbolTableRecord
100
AcDbLinetypeTableRecord
  2
CONTINUOUS
 70
     0
  3
Solid line
 72
    65
 73
     0
 40
0.0
  0
ENDTAB
  0
TABLE
  2
LAYER
  5
107
330
0
100
AcDbSymbolTable
 70
     1
  0
LAYER
  5
115
330
107
100
AcDbSymbolTableRecord
100
AcDbLayerTableRecord
  2
0
 70
     0
 62
     7
  6
CONTINUOUS
370
    -3
390
114
  0
ENDTAB
  0
TABLE
  2
STYLE
  5
108
330
0
100
AcDbSymbolTable
 70
     1
  0
STYLE
  5
116
330
108
100
AcDbSymbolTableRecord
100
AcDbTextStyleTableRecord
  2
STANDARD
 70
     0
 40
0.0
 41
1.0
 50
0.0
 71
     0
 42
2.5
  3
txt
  4
gbcbig.shx
  0
ENDTAB
  0
TABLE
  2
VIEW
  5
10B
330
0
100
AcDbSymbolTable
 70
     0
  0
ENDTAB
  0
TABLE
  2
UCS
  5
10C
330
0
100
AcDbSymbolTable
 70
     0
  0
ENDTAB
  0
TABLE
  2
APPID
  5
10E
330
0
100
AcDbSymbolTable
 70
     2
  0
APPID
  5
117
330
10E
100
AcDbSymbolTableRecord
100
AcDbRegAppTableRecord
  2
ACAD
 70
     0
  0
APPID
  5
12C
330
10E
100
AcDbSymbolTableRecord
100
AcDbRegAppTableRecord
  2
ACAD_PSEXT
 70
     0
  0
APPID
  5
112C
330
10E
100
AcDbSymbolTableRecord
100
AcDbRegAppTableRecord
  2
FS_CYPCUT
 70
     0
  0
ENDTAB
  0
TABLE
  2
DIMSTYLE
  5
10F
330
0
100
AcDbSymbolTable
 70
     1
100
AcDbDimStyleTable
 71
     0
  0
DIMSTYLE
105
12D
330
10F
100
AcDbSymbolTableRecord
100
AcDbDimStyleTableRecord
  2
ISO-25
 70
     0
 41
2.5
 42
0.625
 43
3.75
 44
1.25
 73
     0
 74
     0
 77
     1
 78
     8
140
2.5
141
2.5
143
0.03937007874016
147
0.625
171
     3
172
     1
274
     3
279
     2
284
     8
285
     8
286
     8
340
116
  0
ENDTAB
  0
TABLE
  2
BLOCK_RECORD
  5
106
330
0
100
AcDbSymbolTable
 70
     2
  0
BLOCK_RECORD
  5
127
330
106
100
AcDbSymbolTableRecord
100
AcDbBlockTableRecord
  2
*Model_Space
340
12A
  0
BLOCK_RECORD
  5
123
330
106
100
AcDbSymbolTableRecord
100
AcDbBlockTableRecord
  2
*Paper_Space
340
126
  0
BLOCK_RECORD
  5
130
330
106
100
AcDbSymbolTableRecord
100
AcDbBlockTableRecord
  2
$MODEL_SPACE
340
0
  0
BLOCK_RECORD
  5
132
330
106
100
AcDbSymbolTableRecord
100
AcDbBlockTableRecord
  2
$PAPER_SPACE
340
0
  0
ENDTAB
  0
ENDSEC
  0
SECTION
  2
BLOCKS
  0
BLOCK
  5
128
330
127
100
AcDbEntity
  8
0
100
AcDbBlockBegin
  2
*Model_Space
 70
     0
 10
0.0
 20
0.0
 30
0.0
  3
*Model_Space
  1

  0
ENDBLK
  5
129
330
127
100
AcDbEntity
  8
0
100
AcDbBlockEnd
  0
BLOCK
  5
124
330
123
100
AcDbEntity
 67
     1
  8
0
100
AcDbBlockBegin
  2
*Paper_Space
 70
     0
 10
0.0
 20
0.0
 30
0.0
  3
*Paper_Space
  1

  0
ENDBLK
  5
125
330
123
100
AcDbEntity
 67
     1
  8
0
100
AcDbBlockEnd
  0
BLOCK
  5
131
330
130
100
AcDbEntity
  8
0
100
AcDbBlockBegin
  2
$MODEL_SPACE
 70
     0
 10
0.0
 20
0.0
 30
0.0
  3
$MODEL_SPACE
  1

  0
ENDBLK
  5
21
330
130
100
AcDbEntity
  8
0
100
AcDbBlockEnd
  0
BLOCK
  5
133
330
132
100
AcDbEntity
  8
0
100
AcDbBlockBegin
  2
$PAPER_SPACE
 70
     0
 10
0.0
 20
0.0
 30
0.0
  3
$PAPER_SPACE
  1

  0
ENDBLK
  5
D5
330
132
100
AcDbEntity
  8
0
100
AcDbBlockEnd
       0
ENDSEC
       0
SECTION
       2
ENTITIES
       0
LINE
       5
2000
     100
AcDbEntity
       8
2
     100
AcDbLine
      10
-194.2084385498
      20
-144.4805875493
      30
0
      11
-187.4113037747
      21
62.5189047329
      31
0
    1001
FS_CYPCUT
    1000
Channel
    1070
2
    1000
LeadIn
    1002
{
    1070
3
    1040
0
    1040
1.5707963267949
    1040
0.5
    1040
0.5
    1070
0
    1040
0.5
    1070
0
    1002
}
    1000
LeadOut
    1002
{
    1070
0
    1040
0
    1040
0.523598775598299
    1040
2
    1070
0
    1002
}
    1000
IsFill
    1070
0
    1000
PathStart
    1040
0
    1000
ToolCompensation
    1002
{
    1070
0
    1040
0
    1070
0
    1002
}
       0
LINE
       5
2001
     100
AcDbEntity
       8
2
     100
AcDbLine
      10
-186.2905177017
      20
63.9368223792
      30
0
      11
-179.4269162246
      21
-123.481422469
      31
0
    1001
FS_CYPCUT
    1000
Channel
    1070
2
    1000
LeadIn
    1002
{
    1070
3
    1040
0
    1040
1.5707963267949
    1040
0.5
    1040
0.5
    1070
0
    1040
0.5
    1070
0
    1002
}
    1000
LeadOut
    1002
{
    1070
0
    1040
0
    1040
0.523598775598299
    1040
2
    1070
0
    1002
}
    1000
IsFill
    1070
0
    1000
PathStart
    1040
0
    1000
ToolCompensation
    1002
{
    1070
0
    1040
0
    1070
0
    1002
}
       0
LINE
       5
2002
     100
AcDbEntity
       8
2
     100
AcDbLine
      10
-162.7185075386
      20
-103.7480108046
      30
0
      11
-185.03439034
      21
65.2915868113
      31
0
    1001
FS_CYPCUT
    1000
Channel
    1070
2
    1000
LeadIn
    1002
{
    1070
3
    1040
0
    1040
1.5707963267949
    1040
0.0603641319902304
    1040
0.5
    1070
0
    1040
0.5
    1070
0
    1002
}
    1000
LeadOut
    1002
{
    1070
0
    1040
0
    1040
0.523598775598299
    1040
2
    1070
0
    1002
}
    1000
IsFill
    1070
0
    1000
PathStart
    1040
0
    1000
ToolCompensation
    1002
{
    1070
0
    1040
0
    1070
0
    1002
}
       0
LINE
       5
2003
     100
AcDbEntity
       8
2
     100
AcDbLine
      10
-183.6677957712
      20
66.5145336652
      30
0
      11
-143.9145997872
      21
-86.0178600327
      31
0
    1001
FS_CYPCUT
    1000
Channel
    1070
2
    1000
LeadIn
    1002
{
    1070
3
    1040
0
    1040
1.5707963267949
    1040
0.5
    1040
0.5
    1070
0
    1040
0.5
    1070
0
    1002
}
    1000
LeadOut
    1002
{
    1070
0
    1040
0
    1040
0.523598775598299
    1040
2
    1070
0
    1002
}
    1000
IsFill
    1070
0
    1000
PathStart
    1040
0
    1000
ToolCompensation
    1002
{
    1070
0
    1040
0
    1070
0
    1002
}
       0
LINE
       5
2004
     100
AcDbEntity
       8
2
     100
AcDbLine
      10
-123.0811085742
      20
-70.7360659595
      30
0
      11
-182.1822534444
      21
67.5764632483
      31
0
    1001
FS_CYPCUT
    1000
Channel
    1070
2
    1000
LeadIn
    1002
{
    1070
3
    1040
0
    1040
1.5707963267949
    1040
0.5
    1040
0.5
    1070
0
    1040
0.5
    1070
0
    1002
}
    1000
LeadOut
    1002
{
    1070
0
    1040
0
    1040
0.523598775598299
    1040
2
    1070
0
    1002
}
    1000
IsFill
    1070
0
    1000
PathStart
    1040
0
    1000
ToolCompensation
    1002
{
    1070
0
    1040
0
    1070
0
    1002
}
       0
LINE
       5
2005
     100
AcDbEntity
       8
2
     100
AcDbLine
      10
-180.585625618
      20
68.4572148441
      30
0
      11
-100.469911646
      21
-58.2391378119
      31
0
    1001
FS_CYPCUT
    1000
Channel
    1070
2
    1000
LeadIn
    1002
{
    1070
3
    1040
0
    1040
1.5707963267949
    1040
0.5
    1040
0.5
    1070
0
    1040
0.5
    1070
0
    1002
}
    1000
LeadOut
    1002
{
    1070
0
    1040
0
    1040
0.523598775598299
    1040
2
    1070
0
    1002
}
    1000
IsFill
    1070
0
    1000
PathStart
    1040
0
    1000
ToolCompensation
    1002
{
    1070
0
    1040
0
    1070
0
    1002
}
       0
LINE
       5
2006
     100
AcDbEntity
       8
2
     100
AcDbLine
      10
-76.4441152088
      20
-48.7367508157
      30
0
      11
-178.8953130567
      21
69.1463259314
      31
0
    1001
FS_CYPCUT
    1000
Channel
    1070
2
    1000
LeadIn
    1002
{
    1070
3
    1040
0
    1040
1.5707963267949
    1040
0.5
    1040
0.5
    1070
0
    1040
0.5
    1070
0
    1002
}
    1000
LeadOut
    1002
{
    1070
0
    1040
0
    1040
0.523598775598299
    1040
2
    1070
0
    1002
}
    1000
IsFill
    1070
0
    1000
PathStart
    1040
0
    1000
ToolCompensation
    1002
{
    1070
0
    1040
0
    1070
0
    1002
}
       0
LINE
       5
2007
     100
AcDbEntity
       8
2
     100
AcDbLine
      10
-177.1323922884
      20
69.6460459148
      30
0
      11
-51.4200298326
      21
-42.2817060469
      31
0
    1001
FS_CYPCUT
    1000
Channel
    1070
2
    1000
LeadIn
    1002
{
    1070
3
    1040
0
    1040
1.5707963267949
    1040
0.5
    1040
0.5
    1070
0
    1040
0.5
    1070
0
    1002
}
    1000
LeadOut
    1002
{
    1070
0
    1040
0
    1040
0.523598775598299
    1040
2
    1070
0
    1002
}
    1000
IsFill
    1070
0
    1000
PathStart
    1040
0
    1000
ToolCompensation
    1002
{
    1070
0
    1040
0
    1070
0
    1002
}
       0
LINE
       5
2008
     100
AcDbEntity
       8
2
     100
AcDbLine
      10
-25.8114347717
      20
-38.7213455428
      30
0
      11
-175.3169468771
      21
69.9762822775
      31
0
    1001
FS_CYPCUT
    1000
Channel
    1070
2
    1000
LeadIn
    1002
{
    1070
3
    1040
0
    1040
1.5707963267949
    1040
0.5
    1040
0.5
    1070
0
    1040
0.5
    1070
0
    1002
}
    1000
LeadOut
    1002
{
    1070
0
    1040
0
    1040
0.523598775598299
    1040
2
    1070
0
    1002
}
    1000
IsFill
    1070
0
    1000
PathStart
    1040
0
    1000
ToolCompensation
    1002
{
    1070
0
    1040
0
    1070
0
    1002
}
       0
LWPOLYLINE
       5
2009
     100
AcDbEntity
       8
2
     100
AcDbPolyline
      90
3
      70
0
      10
-173.5181840037
      20
70.1515130382
      42
0
      10
4.99653651786502E-11
      20
-37.6561784961871
      42
0
      10
173.5181840037
      20
70.1515130382
      42
0
    1001
FS_CYPCUT
    1000
Channel
    1070
2
    1000
LeadIn
    1002
{
    1070
3
    1040
0
    1040
1.5707963267949
    1040
0.5
    1040
0.5
    1070
0
    1040
0.5
    1070
0
    1002
}
    1000
LeadOut
    1002
{
    1070
0
    1040
0
    1040
0.523598775598299
    1040
2
    1070
0
    1002
}
    1000
IsFill
    1070
0
    1000
PathStart
    1040
0
    1000
ToolCompensation
    1002
{
    1070
0
    1040
0
    1070
0
    1002
}
    1000
MicroConnect
    1002
{
    1070
1
    1040
0.998750514943761
    1041
0.4
    1042
0
    1002
}
       0
LINE
       5
200A
     100
AcDbEntity
       8
2
     100
AcDbLine
      10
175.3169468771
      20
69.9762822775
      30
0
      11
25.8114347717
      21
-38.7213455428
      31
0
    1001
FS_CYPCUT
    1000
Channel
    1070
2
    1000
LeadIn
    1002
{
    1070
3
    1040
0
    1040
1.5707963267949
    1040
0.5
    1040
0.5
    1070
0
    1040
0.5
    1070
0
    1002
}
    1000
LeadOut
    1002
{
    1070
0
    1040
0
    1040
0.523598775598299
    1040
2
    1070
0
    1002
}
    1000
IsFill
    1070
0
    1000
PathStart
    1040
0
    1000
ToolCompensation
    1002
{
    1070
0
    1040
0
    1070
0
    1002
}
       0
LINE
       5
200B
     100
AcDbEntity
       8
2
     100
AcDbLine
      10
51.4200298326
      20
-42.2817060469
      30
0
      11
177.1323922884
      21
69.6460459148
      31
0
    1001
FS_CYPCUT
    1000
Channel
    1070
2
    1000
LeadIn
    1002
{
    1070
3
    1040
0
    1040
1.5707963267949
    1040
0.0774275477889058
    1040
0.5
    1070
0
    1040
0.5
    1070
0
    1002
}
    1000
LeadOut
    1002
{
    1070
0
    1040
0
    1040
0.523598775598299
    1040
2
    1070
0
    1002
}
    1000
IsFill
    1070
0
    1000
PathStart
    1040
0
    1000
ToolCompensation
    1002
{
    1070
0
    1040
0
    1070
0
    1002
}
       0
LINE
       5
200C
     100
AcDbEntity
       8
2
     100
AcDbLine
      10
178.8953130567
      20
69.1463259314
      30
0
      11
76.4441152088
      21
-48.7367508157
      31
0
    1001
FS_CYPCUT
    1000
Channel
    1070
2
    1000
LeadIn
    1002
{
    1070
3
    1040
0
    1040
1.5707963267949
    1040
0.5
    1040
0.5
    1070
0
    1040
0.5
    1070
0
    1002
}
    1000
LeadOut
    1002
{
    1070
0
    1040
0
    1040
0.523598775598299
    1040
2
    1070
0
    1002
}
    1000
IsFill
    1070
0
    1000
PathStart
    1040
0
    1000
ToolCompensation
    1002
{
    1070
0
    1040
0
    1070
0
    1002
}
       0
LINE
       5
200D
     100
AcDbEntity
       8
2
     100
AcDbLine
      10
100.469911646
      20
-58.2391378119
      30
0
      11
180.585625618
      21
68.4572148441
      31
0
    1001
FS_CYPCUT
    1000
Channel
    1070
2
    1000
LeadIn
    1002
{
    1070
3
    1040
0
    1040
1.5707963267949
    1040
0.5
    1040
0.5
    1070
0
    1040
0.5
    1070
0
    1002
}
    1000
LeadOut
    1002
{
    1070
0
    1040
0
    1040
0.523598775598299
    1040
2
    1070
0
    1002
}
    1000
IsFill
    1070
0
    1000
PathStart
    1040
0
    1000
ToolCompensation
    1002
{
    1070
0
    1040
0
    1070
0
    1002
}
       0
LINE
       5
200E
     100
AcDbEntity
       8
2
     100
AcDbLine
      10
182.1822534444
      20
67.5764632483
      30
0
      11
123.0811085742
      21
-70.7360659595
      31
0
    1001
FS_CYPCUT
    1000
Channel
    1070
2
    1000
LeadIn
    1002
{
    1070
3
    1040
0
    1040
1.5707963267949
    1040
0.5
    1040
0.5
    1070
0
    1040
0.5
    1070
0
    1002
}
    1000
LeadOut
    1002
{
    1070
0
    1040
0
    1040
0.523598775598299
    1040
2
    1070
0
    1002
}
    1000
IsFill
    1070
0
    1000
PathStart
    1040
0
    1000
ToolCompensation
    1002
{
    1070
0
    1040
0
    1070
0
    1002
}
       0
LINE
       5
200F
     100
AcDbEntity
       8
2
     100
AcDbLine
      10
143.9145997872
      20
-86.0178600327
      30
0
      11
183.6677957712
      21
66.5145336652
      31
0
    1001
FS_CYPCUT
    1000
Channel
    1070
2
    1000
LeadIn
    1002
{
    1070
3
    1040
0
    1040
1.5707963267949
    1040
0.5
    1040
0.5
    1070
0
    1040
0.5
    1070
0
    1002
}
    1000
LeadOut
    1002
{
    1070
0
    1040
0
    1040
0.523598775598299
    1040
2
    1070
0
    1002
}
    1000
IsFill
    1070
0
    1000
PathStart
    1040
0
    1000
ToolCompensation
    1002
{
    1070
0
    1040
0
    1070
0
    1002
}
       0
LINE
       5
2010
     100
AcDbEntity
       8
2
     100
AcDbLine
      10
185.03439034
      20
65.2915868113
      30
0
      11
162.7185075386
      21
-103.7480108046
      31
0
    1001
FS_CYPCUT
    1000
Channel
    1070
2
    1000
LeadIn
    1002
{
    1070
3
    1040
0
    1040
1.5707963267949
    1040
0.5
    1040
0.5
    1070
0
    1040
0.5
    1070
0
    1002
}
    1000
LeadOut
    1002
{
    1070
0
    1040
0
    1040
0.523598775598299
    1040
2
    1070
0
    1002
}
    1000
IsFill
    1070
0
    1000
PathStart
    1040
0
    1000
ToolCompensation
    1002
{
    1070
0
    1040
0
    1070
0
    1002
}
       0
LINE
       5
2011
     100
AcDbEntity
       8
2
     100
AcDbLine
      10
179.4269162246
      20
-123.481422469
      30
0
      11
186.2905177017
      21
63.9368223792
      31
0
    1001
FS_CYPCUT
    1000
Channel
    1070
2
    1000
LeadIn
    1002
{
    1070
3
    1040
0
    1040
1.5707963267949
    1040
0.5
    1040
0.5
    1070
0
    1040
0.5
    1070
0
    1002
}
    1000
LeadOut
    1002
{
    1070
0
    1040
0
    1040
0.523598775598299
    1040
2
    1070
0
    1002
}
    1000
IsFill
    1070
0
    1000
PathStart
    1040
0
    1000
ToolCompensation
    1002
{
    1070
0
    1040
0
    1070
0
    1002
}
       0
LINE
       5
2012
     100
AcDbEntity
       8
2
     100
AcDbLine
      10
187.4113037747
      20
62.5189047329
      30
0
      11
194.2084385498
      21
-144.4805875493
      31
0
    1001
FS_CYPCUT
    1000
Channel
    1070
2
    1000
LeadIn
    1002
{
    1070
3
    1040
0
    1040
1.5707963267949
    1040
0.5
    1040
0.5
    1070
0
    1040
0.5
    1070
0
    1002
}
    1000
LeadOut
    1002
{
    1070
0
    1040
0
    1040
0.523598775598299
    1040
2
    1070
0
    1002
}
    1000
IsFill
    1070
0
    1000
PathStart
    1040
0
    1000
ToolCompensation
    1002
{
    1070
0
    1040
0
    1070
0
    1002
}
       0
SPLINE
       5
2013
     100
AcDbEntity
       8
1
     100
AcDbSpline
      70
0
      71
3
      72
184
      73
180
      74
0
      40
0
      40
0
      40
0
      40
0
      40
0.0222222222222222
      40
0.0222222222222222
      40
0.0222222222222222
      40
0.0222222222222222
      40
0.0444444444444444
      40
0.0444444444444444
      40
0.0444444444444444
      40
0.0444444444444444
      40
0.0666666666666667
      40
0.0666666666666667
      40
0.0666666666666667
      40
0.0666666666666667
      40
0.0888888888888889
      40
0.0888888888888889
      40
0.0888888888888889
      40
0.0888888888888889
      40
0.111111111111111
      40
0.111111111111111
      40
0.111111111111111
      40
0.111111111111111
      40
0.133333333333333
      40
0.133333333333333
      40
0.133333333333333
      40
0.133333333333333
      40
0.155555555555556
      40
0.155555555555556
      40
0.155555555555556
      40
0.155555555555556
      40
0.177777777777778
      40
0.177777777777778
      40
0.177777777777778
      40
0.177777777777778
      40
0.2
      40
0.2
      40
0.2
      40
0.2
      40
0.222222222222222
      40
0.222222222222222
      40
0.222222222222222
      40
0.222222222222222
      40
0.244444444444444
      40
0.244444444444444
      40
0.244444444444444
      40
0.244444444444444
      40
0.266666666666667
      40
0.266666666666667
      40
0.266666666666667
      40
0.266666666666667
      40
0.288888888888889
      40
0.288888888888889
      40
0.288888888888889
      40
0.288888888888889
      40
0.311111111111111
      40
0.311111111111111
      40
0.311111111111111
      40
0.311111111111111
      40
0.333333333333333
      40
0.333333333333333
      40
0.333333333333333
      40
0.333333333333333
      40
0.355555555555556
      40
0.355555555555556
      40
0.355555555555556
      40
0.355555555555556
      40
0.377777777777778
      40
0.377777777777778
      40
0.377777777777778
      40
0.377777777777778
      40
0.4
      40
0.4
      40
0.4
      40
0.4
      40
0.422222222222222
      40
0.422222222222222
      40
0.422222222222222
      40
0.422222222222222
      40
0.444444444444444
      40
0.444444444444444
      40
0.444444444444444
      40
0.444444444444444
      40
0.466666666666667
      40
0.466666666666667
      40
0.466666666666667
      40
0.466666666666667
      40
0.488888888888889
      40
0.488888888888889
      40
0.488888888888889
      40
0.488888888888889
      40
0.511111111111111
      40
0.511111111111111
      40
0.511111111111111
      40
0.511111111111111
      40
0.533333333333333
      40
0.533333333333333
      40
0.533333333333333
      40
0.533333333333333
      40
0.555555555555556
      40
0.555555555555556
      40
0.555555555555556
      40
0.555555555555556
      40
0.577777777777778
      40
0.577777777777778
      40
0.577777777777778
      40
0.577777777777778
      40
0.6
      40
0.6
      40
0.6
      40
0.6
      40
0.622222222222222
      40
0.622222222222222
      40
0.622222222222222
      40
0.622222222222222
      40
0.644444444444444
      40
0.644444444444444
      40
0.644444444444444
      40
0.644444444444444
      40
0.666666666666667
      40
0.666666666666667
      40
0.666666666666667
      40
0.666666666666667
      40
0.688888888888889
      40
0.688888888888889
      40
0.688888888888889
      40
0.688888888888889
      40
0.711111111111111
      40
0.711111111111111
      40
0.711111111111111
      40
0.711111111111111
      40
0.733333333333333
      40
0.733333333333333
      40
0.733333333333333
      40
0.733333333333333
      40
0.755555555555556
      40
0.755555555555556
      40
0.755555555555556
      40
0.755555555555556
      40
0.777777777777778
      40
0.777777777777778
      40
0.777777777777778
      40
0.777777777777778
      40
0.8
      40
0.8
      40
0.8
      40
0.8
      40
0.822222222222222
      40
0.822222222222222
      40
0.822222222222222
      40
0.822222222222222
      40
0.844444444444444
      40
0.844444444444444
      40
0.844444444444444
      40
0.844444444444444
      40
0.866666666666667
      40
0.866666666666667
      40
0.866666666666667
      40
0.866666666666667
      40
0.888888888888889
      40
0.888888888888889
      40
0.888888888888889
      40
0.888888888888889
      40
0.911111111111111
      40
0.911111111111111
      40
0.911111111111111
      40
0.911111111111111
      40
0.933333333333333
      40
0.933333333333333
      40
0.933333333333333
      40
0.933333333333333
      40
0.955555555555556
      40
0.955555555555556
      40
0.955555555555556
      40
0.955555555555556
      40
0.977777777777778
      40
0.977777777777778
      40
0.977777777777778
      40
0.977777777777778
      40
1
      40
1
      40
1
      40
1
      10
-25.4509535665
      20
-38.6354227644
      30
0
      10
-25.6912743699333
      20
-38.6927046167
      30
0
      10
-25.9315951733667
      20
-38.749986469
      30
0
      10
-26.1719159768
      20
-38.8072683213
      30
0
      10
-26.1719159768
      20
-38.8072683213
      30
0
      10
-34.5122689318667
      20
-39.9395427710333
      30
0
      10
-42.8526218869333
      20
-41.0718172207667
      30
0
      10
-51.192974842
      20
-42.2040916705
      30
0
      10
-51.192974842
      20
-42.2040916705
      30
0
      10
-51.3443448357333
      20
-42.2558345881
      30
0
      10
-51.4957148294667
      20
-42.3075775057
      30
0
      10
-51.6470848232
      20
-42.3593204233
      30
0
      10
-51.6470848232
      20
-42.3593204233
      30
0
      10
-59.8589098447667
      20
-44.4617123674667
      30
0
      10
-68.0707348663333
      20
-46.5641043116333
      30
0
      10
-76.2825598879
      20
-48.6664962558
      30
0
      10
-76.2825598879
      20
-48.6664962558
      30
0
      10
-76.3902634351333
      20
-48.7133326290333
      30
0
      10
-76.4979669823667
      20
-48.7601690022667
      30
0
      10
-76.6056705296
      20
-48.8070053755
      30
0
      10
-76.6056705296
      20
-48.8070053755
      30
0
      10
-84.5155929072667
      20
-51.9281523683333
      30
0
      10
-92.4255152849333
      20
-55.0492993611667
      30
0
      10
-100.3354376626
      20
-58.170446354
      30
0
      10
-100.3354376626
      20
-58.170446354
      30
0
      10
-100.425086984867
      20
-58.2162406592667
      30
0
      10
-100.514736307133
      20
-58.2620349645333
      30
0
      10
-100.6043856294
      20
-58.3078292698
      30
0
      10
-100.6043856294
      20
-58.3078292698
      30
0
      10
-108.052579005767
      20
-62.4249505314
      30
0
      10
-115.500772382133
      20
-66.542071793
      30
0
      10
-122.9489657585
      20
-70.6591930546
      30
0
      10
-122.9489657585
      20
-70.6591930546
      30
0
      10
-123.037060968967
      20
-70.7104416579
      30
0
      10
-123.125156179433
      20
-70.7616902612
      30
0
      10
-123.2132513899
      20
-70.8129388645
      30
0
      10
-123.2132513899
      20
-70.8129388645
      30
0
      10
-130.0631565737
      20
-75.8473083502
      30
0
      10
-136.9130617575
      20
-80.8816778359
      30
0
      10
-143.7629669413
      20
-85.9160473216
      30
0
      10
-143.7629669413
      20
-85.9160473216
      30
0
      10
-143.864055505233
      20
-85.9839224623333
      30
0
      10
-143.965144069167
      20
-86.0517976030667
      30
0
      10
-144.0662326331
      20
-86.1196727438
      30
0
      10
-144.0662326331
      20
-86.1196727438
      30
0
      10
-150.217549927967
      20
-91.9428777231333
      30
0
      10
-156.368867222833
      20
-97.7660827024667
      30
0
      10
-162.5201845177
      20
-103.5892876818
      30
0
      10
-162.5201845177
      20
-103.5892876818
      30
0
      10
-162.652399864967
      20
-103.695103097
      30
0
      10
-162.784615212233
      20
-103.8009185122
      30
0
      10
-162.9168305595
      20
-103.9067339274
      30
0
      10
-162.9168305595
      20
-103.9067339274
      30
0
      10
-168.3250994299
      20
-110.339225261233
      30
0
      10
-173.7333683003
      20
-116.771716595067
      30
0
      10
-179.1416371707
      20
-123.2042079289
      30
0
      10
-179.1416371707
      20
-123.2042079289
      30
0
      10
-179.331823206633
      20
-123.3890176223
      30
0
      10
-179.522009242567
      20
-123.5738273157
      30
0
      10
-179.7121952785
      20
-123.7586370091
      30
0
      10
-179.7121952785
      20
-123.7586370091
      30
0
      10
-184.4792021952
      20
-130.645419939933
      30
0
      10
-189.2462091119
      20
-137.532202870767
      30
0
      10
-194.0132160286
      20
-144.4189858016
      30
0
      10
-194.0132160286
      20
-144.4189858016
      30
0
      10
-194.143364376033
      20
-144.4600536334
      30
0
      10
-194.273512723467
      20
-144.5011214652
      30
0
      10
-194.4036610709
      20
-144.542189297
      30
0
      10
-194.4036610709
      20
-144.542189297
      30
0
      10
-224.145509868967
      20
-125.4469197254
      30
0
      10
-253.887358667033
      20
-106.3516501538
      30
0
      10
-283.6292074651
      20
-87.2563805822
      30
0
      10
-283.6292074651
      20
-87.2563805822
      30
0
      10
-251.623417744433
      20
-37.4057432311667
      30
0
      10
-219.617628023767
      20
12.4448941198667
      30
0
      10
-187.6118383031
      20
62.2955314709
      30
0
      10
-187.6118383031
      20
62.2955314709
      30
0
      10
-185.45864051398
      20
65.1967264762404
      30
0
      10
-182.690038619754
      20
67.8174393695324
      30
0
      10
-179.19629670321
      20
69.02105486455
      30
0
      10
-179.19629670321
      20
69.02105486455
      30
0
      10
-177.270879912902
      20
69.7533520977343
      30
0
      10
-175.274542200607
      20
70.0207504558161
      30
0
      10
-173.2425071838
      20
70.1971535276
      30
0
      10
-173.2425071838
      20
70.1971535276
      30
0
      10
-57.7475023946
      20
70.1971535276
      30
0
      10
57.7475023946
      20
70.1971535276
      30
0
      10
173.2425071838
      20
70.1971535276
      30
0
      10
173.2425071838
      20
70.1971535276
      30
0
      10
176.372163339488
      20
69.9857303360839
      30
0
      10
179.522314793239
      20
69.2642540496357
      30
0
      10
182.226301049633
      20
67.5508389466667
      30
0
      10
182.226301049633
      20
67.5508389466667
      30
0
      10
184.345884727505
      20
66.187881351693
      30
0
      10
186.104188539499
      20
64.2911172951039
      30
0
      10
187.6118383031
      20
62.2955314709
      30
0
      10
187.6118383031
      20
62.2955314709
      30
0
      10
219.617628023767
      20
12.4448941198667
      30
0
      10
251.623417744433
      20
-37.4057432311667
      30
0
      10
283.6292074651
      20
-87.2563805822
      30
0
      10
283.6292074651
      20
-87.2563805822
      30
0
      10
253.887358667033
      20
-106.3516501538
      30
0
      10
224.145509868967
      20
-125.4469197254
      30
0
      10
194.4036610709
      20
-144.542189297
      30
0
      10
194.4036610709
      20
-144.542189297
      30
0
      10
194.273512723467
      20
-144.5011214652
      30
0
      10
194.143364376033
      20
-144.4600536334
      30
0
      10
194.0132160286
      20
-144.4189858016
      30
0
      10
194.0132160286
      20
-144.4189858016
      30
0
      10
189.2462091119
      20
-137.532202870767
      30
0
      10
184.4792021952
      20
-130.645419939933
      30
0
      10
179.7121952785
      20
-123.7586370091
      30
0
      10
179.7121952785
      20
-123.7586370091
      30
0
      10
179.522009242567
      20
-123.5738273157
      30
0
      10
179.331823206633
      20
-123.3890176223
      30
0
      10
179.1416371707
      20
-123.2042079289
      30
0
      10
179.1416371707
      20
-123.2042079289
      30
0
      10
173.7333683003
      20
-116.771716595067
      30
0
      10
168.3250994299
      20
-110.339225261233
      30
0
      10
162.9168305595
      20
-103.9067339274
      30
0
      10
162.9168305595
      20
-103.9067339274
      30
0
      10
162.784615212233
      20
-103.8009185122
      30
0
      10
162.652399864967
      20
-103.695103097
      30
0
      10
162.5201845177
      20
-103.5892876818
      30
0
      10
162.5201845177
      20
-103.5892876818
      30
0
      10
156.368867222833
      20
-97.7660827024667
      30
0
      10
150.217549927967
      20
-91.9428777231333
      30
0
      10
144.0662326331
      20
-86.1196727438
      30
0
      10
144.0662326331
      20
-86.1196727438
      30
0
      10
143.965144069167
      20
-86.0517976030667
      30
0
      10
143.864055505233
      20
-85.9839224623333
      30
0
      10
143.7629669413
      20
-85.9160473216
      30
0
      10
143.7629669413
      20
-85.9160473216
      30
0
      10
136.9130617575
      20
-80.8816778359
      30
0
      10
130.0631565737
      20
-75.8473083502
      30
0
      10
123.2132513899
      20
-70.8129388645
      30
0
      10
123.2132513899
      20
-70.8129388645
      30
0
      10
123.125156179433
      20
-70.7616902612
      30
0
      10
123.037060968967
      20
-70.7104416579
      30
0
      10
122.9489657585
      20
-70.6591930546
      30
0
      10
122.9489657585
      20
-70.6591930546
      30
0
      10
115.500772382133
      20
-66.542071793
      30
0
      10
108.052579005767
      20
-62.4249505314
      30
0
      10
100.6043856294
      20
-58.3078292698
      30
0
      10
100.6043856294
      20
-58.3078292698
      30
0
      10
100.514736307133
      20
-58.2620349645333
      30
0
      10
100.425086984867
      20
-58.2162406592667
      30
0
      10
100.3354376626
      20
-58.170446354
      30
0
      10
100.3354376626
      20
-58.170446354
      30
0
      10
92.4255152849333
      20
-55.0492993611667
      30
0
      10
84.5155929072667
      20
-51.9281523683333
      30
0
      10
76.6056705296
      20
-48.8070053755
      30
0
      10
76.6056705296
      20
-48.8070053755
      30
0
      10
76.4979669823667
      20
-48.7601690022667
      30
0
      10
76.3902634351333
      20
-48.7133326290333
      30
0
      10
76.2825598879
      20
-48.6664962558
      30
0
      10
76.2825598879
      20
-48.6664962558
      30
0
      10
68.0707348663333
      20
-46.5641043116333
      30
0
      10
59.8589098447667
      20
-44.4617123674667
      30
0
      10
51.6470848232
      20
-42.3593204233
      30
0
      10
51.6470848232
      20
-42.3593204233
      30
0
      10
51.4957148294667
      20
-42.3075775057
      30
0
      10
51.3443448357333
      20
-42.2558345881
      30
0
      10
51.192974842
      20
-42.2040916705
      30
0
      10
51.192974842
      20
-42.2040916705
      30
0
      10
42.8526218869333
      20
-41.0718172207667
      30
0
      10
34.5122689318667
      20
-39.9395427710333
      30
0
      10
26.1719159768
      20
-38.8072683213
      30
0
      10
26.1719159768
      20
-38.8072683213
      30
0
      10
25.9315951733667
      20
-38.749986469
      30
0
      10
25.6912743699333
      20
-38.6927046167
      30
0
      10
25.4509535665
      20
-38.6354227644
      30
0
      10
25.4509535665
      20
-38.6354227644
      30
0
      10
16.9673023776667
      20
-38.316776426
      30
0
      10
8.48365118883331
      20
-37.9981300876
      30
0
      10
-2.8421709430404E-14
      20
-37.6794837492
      30
0
      10
-2.8421709430404E-14
      20
-37.6794837492
      30
0
      10
-8.48365118883335
      20
-37.9981300876
      30
0
      10
-16.9673023776667
      20
-38.316776426
      30
0
      10
-25.4509535665
      20
-38.6354227644
      30
0
    1001
FS_CYPCUT
    1000
Channel
    1070
1
    1000
LeadIn
    1002
{
    1070
3
    1040
21.5011520385742
    1040
1.5707963267949
    1040
0.5
    1040
0.5
    1070
0
    1040
0.5
    1070
0
    1002
}
    1000
LeadOut
    1002
{
    1070
0
    1040
0
    1040
0.523598775598299
    1040
2
    1070
0
    1002
}
    1000
IsFill
    1070
1
    1000
PathStart
    1040
21.5
    1000
ToolCompensation
    1002
{
    1070
0
    1040
0
    1070
0
    1002
}
    1000
MicroConnect
    1002
{
    1070
6
    1040
17.3271974439934
    1041
0.4
    1042
0
    1040
18.5279787066121
    1041
0.4
    1042
0
    1040
21.5
    1041
0.4
    1042
0
    1040
24.4837743789355
    1041
0.4
    1042
0
    1040
25.4485929201435
    1041
0.4
    1042
0
    1040
33.5360880956408
    1041
0.4
    1042
0
    1002
}
       0
ENDSEC
  0
SECTION
  2
OBJECTS
  0
DICTIONARY
  5
111
330
0
100
AcDbDictionary
281
     1
  3
ACAD_COLOR
350
120
  3
ACAD_GROUP
350
112
  3
ACAD_LAYOUT
350
11E
  3
ACAD_MATERIAL
350
11F
  3
ACAD_MLINESTYLE
350
11B
  3
ACAD_PLOTSETTINGS
350
11D
  3
ACAD_PLOTSTYLENAME
350
113
  3
ACAD_TABLESTYLE
350
121
  3
AcDbVariableDictionary
350
135
  0
DICTIONARY
  5
120
102
{ACAD_REACTORS
330
111
102
}
330
111
100
AcDbDictionary
281
     1
  0
DICTIONARY
  5
112
102
{ACAD_REACTORS
330
111
102
}
330
111
100
AcDbDictionary
281
     1
  0
DICTIONARY
  5
11E
102
{ACAD_REACTORS
330
111
102
}
330
111
100
AcDbDictionary
281
     1
  3
Model
350
12A
  3
布局1
350
126
  0
DICTIONARY
  5
11F
102
{ACAD_REACTORS
330
111
102
}
330
111
100
AcDbDictionary
281
     1
  0
DICTIONARY
  5
11B
102
{ACAD_REACTORS
330
111
102
}
330
111
100
AcDbDictionary
281
     1
  3
Standard
350
11C
  0
DICTIONARY
  5
11D
102
{ACAD_REACTORS
330
111
102
}
330
111
100
AcDbDictionary
281
     1
  0
ACDBDICTIONARYWDFLT
  5
113
102
{ACAD_REACTORS
330
111
102
}
330
111
100
AcDbDictionary
281
     1
  3
Normal
350
114
100
AcDbDictionaryWithDefault
340
114
  0
DICTIONARY
  5
121
102
{ACAD_REACTORS
330
111
102
}
330
111
100
AcDbDictionary
281
     1
  3
Standard
350
122
  0
DICTIONARY
  5
135
102
{ACAD_REACTORS
330
111
102
}
330
111
100
AcDbDictionary
281
     1
  3
CTABLESTYLE
350
136
  0
LAYOUT
  5
12A
102
{ACAD_REACTORS
330
11E
102
}
330
11E
100
AcDbPlotSettings
  1

  2
发送至 OneNote 2010
  4

  6

 40
0.0
 41
0.0
 42
0.0
 43
0.0
 44
0.0
 45
0.0
 46
0.0
 47
0.0
 48
0.0
 49
0.0
140
0.0
141
0.0
142
1.0
143
1.0
 70
  1712
 72
     0
 73
     0
 74
     0
  7

 75
     0
147
1.0
 76
     0
 77
     2
 78
   300
148
0.0
149
0.0
100
AcDbLayout
  1
Model
 70
     1
 71
     0
 10
0.0
 20
0.0
 11
12.0
 21
9.0
 12
0.0
 22
0.0
 32
0.0
 14
0.0
 24
0.0
 34
0.0
 15
0.0
 25
0.0
 35
0.0
146
0.0
 13
0.0
 23
0.0
 33
0.0
 16
1.0
 26
0.0
 36
0.0
 17
0.0
 27
1.0
 37
0.0
 76
     0
330
127
  0
LAYOUT
  5
126
102
{ACAD_REACTORS
330
11E
102
}
330
11E
100
AcDbPlotSettings
  1

  2
发送至 OneNote 2010
  4

  6

 40
0.0
 41
0.0
 42
0.0
 43
0.0
 44
0.0
 45
0.0
 46
0.0
 47
0.0
 48
0.0
 49
0.0
140
0.0
141
0.0
142
1.0
143
1.0
 70
   688
 72
     0
 73
     0
 74
     5
  7

 75
    16
147
1.0
 76
     0
 77
     2
 78
   300
148
0.0
149
0.0
100
AcDbLayout
  1
布局1
 70
     1
 71
     1
 10
0.0
 20
0.0
 11
12.0
 21
9.0
 12
0.0
 22
0.0
 32
0.0
 14
0.0
 24
0.0
 34
0.0
 15
0.0
 25
0.0
 35
0.0
146
0.0
 13
0.0
 23
0.0
 33
0.0
 16
1.0
 26
0.0
 36
0.0
 17
0.0
 27
1.0
 37
0.0
 76
     0
330
123
  0
MLINESTYLE
  5
11C
102
{ACAD_REACTORS
330
11B
102
}
330
11B
100
AcDbMlineStyle
  2
STANDARD
 70
     0
  3

 62
   256
 51
90.0
 52
90.0
 71
     2
 49
0.5
 62
   256
  6
BYLAYER
 49
-0.5
 62
   256
  6
BYLAYER
  0
ACDBPLACEHOLDER
  5
114
102
{ACAD_REACTORS
330
113
102
}
330
113
  0
TABLESTYLE
  5
122
102
{ACAD_REACTORS
330
121
102
}
330
121
100
AcDbTableStyle
  3
Standard
 70
     0
 71
     0
 40
0.06
 41
0.06
280
     0
281
     0
  7
STANDARD
140
0.18
170
     2
 62
     0
 63
     7
283
     0
274
    -2
284
     1
 64
     0
275
    -2
285
     1
 65
     0
276
    -2
286
     1
 66
     0
277
    -2
287
     1
 67
     0
278
    -2
288
     1
 68
     0
279
    -2
289
     1
 69
     0
  7
STANDARD
140
0.25
170
     5
 62
     0
 63
     7
283
     0
274
    -2
284
     1
 64
     0
275
    -2
285
     1
 65
     0
276
    -2
286
     1
 66
     0
277
    -2
287
     1
 67
     0
278
    -2
288
     1
 68
     0
279
    -2
289
     1
 69
     0
  7
STANDARD
140
0.18
170
     5
 62
     0
 63
     7
283
     0
274
    -2
284
     1
 64
     0
275
    -2
285
     1
 65
     0
276
    -2
286
     1
 66
     0
277
    -2
287
     1
 67
     0
278
    -2
288
     1
 68
     0
279
    -2
289
     1
 69
     0
  0
DICTIONARYVAR
  5
136
102
{ACAD_REACTORS
330
135
102
}
330
135
100
DictionaryVariables
280
     0
  1
STANDARD
  0
ENDSEC
  0
EOF
