  0
SECTION
  2
HEADER
  9
$ACADVER
  1
AC1018
  9
$ACADMAINTVER
 70
    77
  9
$DWGCODEPAGE
  3
ANSI_936
  9
$INSBASE
 10
0.0
 20
0.0
 30
0.0
  9
$EXTMIN
 10
0
 20
-25
 30
0.0
  9
$EXTMAX
 10
40
 20
113.775832275946
 30
0.0
  9
$LIMMIN
 10
0.0
 20
0.0
  9
$LIMMAX
 10
420.0
 20
297.0
  9
$ORTHOMODE
 70
     0
  9
$REGENMODE
 70
     1
  9
$FILLMODE
 70
     1
  9
$QTEXTMODE
 70
     0
  9
$MIRRTEXT
 70
     0
  9
$LTSCALE
 40
1.0
  9
$ATTMODE
 70
     1
  9
$TEXTSIZE
 40
2.5
  9
$TRACEWID
 40
1.0
  9
$TEXTSTYLE
  7
STANDARD
  9
$CLAYER
  8
0
  9
$CELTYPE
  6
ByLayer
  9
$CECOLOR
 62
   256
  9
$CELTSCALE
 40
1.0
  9
$DISPSILH
 70
     0
  9
$DIMSCALE
 40
1.0
  9
$DIMASZ
 40
2.5
  9
$DIMEXO
 40
0.625
  9
$DIMDLI
 40
3.75
  9
$DIMRND
 40
0.0
  9
$DIMDLE
 40
0.0
  9
$DIMEXE
 40
1.25
  9
$DIMTP
 40
0.0
  9
$DIMTM
 40
0.0
  9
$DIMTXT
 40
2.5
  9
$DIMCEN
 40
2.5
  9
$DIMTSZ
 40
0.0
  9
$DIMTOL
 70
     0
  9
$DIMLIM
 70
     0
  9
$DIMTIH
 70
     0
  9
$DIMTOH
 70
     0
  9
$DIMSE1
 70
     0
  9
$DIMSE2
 70
     0
  9
$DIMTAD
 70
     1
  9
$DIMZIN
 70
     8
  9
$DIMBLK
  1

  9
$DIMASO
 70
     1
  9
$DIMSHO
 70
     1
  9
$DIMPOST
  1

  9
$DIMAPOST
  1

  9
$DIMALT
 70
     0
  9
$DIMALTD
 70
     3
  9
$DIMALTF
 40
0.03937007874016
  9
$DIMLFAC
 40
1.0
  9
$DIMTOFL
 70
     1
  9
$DIMTVP
 40
0.0
  9
$DIMTIX
 70
     0
  9
$DIMSOXD
 70
     0
  9
$DIMSAH
 70
     0
  9
$DIMBLK1
  1

  9
$DIMBLK2
  1

  9
$DIMSTYLE
  2
ISO-25
  9
$DIMCLRD
 70
     0
  9
$DIMCLRE
 70
     0
  9
$DIMCLRT
 70
     0
  9
$DIMTFAC
 40
1.0
  9
$DIMGAP
 40
0.625
  9
$DIMJUST
 70
     0
  9
$DIMSD1
 70
     0
  9
$DIMSD2
 70
     0
  9
$DIMTOLJ
 70
     1
  9
$DIMTZIN
 70
     0
  9
$DIMALTZ
 70
     0
  9
$DIMALTTZ
 70
     0
  9
$DIMUPT
 70
     0
  9
$DIMDEC
 70
     4
  9
$DIMTDEC
 70
     4
  9
$DIMALTU
 70
     2
  9
$DIMALTTD
 70
     2
  9
$DIMTXSTY
  7
STANDARD
  9
$DIMAUNIT
 70
     0
  9
$DIMADEC
 70
     0
  9
$DIMALTRND
 40
0.0
  9
$DIMAZIN
 70
     0
  9
$DIMDSEP
 70
    46
  9
$DIMATFIT
 70
     3
  9
$DIMFRAC
 70
     0
  9
$DIMLDRBLK
  1

  9
$DIMLUNIT
 70
     2
  9
$DIMLWD
 70
    -2
  9
$DIMLWE
 70
    -2
  9
$DIMTMOVE
 70
     0
  9
$LUNITS
 70
     2
  9
$LUPREC
 70
     4
  9
$SKETCHINC
 40
1.0
  9
$FILLETRAD
 40
0.0
  9
$AUNITS
 70
     0
  9
$AUPREC
 70
     0
  9
$MENU
  1
.
  9
$ELEVATION
 40
0.0
  9
$PELEVATION
 40
0.0
  9
$THICKNESS
 40
0.0
  9
$LIMCHECK
 70
     0
  9
$CHAMFERA
 40
0.0
  9
$CHAMFERB
 40
0.0
  9
$CHAMFERC
 40
0.0
  9
$CHAMFERD
 40
0.0
  9
$SKPOLY
 70
     0
  9
$TDCREATE
 40
2456997.676706910
  9
$TDUCREATE
 40
2456997.343373576
  9
$TDUPDATE
 40
2456997.680113438
  9
$TDUUPDATE
 40
2456997.346780104
  9
$TDINDWG
 40
0.0010312963
  9
$TDUSRTIMER
 40
0.0010311806
  9
$USRTIMER
 70
     1
  9
$ANGBASE
 50
0.0
  9
$ANGDIR
 70
     0
  9
$PDMODE
 70
     0
  9
$PDSIZE
 40
0.0
  9
$PLINEWID
 40
0.0
  9
$SPLFRAME
 70
     0
  9
$SPLINETYPE
 70
     6
  9
$SPLINESEGS
 70
     8
  9
$HANDSEED
  5
23F9
  9
$SURFTAB1
 70
     6
  9
$SURFTAB2
 70
     6
  9
$SURFTYPE
 70
     6
  9
$SURFU
 70
     6
  9
$SURFV
 70
     6
  9
$UCSBASE
  2

  9
$UCSNAME
  2

  9
$UCSORG
 10
0.0
 20
0.0
 30
0.0
  9
$UCSXDIR
 10
1.0
 20
0.0
 30
0.0
  9
$UCSYDIR
 10
0.0
 20
1.0
 30
0.0
  9
$UCSORTHOREF
  2

  9
$UCSORTHOVIEW
 70
     0
  9
$UCSORGTOP
 10
0.0
 20
0.0
 30
0.0
  9
$UCSORGBOTTOM
 10
0.0
 20
0.0
 30
0.0
  9
$UCSORGLEFT
 10
0.0
 20
0.0
 30
0.0
  9
$UCSORGRIGHT
 10
0.0
 20
0.0
 30
0.0
  9
$UCSORGFRONT
 10
0.0
 20
0.0
 30
0.0
  9
$UCSORGBACK
 10
0.0
 20
0.0
 30
0.0
  9
$PUCSBASE
  2

  9
$PUCSNAME
  2

  9
$PUCSORG
 10
0.0
 20
0.0
 30
0.0
  9
$PUCSXDIR
 10
1.0
 20
0.0
 30
0.0
  9
$PUCSYDIR
 10
0.0
 20
1.0
 30
0.0
  9
$PUCSORTHOREF
  2

  9
$PUCSORTHOVIEW
 70
     0
  9
$PUCSORGTOP
 10
0.0
 20
0.0
 30
0.0
  9
$PUCSORGBOTTOM
 10
0.0
 20
0.0
 30
0.0
  9
$PUCSORGLEFT
 10
0.0
 20
0.0
 30
0.0
  9
$PUCSORGRIGHT
 10
0.0
 20
0.0
 30
0.0
  9
$PUCSORGFRONT
 10
0.0
 20
0.0
 30
0.0
  9
$PUCSORGBACK
 10
0.0
 20
0.0
 30
0.0
  9
$USERI1
 70
     0
  9
$USERI2
 70
     0
  9
$USERI3
 70
     0
  9
$USERI4
 70
     0
  9
$USERI5
 70
     0
  9
$USERR1
 40
0.0
  9
$USERR2
 40
0.0
  9
$USERR3
 40
0.0
  9
$USERR4
 40
0.0
  9
$USERR5
 40
0.0
  9
$WORLDVIEW
 70
     1
  9
$SHADEDGE
 70
     3
  9
$SHADEDIF
 70
    70
  9
$TILEMODE
 70
     1
  9
$MAXACTVP
 70
    64
  9
$PINSBASE
 10
0.0
 20
0.0
 30
0.0
  9
$PLIMCHECK
 70
     0
  9
$PEXTMIN
 10
0.0
 20
0.0
 30
0.0
  9
$PEXTMAX
 10
0.0
 20
0.0
 30
0.0
  9
$PLIMMIN
 10
0.0
 20
0.0
  9
$PLIMMAX
 10
12.0
 20
9.0
  9
$UNITMODE
 70
     0
  9
$VISRETAIN
 70
     1
  9
$PLINEGEN
 70
     0
  9
$PSLTSCALE
 70
     1
  9
$TREEDEPTH
 70
  3020
  9
$CMLSTYLE
  2
Standard
  9
$CMLJUST
 70
     0
  9
$CMLSCALE
 40
1.0
  9
$PROXYGRAPHICS
 70
     1
  9
$MEASUREMENT
 70
     1
  9
$CELWEIGHT
370
    -1
  9
$ENDCAPS
280
     0
  9
$JOINSTYLE
280
     0
  9
$LWDISPLAY
290
     0
  9
$INSUNITS
 70
     0
  9
$HYPERLINKBASE
  1

  9
$STYLESHEET
  1

  9
$XEDIT
290
     1
  9
$CEPSNTYPE
380
     0
  9
$PSTYLEMODE
290
     1
  9
$FINGERPRINTGUID
  2
{1F2D6530-6BF2-4D5E-922F-A9C54F637010}
  9
$VERSIONGUID
  2
{15AD9CB5-51D1-451C-B472-5DB36EFAD6AD}
  9
$EXTNAMES
290
     1
  9
$PSVPSCALE
 40
0.0
  9
$OLESTARTUP
290
     0
  9
$SORTENTS
280
   127
  9
$INDEXCTL
280
     0
  9
$HIDETEXT
280
     0
  9
$XCLIPFRAME
290
     0
  9
$HALOGAP
280
     0
  9
$OBSCOLOR
 70
   257
  9
$OBSLTYPE
280
     0
  9
$INTERSECTIONDISPLAY
280
     0
  9
$INTERSECTIONCOLOR
 70
   257
  9
$DIMASSOC
280
     1
  9
$PROJECTNAME
  1

  0
ENDSEC
  0
SECTION
  2
CLASSES
  0
CLASS
  1
ACDBDICTIONARYWDFLT
  2
AcDbDictionaryWithDefault
  3
ObjectDBX Classes
 90
        0
 91
        1
280
     0
281
     0
  0
CLASS
  1
TABLESTYLE
  2
AcDbTableStyle
  3
ObjectDBX Classes
 90
     2047
 91
        1
280
     0
281
     0
  0
CLASS
  1
DICTIONARYVAR
  2
AcDbDictionaryVar
  3
ObjectDBX Classes
 90
        0
 91
        1
280
     0
281
     0
  0
ENDSEC
  0
SECTION
  2
TABLES
  0
TABLE
  2
VPORT
  5
10D
330
0
100
AcDbSymbolTable
 70
     2
  0
VPORT
  5
137
330
10D
100
AcDbSymbolTableRecord
100
AcDbViewportTableRecord
  2
*Active
 70
     0
 10
0.0
 20
0.0
 11
1.0
 21
1.0
 12
20
 22
44.3879161379729
 13
0.0
 23
0.0
 14
10.0
 24
10.0
 15
10.0
 25
10.0
 16
0.0
 26
0.0
 36
1.0
 17
0.0
 27
0.0
 37
0.0
 40
551.708552688342
 41
2.435135135135135
 42
50.0
 43
0.0
 44
0.0
 50
0.0
 51
0.0
 71
     0
 72
  1000
 73
     1
 74
     3
 75
     0
 76
     0
 77
     0
 78
     0
281
     0
 65
     1
110
0.0
120
0.0
130
0.0
111
1.0
121
0.0
131
0.0
112
0.0
122
1.0
132
0.0
 79
     0
146
0.0
  0
ENDTAB
  0
TABLE
  2
LTYPE
  5
10A
330
0
100
AcDbSymbolTable
 70
     1
  0
LTYPE
  5
118
330
10A
100
AcDbSymbolTableRecord
100
AcDbLinetypeTableRecord
  2
ByBlock
 70
     0
  3

 72
    65
 73
     0
 40
0.0
  0
LTYPE
  5
119
330
10A
100
AcDbSymbolTableRecord
100
AcDbLinetypeTableRecord
  2
ByLayer
 70
     0
  3

 72
    65
 73
     0
 40
0.0
  0
LTYPE
  5
11A
330
10A
100
AcDbSymbolTableRecord
100
AcDbLinetypeTableRecord
  2
CONTINUOUS
 70
     0
  3
Solid line
 72
    65
 73
     0
 40
0.0
  0
ENDTAB
  0
TABLE
  2
LAYER
  5
107
330
0
100
AcDbSymbolTable
 70
     1
  0
LAYER
  5
115
330
107
100
AcDbSymbolTableRecord
100
AcDbLayerTableRecord
  2
0
 70
     0
 62
     7
  6
CONTINUOUS
370
    -3
390
114
  0
ENDTAB
  0
TABLE
  2
STYLE
  5
108
330
0
100
AcDbSymbolTable
 70
     1
  0
STYLE
  5
116
330
108
100
AcDbSymbolTableRecord
100
AcDbTextStyleTableRecord
  2
STANDARD
 70
     0
 40
0.0
 41
1.0
 50
0.0
 71
     0
 42
2.5
  3
txt
  4
gbcbig.shx
  0
ENDTAB
  0
TABLE
  2
VIEW
  5
10B
330
0
100
AcDbSymbolTable
 70
     0
  0
ENDTAB
  0
TABLE
  2
UCS
  5
10C
330
0
100
AcDbSymbolTable
 70
     0
  0
ENDTAB
  0
TABLE
  2
APPID
  5
10E
330
0
100
AcDbSymbolTable
 70
     2
  0
APPID
  5
117
330
10E
100
AcDbSymbolTableRecord
100
AcDbRegAppTableRecord
  2
ACAD
 70
     0
  0
APPID
  5
12C
330
10E
100
AcDbSymbolTableRecord
100
AcDbRegAppTableRecord
  2
ACAD_PSEXT
 70
     0
  0
APPID
  5
112C
330
10E
100
AcDbSymbolTableRecord
100
AcDbRegAppTableRecord
  2
FS_CYPCUT
 70
     0
  0
ENDTAB
  0
TABLE
  2
DIMSTYLE
  5
10F
330
0
100
AcDbSymbolTable
 70
     1
100
AcDbDimStyleTable
 71
     0
  0
DIMSTYLE
105
12D
330
10F
100
AcDbSymbolTableRecord
100
AcDbDimStyleTableRecord
  2
ISO-25
 70
     0
 41
2.5
 42
0.625
 43
3.75
 44
1.25
 73
     0
 74
     0
 77
     1
 78
     8
140
2.5
141
2.5
143
0.03937007874016
147
0.625
171
     3
172
     1
274
     3
279
     2
284
     8
285
     8
286
     8
340
116
  0
ENDTAB
  0
TABLE
  2
BLOCK_RECORD
  5
106
330
0
100
AcDbSymbolTable
 70
     2
  0
BLOCK_RECORD
  5
127
330
106
100
AcDbSymbolTableRecord
100
AcDbBlockTableRecord
  2
*Model_Space
340
12A
  0
BLOCK_RECORD
  5
123
330
106
100
AcDbSymbolTableRecord
100
AcDbBlockTableRecord
  2
*Paper_Space
340
126
  0
BLOCK_RECORD
  5
130
330
106
100
AcDbSymbolTableRecord
100
AcDbBlockTableRecord
  2
$MODEL_SPACE
340
0
  0
BLOCK_RECORD
  5
132
330
106
100
AcDbSymbolTableRecord
100
AcDbBlockTableRecord
  2
$PAPER_SPACE
340
0
  0
ENDTAB
  0
ENDSEC
  0
SECTION
  2
BLOCKS
  0
BLOCK
  5
128
330
127
100
AcDbEntity
  8
0
100
AcDbBlockBegin
  2
*Model_Space
 70
     0
 10
0.0
 20
0.0
 30
0.0
  3
*Model_Space
  1

  0
ENDBLK
  5
129
330
127
100
AcDbEntity
  8
0
100
AcDbBlockEnd
  0
BLOCK
  5
124
330
123
100
AcDbEntity
 67
     1
  8
0
100
AcDbBlockBegin
  2
*Paper_Space
 70
     0
 10
0.0
 20
0.0
 30
0.0
  3
*Paper_Space
  1

  0
ENDBLK
  5
125
330
123
100
AcDbEntity
 67
     1
  8
0
100
AcDbBlockEnd
  0
BLOCK
  5
131
330
130
100
AcDbEntity
  8
0
100
AcDbBlockBegin
  2
$MODEL_SPACE
 70
     0
 10
0.0
 20
0.0
 30
0.0
  3
$MODEL_SPACE
  1

  0
ENDBLK
  5
21
330
130
100
AcDbEntity
  8
0
100
AcDbBlockEnd
  0
BLOCK
  5
133
330
132
100
AcDbEntity
  8
0
100
AcDbBlockBegin
  2
$PAPER_SPACE
 70
     0
 10
0.0
 20
0.0
 30
0.0
  3
$PAPER_SPACE
  1

  0
ENDBLK
  5
D5
330
132
100
AcDbEntity
  8
0
100
AcDbBlockEnd
       0
ENDSEC
       0
SECTION
       2
ENTITIES
       0
SPLINE
       5
2000
     100
AcDbEntity
       8
1
     100
AcDbSpline
      70
0
      71
3
      72
60
      73
56
      74
0
      40
0
      40
0
      40
0
      40
0
      40
0.0714285714285714
      40
0.0714285714285714
      40
0.0714285714285714
      40
0.0714285714285714
      40
0.142857142857143
      40
0.142857142857143
      40
0.142857142857143
      40
0.142857142857143
      40
0.214285714285714
      40
0.214285714285714
      40
0.214285714285714
      40
0.214285714285714
      40
0.285714285714286
      40
0.285714285714286
      40
0.285714285714286
      40
0.285714285714286
      40
0.357142857142857
      40
0.357142857142857
      40
0.357142857142857
      40
0.357142857142857
      40
0.428571428571429
      40
0.428571428571429
      40
0.428571428571429
      40
0.428571428571429
      40
0.5
      40
0.5
      40
0.5
      40
0.5
      40
0.571428571428571
      40
0.571428571428571
      40
0.571428571428571
      40
0.571428571428571
      40
0.642857142857143
      40
0.642857142857143
      40
0.642857142857143
      40
0.642857142857143
      40
0.714285714285714
      40
0.714285714285714
      40
0.714285714285714
      40
0.714285714285714
      40
0.785714285714286
      40
0.785714285714286
      40
0.785714285714286
      40
0.785714285714286
      40
0.857142857142857
      40
0.857142857142857
      40
0.857142857142857
      40
0.857142857142857
      40
0.928571428571429
      40
0.928571428571429
      40
0.928571428571429
      40
0.928571428571429
      40
1
      40
1
      40
1
      40
1
      10
22.5
      20
92.7130553880556
      30
0
      10
22.4985992080455
      20
92.7669364084988
      30
0
      10
22.4971984160909
      20
92.820817428942
      30
0
      10
22.4957976241364
      20
92.8746984493852
      30
0
      10
22.4957976241364
      20
92.8746984493852
      30
0
      10
22.4675869600625
      20
94.3297178953934
      30
0
      10
21.9487335384455
      20
95.7700165023121
      30
0
      10
21.0466637824937
      20
96.9151667489241
      30
0
      10
21.0466637824937
      20
96.9151667489241
      30
0
      10
20.2809292821626
      20
97.8923341490321
      30
0
      10
19.2395227642495
      20
98.6531655766186
      30
0
      10
18.0650640870725
      20
99.0616504583309
      30
0
      10
18.0650640870725
      20
99.0616504583309
      30
0
      10
16.6400233875118
      20
99.5676079690543
      30
0
      10
15.0293247566881
      20
99.5257593855546
      30
0
      10
13.6322731893699
      20
98.9466462465573
      30
0
      10
13.6322731893699
      20
98.9466462465573
      30
0
      10
12.2788150265278
      20
98.3994559972957
      30
0
      10
11.135728214812
      20
97.373978811427
      30
0
      10
10.409779904241
      20
96.1113523535291
      30
0
      10
10.409779904241
      20
96.1113523535291
      30
0
      10
9.81410923894555
      20
95.0820627428507
      30
0
      10
9.50644214777141
      20
93.8988196162258
      30
0
      10
9.5
      20
92.7130553880556
      30
0
      10
9.5
      20
92.7130553881
      30
0
      10
9.5
      20
64.7606151219667
      30
0
      10
9.5
      20
36.8081748558333
      30
0
      10
9.5
      20
8.8557345897
      30
0
      10
9.5
      20
8.85573458965132
      30
0
      10
9.50131732808383
      20
8.80297230372008
      30
0
      10
9.50263465616766
      20
8.75021001778883
      30
0
      10
9.50395198425148
      20
8.69744773185759
      30
0
      10
9.50395198425148
      20
8.69744773185759
      30
0
      10
9.51996399390553
      20
7.80018416162704
      30
0
      10
9.73809690492192
      20
6.90911244065852
      30
0
      10
10.1269937869123
      20
6.10031270176646
      30
0
      10
10.1269937869123
      20
6.10031270176646
      30
0
      10
10.8096725752146
      20
4.66679402914335
      30
0
      10
12.0526291750106
      20
3.51695710217579
      30
0
      10
13.5256002578299
      20
2.92969351855436
      30
0
      10
13.5256002578299
      20
2.92969351855436
      30
0
      10
15.0924160786656
      20
2.28972618338952
      30
0
      10
16.9072818297429
      20
2.28962174660048
      30
0
      10
18.4741172399775
      20
2.92957607603795
      30
0
      10
18.4741172399775
      20
2.92957607603795
      30
0
      10
19.8486738690226
      20
3.4783007412977
      30
0
      10
21.0237222812001
      20
4.51473438247276
      30
0
      10
21.7287702159933
      20
5.81773815972235
      30
0
      10
21.7287702159933
      20
5.81773815972235
      30
0
      10
22.2372285550344
      20
6.74587657201181
      30
0
      10
22.4932980321666
      20
7.80054060720933
      30
0
      10
22.5
      20
8.85573458965132
      30
0
      10
22.5
      20
8.85573458965132
      30
0
      10
22.5
      20
36.8081748558009
      30
0
      10
22.5
      20
64.7606151219505
      30
0
      10
22.5
      20
92.7130553881
      30
0
    1001
FS_CYPCUT
    1000
Channel
    1070
1
    1000
LeadIn
    1002
{
    1070
3
    1040
6.5
    1040
1.5707963267949
    1040
0.5
    1040
0.5
    1070
0
    1040
0.5
    1070
0
    1002
}
    1000
LeadOut
    1002
{
    1070
0
    1040
0
    1040
0.523598775598299
    1040
2
    1070
0
    1002
}
    1000
IsFill
    1070
0
    1000
PathStart
    1040
6.5
    1000
ToolCompensation
    1002
{
    1070
0
    1040
0
    1070
0
    1002
}
       0
SPLINE
       5
2001
     100
AcDbEntity
       8
1
     100
AcDbSpline
      70
0
      71
3
      72
96
      73
92
      74
0
      40
0
      40
0
      40
0
      40
0
      40
0.0434782608695652
      40
0.0434782608695652
      40
0.0434782608695652
      40
0.0434782608695652
      40
0.0869565217391304
      40
0.0869565217391304
      40
0.0869565217391304
      40
0.0869565217391304
      40
0.130434782608696
      40
0.130434782608696
      40
0.130434782608696
      40
0.130434782608696
      40
0.173913043478261
      40
0.173913043478261
      40
0.173913043478261
      40
0.173913043478261
      40
0.217391304347826
      40
0.217391304347826
      40
0.217391304347826
      40
0.217391304347826
      40
0.260869565217391
      40
0.260869565217391
      40
0.260869565217391
      40
0.260869565217391
      40
0.304347826086957
      40
0.304347826086957
      40
0.304347826086957
      40
0.304347826086957
      40
0.347826086956522
      40
0.347826086956522
      40
0.347826086956522
      40
0.347826086956522
      40
0.391304347826087
      40
0.391304347826087
      40
0.391304347826087
      40
0.391304347826087
      40
0.434782608695652
      40
0.434782608695652
      40
0.434782608695652
      40
0.434782608695652
      40
0.478260869565217
      40
0.478260869565217
      40
0.478260869565217
      40
0.478260869565217
      40
0.521739130434783
      40
0.521739130434783
      40
0.521739130434783
      40
0.521739130434783
      40
0.565217391304348
      40
0.565217391304348
      40
0.565217391304348
      40
0.565217391304348
      40
0.608695652173913
      40
0.608695652173913
      40
0.608695652173913
      40
0.608695652173913
      40
0.652173913043478
      40
0.652173913043478
      40
0.652173913043478
      40
0.652173913043478
      40
0.695652173913043
      40
0.695652173913043
      40
0.695652173913043
      40
0.695652173913043
      40
0.739130434782609
      40
0.739130434782609
      40
0.739130434782609
      40
0.739130434782609
      40
0.782608695652174
      40
0.782608695652174
      40
0.782608695652174
      40
0.782608695652174
      40
0.826086956521739
      40
0.826086956521739
      40
0.826086956521739
      40
0.826086956521739
      40
0.869565217391304
      40
0.869565217391304
      40
0.869565217391304
      40
0.869565217391304
      40
0.91304347826087
      40
0.91304347826087
      40
0.91304347826087
      40
0.91304347826087
      40
0.956521739130435
      40
0.956521739130435
      40
0.956521739130435
      40
0.956521739130435
      40
1
      40
1
      40
1
      40
1
      10
40
      20
108.768622331543
      30
0
      10
39.9989697229787
      20
108.809515730101
      30
0
      10
39.9979394459574
      20
108.850409128659
      30
0
      10
39.9969091689361
      20
108.891302527217
      30
0
      10
39.9969091689361
      20
108.891302527217
      30
0
      10
39.9952739626609
      20
108.932170298429
      30
0
      10
39.9936387563856
      20
108.973038069642
      30
0
      10
39.9920035501104
      20
109.013905840855
      30
0
      10
39.9920035501104
      20
109.013905840855
      30
0
      10
39.9908042798899
      20
109.034322390702
      30
0
      10
39.9896050096694
      20
109.05473894055
      30
0
      10
39.9884057394489
      20
109.075155490398
      30
0
      10
39.9884057394489
      20
109.075155490398
      30
0
      10
39.9885343019601
      20
109.085402387293
      30
0
      10
39.9732839719085
      20
109.279178843042
      30
0
      10
39.9597564228249
      20
109.380577879836
      30
0
      10
39.9597564228249
      20
109.380577879836
      30
0
      10
39.9399826078818
      20
109.542994348156
      30
0
      10
39.9125925680184
      20
109.704505416954
      30
0
      10
39.8774648710237
      20
109.86431290631
      30
0
      10
39.8774648710237
      20
109.86431290631
      30
0
      10
39.816022985375
      20
110.143987379068
      30
0
      10
39.7304161757769
      20
110.41836395923
      30
0
      10
39.6212403085454
      20
110.68309469246
      30
0
      10
39.6212403085454
      20
110.68309469246
      30
0
      10
39.5835541821254
      20
110.778229787757
      30
0
      10
39.5009850224736
      20
110.954474631606
      30
0
      10
39.4957840683489
      20
110.963337923767
      30
0
      10
39.4957840683489
      20
110.963337923767
      30
0
      10
39.3083901362613
      20
111.35067646812
      30
0
      10
39.0700220341375
      20
111.713361172878
      30
0
      10
38.7887129732788
      20
112.038712358547
      30
0
      10
38.7887129732788
      20
112.038712358547
      30
0
      10
38.6280851025373
      20
112.224771831289
      30
0
      10
38.4539394183679
      20
112.399221121007
      30
0
      10
38.2681506648604
      20
112.56017603706
      30
0
      10
38.2681506648604
      20
112.56017603706
      30
0
      10
37.9586962670435
      20
112.828621153525
      30
0
      10
37.6155060237399
      20
113.058175226198
      30
0
      10
37.2491052705181
      20
113.241775571214
      30
0
      10
37.2491052705181
      20
113.241775571214
      30
0
      10
37.1026338596318
      20
113.315305241813
      30
0
      10
36.9526385164451
      20
113.381661422195
      30
0
      10
36.799966040713
      20
113.440585636213
      30
0
      10
36.799966040713
      20
113.440585636213
      30
0
      10
36.5709989836439
      20
113.528978849827
      30
0
      10
36.3354142843068
      20
113.600438765188
      30
0
      10
36.0957738409317
      20
113.653646528528
      30
0
      10
36.0957738409317
      20
113.653646528528
      30
0
      10
35.9759696018408
      20
113.680271923099
      30
0
      10
35.8551815398969
      20
113.702465356872
      30
0
      10
35.7337485367076
      20
113.72057547759
      30
0
      10
35.7337485367076
      20
113.72057547759
      30
0
      10
35.6123153195874
      20
113.738659607444
      30
0
      10
35.4902354621454
      20
113.752420267798
      30
0
      10
35.3678365168369
      20
113.760713197871
      30
0
      10
35.3678365168369
      20
113.760713197871
      30
0
      10
35.2454375211985
      20
113.769045442426
      30
0
      10
35.1227187605993
      20
113.772438859186
      30
0
      10
35
      20
113.775832275946
      30
0
      10
35
      20
113.775832275946
      30
0
      10
23.3333333333333
      20
113.775832275931
      30
0
      10
11.6666666666667
      20
113.775832275915
      30
0
      10
0
      20
113.7758322759
      30
0
      10
0
      20
113.7758322759
      30
0
      10
0
      20
67.5172215172667
      30
0
      10
0
      20
21.2586107586333
      30
0
      10
0
      20
-25
      30
0
      10
0
      20
-25
      30
0
      10
11.6666666666667
      20
-25
      30
0
      10
23.3333333333333
      20
-25
      30
0
      10
35
      20
-25
      30
0
      10
35
      20
-25
      30
0
      10
35.6565939840369
      20
-25
      30
0
      10
36.3068034188037
      20
-24.8706653020379
      30
0
      10
36.9134171618254
      20
-24.6193976625564
      30
0
      10
36.9134171618254
      20
-24.6193976625564
      30
0
      10
37.5200309048472
      20
-24.3681300230749
      30
0
      10
38.0712518473339
      20
-23.9998159645315
      30
0
      10
38.5355339059327
      20
-23.5355339059327
      30
0
      10
38.5355339059327
      20
-23.5355339059327
      30
0
      10
38.9998159645315
      20
-23.0712518473339
      30
0
      10
39.3681300230749
      20
-22.5200309048472
      30
0
      10
39.6193976625564
      20
-21.9134171618254
      30
0
      10
39.6193976625564
      20
-21.9134171618254
      30
0
      10
39.8706653020379
      20
-21.3068034188037
      30
0
      10
40
      20
-20.6565939840369
      30
0
      10
40
      20
-20
      30
0
      10
40
      20
-20
      30
0
      10
40
      20
22.9228741105
      30
0
      10
40
      20
65.845748221
      30
0
      10
40
      20
108.7686223315
      30
0
    1001
FS_CYPCUT
    1000
Channel
    1070
1
    1000
LeadIn
    1002
{
    1070
3
    1040
16.5
    1040
1.5707963267949
    1040
0.5
    1040
0.5
    1070
0
    1040
0.5
    1070
0
    1002
}
    1000
LeadOut
    1002
{
    1070
0
    1040
0
    1040
0.523598775598299
    1040
2
    1070
0
    1002
}
    1000
IsFill
    1070
1
    1000
PathStart
    1040
16.5
    1000
ToolCompensation
    1002
{
    1070
0
    1040
0
    1070
0
    1002
}
    1000
MicroConnect
    1002
{
    1070
2
    1040
16.8276422764227
    1041
0.5
    1042
0
    1040
22.8583900255776
    1041
0.5
    1042
0
    1002
}
       0
ENDSEC
  0
SECTION
  2
OBJECTS
  0
DICTIONARY
  5
111
330
0
100
AcDbDictionary
281
     1
  3
ACAD_COLOR
350
120
  3
ACAD_GROUP
350
112
  3
ACAD_LAYOUT
350
11E
  3
ACAD_MATERIAL
350
11F
  3
ACAD_MLINESTYLE
350
11B
  3
ACAD_PLOTSETTINGS
350
11D
  3
ACAD_PLOTSTYLENAME
350
113
  3
ACAD_TABLESTYLE
350
121
  3
AcDbVariableDictionary
350
135
  0
DICTIONARY
  5
120
102
{ACAD_REACTORS
330
111
102
}
330
111
100
AcDbDictionary
281
     1
  0
DICTIONARY
  5
112
102
{ACAD_REACTORS
330
111
102
}
330
111
100
AcDbDictionary
281
     1
  0
DICTIONARY
  5
11E
102
{ACAD_REACTORS
330
111
102
}
330
111
100
AcDbDictionary
281
     1
  3
Model
350
12A
  3
布局1
350
126
  0
DICTIONARY
  5
11F
102
{ACAD_REACTORS
330
111
102
}
330
111
100
AcDbDictionary
281
     1
  0
DICTIONARY
  5
11B
102
{ACAD_REACTORS
330
111
102
}
330
111
100
AcDbDictionary
281
     1
  3
Standard
350
11C
  0
DICTIONARY
  5
11D
102
{ACAD_REACTORS
330
111
102
}
330
111
100
AcDbDictionary
281
     1
  0
ACDBDICTIONARYWDFLT
  5
113
102
{ACAD_REACTORS
330
111
102
}
330
111
100
AcDbDictionary
281
     1
  3
Normal
350
114
100
AcDbDictionaryWithDefault
340
114
  0
DICTIONARY
  5
121
102
{ACAD_REACTORS
330
111
102
}
330
111
100
AcDbDictionary
281
     1
  3
Standard
350
122
  0
DICTIONARY
  5
135
102
{ACAD_REACTORS
330
111
102
}
330
111
100
AcDbDictionary
281
     1
  3
CTABLESTYLE
350
136
  0
LAYOUT
  5
12A
102
{ACAD_REACTORS
330
11E
102
}
330
11E
100
AcDbPlotSettings
  1

  2
发送至 OneNote 2010
  4

  6

 40
0.0
 41
0.0
 42
0.0
 43
0.0
 44
0.0
 45
0.0
 46
0.0
 47
0.0
 48
0.0
 49
0.0
140
0.0
141
0.0
142
1.0
143
1.0
 70
  1712
 72
     0
 73
     0
 74
     0
  7

 75
     0
147
1.0
 76
     0
 77
     2
 78
   300
148
0.0
149
0.0
100
AcDbLayout
  1
Model
 70
     1
 71
     0
 10
0.0
 20
0.0
 11
12.0
 21
9.0
 12
0.0
 22
0.0
 32
0.0
 14
0.0
 24
0.0
 34
0.0
 15
0.0
 25
0.0
 35
0.0
146
0.0
 13
0.0
 23
0.0
 33
0.0
 16
1.0
 26
0.0
 36
0.0
 17
0.0
 27
1.0
 37
0.0
 76
     0
330
127
  0
LAYOUT
  5
126
102
{ACAD_REACTORS
330
11E
102
}
330
11E
100
AcDbPlotSettings
  1

  2
发送至 OneNote 2010
  4

  6

 40
0.0
 41
0.0
 42
0.0
 43
0.0
 44
0.0
 45
0.0
 46
0.0
 47
0.0
 48
0.0
 49
0.0
140
0.0
141
0.0
142
1.0
143
1.0
 70
   688
 72
     0
 73
     0
 74
     5
  7

 75
    16
147
1.0
 76
     0
 77
     2
 78
   300
148
0.0
149
0.0
100
AcDbLayout
  1
布局1
 70
     1
 71
     1
 10
0.0
 20
0.0
 11
12.0
 21
9.0
 12
0.0
 22
0.0
 32
0.0
 14
0.0
 24
0.0
 34
0.0
 15
0.0
 25
0.0
 35
0.0
146
0.0
 13
0.0
 23
0.0
 33
0.0
 16
1.0
 26
0.0
 36
0.0
 17
0.0
 27
1.0
 37
0.0
 76
     0
330
123
  0
MLINESTYLE
  5
11C
102
{ACAD_REACTORS
330
11B
102
}
330
11B
100
AcDbMlineStyle
  2
STANDARD
 70
     0
  3

 62
   256
 51
90.0
 52
90.0
 71
     2
 49
0.5
 62
   256
  6
BYLAYER
 49
-0.5
 62
   256
  6
BYLAYER
  0
ACDBPLACEHOLDER
  5
114
102
{ACAD_REACTORS
330
113
102
}
330
113
  0
TABLESTYLE
  5
122
102
{ACAD_REACTORS
330
121
102
}
330
121
100
AcDbTableStyle
  3
Standard
 70
     0
 71
     0
 40
0.06
 41
0.06
280
     0
281
     0
  7
STANDARD
140
0.18
170
     2
 62
     0
 63
     7
283
     0
274
    -2
284
     1
 64
     0
275
    -2
285
     1
 65
     0
276
    -2
286
     1
 66
     0
277
    -2
287
     1
 67
     0
278
    -2
288
     1
 68
     0
279
    -2
289
     1
 69
     0
  7
STANDARD
140
0.25
170
     5
 62
     0
 63
     7
283
     0
274
    -2
284
     1
 64
     0
275
    -2
285
     1
 65
     0
276
    -2
286
     1
 66
     0
277
    -2
287
     1
 67
     0
278
    -2
288
     1
 68
     0
279
    -2
289
     1
 69
     0
  7
STANDARD
140
0.18
170
     5
 62
     0
 63
     7
283
     0
274
    -2
284
     1
 64
     0
275
    -2
285
     1
 65
     0
276
    -2
286
     1
 66
     0
277
    -2
287
     1
 67
     0
278
    -2
288
     1
 68
     0
279
    -2
289
     1
 69
     0
  0
DICTIONARYVAR
  5
136
102
{ACAD_REACTORS
330
135
102
}
330
135
100
DictionaryVariables
280
     0
  1
STANDARD
  0
ENDSEC
  0
EOF
