  0
SECTION
  2
HEADER
  9
$ACADVER
  1
AC1018
  9
$ACADMAINTVER
 70
    77
  9
$DWGCODEPAGE
  3
ANSI_936
  9
$INSBASE
 10
0.0
 20
0.0
 30
0.0
  9
$EXTMIN
 10
-2.22E-13
 20
2.91417567576058
 30
0.0
  9
$EXTMAX
 10
789.347175916
 20
392
 30
0.0
  9
$LIMMIN
 10
0.0
 20
0.0
  9
$LIMMAX
 10
420.0
 20
297.0
  9
$ORTHOMODE
 70
     0
  9
$REGENMODE
 70
     1
  9
$FILLMODE
 70
     1
  9
$QTEXTMODE
 70
     0
  9
$MIRRTEXT
 70
     0
  9
$LTSCALE
 40
1.0
  9
$ATTMODE
 70
     1
  9
$TEXTSIZE
 40
2.5
  9
$TRACEWID
 40
1.0
  9
$TEXTSTYLE
  7
STANDARD
  9
$CLAYER
  8
0
  9
$CELTYPE
  6
ByLayer
  9
$CECOLOR
 62
   256
  9
$CELTSCALE
 40
1.0
  9
$DISPSILH
 70
     0
  9
$DIMSCALE
 40
1.0
  9
$DIMASZ
 40
2.5
  9
$DIMEXO
 40
0.625
  9
$DIMDLI
 40
3.75
  9
$DIMRND
 40
0.0
  9
$DIMDLE
 40
0.0
  9
$DIMEXE
 40
1.25
  9
$DIMTP
 40
0.0
  9
$DIMTM
 40
0.0
  9
$DIMTXT
 40
2.5
  9
$DIMCEN
 40
2.5
  9
$DIMTSZ
 40
0.0
  9
$DIMTOL
 70
     0
  9
$DIMLIM
 70
     0
  9
$DIMTIH
 70
     0
  9
$DIMTOH
 70
     0
  9
$DIMSE1
 70
     0
  9
$DIMSE2
 70
     0
  9
$DIMTAD
 70
     1
  9
$DIMZIN
 70
     8
  9
$DIMBLK
  1

  9
$DIMASO
 70
     1
  9
$DIMSHO
 70
     1
  9
$DIMPOST
  1

  9
$DIMAPOST
  1

  9
$DIMALT
 70
     0
  9
$DIMALTD
 70
     3
  9
$DIMALTF
 40
0.03937007874016
  9
$DIMLFAC
 40
1.0
  9
$DIMTOFL
 70
     1
  9
$DIMTVP
 40
0.0
  9
$DIMTIX
 70
     0
  9
$DIMSOXD
 70
     0
  9
$DIMSAH
 70
     0
  9
$DIMBLK1
  1

  9
$DIMBLK2
  1

  9
$DIMSTYLE
  2
ISO-25
  9
$DIMCLRD
 70
     0
  9
$DIMCLRE
 70
     0
  9
$DIMCLRT
 70
     0
  9
$DIMTFAC
 40
1.0
  9
$DIMGAP
 40
0.625
  9
$DIMJUST
 70
     0
  9
$DIMSD1
 70
     0
  9
$DIMSD2
 70
     0
  9
$DIMTOLJ
 70
     1
  9
$DIMTZIN
 70
     0
  9
$DIMALTZ
 70
     0
  9
$DIMALTTZ
 70
     0
  9
$DIMUPT
 70
     0
  9
$DIMDEC
 70
     4
  9
$DIMTDEC
 70
     4
  9
$DIMALTU
 70
     2
  9
$DIMALTTD
 70
     2
  9
$DIMTXSTY
  7
STANDARD
  9
$DIMAUNIT
 70
     0
  9
$DIMADEC
 70
     0
  9
$DIMALTRND
 40
0.0
  9
$DIMAZIN
 70
     0
  9
$DIMDSEP
 70
    46
  9
$DIMATFIT
 70
     3
  9
$DIMFRAC
 70
     0
  9
$DIMLDRBLK
  1

  9
$DIMLUNIT
 70
     2
  9
$DIMLWD
 70
    -2
  9
$DIMLWE
 70
    -2
  9
$DIMTMOVE
 70
     0
  9
$LUNITS
 70
     2
  9
$LUPREC
 70
     4
  9
$SKETCHINC
 40
1.0
  9
$FILLETRAD
 40
0.0
  9
$AUNITS
 70
     0
  9
$AUPREC
 70
     0
  9
$MENU
  1
.
  9
$ELEVATION
 40
0.0
  9
$PELEVATION
 40
0.0
  9
$THICKNESS
 40
0.0
  9
$LIMCHECK
 70
     0
  9
$CHAMFERA
 40
0.0
  9
$CHAMFERB
 40
0.0
  9
$CHAMFERC
 40
0.0
  9
$CHAMFERD
 40
0.0
  9
$SKPOLY
 70
     0
  9
$TDCREATE
 40
2456997.676706910
  9
$TDUCREATE
 40
2456997.343373576
  9
$TDUPDATE
 40
2456997.680113438
  9
$TDUUPDATE
 40
2456997.346780104
  9
$TDINDWG
 40
0.0010312963
  9
$TDUSRTIMER
 40
0.0010311806
  9
$USRTIMER
 70
     1
  9
$ANGBASE
 50
0.0
  9
$ANGDIR
 70
     0
  9
$PDMODE
 70
     0
  9
$PDSIZE
 40
0.0
  9
$PLINEWID
 40
0.0
  9
$SPLFRAME
 70
     0
  9
$SPLINETYPE
 70
     6
  9
$SPLINESEGS
 70
     8
  9
$HANDSEED
  5
23FC
  9
$SURFTAB1
 70
     6
  9
$SURFTAB2
 70
     6
  9
$SURFTYPE
 70
     6
  9
$SURFU
 70
     6
  9
$SURFV
 70
     6
  9
$UCSBASE
  2

  9
$UCSNAME
  2

  9
$UCSORG
 10
0.0
 20
0.0
 30
0.0
  9
$UCSXDIR
 10
1.0
 20
0.0
 30
0.0
  9
$UCSYDIR
 10
0.0
 20
1.0
 30
0.0
  9
$UCSORTHOREF
  2

  9
$UCSORTHOVIEW
 70
     0
  9
$UCSORGTOP
 10
0.0
 20
0.0
 30
0.0
  9
$UCSORGBOTTOM
 10
0.0
 20
0.0
 30
0.0
  9
$UCSORGLEFT
 10
0.0
 20
0.0
 30
0.0
  9
$UCSORGRIGHT
 10
0.0
 20
0.0
 30
0.0
  9
$UCSORGFRONT
 10
0.0
 20
0.0
 30
0.0
  9
$UCSORGBACK
 10
0.0
 20
0.0
 30
0.0
  9
$PUCSBASE
  2

  9
$PUCSNAME
  2

  9
$PUCSORG
 10
0.0
 20
0.0
 30
0.0
  9
$PUCSXDIR
 10
1.0
 20
0.0
 30
0.0
  9
$PUCSYDIR
 10
0.0
 20
1.0
 30
0.0
  9
$PUCSORTHOREF
  2

  9
$PUCSORTHOVIEW
 70
     0
  9
$PUCSORGTOP
 10
0.0
 20
0.0
 30
0.0
  9
$PUCSORGBOTTOM
 10
0.0
 20
0.0
 30
0.0
  9
$PUCSORGLEFT
 10
0.0
 20
0.0
 30
0.0
  9
$PUCSORGRIGHT
 10
0.0
 20
0.0
 30
0.0
  9
$PUCSORGFRONT
 10
0.0
 20
0.0
 30
0.0
  9
$PUCSORGBACK
 10
0.0
 20
0.0
 30
0.0
  9
$USERI1
 70
     0
  9
$USERI2
 70
     0
  9
$USERI3
 70
     0
  9
$USERI4
 70
     0
  9
$USERI5
 70
     0
  9
$USERR1
 40
0.0
  9
$USERR2
 40
0.0
  9
$USERR3
 40
0.0
  9
$USERR4
 40
0.0
  9
$USERR5
 40
0.0
  9
$WORLDVIEW
 70
     1
  9
$SHADEDGE
 70
     3
  9
$SHADEDIF
 70
    70
  9
$TILEMODE
 70
     1
  9
$MAXACTVP
 70
    64
  9
$PINSBASE
 10
0.0
 20
0.0
 30
0.0
  9
$PLIMCHECK
 70
     0
  9
$PEXTMIN
 10
0.0
 20
0.0
 30
0.0
  9
$PEXTMAX
 10
0.0
 20
0.0
 30
0.0
  9
$PLIMMIN
 10
0.0
 20
0.0
  9
$PLIMMAX
 10
12.0
 20
9.0
  9
$UNITMODE
 70
     0
  9
$VISRETAIN
 70
     1
  9
$PLINEGEN
 70
     0
  9
$PSLTSCALE
 70
     1
  9
$TREEDEPTH
 70
  3020
  9
$CMLSTYLE
  2
Standard
  9
$CMLJUST
 70
     0
  9
$CMLSCALE
 40
1.0
  9
$PROXYGRAPHICS
 70
     1
  9
$MEASUREMENT
 70
     1
  9
$CELWEIGHT
370
    -1
  9
$ENDCAPS
280
     0
  9
$JOINSTYLE
280
     0
  9
$LWDISPLAY
290
     0
  9
$INSUNITS
 70
     0
  9
$HYPERLINKBASE
  1

  9
$STYLESHEET
  1

  9
$XEDIT
290
     1
  9
$CEPSNTYPE
380
     0
  9
$PSTYLEMODE
290
     1
  9
$FINGERPRINTGUID
  2
{1F2D6530-6BF2-4D5E-922F-A9C54F637010}
  9
$VERSIONGUID
  2
{15AD9CB5-51D1-451C-B472-5DB36EFAD6AD}
  9
$EXTNAMES
290
     1
  9
$PSVPSCALE
 40
0.0
  9
$OLESTARTUP
290
     0
  9
$SORTENTS
280
   127
  9
$INDEXCTL
280
     0
  9
$HIDETEXT
280
     0
  9
$XCLIPFRAME
290
     0
  9
$HALOGAP
280
     0
  9
$OBSCOLOR
 70
   257
  9
$OBSLTYPE
280
     0
  9
$INTERSECTIONDISPLAY
280
     0
  9
$INTERSECTIONCOLOR
 70
   257
  9
$DIMASSOC
280
     1
  9
$PROJECTNAME
  1

  0
ENDSEC
  0
SECTION
  2
CLASSES
  0
CLASS
  1
ACDBDICTIONARYWDFLT
  2
AcDbDictionaryWithDefault
  3
ObjectDBX Classes
 90
        0
 91
        1
280
     0
281
     0
  0
CLASS
  1
TABLESTYLE
  2
AcDbTableStyle
  3
ObjectDBX Classes
 90
     2047
 91
        1
280
     0
281
     0
  0
CLASS
  1
DICTIONARYVAR
  2
AcDbDictionaryVar
  3
ObjectDBX Classes
 90
        0
 91
        1
280
     0
281
     0
  0
ENDSEC
  0
SECTION
  2
TABLES
  0
TABLE
  2
VPORT
  5
10D
330
0
100
AcDbSymbolTable
 70
     2
  0
VPORT
  5
137
330
10D
100
AcDbSymbolTableRecord
100
AcDbViewportTableRecord
  2
*Active
 70
     0
 10
0.0
 20
0.0
 11
1.0
 21
1.0
 12
394.673587958
 22
197.45708783788
 13
0.0
 23
0.0
 14
10.0
 24
10.0
 15
10.0
 25
10.0
 16
0.0
 26
0.0
 36
1.0
 17
0.0
 27
0.0
 37
0.0
 40
551.708552688342
 41
2.435135135135135
 42
50.0
 43
0.0
 44
0.0
 50
0.0
 51
0.0
 71
     0
 72
  1000
 73
     1
 74
     3
 75
     0
 76
     0
 77
     0
 78
     0
281
     0
 65
     1
110
0.0
120
0.0
130
0.0
111
1.0
121
0.0
131
0.0
112
0.0
122
1.0
132
0.0
 79
     0
146
0.0
  0
ENDTAB
  0
TABLE
  2
LTYPE
  5
10A
330
0
100
AcDbSymbolTable
 70
     1
  0
LTYPE
  5
118
330
10A
100
AcDbSymbolTableRecord
100
AcDbLinetypeTableRecord
  2
ByBlock
 70
     0
  3

 72
    65
 73
     0
 40
0.0
  0
LTYPE
  5
119
330
10A
100
AcDbSymbolTableRecord
100
AcDbLinetypeTableRecord
  2
ByLayer
 70
     0
  3

 72
    65
 73
     0
 40
0.0
  0
LTYPE
  5
11A
330
10A
100
AcDbSymbolTableRecord
100
AcDbLinetypeTableRecord
  2
CONTINUOUS
 70
     0
  3
Solid line
 72
    65
 73
     0
 40
0.0
  0
ENDTAB
  0
TABLE
  2
LAYER
  5
107
330
0
100
AcDbSymbolTable
 70
     1
  0
LAYER
  5
115
330
107
100
AcDbSymbolTableRecord
100
AcDbLayerTableRecord
  2
0
 70
     0
 62
     7
  6
CONTINUOUS
370
    -3
390
114
  0
ENDTAB
  0
TABLE
  2
STYLE
  5
108
330
0
100
AcDbSymbolTable
 70
     1
  0
STYLE
  5
116
330
108
100
AcDbSymbolTableRecord
100
AcDbTextStyleTableRecord
  2
STANDARD
 70
     0
 40
0.0
 41
1.0
 50
0.0
 71
     0
 42
2.5
  3
txt
  4
gbcbig.shx
  0
ENDTAB
  0
TABLE
  2
VIEW
  5
10B
330
0
100
AcDbSymbolTable
 70
     0
  0
ENDTAB
  0
TABLE
  2
UCS
  5
10C
330
0
100
AcDbSymbolTable
 70
     0
  0
ENDTAB
  0
TABLE
  2
APPID
  5
10E
330
0
100
AcDbSymbolTable
 70
     2
  0
APPID
  5
117
330
10E
100
AcDbSymbolTableRecord
100
AcDbRegAppTableRecord
  2
ACAD
 70
     0
  0
APPID
  5
12C
330
10E
100
AcDbSymbolTableRecord
100
AcDbRegAppTableRecord
  2
ACAD_PSEXT
 70
     0
  0
APPID
  5
112C
330
10E
100
AcDbSymbolTableRecord
100
AcDbRegAppTableRecord
  2
FS_CYPCUT
 70
     0
  0
ENDTAB
  0
TABLE
  2
DIMSTYLE
  5
10F
330
0
100
AcDbSymbolTable
 70
     1
100
AcDbDimStyleTable
 71
     0
  0
DIMSTYLE
105
12D
330
10F
100
AcDbSymbolTableRecord
100
AcDbDimStyleTableRecord
  2
ISO-25
 70
     0
 41
2.5
 42
0.625
 43
3.75
 44
1.25
 73
     0
 74
     0
 77
     1
 78
     8
140
2.5
141
2.5
143
0.03937007874016
147
0.625
171
     3
172
     1
274
     3
279
     2
284
     8
285
     8
286
     8
340
116
  0
ENDTAB
  0
TABLE
  2
BLOCK_RECORD
  5
106
330
0
100
AcDbSymbolTable
 70
     2
  0
BLOCK_RECORD
  5
127
330
106
100
AcDbSymbolTableRecord
100
AcDbBlockTableRecord
  2
*Model_Space
340
12A
  0
BLOCK_RECORD
  5
123
330
106
100
AcDbSymbolTableRecord
100
AcDbBlockTableRecord
  2
*Paper_Space
340
126
  0
BLOCK_RECORD
  5
130
330
106
100
AcDbSymbolTableRecord
100
AcDbBlockTableRecord
  2
$MODEL_SPACE
340
0
  0
BLOCK_RECORD
  5
132
330
106
100
AcDbSymbolTableRecord
100
AcDbBlockTableRecord
  2
$PAPER_SPACE
340
0
  0
ENDTAB
  0
ENDSEC
  0
SECTION
  2
BLOCKS
  0
BLOCK
  5
128
330
127
100
AcDbEntity
  8
0
100
AcDbBlockBegin
  2
*Model_Space
 70
     0
 10
0.0
 20
0.0
 30
0.0
  3
*Model_Space
  1

  0
ENDBLK
  5
129
330
127
100
AcDbEntity
  8
0
100
AcDbBlockEnd
  0
BLOCK
  5
124
330
123
100
AcDbEntity
 67
     1
  8
0
100
AcDbBlockBegin
  2
*Paper_Space
 70
     0
 10
0.0
 20
0.0
 30
0.0
  3
*Paper_Space
  1

  0
ENDBLK
  5
125
330
123
100
AcDbEntity
 67
     1
  8
0
100
AcDbBlockEnd
  0
BLOCK
  5
131
330
130
100
AcDbEntity
  8
0
100
AcDbBlockBegin
  2
$MODEL_SPACE
 70
     0
 10
0.0
 20
0.0
 30
0.0
  3
$MODEL_SPACE
  1

  0
ENDBLK
  5
21
330
130
100
AcDbEntity
  8
0
100
AcDbBlockEnd
  0
BLOCK
  5
133
330
132
100
AcDbEntity
  8
0
100
AcDbBlockBegin
  2
$PAPER_SPACE
 70
     0
 10
0.0
 20
0.0
 30
0.0
  3
$PAPER_SPACE
  1

  0
ENDBLK
  5
D5
330
132
100
AcDbEntity
  8
0
100
AcDbBlockEnd
       0
ENDSEC
       0
SECTION
       2
ENTITIES
       0
SPLINE
       5
2000
     100
AcDbEntity
       8
1
     100
AcDbSpline
      70
0
      71
3
      72
36
      73
32
      74
0
      40
0
      40
0
      40
0
      40
0
      40
0.125
      40
0.125
      40
0.125
      40
0.125
      40
0.25
      40
0.25
      40
0.25
      40
0.25
      40
0.375
      40
0.375
      40
0.375
      40
0.375
      40
0.5
      40
0.5
      40
0.5
      40
0.5
      40
0.625
      40
0.625
      40
0.625
      40
0.625
      40
0.75
      40
0.75
      40
0.75
      40
0.75
      40
0.875
      40
0.875
      40
0.875
      40
0.875
      40
1
      40
1
      40
1
      40
1
      10
200.806261221988
      20
198.998758962274
      30
0
      10
200.810423040617
      20
198.07859007418
      30
0
      10
200.427699154052
      20
197.165320365018
      30
0
      10
199.771228804283
      20
196.520957879326
      30
0
      10
199.771228804283
      20
196.520957879326
      30
0
      10
199.100506297356
      20
195.849565963843
      30
0
      10
198.148274013518
      20
195.473012695358
      30
0
      10
197.199912228567
      20
195.501054365637
      30
0
      10
197.199912228567
      20
195.501054365637
      30
0
      10
196.280371220469
      20
195.519529977331
      30
0
      10
195.375102262805
      20
195.917241297553
      30
0
      10
194.741218978252
      20
196.584145472866
      30
0
      10
194.741218978252
      20
196.584145472866
      30
0
      10
194.101233221256
      20
197.244835667041
      30
0
      10
193.741895647361
      20
198.16759250816
      30
0
      10
193.769457243176
      20
199.087401027884
      30
0
      10
193.769457243176
      20
199.087401027884
      30
0
      10
193.788152244818
      20
200.007315305322
      30
0
      10
194.193172532063
      20
200.910876145386
      30
0
      10
194.865330569698
      20
201.538949626591
      30
0
      10
194.865330569698
      20
201.538949626591
      30
0
      10
195.531524821115
      20
202.173421533863
      30
0
      10
196.455282134346
      20
202.525819674596
      30
0
      10
197.374724660694
      20
202.498943266015
      30
0
      10
197.374724660694
      20
202.498943266015
      30
0
      10
198.294287384354
      20
202.480404668144
      30
0
      10
199.199498463677
      20
202.082749907752
      30
0
      10
199.833435224807
      20
201.415846596973
      30
0
      10
199.833435224807
      20
201.415846596973
      30
0
      10
200.453051417849
      20
200.775768148078
      30
0
      10
200.810727937198
      20
199.889942312721
      30
0
      10
200.806261221988
      20
198.998758962274
      30
0
    1001
FS_CYPCUT
    1000
Channel
    1070
1
    1000
LeadIn
    1002
{
    1070
3
    1040
1.49999999999999
    1040
1.5707963267949
    1040
0.5
    1040
0.5
    1070
0
    1040
0.5
    1070
0
    1002
}
    1000
LeadOut
    1002
{
    1070
0
    1040
0
    1040
0.523598775598299
    1040
2
    1070
0
    1002
}
    1000
IsFill
    1070
0
    1000
PathStart
    1040
1.49999999999999
    1000
ToolCompensation
    1002
{
    1070
0
    1040
0
    1070
0
    1002
}
       0
SPLINE
       5
2001
     100
AcDbEntity
       8
1
     100
AcDbSpline
      70
0
      71
3
      72
36
      73
32
      74
0
      40
0
      40
0
      40
0
      40
0
      40
0.125
      40
0.125
      40
0.125
      40
0.125
      40
0.25
      40
0.25
      40
0.25
      40
0.25
      40
0.375
      40
0.375
      40
0.375
      40
0.375
      40
0.5
      40
0.5
      40
0.5
      40
0.5
      40
0.625
      40
0.625
      40
0.625
      40
0.625
      40
0.75
      40
0.75
      40
0.75
      40
0.75
      40
0.875
      40
0.875
      40
0.875
      40
0.875
      40
1
      40
1
      40
1
      40
1
      10
200.806261221988
      20
288.998758962274
      30
0
      10
200.810423040608
      20
288.078590074182
      30
0
      10
200.42769915406
      20
287.165320365013
      30
0
      10
199.771228804283
      20
286.520957879326
      30
0
      10
199.771228804283
      20
286.520957879326
      30
0
      10
199.100506297353
      20
285.849565963853
      30
0
      10
198.148274013522
      20
285.473012695341
      30
0
      10
197.199912228568
      20
285.501054365638
      30
0
      10
197.199912228568
      20
285.501054365638
      30
0
      10
196.280371220461
      20
285.519529977314
      30
0
      10
195.375102262823
      20
285.917241297578
      30
0
      10
194.741218978251
      20
286.584145472866
      30
0
      10
194.741218978251
      20
286.584145472866
      30
0
      10
194.101233221264
      20
287.244835667046
      30
0
      10
193.741895647346
      20
288.167592508157
      30
0
      10
193.769457243176
      20
289.087401027884
      30
0
      10
193.769457243176
      20
289.087401027884
      30
0
      10
193.788152244818
      20
290.007315305321
      30
0
      10
194.193172532058
      20
290.91087614539
      30
0
      10
194.865330569699
      20
291.538949626589
      30
0
      10
194.865330569699
      20
291.538949626589
      30
0
      10
195.531524821128
      20
292.173421533837
      30
0
      10
196.455282134338
      20
292.525819674625
      30
0
      10
197.374724660694
      20
292.498943266013
      30
0
      10
197.374724660694
      20
292.498943266013
      30
0
      10
198.294287384345
      20
292.480404668111
      30
0
      10
199.199498463696
      20
292.082749907786
      30
0
      10
199.833435224806
      20
291.415846596972
      30
0
      10
199.833435224806
      20
291.415846596972
      30
0
      10
200.45305141784
      20
290.775768148073
      30
0
      10
200.810727937209
      20
289.889942312725
      30
0
      10
200.806261221988
      20
288.998758962274
      30
0
    1001
FS_CYPCUT
    1000
Channel
    1070
1
    1000
LeadIn
    1002
{
    1070
3
    1040
1.5
    1040
1.5707963267949
    1040
0.5
    1040
0.5
    1070
0
    1040
0.5
    1070
0
    1002
}
    1000
LeadOut
    1002
{
    1070
0
    1040
0
    1040
0.523598775598299
    1040
2
    1070
0
    1002
}
    1000
IsFill
    1070
0
    1000
PathStart
    1040
1.5
    1000
ToolCompensation
    1002
{
    1070
0
    1040
0
    1070
0
    1002
}
       0
LWPOLYLINE
       5
2002
     100
AcDbEntity
       8
1
     100
AcDbPolyline
      90
4
      70
1
      10
205.3350618463
      20
322.2
      42
0
      10
205.3350618463
      20
315.4
      42
0
      10
189.2395812195
      20
315.4
      42
0
      10
189.2395812195
      20
322.2
      42
0
    1001
FS_CYPCUT
    1000
Channel
    1070
1
    1000
LeadIn
    1002
{
    1070
3
    1040
1.5
    1040
1.5707963267949
    1040
0.5
    1040
0.5
    1070
0
    1040
0.5
    1070
0
    1002
}
    1000
LeadOut
    1002
{
    1070
0
    1040
0
    1040
0.523598775598299
    1040
2
    1070
0
    1002
}
    1000
IsFill
    1070
0
    1000
PathStart
    1040
1.5
    1000
ToolCompensation
    1002
{
    1070
0
    1040
0
    1070
0
    1002
}
       0
SPLINE
       5
2003
     100
AcDbEntity
       8
1
     100
AcDbSpline
      70
0
      71
3
      72
36
      73
32
      74
0
      40
0
      40
0
      40
0
      40
0
      40
0.125
      40
0.125
      40
0.125
      40
0.125
      40
0.25
      40
0.25
      40
0.25
      40
0.25
      40
0.375
      40
0.375
      40
0.375
      40
0.375
      40
0.5
      40
0.5
      40
0.5
      40
0.5
      40
0.625
      40
0.625
      40
0.625
      40
0.625
      40
0.75
      40
0.75
      40
0.75
      40
0.75
      40
0.875
      40
0.875
      40
0.875
      40
0.875
      40
1
      40
1
      40
1
      40
1
      10
588.540914693972
      20
289.001241037726
      30
0
      10
588.536752875386
      20
289.921409925811
      30
0
      10
588.919476761874
      20
290.834679635
      30
0
      10
589.575947111678
      20
291.479042120675
      30
0
      10
589.575947111678
      20
291.479042120675
      30
0
      10
590.246669618594
      20
292.150434036175
      30
0
      10
591.198901902447
      20
292.526987304627
      30
0
      10
592.147263687393
      20
292.498945634363
      30
0
      10
592.147263687393
      20
292.498945634363
      30
0
      10
593.066804695501
      20
292.480470022686
      30
0
      10
593.972073653136
      20
292.082758702421
      30
0
      10
594.605956937711
      20
291.415854527134
      30
0
      10
594.605956937711
      20
291.415854527134
      30
0
      10
595.245942694756
      20
290.755164332983
      30
0
      10
595.605280268534
      20
289.832407491821
      30
0
      10
595.577718672787
      20
288.912598972113
      30
0
      10
595.577718672787
      20
288.912598972113
      30
0
      10
595.559023671163
      20
287.99268469467
      30
0
      10
595.154003383876
      20
287.089123854623
      30
0
      10
594.481845346261
      20
286.461050373406
      30
0
      10
594.481845346261
      20
286.461050373406
      30
0
      10
593.815651094846
      20
285.826578466139
      30
0
      10
592.891893781613
      20
285.474180325393
      30
0
      10
591.972451255266
      20
285.501056733986
      30
0
      10
591.972451255266
      20
285.501056733986
      30
0
      10
591.052888531597
      20
285.519595331839
      30
0
      10
590.147677452301
      20
285.917250092275
      30
0
      10
589.513740691149
      20
286.584153403027
      30
0
      10
589.513740691149
      20
286.584153403027
      30
0
      10
588.894124498096
      20
287.224231851911
      30
0
      10
588.536447978769
      20
288.110057687285
      30
0
      10
588.540914693972
      20
289.001241037726
      30
0
    1001
FS_CYPCUT
    1000
Channel
    1070
1
    1000
LeadIn
    1002
{
    1070
3
    1040
1.50000000000002
    1040
1.5707963267949
    1040
0.5
    1040
0.5
    1070
0
    1040
0.5
    1070
0
    1002
}
    1000
LeadOut
    1002
{
    1070
0
    1040
0
    1040
0.523598775598299
    1040
2
    1070
0
    1002
}
    1000
IsFill
    1070
0
    1000
PathStart
    1040
1.50000000000002
    1000
ToolCompensation
    1002
{
    1070
0
    1040
0
    1070
0
    1002
}
       0
SPLINE
       5
2004
     100
AcDbEntity
       8
1
     100
AcDbSpline
      70
0
      71
3
      72
36
      73
32
      74
0
      40
0
      40
0
      40
0
      40
0
      40
0.125
      40
0.125
      40
0.125
      40
0.125
      40
0.25
      40
0.25
      40
0.25
      40
0.25
      40
0.375
      40
0.375
      40
0.375
      40
0.375
      40
0.5
      40
0.5
      40
0.5
      40
0.5
      40
0.625
      40
0.625
      40
0.625
      40
0.625
      40
0.75
      40
0.75
      40
0.75
      40
0.75
      40
0.875
      40
0.875
      40
0.875
      40
0.875
      40
1
      40
1
      40
1
      40
1
      10
588.540914693972
      20
199.001241037726
      30
0
      10
588.536752875351
      20
199.921409925822
      30
0
      10
588.919476761909
      20
200.83467963498
      30
0
      10
589.575947111678
      20
201.479042120676
      30
0
      10
589.575947111678
      20
201.479042120676
      30
0
      10
590.246669618591
      20
202.150434036177
      30
0
      10
591.198901902448
      20
202.526987304631
      30
0
      10
592.147263687392
      20
202.498945634363
      30
0
      10
592.147263687392
      20
202.498945634363
      30
0
      10
593.066804695495
      20
202.480470022686
      30
0
      10
593.972073653146
      20
202.082758702431
      30
0
      10
594.605956937707
      20
201.415854527134
      30
0
      10
594.605956937707
      20
201.415854527134
      30
0
      10
595.245942694736
      20
200.755164332967
      30
0
      10
595.605280268545
      20
199.832407491831
      30
0
      10
595.577718672788
      20
198.912598972112
      30
0
      10
595.577718672788
      20
198.912598972112
      30
0
      10
595.559023671194
      20
197.992684694664
      30
0
      10
595.154003383852
      20
197.089123854634
      30
0
      10
594.481845346262
      20
196.461050373408
      30
0
      10
594.481845346262
      20
196.461050373408
      30
0
      10
593.81565109484
      20
195.826578466147
      30
0
      10
592.891893781617
      20
195.47418032539
      30
0
      10
591.972451255266
      20
195.501056733985
      30
0
      10
591.972451255266
      20
195.501056733985
      30
0
      10
591.052888531585
      20
195.519595331807
      30
0
      10
590.147677452325
      20
195.917250092311
      30
0
      10
589.513740691146
      20
196.584153403025
      30
0
      10
589.513740691146
      20
196.584153403025
      30
0
      10
588.894124498031
      20
197.224231851875
      30
0
      10
588.536447978845
      20
198.110057687307
      30
0
      10
588.540914693972
      20
199.001241037726
      30
0
    1001
FS_CYPCUT
    1000
Channel
    1070
1
    1000
LeadIn
    1002
{
    1070
3
    1040
1.50000000000002
    1040
1.5707963267949
    1040
0.5
    1040
0.5
    1070
0
    1040
0.5
    1070
0
    1002
}
    1000
LeadOut
    1002
{
    1070
0
    1040
0
    1040
0.523598775598299
    1040
2
    1070
0
    1002
}
    1000
IsFill
    1070
0
    1000
PathStart
    1040
1.50000000000002
    1000
ToolCompensation
    1002
{
    1070
0
    1040
0
    1070
0
    1002
}
       0
SPLINE
       5
2005
     100
AcDbEntity
       8
1
     100
AcDbSpline
      70
0
      71
3
      72
160
      73
156
      74
0
      40
0
      40
0
      40
0
      40
0
      40
0.0256410256410256
      40
0.0256410256410256
      40
0.0256410256410256
      40
0.0256410256410256
      40
0.0512820512820513
      40
0.0512820512820513
      40
0.0512820512820513
      40
0.0512820512820513
      40
0.0769230769230769
      40
0.0769230769230769
      40
0.0769230769230769
      40
0.0769230769230769
      40
0.102564102564103
      40
0.102564102564103
      40
0.102564102564103
      40
0.102564102564103
      40
0.128205128205128
      40
0.128205128205128
      40
0.128205128205128
      40
0.128205128205128
      40
0.153846153846154
      40
0.153846153846154
      40
0.153846153846154
      40
0.153846153846154
      40
0.179487179487179
      40
0.179487179487179
      40
0.179487179487179
      40
0.179487179487179
      40
0.205128205128205
      40
0.205128205128205
      40
0.205128205128205
      40
0.205128205128205
      40
0.230769230769231
      40
0.230769230769231
      40
0.230769230769231
      40
0.230769230769231
      40
0.256410256410256
      40
0.256410256410256
      40
0.256410256410256
      40
0.256410256410256
      40
0.282051282051282
      40
0.282051282051282
      40
0.282051282051282
      40
0.282051282051282
      40
0.307692307692308
      40
0.307692307692308
      40
0.307692307692308
      40
0.307692307692308
      40
0.333333333333333
      40
0.333333333333333
      40
0.333333333333333
      40
0.333333333333333
      40
0.358974358974359
      40
0.358974358974359
      40
0.358974358974359
      40
0.358974358974359
      40
0.384615384615385
      40
0.384615384615385
      40
0.384615384615385
      40
0.384615384615385
      40
0.41025641025641
      40
0.41025641025641
      40
0.41025641025641
      40
0.41025641025641
      40
0.435897435897436
      40
0.435897435897436
      40
0.435897435897436
      40
0.435897435897436
      40
0.461538461538462
      40
0.461538461538462
      40
0.461538461538462
      40
0.461538461538462
      40
0.487179487179487
      40
0.487179487179487
      40
0.487179487179487
      40
0.487179487179487
      40
0.512820512820513
      40
0.512820512820513
      40
0.512820512820513
      40
0.512820512820513
      40
0.538461538461538
      40
0.538461538461538
      40
0.538461538461538
      40
0.538461538461538
      40
0.564102564102564
      40
0.564102564102564
      40
0.564102564102564
      40
0.564102564102564
      40
0.58974358974359
      40
0.58974358974359
      40
0.58974358974359
      40
0.58974358974359
      40
0.615384615384615
      40
0.615384615384615
      40
0.615384615384615
      40
0.615384615384615
      40
0.641025641025641
      40
0.641025641025641
      40
0.641025641025641
      40
0.641025641025641
      40
0.666666666666667
      40
0.666666666666667
      40
0.666666666666667
      40
0.666666666666667
      40
0.692307692307692
      40
0.692307692307692
      40
0.692307692307692
      40
0.692307692307692
      40
0.717948717948718
      40
0.717948717948718
      40
0.717948717948718
      40
0.717948717948718
      40
0.743589743589744
      40
0.743589743589744
      40
0.743589743589744
      40
0.743589743589744
      40
0.769230769230769
      40
0.769230769230769
      40
0.769230769230769
      40
0.769230769230769
      40
0.794871794871795
      40
0.794871794871795
      40
0.794871794871795
      40
0.794871794871795
      40
0.82051282051282
      40
0.82051282051282
      40
0.82051282051282
      40
0.82051282051282
      40
0.846153846153846
      40
0.846153846153846
      40
0.846153846153846
      40
0.846153846153846
      40
0.871794871794872
      40
0.871794871794872
      40
0.871794871794872
      40
0.871794871794872
      40
0.897435897435897
      40
0.897435897435897
      40
0.897435897435897
      40
0.897435897435897
      40
0.923076923076923
      40
0.923076923076923
      40
0.923076923076923
      40
0.923076923076923
      40
0.948717948717949
      40
0.948717948717949
      40
0.948717948717949
      40
0.948717948717949
      40
0.974358974358974
      40
0.974358974358974
      40
0.974358974358974
      40
0.974358974358974
      40
1
      40
1
      40
1
      40
1
      10
789.347175916
      20
392
      30
0
      10
789.347175916
      20
274.666666666667
      30
0
      10
789.347175916
      20
157.333333333333
      30
0
      10
789.347175916
      20
40
      30
0
      10
789.34717591596
      20
40
      30
0
      10
785.149056342299
      20
39.9941126871147
      30
0
      10
780.950961541846
      20
39.8587655318826
      30
0
      10
776.761498004298
      20
39.588735605914
      30
0
      10
776.761498004298
      20
39.588735605914
      30
0
      10
755.777808165676
      20
38.2702649028434
      30
0
      10
735.207920723795
      20
33.4433946993358
      30
0
      10
715.032765476676
      20
27.7462247457565
      30
0
      10
715.032765476676
      20
27.7462247457565
      30
0
      10
713.01405942322
      20
27.1709929390428
      30
0
      10
710.995353369765
      20
26.5957611323292
      30
0
      10
708.976647316309
      20
26.0205293256155
      30
0
      10
708.976647316309
      20
26.0205293256155
      30
0
      10
706.961627541146
      20
25.4325156175105
      30
0
      10
704.946607765983
      20
24.8445019094055
      30
0
      10
702.93158799082
      20
24.2564882013005
      30
0
      10
702.93158799082
      20
24.2564882013005
      30
0
      10
698.904614722891
      20
23.0699523323296
      30
0
      10
694.877641454963
      20
21.8834164633588
      30
0
      10
690.850668187035
      20
20.6968805943879
      30
0
      10
690.850668187035
      20
20.6968805943879
      30
0
      10
688.835953266368
      20
20.1078210965656
      30
0
      10
686.821238345702
      20
19.5187615987433
      30
0
      10
684.806523425035
      20
18.9297021009211
      30
0
      10
684.806523425035
      20
18.9297021009211
      30
0
      10
682.789246703395
      20
18.3494987743301
      30
0
      10
680.771969981755
      20
17.7692954477391
      30
0
      10
678.754693260115
      20
17.1890921211482
      30
0
      10
678.754693260115
      20
17.1890921211482
      30
0
      10
670.67870503028
      20
14.8935344303196
      30
0
      10
662.568307016929
      20
12.7120149513647
      30
0
      10
654.394317780993
      20
10.7893041730629
      30
0
      10
654.394317780993
      20
10.7893041730629
      30
0
      10
633.984722721349
      20
5.93912795265358
      30
0
      10
613.068177713101
      20
2.87438353422383
      30
0
      10
592.059850179527
      20
2.91456708848806
      30
0
      10
592.059850179527
      20
2.91456708848806
      30
0
      10
587.859600407567
      20
2.91645090756603
      30
0
      10
583.65945424031
      20
3.03310976873673
      30
0
      10
579.465347925393
      20
3.25962307416989
      30
0
      10
579.465347925393
      20
3.25962307416989
      30
0
      10
557.418443720145
      20
4.40985596298441
      30
0
      10
535.691275817106
      20
8.89417280550819
      30
0
      10
514.430341107468
      20
14.6719583805205
      30
0
      10
514.430341107468
      20
14.6719583805205
      30
0
      10
513.918557659286
      20
14.790748924509
      30
0
      10
504.305599610894
      20
17.456700003276
      30
0
      10
499.268580155361
      20
18.9384802474587
      30
0
      10
499.268580155361
      20
18.9384802474587
      30
0
      10
497.253251399129
      20
19.5291612828793
      30
0
      10
495.237922642898
      20
20.1198423182999
      30
0
      10
493.222593886666
      20
20.7105233537205
      30
0
      10
493.222593886666
      20
20.7105233537205
      30
0
      10
489.193624164369
      20
21.8976334681188
      30
0
      10
485.164654442072
      20
23.0847435825171
      30
0
      10
481.135684719775
      20
24.2718536969154
      30
0
      10
481.135684719775
      20
24.2718536969154
      30
0
      10
479.119331298452
      20
24.859033195454
      30
0
      10
477.102977877129
      20
25.4462126939927
      30
0
      10
475.086624455806
      20
26.0333921925313
      30
0
      10
475.086624455806
      20
26.0333921925313
      30
0
      10
473.067176402578
      20
26.6098335031673
      30
0
      10
471.047728349349
      20
27.1862748138034
      30
0
      10
469.028280296121
      20
27.7627161244394
      30
0
      10
469.028280296121
      20
27.7627161244394
      30
0
      10
461.952358542704
      20
29.7518667075575
      30
0
      10
454.845931613859
      20
31.6384324594152
      30
0
      10
447.688356864974
      20
33.3133654968169
      30
0
      10
447.688356864974
      20
33.3133654968169
      30
0
      10
430.32181235575
      20
37.3941231354833
      30
0
      10
412.541116173286
      20
40.0359354325046
      30
0
      10
394.67358795798
      20
40.0000000000002
      30
0
      10
394.67358795798
      20
40.0000000000002
      30
0
      10
390.473412335861
      20
39.995641615005
      30
0
      10
386.273178857145
      20
39.8628811044752
      30
0
      10
382.081527480264
      20
39.5946646048106
      30
0
      10
382.081527480264
      20
39.5946646048106
      30
0
      10
361.086851680682
      20
38.2853973845167
      30
0
      10
340.505162725974
      20
33.4614681846024
      30
0
      10
320.319749792199
      20
27.76295685287
      30
0
      10
320.319749792199
      20
27.76295685287
      30
0
      10
318.300015004982
      20
27.187575707848
      30
0
      10
316.280280217764
      20
26.6121945628261
      30
0
      10
314.260545430547
      20
26.0368134178041
      30
0
      10
314.260545430547
      20
26.0368134178041
      30
0
      10
312.24451441371
      20
25.4485872164808
      30
0
      10
310.228483396873
      20
24.8603610151574
      30
0
      10
308.212452380036
      20
24.272134813834
      30
0
      10
308.212452380036
      20
24.272134813834
      30
0
      10
304.183499588637
      20
23.0850306515983
      30
0
      10
300.154546797238
      20
21.8979264893625
      30
0
      10
296.125594005839
      20
20.7108223271267
      30
0
      10
296.125594005839
      20
20.7108223271267
      30
0
      10
294.109904735753
      20
20.1214233088319
      30
0
      10
292.094215465667
      20
19.5320242905371
      30
0
      10
290.078526195581
      20
18.9426252722422
      30
0
      10
290.078526195581
      20
18.9426252722422
      30
0
      10
288.060282486864
      20
18.3620537663548
      30
0
      10
286.042038778147
      20
17.7814822604673
      30
0
      10
284.023795069431
      20
17.2009107545799
      30
0
      10
284.023795069431
      20
17.2009107545799
      30
0
      10
275.943953880461
      20
14.9038307577864
      30
0
      10
267.829731367134
      20
12.7206734038388
      30
0
      10
259.651876064825
      20
10.7963966920476
      30
0
      10
259.651876064825
      20
10.7963966920476
      30
0
      10
239.232671799091
      20
5.94222471945166
      30
0
      10
218.305991192464
      20
2.87431025297272
      30
0
      10
197.287321532932
      20
2.91456708848836
      30
0
      10
197.287321532932
      20
2.91456708848836
      30
0
      10
193.089130429228
      20
2.91591593217585
      30
0
      10
188.891035481543
      20
3.03247668867115
      30
0
      10
184.698988834849
      20
3.25889858491581
      30
0
      10
184.698988834849
      20
3.25889858491581
      30
0
      10
162.662968720001
      20
4.40882393875484
      30
0
      10
140.946027805539
      20
8.88811318109556
      30
0
      10
119.695134817174
      20
14.661888394828
      30
0
      10
119.695134817174
      20
14.661888394828
      30
0
      10
119.183594110359
      20
14.7805848620741
      30
0
      10
109.575185670933
      20
17.4446348398116
      30
0
      10
104.540598756586
      20
18.9255617789784
      30
0
      10
104.540598756586
      20
18.9255617789784
      30
0
      10
102.526243138492
      20
19.5159005745456
      30
0
      10
100.511887520397
      20
20.1062393701128
      30
0
      10
98.4975319023018
      20
20.69657816568
      30
0
      10
98.4975319023018
      20
20.69657816568
      30
0
      10
94.4705423912132
      20
21.8831196692583
      30
0
      10
90.4435528801247
      20
23.0696611728367
      30
0
      10
86.4165633690361
      20
24.256202676415
      30
0
      10
86.4165633690361
      20
24.256202676415
      30
0
      10
84.4012215790321
      20
24.8431717710869
      30
0
      10
82.385879789028
      20
25.4301408657588
      30
0
      10
80.3705379990239
      20
26.0171099604307
      30
0
      10
80.3705379990239
      20
26.0171099604307
      30
0
      10
78.3521180344702
      20
26.5934000530524
      30
0
      10
76.3336980699164
      20
27.1696901456741
      30
0
      10
74.3152781053626
      20
27.7459802382958
      30
0
      10
74.3152781053626
      20
27.7459802382958
      30
0
      10
67.242984626731
      20
29.7347170920871
      30
0
      10
60.1403053060501
      20
31.6212971505088
      30
0
      10
52.9865871409412
      20
33.2968745048513
      30
0
      10
52.9865871409412
      20
33.2968745048513
      30
0
      10
35.6293764286005
      20
37.3790423787567
      30
0
      10
17.858774354313
      20
40.0266937695522
      30
0
      10
-2.22E-13
      20
40
      30
0
      10
0
      20
40
      30
0
      10
0
      20
157.333333333333
      30
0
      10
0
      20
274.666666666667
      30
0
      10
0
      20
392
      30
0
      10
0
      20
392
      30
0
      10
263.115725305333
      20
392
      30
0
      10
526.231450610667
      20
392
      30
0
      10
789.347175916
      20
392
      30
0
    1001
FS_CYPCUT
    1000
Channel
    1070
1
    1000
LeadIn
    1002
{
    1070
3
    1040
38.5
    1040
1.5707963267949
    1040
0.5
    1040
0.5
    1070
0
    1040
0.5
    1070
0
    1002
}
    1000
LeadOut
    1002
{
    1070
0
    1040
0
    1040
0.523598775598299
    1040
2
    1070
0
    1002
}
    1000
IsFill
    1070
1
    1000
PathStart
    1040
38.5
    1000
ToolCompensation
    1002
{
    1070
0
    1040
0
    1070
0
    1002
}
    1000
MicroConnect
    1002
{
    1070
4
    1040
9.65526135258765
    1041
0.4
    1042
0
    1040
29.5240472832507
    1041
0.4
    1042
0
    1040
38.1573597706456
    1041
0.4
    1042
0
    1040
38.9075615359689
    1041
0.4
    1042
0
    1002
}
       0
ENDSEC
  0
SECTION
  2
OBJECTS
  0
DICTIONARY
  5
111
330
0
100
AcDbDictionary
281
     1
  3
ACAD_COLOR
350
120
  3
ACAD_GROUP
350
112
  3
ACAD_LAYOUT
350
11E
  3
ACAD_MATERIAL
350
11F
  3
ACAD_MLINESTYLE
350
11B
  3
ACAD_PLOTSETTINGS
350
11D
  3
ACAD_PLOTSTYLENAME
350
113
  3
ACAD_TABLESTYLE
350
121
  3
AcDbVariableDictionary
350
135
  0
DICTIONARY
  5
120
102
{ACAD_REACTORS
330
111
102
}
330
111
100
AcDbDictionary
281
     1
  0
DICTIONARY
  5
112
102
{ACAD_REACTORS
330
111
102
}
330
111
100
AcDbDictionary
281
     1
  0
DICTIONARY
  5
11E
102
{ACAD_REACTORS
330
111
102
}
330
111
100
AcDbDictionary
281
     1
  3
Model
350
12A
  3
布局1
350
126
  0
DICTIONARY
  5
11F
102
{ACAD_REACTORS
330
111
102
}
330
111
100
AcDbDictionary
281
     1
  0
DICTIONARY
  5
11B
102
{ACAD_REACTORS
330
111
102
}
330
111
100
AcDbDictionary
281
     1
  3
Standard
350
11C
  0
DICTIONARY
  5
11D
102
{ACAD_REACTORS
330
111
102
}
330
111
100
AcDbDictionary
281
     1
  0
ACDBDICTIONARYWDFLT
  5
113
102
{ACAD_REACTORS
330
111
102
}
330
111
100
AcDbDictionary
281
     1
  3
Normal
350
114
100
AcDbDictionaryWithDefault
340
114
  0
DICTIONARY
  5
121
102
{ACAD_REACTORS
330
111
102
}
330
111
100
AcDbDictionary
281
     1
  3
Standard
350
122
  0
DICTIONARY
  5
135
102
{ACAD_REACTORS
330
111
102
}
330
111
100
AcDbDictionary
281
     1
  3
CTABLESTYLE
350
136
  0
LAYOUT
  5
12A
102
{ACAD_REACTORS
330
11E
102
}
330
11E
100
AcDbPlotSettings
  1

  2
发送至 OneNote 2010
  4

  6

 40
0.0
 41
0.0
 42
0.0
 43
0.0
 44
0.0
 45
0.0
 46
0.0
 47
0.0
 48
0.0
 49
0.0
140
0.0
141
0.0
142
1.0
143
1.0
 70
  1712
 72
     0
 73
     0
 74
     0
  7

 75
     0
147
1.0
 76
     0
 77
     2
 78
   300
148
0.0
149
0.0
100
AcDbLayout
  1
Model
 70
     1
 71
     0
 10
0.0
 20
0.0
 11
12.0
 21
9.0
 12
0.0
 22
0.0
 32
0.0
 14
0.0
 24
0.0
 34
0.0
 15
0.0
 25
0.0
 35
0.0
146
0.0
 13
0.0
 23
0.0
 33
0.0
 16
1.0
 26
0.0
 36
0.0
 17
0.0
 27
1.0
 37
0.0
 76
     0
330
127
  0
LAYOUT
  5
126
102
{ACAD_REACTORS
330
11E
102
}
330
11E
100
AcDbPlotSettings
  1

  2
发送至 OneNote 2010
  4

  6

 40
0.0
 41
0.0
 42
0.0
 43
0.0
 44
0.0
 45
0.0
 46
0.0
 47
0.0
 48
0.0
 49
0.0
140
0.0
141
0.0
142
1.0
143
1.0
 70
   688
 72
     0
 73
     0
 74
     5
  7

 75
    16
147
1.0
 76
     0
 77
     2
 78
   300
148
0.0
149
0.0
100
AcDbLayout
  1
布局1
 70
     1
 71
     1
 10
0.0
 20
0.0
 11
12.0
 21
9.0
 12
0.0
 22
0.0
 32
0.0
 14
0.0
 24
0.0
 34
0.0
 15
0.0
 25
0.0
 35
0.0
146
0.0
 13
0.0
 23
0.0
 33
0.0
 16
1.0
 26
0.0
 36
0.0
 17
0.0
 27
1.0
 37
0.0
 76
     0
330
123
  0
MLINESTYLE
  5
11C
102
{ACAD_REACTORS
330
11B
102
}
330
11B
100
AcDbMlineStyle
  2
STANDARD
 70
     0
  3

 62
   256
 51
90.0
 52
90.0
 71
     2
 49
0.5
 62
   256
  6
BYLAYER
 49
-0.5
 62
   256
  6
BYLAYER
  0
ACDBPLACEHOLDER
  5
114
102
{ACAD_REACTORS
330
113
102
}
330
113
  0
TABLESTYLE
  5
122
102
{ACAD_REACTORS
330
121
102
}
330
121
100
AcDbTableStyle
  3
Standard
 70
     0
 71
     0
 40
0.06
 41
0.06
280
     0
281
     0
  7
STANDARD
140
0.18
170
     2
 62
     0
 63
     7
283
     0
274
    -2
284
     1
 64
     0
275
    -2
285
     1
 65
     0
276
    -2
286
     1
 66
     0
277
    -2
287
     1
 67
     0
278
    -2
288
     1
 68
     0
279
    -2
289
     1
 69
     0
  7
STANDARD
140
0.25
170
     5
 62
     0
 63
     7
283
     0
274
    -2
284
     1
 64
     0
275
    -2
285
     1
 65
     0
276
    -2
286
     1
 66
     0
277
    -2
287
     1
 67
     0
278
    -2
288
     1
 68
     0
279
    -2
289
     1
 69
     0
  7
STANDARD
140
0.18
170
     5
 62
     0
 63
     7
283
     0
274
    -2
284
     1
 64
     0
275
    -2
285
     1
 65
     0
276
    -2
286
     1
 66
     0
277
    -2
287
     1
 67
     0
278
    -2
288
     1
 68
     0
279
    -2
289
     1
 69
     0
  0
DICTIONARYVAR
  5
136
102
{ACAD_REACTORS
330
135
102
}
330
135
100
DictionaryVariables
280
     0
  1
STANDARD
  0
ENDSEC
  0
EOF
