  0
SECTION
  2
HEADER
  9
$ACADVER
  1
AC1018
  9
$ACADMAINTVER
 70
    77
  9
$DWGCODEPAGE
  3
ANSI_936
  9
$INSBASE
 10
0.0
 20
0.0
 30
0.0
  9
$EXTMIN
 10
-4.36983782492462E-13
 20
-423.6887672131
 30
0.0
  9
$EXTMAX
 10
240
 20
1.20792265079217E-13
 30
0.0
  9
$LIMMIN
 10
0.0
 20
0.0
  9
$LIMMAX
 10
420.0
 20
297.0
  9
$ORTHOMODE
 70
     0
  9
$REGENMODE
 70
     1
  9
$FILLMODE
 70
     1
  9
$QTEXTMODE
 70
     0
  9
$MIRRTEXT
 70
     0
  9
$LTSCALE
 40
1.0
  9
$ATTMODE
 70
     1
  9
$TEXTSIZE
 40
2.5
  9
$TRACEWID
 40
1.0
  9
$TEXTSTYLE
  7
STANDARD
  9
$CLAYER
  8
0
  9
$CELTYPE
  6
ByLayer
  9
$CECOLOR
 62
   256
  9
$CELTSCALE
 40
1.0
  9
$DISPSILH
 70
     0
  9
$DIMSCALE
 40
1.0
  9
$DIMASZ
 40
2.5
  9
$DIMEXO
 40
0.625
  9
$DIMDLI
 40
3.75
  9
$DIMRND
 40
0.0
  9
$DIMDLE
 40
0.0
  9
$DIMEXE
 40
1.25
  9
$DIMTP
 40
0.0
  9
$DIMTM
 40
0.0
  9
$DIMTXT
 40
2.5
  9
$DIMCEN
 40
2.5
  9
$DIMTSZ
 40
0.0
  9
$DIMTOL
 70
     0
  9
$DIMLIM
 70
     0
  9
$DIMTIH
 70
     0
  9
$DIMTOH
 70
     0
  9
$DIMSE1
 70
     0
  9
$DIMSE2
 70
     0
  9
$DIMTAD
 70
     1
  9
$DIMZIN
 70
     8
  9
$DIMBLK
  1

  9
$DIMASO
 70
     1
  9
$DIMSHO
 70
     1
  9
$DIMPOST
  1

  9
$DIMAPOST
  1

  9
$DIMALT
 70
     0
  9
$DIMALTD
 70
     3
  9
$DIMALTF
 40
0.03937007874016
  9
$DIMLFAC
 40
1.0
  9
$DIMTOFL
 70
     1
  9
$DIMTVP
 40
0.0
  9
$DIMTIX
 70
     0
  9
$DIMSOXD
 70
     0
  9
$DIMSAH
 70
     0
  9
$DIMBLK1
  1

  9
$DIMBLK2
  1

  9
$DIMSTYLE
  2
ISO-25
  9
$DIMCLRD
 70
     0
  9
$DIMCLRE
 70
     0
  9
$DIMCLRT
 70
     0
  9
$DIMTFAC
 40
1.0
  9
$DIMGAP
 40
0.625
  9
$DIMJUST
 70
     0
  9
$DIMSD1
 70
     0
  9
$DIMSD2
 70
     0
  9
$DIMTOLJ
 70
     1
  9
$DIMTZIN
 70
     0
  9
$DIMALTZ
 70
     0
  9
$DIMALTTZ
 70
     0
  9
$DIMUPT
 70
     0
  9
$DIMDEC
 70
     4
  9
$DIMTDEC
 70
     4
  9
$DIMALTU
 70
     2
  9
$DIMALTTD
 70
     2
  9
$DIMTXSTY
  7
STANDARD
  9
$DIMAUNIT
 70
     0
  9
$DIMADEC
 70
     0
  9
$DIMALTRND
 40
0.0
  9
$DIMAZIN
 70
     0
  9
$DIMDSEP
 70
    46
  9
$DIMATFIT
 70
     3
  9
$DIMFRAC
 70
     0
  9
$DIMLDRBLK
  1

  9
$DIMLUNIT
 70
     2
  9
$DIMLWD
 70
    -2
  9
$DIMLWE
 70
    -2
  9
$DIMTMOVE
 70
     0
  9
$LUNITS
 70
     2
  9
$LUPREC
 70
     4
  9
$SKETCHINC
 40
1.0
  9
$FILLETRAD
 40
0.0
  9
$AUNITS
 70
     0
  9
$AUPREC
 70
     0
  9
$MENU
  1
.
  9
$ELEVATION
 40
0.0
  9
$PELEVATION
 40
0.0
  9
$THICKNESS
 40
0.0
  9
$LIMCHECK
 70
     0
  9
$CHAMFERA
 40
0.0
  9
$CHAMFERB
 40
0.0
  9
$CHAMFERC
 40
0.0
  9
$CHAMFERD
 40
0.0
  9
$SKPOLY
 70
     0
  9
$TDCREATE
 40
2456997.676706910
  9
$TDUCREATE
 40
2456997.343373576
  9
$TDUPDATE
 40
2456997.680113438
  9
$TDUUPDATE
 40
2456997.346780104
  9
$TDINDWG
 40
0.0010312963
  9
$TDUSRTIMER
 40
0.0010311806
  9
$USRTIMER
 70
     1
  9
$ANGBASE
 50
0.0
  9
$ANGDIR
 70
     0
  9
$PDMODE
 70
     0
  9
$PDSIZE
 40
0.0
  9
$PLINEWID
 40
0.0
  9
$SPLFRAME
 70
     0
  9
$SPLINETYPE
 70
     6
  9
$SPLINESEGS
 70
     8
  9
$HANDSEED
  5
2415
  9
$SURFTAB1
 70
     6
  9
$SURFTAB2
 70
     6
  9
$SURFTYPE
 70
     6
  9
$SURFU
 70
     6
  9
$SURFV
 70
     6
  9
$UCSBASE
  2

  9
$UCSNAME
  2

  9
$UCSORG
 10
0.0
 20
0.0
 30
0.0
  9
$UCSXDIR
 10
1.0
 20
0.0
 30
0.0
  9
$UCSYDIR
 10
0.0
 20
1.0
 30
0.0
  9
$UCSORTHOREF
  2

  9
$UCSORTHOVIEW
 70
     0
  9
$UCSORGTOP
 10
0.0
 20
0.0
 30
0.0
  9
$UCSORGBOTTOM
 10
0.0
 20
0.0
 30
0.0
  9
$UCSORGLEFT
 10
0.0
 20
0.0
 30
0.0
  9
$UCSORGRIGHT
 10
0.0
 20
0.0
 30
0.0
  9
$UCSORGFRONT
 10
0.0
 20
0.0
 30
0.0
  9
$UCSORGBACK
 10
0.0
 20
0.0
 30
0.0
  9
$PUCSBASE
  2

  9
$PUCSNAME
  2

  9
$PUCSORG
 10
0.0
 20
0.0
 30
0.0
  9
$PUCSXDIR
 10
1.0
 20
0.0
 30
0.0
  9
$PUCSYDIR
 10
0.0
 20
1.0
 30
0.0
  9
$PUCSORTHOREF
  2

  9
$PUCSORTHOVIEW
 70
     0
  9
$PUCSORGTOP
 10
0.0
 20
0.0
 30
0.0
  9
$PUCSORGBOTTOM
 10
0.0
 20
0.0
 30
0.0
  9
$PUCSORGLEFT
 10
0.0
 20
0.0
 30
0.0
  9
$PUCSORGRIGHT
 10
0.0
 20
0.0
 30
0.0
  9
$PUCSORGFRONT
 10
0.0
 20
0.0
 30
0.0
  9
$PUCSORGBACK
 10
0.0
 20
0.0
 30
0.0
  9
$USERI1
 70
     0
  9
$USERI2
 70
     0
  9
$USERI3
 70
     0
  9
$USERI4
 70
     0
  9
$USERI5
 70
     0
  9
$USERR1
 40
0.0
  9
$USERR2
 40
0.0
  9
$USERR3
 40
0.0
  9
$USERR4
 40
0.0
  9
$USERR5
 40
0.0
  9
$WORLDVIEW
 70
     1
  9
$SHADEDGE
 70
     3
  9
$SHADEDIF
 70
    70
  9
$TILEMODE
 70
     1
  9
$MAXACTVP
 70
    64
  9
$PINSBASE
 10
0.0
 20
0.0
 30
0.0
  9
$PLIMCHECK
 70
     0
  9
$PEXTMIN
 10
0.0
 20
0.0
 30
0.0
  9
$PEXTMAX
 10
0.0
 20
0.0
 30
0.0
  9
$PLIMMIN
 10
0.0
 20
0.0
  9
$PLIMMAX
 10
12.0
 20
9.0
  9
$UNITMODE
 70
     0
  9
$VISRETAIN
 70
     1
  9
$PLINEGEN
 70
     0
  9
$PSLTSCALE
 70
     1
  9
$TREEDEPTH
 70
  3020
  9
$CMLSTYLE
  2
Standard
  9
$CMLJUST
 70
     0
  9
$CMLSCALE
 40
1.0
  9
$PROXYGRAPHICS
 70
     1
  9
$MEASUREMENT
 70
     1
  9
$CELWEIGHT
370
    -1
  9
$ENDCAPS
280
     0
  9
$JOINSTYLE
280
     0
  9
$LWDISPLAY
290
     0
  9
$INSUNITS
 70
     0
  9
$HYPERLINKBASE
  1

  9
$STYLESHEET
  1

  9
$XEDIT
290
     1
  9
$CEPSNTYPE
380
     0
  9
$PSTYLEMODE
290
     1
  9
$FINGERPRINTGUID
  2
{1F2D6530-6BF2-4D5E-922F-A9C54F637010}
  9
$VERSIONGUID
  2
{15AD9CB5-51D1-451C-B472-5DB36EFAD6AD}
  9
$EXTNAMES
290
     1
  9
$PSVPSCALE
 40
0.0
  9
$OLESTARTUP
290
     0
  9
$SORTENTS
280
   127
  9
$INDEXCTL
280
     0
  9
$HIDETEXT
280
     0
  9
$XCLIPFRAME
290
     0
  9
$HALOGAP
280
     0
  9
$OBSCOLOR
 70
   257
  9
$OBSLTYPE
280
     0
  9
$INTERSECTIONDISPLAY
280
     0
  9
$INTERSECTIONCOLOR
 70
   257
  9
$DIMASSOC
280
     1
  9
$PROJECTNAME
  1

  0
ENDSEC
  0
SECTION
  2
CLASSES
  0
CLASS
  1
ACDBDICTIONARYWDFLT
  2
AcDbDictionaryWithDefault
  3
ObjectDBX Classes
 90
        0
 91
        1
280
     0
281
     0
  0
CLASS
  1
TABLESTYLE
  2
AcDbTableStyle
  3
ObjectDBX Classes
 90
     2047
 91
        1
280
     0
281
     0
  0
CLASS
  1
DICTIONARYVAR
  2
AcDbDictionaryVar
  3
ObjectDBX Classes
 90
        0
 91
        1
280
     0
281
     0
  0
ENDSEC
  0
SECTION
  2
TABLES
  0
TABLE
  2
VPORT
  5
10D
330
0
100
AcDbSymbolTable
 70
     2
  0
VPORT
  5
137
330
10D
100
AcDbSymbolTableRecord
100
AcDbViewportTableRecord
  2
*Active
 70
     0
 10
0.0
 20
0.0
 11
1.0
 21
1.0
 12
120
 22
-211.84438360655
 13
0.0
 23
0.0
 14
10.0
 24
10.0
 15
10.0
 25
10.0
 16
0.0
 26
0.0
 36
1.0
 17
0.0
 27
0.0
 37
0.0
 40
551.708552688342
 41
2.435135135135135
 42
50.0
 43
0.0
 44
0.0
 50
0.0
 51
0.0
 71
     0
 72
  1000
 73
     1
 74
     3
 75
     0
 76
     0
 77
     0
 78
     0
281
     0
 65
     1
110
0.0
120
0.0
130
0.0
111
1.0
121
0.0
131
0.0
112
0.0
122
1.0
132
0.0
 79
     0
146
0.0
  0
ENDTAB
  0
TABLE
  2
LTYPE
  5
10A
330
0
100
AcDbSymbolTable
 70
     1
  0
LTYPE
  5
118
330
10A
100
AcDbSymbolTableRecord
100
AcDbLinetypeTableRecord
  2
ByBlock
 70
     0
  3

 72
    65
 73
     0
 40
0.0
  0
LTYPE
  5
119
330
10A
100
AcDbSymbolTableRecord
100
AcDbLinetypeTableRecord
  2
ByLayer
 70
     0
  3

 72
    65
 73
     0
 40
0.0
  0
LTYPE
  5
11A
330
10A
100
AcDbSymbolTableRecord
100
AcDbLinetypeTableRecord
  2
CONTINUOUS
 70
     0
  3
Solid line
 72
    65
 73
     0
 40
0.0
  0
ENDTAB
  0
TABLE
  2
LAYER
  5
107
330
0
100
AcDbSymbolTable
 70
     1
  0
LAYER
  5
115
330
107
100
AcDbSymbolTableRecord
100
AcDbLayerTableRecord
  2
0
 70
     0
 62
     7
  6
CONTINUOUS
370
    -3
390
114
  0
ENDTAB
  0
TABLE
  2
STYLE
  5
108
330
0
100
AcDbSymbolTable
 70
     1
  0
STYLE
  5
116
330
108
100
AcDbSymbolTableRecord
100
AcDbTextStyleTableRecord
  2
STANDARD
 70
     0
 40
0.0
 41
1.0
 50
0.0
 71
     0
 42
2.5
  3
txt
  4
gbcbig.shx
  0
ENDTAB
  0
TABLE
  2
VIEW
  5
10B
330
0
100
AcDbSymbolTable
 70
     0
  0
ENDTAB
  0
TABLE
  2
UCS
  5
10C
330
0
100
AcDbSymbolTable
 70
     0
  0
ENDTAB
  0
TABLE
  2
APPID
  5
10E
330
0
100
AcDbSymbolTable
 70
     2
  0
APPID
  5
117
330
10E
100
AcDbSymbolTableRecord
100
AcDbRegAppTableRecord
  2
ACAD
 70
     0
  0
APPID
  5
12C
330
10E
100
AcDbSymbolTableRecord
100
AcDbRegAppTableRecord
  2
ACAD_PSEXT
 70
     0
  0
APPID
  5
112C
330
10E
100
AcDbSymbolTableRecord
100
AcDbRegAppTableRecord
  2
FS_CYPCUT
 70
     0
  0
ENDTAB
  0
TABLE
  2
DIMSTYLE
  5
10F
330
0
100
AcDbSymbolTable
 70
     1
100
AcDbDimStyleTable
 71
     0
  0
DIMSTYLE
105
12D
330
10F
100
AcDbSymbolTableRecord
100
AcDbDimStyleTableRecord
  2
ISO-25
 70
     0
 41
2.5
 42
0.625
 43
3.75
 44
1.25
 73
     0
 74
     0
 77
     1
 78
     8
140
2.5
141
2.5
143
0.03937007874016
147
0.625
171
     3
172
     1
274
     3
279
     2
284
     8
285
     8
286
     8
340
116
  0
ENDTAB
  0
TABLE
  2
BLOCK_RECORD
  5
106
330
0
100
AcDbSymbolTable
 70
     2
  0
BLOCK_RECORD
  5
127
330
106
100
AcDbSymbolTableRecord
100
AcDbBlockTableRecord
  2
*Model_Space
340
12A
  0
BLOCK_RECORD
  5
123
330
106
100
AcDbSymbolTableRecord
100
AcDbBlockTableRecord
  2
*Paper_Space
340
126
  0
BLOCK_RECORD
  5
130
330
106
100
AcDbSymbolTableRecord
100
AcDbBlockTableRecord
  2
$MODEL_SPACE
340
0
  0
BLOCK_RECORD
  5
132
330
106
100
AcDbSymbolTableRecord
100
AcDbBlockTableRecord
  2
$PAPER_SPACE
340
0
  0
ENDTAB
  0
ENDSEC
  0
SECTION
  2
BLOCKS
  0
BLOCK
  5
128
330
127
100
AcDbEntity
  8
0
100
AcDbBlockBegin
  2
*Model_Space
 70
     0
 10
0.0
 20
0.0
 30
0.0
  3
*Model_Space
  1

  0
ENDBLK
  5
129
330
127
100
AcDbEntity
  8
0
100
AcDbBlockEnd
  0
BLOCK
  5
124
330
123
100
AcDbEntity
 67
     1
  8
0
100
AcDbBlockBegin
  2
*Paper_Space
 70
     0
 10
0.0
 20
0.0
 30
0.0
  3
*Paper_Space
  1

  0
ENDBLK
  5
125
330
123
100
AcDbEntity
 67
     1
  8
0
100
AcDbBlockEnd
  0
BLOCK
  5
131
330
130
100
AcDbEntity
  8
0
100
AcDbBlockBegin
  2
$MODEL_SPACE
 70
     0
 10
0.0
 20
0.0
 30
0.0
  3
$MODEL_SPACE
  1

  0
ENDBLK
  5
21
330
130
100
AcDbEntity
  8
0
100
AcDbBlockEnd
  0
BLOCK
  5
133
330
132
100
AcDbEntity
  8
0
100
AcDbBlockBegin
  2
$PAPER_SPACE
 70
     0
 10
0.0
 20
0.0
 30
0.0
  3
$PAPER_SPACE
  1

  0
ENDBLK
  5
D5
330
132
100
AcDbEntity
  8
0
100
AcDbBlockEnd
       0
ENDSEC
       0
SECTION
       2
ENTITIES
       0
SPLINE
       5
2000
     100
AcDbEntity
       8
1
     100
AcDbSpline
      70
0
      71
3
      72
36
      73
32
      74
0
      40
0
      40
0
      40
0
      40
0
      40
0.125
      40
0.125
      40
0.125
      40
0.125
      40
0.25
      40
0.25
      40
0.25
      40
0.25
      40
0.375
      40
0.375
      40
0.375
      40
0.375
      40
0.5
      40
0.5
      40
0.5
      40
0.5
      40
0.625
      40
0.625
      40
0.625
      40
0.625
      40
0.75
      40
0.75
      40
0.75
      40
0.75
      40
0.875
      40
0.875
      40
0.875
      40
0.875
      40
1
      40
1
      40
1
      40
1
      10
209.500990080114
      20
-344.139667525344
      30
0
      10
210.241096464144
      20
-344.136353035906
      30
0
      10
210.974457265438
      20
-344.449076537666
      30
0
      10
211.488253811788
      20
-344.980989591823
      30
0
      10
211.488253811788
      20
-344.980989591823
      30
0
      10
212.023885466391
      20
-345.524600187064
      30
0
      10
212.321263254086
      20
-346.291038187503
      30
0
      10
212.299157177549
      20
-347.053269214874
      30
0
      10
212.299157177549
      20
-347.053269214874
      30
0
      10
212.284386971546
      20
-347.792353403628
      30
0
      10
211.970117489569
      20
-348.521420234255
      30
0
      10
211.437810110072
      20
-349.035395379309
      30
0
      10
211.437810110072
      20
-349.035395379309
      30
0
      10
210.927127071225
      20
-349.537501985415
      30
0
      10
210.215796893305
      20
-349.830066245429
      30
0
      10
209.498991397108
      20
-349.826316909106
      30
0
      10
209.498991397108
      20
-349.826316909106
      30
0
      10
208.758867143109
      20
-349.829854367743
      30
0
      10
208.025567376357
      20
-349.516785861067
      30
0
      10
207.511751064002
      20
-348.984993606704
      30
0
      10
207.511751064002
      20
-348.984993606704
      30
0
      10
206.976103446196
      20
-348.441383670775
      30
0
      10
206.678776474196
      20
-347.674938666804
      30
0
      10
206.700838173071
      20
-346.912712041057
      30
0
      10
206.700838173071
      20
-346.912712041057
      30
0
      10
206.715676658966
      20
-346.173645963424
      30
0
      10
207.029811543095
      20
-345.444521993863
      30
0
      10
207.562191693734
      20
-344.930590724349
      30
0
      10
207.562191693734
      20
-344.930590724349
      30
0
      10
208.072929418854
      20
-344.42865817758
      30
0
      10
208.784145678992
      20
-344.135645866335
      30
0
      10
209.500990080114
      20
-344.139667525344
      30
0
    1001
FS_CYPCUT
    1000
Channel
    1070
1
    1000
LeadIn
    1002
{
    1070
3
    1040
5.49999999999999
    1040
1.5707963267949
    1040
2
    1040
1
    1070
0
    1040
0.5
    1070
0
    1002
}
    1000
LeadOut
    1002
{
    1070
0
    1040
0
    1040
0.523598775598299
    1040
3
    1070
0
    1002
}
    1000
IsFill
    1070
0
    1000
PathStart
    1040
5.49999999999999
    1000
ToolCompensation
    1002
{
    1070
0
    1040
0
    1070
0
    1002
}
       0
SPLINE
       5
2001
     100
AcDbEntity
       8
1
     100
AcDbSpline
      70
0
      71
3
      72
36
      73
32
      74
0
      40
0
      40
0
      40
0
      40
0
      40
0.125
      40
0.125
      40
0.125
      40
0.125
      40
0.25
      40
0.25
      40
0.25
      40
0.25
      40
0.375
      40
0.375
      40
0.375
      40
0.375
      40
0.5
      40
0.5
      40
0.5
      40
0.5
      40
0.625
      40
0.625
      40
0.625
      40
0.625
      40
0.75
      40
0.75
      40
0.75
      40
0.75
      40
0.875
      40
0.875
      40
0.875
      40
0.875
      40
1
      40
1
      40
1
      40
1
      10
209.500990080114
      20
-276.570363635935
      30
0
      10
210.241096464148
      20
-276.567049146488
      30
0
      10
210.974457265431
      20
-276.879772648268
      30
0
      10
211.488253811789
      20
-277.411685702415
      30
0
      10
211.488253811789
      20
-277.411685702415
      30
0
      10
212.023885466391
      20
-277.955296297654
      30
0
      10
212.321263254088
      20
-278.721734298097
      30
0
      10
212.299157177549
      20
-279.483965325465
      30
0
      10
212.299157177549
      20
-279.483965325465
      30
0
      10
212.284386971523
      20
-280.223049514209
      30
0
      10
211.970117489599
      20
-280.952116344865
      30
0
      10
211.437810110072
      20
-281.466091489899
      30
0
      10
211.437810110072
      20
-281.466091489899
      30
0
      10
210.927127071228
      20
-281.968198096006
      30
0
      10
210.215796893306
      20
-282.260762356024
      30
0
      10
209.49899139711
      20
-282.257013019698
      30
0
      10
209.49899139711
      20
-282.257013019698
      30
0
      10
208.75886714311
      20
-282.26055047832
      30
0
      10
208.025567376361
      20
-281.94748197166
      30
0
      10
207.511751064002
      20
-281.415689717295
      30
0
      10
207.511751064002
      20
-281.415689717295
      30
0
      10
206.976103446193
      20
-280.87207978137
      30
0
      10
206.678776474195
      20
-280.105634777393
      30
0
      10
206.700838173071
      20
-279.343408151648
      30
0
      10
206.700838173071
      20
-279.343408151648
      30
0
      10
206.71567665897
      20
-278.604342074014
      30
0
      10
207.029811543095
      20
-277.875218104456
      30
0
      10
207.562191693734
      20
-277.361286834939
      30
0
      10
207.562191693734
      20
-277.361286834939
      30
0
      10
208.072929418847
      20
-276.859354288162
      30
0
      10
208.784145678996
      20
-276.566341976934
      30
0
      10
209.500990080114
      20
-276.570363635935
      30
0
    1001
FS_CYPCUT
    1000
Channel
    1070
1
    1000
LeadIn
    1002
{
    1070
3
    1040
5.50000000000002
    1040
1.5707963267949
    1040
2
    1040
1
    1070
0
    1040
0.5
    1070
0
    1002
}
    1000
LeadOut
    1002
{
    1070
0
    1040
0
    1040
0.523598775598299
    1040
3
    1070
0
    1002
}
    1000
IsFill
    1070
0
    1000
PathStart
    1040
5.50000000000002
    1000
ToolCompensation
    1002
{
    1070
0
    1040
0
    1070
0
    1002
}
       0
SPLINE
       5
2002
     100
AcDbEntity
       8
1
     100
AcDbSpline
      70
0
      71
3
      72
36
      73
32
      74
0
      40
0
      40
0
      40
0
      40
0
      40
0.125
      40
0.125
      40
0.125
      40
0.125
      40
0.25
      40
0.25
      40
0.25
      40
0.25
      40
0.375
      40
0.375
      40
0.375
      40
0.375
      40
0.5
      40
0.5
      40
0.5
      40
0.5
      40
0.625
      40
0.625
      40
0.625
      40
0.625
      40
0.75
      40
0.75
      40
0.75
      40
0.75
      40
0.875
      40
0.875
      40
0.875
      40
0.875
      40
1
      40
1
      40
1
      40
1
      10
209.500990080114
      20
-209.001059746526
      30
0
      10
210.241096509458
      20
-208.997745258142
      30
0
      10
210.974457346393
      20
-209.310468797365
      30
0
      10
211.488253902822
      20
-209.84238190645
      30
0
      10
211.488253902822
      20
-209.84238190645
      30
0
      10
212.023885576497
      20
-210.385992534428
      30
0
      10
212.321263286446
      20
-211.152430682466
      30
0
      10
212.299157184533
      20
-211.914661656801
      30
0
      10
212.299157184533
      20
-211.914661656801
      30
0
      10
212.28438935148
      20
-212.653742749721
      30
0
      10
211.970114731607
      20
-213.382811739589
      30
0
      10
211.437810794419
      20
-213.896789249412
      30
0
      10
211.437810794419
      20
-213.896789249412
      30
0
      10
210.927141818216
      20
-214.398933667883
      30
0
      10
210.215789306498
      20
-214.691423655064
      30
0
      10
209.498992549958
      20
-214.687709411429
      30
0
      10
209.498992549958
      20
-214.687709411429
      30
0
      10
208.758869132065
      20
-214.691240354675
      30
0
      10
208.025566625298
      20
-214.378181833613
      30
0
      10
207.511751339374
      20
-213.846386109293
      30
0
      10
207.511751339374
      20
-213.846386109293
      30
0
      10
206.976103630313
      20
-213.302776211882
      30
0
      10
206.678776521579
      20
-212.536331183468
      30
0
      10
206.700838169194
      20
-211.774104518732
      30
0
      10
206.700838169194
      20
-211.774104518732
      30
0
      10
206.715676589149
      20
-211.035038388928
      30
0
      10
207.029811433403
      20
-210.305914362452
      30
0
      10
207.562191611903
      20
-209.791983028815
      30
0
      10
207.562191611903
      20
-209.791983028815
      30
0
      10
208.072930198786
      20
-209.290049882338
      30
0
      10
208.78414533121
      20
-208.997038317546
      30
0
      10
209.500990080114
      20
-209.001059746526
      30
0
    1001
FS_CYPCUT
    1000
Channel
    1070
1
    1000
LeadIn
    1002
{
    1070
3
    1040
5.5
    1040
1.5707963267949
    1040
2
    1040
1
    1070
0
    1040
0.5
    1070
0
    1002
}
    1000
LeadOut
    1002
{
    1070
0
    1040
0
    1040
0.523598775598299
    1040
3
    1070
0
    1002
}
    1000
IsFill
    1070
0
    1000
PathStart
    1040
5.5
    1000
ToolCompensation
    1002
{
    1070
0
    1040
0
    1070
0
    1002
}
       0
SPLINE
       5
2003
     100
AcDbEntity
       8
1
     100
AcDbSpline
      70
0
      71
3
      72
36
      73
32
      74
0
      40
0
      40
0
      40
0
      40
0
      40
0.125
      40
0.125
      40
0.125
      40
0.125
      40
0.25
      40
0.25
      40
0.25
      40
0.25
      40
0.375
      40
0.375
      40
0.375
      40
0.375
      40
0.5
      40
0.5
      40
0.5
      40
0.5
      40
0.625
      40
0.625
      40
0.625
      40
0.625
      40
0.75
      40
0.75
      40
0.75
      40
0.75
      40
0.875
      40
0.875
      40
0.875
      40
0.875
      40
1
      40
1
      40
1
      40
1
      10
209.500990080114
      20
-141.431755857118
      30
0
      10
210.241096464151
      20
-141.428441367667
      30
0
      10
210.974457265427
      20
-141.741164869457
      30
0
      10
211.488253811789
      20
-142.273077923598
      30
0
      10
211.488253811789
      20
-142.273077923598
      30
0
      10
212.023885466407
      20
-142.816688518828
      30
0
      10
212.321263254069
      20
-143.583126519285
      30
0
      10
212.29915717755
      20
-144.345357546649
      30
0
      10
212.29915717755
      20
-144.345357546649
      30
0
      10
212.284386971542
      20
-145.0844417354
      30
0
      10
211.970117489577
      20
-145.813508566035
      30
0
      10
211.437810110072
      20
-146.327483711084
      30
0
      10
211.437810110072
      20
-146.327483711084
      30
0
      10
210.927127071229
      20
-146.829590317195
      30
0
      10
210.215796893303
      20
-147.122154577198
      30
0
      10
209.498991397108
      20
-147.118405240881
      30
0
      10
209.498991397108
      20
-147.118405240881
      30
0
      10
208.758867143107
      20
-147.121942699509
      30
0
      10
208.025567376361
      20
-146.80887419284
      30
0
      10
207.511751064001
      20
-146.277081938477
      30
0
      10
207.511751064001
      20
-146.277081938477
      30
0
      10
206.976103446182
      20
-145.733472002559
      30
0
      10
206.678776474203
      20
-144.967026998572
      30
0
      10
206.700838173072
      20
-144.204800372831
      30
0
      10
206.700838173072
      20
-144.204800372831
      30
0
      10
206.715676658982
      20
-143.465734295203
      30
0
      10
207.029811543078
      20
-142.736610325628
      30
0
      10
207.562191693734
      20
-142.222679056123
      30
0
      10
207.562191693734
      20
-142.222679056123
      30
0
      10
208.072929418858
      20
-141.720746509363
      30
0
      10
208.784145678989
      20
-141.427734198099
      30
0
      10
209.500990080114
      20
-141.431755857118
      30
0
    1001
FS_CYPCUT
    1000
Channel
    1070
1
    1000
LeadIn
    1002
{
    1070
3
    1040
5.5
    1040
1.5707963267949
    1040
2
    1040
1
    1070
0
    1040
0.5
    1070
0
    1002
}
    1000
LeadOut
    1002
{
    1070
0
    1040
0
    1040
0.523598775598299
    1040
3
    1070
0
    1002
}
    1000
IsFill
    1070
0
    1000
PathStart
    1040
5.5
    1000
ToolCompensation
    1002
{
    1070
0
    1040
0
    1070
0
    1002
}
       0
SPLINE
       5
2004
     100
AcDbEntity
       8
1
     100
AcDbSpline
      70
0
      71
3
      72
36
      73
32
      74
0
      40
0
      40
0
      40
0
      40
0
      40
0.125
      40
0.125
      40
0.125
      40
0.125
      40
0.25
      40
0.25
      40
0.25
      40
0.25
      40
0.375
      40
0.375
      40
0.375
      40
0.375
      40
0.5
      40
0.5
      40
0.5
      40
0.5
      40
0.625
      40
0.625
      40
0.625
      40
0.625
      40
0.75
      40
0.75
      40
0.75
      40
0.75
      40
0.875
      40
0.875
      40
0.875
      40
0.875
      40
1
      40
1
      40
1
      40
1
      10
209.500990080114
      20
-73.8624519677093
      30
0
      10
210.241096464145
      20
-73.8591374782714
      30
0
      10
210.974457265437
      20
-74.1718609800327
      30
0
      10
211.488253811789
      20
-74.7037740341889
      30
0
      10
211.488253811789
      20
-74.7037740341889
      30
0
      10
212.023885466391
      20
-75.2473846294269
      30
0
      10
212.321263254088
      20
-76.0138226298706
      30
0
      10
212.299157177549
      20
-76.7760536572389
      30
0
      10
212.299157177549
      20
-76.7760536572389
      30
0
      10
212.284386971528
      20
-77.5151378459873
      30
0
      10
211.970117489588
      20
-78.2442046766317
      30
0
      10
211.437810110072
      20
-78.7581798216745
      30
0
      10
211.437810110072
      20
-78.7581798216745
      30
0
      10
210.927127071222
      20
-79.2602864277712
      30
0
      10
210.215796893308
      20
-79.552850687811
      30
0
      10
209.498991397109
      20
-79.549101351472
      30
0
      10
209.498991397109
      20
-79.549101351472
      30
0
      10
208.758867143113
      20
-79.552638810089
      30
0
      10
208.025567376353
      20
-79.2395703034447
      30
0
      10
207.511751064002
      20
-78.7077780490698
      30
0
      10
207.511751064002
      20
-78.7077780490698
      30
0
      10
206.976103446206
      20
-78.1641681131341
      30
0
      10
206.678776474186
      20
-77.3977231091726
      30
0
      10
206.700838173071
      20
-76.6354964834221
      30
0
      10
206.700838173071
      20
-76.6354964834221
      30
0
      10
206.715676658984
      20
-75.8964304057985
      30
0
      10
207.029811543066
      20
-75.1673064362101
      30
0
      10
207.562191693734
      20
-74.6533751667171
      30
0
      10
207.562191693734
      20
-74.6533751667171
      30
0
      10
208.072929418859
      20
-74.1514426199528
      30
0
      10
208.784145678989
      20
-73.8584303087
      30
0
      10
209.500990080114
      20
-73.8624519677093
      30
0
    1001
FS_CYPCUT
    1000
Channel
    1070
1
    1000
LeadIn
    1002
{
    1070
3
    1040
5.5
    1040
1.5707963267949
    1040
2
    1040
1
    1070
0
    1040
0.5
    1070
0
    1002
}
    1000
LeadOut
    1002
{
    1070
0
    1040
0
    1040
0.523598775598299
    1040
3
    1070
0
    1002
}
    1000
IsFill
    1070
0
    1000
PathStart
    1040
5.5
    1000
ToolCompensation
    1002
{
    1070
0
    1040
0
    1070
0
    1002
}
       0
LWPOLYLINE
       5
2005
     100
AcDbEntity
       8
1
     100
AcDbPolyline
      90
36
      70
1
      10
240
      20
-35
      42
0
      10
240
      20
-388.6887672131
      42
-0.414213562373097
      10
230
      20
-398.6887672131
      42
0
      10
150
      20
-398.6887672131
      42
0.414213562373093
      10
145
      20
-403.6887672131
      42
0
      10
145
      20
-413.6887672131
      42
-0.414213562373098
      10
135
      20
-423.6887672131
      42
0
      10
129
      20
-423.6887672131
      42
-0.414213562373098
      10
126
      20
-420.6887672131
      42
0
      10
126
      20
-398.6887672131
      42
1.00000000000001
      10
114
      20
-398.6887672131
      42
0
      10
114
      20
-420.6887672131
      42
-0.414213562373081
      10
111
      20
-423.6887672131
      42
0
      10
105
      20
-423.6887672131
      42
-0.414213562373091
      10
95
      20
-413.6887672131
      42
0
      10
95
      20
-403.6887672131
      42
0.414213562373099
      10
90
      20
-398.6887672131
      42
0
      10
10
      20
-398.6887672131
      42
-0.414213562373095
      10
-4.10338429901458E-13
      20
-388.6887672131
      42
0
      10
1.15463194561016E-13
      20
-35
      42
-0.414213562373095
      10
10
      20
-25.0000000000001
      42
0
      10
90
      20
-25.0000000000001
      42
0.414213562373094
      10
95.0000000000001
      20
-20
      42
0
      10
95.0000000000001
      20
-10
      42
-0.414213562373095
      10
105
      20
0
      42
0
      10
111
      20
0
      42
-0.414213562373095
      10
114
      20
-3
      42
0
      10
114
      20
-25
      42
1
      10
126
      20
-25
      42
0
      10
126
      20
-3
      42
-0.414213562373094
      10
129
      20
0
      42
0
      10
135
      20
1.20792265079217E-13
      42
-0.414213562373097
      10
145
      20
-10
      42
0
      10
145
      20
-20
      42
0.414213562373106
      10
150
      20
-25.0000000000001
      42
0
      10
230
      20
-24.9999999999997
      42
-0.414213562373094
    1001
FS_CYPCUT
    1000
Channel
    1070
1
    1000
LeadIn
    1002
{
    1070
3
    1040
0.5
    1040
1.5707963267949
    1040
2
    1040
1
    1070
0
    1040
0.5
    1070
0
    1002
}
    1000
LeadOut
    1002
{
    1070
0
    1040
0
    1040
0.523598775598299
    1040
3
    1070
0
    1002
}
    1000
IsFill
    1070
1
    1000
PathStart
    1040
0.5
    1000
ToolCompensation
    1002
{
    1070
0
    1040
0
    1070
0
    1002
}
    1000
MicroConnect
    1002
{
    1070
4
    1040
0.476735283808403
    1041
0.8
    1042
0
    1040
9.5
    1041
0.8
    1042
0
    1040
18.4990260860839
    1041
0.8
    1042
0
    1040
27.5
    1041
0.8
    1042
0
    1002
}
       0
ENDSEC
  0
SECTION
  2
OBJECTS
  0
DICTIONARY
  5
111
330
0
100
AcDbDictionary
281
     1
  3
ACAD_COLOR
350
120
  3
ACAD_GROUP
350
112
  3
ACAD_LAYOUT
350
11E
  3
ACAD_MATERIAL
350
11F
  3
ACAD_MLINESTYLE
350
11B
  3
ACAD_PLOTSETTINGS
350
11D
  3
ACAD_PLOTSTYLENAME
350
113
  3
ACAD_TABLESTYLE
350
121
  3
AcDbVariableDictionary
350
135
  0
DICTIONARY
  5
120
102
{ACAD_REACTORS
330
111
102
}
330
111
100
AcDbDictionary
281
     1
  0
DICTIONARY
  5
112
102
{ACAD_REACTORS
330
111
102
}
330
111
100
AcDbDictionary
281
     1
  0
DICTIONARY
  5
11E
102
{ACAD_REACTORS
330
111
102
}
330
111
100
AcDbDictionary
281
     1
  3
Model
350
12A
  3
布局1
350
126
  0
DICTIONARY
  5
11F
102
{ACAD_REACTORS
330
111
102
}
330
111
100
AcDbDictionary
281
     1
  0
DICTIONARY
  5
11B
102
{ACAD_REACTORS
330
111
102
}
330
111
100
AcDbDictionary
281
     1
  3
Standard
350
11C
  0
DICTIONARY
  5
11D
102
{ACAD_REACTORS
330
111
102
}
330
111
100
AcDbDictionary
281
     1
  0
ACDBDICTIONARYWDFLT
  5
113
102
{ACAD_REACTORS
330
111
102
}
330
111
100
AcDbDictionary
281
     1
  3
Normal
350
114
100
AcDbDictionaryWithDefault
340
114
  0
DICTIONARY
  5
121
102
{ACAD_REACTORS
330
111
102
}
330
111
100
AcDbDictionary
281
     1
  3
Standard
350
122
  0
DICTIONARY
  5
135
102
{ACAD_REACTORS
330
111
102
}
330
111
100
AcDbDictionary
281
     1
  3
CTABLESTYLE
350
136
  0
LAYOUT
  5
12A
102
{ACAD_REACTORS
330
11E
102
}
330
11E
100
AcDbPlotSettings
  1

  2
发送至 OneNote 2010
  4

  6

 40
0.0
 41
0.0
 42
0.0
 43
0.0
 44
0.0
 45
0.0
 46
0.0
 47
0.0
 48
0.0
 49
0.0
140
0.0
141
0.0
142
1.0
143
1.0
 70
  1712
 72
     0
 73
     0
 74
     0
  7

 75
     0
147
1.0
 76
     0
 77
     2
 78
   300
148
0.0
149
0.0
100
AcDbLayout
  1
Model
 70
     1
 71
     0
 10
0.0
 20
0.0
 11
12.0
 21
9.0
 12
0.0
 22
0.0
 32
0.0
 14
0.0
 24
0.0
 34
0.0
 15
0.0
 25
0.0
 35
0.0
146
0.0
 13
0.0
 23
0.0
 33
0.0
 16
1.0
 26
0.0
 36
0.0
 17
0.0
 27
1.0
 37
0.0
 76
     0
330
127
  0
LAYOUT
  5
126
102
{ACAD_REACTORS
330
11E
102
}
330
11E
100
AcDbPlotSettings
  1

  2
发送至 OneNote 2010
  4

  6

 40
0.0
 41
0.0
 42
0.0
 43
0.0
 44
0.0
 45
0.0
 46
0.0
 47
0.0
 48
0.0
 49
0.0
140
0.0
141
0.0
142
1.0
143
1.0
 70
   688
 72
     0
 73
     0
 74
     5
  7

 75
    16
147
1.0
 76
     0
 77
     2
 78
   300
148
0.0
149
0.0
100
AcDbLayout
  1
布局1
 70
     1
 71
     1
 10
0.0
 20
0.0
 11
12.0
 21
9.0
 12
0.0
 22
0.0
 32
0.0
 14
0.0
 24
0.0
 34
0.0
 15
0.0
 25
0.0
 35
0.0
146
0.0
 13
0.0
 23
0.0
 33
0.0
 16
1.0
 26
0.0
 36
0.0
 17
0.0
 27
1.0
 37
0.0
 76
     0
330
123
  0
MLINESTYLE
  5
11C
102
{ACAD_REACTORS
330
11B
102
}
330
11B
100
AcDbMlineStyle
  2
STANDARD
 70
     0
  3

 62
   256
 51
90.0
 52
90.0
 71
     2
 49
0.5
 62
   256
  6
BYLAYER
 49
-0.5
 62
   256
  6
BYLAYER
  0
ACDBPLACEHOLDER
  5
114
102
{ACAD_REACTORS
330
113
102
}
330
113
  0
TABLESTYLE
  5
122
102
{ACAD_REACTORS
330
121
102
}
330
121
100
AcDbTableStyle
  3
Standard
 70
     0
 71
     0
 40
0.06
 41
0.06
280
     0
281
     0
  7
STANDARD
140
0.18
170
     2
 62
     0
 63
     7
283
     0
274
    -2
284
     1
 64
     0
275
    -2
285
     1
 65
     0
276
    -2
286
     1
 66
     0
277
    -2
287
     1
 67
     0
278
    -2
288
     1
 68
     0
279
    -2
289
     1
 69
     0
  7
STANDARD
140
0.25
170
     5
 62
     0
 63
     7
283
     0
274
    -2
284
     1
 64
     0
275
    -2
285
     1
 65
     0
276
    -2
286
     1
 66
     0
277
    -2
287
     1
 67
     0
278
    -2
288
     1
 68
     0
279
    -2
289
     1
 69
     0
  7
STANDARD
140
0.18
170
     5
 62
     0
 63
     7
283
     0
274
    -2
284
     1
 64
     0
275
    -2
285
     1
 65
     0
276
    -2
286
     1
 66
     0
277
    -2
287
     1
 67
     0
278
    -2
288
     1
 68
     0
279
    -2
289
     1
 69
     0
  0
DICTIONARYVAR
  5
136
102
{ACAD_REACTORS
330
135
102
}
330
135
100
DictionaryVariables
280
     0
  1
STANDARD
  0
ENDSEC
  0
EOF
